<?xml version="1.0" encoding="UTF-8" standalone="no"?>
<!DOCTYPE svg PUBLIC "-//W3C//DTD SVG 1.1//EN"
 "http://www.w3.org/Graphics/SVG/1.1/DTD/svg11.dtd">
<!-- Generated by graphviz version 2.36.0 (20140111.2315)
 -->
<!-- Title: application.Turtle.setLocation Pages: 1 -->
<svg width="768pt" height="136pt"
 viewBox="0.00 0.00 768.00 136.00" xmlns="http://www.w3.org/2000/svg" xmlns:xlink="http://www.w3.org/1999/xlink">
<g id="graph0" class="graph" transform="scale(1 1) rotate(0) translate(4 132)">
<title>application.Turtle.setLocation</title>
<polygon fill="white" stroke="none" points="-4,4 -4,-132 764,-132 764,4 -4,4"/>
<!-- Node1 -->
<g id="node1" class="node"><title>Node1</title>
<polygon fill="#bfbfbf" stroke="black" points="0.5,-32.5 0.5,-51.5 155.5,-51.5 155.5,-32.5 0.5,-32.5"/>
<text text-anchor="middle" x="78" y="-39.5" font-family="Helvetica,sans-Serif" font-size="10.00">application.Turtle.setLocation</text>
</g>
<!-- Node2 -->
<g id="node2" class="node"><title>Node2</title>
<g id="a_node2"><a xlink:href="../../d8/d65/classapplication_1_1_view_handler.html#a1aff135a076a9717102bb59ea613131c" target="_top" xlink:title="application.ViewHandler.change\lLocationOfTurtle">
<polygon fill="white" stroke="black" points="376,-49 376,-79 544,-79 544,-49 376,-49"/>
<text text-anchor="start" x="384" y="-67" font-family="Helvetica,sans-Serif" font-size="10.00">application.ViewHandler.change</text>
<text text-anchor="middle" x="460" y="-56" font-family="Helvetica,sans-Serif" font-size="10.00">LocationOfTurtle</text>
</a>
</g>
</g>
<!-- Node1&#45;&gt;Node2 -->
<g id="edge1" class="edge"><title>Node1&#45;&gt;Node2</title>
<path fill="none" stroke="midnightblue" d="M166.219,-47.0495C229.26,-50.6993 313.897,-55.5993 375.956,-59.1922"/>
<polygon fill="midnightblue" stroke="midnightblue" points="166.084,-43.5359 155.899,-46.452 165.68,-50.5242 166.084,-43.5359"/>
</g>
<!-- Node5 -->
<g id="node5" class="node"><title>Node5</title>
<g id="a_node5"><a xlink:href="../../d8/d65/classapplication_1_1_view_handler.html#a0dd92f1869c84b869aa893f428ba149b" target="_top" xlink:title="application.ViewHandler.set\lTurtleLocToViewTurtleLoc">
<polygon fill="white" stroke="black" points="192,-5 192,-35 340,-35 340,-5 192,-5"/>
<text text-anchor="start" x="200" y="-23" font-family="Helvetica,sans-Serif" font-size="10.00">application.ViewHandler.set</text>
<text text-anchor="middle" x="266" y="-12" font-family="Helvetica,sans-Serif" font-size="10.00">TurtleLocToViewTurtleLoc</text>
</a>
</g>
</g>
<!-- Node1&#45;&gt;Node5 -->
<g id="edge4" class="edge"><title>Node1&#45;&gt;Node5</title>
<path fill="none" stroke="midnightblue" d="M165.844,-31.7281C174.505,-30.7037 183.238,-29.6708 191.74,-28.6651"/>
<polygon fill="midnightblue" stroke="midnightblue" points="165.247,-28.2743 155.727,-32.9247 166.069,-35.2258 165.247,-28.2743"/>
</g>
<!-- Node3 -->
<g id="node3" class="node"><title>Node3</title>
<g id="a_node3"><a xlink:href="../../d5/de0/classcommands_1_1view_commands_1_1turtle_commands_1_1_clear_screen.html#ae547e4c170a1b6d41cdfc6c8bfe5e972" target="_top" xlink:title="commands.viewCommands.turtle\lCommands.ClearScreen.execute">
<polygon fill="white" stroke="black" points="581,-98 581,-128 759,-128 759,-98 581,-98"/>
<text text-anchor="start" x="589" y="-116" font-family="Helvetica,sans-Serif" font-size="10.00">commands.viewCommands.turtle</text>
<text text-anchor="middle" x="670" y="-105" font-family="Helvetica,sans-Serif" font-size="10.00">Commands.ClearScreen.execute</text>
</a>
</g>
</g>
<!-- Node2&#45;&gt;Node3 -->
<g id="edge2" class="edge"><title>Node2&#45;&gt;Node3</title>
<path fill="none" stroke="midnightblue" d="M534.568,-81.3309C557.661,-86.7712 582.95,-92.7285 605.3,-97.9938"/>
<polygon fill="midnightblue" stroke="midnightblue" points="535.357,-77.9209 524.82,-79.0346 533.751,-84.7344 535.357,-77.9209"/>
</g>
<!-- Node4 -->
<g id="node4" class="node"><title>Node4</title>
<g id="a_node4"><a xlink:href="../../dd/da6/classcommands_1_1view_commands_1_1turtle_commands_1_1_move.html#af4d9a4d9ade56b5e3a1e582bd891b7b5" target="_top" xlink:title="commands.viewCommands.turtle\lCommands.Move.goToLocation">
<polygon fill="white" stroke="black" points="581,-49 581,-79 759,-79 759,-49 581,-49"/>
<text text-anchor="start" x="589" y="-67" font-family="Helvetica,sans-Serif" font-size="10.00">commands.viewCommands.turtle</text>
<text text-anchor="middle" x="670" y="-56" font-family="Helvetica,sans-Serif" font-size="10.00">Commands.Move.goToLocation</text>
</a>
</g>
</g>
<!-- Node2&#45;&gt;Node4 -->
<g id="edge3" class="edge"><title>Node2&#45;&gt;Node4</title>
<path fill="none" stroke="midnightblue" d="M554.11,-64C563.026,-64 572.05,-64 580.916,-64"/>
<polygon fill="midnightblue" stroke="midnightblue" points="554.104,-60.5001 544.104,-64 554.104,-67.5001 554.104,-60.5001"/>
</g>
<!-- Node5&#45;&gt;Node2 -->
<g id="edge7" class="edge"><title>Node5&#45;&gt;Node2</title>
<path fill="none" stroke="midnightblue" d="M342.353,-37.2684C359.226,-41.1352 376.993,-45.2066 393.431,-48.9738"/>
<polygon fill="midnightblue" stroke="midnightblue" points="343.068,-33.8415 332.539,-35.0192 341.504,-40.6646 343.068,-33.8415"/>
</g>
<!-- Node6 -->
<g id="node6" class="node"><title>Node6</title>
<g id="a_node6"><a xlink:href="../../d8/d65/classapplication_1_1_view_handler.html#a1a94c855ceb0e8ffb1f72f138addb75b" target="_top" xlink:title="application.ViewHandler.move\lTurtle">
<polygon fill="white" stroke="black" points="380,-0 380,-30 540,-30 540,-0 380,-0"/>
<text text-anchor="start" x="388" y="-18" font-family="Helvetica,sans-Serif" font-size="10.00">application.ViewHandler.move</text>
<text text-anchor="middle" x="460" y="-7" font-family="Helvetica,sans-Serif" font-size="10.00">Turtle</text>
</a>
</g>
</g>
<!-- Node5&#45;&gt;Node6 -->
<g id="edge5" class="edge"><title>Node5&#45;&gt;Node6</title>
<path fill="none" stroke="midnightblue" d="M350.318,-17.8303C360.169,-17.5737 370.202,-17.3124 379.992,-17.0575"/>
<polygon fill="midnightblue" stroke="midnightblue" points="350.04,-14.3362 340.135,-18.0955 350.222,-21.3338 350.04,-14.3362"/>
</g>
<!-- Node7 -->
<g id="node7" class="node"><title>Node7</title>
<g id="a_node7"><a xlink:href="../../dd/da6/classcommands_1_1view_commands_1_1turtle_commands_1_1_move.html#af95e8ccf5c290a4d06f79caf2deed407" target="_top" xlink:title="commands.viewCommands.turtle\lCommands.Move.changeLocation">
<polygon fill="white" stroke="black" points="580.5,-0 580.5,-30 759.5,-30 759.5,-0 580.5,-0"/>
<text text-anchor="start" x="588.5" y="-18" font-family="Helvetica,sans-Serif" font-size="10.00">commands.viewCommands.turtle</text>
<text text-anchor="middle" x="670" y="-7" font-family="Helvetica,sans-Serif" font-size="10.00">Commands.Move.changeLocation</text>
</a>
</g>
</g>
<!-- Node6&#45;&gt;Node7 -->
<g id="edge6" class="edge"><title>Node6&#45;&gt;Node7</title>
<path fill="none" stroke="midnightblue" d="M550.447,-15C560.329,-15 570.39,-15 580.264,-15"/>
<polygon fill="midnightblue" stroke="midnightblue" points="550.229,-11.5001 540.229,-15 550.229,-18.5001 550.229,-11.5001"/>
</g>
</g>
</svg>
