<?xml version="1.0" encoding="UTF-8" standalone="no"?>
<!DOCTYPE svg PUBLIC "-//W3C//DTD SVG 1.1//EN"
 "http://www.w3.org/Graphics/SVG/1.1/DTD/svg11.dtd">
<!-- Generated by graphviz version 2.36.0 (20140111.2315)
 -->
<!-- Title: application.Turtle.getLoc Pages: 1 -->
<svg width="1366pt" height="545pt"
 viewBox="0.00 0.00 1366.00 545.22" xmlns="http://www.w3.org/2000/svg" xmlns:xlink="http://www.w3.org/1999/xlink">
<g id="graph0" class="graph" transform="scale(1 1) rotate(0) translate(4 541.224)">
<title>application.Turtle.getLoc</title>
<polygon fill="white" stroke="none" points="-4,4 -4,-541.224 1362,-541.224 1362,4 -4,4"/>
<!-- Node1 -->
<g id="node1" class="node"><title>Node1</title>
<polygon fill="#bfbfbf" stroke="black" points="0,-75.5 0,-94.5 132,-94.5 132,-75.5 0,-75.5"/>
<text text-anchor="middle" x="66" y="-82.5" font-family="Helvetica,sans-Serif" font-size="10.00">application.Turtle.getLoc</text>
</g>
<!-- Node2 -->
<g id="node2" class="node"><title>Node2</title>
<g id="a_node2"><a xlink:href="../../d8/d65/classapplication_1_1_view_handler.html#a1aff135a076a9717102bb59ea613131c" target="_top" xlink:title="application.ViewHandler.change\lLocationOfTurtle">
<polygon fill="white" stroke="black" points="959,-212 959,-242 1127,-242 1127,-212 959,-212"/>
<text text-anchor="start" x="967" y="-230" font-family="Helvetica,sans-Serif" font-size="10.00">application.ViewHandler.change</text>
<text text-anchor="middle" x="1043" y="-219" font-family="Helvetica,sans-Serif" font-size="10.00">LocationOfTurtle</text>
</a>
</g>
</g>
<!-- Node1&#45;&gt;Node2 -->
<g id="edge1" class="edge"><title>Node1&#45;&gt;Node2</title>
<path fill="none" stroke="midnightblue" d="M142.177,-89.3939C341.689,-101.184 871.842,-133.41 908,-145 953.452,-159.569 999.381,-192.538 1023.89,-211.943"/>
<polygon fill="midnightblue" stroke="midnightblue" points="142.264,-85.893 132.075,-88.7977 141.851,-92.8808 142.264,-85.893"/>
</g>
<!-- Node5 -->
<g id="node5" class="node"><title>Node5</title>
<g id="a_node5"><a xlink:href="../../d8/d65/classapplication_1_1_view_handler.html#a8a3722771a70075225d9c37dc1ff5e8d" target="_top" xlink:title="application.ViewHandler.get\lTurtleLocation">
<polygon fill="white" stroke="black" points="168.5,-265 168.5,-295 317.5,-295 317.5,-265 168.5,-265"/>
<text text-anchor="start" x="176.5" y="-283" font-family="Helvetica,sans-Serif" font-size="10.00">application.ViewHandler.get</text>
<text text-anchor="middle" x="243" y="-272" font-family="Helvetica,sans-Serif" font-size="10.00">TurtleLocation</text>
</a>
</g>
</g>
<!-- Node1&#45;&gt;Node5 -->
<g id="edge4" class="edge"><title>Node1&#45;&gt;Node5</title>
<path fill="none" stroke="midnightblue" d="M82.5313,-102.306C116.407,-140.054 196.456,-229.251 228.446,-264.897"/>
<polygon fill="midnightblue" stroke="midnightblue" points="84.9623,-99.7748 75.6783,-94.6701 79.7526,-104.45 84.9623,-99.7748"/>
</g>
<!-- Node7 -->
<g id="node7" class="node"><title>Node7</title>
<g id="a_node7"><a xlink:href="../../d8/d65/classapplication_1_1_view_handler.html#a1a94c855ceb0e8ffb1f72f138addb75b" target="_top" xlink:title="application.ViewHandler.move\lTurtle">
<polygon fill="white" stroke="black" points="963,-29 963,-59 1123,-59 1123,-29 963,-29"/>
<text text-anchor="start" x="971" y="-47" font-family="Helvetica,sans-Serif" font-size="10.00">application.ViewHandler.move</text>
<text text-anchor="middle" x="1043" y="-36" font-family="Helvetica,sans-Serif" font-size="10.00">Turtle</text>
</a>
</g>
</g>
<!-- Node1&#45;&gt;Node7 -->
<g id="edge25" class="edge"><title>Node1&#45;&gt;Node7</title>
<path fill="none" stroke="midnightblue" d="M99.9192,-71.7996C162.532,-47.9205 303.561,-0 427,-0 427,-0 427,-0 625,-0 751.061,-0 782.934,-3.19059 908,-19 928.191,-21.5524 949.939,-25.2112 969.919,-28.9451"/>
<polygon fill="midnightblue" stroke="midnightblue" points="98.6259,-68.5471 90.5582,-75.4146 101.148,-75.0771 98.6259,-68.5471"/>
</g>
<!-- Node19 -->
<g id="node19" class="node"><title>Node19</title>
<g id="a_node19"><a xlink:href="../../d8/d65/classapplication_1_1_view_handler.html#a0dd92f1869c84b869aa893f428ba149b" target="_top" xlink:title="application.ViewHandler.set\lTurtleLocToViewTurtleLoc">
<polygon fill="white" stroke="black" points="753,-29 753,-59 901,-59 901,-29 753,-29"/>
<text text-anchor="start" x="761" y="-47" font-family="Helvetica,sans-Serif" font-size="10.00">application.ViewHandler.set</text>
<text text-anchor="middle" x="827" y="-36" font-family="Helvetica,sans-Serif" font-size="10.00">TurtleLocToViewTurtleLoc</text>
</a>
</g>
</g>
<!-- Node1&#45;&gt;Node19 -->
<g id="edge26" class="edge"><title>Node1&#45;&gt;Node19</title>
<path fill="none" stroke="midnightblue" d="M142.253,-80.9349C288.35,-73.043 608.686,-55.7389 752.984,-47.9442"/>
<polygon fill="midnightblue" stroke="midnightblue" points="141.837,-77.4522 132.04,-81.4866 142.214,-84.4421 141.837,-77.4522"/>
</g>
<!-- Node3 -->
<g id="node3" class="node"><title>Node3</title>
<g id="a_node3"><a xlink:href="../../d5/de0/classcommands_1_1view_commands_1_1turtle_commands_1_1_clear_screen.html#ae547e4c170a1b6d41cdfc6c8bfe5e972" target="_top" xlink:title="commands.viewCommands.turtle\lCommands.ClearScreen.execute">
<polygon fill="white" stroke="black" points="1179,-217 1179,-247 1357,-247 1357,-217 1179,-217"/>
<text text-anchor="start" x="1187" y="-235" font-family="Helvetica,sans-Serif" font-size="10.00">commands.viewCommands.turtle</text>
<text text-anchor="middle" x="1268" y="-224" font-family="Helvetica,sans-Serif" font-size="10.00">Commands.ClearScreen.execute</text>
</a>
</g>
</g>
<!-- Node2&#45;&gt;Node3 -->
<g id="edge2" class="edge"><title>Node2&#45;&gt;Node3</title>
<path fill="none" stroke="midnightblue" d="M1137.4,-229.094C1151.07,-229.401 1165.1,-229.715 1178.66,-230.019"/>
<polygon fill="midnightblue" stroke="midnightblue" points="1137.11,-225.587 1127.04,-228.862 1136.96,-232.585 1137.11,-225.587"/>
</g>
<!-- Node4 -->
<g id="node4" class="node"><title>Node4</title>
<g id="a_node4"><a xlink:href="../../dd/da6/classcommands_1_1view_commands_1_1turtle_commands_1_1_move.html#af4d9a4d9ade56b5e3a1e582bd891b7b5" target="_top" xlink:title="commands.viewCommands.turtle\lCommands.Move.goToLocation">
<polygon fill="white" stroke="black" points="1179,-138 1179,-168 1357,-168 1357,-138 1179,-138"/>
<text text-anchor="start" x="1187" y="-156" font-family="Helvetica,sans-Serif" font-size="10.00">commands.viewCommands.turtle</text>
<text text-anchor="middle" x="1268" y="-145" font-family="Helvetica,sans-Serif" font-size="10.00">Commands.Move.goToLocation</text>
</a>
</g>
</g>
<!-- Node2&#45;&gt;Node4 -->
<g id="edge3" class="edge"><title>Node2&#45;&gt;Node4</title>
<path fill="none" stroke="midnightblue" d="M1099.21,-208.68C1136.91,-196.168 1186.26,-179.792 1221.67,-168.043"/>
<polygon fill="midnightblue" stroke="midnightblue" points="1097.78,-205.464 1089.4,-211.936 1099.99,-212.108 1097.78,-205.464"/>
</g>
<!-- Node5&#45;&gt;Node3 -->
<g id="edge22" class="edge"><title>Node5&#45;&gt;Node3</title>
<path fill="none" stroke="midnightblue" d="M261.962,-302.94C312,-364.024 460.049,-526 623,-526 623,-526 623,-526 828,-526 968.628,-526 1027.49,-568.629 1142,-487 1226.71,-426.614 1256.7,-292.54 1264.62,-247.27"/>
<polygon fill="midnightblue" stroke="midnightblue" points="264.568,-300.596 255.561,-295.018 259.124,-304.996 264.568,-300.596"/>
</g>
<!-- Node5&#45;&gt;Node4 -->
<g id="edge24" class="edge"><title>Node5&#45;&gt;Node4</title>
<path fill="none" stroke="midnightblue" d="M284.517,-260.581C305.003,-251.307 330.456,-240.602 354,-233 523.921,-178.136 568.529,-164.675 746,-145 817.562,-137.066 836.004,-144.198 908,-145 1000.42,-146.03 1106.19,-148.55 1178.86,-150.488"/>
<polygon fill="midnightblue" stroke="midnightblue" points="282.815,-257.511 275.184,-264.861 285.733,-263.873 282.815,-257.511"/>
</g>
<!-- Node6 -->
<g id="node6" class="node"><title>Node6</title>
<g id="a_node6"><a xlink:href="../../d8/d65/classapplication_1_1_view_handler.html#ae489ceaa9b5ec67faf3ba22a11cec085" target="_top" xlink:title="application.ViewHandler.update\lTurtleOnView">
<polygon fill="white" stroke="black" points="540.5,-287 540.5,-317 707.5,-317 707.5,-287 540.5,-287"/>
<text text-anchor="start" x="548.5" y="-305" font-family="Helvetica,sans-Serif" font-size="10.00">application.ViewHandler.update</text>
<text text-anchor="middle" x="624" y="-294" font-family="Helvetica,sans-Serif" font-size="10.00">TurtleOnView</text>
</a>
</g>
</g>
<!-- Node5&#45;&gt;Node6 -->
<g id="edge5" class="edge"><title>Node5&#45;&gt;Node6</title>
<path fill="none" stroke="midnightblue" d="M327.87,-284.868C391.146,-288.541 477.513,-293.555 540.462,-297.209"/>
<polygon fill="midnightblue" stroke="midnightblue" points="327.71,-281.353 317.524,-284.268 327.305,-288.342 327.71,-281.353"/>
</g>
<!-- Node13 -->
<g id="node13" class="node"><title>Node13</title>
<g id="a_node13"><a xlink:href="../../df/d03/classcommands_1_1view_commands_1_1turtle_commands_1_1_go_towards_loc.html#a67f5f04ce72d0cd234d1e0a11e6d7c83" target="_top" xlink:title="commands.viewCommands.turtle\lCommands.GoTowardsLoc.execute">
<polygon fill="white" stroke="black" points="951,-448 951,-478 1135,-478 1135,-448 951,-448"/>
<text text-anchor="start" x="959" y="-466" font-family="Helvetica,sans-Serif" font-size="10.00">commands.viewCommands.turtle</text>
<text text-anchor="middle" x="1043" y="-455" font-family="Helvetica,sans-Serif" font-size="10.00">Commands.GoTowardsLoc.execute</text>
</a>
</g>
</g>
<!-- Node5&#45;&gt;Node13 -->
<g id="edge23" class="edge"><title>Node5&#45;&gt;Node13</title>
<path fill="none" stroke="midnightblue" d="M281.863,-299.599C363.797,-340.778 564.798,-435.183 746,-468 813.895,-480.296 891.983,-478.321 950.901,-473.661"/>
<polygon fill="midnightblue" stroke="midnightblue" points="283.432,-296.471 272.928,-295.082 280.273,-302.718 283.432,-296.471"/>
</g>
<!-- Node16 -->
<g id="node16" class="node"><title>Node16</title>
<g id="a_node16"><a xlink:href="../../d8/d65/classapplication_1_1_view_handler.html#a308dcaf9847965fa4a3d261347845f56" target="_top" xlink:title="application.ViewHandler.set\lInfoParamsOfTurtleAndLine">
<polygon fill="white" stroke="black" points="354,-243 354,-273 502,-273 502,-243 354,-243"/>
<text text-anchor="start" x="362" y="-261" font-family="Helvetica,sans-Serif" font-size="10.00">application.ViewHandler.set</text>
<text text-anchor="middle" x="428" y="-250" font-family="Helvetica,sans-Serif" font-size="10.00">InfoParamsOfTurtleAndLine</text>
</a>
</g>
</g>
<!-- Node5&#45;&gt;Node16 -->
<g id="edge18" class="edge"><title>Node5&#45;&gt;Node16</title>
<path fill="none" stroke="midnightblue" d="M327.779,-269.928C336.467,-268.884 345.248,-267.828 353.806,-266.799"/>
<polygon fill="midnightblue" stroke="midnightblue" points="327.153,-266.478 317.642,-271.147 327.988,-273.428 327.153,-266.478"/>
</g>
<!-- Node6&#45;&gt;Node2 -->
<g id="edge8" class="edge"><title>Node6&#45;&gt;Node2</title>
<path fill="none" stroke="midnightblue" d="M717.986,-302.841C773.747,-301.522 845.697,-296.589 908,-282 945.707,-273.171 986.539,-255.061 1013.09,-242.031"/>
<polygon fill="midnightblue" stroke="midnightblue" points="717.696,-299.346 707.769,-303.047 717.837,-306.345 717.696,-299.346"/>
</g>
<!-- Node6&#45;&gt;Node7 -->
<g id="edge6" class="edge"><title>Node6&#45;&gt;Node7</title>
<path fill="none" stroke="midnightblue" d="M655.8,-281.189C679.555,-265.957 713.705,-245.796 746,-233 814.849,-205.72 844.441,-232.009 908,-194 966.74,-158.872 1014.08,-89.6067 1033.05,-59.068"/>
<polygon fill="midnightblue" stroke="midnightblue" points="653.707,-278.375 647.23,-286.76 657.522,-284.244 653.707,-278.375"/>
</g>
<!-- Node9 -->
<g id="node9" class="node"><title>Node9</title>
<g id="a_node9"><a xlink:href="../../d8/d65/classapplication_1_1_view_handler.html#a98b4ba09b3f3e8b1a7667db5598dbfb0" target="_top" xlink:title="application.ViewHandler.move\lTurtleImageAndDraw">
<polygon fill="white" stroke="black" points="747,-243 747,-273 907,-273 907,-243 747,-243"/>
<text text-anchor="start" x="755" y="-261" font-family="Helvetica,sans-Serif" font-size="10.00">application.ViewHandler.move</text>
<text text-anchor="middle" x="827" y="-250" font-family="Helvetica,sans-Serif" font-size="10.00">TurtleImageAndDraw</text>
</a>
</g>
</g>
<!-- Node6&#45;&gt;Node9 -->
<g id="edge9" class="edge"><title>Node6&#45;&gt;Node9</title>
<path fill="none" stroke="midnightblue" d="M703.39,-284.84C721.202,-280.941 739.988,-276.829 757.358,-273.026"/>
<polygon fill="midnightblue" stroke="midnightblue" points="702.631,-281.423 693.611,-286.981 704.128,-288.261 702.631,-281.423"/>
</g>
<!-- Node10 -->
<g id="node10" class="node"><title>Node10</title>
<g id="a_node10"><a xlink:href="../../d8/d65/classapplication_1_1_view_handler.html#abe68f02cdf0227b13568e1aaabf57e5c" target="_top" xlink:title="application.ViewHandler.rotate\lTurtle">
<polygon fill="white" stroke="black" points="746,-331 746,-361 908,-361 908,-331 746,-331"/>
<text text-anchor="start" x="754" y="-349" font-family="Helvetica,sans-Serif" font-size="10.00">application.ViewHandler.rotate</text>
<text text-anchor="middle" x="827" y="-338" font-family="Helvetica,sans-Serif" font-size="10.00">Turtle</text>
</a>
</g>
</g>
<!-- Node6&#45;&gt;Node10 -->
<g id="edge12" class="edge"><title>Node6&#45;&gt;Node10</title>
<path fill="none" stroke="midnightblue" d="M703.39,-319.16C721.202,-323.059 739.988,-327.171 757.358,-330.974"/>
<polygon fill="midnightblue" stroke="midnightblue" points="704.128,-315.739 693.611,-317.019 702.631,-322.577 704.128,-315.739"/>
</g>
<!-- Node12 -->
<g id="node12" class="node"><title>Node12</title>
<g id="a_node12"><a xlink:href="../../d8/d65/classapplication_1_1_view_handler.html#af07eafb381b0ea9a1ce68f6ffe8a7428" target="_top" xlink:title="application.ViewHandler.set\lTurtleOrientation">
<polygon fill="white" stroke="black" points="753,-380 753,-410 901,-410 901,-380 753,-380"/>
<text text-anchor="start" x="761" y="-398" font-family="Helvetica,sans-Serif" font-size="10.00">application.ViewHandler.set</text>
<text text-anchor="middle" x="827" y="-387" font-family="Helvetica,sans-Serif" font-size="10.00">TurtleOrientation</text>
</a>
</g>
</g>
<!-- Node6&#45;&gt;Node12 -->
<g id="edge14" class="edge"><title>Node6&#45;&gt;Node12</title>
<path fill="none" stroke="midnightblue" d="M656.987,-322.416C680.85,-337.036 714.611,-356.453 746,-370 754.417,-373.633 763.536,-376.991 772.502,-379.991"/>
<polygon fill="midnightblue" stroke="midnightblue" points="658.696,-319.358 648.351,-317.07 655.012,-325.31 658.696,-319.358"/>
</g>
<!-- Node15 -->
<g id="node15" class="node"><title>Node15</title>
<g id="a_node15"><a xlink:href="../../d8/d65/classapplication_1_1_view_handler.html#a55d042c40e05453e3f5f6bc6c1c6e060" target="_top" xlink:title="application.ViewHandler.show\lTurtle">
<polygon fill="white" stroke="black" points="748.5,-429 748.5,-459 905.5,-459 905.5,-429 748.5,-429"/>
<text text-anchor="start" x="756.5" y="-447" font-family="Helvetica,sans-Serif" font-size="10.00">application.ViewHandler.show</text>
<text text-anchor="middle" x="827" y="-436" font-family="Helvetica,sans-Serif" font-size="10.00">Turtle</text>
</a>
</g>
</g>
<!-- Node6&#45;&gt;Node15 -->
<g id="edge17" class="edge"><title>Node6&#45;&gt;Node15</title>
<path fill="none" stroke="midnightblue" d="M643.163,-325.164C664.944,-351.466 703.827,-393.964 746,-419 752.381,-422.788 759.395,-426.059 766.536,-428.869"/>
<polygon fill="midnightblue" stroke="midnightblue" points="645.737,-322.782 636.71,-317.236 640.308,-327.201 645.737,-322.782"/>
</g>
<!-- Node8 -->
<g id="node8" class="node"><title>Node8</title>
<g id="a_node8"><a xlink:href="../../dd/da6/classcommands_1_1view_commands_1_1turtle_commands_1_1_move.html#af95e8ccf5c290a4d06f79caf2deed407" target="_top" xlink:title="commands.viewCommands.turtle\lCommands.Move.changeLocation">
<polygon fill="white" stroke="black" points="1178.5,-29 1178.5,-59 1357.5,-59 1357.5,-29 1178.5,-29"/>
<text text-anchor="start" x="1186.5" y="-47" font-family="Helvetica,sans-Serif" font-size="10.00">commands.viewCommands.turtle</text>
<text text-anchor="middle" x="1268" y="-36" font-family="Helvetica,sans-Serif" font-size="10.00">Commands.Move.changeLocation</text>
</a>
</g>
</g>
<!-- Node7&#45;&gt;Node8 -->
<g id="edge7" class="edge"><title>Node7&#45;&gt;Node8</title>
<path fill="none" stroke="midnightblue" d="M1133.36,-44C1148.11,-44 1163.4,-44 1178.14,-44"/>
<polygon fill="midnightblue" stroke="midnightblue" points="1133.25,-40.5001 1123.25,-44 1133.25,-47.5001 1133.25,-40.5001"/>
</g>
<!-- Node9&#45;&gt;Node2 -->
<g id="edge11" class="edge"><title>Node9&#45;&gt;Node2</title>
<path fill="none" stroke="midnightblue" d="M917.085,-245.095C930.947,-243.087 945.222,-241.019 958.944,-239.032"/>
<polygon fill="midnightblue" stroke="midnightblue" points="916.473,-241.647 907.078,-246.545 917.476,-248.575 916.473,-241.647"/>
</g>
<!-- Node9&#45;&gt;Node7 -->
<g id="edge10" class="edge"><title>Node9&#45;&gt;Node7</title>
<path fill="none" stroke="midnightblue" d="M890.618,-238.692C896.765,-235.589 902.685,-232.041 908,-228 971.231,-179.926 1017.78,-93.9125 1034.86,-59.1727"/>
<polygon fill="midnightblue" stroke="midnightblue" points="889.091,-235.542 881.493,-242.925 892.037,-241.892 889.091,-235.542"/>
</g>
<!-- Node11 -->
<g id="node11" class="node"><title>Node11</title>
<g id="a_node11"><a xlink:href="../../d3/dba/classcommands_1_1view_commands_1_1turtle_commands_1_1_rotate.html#a8ee301e936ff8d884357dccac52c2bfb" target="_top" xlink:title="commands.viewCommands.turtle\lCommands.Rotate.changeOrientation">
<polygon fill="white" stroke="black" points="944.5,-331 944.5,-361 1141.5,-361 1141.5,-331 944.5,-331"/>
<text text-anchor="start" x="952.5" y="-349" font-family="Helvetica,sans-Serif" font-size="10.00">commands.viewCommands.turtle</text>
<text text-anchor="middle" x="1043" y="-338" font-family="Helvetica,sans-Serif" font-size="10.00">Commands.Rotate.changeOrientation</text>
</a>
</g>
</g>
<!-- Node10&#45;&gt;Node11 -->
<g id="edge13" class="edge"><title>Node10&#45;&gt;Node11</title>
<path fill="none" stroke="midnightblue" d="M918.296,-346C926.886,-346 935.623,-346 944.278,-346"/>
<polygon fill="midnightblue" stroke="midnightblue" points="918.295,-342.5 908.295,-346 918.295,-349.5 918.295,-342.5"/>
</g>
<!-- Node12&#45;&gt;Node13 -->
<g id="edge15" class="edge"><title>Node12&#45;&gt;Node13</title>
<path fill="none" stroke="midnightblue" d="M885.933,-413.047C893.362,-415.378 900.862,-417.74 908,-420 937.115,-429.221 969.746,-439.689 995.517,-447.988"/>
<polygon fill="midnightblue" stroke="midnightblue" points="886.834,-409.661 876.245,-410.011 884.741,-416.341 886.834,-409.661"/>
</g>
<!-- Node14 -->
<g id="node14" class="node"><title>Node14</title>
<g id="a_node14"><a xlink:href="../../df/ded/classcommands_1_1view_commands_1_1turtle_commands_1_1_set_heading.html#a3efffc1774ad2f0b23742a20789f0ee8" target="_top" xlink:title="commands.viewCommands.turtle\lCommands.SetHeading.execute">
<polygon fill="white" stroke="black" points="954,-380 954,-410 1132,-410 1132,-380 954,-380"/>
<text text-anchor="start" x="962" y="-398" font-family="Helvetica,sans-Serif" font-size="10.00">commands.viewCommands.turtle</text>
<text text-anchor="middle" x="1043" y="-387" font-family="Helvetica,sans-Serif" font-size="10.00">Commands.SetHeading.execute</text>
</a>
</g>
</g>
<!-- Node12&#45;&gt;Node14 -->
<g id="edge16" class="edge"><title>Node12&#45;&gt;Node14</title>
<path fill="none" stroke="midnightblue" d="M911.111,-395C925.09,-395 939.643,-395 953.747,-395"/>
<polygon fill="midnightblue" stroke="midnightblue" points="911.048,-391.5 901.048,-395 911.048,-398.5 911.048,-391.5"/>
</g>
<!-- Node16&#45;&gt;Node6 -->
<g id="edge21" class="edge"><title>Node16&#45;&gt;Node6</title>
<path fill="none" stroke="midnightblue" d="M505.138,-275.268C522.187,-279.135 540.138,-283.207 556.748,-286.974"/>
<polygon fill="midnightblue" stroke="midnightblue" points="505.748,-271.818 495.221,-273.019 504.199,-278.644 505.748,-271.818"/>
</g>
<!-- Node17 -->
<g id="node17" class="node"><title>Node17</title>
<g id="a_node17"><a xlink:href="../../d8/d65/classapplication_1_1_view_handler.html#ac37927f63d43d93f1b1e0f5a3b59cf26" target="_top" xlink:title="application.ViewHandler.initialize\lTurtle">
<polygon fill="white" stroke="black" points="538.5,-205 538.5,-235 709.5,-235 709.5,-205 538.5,-205"/>
<text text-anchor="start" x="546.5" y="-223" font-family="Helvetica,sans-Serif" font-size="10.00">application.ViewHandler.initialize</text>
<text text-anchor="middle" x="624" y="-212" font-family="Helvetica,sans-Serif" font-size="10.00">Turtle</text>
</a>
</g>
</g>
<!-- Node16&#45;&gt;Node17 -->
<g id="edge19" class="edge"><title>Node16&#45;&gt;Node17</title>
<path fill="none" stroke="midnightblue" d="M511.949,-241.752C523.289,-239.531 534.89,-237.259 546.116,-235.06"/>
<polygon fill="midnightblue" stroke="midnightblue" points="511.207,-238.331 502.067,-243.688 512.553,-245.2 511.207,-238.331"/>
</g>
<!-- Node18 -->
<g id="node18" class="node"><title>Node18</title>
<g id="a_node18"><a xlink:href="../../d8/d65/classapplication_1_1_view_handler.html#aede07ea15df8a762813028bb80403e6b" target="_top" xlink:title="application.ViewHandler.\lViewHandler">
<polygon fill="white" stroke="black" points="760.5,-155 760.5,-185 893.5,-185 893.5,-155 760.5,-155"/>
<text text-anchor="start" x="768.5" y="-173" font-family="Helvetica,sans-Serif" font-size="10.00">application.ViewHandler.</text>
<text text-anchor="middle" x="827" y="-162" font-family="Helvetica,sans-Serif" font-size="10.00">ViewHandler</text>
</a>
</g>
</g>
<!-- Node17&#45;&gt;Node18 -->
<g id="edge20" class="edge"><title>Node17&#45;&gt;Node18</title>
<path fill="none" stroke="midnightblue" d="M695.286,-202.516C718.144,-196.83 743.301,-190.572 765.389,-185.077"/>
<polygon fill="midnightblue" stroke="midnightblue" points="694.166,-199.188 685.307,-204.998 695.856,-205.981 694.166,-199.188"/>
</g>
<!-- Node19&#45;&gt;Node2 -->
<g id="edge28" class="edge"><title>Node19&#45;&gt;Node2</title>
<path fill="none" stroke="midnightblue" d="M853.556,-65.6695C869.275,-79.0114 889.823,-96.4749 908,-112 949.727,-147.639 998.615,-189.663 1024.25,-211.719"/>
<polygon fill="midnightblue" stroke="midnightblue" points="855.704,-62.9015 845.814,-59.1003 851.175,-68.239 855.704,-62.9015"/>
</g>
<!-- Node19&#45;&gt;Node7 -->
<g id="edge27" class="edge"><title>Node19&#45;&gt;Node7</title>
<path fill="none" stroke="midnightblue" d="M911.425,-44C928.288,-44 945.973,-44 962.69,-44"/>
<polygon fill="midnightblue" stroke="midnightblue" points="911.048,-40.5001 901.048,-44 911.048,-47.5001 911.048,-40.5001"/>
</g>
</g>
</svg>
