<?xml version="1.0" encoding="UTF-8" standalone="no"?>
<!DOCTYPE svg PUBLIC "-//W3C//DTD SVG 1.1//EN"
 "http://www.w3.org/Graphics/SVG/1.1/DTD/svg11.dtd">
<!-- Generated by graphviz version 2.36.0 (20140111.2315)
 -->
<!-- Title: application.Turtle.getVisibility Pages: 1 -->
<svg width="1226pt" height="479pt"
 viewBox="0.00 0.00 1226.00 479.00" xmlns="http://www.w3.org/2000/svg" xmlns:xlink="http://www.w3.org/1999/xlink">
<g id="graph0" class="graph" transform="scale(1 1) rotate(0) translate(4 475)">
<title>application.Turtle.getVisibility</title>
<polygon fill="white" stroke="none" points="-4,4 -4,-475 1222,-475 1222,4 -4,4"/>
<!-- Node1 -->
<g id="node1" class="node"><title>Node1</title>
<polygon fill="#bfbfbf" stroke="black" points="0,-192.5 0,-211.5 154,-211.5 154,-192.5 0,-192.5"/>
<text text-anchor="middle" x="77" y="-199.5" font-family="Helvetica,sans-Serif" font-size="10.00">application.Turtle.getVisibility</text>
</g>
<!-- Node2 -->
<g id="node2" class="node"><title>Node2</title>
<g id="a_node2"><a xlink:href="../../d8/d65/classapplication_1_1_view_handler.html#a6f94dbee91670d4c9ae7164f61b8cd03" target="_top" xlink:title="application.ViewHandler.is\lVisible">
<polygon fill="white" stroke="black" points="207,-252 207,-282 347,-282 347,-252 207,-252"/>
<text text-anchor="start" x="215" y="-270" font-family="Helvetica,sans-Serif" font-size="10.00">application.ViewHandler.is</text>
<text text-anchor="middle" x="277" y="-259" font-family="Helvetica,sans-Serif" font-size="10.00">Visible</text>
</a>
</g>
</g>
<!-- Node1&#45;&gt;Node2 -->
<g id="edge1" class="edge"><title>Node1&#45;&gt;Node2</title>
<path fill="none" stroke="midnightblue" d="M116.828,-214.746C149.336,-225.418 195.79,-240.668 230.128,-251.941"/>
<polygon fill="midnightblue" stroke="midnightblue" points="117.808,-211.385 107.216,-211.591 115.625,-218.035 117.808,-211.385"/>
</g>
<!-- Node17 -->
<g id="node17" class="node"><title>Node17</title>
<g id="a_node17"><a xlink:href="../../d3/de0/classapplication_1_1_view_handler2.html#adef8a4ac6b5b11687e8ecb1c05253287" target="_top" xlink:title="application.ViewHandler2.update\lTurtleOnView">
<polygon fill="white" stroke="black" points="190.5,-122 190.5,-152 363.5,-152 363.5,-122 190.5,-122"/>
<text text-anchor="start" x="198.5" y="-140" font-family="Helvetica,sans-Serif" font-size="10.00">application.ViewHandler2.update</text>
<text text-anchor="middle" x="277" y="-129" font-family="Helvetica,sans-Serif" font-size="10.00">TurtleOnView</text>
</a>
</g>
</g>
<!-- Node1&#45;&gt;Node17 -->
<g id="edge18" class="edge"><title>Node1&#45;&gt;Node17</title>
<path fill="none" stroke="midnightblue" d="M116.828,-189.254C149.336,-178.582 195.79,-163.332 230.128,-152.059"/>
<polygon fill="midnightblue" stroke="midnightblue" points="115.625,-185.965 107.216,-192.409 117.808,-192.615 115.625,-185.965"/>
</g>
<!-- Node3 -->
<g id="node3" class="node"><title>Node3</title>
<g id="a_node3"><a xlink:href="../../d8/d65/classapplication_1_1_view_handler.html#ae489ceaa9b5ec67faf3ba22a11cec085" target="_top" xlink:title="application.ViewHandler.update\lTurtleOnView">
<polygon fill="white" stroke="black" points="401.5,-309 401.5,-339 568.5,-339 568.5,-309 401.5,-309"/>
<text text-anchor="start" x="409.5" y="-327" font-family="Helvetica,sans-Serif" font-size="10.00">application.ViewHandler.update</text>
<text text-anchor="middle" x="485" y="-316" font-family="Helvetica,sans-Serif" font-size="10.00">TurtleOnView</text>
</a>
</g>
</g>
<!-- Node2&#45;&gt;Node3 -->
<g id="edge2" class="edge"><title>Node2&#45;&gt;Node3</title>
<path fill="none" stroke="midnightblue" d="M342.12,-284.742C370.199,-292.511 402.796,-301.531 429.659,-308.964"/>
<polygon fill="midnightblue" stroke="midnightblue" points="342.965,-281.344 332.394,-282.051 341.098,-288.091 342.965,-281.344"/>
</g>
<!-- Node4 -->
<g id="node4" class="node"><title>Node4</title>
<g id="a_node4"><a xlink:href="../../d8/d65/classapplication_1_1_view_handler.html#a1a94c855ceb0e8ffb1f72f138addb75b" target="_top" xlink:title="application.ViewHandler.move\lTurtle">
<polygon fill="white" stroke="black" points="823,-441 823,-471 983,-471 983,-441 823,-441"/>
<text text-anchor="start" x="831" y="-459" font-family="Helvetica,sans-Serif" font-size="10.00">application.ViewHandler.move</text>
<text text-anchor="middle" x="903" y="-448" font-family="Helvetica,sans-Serif" font-size="10.00">Turtle</text>
</a>
</g>
</g>
<!-- Node3&#45;&gt;Node4 -->
<g id="edge3" class="edge"><title>Node3&#45;&gt;Node4</title>
<path fill="none" stroke="midnightblue" d="M502.945,-347.499C523.79,-374.298 561.884,-416.868 606,-436 674.872,-465.868 761.268,-468.209 822.909,-464.686"/>
<polygon fill="midnightblue" stroke="midnightblue" points="505.633,-345.251 496.798,-339.402 500.057,-349.483 505.633,-345.251"/>
</g>
<!-- Node6 -->
<g id="node6" class="node"><title>Node6</title>
<g id="a_node6"><a xlink:href="../../d8/d65/classapplication_1_1_view_handler.html#a1aff135a076a9717102bb59ea613131c" target="_top" xlink:title="application.ViewHandler.change\lLocationOfTurtle">
<polygon fill="white" stroke="black" points="819,-392 819,-422 987,-422 987,-392 819,-392"/>
<text text-anchor="start" x="827" y="-410" font-family="Helvetica,sans-Serif" font-size="10.00">application.ViewHandler.change</text>
<text text-anchor="middle" x="903" y="-399" font-family="Helvetica,sans-Serif" font-size="10.00">LocationOfTurtle</text>
</a>
</g>
</g>
<!-- Node3&#45;&gt;Node6 -->
<g id="edge5" class="edge"><title>Node3&#45;&gt;Node6</title>
<path fill="none" stroke="midnightblue" d="M571.027,-341.013C582.775,-343.361 594.687,-345.741 606,-348 681.023,-362.979 766.749,-380.063 826.568,-391.979"/>
<polygon fill="midnightblue" stroke="midnightblue" points="571.706,-337.579 561.214,-339.051 570.333,-344.443 571.706,-337.579"/>
</g>
<!-- Node9 -->
<g id="node9" class="node"><title>Node9</title>
<g id="a_node9"><a xlink:href="../../d8/d65/classapplication_1_1_view_handler.html#a98b4ba09b3f3e8b1a7667db5598dbfb0" target="_top" xlink:title="application.ViewHandler.move\lTurtleImageAndDraw">
<polygon fill="white" stroke="black" points="607,-397 607,-427 767,-427 767,-397 607,-397"/>
<text text-anchor="start" x="615" y="-415" font-family="Helvetica,sans-Serif" font-size="10.00">application.ViewHandler.move</text>
<text text-anchor="middle" x="687" y="-404" font-family="Helvetica,sans-Serif" font-size="10.00">TurtleImageAndDraw</text>
</a>
</g>
</g>
<!-- Node3&#45;&gt;Node9 -->
<g id="edge8" class="edge"><title>Node3&#45;&gt;Node9</title>
<path fill="none" stroke="midnightblue" d="M524.455,-343.696C547.797,-355.372 578.33,-370.154 606,-382 618.136,-387.196 631.503,-392.405 643.778,-396.99"/>
<polygon fill="midnightblue" stroke="midnightblue" points="525.749,-340.429 515.242,-339.062 522.603,-346.682 525.749,-340.429"/>
</g>
<!-- Node10 -->
<g id="node10" class="node"><title>Node10</title>
<g id="a_node10"><a xlink:href="../../d8/d65/classapplication_1_1_view_handler.html#abe68f02cdf0227b13568e1aaabf57e5c" target="_top" xlink:title="application.ViewHandler.rotate\lTurtle">
<polygon fill="white" stroke="black" points="606,-309 606,-339 768,-339 768,-309 606,-309"/>
<text text-anchor="start" x="614" y="-327" font-family="Helvetica,sans-Serif" font-size="10.00">application.ViewHandler.rotate</text>
<text text-anchor="middle" x="687" y="-316" font-family="Helvetica,sans-Serif" font-size="10.00">Turtle</text>
</a>
</g>
</g>
<!-- Node3&#45;&gt;Node10 -->
<g id="edge11" class="edge"><title>Node3&#45;&gt;Node10</title>
<path fill="none" stroke="midnightblue" d="M578.72,-324C587.814,-324 596.989,-324 605.942,-324"/>
<polygon fill="midnightblue" stroke="midnightblue" points="578.502,-320.5 568.502,-324 578.502,-327.5 578.502,-320.5"/>
</g>
<!-- Node12 -->
<g id="node12" class="node"><title>Node12</title>
<g id="a_node12"><a xlink:href="../../d8/d65/classapplication_1_1_view_handler.html#af07eafb381b0ea9a1ce68f6ffe8a7428" target="_top" xlink:title="application.ViewHandler.set\lTurtleOrientation">
<polygon fill="white" stroke="black" points="613,-260 613,-290 761,-290 761,-260 613,-260"/>
<text text-anchor="start" x="621" y="-278" font-family="Helvetica,sans-Serif" font-size="10.00">application.ViewHandler.set</text>
<text text-anchor="middle" x="687" y="-267" font-family="Helvetica,sans-Serif" font-size="10.00">TurtleOrientation</text>
</a>
</g>
</g>
<!-- Node3&#45;&gt;Node12 -->
<g id="edge13" class="edge"><title>Node3&#45;&gt;Node12</title>
<path fill="none" stroke="midnightblue" d="M557.334,-306.523C579.378,-301.123 603.451,-295.224 624.75,-290.006"/>
<polygon fill="midnightblue" stroke="midnightblue" points="556.246,-303.186 547.366,-308.965 557.911,-309.985 556.246,-303.186"/>
</g>
<!-- Node16 -->
<g id="node16" class="node"><title>Node16</title>
<g id="a_node16"><a xlink:href="../../d8/d65/classapplication_1_1_view_handler.html#a55d042c40e05453e3f5f6bc6c1c6e060" target="_top" xlink:title="application.ViewHandler.show\lTurtle">
<polygon fill="white" stroke="black" points="608.5,-211 608.5,-241 765.5,-241 765.5,-211 608.5,-211"/>
<text text-anchor="start" x="616.5" y="-229" font-family="Helvetica,sans-Serif" font-size="10.00">application.ViewHandler.show</text>
<text text-anchor="middle" x="687" y="-218" font-family="Helvetica,sans-Serif" font-size="10.00">Turtle</text>
</a>
</g>
</g>
<!-- Node3&#45;&gt;Node16 -->
<g id="edge17" class="edge"><title>Node3&#45;&gt;Node16</title>
<path fill="none" stroke="midnightblue" d="M515.74,-303.085C539.364,-287.179 573.689,-265.612 606,-251 614.088,-247.343 622.863,-244.009 631.54,-241.052"/>
<polygon fill="midnightblue" stroke="midnightblue" points="513.531,-300.355 507.237,-308.877 517.472,-306.14 513.531,-300.355"/>
</g>
<!-- Node5 -->
<g id="node5" class="node"><title>Node5</title>
<g id="a_node5"><a xlink:href="../../dd/da6/classcommands_1_1view_commands_1_1turtle_commands_1_1_move.html#af95e8ccf5c290a4d06f79caf2deed407" target="_top" xlink:title="commands.viewCommands.turtle\lCommands.Move.changeLocation">
<polygon fill="white" stroke="black" points="1038.5,-441 1038.5,-471 1217.5,-471 1217.5,-441 1038.5,-441"/>
<text text-anchor="start" x="1046.5" y="-459" font-family="Helvetica,sans-Serif" font-size="10.00">commands.viewCommands.turtle</text>
<text text-anchor="middle" x="1128" y="-448" font-family="Helvetica,sans-Serif" font-size="10.00">Commands.Move.changeLocation</text>
</a>
</g>
</g>
<!-- Node4&#45;&gt;Node5 -->
<g id="edge4" class="edge"><title>Node4&#45;&gt;Node5</title>
<path fill="none" stroke="midnightblue" d="M993.362,-456C1008.11,-456 1023.4,-456 1038.14,-456"/>
<polygon fill="midnightblue" stroke="midnightblue" points="993.249,-452.5 983.249,-456 993.249,-459.5 993.249,-452.5"/>
</g>
<!-- Node7 -->
<g id="node7" class="node"><title>Node7</title>
<g id="a_node7"><a xlink:href="../../d5/de0/classcommands_1_1view_commands_1_1turtle_commands_1_1_clear_screen.html#ae547e4c170a1b6d41cdfc6c8bfe5e972" target="_top" xlink:title="commands.viewCommands.turtle\lCommands.ClearScreen.execute">
<polygon fill="white" stroke="black" points="1039,-392 1039,-422 1217,-422 1217,-392 1039,-392"/>
<text text-anchor="start" x="1047" y="-410" font-family="Helvetica,sans-Serif" font-size="10.00">commands.viewCommands.turtle</text>
<text text-anchor="middle" x="1128" y="-399" font-family="Helvetica,sans-Serif" font-size="10.00">Commands.ClearScreen.execute</text>
</a>
</g>
</g>
<!-- Node6&#45;&gt;Node7 -->
<g id="edge6" class="edge"><title>Node6&#45;&gt;Node7</title>
<path fill="none" stroke="midnightblue" d="M997.4,-407C1011.07,-407 1025.1,-407 1038.66,-407"/>
<polygon fill="midnightblue" stroke="midnightblue" points="997.037,-403.5 987.037,-407 997.037,-410.5 997.037,-403.5"/>
</g>
<!-- Node8 -->
<g id="node8" class="node"><title>Node8</title>
<g id="a_node8"><a xlink:href="../../dd/da6/classcommands_1_1view_commands_1_1turtle_commands_1_1_move.html#af4d9a4d9ade56b5e3a1e582bd891b7b5" target="_top" xlink:title="commands.viewCommands.turtle\lCommands.Move.goToLocation">
<polygon fill="white" stroke="black" points="1039,-343 1039,-373 1217,-373 1217,-343 1039,-343"/>
<text text-anchor="start" x="1047" y="-361" font-family="Helvetica,sans-Serif" font-size="10.00">commands.viewCommands.turtle</text>
<text text-anchor="middle" x="1128" y="-350" font-family="Helvetica,sans-Serif" font-size="10.00">Commands.Move.goToLocation</text>
</a>
</g>
</g>
<!-- Node6&#45;&gt;Node8 -->
<g id="edge7" class="edge"><title>Node6&#45;&gt;Node8</title>
<path fill="none" stroke="midnightblue" d="M982.211,-389.815C1007.15,-384.335 1034.53,-378.318 1058.71,-373.006"/>
<polygon fill="midnightblue" stroke="midnightblue" points="981.439,-386.401 972.423,-391.965 982.941,-393.238 981.439,-386.401"/>
</g>
<!-- Node9&#45;&gt;Node4 -->
<g id="edge9" class="edge"><title>Node9&#45;&gt;Node4</title>
<path fill="none" stroke="midnightblue" d="M770.934,-429.052C790.053,-432.983 810.253,-437.136 828.918,-440.974"/>
<polygon fill="midnightblue" stroke="midnightblue" points="771.548,-425.605 761.048,-427.019 770.138,-432.462 771.548,-425.605"/>
</g>
<!-- Node9&#45;&gt;Node6 -->
<g id="edge10" class="edge"><title>Node9&#45;&gt;Node6</title>
<path fill="none" stroke="midnightblue" d="M777.085,-409.919C790.947,-409.595 805.222,-409.261 818.944,-408.941"/>
<polygon fill="midnightblue" stroke="midnightblue" points="776.993,-406.42 767.078,-410.152 777.157,-413.418 776.993,-406.42"/>
</g>
<!-- Node11 -->
<g id="node11" class="node"><title>Node11</title>
<g id="a_node11"><a xlink:href="../../d3/dba/classcommands_1_1view_commands_1_1turtle_commands_1_1_rotate.html#a8ee301e936ff8d884357dccac52c2bfb" target="_top" xlink:title="commands.viewCommands.turtle\lCommands.Rotate.changeOrientation">
<polygon fill="white" stroke="black" points="804.5,-343 804.5,-373 1001.5,-373 1001.5,-343 804.5,-343"/>
<text text-anchor="start" x="812.5" y="-361" font-family="Helvetica,sans-Serif" font-size="10.00">commands.viewCommands.turtle</text>
<text text-anchor="middle" x="903" y="-350" font-family="Helvetica,sans-Serif" font-size="10.00">Commands.Rotate.changeOrientation</text>
</a>
</g>
</g>
<!-- Node10&#45;&gt;Node11 -->
<g id="edge12" class="edge"><title>Node10&#45;&gt;Node11</title>
<path fill="none" stroke="midnightblue" d="M778.296,-338.346C787.972,-339.883 797.835,-341.45 807.557,-342.995"/>
<polygon fill="midnightblue" stroke="midnightblue" points="778.72,-334.87 768.295,-336.757 777.621,-341.783 778.72,-334.87"/>
</g>
<!-- Node13 -->
<g id="node13" class="node"><title>Node13</title>
<g id="a_node13"><a xlink:href="../../df/d03/classcommands_1_1view_commands_1_1turtle_commands_1_1_go_towards_loc.html#a67f5f04ce72d0cd234d1e0a11e6d7c83" target="_top" xlink:title="commands.viewCommands.turtle\lCommands.GoTowardsLoc.execute">
<polygon fill="white" stroke="black" points="811,-294 811,-324 995,-324 995,-294 811,-294"/>
<text text-anchor="start" x="819" y="-312" font-family="Helvetica,sans-Serif" font-size="10.00">commands.viewCommands.turtle</text>
<text text-anchor="middle" x="903" y="-301" font-family="Helvetica,sans-Serif" font-size="10.00">Commands.GoTowardsLoc.execute</text>
</a>
</g>
</g>
<!-- Node12&#45;&gt;Node13 -->
<g id="edge14" class="edge"><title>Node12&#45;&gt;Node13</title>
<path fill="none" stroke="midnightblue" d="M771.297,-288.234C784.226,-290.288 797.642,-292.42 810.736,-294.5"/>
<polygon fill="midnightblue" stroke="midnightblue" points="771.473,-284.718 761.048,-286.606 770.375,-291.632 771.473,-284.718"/>
</g>
<!-- Node14 -->
<g id="node14" class="node"><title>Node14</title>
<g id="a_node14"><a xlink:href="../../df/ded/classcommands_1_1view_commands_1_1turtle_commands_1_1_set_heading.html#a3efffc1774ad2f0b23742a20789f0ee8" target="_top" xlink:title="commands.viewCommands.turtle\lCommands.SetHeading.execute">
<polygon fill="white" stroke="black" points="814,-245 814,-275 992,-275 992,-245 814,-245"/>
<text text-anchor="start" x="822" y="-263" font-family="Helvetica,sans-Serif" font-size="10.00">commands.viewCommands.turtle</text>
<text text-anchor="middle" x="903" y="-252" font-family="Helvetica,sans-Serif" font-size="10.00">Commands.SetHeading.execute</text>
</a>
</g>
</g>
<!-- Node12&#45;&gt;Node14 -->
<g id="edge15" class="edge"><title>Node12&#45;&gt;Node14</title>
<path fill="none" stroke="midnightblue" d="M771.111,-269.174C785.09,-268.195 799.643,-267.175 813.747,-266.186"/>
<polygon fill="midnightblue" stroke="midnightblue" points="770.779,-265.689 761.048,-269.88 771.268,-272.672 770.779,-265.689"/>
</g>
<!-- Node15 -->
<g id="node15" class="node"><title>Node15</title>
<g id="a_node15"><a xlink:href="../../d5/da3/classcommands_1_1view_commands_1_1turtle_commands_1_1_towards.html#abd6801c7d6d99e2cfa7f2a38b10a116a" target="_top" xlink:title="commands.viewCommands.turtle\lCommands.Towards.execute">
<polygon fill="white" stroke="black" points="814,-196 814,-226 992,-226 992,-196 814,-196"/>
<text text-anchor="start" x="822" y="-214" font-family="Helvetica,sans-Serif" font-size="10.00">commands.viewCommands.turtle</text>
<text text-anchor="middle" x="903" y="-203" font-family="Helvetica,sans-Serif" font-size="10.00">Commands.Towards.execute</text>
</a>
</g>
</g>
<!-- Node12&#45;&gt;Node15 -->
<g id="edge16" class="edge"><title>Node12&#45;&gt;Node15</title>
<path fill="none" stroke="midnightblue" d="M748.325,-256.801C754.993,-254.596 761.66,-252.306 768,-250 784.289,-244.075 787.533,-240.411 804,-235 813.818,-231.774 824.316,-228.76 834.659,-226.032"/>
<polygon fill="midnightblue" stroke="midnightblue" points="747.023,-253.545 738.593,-259.963 749.186,-260.202 747.023,-253.545"/>
</g>
<!-- Node18 -->
<g id="node18" class="node"><title>Node18</title>
<g id="a_node18"><a xlink:href="../../d3/de0/classapplication_1_1_view_handler2.html#abaa9dc9add64d8386b9f7fc37152d620" target="_top" xlink:title="application.ViewHandler2.set\lTurtleLocAndMove">
<polygon fill="white" stroke="black" points="609.5,-147 609.5,-177 764.5,-177 764.5,-147 609.5,-147"/>
<text text-anchor="start" x="617.5" y="-165" font-family="Helvetica,sans-Serif" font-size="10.00">application.ViewHandler2.set</text>
<text text-anchor="middle" x="687" y="-154" font-family="Helvetica,sans-Serif" font-size="10.00">TurtleLocAndMove</text>
</a>
</g>
</g>
<!-- Node17&#45;&gt;Node18 -->
<g id="edge19" class="edge"><title>Node17&#45;&gt;Node18</title>
<path fill="none" stroke="midnightblue" d="M315.881,-156.59C339.405,-167.635 370.652,-180.327 400,-186 475.951,-200.682 564.965,-188.73 623.266,-177.048"/>
<polygon fill="midnightblue" stroke="midnightblue" points="317.152,-153.318 306.623,-152.142 314.12,-159.628 317.152,-153.318"/>
</g>
<!-- Node21 -->
<g id="node21" class="node"><title>Node21</title>
<g id="a_node21"><a xlink:href="../../d3/de0/classapplication_1_1_view_handler2.html#ab87b30f73cb5e726f4fcc6b6f60f8007" target="_top" xlink:title="application.ViewHandler2.move\lTurtleImageAndDraw">
<polygon fill="white" stroke="black" points="401.5,-147 401.5,-177 568.5,-177 568.5,-147 401.5,-147"/>
<text text-anchor="start" x="409.5" y="-165" font-family="Helvetica,sans-Serif" font-size="10.00">application.ViewHandler2.move</text>
<text text-anchor="middle" x="485" y="-154" font-family="Helvetica,sans-Serif" font-size="10.00">TurtleImageAndDraw</text>
</a>
</g>
</g>
<!-- Node17&#45;&gt;Node21 -->
<g id="edge22" class="edge"><title>Node17&#45;&gt;Node21</title>
<path fill="none" stroke="midnightblue" d="M373.587,-148.6C382.858,-149.726 392.21,-150.86 401.34,-151.968"/>
<polygon fill="midnightblue" stroke="midnightblue" points="373.922,-145.115 363.573,-147.385 373.078,-152.064 373.922,-145.115"/>
</g>
<!-- Node22 -->
<g id="node22" class="node"><title>Node22</title>
<g id="a_node22"><a xlink:href="../../d3/de0/classapplication_1_1_view_handler2.html#a4dfbbb48e3c3c7bc5db71a2a308a1b7c" target="_top" xlink:title="application.ViewHandler2.rotate\lTurtle">
<polygon fill="white" stroke="black" points="400.5,-98 400.5,-128 569.5,-128 569.5,-98 400.5,-98"/>
<text text-anchor="start" x="408.5" y="-116" font-family="Helvetica,sans-Serif" font-size="10.00">application.ViewHandler2.rotate</text>
<text text-anchor="middle" x="485" y="-105" font-family="Helvetica,sans-Serif" font-size="10.00">Turtle</text>
</a>
</g>
</g>
<!-- Node17&#45;&gt;Node22 -->
<g id="edge24" class="edge"><title>Node17&#45;&gt;Node22</title>
<path fill="none" stroke="midnightblue" d="M373.608,-125.861C382.537,-124.821 391.541,-123.772 400.349,-122.746"/>
<polygon fill="midnightblue" stroke="midnightblue" points="373.101,-122.397 363.573,-127.03 373.911,-129.35 373.101,-122.397"/>
</g>
<!-- Node23 -->
<g id="node23" class="node"><title>Node23</title>
<g id="a_node23"><a xlink:href="../../d3/de0/classapplication_1_1_view_handler2.html#a0e3021726260bc0112ea6b6deef82aaa" target="_top" xlink:title="application.ViewHandler2.set\lTurtleOrientation">
<polygon fill="white" stroke="black" points="407.5,-49 407.5,-79 562.5,-79 562.5,-49 407.5,-49"/>
<text text-anchor="start" x="415.5" y="-67" font-family="Helvetica,sans-Serif" font-size="10.00">application.ViewHandler2.set</text>
<text text-anchor="middle" x="485" y="-56" font-family="Helvetica,sans-Serif" font-size="10.00">TurtleOrientation</text>
</a>
</g>
</g>
<!-- Node17&#45;&gt;Node23 -->
<g id="edge25" class="edge"><title>Node17&#45;&gt;Node23</title>
<path fill="none" stroke="midnightblue" d="M322.095,-118.005C345.1,-108.424 373.832,-96.9663 400,-88 409.039,-84.9027 418.717,-81.8764 428.171,-79.0737"/>
<polygon fill="midnightblue" stroke="midnightblue" points="320.478,-114.888 312.61,-121.984 323.186,-121.343 320.478,-114.888"/>
</g>
<!-- Node24 -->
<g id="node24" class="node"><title>Node24</title>
<g id="a_node24"><a xlink:href="../../d3/de0/classapplication_1_1_view_handler2.html#a204e29a9937f99e85d42c948f58012c1" target="_top" xlink:title="application.ViewHandler2.show\lTurtle">
<polygon fill="white" stroke="black" points="403,-0 403,-30 567,-30 567,-0 403,-0"/>
<text text-anchor="start" x="411" y="-18" font-family="Helvetica,sans-Serif" font-size="10.00">application.ViewHandler2.show</text>
<text text-anchor="middle" x="485" y="-7" font-family="Helvetica,sans-Serif" font-size="10.00">Turtle</text>
</a>
</g>
</g>
<!-- Node17&#45;&gt;Node24 -->
<g id="edge26" class="edge"><title>Node17&#45;&gt;Node24</title>
<path fill="none" stroke="midnightblue" d="M299.961,-114.76C323,-92.6057 361.196,-59.0795 400,-39 406.466,-35.6542 413.46,-32.7194 420.557,-30.159"/>
<polygon fill="midnightblue" stroke="midnightblue" points="297.459,-112.311 292.75,-121.801 302.35,-117.319 297.459,-112.311"/>
</g>
<!-- Node19 -->
<g id="node19" class="node"><title>Node19</title>
<g id="a_node19"><a xlink:href="../../d3/de0/classapplication_1_1_view_handler2.html#ac682f2c1ca441598b6d29fe899e7f468" target="_top" xlink:title="application.ViewHandler2.move\lTurtle">
<polygon fill="white" stroke="black" points="819.5,-147 819.5,-177 986.5,-177 986.5,-147 819.5,-147"/>
<text text-anchor="start" x="827.5" y="-165" font-family="Helvetica,sans-Serif" font-size="10.00">application.ViewHandler2.move</text>
<text text-anchor="middle" x="903" y="-154" font-family="Helvetica,sans-Serif" font-size="10.00">Turtle</text>
</a>
</g>
</g>
<!-- Node18&#45;&gt;Node19 -->
<g id="edge20" class="edge"><title>Node18&#45;&gt;Node19</title>
<path fill="none" stroke="midnightblue" d="M774.752,-162C789.482,-162 804.743,-162 819.362,-162"/>
<polygon fill="midnightblue" stroke="midnightblue" points="774.654,-158.5 764.654,-162 774.654,-165.5 774.654,-158.5"/>
</g>
<!-- Node20 -->
<g id="node20" class="node"><title>Node20</title>
<g id="a_node20"><a xlink:href="../../d3/de0/classapplication_1_1_view_handler2.html#acd04df701dbbc0a759c79058966f8264" target="_top" xlink:title="application.ViewHandler2.change\lLocationOfTurtle">
<polygon fill="white" stroke="black" points="815.5,-98 815.5,-128 990.5,-128 990.5,-98 815.5,-98"/>
<text text-anchor="start" x="823.5" y="-116" font-family="Helvetica,sans-Serif" font-size="10.00">application.ViewHandler2.change</text>
<text text-anchor="middle" x="903" y="-105" font-family="Helvetica,sans-Serif" font-size="10.00">LocationOfTurtle</text>
</a>
</g>
</g>
<!-- Node18&#45;&gt;Node20 -->
<g id="edge21" class="edge"><title>Node18&#45;&gt;Node20</title>
<path fill="none" stroke="midnightblue" d="M763.69,-144.669C787.45,-139.229 813.467,-133.271 836.463,-128.006"/>
<polygon fill="midnightblue" stroke="midnightblue" points="762.628,-141.322 753.661,-146.965 764.19,-148.145 762.628,-141.322"/>
</g>
<!-- Node21&#45;&gt;Node18 -->
<g id="edge23" class="edge"><title>Node21&#45;&gt;Node18</title>
<path fill="none" stroke="midnightblue" d="M578.738,-162C589.023,-162 599.412,-162 609.466,-162"/>
<polygon fill="midnightblue" stroke="midnightblue" points="578.502,-158.5 568.502,-162 578.502,-165.5 578.502,-158.5"/>
</g>
</g>
</svg>
