<?xml version="1.0" encoding="UTF-8" standalone="no"?>
<!DOCTYPE svg PUBLIC "-//W3C//DTD SVG 1.1//EN"
 "http://www.w3.org/Graphics/SVG/1.1/DTD/svg11.dtd">
<!-- Generated by graphviz version 2.36.0 (20140111.2315)
 -->
<!-- Title: application.Turtle.getLoc Pages: 1 -->
<svg width="1394pt" height="921pt"
 viewBox="0.00 0.00 1394.00 920.83" xmlns="http://www.w3.org/2000/svg" xmlns:xlink="http://www.w3.org/1999/xlink">
<g id="graph0" class="graph" transform="scale(1 1) rotate(0) translate(4 916.833)">
<title>application.Turtle.getLoc</title>
<polygon fill="white" stroke="none" points="-4,4 -4,-916.833 1390,-916.833 1390,4 -4,4"/>
<!-- Node1 -->
<g id="node1" class="node"><title>Node1</title>
<polygon fill="#bfbfbf" stroke="black" points="0,-535.333 0,-554.333 132,-554.333 132,-535.333 0,-535.333"/>
<text text-anchor="middle" x="66" y="-542.333" font-family="Helvetica,sans-Serif" font-size="10.00">application.Turtle.getLoc</text>
</g>
<!-- Node2 -->
<g id="node2" class="node"><title>Node2</title>
<g id="a_node2"><a xlink:href="../../d3/de0/classapplication_1_1_view_handler2.html#a4ac48522f428669c1df1a058184cf98c" target="_top" xlink:title="application.ViewHandler2.calculate\lOriginalLocation">
<polygon fill="white" stroke="black" points="980,-882.833 980,-912.833 1162,-912.833 1162,-882.833 980,-882.833"/>
<text text-anchor="start" x="988" y="-900.833" font-family="Helvetica,sans-Serif" font-size="10.00">application.ViewHandler2.calculate</text>
<text text-anchor="middle" x="1071" y="-889.833" font-family="Helvetica,sans-Serif" font-size="10.00">OriginalLocation</text>
</a>
</g>
</g>
<!-- Node1&#45;&gt;Node2 -->
<g id="edge1" class="edge"><title>Node1&#45;&gt;Node2</title>
<path fill="none" stroke="midnightblue" d="M75.4451,-564.117C109.18,-637.855 241.952,-897.833 437,-897.833 437,-897.833 437,-897.833 642,-897.833 758.66,-897.833 893.206,-897.833 979.822,-897.833"/>
<polygon fill="midnightblue" stroke="midnightblue" points="78.4799,-562.331 71.1907,-554.642 72.0941,-565.199 78.4799,-562.331"/>
</g>
<!-- Node5 -->
<g id="node5" class="node"><title>Node5</title>
<g id="a_node5"><a xlink:href="../../d8/d65/classapplication_1_1_view_handler.html#a1aff135a076a9717102bb59ea613131c" target="_top" xlink:title="application.ViewHandler.change\lLocationOfTurtle">
<polygon fill="white" stroke="black" points="987,-351.833 987,-381.833 1155,-381.833 1155,-351.833 987,-351.833"/>
<text text-anchor="start" x="995" y="-369.833" font-family="Helvetica,sans-Serif" font-size="10.00">application.ViewHandler.change</text>
<text text-anchor="middle" x="1071" y="-358.833" font-family="Helvetica,sans-Serif" font-size="10.00">LocationOfTurtle</text>
</a>
</g>
</g>
<!-- Node1&#45;&gt;Node5 -->
<g id="edge4" class="edge"><title>Node1&#45;&gt;Node5</title>
<path fill="none" stroke="midnightblue" d="M97.4515,-531.298C159.837,-504.842 307.234,-448.833 437,-448.833 437,-448.833 437,-448.833 642,-448.833 782.722,-448.833 944.896,-405.546 1023.06,-381.873"/>
<polygon fill="midnightblue" stroke="midnightblue" points="95.9924,-528.115 88.1847,-535.277 98.7544,-534.547 95.9924,-528.115"/>
</g>
<!-- Node8 -->
<g id="node8" class="node"><title>Node8</title>
<g id="a_node8"><a xlink:href="../../d3/de0/classapplication_1_1_view_handler2.html#a64f43a60dc4ed9c575e910ffb9b2872d" target="_top" xlink:title="application.ViewHandler2.get\lTurtleLocation">
<polygon fill="white" stroke="black" points="168.5,-629.833 168.5,-659.833 323.5,-659.833 323.5,-629.833 168.5,-629.833"/>
<text text-anchor="start" x="176.5" y="-647.833" font-family="Helvetica,sans-Serif" font-size="10.00">application.ViewHandler2.get</text>
<text text-anchor="middle" x="246" y="-636.833" font-family="Helvetica,sans-Serif" font-size="10.00">TurtleLocation</text>
</a>
</g>
</g>
<!-- Node1&#45;&gt;Node8 -->
<g id="edge7" class="edge"><title>Node1&#45;&gt;Node8</title>
<path fill="none" stroke="midnightblue" d="M92.8094,-559.332C126.26,-578.125 184.307,-610.735 218.224,-629.79"/>
<polygon fill="midnightblue" stroke="midnightblue" points="94.5001,-556.268 84.0674,-554.421 91.0715,-562.371 94.5001,-556.268"/>
</g>
<!-- Node18 -->
<g id="node18" class="node"><title>Node18</title>
<g id="a_node18"><a xlink:href="../../d8/d65/classapplication_1_1_view_handler.html#a8a3722771a70075225d9c37dc1ff5e8d" target="_top" xlink:title="application.ViewHandler.get\lTurtleLocation">
<polygon fill="white" stroke="black" points="171.5,-162.833 171.5,-192.833 320.5,-192.833 320.5,-162.833 171.5,-162.833"/>
<text text-anchor="start" x="179.5" y="-180.833" font-family="Helvetica,sans-Serif" font-size="10.00">application.ViewHandler.get</text>
<text text-anchor="middle" x="246" y="-169.833" font-family="Helvetica,sans-Serif" font-size="10.00">TurtleLocation</text>
</a>
</g>
</g>
<!-- Node1&#45;&gt;Node18 -->
<g id="edge21" class="edge"><title>Node1&#45;&gt;Node18</title>
<path fill="none" stroke="midnightblue" d="M76.1342,-526C107.297,-461.748 209.073,-251.907 237.541,-193.211"/>
<polygon fill="midnightblue" stroke="midnightblue" points="72.9759,-524.491 71.7611,-535.016 79.2742,-527.546 72.9759,-524.491"/>
</g>
<!-- Node20 -->
<g id="node20" class="node"><title>Node20</title>
<g id="a_node20"><a xlink:href="../../d8/d65/classapplication_1_1_view_handler.html#a1a94c855ceb0e8ffb1f72f138addb75b" target="_top" xlink:title="application.ViewHandler.move\lTurtle">
<polygon fill="white" stroke="black" points="991,-499.833 991,-529.833 1151,-529.833 1151,-499.833 991,-499.833"/>
<text text-anchor="start" x="999" y="-517.833" font-family="Helvetica,sans-Serif" font-size="10.00">application.ViewHandler.move</text>
<text text-anchor="middle" x="1071" y="-506.833" font-family="Helvetica,sans-Serif" font-size="10.00">Turtle</text>
</a>
</g>
</g>
<!-- Node1&#45;&gt;Node20 -->
<g id="edge44" class="edge"><title>Node1&#45;&gt;Node20</title>
<path fill="none" stroke="midnightblue" d="M142.28,-554.526C216.94,-563.292 334.67,-574.833 437,-574.833 437,-574.833 437,-574.833 642,-574.833 773.301,-574.833 806.436,-567.118 936,-545.833 961.212,-541.691 988.758,-535.596 1012.28,-529.904"/>
<polygon fill="midnightblue" stroke="midnightblue" points="142.38,-551.014 132.037,-553.309 141.554,-557.965 142.38,-551.014"/>
</g>
<!-- Node33 -->
<g id="node33" class="node"><title>Node33</title>
<g id="a_node33"><a xlink:href="../../d8/d65/classapplication_1_1_view_handler.html#a0dd92f1869c84b869aa893f428ba149b" target="_top" xlink:title="application.ViewHandler.set\lTurtleLocToViewTurtleLoc">
<polygon fill="white" stroke="black" points="777,-477.833 777,-507.833 925,-507.833 925,-477.833 777,-477.833"/>
<text text-anchor="start" x="785" y="-495.833" font-family="Helvetica,sans-Serif" font-size="10.00">application.ViewHandler.set</text>
<text text-anchor="middle" x="851" y="-484.833" font-family="Helvetica,sans-Serif" font-size="10.00">TurtleLocToViewTurtleLoc</text>
</a>
</g>
</g>
<!-- Node1&#45;&gt;Node33 -->
<g id="edge45" class="edge"><title>Node1&#45;&gt;Node33</title>
<path fill="none" stroke="midnightblue" d="M142.135,-539.843C292.378,-529.865 628.158,-507.566 776.797,-497.694"/>
<polygon fill="midnightblue" stroke="midnightblue" points="141.823,-536.356 132.076,-540.511 142.286,-543.34 141.823,-536.356"/>
</g>
<!-- Node3 -->
<g id="node3" class="node"><title>Node3</title>
<g id="a_node3"><a xlink:href="../../d3/de0/classapplication_1_1_view_handler2.html#ac682f2c1ca441598b6d29fe899e7f468" target="_top" xlink:title="application.ViewHandler2.move\lTurtle">
<polygon fill="white" stroke="black" points="1212.5,-833.833 1212.5,-863.833 1379.5,-863.833 1379.5,-833.833 1212.5,-833.833"/>
<text text-anchor="start" x="1220.5" y="-851.833" font-family="Helvetica,sans-Serif" font-size="10.00">application.ViewHandler2.move</text>
<text text-anchor="middle" x="1296" y="-840.833" font-family="Helvetica,sans-Serif" font-size="10.00">Turtle</text>
</a>
</g>
</g>
<!-- Node2&#45;&gt;Node3 -->
<g id="edge2" class="edge"><title>Node2&#45;&gt;Node3</title>
<path fill="none" stroke="midnightblue" d="M1150.21,-880.647C1175.15,-875.168 1202.53,-869.151 1226.71,-863.839"/>
<polygon fill="midnightblue" stroke="midnightblue" points="1149.44,-877.233 1140.42,-882.798 1150.94,-884.07 1149.44,-877.233"/>
</g>
<!-- Node4 -->
<g id="node4" class="node"><title>Node4</title>
<g id="a_node4"><a xlink:href="../../d3/de0/classapplication_1_1_view_handler2.html#acd04df701dbbc0a759c79058966f8264" target="_top" xlink:title="application.ViewHandler2.change\lLocationOfTurtle">
<polygon fill="white" stroke="black" points="1208.5,-882.833 1208.5,-912.833 1383.5,-912.833 1383.5,-882.833 1208.5,-882.833"/>
<text text-anchor="start" x="1216.5" y="-900.833" font-family="Helvetica,sans-Serif" font-size="10.00">application.ViewHandler2.change</text>
<text text-anchor="middle" x="1296" y="-889.833" font-family="Helvetica,sans-Serif" font-size="10.00">LocationOfTurtle</text>
</a>
</g>
</g>
<!-- Node2&#45;&gt;Node4 -->
<g id="edge3" class="edge"><title>Node2&#45;&gt;Node4</title>
<path fill="none" stroke="midnightblue" d="M1172.12,-897.833C1184.17,-897.833 1196.39,-897.833 1208.22,-897.833"/>
<polygon fill="midnightblue" stroke="midnightblue" points="1172.06,-894.333 1162.06,-897.833 1172.06,-901.333 1172.06,-894.333"/>
</g>
<!-- Node6 -->
<g id="node6" class="node"><title>Node6</title>
<g id="a_node6"><a xlink:href="../../d5/de0/classcommands_1_1view_commands_1_1turtle_commands_1_1_clear_screen.html#ae547e4c170a1b6d41cdfc6c8bfe5e972" target="_top" xlink:title="commands.viewCommands.turtle\lCommands.ClearScreen.execute">
<polygon fill="white" stroke="black" points="1207,-373.833 1207,-403.833 1385,-403.833 1385,-373.833 1207,-373.833"/>
<text text-anchor="start" x="1215" y="-391.833" font-family="Helvetica,sans-Serif" font-size="10.00">commands.viewCommands.turtle</text>
<text text-anchor="middle" x="1296" y="-380.833" font-family="Helvetica,sans-Serif" font-size="10.00">Commands.ClearScreen.execute</text>
</a>
</g>
</g>
<!-- Node5&#45;&gt;Node6 -->
<g id="edge5" class="edge"><title>Node5&#45;&gt;Node6</title>
<path fill="none" stroke="midnightblue" d="M1165,-376.007C1178.79,-377.368 1192.97,-378.767 1206.66,-380.118"/>
<polygon fill="midnightblue" stroke="midnightblue" points="1165.33,-372.524 1155.04,-375.025 1164.65,-379.49 1165.33,-372.524"/>
</g>
<!-- Node7 -->
<g id="node7" class="node"><title>Node7</title>
<g id="a_node7"><a xlink:href="../../dd/da6/classcommands_1_1view_commands_1_1turtle_commands_1_1_move.html#af4d9a4d9ade56b5e3a1e582bd891b7b5" target="_top" xlink:title="commands.viewCommands.turtle\lCommands.Move.goToLocation">
<polygon fill="white" stroke="black" points="1207,-171.833 1207,-201.833 1385,-201.833 1385,-171.833 1207,-171.833"/>
<text text-anchor="start" x="1215" y="-189.833" font-family="Helvetica,sans-Serif" font-size="10.00">commands.viewCommands.turtle</text>
<text text-anchor="middle" x="1296" y="-178.833" font-family="Helvetica,sans-Serif" font-size="10.00">Commands.Move.goToLocation</text>
</a>
</g>
</g>
<!-- Node5&#45;&gt;Node7 -->
<g id="edge6" class="edge"><title>Node5&#45;&gt;Node7</title>
<path fill="none" stroke="midnightblue" d="M1098.6,-345.364C1144.31,-308.469 1236.66,-233.925 1276.27,-201.954"/>
<polygon fill="midnightblue" stroke="midnightblue" points="1096.21,-342.791 1090.63,-351.796 1100.61,-348.238 1096.21,-342.791"/>
</g>
<!-- Node9 -->
<g id="node9" class="node"><title>Node9</title>
<g id="a_node9"><a xlink:href="../../d3/de0/classapplication_1_1_view_handler2.html#adef8a4ac6b5b11687e8ecb1c05253287" target="_top" xlink:title="application.ViewHandler2.update\lTurtleOnView">
<polygon fill="white" stroke="black" points="554.5,-691.833 554.5,-721.833 727.5,-721.833 727.5,-691.833 554.5,-691.833"/>
<text text-anchor="start" x="562.5" y="-709.833" font-family="Helvetica,sans-Serif" font-size="10.00">application.ViewHandler2.update</text>
<text text-anchor="middle" x="641" y="-698.833" font-family="Helvetica,sans-Serif" font-size="10.00">TurtleOnView</text>
</a>
</g>
</g>
<!-- Node8&#45;&gt;Node9 -->
<g id="edge8" class="edge"><title>Node8&#45;&gt;Node9</title>
<path fill="none" stroke="midnightblue" d="M323.82,-661.95C335.899,-664.409 348.268,-666.794 360,-668.833 424.886,-680.11 498.721,-690.01 554.274,-696.875"/>
<polygon fill="midnightblue" stroke="midnightblue" points="324.264,-658.468 313.763,-659.872 322.848,-665.323 324.264,-658.468"/>
</g>
<!-- Node15 -->
<g id="node15" class="node"><title>Node15</title>
<g id="a_node15"><a xlink:href="../../d3/de0/classapplication_1_1_view_handler2.html#a86919837e2dcf639d2f537d41eb5bd1a" target="_top" xlink:title="application.ViewHandler2.set\lInfoParamsOfTurtleAndLine">
<polygon fill="white" stroke="black" points="360.5,-629.833 360.5,-659.833 515.5,-659.833 515.5,-629.833 360.5,-629.833"/>
<text text-anchor="start" x="368.5" y="-647.833" font-family="Helvetica,sans-Serif" font-size="10.00">application.ViewHandler2.set</text>
<text text-anchor="middle" x="438" y="-636.833" font-family="Helvetica,sans-Serif" font-size="10.00">InfoParamsOfTurtleAndLine</text>
</a>
</g>
</g>
<!-- Node8&#45;&gt;Node15 -->
<g id="edge17" class="edge"><title>Node8&#45;&gt;Node15</title>
<path fill="none" stroke="midnightblue" d="M333.978,-644.833C342.758,-644.833 351.629,-644.833 360.29,-644.833"/>
<polygon fill="midnightblue" stroke="midnightblue" points="333.733,-641.333 323.733,-644.833 333.733,-648.333 333.733,-641.333"/>
</g>
<!-- Node10 -->
<g id="node10" class="node"><title>Node10</title>
<g id="a_node10"><a xlink:href="../../d3/de0/classapplication_1_1_view_handler2.html#abaa9dc9add64d8386b9f7fc37152d620" target="_top" xlink:title="application.ViewHandler2.set\lTurtleLocAndMove">
<polygon fill="white" stroke="black" points="993.5,-833.833 993.5,-863.833 1148.5,-863.833 1148.5,-833.833 993.5,-833.833"/>
<text text-anchor="start" x="1001.5" y="-851.833" font-family="Helvetica,sans-Serif" font-size="10.00">application.ViewHandler2.set</text>
<text text-anchor="middle" x="1071" y="-840.833" font-family="Helvetica,sans-Serif" font-size="10.00">TurtleLocAndMove</text>
</a>
</g>
</g>
<!-- Node9&#45;&gt;Node10 -->
<g id="edge9" class="edge"><title>Node9&#45;&gt;Node10</title>
<path fill="none" stroke="midnightblue" d="M690.594,-688.484C751.216,-668.721 856.559,-644.866 936,-682.833 1003.17,-714.934 1047.47,-798.96 1063.4,-833.584"/>
<polygon fill="midnightblue" stroke="midnightblue" points="689.266,-685.237 680.898,-691.735 691.491,-691.874 689.266,-685.237"/>
</g>
<!-- Node11 -->
<g id="node11" class="node"><title>Node11</title>
<g id="a_node11"><a xlink:href="../../d3/de0/classapplication_1_1_view_handler2.html#ab87b30f73cb5e726f4fcc6b6f60f8007" target="_top" xlink:title="application.ViewHandler2.move\lTurtleImageAndDraw">
<polygon fill="white" stroke="black" points="767.5,-838.833 767.5,-868.833 934.5,-868.833 934.5,-838.833 767.5,-838.833"/>
<text text-anchor="start" x="775.5" y="-856.833" font-family="Helvetica,sans-Serif" font-size="10.00">application.ViewHandler2.move</text>
<text text-anchor="middle" x="851" y="-845.833" font-family="Helvetica,sans-Serif" font-size="10.00">TurtleImageAndDraw</text>
</a>
</g>
</g>
<!-- Node9&#45;&gt;Node11 -->
<g id="edge12" class="edge"><title>Node9&#45;&gt;Node11</title>
<path fill="none" stroke="midnightblue" d="M659.466,-729.869C681.436,-757.298 721.691,-802.676 766,-828.833 772.42,-832.623 779.46,-835.878 786.648,-838.664"/>
<polygon fill="midnightblue" stroke="midnightblue" points="662.186,-727.666 653.25,-721.974 656.686,-731.996 662.186,-727.666"/>
</g>
<!-- Node12 -->
<g id="node12" class="node"><title>Node12</title>
<g id="a_node12"><a xlink:href="../../d3/de0/classapplication_1_1_view_handler2.html#a4dfbbb48e3c3c7bc5db71a2a308a1b7c" target="_top" xlink:title="application.ViewHandler2.rotate\lTurtle">
<polygon fill="white" stroke="black" points="766.5,-789.833 766.5,-819.833 935.5,-819.833 935.5,-789.833 766.5,-789.833"/>
<text text-anchor="start" x="774.5" y="-807.833" font-family="Helvetica,sans-Serif" font-size="10.00">application.ViewHandler2.rotate</text>
<text text-anchor="middle" x="851" y="-796.833" font-family="Helvetica,sans-Serif" font-size="10.00">Turtle</text>
</a>
</g>
</g>
<!-- Node9&#45;&gt;Node12 -->
<g id="edge14" class="edge"><title>Node9&#45;&gt;Node12</title>
<path fill="none" stroke="midnightblue" d="M672.454,-727.599C696.9,-743.557 732.546,-765.266 766,-779.833 774.37,-783.477 783.431,-786.787 792.399,-789.718"/>
<polygon fill="midnightblue" stroke="midnightblue" points="674.253,-724.592 663.98,-722.003 670.396,-730.434 674.253,-724.592"/>
</g>
<!-- Node13 -->
<g id="node13" class="node"><title>Node13</title>
<g id="a_node13"><a xlink:href="../../d3/de0/classapplication_1_1_view_handler2.html#a0e3021726260bc0112ea6b6deef82aaa" target="_top" xlink:title="application.ViewHandler2.set\lTurtleOrientation">
<polygon fill="white" stroke="black" points="773.5,-740.833 773.5,-770.833 928.5,-770.833 928.5,-740.833 773.5,-740.833"/>
<text text-anchor="start" x="781.5" y="-758.833" font-family="Helvetica,sans-Serif" font-size="10.00">application.ViewHandler2.set</text>
<text text-anchor="middle" x="851" y="-747.833" font-family="Helvetica,sans-Serif" font-size="10.00">TurtleOrientation</text>
</a>
</g>
</g>
<!-- Node9&#45;&gt;Node13 -->
<g id="edge15" class="edge"><title>Node9&#45;&gt;Node13</title>
<path fill="none" stroke="midnightblue" d="M715.568,-724.164C738.661,-729.604 763.95,-735.561 786.3,-740.827"/>
<polygon fill="midnightblue" stroke="midnightblue" points="716.357,-720.754 705.82,-721.867 714.751,-727.567 716.357,-720.754"/>
</g>
<!-- Node14 -->
<g id="node14" class="node"><title>Node14</title>
<g id="a_node14"><a xlink:href="../../d3/de0/classapplication_1_1_view_handler2.html#a204e29a9937f99e85d42c948f58012c1" target="_top" xlink:title="application.ViewHandler2.show\lTurtle">
<polygon fill="white" stroke="black" points="769,-691.833 769,-721.833 933,-721.833 933,-691.833 769,-691.833"/>
<text text-anchor="start" x="777" y="-709.833" font-family="Helvetica,sans-Serif" font-size="10.00">application.ViewHandler2.show</text>
<text text-anchor="middle" x="851" y="-698.833" font-family="Helvetica,sans-Serif" font-size="10.00">Turtle</text>
</a>
</g>
</g>
<!-- Node9&#45;&gt;Node14 -->
<g id="edge16" class="edge"><title>Node9&#45;&gt;Node14</title>
<path fill="none" stroke="midnightblue" d="M737.822,-706.833C748.193,-706.833 758.674,-706.833 768.848,-706.833"/>
<polygon fill="midnightblue" stroke="midnightblue" points="737.502,-703.333 727.502,-706.833 737.502,-710.333 737.502,-703.333"/>
</g>
<!-- Node10&#45;&gt;Node3 -->
<g id="edge10" class="edge"><title>Node10&#45;&gt;Node3</title>
<path fill="none" stroke="midnightblue" d="M1158.98,-848.833C1176.55,-848.833 1194.98,-848.833 1212.4,-848.833"/>
<polygon fill="midnightblue" stroke="midnightblue" points="1158.74,-845.333 1148.74,-848.833 1158.74,-852.333 1158.74,-845.333"/>
</g>
<!-- Node10&#45;&gt;Node4 -->
<g id="edge11" class="edge"><title>Node10&#45;&gt;Node4</title>
<path fill="none" stroke="midnightblue" d="M1150.21,-866.018C1175.15,-871.497 1202.53,-877.514 1226.71,-882.827"/>
<polygon fill="midnightblue" stroke="midnightblue" points="1150.94,-862.595 1140.42,-863.867 1149.44,-869.432 1150.94,-862.595"/>
</g>
<!-- Node11&#45;&gt;Node10 -->
<g id="edge13" class="edge"><title>Node11&#45;&gt;Node10</title>
<path fill="none" stroke="midnightblue" d="M944.754,-851.705C960.982,-851.333 977.701,-850.95 993.429,-850.589"/>
<polygon fill="midnightblue" stroke="midnightblue" points="944.644,-848.207 934.727,-851.935 944.805,-855.205 944.644,-848.207"/>
</g>
<!-- Node15&#45;&gt;Node9 -->
<g id="edge20" class="edge"><title>Node15&#45;&gt;Node9</title>
<path fill="none" stroke="midnightblue" d="M497.482,-662.872C527.188,-672.035 562.867,-683.041 591.095,-691.748"/>
<polygon fill="midnightblue" stroke="midnightblue" points="498.244,-659.444 487.656,-659.841 496.181,-666.133 498.244,-659.444"/>
</g>
<!-- Node16 -->
<g id="node16" class="node"><title>Node16</title>
<g id="a_node16"><a xlink:href="../../d3/de0/classapplication_1_1_view_handler2.html#a3544f8be953d5b1e93f29786bc91e6c9" target="_top" xlink:title="application.ViewHandler2.initialize\lTurtle">
<polygon fill="white" stroke="black" points="552,-623.833 552,-653.833 730,-653.833 730,-623.833 552,-623.833"/>
<text text-anchor="start" x="560" y="-641.833" font-family="Helvetica,sans-Serif" font-size="10.00">application.ViewHandler2.initialize</text>
<text text-anchor="middle" x="641" y="-630.833" font-family="Helvetica,sans-Serif" font-size="10.00">Turtle</text>
</a>
</g>
</g>
<!-- Node15&#45;&gt;Node16 -->
<g id="edge18" class="edge"><title>Node15&#45;&gt;Node16</title>
<path fill="none" stroke="midnightblue" d="M525.675,-642.245C534.358,-641.986 543.181,-641.723 551.878,-641.463"/>
<polygon fill="midnightblue" stroke="midnightblue" points="525.454,-638.75 515.563,-642.547 525.663,-645.747 525.454,-638.75"/>
</g>
<!-- Node17 -->
<g id="node17" class="node"><title>Node17</title>
<g id="a_node17"><a xlink:href="../../d3/de0/classapplication_1_1_view_handler2.html#ab9f42981fade26d0f6d67bd9dec9181f" target="_top" xlink:title="application.ViewHandler2.\lViewHandler2">
<polygon fill="white" stroke="black" points="781,-603.833 781,-633.833 921,-633.833 921,-603.833 781,-603.833"/>
<text text-anchor="start" x="789" y="-621.833" font-family="Helvetica,sans-Serif" font-size="10.00">application.ViewHandler2.</text>
<text text-anchor="middle" x="851" y="-610.833" font-family="Helvetica,sans-Serif" font-size="10.00">ViewHandler2</text>
</a>
</g>
</g>
<!-- Node16&#45;&gt;Node17 -->
<g id="edge19" class="edge"><title>Node16&#45;&gt;Node17</title>
<path fill="none" stroke="midnightblue" d="M740.189,-629.392C753.943,-628.069 767.834,-626.733 780.895,-625.477"/>
<polygon fill="midnightblue" stroke="midnightblue" points="739.83,-625.91 730.211,-630.351 740.5,-632.878 739.83,-625.91"/>
</g>
<!-- Node18&#45;&gt;Node6 -->
<g id="edge40" class="edge"><title>Node18&#45;&gt;Node6</title>
<path fill="none" stroke="midnightblue" d="M267.186,-200.771C321.25,-259.525 476.367,-410.833 640,-410.833 640,-410.833 640,-410.833 852,-410.833 975.207,-410.833 1117.45,-402.239 1206.81,-395.794"/>
<polygon fill="midnightblue" stroke="midnightblue" points="269.551,-198.17 260.237,-193.121 264.37,-202.876 269.551,-198.17"/>
</g>
<!-- Node18&#45;&gt;Node7 -->
<g id="edge42" class="edge"><title>Node18&#45;&gt;Node7</title>
<path fill="none" stroke="midnightblue" d="M268.486,-155.537C289.841,-134.62 324.46,-103.924 360,-85.8327 474.711,-27.4414 511.283,-11.8327 640,-11.8327 640,-11.8327 640,-11.8327 852,-11.8327 993.805,-11.8327 1044.04,27.294 1170,-37.8327 1229.09,-68.3824 1271.26,-140.149 1287.56,-171.606"/>
<polygon fill="midnightblue" stroke="midnightblue" points="265.852,-153.221 261.241,-162.76 270.794,-158.178 265.852,-153.221"/>
</g>
<!-- Node19 -->
<g id="node19" class="node"><title>Node19</title>
<g id="a_node19"><a xlink:href="../../d8/d65/classapplication_1_1_view_handler.html#ae489ceaa9b5ec67faf3ba22a11cec085" target="_top" xlink:title="application.ViewHandler.update\lTurtleOnView">
<polygon fill="white" stroke="black" points="557.5,-236.833 557.5,-266.833 724.5,-266.833 724.5,-236.833 557.5,-236.833"/>
<text text-anchor="start" x="565.5" y="-254.833" font-family="Helvetica,sans-Serif" font-size="10.00">application.ViewHandler.update</text>
<text text-anchor="middle" x="641" y="-243.833" font-family="Helvetica,sans-Serif" font-size="10.00">TurtleOnView</text>
</a>
</g>
</g>
<!-- Node18&#45;&gt;Node19 -->
<g id="edge22" class="edge"><title>Node18&#45;&gt;Node19</title>
<path fill="none" stroke="midnightblue" d="M325.916,-194.936C337.339,-197.312 348.963,-199.676 360,-201.833 426.274,-214.784 501.641,-228.166 557.475,-237.823"/>
<polygon fill="midnightblue" stroke="midnightblue" points="326.453,-191.473 315.948,-192.85 325.019,-198.324 326.453,-191.473"/>
</g>
<!-- Node26 -->
<g id="node26" class="node"><title>Node26</title>
<g id="a_node26"><a xlink:href="../../df/d03/classcommands_1_1view_commands_1_1turtle_commands_1_1_go_towards_loc.html#a67f5f04ce72d0cd234d1e0a11e6d7c83" target="_top" xlink:title="commands.viewCommands.turtle\lCommands.GoTowardsLoc.execute">
<polygon fill="white" stroke="black" points="979,-109.833 979,-139.833 1163,-139.833 1163,-109.833 979,-109.833"/>
<text text-anchor="start" x="987" y="-127.833" font-family="Helvetica,sans-Serif" font-size="10.00">commands.viewCommands.turtle</text>
<text text-anchor="middle" x="1071" y="-116.833" font-family="Helvetica,sans-Serif" font-size="10.00">Commands.GoTowardsLoc.execute</text>
</a>
</g>
</g>
<!-- Node18&#45;&gt;Node26 -->
<g id="edge41" class="edge"><title>Node18&#45;&gt;Node26</title>
<path fill="none" stroke="midnightblue" d="M319.639,-160.584C333.014,-157.745 346.892,-155.019 360,-152.833 613.315,-110.58 679.757,-89.6993 936,-106.833 949.935,-107.764 964.631,-109.235 978.982,-110.945"/>
<polygon fill="midnightblue" stroke="midnightblue" points="318.565,-157.236 309.531,-162.772 320.045,-164.078 318.565,-157.236"/>
</g>
<!-- Node28 -->
<g id="node28" class="node"><title>Node28</title>
<g id="a_node28"><a xlink:href="../../d5/da3/classcommands_1_1view_commands_1_1turtle_commands_1_1_towards.html#abd6801c7d6d99e2cfa7f2a38b10a116a" target="_top" xlink:title="commands.viewCommands.turtle\lCommands.Towards.execute">
<polygon fill="white" stroke="black" points="982,-47.8327 982,-77.8327 1160,-77.8327 1160,-47.8327 982,-47.8327"/>
<text text-anchor="start" x="990" y="-65.8327" font-family="Helvetica,sans-Serif" font-size="10.00">commands.viewCommands.turtle</text>
<text text-anchor="middle" x="1071" y="-54.8327" font-family="Helvetica,sans-Serif" font-size="10.00">Commands.Towards.execute</text>
</a>
</g>
</g>
<!-- Node18&#45;&gt;Node28 -->
<g id="edge43" class="edge"><title>Node18&#45;&gt;Node28</title>
<path fill="none" stroke="midnightblue" d="M281.434,-157.912C303.26,-146.172 332.473,-132.053 360,-123.833 576.493,-59.1824 845.429,-55.729 981.809,-59.0604"/>
<polygon fill="midnightblue" stroke="midnightblue" points="279.648,-154.899 272.558,-162.773 283.01,-161.039 279.648,-154.899"/>
</g>
<!-- Node30 -->
<g id="node30" class="node"><title>Node30</title>
<g id="a_node30"><a xlink:href="../../d8/d65/classapplication_1_1_view_handler.html#a308dcaf9847965fa4a3d261347845f56" target="_top" xlink:title="application.ViewHandler.set\lInfoParamsOfTurtleAndLine">
<polygon fill="white" stroke="black" points="364,-162.833 364,-192.833 512,-192.833 512,-162.833 364,-162.833"/>
<text text-anchor="start" x="372" y="-180.833" font-family="Helvetica,sans-Serif" font-size="10.00">application.ViewHandler.set</text>
<text text-anchor="middle" x="438" y="-169.833" font-family="Helvetica,sans-Serif" font-size="10.00">InfoParamsOfTurtleAndLine</text>
</a>
</g>
</g>
<!-- Node18&#45;&gt;Node30 -->
<g id="edge36" class="edge"><title>Node18&#45;&gt;Node30</title>
<path fill="none" stroke="midnightblue" d="M330.798,-177.833C341.842,-177.833 353.091,-177.833 363.936,-177.833"/>
<polygon fill="midnightblue" stroke="midnightblue" points="330.731,-174.333 320.731,-177.833 330.731,-181.333 330.731,-174.333"/>
</g>
<!-- Node19&#45;&gt;Node5 -->
<g id="edge25" class="edge"><title>Node19&#45;&gt;Node5</title>
<path fill="none" stroke="midnightblue" d="M734.659,-256.073C793.55,-260.869 870.714,-271.084 936,-292.833 978.358,-306.943 1022.83,-334.403 1048.4,-351.614"/>
<polygon fill="midnightblue" stroke="midnightblue" points="734.869,-252.579 724.628,-255.294 734.327,-259.558 734.869,-252.579"/>
</g>
<!-- Node19&#45;&gt;Node20 -->
<g id="edge23" class="edge"><title>Node19&#45;&gt;Node20</title>
<path fill="none" stroke="midnightblue" d="M644.937,-276.756C652.902,-331.643 680.418,-462.391 766,-516.833 844.376,-566.691 958.673,-547.049 1022.45,-529.904"/>
<polygon fill="midnightblue" stroke="midnightblue" points="648.404,-276.275 643.594,-266.836 641.467,-277.215 648.404,-276.275"/>
</g>
<!-- Node22 -->
<g id="node22" class="node"><title>Node22</title>
<g id="a_node22"><a xlink:href="../../d8/d65/classapplication_1_1_view_handler.html#a98b4ba09b3f3e8b1a7667db5598dbfb0" target="_top" xlink:title="application.ViewHandler.move\lTurtleImageAndDraw">
<polygon fill="white" stroke="black" points="771,-351.833 771,-381.833 931,-381.833 931,-351.833 771,-351.833"/>
<text text-anchor="start" x="779" y="-369.833" font-family="Helvetica,sans-Serif" font-size="10.00">application.ViewHandler.move</text>
<text text-anchor="middle" x="851" y="-358.833" font-family="Helvetica,sans-Serif" font-size="10.00">TurtleImageAndDraw</text>
</a>
</g>
</g>
<!-- Node19&#45;&gt;Node22 -->
<g id="edge26" class="edge"><title>Node19&#45;&gt;Node22</title>
<path fill="none" stroke="midnightblue" d="M666.698,-273.684C690.62,-293.857 728.661,-323.4 766,-341.833 773.64,-345.604 781.958,-348.922 790.29,-351.804"/>
<polygon fill="midnightblue" stroke="midnightblue" points="668.724,-270.812 658.85,-266.973 664.175,-276.132 668.724,-270.812"/>
</g>
<!-- Node23 -->
<g id="node23" class="node"><title>Node23</title>
<g id="a_node23"><a xlink:href="../../d8/d65/classapplication_1_1_view_handler.html#abe68f02cdf0227b13568e1aaabf57e5c" target="_top" xlink:title="application.ViewHandler.rotate\lTurtle">
<polygon fill="white" stroke="black" points="770,-214.833 770,-244.833 932,-244.833 932,-214.833 770,-214.833"/>
<text text-anchor="start" x="778" y="-232.833" font-family="Helvetica,sans-Serif" font-size="10.00">application.ViewHandler.rotate</text>
<text text-anchor="middle" x="851" y="-221.833" font-family="Helvetica,sans-Serif" font-size="10.00">Turtle</text>
</a>
</g>
</g>
<!-- Node19&#45;&gt;Node23 -->
<g id="edge29" class="edge"><title>Node19&#45;&gt;Node23</title>
<path fill="none" stroke="midnightblue" d="M734.762,-242.021C746.508,-240.779 758.446,-239.516 769.97,-238.297"/>
<polygon fill="midnightblue" stroke="midnightblue" points="734.082,-238.574 724.506,-243.106 734.819,-245.535 734.082,-238.574"/>
</g>
<!-- Node25 -->
<g id="node25" class="node"><title>Node25</title>
<g id="a_node25"><a xlink:href="../../d8/d65/classapplication_1_1_view_handler.html#af07eafb381b0ea9a1ce68f6ffe8a7428" target="_top" xlink:title="application.ViewHandler.set\lTurtleOrientation">
<polygon fill="white" stroke="black" points="777,-165.833 777,-195.833 925,-195.833 925,-165.833 777,-165.833"/>
<text text-anchor="start" x="785" y="-183.833" font-family="Helvetica,sans-Serif" font-size="10.00">application.ViewHandler.set</text>
<text text-anchor="middle" x="851" y="-172.833" font-family="Helvetica,sans-Serif" font-size="10.00">TurtleOrientation</text>
</a>
</g>
</g>
<!-- Node19&#45;&gt;Node25 -->
<g id="edge31" class="edge"><title>Node19&#45;&gt;Node25</title>
<path fill="none" stroke="midnightblue" d="M688.699,-233.07C711.795,-224.063 740.188,-213.395 766,-204.833 775.213,-201.777 785.07,-198.748 794.672,-195.925"/>
<polygon fill="midnightblue" stroke="midnightblue" points="687.179,-229.906 679.148,-236.817 689.736,-236.423 687.179,-229.906"/>
</g>
<!-- Node29 -->
<g id="node29" class="node"><title>Node29</title>
<g id="a_node29"><a xlink:href="../../d8/d65/classapplication_1_1_view_handler.html#a55d042c40e05453e3f5f6bc6c1c6e060" target="_top" xlink:title="application.ViewHandler.show\lTurtle">
<polygon fill="white" stroke="black" points="772.5,-302.833 772.5,-332.833 929.5,-332.833 929.5,-302.833 772.5,-302.833"/>
<text text-anchor="start" x="780.5" y="-320.833" font-family="Helvetica,sans-Serif" font-size="10.00">application.ViewHandler.show</text>
<text text-anchor="middle" x="851" y="-309.833" font-family="Helvetica,sans-Serif" font-size="10.00">Turtle</text>
</a>
</g>
</g>
<!-- Node19&#45;&gt;Node29 -->
<g id="edge35" class="edge"><title>Node19&#45;&gt;Node29</title>
<path fill="none" stroke="midnightblue" d="M699.252,-269.999C731.658,-280.282 771.712,-292.991 802.386,-302.724"/>
<polygon fill="midnightblue" stroke="midnightblue" points="700.049,-266.58 689.459,-266.892 697.932,-273.252 700.049,-266.58"/>
</g>
<!-- Node21 -->
<g id="node21" class="node"><title>Node21</title>
<g id="a_node21"><a xlink:href="../../dd/da6/classcommands_1_1view_commands_1_1turtle_commands_1_1_move.html#af95e8ccf5c290a4d06f79caf2deed407" target="_top" xlink:title="commands.viewCommands.turtle\lCommands.Move.changeLocation">
<polygon fill="white" stroke="black" points="1206.5,-499.833 1206.5,-529.833 1385.5,-529.833 1385.5,-499.833 1206.5,-499.833"/>
<text text-anchor="start" x="1214.5" y="-517.833" font-family="Helvetica,sans-Serif" font-size="10.00">commands.viewCommands.turtle</text>
<text text-anchor="middle" x="1296" y="-506.833" font-family="Helvetica,sans-Serif" font-size="10.00">Commands.Move.changeLocation</text>
</a>
</g>
</g>
<!-- Node20&#45;&gt;Node21 -->
<g id="edge24" class="edge"><title>Node20&#45;&gt;Node21</title>
<path fill="none" stroke="midnightblue" d="M1161.36,-514.833C1176.11,-514.833 1191.4,-514.833 1206.14,-514.833"/>
<polygon fill="midnightblue" stroke="midnightblue" points="1161.25,-511.333 1151.25,-514.833 1161.25,-518.333 1161.25,-511.333"/>
</g>
<!-- Node22&#45;&gt;Node5 -->
<g id="edge28" class="edge"><title>Node22&#45;&gt;Node5</title>
<path fill="none" stroke="midnightblue" d="M941.336,-366.833C956.391,-366.833 971.963,-366.833 986.852,-366.833"/>
<polygon fill="midnightblue" stroke="midnightblue" points="941.011,-363.333 931.011,-366.833 941.011,-370.333 941.011,-363.333"/>
</g>
<!-- Node22&#45;&gt;Node20 -->
<g id="edge27" class="edge"><title>Node22&#45;&gt;Node20</title>
<path fill="none" stroke="midnightblue" d="M882.48,-387.526C926.963,-417.725 1008.63,-473.165 1047.84,-499.788"/>
<polygon fill="midnightblue" stroke="midnightblue" points="884.342,-384.559 874.103,-381.838 880.41,-390.351 884.342,-384.559"/>
</g>
<!-- Node24 -->
<g id="node24" class="node"><title>Node24</title>
<g id="a_node24"><a xlink:href="../../d3/dba/classcommands_1_1view_commands_1_1turtle_commands_1_1_rotate.html#a8ee301e936ff8d884357dccac52c2bfb" target="_top" xlink:title="commands.viewCommands.turtle\lCommands.Rotate.changeOrientation">
<polygon fill="white" stroke="black" points="972.5,-214.833 972.5,-244.833 1169.5,-244.833 1169.5,-214.833 972.5,-214.833"/>
<text text-anchor="start" x="980.5" y="-232.833" font-family="Helvetica,sans-Serif" font-size="10.00">commands.viewCommands.turtle</text>
<text text-anchor="middle" x="1071" y="-221.833" font-family="Helvetica,sans-Serif" font-size="10.00">Commands.Rotate.changeOrientation</text>
</a>
</g>
</g>
<!-- Node23&#45;&gt;Node24 -->
<g id="edge30" class="edge"><title>Node23&#45;&gt;Node24</title>
<path fill="none" stroke="midnightblue" d="M942.397,-229.833C952.222,-229.833 962.256,-229.833 972.165,-229.833"/>
<polygon fill="midnightblue" stroke="midnightblue" points="942.246,-226.333 932.246,-229.833 942.246,-233.333 942.246,-226.333"/>
</g>
<!-- Node25&#45;&gt;Node26 -->
<g id="edge32" class="edge"><title>Node25&#45;&gt;Node26</title>
<path fill="none" stroke="midnightblue" d="M920.156,-163.325C949.428,-155.805 983.295,-147.106 1011.42,-139.881"/>
<polygon fill="midnightblue" stroke="midnightblue" points="919.235,-159.948 910.42,-165.826 920.976,-166.728 919.235,-159.948"/>
</g>
<!-- Node27 -->
<g id="node27" class="node"><title>Node27</title>
<g id="a_node27"><a xlink:href="../../df/ded/classcommands_1_1view_commands_1_1turtle_commands_1_1_set_heading.html#a3efffc1774ad2f0b23742a20789f0ee8" target="_top" xlink:title="commands.viewCommands.turtle\lCommands.SetHeading.execute">
<polygon fill="white" stroke="black" points="982,-165.833 982,-195.833 1160,-195.833 1160,-165.833 982,-165.833"/>
<text text-anchor="start" x="990" y="-183.833" font-family="Helvetica,sans-Serif" font-size="10.00">commands.viewCommands.turtle</text>
<text text-anchor="middle" x="1071" y="-172.833" font-family="Helvetica,sans-Serif" font-size="10.00">Commands.SetHeading.execute</text>
</a>
</g>
</g>
<!-- Node25&#45;&gt;Node27 -->
<g id="edge33" class="edge"><title>Node25&#45;&gt;Node27</title>
<path fill="none" stroke="midnightblue" d="M935.567,-180.833C950.729,-180.833 966.587,-180.833 981.875,-180.833"/>
<polygon fill="midnightblue" stroke="midnightblue" points="935.197,-177.333 925.197,-180.833 935.197,-184.333 935.197,-177.333"/>
</g>
<!-- Node25&#45;&gt;Node28 -->
<g id="edge34" class="edge"><title>Node25&#45;&gt;Node28</title>
<path fill="none" stroke="midnightblue" d="M928.202,-161.008C930.913,-159.414 933.525,-157.692 936,-155.833 959.655,-138.059 948.997,-118.443 972,-99.8327 983.593,-90.4531 997.815,-83.2861 1011.79,-77.8766"/>
<polygon fill="midnightblue" stroke="midnightblue" points="926.496,-157.95 919.248,-165.678 929.733,-164.157 926.496,-157.95"/>
</g>
<!-- Node30&#45;&gt;Node19 -->
<g id="edge39" class="edge"><title>Node30&#45;&gt;Node19</title>
<path fill="none" stroke="midnightblue" d="M489.877,-196.564C523.752,-209.035 567.668,-225.203 599.239,-236.826"/>
<polygon fill="midnightblue" stroke="midnightblue" points="490.754,-193.157 480.16,-192.986 488.335,-199.726 490.754,-193.157"/>
</g>
<!-- Node31 -->
<g id="node31" class="node"><title>Node31</title>
<g id="a_node31"><a xlink:href="../../d8/d65/classapplication_1_1_view_handler.html#ac37927f63d43d93f1b1e0f5a3b59cf26" target="_top" xlink:title="application.ViewHandler.initialize\lTurtle">
<polygon fill="white" stroke="black" points="555.5,-151.833 555.5,-181.833 726.5,-181.833 726.5,-151.833 555.5,-151.833"/>
<text text-anchor="start" x="563.5" y="-169.833" font-family="Helvetica,sans-Serif" font-size="10.00">application.ViewHandler.initialize</text>
<text text-anchor="middle" x="641" y="-158.833" font-family="Helvetica,sans-Serif" font-size="10.00">Turtle</text>
</a>
</g>
</g>
<!-- Node30&#45;&gt;Node31 -->
<g id="edge37" class="edge"><title>Node30&#45;&gt;Node31</title>
<path fill="none" stroke="midnightblue" d="M522.447,-173.266C533.309,-172.672 544.444,-172.062 555.326,-171.467"/>
<polygon fill="midnightblue" stroke="midnightblue" points="521.928,-169.789 512.134,-173.83 522.311,-176.779 521.928,-169.789"/>
</g>
<!-- Node32 -->
<g id="node32" class="node"><title>Node32</title>
<g id="a_node32"><a xlink:href="../../d8/d65/classapplication_1_1_view_handler.html#aede07ea15df8a762813028bb80403e6b" target="_top" xlink:title="application.ViewHandler.\lViewHandler">
<polygon fill="white" stroke="black" points="784.5,-116.833 784.5,-146.833 917.5,-146.833 917.5,-116.833 784.5,-116.833"/>
<text text-anchor="start" x="792.5" y="-134.833" font-family="Helvetica,sans-Serif" font-size="10.00">application.ViewHandler.</text>
<text text-anchor="middle" x="851" y="-123.833" font-family="Helvetica,sans-Serif" font-size="10.00">ViewHandler</text>
</a>
</g>
</g>
<!-- Node31&#45;&gt;Node32 -->
<g id="edge38" class="edge"><title>Node31&#45;&gt;Node32</title>
<path fill="none" stroke="midnightblue" d="M736.586,-150.917C752.707,-148.204 769.132,-145.44 784.295,-142.889"/>
<polygon fill="midnightblue" stroke="midnightblue" points="735.882,-147.486 726.602,-152.597 737.044,-154.389 735.882,-147.486"/>
</g>
<!-- Node33&#45;&gt;Node5 -->
<g id="edge47" class="edge"><title>Node33&#45;&gt;Node5</title>
<path fill="none" stroke="midnightblue" d="M911.008,-474.125C919.56,-470.738 928.126,-466.956 936,-462.833 980.875,-439.337 1027.75,-402.439 1052.41,-381.904"/>
<polygon fill="midnightblue" stroke="midnightblue" points="909.5,-470.954 901.396,-477.778 911.987,-477.497 909.5,-470.954"/>
</g>
<!-- Node33&#45;&gt;Node20 -->
<g id="edge46" class="edge"><title>Node33&#45;&gt;Node20</title>
<path fill="none" stroke="midnightblue" d="M935.187,-501.228C953.381,-503.064 972.594,-505.003 990.635,-506.823"/>
<polygon fill="midnightblue" stroke="midnightblue" points="935.498,-497.741 925.197,-500.22 934.795,-504.706 935.498,-497.741"/>
</g>
</g>
</svg>
