<?xml version="1.0" encoding="UTF-8" standalone="no"?>
<!DOCTYPE svg PUBLIC "-//W3C//DTD SVG 1.1//EN"
 "http://www.w3.org/Graphics/SVG/1.1/DTD/svg11.dtd">
<!-- Generated by graphviz version 2.36.0 (20140111.2315)
 -->
<!-- Title: application.Turtle.setVisibility Pages: 1 -->
<svg width="362pt" height="87pt"
 viewBox="0.00 0.00 362.00 87.00" xmlns="http://www.w3.org/2000/svg" xmlns:xlink="http://www.w3.org/1999/xlink">
<g id="graph0" class="graph" transform="scale(1 1) rotate(0) translate(4 83)">
<title>application.Turtle.setVisibility</title>
<polygon fill="white" stroke="none" points="-4,4 -4,-83 358,-83 358,4 -4,4"/>
<!-- Node1 -->
<g id="node1" class="node"><title>Node1</title>
<polygon fill="#bfbfbf" stroke="black" points="0.5,-29.5 0.5,-48.5 153.5,-48.5 153.5,-29.5 0.5,-29.5"/>
<text text-anchor="middle" x="77" y="-36.5" font-family="Helvetica,sans-Serif" font-size="10.00">application.Turtle.setVisibility</text>
</g>
<!-- Node2 -->
<g id="node2" class="node"><title>Node2</title>
<g id="a_node2"><a xlink:href="../../d3/de0/classapplication_1_1_view_handler2.html#a204e29a9937f99e85d42c948f58012c1" target="_top" xlink:title="application.ViewHandler2.show\lTurtle">
<polygon fill="white" stroke="black" points="190,-49 190,-79 354,-79 354,-49 190,-49"/>
<text text-anchor="start" x="198" y="-67" font-family="Helvetica,sans-Serif" font-size="10.00">application.ViewHandler2.show</text>
<text text-anchor="middle" x="272" y="-56" font-family="Helvetica,sans-Serif" font-size="10.00">Turtle</text>
</a>
</g>
</g>
<!-- Node1&#45;&gt;Node2 -->
<g id="edge1" class="edge"><title>Node1&#45;&gt;Node2</title>
<path fill="none" stroke="midnightblue" d="M161.632,-49.8332C171.031,-51.0507 180.596,-52.2896 189.961,-53.5027"/>
<polygon fill="midnightblue" stroke="midnightblue" points="161.882,-46.3364 151.516,-48.5227 160.983,-53.2784 161.882,-46.3364"/>
</g>
<!-- Node3 -->
<g id="node3" class="node"><title>Node3</title>
<g id="a_node3"><a xlink:href="../../d8/d65/classapplication_1_1_view_handler.html#a55d042c40e05453e3f5f6bc6c1c6e060" target="_top" xlink:title="application.ViewHandler.show\lTurtle">
<polygon fill="white" stroke="black" points="193.5,-0 193.5,-30 350.5,-30 350.5,-0 193.5,-0"/>
<text text-anchor="start" x="201.5" y="-18" font-family="Helvetica,sans-Serif" font-size="10.00">application.ViewHandler.show</text>
<text text-anchor="middle" x="272" y="-7" font-family="Helvetica,sans-Serif" font-size="10.00">Turtle</text>
</a>
</g>
</g>
<!-- Node1&#45;&gt;Node3 -->
<g id="edge2" class="edge"><title>Node1&#45;&gt;Node3</title>
<path fill="none" stroke="midnightblue" d="M163.859,-28.3232C173.652,-27.1054 183.593,-25.8693 193.272,-24.6657"/>
<polygon fill="midnightblue" stroke="midnightblue" points="163.216,-24.8761 153.725,-29.5834 164.08,-31.8226 163.216,-24.8761"/>
</g>
</g>
</svg>
