<?xml version="1.0" encoding="UTF-8" standalone="no"?>
<!DOCTYPE svg PUBLIC "-//W3C//DTD SVG 1.1//EN"
 "http://www.w3.org/Graphics/SVG/1.1/DTD/svg11.dtd">
<!-- Generated by graphviz version 2.36.0 (20140111.2315)
 -->
<!-- Title: application.Turtle.getOrientation Pages: 1 -->
<!--zoomable 662 -->
<svg id="main" version="1.1" xmlns="http://www.w3.org/2000/svg" xmlns:xlink="http://www.w3.org/1999/xlink" xml:space="preserve" onload="init(evt)">
<style type="text/css"><![CDATA[
.edge:hover path { stroke: red; }
.edge:hover polygon { stroke: red; fill: red; }
]]></style>
<script type="text/javascript"><![CDATA[
var edges = document.getElementsByTagName('g');
if (edges && edges.length) {
  for (var i=0;i<edges.length;i++) {
    if (edges[i].id.substr(0,4)=='edge') {
      edges[i].setAttribute('class','edge');
    }
  }
}
]]></script>
        <defs>
                <circle id="rim" cx="0" cy="0" r="7"/>
                <circle id="rim2" cx="0" cy="0" r="3.5"/>
                <g id="zoomPlus">
                        <use xlink:href="#rim" fill="#404040">
                                <set attributeName="fill" to="#808080" begin="zoomplus.mouseover" end="zoomplus.mouseout"/>
                        </use>
                        <path d="M-4,0h8M0,-4v8" fill="none" stroke="white" stroke-width="1.5" pointer-events="none"/>
                </g>
                <g id="zoomMin">
                        <use xlink:href="#rim" fill="#404040">
                                <set attributeName="fill" to="#808080" begin="zoomminus.mouseover" end="zoomminus.mouseout"/>
                        </use>
                        <path d="M-4,0h8" fill="none" stroke="white" stroke-width="1.5" pointer-events="none"/>
                </g>
                <g id="dirArrow">
                        <path fill="none" stroke="white" stroke-width="1.5" d="M0,-3.0v7 M-2.5,-0.5L0,-3.0L2.5,-0.5"/>
                </g>
               <g id="resetDef">
                       <use xlink:href="#rim2" fill="#404040">
                               <set attributeName="fill" to="#808080" begin="reset.mouseover" end="reset.mouseout"/>
                       </use>
               </g>
        </defs>

<script type="text/javascript">
var viewWidth = 1432;
var viewHeight = 662;
var sectionId = 'dynsection-2';
</script>
<script xlink:href="../../svgpan.js"/>
<svg id="graph" class="graph">
<g id="viewport">
<title>application.Turtle.getOrientation</title>
<polygon fill="white" stroke="none" points="-4,4 -4,-658 1428,-658 1428,4 -4,4"/>
<!-- Node1 -->
<g id="node1" class="node"><title>Node1</title>
<polygon fill="#bfbfbf" stroke="black" points="0.5,-307.5 0.5,-326.5 169.5,-326.5 169.5,-307.5 0.5,-307.5"/>
<text text-anchor="middle" x="85" y="-314.5" font-family="Helvetica,sans-Serif" font-size="10.00">application.Turtle.getOrientation</text>
</g>
<!-- Node2 -->
<g id="node2" class="node"><title>Node2</title>
<g id="a_node2"><a xlink:href="../../d3/de0/classapplication_1_1_view_handler2.html#af6fa367df07b3cb1bdceb909e8b3ef21" target="_top" xlink:title="application.ViewHandler2.get\lTurtleOrientation">
<polygon fill="white" stroke="black" points="206.5,-445 206.5,-475 361.5,-475 361.5,-445 206.5,-445"/>
<text text-anchor="start" x="214.5" y="-463" font-family="Helvetica,sans-Serif" font-size="10.00">application.ViewHandler2.get</text>
<text text-anchor="middle" x="284" y="-452" font-family="Helvetica,sans-Serif" font-size="10.00">TurtleOrientation</text>
</a>
</g>
</g>
<!-- Node1&#45;&gt;Node2 -->
<g id="edge1" class="edge"><title>Node1&#45;&gt;Node2</title>
<path fill="none" stroke="midnightblue" d="M107.572,-332.659C145.684,-360.324 224.452,-417.501 262.089,-444.821"/>
<polygon fill="midnightblue" stroke="midnightblue" points="109.38,-329.647 99.2316,-326.605 105.268,-335.312 109.38,-329.647"/>
</g>
<!-- Node14 -->
<g id="node14" class="node"><title>Node14</title>
<g id="a_node14"><a xlink:href="../../d8/d65/classapplication_1_1_view_handler.html#a8a00eb25a7f1d5e3ccc3059e8b717819" target="_top" xlink:title="application.ViewHandler.get\lTurtleOrientation">
<polygon fill="white" stroke="black" points="209.5,-137 209.5,-167 358.5,-167 358.5,-137 209.5,-137"/>
<text text-anchor="start" x="217.5" y="-155" font-family="Helvetica,sans-Serif" font-size="10.00">application.ViewHandler.get</text>
<text text-anchor="middle" x="284" y="-144" font-family="Helvetica,sans-Serif" font-size="10.00">TurtleOrientation</text>
</a>
</g>
</g>
<!-- Node1&#45;&gt;Node14 -->
<g id="edge16" class="edge"><title>Node1&#45;&gt;Node14</title>
<path fill="none" stroke="midnightblue" d="M105.25,-300.877C143.347,-268.968 227.874,-198.172 264.962,-167.108"/>
<polygon fill="midnightblue" stroke="midnightblue" points="102.862,-298.312 97.4431,-307.416 107.357,-303.678 102.862,-298.312"/>
</g>
<!-- Node3 -->
<g id="node3" class="node"><title>Node3</title>
<g id="a_node3"><a xlink:href="../../d3/de0/classapplication_1_1_view_handler2.html#ac682f2c1ca441598b6d29fe899e7f468" target="_top" xlink:title="application.ViewHandler2.move\lTurtle">
<polygon fill="white" stroke="black" points="1250.5,-624 1250.5,-654 1417.5,-654 1417.5,-624 1250.5,-624"/>
<text text-anchor="start" x="1258.5" y="-642" font-family="Helvetica,sans-Serif" font-size="10.00">application.ViewHandler2.move</text>
<text text-anchor="middle" x="1334" y="-631" font-family="Helvetica,sans-Serif" font-size="10.00">Turtle</text>
</a>
</g>
</g>
<!-- Node2&#45;&gt;Node3 -->
<g id="edge2" class="edge"><title>Node2&#45;&gt;Node3</title>
<path fill="none" stroke="midnightblue" d="M311.149,-481.544C371.649,-529.127 527.629,-639 678,-639 678,-639 678,-639 890,-639 1015.56,-639 1161.13,-639 1250.13,-639"/>
<polygon fill="midnightblue" stroke="midnightblue" points="313.26,-478.751 303.257,-475.261 308.901,-484.228 313.26,-478.751"/>
</g>
<!-- Node4 -->
<g id="node4" class="node"><title>Node4</title>
<g id="a_node4"><a xlink:href="../../d3/de0/classapplication_1_1_view_handler2.html#adef8a4ac6b5b11687e8ecb1c05253287" target="_top" xlink:title="application.ViewHandler2.update\lTurtleOnView">
<polygon fill="white" stroke="black" points="592.5,-467 592.5,-497 765.5,-497 765.5,-467 592.5,-467"/>
<text text-anchor="start" x="600.5" y="-485" font-family="Helvetica,sans-Serif" font-size="10.00">application.ViewHandler2.update</text>
<text text-anchor="middle" x="679" y="-474" font-family="Helvetica,sans-Serif" font-size="10.00">TurtleOnView</text>
</a>
</g>
</g>
<!-- Node2&#45;&gt;Node4 -->
<g id="edge3" class="edge"><title>Node2&#45;&gt;Node4</title>
<path fill="none" stroke="midnightblue" d="M372.017,-464.871C437.579,-468.541 527.023,-473.548 592.269,-477.201"/>
<polygon fill="midnightblue" stroke="midnightblue" points="371.887,-461.359 361.707,-464.294 371.496,-468.348 371.887,-461.359"/>
</g>
<!-- Node11 -->
<g id="node11" class="node"><title>Node11</title>
<g id="a_node11"><a xlink:href="../../d3/de0/classapplication_1_1_view_handler2.html#a86919837e2dcf639d2f537d41eb5bd1a" target="_top" xlink:title="application.ViewHandler2.set\lInfoParamsOfTurtleAndLine">
<polygon fill="white" stroke="black" points="398.5,-423 398.5,-453 553.5,-453 553.5,-423 398.5,-423"/>
<text text-anchor="start" x="406.5" y="-441" font-family="Helvetica,sans-Serif" font-size="10.00">application.ViewHandler2.set</text>
<text text-anchor="middle" x="476" y="-430" font-family="Helvetica,sans-Serif" font-size="10.00">InfoParamsOfTurtleAndLine</text>
</a>
</g>
</g>
<!-- Node2&#45;&gt;Node11 -->
<g id="edge12" class="edge"><title>Node2&#45;&gt;Node11</title>
<path fill="none" stroke="midnightblue" d="M371.692,-449.962C380.565,-448.935 389.535,-447.896 398.29,-446.882"/>
<polygon fill="midnightblue" stroke="midnightblue" points="371.264,-446.488 361.733,-451.115 372.069,-453.442 371.264,-446.488"/>
</g>
<!-- Node5 -->
<g id="node5" class="node"><title>Node5</title>
<g id="a_node5"><a xlink:href="../../d3/de0/classapplication_1_1_view_handler2.html#abaa9dc9add64d8386b9f7fc37152d620" target="_top" xlink:title="application.ViewHandler2.set\lTurtleLocAndMove">
<polygon fill="white" stroke="black" points="1031.5,-577 1031.5,-607 1186.5,-607 1186.5,-577 1031.5,-577"/>
<text text-anchor="start" x="1039.5" y="-595" font-family="Helvetica,sans-Serif" font-size="10.00">application.ViewHandler2.set</text>
<text text-anchor="middle" x="1109" y="-584" font-family="Helvetica,sans-Serif" font-size="10.00">TurtleLocAndMove</text>
</a>
</g>
</g>
<!-- Node4&#45;&gt;Node5 -->
<g id="edge4" class="edge"><title>Node4&#45;&gt;Node5</title>
<path fill="none" stroke="midnightblue" d="M722.741,-501.076C746.343,-511.05 776.391,-522.846 804,-531 880.018,-553.451 969.164,-570.257 1031.19,-580.483"/>
<polygon fill="midnightblue" stroke="midnightblue" points="723.947,-497.785 713.376,-497.071 721.194,-504.221 723.947,-497.785"/>
</g>
<!-- Node7 -->
<g id="node7" class="node"><title>Node7</title>
<g id="a_node7"><a xlink:href="../../d3/de0/classapplication_1_1_view_handler2.html#ab87b30f73cb5e726f4fcc6b6f60f8007" target="_top" xlink:title="application.ViewHandler2.move\lTurtleImageAndDraw">
<polygon fill="white" stroke="black" points="805.5,-580 805.5,-610 972.5,-610 972.5,-580 805.5,-580"/>
<text text-anchor="start" x="813.5" y="-598" font-family="Helvetica,sans-Serif" font-size="10.00">application.ViewHandler2.move</text>
<text text-anchor="middle" x="889" y="-587" font-family="Helvetica,sans-Serif" font-size="10.00">TurtleImageAndDraw</text>
</a>
</g>
</g>
<!-- Node4&#45;&gt;Node7 -->
<g id="edge7" class="edge"><title>Node4&#45;&gt;Node7</title>
<path fill="none" stroke="midnightblue" d="M707.32,-503.172C731.675,-521.328 768.814,-547.284 804,-565 815.065,-570.571 827.417,-575.59 839.172,-579.858"/>
<polygon fill="midnightblue" stroke="midnightblue" points="709.356,-500.324 699.262,-497.102 705.144,-505.915 709.356,-500.324"/>
</g>
<!-- Node8 -->
<g id="node8" class="node"><title>Node8</title>
<g id="a_node8"><a xlink:href="../../d3/de0/classapplication_1_1_view_handler2.html#a4dfbbb48e3c3c7bc5db71a2a308a1b7c" target="_top" xlink:title="application.ViewHandler2.rotate\lTurtle">
<polygon fill="white" stroke="black" points="804.5,-492 804.5,-522 973.5,-522 973.5,-492 804.5,-492"/>
<text text-anchor="start" x="812.5" y="-510" font-family="Helvetica,sans-Serif" font-size="10.00">application.ViewHandler2.rotate</text>
<text text-anchor="middle" x="889" y="-499" font-family="Helvetica,sans-Serif" font-size="10.00">Turtle</text>
</a>
</g>
</g>
<!-- Node4&#45;&gt;Node8 -->
<g id="edge9" class="edge"><title>Node4&#45;&gt;Node8</title>
<path fill="none" stroke="midnightblue" d="M775.445,-493.472C785.032,-494.624 794.718,-495.788 804.172,-496.925"/>
<polygon fill="midnightblue" stroke="midnightblue" points="775.848,-489.995 765.502,-492.277 775.013,-496.945 775.848,-489.995"/>
</g>
<!-- Node9 -->
<g id="node9" class="node"><title>Node9</title>
<g id="a_node9"><a xlink:href="../../d3/de0/classapplication_1_1_view_handler2.html#a0e3021726260bc0112ea6b6deef82aaa" target="_top" xlink:title="application.ViewHandler2.set\lTurtleOrientation">
<polygon fill="white" stroke="black" points="811.5,-443 811.5,-473 966.5,-473 966.5,-443 811.5,-443"/>
<text text-anchor="start" x="819.5" y="-461" font-family="Helvetica,sans-Serif" font-size="10.00">application.ViewHandler2.set</text>
<text text-anchor="middle" x="889" y="-450" font-family="Helvetica,sans-Serif" font-size="10.00">TurtleOrientation</text>
</a>
</g>
</g>
<!-- Node4&#45;&gt;Node9 -->
<g id="edge10" class="edge"><title>Node4&#45;&gt;Node9</title>
<path fill="none" stroke="midnightblue" d="M775.567,-470.973C787.608,-469.584 799.801,-468.177 811.495,-466.828"/>
<polygon fill="midnightblue" stroke="midnightblue" points="775.035,-467.511 765.502,-472.134 775.837,-474.465 775.035,-467.511"/>
</g>
<!-- Node10 -->
<g id="node10" class="node"><title>Node10</title>
<g id="a_node10"><a xlink:href="../../d3/de0/classapplication_1_1_view_handler2.html#a204e29a9937f99e85d42c948f58012c1" target="_top" xlink:title="application.ViewHandler2.show\lTurtle">
<polygon fill="white" stroke="black" points="807,-394 807,-424 971,-424 971,-394 807,-394"/>
<text text-anchor="start" x="815" y="-412" font-family="Helvetica,sans-Serif" font-size="10.00">application.ViewHandler2.show</text>
<text text-anchor="middle" x="889" y="-401" font-family="Helvetica,sans-Serif" font-size="10.00">Turtle</text>
</a>
</g>
</g>
<!-- Node4&#45;&gt;Node10 -->
<g id="edge11" class="edge"><title>Node4&#45;&gt;Node10</title>
<path fill="none" stroke="midnightblue" d="M726.195,-463.105C749.384,-453.88 778.006,-442.883 804,-434 813.935,-430.605 824.616,-427.224 834.92,-424.096"/>
<polygon fill="midnightblue" stroke="midnightblue" points="724.596,-459.975 716.612,-466.939 727.197,-466.474 724.596,-459.975"/>
</g>
<!-- Node5&#45;&gt;Node3 -->
<g id="edge5" class="edge"><title>Node5&#45;&gt;Node3</title>
<path fill="none" stroke="midnightblue" d="M1190.97,-609.065C1214.13,-613.948 1239.2,-619.231 1261.74,-623.981"/>
<polygon fill="midnightblue" stroke="midnightblue" points="1191.68,-605.638 1181.17,-607 1190.23,-612.487 1191.68,-605.638"/>
</g>
<!-- Node6 -->
<g id="node6" class="node"><title>Node6</title>
<g id="a_node6"><a xlink:href="../../d3/de0/classapplication_1_1_view_handler2.html#acd04df701dbbc0a759c79058966f8264" target="_top" xlink:title="application.ViewHandler2.change\lLocationOfTurtle">
<polygon fill="white" stroke="black" points="1246.5,-575 1246.5,-605 1421.5,-605 1421.5,-575 1246.5,-575"/>
<text text-anchor="start" x="1254.5" y="-593" font-family="Helvetica,sans-Serif" font-size="10.00">application.ViewHandler2.change</text>
<text text-anchor="middle" x="1334" y="-582" font-family="Helvetica,sans-Serif" font-size="10.00">LocationOfTurtle</text>
</a>
</g>
</g>
<!-- Node5&#45;&gt;Node6 -->
<g id="edge6" class="edge"><title>Node5&#45;&gt;Node6</title>
<path fill="none" stroke="midnightblue" d="M1197.2,-591.218C1213.29,-591.074 1230.09,-590.923 1246.16,-590.779"/>
<polygon fill="midnightblue" stroke="midnightblue" points="1196.71,-587.722 1186.74,-591.312 1196.77,-594.722 1196.71,-587.722"/>
</g>
<!-- Node7&#45;&gt;Node5 -->
<g id="edge8" class="edge"><title>Node7&#45;&gt;Node5</title>
<path fill="none" stroke="midnightblue" d="M982.754,-593.724C998.982,-593.5 1015.7,-593.27 1031.43,-593.054"/>
<polygon fill="midnightblue" stroke="midnightblue" points="982.678,-590.224 972.727,-593.862 982.775,-597.224 982.678,-590.224"/>
</g>
<!-- Node11&#45;&gt;Node4 -->
<g id="edge15" class="edge"><title>Node11&#45;&gt;Node4</title>
<path fill="none" stroke="midnightblue" d="M555.39,-455.16C573.202,-459.059 591.988,-463.171 609.358,-466.974"/>
<polygon fill="midnightblue" stroke="midnightblue" points="556.128,-451.739 545.611,-453.019 554.631,-458.577 556.128,-451.739"/>
</g>
<!-- Node12 -->
<g id="node12" class="node"><title>Node12</title>
<g id="a_node12"><a xlink:href="../../d3/de0/classapplication_1_1_view_handler2.html#a3544f8be953d5b1e93f29786bc91e6c9" target="_top" xlink:title="application.ViewHandler2.initialize\lTurtle">
<polygon fill="white" stroke="black" points="590,-394 590,-424 768,-424 768,-394 590,-394"/>
<text text-anchor="start" x="598" y="-412" font-family="Helvetica,sans-Serif" font-size="10.00">application.ViewHandler2.initialize</text>
<text text-anchor="middle" x="679" y="-401" font-family="Helvetica,sans-Serif" font-size="10.00">Turtle</text>
</a>
</g>
</g>
<!-- Node11&#45;&gt;Node12 -->
<g id="edge13" class="edge"><title>Node11&#45;&gt;Node12</title>
<path fill="none" stroke="midnightblue" d="M563.675,-425.495C572.358,-424.242 581.181,-422.969 589.878,-421.714"/>
<polygon fill="midnightblue" stroke="midnightblue" points="562.961,-422.061 553.563,-426.954 563.96,-428.99 562.961,-422.061"/>
</g>
<!-- Node13 -->
<g id="node13" class="node"><title>Node13</title>
<g id="a_node13"><a xlink:href="../../d3/de0/classapplication_1_1_view_handler2.html#ab9f42981fade26d0f6d67bd9dec9181f" target="_top" xlink:title="application.ViewHandler2.\lViewHandler2">
<polygon fill="white" stroke="black" points="819,-345 819,-375 959,-375 959,-345 819,-345"/>
<text text-anchor="start" x="827" y="-363" font-family="Helvetica,sans-Serif" font-size="10.00">application.ViewHandler2.</text>
<text text-anchor="middle" x="889" y="-352" font-family="Helvetica,sans-Serif" font-size="10.00">ViewHandler2</text>
</a>
</g>
</g>
<!-- Node12&#45;&gt;Node13 -->
<g id="edge14" class="edge"><title>Node12&#45;&gt;Node13</title>
<path fill="none" stroke="midnightblue" d="M753.568,-391.669C776.661,-386.229 801.95,-380.271 824.3,-375.006"/>
<polygon fill="midnightblue" stroke="midnightblue" points="752.751,-388.266 743.82,-393.965 754.357,-395.079 752.751,-388.266"/>
</g>
<!-- Node15 -->
<g id="node15" class="node"><title>Node15</title>
<g id="a_node15"><a xlink:href="../../d8/d65/classapplication_1_1_view_handler.html#ae489ceaa9b5ec67faf3ba22a11cec085" target="_top" xlink:title="application.ViewHandler.update\lTurtleOnView">
<polygon fill="white" stroke="black" points="595.5,-159 595.5,-189 762.5,-189 762.5,-159 595.5,-159"/>
<text text-anchor="start" x="603.5" y="-177" font-family="Helvetica,sans-Serif" font-size="10.00">application.ViewHandler.update</text>
<text text-anchor="middle" x="679" y="-166" font-family="Helvetica,sans-Serif" font-size="10.00">TurtleOnView</text>
</a>
</g>
</g>
<!-- Node14&#45;&gt;Node15 -->
<g id="edge17" class="edge"><title>Node14&#45;&gt;Node15</title>
<path fill="none" stroke="midnightblue" d="M368.994,-156.702C435.795,-160.441 528.757,-165.645 595.234,-169.367"/>
<polygon fill="midnightblue" stroke="midnightblue" points="369.1,-153.203 358.92,-156.138 368.709,-160.192 369.1,-153.203"/>
</g>
<!-- Node26 -->
<g id="node26" class="node"><title>Node26</title>
<g id="a_node26"><a xlink:href="../../df/ded/classcommands_1_1view_commands_1_1turtle_commands_1_1_set_heading.html#a3efffc1774ad2f0b23742a20789f0ee8" target="_top" xlink:title="commands.viewCommands.turtle\lCommands.SetHeading.execute">
<polygon fill="white" stroke="black" points="1020,-0 1020,-30 1198,-30 1198,-0 1020,-0"/>
<text text-anchor="start" x="1028" y="-18" font-family="Helvetica,sans-Serif" font-size="10.00">commands.viewCommands.turtle</text>
<text text-anchor="middle" x="1109" y="-7" font-family="Helvetica,sans-Serif" font-size="10.00">Commands.SetHeading.execute</text>
</a>
</g>
</g>
<!-- Node14&#45;&gt;Node26 -->
<g id="edge36" class="edge"><title>Node14&#45;&gt;Node26</title>
<path fill="none" stroke="midnightblue" d="M326.946,-132.856C347.998,-123.685 374.055,-112.989 398,-105 573.603,-46.4135 619.833,-30.7371 804,-12 879.168,-4.35248 898.449,-11.1544 974,-12 988.775,-12.1654 1004.47,-12.4333 1019.71,-12.7427"/>
<polygon fill="midnightblue" stroke="midnightblue" points="325.394,-129.714 317.651,-136.946 328.214,-136.121 325.394,-129.714"/>
</g>
<!-- Node28 -->
<g id="node28" class="node"><title>Node28</title>
<g id="a_node28"><a xlink:href="../../d8/d65/classapplication_1_1_view_handler.html#a308dcaf9847965fa4a3d261347845f56" target="_top" xlink:title="application.ViewHandler.set\lInfoParamsOfTurtleAndLine">
<polygon fill="white" stroke="black" points="402,-115 402,-145 550,-145 550,-115 402,-115"/>
<text text-anchor="start" x="410" y="-133" font-family="Helvetica,sans-Serif" font-size="10.00">application.ViewHandler.set</text>
<text text-anchor="middle" x="476" y="-122" font-family="Helvetica,sans-Serif" font-size="10.00">InfoParamsOfTurtleAndLine</text>
</a>
</g>
</g>
<!-- Node14&#45;&gt;Node28 -->
<g id="edge32" class="edge"><title>Node14&#45;&gt;Node28</title>
<path fill="none" stroke="midnightblue" d="M368.798,-142.297C379.842,-141.018 391.091,-139.716 401.936,-138.46"/>
<polygon fill="midnightblue" stroke="midnightblue" points="368.262,-138.836 358.731,-143.463 369.067,-145.789 368.262,-138.836"/>
</g>
<!-- Node16 -->
<g id="node16" class="node"><title>Node16</title>
<g id="a_node16"><a xlink:href="../../d8/d65/classapplication_1_1_view_handler.html#a1a94c855ceb0e8ffb1f72f138addb75b" target="_top" xlink:title="application.ViewHandler.move\lTurtle">
<polygon fill="white" stroke="black" points="1029,-230 1029,-260 1189,-260 1189,-230 1029,-230"/>
<text text-anchor="start" x="1037" y="-248" font-family="Helvetica,sans-Serif" font-size="10.00">application.ViewHandler.move</text>
<text text-anchor="middle" x="1109" y="-237" font-family="Helvetica,sans-Serif" font-size="10.00">Turtle</text>
</a>
</g>
</g>
<!-- Node15&#45;&gt;Node16 -->
<g id="edge18" class="edge"><title>Node15&#45;&gt;Node16</title>
<path fill="none" stroke="midnightblue" d="M706.488,-195.308C730.375,-213.06 767.293,-236.997 804,-247 878.219,-267.225 966.467,-263.772 1028.71,-257.047"/>
<polygon fill="midnightblue" stroke="midnightblue" points="708.381,-192.35 698.302,-189.085 704.145,-197.923 708.381,-192.35"/>
</g>
<!-- Node18 -->
<g id="node18" class="node"><title>Node18</title>
<g id="a_node18"><a xlink:href="../../d8/d65/classapplication_1_1_view_handler.html#a1aff135a076a9717102bb59ea613131c" target="_top" xlink:title="application.ViewHandler.change\lLocationOfTurtle">
<polygon fill="white" stroke="black" points="1025,-129 1025,-159 1193,-159 1193,-129 1025,-129"/>
<text text-anchor="start" x="1033" y="-147" font-family="Helvetica,sans-Serif" font-size="10.00">application.ViewHandler.change</text>
<text text-anchor="middle" x="1109" y="-136" font-family="Helvetica,sans-Serif" font-size="10.00">LocationOfTurtle</text>
</a>
</g>
</g>
<!-- Node15&#45;&gt;Node18 -->
<g id="edge20" class="edge"><title>Node15&#45;&gt;Node18</title>
<path fill="none" stroke="midnightblue" d="M753.241,-156.934C769.842,-153.709 787.456,-150.789 804,-149 878.389,-140.957 963.603,-140.288 1024.85,-141.293"/>
<polygon fill="midnightblue" stroke="midnightblue" points="752.172,-153.578 743.054,-158.974 753.546,-160.442 752.172,-153.578"/>
</g>
<!-- Node21 -->
<g id="node21" class="node"><title>Node21</title>
<g id="a_node21"><a xlink:href="../../d8/d65/classapplication_1_1_view_handler.html#a98b4ba09b3f3e8b1a7667db5598dbfb0" target="_top" xlink:title="application.ViewHandler.move\lTurtleImageAndDraw">
<polygon fill="white" stroke="black" points="809,-159 809,-189 969,-189 969,-159 809,-159"/>
<text text-anchor="start" x="817" y="-177" font-family="Helvetica,sans-Serif" font-size="10.00">application.ViewHandler.move</text>
<text text-anchor="middle" x="889" y="-166" font-family="Helvetica,sans-Serif" font-size="10.00">TurtleImageAndDraw</text>
</a>
</g>
</g>
<!-- Node15&#45;&gt;Node21 -->
<g id="edge23" class="edge"><title>Node15&#45;&gt;Node21</title>
<path fill="none" stroke="midnightblue" d="M772.633,-174C784.765,-174 797.106,-174 808.985,-174"/>
<polygon fill="midnightblue" stroke="midnightblue" points="772.506,-170.5 762.506,-174 772.506,-177.5 772.506,-170.5"/>
</g>
<!-- Node22 -->
<g id="node22" class="node"><title>Node22</title>
<g id="a_node22"><a xlink:href="../../d8/d65/classapplication_1_1_view_handler.html#abe68f02cdf0227b13568e1aaabf57e5c" target="_top" xlink:title="application.ViewHandler.rotate\lTurtle">
<polygon fill="white" stroke="black" points="808,-296 808,-326 970,-326 970,-296 808,-296"/>
<text text-anchor="start" x="816" y="-314" font-family="Helvetica,sans-Serif" font-size="10.00">application.ViewHandler.rotate</text>
<text text-anchor="middle" x="889" y="-303" font-family="Helvetica,sans-Serif" font-size="10.00">Turtle</text>
</a>
</g>
</g>
<!-- Node15&#45;&gt;Node22 -->
<g id="edge26" class="edge"><title>Node15&#45;&gt;Node22</title>
<path fill="none" stroke="midnightblue" d="M700.825,-196.332C724.039,-220.113 763.65,-257.495 804,-281 814.036,-286.846 825.401,-291.842 836.455,-295.983"/>
<polygon fill="midnightblue" stroke="midnightblue" points="703.341,-193.899 693.884,-189.123 698.299,-198.754 703.341,-193.899"/>
</g>
<!-- Node24 -->
<g id="node24" class="node"><title>Node24</title>
<g id="a_node24"><a xlink:href="../../d8/d65/classapplication_1_1_view_handler.html#af07eafb381b0ea9a1ce68f6ffe8a7428" target="_top" xlink:title="application.ViewHandler.set\lTurtleOrientation">
<polygon fill="white" stroke="black" points="815,-71 815,-101 963,-101 963,-71 815,-71"/>
<text text-anchor="start" x="823" y="-89" font-family="Helvetica,sans-Serif" font-size="10.00">application.ViewHandler.set</text>
<text text-anchor="middle" x="889" y="-78" font-family="Helvetica,sans-Serif" font-size="10.00">TurtleOrientation</text>
</a>
</g>
</g>
<!-- Node15&#45;&gt;Node24 -->
<g id="edge28" class="edge"><title>Node15&#45;&gt;Node24</title>
<path fill="none" stroke="midnightblue" d="M719.417,-154.399C743.579,-142.676 775.283,-127.813 804,-116 816.603,-110.816 830.467,-105.651 843.236,-101.104"/>
<polygon fill="midnightblue" stroke="midnightblue" points="717.671,-151.356 710.218,-158.886 720.741,-157.647 717.671,-151.356"/>
</g>
<!-- Node27 -->
<g id="node27" class="node"><title>Node27</title>
<g id="a_node27"><a xlink:href="../../d8/d65/classapplication_1_1_view_handler.html#a55d042c40e05453e3f5f6bc6c1c6e060" target="_top" xlink:title="application.ViewHandler.show\lTurtle">
<polygon fill="white" stroke="black" points="810.5,-208 810.5,-238 967.5,-238 967.5,-208 810.5,-208"/>
<text text-anchor="start" x="818.5" y="-226" font-family="Helvetica,sans-Serif" font-size="10.00">application.ViewHandler.show</text>
<text text-anchor="middle" x="889" y="-215" font-family="Helvetica,sans-Serif" font-size="10.00">Turtle</text>
</a>
</g>
</g>
<!-- Node15&#45;&gt;Node27 -->
<g id="edge31" class="edge"><title>Node15&#45;&gt;Node27</title>
<path fill="none" stroke="midnightblue" d="M753.568,-191.331C776.661,-196.771 801.95,-202.729 824.3,-207.994"/>
<polygon fill="midnightblue" stroke="midnightblue" points="754.357,-187.921 743.82,-189.035 752.751,-194.734 754.357,-187.921"/>
</g>
<!-- Node17 -->
<g id="node17" class="node"><title>Node17</title>
<g id="a_node17"><a xlink:href="../../dd/da6/classcommands_1_1view_commands_1_1turtle_commands_1_1_move.html#af95e8ccf5c290a4d06f79caf2deed407" target="_top" xlink:title="commands.viewCommands.turtle\lCommands.Move.changeLocation">
<polygon fill="white" stroke="black" points="1244.5,-230 1244.5,-260 1423.5,-260 1423.5,-230 1244.5,-230"/>
<text text-anchor="start" x="1252.5" y="-248" font-family="Helvetica,sans-Serif" font-size="10.00">commands.viewCommands.turtle</text>
<text text-anchor="middle" x="1334" y="-237" font-family="Helvetica,sans-Serif" font-size="10.00">Commands.Move.changeLocation</text>
</a>
</g>
</g>
<!-- Node16&#45;&gt;Node17 -->
<g id="edge19" class="edge"><title>Node16&#45;&gt;Node17</title>
<path fill="none" stroke="midnightblue" d="M1199.36,-245C1214.11,-245 1229.4,-245 1244.14,-245"/>
<polygon fill="midnightblue" stroke="midnightblue" points="1199.25,-241.5 1189.25,-245 1199.25,-248.5 1199.25,-241.5"/>
</g>
<!-- Node19 -->
<g id="node19" class="node"><title>Node19</title>
<g id="a_node19"><a xlink:href="../../d5/de0/classcommands_1_1view_commands_1_1turtle_commands_1_1_clear_screen.html#ae547e4c170a1b6d41cdfc6c8bfe5e972" target="_top" xlink:title="commands.viewCommands.turtle\lCommands.ClearScreen.execute">
<polygon fill="white" stroke="black" points="1245,-124 1245,-154 1423,-154 1423,-124 1245,-124"/>
<text text-anchor="start" x="1253" y="-142" font-family="Helvetica,sans-Serif" font-size="10.00">commands.viewCommands.turtle</text>
<text text-anchor="middle" x="1334" y="-131" font-family="Helvetica,sans-Serif" font-size="10.00">Commands.ClearScreen.execute</text>
</a>
</g>
</g>
<!-- Node18&#45;&gt;Node19 -->
<g id="edge21" class="edge"><title>Node18&#45;&gt;Node19</title>
<path fill="none" stroke="midnightblue" d="M1203.4,-141.906C1217.07,-141.599 1231.1,-141.285 1244.66,-140.981"/>
<polygon fill="midnightblue" stroke="midnightblue" points="1202.96,-138.415 1193.04,-142.138 1203.11,-145.413 1202.96,-138.415"/>
</g>
<!-- Node20 -->
<g id="node20" class="node"><title>Node20</title>
<g id="a_node20"><a xlink:href="../../dd/da6/classcommands_1_1view_commands_1_1turtle_commands_1_1_move.html#af4d9a4d9ade56b5e3a1e582bd891b7b5" target="_top" xlink:title="commands.viewCommands.turtle\lCommands.Move.goToLocation">
<polygon fill="white" stroke="black" points="1245,-173 1245,-203 1423,-203 1423,-173 1245,-173"/>
<text text-anchor="start" x="1253" y="-191" font-family="Helvetica,sans-Serif" font-size="10.00">commands.viewCommands.turtle</text>
<text text-anchor="middle" x="1334" y="-180" font-family="Helvetica,sans-Serif" font-size="10.00">Commands.Move.goToLocation</text>
</a>
</g>
</g>
<!-- Node18&#45;&gt;Node20 -->
<g id="edge22" class="edge"><title>Node18&#45;&gt;Node20</title>
<path fill="none" stroke="midnightblue" d="M1196.15,-160.998C1216.15,-164.945 1237.31,-169.119 1256.84,-172.974"/>
<polygon fill="midnightblue" stroke="midnightblue" points="1196.61,-157.521 1186.12,-159.019 1195.25,-164.389 1196.61,-157.521"/>
</g>
<!-- Node21&#45;&gt;Node16 -->
<g id="edge24" class="edge"><title>Node21&#45;&gt;Node16</title>
<path fill="none" stroke="midnightblue" d="M954.168,-191.91C960.881,-193.91 967.591,-195.962 974,-198 1005.48,-208.009 1040.72,-220.417 1067.16,-229.971"/>
<polygon fill="midnightblue" stroke="midnightblue" points="954.946,-188.491 944.365,-189.025 952.969,-195.206 954.946,-188.491"/>
</g>
<!-- Node21&#45;&gt;Node18 -->
<g id="edge25" class="edge"><title>Node21&#45;&gt;Node18</title>
<path fill="none" stroke="midnightblue" d="M979.336,-161.706C994.391,-159.634 1009.96,-157.491 1024.85,-155.442"/>
<polygon fill="midnightblue" stroke="midnightblue" points="978.441,-158.296 969.011,-163.127 979.395,-165.231 978.441,-158.296"/>
</g>
<!-- Node23 -->
<g id="node23" class="node"><title>Node23</title>
<g id="a_node23"><a xlink:href="../../d3/dba/classcommands_1_1view_commands_1_1turtle_commands_1_1_rotate.html#a8ee301e936ff8d884357dccac52c2bfb" target="_top" xlink:title="commands.viewCommands.turtle\lCommands.Rotate.changeOrientation">
<polygon fill="white" stroke="black" points="1010.5,-296 1010.5,-326 1207.5,-326 1207.5,-296 1010.5,-296"/>
<text text-anchor="start" x="1018.5" y="-314" font-family="Helvetica,sans-Serif" font-size="10.00">commands.viewCommands.turtle</text>
<text text-anchor="middle" x="1109" y="-303" font-family="Helvetica,sans-Serif" font-size="10.00">Commands.Rotate.changeOrientation</text>
</a>
</g>
</g>
<!-- Node22&#45;&gt;Node23 -->
<g id="edge27" class="edge"><title>Node22&#45;&gt;Node23</title>
<path fill="none" stroke="midnightblue" d="M980.397,-311C990.222,-311 1000.26,-311 1010.16,-311"/>
<polygon fill="midnightblue" stroke="midnightblue" points="980.246,-307.5 970.246,-311 980.246,-314.5 980.246,-307.5"/>
</g>
<!-- Node25 -->
<g id="node25" class="node"><title>Node25</title>
<g id="a_node25"><a xlink:href="../../df/d03/classcommands_1_1view_commands_1_1turtle_commands_1_1_go_towards_loc.html#a67f5f04ce72d0cd234d1e0a11e6d7c83" target="_top" xlink:title="commands.viewCommands.turtle\lCommands.GoTowardsLoc.execute">
<polygon fill="white" stroke="black" points="1017,-71 1017,-101 1201,-101 1201,-71 1017,-71"/>
<text text-anchor="start" x="1025" y="-89" font-family="Helvetica,sans-Serif" font-size="10.00">commands.viewCommands.turtle</text>
<text text-anchor="middle" x="1109" y="-78" font-family="Helvetica,sans-Serif" font-size="10.00">Commands.GoTowardsLoc.execute</text>
</a>
</g>
</g>
<!-- Node24&#45;&gt;Node25 -->
<g id="edge29" class="edge"><title>Node24&#45;&gt;Node25</title>
<path fill="none" stroke="midnightblue" d="M973.41,-86C987.604,-86 1002.41,-86 1016.8,-86"/>
<polygon fill="midnightblue" stroke="midnightblue" points="973.197,-82.5001 963.197,-86 973.197,-89.5001 973.197,-82.5001"/>
</g>
<!-- Node24&#45;&gt;Node26 -->
<g id="edge30" class="edge"><title>Node24&#45;&gt;Node26</title>
<path fill="none" stroke="midnightblue" d="M951.281,-68.083C958.945,-65.7476 966.664,-63.3496 974,-61 1004.8,-51.1338 1039.32,-39.2661 1065.6,-30.0564"/>
<polygon fill="midnightblue" stroke="midnightblue" points="950.194,-64.755 941.635,-70.9992 952.22,-71.4554 950.194,-64.755"/>
</g>
<!-- Node28&#45;&gt;Node15 -->
<g id="edge35" class="edge"><title>Node28&#45;&gt;Node15</title>
<path fill="none" stroke="midnightblue" d="M555.39,-147.16C573.202,-151.059 591.988,-155.171 609.358,-158.974"/>
<polygon fill="midnightblue" stroke="midnightblue" points="556.128,-143.739 545.611,-145.019 554.631,-150.577 556.128,-143.739"/>
</g>
<!-- Node29 -->
<g id="node29" class="node"><title>Node29</title>
<g id="a_node29"><a xlink:href="../../d8/d65/classapplication_1_1_view_handler.html#ac37927f63d43d93f1b1e0f5a3b59cf26" target="_top" xlink:title="application.ViewHandler.initialize\lTurtle">
<polygon fill="white" stroke="black" points="593.5,-66 593.5,-96 764.5,-96 764.5,-66 593.5,-66"/>
<text text-anchor="start" x="601.5" y="-84" font-family="Helvetica,sans-Serif" font-size="10.00">application.ViewHandler.initialize</text>
<text text-anchor="middle" x="679" y="-73" font-family="Helvetica,sans-Serif" font-size="10.00">Turtle</text>
</a>
</g>
</g>
<!-- Node28&#45;&gt;Node29 -->
<g id="edge33" class="edge"><title>Node28&#45;&gt;Node29</title>
<path fill="none" stroke="midnightblue" d="M548.391,-112.596C570.626,-107.176 594.942,-101.248 616.444,-96.0062"/>
<polygon fill="midnightblue" stroke="midnightblue" points="547.559,-109.196 538.673,-114.965 549.217,-115.997 547.559,-109.196"/>
</g>
<!-- Node30 -->
<g id="node30" class="node"><title>Node30</title>
<g id="a_node30"><a xlink:href="../../d8/d65/classapplication_1_1_view_handler.html#aede07ea15df8a762813028bb80403e6b" target="_top" xlink:title="application.ViewHandler.\lViewHandler">
<polygon fill="white" stroke="black" points="822.5,-22 822.5,-52 955.5,-52 955.5,-22 822.5,-22"/>
<text text-anchor="start" x="830.5" y="-40" font-family="Helvetica,sans-Serif" font-size="10.00">application.ViewHandler.</text>
<text text-anchor="middle" x="889" y="-29" font-family="Helvetica,sans-Serif" font-size="10.00">ViewHandler</text>
</a>
</g>
</g>
<!-- Node29&#45;&gt;Node30 -->
<g id="edge34" class="edge"><title>Node29&#45;&gt;Node30</title>
<path fill="none" stroke="midnightblue" d="M760.86,-63.895C781.178,-59.5969 802.738,-55.0363 822.219,-50.9153"/>
<polygon fill="midnightblue" stroke="midnightblue" points="760.059,-60.4869 751,-65.9808 761.508,-67.3353 760.059,-60.4869"/>
</g>
</g>
</svg>
        <g id="navigator" transform="translate(0 0)" fill="#404254">
                <rect fill="#f2f5e9" fill-opacity="0.5" stroke="#606060" stroke-width=".5" x="0" y="0" width="60" height="60"/>
                <use id="zoomplus" xlink:href="#zoomPlus" x="17" y="9" onmousedown="handleZoom(evt,'in')"/>
                <use id="zoomminus" xlink:href="#zoomMin" x="42" y="9" onmousedown="handleZoom(evt,'out')"/>
                <use id="reset" xlink:href="#resetDef" x="30" y="36" onmousedown="handleReset()"/>
                <g id="arrowUp" xlink:href="#dirArrow" transform="translate(30 24)" onmousedown="handlePan(0,-1)">
                  <use xlink:href="#rim" fill="#404040">
                        <set attributeName="fill" to="#808080" begin="arrowUp.mouseover" end="arrowUp.mouseout"/>
                  </use>
                  <path fill="none" stroke="white" stroke-width="1.5" d="M0,-3.0v7 M-2.5,-0.5L0,-3.0L2.5,-0.5"/>
                </g>
                <g id="arrowRight" xlink:href="#dirArrow" transform="rotate(90) translate(36 -43)" onmousedown="handlePan(1,0)">
                  <use xlink:href="#rim" fill="#404040">
                        <set attributeName="fill" to="#808080" begin="arrowRight.mouseover" end="arrowRight.mouseout"/>
                  </use>
                  <path fill="none" stroke="white" stroke-width="1.5" d="M0,-3.0v7 M-2.5,-0.5L0,-3.0L2.5,-0.5"/>
                </g>
                <g id="arrowDown" xlink:href="#dirArrow" transform="rotate(180) translate(-30 -48)" onmousedown="handlePan(0,1)">
                  <use xlink:href="#rim" fill="#404040">
                        <set attributeName="fill" to="#808080" begin="arrowDown.mouseover" end="arrowDown.mouseout"/>
                  </use>
                  <path fill="none" stroke="white" stroke-width="1.5" d="M0,-3.0v7 M-2.5,-0.5L0,-3.0L2.5,-0.5"/>
                </g>
                <g id="arrowLeft" xlink:href="#dirArrow" transform="rotate(270) translate(-36 17)" onmousedown="handlePan(-1,0)">
                  <use xlink:href="#rim" fill="#404040">
                        <set attributeName="fill" to="#808080" begin="arrowLeft.mouseover" end="arrowLeft.mouseout"/>
                  </use>
                  <path fill="none" stroke="white" stroke-width="1.5" d="M0,-3.0v7 M-2.5,-0.5L0,-3.0L2.5,-0.5"/>
                </g>
        </g>
        <svg viewBox="0 0 15 15" width="100%" height="30px" preserveAspectRatio="xMaxYMin meet">
         <g id="arrow_out" transform="scale(0.3 0.3)">
          <a xlink:href="classapplication_1_1_turtle_af22147e198fac9068726b95eea235739_icgraph_org.svg" target="_base">
           <rect id="button" ry="5" rx="5" y="6" x="6" height="38" width="38"
                fill="#f2f5e9" fill-opacity="0.5" stroke="#606060" stroke-width="1.0"/>
           <path id="arrow"
             d="M 11.500037,31.436501 C 11.940474,20.09759 22.043105,11.32322 32.158766,21.979434 L 37.068811,17.246167 C 37.068811,17.246167 37.088388,32 37.088388,32 L 22.160133,31.978069 C 22.160133,31.978069 26.997745,27.140456 26.997745,27.140456 C 18.528582,18.264221 13.291696,25.230495 11.500037,31.436501 z"
             style="fill:#404040;"/>
          </a>
         </g>
        </svg>
</svg>
