<?xml version="1.0" encoding="UTF-8" standalone="no"?>
<!DOCTYPE svg PUBLIC "-//W3C//DTD SVG 1.1//EN"
 "http://www.w3.org/Graphics/SVG/1.1/DTD/svg11.dtd">
<!-- Generated by graphviz version 2.36.0 (20140111.2315)
 -->
<!-- Title: application.Turtle.getOrientation Pages: 1 -->
<svg width="1404pt" height="328pt"
 viewBox="0.00 0.00 1404.00 328.25" xmlns="http://www.w3.org/2000/svg" xmlns:xlink="http://www.w3.org/1999/xlink">
<g id="graph0" class="graph" transform="scale(1 1) rotate(0) translate(4 324.255)">
<title>application.Turtle.getOrientation</title>
<polygon fill="white" stroke="none" points="-4,4 -4,-324.255 1400,-324.255 1400,4 -4,4"/>
<!-- Node1 -->
<g id="node1" class="node"><title>Node1</title>
<polygon fill="#bfbfbf" stroke="black" points="0.5,-64.5 0.5,-83.5 169.5,-83.5 169.5,-64.5 0.5,-64.5"/>
<text text-anchor="middle" x="85" y="-71.5" font-family="Helvetica,sans-Serif" font-size="10.00">application.Turtle.getOrientation</text>
</g>
<!-- Node2 -->
<g id="node2" class="node"><title>Node2</title>
<g id="a_node2"><a xlink:href="../../d8/d65/classapplication_1_1_view_handler.html#a8a00eb25a7f1d5e3ccc3059e8b717819" target="_top" xlink:title="application.ViewHandler.get\lTurtleOrientation">
<polygon fill="white" stroke="black" points="206.5,-59 206.5,-89 355.5,-89 355.5,-59 206.5,-59"/>
<text text-anchor="start" x="214.5" y="-77" font-family="Helvetica,sans-Serif" font-size="10.00">application.ViewHandler.get</text>
<text text-anchor="middle" x="281" y="-66" font-family="Helvetica,sans-Serif" font-size="10.00">TurtleOrientation</text>
</a>
</g>
</g>
<!-- Node1&#45;&gt;Node2 -->
<g id="edge1" class="edge"><title>Node1&#45;&gt;Node2</title>
<path fill="none" stroke="midnightblue" d="M179.74,-74C188.677,-74 197.652,-74 206.359,-74"/>
<polygon fill="midnightblue" stroke="midnightblue" points="179.681,-70.5001 169.681,-74 179.681,-77.5001 179.681,-70.5001"/>
</g>
<!-- Node3 -->
<g id="node3" class="node"><title>Node3</title>
<g id="a_node3"><a xlink:href="../../d8/d65/classapplication_1_1_view_handler.html#ae489ceaa9b5ec67faf3ba22a11cec085" target="_top" xlink:title="application.ViewHandler.update\lTurtleOnView">
<polygon fill="white" stroke="black" points="578.5,-142 578.5,-172 745.5,-172 745.5,-142 578.5,-142"/>
<text text-anchor="start" x="586.5" y="-160" font-family="Helvetica,sans-Serif" font-size="10.00">application.ViewHandler.update</text>
<text text-anchor="middle" x="662" y="-149" font-family="Helvetica,sans-Serif" font-size="10.00">TurtleOnView</text>
</a>
</g>
</g>
<!-- Node2&#45;&gt;Node3 -->
<g id="edge2" class="edge"><title>Node2&#45;&gt;Node3</title>
<path fill="none" stroke="midnightblue" d="M360.494,-91.19C428.836,-106.157 526.93,-127.639 592.237,-141.941"/>
<polygon fill="midnightblue" stroke="midnightblue" points="361.151,-87.7511 350.634,-89.0307 359.654,-94.589 361.151,-87.7511"/>
</g>
<!-- Node14 -->
<g id="node14" class="node"><title>Node14</title>
<g id="a_node14"><a xlink:href="../../df/ded/classcommands_1_1view_commands_1_1turtle_commands_1_1_set_heading.html#a3efffc1774ad2f0b23742a20789f0ee8" target="_top" xlink:title="commands.viewCommands.turtle\lCommands.SetHeading.execute">
<polygon fill="white" stroke="black" points="992,-0 992,-30 1170,-30 1170,-0 992,-0"/>
<text text-anchor="start" x="1000" y="-18" font-family="Helvetica,sans-Serif" font-size="10.00">commands.viewCommands.turtle</text>
<text text-anchor="middle" x="1081" y="-7" font-family="Helvetica,sans-Serif" font-size="10.00">Commands.SetHeading.execute</text>
</a>
</g>
</g>
<!-- Node2&#45;&gt;Node14 -->
<g id="edge21" class="edge"><title>Node2&#45;&gt;Node14</title>
<path fill="none" stroke="midnightblue" d="M351.721,-56.7277C365.034,-53.8353 378.902,-51.0976 392,-49 635.666,-9.97906 699.245,-9.23816 946,-12 960.775,-12.1654 976.465,-12.4333 991.707,-12.7427"/>
<polygon fill="midnightblue" stroke="midnightblue" points="350.673,-53.3751 341.67,-58.9615 352.192,-60.2084 350.673,-53.3751"/>
</g>
<!-- Node16 -->
<g id="node16" class="node"><title>Node16</title>
<g id="a_node16"><a xlink:href="../../d8/d65/classapplication_1_1_view_handler.html#a308dcaf9847965fa4a3d261347845f56" target="_top" xlink:title="application.ViewHandler.set\lInfoParamsOfTurtleAndLine">
<polygon fill="white" stroke="black" points="392,-59 392,-89 540,-89 540,-59 392,-59"/>
<text text-anchor="start" x="400" y="-77" font-family="Helvetica,sans-Serif" font-size="10.00">application.ViewHandler.set</text>
<text text-anchor="middle" x="466" y="-66" font-family="Helvetica,sans-Serif" font-size="10.00">InfoParamsOfTurtleAndLine</text>
</a>
</g>
</g>
<!-- Node2&#45;&gt;Node16 -->
<g id="edge17" class="edge"><title>Node2&#45;&gt;Node16</title>
<path fill="none" stroke="midnightblue" d="M365.779,-74C374.467,-74 383.248,-74 391.806,-74"/>
<polygon fill="midnightblue" stroke="midnightblue" points="365.642,-70.5001 355.642,-74 365.642,-77.5001 365.642,-70.5001"/>
</g>
<!-- Node4 -->
<g id="node4" class="node"><title>Node4</title>
<g id="a_node4"><a xlink:href="../../d8/d65/classapplication_1_1_view_handler.html#a1a94c855ceb0e8ffb1f72f138addb75b" target="_top" xlink:title="application.ViewHandler.move\lTurtle">
<polygon fill="white" stroke="black" points="1001,-280 1001,-310 1161,-310 1161,-280 1001,-280"/>
<text text-anchor="start" x="1009" y="-298" font-family="Helvetica,sans-Serif" font-size="10.00">application.ViewHandler.move</text>
<text text-anchor="middle" x="1081" y="-287" font-family="Helvetica,sans-Serif" font-size="10.00">Turtle</text>
</a>
</g>
</g>
<!-- Node3&#45;&gt;Node4 -->
<g id="edge3" class="edge"><title>Node3&#45;&gt;Node4</title>
<path fill="none" stroke="midnightblue" d="M675.297,-181.058C693.749,-214.164 732.056,-272.349 784,-296 858.13,-329.752 953.933,-321.326 1016.16,-310.012"/>
<polygon fill="midnightblue" stroke="midnightblue" points="678.257,-179.174 670.419,-172.045 672.101,-182.506 678.257,-179.174"/>
</g>
<!-- Node6 -->
<g id="node6" class="node"><title>Node6</title>
<g id="a_node6"><a xlink:href="../../d8/d65/classapplication_1_1_view_handler.html#a1aff135a076a9717102bb59ea613131c" target="_top" xlink:title="application.ViewHandler.change\lLocationOfTurtle">
<polygon fill="white" stroke="black" points="997,-186 997,-216 1165,-216 1165,-186 997,-186"/>
<text text-anchor="start" x="1005" y="-204" font-family="Helvetica,sans-Serif" font-size="10.00">application.ViewHandler.change</text>
<text text-anchor="middle" x="1081" y="-193" font-family="Helvetica,sans-Serif" font-size="10.00">LocationOfTurtle</text>
</a>
</g>
</g>
<!-- Node3&#45;&gt;Node6 -->
<g id="edge5" class="edge"><title>Node3&#45;&gt;Node6</title>
<path fill="none" stroke="midnightblue" d="M755.887,-166.801C828.085,-174.419 927.33,-184.891 996.916,-192.233"/>
<polygon fill="midnightblue" stroke="midnightblue" points="756.196,-163.314 745.884,-165.746 755.462,-170.276 756.196,-163.314"/>
</g>
<!-- Node9 -->
<g id="node9" class="node"><title>Node9</title>
<g id="a_node9"><a xlink:href="../../d8/d65/classapplication_1_1_view_handler.html#a98b4ba09b3f3e8b1a7667db5598dbfb0" target="_top" xlink:title="application.ViewHandler.move\lTurtleImageAndDraw">
<polygon fill="white" stroke="black" points="785,-208 785,-238 945,-238 945,-208 785,-208"/>
<text text-anchor="start" x="793" y="-226" font-family="Helvetica,sans-Serif" font-size="10.00">application.ViewHandler.move</text>
<text text-anchor="middle" x="865" y="-215" font-family="Helvetica,sans-Serif" font-size="10.00">TurtleImageAndDraw</text>
</a>
</g>
</g>
<!-- Node3&#45;&gt;Node9 -->
<g id="edge8" class="edge"><title>Node3&#45;&gt;Node9</title>
<path fill="none" stroke="midnightblue" d="M718.73,-175.299C749.974,-185.559 788.474,-198.2 817.988,-207.892"/>
<polygon fill="midnightblue" stroke="midnightblue" points="719.454,-171.853 708.862,-172.059 717.271,-178.504 719.454,-171.853"/>
</g>
<!-- Node10 -->
<g id="node10" class="node"><title>Node10</title>
<g id="a_node10"><a xlink:href="../../d8/d65/classapplication_1_1_view_handler.html#abe68f02cdf0227b13568e1aaabf57e5c" target="_top" xlink:title="application.ViewHandler.rotate\lTurtle">
<polygon fill="white" stroke="black" points="784,-120 784,-150 946,-150 946,-120 784,-120"/>
<text text-anchor="start" x="792" y="-138" font-family="Helvetica,sans-Serif" font-size="10.00">application.ViewHandler.rotate</text>
<text text-anchor="middle" x="865" y="-127" font-family="Helvetica,sans-Serif" font-size="10.00">Turtle</text>
</a>
</g>
</g>
<!-- Node3&#45;&gt;Node10 -->
<g id="edge11" class="edge"><title>Node3&#45;&gt;Node10</title>
<path fill="none" stroke="midnightblue" d="M755.787,-146.844C765.2,-145.814 774.703,-144.774 783.964,-143.76"/>
<polygon fill="midnightblue" stroke="midnightblue" points="755.184,-143.389 745.625,-147.957 755.946,-150.348 755.184,-143.389"/>
</g>
<!-- Node12 -->
<g id="node12" class="node"><title>Node12</title>
<g id="a_node12"><a xlink:href="../../d8/d65/classapplication_1_1_view_handler.html#af07eafb381b0ea9a1ce68f6ffe8a7428" target="_top" xlink:title="application.ViewHandler.set\lTurtleOrientation">
<polygon fill="white" stroke="black" points="791,-71 791,-101 939,-101 939,-71 791,-71"/>
<text text-anchor="start" x="799" y="-89" font-family="Helvetica,sans-Serif" font-size="10.00">application.ViewHandler.set</text>
<text text-anchor="middle" x="865" y="-78" font-family="Helvetica,sans-Serif" font-size="10.00">TurtleOrientation</text>
</a>
</g>
</g>
<!-- Node3&#45;&gt;Node12 -->
<g id="edge13" class="edge"><title>Node3&#45;&gt;Node12</title>
<path fill="none" stroke="midnightblue" d="M708.83,-138.214C731.324,-129.246 758.917,-118.619 784,-110 792.914,-106.937 802.458,-103.882 811.739,-101.029"/>
<polygon fill="midnightblue" stroke="midnightblue" points="707.504,-134.975 699.524,-141.945 710.109,-141.472 707.504,-134.975"/>
</g>
<!-- Node15 -->
<g id="node15" class="node"><title>Node15</title>
<g id="a_node15"><a xlink:href="../../d8/d65/classapplication_1_1_view_handler.html#a55d042c40e05453e3f5f6bc6c1c6e060" target="_top" xlink:title="application.ViewHandler.show\lTurtle">
<polygon fill="white" stroke="black" points="786.5,-257 786.5,-287 943.5,-287 943.5,-257 786.5,-257"/>
<text text-anchor="start" x="794.5" y="-275" font-family="Helvetica,sans-Serif" font-size="10.00">application.ViewHandler.show</text>
<text text-anchor="middle" x="865" y="-264" font-family="Helvetica,sans-Serif" font-size="10.00">Turtle</text>
</a>
</g>
</g>
<!-- Node3&#45;&gt;Node15 -->
<g id="edge16" class="edge"><title>Node3&#45;&gt;Node15</title>
<path fill="none" stroke="midnightblue" d="M687.063,-178.773C710.38,-198.89 747.482,-228.395 784,-247 791.39,-250.765 799.456,-254.093 807.529,-256.992"/>
<polygon fill="midnightblue" stroke="midnightblue" points="689.246,-176.032 679.414,-172.082 684.637,-181.3 689.246,-176.032"/>
</g>
<!-- Node5 -->
<g id="node5" class="node"><title>Node5</title>
<g id="a_node5"><a xlink:href="../../dd/da6/classcommands_1_1view_commands_1_1turtle_commands_1_1_move.html#af95e8ccf5c290a4d06f79caf2deed407" target="_top" xlink:title="commands.viewCommands.turtle\lCommands.Move.changeLocation">
<polygon fill="white" stroke="black" points="1216.5,-280 1216.5,-310 1395.5,-310 1395.5,-280 1216.5,-280"/>
<text text-anchor="start" x="1224.5" y="-298" font-family="Helvetica,sans-Serif" font-size="10.00">commands.viewCommands.turtle</text>
<text text-anchor="middle" x="1306" y="-287" font-family="Helvetica,sans-Serif" font-size="10.00">Commands.Move.changeLocation</text>
</a>
</g>
</g>
<!-- Node4&#45;&gt;Node5 -->
<g id="edge4" class="edge"><title>Node4&#45;&gt;Node5</title>
<path fill="none" stroke="midnightblue" d="M1171.36,-295C1186.11,-295 1201.4,-295 1216.14,-295"/>
<polygon fill="midnightblue" stroke="midnightblue" points="1171.25,-291.5 1161.25,-295 1171.25,-298.5 1171.25,-291.5"/>
</g>
<!-- Node7 -->
<g id="node7" class="node"><title>Node7</title>
<g id="a_node7"><a xlink:href="../../d5/de0/classcommands_1_1view_commands_1_1turtle_commands_1_1_clear_screen.html#ae547e4c170a1b6d41cdfc6c8bfe5e972" target="_top" xlink:title="commands.viewCommands.turtle\lCommands.ClearScreen.execute">
<polygon fill="white" stroke="black" points="1217,-162 1217,-192 1395,-192 1395,-162 1217,-162"/>
<text text-anchor="start" x="1225" y="-180" font-family="Helvetica,sans-Serif" font-size="10.00">commands.viewCommands.turtle</text>
<text text-anchor="middle" x="1306" y="-169" font-family="Helvetica,sans-Serif" font-size="10.00">Commands.ClearScreen.execute</text>
</a>
</g>
</g>
<!-- Node6&#45;&gt;Node7 -->
<g id="edge6" class="edge"><title>Node6&#45;&gt;Node7</title>
<path fill="none" stroke="midnightblue" d="M1175,-190.991C1188.79,-189.507 1202.97,-187.981 1216.66,-186.507"/>
<polygon fill="midnightblue" stroke="midnightblue" points="1174.61,-187.513 1165.04,-192.063 1175.35,-194.473 1174.61,-187.513"/>
</g>
<!-- Node8 -->
<g id="node8" class="node"><title>Node8</title>
<g id="a_node8"><a xlink:href="../../dd/da6/classcommands_1_1view_commands_1_1turtle_commands_1_1_move.html#af4d9a4d9ade56b5e3a1e582bd891b7b5" target="_top" xlink:title="commands.viewCommands.turtle\lCommands.Move.goToLocation">
<polygon fill="white" stroke="black" points="1217,-211 1217,-241 1395,-241 1395,-211 1217,-211"/>
<text text-anchor="start" x="1225" y="-229" font-family="Helvetica,sans-Serif" font-size="10.00">commands.viewCommands.turtle</text>
<text text-anchor="middle" x="1306" y="-218" font-family="Helvetica,sans-Serif" font-size="10.00">Commands.Move.goToLocation</text>
</a>
</g>
</g>
<!-- Node6&#45;&gt;Node8 -->
<g id="edge7" class="edge"><title>Node6&#45;&gt;Node8</title>
<path fill="none" stroke="midnightblue" d="M1175,-211.426C1188.79,-212.972 1202.97,-214.562 1216.66,-216.097"/>
<polygon fill="midnightblue" stroke="midnightblue" points="1175.36,-207.945 1165.04,-210.309 1174.58,-214.901 1175.36,-207.945"/>
</g>
<!-- Node9&#45;&gt;Node4 -->
<g id="edge9" class="edge"><title>Node9&#45;&gt;Node4</title>
<path fill="none" stroke="midnightblue" d="M924.838,-241.133C931.979,-243.409 939.163,-245.733 946,-248 977.006,-258.279 1011.81,-270.508 1038.18,-279.915"/>
<polygon fill="midnightblue" stroke="midnightblue" points="925.753,-237.752 915.163,-238.07 923.64,-244.425 925.753,-237.752"/>
</g>
<!-- Node9&#45;&gt;Node6 -->
<g id="edge10" class="edge"><title>Node9&#45;&gt;Node6</title>
<path fill="none" stroke="midnightblue" d="M955.085,-213.842C968.947,-212.417 983.222,-210.949 996.944,-209.538"/>
<polygon fill="midnightblue" stroke="midnightblue" points="954.667,-210.366 945.078,-214.871 955.383,-217.329 954.667,-210.366"/>
</g>
<!-- Node11 -->
<g id="node11" class="node"><title>Node11</title>
<g id="a_node11"><a xlink:href="../../d3/dba/classcommands_1_1view_commands_1_1turtle_commands_1_1_rotate.html#a8ee301e936ff8d884357dccac52c2bfb" target="_top" xlink:title="commands.viewCommands.turtle\lCommands.Rotate.changeOrientation">
<polygon fill="white" stroke="black" points="982.5,-120 982.5,-150 1179.5,-150 1179.5,-120 982.5,-120"/>
<text text-anchor="start" x="990.5" y="-138" font-family="Helvetica,sans-Serif" font-size="10.00">commands.viewCommands.turtle</text>
<text text-anchor="middle" x="1081" y="-127" font-family="Helvetica,sans-Serif" font-size="10.00">Commands.Rotate.changeOrientation</text>
</a>
</g>
</g>
<!-- Node10&#45;&gt;Node11 -->
<g id="edge12" class="edge"><title>Node10&#45;&gt;Node11</title>
<path fill="none" stroke="midnightblue" d="M956.296,-135C964.886,-135 973.623,-135 982.278,-135"/>
<polygon fill="midnightblue" stroke="midnightblue" points="956.295,-131.5 946.295,-135 956.295,-138.5 956.295,-131.5"/>
</g>
<!-- Node13 -->
<g id="node13" class="node"><title>Node13</title>
<g id="a_node13"><a xlink:href="../../df/d03/classcommands_1_1view_commands_1_1turtle_commands_1_1_go_towards_loc.html#a67f5f04ce72d0cd234d1e0a11e6d7c83" target="_top" xlink:title="commands.viewCommands.turtle\lCommands.GoTowardsLoc.execute">
<polygon fill="white" stroke="black" points="989,-71 989,-101 1173,-101 1173,-71 989,-71"/>
<text text-anchor="start" x="997" y="-89" font-family="Helvetica,sans-Serif" font-size="10.00">commands.viewCommands.turtle</text>
<text text-anchor="middle" x="1081" y="-78" font-family="Helvetica,sans-Serif" font-size="10.00">Commands.GoTowardsLoc.execute</text>
</a>
</g>
</g>
<!-- Node12&#45;&gt;Node13 -->
<g id="edge14" class="edge"><title>Node12&#45;&gt;Node13</title>
<path fill="none" stroke="midnightblue" d="M949.297,-86C962.226,-86 975.642,-86 988.736,-86"/>
<polygon fill="midnightblue" stroke="midnightblue" points="949.048,-82.5001 939.048,-86 949.048,-89.5001 949.048,-82.5001"/>
</g>
<!-- Node12&#45;&gt;Node14 -->
<g id="edge15" class="edge"><title>Node12&#45;&gt;Node14</title>
<path fill="none" stroke="midnightblue" d="M924.823,-67.8225C931.967,-65.5545 939.156,-63.2438 946,-61 976.618,-50.9627 1010.99,-39.1526 1037.25,-30.0123"/>
<polygon fill="midnightblue" stroke="midnightblue" points="923.628,-64.5295 915.146,-70.8783 925.736,-71.2046 923.628,-64.5295"/>
</g>
<!-- Node16&#45;&gt;Node3 -->
<g id="edge20" class="edge"><title>Node16&#45;&gt;Node3</title>
<path fill="none" stroke="midnightblue" d="M511.555,-93.062C546.249,-107.905 593.743,-128.225 625.802,-141.941"/>
<polygon fill="midnightblue" stroke="midnightblue" points="512.703,-89.7463 502.132,-89.0307 509.949,-96.1821 512.703,-89.7463"/>
</g>
<!-- Node17 -->
<g id="node17" class="node"><title>Node17</title>
<g id="a_node17"><a xlink:href="../../d8/d65/classapplication_1_1_view_handler.html#ac37927f63d43d93f1b1e0f5a3b59cf26" target="_top" xlink:title="application.ViewHandler.initialize\lTurtle">
<polygon fill="white" stroke="black" points="576.5,-46 576.5,-76 747.5,-76 747.5,-46 576.5,-46"/>
<text text-anchor="start" x="584.5" y="-64" font-family="Helvetica,sans-Serif" font-size="10.00">application.ViewHandler.initialize</text>
<text text-anchor="middle" x="662" y="-53" font-family="Helvetica,sans-Serif" font-size="10.00">Turtle</text>
</a>
</g>
</g>
<!-- Node16&#45;&gt;Node17 -->
<g id="edge18" class="edge"><title>Node16&#45;&gt;Node17</title>
<path fill="none" stroke="midnightblue" d="M550.138,-68.4289C558.791,-67.849 567.595,-67.2591 576.265,-66.6781"/>
<polygon fill="midnightblue" stroke="midnightblue" points="549.81,-64.9429 540.067,-69.1038 550.278,-71.9273 549.81,-64.9429"/>
</g>
<!-- Node18 -->
<g id="node18" class="node"><title>Node18</title>
<g id="a_node18"><a xlink:href="../../d8/d65/classapplication_1_1_view_handler.html#aede07ea15df8a762813028bb80403e6b" target="_top" xlink:title="application.ViewHandler.\lViewHandler">
<polygon fill="white" stroke="black" points="798.5,-22 798.5,-52 931.5,-52 931.5,-22 798.5,-22"/>
<text text-anchor="start" x="806.5" y="-40" font-family="Helvetica,sans-Serif" font-size="10.00">application.ViewHandler.</text>
<text text-anchor="middle" x="865" y="-29" font-family="Helvetica,sans-Serif" font-size="10.00">ViewHandler</text>
</a>
</g>
</g>
<!-- Node17&#45;&gt;Node18 -->
<g id="edge19" class="edge"><title>Node17&#45;&gt;Node18</title>
<path fill="none" stroke="midnightblue" d="M757.648,-49.6988C771.421,-48.0542 785.342,-46.392 798.37,-44.8364"/>
<polygon fill="midnightblue" stroke="midnightblue" points="757.174,-46.2304 747.66,-50.8914 758.004,-53.181 757.174,-46.2304"/>
</g>
</g>
</svg>
