<?xml version="1.0" encoding="UTF-8" standalone="no"?>
<!DOCTYPE svg PUBLIC "-//W3C//DTD SVG 1.1//EN"
 "http://www.w3.org/Graphics/SVG/1.1/DTD/svg11.dtd">
<!-- Generated by graphviz version 2.36.0 (20140111.2315)
 -->
<!-- Title: gui.GUI.launchTurtleImageChooser Pages: 1 -->
<svg width="928pt" height="60pt"
 viewBox="0.00 0.00 928.00 60.00" xmlns="http://www.w3.org/2000/svg" xmlns:xlink="http://www.w3.org/1999/xlink">
<g id="graph0" class="graph" transform="scale(1 1) rotate(0) translate(4 56)">
<title>gui.GUI.launchTurtleImageChooser</title>
<polygon fill="white" stroke="none" points="-4,4 -4,-56 924,-56 924,4 -4,4"/>
<!-- Node1 -->
<g id="node1" class="node"><title>Node1</title>
<polygon fill="#bfbfbf" stroke="black" points="0.5,-22 0.5,-52 141.5,-52 141.5,-22 0.5,-22"/>
<text text-anchor="start" x="8.5" y="-40" font-family="Helvetica,sans-Serif" font-size="10.00">gui.GUI.launchTurtleImage</text>
<text text-anchor="middle" x="71" y="-29" font-family="Helvetica,sans-Serif" font-size="10.00">Chooser</text>
</g>
<!-- Node2 -->
<g id="node2" class="node"><title>Node2</title>
<g id="a_node2"><a xlink:href="../../d9/dc5/classgui_1_1_turtle_image_chooser.html#ade890409215dd5d1706b4feec691438f" target="_top" xlink:title="gui.TurtleImageChooser.start">
<polygon fill="white" stroke="black" points="178,-27.5 178,-46.5 332,-46.5 332,-27.5 178,-27.5"/>
<text text-anchor="middle" x="255" y="-34.5" font-family="Helvetica,sans-Serif" font-size="10.00">gui.TurtleImageChooser.start</text>
</a>
</g>
</g>
<!-- Node1&#45;&gt;Node2 -->
<g id="edge1" class="edge"><title>Node1&#45;&gt;Node2</title>
<path fill="none" stroke="midnightblue" d="M141.585,-37C150.096,-37 158.872,-37 167.592,-37"/>
<polygon fill="midnightblue" stroke="midnightblue" points="167.783,-40.5001 177.783,-37 167.783,-33.5001 167.783,-40.5001"/>
</g>
<!-- Node3 -->
<g id="node3" class="node"><title>Node3</title>
<g id="a_node3"><a xlink:href="../../d9/dc5/classgui_1_1_turtle_image_chooser.html#a3b2d5af9d7bda41da0bce5a4350fc391" target="_top" xlink:title="gui.TurtleImageChooser.initialize">
<polygon fill="white" stroke="black" points="368,-27.5 368,-46.5 538,-46.5 538,-27.5 368,-27.5"/>
<text text-anchor="middle" x="453" y="-34.5" font-family="Helvetica,sans-Serif" font-size="10.00">gui.TurtleImageChooser.initialize</text>
</a>
</g>
</g>
<!-- Node2&#45;&gt;Node3 -->
<g id="edge2" class="edge"><title>Node2&#45;&gt;Node3</title>
<path fill="none" stroke="midnightblue" d="M332.059,-37C340.489,-37 349.148,-37 357.768,-37"/>
<polygon fill="midnightblue" stroke="midnightblue" points="357.853,-40.5001 367.853,-37 357.853,-33.5001 357.853,-40.5001"/>
</g>
<!-- Node4 -->
<g id="node4" class="node"><title>Node4</title>
<g id="a_node4"><a xlink:href="../../df/dcc/classgui_1_1_turtle_view.html#a24ab0ecbaccb90ec6cd935f4b608e3ee" target="_top" xlink:title="gui.TurtleView.updateTurtle\lImage">
<polygon fill="white" stroke="black" points="776.5,-22 776.5,-52 919.5,-52 919.5,-22 776.5,-22"/>
<text text-anchor="start" x="784.5" y="-40" font-family="Helvetica,sans-Serif" font-size="10.00">gui.TurtleView.updateTurtle</text>
<text text-anchor="middle" x="848" y="-29" font-family="Helvetica,sans-Serif" font-size="10.00">Image</text>
</a>
</g>
</g>
<!-- Node3&#45;&gt;Node4 -->
<g id="edge3" class="edge"><title>Node3&#45;&gt;Node4</title>
<path fill="none" stroke="midnightblue" d="M538.245,-38.5814C550.246,-38.7551 562.436,-38.9036 574,-39 647.775,-39.6148 666.225,-39.6894 740,-39 748.572,-38.9199 757.529,-38.8037 766.455,-38.667"/>
<polygon fill="midnightblue" stroke="midnightblue" points="766.554,-42.166 776.496,-38.5049 766.441,-35.1669 766.554,-42.166"/>
</g>
<!-- Node5 -->
<g id="node5" class="node"><title>Node5</title>
<g id="a_node5"><a xlink:href="../../d9/dc5/classgui_1_1_turtle_image_chooser.html#a832fda79e80b22c6d9602340d8516739" target="_top" xlink:title="gui.TurtleImageChooser.choose\lTurtleImage">
<polygon fill="white" stroke="black" points="574,-0 574,-30 740,-30 740,-0 574,-0"/>
<text text-anchor="start" x="582" y="-18" font-family="Helvetica,sans-Serif" font-size="10.00">gui.TurtleImageChooser.choose</text>
<text text-anchor="middle" x="657" y="-7" font-family="Helvetica,sans-Serif" font-size="10.00">TurtleImage</text>
</a>
</g>
</g>
<!-- Node3&#45;&gt;Node5 -->
<g id="edge4" class="edge"><title>Node3&#45;&gt;Node5</title>
<path fill="none" stroke="midnightblue" d="M538.203,-27.8293C546.685,-26.9056 555.328,-25.9643 563.886,-25.0322"/>
<polygon fill="midnightblue" stroke="midnightblue" points="564.316,-28.5062 573.878,-23.944 563.558,-21.5473 564.316,-28.5062"/>
</g>
<!-- Node5&#45;&gt;Node4 -->
<g id="edge5" class="edge"><title>Node5&#45;&gt;Node4</title>
<path fill="none" stroke="midnightblue" d="M740.074,-24.5535C748.737,-25.562 757.543,-26.587 766.192,-27.5938"/>
<polygon fill="midnightblue" stroke="midnightblue" points="765.919,-31.0855 776.256,-28.7653 766.728,-24.1325 765.919,-31.0855"/>
</g>
</g>
</svg>
