<?xml version="1.0" encoding="UTF-8" standalone="no"?>
<!DOCTYPE svg PUBLIC "-//W3C//DTD SVG 1.1//EN"
 "http://www.w3.org/Graphics/SVG/1.1/DTD/svg11.dtd">
<!-- Generated by graphviz version 2.36.0 (20140111.2315)
 -->
<!-- Title: gui.GUI.initialize Pages: 1 -->
<svg width="1532pt" height="364pt"
 viewBox="0.00 0.00 1532.00 364.00" xmlns="http://www.w3.org/2000/svg" xmlns:xlink="http://www.w3.org/1999/xlink">
<g id="graph0" class="graph" transform="scale(1 1) rotate(0) translate(4 360)">
<title>gui.GUI.initialize</title>
<polygon fill="white" stroke="none" points="-4,4 -4,-360 1528,-360 1528,4 -4,4"/>
<!-- Node1 -->
<g id="node1" class="node"><title>Node1</title>
<polygon fill="#bfbfbf" stroke="black" points="0,-71.5 0,-90.5 92,-90.5 92,-71.5 0,-71.5"/>
<text text-anchor="middle" x="46" y="-78.5" font-family="Helvetica,sans-Serif" font-size="10.00">gui.GUI.initialize</text>
</g>
<!-- Node2 -->
<g id="node2" class="node"><title>Node2</title>
<g id="a_node2"><a xlink:href="../../d6/d2f/classgui_1_1_g_u_i.html#a8946451ec351fce99254ed5efd88b33d" target="_top" xlink:title="gui.GUI.initializeButtons">
<polygon fill="white" stroke="black" points="137,-205.5 137,-224.5 267,-224.5 267,-205.5 137,-205.5"/>
<text text-anchor="middle" x="202" y="-212.5" font-family="Helvetica,sans-Serif" font-size="10.00">gui.GUI.initializeButtons</text>
</a>
</g>
</g>
<!-- Node1&#45;&gt;Node2 -->
<g id="edge1" class="edge"><title>Node1&#45;&gt;Node2</title>
<path fill="none" stroke="midnightblue" d="M58.0753,-90.6369C84.1586,-113.333 149.694,-170.357 182.164,-198.61"/>
<polygon fill="midnightblue" stroke="midnightblue" points="180.184,-201.527 190.025,-205.45 184.779,-196.246 180.184,-201.527"/>
</g>
<!-- Node17 -->
<g id="node17" class="node"><title>Node17</title>
<g id="a_node17"><a xlink:href="../../d6/d2f/classgui_1_1_g_u_i.html#a969657070e7503ad76669ed3ef5001ed" target="_top" xlink:title="gui.GUI.initializeCommands\lHistory">
<polygon fill="white" stroke="black" points="128,-88 128,-118 276,-118 276,-88 128,-88"/>
<text text-anchor="start" x="136" y="-106" font-family="Helvetica,sans-Serif" font-size="10.00">gui.GUI.initializeCommands</text>
<text text-anchor="middle" x="202" y="-95" font-family="Helvetica,sans-Serif" font-size="10.00">History</text>
</a>
</g>
</g>
<!-- Node1&#45;&gt;Node17 -->
<g id="edge17" class="edge"><title>Node1&#45;&gt;Node17</title>
<path fill="none" stroke="midnightblue" d="M92.3721,-87.4817C100.494,-88.6421 109.185,-89.8836 117.981,-91.1402"/>
<polygon fill="midnightblue" stroke="midnightblue" points="117.538,-94.6123 127.932,-92.5617 118.528,-87.6826 117.538,-94.6123"/>
</g>
<!-- Node22 -->
<g id="node22" class="node"><title>Node22</title>
<g id="a_node22"><a xlink:href="../../d6/d2f/classgui_1_1_g_u_i.html#aa7c8117389f5932512d005ca752d0b6d" target="_top" xlink:title="gui.GUI.initializeTextField">
<polygon fill="white" stroke="black" points="136,-49.5 136,-68.5 268,-68.5 268,-49.5 136,-49.5"/>
<text text-anchor="middle" x="202" y="-56.5" font-family="Helvetica,sans-Serif" font-size="10.00">gui.GUI.initializeTextField</text>
</a>
</g>
</g>
<!-- Node1&#45;&gt;Node22 -->
<g id="edge22" class="edge"><title>Node1&#45;&gt;Node22</title>
<path fill="none" stroke="midnightblue" d="M92.3721,-74.5183C102.94,-73.0086 114.47,-71.3615 125.942,-69.7226"/>
<polygon fill="midnightblue" stroke="midnightblue" points="126.579,-73.1673 135.983,-68.2881 125.589,-66.2376 126.579,-73.1673"/>
</g>
<!-- Node23 -->
<g id="node23" class="node"><title>Node23</title>
<g id="a_node23"><a xlink:href="../../d6/d2f/classgui_1_1_g_u_i.html#a784ba3db8493af6be1fb200653774010" target="_top" xlink:title="gui.GUI.initializeView">
<polygon fill="white" stroke="black" points="145,-11.5 145,-30.5 259,-30.5 259,-11.5 145,-11.5"/>
<text text-anchor="middle" x="202" y="-18.5" font-family="Helvetica,sans-Serif" font-size="10.00">gui.GUI.initializeView</text>
</a>
</g>
</g>
<!-- Node1&#45;&gt;Node23 -->
<g id="edge23" class="edge"><title>Node1&#45;&gt;Node23</title>
<path fill="none" stroke="midnightblue" d="M63.2822,-71.4482C79.3121,-62.3628 104.707,-48.8099 128,-40 134.419,-37.5721 141.269,-35.3419 148.105,-33.3304"/>
<polygon fill="midnightblue" stroke="midnightblue" points="149.373,-36.61 158.058,-30.5421 147.485,-29.8695 149.373,-36.61"/>
</g>
<!-- Node3 -->
<g id="node3" class="node"><title>Node3</title>
<g id="a_node3"><a xlink:href="../../d6/d2f/classgui_1_1_g_u_i.html#abaeb42ce4c957a819bbb3d8adea84496" target="_top" xlink:title="gui.GUI.createColorPicker\lButtons">
<polygon fill="white" stroke="black" points="348,-282 348,-312 486,-312 486,-282 348,-282"/>
<text text-anchor="start" x="356" y="-300" font-family="Helvetica,sans-Serif" font-size="10.00">gui.GUI.createColorPicker</text>
<text text-anchor="middle" x="417" y="-289" font-family="Helvetica,sans-Serif" font-size="10.00">Buttons</text>
</a>
</g>
</g>
<!-- Node2&#45;&gt;Node3 -->
<g id="edge2" class="edge"><title>Node2&#45;&gt;Node3</title>
<path fill="none" stroke="midnightblue" d="M227.851,-224.567C261.927,-237.685 323.874,-261.534 367.352,-278.272"/>
<polygon fill="midnightblue" stroke="midnightblue" points="366.29,-281.613 376.88,-281.94 368.805,-275.081 366.29,-281.613"/>
</g>
<!-- Node6 -->
<g id="node6" class="node"><title>Node6</title>
<g id="a_node6"><a xlink:href="../../d6/d2f/classgui_1_1_g_u_i.html#a93dd1959425cd3009366bcc585373af4" target="_top" xlink:title="gui.GUI.createNormalButtons">
<polygon fill="white" stroke="black" points="338,-224.5 338,-243.5 496,-243.5 496,-224.5 338,-224.5"/>
<text text-anchor="middle" x="417" y="-231.5" font-family="Helvetica,sans-Serif" font-size="10.00">gui.GUI.createNormalButtons</text>
</a>
</g>
</g>
<!-- Node2&#45;&gt;Node6 -->
<g id="edge5" class="edge"><title>Node2&#45;&gt;Node6</title>
<path fill="none" stroke="midnightblue" d="M267.196,-220.726C286.163,-222.418 307.267,-224.301 327.481,-226.104"/>
<polygon fill="midnightblue" stroke="midnightblue" points="327.365,-229.607 337.636,-227.01 327.987,-222.635 327.365,-229.607"/>
</g>
<!-- Node16 -->
<g id="node16" class="node"><title>Node16</title>
<g id="a_node16"><a xlink:href="../../d6/d2f/classgui_1_1_g_u_i.html#a031ed3459bcf6b4869840427a4f8ba9f" target="_top" xlink:title="gui.GUI.createLanguageButtons">
<polygon fill="white" stroke="black" points="332,-186.5 332,-205.5 502,-205.5 502,-186.5 332,-186.5"/>
<text text-anchor="middle" x="417" y="-193.5" font-family="Helvetica,sans-Serif" font-size="10.00">gui.GUI.createLanguageButtons</text>
</a>
</g>
</g>
<!-- Node2&#45;&gt;Node16 -->
<g id="edge16" class="edge"><title>Node2&#45;&gt;Node16</title>
<path fill="none" stroke="midnightblue" d="M267.196,-209.274C284.353,-207.743 303.258,-206.057 321.672,-204.414"/>
<polygon fill="midnightblue" stroke="midnightblue" points="322.188,-207.882 331.837,-203.507 321.566,-200.91 322.188,-207.882"/>
</g>
<!-- Node4 -->
<g id="node4" class="node"><title>Node4</title>
<g id="a_node4"><a xlink:href="../../d7/d9b/classgui_1_1_background_view.html#a603dfa5d6d9d8e7d7fa00b9e4798f00b" target="_top" xlink:title="gui.BackgroundView.setBackground\lColor">
<polygon fill="white" stroke="black" points="558.5,-326 558.5,-356 745.5,-356 745.5,-326 558.5,-326"/>
<text text-anchor="start" x="566.5" y="-344" font-family="Helvetica,sans-Serif" font-size="10.00">gui.BackgroundView.setBackground</text>
<text text-anchor="middle" x="652" y="-333" font-family="Helvetica,sans-Serif" font-size="10.00">Color</text>
</a>
</g>
</g>
<!-- Node3&#45;&gt;Node4 -->
<g id="edge3" class="edge"><title>Node3&#45;&gt;Node4</title>
<path fill="none" stroke="midnightblue" d="M486.02,-309.845C509.617,-314.301 536.445,-319.367 561.508,-324.1"/>
<polygon fill="midnightblue" stroke="midnightblue" points="560.908,-327.549 571.384,-325.965 562.207,-320.67 560.908,-327.549"/>
</g>
<!-- Node5 -->
<g id="node5" class="node"><title>Node5</title>
<g id="a_node5"><a xlink:href="../../d8/ddb/classgui_1_1_line_view.html#ab2461bce69ebcb3d6bc9889a2ffd4e3c" target="_top" xlink:title="gui.LineView.setColor">
<polygon fill="white" stroke="black" points="593.5,-287.5 593.5,-306.5 710.5,-306.5 710.5,-287.5 593.5,-287.5"/>
<text text-anchor="middle" x="652" y="-294.5" font-family="Helvetica,sans-Serif" font-size="10.00">gui.LineView.setColor</text>
</a>
</g>
</g>
<!-- Node3&#45;&gt;Node5 -->
<g id="edge4" class="edge"><title>Node3&#45;&gt;Node5</title>
<path fill="none" stroke="midnightblue" d="M486.02,-297C516.552,-297 552.491,-297 583.019,-297"/>
<polygon fill="midnightblue" stroke="midnightblue" points="583.148,-300.5 593.148,-297 583.148,-293.5 583.148,-300.5"/>
</g>
<!-- Node7 -->
<g id="node7" class="node"><title>Node7</title>
<g id="a_node7"><a xlink:href="../../d6/d2f/classgui_1_1_g_u_i.html#a01ea8b1de58d2eaf0a3008af1970cafd" target="_top" xlink:title="gui.GUI.launchHelpPage">
<polygon fill="white" stroke="black" points="586.5,-249.5 586.5,-268.5 717.5,-268.5 717.5,-249.5 586.5,-249.5"/>
<text text-anchor="middle" x="652" y="-256.5" font-family="Helvetica,sans-Serif" font-size="10.00">gui.GUI.launchHelpPage</text>
</a>
</g>
</g>
<!-- Node6&#45;&gt;Node7 -->
<g id="edge6" class="edge"><title>Node6&#45;&gt;Node7</title>
<path fill="none" stroke="midnightblue" d="M496.234,-242.394C522.027,-245.162 550.636,-248.231 576.169,-250.971"/>
<polygon fill="midnightblue" stroke="midnightblue" points="575.844,-254.456 586.161,-252.043 576.591,-247.496 575.844,-254.456"/>
</g>
<!-- Node9 -->
<g id="node9" class="node"><title>Node9</title>
<g id="a_node9"><a xlink:href="../../d6/d2f/classgui_1_1_g_u_i.html#acc6890f8e44269e697b72ff64580fb98" target="_top" xlink:title="gui.GUI.launchTurtleImage\lChooser">
<polygon fill="white" stroke="black" points="581.5,-200 581.5,-230 722.5,-230 722.5,-200 581.5,-200"/>
<text text-anchor="start" x="589.5" y="-218" font-family="Helvetica,sans-Serif" font-size="10.00">gui.GUI.launchTurtleImage</text>
<text text-anchor="middle" x="652" y="-207" font-family="Helvetica,sans-Serif" font-size="10.00">Chooser</text>
</a>
</g>
</g>
<!-- Node6&#45;&gt;Node9 -->
<g id="edge8" class="edge"><title>Node6&#45;&gt;Node9</title>
<path fill="none" stroke="midnightblue" d="M496.234,-227.62C520.295,-225.658 546.806,-223.496 570.985,-221.525"/>
<polygon fill="midnightblue" stroke="midnightblue" points="571.509,-224.994 581.191,-220.693 570.94,-218.017 571.509,-224.994"/>
</g>
<!-- Node14 -->
<g id="node14" class="node"><title>Node14</title>
<g id="a_node14"><a xlink:href="../../d6/d2f/classgui_1_1_g_u_i.html#addad84768cec770c2d321a6abd4088f5" target="_top" xlink:title="gui.GUI.launchTurtleInfo">
<polygon fill="white" stroke="black" points="588,-161.5 588,-180.5 716,-180.5 716,-161.5 588,-161.5"/>
<text text-anchor="middle" x="652" y="-168.5" font-family="Helvetica,sans-Serif" font-size="10.00">gui.GUI.launchTurtleInfo</text>
</a>
</g>
</g>
<!-- Node6&#45;&gt;Node14 -->
<g id="edge14" class="edge"><title>Node6&#45;&gt;Node14</title>
<path fill="none" stroke="midnightblue" d="M491.523,-224.452C501.95,-221.986 512.386,-218.888 522,-215 539.827,-207.79 540.288,-198.487 558,-191 565.166,-187.971 572.844,-185.379 580.603,-183.167"/>
<polygon fill="midnightblue" stroke="midnightblue" points="581.67,-186.505 590.442,-180.563 579.879,-179.738 581.67,-186.505"/>
</g>
<!-- Node8 -->
<g id="node8" class="node"><title>Node8</title>
<g id="a_node8"><a xlink:href="../../dd/d85/classgui_1_1_web_pop_up.html#a53d5e94a83616b341356728a4281f8cd" target="_top" xlink:title="gui.WebPopUp.start">
<polygon fill="white" stroke="black" points="804,-249.5 804,-268.5 914,-268.5 914,-249.5 804,-249.5"/>
<text text-anchor="middle" x="859" y="-256.5" font-family="Helvetica,sans-Serif" font-size="10.00">gui.WebPopUp.start</text>
</a>
</g>
</g>
<!-- Node7&#45;&gt;Node8 -->
<g id="edge7" class="edge"><title>Node7&#45;&gt;Node8</title>
<path fill="none" stroke="midnightblue" d="M717.582,-259C741.817,-259 769.345,-259 793.567,-259"/>
<polygon fill="midnightblue" stroke="midnightblue" points="793.726,-262.5 803.726,-259 793.726,-255.5 793.726,-262.5"/>
</g>
<!-- Node10 -->
<g id="node10" class="node"><title>Node10</title>
<g id="a_node10"><a xlink:href="../../d9/dc5/classgui_1_1_turtle_image_chooser.html#ade890409215dd5d1706b4feec691438f" target="_top" xlink:title="gui.TurtleImageChooser.start">
<polygon fill="white" stroke="black" points="782,-205.5 782,-224.5 936,-224.5 936,-205.5 782,-205.5"/>
<text text-anchor="middle" x="859" y="-212.5" font-family="Helvetica,sans-Serif" font-size="10.00">gui.TurtleImageChooser.start</text>
</a>
</g>
</g>
<!-- Node9&#45;&gt;Node10 -->
<g id="edge9" class="edge"><title>Node9&#45;&gt;Node10</title>
<path fill="none" stroke="midnightblue" d="M722.69,-215C738.454,-215 755.376,-215 771.732,-215"/>
<polygon fill="midnightblue" stroke="midnightblue" points="771.827,-218.5 781.827,-215 771.827,-211.5 771.827,-218.5"/>
</g>
<!-- Node11 -->
<g id="node11" class="node"><title>Node11</title>
<g id="a_node11"><a xlink:href="../../d9/dc5/classgui_1_1_turtle_image_chooser.html#a3b2d5af9d7bda41da0bce5a4350fc391" target="_top" xlink:title="gui.TurtleImageChooser.initialize">
<polygon fill="white" stroke="black" points="972,-205.5 972,-224.5 1142,-224.5 1142,-205.5 972,-205.5"/>
<text text-anchor="middle" x="1057" y="-212.5" font-family="Helvetica,sans-Serif" font-size="10.00">gui.TurtleImageChooser.initialize</text>
</a>
</g>
</g>
<!-- Node10&#45;&gt;Node11 -->
<g id="edge10" class="edge"><title>Node10&#45;&gt;Node11</title>
<path fill="none" stroke="midnightblue" d="M936.059,-215C944.489,-215 953.148,-215 961.768,-215"/>
<polygon fill="midnightblue" stroke="midnightblue" points="961.853,-218.5 971.853,-215 961.853,-211.5 961.853,-218.5"/>
</g>
<!-- Node12 -->
<g id="node12" class="node"><title>Node12</title>
<g id="a_node12"><a xlink:href="../../df/dcc/classgui_1_1_turtle_view.html#a24ab0ecbaccb90ec6cd935f4b608e3ee" target="_top" xlink:title="gui.TurtleView.updateTurtle\lImage">
<polygon fill="white" stroke="black" points="1380.5,-200 1380.5,-230 1523.5,-230 1523.5,-200 1380.5,-200"/>
<text text-anchor="start" x="1388.5" y="-218" font-family="Helvetica,sans-Serif" font-size="10.00">gui.TurtleView.updateTurtle</text>
<text text-anchor="middle" x="1452" y="-207" font-family="Helvetica,sans-Serif" font-size="10.00">Image</text>
</a>
</g>
</g>
<!-- Node11&#45;&gt;Node12 -->
<g id="edge11" class="edge"><title>Node11&#45;&gt;Node12</title>
<path fill="none" stroke="midnightblue" d="M1142.25,-216.581C1154.25,-216.755 1166.44,-216.904 1178,-217 1251.78,-217.615 1270.23,-217.689 1344,-217 1352.57,-216.92 1361.53,-216.804 1370.45,-216.667"/>
<polygon fill="midnightblue" stroke="midnightblue" points="1370.55,-220.166 1380.5,-216.505 1370.44,-213.167 1370.55,-220.166"/>
</g>
<!-- Node13 -->
<g id="node13" class="node"><title>Node13</title>
<g id="a_node13"><a xlink:href="../../d9/dc5/classgui_1_1_turtle_image_chooser.html#a832fda79e80b22c6d9602340d8516739" target="_top" xlink:title="gui.TurtleImageChooser.choose\lTurtleImage">
<polygon fill="white" stroke="black" points="1178,-178 1178,-208 1344,-208 1344,-178 1178,-178"/>
<text text-anchor="start" x="1186" y="-196" font-family="Helvetica,sans-Serif" font-size="10.00">gui.TurtleImageChooser.choose</text>
<text text-anchor="middle" x="1261" y="-185" font-family="Helvetica,sans-Serif" font-size="10.00">TurtleImage</text>
</a>
</g>
</g>
<!-- Node11&#45;&gt;Node13 -->
<g id="edge12" class="edge"><title>Node11&#45;&gt;Node13</title>
<path fill="none" stroke="midnightblue" d="M1142.2,-205.829C1150.68,-204.906 1159.33,-203.964 1167.89,-203.032"/>
<polygon fill="midnightblue" stroke="midnightblue" points="1168.32,-206.506 1177.88,-201.944 1167.56,-199.547 1168.32,-206.506"/>
</g>
<!-- Node13&#45;&gt;Node12 -->
<g id="edge13" class="edge"><title>Node13&#45;&gt;Node12</title>
<path fill="none" stroke="midnightblue" d="M1344.07,-202.554C1352.74,-203.562 1361.54,-204.587 1370.19,-205.594"/>
<polygon fill="midnightblue" stroke="midnightblue" points="1369.92,-209.086 1380.26,-206.765 1370.73,-202.132 1369.92,-209.086"/>
</g>
<!-- Node15 -->
<g id="node15" class="node"><title>Node15</title>
<g id="a_node15"><a xlink:href="../../df/dcc/classgui_1_1_turtle_view.html#a5a23d75671d39510283b6e38cbde3384" target="_top" xlink:title="gui.TurtleView.getTurtleInfo">
<polygon fill="white" stroke="black" points="788,-161.5 788,-180.5 930,-180.5 930,-161.5 788,-161.5"/>
<text text-anchor="middle" x="859" y="-168.5" font-family="Helvetica,sans-Serif" font-size="10.00">gui.TurtleView.getTurtleInfo</text>
</a>
</g>
</g>
<!-- Node14&#45;&gt;Node15 -->
<g id="edge15" class="edge"><title>Node14&#45;&gt;Node15</title>
<path fill="none" stroke="midnightblue" d="M716.179,-171C735.603,-171 757.247,-171 777.66,-171"/>
<polygon fill="midnightblue" stroke="midnightblue" points="777.884,-174.5 787.884,-171 777.884,-167.5 777.884,-174.5"/>
</g>
<!-- Node18 -->
<g id="node18" class="node"><title>Node18</title>
<g id="a_node18"><a xlink:href="../../d0/d3b/classcommands_1_1_user_made_utilities.html#a66be7c8192627c2ddfa68bd16c16e5ce" target="_top" xlink:title="commands.UserMadeUtilities.get\lAllVars">
<polygon fill="white" stroke="black" points="329,-137 329,-167 505,-167 505,-137 329,-137"/>
<text text-anchor="start" x="337" y="-155" font-family="Helvetica,sans-Serif" font-size="10.00">commands.UserMadeUtilities.get</text>
<text text-anchor="middle" x="417" y="-144" font-family="Helvetica,sans-Serif" font-size="10.00">AllVars</text>
</a>
</g>
</g>
<!-- Node17&#45;&gt;Node18 -->
<g id="edge18" class="edge"><title>Node17&#45;&gt;Node18</title>
<path fill="none" stroke="midnightblue" d="M268.355,-118.035C291.253,-123.302 317.151,-129.26 340.791,-134.698"/>
<polygon fill="midnightblue" stroke="midnightblue" points="340.239,-138.163 350.769,-136.994 341.808,-131.341 340.239,-138.163"/>
</g>
<!-- Node19 -->
<g id="node19" class="node"><title>Node19</title>
<g id="a_node19"><a xlink:href="../../d0/d3b/classcommands_1_1_user_made_utilities.html#a0b6d189f8f0fe1685ea48c9ac55357f0" target="_top" xlink:title="commands.UserMadeUtilities.get\lUDCommands">
<polygon fill="white" stroke="black" points="329,-88 329,-118 505,-118 505,-88 329,-88"/>
<text text-anchor="start" x="337" y="-106" font-family="Helvetica,sans-Serif" font-size="10.00">commands.UserMadeUtilities.get</text>
<text text-anchor="middle" x="417" y="-95" font-family="Helvetica,sans-Serif" font-size="10.00">UDCommands</text>
</a>
</g>
</g>
<!-- Node17&#45;&gt;Node19 -->
<g id="edge19" class="edge"><title>Node17&#45;&gt;Node19</title>
<path fill="none" stroke="midnightblue" d="M276.005,-103C289.668,-103 304.151,-103 318.419,-103"/>
<polygon fill="midnightblue" stroke="midnightblue" points="318.756,-106.5 328.756,-103 318.756,-99.5001 318.756,-106.5"/>
</g>
<!-- Node20 -->
<g id="node20" class="node"><title>Node20</title>
<g id="a_node20"><a xlink:href="../../d0/d3b/classcommands_1_1_user_made_utilities.html#a1f6e3a69c0981590f6e1e2c5d240b12d" target="_top" xlink:title="commands.UserMadeUtilities.check\lUDCommands">
<polygon fill="white" stroke="black" points="323,-39 323,-69 511,-69 511,-39 323,-39"/>
<text text-anchor="start" x="331" y="-57" font-family="Helvetica,sans-Serif" font-size="10.00">commands.UserMadeUtilities.check</text>
<text text-anchor="middle" x="417" y="-46" font-family="Helvetica,sans-Serif" font-size="10.00">UDCommands</text>
</a>
</g>
</g>
<!-- Node17&#45;&gt;Node20 -->
<g id="edge20" class="edge"><title>Node17&#45;&gt;Node20</title>
<path fill="none" stroke="midnightblue" d="M268.355,-87.9654C291.253,-82.6976 317.151,-76.7399 340.791,-71.3016"/>
<polygon fill="midnightblue" stroke="midnightblue" points="341.808,-74.6591 350.769,-69.0062 340.239,-67.8373 341.808,-74.6591"/>
</g>
<!-- Node21 -->
<g id="node21" class="node"><title>Node21</title>
<g id="a_node21"><a xlink:href="../../d0/d3b/classcommands_1_1_user_made_utilities.html#ab404a41aca56228775075422606fabb2" target="_top" xlink:title="commands.UserMadeUtilities.checkVars">
<polygon fill="white" stroke="black" points="312.5,-0.5 312.5,-19.5 521.5,-19.5 521.5,-0.5 312.5,-0.5"/>
<text text-anchor="middle" x="417" y="-7.5" font-family="Helvetica,sans-Serif" font-size="10.00">commands.UserMadeUtilities.checkVars</text>
</a>
</g>
</g>
<!-- Node17&#45;&gt;Node21 -->
<g id="edge21" class="edge"><title>Node17&#45;&gt;Node21</title>
<path fill="none" stroke="midnightblue" d="M259,-87.8463C265.012,-85.0649 270.818,-81.8068 276,-78 297.779,-62.0017 289.089,-43.3301 312,-29 315.361,-26.8975 318.896,-25.0146 322.551,-23.3291"/>
<polygon fill="midnightblue" stroke="midnightblue" points="323.916,-26.5523 331.852,-19.5336 321.271,-20.0711 323.916,-26.5523"/>
</g>
</g>
</svg>
