<?xml version="1.0" encoding="UTF-8" standalone="no"?>
<!DOCTYPE svg PUBLIC "-//W3C//DTD SVG 1.1//EN"
 "http://www.w3.org/Graphics/SVG/1.1/DTD/svg11.dtd">
<!-- Generated by graphviz version 2.36.0 (20140111.2315)
 -->
<!-- Title: gui.GUI.initializeTextField Pages: 1 -->
<svg width="424pt" height="28pt"
 viewBox="0.00 0.00 424.00 28.00" xmlns="http://www.w3.org/2000/svg" xmlns:xlink="http://www.w3.org/1999/xlink">
<g id="graph0" class="graph" transform="scale(1 1) rotate(0) translate(4 24)">
<title>gui.GUI.initializeTextField</title>
<polygon fill="white" stroke="none" points="-4,4 -4,-24 420,-24 420,4 -4,4"/>
<!-- Node1 -->
<g id="node1" class="node"><title>Node1</title>
<polygon fill="#bfbfbf" stroke="black" points="0,-0.5 0,-19.5 132,-19.5 132,-0.5 0,-0.5"/>
<text text-anchor="middle" x="66" y="-7.5" font-family="Helvetica,sans-Serif" font-size="10.00">gui.GUI.initializeTextField</text>
</g>
<!-- Node2 -->
<g id="node2" class="node"><title>Node2</title>
<g id="a_node2"><a xlink:href="../../d6/d2f/classgui_1_1_g_u_i.html#a8b2bdbd34755b5a59657b9ad391d2b22" target="_top" xlink:title="gui.GUI.initialize">
<polygon fill="white" stroke="black" points="168,-0.5 168,-19.5 260,-19.5 260,-0.5 168,-0.5"/>
<text text-anchor="middle" x="214" y="-7.5" font-family="Helvetica,sans-Serif" font-size="10.00">gui.GUI.initialize</text>
</a>
</g>
</g>
<!-- Node1&#45;&gt;Node2 -->
<g id="edge1" class="edge"><title>Node1&#45;&gt;Node2</title>
<path fill="none" stroke="midnightblue" d="M142.472,-10C151.133,-10 159.747,-10 167.826,-10"/>
<polygon fill="midnightblue" stroke="midnightblue" points="142.314,-6.5001 132.313,-10 142.313,-13.5001 142.314,-6.5001"/>
</g>
<!-- Node3 -->
<g id="node3" class="node"><title>Node3</title>
<g id="a_node3"><a xlink:href="../../d9/d96/classapplication_1_1_main.html#a998d14807e266e3f3b9e85468fc1ea98" target="_top" xlink:title="application.Main.start">
<polygon fill="white" stroke="black" points="296.5,-0.5 296.5,-19.5 415.5,-19.5 415.5,-0.5 296.5,-0.5"/>
<text text-anchor="middle" x="356" y="-7.5" font-family="Helvetica,sans-Serif" font-size="10.00">application.Main.start</text>
</a>
</g>
</g>
<!-- Node2&#45;&gt;Node3 -->
<g id="edge2" class="edge"><title>Node2&#45;&gt;Node3</title>
<path fill="none" stroke="midnightblue" d="M270.345,-10C278.926,-10 287.814,-10 296.462,-10"/>
<polygon fill="midnightblue" stroke="midnightblue" points="270.068,-6.5001 260.068,-10 270.067,-13.5001 270.068,-6.5001"/>
</g>
</g>
</svg>
