<?xml version="1.0" encoding="UTF-8" standalone="no"?>
<!DOCTYPE svg PUBLIC "-//W3C//DTD SVG 1.1//EN"
 "http://www.w3.org/Graphics/SVG/1.1/DTD/svg11.dtd">
<!-- Generated by graphviz version 2.36.0 (20140111.2315)
 -->
<!-- Title: gui.GUI.launchTurtleImageChooser Pages: 1 -->
<svg width="794pt" height="38pt"
 viewBox="0.00 0.00 794.00 38.00" xmlns="http://www.w3.org/2000/svg" xmlns:xlink="http://www.w3.org/1999/xlink">
<g id="graph0" class="graph" transform="scale(1 1) rotate(0) translate(4 34)">
<title>gui.GUI.launchTurtleImageChooser</title>
<polygon fill="white" stroke="none" points="-4,4 -4,-34 790,-34 790,4 -4,4"/>
<!-- Node1 -->
<g id="node1" class="node"><title>Node1</title>
<polygon fill="#bfbfbf" stroke="black" points="0.5,-0 0.5,-30 141.5,-30 141.5,-0 0.5,-0"/>
<text text-anchor="start" x="8.5" y="-18" font-family="Helvetica,sans-Serif" font-size="10.00">gui.GUI.launchTurtleImage</text>
<text text-anchor="middle" x="71" y="-7" font-family="Helvetica,sans-Serif" font-size="10.00">Chooser</text>
</g>
<!-- Node2 -->
<g id="node2" class="node"><title>Node2</title>
<g id="a_node2"><a xlink:href="../../d6/d2f/classgui_1_1_g_u_i.html#a93dd1959425cd3009366bcc585373af4" target="_top" xlink:title="gui.GUI.createNormalButtons">
<polygon fill="white" stroke="black" points="178,-5.5 178,-24.5 336,-24.5 336,-5.5 178,-5.5"/>
<text text-anchor="middle" x="257" y="-12.5" font-family="Helvetica,sans-Serif" font-size="10.00">gui.GUI.createNormalButtons</text>
</a>
</g>
</g>
<!-- Node1&#45;&gt;Node2 -->
<g id="edge1" class="edge"><title>Node1&#45;&gt;Node2</title>
<path fill="none" stroke="midnightblue" d="M151.629,-15C160.278,-15 169.076,-15 177.709,-15"/>
<polygon fill="midnightblue" stroke="midnightblue" points="151.563,-11.5001 141.563,-15 151.562,-18.5001 151.563,-11.5001"/>
</g>
<!-- Node3 -->
<g id="node3" class="node"><title>Node3</title>
<g id="a_node3"><a xlink:href="../../d6/d2f/classgui_1_1_g_u_i.html#a8946451ec351fce99254ed5efd88b33d" target="_top" xlink:title="gui.GUI.initializeButtons">
<polygon fill="white" stroke="black" points="372,-5.5 372,-24.5 502,-24.5 502,-5.5 372,-5.5"/>
<text text-anchor="middle" x="437" y="-12.5" font-family="Helvetica,sans-Serif" font-size="10.00">gui.GUI.initializeButtons</text>
</a>
</g>
</g>
<!-- Node2&#45;&gt;Node3 -->
<g id="edge2" class="edge"><title>Node2&#45;&gt;Node3</title>
<path fill="none" stroke="midnightblue" d="M346.206,-15C354.857,-15 363.519,-15 371.864,-15"/>
<polygon fill="midnightblue" stroke="midnightblue" points="346.073,-11.5001 336.073,-15 346.073,-18.5001 346.073,-11.5001"/>
</g>
<!-- Node4 -->
<g id="node4" class="node"><title>Node4</title>
<g id="a_node4"><a xlink:href="../../d6/d2f/classgui_1_1_g_u_i.html#a8b2bdbd34755b5a59657b9ad391d2b22" target="_top" xlink:title="gui.GUI.initialize">
<polygon fill="white" stroke="black" points="538,-5.5 538,-24.5 630,-24.5 630,-5.5 538,-5.5"/>
<text text-anchor="middle" x="584" y="-12.5" font-family="Helvetica,sans-Serif" font-size="10.00">gui.GUI.initialize</text>
</a>
</g>
</g>
<!-- Node3&#45;&gt;Node4 -->
<g id="edge3" class="edge"><title>Node3&#45;&gt;Node4</title>
<path fill="none" stroke="midnightblue" d="M512.18,-15C520.846,-15 529.481,-15 537.587,-15"/>
<polygon fill="midnightblue" stroke="midnightblue" points="512.021,-11.5001 502.021,-15 512.021,-18.5001 512.021,-11.5001"/>
</g>
<!-- Node5 -->
<g id="node5" class="node"><title>Node5</title>
<g id="a_node5"><a xlink:href="../../d9/d96/classapplication_1_1_main.html#a998d14807e266e3f3b9e85468fc1ea98" target="_top" xlink:title="application.Main.start">
<polygon fill="white" stroke="black" points="666.5,-5.5 666.5,-24.5 785.5,-24.5 785.5,-5.5 666.5,-5.5"/>
<text text-anchor="middle" x="726" y="-12.5" font-family="Helvetica,sans-Serif" font-size="10.00">application.Main.start</text>
</a>
</g>
</g>
<!-- Node4&#45;&gt;Node5 -->
<g id="edge4" class="edge"><title>Node4&#45;&gt;Node5</title>
<path fill="none" stroke="midnightblue" d="M640.345,-15C648.926,-15 657.814,-15 666.462,-15"/>
<polygon fill="midnightblue" stroke="midnightblue" points="640.068,-11.5001 630.068,-15 640.067,-18.5001 640.068,-11.5001"/>
</g>
</g>
</svg>
