<?xml version="1.0" encoding="UTF-8" standalone="no"?>
<!DOCTYPE svg PUBLIC "-//W3C//DTD SVG 1.1//EN"
 "http://www.w3.org/Graphics/SVG/1.1/DTD/svg11.dtd">
<!-- Generated by graphviz version 2.36.0 (20140111.2315)
 -->
<!-- Title: application.ViewHandler.setInfoParamsOfTurtleAndLine Pages: 1 -->
<svg width="724pt" height="224pt"
 viewBox="0.00 0.00 724.00 224.00" xmlns="http://www.w3.org/2000/svg" xmlns:xlink="http://www.w3.org/1999/xlink">
<g id="graph0" class="graph" transform="scale(1 1) rotate(0) translate(4 220)">
<title>application.ViewHandler.setInfoParamsOfTurtleAndLine</title>
<polygon fill="white" stroke="none" points="-4,4 -4,-220 720,-220 720,4 -4,4"/>
<!-- Node1 -->
<g id="node1" class="node"><title>Node1</title>
<polygon fill="#bfbfbf" stroke="black" points="0,-88 0,-118 148,-118 148,-88 0,-88"/>
<text text-anchor="start" x="8" y="-106" font-family="Helvetica,sans-Serif" font-size="10.00">application.ViewHandler.set</text>
<text text-anchor="middle" x="74" y="-95" font-family="Helvetica,sans-Serif" font-size="10.00">InfoParamsOfTurtleAndLine</text>
</g>
<!-- Node2 -->
<g id="node2" class="node"><title>Node2</title>
<g id="a_node2"><a xlink:href="../../df/dcb/classapplication_1_1_pen_handler.html#a8477a9a258753bb5538ad83a015fb731" target="_top" xlink:title="application.PenHandler.get\lPenStatus">
<polygon fill="white" stroke="black" points="186.5,-186 186.5,-216 331.5,-216 331.5,-186 186.5,-186"/>
<text text-anchor="start" x="194.5" y="-204" font-family="Helvetica,sans-Serif" font-size="10.00">application.PenHandler.get</text>
<text text-anchor="middle" x="259" y="-193" font-family="Helvetica,sans-Serif" font-size="10.00">PenStatus</text>
</a>
</g>
</g>
<!-- Node1&#45;&gt;Node2 -->
<g id="edge1" class="edge"><title>Node1&#45;&gt;Node2</title>
<path fill="none" stroke="midnightblue" d="M94.1333,-118.109C115.186,-134.171 150.497,-159.486 184,-176 188.521,-178.229 193.29,-180.337 198.138,-182.313"/>
<polygon fill="midnightblue" stroke="midnightblue" points="196.928,-185.598 207.517,-185.948 199.458,-179.071 196.928,-185.598"/>
</g>
<!-- Node4 -->
<g id="node4" class="node"><title>Node4</title>
<g id="a_node4"><a xlink:href="../../d8/d65/classapplication_1_1_view_handler.html#a8a3722771a70075225d9c37dc1ff5e8d" target="_top" xlink:title="application.ViewHandler.get\lTurtleLocation">
<polygon fill="white" stroke="black" points="184.5,-137 184.5,-167 333.5,-167 333.5,-137 184.5,-137"/>
<text text-anchor="start" x="192.5" y="-155" font-family="Helvetica,sans-Serif" font-size="10.00">application.ViewHandler.get</text>
<text text-anchor="middle" x="259" y="-144" font-family="Helvetica,sans-Serif" font-size="10.00">TurtleLocation</text>
</a>
</g>
</g>
<!-- Node1&#45;&gt;Node4 -->
<g id="edge3" class="edge"><title>Node1&#45;&gt;Node4</title>
<path fill="none" stroke="midnightblue" d="M131.399,-118.101C150.535,-123.225 172.086,-128.996 191.908,-134.303"/>
<polygon fill="midnightblue" stroke="midnightblue" points="191.222,-137.743 201.787,-136.948 193.033,-130.981 191.222,-137.743"/>
</g>
<!-- Node6 -->
<g id="node6" class="node"><title>Node6</title>
<g id="a_node6"><a xlink:href="../../d8/d65/classapplication_1_1_view_handler.html#a8a00eb25a7f1d5e3ccc3059e8b717819" target="_top" xlink:title="application.ViewHandler.get\lTurtleOrientation">
<polygon fill="white" stroke="black" points="184.5,-88 184.5,-118 333.5,-118 333.5,-88 184.5,-88"/>
<text text-anchor="start" x="192.5" y="-106" font-family="Helvetica,sans-Serif" font-size="10.00">application.ViewHandler.get</text>
<text text-anchor="middle" x="259" y="-95" font-family="Helvetica,sans-Serif" font-size="10.00">TurtleOrientation</text>
</a>
</g>
</g>
<!-- Node1&#45;&gt;Node6 -->
<g id="edge5" class="edge"><title>Node1&#45;&gt;Node6</title>
<path fill="none" stroke="midnightblue" d="M148.115,-103C156.702,-103 165.514,-103 174.232,-103"/>
<polygon fill="midnightblue" stroke="midnightblue" points="174.403,-106.5 184.403,-103 174.403,-99.5001 174.403,-106.5"/>
</g>
<!-- Node8 -->
<g id="node8" class="node"><title>Node8</title>
<g id="a_node8"><a xlink:href="../../df/dcb/classapplication_1_1_pen_handler.html#a518bb3076e4d9d105870b0778341a8c0" target="_top" xlink:title="application.PenHandler.set\lThicknessParameter">
<polygon fill="white" stroke="black" points="187,-39 187,-69 331,-69 331,-39 187,-39"/>
<text text-anchor="start" x="195" y="-57" font-family="Helvetica,sans-Serif" font-size="10.00">application.PenHandler.set</text>
<text text-anchor="middle" x="259" y="-46" font-family="Helvetica,sans-Serif" font-size="10.00">ThicknessParameter</text>
</a>
</g>
</g>
<!-- Node1&#45;&gt;Node8 -->
<g id="edge7" class="edge"><title>Node1&#45;&gt;Node8</title>
<path fill="none" stroke="midnightblue" d="M131.399,-87.8986C150.535,-82.7747 172.086,-77.0044 191.908,-71.6968"/>
<polygon fill="midnightblue" stroke="midnightblue" points="193.033,-75.019 201.787,-69.0516 191.222,-68.2572 193.033,-75.019"/>
</g>
<!-- Node12 -->
<g id="node12" class="node"><title>Node12</title>
<g id="a_node12"><a xlink:href="../../df/dcc/classgui_1_1_turtle_view.html#a978020a0f6ccbc4714b77c71435b0799" target="_top" xlink:title="gui.TurtleView.setTurtleInfo">
<polygon fill="white" stroke="black" points="188.5,-0.5 188.5,-19.5 329.5,-19.5 329.5,-0.5 188.5,-0.5"/>
<text text-anchor="middle" x="259" y="-7.5" font-family="Helvetica,sans-Serif" font-size="10.00">gui.TurtleView.setTurtleInfo</text>
</a>
</g>
</g>
<!-- Node1&#45;&gt;Node12 -->
<g id="edge11" class="edge"><title>Node1&#45;&gt;Node12</title>
<path fill="none" stroke="midnightblue" d="M93.1111,-87.7828C113.835,-71.0951 149.392,-44.6163 184,-29 189.344,-26.5885 195.049,-24.4434 200.831,-22.5444"/>
<polygon fill="midnightblue" stroke="midnightblue" points="202.035,-25.8366 210.583,-19.5776 199.998,-19.1396 202.035,-25.8366"/>
</g>
<!-- Node3 -->
<g id="node3" class="node"><title>Node3</title>
<g id="a_node3"><a xlink:href="../../de/d5a/classapplication_1_1_pen.html#ab21d78789fb66a90181393d7cc42796c" target="_top" xlink:title="application.Pen.getStatus">
<polygon fill="white" stroke="black" points="385,-191.5 385,-210.5 525,-210.5 525,-191.5 385,-191.5"/>
<text text-anchor="middle" x="455" y="-198.5" font-family="Helvetica,sans-Serif" font-size="10.00">application.Pen.getStatus</text>
</a>
</g>
</g>
<!-- Node2&#45;&gt;Node3 -->
<g id="edge2" class="edge"><title>Node2&#45;&gt;Node3</title>
<path fill="none" stroke="midnightblue" d="M331.687,-201C345.671,-201 360.409,-201 374.625,-201"/>
<polygon fill="midnightblue" stroke="midnightblue" points="374.865,-204.5 384.865,-201 374.865,-197.5 374.865,-204.5"/>
</g>
<!-- Node5 -->
<g id="node5" class="node"><title>Node5</title>
<g id="a_node5"><a xlink:href="../../d1/d31/classapplication_1_1_turtle.html#a802873f2487ab3b6832050e1bef998a5" target="_top" xlink:title="application.Turtle.getLoc">
<polygon fill="white" stroke="black" points="389,-142.5 389,-161.5 521,-161.5 521,-142.5 389,-142.5"/>
<text text-anchor="middle" x="455" y="-149.5" font-family="Helvetica,sans-Serif" font-size="10.00">application.Turtle.getLoc</text>
</a>
</g>
</g>
<!-- Node4&#45;&gt;Node5 -->
<g id="edge4" class="edge"><title>Node4&#45;&gt;Node5</title>
<path fill="none" stroke="midnightblue" d="M333.62,-152C348.338,-152 363.82,-152 378.598,-152"/>
<polygon fill="midnightblue" stroke="midnightblue" points="378.698,-155.5 388.698,-152 378.698,-148.5 378.698,-155.5"/>
</g>
<!-- Node7 -->
<g id="node7" class="node"><title>Node7</title>
<g id="a_node7"><a xlink:href="../../d1/d31/classapplication_1_1_turtle.html#af22147e198fac9068726b95eea235739" target="_top" xlink:title="application.Turtle.getOrientation">
<polygon fill="white" stroke="black" points="370.5,-93.5 370.5,-112.5 539.5,-112.5 539.5,-93.5 370.5,-93.5"/>
<text text-anchor="middle" x="455" y="-100.5" font-family="Helvetica,sans-Serif" font-size="10.00">application.Turtle.getOrientation</text>
</a>
</g>
</g>
<!-- Node6&#45;&gt;Node7 -->
<g id="edge6" class="edge"><title>Node6&#45;&gt;Node7</title>
<path fill="none" stroke="midnightblue" d="M333.62,-103C342.342,-103 351.333,-103 360.286,-103"/>
<polygon fill="midnightblue" stroke="midnightblue" points="360.363,-106.5 370.363,-103 360.363,-99.5001 360.363,-106.5"/>
</g>
<!-- Node9 -->
<g id="node9" class="node"><title>Node9</title>
<g id="a_node9"><a xlink:href="../../df/dcb/classapplication_1_1_pen_handler.html#a307ff6736f97a1aa1706da924d7e642b" target="_top" xlink:title="application.PenHandler.get\lPenWeight">
<polygon fill="white" stroke="black" points="382.5,-42 382.5,-72 527.5,-72 527.5,-42 382.5,-42"/>
<text text-anchor="start" x="390.5" y="-60" font-family="Helvetica,sans-Serif" font-size="10.00">application.PenHandler.get</text>
<text text-anchor="middle" x="455" y="-49" font-family="Helvetica,sans-Serif" font-size="10.00">PenWeight</text>
</a>
</g>
</g>
<!-- Node8&#45;&gt;Node9 -->
<g id="edge8" class="edge"><title>Node8&#45;&gt;Node9</title>
<path fill="none" stroke="midnightblue" d="M331.137,-55.1001C344.408,-55.3053 358.375,-55.5213 371.943,-55.7311"/>
<polygon fill="midnightblue" stroke="midnightblue" points="372.169,-59.2349 382.222,-55.89 372.278,-52.2357 372.169,-59.2349"/>
</g>
<!-- Node11 -->
<g id="node11" class="node"><title>Node11</title>
<g id="a_node11"><a xlink:href="../../d8/ddb/classgui_1_1_line_view.html#ab32d4cf33024aea52dcb5d1092003d85" target="_top" xlink:title="gui.LineView.setThickness">
<polygon fill="white" stroke="black" points="385.5,-3.5 385.5,-22.5 524.5,-22.5 524.5,-3.5 385.5,-3.5"/>
<text text-anchor="middle" x="455" y="-10.5" font-family="Helvetica,sans-Serif" font-size="10.00">gui.LineView.setThickness</text>
</a>
</g>
</g>
<!-- Node8&#45;&gt;Node11 -->
<g id="edge10" class="edge"><title>Node8&#45;&gt;Node11</title>
<path fill="none" stroke="midnightblue" d="M331.137,-38.9659C353.441,-34.2522 377.713,-29.1226 398.748,-24.6771"/>
<polygon fill="midnightblue" stroke="midnightblue" points="399.731,-28.0466 408.791,-22.5545 398.283,-21.1979 399.731,-28.0466"/>
</g>
<!-- Node10 -->
<g id="node10" class="node"><title>Node10</title>
<g id="a_node10"><a xlink:href="../../de/d5a/classapplication_1_1_pen.html#aaaae5f55fadb97afef2ae286a6119a58" target="_top" xlink:title="application.Pen.getWeight">
<polygon fill="white" stroke="black" points="576,-47.5 576,-66.5 716,-66.5 716,-47.5 576,-47.5"/>
<text text-anchor="middle" x="646" y="-54.5" font-family="Helvetica,sans-Serif" font-size="10.00">application.Pen.getWeight</text>
</a>
</g>
</g>
<!-- Node9&#45;&gt;Node10 -->
<g id="edge9" class="edge"><title>Node9&#45;&gt;Node10</title>
<path fill="none" stroke="midnightblue" d="M527.722,-57C540.165,-57 553.167,-57 565.795,-57"/>
<polygon fill="midnightblue" stroke="midnightblue" points="565.825,-60.5001 575.825,-57 565.825,-53.5001 565.825,-60.5001"/>
</g>
</g>
</svg>
