<?xml version="1.0" encoding="UTF-8" standalone="no"?>
<!DOCTYPE svg PUBLIC "-//W3C//DTD SVG 1.1//EN"
 "http://www.w3.org/Graphics/SVG/1.1/DTD/svg11.dtd">
<!-- Generated by graphviz version 2.36.0 (20140111.2315)
 -->
<!-- Title: application.ViewHandler.getTurtleOrientation Pages: 1 -->
<!--zoomable 402 -->
<svg id="main" version="1.1" xmlns="http://www.w3.org/2000/svg" xmlns:xlink="http://www.w3.org/1999/xlink" xml:space="preserve" onload="init(evt)">
<style type="text/css"><![CDATA[
.edge:hover path { stroke: red; }
.edge:hover polygon { stroke: red; fill: red; }
]]></style>
<script type="text/javascript"><![CDATA[
var edges = document.getElementsByTagName('g');
if (edges && edges.length) {
  for (var i=0;i<edges.length;i++) {
    if (edges[i].id.substr(0,4)=='edge') {
      edges[i].setAttribute('class','edge');
    }
  }
}
]]></script>
        <defs>
                <circle id="rim" cx="0" cy="0" r="7"/>
                <circle id="rim2" cx="0" cy="0" r="3.5"/>
                <g id="zoomPlus">
                        <use xlink:href="#rim" fill="#404040">
                                <set attributeName="fill" to="#808080" begin="zoomplus.mouseover" end="zoomplus.mouseout"/>
                        </use>
                        <path d="M-4,0h8M0,-4v8" fill="none" stroke="white" stroke-width="1.5" pointer-events="none"/>
                </g>
                <g id="zoomMin">
                        <use xlink:href="#rim" fill="#404040">
                                <set attributeName="fill" to="#808080" begin="zoomminus.mouseover" end="zoomminus.mouseout"/>
                        </use>
                        <path d="M-4,0h8" fill="none" stroke="white" stroke-width="1.5" pointer-events="none"/>
                </g>
                <g id="dirArrow">
                        <path fill="none" stroke="white" stroke-width="1.5" d="M0,-3.0v7 M-2.5,-0.5L0,-3.0L2.5,-0.5"/>
                </g>
               <g id="resetDef">
                       <use xlink:href="#rim2" fill="#404040">
                               <set attributeName="fill" to="#808080" begin="reset.mouseover" end="reset.mouseout"/>
                       </use>
               </g>
        </defs>

<script type="text/javascript">
var viewWidth = 1198;
var viewHeight = 402;
var sectionId = 'dynsection-9';
</script>
<script xlink:href="../../svgpan.js"/>
<svg id="graph" class="graph">
<g id="viewport">
<title>application.ViewHandler.getTurtleOrientation</title>
<polygon fill="white" stroke="none" points="-4,4 -4,-398 1194,-398 1194,4 -4,4"/>
<!-- Node1 -->
<g id="node1" class="node"><title>Node1</title>
<polygon fill="#bfbfbf" stroke="black" points="0.5,-284 0.5,-314 149.5,-314 149.5,-284 0.5,-284"/>
<text text-anchor="start" x="8.5" y="-302" font-family="Helvetica,sans-Serif" font-size="10.00">application.ViewHandler.get</text>
<text text-anchor="middle" x="75" y="-291" font-family="Helvetica,sans-Serif" font-size="10.00">TurtleOrientation</text>
</g>
<!-- Node2 -->
<g id="node2" class="node"><title>Node2</title>
<g id="a_node2"><a xlink:href="../../df/ded/classcommands_1_1view_commands_1_1turtle_commands_1_1_set_heading.html#a3efffc1774ad2f0b23742a20789f0ee8" target="_top" xlink:title="commands.viewCommands.turtle\lCommands.SetHeading.execute">
<polygon fill="white" stroke="black" points="786,-364 786,-394 964,-394 964,-364 786,-364"/>
<text text-anchor="start" x="794" y="-382" font-family="Helvetica,sans-Serif" font-size="10.00">commands.viewCommands.turtle</text>
<text text-anchor="middle" x="875" y="-371" font-family="Helvetica,sans-Serif" font-size="10.00">Commands.SetHeading.execute</text>
</a>
</g>
</g>
<!-- Node1&#45;&gt;Node2 -->
<g id="edge1" class="edge"><title>Node1&#45;&gt;Node2</title>
<path fill="none" stroke="midnightblue" d="M158.797,-315.753C167.954,-317.323 177.16,-318.78 186,-320 400.507,-349.593 654.819,-366.798 785.979,-374.364"/>
<polygon fill="midnightblue" stroke="midnightblue" points="159.356,-312.297 148.9,-314.01 158.142,-319.191 159.356,-312.297"/>
</g>
<!-- Node3 -->
<g id="node3" class="node"><title>Node3</title>
<g id="a_node3"><a xlink:href="../../d5/da3/classcommands_1_1view_commands_1_1turtle_commands_1_1_towards.html#abd6801c7d6d99e2cfa7f2a38b10a116a" target="_top" xlink:title="commands.viewCommands.turtle\lCommands.Towards.execute">
<polygon fill="white" stroke="black" points="786,-315 786,-345 964,-345 964,-315 786,-315"/>
<text text-anchor="start" x="794" y="-333" font-family="Helvetica,sans-Serif" font-size="10.00">commands.viewCommands.turtle</text>
<text text-anchor="middle" x="875" y="-322" font-family="Helvetica,sans-Serif" font-size="10.00">Commands.Towards.execute</text>
</a>
</g>
</g>
<!-- Node1&#45;&gt;Node3 -->
<g id="edge2" class="edge"><title>Node1&#45;&gt;Node3</title>
<path fill="none" stroke="midnightblue" d="M159.842,-302.257C311.692,-308.156 630.837,-320.554 785.815,-326.574"/>
<polygon fill="midnightblue" stroke="midnightblue" points="159.772,-298.752 149.644,-301.861 159.5,-305.746 159.772,-298.752"/>
</g>
<!-- Node4 -->
<g id="node4" class="node"><title>Node4</title>
<g id="a_node4"><a xlink:href="../../d8/d65/classapplication_1_1_view_handler.html#a308dcaf9847965fa4a3d261347845f56" target="_top" xlink:title="application.ViewHandler.set\lInfoParamsOfTurtleAndLine">
<polygon fill="white" stroke="black" points="186,-176 186,-206 334,-206 334,-176 186,-176"/>
<text text-anchor="start" x="194" y="-194" font-family="Helvetica,sans-Serif" font-size="10.00">application.ViewHandler.set</text>
<text text-anchor="middle" x="260" y="-183" font-family="Helvetica,sans-Serif" font-size="10.00">InfoParamsOfTurtleAndLine</text>
</a>
</g>
</g>
<!-- Node1&#45;&gt;Node4 -->
<g id="edge3" class="edge"><title>Node1&#45;&gt;Node4</title>
<path fill="none" stroke="midnightblue" d="M110.092,-278.88C145.871,-257.765 201.298,-225.054 233.476,-206.063"/>
<polygon fill="midnightblue" stroke="midnightblue" points="108.279,-275.886 101.445,-283.983 111.836,-281.915 108.279,-275.886"/>
</g>
<!-- Node7 -->
<g id="node7" class="node"><title>Node7</title>
<g id="a_node7"><a xlink:href="../../d8/d65/classapplication_1_1_view_handler.html#ae489ceaa9b5ec67faf3ba22a11cec085" target="_top" xlink:title="application.ViewHandler.update\lTurtleOnView">
<polygon fill="white" stroke="black" points="372.5,-176 372.5,-206 539.5,-206 539.5,-176 372.5,-176"/>
<text text-anchor="start" x="380.5" y="-194" font-family="Helvetica,sans-Serif" font-size="10.00">application.ViewHandler.update</text>
<text text-anchor="middle" x="456" y="-183" font-family="Helvetica,sans-Serif" font-size="10.00">TurtleOnView</text>
</a>
</g>
</g>
<!-- Node1&#45;&gt;Node7 -->
<g id="edge22" class="edge"><title>Node1&#45;&gt;Node7</title>
<path fill="none" stroke="midnightblue" d="M138.762,-281.115C212.375,-260.139 333.097,-225.738 402.14,-206.063"/>
<polygon fill="midnightblue" stroke="midnightblue" points="137.356,-277.876 128.698,-283.983 139.275,-284.608 137.356,-277.876"/>
</g>
<!-- Node5 -->
<g id="node5" class="node"><title>Node5</title>
<g id="a_node5"><a xlink:href="../../d8/d65/classapplication_1_1_view_handler.html#ac37927f63d43d93f1b1e0f5a3b59cf26" target="_top" xlink:title="application.ViewHandler.initialize\lTurtle">
<polygon fill="white" stroke="black" points="370.5,-64 370.5,-94 541.5,-94 541.5,-64 370.5,-64"/>
<text text-anchor="start" x="378.5" y="-82" font-family="Helvetica,sans-Serif" font-size="10.00">application.ViewHandler.initialize</text>
<text text-anchor="middle" x="456" y="-71" font-family="Helvetica,sans-Serif" font-size="10.00">Turtle</text>
</a>
</g>
</g>
<!-- Node4&#45;&gt;Node5 -->
<g id="edge4" class="edge"><title>Node4&#45;&gt;Node5</title>
<path fill="none" stroke="midnightblue" d="M295.909,-170.846C334.156,-148.765 394.621,-113.858 428.942,-94.0439"/>
<polygon fill="midnightblue" stroke="midnightblue" points="294.074,-167.864 287.164,-175.895 297.574,-173.926 294.074,-167.864"/>
</g>
<!-- Node4&#45;&gt;Node7 -->
<g id="edge6" class="edge"><title>Node4&#45;&gt;Node7</title>
<path fill="none" stroke="midnightblue" d="M344.097,-191C353.42,-191 362.918,-191 372.236,-191"/>
<polygon fill="midnightblue" stroke="midnightblue" points="344.067,-187.5 334.067,-191 344.067,-194.5 344.067,-187.5"/>
</g>
<!-- Node6 -->
<g id="node6" class="node"><title>Node6</title>
<g id="a_node6"><a xlink:href="../../d8/d65/classapplication_1_1_view_handler.html#aede07ea15df8a762813028bb80403e6b" target="_top" xlink:title="application.ViewHandler.\lViewHandler">
<polygon fill="white" stroke="black" points="592.5,-0 592.5,-30 725.5,-30 725.5,-0 592.5,-0"/>
<text text-anchor="start" x="600.5" y="-18" font-family="Helvetica,sans-Serif" font-size="10.00">application.ViewHandler.</text>
<text text-anchor="middle" x="659" y="-7" font-family="Helvetica,sans-Serif" font-size="10.00">ViewHandler</text>
</a>
</g>
</g>
<!-- Node5&#45;&gt;Node6 -->
<g id="edge5" class="edge"><title>Node5&#45;&gt;Node6</title>
<path fill="none" stroke="midnightblue" d="M513.816,-60.9092C544.451,-51.1549 581.809,-39.2598 610.822,-30.0219"/>
<polygon fill="midnightblue" stroke="midnightblue" points="512.592,-57.6258 504.126,-63.9948 514.716,-64.2958 512.592,-57.6258"/>
</g>
<!-- Node8 -->
<g id="node8" class="node"><title>Node8</title>
<g id="a_node8"><a xlink:href="../../d8/d65/classapplication_1_1_view_handler.html#a1a94c855ceb0e8ffb1f72f138addb75b" target="_top" xlink:title="application.ViewHandler.move\lTurtle">
<polygon fill="white" stroke="black" points="795,-122 795,-152 955,-152 955,-122 795,-122"/>
<text text-anchor="start" x="803" y="-140" font-family="Helvetica,sans-Serif" font-size="10.00">application.ViewHandler.move</text>
<text text-anchor="middle" x="875" y="-129" font-family="Helvetica,sans-Serif" font-size="10.00">Turtle</text>
</a>
</g>
</g>
<!-- Node7&#45;&gt;Node8 -->
<g id="edge7" class="edge"><title>Node7&#45;&gt;Node8</title>
<path fill="none" stroke="midnightblue" d="M533.429,-173.93C548.169,-171.001 563.526,-168.198 578,-166 651.129,-154.895 735.099,-147.138 794.88,-142.459"/>
<polygon fill="midnightblue" stroke="midnightblue" points="532.448,-170.557 523.342,-175.972 533.837,-177.418 532.448,-170.557"/>
</g>
<!-- Node10 -->
<g id="node10" class="node"><title>Node10</title>
<g id="a_node10"><a xlink:href="../../d8/d65/classapplication_1_1_view_handler.html#a1aff135a076a9717102bb59ea613131c" target="_top" xlink:title="application.ViewHandler.change\lLocationOfTurtle">
<polygon fill="white" stroke="black" points="791,-63 791,-93 959,-93 959,-63 791,-63"/>
<text text-anchor="start" x="799" y="-81" font-family="Helvetica,sans-Serif" font-size="10.00">application.ViewHandler.change</text>
<text text-anchor="middle" x="875" y="-70" font-family="Helvetica,sans-Serif" font-size="10.00">LocationOfTurtle</text>
</a>
</g>
</g>
<!-- Node7&#45;&gt;Node10 -->
<g id="edge9" class="edge"><title>Node7&#45;&gt;Node10</title>
<path fill="none" stroke="midnightblue" d="M477.617,-168.111C505.459,-137.874 554.313,-87.3404 578,-78 648.395,-50.241 735.739,-54.4157 797.245,-62.9719"/>
<polygon fill="midnightblue" stroke="midnightblue" points="474.855,-165.945 470.689,-175.686 480.02,-170.669 474.855,-165.945"/>
</g>
<!-- Node13 -->
<g id="node13" class="node"><title>Node13</title>
<g id="a_node13"><a xlink:href="../../d8/d65/classapplication_1_1_view_handler.html#a98b4ba09b3f3e8b1a7667db5598dbfb0" target="_top" xlink:title="application.ViewHandler.move\lTurtleImageAndDraw">
<polygon fill="white" stroke="black" points="579,-88 579,-118 739,-118 739,-88 579,-88"/>
<text text-anchor="start" x="587" y="-106" font-family="Helvetica,sans-Serif" font-size="10.00">application.ViewHandler.move</text>
<text text-anchor="middle" x="659" y="-95" font-family="Helvetica,sans-Serif" font-size="10.00">TurtleImageAndDraw</text>
</a>
</g>
</g>
<!-- Node7&#45;&gt;Node13 -->
<g id="edge12" class="edge"><title>Node7&#45;&gt;Node13</title>
<path fill="none" stroke="midnightblue" d="M495.479,-171.485C519.062,-159.794 550,-144.933 578,-133 590.145,-127.824 603.514,-122.621 615.789,-118.035"/>
<polygon fill="midnightblue" stroke="midnightblue" points="493.89,-168.366 486.501,-175.959 497.012,-174.632 493.89,-168.366"/>
</g>
<!-- Node14 -->
<g id="node14" class="node"><title>Node14</title>
<g id="a_node14"><a xlink:href="../../d8/d65/classapplication_1_1_view_handler.html#abe68f02cdf0227b13568e1aaabf57e5c" target="_top" xlink:title="application.ViewHandler.rotate\lTurtle">
<polygon fill="white" stroke="black" points="578,-225 578,-255 740,-255 740,-225 578,-225"/>
<text text-anchor="start" x="586" y="-243" font-family="Helvetica,sans-Serif" font-size="10.00">application.ViewHandler.rotate</text>
<text text-anchor="middle" x="659" y="-232" font-family="Helvetica,sans-Serif" font-size="10.00">Turtle</text>
</a>
</g>
</g>
<!-- Node7&#45;&gt;Node14 -->
<g id="edge15" class="edge"><title>Node7&#45;&gt;Node14</title>
<path fill="none" stroke="midnightblue" d="M528.391,-208.404C550.626,-213.824 574.942,-219.752 596.444,-224.994"/>
<polygon fill="midnightblue" stroke="midnightblue" points="529.217,-205.003 518.673,-206.035 527.559,-211.804 529.217,-205.003"/>
</g>
<!-- Node16 -->
<g id="node16" class="node"><title>Node16</title>
<g id="a_node16"><a xlink:href="../../d8/d65/classapplication_1_1_view_handler.html#af07eafb381b0ea9a1ce68f6ffe8a7428" target="_top" xlink:title="application.ViewHandler.set\lTurtleOrientation">
<polygon fill="white" stroke="black" points="585,-274 585,-304 733,-304 733,-274 585,-274"/>
<text text-anchor="start" x="593" y="-292" font-family="Helvetica,sans-Serif" font-size="10.00">application.ViewHandler.set</text>
<text text-anchor="middle" x="659" y="-281" font-family="Helvetica,sans-Serif" font-size="10.00">TurtleOrientation</text>
</a>
</g>
</g>
<!-- Node7&#45;&gt;Node16 -->
<g id="edge17" class="edge"><title>Node7&#45;&gt;Node16</title>
<path fill="none" stroke="midnightblue" d="M487.014,-211.899C510.848,-227.796 545.465,-249.359 578,-264 586.094,-267.643 594.874,-270.969 603.552,-273.922"/>
<polygon fill="midnightblue" stroke="midnightblue" points="488.681,-208.802 478.433,-206.11 484.766,-214.604 488.681,-208.802"/>
</g>
<!-- Node18 -->
<g id="node18" class="node"><title>Node18</title>
<g id="a_node18"><a xlink:href="../../d8/d65/classapplication_1_1_view_handler.html#a55d042c40e05453e3f5f6bc6c1c6e060" target="_top" xlink:title="application.ViewHandler.show\lTurtle">
<polygon fill="white" stroke="black" points="580.5,-176 580.5,-206 737.5,-206 737.5,-176 580.5,-176"/>
<text text-anchor="start" x="588.5" y="-194" font-family="Helvetica,sans-Serif" font-size="10.00">application.ViewHandler.show</text>
<text text-anchor="middle" x="659" y="-183" font-family="Helvetica,sans-Serif" font-size="10.00">Turtle</text>
</a>
</g>
</g>
<!-- Node7&#45;&gt;Node18 -->
<g id="edge21" class="edge"><title>Node7&#45;&gt;Node18</title>
<path fill="none" stroke="midnightblue" d="M549.761,-191C559.949,-191 570.244,-191 580.223,-191"/>
<polygon fill="midnightblue" stroke="midnightblue" points="549.625,-187.5 539.625,-191 549.624,-194.5 549.625,-187.5"/>
</g>
<!-- Node9 -->
<g id="node9" class="node"><title>Node9</title>
<g id="a_node9"><a xlink:href="../../dd/da6/classcommands_1_1view_commands_1_1turtle_commands_1_1_move.html#af95e8ccf5c290a4d06f79caf2deed407" target="_top" xlink:title="commands.viewCommands.turtle\lCommands.Move.changeLocation">
<polygon fill="white" stroke="black" points="1010.5,-122 1010.5,-152 1189.5,-152 1189.5,-122 1010.5,-122"/>
<text text-anchor="start" x="1018.5" y="-140" font-family="Helvetica,sans-Serif" font-size="10.00">commands.viewCommands.turtle</text>
<text text-anchor="middle" x="1100" y="-129" font-family="Helvetica,sans-Serif" font-size="10.00">Commands.Move.changeLocation</text>
</a>
</g>
</g>
<!-- Node8&#45;&gt;Node9 -->
<g id="edge8" class="edge"><title>Node8&#45;&gt;Node9</title>
<path fill="none" stroke="midnightblue" d="M965.362,-137C980.112,-137 995.401,-137 1010.14,-137"/>
<polygon fill="midnightblue" stroke="midnightblue" points="965.249,-133.5 955.249,-137 965.249,-140.5 965.249,-133.5"/>
</g>
<!-- Node11 -->
<g id="node11" class="node"><title>Node11</title>
<g id="a_node11"><a xlink:href="../../d5/de0/classcommands_1_1view_commands_1_1turtle_commands_1_1_clear_screen.html#ae547e4c170a1b6d41cdfc6c8bfe5e972" target="_top" xlink:title="commands.viewCommands.turtle\lCommands.ClearScreen.execute">
<polygon fill="white" stroke="black" points="1011,-68 1011,-98 1189,-98 1189,-68 1011,-68"/>
<text text-anchor="start" x="1019" y="-86" font-family="Helvetica,sans-Serif" font-size="10.00">commands.viewCommands.turtle</text>
<text text-anchor="middle" x="1100" y="-75" font-family="Helvetica,sans-Serif" font-size="10.00">Commands.ClearScreen.execute</text>
</a>
</g>
</g>
<!-- Node10&#45;&gt;Node11 -->
<g id="edge10" class="edge"><title>Node10&#45;&gt;Node11</title>
<path fill="none" stroke="midnightblue" d="M969.4,-80.0942C983.066,-80.4006 997.104,-80.7153 1010.66,-81.0194"/>
<polygon fill="midnightblue" stroke="midnightblue" points="969.113,-76.5869 959.037,-79.8618 968.956,-83.5852 969.113,-76.5869"/>
</g>
<!-- Node12 -->
<g id="node12" class="node"><title>Node12</title>
<g id="a_node12"><a xlink:href="../../dd/da6/classcommands_1_1view_commands_1_1turtle_commands_1_1_move.html#af4d9a4d9ade56b5e3a1e582bd891b7b5" target="_top" xlink:title="commands.viewCommands.turtle\lCommands.Move.goToLocation">
<polygon fill="white" stroke="black" points="1011,-19 1011,-49 1189,-49 1189,-19 1011,-19"/>
<text text-anchor="start" x="1019" y="-37" font-family="Helvetica,sans-Serif" font-size="10.00">commands.viewCommands.turtle</text>
<text text-anchor="middle" x="1100" y="-26" font-family="Helvetica,sans-Serif" font-size="10.00">Commands.Move.goToLocation</text>
</a>
</g>
</g>
<!-- Node10&#45;&gt;Node12 -->
<g id="edge11" class="edge"><title>Node10&#45;&gt;Node12</title>
<path fill="none" stroke="midnightblue" d="M962.148,-61.0023C982.152,-57.0552 1003.31,-52.8814 1022.84,-49.0262"/>
<polygon fill="midnightblue" stroke="midnightblue" points="961.254,-57.6111 952.12,-62.9808 962.609,-64.4787 961.254,-57.6111"/>
</g>
<!-- Node13&#45;&gt;Node8 -->
<g id="edge13" class="edge"><title>Node13&#45;&gt;Node8</title>
<path fill="none" stroke="midnightblue" d="M748.997,-117.14C764.221,-119.558 779.946,-122.057 794.89,-124.431"/>
<polygon fill="midnightblue" stroke="midnightblue" points="749.503,-113.676 739.078,-115.564 748.405,-120.59 749.503,-113.676"/>
</g>
<!-- Node13&#45;&gt;Node10 -->
<g id="edge14" class="edge"><title>Node13&#45;&gt;Node10</title>
<path fill="none" stroke="midnightblue" d="M749.085,-92.5929C762.947,-90.9735 777.222,-89.3058 790.944,-87.7028"/>
<polygon fill="midnightblue" stroke="midnightblue" points="748.604,-89.1252 739.078,-93.762 749.416,-96.0779 748.604,-89.1252"/>
</g>
<!-- Node15 -->
<g id="node15" class="node"><title>Node15</title>
<g id="a_node15"><a xlink:href="../../d3/dba/classcommands_1_1view_commands_1_1turtle_commands_1_1_rotate.html#a8ee301e936ff8d884357dccac52c2bfb" target="_top" xlink:title="commands.viewCommands.turtle\lCommands.Rotate.changeOrientation">
<polygon fill="white" stroke="black" points="776.5,-217 776.5,-247 973.5,-247 973.5,-217 776.5,-217"/>
<text text-anchor="start" x="784.5" y="-235" font-family="Helvetica,sans-Serif" font-size="10.00">commands.viewCommands.turtle</text>
<text text-anchor="middle" x="875" y="-224" font-family="Helvetica,sans-Serif" font-size="10.00">Commands.Rotate.changeOrientation</text>
</a>
</g>
</g>
<!-- Node14&#45;&gt;Node15 -->
<g id="edge16" class="edge"><title>Node14&#45;&gt;Node15</title>
<path fill="none" stroke="midnightblue" d="M750.296,-236.624C758.886,-236.303 767.623,-235.977 776.278,-235.653"/>
<polygon fill="midnightblue" stroke="midnightblue" points="750.157,-233.127 740.295,-236.998 750.418,-240.122 750.157,-233.127"/>
</g>
<!-- Node16&#45;&gt;Node2 -->
<g id="edge19" class="edge"><title>Node16&#45;&gt;Node2</title>
<path fill="none" stroke="midnightblue" d="M691.204,-309.443C713.943,-323.593 745.911,-341.973 776,-354 785.375,-357.747 795.483,-361.073 805.521,-363.976"/>
<polygon fill="midnightblue" stroke="midnightblue" points="692.987,-306.43 682.662,-304.056 689.253,-312.351 692.987,-306.43"/>
</g>
<!-- Node16&#45;&gt;Node3 -->
<g id="edge20" class="edge"><title>Node16&#45;&gt;Node3</title>
<path fill="none" stroke="midnightblue" d="M743.07,-304.915C760.288,-308.214 778.377,-311.68 795.428,-314.946"/>
<polygon fill="midnightblue" stroke="midnightblue" points="743.528,-301.439 733.048,-302.995 742.211,-308.314 743.528,-301.439"/>
</g>
<!-- Node17 -->
<g id="node17" class="node"><title>Node17</title>
<g id="a_node17"><a xlink:href="../../df/d03/classcommands_1_1view_commands_1_1turtle_commands_1_1_go_towards_loc.html#a67f5f04ce72d0cd234d1e0a11e6d7c83" target="_top" xlink:title="commands.viewCommands.turtle\lCommands.GoTowardsLoc.execute">
<polygon fill="white" stroke="black" points="783,-266 783,-296 967,-296 967,-266 783,-266"/>
<text text-anchor="start" x="791" y="-284" font-family="Helvetica,sans-Serif" font-size="10.00">commands.viewCommands.turtle</text>
<text text-anchor="middle" x="875" y="-273" font-family="Helvetica,sans-Serif" font-size="10.00">Commands.GoTowardsLoc.execute</text>
</a>
</g>
</g>
<!-- Node16&#45;&gt;Node17 -->
<g id="edge18" class="edge"><title>Node16&#45;&gt;Node17</title>
<path fill="none" stroke="midnightblue" d="M743.297,-285.886C756.226,-285.403 769.642,-284.901 782.736,-284.412"/>
<polygon fill="midnightblue" stroke="midnightblue" points="742.91,-282.398 733.048,-286.269 743.172,-289.393 742.91,-282.398"/>
</g>
</g>
</svg>
        <g id="navigator" transform="translate(0 0)" fill="#404254">
                <rect fill="#f2f5e9" fill-opacity="0.5" stroke="#606060" stroke-width=".5" x="0" y="0" width="60" height="60"/>
                <use id="zoomplus" xlink:href="#zoomPlus" x="17" y="9" onmousedown="handleZoom(evt,'in')"/>
                <use id="zoomminus" xlink:href="#zoomMin" x="42" y="9" onmousedown="handleZoom(evt,'out')"/>
                <use id="reset" xlink:href="#resetDef" x="30" y="36" onmousedown="handleReset()"/>
                <g id="arrowUp" xlink:href="#dirArrow" transform="translate(30 24)" onmousedown="handlePan(0,-1)">
                  <use xlink:href="#rim" fill="#404040">
                        <set attributeName="fill" to="#808080" begin="arrowUp.mouseover" end="arrowUp.mouseout"/>
                  </use>
                  <path fill="none" stroke="white" stroke-width="1.5" d="M0,-3.0v7 M-2.5,-0.5L0,-3.0L2.5,-0.5"/>
                </g>
                <g id="arrowRight" xlink:href="#dirArrow" transform="rotate(90) translate(36 -43)" onmousedown="handlePan(1,0)">
                  <use xlink:href="#rim" fill="#404040">
                        <set attributeName="fill" to="#808080" begin="arrowRight.mouseover" end="arrowRight.mouseout"/>
                  </use>
                  <path fill="none" stroke="white" stroke-width="1.5" d="M0,-3.0v7 M-2.5,-0.5L0,-3.0L2.5,-0.5"/>
                </g>
                <g id="arrowDown" xlink:href="#dirArrow" transform="rotate(180) translate(-30 -48)" onmousedown="handlePan(0,1)">
                  <use xlink:href="#rim" fill="#404040">
                        <set attributeName="fill" to="#808080" begin="arrowDown.mouseover" end="arrowDown.mouseout"/>
                  </use>
                  <path fill="none" stroke="white" stroke-width="1.5" d="M0,-3.0v7 M-2.5,-0.5L0,-3.0L2.5,-0.5"/>
                </g>
                <g id="arrowLeft" xlink:href="#dirArrow" transform="rotate(270) translate(-36 17)" onmousedown="handlePan(-1,0)">
                  <use xlink:href="#rim" fill="#404040">
                        <set attributeName="fill" to="#808080" begin="arrowLeft.mouseover" end="arrowLeft.mouseout"/>
                  </use>
                  <path fill="none" stroke="white" stroke-width="1.5" d="M0,-3.0v7 M-2.5,-0.5L0,-3.0L2.5,-0.5"/>
                </g>
        </g>
        <svg viewBox="0 0 15 15" width="100%" height="30px" preserveAspectRatio="xMaxYMin meet">
         <g id="arrow_out" transform="scale(0.3 0.3)">
          <a xlink:href="classapplication_1_1_view_handler_a8a00eb25a7f1d5e3ccc3059e8b717819_icgraph_org.svg" target="_base">
           <rect id="button" ry="5" rx="5" y="6" x="6" height="38" width="38"
                fill="#f2f5e9" fill-opacity="0.5" stroke="#606060" stroke-width="1.0"/>
           <path id="arrow"
             d="M 11.500037,31.436501 C 11.940474,20.09759 22.043105,11.32322 32.158766,21.979434 L 37.068811,17.246167 C 37.068811,17.246167 37.088388,32 37.088388,32 L 22.160133,31.978069 C 22.160133,31.978069 26.997745,27.140456 26.997745,27.140456 C 18.528582,18.264221 13.291696,25.230495 11.500037,31.436501 z"
             style="fill:#404040;"/>
          </a>
         </g>
        </svg>
</svg>
