<?xml version="1.0" encoding="UTF-8" standalone="no"?>
<!DOCTYPE svg PUBLIC "-//W3C//DTD SVG 1.1//EN"
 "http://www.w3.org/Graphics/SVG/1.1/DTD/svg11.dtd">
<!-- Generated by graphviz version 2.36.0 (20140111.2315)
 -->
<!-- Title: application.ViewHandler.setTurtleLocToViewTurtleLoc Pages: 1 -->
<svg width="502pt" height="116pt"
 viewBox="0.00 0.00 502.00 116.00" xmlns="http://www.w3.org/2000/svg" xmlns:xlink="http://www.w3.org/1999/xlink">
<g id="graph0" class="graph" transform="scale(1 1) rotate(0) translate(4 112)">
<title>application.ViewHandler.setTurtleLocToViewTurtleLoc</title>
<polygon fill="white" stroke="none" points="-4,4 -4,-112 498,-112 498,4 -4,4"/>
<!-- Node1 -->
<g id="node1" class="node"><title>Node1</title>
<polygon fill="#bfbfbf" stroke="black" points="0,-39 0,-69 148,-69 148,-39 0,-39"/>
<text text-anchor="start" x="8" y="-57" font-family="Helvetica,sans-Serif" font-size="10.00">application.ViewHandler.set</text>
<text text-anchor="middle" x="74" y="-46" font-family="Helvetica,sans-Serif" font-size="10.00">TurtleLocToViewTurtleLoc</text>
</g>
<!-- Node2 -->
<g id="node2" class="node"><title>Node2</title>
<g id="a_node2"><a xlink:href="../../d1/d31/classapplication_1_1_turtle.html#a802873f2487ab3b6832050e1bef998a5" target="_top" xlink:title="application.Turtle.getLoc">
<polygon fill="white" stroke="black" points="196,-88.5 196,-107.5 328,-107.5 328,-88.5 196,-88.5"/>
<text text-anchor="middle" x="262" y="-95.5" font-family="Helvetica,sans-Serif" font-size="10.00">application.Turtle.getLoc</text>
</a>
</g>
</g>
<!-- Node1&#45;&gt;Node2 -->
<g id="edge1" class="edge"><title>Node1&#45;&gt;Node2</title>
<path fill="none" stroke="midnightblue" d="M138.49,-69.0192C162.127,-74.6108 188.602,-80.8735 210.875,-86.1426"/>
<polygon fill="midnightblue" stroke="midnightblue" points="210.251,-89.5914 220.788,-88.4876 211.863,-82.7795 210.251,-89.5914"/>
</g>
<!-- Node3 -->
<g id="node3" class="node"><title>Node3</title>
<g id="a_node3"><a xlink:href="../../d8/d65/classapplication_1_1_view_handler.html#aba2ed11a44abfaf2d5684ab5a7bbb33f" target="_top" xlink:title="application.ViewHandler.get\lViewTurtleLocation">
<polygon fill="white" stroke="black" points="187.5,-39 187.5,-69 336.5,-69 336.5,-39 187.5,-39"/>
<text text-anchor="start" x="195.5" y="-57" font-family="Helvetica,sans-Serif" font-size="10.00">application.ViewHandler.get</text>
<text text-anchor="middle" x="262" y="-46" font-family="Helvetica,sans-Serif" font-size="10.00">ViewTurtleLocation</text>
</a>
</g>
</g>
<!-- Node1&#45;&gt;Node3 -->
<g id="edge2" class="edge"><title>Node1&#45;&gt;Node3</title>
<path fill="none" stroke="midnightblue" d="M148.245,-54C157.752,-54 167.547,-54 177.209,-54"/>
<polygon fill="midnightblue" stroke="midnightblue" points="177.211,-57.5001 187.211,-54 177.211,-50.5001 177.211,-57.5001"/>
</g>
<!-- Node5 -->
<g id="node5" class="node"><title>Node5</title>
<g id="a_node5"><a xlink:href="../../d1/d31/classapplication_1_1_turtle.html#a1055014d20f219b829679d8d4f3e0d97" target="_top" xlink:title="application.Turtle.setLocation">
<polygon fill="white" stroke="black" points="184.5,-0.5 184.5,-19.5 339.5,-19.5 339.5,-0.5 184.5,-0.5"/>
<text text-anchor="middle" x="262" y="-7.5" font-family="Helvetica,sans-Serif" font-size="10.00">application.Turtle.setLocation</text>
</a>
</g>
</g>
<!-- Node1&#45;&gt;Node5 -->
<g id="edge4" class="edge"><title>Node1&#45;&gt;Node5</title>
<path fill="none" stroke="midnightblue" d="M138.49,-38.9808C162.127,-33.3892 188.602,-27.1265 210.875,-21.8574"/>
<polygon fill="midnightblue" stroke="midnightblue" points="211.863,-25.2205 220.788,-19.5124 210.251,-18.4086 211.863,-25.2205"/>
</g>
<!-- Node4 -->
<g id="node4" class="node"><title>Node4</title>
<g id="a_node4"><a xlink:href="../../d8/d8b/classgui_1_1_view.html#a805679dcb8753b21508755667f09fac9" target="_top" xlink:title="gui.View.getNewPoint">
<polygon fill="white" stroke="black" points="376,-44.5 376,-63.5 494,-63.5 494,-44.5 376,-44.5"/>
<text text-anchor="middle" x="435" y="-51.5" font-family="Helvetica,sans-Serif" font-size="10.00">gui.View.getNewPoint</text>
</a>
</g>
</g>
<!-- Node3&#45;&gt;Node4 -->
<g id="edge3" class="edge"><title>Node3&#45;&gt;Node4</title>
<path fill="none" stroke="midnightblue" d="M336.512,-54C346.151,-54 355.997,-54 365.548,-54"/>
<polygon fill="midnightblue" stroke="midnightblue" points="365.772,-57.5001 375.772,-54 365.772,-50.5001 365.772,-57.5001"/>
</g>
</g>
</svg>
