<?xml version="1.0" encoding="UTF-8" standalone="no"?>
<!DOCTYPE svg PUBLIC "-//W3C//DTD SVG 1.1//EN"
 "http://www.w3.org/Graphics/SVG/1.1/DTD/svg11.dtd">
<!-- Generated by graphviz version 2.36.0 (20140111.2315)
 -->
<!-- Title: application.ViewHandler.getTurtleLocation Pages: 1 -->
<!--zoomable 474 -->
<svg id="main" version="1.1" xmlns="http://www.w3.org/2000/svg" xmlns:xlink="http://www.w3.org/1999/xlink" xml:space="preserve" onload="init(evt)">
<style type="text/css"><![CDATA[
.edge:hover path { stroke: red; }
.edge:hover polygon { stroke: red; fill: red; }
]]></style>
<script type="text/javascript"><![CDATA[
var edges = document.getElementsByTagName('g');
if (edges && edges.length) {
  for (var i=0;i<edges.length;i++) {
    if (edges[i].id.substr(0,4)=='edge') {
      edges[i].setAttribute('class','edge');
    }
  }
}
]]></script>
        <defs>
                <circle id="rim" cx="0" cy="0" r="7"/>
                <circle id="rim2" cx="0" cy="0" r="3.5"/>
                <g id="zoomPlus">
                        <use xlink:href="#rim" fill="#404040">
                                <set attributeName="fill" to="#808080" begin="zoomplus.mouseover" end="zoomplus.mouseout"/>
                        </use>
                        <path d="M-4,0h8M0,-4v8" fill="none" stroke="white" stroke-width="1.5" pointer-events="none"/>
                </g>
                <g id="zoomMin">
                        <use xlink:href="#rim" fill="#404040">
                                <set attributeName="fill" to="#808080" begin="zoomminus.mouseover" end="zoomminus.mouseout"/>
                        </use>
                        <path d="M-4,0h8" fill="none" stroke="white" stroke-width="1.5" pointer-events="none"/>
                </g>
                <g id="dirArrow">
                        <path fill="none" stroke="white" stroke-width="1.5" d="M0,-3.0v7 M-2.5,-0.5L0,-3.0L2.5,-0.5"/>
                </g>
               <g id="resetDef">
                       <use xlink:href="#rim2" fill="#404040">
                               <set attributeName="fill" to="#808080" begin="reset.mouseover" end="reset.mouseout"/>
                       </use>
               </g>
        </defs>

<script type="text/javascript">
var viewWidth = 1198;
var viewHeight = 474;
var sectionId = 'dynsection-7';
</script>
<script xlink:href="../../svgpan.js"/>
<svg id="graph" class="graph">
<g id="viewport">
<title>application.ViewHandler.getTurtleLocation</title>
<polygon fill="white" stroke="none" points="-4,4 -4,-469.583 1194,-469.583 1194,4 -4,4"/>
<!-- Node1 -->
<g id="node1" class="node"><title>Node1</title>
<polygon fill="#bfbfbf" stroke="black" points="0.5,-315 0.5,-345 149.5,-345 149.5,-315 0.5,-315"/>
<text text-anchor="start" x="8.5" y="-333" font-family="Helvetica,sans-Serif" font-size="10.00">application.ViewHandler.get</text>
<text text-anchor="middle" x="75" y="-322" font-family="Helvetica,sans-Serif" font-size="10.00">TurtleLocation</text>
</g>
<!-- Node2 -->
<g id="node2" class="node"><title>Node2</title>
<g id="a_node2"><a xlink:href="../../df/d03/classcommands_1_1view_commands_1_1turtle_commands_1_1_go_towards_loc.html#a67f5f04ce72d0cd234d1e0a11e6d7c83" target="_top" xlink:title="commands.viewCommands.turtle\lCommands.GoTowardsLoc.execute">
<polygon fill="white" stroke="black" points="783,-379 783,-409 967,-409 967,-379 783,-379"/>
<text text-anchor="start" x="791" y="-397" font-family="Helvetica,sans-Serif" font-size="10.00">commands.viewCommands.turtle</text>
<text text-anchor="middle" x="875" y="-386" font-family="Helvetica,sans-Serif" font-size="10.00">Commands.GoTowardsLoc.execute</text>
</a>
</g>
</g>
<!-- Node1&#45;&gt;Node2 -->
<g id="edge1" class="edge"><title>Node1&#45;&gt;Node2</title>
<path fill="none" stroke="midnightblue" d="M159.557,-344.527C168.467,-345.821 177.41,-347.012 186,-348 399.029,-372.495 650.78,-385.232 782.768,-390.673"/>
<polygon fill="midnightblue" stroke="midnightblue" points="159.938,-341.045 149.531,-343.028 158.903,-347.969 159.938,-341.045"/>
</g>
<!-- Node3 -->
<g id="node3" class="node"><title>Node3</title>
<g id="a_node3"><a xlink:href="../../d5/de0/classcommands_1_1view_commands_1_1turtle_commands_1_1_clear_screen.html#ae547e4c170a1b6d41cdfc6c8bfe5e972" target="_top" xlink:title="commands.viewCommands.turtle\lCommands.ClearScreen.execute">
<polygon fill="white" stroke="black" points="1011,-164 1011,-194 1189,-194 1189,-164 1011,-164"/>
<text text-anchor="start" x="1019" y="-182" font-family="Helvetica,sans-Serif" font-size="10.00">commands.viewCommands.turtle</text>
<text text-anchor="middle" x="1100" y="-171" font-family="Helvetica,sans-Serif" font-size="10.00">Commands.ClearScreen.execute</text>
</a>
</g>
</g>
<!-- Node1&#45;&gt;Node3 -->
<g id="edge2" class="edge"><title>Node1&#45;&gt;Node3</title>
<path fill="none" stroke="midnightblue" d="M116.078,-349.402C184.09,-380.488 327.187,-438 455,-438 455,-438 455,-438 660,-438 799.838,-438 869.822,-511.284 974,-418 1042.92,-356.291 951.127,-284.353 1010,-213 1016.63,-204.962 1025.39,-198.822 1034.83,-194.131"/>
<polygon fill="midnightblue" stroke="midnightblue" points="117.145,-346.039 106.599,-345.017 114.206,-352.392 117.145,-346.039"/>
</g>
<!-- Node4 -->
<g id="node4" class="node"><title>Node4</title>
<g id="a_node4"><a xlink:href="../../d5/da3/classcommands_1_1view_commands_1_1turtle_commands_1_1_towards.html#abd6801c7d6d99e2cfa7f2a38b10a116a" target="_top" xlink:title="commands.viewCommands.turtle\lCommands.Towards.execute">
<polygon fill="white" stroke="black" points="786,-330 786,-360 964,-360 964,-330 786,-330"/>
<text text-anchor="start" x="794" y="-348" font-family="Helvetica,sans-Serif" font-size="10.00">commands.viewCommands.turtle</text>
<text text-anchor="middle" x="875" y="-337" font-family="Helvetica,sans-Serif" font-size="10.00">Commands.Towards.execute</text>
</a>
</g>
</g>
<!-- Node1&#45;&gt;Node4 -->
<g id="edge3" class="edge"><title>Node1&#45;&gt;Node4</title>
<path fill="none" stroke="midnightblue" d="M159.579,-332.35C259.207,-335.069 430.737,-339.494 578,-342 647.882,-343.189 727.054,-343.962 785.922,-344.424"/>
<polygon fill="midnightblue" stroke="midnightblue" points="159.665,-328.851 149.573,-332.076 159.473,-335.848 159.665,-328.851"/>
</g>
<!-- Node5 -->
<g id="node5" class="node"><title>Node5</title>
<g id="a_node5"><a xlink:href="../../dd/da6/classcommands_1_1view_commands_1_1turtle_commands_1_1_move.html#af4d9a4d9ade56b5e3a1e582bd891b7b5" target="_top" xlink:title="commands.viewCommands.turtle\lCommands.Move.goToLocation">
<polygon fill="white" stroke="black" points="1011,-55 1011,-85 1189,-85 1189,-55 1011,-55"/>
<text text-anchor="start" x="1019" y="-73" font-family="Helvetica,sans-Serif" font-size="10.00">commands.viewCommands.turtle</text>
<text text-anchor="middle" x="1100" y="-62" font-family="Helvetica,sans-Serif" font-size="10.00">Commands.Move.goToLocation</text>
</a>
</g>
</g>
<!-- Node1&#45;&gt;Node5 -->
<g id="edge4" class="edge"><title>Node1&#45;&gt;Node5</title>
<path fill="none" stroke="midnightblue" d="M88.2641,-306.112C129.086,-230.286 268.422,-0 455,-0 455,-0 455,-0 660,-0 798.535,-0 958.627,-34.4149 1041.94,-54.9832"/>
<polygon fill="midnightblue" stroke="midnightblue" points="85.1632,-304.489 83.5709,-314.963 91.3476,-307.768 85.1632,-304.489"/>
</g>
<!-- Node6 -->
<g id="node6" class="node"><title>Node6</title>
<g id="a_node6"><a xlink:href="../../d8/d65/classapplication_1_1_view_handler.html#a308dcaf9847965fa4a3d261347845f56" target="_top" xlink:title="application.ViewHandler.set\lInfoParamsOfTurtleAndLine">
<polygon fill="white" stroke="black" points="186,-215 186,-245 334,-245 334,-215 186,-215"/>
<text text-anchor="start" x="194" y="-233" font-family="Helvetica,sans-Serif" font-size="10.00">application.ViewHandler.set</text>
<text text-anchor="middle" x="260" y="-222" font-family="Helvetica,sans-Serif" font-size="10.00">InfoParamsOfTurtleAndLine</text>
</a>
</g>
</g>
<!-- Node1&#45;&gt;Node6 -->
<g id="edge5" class="edge"><title>Node1&#45;&gt;Node6</title>
<path fill="none" stroke="midnightblue" d="M112.768,-309.908C147.859,-290.733 199.932,-262.278 231.544,-245.003"/>
<polygon fill="midnightblue" stroke="midnightblue" points="110.891,-306.946 103.794,-314.812 114.247,-313.088 110.891,-306.946"/>
</g>
<!-- Node9 -->
<g id="node9" class="node"><title>Node9</title>
<g id="a_node9"><a xlink:href="../../d8/d65/classapplication_1_1_view_handler.html#ae489ceaa9b5ec67faf3ba22a11cec085" target="_top" xlink:title="application.ViewHandler.update\lTurtleOnView">
<polygon fill="white" stroke="black" points="372.5,-215 372.5,-245 539.5,-245 539.5,-215 372.5,-215"/>
<text text-anchor="start" x="380.5" y="-233" font-family="Helvetica,sans-Serif" font-size="10.00">application.ViewHandler.update</text>
<text text-anchor="middle" x="456" y="-222" font-family="Helvetica,sans-Serif" font-size="10.00">TurtleOnView</text>
</a>
</g>
</g>
<!-- Node1&#45;&gt;Node9 -->
<g id="edge24" class="edge"><title>Node1&#45;&gt;Node9</title>
<path fill="none" stroke="midnightblue" d="M143.088,-312.299C215.544,-293.181 329.739,-263.05 398.005,-245.038"/>
<polygon fill="midnightblue" stroke="midnightblue" points="141.927,-308.985 133.15,-314.921 143.713,-315.754 141.927,-308.985"/>
</g>
<!-- Node7 -->
<g id="node7" class="node"><title>Node7</title>
<g id="a_node7"><a xlink:href="../../d8/d65/classapplication_1_1_view_handler.html#ac37927f63d43d93f1b1e0f5a3b59cf26" target="_top" xlink:title="application.ViewHandler.initialize\lTurtle">
<polygon fill="white" stroke="black" points="370.5,-98 370.5,-128 541.5,-128 541.5,-98 370.5,-98"/>
<text text-anchor="start" x="378.5" y="-116" font-family="Helvetica,sans-Serif" font-size="10.00">application.ViewHandler.initialize</text>
<text text-anchor="middle" x="456" y="-105" font-family="Helvetica,sans-Serif" font-size="10.00">Turtle</text>
</a>
</g>
</g>
<!-- Node6&#45;&gt;Node7 -->
<g id="edge6" class="edge"><title>Node6&#45;&gt;Node7</title>
<path fill="none" stroke="midnightblue" d="M294.744,-209.65C333.243,-186.431 395.319,-148.993 429.824,-128.184"/>
<polygon fill="midnightblue" stroke="midnightblue" points="292.721,-206.782 285.965,-214.944 296.336,-212.776 292.721,-206.782"/>
</g>
<!-- Node6&#45;&gt;Node9 -->
<g id="edge8" class="edge"><title>Node6&#45;&gt;Node9</title>
<path fill="none" stroke="midnightblue" d="M344.097,-230C353.42,-230 362.918,-230 372.236,-230"/>
<polygon fill="midnightblue" stroke="midnightblue" points="344.067,-226.5 334.067,-230 344.067,-233.5 344.067,-226.5"/>
</g>
<!-- Node8 -->
<g id="node8" class="node"><title>Node8</title>
<g id="a_node8"><a xlink:href="../../d8/d65/classapplication_1_1_view_handler.html#aede07ea15df8a762813028bb80403e6b" target="_top" xlink:title="application.ViewHandler.\lViewHandler">
<polygon fill="white" stroke="black" points="592.5,-29 592.5,-59 725.5,-59 725.5,-29 592.5,-29"/>
<text text-anchor="start" x="600.5" y="-47" font-family="Helvetica,sans-Serif" font-size="10.00">application.ViewHandler.</text>
<text text-anchor="middle" x="659" y="-36" font-family="Helvetica,sans-Serif" font-size="10.00">ViewHandler</text>
</a>
</g>
</g>
<!-- Node7&#45;&gt;Node8 -->
<g id="edge7" class="edge"><title>Node7&#45;&gt;Node8</title>
<path fill="none" stroke="midnightblue" d="M504.962,-94.351C527.08,-85.9605 553.753,-76.1364 578,-68 587.073,-64.9554 596.785,-61.8855 606.204,-59.0057"/>
<polygon fill="midnightblue" stroke="midnightblue" points="503.561,-91.139 495.464,-97.9717 506.055,-97.6799 503.561,-91.139"/>
</g>
<!-- Node10 -->
<g id="node10" class="node"><title>Node10</title>
<g id="a_node10"><a xlink:href="../../d8/d65/classapplication_1_1_view_handler.html#a1a94c855ceb0e8ffb1f72f138addb75b" target="_top" xlink:title="application.ViewHandler.move\lTurtle">
<polygon fill="white" stroke="black" points="795,-223 795,-253 955,-253 955,-223 795,-223"/>
<text text-anchor="start" x="803" y="-241" font-family="Helvetica,sans-Serif" font-size="10.00">application.ViewHandler.move</text>
<text text-anchor="middle" x="875" y="-230" font-family="Helvetica,sans-Serif" font-size="10.00">Turtle</text>
</a>
</g>
</g>
<!-- Node9&#45;&gt;Node10 -->
<g id="edge9" class="edge"><title>Node9&#45;&gt;Node10</title>
<path fill="none" stroke="midnightblue" d="M530.766,-247.014C546.284,-249.922 562.614,-252.489 578,-254 649.655,-261.038 668.127,-258.276 740,-254 757.775,-252.943 776.806,-251.103 794.781,-249.038"/>
<polygon fill="midnightblue" stroke="midnightblue" points="531.187,-243.531 520.704,-245.062 529.854,-250.402 531.187,-243.531"/>
</g>
<!-- Node12 -->
<g id="node12" class="node"><title>Node12</title>
<g id="a_node12"><a xlink:href="../../d8/d65/classapplication_1_1_view_handler.html#a1aff135a076a9717102bb59ea613131c" target="_top" xlink:title="application.ViewHandler.change\lLocationOfTurtle">
<polygon fill="white" stroke="black" points="791,-155 791,-185 959,-185 959,-155 791,-155"/>
<text text-anchor="start" x="799" y="-173" font-family="Helvetica,sans-Serif" font-size="10.00">application.ViewHandler.change</text>
<text text-anchor="middle" x="875" y="-162" font-family="Helvetica,sans-Serif" font-size="10.00">LocationOfTurtle</text>
</a>
</g>
</g>
<!-- Node9&#45;&gt;Node12 -->
<g id="edge11" class="edge"><title>Node9&#45;&gt;Node12</title>
<path fill="none" stroke="midnightblue" d="M482.71,-208.412C505.93,-190.424 541.902,-166.163 578,-156 654.51,-134.459 746.482,-144.018 807.386,-154.984"/>
<polygon fill="midnightblue" stroke="midnightblue" points="480.418,-205.762 474.755,-214.717 484.766,-211.248 480.418,-205.762"/>
</g>
<!-- Node13 -->
<g id="node13" class="node"><title>Node13</title>
<g id="a_node13"><a xlink:href="../../d8/d65/classapplication_1_1_view_handler.html#a98b4ba09b3f3e8b1a7667db5598dbfb0" target="_top" xlink:title="application.ViewHandler.move\lTurtleImageAndDraw">
<polygon fill="white" stroke="black" points="579,-215 579,-245 739,-245 739,-215 579,-215"/>
<text text-anchor="start" x="587" y="-233" font-family="Helvetica,sans-Serif" font-size="10.00">application.ViewHandler.move</text>
<text text-anchor="middle" x="659" y="-222" font-family="Helvetica,sans-Serif" font-size="10.00">TurtleImageAndDraw</text>
</a>
</g>
</g>
<!-- Node9&#45;&gt;Node13 -->
<g id="edge14" class="edge"><title>Node9&#45;&gt;Node13</title>
<path fill="none" stroke="midnightblue" d="M549.741,-230C559.497,-230 569.352,-230 578.934,-230"/>
<polygon fill="midnightblue" stroke="midnightblue" points="549.625,-226.5 539.625,-230 549.624,-233.5 549.625,-226.5"/>
</g>
<!-- Node14 -->
<g id="node14" class="node"><title>Node14</title>
<g id="a_node14"><a xlink:href="../../d8/d65/classapplication_1_1_view_handler.html#abe68f02cdf0227b13568e1aaabf57e5c" target="_top" xlink:title="application.ViewHandler.rotate\lTurtle">
<polygon fill="white" stroke="black" points="578,-78 578,-108 740,-108 740,-78 578,-78"/>
<text text-anchor="start" x="586" y="-96" font-family="Helvetica,sans-Serif" font-size="10.00">application.ViewHandler.rotate</text>
<text text-anchor="middle" x="659" y="-85" font-family="Helvetica,sans-Serif" font-size="10.00">Turtle</text>
</a>
</g>
</g>
<!-- Node9&#45;&gt;Node14 -->
<g id="edge17" class="edge"><title>Node9&#45;&gt;Node14</title>
<path fill="none" stroke="midnightblue" d="M477.58,-207.448C500.242,-183.728 538.704,-146.631 578,-123 587.661,-117.19 598.637,-112.186 609.295,-108.021"/>
<polygon fill="midnightblue" stroke="midnightblue" points="474.832,-205.261 470.522,-214.94 479.927,-210.061 474.832,-205.261"/>
</g>
<!-- Node16 -->
<g id="node16" class="node"><title>Node16</title>
<g id="a_node16"><a xlink:href="../../d8/d65/classapplication_1_1_view_handler.html#af07eafb381b0ea9a1ce68f6ffe8a7428" target="_top" xlink:title="application.ViewHandler.set\lTurtleOrientation">
<polygon fill="white" stroke="black" points="585,-303 585,-333 733,-333 733,-303 585,-303"/>
<text text-anchor="start" x="593" y="-321" font-family="Helvetica,sans-Serif" font-size="10.00">application.ViewHandler.set</text>
<text text-anchor="middle" x="659" y="-310" font-family="Helvetica,sans-Serif" font-size="10.00">TurtleOrientation</text>
</a>
</g>
</g>
<!-- Node9&#45;&gt;Node16 -->
<g id="edge19" class="edge"><title>Node9&#45;&gt;Node16</title>
<path fill="none" stroke="midnightblue" d="M495.479,-249.515C519.062,-261.206 550,-276.067 578,-288 590.145,-293.176 603.514,-298.379 615.789,-302.965"/>
<polygon fill="midnightblue" stroke="midnightblue" points="497.012,-246.368 486.501,-245.041 493.89,-252.634 497.012,-246.368"/>
</g>
<!-- Node18 -->
<g id="node18" class="node"><title>Node18</title>
<g id="a_node18"><a xlink:href="../../d8/d65/classapplication_1_1_view_handler.html#a55d042c40e05453e3f5f6bc6c1c6e060" target="_top" xlink:title="application.ViewHandler.show\lTurtle">
<polygon fill="white" stroke="black" points="580.5,-166 580.5,-196 737.5,-196 737.5,-166 580.5,-166"/>
<text text-anchor="start" x="588.5" y="-184" font-family="Helvetica,sans-Serif" font-size="10.00">application.ViewHandler.show</text>
<text text-anchor="middle" x="659" y="-173" font-family="Helvetica,sans-Serif" font-size="10.00">Turtle</text>
</a>
</g>
</g>
<!-- Node9&#45;&gt;Node18 -->
<g id="edge23" class="edge"><title>Node9&#45;&gt;Node18</title>
<path fill="none" stroke="midnightblue" d="M528.391,-212.596C550.626,-207.176 574.942,-201.248 596.444,-196.006"/>
<polygon fill="midnightblue" stroke="midnightblue" points="527.559,-209.196 518.673,-214.965 529.217,-215.997 527.559,-209.196"/>
</g>
<!-- Node11 -->
<g id="node11" class="node"><title>Node11</title>
<g id="a_node11"><a xlink:href="../../dd/da6/classcommands_1_1view_commands_1_1turtle_commands_1_1_move.html#af95e8ccf5c290a4d06f79caf2deed407" target="_top" xlink:title="commands.viewCommands.turtle\lCommands.Move.changeLocation">
<polygon fill="white" stroke="black" points="1010.5,-223 1010.5,-253 1189.5,-253 1189.5,-223 1010.5,-223"/>
<text text-anchor="start" x="1018.5" y="-241" font-family="Helvetica,sans-Serif" font-size="10.00">commands.viewCommands.turtle</text>
<text text-anchor="middle" x="1100" y="-230" font-family="Helvetica,sans-Serif" font-size="10.00">Commands.Move.changeLocation</text>
</a>
</g>
</g>
<!-- Node10&#45;&gt;Node11 -->
<g id="edge10" class="edge"><title>Node10&#45;&gt;Node11</title>
<path fill="none" stroke="midnightblue" d="M965.362,-238C980.112,-238 995.401,-238 1010.14,-238"/>
<polygon fill="midnightblue" stroke="midnightblue" points="965.249,-234.5 955.249,-238 965.249,-241.5 965.249,-234.5"/>
</g>
<!-- Node12&#45;&gt;Node3 -->
<g id="edge12" class="edge"><title>Node12&#45;&gt;Node3</title>
<path fill="none" stroke="midnightblue" d="M969.4,-173.77C983.066,-174.321 997.104,-174.888 1010.66,-175.435"/>
<polygon fill="midnightblue" stroke="midnightblue" points="969.17,-170.257 959.037,-173.351 968.888,-177.252 969.17,-170.257"/>
</g>
<!-- Node12&#45;&gt;Node5 -->
<g id="edge13" class="edge"><title>Node12&#45;&gt;Node5</title>
<path fill="none" stroke="midnightblue" d="M919.177,-150.638C961.942,-131.461 1026.53,-102.498 1065.54,-85.0031"/>
<polygon fill="midnightblue" stroke="midnightblue" points="917.561,-147.527 909.869,-154.812 920.426,-153.914 917.561,-147.527"/>
</g>
<!-- Node13&#45;&gt;Node10 -->
<g id="edge15" class="edge"><title>Node13&#45;&gt;Node10</title>
<path fill="none" stroke="midnightblue" d="M749.432,-233.343C764.52,-233.907 780.088,-234.489 794.89,-235.043"/>
<polygon fill="midnightblue" stroke="midnightblue" points="749.201,-229.832 739.078,-232.956 748.94,-236.827 749.201,-229.832"/>
</g>
<!-- Node13&#45;&gt;Node12 -->
<g id="edge16" class="edge"><title>Node13&#45;&gt;Node12</title>
<path fill="none" stroke="midnightblue" d="M723.501,-212.196C754.289,-203.564 790.867,-193.308 820.253,-185.069"/>
<polygon fill="midnightblue" stroke="midnightblue" points="722.409,-208.867 713.725,-214.937 724.299,-215.607 722.409,-208.867"/>
</g>
<!-- Node15 -->
<g id="node15" class="node"><title>Node15</title>
<g id="a_node15"><a xlink:href="../../d3/dba/classcommands_1_1view_commands_1_1turtle_commands_1_1_rotate.html#a8ee301e936ff8d884357dccac52c2bfb" target="_top" xlink:title="commands.viewCommands.turtle\lCommands.Rotate.changeOrientation">
<polygon fill="white" stroke="black" points="776.5,-78 776.5,-108 973.5,-108 973.5,-78 776.5,-78"/>
<text text-anchor="start" x="784.5" y="-96" font-family="Helvetica,sans-Serif" font-size="10.00">commands.viewCommands.turtle</text>
<text text-anchor="middle" x="875" y="-85" font-family="Helvetica,sans-Serif" font-size="10.00">Commands.Rotate.changeOrientation</text>
</a>
</g>
</g>
<!-- Node14&#45;&gt;Node15 -->
<g id="edge18" class="edge"><title>Node14&#45;&gt;Node15</title>
<path fill="none" stroke="midnightblue" d="M750.296,-93C758.886,-93 767.623,-93 776.278,-93"/>
<polygon fill="midnightblue" stroke="midnightblue" points="750.295,-89.5001 740.295,-93 750.295,-96.5001 750.295,-89.5001"/>
</g>
<!-- Node16&#45;&gt;Node2 -->
<g id="edge20" class="edge"><title>Node16&#45;&gt;Node2</title>
<path fill="none" stroke="midnightblue" d="M699.549,-337.324C721.68,-347.643 749.976,-360.028 776,-369 786.458,-372.605 797.704,-375.95 808.716,-378.945"/>
<polygon fill="midnightblue" stroke="midnightblue" points="701.005,-334.141 690.467,-333.045 698.021,-340.473 701.005,-334.141"/>
</g>
<!-- Node16&#45;&gt;Node4 -->
<g id="edge22" class="edge"><title>Node16&#45;&gt;Node4</title>
<path fill="none" stroke="midnightblue" d="M743.111,-328.486C757.09,-330.25 771.643,-332.086 785.747,-333.865"/>
<polygon fill="midnightblue" stroke="midnightblue" points="743.408,-324.996 733.048,-327.216 742.531,-331.941 743.408,-324.996"/>
</g>
<!-- Node17 -->
<g id="node17" class="node"><title>Node17</title>
<g id="a_node17"><a xlink:href="../../df/ded/classcommands_1_1view_commands_1_1turtle_commands_1_1_set_heading.html#a3efffc1774ad2f0b23742a20789f0ee8" target="_top" xlink:title="commands.viewCommands.turtle\lCommands.SetHeading.execute">
<polygon fill="white" stroke="black" points="786,-281 786,-311 964,-311 964,-281 786,-281"/>
<text text-anchor="start" x="794" y="-299" font-family="Helvetica,sans-Serif" font-size="10.00">commands.viewCommands.turtle</text>
<text text-anchor="middle" x="875" y="-288" font-family="Helvetica,sans-Serif" font-size="10.00">Commands.SetHeading.execute</text>
</a>
</g>
</g>
<!-- Node16&#45;&gt;Node17 -->
<g id="edge21" class="edge"><title>Node16&#45;&gt;Node17</title>
<path fill="none" stroke="midnightblue" d="M743.111,-309.456C757.09,-308.019 771.643,-306.523 785.747,-305.073"/>
<polygon fill="midnightblue" stroke="midnightblue" points="742.638,-305.986 733.048,-310.49 743.354,-312.949 742.638,-305.986"/>
</g>
</g>
</svg>
        <g id="navigator" transform="translate(0 0)" fill="#404254">
                <rect fill="#f2f5e9" fill-opacity="0.5" stroke="#606060" stroke-width=".5" x="0" y="0" width="60" height="60"/>
                <use id="zoomplus" xlink:href="#zoomPlus" x="17" y="9" onmousedown="handleZoom(evt,'in')"/>
                <use id="zoomminus" xlink:href="#zoomMin" x="42" y="9" onmousedown="handleZoom(evt,'out')"/>
                <use id="reset" xlink:href="#resetDef" x="30" y="36" onmousedown="handleReset()"/>
                <g id="arrowUp" xlink:href="#dirArrow" transform="translate(30 24)" onmousedown="handlePan(0,-1)">
                  <use xlink:href="#rim" fill="#404040">
                        <set attributeName="fill" to="#808080" begin="arrowUp.mouseover" end="arrowUp.mouseout"/>
                  </use>
                  <path fill="none" stroke="white" stroke-width="1.5" d="M0,-3.0v7 M-2.5,-0.5L0,-3.0L2.5,-0.5"/>
                </g>
                <g id="arrowRight" xlink:href="#dirArrow" transform="rotate(90) translate(36 -43)" onmousedown="handlePan(1,0)">
                  <use xlink:href="#rim" fill="#404040">
                        <set attributeName="fill" to="#808080" begin="arrowRight.mouseover" end="arrowRight.mouseout"/>
                  </use>
                  <path fill="none" stroke="white" stroke-width="1.5" d="M0,-3.0v7 M-2.5,-0.5L0,-3.0L2.5,-0.5"/>
                </g>
                <g id="arrowDown" xlink:href="#dirArrow" transform="rotate(180) translate(-30 -48)" onmousedown="handlePan(0,1)">
                  <use xlink:href="#rim" fill="#404040">
                        <set attributeName="fill" to="#808080" begin="arrowDown.mouseover" end="arrowDown.mouseout"/>
                  </use>
                  <path fill="none" stroke="white" stroke-width="1.5" d="M0,-3.0v7 M-2.5,-0.5L0,-3.0L2.5,-0.5"/>
                </g>
                <g id="arrowLeft" xlink:href="#dirArrow" transform="rotate(270) translate(-36 17)" onmousedown="handlePan(-1,0)">
                  <use xlink:href="#rim" fill="#404040">
                        <set attributeName="fill" to="#808080" begin="arrowLeft.mouseover" end="arrowLeft.mouseout"/>
                  </use>
                  <path fill="none" stroke="white" stroke-width="1.5" d="M0,-3.0v7 M-2.5,-0.5L0,-3.0L2.5,-0.5"/>
                </g>
        </g>
        <svg viewBox="0 0 15 15" width="100%" height="30px" preserveAspectRatio="xMaxYMin meet">
         <g id="arrow_out" transform="scale(0.3 0.3)">
          <a xlink:href="classapplication_1_1_view_handler_a8a3722771a70075225d9c37dc1ff5e8d_icgraph_org.svg" target="_base">
           <rect id="button" ry="5" rx="5" y="6" x="6" height="38" width="38"
                fill="#f2f5e9" fill-opacity="0.5" stroke="#606060" stroke-width="1.0"/>
           <path id="arrow"
             d="M 11.500037,31.436501 C 11.940474,20.09759 22.043105,11.32322 32.158766,21.979434 L 37.068811,17.246167 C 37.068811,17.246167 37.088388,32 37.088388,32 L 22.160133,31.978069 C 22.160133,31.978069 26.997745,27.140456 26.997745,27.140456 C 18.528582,18.264221 13.291696,25.230495 11.500037,31.436501 z"
             style="fill:#404040;"/>
          </a>
         </g>
        </svg>
</svg>
