<?xml version="1.0" encoding="UTF-8" standalone="no"?>
<!DOCTYPE svg PUBLIC "-//W3C//DTD SVG 1.1//EN"
 "http://www.w3.org/Graphics/SVG/1.1/DTD/svg11.dtd">
<!-- Generated by graphviz version 2.36.0 (20140111.2315)
 -->
<!-- Title: application.ViewHandler.isVisible Pages: 1 -->
<svg width="1000pt" height="298pt"
 viewBox="0.00 0.00 1000.00 297.95" xmlns="http://www.w3.org/2000/svg" xmlns:xlink="http://www.w3.org/1999/xlink">
<g id="graph0" class="graph" transform="scale(1 1) rotate(0) translate(4 293.949)">
<title>application.ViewHandler.isVisible</title>
<polygon fill="white" stroke="none" points="-4,4 -4,-293.949 996,-293.949 996,4 -4,4"/>
<!-- Node1 -->
<g id="node1" class="node"><title>Node1</title>
<polygon fill="#bfbfbf" stroke="black" points="0,-165 0,-195 140,-195 140,-165 0,-165"/>
<text text-anchor="start" x="8" y="-183" font-family="Helvetica,sans-Serif" font-size="10.00">application.ViewHandler.is</text>
<text text-anchor="middle" x="70" y="-172" font-family="Helvetica,sans-Serif" font-size="10.00">Visible</text>
</g>
<!-- Node2 -->
<g id="node2" class="node"><title>Node2</title>
<g id="a_node2"><a xlink:href="../../d8/d65/classapplication_1_1_view_handler.html#ae489ceaa9b5ec67faf3ba22a11cec085" target="_top" xlink:title="application.ViewHandler.update\lTurtleOnView">
<polygon fill="white" stroke="black" points="176.5,-165 176.5,-195 343.5,-195 343.5,-165 176.5,-165"/>
<text text-anchor="start" x="184.5" y="-183" font-family="Helvetica,sans-Serif" font-size="10.00">application.ViewHandler.update</text>
<text text-anchor="middle" x="260" y="-172" font-family="Helvetica,sans-Serif" font-size="10.00">TurtleOnView</text>
</a>
</g>
</g>
<!-- Node1&#45;&gt;Node2 -->
<g id="edge1" class="edge"><title>Node1&#45;&gt;Node2</title>
<path fill="none" stroke="midnightblue" d="M150.211,-180C158.817,-180 167.594,-180 176.241,-180"/>
<polygon fill="midnightblue" stroke="midnightblue" points="150.203,-176.5 140.203,-180 150.203,-183.5 150.203,-176.5"/>
</g>
<!-- Node3 -->
<g id="node3" class="node"><title>Node3</title>
<g id="a_node3"><a xlink:href="../../d8/d65/classapplication_1_1_view_handler.html#a1a94c855ceb0e8ffb1f72f138addb75b" target="_top" xlink:title="application.ViewHandler.move\lTurtle">
<polygon fill="white" stroke="black" points="597,-258 597,-288 757,-288 757,-258 597,-258"/>
<text text-anchor="start" x="605" y="-276" font-family="Helvetica,sans-Serif" font-size="10.00">application.ViewHandler.move</text>
<text text-anchor="middle" x="677" y="-265" font-family="Helvetica,sans-Serif" font-size="10.00">Turtle</text>
</a>
</g>
</g>
<!-- Node2&#45;&gt;Node3 -->
<g id="edge2" class="edge"><title>Node2&#45;&gt;Node3</title>
<path fill="none" stroke="midnightblue" d="M281.688,-202.413C303.632,-224.401 340.527,-256.531 380,-270 450.404,-294.023 535.825,-291.838 596.772,-285.403"/>
<polygon fill="midnightblue" stroke="midnightblue" points="284.054,-199.827 274.569,-195.106 279.04,-204.711 284.054,-199.827"/>
</g>
<!-- Node5 -->
<g id="node5" class="node"><title>Node5</title>
<g id="a_node5"><a xlink:href="../../d8/d65/classapplication_1_1_view_handler.html#a1aff135a076a9717102bb59ea613131c" target="_top" xlink:title="application.ViewHandler.change\lLocationOfTurtle">
<polygon fill="white" stroke="black" points="593,-204 593,-234 761,-234 761,-204 593,-204"/>
<text text-anchor="start" x="601" y="-222" font-family="Helvetica,sans-Serif" font-size="10.00">application.ViewHandler.change</text>
<text text-anchor="middle" x="677" y="-211" font-family="Helvetica,sans-Serif" font-size="10.00">LocationOfTurtle</text>
</a>
</g>
</g>
<!-- Node2&#45;&gt;Node5 -->
<g id="edge4" class="edge"><title>Node2&#45;&gt;Node5</title>
<path fill="none" stroke="midnightblue" d="M354.35,-188.773C425.948,-195.501 523.871,-204.704 592.805,-211.182"/>
<polygon fill="midnightblue" stroke="midnightblue" points="354.268,-185.25 343.984,-187.798 353.613,-192.219 354.268,-185.25"/>
</g>
<!-- Node8 -->
<g id="node8" class="node"><title>Node8</title>
<g id="a_node8"><a xlink:href="../../d8/d65/classapplication_1_1_view_handler.html#a98b4ba09b3f3e8b1a7667db5598dbfb0" target="_top" xlink:title="application.ViewHandler.move\lTurtleImageAndDraw">
<polygon fill="white" stroke="black" points="381,-231 381,-261 541,-261 541,-231 381,-231"/>
<text text-anchor="start" x="389" y="-249" font-family="Helvetica,sans-Serif" font-size="10.00">application.ViewHandler.move</text>
<text text-anchor="middle" x="461" y="-238" font-family="Helvetica,sans-Serif" font-size="10.00">TurtleImageAndDraw</text>
</a>
</g>
</g>
<!-- Node2&#45;&gt;Node8 -->
<g id="edge7" class="edge"><title>Node2&#45;&gt;Node8</title>
<path fill="none" stroke="midnightblue" d="M316.426,-198.382C347.354,-208.64 385.402,-221.259 414.558,-230.929"/>
<polygon fill="midnightblue" stroke="midnightblue" points="317.248,-194.968 306.655,-195.142 315.044,-201.612 317.248,-194.968"/>
</g>
<!-- Node9 -->
<g id="node9" class="node"><title>Node9</title>
<g id="a_node9"><a xlink:href="../../d8/d65/classapplication_1_1_view_handler.html#abe68f02cdf0227b13568e1aaabf57e5c" target="_top" xlink:title="application.ViewHandler.rotate\lTurtle">
<polygon fill="white" stroke="black" points="380,-143 380,-173 542,-173 542,-143 380,-143"/>
<text text-anchor="start" x="388" y="-161" font-family="Helvetica,sans-Serif" font-size="10.00">application.ViewHandler.rotate</text>
<text text-anchor="middle" x="461" y="-150" font-family="Helvetica,sans-Serif" font-size="10.00">Turtle</text>
</a>
</g>
</g>
<!-- Node2&#45;&gt;Node9 -->
<g id="edge10" class="edge"><title>Node2&#45;&gt;Node9</title>
<path fill="none" stroke="midnightblue" d="M353.82,-169.739C362.51,-168.778 371.269,-167.809 379.83,-166.863"/>
<polygon fill="midnightblue" stroke="midnightblue" points="353.22,-166.283 343.665,-170.861 353.989,-173.241 353.22,-166.283"/>
</g>
<!-- Node11 -->
<g id="node11" class="node"><title>Node11</title>
<g id="a_node11"><a xlink:href="../../d8/d65/classapplication_1_1_view_handler.html#af07eafb381b0ea9a1ce68f6ffe8a7428" target="_top" xlink:title="application.ViewHandler.set\lTurtleOrientation">
<polygon fill="white" stroke="black" points="387,-94 387,-124 535,-124 535,-94 387,-94"/>
<text text-anchor="start" x="395" y="-112" font-family="Helvetica,sans-Serif" font-size="10.00">application.ViewHandler.set</text>
<text text-anchor="middle" x="461" y="-101" font-family="Helvetica,sans-Serif" font-size="10.00">TurtleOrientation</text>
</a>
</g>
</g>
<!-- Node2&#45;&gt;Node11 -->
<g id="edge12" class="edge"><title>Node2&#45;&gt;Node11</title>
<path fill="none" stroke="midnightblue" d="M306.342,-161.046C328.404,-152.093 355.412,-141.527 380,-133 388.768,-129.959 398.152,-126.939 407.296,-124.119"/>
<polygon fill="midnightblue" stroke="midnightblue" points="304.832,-157.883 296.897,-164.903 307.478,-164.363 304.832,-157.883"/>
</g>
<!-- Node15 -->
<g id="node15" class="node"><title>Node15</title>
<g id="a_node15"><a xlink:href="../../d8/d65/classapplication_1_1_view_handler.html#a55d042c40e05453e3f5f6bc6c1c6e060" target="_top" xlink:title="application.ViewHandler.show\lTurtle">
<polygon fill="white" stroke="black" points="382.5,-45 382.5,-75 539.5,-75 539.5,-45 382.5,-45"/>
<text text-anchor="start" x="390.5" y="-63" font-family="Helvetica,sans-Serif" font-size="10.00">application.ViewHandler.show</text>
<text text-anchor="middle" x="461" y="-52" font-family="Helvetica,sans-Serif" font-size="10.00">Turtle</text>
</a>
</g>
</g>
<!-- Node2&#45;&gt;Node15 -->
<g id="edge16" class="edge"><title>Node2&#45;&gt;Node15</title>
<path fill="none" stroke="midnightblue" d="M283.13,-157.666C305.697,-136.04 342.611,-103.71 380,-84 386.414,-80.619 393.374,-77.6431 400.422,-75.0432"/>
<polygon fill="midnightblue" stroke="midnightblue" points="280.494,-155.348 275.769,-164.831 285.377,-160.364 280.494,-155.348"/>
</g>
<!-- Node4 -->
<g id="node4" class="node"><title>Node4</title>
<g id="a_node4"><a xlink:href="../../dd/da6/classcommands_1_1view_commands_1_1turtle_commands_1_1_move.html#af95e8ccf5c290a4d06f79caf2deed407" target="_top" xlink:title="commands.viewCommands.turtle\lCommands.Move.changeLocation">
<polygon fill="white" stroke="black" points="812.5,-258 812.5,-288 991.5,-288 991.5,-258 812.5,-258"/>
<text text-anchor="start" x="820.5" y="-276" font-family="Helvetica,sans-Serif" font-size="10.00">commands.viewCommands.turtle</text>
<text text-anchor="middle" x="902" y="-265" font-family="Helvetica,sans-Serif" font-size="10.00">Commands.Move.changeLocation</text>
</a>
</g>
</g>
<!-- Node3&#45;&gt;Node4 -->
<g id="edge3" class="edge"><title>Node3&#45;&gt;Node4</title>
<path fill="none" stroke="midnightblue" d="M767.362,-273C782.112,-273 797.401,-273 812.139,-273"/>
<polygon fill="midnightblue" stroke="midnightblue" points="767.249,-269.5 757.249,-273 767.249,-276.5 767.249,-269.5"/>
</g>
<!-- Node6 -->
<g id="node6" class="node"><title>Node6</title>
<g id="a_node6"><a xlink:href="../../d5/de0/classcommands_1_1view_commands_1_1turtle_commands_1_1_clear_screen.html#ae547e4c170a1b6d41cdfc6c8bfe5e972" target="_top" xlink:title="commands.viewCommands.turtle\lCommands.ClearScreen.execute">
<polygon fill="white" stroke="black" points="813,-207 813,-237 991,-237 991,-207 813,-207"/>
<text text-anchor="start" x="821" y="-225" font-family="Helvetica,sans-Serif" font-size="10.00">commands.viewCommands.turtle</text>
<text text-anchor="middle" x="902" y="-214" font-family="Helvetica,sans-Serif" font-size="10.00">Commands.ClearScreen.execute</text>
</a>
</g>
</g>
<!-- Node5&#45;&gt;Node6 -->
<g id="edge5" class="edge"><title>Node5&#45;&gt;Node6</title>
<path fill="none" stroke="midnightblue" d="M771.4,-220.257C785.066,-220.44 799.104,-220.629 812.664,-220.812"/>
<polygon fill="midnightblue" stroke="midnightblue" points="771.083,-216.752 761.037,-220.117 770.989,-223.751 771.083,-216.752"/>
</g>
<!-- Node7 -->
<g id="node7" class="node"><title>Node7</title>
<g id="a_node7"><a xlink:href="../../dd/da6/classcommands_1_1view_commands_1_1turtle_commands_1_1_move.html#af4d9a4d9ade56b5e3a1e582bd891b7b5" target="_top" xlink:title="commands.viewCommands.turtle\lCommands.Move.goToLocation">
<polygon fill="white" stroke="black" points="813,-158 813,-188 991,-188 991,-158 813,-158"/>
<text text-anchor="start" x="821" y="-176" font-family="Helvetica,sans-Serif" font-size="10.00">commands.viewCommands.turtle</text>
<text text-anchor="middle" x="902" y="-165" font-family="Helvetica,sans-Serif" font-size="10.00">Commands.Move.goToLocation</text>
</a>
</g>
</g>
<!-- Node5&#45;&gt;Node7 -->
<g id="edge6" class="edge"><title>Node5&#45;&gt;Node7</title>
<path fill="none" stroke="midnightblue" d="M761.027,-201.873C783.083,-197.324 806.733,-192.445 828.198,-188.017"/>
<polygon fill="midnightblue" stroke="midnightblue" points="760.105,-198.49 751.019,-203.938 761.519,-205.345 760.105,-198.49"/>
</g>
<!-- Node8&#45;&gt;Node3 -->
<g id="edge8" class="edge"><title>Node8&#45;&gt;Node3</title>
<path fill="none" stroke="midnightblue" d="M551.432,-257.283C566.52,-259.187 582.088,-261.151 596.89,-263.019"/>
<polygon fill="midnightblue" stroke="midnightblue" points="551.437,-253.756 541.078,-255.977 550.561,-260.701 551.437,-253.756"/>
</g>
<!-- Node8&#45;&gt;Node5 -->
<g id="edge9" class="edge"><title>Node8&#45;&gt;Node5</title>
<path fill="none" stroke="midnightblue" d="M551.085,-234.76C564.947,-233.011 579.222,-231.21 592.944,-229.479"/>
<polygon fill="midnightblue" stroke="midnightblue" points="550.561,-231.299 541.078,-236.023 551.437,-238.244 550.561,-231.299"/>
</g>
<!-- Node10 -->
<g id="node10" class="node"><title>Node10</title>
<g id="a_node10"><a xlink:href="../../d3/dba/classcommands_1_1view_commands_1_1turtle_commands_1_1_rotate.html#a8ee301e936ff8d884357dccac52c2bfb" target="_top" xlink:title="commands.viewCommands.turtle\lCommands.Rotate.changeOrientation">
<polygon fill="white" stroke="black" points="578.5,-147 578.5,-177 775.5,-177 775.5,-147 578.5,-147"/>
<text text-anchor="start" x="586.5" y="-165" font-family="Helvetica,sans-Serif" font-size="10.00">commands.viewCommands.turtle</text>
<text text-anchor="middle" x="677" y="-154" font-family="Helvetica,sans-Serif" font-size="10.00">Commands.Rotate.changeOrientation</text>
</a>
</g>
</g>
<!-- Node9&#45;&gt;Node10 -->
<g id="edge11" class="edge"><title>Node9&#45;&gt;Node10</title>
<path fill="none" stroke="midnightblue" d="M552.296,-159.688C560.886,-159.848 569.623,-160.012 578.278,-160.173"/>
<polygon fill="midnightblue" stroke="midnightblue" points="552.358,-156.188 542.295,-159.501 552.227,-163.187 552.358,-156.188"/>
</g>
<!-- Node12 -->
<g id="node12" class="node"><title>Node12</title>
<g id="a_node12"><a xlink:href="../../df/d03/classcommands_1_1view_commands_1_1turtle_commands_1_1_go_towards_loc.html#a67f5f04ce72d0cd234d1e0a11e6d7c83" target="_top" xlink:title="commands.viewCommands.turtle\lCommands.GoTowardsLoc.execute">
<polygon fill="white" stroke="black" points="585,-98 585,-128 769,-128 769,-98 585,-98"/>
<text text-anchor="start" x="593" y="-116" font-family="Helvetica,sans-Serif" font-size="10.00">commands.viewCommands.turtle</text>
<text text-anchor="middle" x="677" y="-105" font-family="Helvetica,sans-Serif" font-size="10.00">Commands.GoTowardsLoc.execute</text>
</a>
</g>
</g>
<!-- Node11&#45;&gt;Node12 -->
<g id="edge13" class="edge"><title>Node11&#45;&gt;Node12</title>
<path fill="none" stroke="midnightblue" d="M545.297,-110.557C558.226,-110.799 571.642,-111.049 584.736,-111.294"/>
<polygon fill="midnightblue" stroke="midnightblue" points="545.112,-107.053 535.048,-110.365 544.981,-114.052 545.112,-107.053"/>
</g>
<!-- Node13 -->
<g id="node13" class="node"><title>Node13</title>
<g id="a_node13"><a xlink:href="../../df/ded/classcommands_1_1view_commands_1_1turtle_commands_1_1_set_heading.html#a3efffc1774ad2f0b23742a20789f0ee8" target="_top" xlink:title="commands.viewCommands.turtle\lCommands.SetHeading.execute">
<polygon fill="white" stroke="black" points="588,-49 588,-79 766,-79 766,-49 588,-49"/>
<text text-anchor="start" x="596" y="-67" font-family="Helvetica,sans-Serif" font-size="10.00">commands.viewCommands.turtle</text>
<text text-anchor="middle" x="677" y="-56" font-family="Helvetica,sans-Serif" font-size="10.00">Commands.SetHeading.execute</text>
</a>
</g>
</g>
<!-- Node11&#45;&gt;Node13 -->
<g id="edge14" class="edge"><title>Node11&#45;&gt;Node13</title>
<path fill="none" stroke="midnightblue" d="M543.599,-91.8414C563.654,-87.6241 584.973,-83.1411 604.511,-79.0327"/>
<polygon fill="midnightblue" stroke="midnightblue" points="542.622,-88.4701 533.556,-93.9531 544.063,-95.3203 542.622,-88.4701"/>
</g>
<!-- Node14 -->
<g id="node14" class="node"><title>Node14</title>
<g id="a_node14"><a xlink:href="../../d5/da3/classcommands_1_1view_commands_1_1turtle_commands_1_1_towards.html#abd6801c7d6d99e2cfa7f2a38b10a116a" target="_top" xlink:title="commands.viewCommands.turtle\lCommands.Towards.execute">
<polygon fill="white" stroke="black" points="588,-0 588,-30 766,-30 766,-0 588,-0"/>
<text text-anchor="start" x="596" y="-18" font-family="Helvetica,sans-Serif" font-size="10.00">commands.viewCommands.turtle</text>
<text text-anchor="middle" x="677" y="-7" font-family="Helvetica,sans-Serif" font-size="10.00">Commands.Towards.execute</text>
</a>
</g>
</g>
<!-- Node11&#45;&gt;Node14 -->
<g id="edge15" class="edge"><title>Node11&#45;&gt;Node14</title>
<path fill="none" stroke="midnightblue" d="M532.826,-89.522C536.011,-87.8266 539.088,-85.9896 542,-84 563.147,-69.5493 556.411,-52.7806 578,-39 583.315,-35.6071 589.074,-32.6939 595.046,-30.1924"/>
<polygon fill="midnightblue" stroke="midnightblue" points="531.118,-86.4591 523.61,-93.9342 534.141,-92.7728 531.118,-86.4591"/>
</g>
</g>
</svg>
