<?xml version="1.0" encoding="UTF-8" standalone="no"?>
<!DOCTYPE svg PUBLIC "-//W3C//DTD SVG 1.1//EN"
 "http://www.w3.org/Graphics/SVG/1.1/DTD/svg11.dtd">
<!-- Generated by graphviz version 2.36.0 (20140111.2315)
 -->
<!-- Title: application.ViewHandler.setTurtleOrientation Pages: 1 -->
<svg width="1116pt" height="362pt"
 viewBox="0.00 0.00 1116.00 362.00" xmlns="http://www.w3.org/2000/svg" xmlns:xlink="http://www.w3.org/1999/xlink">
<g id="graph0" class="graph" transform="scale(1 1) rotate(0) translate(4 358)">
<title>application.ViewHandler.setTurtleOrientation</title>
<polygon fill="white" stroke="none" points="-4,4 -4,-358 1112,-358 1112,4 -4,4"/>
<!-- Node1 -->
<g id="node1" class="node"><title>Node1</title>
<polygon fill="#bfbfbf" stroke="black" points="0,-143 0,-173 148,-173 148,-143 0,-143"/>
<text text-anchor="start" x="8" y="-161" font-family="Helvetica,sans-Serif" font-size="10.00">application.ViewHandler.set</text>
<text text-anchor="middle" x="74" y="-150" font-family="Helvetica,sans-Serif" font-size="10.00">TurtleOrientation</text>
</g>
<!-- Node2 -->
<g id="node2" class="node"><title>Node2</title>
<g id="a_node2"><a xlink:href="../../d1/d31/classapplication_1_1_turtle.html#a624c7cadd7e1f53652383f23c3db603e" target="_top" xlink:title="application.Turtle.setOrientation">
<polygon fill="white" stroke="black" points="184,-170.5 184,-189.5 352,-189.5 352,-170.5 184,-170.5"/>
<text text-anchor="middle" x="268" y="-177.5" font-family="Helvetica,sans-Serif" font-size="10.00">application.Turtle.setOrientation</text>
</a>
</g>
</g>
<!-- Node1&#45;&gt;Node2 -->
<g id="edge1" class="edge"><title>Node1&#45;&gt;Node2</title>
<path fill="none" stroke="midnightblue" d="M148.135,-166.38C156.513,-167.34 165.139,-168.328 173.735,-169.313"/>
<polygon fill="midnightblue" stroke="midnightblue" points="173.462,-172.805 183.796,-170.466 174.259,-165.85 173.462,-172.805"/>
</g>
<!-- Node3 -->
<g id="node3" class="node"><title>Node3</title>
<g id="a_node3"><a xlink:href="../../d8/d65/classapplication_1_1_view_handler.html#ae489ceaa9b5ec67faf3ba22a11cec085" target="_top" xlink:title="application.ViewHandler.update\lTurtleOnView">
<polygon fill="white" stroke="black" points="184.5,-121 184.5,-151 351.5,-151 351.5,-121 184.5,-121"/>
<text text-anchor="start" x="192.5" y="-139" font-family="Helvetica,sans-Serif" font-size="10.00">application.ViewHandler.update</text>
<text text-anchor="middle" x="268" y="-128" font-family="Helvetica,sans-Serif" font-size="10.00">TurtleOnView</text>
</a>
</g>
</g>
<!-- Node1&#45;&gt;Node3 -->
<g id="edge2" class="edge"><title>Node1&#45;&gt;Node3</title>
<path fill="none" stroke="midnightblue" d="M148.135,-149.62C156.758,-148.632 165.643,-147.614 174.489,-146.6"/>
<polygon fill="midnightblue" stroke="midnightblue" points="174.906,-150.075 184.443,-145.46 174.11,-143.121 174.906,-150.075"/>
</g>
<!-- Node4 -->
<g id="node4" class="node"><title>Node4</title>
<g id="a_node4"><a xlink:href="../../d8/d65/classapplication_1_1_view_handler.html#a308dcaf9847965fa4a3d261347845f56" target="_top" xlink:title="application.ViewHandler.set\lInfoParamsOfTurtleAndLine">
<polygon fill="white" stroke="black" points="388,-195 388,-225 536,-225 536,-195 388,-195"/>
<text text-anchor="start" x="396" y="-213" font-family="Helvetica,sans-Serif" font-size="10.00">application.ViewHandler.set</text>
<text text-anchor="middle" x="462" y="-202" font-family="Helvetica,sans-Serif" font-size="10.00">InfoParamsOfTurtleAndLine</text>
</a>
</g>
</g>
<!-- Node3&#45;&gt;Node4 -->
<g id="edge3" class="edge"><title>Node3&#45;&gt;Node4</title>
<path fill="none" stroke="midnightblue" d="M322.918,-151.128C332.672,-154.179 342.696,-157.524 352,-161 375.322,-169.713 400.729,-181.023 421.142,-190.582"/>
<polygon fill="midnightblue" stroke="midnightblue" points="419.9,-193.866 430.437,-194.975 422.891,-187.537 419.9,-193.866"/>
</g>
<!-- Node7 -->
<g id="node7" class="node"><title>Node7</title>
<g id="a_node7"><a xlink:href="../../d8/d65/classapplication_1_1_view_handler.html#a8a3722771a70075225d9c37dc1ff5e8d" target="_top" xlink:title="application.ViewHandler.get\lTurtleLocation">
<polygon fill="white" stroke="black" points="574.5,-315 574.5,-345 723.5,-345 723.5,-315 574.5,-315"/>
<text text-anchor="start" x="582.5" y="-333" font-family="Helvetica,sans-Serif" font-size="10.00">application.ViewHandler.get</text>
<text text-anchor="middle" x="649" y="-322" font-family="Helvetica,sans-Serif" font-size="10.00">TurtleLocation</text>
</a>
</g>
</g>
<!-- Node3&#45;&gt;Node7 -->
<g id="edge21" class="edge"><title>Node3&#45;&gt;Node7</title>
<path fill="none" stroke="midnightblue" d="M336.743,-151.052C342.221,-153.825 347.406,-157.11 352,-161 379.608,-184.377 361.297,-209.595 388,-234 437.004,-278.786 508.704,-303.181 564.405,-316.157"/>
<polygon fill="midnightblue" stroke="midnightblue" points="563.732,-319.593 574.256,-318.373 565.268,-312.764 563.732,-319.593"/>
</g>
<!-- Node9 -->
<g id="node9" class="node"><title>Node9</title>
<g id="a_node9"><a xlink:href="../../d8/d65/classapplication_1_1_view_handler.html#a8a00eb25a7f1d5e3ccc3059e8b717819" target="_top" xlink:title="application.ViewHandler.get\lTurtleOrientation">
<polygon fill="white" stroke="black" points="574.5,-129 574.5,-159 723.5,-159 723.5,-129 574.5,-129"/>
<text text-anchor="start" x="582.5" y="-147" font-family="Helvetica,sans-Serif" font-size="10.00">application.ViewHandler.get</text>
<text text-anchor="middle" x="649" y="-136" font-family="Helvetica,sans-Serif" font-size="10.00">TurtleOrientation</text>
</a>
</g>
</g>
<!-- Node3&#45;&gt;Node9 -->
<g id="edge22" class="edge"><title>Node3&#45;&gt;Node9</title>
<path fill="none" stroke="midnightblue" d="M351.705,-137.746C414.632,-139.074 500.888,-140.895 564.107,-142.229"/>
<polygon fill="midnightblue" stroke="midnightblue" points="564.371,-145.735 574.443,-142.447 564.519,-138.737 564.371,-145.735"/>
</g>
<!-- Node16 -->
<g id="node16" class="node"><title>Node16</title>
<g id="a_node16"><a xlink:href="../../d8/d65/classapplication_1_1_view_handler.html#a6f94dbee91670d4c9ae7164f61b8cd03" target="_top" xlink:title="application.ViewHandler.is\lVisible">
<polygon fill="white" stroke="black" points="392,-99 392,-129 532,-129 532,-99 392,-99"/>
<text text-anchor="start" x="400" y="-117" font-family="Helvetica,sans-Serif" font-size="10.00">application.ViewHandler.is</text>
<text text-anchor="middle" x="462" y="-106" font-family="Helvetica,sans-Serif" font-size="10.00">Visible</text>
</a>
</g>
</g>
<!-- Node3&#45;&gt;Node16 -->
<g id="edge15" class="edge"><title>Node3&#45;&gt;Node16</title>
<path fill="none" stroke="midnightblue" d="M351.54,-126.542C361.497,-125.401 371.651,-124.238 381.563,-123.102"/>
<polygon fill="midnightblue" stroke="midnightblue" points="382.249,-126.547 391.785,-121.931 381.452,-119.592 382.249,-126.547"/>
</g>
<!-- Node18 -->
<g id="node18" class="node"><title>Node18</title>
<g id="a_node18"><a xlink:href="../../df/dcc/classgui_1_1_turtle_view.html#afa73e516fcab92ab1c3a6941b6131cb5" target="_top" xlink:title="gui.TurtleView.showTurtle">
<polygon fill="white" stroke="black" points="395.5,-60.5 395.5,-79.5 528.5,-79.5 528.5,-60.5 395.5,-60.5"/>
<text text-anchor="middle" x="462" y="-67.5" font-family="Helvetica,sans-Serif" font-size="10.00">gui.TurtleView.showTurtle</text>
</a>
</g>
</g>
<!-- Node3&#45;&gt;Node18 -->
<g id="edge17" class="edge"><title>Node3&#45;&gt;Node18</title>
<path fill="none" stroke="midnightblue" d="M303.739,-120.985C327.257,-111.143 359.175,-98.4049 388,-89 395.353,-86.6008 403.199,-84.2973 410.919,-82.1731"/>
<polygon fill="midnightblue" stroke="midnightblue" points="411.83,-85.5526 420.584,-79.5845 410.019,-78.791 411.83,-85.5526"/>
</g>
<!-- Node19 -->
<g id="node19" class="node"><title>Node19</title>
<g id="a_node19"><a xlink:href="../../df/dcc/classgui_1_1_turtle_view.html#adcff447c1d488ddfd13d151067e6db7a" target="_top" xlink:title="gui.TurtleView.rotateAnd\lMoveTurtle">
<polygon fill="white" stroke="black" points="396.5,-11 396.5,-41 527.5,-41 527.5,-11 396.5,-11"/>
<text text-anchor="start" x="404.5" y="-29" font-family="Helvetica,sans-Serif" font-size="10.00">gui.TurtleView.rotateAnd</text>
<text text-anchor="middle" x="462" y="-18" font-family="Helvetica,sans-Serif" font-size="10.00">MoveTurtle</text>
</a>
</g>
</g>
<!-- Node3&#45;&gt;Node19 -->
<g id="edge18" class="edge"><title>Node3&#45;&gt;Node19</title>
<path fill="none" stroke="midnightblue" d="M286.877,-120.678C309.267,-102.113 349.393,-70.8591 388,-51 392.244,-48.817 396.72,-46.7574 401.282,-44.8292"/>
<polygon fill="midnightblue" stroke="midnightblue" points="402.732,-48.019 410.72,-41.0583 400.135,-41.5187 402.732,-48.019"/>
</g>
<!-- Node5 -->
<g id="node5" class="node"><title>Node5</title>
<g id="a_node5"><a xlink:href="../../df/dcb/classapplication_1_1_pen_handler.html#a8477a9a258753bb5538ad83a015fb731" target="_top" xlink:title="application.PenHandler.get\lPenStatus">
<polygon fill="white" stroke="black" points="576.5,-217 576.5,-247 721.5,-247 721.5,-217 576.5,-217"/>
<text text-anchor="start" x="584.5" y="-235" font-family="Helvetica,sans-Serif" font-size="10.00">application.PenHandler.get</text>
<text text-anchor="middle" x="649" y="-224" font-family="Helvetica,sans-Serif" font-size="10.00">PenStatus</text>
</a>
</g>
</g>
<!-- Node4&#45;&gt;Node5 -->
<g id="edge4" class="edge"><title>Node4&#45;&gt;Node5</title>
<path fill="none" stroke="midnightblue" d="M536.117,-218.695C546.04,-219.875 556.274,-221.092 566.336,-222.289"/>
<polygon fill="midnightblue" stroke="midnightblue" points="565.978,-225.771 576.321,-223.476 566.804,-218.82 565.978,-225.771"/>
</g>
<!-- Node4&#45;&gt;Node7 -->
<g id="edge6" class="edge"><title>Node4&#45;&gt;Node7</title>
<path fill="none" stroke="midnightblue" d="M481.867,-225.237C496.766,-237.395 517.975,-254.983 536,-271 552.452,-285.618 553.093,-293.736 572,-305 575.459,-307.061 579.108,-308.975 582.861,-310.75"/>
<polygon fill="midnightblue" stroke="midnightblue" points="581.788,-314.1 592.354,-314.879 584.58,-307.681 581.788,-314.1"/>
</g>
<!-- Node4&#45;&gt;Node9 -->
<g id="edge8" class="edge"><title>Node4&#45;&gt;Node9</title>
<path fill="none" stroke="midnightblue" d="M501.7,-194.992C522.466,-187.052 548.545,-177.265 572,-169 578.337,-166.767 584.993,-164.485 591.621,-162.253"/>
<polygon fill="midnightblue" stroke="midnightblue" points="592.896,-165.517 601.272,-159.029 590.678,-158.878 592.896,-165.517"/>
</g>
<!-- Node11 -->
<g id="node11" class="node"><title>Node11</title>
<g id="a_node11"><a xlink:href="../../df/dcb/classapplication_1_1_pen_handler.html#a518bb3076e4d9d105870b0778341a8c0" target="_top" xlink:title="application.PenHandler.set\lThicknessParameter">
<polygon fill="white" stroke="black" points="577,-266 577,-296 721,-296 721,-266 577,-266"/>
<text text-anchor="start" x="585" y="-284" font-family="Helvetica,sans-Serif" font-size="10.00">application.PenHandler.set</text>
<text text-anchor="middle" x="649" y="-273" font-family="Helvetica,sans-Serif" font-size="10.00">ThicknessParameter</text>
</a>
</g>
</g>
<!-- Node4&#45;&gt;Node11 -->
<g id="edge10" class="edge"><title>Node4&#45;&gt;Node11</title>
<path fill="none" stroke="midnightblue" d="M496.593,-225.014C517.998,-234.372 546.42,-246.413 572,-256 577.975,-258.239 584.253,-260.48 590.532,-262.649"/>
<polygon fill="midnightblue" stroke="midnightblue" points="589.764,-266.085 600.358,-265.989 592.017,-259.457 589.764,-266.085"/>
</g>
<!-- Node15 -->
<g id="node15" class="node"><title>Node15</title>
<g id="a_node15"><a xlink:href="../../df/dcc/classgui_1_1_turtle_view.html#a978020a0f6ccbc4714b77c71435b0799" target="_top" xlink:title="gui.TurtleView.setTurtleInfo">
<polygon fill="white" stroke="black" points="578.5,-178.5 578.5,-197.5 719.5,-197.5 719.5,-178.5 578.5,-178.5"/>
<text text-anchor="middle" x="649" y="-185.5" font-family="Helvetica,sans-Serif" font-size="10.00">gui.TurtleView.setTurtleInfo</text>
</a>
</g>
</g>
<!-- Node4&#45;&gt;Node15 -->
<g id="edge14" class="edge"><title>Node4&#45;&gt;Node15</title>
<path fill="none" stroke="midnightblue" d="M536.117,-201.305C546.679,-200.049 557.594,-198.751 568.277,-197.481"/>
<polygon fill="midnightblue" stroke="midnightblue" points="568.913,-200.93 578.43,-196.273 568.087,-193.979 568.913,-200.93"/>
</g>
<!-- Node6 -->
<g id="node6" class="node"><title>Node6</title>
<g id="a_node6"><a xlink:href="../../de/d5a/classapplication_1_1_pen.html#ab21d78789fb66a90181393d7cc42796c" target="_top" xlink:title="application.Pen.getStatus">
<polygon fill="white" stroke="black" points="777,-208.5 777,-227.5 917,-227.5 917,-208.5 777,-208.5"/>
<text text-anchor="middle" x="847" y="-215.5" font-family="Helvetica,sans-Serif" font-size="10.00">application.Pen.getStatus</text>
</a>
</g>
</g>
<!-- Node5&#45;&gt;Node6 -->
<g id="edge5" class="edge"><title>Node5&#45;&gt;Node6</title>
<path fill="none" stroke="midnightblue" d="M721.592,-226.886C736.253,-225.839 751.765,-224.731 766.679,-223.666"/>
<polygon fill="midnightblue" stroke="midnightblue" points="767.164,-227.14 776.89,-222.936 766.666,-220.158 767.164,-227.14"/>
</g>
<!-- Node8 -->
<g id="node8" class="node"><title>Node8</title>
<g id="a_node8"><a xlink:href="../../d1/d31/classapplication_1_1_turtle.html#a802873f2487ab3b6832050e1bef998a5" target="_top" xlink:title="application.Turtle.getLoc">
<polygon fill="white" stroke="black" points="781,-334.5 781,-353.5 913,-353.5 913,-334.5 781,-334.5"/>
<text text-anchor="middle" x="847" y="-341.5" font-family="Helvetica,sans-Serif" font-size="10.00">application.Turtle.getLoc</text>
</a>
</g>
</g>
<!-- Node7&#45;&gt;Node8 -->
<g id="edge7" class="edge"><title>Node7&#45;&gt;Node8</title>
<path fill="none" stroke="midnightblue" d="M723.541,-335.253C738.956,-336.354 755.234,-337.517 770.712,-338.622"/>
<polygon fill="midnightblue" stroke="midnightblue" points="770.527,-342.118 780.751,-339.339 771.026,-335.136 770.527,-342.118"/>
</g>
<!-- Node10 -->
<g id="node10" class="node"><title>Node10</title>
<g id="a_node10"><a xlink:href="../../d1/d31/classapplication_1_1_turtle.html#af22147e198fac9068726b95eea235739" target="_top" xlink:title="application.Turtle.getOrientation">
<polygon fill="white" stroke="black" points="762.5,-134.5 762.5,-153.5 931.5,-153.5 931.5,-134.5 762.5,-134.5"/>
<text text-anchor="middle" x="847" y="-141.5" font-family="Helvetica,sans-Serif" font-size="10.00">application.Turtle.getOrientation</text>
</a>
</g>
</g>
<!-- Node9&#45;&gt;Node10 -->
<g id="edge9" class="edge"><title>Node9&#45;&gt;Node10</title>
<path fill="none" stroke="midnightblue" d="M723.541,-144C732.973,-144 742.729,-144 752.426,-144"/>
<polygon fill="midnightblue" stroke="midnightblue" points="752.495,-147.5 762.495,-144 752.495,-140.5 752.495,-147.5"/>
</g>
<!-- Node12 -->
<g id="node12" class="node"><title>Node12</title>
<g id="a_node12"><a xlink:href="../../df/dcb/classapplication_1_1_pen_handler.html#a307ff6736f97a1aa1706da924d7e642b" target="_top" xlink:title="application.PenHandler.get\lPenWeight">
<polygon fill="white" stroke="black" points="774.5,-247 774.5,-277 919.5,-277 919.5,-247 774.5,-247"/>
<text text-anchor="start" x="782.5" y="-265" font-family="Helvetica,sans-Serif" font-size="10.00">application.PenHandler.get</text>
<text text-anchor="middle" x="847" y="-254" font-family="Helvetica,sans-Serif" font-size="10.00">PenWeight</text>
</a>
</g>
</g>
<!-- Node11&#45;&gt;Node12 -->
<g id="edge11" class="edge"><title>Node11&#45;&gt;Node12</title>
<path fill="none" stroke="midnightblue" d="M721.038,-274.114C734.966,-272.763 749.683,-271.337 763.938,-269.955"/>
<polygon fill="midnightblue" stroke="midnightblue" points="764.602,-273.407 774.218,-268.958 763.927,-266.44 764.602,-273.407"/>
</g>
<!-- Node14 -->
<g id="node14" class="node"><title>Node14</title>
<g id="a_node14"><a xlink:href="../../d8/ddb/classgui_1_1_line_view.html#ab32d4cf33024aea52dcb5d1092003d85" target="_top" xlink:title="gui.LineView.setThickness">
<polygon fill="white" stroke="black" points="777.5,-296.5 777.5,-315.5 916.5,-315.5 916.5,-296.5 777.5,-296.5"/>
<text text-anchor="middle" x="847" y="-303.5" font-family="Helvetica,sans-Serif" font-size="10.00">gui.LineView.setThickness</text>
</a>
</g>
</g>
<!-- Node11&#45;&gt;Node14 -->
<g id="edge13" class="edge"><title>Node11&#45;&gt;Node14</title>
<path fill="none" stroke="midnightblue" d="M721.038,-290.061C736.136,-291.987 752.159,-294.031 767.517,-295.989"/>
<polygon fill="midnightblue" stroke="midnightblue" points="767.134,-299.469 777.496,-297.262 768.019,-292.525 767.134,-299.469"/>
</g>
<!-- Node13 -->
<g id="node13" class="node"><title>Node13</title>
<g id="a_node13"><a xlink:href="../../de/d5a/classapplication_1_1_pen.html#aaaae5f55fadb97afef2ae286a6119a58" target="_top" xlink:title="application.Pen.getWeight">
<polygon fill="white" stroke="black" points="968,-252.5 968,-271.5 1108,-271.5 1108,-252.5 968,-252.5"/>
<text text-anchor="middle" x="1038" y="-259.5" font-family="Helvetica,sans-Serif" font-size="10.00">application.Pen.getWeight</text>
</a>
</g>
</g>
<!-- Node12&#45;&gt;Node13 -->
<g id="edge12" class="edge"><title>Node12&#45;&gt;Node13</title>
<path fill="none" stroke="midnightblue" d="M919.722,-262C932.165,-262 945.167,-262 957.795,-262"/>
<polygon fill="midnightblue" stroke="midnightblue" points="957.825,-265.5 967.825,-262 957.825,-258.5 957.825,-265.5"/>
</g>
<!-- Node17 -->
<g id="node17" class="node"><title>Node17</title>
<g id="a_node17"><a xlink:href="../../d1/d31/classapplication_1_1_turtle.html#a75e592fccb8420e254ba668429797898" target="_top" xlink:title="application.Turtle.getVisibility">
<polygon fill="white" stroke="black" points="572,-90.5 572,-109.5 726,-109.5 726,-90.5 572,-90.5"/>
<text text-anchor="middle" x="649" y="-97.5" font-family="Helvetica,sans-Serif" font-size="10.00">application.Turtle.getVisibility</text>
</a>
</g>
</g>
<!-- Node16&#45;&gt;Node17 -->
<g id="edge16" class="edge"><title>Node16&#45;&gt;Node17</title>
<path fill="none" stroke="midnightblue" d="M532.15,-108.767C541.748,-108.041 551.704,-107.287 561.568,-106.541"/>
<polygon fill="midnightblue" stroke="midnightblue" points="562.088,-110.012 571.795,-105.767 561.559,-103.032 562.088,-110.012"/>
</g>
<!-- Node20 -->
<g id="node20" class="node"><title>Node20</title>
<g id="a_node20"><a xlink:href="../../df/dcc/classgui_1_1_turtle_view.html#ab9b87d12b06bce95f2b32ee05a89e7d6" target="_top" xlink:title="gui.TurtleView.rotate">
<polygon fill="white" stroke="black" points="592.5,-38.5 592.5,-57.5 705.5,-57.5 705.5,-38.5 592.5,-38.5"/>
<text text-anchor="middle" x="649" y="-45.5" font-family="Helvetica,sans-Serif" font-size="10.00">gui.TurtleView.rotate</text>
</a>
</g>
</g>
<!-- Node19&#45;&gt;Node20 -->
<g id="edge19" class="edge"><title>Node19&#45;&gt;Node20</title>
<path fill="none" stroke="midnightblue" d="M527.704,-33.6945C545.299,-35.7869 564.372,-38.0551 582.036,-40.1556"/>
<polygon fill="midnightblue" stroke="midnightblue" points="581.907,-43.6649 592.251,-41.3704 582.734,-36.7139 581.907,-43.6649"/>
</g>
<!-- Node21 -->
<g id="node21" class="node"><title>Node21</title>
<g id="a_node21"><a xlink:href="../../d8/d8b/classgui_1_1_view.html#a9df94efe60af56c89531c45f0f3f9624" target="_top" xlink:title="gui.View.setNewPoint">
<polygon fill="white" stroke="black" points="590.5,-0.5 590.5,-19.5 707.5,-19.5 707.5,-0.5 590.5,-0.5"/>
<text text-anchor="middle" x="649" y="-7.5" font-family="Helvetica,sans-Serif" font-size="10.00">gui.View.setNewPoint</text>
</a>
</g>
</g>
<!-- Node19&#45;&gt;Node21 -->
<g id="edge20" class="edge"><title>Node19&#45;&gt;Node21</title>
<path fill="none" stroke="midnightblue" d="M527.704,-20.404C544.776,-18.9275 563.241,-17.3306 580.458,-15.8415"/>
<polygon fill="midnightblue" stroke="midnightblue" points="580.77,-19.3276 590.432,-14.9789 580.167,-12.3537 580.77,-19.3276"/>
</g>
</g>
</svg>
