<?xml version="1.0" encoding="UTF-8" standalone="no"?>
<!DOCTYPE svg PUBLIC "-//W3C//DTD SVG 1.1//EN"
 "http://www.w3.org/Graphics/SVG/1.1/DTD/svg11.dtd">
<!-- Generated by graphviz version 2.36.0 (20140111.2315)
 -->
<!-- Title: application.ViewHandler.updateTurtleOnView Pages: 1 -->
<svg width="932pt" height="338pt"
 viewBox="0.00 0.00 932.00 338.00" xmlns="http://www.w3.org/2000/svg" xmlns:xlink="http://www.w3.org/1999/xlink">
<g id="graph0" class="graph" transform="scale(1 1) rotate(0) translate(4 334)">
<title>application.ViewHandler.updateTurtleOnView</title>
<polygon fill="white" stroke="none" points="-4,4 -4,-334 928,-334 928,4 -4,4"/>
<!-- Node1 -->
<g id="node1" class="node"><title>Node1</title>
<polygon fill="#bfbfbf" stroke="black" points="0.5,-151 0.5,-181 167.5,-181 167.5,-151 0.5,-151"/>
<text text-anchor="start" x="8.5" y="-169" font-family="Helvetica,sans-Serif" font-size="10.00">application.ViewHandler.update</text>
<text text-anchor="middle" x="84" y="-158" font-family="Helvetica,sans-Serif" font-size="10.00">TurtleOnView</text>
</g>
<!-- Node2 -->
<g id="node2" class="node"><title>Node2</title>
<g id="a_node2"><a xlink:href="../../d8/d65/classapplication_1_1_view_handler.html#a8a3722771a70075225d9c37dc1ff5e8d" target="_top" xlink:title="application.ViewHandler.get\lTurtleLocation">
<polygon fill="white" stroke="black" points="390.5,-300 390.5,-330 539.5,-330 539.5,-300 390.5,-300"/>
<text text-anchor="start" x="398.5" y="-318" font-family="Helvetica,sans-Serif" font-size="10.00">application.ViewHandler.get</text>
<text text-anchor="middle" x="465" y="-307" font-family="Helvetica,sans-Serif" font-size="10.00">TurtleLocation</text>
</a>
</g>
</g>
<!-- Node1&#45;&gt;Node2 -->
<g id="edge1" class="edge"><title>Node1&#45;&gt;Node2</title>
<path fill="none" stroke="midnightblue" d="M99.5933,-181.32C120.613,-202.43 161.571,-240.102 204,-260 259.627,-286.087 327.736,-299.917 380.288,-307.182"/>
<polygon fill="midnightblue" stroke="midnightblue" points="379.873,-310.658 390.247,-308.506 380.796,-303.719 379.873,-310.658"/>
</g>
<!-- Node4 -->
<g id="node4" class="node"><title>Node4</title>
<g id="a_node4"><a xlink:href="../../d8/d65/classapplication_1_1_view_handler.html#a8a00eb25a7f1d5e3ccc3059e8b717819" target="_top" xlink:title="application.ViewHandler.get\lTurtleOrientation">
<polygon fill="white" stroke="black" points="390.5,-251 390.5,-281 539.5,-281 539.5,-251 390.5,-251"/>
<text text-anchor="start" x="398.5" y="-269" font-family="Helvetica,sans-Serif" font-size="10.00">application.ViewHandler.get</text>
<text text-anchor="middle" x="465" y="-258" font-family="Helvetica,sans-Serif" font-size="10.00">TurtleOrientation</text>
</a>
</g>
</g>
<!-- Node1&#45;&gt;Node4 -->
<g id="edge3" class="edge"><title>Node1&#45;&gt;Node4</title>
<path fill="none" stroke="midnightblue" d="M106.223,-181.032C129.182,-196.489 167.425,-219.952 204,-232 261.054,-250.794 328.369,-259.246 380.208,-263.025"/>
<polygon fill="midnightblue" stroke="midnightblue" points="380.147,-266.529 390.362,-263.72 380.625,-259.546 380.147,-266.529"/>
</g>
<!-- Node6 -->
<g id="node6" class="node"><title>Node6</title>
<g id="a_node6"><a xlink:href="../../d8/d65/classapplication_1_1_view_handler.html#a6f94dbee91670d4c9ae7164f61b8cd03" target="_top" xlink:title="application.ViewHandler.is\lVisible">
<polygon fill="white" stroke="black" points="208,-109 208,-139 348,-139 348,-109 208,-109"/>
<text text-anchor="start" x="216" y="-127" font-family="Helvetica,sans-Serif" font-size="10.00">application.ViewHandler.is</text>
<text text-anchor="middle" x="278" y="-116" font-family="Helvetica,sans-Serif" font-size="10.00">Visible</text>
</a>
</g>
</g>
<!-- Node1&#45;&gt;Node6 -->
<g id="edge5" class="edge"><title>Node1&#45;&gt;Node6</title>
<path fill="none" stroke="midnightblue" d="M153.774,-150.956C168.2,-147.8 183.519,-144.449 198.275,-141.221"/>
<polygon fill="midnightblue" stroke="midnightblue" points="199.363,-144.566 208.384,-139.01 197.867,-137.728 199.363,-144.566"/>
</g>
<!-- Node8 -->
<g id="node8" class="node"><title>Node8</title>
<g id="a_node8"><a xlink:href="../../df/dcc/classgui_1_1_turtle_view.html#adcff447c1d488ddfd13d151067e6db7a" target="_top" xlink:title="gui.TurtleView.rotateAnd\lMoveTurtle">
<polygon fill="white" stroke="black" points="212.5,-42 212.5,-72 343.5,-72 343.5,-42 212.5,-42"/>
<text text-anchor="start" x="220.5" y="-60" font-family="Helvetica,sans-Serif" font-size="10.00">gui.TurtleView.rotateAnd</text>
<text text-anchor="middle" x="278" y="-49" font-family="Helvetica,sans-Serif" font-size="10.00">MoveTurtle</text>
</a>
</g>
</g>
<!-- Node1&#45;&gt;Node8 -->
<g id="edge7" class="edge"><title>Node1&#45;&gt;Node8</title>
<path fill="none" stroke="midnightblue" d="M111.697,-150.844C145.513,-131.646 203.896,-98.502 241.457,-77.1782"/>
<polygon fill="midnightblue" stroke="midnightblue" points="243.562,-80.008 250.53,-72.0273 240.106,-73.9206 243.562,-80.008"/>
</g>
<!-- Node11 -->
<g id="node11" class="node"><title>Node11</title>
<g id="a_node11"><a xlink:href="../../d8/d65/classapplication_1_1_view_handler.html#a308dcaf9847965fa4a3d261347845f56" target="_top" xlink:title="application.ViewHandler.set\lInfoParamsOfTurtleAndLine">
<polygon fill="white" stroke="black" points="204,-193 204,-223 352,-223 352,-193 204,-193"/>
<text text-anchor="start" x="212" y="-211" font-family="Helvetica,sans-Serif" font-size="10.00">application.ViewHandler.set</text>
<text text-anchor="middle" x="278" y="-200" font-family="Helvetica,sans-Serif" font-size="10.00">InfoParamsOfTurtleAndLine</text>
</a>
</g>
</g>
<!-- Node1&#45;&gt;Node11 -->
<g id="edge10" class="edge"><title>Node1&#45;&gt;Node11</title>
<path fill="none" stroke="midnightblue" d="M153.774,-181.044C168.2,-184.2 183.519,-187.551 198.275,-190.779"/>
<polygon fill="midnightblue" stroke="midnightblue" points="197.867,-194.272 208.384,-192.99 199.363,-187.434 197.867,-194.272"/>
</g>
<!-- Node19 -->
<g id="node19" class="node"><title>Node19</title>
<g id="a_node19"><a xlink:href="../../df/dcc/classgui_1_1_turtle_view.html#afa73e516fcab92ab1c3a6941b6131cb5" target="_top" xlink:title="gui.TurtleView.showTurtle">
<polygon fill="white" stroke="black" points="211.5,-3.5 211.5,-22.5 344.5,-22.5 344.5,-3.5 211.5,-3.5"/>
<text text-anchor="middle" x="278" y="-10.5" font-family="Helvetica,sans-Serif" font-size="10.00">gui.TurtleView.showTurtle</text>
</a>
</g>
</g>
<!-- Node1&#45;&gt;Node19 -->
<g id="edge20" class="edge"><title>Node1&#45;&gt;Node19</title>
<path fill="none" stroke="midnightblue" d="M94.0426,-150.913C111.593,-122.977 153.061,-63.2047 204,-32 207.58,-29.8067 211.409,-27.8647 215.368,-26.1455"/>
<polygon fill="midnightblue" stroke="midnightblue" points="216.707,-29.3807 224.784,-22.5251 214.194,-22.8469 216.707,-29.3807"/>
</g>
<!-- Node3 -->
<g id="node3" class="node"><title>Node3</title>
<g id="a_node3"><a xlink:href="../../d1/d31/classapplication_1_1_turtle.html#a802873f2487ab3b6832050e1bef998a5" target="_top" xlink:title="application.Turtle.getLoc">
<polygon fill="white" stroke="black" points="597,-305.5 597,-324.5 729,-324.5 729,-305.5 597,-305.5"/>
<text text-anchor="middle" x="663" y="-312.5" font-family="Helvetica,sans-Serif" font-size="10.00">application.Turtle.getLoc</text>
</a>
</g>
</g>
<!-- Node2&#45;&gt;Node3 -->
<g id="edge2" class="edge"><title>Node2&#45;&gt;Node3</title>
<path fill="none" stroke="midnightblue" d="M539.541,-315C554.956,-315 571.234,-315 586.712,-315"/>
<polygon fill="midnightblue" stroke="midnightblue" points="586.751,-318.5 596.751,-315 586.751,-311.5 586.751,-318.5"/>
</g>
<!-- Node5 -->
<g id="node5" class="node"><title>Node5</title>
<g id="a_node5"><a xlink:href="../../d1/d31/classapplication_1_1_turtle.html#af22147e198fac9068726b95eea235739" target="_top" xlink:title="application.Turtle.getOrientation">
<polygon fill="white" stroke="black" points="578.5,-256.5 578.5,-275.5 747.5,-275.5 747.5,-256.5 578.5,-256.5"/>
<text text-anchor="middle" x="663" y="-263.5" font-family="Helvetica,sans-Serif" font-size="10.00">application.Turtle.getOrientation</text>
</a>
</g>
</g>
<!-- Node4&#45;&gt;Node5 -->
<g id="edge4" class="edge"><title>Node4&#45;&gt;Node5</title>
<path fill="none" stroke="midnightblue" d="M539.541,-266C548.973,-266 558.729,-266 568.426,-266"/>
<polygon fill="midnightblue" stroke="midnightblue" points="568.495,-269.5 578.495,-266 568.495,-262.5 568.495,-269.5"/>
</g>
<!-- Node7 -->
<g id="node7" class="node"><title>Node7</title>
<g id="a_node7"><a xlink:href="../../d1/d31/classapplication_1_1_turtle.html#a75e592fccb8420e254ba668429797898" target="_top" xlink:title="application.Turtle.getVisibility">
<polygon fill="white" stroke="black" points="388,-76.5 388,-95.5 542,-95.5 542,-76.5 388,-76.5"/>
<text text-anchor="middle" x="465" y="-83.5" font-family="Helvetica,sans-Serif" font-size="10.00">application.Turtle.getVisibility</text>
</a>
</g>
</g>
<!-- Node6&#45;&gt;Node7 -->
<g id="edge6" class="edge"><title>Node6&#45;&gt;Node7</title>
<path fill="none" stroke="midnightblue" d="M348.15,-109.796C367.811,-105.758 388.978,-101.41 407.771,-97.5497"/>
<polygon fill="midnightblue" stroke="midnightblue" points="408.56,-100.961 417.651,-95.5202 407.152,-94.1039 408.56,-100.961"/>
</g>
<!-- Node9 -->
<g id="node9" class="node"><title>Node9</title>
<g id="a_node9"><a xlink:href="../../df/dcc/classgui_1_1_turtle_view.html#ab9b87d12b06bce95f2b32ee05a89e7d6" target="_top" xlink:title="gui.TurtleView.rotate">
<polygon fill="white" stroke="black" points="408.5,-38.5 408.5,-57.5 521.5,-57.5 521.5,-38.5 408.5,-38.5"/>
<text text-anchor="middle" x="465" y="-45.5" font-family="Helvetica,sans-Serif" font-size="10.00">gui.TurtleView.rotate</text>
</a>
</g>
</g>
<!-- Node8&#45;&gt;Node9 -->
<g id="edge8" class="edge"><title>Node8&#45;&gt;Node9</title>
<path fill="none" stroke="midnightblue" d="M343.704,-53.8522C361.299,-52.9963 380.372,-52.0684 398.036,-51.2091"/>
<polygon fill="midnightblue" stroke="midnightblue" points="398.433,-54.694 408.251,-50.7121 398.093,-47.7023 398.433,-54.694"/>
</g>
<!-- Node10 -->
<g id="node10" class="node"><title>Node10</title>
<g id="a_node10"><a xlink:href="../../d8/d8b/classgui_1_1_view.html#a9df94efe60af56c89531c45f0f3f9624" target="_top" xlink:title="gui.View.setNewPoint">
<polygon fill="white" stroke="black" points="406.5,-0.5 406.5,-19.5 523.5,-19.5 523.5,-0.5 406.5,-0.5"/>
<text text-anchor="middle" x="465" y="-7.5" font-family="Helvetica,sans-Serif" font-size="10.00">gui.View.setNewPoint</text>
</a>
</g>
</g>
<!-- Node8&#45;&gt;Node10 -->
<g id="edge9" class="edge"><title>Node8&#45;&gt;Node10</title>
<path fill="none" stroke="midnightblue" d="M337.247,-41.9632C353.656,-37.7473 371.523,-33.1759 388,-29 397.004,-26.718 406.613,-24.3013 415.863,-21.9842"/>
<polygon fill="midnightblue" stroke="midnightblue" points="416.863,-25.3422 425.715,-19.5201 415.164,-18.5514 416.863,-25.3422"/>
</g>
<!-- Node11&#45;&gt;Node2 -->
<g id="edge13" class="edge"><title>Node11&#45;&gt;Node2</title>
<path fill="none" stroke="midnightblue" d="M295.558,-223.234C315.959,-241.317 352.318,-271.361 388,-290 392.24,-292.215 396.714,-294.286 401.283,-296.212"/>
<polygon fill="midnightblue" stroke="midnightblue" points="400.164,-299.534 410.75,-299.962 402.742,-293.026 400.164,-299.534"/>
</g>
<!-- Node11&#45;&gt;Node4 -->
<g id="edge14" class="edge"><title>Node11&#45;&gt;Node4</title>
<path fill="none" stroke="midnightblue" d="M327.124,-223.087C351.426,-230.707 381.085,-240.005 406.573,-247.996"/>
<polygon fill="midnightblue" stroke="midnightblue" points="405.528,-251.336 416.117,-250.988 407.622,-244.657 405.528,-251.336"/>
</g>
<!-- Node12 -->
<g id="node12" class="node"><title>Node12</title>
<g id="a_node12"><a xlink:href="../../df/dcb/classapplication_1_1_pen_handler.html#a8477a9a258753bb5538ad83a015fb731" target="_top" xlink:title="application.PenHandler.get\lPenStatus">
<polygon fill="white" stroke="black" points="392.5,-202 392.5,-232 537.5,-232 537.5,-202 392.5,-202"/>
<text text-anchor="start" x="400.5" y="-220" font-family="Helvetica,sans-Serif" font-size="10.00">application.PenHandler.get</text>
<text text-anchor="middle" x="465" y="-209" font-family="Helvetica,sans-Serif" font-size="10.00">PenStatus</text>
</a>
</g>
</g>
<!-- Node11&#45;&gt;Node12 -->
<g id="edge11" class="edge"><title>Node11&#45;&gt;Node12</title>
<path fill="none" stroke="midnightblue" d="M352.117,-211.557C361.937,-212.035 372.061,-212.527 382.021,-213.012"/>
<polygon fill="midnightblue" stroke="midnightblue" points="382.163,-216.523 392.321,-213.513 382.503,-209.531 382.163,-216.523"/>
</g>
<!-- Node14 -->
<g id="node14" class="node"><title>Node14</title>
<g id="a_node14"><a xlink:href="../../df/dcb/classapplication_1_1_pen_handler.html#a518bb3076e4d9d105870b0778341a8c0" target="_top" xlink:title="application.PenHandler.set\lThicknessParameter">
<polygon fill="white" stroke="black" points="393,-153 393,-183 537,-183 537,-153 393,-153"/>
<text text-anchor="start" x="401" y="-171" font-family="Helvetica,sans-Serif" font-size="10.00">application.PenHandler.set</text>
<text text-anchor="middle" x="465" y="-160" font-family="Helvetica,sans-Serif" font-size="10.00">ThicknessParameter</text>
</a>
</g>
</g>
<!-- Node11&#45;&gt;Node14 -->
<g id="edge15" class="edge"><title>Node11&#45;&gt;Node14</title>
<path fill="none" stroke="midnightblue" d="M348.414,-192.992C360.188,-190.446 372.496,-187.785 384.506,-185.188"/>
<polygon fill="midnightblue" stroke="midnightblue" points="385.471,-188.56 394.505,-183.026 383.991,-181.718 385.471,-188.56"/>
</g>
<!-- Node18 -->
<g id="node18" class="node"><title>Node18</title>
<g id="a_node18"><a xlink:href="../../df/dcc/classgui_1_1_turtle_view.html#a978020a0f6ccbc4714b77c71435b0799" target="_top" xlink:title="gui.TurtleView.setTurtleInfo">
<polygon fill="white" stroke="black" points="394.5,-114.5 394.5,-133.5 535.5,-133.5 535.5,-114.5 394.5,-114.5"/>
<text text-anchor="middle" x="465" y="-121.5" font-family="Helvetica,sans-Serif" font-size="10.00">gui.TurtleView.setTurtleInfo</text>
</a>
</g>
</g>
<!-- Node11&#45;&gt;Node18 -->
<g id="edge19" class="edge"><title>Node11&#45;&gt;Node18</title>
<path fill="none" stroke="midnightblue" d="M300.14,-192.831C321.412,-178.201 355.616,-156.363 388,-143 393.94,-140.549 400.277,-138.355 406.661,-136.408"/>
<polygon fill="midnightblue" stroke="midnightblue" points="408.027,-139.658 416.682,-133.548 406.106,-132.926 408.027,-139.658"/>
</g>
<!-- Node13 -->
<g id="node13" class="node"><title>Node13</title>
<g id="a_node13"><a xlink:href="../../de/d5a/classapplication_1_1_pen.html#ab21d78789fb66a90181393d7cc42796c" target="_top" xlink:title="application.Pen.getStatus">
<polygon fill="white" stroke="black" points="593,-207.5 593,-226.5 733,-226.5 733,-207.5 593,-207.5"/>
<text text-anchor="middle" x="663" y="-214.5" font-family="Helvetica,sans-Serif" font-size="10.00">application.Pen.getStatus</text>
</a>
</g>
</g>
<!-- Node12&#45;&gt;Node13 -->
<g id="edge12" class="edge"><title>Node12&#45;&gt;Node13</title>
<path fill="none" stroke="midnightblue" d="M537.592,-217C552.253,-217 567.765,-217 582.679,-217"/>
<polygon fill="midnightblue" stroke="midnightblue" points="582.89,-220.5 592.89,-217 582.89,-213.5 582.89,-220.5"/>
</g>
<!-- Node15 -->
<g id="node15" class="node"><title>Node15</title>
<g id="a_node15"><a xlink:href="../../df/dcb/classapplication_1_1_pen_handler.html#a307ff6736f97a1aa1706da924d7e642b" target="_top" xlink:title="application.PenHandler.get\lPenWeight">
<polygon fill="white" stroke="black" points="590.5,-156 590.5,-186 735.5,-186 735.5,-156 590.5,-156"/>
<text text-anchor="start" x="598.5" y="-174" font-family="Helvetica,sans-Serif" font-size="10.00">application.PenHandler.get</text>
<text text-anchor="middle" x="663" y="-163" font-family="Helvetica,sans-Serif" font-size="10.00">PenWeight</text>
</a>
</g>
</g>
<!-- Node14&#45;&gt;Node15 -->
<g id="edge16" class="edge"><title>Node14&#45;&gt;Node15</title>
<path fill="none" stroke="midnightblue" d="M537.038,-169.087C550.966,-169.301 565.683,-169.526 579.938,-169.744"/>
<polygon fill="midnightblue" stroke="midnightblue" points="580.165,-173.248 590.218,-169.901 580.272,-166.249 580.165,-173.248"/>
</g>
<!-- Node17 -->
<g id="node17" class="node"><title>Node17</title>
<g id="a_node17"><a xlink:href="../../d8/ddb/classgui_1_1_line_view.html#ab32d4cf33024aea52dcb5d1092003d85" target="_top" xlink:title="gui.LineView.setThickness">
<polygon fill="white" stroke="black" points="593.5,-117.5 593.5,-136.5 732.5,-136.5 732.5,-117.5 593.5,-117.5"/>
<text text-anchor="middle" x="663" y="-124.5" font-family="Helvetica,sans-Serif" font-size="10.00">gui.LineView.setThickness</text>
</a>
</g>
</g>
<!-- Node14&#45;&gt;Node17 -->
<g id="edge18" class="edge"><title>Node14&#45;&gt;Node17</title>
<path fill="none" stroke="midnightblue" d="M537.038,-153.14C559.925,-148.352 584.94,-143.12 606.536,-138.602"/>
<polygon fill="midnightblue" stroke="midnightblue" points="607.445,-141.988 616.517,-136.514 606.012,-135.136 607.445,-141.988"/>
</g>
<!-- Node16 -->
<g id="node16" class="node"><title>Node16</title>
<g id="a_node16"><a xlink:href="../../de/d5a/classapplication_1_1_pen.html#aaaae5f55fadb97afef2ae286a6119a58" target="_top" xlink:title="application.Pen.getWeight">
<polygon fill="white" stroke="black" points="784,-161.5 784,-180.5 924,-180.5 924,-161.5 784,-161.5"/>
<text text-anchor="middle" x="854" y="-168.5" font-family="Helvetica,sans-Serif" font-size="10.00">application.Pen.getWeight</text>
</a>
</g>
</g>
<!-- Node15&#45;&gt;Node16 -->
<g id="edge17" class="edge"><title>Node15&#45;&gt;Node16</title>
<path fill="none" stroke="midnightblue" d="M735.722,-171C748.165,-171 761.167,-171 773.795,-171"/>
<polygon fill="midnightblue" stroke="midnightblue" points="773.825,-174.5 783.825,-171 773.825,-167.5 773.825,-174.5"/>
</g>
</g>
</svg>
