<?xml version="1.0" encoding="UTF-8" standalone="no"?>
<!DOCTYPE svg PUBLIC "-//W3C//DTD SVG 1.1//EN"
 "http://www.w3.org/Graphics/SVG/1.1/DTD/svg11.dtd">
<!-- Generated by graphviz version 2.36.0 (20140111.2315)
 -->
<!-- Title: application.ViewHandler.setInfoParamsOfTurtleAndLine Pages: 1 -->
<svg width="1012pt" height="357pt"
 viewBox="0.00 0.00 1012.00 357.00" xmlns="http://www.w3.org/2000/svg" xmlns:xlink="http://www.w3.org/1999/xlink">
<g id="graph0" class="graph" transform="scale(1 1) rotate(0) translate(4 353)">
<title>application.ViewHandler.setInfoParamsOfTurtleAndLine</title>
<polygon fill="white" stroke="none" points="-4,4 -4,-353 1008,-353 1008,4 -4,4"/>
<!-- Node1 -->
<g id="node1" class="node"><title>Node1</title>
<polygon fill="#bfbfbf" stroke="black" points="0,-232 0,-262 148,-262 148,-232 0,-232"/>
<text text-anchor="start" x="8" y="-250" font-family="Helvetica,sans-Serif" font-size="10.00">application.ViewHandler.set</text>
<text text-anchor="middle" x="74" y="-239" font-family="Helvetica,sans-Serif" font-size="10.00">InfoParamsOfTurtleAndLine</text>
</g>
<!-- Node2 -->
<g id="node2" class="node"><title>Node2</title>
<g id="a_node2"><a xlink:href="../../d8/d65/classapplication_1_1_view_handler.html#ac37927f63d43d93f1b1e0f5a3b59cf26" target="_top" xlink:title="application.ViewHandler.initialize\lTurtle">
<polygon fill="white" stroke="black" points="184.5,-277 184.5,-307 355.5,-307 355.5,-277 184.5,-277"/>
<text text-anchor="start" x="192.5" y="-295" font-family="Helvetica,sans-Serif" font-size="10.00">application.ViewHandler.initialize</text>
<text text-anchor="middle" x="270" y="-284" font-family="Helvetica,sans-Serif" font-size="10.00">Turtle</text>
</a>
</g>
</g>
<!-- Node1&#45;&gt;Node2 -->
<g id="edge1" class="edge"><title>Node1&#45;&gt;Node2</title>
<path fill="none" stroke="midnightblue" d="M149.72,-264.332C167.683,-268.499 186.723,-272.915 204.192,-276.967"/>
<polygon fill="midnightblue" stroke="midnightblue" points="150.401,-260.897 139.869,-262.047 148.819,-267.716 150.401,-260.897"/>
</g>
<!-- Node4 -->
<g id="node4" class="node"><title>Node4</title>
<g id="a_node4"><a xlink:href="../../d8/d65/classapplication_1_1_view_handler.html#ae489ceaa9b5ec67faf3ba22a11cec085" target="_top" xlink:title="application.ViewHandler.update\lTurtleOnView">
<polygon fill="white" stroke="black" points="186.5,-187 186.5,-217 353.5,-217 353.5,-187 186.5,-187"/>
<text text-anchor="start" x="194.5" y="-205" font-family="Helvetica,sans-Serif" font-size="10.00">application.ViewHandler.update</text>
<text text-anchor="middle" x="270" y="-194" font-family="Helvetica,sans-Serif" font-size="10.00">TurtleOnView</text>
</a>
</g>
</g>
<!-- Node1&#45;&gt;Node4 -->
<g id="edge3" class="edge"><title>Node1&#45;&gt;Node4</title>
<path fill="none" stroke="midnightblue" d="M149.72,-229.668C167.683,-225.501 186.723,-221.085 204.192,-217.033"/>
<polygon fill="midnightblue" stroke="midnightblue" points="148.819,-226.284 139.869,-231.953 150.401,-233.103 148.819,-226.284"/>
</g>
<!-- Node3 -->
<g id="node3" class="node"><title>Node3</title>
<g id="a_node3"><a xlink:href="../../d8/d65/classapplication_1_1_view_handler.html#aede07ea15df8a762813028bb80403e6b" target="_top" xlink:title="application.ViewHandler.\lViewHandler">
<polygon fill="white" stroke="black" points="406.5,-319 406.5,-349 539.5,-349 539.5,-319 406.5,-319"/>
<text text-anchor="start" x="414.5" y="-337" font-family="Helvetica,sans-Serif" font-size="10.00">application.ViewHandler.</text>
<text text-anchor="middle" x="473" y="-326" font-family="Helvetica,sans-Serif" font-size="10.00">ViewHandler</text>
</a>
</g>
</g>
<!-- Node2&#45;&gt;Node3 -->
<g id="edge2" class="edge"><title>Node2&#45;&gt;Node3</title>
<path fill="none" stroke="midnightblue" d="M353.268,-309.19C370.891,-312.873 389.288,-316.717 406.193,-320.249"/>
<polygon fill="midnightblue" stroke="midnightblue" points="353.502,-305.664 342.998,-307.044 352.071,-312.516 353.502,-305.664"/>
</g>
<!-- Node5 -->
<g id="node5" class="node"><title>Node5</title>
<g id="a_node5"><a xlink:href="../../d8/d65/classapplication_1_1_view_handler.html#a1a94c855ceb0e8ffb1f72f138addb75b" target="_top" xlink:title="application.ViewHandler.move\lTurtle">
<polygon fill="white" stroke="black" points="609,-258 609,-288 769,-288 769,-258 609,-258"/>
<text text-anchor="start" x="617" y="-276" font-family="Helvetica,sans-Serif" font-size="10.00">application.ViewHandler.move</text>
<text text-anchor="middle" x="689" y="-265" font-family="Helvetica,sans-Serif" font-size="10.00">Turtle</text>
</a>
</g>
</g>
<!-- Node4&#45;&gt;Node5 -->
<g id="edge4" class="edge"><title>Node4&#45;&gt;Node5</title>
<path fill="none" stroke="midnightblue" d="M299,-223.154C322.448,-239.482 357.526,-260.79 392,-270 463.62,-289.134 548.51,-287.658 608.975,-282.722"/>
<polygon fill="midnightblue" stroke="midnightblue" points="300.784,-220.127 290.608,-217.176 296.722,-225.829 300.784,-220.127"/>
</g>
<!-- Node7 -->
<g id="node7" class="node"><title>Node7</title>
<g id="a_node7"><a xlink:href="../../d8/d65/classapplication_1_1_view_handler.html#a1aff135a076a9717102bb59ea613131c" target="_top" xlink:title="application.ViewHandler.change\lLocationOfTurtle">
<polygon fill="white" stroke="black" points="605,-204 605,-234 773,-234 773,-204 605,-204"/>
<text text-anchor="start" x="613" y="-222" font-family="Helvetica,sans-Serif" font-size="10.00">application.ViewHandler.change</text>
<text text-anchor="middle" x="689" y="-211" font-family="Helvetica,sans-Serif" font-size="10.00">LocationOfTurtle</text>
</a>
</g>
</g>
<!-- Node4&#45;&gt;Node7 -->
<g id="edge6" class="edge"><title>Node4&#45;&gt;Node7</title>
<path fill="none" stroke="midnightblue" d="M363.887,-205.787C436.085,-208.73 535.33,-212.776 604.916,-215.613"/>
<polygon fill="midnightblue" stroke="midnightblue" points="364.019,-202.289 353.884,-205.379 363.733,-209.284 364.019,-202.289"/>
</g>
<!-- Node10 -->
<g id="node10" class="node"><title>Node10</title>
<g id="a_node10"><a xlink:href="../../d8/d65/classapplication_1_1_view_handler.html#a98b4ba09b3f3e8b1a7667db5598dbfb0" target="_top" xlink:title="application.ViewHandler.move\lTurtleImageAndDraw">
<polygon fill="white" stroke="black" points="393,-231 393,-261 553,-261 553,-231 393,-231"/>
<text text-anchor="start" x="401" y="-249" font-family="Helvetica,sans-Serif" font-size="10.00">application.ViewHandler.move</text>
<text text-anchor="middle" x="473" y="-238" font-family="Helvetica,sans-Serif" font-size="10.00">TurtleImageAndDraw</text>
</a>
</g>
</g>
<!-- Node4&#45;&gt;Node10 -->
<g id="edge9" class="edge"><title>Node4&#45;&gt;Node10</title>
<path fill="none" stroke="midnightblue" d="M349.39,-219.16C367.202,-223.059 385.988,-227.171 403.358,-230.974"/>
<polygon fill="midnightblue" stroke="midnightblue" points="350.128,-215.739 339.611,-217.019 348.631,-222.577 350.128,-215.739"/>
</g>
<!-- Node11 -->
<g id="node11" class="node"><title>Node11</title>
<g id="a_node11"><a xlink:href="../../d8/d65/classapplication_1_1_view_handler.html#abe68f02cdf0227b13568e1aaabf57e5c" target="_top" xlink:title="application.ViewHandler.rotate\lTurtle">
<polygon fill="white" stroke="black" points="392,-143 392,-173 554,-173 554,-143 392,-143"/>
<text text-anchor="start" x="400" y="-161" font-family="Helvetica,sans-Serif" font-size="10.00">application.ViewHandler.rotate</text>
<text text-anchor="middle" x="473" y="-150" font-family="Helvetica,sans-Serif" font-size="10.00">Turtle</text>
</a>
</g>
</g>
<!-- Node4&#45;&gt;Node11 -->
<g id="edge12" class="edge"><title>Node4&#45;&gt;Node11</title>
<path fill="none" stroke="midnightblue" d="M349.39,-184.84C367.202,-180.941 385.988,-176.829 403.358,-173.026"/>
<polygon fill="midnightblue" stroke="midnightblue" points="348.631,-181.423 339.611,-186.981 350.128,-188.261 348.631,-181.423"/>
</g>
<!-- Node13 -->
<g id="node13" class="node"><title>Node13</title>
<g id="a_node13"><a xlink:href="../../d8/d65/classapplication_1_1_view_handler.html#af07eafb381b0ea9a1ce68f6ffe8a7428" target="_top" xlink:title="application.ViewHandler.set\lTurtleOrientation">
<polygon fill="white" stroke="black" points="399,-94 399,-124 547,-124 547,-94 399,-94"/>
<text text-anchor="start" x="407" y="-112" font-family="Helvetica,sans-Serif" font-size="10.00">application.ViewHandler.set</text>
<text text-anchor="middle" x="473" y="-101" font-family="Helvetica,sans-Serif" font-size="10.00">TurtleOrientation</text>
</a>
</g>
</g>
<!-- Node4&#45;&gt;Node13 -->
<g id="edge14" class="edge"><title>Node4&#45;&gt;Node13</title>
<path fill="none" stroke="midnightblue" d="M302.454,-181.424C326.298,-166.488 360.268,-146.598 392,-133 399.597,-129.744 407.777,-126.749 415.904,-124.059"/>
<polygon fill="midnightblue" stroke="midnightblue" points="300.412,-178.574 293.837,-186.882 304.158,-184.487 300.412,-178.574"/>
</g>
<!-- Node17 -->
<g id="node17" class="node"><title>Node17</title>
<g id="a_node17"><a xlink:href="../../d8/d65/classapplication_1_1_view_handler.html#a55d042c40e05453e3f5f6bc6c1c6e060" target="_top" xlink:title="application.ViewHandler.show\lTurtle">
<polygon fill="white" stroke="black" points="394.5,-45 394.5,-75 551.5,-75 551.5,-45 394.5,-45"/>
<text text-anchor="start" x="402.5" y="-63" font-family="Helvetica,sans-Serif" font-size="10.00">application.ViewHandler.show</text>
<text text-anchor="middle" x="473" y="-52" font-family="Helvetica,sans-Serif" font-size="10.00">Turtle</text>
</a>
</g>
</g>
<!-- Node4&#45;&gt;Node17 -->
<g id="edge18" class="edge"><title>Node4&#45;&gt;Node17</title>
<path fill="none" stroke="midnightblue" d="M288.721,-178.972C310.344,-152.392 349.335,-109.122 392,-84 397.748,-80.6156 404.013,-77.6726 410.424,-75.1216"/>
<polygon fill="midnightblue" stroke="midnightblue" points="285.837,-176.975 282.328,-186.972 291.305,-181.345 285.837,-176.975"/>
</g>
<!-- Node6 -->
<g id="node6" class="node"><title>Node6</title>
<g id="a_node6"><a xlink:href="../../dd/da6/classcommands_1_1view_commands_1_1turtle_commands_1_1_move.html#af95e8ccf5c290a4d06f79caf2deed407" target="_top" xlink:title="commands.viewCommands.turtle\lCommands.Move.changeLocation">
<polygon fill="white" stroke="black" points="824.5,-258 824.5,-288 1003.5,-288 1003.5,-258 824.5,-258"/>
<text text-anchor="start" x="832.5" y="-276" font-family="Helvetica,sans-Serif" font-size="10.00">commands.viewCommands.turtle</text>
<text text-anchor="middle" x="914" y="-265" font-family="Helvetica,sans-Serif" font-size="10.00">Commands.Move.changeLocation</text>
</a>
</g>
</g>
<!-- Node5&#45;&gt;Node6 -->
<g id="edge5" class="edge"><title>Node5&#45;&gt;Node6</title>
<path fill="none" stroke="midnightblue" d="M779.362,-273C794.112,-273 809.401,-273 824.139,-273"/>
<polygon fill="midnightblue" stroke="midnightblue" points="779.249,-269.5 769.249,-273 779.249,-276.5 779.249,-269.5"/>
</g>
<!-- Node8 -->
<g id="node8" class="node"><title>Node8</title>
<g id="a_node8"><a xlink:href="../../d5/de0/classcommands_1_1view_commands_1_1turtle_commands_1_1_clear_screen.html#ae547e4c170a1b6d41cdfc6c8bfe5e972" target="_top" xlink:title="commands.viewCommands.turtle\lCommands.ClearScreen.execute">
<polygon fill="white" stroke="black" points="825,-207 825,-237 1003,-237 1003,-207 825,-207"/>
<text text-anchor="start" x="833" y="-225" font-family="Helvetica,sans-Serif" font-size="10.00">commands.viewCommands.turtle</text>
<text text-anchor="middle" x="914" y="-214" font-family="Helvetica,sans-Serif" font-size="10.00">Commands.ClearScreen.execute</text>
</a>
</g>
</g>
<!-- Node7&#45;&gt;Node8 -->
<g id="edge7" class="edge"><title>Node7&#45;&gt;Node8</title>
<path fill="none" stroke="midnightblue" d="M783.4,-220.257C797.066,-220.44 811.104,-220.629 824.664,-220.812"/>
<polygon fill="midnightblue" stroke="midnightblue" points="783.083,-216.752 773.037,-220.117 782.989,-223.751 783.083,-216.752"/>
</g>
<!-- Node9 -->
<g id="node9" class="node"><title>Node9</title>
<g id="a_node9"><a xlink:href="../../dd/da6/classcommands_1_1view_commands_1_1turtle_commands_1_1_move.html#af4d9a4d9ade56b5e3a1e582bd891b7b5" target="_top" xlink:title="commands.viewCommands.turtle\lCommands.Move.goToLocation">
<polygon fill="white" stroke="black" points="825,-158 825,-188 1003,-188 1003,-158 825,-158"/>
<text text-anchor="start" x="833" y="-176" font-family="Helvetica,sans-Serif" font-size="10.00">commands.viewCommands.turtle</text>
<text text-anchor="middle" x="914" y="-165" font-family="Helvetica,sans-Serif" font-size="10.00">Commands.Move.goToLocation</text>
</a>
</g>
</g>
<!-- Node7&#45;&gt;Node9 -->
<g id="edge8" class="edge"><title>Node7&#45;&gt;Node9</title>
<path fill="none" stroke="midnightblue" d="M773.027,-201.873C795.083,-197.324 818.733,-192.445 840.198,-188.017"/>
<polygon fill="midnightblue" stroke="midnightblue" points="772.105,-198.49 763.019,-203.938 773.519,-205.345 772.105,-198.49"/>
</g>
<!-- Node10&#45;&gt;Node5 -->
<g id="edge11" class="edge"><title>Node10&#45;&gt;Node5</title>
<path fill="none" stroke="midnightblue" d="M563.432,-257.283C578.52,-259.187 594.088,-261.151 608.89,-263.019"/>
<polygon fill="midnightblue" stroke="midnightblue" points="563.437,-253.756 553.078,-255.977 562.561,-260.701 563.437,-253.756"/>
</g>
<!-- Node10&#45;&gt;Node7 -->
<g id="edge10" class="edge"><title>Node10&#45;&gt;Node7</title>
<path fill="none" stroke="midnightblue" d="M563.085,-234.76C576.947,-233.011 591.222,-231.21 604.944,-229.479"/>
<polygon fill="midnightblue" stroke="midnightblue" points="562.561,-231.299 553.078,-236.023 563.437,-238.244 562.561,-231.299"/>
</g>
<!-- Node12 -->
<g id="node12" class="node"><title>Node12</title>
<g id="a_node12"><a xlink:href="../../d3/dba/classcommands_1_1view_commands_1_1turtle_commands_1_1_rotate.html#a8ee301e936ff8d884357dccac52c2bfb" target="_top" xlink:title="commands.viewCommands.turtle\lCommands.Rotate.changeOrientation">
<polygon fill="white" stroke="black" points="590.5,-147 590.5,-177 787.5,-177 787.5,-147 590.5,-147"/>
<text text-anchor="start" x="598.5" y="-165" font-family="Helvetica,sans-Serif" font-size="10.00">commands.viewCommands.turtle</text>
<text text-anchor="middle" x="689" y="-154" font-family="Helvetica,sans-Serif" font-size="10.00">Commands.Rotate.changeOrientation</text>
</a>
</g>
</g>
<!-- Node11&#45;&gt;Node12 -->
<g id="edge13" class="edge"><title>Node11&#45;&gt;Node12</title>
<path fill="none" stroke="midnightblue" d="M564.296,-159.688C572.886,-159.848 581.623,-160.012 590.278,-160.173"/>
<polygon fill="midnightblue" stroke="midnightblue" points="564.358,-156.188 554.295,-159.501 564.227,-163.187 564.358,-156.188"/>
</g>
<!-- Node14 -->
<g id="node14" class="node"><title>Node14</title>
<g id="a_node14"><a xlink:href="../../df/d03/classcommands_1_1view_commands_1_1turtle_commands_1_1_go_towards_loc.html#a67f5f04ce72d0cd234d1e0a11e6d7c83" target="_top" xlink:title="commands.viewCommands.turtle\lCommands.GoTowardsLoc.execute">
<polygon fill="white" stroke="black" points="597,-98 597,-128 781,-128 781,-98 597,-98"/>
<text text-anchor="start" x="605" y="-116" font-family="Helvetica,sans-Serif" font-size="10.00">commands.viewCommands.turtle</text>
<text text-anchor="middle" x="689" y="-105" font-family="Helvetica,sans-Serif" font-size="10.00">Commands.GoTowardsLoc.execute</text>
</a>
</g>
</g>
<!-- Node13&#45;&gt;Node14 -->
<g id="edge15" class="edge"><title>Node13&#45;&gt;Node14</title>
<path fill="none" stroke="midnightblue" d="M557.297,-110.557C570.226,-110.799 583.642,-111.049 596.736,-111.294"/>
<polygon fill="midnightblue" stroke="midnightblue" points="557.112,-107.053 547.048,-110.365 556.981,-114.052 557.112,-107.053"/>
</g>
<!-- Node15 -->
<g id="node15" class="node"><title>Node15</title>
<g id="a_node15"><a xlink:href="../../df/ded/classcommands_1_1view_commands_1_1turtle_commands_1_1_set_heading.html#a3efffc1774ad2f0b23742a20789f0ee8" target="_top" xlink:title="commands.viewCommands.turtle\lCommands.SetHeading.execute">
<polygon fill="white" stroke="black" points="600,-49 600,-79 778,-79 778,-49 600,-49"/>
<text text-anchor="start" x="608" y="-67" font-family="Helvetica,sans-Serif" font-size="10.00">commands.viewCommands.turtle</text>
<text text-anchor="middle" x="689" y="-56" font-family="Helvetica,sans-Serif" font-size="10.00">Commands.SetHeading.execute</text>
</a>
</g>
</g>
<!-- Node13&#45;&gt;Node15 -->
<g id="edge16" class="edge"><title>Node13&#45;&gt;Node15</title>
<path fill="none" stroke="midnightblue" d="M555.599,-91.8414C575.654,-87.6241 596.973,-83.1411 616.511,-79.0327"/>
<polygon fill="midnightblue" stroke="midnightblue" points="554.622,-88.4701 545.556,-93.9531 556.063,-95.3203 554.622,-88.4701"/>
</g>
<!-- Node16 -->
<g id="node16" class="node"><title>Node16</title>
<g id="a_node16"><a xlink:href="../../d5/da3/classcommands_1_1view_commands_1_1turtle_commands_1_1_towards.html#abd6801c7d6d99e2cfa7f2a38b10a116a" target="_top" xlink:title="commands.viewCommands.turtle\lCommands.Towards.execute">
<polygon fill="white" stroke="black" points="600,-0 600,-30 778,-30 778,-0 600,-0"/>
<text text-anchor="start" x="608" y="-18" font-family="Helvetica,sans-Serif" font-size="10.00">commands.viewCommands.turtle</text>
<text text-anchor="middle" x="689" y="-7" font-family="Helvetica,sans-Serif" font-size="10.00">Commands.Towards.execute</text>
</a>
</g>
</g>
<!-- Node13&#45;&gt;Node16 -->
<g id="edge17" class="edge"><title>Node13&#45;&gt;Node16</title>
<path fill="none" stroke="midnightblue" d="M544.826,-89.522C548.011,-87.8266 551.088,-85.9896 554,-84 575.147,-69.5493 568.411,-52.7806 590,-39 595.315,-35.6071 601.074,-32.6939 607.046,-30.1924"/>
<polygon fill="midnightblue" stroke="midnightblue" points="543.118,-86.4591 535.61,-93.9342 546.141,-92.7728 543.118,-86.4591"/>
</g>
</g>
</svg>
