<?xml version="1.0" encoding="UTF-8" standalone="no"?>
<!DOCTYPE svg PUBLIC "-//W3C//DTD SVG 1.1//EN"
 "http://www.w3.org/Graphics/SVG/1.1/DTD/svg11.dtd">
<!-- Generated by graphviz version 2.36.0 (20140111.2315)
 -->
<!-- Title: application.ViewHandler.moveTurtleImageAndDraw Pages: 1 -->
<svg width="1128pt" height="469pt"
 viewBox="0.00 0.00 1128.00 469.41" xmlns="http://www.w3.org/2000/svg" xmlns:xlink="http://www.w3.org/1999/xlink">
<g id="graph0" class="graph" transform="scale(1 1) rotate(0) translate(4 465.407)">
<title>application.ViewHandler.moveTurtleImageAndDraw</title>
<polygon fill="white" stroke="none" points="-4,4 -4,-465.407 1124,-465.407 1124,4 -4,4"/>
<!-- Node1 -->
<g id="node1" class="node"><title>Node1</title>
<polygon fill="#bfbfbf" stroke="black" points="0,-304 0,-334 160,-334 160,-304 0,-304"/>
<text text-anchor="start" x="8" y="-322" font-family="Helvetica,sans-Serif" font-size="10.00">application.ViewHandler.move</text>
<text text-anchor="middle" x="80" y="-311" font-family="Helvetica,sans-Serif" font-size="10.00">TurtleImageAndDraw</text>
</g>
<!-- Node2 -->
<g id="node2" class="node"><title>Node2</title>
<g id="a_node2"><a xlink:href="../../d8/ddb/classgui_1_1_line_view.html#abe4c6727ecf95f07a0a7a68e4e7dcb40" target="_top" xlink:title="gui.LineView.drawLine">
<polygon fill="white" stroke="black" points="220.5,-391.5 220.5,-410.5 339.5,-410.5 339.5,-391.5 220.5,-391.5"/>
<text text-anchor="middle" x="280" y="-398.5" font-family="Helvetica,sans-Serif" font-size="10.00">gui.LineView.drawLine</text>
</a>
</g>
</g>
<!-- Node1&#45;&gt;Node2 -->
<g id="edge1" class="edge"><title>Node1&#45;&gt;Node2</title>
<path fill="none" stroke="midnightblue" d="M117.316,-334.04C154.258,-349.339 210.981,-372.83 246.487,-387.535"/>
<polygon fill="midnightblue" stroke="midnightblue" points="245.327,-390.843 255.905,-391.436 248.006,-384.376 245.327,-390.843"/>
</g>
<!-- Node8 -->
<g id="node8" class="node"><title>Node8</title>
<g id="a_node8"><a xlink:href="../../df/dcb/classapplication_1_1_pen_handler.html#a8477a9a258753bb5538ad83a015fb731" target="_top" xlink:title="application.PenHandler.get\lPenStatus">
<polygon fill="white" stroke="black" points="588.5,-304 588.5,-334 733.5,-334 733.5,-304 588.5,-304"/>
<text text-anchor="start" x="596.5" y="-322" font-family="Helvetica,sans-Serif" font-size="10.00">application.PenHandler.get</text>
<text text-anchor="middle" x="661" y="-311" font-family="Helvetica,sans-Serif" font-size="10.00">PenStatus</text>
</a>
</g>
</g>
<!-- Node1&#45;&gt;Node8 -->
<g id="edge11" class="edge"><title>Node1&#45;&gt;Node8</title>
<path fill="none" stroke="midnightblue" d="M160.293,-319C270.067,-319 467.326,-319 578.341,-319"/>
<polygon fill="midnightblue" stroke="midnightblue" points="578.48,-322.5 588.48,-319 578.48,-315.5 578.48,-322.5"/>
</g>
<!-- Node10 -->
<g id="node10" class="node"><title>Node10</title>
<g id="a_node10"><a xlink:href="../../d8/d65/classapplication_1_1_view_handler.html#ae489ceaa9b5ec67faf3ba22a11cec085" target="_top" xlink:title="application.ViewHandler.update\lTurtleOnView">
<polygon fill="white" stroke="black" points="196.5,-140 196.5,-170 363.5,-170 363.5,-140 196.5,-140"/>
<text text-anchor="start" x="204.5" y="-158" font-family="Helvetica,sans-Serif" font-size="10.00">application.ViewHandler.update</text>
<text text-anchor="middle" x="280" y="-147" font-family="Helvetica,sans-Serif" font-size="10.00">TurtleOnView</text>
</a>
</g>
</g>
<!-- Node1&#45;&gt;Node10 -->
<g id="edge13" class="edge"><title>Node1&#45;&gt;Node10</title>
<path fill="none" stroke="midnightblue" d="M99.2725,-303.865C134.561,-274.636 212.192,-210.336 252.908,-176.612"/>
<polygon fill="midnightblue" stroke="midnightblue" points="255.303,-179.173 260.772,-170.098 250.838,-173.782 255.303,-179.173"/>
</g>
<!-- Node3 -->
<g id="node3" class="node"><title>Node3</title>
<g id="a_node3"><a xlink:href="../../d8/ddb/classgui_1_1_line_view.html#aac6f01646ce73691c335b27ecd385dea" target="_top" xlink:title="gui.LineView.findBoundary\lPoint">
<polygon fill="white" stroke="black" points="404,-386 404,-416 544,-416 544,-386 404,-386"/>
<text text-anchor="start" x="412" y="-404" font-family="Helvetica,sans-Serif" font-size="10.00">gui.LineView.findBoundary</text>
<text text-anchor="middle" x="474" y="-393" font-family="Helvetica,sans-Serif" font-size="10.00">Point</text>
</a>
</g>
</g>
<!-- Node2&#45;&gt;Node3 -->
<g id="edge2" class="edge"><title>Node2&#45;&gt;Node3</title>
<path fill="none" stroke="midnightblue" d="M339.65,-401C356.691,-401 375.594,-401 393.681,-401"/>
<polygon fill="midnightblue" stroke="midnightblue" points="393.921,-404.5 403.921,-401 393.921,-397.5 393.921,-404.5"/>
</g>
<!-- Node6 -->
<g id="node6" class="node"><title>Node6</title>
<g id="a_node6"><a xlink:href="../../d8/d8b/classgui_1_1_view.html#a9df94efe60af56c89531c45f0f3f9624" target="_top" xlink:title="gui.View.setNewPoint">
<polygon fill="white" stroke="black" points="991.5,-391.5 991.5,-410.5 1108.5,-410.5 1108.5,-391.5 991.5,-391.5"/>
<text text-anchor="middle" x="1050" y="-398.5" font-family="Helvetica,sans-Serif" font-size="10.00">gui.View.setNewPoint</text>
</a>
</g>
</g>
<!-- Node2&#45;&gt;Node6 -->
<g id="edge10" class="edge"><title>Node2&#45;&gt;Node6</title>
<path fill="none" stroke="midnightblue" d="M321.257,-410.516C344.205,-415.588 373.571,-421.489 400,-425 639.752,-456.849 705.778,-480.781 944,-439 970.539,-434.345 999.212,-423.544 1019.88,-414.642"/>
<polygon fill="midnightblue" stroke="midnightblue" points="1021.32,-417.831 1029.05,-410.588 1018.49,-411.428 1021.32,-417.831"/>
</g>
<!-- Node4 -->
<g id="node4" class="node"><title>Node4</title>
<g id="a_node4"><a xlink:href="../../d8/ddb/classgui_1_1_line_view.html#a29757337f55037a9e48da9098eca8a09" target="_top" xlink:title="gui.LineView.findCorner">
<polygon fill="white" stroke="black" points="597.5,-391.5 597.5,-410.5 724.5,-410.5 724.5,-391.5 597.5,-391.5"/>
<text text-anchor="middle" x="661" y="-398.5" font-family="Helvetica,sans-Serif" font-size="10.00">gui.LineView.findCorner</text>
</a>
</g>
</g>
<!-- Node3&#45;&gt;Node4 -->
<g id="edge3" class="edge"><title>Node3&#45;&gt;Node4</title>
<path fill="none" stroke="midnightblue" d="M544.15,-401C558.19,-401 572.997,-401 587.16,-401"/>
<polygon fill="midnightblue" stroke="midnightblue" points="587.338,-404.5 597.338,-401 587.338,-397.5 587.338,-404.5"/>
</g>
<!-- Node5 -->
<g id="node5" class="node"><title>Node5</title>
<g id="a_node5"><a xlink:href="../../d8/ddb/classgui_1_1_line_view.html#a6cc826f05b0ac955fab89afbfca7c1a8" target="_top" xlink:title="gui.LineView.findYEdge">
<polygon fill="white" stroke="black" points="797,-372.5 797,-391.5 921,-391.5 921,-372.5 797,-372.5"/>
<text text-anchor="middle" x="859" y="-379.5" font-family="Helvetica,sans-Serif" font-size="10.00">gui.LineView.findYEdge</text>
</a>
</g>
</g>
<!-- Node3&#45;&gt;Node5 -->
<g id="edge9" class="edge"><title>Node3&#45;&gt;Node5</title>
<path fill="none" stroke="midnightblue" d="M544.251,-387.084C557.399,-384.967 571.082,-383.117 584,-382 652.708,-376.057 731.47,-376.845 786.864,-378.646"/>
<polygon fill="midnightblue" stroke="midnightblue" points="786.813,-382.147 796.927,-378.993 787.054,-375.151 786.813,-382.147"/>
</g>
<!-- Node7 -->
<g id="node7" class="node"><title>Node7</title>
<g id="a_node7"><a xlink:href="../../d8/ddb/classgui_1_1_line_view.html#a4a4d4a5dc42ec1fc8896b453703b6991" target="_top" xlink:title="gui.LineView.findXEdge">
<polygon fill="white" stroke="black" points="796.5,-410.5 796.5,-429.5 921.5,-429.5 921.5,-410.5 796.5,-410.5"/>
<text text-anchor="middle" x="859" y="-417.5" font-family="Helvetica,sans-Serif" font-size="10.00">gui.LineView.findXEdge</text>
</a>
</g>
</g>
<!-- Node3&#45;&gt;Node7 -->
<g id="edge8" class="edge"><title>Node3&#45;&gt;Node7</title>
<path fill="none" stroke="midnightblue" d="M544.251,-414.916C557.399,-417.033 571.082,-418.883 584,-420 652.485,-425.924 730.959,-425.16 786.324,-423.371"/>
<polygon fill="midnightblue" stroke="midnightblue" points="786.511,-426.867 796.385,-423.027 786.271,-419.871 786.511,-426.867"/>
</g>
<!-- Node4&#45;&gt;Node5 -->
<g id="edge4" class="edge"><title>Node4&#45;&gt;Node5</title>
<path fill="none" stroke="midnightblue" d="M724.555,-394.936C744.298,-393.022 766.259,-390.893 786.573,-388.924"/>
<polygon fill="midnightblue" stroke="midnightblue" points="787.093,-392.39 796.709,-387.941 786.418,-385.423 787.093,-392.39"/>
</g>
<!-- Node4&#45;&gt;Node7 -->
<g id="edge6" class="edge"><title>Node4&#45;&gt;Node7</title>
<path fill="none" stroke="midnightblue" d="M724.555,-407.064C744.202,-408.969 766.046,-411.086 786.277,-413.047"/>
<polygon fill="midnightblue" stroke="midnightblue" points="786.083,-416.545 796.374,-414.026 786.759,-409.577 786.083,-416.545"/>
</g>
<!-- Node5&#45;&gt;Node6 -->
<g id="edge5" class="edge"><title>Node5&#45;&gt;Node6</title>
<path fill="none" stroke="midnightblue" d="M921.102,-388.143C940.297,-390.072 961.601,-392.214 981.229,-394.187"/>
<polygon fill="midnightblue" stroke="midnightblue" points="981.021,-397.684 991.321,-395.202 981.721,-390.719 981.021,-397.684"/>
</g>
<!-- Node7&#45;&gt;Node6 -->
<g id="edge7" class="edge"><title>Node7&#45;&gt;Node6</title>
<path fill="none" stroke="midnightblue" d="M921.624,-413.805C940.704,-411.887 961.828,-409.763 981.296,-407.806"/>
<polygon fill="midnightblue" stroke="midnightblue" points="981.707,-411.283 991.307,-406.8 981.007,-404.318 981.707,-411.283"/>
</g>
<!-- Node9 -->
<g id="node9" class="node"><title>Node9</title>
<g id="a_node9"><a xlink:href="../../de/d5a/classapplication_1_1_pen.html#ab21d78789fb66a90181393d7cc42796c" target="_top" xlink:title="application.Pen.getStatus">
<polygon fill="white" stroke="black" points="789,-309.5 789,-328.5 929,-328.5 929,-309.5 789,-309.5"/>
<text text-anchor="middle" x="859" y="-316.5" font-family="Helvetica,sans-Serif" font-size="10.00">application.Pen.getStatus</text>
</a>
</g>
</g>
<!-- Node8&#45;&gt;Node9 -->
<g id="edge12" class="edge"><title>Node8&#45;&gt;Node9</title>
<path fill="none" stroke="midnightblue" d="M733.592,-319C748.253,-319 763.765,-319 778.679,-319"/>
<polygon fill="midnightblue" stroke="midnightblue" points="778.89,-322.5 788.89,-319 778.89,-315.5 778.89,-322.5"/>
</g>
<!-- Node11 -->
<g id="node11" class="node"><title>Node11</title>
<g id="a_node11"><a xlink:href="../../d8/d65/classapplication_1_1_view_handler.html#a308dcaf9847965fa4a3d261347845f56" target="_top" xlink:title="application.ViewHandler.set\lInfoParamsOfTurtleAndLine">
<polygon fill="white" stroke="black" points="400,-140 400,-170 548,-170 548,-140 400,-140"/>
<text text-anchor="start" x="408" y="-158" font-family="Helvetica,sans-Serif" font-size="10.00">application.ViewHandler.set</text>
<text text-anchor="middle" x="474" y="-147" font-family="Helvetica,sans-Serif" font-size="10.00">InfoParamsOfTurtleAndLine</text>
</a>
</g>
</g>
<!-- Node10&#45;&gt;Node11 -->
<g id="edge14" class="edge"><title>Node10&#45;&gt;Node11</title>
<path fill="none" stroke="midnightblue" d="M363.54,-155C372.233,-155 381.076,-155 389.777,-155"/>
<polygon fill="midnightblue" stroke="midnightblue" points="389.908,-158.5 399.908,-155 389.908,-151.5 389.908,-158.5"/>
</g>
<!-- Node13 -->
<g id="node13" class="node"><title>Node13</title>
<g id="a_node13"><a xlink:href="../../d8/d65/classapplication_1_1_view_handler.html#a8a3722771a70075225d9c37dc1ff5e8d" target="_top" xlink:title="application.ViewHandler.get\lTurtleLocation">
<polygon fill="white" stroke="black" points="586.5,-91 586.5,-121 735.5,-121 735.5,-91 586.5,-91"/>
<text text-anchor="start" x="594.5" y="-109" font-family="Helvetica,sans-Serif" font-size="10.00">application.ViewHandler.get</text>
<text text-anchor="middle" x="661" y="-98" font-family="Helvetica,sans-Serif" font-size="10.00">TurtleLocation</text>
</a>
</g>
</g>
<!-- Node10&#45;&gt;Node13 -->
<g id="edge31" class="edge"><title>Node10&#45;&gt;Node13</title>
<path fill="none" stroke="midnightblue" d="M345.914,-139.952C363.401,-136.285 382.361,-132.658 400,-130 458.622,-121.166 525.204,-115.095 576.313,-111.269"/>
<polygon fill="midnightblue" stroke="midnightblue" points="576.605,-114.757 586.322,-110.533 576.092,-107.775 576.605,-114.757"/>
</g>
<!-- Node15 -->
<g id="node15" class="node"><title>Node15</title>
<g id="a_node15"><a xlink:href="../../d8/d65/classapplication_1_1_view_handler.html#a8a00eb25a7f1d5e3ccc3059e8b717819" target="_top" xlink:title="application.ViewHandler.get\lTurtleOrientation">
<polygon fill="white" stroke="black" points="586.5,-42 586.5,-72 735.5,-72 735.5,-42 586.5,-42"/>
<text text-anchor="start" x="594.5" y="-60" font-family="Helvetica,sans-Serif" font-size="10.00">application.ViewHandler.get</text>
<text text-anchor="middle" x="661" y="-49" font-family="Helvetica,sans-Serif" font-size="10.00">TurtleOrientation</text>
</a>
</g>
</g>
<!-- Node10&#45;&gt;Node15 -->
<g id="edge32" class="edge"><title>Node10&#45;&gt;Node15</title>
<path fill="none" stroke="midnightblue" d="M316.165,-139.998C339.594,-130.429 371.248,-118.309 400,-110 458.087,-93.2145 524.954,-79.7093 576.331,-70.533"/>
<polygon fill="midnightblue" stroke="midnightblue" points="577.154,-73.9419 586.392,-68.7558 575.936,-67.0486 577.154,-73.9419"/>
</g>
<!-- Node21 -->
<g id="node21" class="node"><title>Node21</title>
<g id="a_node21"><a xlink:href="../../d8/d65/classapplication_1_1_view_handler.html#a6f94dbee91670d4c9ae7164f61b8cd03" target="_top" xlink:title="application.ViewHandler.is\lVisible">
<polygon fill="white" stroke="black" points="404,-0 404,-30 544,-30 544,-0 404,-0"/>
<text text-anchor="start" x="412" y="-18" font-family="Helvetica,sans-Serif" font-size="10.00">application.ViewHandler.is</text>
<text text-anchor="middle" x="474" y="-7" font-family="Helvetica,sans-Serif" font-size="10.00">Visible</text>
</a>
</g>
</g>
<!-- Node10&#45;&gt;Node21 -->
<g id="edge25" class="edge"><title>Node10&#45;&gt;Node21</title>
<path fill="none" stroke="midnightblue" d="M296.234,-139.916C318.014,-118.839 359.87,-80.1195 400,-53 409.705,-46.4412 420.682,-40.186 431.119,-34.7126"/>
<polygon fill="midnightblue" stroke="midnightblue" points="432.797,-37.7854 440.107,-30.116 429.61,-31.5532 432.797,-37.7854"/>
</g>
<!-- Node23 -->
<g id="node23" class="node"><title>Node23</title>
<g id="a_node23"><a xlink:href="../../df/dcc/classgui_1_1_turtle_view.html#afa73e516fcab92ab1c3a6941b6131cb5" target="_top" xlink:title="gui.TurtleView.showTurtle">
<polygon fill="white" stroke="black" points="407.5,-255.5 407.5,-274.5 540.5,-274.5 540.5,-255.5 407.5,-255.5"/>
<text text-anchor="middle" x="474" y="-262.5" font-family="Helvetica,sans-Serif" font-size="10.00">gui.TurtleView.showTurtle</text>
</a>
</g>
</g>
<!-- Node10&#45;&gt;Node23 -->
<g id="edge27" class="edge"><title>Node10&#45;&gt;Node23</title>
<path fill="none" stroke="midnightblue" d="M296.987,-170.316C318.655,-190.273 359.331,-224.979 400,-245 405.648,-247.78 411.738,-250.221 417.908,-252.351"/>
<polygon fill="midnightblue" stroke="midnightblue" points="417.025,-255.743 427.616,-255.446 419.152,-249.074 417.025,-255.743"/>
</g>
<!-- Node24 -->
<g id="node24" class="node"><title>Node24</title>
<g id="a_node24"><a xlink:href="../../df/dcc/classgui_1_1_turtle_view.html#adcff447c1d488ddfd13d151067e6db7a" target="_top" xlink:title="gui.TurtleView.rotateAnd\lMoveTurtle">
<polygon fill="white" stroke="black" points="408.5,-206 408.5,-236 539.5,-236 539.5,-206 408.5,-206"/>
<text text-anchor="start" x="416.5" y="-224" font-family="Helvetica,sans-Serif" font-size="10.00">gui.TurtleView.rotateAnd</text>
<text text-anchor="middle" x="474" y="-213" font-family="Helvetica,sans-Serif" font-size="10.00">MoveTurtle</text>
</a>
</g>
</g>
<!-- Node10&#45;&gt;Node24 -->
<g id="edge28" class="edge"><title>Node10&#45;&gt;Node24</title>
<path fill="none" stroke="midnightblue" d="M325.049,-170.142C353.099,-179.784 389.617,-192.337 419.354,-202.559"/>
<polygon fill="midnightblue" stroke="midnightblue" points="418.562,-205.988 429.156,-205.929 420.837,-199.368 418.562,-205.988"/>
</g>
<!-- Node11&#45;&gt;Node8 -->
<g id="edge20" class="edge"><title>Node11&#45;&gt;Node8</title>
<path fill="none" stroke="midnightblue" d="M510.179,-170.056C523.078,-176.723 537.158,-185.465 548,-196 570.303,-217.672 563.74,-232.407 584,-256 597.347,-271.543 614.8,-286.307 629.615,-297.63"/>
<polygon fill="midnightblue" stroke="midnightblue" points="627.875,-300.7 637.982,-303.88 632.065,-295.091 627.875,-300.7"/>
</g>
<!-- Node12 -->
<g id="node12" class="node"><title>Node12</title>
<g id="a_node12"><a xlink:href="../../df/dcc/classgui_1_1_turtle_view.html#a978020a0f6ccbc4714b77c71435b0799" target="_top" xlink:title="gui.TurtleView.setTurtleInfo">
<polygon fill="white" stroke="black" points="590.5,-189.5 590.5,-208.5 731.5,-208.5 731.5,-189.5 590.5,-189.5"/>
<text text-anchor="middle" x="661" y="-196.5" font-family="Helvetica,sans-Serif" font-size="10.00">gui.TurtleView.setTurtleInfo</text>
</a>
</g>
</g>
<!-- Node11&#45;&gt;Node12 -->
<g id="edge15" class="edge"><title>Node11&#45;&gt;Node12</title>
<path fill="none" stroke="midnightblue" d="M538.149,-170.019C561.659,-175.611 587.991,-181.874 610.145,-187.143"/>
<polygon fill="midnightblue" stroke="midnightblue" points="609.466,-190.579 620.005,-189.488 611.086,-183.769 609.466,-190.579"/>
</g>
<!-- Node11&#45;&gt;Node13 -->
<g id="edge16" class="edge"><title>Node11&#45;&gt;Node13</title>
<path fill="none" stroke="midnightblue" d="M531.763,-139.965C551.297,-134.792 573.343,-128.952 593.576,-123.593"/>
<polygon fill="midnightblue" stroke="midnightblue" points="594.573,-126.95 603.344,-121.006 592.781,-120.183 594.573,-126.95"/>
</g>
<!-- Node11&#45;&gt;Node15 -->
<g id="edge18" class="edge"><title>Node11&#45;&gt;Node15</title>
<path fill="none" stroke="midnightblue" d="M493.653,-139.834C514.573,-123.439 550.036,-97.4546 584,-81 587.852,-79.1336 591.884,-77.3678 595.994,-75.7055"/>
<polygon fill="midnightblue" stroke="midnightblue" points="597.583,-78.8458 605.683,-72.0162 595.092,-72.304 597.583,-78.8458"/>
</g>
<!-- Node17 -->
<g id="node17" class="node"><title>Node17</title>
<g id="a_node17"><a xlink:href="../../df/dcb/classapplication_1_1_pen_handler.html#a518bb3076e4d9d105870b0778341a8c0" target="_top" xlink:title="application.PenHandler.set\lThicknessParameter">
<polygon fill="white" stroke="black" points="589,-140 589,-170 733,-170 733,-140 589,-140"/>
<text text-anchor="start" x="597" y="-158" font-family="Helvetica,sans-Serif" font-size="10.00">application.PenHandler.set</text>
<text text-anchor="middle" x="661" y="-147" font-family="Helvetica,sans-Serif" font-size="10.00">ThicknessParameter</text>
</a>
</g>
</g>
<!-- Node11&#45;&gt;Node17 -->
<g id="edge21" class="edge"><title>Node11&#45;&gt;Node17</title>
<path fill="none" stroke="midnightblue" d="M548.117,-155C558.191,-155 568.587,-155 578.796,-155"/>
<polygon fill="midnightblue" stroke="midnightblue" points="578.925,-158.5 588.925,-155 578.925,-151.5 578.925,-158.5"/>
</g>
<!-- Node14 -->
<g id="node14" class="node"><title>Node14</title>
<g id="a_node14"><a xlink:href="../../d1/d31/classapplication_1_1_turtle.html#a802873f2487ab3b6832050e1bef998a5" target="_top" xlink:title="application.Turtle.getLoc">
<polygon fill="white" stroke="black" points="793,-96.5 793,-115.5 925,-115.5 925,-96.5 793,-96.5"/>
<text text-anchor="middle" x="859" y="-103.5" font-family="Helvetica,sans-Serif" font-size="10.00">application.Turtle.getLoc</text>
</a>
</g>
</g>
<!-- Node13&#45;&gt;Node14 -->
<g id="edge17" class="edge"><title>Node13&#45;&gt;Node14</title>
<path fill="none" stroke="midnightblue" d="M735.541,-106C750.956,-106 767.234,-106 782.712,-106"/>
<polygon fill="midnightblue" stroke="midnightblue" points="782.751,-109.5 792.751,-106 782.751,-102.5 782.751,-109.5"/>
</g>
<!-- Node16 -->
<g id="node16" class="node"><title>Node16</title>
<g id="a_node16"><a xlink:href="../../d1/d31/classapplication_1_1_turtle.html#af22147e198fac9068726b95eea235739" target="_top" xlink:title="application.Turtle.getOrientation">
<polygon fill="white" stroke="black" points="774.5,-47.5 774.5,-66.5 943.5,-66.5 943.5,-47.5 774.5,-47.5"/>
<text text-anchor="middle" x="859" y="-54.5" font-family="Helvetica,sans-Serif" font-size="10.00">application.Turtle.getOrientation</text>
</a>
</g>
</g>
<!-- Node15&#45;&gt;Node16 -->
<g id="edge19" class="edge"><title>Node15&#45;&gt;Node16</title>
<path fill="none" stroke="midnightblue" d="M735.541,-57C744.973,-57 754.729,-57 764.426,-57"/>
<polygon fill="midnightblue" stroke="midnightblue" points="764.495,-60.5001 774.495,-57 764.495,-53.5001 764.495,-60.5001"/>
</g>
<!-- Node18 -->
<g id="node18" class="node"><title>Node18</title>
<g id="a_node18"><a xlink:href="../../df/dcb/classapplication_1_1_pen_handler.html#a307ff6736f97a1aa1706da924d7e642b" target="_top" xlink:title="application.PenHandler.get\lPenWeight">
<polygon fill="white" stroke="black" points="786.5,-138 786.5,-168 931.5,-168 931.5,-138 786.5,-138"/>
<text text-anchor="start" x="794.5" y="-156" font-family="Helvetica,sans-Serif" font-size="10.00">application.PenHandler.get</text>
<text text-anchor="middle" x="859" y="-145" font-family="Helvetica,sans-Serif" font-size="10.00">PenWeight</text>
</a>
</g>
</g>
<!-- Node17&#45;&gt;Node18 -->
<g id="edge22" class="edge"><title>Node17&#45;&gt;Node18</title>
<path fill="none" stroke="midnightblue" d="M733.038,-154.275C746.966,-154.133 761.683,-153.983 775.938,-153.837"/>
<polygon fill="midnightblue" stroke="midnightblue" points="776.254,-157.334 786.218,-153.732 776.182,-150.335 776.254,-157.334"/>
</g>
<!-- Node20 -->
<g id="node20" class="node"><title>Node20</title>
<g id="a_node20"><a xlink:href="../../d8/ddb/classgui_1_1_line_view.html#ab32d4cf33024aea52dcb5d1092003d85" target="_top" xlink:title="gui.LineView.setThickness">
<polygon fill="white" stroke="black" points="789.5,-187.5 789.5,-206.5 928.5,-206.5 928.5,-187.5 789.5,-187.5"/>
<text text-anchor="middle" x="859" y="-194.5" font-family="Helvetica,sans-Serif" font-size="10.00">gui.LineView.setThickness</text>
</a>
</g>
</g>
<!-- Node17&#45;&gt;Node20 -->
<g id="edge24" class="edge"><title>Node17&#45;&gt;Node20</title>
<path fill="none" stroke="midnightblue" d="M732.207,-170.044C755.735,-175.086 781.593,-180.627 803.714,-185.367"/>
<polygon fill="midnightblue" stroke="midnightblue" points="803.081,-188.811 813.593,-187.484 804.548,-181.966 803.081,-188.811"/>
</g>
<!-- Node19 -->
<g id="node19" class="node"><title>Node19</title>
<g id="a_node19"><a xlink:href="../../de/d5a/classapplication_1_1_pen.html#aaaae5f55fadb97afef2ae286a6119a58" target="_top" xlink:title="application.Pen.getWeight">
<polygon fill="white" stroke="black" points="980,-143.5 980,-162.5 1120,-162.5 1120,-143.5 980,-143.5"/>
<text text-anchor="middle" x="1050" y="-150.5" font-family="Helvetica,sans-Serif" font-size="10.00">application.Pen.getWeight</text>
</a>
</g>
</g>
<!-- Node18&#45;&gt;Node19 -->
<g id="edge23" class="edge"><title>Node18&#45;&gt;Node19</title>
<path fill="none" stroke="midnightblue" d="M931.722,-153C944.165,-153 957.167,-153 969.795,-153"/>
<polygon fill="midnightblue" stroke="midnightblue" points="969.825,-156.5 979.825,-153 969.825,-149.5 969.825,-156.5"/>
</g>
<!-- Node22 -->
<g id="node22" class="node"><title>Node22</title>
<g id="a_node22"><a xlink:href="../../d1/d31/classapplication_1_1_turtle.html#a75e592fccb8420e254ba668429797898" target="_top" xlink:title="application.Turtle.getVisibility">
<polygon fill="white" stroke="black" points="584,-3.5 584,-22.5 738,-22.5 738,-3.5 584,-3.5"/>
<text text-anchor="middle" x="661" y="-10.5" font-family="Helvetica,sans-Serif" font-size="10.00">application.Turtle.getVisibility</text>
</a>
</g>
</g>
<!-- Node21&#45;&gt;Node22 -->
<g id="edge26" class="edge"><title>Node21&#45;&gt;Node22</title>
<path fill="none" stroke="midnightblue" d="M544.15,-14.2524C553.748,-14.1487 563.704,-14.041 573.568,-13.9344"/>
<polygon fill="midnightblue" stroke="midnightblue" points="573.833,-17.4318 583.795,-13.8238 573.758,-10.4322 573.833,-17.4318"/>
</g>
<!-- Node24&#45;&gt;Node6 -->
<g id="edge30" class="edge"><title>Node24&#45;&gt;Node6</title>
<path fill="none" stroke="midnightblue" d="M519.052,-236.076C543.471,-244.247 571.382,-253.229 584,-256 741.439,-290.572 798.425,-230.789 944,-300 984.131,-319.08 1018.63,-359.537 1036.33,-383.046"/>
<polygon fill="midnightblue" stroke="midnightblue" points="1033.73,-385.422 1042.46,-391.423 1039.38,-381.287 1033.73,-385.422"/>
</g>
<!-- Node25 -->
<g id="node25" class="node"><title>Node25</title>
<g id="a_node25"><a xlink:href="../../df/dcc/classgui_1_1_turtle_view.html#ab9b87d12b06bce95f2b32ee05a89e7d6" target="_top" xlink:title="gui.TurtleView.rotate">
<polygon fill="white" stroke="black" points="604.5,-227.5 604.5,-246.5 717.5,-246.5 717.5,-227.5 604.5,-227.5"/>
<text text-anchor="middle" x="661" y="-234.5" font-family="Helvetica,sans-Serif" font-size="10.00">gui.TurtleView.rotate</text>
</a>
</g>
</g>
<!-- Node24&#45;&gt;Node25 -->
<g id="edge29" class="edge"><title>Node24&#45;&gt;Node25</title>
<path fill="none" stroke="midnightblue" d="M539.704,-226.596C557.299,-228.118 576.372,-229.767 594.036,-231.295"/>
<polygon fill="midnightblue" stroke="midnightblue" points="593.986,-234.804 604.251,-232.178 594.59,-227.83 593.986,-234.804"/>
</g>
</g>
</svg>
