<?xml version="1.0" encoding="UTF-8" standalone="no"?>
<!DOCTYPE svg PUBLIC "-//W3C//DTD SVG 1.1//EN"
 "http://www.w3.org/Graphics/SVG/1.1/DTD/svg11.dtd">
<!-- Generated by graphviz version 2.36.0 (20140111.2315)
 -->
<!-- Title: application.ViewHandler.changeLocationOfTurtle Pages: 1 -->
<!--zoomable 599 -->
<svg id="main" version="1.1" xmlns="http://www.w3.org/2000/svg" xmlns:xlink="http://www.w3.org/1999/xlink" xml:space="preserve" onload="init(evt)">
<style type="text/css"><![CDATA[
.edge:hover path { stroke: red; }
.edge:hover polygon { stroke: red; fill: red; }
]]></style>
<script type="text/javascript"><![CDATA[
var edges = document.getElementsByTagName('g');
if (edges && edges.length) {
  for (var i=0;i<edges.length;i++) {
    if (edges[i].id.substr(0,4)=='edge') {
      edges[i].setAttribute('class','edge');
    }
  }
}
]]></script>
        <defs>
                <circle id="rim" cx="0" cy="0" r="7"/>
                <circle id="rim2" cx="0" cy="0" r="3.5"/>
                <g id="zoomPlus">
                        <use xlink:href="#rim" fill="#404040">
                                <set attributeName="fill" to="#808080" begin="zoomplus.mouseover" end="zoomplus.mouseout"/>
                        </use>
                        <path d="M-4,0h8M0,-4v8" fill="none" stroke="white" stroke-width="1.5" pointer-events="none"/>
                </g>
                <g id="zoomMin">
                        <use xlink:href="#rim" fill="#404040">
                                <set attributeName="fill" to="#808080" begin="zoomminus.mouseover" end="zoomminus.mouseout"/>
                        </use>
                        <path d="M-4,0h8" fill="none" stroke="white" stroke-width="1.5" pointer-events="none"/>
                </g>
                <g id="dirArrow">
                        <path fill="none" stroke="white" stroke-width="1.5" d="M0,-3.0v7 M-2.5,-0.5L0,-3.0L2.5,-0.5"/>
                </g>
               <g id="resetDef">
                       <use xlink:href="#rim2" fill="#404040">
                               <set attributeName="fill" to="#808080" begin="reset.mouseover" end="reset.mouseout"/>
                       </use>
               </g>
        </defs>

<script type="text/javascript">
var viewWidth = 1332;
var viewHeight = 599;
var sectionId = 'dynsection-2';
</script>
<script xlink:href="../../svgpan.js"/>
<svg id="graph" class="graph">
<g id="viewport">
<title>application.ViewHandler.changeLocationOfTurtle</title>
<polygon fill="white" stroke="none" points="-4,4 -4,-595.284 1328,-595.284 1328,4 -4,4"/>
<!-- Node1 -->
<g id="node1" class="node"><title>Node1</title>
<polygon fill="#bfbfbf" stroke="black" points="0,-305 0,-335 168,-335 168,-305 0,-305"/>
<text text-anchor="start" x="8" y="-323" font-family="Helvetica,sans-Serif" font-size="10.00">application.ViewHandler.change</text>
<text text-anchor="middle" x="84" y="-312" font-family="Helvetica,sans-Serif" font-size="10.00">LocationOfTurtle</text>
</g>
<!-- Node2 -->
<g id="node2" class="node"><title>Node2</title>
<g id="a_node2"><a xlink:href="../../d1/d31/classapplication_1_1_turtle.html#a802873f2487ab3b6832050e1bef998a5" target="_top" xlink:title="application.Turtle.getLoc">
<polygon fill="white" stroke="black" points="997,-496.5 997,-515.5 1129,-515.5 1129,-496.5 997,-496.5"/>
<text text-anchor="middle" x="1063" y="-503.5" font-family="Helvetica,sans-Serif" font-size="10.00">application.Turtle.getLoc</text>
</a>
</g>
</g>
<!-- Node1&#45;&gt;Node2 -->
<g id="edge1" class="edge"><title>Node1&#45;&gt;Node2</title>
<path fill="none" stroke="midnightblue" d="M96.1059,-335.177C138.999,-391.87 300.568,-588 483,-588 483,-588 483,-588 679,-588 796.194,-588 829.299,-601.137 942,-569 978.556,-558.576 1016.76,-536.218 1039.98,-521.141"/>
<polygon fill="midnightblue" stroke="midnightblue" points="1041.99,-524.007 1048.39,-515.566 1038.12,-518.172 1041.99,-524.007"/>
</g>
<!-- Node3 -->
<g id="node3" class="node"><title>Node3</title>
<g id="a_node3"><a xlink:href="../../d8/d65/classapplication_1_1_view_handler.html#a98b4ba09b3f3e8b1a7667db5598dbfb0" target="_top" xlink:title="application.ViewHandler.move\lTurtleImageAndDraw">
<polygon fill="white" stroke="black" points="204,-305 204,-335 364,-335 364,-305 204,-305"/>
<text text-anchor="start" x="212" y="-323" font-family="Helvetica,sans-Serif" font-size="10.00">application.ViewHandler.move</text>
<text text-anchor="middle" x="284" y="-312" font-family="Helvetica,sans-Serif" font-size="10.00">TurtleImageAndDraw</text>
</a>
</g>
</g>
<!-- Node1&#45;&gt;Node3 -->
<g id="edge2" class="edge"><title>Node1&#45;&gt;Node3</title>
<path fill="none" stroke="midnightblue" d="M168.109,-320C176.629,-320 185.309,-320 193.889,-320"/>
<polygon fill="midnightblue" stroke="midnightblue" points="193.9,-323.5 203.9,-320 193.9,-316.5 193.9,-323.5"/>
</g>
<!-- Node4 -->
<g id="node4" class="node"><title>Node4</title>
<g id="a_node4"><a xlink:href="../../d8/d65/classapplication_1_1_view_handler.html#ae489ceaa9b5ec67faf3ba22a11cec085" target="_top" xlink:title="application.ViewHandler.update\lTurtleOnView">
<polygon fill="white" stroke="black" points="400.5,-386 400.5,-416 567.5,-416 567.5,-386 400.5,-386"/>
<text text-anchor="start" x="408.5" y="-404" font-family="Helvetica,sans-Serif" font-size="10.00">application.ViewHandler.update</text>
<text text-anchor="middle" x="484" y="-393" font-family="Helvetica,sans-Serif" font-size="10.00">TurtleOnView</text>
</a>
</g>
</g>
<!-- Node1&#45;&gt;Node4 -->
<g id="edge41" class="edge"><title>Node1&#45;&gt;Node4</title>
<path fill="none" stroke="midnightblue" d="M158.928,-335.046C227.096,-348.919 328.193,-369.494 399.303,-383.966"/>
<polygon fill="midnightblue" stroke="midnightblue" points="398.634,-387.402 409.131,-385.966 400.03,-380.542 398.634,-387.402"/>
</g>
<!-- Node27 -->
<g id="node27" class="node"><title>Node27</title>
<g id="a_node27"><a xlink:href="../../d1/d31/classapplication_1_1_turtle.html#a1055014d20f219b829679d8d4f3e0d97" target="_top" xlink:title="application.Turtle.setLocation">
<polygon fill="white" stroke="black" points="406.5,-64.5 406.5,-83.5 561.5,-83.5 561.5,-64.5 406.5,-64.5"/>
<text text-anchor="middle" x="484" y="-71.5" font-family="Helvetica,sans-Serif" font-size="10.00">application.Turtle.setLocation</text>
</a>
</g>
</g>
<!-- Node1&#45;&gt;Node27 -->
<g id="edge35" class="edge"><title>Node1&#45;&gt;Node27</title>
<path fill="none" stroke="midnightblue" d="M90.0637,-304.824C102.886,-268.882 140.227,-178.263 204,-134 260.367,-94.8774 337.398,-80.5241 396.239,-75.5905"/>
<polygon fill="midnightblue" stroke="midnightblue" points="396.556,-79.0766 406.261,-74.8259 396.023,-72.0969 396.556,-79.0766"/>
</g>
<!-- Node28 -->
<g id="node28" class="node"><title>Node28</title>
<g id="a_node28"><a xlink:href="../../d8/d65/classapplication_1_1_view_handler.html#a0dd92f1869c84b869aa893f428ba149b" target="_top" xlink:title="application.ViewHandler.set\lTurtleLocToViewTurtleLoc">
<polygon fill="white" stroke="black" points="210,-144 210,-174 358,-174 358,-144 210,-144"/>
<text text-anchor="start" x="218" y="-162" font-family="Helvetica,sans-Serif" font-size="10.00">application.ViewHandler.set</text>
<text text-anchor="middle" x="284" y="-151" font-family="Helvetica,sans-Serif" font-size="10.00">TurtleLocToViewTurtleLoc</text>
</a>
</g>
</g>
<!-- Node1&#45;&gt;Node28 -->
<g id="edge36" class="edge"><title>Node1&#45;&gt;Node28</title>
<path fill="none" stroke="midnightblue" d="M103.627,-304.854C138.932,-276.146 215.689,-213.733 256.402,-180.628"/>
<polygon fill="midnightblue" stroke="midnightblue" points="258.727,-183.248 264.278,-174.224 254.311,-177.817 258.727,-183.248"/>
</g>
<!-- Node3&#45;&gt;Node4 -->
<g id="edge3" class="edge"><title>Node3&#45;&gt;Node4</title>
<path fill="none" stroke="midnightblue" d="M321.778,-335.046C354.184,-348.302 401.547,-367.678 436.558,-382.001"/>
<polygon fill="midnightblue" stroke="midnightblue" points="435.503,-385.351 446.083,-385.898 438.153,-378.872 435.503,-385.351"/>
</g>
<!-- Node10 -->
<g id="node10" class="node"><title>Node10</title>
<g id="a_node10"><a xlink:href="../../df/dcb/classapplication_1_1_pen_handler.html#a8477a9a258753bb5538ad83a015fb731" target="_top" xlink:title="application.PenHandler.get\lPenStatus">
<polygon fill="white" stroke="black" points="792.5,-305 792.5,-335 937.5,-335 937.5,-305 792.5,-305"/>
<text text-anchor="start" x="800.5" y="-323" font-family="Helvetica,sans-Serif" font-size="10.00">application.PenHandler.get</text>
<text text-anchor="middle" x="865" y="-312" font-family="Helvetica,sans-Serif" font-size="10.00">PenStatus</text>
</a>
</g>
</g>
<!-- Node3&#45;&gt;Node10 -->
<g id="edge24" class="edge"><title>Node3&#45;&gt;Node10</title>
<path fill="none" stroke="midnightblue" d="M364.293,-320C474.067,-320 671.326,-320 782.341,-320"/>
<polygon fill="midnightblue" stroke="midnightblue" points="782.48,-323.5 792.48,-320 782.48,-316.5 782.48,-323.5"/>
</g>
<!-- Node22 -->
<g id="node22" class="node"><title>Node22</title>
<g id="a_node22"><a xlink:href="../../d8/ddb/classgui_1_1_line_view.html#abe4c6727ecf95f07a0a7a68e4e7dcb40" target="_top" xlink:title="gui.LineView.drawLine">
<polygon fill="white" stroke="black" points="424.5,-152.5 424.5,-171.5 543.5,-171.5 543.5,-152.5 424.5,-152.5"/>
<text text-anchor="middle" x="484" y="-159.5" font-family="Helvetica,sans-Serif" font-size="10.00">gui.LineView.drawLine</text>
</a>
</g>
</g>
<!-- Node3&#45;&gt;Node22 -->
<g id="edge25" class="edge"><title>Node3&#45;&gt;Node22</title>
<path fill="none" stroke="midnightblue" d="M303.985,-304.85C341.42,-274.978 424.444,-208.727 462.823,-178.1"/>
<polygon fill="midnightblue" stroke="midnightblue" points="465.093,-180.767 470.726,-171.794 460.727,-175.296 465.093,-180.767"/>
</g>
<!-- Node5 -->
<g id="node5" class="node"><title>Node5</title>
<g id="a_node5"><a xlink:href="../../d8/d65/classapplication_1_1_view_handler.html#a308dcaf9847965fa4a3d261347845f56" target="_top" xlink:title="application.ViewHandler.set\lInfoParamsOfTurtleAndLine">
<polygon fill="white" stroke="black" points="604,-398 604,-428 752,-428 752,-398 604,-398"/>
<text text-anchor="start" x="612" y="-416" font-family="Helvetica,sans-Serif" font-size="10.00">application.ViewHandler.set</text>
<text text-anchor="middle" x="678" y="-405" font-family="Helvetica,sans-Serif" font-size="10.00">InfoParamsOfTurtleAndLine</text>
</a>
</g>
</g>
<!-- Node4&#45;&gt;Node5 -->
<g id="edge4" class="edge"><title>Node4&#45;&gt;Node5</title>
<path fill="none" stroke="midnightblue" d="M567.54,-406.159C576.233,-406.702 585.076,-407.255 593.777,-407.799"/>
<polygon fill="midnightblue" stroke="midnightblue" points="593.709,-411.301 603.908,-408.432 594.146,-404.315 593.709,-411.301"/>
</g>
<!-- Node7 -->
<g id="node7" class="node"><title>Node7</title>
<g id="a_node7"><a xlink:href="../../d8/d65/classapplication_1_1_view_handler.html#a8a3722771a70075225d9c37dc1ff5e8d" target="_top" xlink:title="application.ViewHandler.get\lTurtleLocation">
<polygon fill="white" stroke="black" points="790.5,-491 790.5,-521 939.5,-521 939.5,-491 790.5,-491"/>
<text text-anchor="start" x="798.5" y="-509" font-family="Helvetica,sans-Serif" font-size="10.00">application.ViewHandler.get</text>
<text text-anchor="middle" x="865" y="-498" font-family="Helvetica,sans-Serif" font-size="10.00">TurtleLocation</text>
</a>
</g>
</g>
<!-- Node4&#45;&gt;Node7 -->
<g id="edge22" class="edge"><title>Node4&#45;&gt;Node7</title>
<path fill="none" stroke="midnightblue" d="M503.009,-416.036C525.215,-433.661 564.842,-462.209 604,-476 660.653,-495.952 728.122,-503.298 780.132,-505.737"/>
<polygon fill="midnightblue" stroke="midnightblue" points="780.183,-509.242 790.32,-506.162 780.475,-502.248 780.183,-509.242"/>
</g>
<!-- Node8 -->
<g id="node8" class="node"><title>Node8</title>
<g id="a_node8"><a xlink:href="../../d8/d65/classapplication_1_1_view_handler.html#a8a00eb25a7f1d5e3ccc3059e8b717819" target="_top" xlink:title="application.ViewHandler.get\lTurtleOrientation">
<polygon fill="white" stroke="black" points="790.5,-354 790.5,-384 939.5,-384 939.5,-354 790.5,-354"/>
<text text-anchor="start" x="798.5" y="-372" font-family="Helvetica,sans-Serif" font-size="10.00">application.ViewHandler.get</text>
<text text-anchor="middle" x="865" y="-361" font-family="Helvetica,sans-Serif" font-size="10.00">TurtleOrientation</text>
</a>
</g>
</g>
<!-- Node4&#45;&gt;Node8 -->
<g id="edge23" class="edge"><title>Node4&#45;&gt;Node8</title>
<path fill="none" stroke="midnightblue" d="M567.557,-392.419C579.772,-391.224 592.211,-390.048 604,-389 662.869,-383.768 729.311,-378.671 780.292,-374.932"/>
<polygon fill="midnightblue" stroke="midnightblue" points="780.557,-378.422 790.275,-374.203 780.047,-371.441 780.557,-378.422"/>
</g>
<!-- Node16 -->
<g id="node16" class="node"><title>Node16</title>
<g id="a_node16"><a xlink:href="../../d8/d65/classapplication_1_1_view_handler.html#a6f94dbee91670d4c9ae7164f61b8cd03" target="_top" xlink:title="application.ViewHandler.is\lVisible">
<polygon fill="white" stroke="black" points="608,-528 608,-558 748,-558 748,-528 608,-528"/>
<text text-anchor="start" x="616" y="-546" font-family="Helvetica,sans-Serif" font-size="10.00">application.ViewHandler.is</text>
<text text-anchor="middle" x="678" y="-535" font-family="Helvetica,sans-Serif" font-size="10.00">Visible</text>
</a>
</g>
</g>
<!-- Node4&#45;&gt;Node16 -->
<g id="edge16" class="edge"><title>Node4&#45;&gt;Node16</title>
<path fill="none" stroke="midnightblue" d="M498.342,-416.23C519.086,-439.189 561.159,-482.955 604,-511 611.073,-515.63 618.928,-519.873 626.788,-523.65"/>
<polygon fill="midnightblue" stroke="midnightblue" points="625.423,-526.874 635.972,-527.864 628.343,-520.512 625.423,-526.874"/>
</g>
<!-- Node18 -->
<g id="node18" class="node"><title>Node18</title>
<g id="a_node18"><a xlink:href="../../df/dcc/classgui_1_1_turtle_view.html#afa73e516fcab92ab1c3a6941b6131cb5" target="_top" xlink:title="gui.TurtleView.showTurtle">
<polygon fill="white" stroke="black" points="611.5,-447.5 611.5,-466.5 744.5,-466.5 744.5,-447.5 611.5,-447.5"/>
<text text-anchor="middle" x="678" y="-454.5" font-family="Helvetica,sans-Serif" font-size="10.00">gui.TurtleView.showTurtle</text>
</a>
</g>
</g>
<!-- Node4&#45;&gt;Node18 -->
<g id="edge18" class="edge"><title>Node4&#45;&gt;Node18</title>
<path fill="none" stroke="midnightblue" d="M533.549,-416.003C555.09,-422.578 580.771,-430.306 604,-437 612.902,-439.565 622.437,-442.235 631.582,-444.756"/>
<polygon fill="midnightblue" stroke="midnightblue" points="630.733,-448.152 641.303,-447.422 632.585,-441.402 630.733,-448.152"/>
</g>
<!-- Node19 -->
<g id="node19" class="node"><title>Node19</title>
<g id="a_node19"><a xlink:href="../../df/dcc/classgui_1_1_turtle_view.html#adcff447c1d488ddfd13d151067e6db7a" target="_top" xlink:title="gui.TurtleView.rotateAnd\lMoveTurtle">
<polygon fill="white" stroke="black" points="612.5,-261 612.5,-291 743.5,-291 743.5,-261 612.5,-261"/>
<text text-anchor="start" x="620.5" y="-279" font-family="Helvetica,sans-Serif" font-size="10.00">gui.TurtleView.rotateAnd</text>
<text text-anchor="middle" x="678" y="-268" font-family="Helvetica,sans-Serif" font-size="10.00">MoveTurtle</text>
</a>
</g>
</g>
<!-- Node4&#45;&gt;Node19 -->
<g id="edge19" class="edge"><title>Node4&#45;&gt;Node19</title>
<path fill="none" stroke="midnightblue" d="M508.16,-385.922C542.324,-363.68 606.346,-321.999 644.984,-296.844"/>
<polygon fill="midnightblue" stroke="midnightblue" points="647.287,-299.521 653.758,-291.131 643.468,-293.654 647.287,-299.521"/>
</g>
<!-- Node6 -->
<g id="node6" class="node"><title>Node6</title>
<g id="a_node6"><a xlink:href="../../df/dcc/classgui_1_1_turtle_view.html#a978020a0f6ccbc4714b77c71435b0799" target="_top" xlink:title="gui.TurtleView.setTurtleInfo">
<polygon fill="white" stroke="black" points="794.5,-452.5 794.5,-471.5 935.5,-471.5 935.5,-452.5 794.5,-452.5"/>
<text text-anchor="middle" x="865" y="-459.5" font-family="Helvetica,sans-Serif" font-size="10.00">gui.TurtleView.setTurtleInfo</text>
</a>
</g>
</g>
<!-- Node5&#45;&gt;Node6 -->
<g id="edge5" class="edge"><title>Node5&#45;&gt;Node6</title>
<path fill="none" stroke="midnightblue" d="M735.284,-428.006C752.227,-432.514 770.868,-437.467 788,-442 797.694,-444.565 808.087,-447.306 817.978,-449.91"/>
<polygon fill="midnightblue" stroke="midnightblue" points="817.095,-453.297 827.657,-452.457 818.876,-446.528 817.095,-453.297"/>
</g>
<!-- Node5&#45;&gt;Node7 -->
<g id="edge6" class="edge"><title>Node5&#45;&gt;Node7</title>
<path fill="none" stroke="midnightblue" d="M734.008,-428.145C740.33,-430.943 746.479,-434.208 752,-438 772.545,-452.112 767.37,-467.013 788,-481 790.905,-482.969 793.976,-484.793 797.154,-486.482"/>
<polygon fill="midnightblue" stroke="midnightblue" points="795.807,-489.718 806.337,-490.889 798.836,-483.407 795.807,-489.718"/>
</g>
<!-- Node5&#45;&gt;Node8 -->
<g id="edge8" class="edge"><title>Node5&#45;&gt;Node8</title>
<path fill="none" stroke="midnightblue" d="M742.149,-397.981C757.839,-394.249 774.785,-390.219 790.908,-386.384"/>
<polygon fill="midnightblue" stroke="midnightblue" points="791.903,-389.745 800.822,-384.026 790.283,-382.935 791.903,-389.745"/>
</g>
<!-- Node5&#45;&gt;Node10 -->
<g id="edge10" class="edge"><title>Node5&#45;&gt;Node10</title>
<path fill="none" stroke="midnightblue" d="M699.382,-397.825C720.62,-382.572 755.301,-359.199 788,-344 792.062,-342.112 796.312,-340.317 800.638,-338.623"/>
<polygon fill="midnightblue" stroke="midnightblue" points="802.03,-341.84 810.185,-335.077 799.592,-335.278 802.03,-341.84"/>
</g>
<!-- Node12 -->
<g id="node12" class="node"><title>Node12</title>
<g id="a_node12"><a xlink:href="../../df/dcb/classapplication_1_1_pen_handler.html#a518bb3076e4d9d105870b0778341a8c0" target="_top" xlink:title="application.PenHandler.set\lThicknessParameter">
<polygon fill="white" stroke="black" points="793,-403 793,-433 937,-433 937,-403 793,-403"/>
<text text-anchor="start" x="801" y="-421" font-family="Helvetica,sans-Serif" font-size="10.00">application.PenHandler.set</text>
<text text-anchor="middle" x="865" y="-410" font-family="Helvetica,sans-Serif" font-size="10.00">ThicknessParameter</text>
</a>
</g>
</g>
<!-- Node5&#45;&gt;Node12 -->
<g id="edge12" class="edge"><title>Node5&#45;&gt;Node12</title>
<path fill="none" stroke="midnightblue" d="M752.117,-414.976C762.191,-415.248 772.587,-415.529 782.796,-415.805"/>
<polygon fill="midnightblue" stroke="midnightblue" points="782.834,-419.308 792.925,-416.079 783.023,-412.31 782.834,-419.308"/>
</g>
<!-- Node7&#45;&gt;Node2 -->
<g id="edge7" class="edge"><title>Node7&#45;&gt;Node2</title>
<path fill="none" stroke="midnightblue" d="M939.541,-506C954.956,-506 971.234,-506 986.712,-506"/>
<polygon fill="midnightblue" stroke="midnightblue" points="986.751,-509.5 996.751,-506 986.751,-502.5 986.751,-509.5"/>
</g>
<!-- Node9 -->
<g id="node9" class="node"><title>Node9</title>
<g id="a_node9"><a xlink:href="../../d1/d31/classapplication_1_1_turtle.html#af22147e198fac9068726b95eea235739" target="_top" xlink:title="application.Turtle.getOrientation">
<polygon fill="white" stroke="black" points="978.5,-359.5 978.5,-378.5 1147.5,-378.5 1147.5,-359.5 978.5,-359.5"/>
<text text-anchor="middle" x="1063" y="-366.5" font-family="Helvetica,sans-Serif" font-size="10.00">application.Turtle.getOrientation</text>
</a>
</g>
</g>
<!-- Node8&#45;&gt;Node9 -->
<g id="edge9" class="edge"><title>Node8&#45;&gt;Node9</title>
<path fill="none" stroke="midnightblue" d="M939.541,-369C948.973,-369 958.729,-369 968.426,-369"/>
<polygon fill="midnightblue" stroke="midnightblue" points="968.495,-372.5 978.495,-369 968.495,-365.5 968.495,-372.5"/>
</g>
<!-- Node11 -->
<g id="node11" class="node"><title>Node11</title>
<g id="a_node11"><a xlink:href="../../de/d5a/classapplication_1_1_pen.html#ab21d78789fb66a90181393d7cc42796c" target="_top" xlink:title="application.Pen.getStatus">
<polygon fill="white" stroke="black" points="993,-310.5 993,-329.5 1133,-329.5 1133,-310.5 993,-310.5"/>
<text text-anchor="middle" x="1063" y="-317.5" font-family="Helvetica,sans-Serif" font-size="10.00">application.Pen.getStatus</text>
</a>
</g>
</g>
<!-- Node10&#45;&gt;Node11 -->
<g id="edge11" class="edge"><title>Node10&#45;&gt;Node11</title>
<path fill="none" stroke="midnightblue" d="M937.592,-320C952.253,-320 967.765,-320 982.679,-320"/>
<polygon fill="midnightblue" stroke="midnightblue" points="982.89,-323.5 992.89,-320 982.89,-316.5 982.89,-323.5"/>
</g>
<!-- Node13 -->
<g id="node13" class="node"><title>Node13</title>
<g id="a_node13"><a xlink:href="../../df/dcb/classapplication_1_1_pen_handler.html#a307ff6736f97a1aa1706da924d7e642b" target="_top" xlink:title="application.PenHandler.get\lPenWeight">
<polygon fill="white" stroke="black" points="990.5,-400 990.5,-430 1135.5,-430 1135.5,-400 990.5,-400"/>
<text text-anchor="start" x="998.5" y="-418" font-family="Helvetica,sans-Serif" font-size="10.00">application.PenHandler.get</text>
<text text-anchor="middle" x="1063" y="-407" font-family="Helvetica,sans-Serif" font-size="10.00">PenWeight</text>
</a>
</g>
</g>
<!-- Node12&#45;&gt;Node13 -->
<g id="edge13" class="edge"><title>Node12&#45;&gt;Node13</title>
<path fill="none" stroke="midnightblue" d="M937.038,-416.913C950.966,-416.699 965.683,-416.474 979.938,-416.256"/>
<polygon fill="midnightblue" stroke="midnightblue" points="980.272,-419.751 990.218,-416.099 980.165,-412.752 980.272,-419.751"/>
</g>
<!-- Node15 -->
<g id="node15" class="node"><title>Node15</title>
<g id="a_node15"><a xlink:href="../../d8/ddb/classgui_1_1_line_view.html#ab32d4cf33024aea52dcb5d1092003d85" target="_top" xlink:title="gui.LineView.setThickness">
<polygon fill="white" stroke="black" points="993.5,-449.5 993.5,-468.5 1132.5,-468.5 1132.5,-449.5 993.5,-449.5"/>
<text text-anchor="middle" x="1063" y="-456.5" font-family="Helvetica,sans-Serif" font-size="10.00">gui.LineView.setThickness</text>
</a>
</g>
</g>
<!-- Node12&#45;&gt;Node15 -->
<g id="edge15" class="edge"><title>Node12&#45;&gt;Node15</title>
<path fill="none" stroke="midnightblue" d="M937.038,-432.86C959.925,-437.648 984.94,-442.88 1006.54,-447.398"/>
<polygon fill="midnightblue" stroke="midnightblue" points="1006.01,-450.864 1016.52,-449.486 1007.45,-444.012 1006.01,-450.864"/>
</g>
<!-- Node14 -->
<g id="node14" class="node"><title>Node14</title>
<g id="a_node14"><a xlink:href="../../de/d5a/classapplication_1_1_pen.html#aaaae5f55fadb97afef2ae286a6119a58" target="_top" xlink:title="application.Pen.getWeight">
<polygon fill="white" stroke="black" points="1184,-405.5 1184,-424.5 1324,-424.5 1324,-405.5 1184,-405.5"/>
<text text-anchor="middle" x="1254" y="-412.5" font-family="Helvetica,sans-Serif" font-size="10.00">application.Pen.getWeight</text>
</a>
</g>
</g>
<!-- Node13&#45;&gt;Node14 -->
<g id="edge14" class="edge"><title>Node13&#45;&gt;Node14</title>
<path fill="none" stroke="midnightblue" d="M1135.72,-415C1148.16,-415 1161.17,-415 1173.8,-415"/>
<polygon fill="midnightblue" stroke="midnightblue" points="1173.82,-418.5 1183.82,-415 1173.82,-411.5 1173.82,-418.5"/>
</g>
<!-- Node17 -->
<g id="node17" class="node"><title>Node17</title>
<g id="a_node17"><a xlink:href="../../d1/d31/classapplication_1_1_turtle.html#a75e592fccb8420e254ba668429797898" target="_top" xlink:title="application.Turtle.getVisibility">
<polygon fill="white" stroke="black" points="788,-540.5 788,-559.5 942,-559.5 942,-540.5 788,-540.5"/>
<text text-anchor="middle" x="865" y="-547.5" font-family="Helvetica,sans-Serif" font-size="10.00">application.Turtle.getVisibility</text>
</a>
</g>
</g>
<!-- Node16&#45;&gt;Node17 -->
<g id="edge17" class="edge"><title>Node16&#45;&gt;Node17</title>
<path fill="none" stroke="midnightblue" d="M748.15,-545.616C757.748,-545.98 767.704,-546.356 777.568,-546.73"/>
<polygon fill="midnightblue" stroke="midnightblue" points="777.67,-550.236 787.795,-547.117 777.934,-543.241 777.67,-550.236"/>
</g>
<!-- Node20 -->
<g id="node20" class="node"><title>Node20</title>
<g id="a_node20"><a xlink:href="../../df/dcc/classgui_1_1_turtle_view.html#ab9b87d12b06bce95f2b32ee05a89e7d6" target="_top" xlink:title="gui.TurtleView.rotate">
<polygon fill="white" stroke="black" points="808.5,-266.5 808.5,-285.5 921.5,-285.5 921.5,-266.5 808.5,-266.5"/>
<text text-anchor="middle" x="865" y="-273.5" font-family="Helvetica,sans-Serif" font-size="10.00">gui.TurtleView.rotate</text>
</a>
</g>
</g>
<!-- Node19&#45;&gt;Node20 -->
<g id="edge20" class="edge"><title>Node19&#45;&gt;Node20</title>
<path fill="none" stroke="midnightblue" d="M743.704,-276C761.299,-276 780.372,-276 798.036,-276"/>
<polygon fill="midnightblue" stroke="midnightblue" points="798.251,-279.5 808.251,-276 798.251,-272.5 798.251,-279.5"/>
</g>
<!-- Node21 -->
<g id="node21" class="node"><title>Node21</title>
<g id="a_node21"><a xlink:href="../../d8/d8b/classgui_1_1_view.html#a9df94efe60af56c89531c45f0f3f9624" target="_top" xlink:title="gui.View.setNewPoint">
<polygon fill="white" stroke="black" points="1195.5,-114.5 1195.5,-133.5 1312.5,-133.5 1312.5,-114.5 1195.5,-114.5"/>
<text text-anchor="middle" x="1254" y="-121.5" font-family="Helvetica,sans-Serif" font-size="10.00">gui.View.setNewPoint</text>
</a>
</g>
</g>
<!-- Node19&#45;&gt;Node21 -->
<g id="edge21" class="edge"><title>Node19&#45;&gt;Node21</title>
<path fill="none" stroke="midnightblue" d="M743.698,-262.61C834.716,-243.245 1005.4,-204.997 1148,-162 1172.25,-154.69 1199.09,-144.946 1219.56,-137.156"/>
<polygon fill="midnightblue" stroke="midnightblue" points="1220.98,-140.359 1229.06,-133.507 1218.47,-133.825 1220.98,-140.359"/>
</g>
<!-- Node22&#45;&gt;Node21 -->
<g id="edge34" class="edge"><title>Node22&#45;&gt;Node21</title>
<path fill="none" stroke="midnightblue" d="M538.788,-152.429C548.75,-149.716 558.881,-146.293 568,-142 586.095,-133.482 585.436,-122.442 604,-115 828.737,-24.9112 909.519,-44.1737 1148,-86 1174.54,-90.6547 1203.21,-101.456 1223.88,-110.358"/>
<polygon fill="midnightblue" stroke="midnightblue" points="1222.49,-113.572 1233.05,-114.412 1225.32,-107.169 1222.49,-113.572"/>
</g>
<!-- Node23 -->
<g id="node23" class="node"><title>Node23</title>
<g id="a_node23"><a xlink:href="../../d8/ddb/classgui_1_1_line_view.html#aac6f01646ce73691c335b27ecd385dea" target="_top" xlink:title="gui.LineView.findBoundary\lPoint">
<polygon fill="white" stroke="black" points="608,-125 608,-155 748,-155 748,-125 608,-125"/>
<text text-anchor="start" x="616" y="-143" font-family="Helvetica,sans-Serif" font-size="10.00">gui.LineView.findBoundary</text>
<text text-anchor="middle" x="678" y="-132" font-family="Helvetica,sans-Serif" font-size="10.00">Point</text>
</a>
</g>
</g>
<!-- Node22&#45;&gt;Node23 -->
<g id="edge26" class="edge"><title>Node22&#45;&gt;Node23</title>
<path fill="none" stroke="midnightblue" d="M543.65,-155.28C560.771,-153.318 579.77,-151.141 597.933,-149.06"/>
<polygon fill="midnightblue" stroke="midnightblue" points="598.384,-152.531 607.921,-147.915 597.587,-145.577 598.384,-152.531"/>
</g>
<!-- Node24 -->
<g id="node24" class="node"><title>Node24</title>
<g id="a_node24"><a xlink:href="../../d8/ddb/classgui_1_1_line_view.html#a29757337f55037a9e48da9098eca8a09" target="_top" xlink:title="gui.LineView.findCorner">
<polygon fill="white" stroke="black" points="801.5,-114.5 801.5,-133.5 928.5,-133.5 928.5,-114.5 801.5,-114.5"/>
<text text-anchor="middle" x="865" y="-121.5" font-family="Helvetica,sans-Serif" font-size="10.00">gui.LineView.findCorner</text>
</a>
</g>
</g>
<!-- Node23&#45;&gt;Node24 -->
<g id="edge27" class="edge"><title>Node23&#45;&gt;Node24</title>
<path fill="none" stroke="midnightblue" d="M748.15,-134.019C762.19,-132.805 776.997,-131.525 791.16,-130.3"/>
<polygon fill="midnightblue" stroke="midnightblue" points="791.677,-133.768 801.338,-129.419 791.074,-126.794 791.677,-133.768"/>
</g>
<!-- Node25 -->
<g id="node25" class="node"><title>Node25</title>
<g id="a_node25"><a xlink:href="../../d8/ddb/classgui_1_1_line_view.html#a6cc826f05b0ac955fab89afbfca7c1a8" target="_top" xlink:title="gui.LineView.findYEdge">
<polygon fill="white" stroke="black" points="1001,-95.5 1001,-114.5 1125,-114.5 1125,-95.5 1001,-95.5"/>
<text text-anchor="middle" x="1063" y="-102.5" font-family="Helvetica,sans-Serif" font-size="10.00">gui.LineView.findYEdge</text>
</a>
</g>
</g>
<!-- Node23&#45;&gt;Node25 -->
<g id="edge33" class="edge"><title>Node23&#45;&gt;Node25</title>
<path fill="none" stroke="midnightblue" d="M716.134,-124.905C736.892,-117.279 763.455,-108.844 788,-105 856.245,-94.312 935.229,-95.7492 990.811,-98.9949"/>
<polygon fill="midnightblue" stroke="midnightblue" points="990.712,-102.495 1000.91,-99.6194 991.144,-95.5087 990.712,-102.495"/>
</g>
<!-- Node26 -->
<g id="node26" class="node"><title>Node26</title>
<g id="a_node26"><a xlink:href="../../d8/ddb/classgui_1_1_line_view.html#a4a4d4a5dc42ec1fc8896b453703b6991" target="_top" xlink:title="gui.LineView.findXEdge">
<polygon fill="white" stroke="black" points="1000.5,-133.5 1000.5,-152.5 1125.5,-152.5 1125.5,-133.5 1000.5,-133.5"/>
<text text-anchor="middle" x="1063" y="-140.5" font-family="Helvetica,sans-Serif" font-size="10.00">gui.LineView.findXEdge</text>
</a>
</g>
</g>
<!-- Node23&#45;&gt;Node26 -->
<g id="edge32" class="edge"><title>Node23&#45;&gt;Node26</title>
<path fill="none" stroke="midnightblue" d="M748.188,-142.191C761.404,-142.528 775.128,-142.823 788,-143 856.622,-143.944 934.921,-143.824 990.195,-143.54"/>
<polygon fill="midnightblue" stroke="midnightblue" points="990.26,-147.039 1000.24,-143.485 990.222,-140.039 990.26,-147.039"/>
</g>
<!-- Node24&#45;&gt;Node25 -->
<g id="edge28" class="edge"><title>Node24&#45;&gt;Node25</title>
<path fill="none" stroke="midnightblue" d="M928.555,-117.936C948.298,-116.022 970.259,-113.893 990.573,-111.924"/>
<polygon fill="midnightblue" stroke="midnightblue" points="991.093,-115.39 1000.71,-110.941 990.418,-108.423 991.093,-115.39"/>
</g>
<!-- Node24&#45;&gt;Node26 -->
<g id="edge30" class="edge"><title>Node24&#45;&gt;Node26</title>
<path fill="none" stroke="midnightblue" d="M928.555,-130.064C948.202,-131.969 970.046,-134.086 990.277,-136.047"/>
<polygon fill="midnightblue" stroke="midnightblue" points="990.083,-139.545 1000.37,-137.026 990.759,-132.577 990.083,-139.545"/>
</g>
<!-- Node25&#45;&gt;Node21 -->
<g id="edge29" class="edge"><title>Node25&#45;&gt;Node21</title>
<path fill="none" stroke="midnightblue" d="M1125.1,-111.143C1144.3,-113.072 1165.6,-115.214 1185.23,-117.187"/>
<polygon fill="midnightblue" stroke="midnightblue" points="1185.02,-120.684 1195.32,-118.202 1185.72,-113.719 1185.02,-120.684"/>
</g>
<!-- Node26&#45;&gt;Node21 -->
<g id="edge31" class="edge"><title>Node26&#45;&gt;Node21</title>
<path fill="none" stroke="midnightblue" d="M1125.62,-136.805C1144.7,-134.887 1165.83,-132.763 1185.3,-130.806"/>
<polygon fill="midnightblue" stroke="midnightblue" points="1185.71,-134.283 1195.31,-129.8 1185.01,-127.318 1185.71,-134.283"/>
</g>
<!-- Node28&#45;&gt;Node2 -->
<g id="edge37" class="edge"><title>Node28&#45;&gt;Node2</title>
<path fill="none" stroke="midnightblue" d="M358.213,-173.571C372.07,-176.168 386.464,-178.758 400,-181 639.975,-220.754 768.104,-86.9161 942,-257 1013.14,-326.585 913.49,-402.224 978,-478 982.933,-483.794 989.098,-488.394 995.836,-492.046"/>
<polygon fill="midnightblue" stroke="midnightblue" points="994.772,-495.411 1005.32,-496.46 997.727,-489.066 994.772,-495.411"/>
</g>
<!-- Node28&#45;&gt;Node27 -->
<g id="edge38" class="edge"><title>Node28&#45;&gt;Node27</title>
<path fill="none" stroke="midnightblue" d="M306.917,-143.78C329.354,-128.848 365.701,-106.423 400,-93 406.625,-90.4074 413.692,-88.1181 420.801,-86.1097"/>
<polygon fill="midnightblue" stroke="midnightblue" points="421.715,-89.4885 430.484,-83.5429 419.921,-82.7222 421.715,-89.4885"/>
</g>
<!-- Node29 -->
<g id="node29" class="node"><title>Node29</title>
<g id="a_node29"><a xlink:href="../../d8/d65/classapplication_1_1_view_handler.html#aba2ed11a44abfaf2d5684ab5a7bbb33f" target="_top" xlink:title="application.ViewHandler.get\lViewTurtleLocation">
<polygon fill="white" stroke="black" points="409.5,-103 409.5,-133 558.5,-133 558.5,-103 409.5,-103"/>
<text text-anchor="start" x="417.5" y="-121" font-family="Helvetica,sans-Serif" font-size="10.00">application.ViewHandler.get</text>
<text text-anchor="middle" x="484" y="-110" font-family="Helvetica,sans-Serif" font-size="10.00">ViewTurtleLocation</text>
</a>
</g>
</g>
<!-- Node28&#45;&gt;Node29 -->
<g id="edge39" class="edge"><title>Node28&#45;&gt;Node29</title>
<path fill="none" stroke="midnightblue" d="M357.604,-143.966C371.458,-141.097 386.057,-138.074 400.203,-135.145"/>
<polygon fill="midnightblue" stroke="midnightblue" points="401.323,-138.487 410.405,-133.032 399.903,-131.633 401.323,-138.487"/>
</g>
<!-- Node30 -->
<g id="node30" class="node"><title>Node30</title>
<g id="a_node30"><a xlink:href="../../d8/d8b/classgui_1_1_view.html#a805679dcb8753b21508755667f09fac9" target="_top" xlink:title="gui.View.getNewPoint">
<polygon fill="white" stroke="black" points="619,-0.5 619,-19.5 737,-19.5 737,-0.5 619,-0.5"/>
<text text-anchor="middle" x="678" y="-7.5" font-family="Helvetica,sans-Serif" font-size="10.00">gui.View.getNewPoint</text>
</a>
</g>
</g>
<!-- Node29&#45;&gt;Node30 -->
<g id="edge40" class="edge"><title>Node29&#45;&gt;Node30</title>
<path fill="none" stroke="midnightblue" d="M551.545,-102.898C557.403,-100.133 562.998,-96.864 568,-93 592.309,-74.2209 579.928,-53.0824 604,-34 609.338,-29.7682 615.451,-26.2697 621.818,-23.3804"/>
<polygon fill="midnightblue" stroke="midnightblue" points="623.302,-26.5559 631.266,-19.5685 620.683,-20.0643 623.302,-26.5559"/>
</g>
</g>
</svg>
        <g id="navigator" transform="translate(0 0)" fill="#404254">
                <rect fill="#f2f5e9" fill-opacity="0.5" stroke="#606060" stroke-width=".5" x="0" y="0" width="60" height="60"/>
                <use id="zoomplus" xlink:href="#zoomPlus" x="17" y="9" onmousedown="handleZoom(evt,'in')"/>
                <use id="zoomminus" xlink:href="#zoomMin" x="42" y="9" onmousedown="handleZoom(evt,'out')"/>
                <use id="reset" xlink:href="#resetDef" x="30" y="36" onmousedown="handleReset()"/>
                <g id="arrowUp" xlink:href="#dirArrow" transform="translate(30 24)" onmousedown="handlePan(0,-1)">
                  <use xlink:href="#rim" fill="#404040">
                        <set attributeName="fill" to="#808080" begin="arrowUp.mouseover" end="arrowUp.mouseout"/>
                  </use>
                  <path fill="none" stroke="white" stroke-width="1.5" d="M0,-3.0v7 M-2.5,-0.5L0,-3.0L2.5,-0.5"/>
                </g>
                <g id="arrowRight" xlink:href="#dirArrow" transform="rotate(90) translate(36 -43)" onmousedown="handlePan(1,0)">
                  <use xlink:href="#rim" fill="#404040">
                        <set attributeName="fill" to="#808080" begin="arrowRight.mouseover" end="arrowRight.mouseout"/>
                  </use>
                  <path fill="none" stroke="white" stroke-width="1.5" d="M0,-3.0v7 M-2.5,-0.5L0,-3.0L2.5,-0.5"/>
                </g>
                <g id="arrowDown" xlink:href="#dirArrow" transform="rotate(180) translate(-30 -48)" onmousedown="handlePan(0,1)">
                  <use xlink:href="#rim" fill="#404040">
                        <set attributeName="fill" to="#808080" begin="arrowDown.mouseover" end="arrowDown.mouseout"/>
                  </use>
                  <path fill="none" stroke="white" stroke-width="1.5" d="M0,-3.0v7 M-2.5,-0.5L0,-3.0L2.5,-0.5"/>
                </g>
                <g id="arrowLeft" xlink:href="#dirArrow" transform="rotate(270) translate(-36 17)" onmousedown="handlePan(-1,0)">
                  <use xlink:href="#rim" fill="#404040">
                        <set attributeName="fill" to="#808080" begin="arrowLeft.mouseover" end="arrowLeft.mouseout"/>
                  </use>
                  <path fill="none" stroke="white" stroke-width="1.5" d="M0,-3.0v7 M-2.5,-0.5L0,-3.0L2.5,-0.5"/>
                </g>
        </g>
        <svg viewBox="0 0 15 15" width="100%" height="30px" preserveAspectRatio="xMaxYMin meet">
         <g id="arrow_out" transform="scale(0.3 0.3)">
          <a xlink:href="classapplication_1_1_view_handler_a1aff135a076a9717102bb59ea613131c_cgraph_org.svg" target="_base">
           <rect id="button" ry="5" rx="5" y="6" x="6" height="38" width="38"
                fill="#f2f5e9" fill-opacity="0.5" stroke="#606060" stroke-width="1.0"/>
           <path id="arrow"
             d="M 11.500037,31.436501 C 11.940474,20.09759 22.043105,11.32322 32.158766,21.979434 L 37.068811,17.246167 C 37.068811,17.246167 37.088388,32 37.088388,32 L 22.160133,31.978069 C 22.160133,31.978069 26.997745,27.140456 26.997745,27.140456 C 18.528582,18.264221 13.291696,25.230495 11.500037,31.436501 z"
             style="fill:#404040;"/>
          </a>
         </g>
        </svg>
</svg>
