<?xml version="1.0" encoding="UTF-8" standalone="no"?>
<!DOCTYPE svg PUBLIC "-//W3C//DTD SVG 1.1//EN"
 "http://www.w3.org/Graphics/SVG/1.1/DTD/svg11.dtd">
<!-- Generated by graphviz version 2.36.0 (20140111.2315)
 -->
<!-- Title: application.ViewHandler.showTurtle Pages: 1 -->
<svg width="1126pt" height="362pt"
 viewBox="0.00 0.00 1126.00 362.00" xmlns="http://www.w3.org/2000/svg" xmlns:xlink="http://www.w3.org/1999/xlink">
<g id="graph0" class="graph" transform="scale(1 1) rotate(0) translate(4 358)">
<title>application.ViewHandler.showTurtle</title>
<polygon fill="white" stroke="none" points="-4,4 -4,-358 1122,-358 1122,4 -4,4"/>
<!-- Node1 -->
<g id="node1" class="node"><title>Node1</title>
<polygon fill="#bfbfbf" stroke="black" points="0.5,-143 0.5,-173 157.5,-173 157.5,-143 0.5,-143"/>
<text text-anchor="start" x="8.5" y="-161" font-family="Helvetica,sans-Serif" font-size="10.00">application.ViewHandler.show</text>
<text text-anchor="middle" x="79" y="-150" font-family="Helvetica,sans-Serif" font-size="10.00">Turtle</text>
</g>
<!-- Node2 -->
<g id="node2" class="node"><title>Node2</title>
<g id="a_node2"><a xlink:href="../../d1/d31/classapplication_1_1_turtle.html#ab25b95889f8e0dfdef80fc69ac396923" target="_top" xlink:title="application.Turtle.setVisibility">
<polygon fill="white" stroke="black" points="201.5,-170.5 201.5,-189.5 354.5,-189.5 354.5,-170.5 201.5,-170.5"/>
<text text-anchor="middle" x="278" y="-177.5" font-family="Helvetica,sans-Serif" font-size="10.00">application.Turtle.setVisibility</text>
</a>
</g>
</g>
<!-- Node1&#45;&gt;Node2 -->
<g id="edge1" class="edge"><title>Node1&#45;&gt;Node2</title>
<path fill="none" stroke="midnightblue" d="M157.577,-166.663C168.623,-167.897 180.038,-169.172 191.229,-170.422"/>
<polygon fill="midnightblue" stroke="midnightblue" points="191.101,-173.929 201.428,-171.56 191.878,-166.972 191.101,-173.929"/>
</g>
<!-- Node3 -->
<g id="node3" class="node"><title>Node3</title>
<g id="a_node3"><a xlink:href="../../d8/d65/classapplication_1_1_view_handler.html#ae489ceaa9b5ec67faf3ba22a11cec085" target="_top" xlink:title="application.ViewHandler.update\lTurtleOnView">
<polygon fill="white" stroke="black" points="194.5,-121 194.5,-151 361.5,-151 361.5,-121 194.5,-121"/>
<text text-anchor="start" x="202.5" y="-139" font-family="Helvetica,sans-Serif" font-size="10.00">application.ViewHandler.update</text>
<text text-anchor="middle" x="278" y="-128" font-family="Helvetica,sans-Serif" font-size="10.00">TurtleOnView</text>
</a>
</g>
</g>
<!-- Node1&#45;&gt;Node3 -->
<g id="edge2" class="edge"><title>Node1&#45;&gt;Node3</title>
<path fill="none" stroke="midnightblue" d="M157.577,-149.337C166.339,-148.358 175.332,-147.354 184.262,-146.357"/>
<polygon fill="midnightblue" stroke="midnightblue" points="184.752,-149.824 194.302,-145.235 183.975,-142.867 184.752,-149.824"/>
</g>
<!-- Node4 -->
<g id="node4" class="node"><title>Node4</title>
<g id="a_node4"><a xlink:href="../../d8/d65/classapplication_1_1_view_handler.html#a308dcaf9847965fa4a3d261347845f56" target="_top" xlink:title="application.ViewHandler.set\lInfoParamsOfTurtleAndLine">
<polygon fill="white" stroke="black" points="398,-195 398,-225 546,-225 546,-195 398,-195"/>
<text text-anchor="start" x="406" y="-213" font-family="Helvetica,sans-Serif" font-size="10.00">application.ViewHandler.set</text>
<text text-anchor="middle" x="472" y="-202" font-family="Helvetica,sans-Serif" font-size="10.00">InfoParamsOfTurtleAndLine</text>
</a>
</g>
</g>
<!-- Node3&#45;&gt;Node4 -->
<g id="edge3" class="edge"><title>Node3&#45;&gt;Node4</title>
<path fill="none" stroke="midnightblue" d="M332.918,-151.128C342.672,-154.179 352.696,-157.524 362,-161 385.322,-169.713 410.729,-181.023 431.142,-190.582"/>
<polygon fill="midnightblue" stroke="midnightblue" points="429.9,-193.866 440.437,-194.975 432.891,-187.537 429.9,-193.866"/>
</g>
<!-- Node7 -->
<g id="node7" class="node"><title>Node7</title>
<g id="a_node7"><a xlink:href="../../d8/d65/classapplication_1_1_view_handler.html#a8a3722771a70075225d9c37dc1ff5e8d" target="_top" xlink:title="application.ViewHandler.get\lTurtleLocation">
<polygon fill="white" stroke="black" points="584.5,-315 584.5,-345 733.5,-345 733.5,-315 584.5,-315"/>
<text text-anchor="start" x="592.5" y="-333" font-family="Helvetica,sans-Serif" font-size="10.00">application.ViewHandler.get</text>
<text text-anchor="middle" x="659" y="-322" font-family="Helvetica,sans-Serif" font-size="10.00">TurtleLocation</text>
</a>
</g>
</g>
<!-- Node3&#45;&gt;Node7 -->
<g id="edge21" class="edge"><title>Node3&#45;&gt;Node7</title>
<path fill="none" stroke="midnightblue" d="M346.743,-151.052C352.221,-153.825 357.406,-157.11 362,-161 389.608,-184.377 371.297,-209.595 398,-234 447.004,-278.786 518.704,-303.181 574.405,-316.157"/>
<polygon fill="midnightblue" stroke="midnightblue" points="573.732,-319.593 584.256,-318.373 575.268,-312.764 573.732,-319.593"/>
</g>
<!-- Node9 -->
<g id="node9" class="node"><title>Node9</title>
<g id="a_node9"><a xlink:href="../../d8/d65/classapplication_1_1_view_handler.html#a8a00eb25a7f1d5e3ccc3059e8b717819" target="_top" xlink:title="application.ViewHandler.get\lTurtleOrientation">
<polygon fill="white" stroke="black" points="584.5,-129 584.5,-159 733.5,-159 733.5,-129 584.5,-129"/>
<text text-anchor="start" x="592.5" y="-147" font-family="Helvetica,sans-Serif" font-size="10.00">application.ViewHandler.get</text>
<text text-anchor="middle" x="659" y="-136" font-family="Helvetica,sans-Serif" font-size="10.00">TurtleOrientation</text>
</a>
</g>
</g>
<!-- Node3&#45;&gt;Node9 -->
<g id="edge22" class="edge"><title>Node3&#45;&gt;Node9</title>
<path fill="none" stroke="midnightblue" d="M361.705,-137.746C424.632,-139.074 510.888,-140.895 574.107,-142.229"/>
<polygon fill="midnightblue" stroke="midnightblue" points="574.371,-145.735 584.443,-142.447 574.519,-138.737 574.371,-145.735"/>
</g>
<!-- Node16 -->
<g id="node16" class="node"><title>Node16</title>
<g id="a_node16"><a xlink:href="../../d8/d65/classapplication_1_1_view_handler.html#a6f94dbee91670d4c9ae7164f61b8cd03" target="_top" xlink:title="application.ViewHandler.is\lVisible">
<polygon fill="white" stroke="black" points="402,-99 402,-129 542,-129 542,-99 402,-99"/>
<text text-anchor="start" x="410" y="-117" font-family="Helvetica,sans-Serif" font-size="10.00">application.ViewHandler.is</text>
<text text-anchor="middle" x="472" y="-106" font-family="Helvetica,sans-Serif" font-size="10.00">Visible</text>
</a>
</g>
</g>
<!-- Node3&#45;&gt;Node16 -->
<g id="edge15" class="edge"><title>Node3&#45;&gt;Node16</title>
<path fill="none" stroke="midnightblue" d="M361.54,-126.542C371.497,-125.401 381.651,-124.238 391.563,-123.102"/>
<polygon fill="midnightblue" stroke="midnightblue" points="392.249,-126.547 401.785,-121.931 391.452,-119.592 392.249,-126.547"/>
</g>
<!-- Node18 -->
<g id="node18" class="node"><title>Node18</title>
<g id="a_node18"><a xlink:href="../../df/dcc/classgui_1_1_turtle_view.html#afa73e516fcab92ab1c3a6941b6131cb5" target="_top" xlink:title="gui.TurtleView.showTurtle">
<polygon fill="white" stroke="black" points="405.5,-60.5 405.5,-79.5 538.5,-79.5 538.5,-60.5 405.5,-60.5"/>
<text text-anchor="middle" x="472" y="-67.5" font-family="Helvetica,sans-Serif" font-size="10.00">gui.TurtleView.showTurtle</text>
</a>
</g>
</g>
<!-- Node3&#45;&gt;Node18 -->
<g id="edge17" class="edge"><title>Node3&#45;&gt;Node18</title>
<path fill="none" stroke="midnightblue" d="M313.739,-120.985C337.257,-111.143 369.175,-98.4049 398,-89 405.353,-86.6008 413.199,-84.2973 420.919,-82.1731"/>
<polygon fill="midnightblue" stroke="midnightblue" points="421.83,-85.5526 430.584,-79.5845 420.019,-78.791 421.83,-85.5526"/>
</g>
<!-- Node19 -->
<g id="node19" class="node"><title>Node19</title>
<g id="a_node19"><a xlink:href="../../df/dcc/classgui_1_1_turtle_view.html#adcff447c1d488ddfd13d151067e6db7a" target="_top" xlink:title="gui.TurtleView.rotateAnd\lMoveTurtle">
<polygon fill="white" stroke="black" points="406.5,-11 406.5,-41 537.5,-41 537.5,-11 406.5,-11"/>
<text text-anchor="start" x="414.5" y="-29" font-family="Helvetica,sans-Serif" font-size="10.00">gui.TurtleView.rotateAnd</text>
<text text-anchor="middle" x="472" y="-18" font-family="Helvetica,sans-Serif" font-size="10.00">MoveTurtle</text>
</a>
</g>
</g>
<!-- Node3&#45;&gt;Node19 -->
<g id="edge18" class="edge"><title>Node3&#45;&gt;Node19</title>
<path fill="none" stroke="midnightblue" d="M296.877,-120.678C319.267,-102.113 359.393,-70.8591 398,-51 402.244,-48.817 406.72,-46.7574 411.282,-44.8292"/>
<polygon fill="midnightblue" stroke="midnightblue" points="412.732,-48.019 420.72,-41.0583 410.135,-41.5187 412.732,-48.019"/>
</g>
<!-- Node5 -->
<g id="node5" class="node"><title>Node5</title>
<g id="a_node5"><a xlink:href="../../df/dcb/classapplication_1_1_pen_handler.html#a8477a9a258753bb5538ad83a015fb731" target="_top" xlink:title="application.PenHandler.get\lPenStatus">
<polygon fill="white" stroke="black" points="586.5,-217 586.5,-247 731.5,-247 731.5,-217 586.5,-217"/>
<text text-anchor="start" x="594.5" y="-235" font-family="Helvetica,sans-Serif" font-size="10.00">application.PenHandler.get</text>
<text text-anchor="middle" x="659" y="-224" font-family="Helvetica,sans-Serif" font-size="10.00">PenStatus</text>
</a>
</g>
</g>
<!-- Node4&#45;&gt;Node5 -->
<g id="edge4" class="edge"><title>Node4&#45;&gt;Node5</title>
<path fill="none" stroke="midnightblue" d="M546.117,-218.695C556.04,-219.875 566.274,-221.092 576.336,-222.289"/>
<polygon fill="midnightblue" stroke="midnightblue" points="575.978,-225.771 586.321,-223.476 576.804,-218.82 575.978,-225.771"/>
</g>
<!-- Node4&#45;&gt;Node7 -->
<g id="edge6" class="edge"><title>Node4&#45;&gt;Node7</title>
<path fill="none" stroke="midnightblue" d="M491.867,-225.237C506.766,-237.395 527.975,-254.983 546,-271 562.452,-285.618 563.093,-293.736 582,-305 585.459,-307.061 589.108,-308.975 592.861,-310.75"/>
<polygon fill="midnightblue" stroke="midnightblue" points="591.788,-314.1 602.354,-314.879 594.58,-307.681 591.788,-314.1"/>
</g>
<!-- Node4&#45;&gt;Node9 -->
<g id="edge8" class="edge"><title>Node4&#45;&gt;Node9</title>
<path fill="none" stroke="midnightblue" d="M511.7,-194.992C532.466,-187.052 558.545,-177.265 582,-169 588.337,-166.767 594.993,-164.485 601.621,-162.253"/>
<polygon fill="midnightblue" stroke="midnightblue" points="602.896,-165.517 611.272,-159.029 600.678,-158.878 602.896,-165.517"/>
</g>
<!-- Node11 -->
<g id="node11" class="node"><title>Node11</title>
<g id="a_node11"><a xlink:href="../../df/dcb/classapplication_1_1_pen_handler.html#a518bb3076e4d9d105870b0778341a8c0" target="_top" xlink:title="application.PenHandler.set\lThicknessParameter">
<polygon fill="white" stroke="black" points="587,-266 587,-296 731,-296 731,-266 587,-266"/>
<text text-anchor="start" x="595" y="-284" font-family="Helvetica,sans-Serif" font-size="10.00">application.PenHandler.set</text>
<text text-anchor="middle" x="659" y="-273" font-family="Helvetica,sans-Serif" font-size="10.00">ThicknessParameter</text>
</a>
</g>
</g>
<!-- Node4&#45;&gt;Node11 -->
<g id="edge10" class="edge"><title>Node4&#45;&gt;Node11</title>
<path fill="none" stroke="midnightblue" d="M506.593,-225.014C527.998,-234.372 556.42,-246.413 582,-256 587.975,-258.239 594.253,-260.48 600.532,-262.649"/>
<polygon fill="midnightblue" stroke="midnightblue" points="599.764,-266.085 610.358,-265.989 602.017,-259.457 599.764,-266.085"/>
</g>
<!-- Node15 -->
<g id="node15" class="node"><title>Node15</title>
<g id="a_node15"><a xlink:href="../../df/dcc/classgui_1_1_turtle_view.html#a978020a0f6ccbc4714b77c71435b0799" target="_top" xlink:title="gui.TurtleView.setTurtleInfo">
<polygon fill="white" stroke="black" points="588.5,-178.5 588.5,-197.5 729.5,-197.5 729.5,-178.5 588.5,-178.5"/>
<text text-anchor="middle" x="659" y="-185.5" font-family="Helvetica,sans-Serif" font-size="10.00">gui.TurtleView.setTurtleInfo</text>
</a>
</g>
</g>
<!-- Node4&#45;&gt;Node15 -->
<g id="edge14" class="edge"><title>Node4&#45;&gt;Node15</title>
<path fill="none" stroke="midnightblue" d="M546.117,-201.305C556.679,-200.049 567.594,-198.751 578.277,-197.481"/>
<polygon fill="midnightblue" stroke="midnightblue" points="578.913,-200.93 588.43,-196.273 578.087,-193.979 578.913,-200.93"/>
</g>
<!-- Node6 -->
<g id="node6" class="node"><title>Node6</title>
<g id="a_node6"><a xlink:href="../../de/d5a/classapplication_1_1_pen.html#ab21d78789fb66a90181393d7cc42796c" target="_top" xlink:title="application.Pen.getStatus">
<polygon fill="white" stroke="black" points="787,-208.5 787,-227.5 927,-227.5 927,-208.5 787,-208.5"/>
<text text-anchor="middle" x="857" y="-215.5" font-family="Helvetica,sans-Serif" font-size="10.00">application.Pen.getStatus</text>
</a>
</g>
</g>
<!-- Node5&#45;&gt;Node6 -->
<g id="edge5" class="edge"><title>Node5&#45;&gt;Node6</title>
<path fill="none" stroke="midnightblue" d="M731.592,-226.886C746.253,-225.839 761.765,-224.731 776.679,-223.666"/>
<polygon fill="midnightblue" stroke="midnightblue" points="777.164,-227.14 786.89,-222.936 776.666,-220.158 777.164,-227.14"/>
</g>
<!-- Node8 -->
<g id="node8" class="node"><title>Node8</title>
<g id="a_node8"><a xlink:href="../../d1/d31/classapplication_1_1_turtle.html#a802873f2487ab3b6832050e1bef998a5" target="_top" xlink:title="application.Turtle.getLoc">
<polygon fill="white" stroke="black" points="791,-334.5 791,-353.5 923,-353.5 923,-334.5 791,-334.5"/>
<text text-anchor="middle" x="857" y="-341.5" font-family="Helvetica,sans-Serif" font-size="10.00">application.Turtle.getLoc</text>
</a>
</g>
</g>
<!-- Node7&#45;&gt;Node8 -->
<g id="edge7" class="edge"><title>Node7&#45;&gt;Node8</title>
<path fill="none" stroke="midnightblue" d="M733.541,-335.253C748.956,-336.354 765.234,-337.517 780.712,-338.622"/>
<polygon fill="midnightblue" stroke="midnightblue" points="780.527,-342.118 790.751,-339.339 781.026,-335.136 780.527,-342.118"/>
</g>
<!-- Node10 -->
<g id="node10" class="node"><title>Node10</title>
<g id="a_node10"><a xlink:href="../../d1/d31/classapplication_1_1_turtle.html#af22147e198fac9068726b95eea235739" target="_top" xlink:title="application.Turtle.getOrientation">
<polygon fill="white" stroke="black" points="772.5,-134.5 772.5,-153.5 941.5,-153.5 941.5,-134.5 772.5,-134.5"/>
<text text-anchor="middle" x="857" y="-141.5" font-family="Helvetica,sans-Serif" font-size="10.00">application.Turtle.getOrientation</text>
</a>
</g>
</g>
<!-- Node9&#45;&gt;Node10 -->
<g id="edge9" class="edge"><title>Node9&#45;&gt;Node10</title>
<path fill="none" stroke="midnightblue" d="M733.541,-144C742.973,-144 752.729,-144 762.426,-144"/>
<polygon fill="midnightblue" stroke="midnightblue" points="762.495,-147.5 772.495,-144 762.495,-140.5 762.495,-147.5"/>
</g>
<!-- Node12 -->
<g id="node12" class="node"><title>Node12</title>
<g id="a_node12"><a xlink:href="../../df/dcb/classapplication_1_1_pen_handler.html#a307ff6736f97a1aa1706da924d7e642b" target="_top" xlink:title="application.PenHandler.get\lPenWeight">
<polygon fill="white" stroke="black" points="784.5,-247 784.5,-277 929.5,-277 929.5,-247 784.5,-247"/>
<text text-anchor="start" x="792.5" y="-265" font-family="Helvetica,sans-Serif" font-size="10.00">application.PenHandler.get</text>
<text text-anchor="middle" x="857" y="-254" font-family="Helvetica,sans-Serif" font-size="10.00">PenWeight</text>
</a>
</g>
</g>
<!-- Node11&#45;&gt;Node12 -->
<g id="edge11" class="edge"><title>Node11&#45;&gt;Node12</title>
<path fill="none" stroke="midnightblue" d="M731.038,-274.114C744.966,-272.763 759.683,-271.337 773.938,-269.955"/>
<polygon fill="midnightblue" stroke="midnightblue" points="774.602,-273.407 784.218,-268.958 773.927,-266.44 774.602,-273.407"/>
</g>
<!-- Node14 -->
<g id="node14" class="node"><title>Node14</title>
<g id="a_node14"><a xlink:href="../../d8/ddb/classgui_1_1_line_view.html#ab32d4cf33024aea52dcb5d1092003d85" target="_top" xlink:title="gui.LineView.setThickness">
<polygon fill="white" stroke="black" points="787.5,-296.5 787.5,-315.5 926.5,-315.5 926.5,-296.5 787.5,-296.5"/>
<text text-anchor="middle" x="857" y="-303.5" font-family="Helvetica,sans-Serif" font-size="10.00">gui.LineView.setThickness</text>
</a>
</g>
</g>
<!-- Node11&#45;&gt;Node14 -->
<g id="edge13" class="edge"><title>Node11&#45;&gt;Node14</title>
<path fill="none" stroke="midnightblue" d="M731.038,-290.061C746.136,-291.987 762.159,-294.031 777.517,-295.989"/>
<polygon fill="midnightblue" stroke="midnightblue" points="777.134,-299.469 787.496,-297.262 778.019,-292.525 777.134,-299.469"/>
</g>
<!-- Node13 -->
<g id="node13" class="node"><title>Node13</title>
<g id="a_node13"><a xlink:href="../../de/d5a/classapplication_1_1_pen.html#aaaae5f55fadb97afef2ae286a6119a58" target="_top" xlink:title="application.Pen.getWeight">
<polygon fill="white" stroke="black" points="978,-252.5 978,-271.5 1118,-271.5 1118,-252.5 978,-252.5"/>
<text text-anchor="middle" x="1048" y="-259.5" font-family="Helvetica,sans-Serif" font-size="10.00">application.Pen.getWeight</text>
</a>
</g>
</g>
<!-- Node12&#45;&gt;Node13 -->
<g id="edge12" class="edge"><title>Node12&#45;&gt;Node13</title>
<path fill="none" stroke="midnightblue" d="M929.722,-262C942.165,-262 955.167,-262 967.795,-262"/>
<polygon fill="midnightblue" stroke="midnightblue" points="967.825,-265.5 977.825,-262 967.825,-258.5 967.825,-265.5"/>
</g>
<!-- Node17 -->
<g id="node17" class="node"><title>Node17</title>
<g id="a_node17"><a xlink:href="../../d1/d31/classapplication_1_1_turtle.html#a75e592fccb8420e254ba668429797898" target="_top" xlink:title="application.Turtle.getVisibility">
<polygon fill="white" stroke="black" points="582,-90.5 582,-109.5 736,-109.5 736,-90.5 582,-90.5"/>
<text text-anchor="middle" x="659" y="-97.5" font-family="Helvetica,sans-Serif" font-size="10.00">application.Turtle.getVisibility</text>
</a>
</g>
</g>
<!-- Node16&#45;&gt;Node17 -->
<g id="edge16" class="edge"><title>Node16&#45;&gt;Node17</title>
<path fill="none" stroke="midnightblue" d="M542.15,-108.767C551.748,-108.041 561.704,-107.287 571.568,-106.541"/>
<polygon fill="midnightblue" stroke="midnightblue" points="572.088,-110.012 581.795,-105.767 571.559,-103.032 572.088,-110.012"/>
</g>
<!-- Node20 -->
<g id="node20" class="node"><title>Node20</title>
<g id="a_node20"><a xlink:href="../../df/dcc/classgui_1_1_turtle_view.html#ab9b87d12b06bce95f2b32ee05a89e7d6" target="_top" xlink:title="gui.TurtleView.rotate">
<polygon fill="white" stroke="black" points="602.5,-38.5 602.5,-57.5 715.5,-57.5 715.5,-38.5 602.5,-38.5"/>
<text text-anchor="middle" x="659" y="-45.5" font-family="Helvetica,sans-Serif" font-size="10.00">gui.TurtleView.rotate</text>
</a>
</g>
</g>
<!-- Node19&#45;&gt;Node20 -->
<g id="edge19" class="edge"><title>Node19&#45;&gt;Node20</title>
<path fill="none" stroke="midnightblue" d="M537.704,-33.6945C555.299,-35.7869 574.372,-38.0551 592.036,-40.1556"/>
<polygon fill="midnightblue" stroke="midnightblue" points="591.907,-43.6649 602.251,-41.3704 592.734,-36.7139 591.907,-43.6649"/>
</g>
<!-- Node21 -->
<g id="node21" class="node"><title>Node21</title>
<g id="a_node21"><a xlink:href="../../d8/d8b/classgui_1_1_view.html#a9df94efe60af56c89531c45f0f3f9624" target="_top" xlink:title="gui.View.setNewPoint">
<polygon fill="white" stroke="black" points="600.5,-0.5 600.5,-19.5 717.5,-19.5 717.5,-0.5 600.5,-0.5"/>
<text text-anchor="middle" x="659" y="-7.5" font-family="Helvetica,sans-Serif" font-size="10.00">gui.View.setNewPoint</text>
</a>
</g>
</g>
<!-- Node19&#45;&gt;Node21 -->
<g id="edge20" class="edge"><title>Node19&#45;&gt;Node21</title>
<path fill="none" stroke="midnightblue" d="M537.704,-20.404C554.776,-18.9275 573.241,-17.3306 590.458,-15.8415"/>
<polygon fill="midnightblue" stroke="midnightblue" points="590.77,-19.3276 600.432,-14.9789 590.167,-12.3537 590.77,-19.3276"/>
</g>
</g>
</svg>
