<?xml version="1.0" encoding="UTF-8" standalone="no"?>
<!DOCTYPE svg PUBLIC "-//W3C//DTD SVG 1.1//EN"
 "http://www.w3.org/Graphics/SVG/1.1/DTD/svg11.dtd">
<!-- Generated by graphviz version 2.36.0 (20140111.2315)
 -->
<!-- Title: configuration.SetParser.parse Pages: 1 -->
<svg width="380pt" height="126pt"
 viewBox="0.00 0.00 380.00 126.00" xmlns="http://www.w3.org/2000/svg" xmlns:xlink="http://www.w3.org/1999/xlink">
<g id="graph0" class="graph" transform="scale(1 1) rotate(0) translate(4 122)">
<title>configuration.SetParser.parse</title>
<polygon fill="white" stroke="none" points="-4,4 -4,-122 376,-122 376,4 -4,4"/>
<!-- Node1 -->
<g id="node1" class="node"><title>Node1</title>
<polygon fill="#bfbfbf" stroke="black" points="0,-49.5 0,-68.5 158,-68.5 158,-49.5 0,-49.5"/>
<text text-anchor="middle" x="79" y="-56.5" font-family="Helvetica,sans-Serif" font-size="10.00">configuration.SetParser.parse</text>
</g>
<!-- Node2 -->
<g id="node2" class="node"><title>Node2</title>
<g id="a_node2"><a xlink:href="../../d1/d4d/interfacecommands_1_1view_commands_1_1turtle_commands_1_1_executable.html#a8e431a20f44eb26b441038ba913a2ce4" target="_top" xlink:title="commands.viewCommands.turtle\lCommands.Executable.execute">
<polygon fill="white" stroke="black" points="194,-88 194,-118 372,-118 372,-88 194,-88"/>
<text text-anchor="start" x="202" y="-106" font-family="Helvetica,sans-Serif" font-size="10.00">commands.viewCommands.turtle</text>
<text text-anchor="middle" x="283" y="-95" font-family="Helvetica,sans-Serif" font-size="10.00">Commands.Executable.execute</text>
</a>
</g>
</g>
<!-- Node1&#45;&gt;Node2 -->
<g id="edge1" class="edge"><title>Node1&#45;&gt;Node2</title>
<path fill="none" stroke="midnightblue" d="M123.831,-68.5473C146.98,-73.5897 176.103,-79.9334 203.03,-85.7987"/>
<polygon fill="midnightblue" stroke="midnightblue" points="202.32,-89.2261 212.836,-87.9346 203.81,-82.3864 202.32,-89.2261"/>
</g>
<!-- Node3 -->
<g id="node3" class="node"><title>Node3</title>
<g id="a_node3"><a xlink:href="../../d9/d11/classconfiguration_1_1_parser.html#a0d2aa50e7ee2ec257e7030f716ab880e" target="_top" xlink:title="configuration.Parser.skip">
<polygon fill="white" stroke="black" points="216.5,-49.5 216.5,-68.5 349.5,-68.5 349.5,-49.5 216.5,-49.5"/>
<text text-anchor="middle" x="283" y="-56.5" font-family="Helvetica,sans-Serif" font-size="10.00">configuration.Parser.skip</text>
</a>
</g>
</g>
<!-- Node1&#45;&gt;Node3 -->
<g id="edge2" class="edge"><title>Node1&#45;&gt;Node3</title>
<path fill="none" stroke="midnightblue" d="M158.098,-59C173.854,-59 190.394,-59 206.074,-59"/>
<polygon fill="midnightblue" stroke="midnightblue" points="206.236,-62.5001 216.236,-59 206.236,-55.5001 206.236,-62.5001"/>
</g>
<!-- Node4 -->
<g id="node4" class="node"><title>Node4</title>
<g id="a_node4"><a xlink:href="../../da/dde/classconfiguration_1_1_util.html#a535858cb955beeaeaa5e7eccfb71d4c1" target="_top" xlink:title="configuration.Util.toCommand\lQueue">
<polygon fill="white" stroke="black" points="202.5,-0 202.5,-30 363.5,-30 363.5,-0 202.5,-0"/>
<text text-anchor="start" x="210.5" y="-18" font-family="Helvetica,sans-Serif" font-size="10.00">configuration.Util.toCommand</text>
<text text-anchor="middle" x="283" y="-7" font-family="Helvetica,sans-Serif" font-size="10.00">Queue</text>
</a>
</g>
</g>
<!-- Node1&#45;&gt;Node4 -->
<g id="edge3" class="edge"><title>Node1&#45;&gt;Node4</title>
<path fill="none" stroke="midnightblue" d="M123.831,-49.4527C146.98,-44.4103 176.103,-38.0666 203.03,-32.2013"/>
<polygon fill="midnightblue" stroke="midnightblue" points="203.81,-35.6136 212.836,-30.0654 202.32,-28.7739 203.81,-35.6136"/>
</g>
</g>
</svg>
