<?xml version="1.0" encoding="UTF-8" standalone="no"?>
<!DOCTYPE svg PUBLIC "-//W3C//DTD SVG 1.1//EN"
 "http://www.w3.org/Graphics/SVG/1.1/DTD/svg11.dtd">
<!-- Generated by graphviz version 2.36.0 (20140111.2315)
 -->
<!-- Title: configuration.SetParser.parse Pages: 1 -->
<svg width="784pt" height="287pt"
 viewBox="0.00 0.00 784.00 287.00" xmlns="http://www.w3.org/2000/svg" xmlns:xlink="http://www.w3.org/1999/xlink">
<g id="graph0" class="graph" transform="scale(1 1) rotate(0) translate(4 283)">
<title>configuration.SetParser.parse</title>
<polygon fill="white" stroke="none" points="-4,4 -4,-283 780,-283 780,4 -4,4"/>
<!-- Node1 -->
<g id="node1" class="node"><title>Node1</title>
<polygon fill="#bfbfbf" stroke="black" points="0,-57.5 0,-76.5 158,-76.5 158,-57.5 0,-57.5"/>
<text text-anchor="middle" x="79" y="-64.5" font-family="Helvetica,sans-Serif" font-size="10.00">configuration.SetParser.parse</text>
</g>
<!-- Node2 -->
<g id="node2" class="node"><title>Node2</title>
<g id="a_node2"><a xlink:href="../../d9/d11/classconfiguration_1_1_parser.html#ae0480f44c9defa614fb470ab154fa60b" target="_top" xlink:title="configuration.Parser.buildTree">
<polygon fill="white" stroke="black" points="194,-133.5 194,-152.5 350,-152.5 350,-133.5 194,-133.5"/>
<text text-anchor="middle" x="272" y="-140.5" font-family="Helvetica,sans-Serif" font-size="10.00">configuration.Parser.buildTree</text>
</a>
</g>
</g>
<!-- Node1&#45;&gt;Node2 -->
<g id="edge1" class="edge"><title>Node1&#45;&gt;Node2</title>
<path fill="none" stroke="midnightblue" d="M104.19,-76.6255C137.916,-90.0452 199.209,-114.434 237.367,-129.617"/>
<polygon fill="midnightblue" stroke="midnightblue" points="236.421,-133.008 247.006,-133.453 239.009,-126.504 236.421,-133.008"/>
</g>
<!-- Node9 -->
<g id="node9" class="node"><title>Node9</title>
<g id="a_node9"><a xlink:href="../../d9/d11/classconfiguration_1_1_parser.html#a061c6e2e973a9e7f531931f61f45448b" target="_top" xlink:title="configuration.Parser.isVariable">
<polygon fill="white" stroke="black" points="417,-57.5 417,-76.5 577,-76.5 577,-57.5 417,-57.5"/>
<text text-anchor="middle" x="497" y="-64.5" font-family="Helvetica,sans-Serif" font-size="10.00">configuration.Parser.isVariable</text>
</a>
</g>
</g>
<!-- Node1&#45;&gt;Node9 -->
<g id="edge11" class="edge"><title>Node1&#45;&gt;Node9</title>
<path fill="none" stroke="midnightblue" d="M158.246,-67C228.83,-67 332.605,-67 406.472,-67"/>
<polygon fill="midnightblue" stroke="midnightblue" points="406.69,-70.5001 416.69,-67 406.69,-63.5001 406.69,-70.5001"/>
</g>
<!-- Node10 -->
<g id="node10" class="node"><title>Node10</title>
<g id="a_node10"><a xlink:href="../../d8/d4f/interface_tree_1_1_node.html#a83d55b41499cfcfd3607420eed42507c" target="_top" xlink:title="Tree.Node.getValue">
<polygon fill="white" stroke="black" points="217,-38.5 217,-57.5 327,-57.5 327,-38.5 217,-38.5"/>
<text text-anchor="middle" x="272" y="-45.5" font-family="Helvetica,sans-Serif" font-size="10.00">Tree.Node.getValue</text>
</a>
</g>
</g>
<!-- Node1&#45;&gt;Node10 -->
<g id="edge9" class="edge"><title>Node1&#45;&gt;Node10</title>
<path fill="none" stroke="midnightblue" d="M158.238,-59.2172C174.38,-57.6115 191.202,-55.9381 206.776,-54.3888"/>
<polygon fill="midnightblue" stroke="midnightblue" points="207.206,-57.8633 216.811,-53.3905 206.513,-50.8977 207.206,-57.8633"/>
</g>
<!-- Node11 -->
<g id="node11" class="node"><title>Node11</title>
<g id="a_node11"><a xlink:href="../../d9/d11/classconfiguration_1_1_parser.html#a07345acba63db50ec60293f2b38e54a6" target="_top" xlink:title="configuration.Parser.isEnd">
<polygon fill="white" stroke="black" points="202,-0.5 202,-19.5 342,-19.5 342,-0.5 202,-0.5"/>
<text text-anchor="middle" x="272" y="-7.5" font-family="Helvetica,sans-Serif" font-size="10.00">configuration.Parser.isEnd</text>
</a>
</g>
</g>
<!-- Node1&#45;&gt;Node11 -->
<g id="edge10" class="edge"><title>Node1&#45;&gt;Node11</title>
<path fill="none" stroke="midnightblue" d="M106.531,-57.4877C129.516,-49.4078 163.741,-37.7613 194,-29 202.27,-26.6054 211.094,-24.247 219.708,-22.05"/>
<polygon fill="midnightblue" stroke="midnightblue" points="220.829,-25.3777 229.678,-19.5525 219.128,-18.5875 220.829,-25.3777"/>
</g>
<!-- Node3 -->
<g id="node3" class="node"><title>Node3</title>
<g id="a_node3"><a xlink:href="../../d0/d3b/classcommands_1_1_user_made_utilities.html#ad6e90d3cccee9da7cf3df2c13fc70381" target="_top" xlink:title="commands.UserMadeUtilities.containsVars">
<polygon fill="white" stroke="black" points="386,-259.5 386,-278.5 608,-278.5 608,-259.5 386,-259.5"/>
<text text-anchor="middle" x="497" y="-266.5" font-family="Helvetica,sans-Serif" font-size="10.00">commands.UserMadeUtilities.containsVars</text>
</a>
</g>
</g>
<!-- Node2&#45;&gt;Node3 -->
<g id="edge2" class="edge"><title>Node2&#45;&gt;Node3</title>
<path fill="none" stroke="midnightblue" d="M279.921,-152.645C295.896,-174.1 337.692,-225.789 386,-250 390.698,-252.355 395.635,-254.424 400.708,-256.241"/>
<polygon fill="midnightblue" stroke="midnightblue" points="400.012,-259.694 410.603,-259.435 402.162,-253.032 400.012,-259.694"/>
</g>
<!-- Node4 -->
<g id="node4" class="node"><title>Node4</title>
<g id="a_node4"><a xlink:href="../../da/dde/classconfiguration_1_1_util.html#a55c271426926996186d1cde227ae7e23" target="_top" xlink:title="configuration.Util.findCommandKey">
<polygon fill="white" stroke="black" points="404.5,-221.5 404.5,-240.5 589.5,-240.5 589.5,-221.5 404.5,-221.5"/>
<text text-anchor="middle" x="497" y="-228.5" font-family="Helvetica,sans-Serif" font-size="10.00">configuration.Util.findCommandKey</text>
</a>
</g>
</g>
<!-- Node2&#45;&gt;Node4 -->
<g id="edge3" class="edge"><title>Node2&#45;&gt;Node4</title>
<path fill="none" stroke="midnightblue" d="M285.434,-152.582C305.452,-167.506 346.583,-196.128 386,-211 394.469,-214.195 403.502,-216.89 412.614,-219.161"/>
<polygon fill="midnightblue" stroke="midnightblue" points="411.975,-222.606 422.508,-221.462 413.561,-215.788 411.975,-222.606"/>
</g>
<!-- Node6 -->
<g id="node6" class="node"><title>Node6</title>
<g id="a_node6"><a xlink:href="../../d0/d3b/classcommands_1_1_user_made_utilities.html#afc570f31a89922ff7a42f13839888c8f" target="_top" xlink:title="commands.UserMadeUtilities.get\lFromVars">
<polygon fill="white" stroke="black" points="409,-172 409,-202 585,-202 585,-172 409,-172"/>
<text text-anchor="start" x="417" y="-190" font-family="Helvetica,sans-Serif" font-size="10.00">commands.UserMadeUtilities.get</text>
<text text-anchor="middle" x="497" y="-179" font-family="Helvetica,sans-Serif" font-size="10.00">FromVars</text>
</a>
</g>
</g>
<!-- Node2&#45;&gt;Node6 -->
<g id="edge5" class="edge"><title>Node2&#45;&gt;Node6</title>
<path fill="none" stroke="midnightblue" d="M321.388,-152.547C347.167,-157.634 379.659,-164.045 409.602,-169.953"/>
<polygon fill="midnightblue" stroke="midnightblue" points="409.158,-173.433 419.646,-171.935 410.513,-166.565 409.158,-173.433"/>
</g>
<!-- Node7 -->
<g id="node7" class="node"><title>Node7</title>
<g id="a_node7"><a xlink:href="../../d9/d11/classconfiguration_1_1_parser.html#a6a8ca49b46db578a3d9e84b0c4ce2f75" target="_top" xlink:title="configuration.Parser.isCommand">
<polygon fill="white" stroke="black" points="411,-133.5 411,-152.5 583,-152.5 583,-133.5 411,-133.5"/>
<text text-anchor="middle" x="497" y="-140.5" font-family="Helvetica,sans-Serif" font-size="10.00">configuration.Parser.isCommand</text>
</a>
</g>
</g>
<!-- Node2&#45;&gt;Node7 -->
<g id="edge6" class="edge"><title>Node2&#45;&gt;Node7</title>
<path fill="none" stroke="midnightblue" d="M350.056,-143C366.32,-143 383.668,-143 400.518,-143"/>
<polygon fill="midnightblue" stroke="midnightblue" points="400.93,-146.5 410.93,-143 400.93,-139.5 400.93,-146.5"/>
</g>
<!-- Node8 -->
<g id="node8" class="node"><title>Node8</title>
<g id="a_node8"><a xlink:href="../../d9/d11/classconfiguration_1_1_parser.html#af0032734232f2e6043d7c8c94d86dd1f" target="_top" xlink:title="configuration.Parser.isConstant">
<polygon fill="white" stroke="black" points="414.5,-95.5 414.5,-114.5 579.5,-114.5 579.5,-95.5 414.5,-95.5"/>
<text text-anchor="middle" x="497" y="-102.5" font-family="Helvetica,sans-Serif" font-size="10.00">configuration.Parser.isConstant</text>
</a>
</g>
</g>
<!-- Node2&#45;&gt;Node8 -->
<g id="edge7" class="edge"><title>Node2&#45;&gt;Node8</title>
<path fill="none" stroke="midnightblue" d="M328.984,-133.46C359.602,-128.243 397.719,-121.747 429.804,-116.28"/>
<polygon fill="midnightblue" stroke="midnightblue" points="430.723,-119.674 439.992,-114.544 429.547,-112.774 430.723,-119.674"/>
</g>
<!-- Node2&#45;&gt;Node9 -->
<g id="edge8" class="edge"><title>Node2&#45;&gt;Node9</title>
<path fill="none" stroke="midnightblue" d="M288.451,-133.334C309.64,-120.524 349.281,-98.1322 386,-86 394.581,-83.1648 403.686,-80.732 412.839,-78.6491"/>
<polygon fill="midnightblue" stroke="midnightblue" points="413.722,-82.0396 422.768,-76.5239 412.257,-75.1946 413.722,-82.0396"/>
</g>
<!-- Node5 -->
<g id="node5" class="node"><title>Node5</title>
<g id="a_node5"><a xlink:href="../../da/dde/classconfiguration_1_1_util.html#a163b0098613bf2f7becf27b131af3934" target="_top" xlink:title="configuration.Util.match">
<polygon fill="white" stroke="black" points="644.5,-221.5 644.5,-240.5 775.5,-240.5 775.5,-221.5 644.5,-221.5"/>
<text text-anchor="middle" x="710" y="-228.5" font-family="Helvetica,sans-Serif" font-size="10.00">configuration.Util.match</text>
</a>
</g>
</g>
<!-- Node4&#45;&gt;Node5 -->
<g id="edge4" class="edge"><title>Node4&#45;&gt;Node5</title>
<path fill="none" stroke="midnightblue" d="M589.627,-231C604.483,-231 619.713,-231 634.11,-231"/>
<polygon fill="midnightblue" stroke="midnightblue" points="634.429,-234.5 644.429,-231 634.429,-227.5 634.429,-234.5"/>
</g>
</g>
</svg>
