<?xml version="1.0" encoding="UTF-8" standalone="no"?>
<!DOCTYPE svg PUBLIC "-//W3C//DTD SVG 1.1//EN"
 "http://www.w3.org/Graphics/SVG/1.1/DTD/svg11.dtd">
<!-- Generated by graphviz version 2.36.0 (20140111.2315)
 -->
<!-- Title: application.Pen Pages: 1 -->
<svg width="349pt" height="96pt"
 viewBox="0.00 0.00 349.00 96.00" xmlns="http://www.w3.org/2000/svg" xmlns:xlink="http://www.w3.org/1999/xlink">
<g id="graph0" class="graph" transform="scale(1 1) rotate(0) translate(4 92)">
<title>application.Pen</title>
<polygon fill="white" stroke="none" points="-4,4 -4,-92 345,-92 345,4 -4,4"/>
<!-- Node1 -->
<g id="node1" class="node"><title>Node1</title>
<polygon fill="#bfbfbf" stroke="black" points="167.5,-0.5 167.5,-19.5 256.5,-19.5 256.5,-0.5 167.5,-0.5"/>
<text text-anchor="middle" x="212" y="-7.5" font-family="Helvetica,sans-Serif" font-size="10.00">application.Pen</text>
</g>
<!-- Node2 -->
<g id="node2" class="node"><title>Node2</title>
<polygon fill="white" stroke="#bfbfbf" points="0,-68.5 0,-87.5 124,-87.5 124,-68.5 0,-68.5"/>
<text text-anchor="middle" x="62" y="-75.5" font-family="Helvetica,sans-Serif" font-size="10.00">Map&lt; Integer, Color &gt;</text>
</g>
<!-- Node2&#45;&gt;Node1 -->
<g id="edge1" class="edge"><title>Node2&#45;&gt;Node1</title>
<path fill="none" stroke="#9a32cd" stroke-dasharray="5,2" d="M80.4986,-62.4155C91.4781,-54.3214 105.958,-44.5887 120,-38 136.878,-30.0807 156.597,-23.9228 173.441,-19.5009"/>
<polygon fill="#9a32cd" stroke="#9a32cd" points="78.374,-59.6341 72.519,-68.4642 82.6026,-65.2126 78.374,-59.6341"/>
<text text-anchor="middle" x="164" y="-41.5" font-family="Helvetica,sans-Serif" font-size="10.00"> myPaletteOptions</text>
</g>
<!-- Node3 -->
<g id="node3" class="node"><title>Node3</title>
<g id="a_node3"><a xlink:href="../../d0/d9b/enumapplication_1_1_pen_1_1_p_e_n_s_t_y_l_e.html" target="_top" xlink:title="application.Pen.PENSTYLE">
<polygon fill="white" stroke="black" points="142,-68.5 142,-87.5 282,-87.5 282,-68.5 142,-68.5"/>
<text text-anchor="middle" x="212" y="-75.5" font-family="Helvetica,sans-Serif" font-size="10.00">application.Pen.PENSTYLE</text>
</a>
</g>
</g>
<!-- Node3&#45;&gt;Node1 -->
<g id="edge2" class="edge"><title>Node3&#45;&gt;Node1</title>
<path fill="none" stroke="#9a32cd" stroke-dasharray="5,2" d="M212,-58.0413C212,-45.4724 212,-29.5631 212,-19.8411"/>
<polygon fill="#9a32cd" stroke="#9a32cd" points="208.5,-58.3716 212,-68.3717 215.5,-58.3717 208.5,-58.3716"/>
<text text-anchor="middle" x="233.5" y="-41.5" font-family="Helvetica,sans-Serif" font-size="10.00"> myStyle</text>
</g>
<!-- Node4 -->
<g id="node4" class="node"><title>Node4</title>
<polygon fill="white" stroke="#bfbfbf" points="300.5,-68.5 300.5,-87.5 341.5,-87.5 341.5,-68.5 300.5,-68.5"/>
<text text-anchor="middle" x="321" y="-75.5" font-family="Helvetica,sans-Serif" font-size="10.00">Color</text>
</g>
<!-- Node4&#45;&gt;Node1 -->
<g id="edge3" class="edge"><title>Node4&#45;&gt;Node1</title>
<path fill="none" stroke="#9a32cd" stroke-dasharray="5,2" d="M299.065,-62.9027C287.263,-55.3935 272.414,-46.0674 259,-38 248.517,-31.695 236.56,-24.8309 227.33,-19.6015"/>
<polygon fill="#9a32cd" stroke="#9a32cd" points="297.48,-66.0433 307.792,-68.4766 301.248,-60.144 297.48,-66.0433"/>
<text text-anchor="middle" x="299.5" y="-41.5" font-family="Helvetica,sans-Serif" font-size="10.00"> myColor</text>
</g>
</g>
</svg>
