<?xml version="1.0" encoding="UTF-8" standalone="no"?>
<!DOCTYPE svg PUBLIC "-//W3C//DTD SVG 1.1//EN"
 "http://www.w3.org/Graphics/SVG/1.1/DTD/svg11.dtd">
<!-- Generated by graphviz version 2.36.0 (20140111.2315)
 -->
<!-- Title: commands.viewCommands.SetPalette.execute Pages: 1 -->
<svg width="384pt" height="38pt"
 viewBox="0.00 0.00 384.00 38.00" xmlns="http://www.w3.org/2000/svg" xmlns:xlink="http://www.w3.org/1999/xlink">
<g id="graph0" class="graph" transform="scale(1 1) rotate(0) translate(4 34)">
<title>commands.viewCommands.SetPalette.execute</title>
<polygon fill="white" stroke="none" points="-4,4 -4,-34 380,-34 380,4 -4,4"/>
<!-- Node1 -->
<g id="node1" class="node"><title>Node1</title>
<polygon fill="#bfbfbf" stroke="black" points="0.5,-0 0.5,-30 169.5,-30 169.5,-0 0.5,-0"/>
<text text-anchor="start" x="8.5" y="-18" font-family="Helvetica,sans-Serif" font-size="10.00">commands.viewCommands.Set</text>
<text text-anchor="middle" x="85" y="-7" font-family="Helvetica,sans-Serif" font-size="10.00">Palette.execute</text>
</g>
<!-- Node2 -->
<g id="node2" class="node"><title>Node2</title>
<g id="a_node2"><a xlink:href="../../dc/df0/classcommands_1_1view_commands_1_1_set_palette.html#aea5e20fa089f29b539a289703f165e78" target="_top" xlink:title="commands.viewCommands.Set\lPalette.checkColorLimits">
<polygon fill="white" stroke="black" points="206.5,-0 206.5,-30 375.5,-30 375.5,-0 206.5,-0"/>
<text text-anchor="start" x="214.5" y="-18" font-family="Helvetica,sans-Serif" font-size="10.00">commands.viewCommands.Set</text>
<text text-anchor="middle" x="291" y="-7" font-family="Helvetica,sans-Serif" font-size="10.00">Palette.checkColorLimits</text>
</a>
</g>
</g>
<!-- Node1&#45;&gt;Node2 -->
<g id="edge1" class="edge"><title>Node1&#45;&gt;Node2</title>
<path fill="none" stroke="midnightblue" d="M169.563,-15C178.263,-15 187.147,-15 195.953,-15"/>
<polygon fill="midnightblue" stroke="midnightblue" points="196.237,-18.5001 206.237,-15 196.237,-11.5001 196.237,-18.5001"/>
</g>
</g>
</svg>
