<?xml version="1.0" encoding="UTF-8" standalone="no"?>
<!DOCTYPE svg PUBLIC "-//W3C//DTD SVG 1.1//EN"
 "http://www.w3.org/Graphics/SVG/1.1/DTD/svg11.dtd">
<!-- Generated by graphviz version 2.36.0 (20140111.2315)
 -->
<!-- Title: configuration.RepeatParser Pages: 1 -->
<svg width="1708pt" height="491pt"
 viewBox="0.00 0.00 1708.00 491.42" xmlns="http://www.w3.org/2000/svg" xmlns:xlink="http://www.w3.org/1999/xlink">
<g id="graph0" class="graph" transform="scale(1 1) rotate(0) translate(4 487.416)">
<title>configuration.RepeatParser</title>
<polygon fill="white" stroke="none" points="-4,4 -4,-487.416 1704,-487.416 1704,4 -4,4"/>
<!-- Node1 -->
<g id="node1" class="node"><title>Node1</title>
<polygon fill="#bfbfbf" stroke="black" points="1554.5,-255.916 1554.5,-274.916 1699.5,-274.916 1699.5,-255.916 1554.5,-255.916"/>
<text text-anchor="middle" x="1627" y="-262.916" font-family="Helvetica,sans-Serif" font-size="10.00">configuration.RepeatParser</text>
</g>
<!-- Node2 -->
<g id="node2" class="node"><title>Node2</title>
<g id="a_node2"><a xlink:href="../../d9/d11/classconfiguration_1_1_parser.html" target="_top" xlink:title="configuration.Parser">
<polygon fill="white" stroke="black" points="1404,-255.916 1404,-274.916 1516,-274.916 1516,-255.916 1404,-255.916"/>
<text text-anchor="middle" x="1460" y="-262.916" font-family="Helvetica,sans-Serif" font-size="10.00">configuration.Parser</text>
</a>
</g>
</g>
<!-- Node2&#45;&gt;Node1 -->
<g id="edge1" class="edge"><title>Node2&#45;&gt;Node1</title>
<path fill="none" stroke="midnightblue" d="M1526.56,-265.416C1535.69,-265.416 1545.1,-265.416 1554.34,-265.416"/>
<polygon fill="midnightblue" stroke="midnightblue" points="1526.4,-261.916 1516.4,-265.416 1526.4,-268.916 1526.4,-261.916"/>
</g>
<!-- Node3 -->
<g id="node3" class="node"><title>Node3</title>
<g id="a_node3"><a xlink:href="../../dc/d20/classapplication_1_1_command_factory.html" target="_top" xlink:title="application.CommandFactory">
<polygon fill="white" stroke="black" points="1148,-299.916 1148,-318.916 1304,-318.916 1304,-299.916 1148,-299.916"/>
<text text-anchor="middle" x="1226" y="-306.916" font-family="Helvetica,sans-Serif" font-size="10.00">application.CommandFactory</text>
</a>
</g>
</g>
<!-- Node3&#45;&gt;Node2 -->
<g id="edge2" class="edge"><title>Node3&#45;&gt;Node2</title>
<path fill="none" stroke="#9a32cd" stroke-dasharray="5,2" d="M1290.81,-298.113C1319.87,-292.878 1354.71,-286.485 1386,-280.416 1394.89,-278.692 1404.38,-276.789 1413.47,-274.935"/>
<polygon fill="#9a32cd" stroke="#9a32cd" points="1290.01,-294.701 1280.78,-299.914 1291.24,-301.591 1290.01,-294.701"/>
<text text-anchor="middle" x="1354" y="-295.416" font-family="Helvetica,sans-Serif" font-size="10.00"> myFactory</text>
</g>
<!-- Node4 -->
<g id="node4" class="node"><title>Node4</title>
<g id="a_node4"><a xlink:href="../../df/dcb/classapplication_1_1_pen_handler.html" target="_top" xlink:title="application.PenHandler">
<polygon fill="white" stroke="black" points="664.5,-304.916 664.5,-323.916 791.5,-323.916 791.5,-304.916 664.5,-304.916"/>
<text text-anchor="middle" x="728" y="-311.916" font-family="Helvetica,sans-Serif" font-size="10.00">application.PenHandler</text>
</a>
</g>
</g>
<!-- Node4&#45;&gt;Node3 -->
<g id="edge3" class="edge"><title>Node4&#45;&gt;Node3</title>
<path fill="none" stroke="#9a32cd" stroke-dasharray="5,2" d="M801.686,-313.684C894.223,-312.751 1053.41,-311.146 1147.97,-310.193"/>
<polygon fill="#9a32cd" stroke="#9a32cd" points="801.532,-310.185 791.567,-313.786 801.602,-317.184 801.532,-310.185"/>
<text text-anchor="middle" x="968" y="-316.416" font-family="Helvetica,sans-Serif" font-size="10.00"> myPenHandler</text>
</g>
<!-- Node14 -->
<g id="node14" class="node"><title>Node14</title>
<g id="a_node14"><a xlink:href="../../d8/d65/classapplication_1_1_view_handler.html" target="_top" xlink:title="application.ViewHandler">
<polygon fill="white" stroke="black" points="902.5,-211.916 902.5,-230.916 1033.5,-230.916 1033.5,-211.916 902.5,-211.916"/>
<text text-anchor="middle" x="968" y="-218.916" font-family="Helvetica,sans-Serif" font-size="10.00">application.ViewHandler</text>
</a>
</g>
</g>
<!-- Node4&#45;&gt;Node14 -->
<g id="edge16" class="edge"><title>Node4&#45;&gt;Node14</title>
<path fill="none" stroke="#9a32cd" stroke-dasharray="5,2" d="M785.531,-302.69C822.221,-294.671 866.369,-284.138 884,-276.416 911.551,-264.349 939.994,-243.277 955.388,-231.016"/>
<polygon fill="#9a32cd" stroke="#9a32cd" points="784.442,-299.344 775.409,-304.88 785.923,-306.186 784.442,-299.344"/>
<text text-anchor="middle" x="847" y="-300.416" font-family="Helvetica,sans-Serif" font-size="10.00"> myPenHandler</text>
</g>
<!-- Node5 -->
<g id="node5" class="node"><title>Node5</title>
<g id="a_node5"><a xlink:href="../../de/d5a/classapplication_1_1_pen.html" target="_top" xlink:title="application.Pen">
<polygon fill="white" stroke="black" points="466.5,-408.916 466.5,-427.916 555.5,-427.916 555.5,-408.916 466.5,-408.916"/>
<text text-anchor="middle" x="511" y="-415.916" font-family="Helvetica,sans-Serif" font-size="10.00">application.Pen</text>
</a>
</g>
</g>
<!-- Node5&#45;&gt;Node4 -->
<g id="edge4" class="edge"><title>Node5&#45;&gt;Node4</title>
<path fill="none" stroke="#9a32cd" stroke-dasharray="5,2" d="M540.944,-404.416C585.336,-382.942 669.086,-342.43 707.207,-323.991"/>
<polygon fill="#9a32cd" stroke="#9a32cd" points="539.319,-401.313 531.841,-408.819 542.368,-407.615 539.319,-401.313"/>
<text text-anchor="middle" x="616" y="-385.416" font-family="Helvetica,sans-Serif" font-size="10.00"> myPen</text>
</g>
<!-- Node6 -->
<g id="node6" class="node"><title>Node6</title>
<polygon fill="white" stroke="#bfbfbf" points="178,-463.916 178,-482.916 302,-482.916 302,-463.916 178,-463.916"/>
<text text-anchor="middle" x="240" y="-470.916" font-family="Helvetica,sans-Serif" font-size="10.00">Map&lt; Integer, Color &gt;</text>
</g>
<!-- Node6&#45;&gt;Node5 -->
<g id="edge5" class="edge"><title>Node6&#45;&gt;Node5</title>
<path fill="none" stroke="#9a32cd" stroke-dasharray="5,2" d="M312.482,-466.746C349.674,-462.375 395.675,-455.551 436,-445.416 453.773,-440.949 473.215,-433.761 487.709,-427.924"/>
<polygon fill="#9a32cd" stroke="#9a32cd" points="311.776,-463.304 302.238,-467.915 312.57,-470.259 311.776,-463.304"/>
<text text-anchor="middle" x="382" y="-468.416" font-family="Helvetica,sans-Serif" font-size="10.00"> myPaletteOptions</text>
</g>
<!-- Node7 -->
<g id="node7" class="node"><title>Node7</title>
<g id="a_node7"><a xlink:href="../../d0/d9b/enumapplication_1_1_pen_1_1_p_e_n_s_t_y_l_e.html" target="_top" xlink:title="application.Pen.PENSTYLE">
<polygon fill="white" stroke="black" points="170,-425.916 170,-444.916 310,-444.916 310,-425.916 170,-425.916"/>
<text text-anchor="middle" x="240" y="-432.916" font-family="Helvetica,sans-Serif" font-size="10.00">application.Pen.PENSTYLE</text>
</a>
</g>
</g>
<!-- Node7&#45;&gt;Node5 -->
<g id="edge6" class="edge"><title>Node7&#45;&gt;Node5</title>
<path fill="none" stroke="#9a32cd" stroke-dasharray="5,2" d="M320.266,-430.407C367.94,-427.394 426.819,-423.673 466.229,-421.182"/>
<polygon fill="#9a32cd" stroke="#9a32cd" points="320.033,-426.914 310.274,-431.038 320.475,-433.901 320.033,-426.914"/>
<text text-anchor="middle" x="382" y="-433.416" font-family="Helvetica,sans-Serif" font-size="10.00"> myStyle</text>
</g>
<!-- Node8 -->
<g id="node8" class="node"><title>Node8</title>
<polygon fill="white" stroke="#bfbfbf" points="219.5,-357.916 219.5,-376.916 260.5,-376.916 260.5,-357.916 219.5,-357.916"/>
<text text-anchor="middle" x="240" y="-364.916" font-family="Helvetica,sans-Serif" font-size="10.00">Color</text>
</g>
<!-- Node8&#45;&gt;Node5 -->
<g id="edge7" class="edge"><title>Node8&#45;&gt;Node5</title>
<path fill="none" stroke="#9a32cd" stroke-dasharray="5,2" d="M270.736,-373.054C318.234,-382.059 411.459,-399.734 466.47,-410.163"/>
<polygon fill="#9a32cd" stroke="#9a32cd" points="271.257,-369.59 260.78,-371.166 269.953,-376.468 271.257,-369.59"/>
<text text-anchor="middle" x="382" y="-406.416" font-family="Helvetica,sans-Serif" font-size="10.00"> myColor</text>
</g>
<!-- Node9 -->
<g id="node9" class="node"><title>Node9</title>
<g id="a_node9"><a xlink:href="../../d8/ddb/classgui_1_1_line_view.html" target="_top" xlink:title="gui.LineView">
<polygon fill="white" stroke="black" points="473.5,-213.916 473.5,-232.916 548.5,-232.916 548.5,-213.916 473.5,-213.916"/>
<text text-anchor="middle" x="511" y="-220.916" font-family="Helvetica,sans-Serif" font-size="10.00">gui.LineView</text>
</a>
</g>
</g>
<!-- Node8&#45;&gt;Node9 -->
<g id="edge14" class="edge"><title>Node8&#45;&gt;Node9</title>
<path fill="none" stroke="#9a32cd" stroke-dasharray="5,2" d="M258.057,-350.831C274.798,-335.227 301.593,-311.994 328,-296.416 335.166,-292.189 437.528,-251.845 485.51,-233.012"/>
<polygon fill="#9a32cd" stroke="#9a32cd" points="255.543,-348.391 250.692,-357.811 260.358,-353.472 255.543,-348.391"/>
<text text-anchor="middle" x="382" y="-299.416" font-family="Helvetica,sans-Serif" font-size="10.00"> DEFAULT_PEN_COLOR</text>
</g>
<!-- Node18 -->
<g id="node18" class="node"><title>Node18</title>
<g id="a_node18"><a xlink:href="../../d7/d9b/classgui_1_1_background_view.html" target="_top" xlink:title="gui.BackgroundView">
<polygon fill="white" stroke="black" points="454.5,-306.916 454.5,-325.916 567.5,-325.916 567.5,-306.916 454.5,-306.916"/>
<text text-anchor="middle" x="511" y="-313.916" font-family="Helvetica,sans-Serif" font-size="10.00">gui.BackgroundView</text>
</a>
</g>
</g>
<!-- Node8&#45;&gt;Node18 -->
<g id="edge29" class="edge"><title>Node8&#45;&gt;Node18</title>
<path fill="none" stroke="#9a32cd" stroke-dasharray="5,2" d="M270.712,-366.47C309.315,-364.695 378.569,-359.649 436,-345.416 454.751,-340.77 475.124,-332.532 489.738,-326.021"/>
<polygon fill="#9a32cd" stroke="#9a32cd" points="270.517,-362.975 260.672,-366.888 270.809,-369.969 270.517,-362.975"/>
<text text-anchor="middle" x="382" y="-365.416" font-family="Helvetica,sans-Serif" font-size="10.00"> DEFAULT_COLOR</text>
</g>
<!-- Node9&#45;&gt;Node4 -->
<g id="edge8" class="edge"><title>Node9&#45;&gt;Node4</title>
<path fill="none" stroke="#9a32cd" stroke-dasharray="5,2" d="M543.961,-236.944C587.927,-255.553 665.975,-288.587 704.378,-304.841"/>
<polygon fill="#9a32cd" stroke="#9a32cd" points="545.176,-233.658 534.602,-232.983 542.447,-240.104 545.176,-233.658"/>
<text text-anchor="middle" x="616" y="-283.416" font-family="Helvetica,sans-Serif" font-size="10.00"> myLineView</text>
</g>
<!-- Node9&#45;&gt;Node14 -->
<g id="edge25" class="edge"><title>Node9&#45;&gt;Node14</title>
<path fill="none" stroke="#9a32cd" stroke-dasharray="5,2" d="M558.855,-223.21C640.665,-222.851 809.67,-222.108 902.482,-221.7"/>
<polygon fill="#9a32cd" stroke="#9a32cd" points="558.834,-219.71 548.849,-223.254 558.864,-226.71 558.834,-219.71"/>
<text text-anchor="middle" x="728" y="-226.416" font-family="Helvetica,sans-Serif" font-size="10.00"> myLineView</text>
</g>
<!-- Node10 -->
<g id="node10" class="node"><title>Node10</title>
<g id="a_node10"><a xlink:href="../../d8/d8b/classgui_1_1_view.html" target="_top" xlink:title="gui.View">
<polygon fill="white" stroke="black" points="212,-209.916 212,-228.916 268,-228.916 268,-209.916 212,-209.916"/>
<text text-anchor="middle" x="240" y="-216.916" font-family="Helvetica,sans-Serif" font-size="10.00">gui.View</text>
</a>
</g>
</g>
<!-- Node10&#45;&gt;Node9 -->
<g id="edge9" class="edge"><title>Node10&#45;&gt;Node9</title>
<path fill="none" stroke="midnightblue" d="M278.288,-219.613C317.535,-219.864 381.117,-220.393 436,-221.416 448.207,-221.644 461.545,-221.978 473.493,-222.308"/>
<polygon fill="midnightblue" stroke="midnightblue" points="278.153,-216.112 268.131,-219.551 278.11,-223.112 278.153,-216.112"/>
</g>
<!-- Node15 -->
<g id="node15" class="node"><title>Node15</title>
<g id="a_node15"><a xlink:href="../../df/dcc/classgui_1_1_turtle_view.html" target="_top" xlink:title="gui.TurtleView">
<polygon fill="white" stroke="black" points="470.5,-113.916 470.5,-132.916 551.5,-132.916 551.5,-113.916 470.5,-113.916"/>
<text text-anchor="middle" x="511" y="-120.916" font-family="Helvetica,sans-Serif" font-size="10.00">gui.TurtleView</text>
</a>
</g>
</g>
<!-- Node10&#45;&gt;Node15 -->
<g id="edge18" class="edge"><title>Node10&#45;&gt;Node15</title>
<path fill="none" stroke="midnightblue" d="M278.007,-213.343C289.551,-209.812 301.477,-204.232 310,-195.416 328.76,-176.011 306.9,-154.247 328,-137.416 368.01,-105.501 429.972,-108.282 470.265,-114.684"/>
<polygon fill="midnightblue" stroke="midnightblue" points="276.844,-210.03 268.056,-215.949 278.617,-216.802 276.844,-210.03"/>
</g>
<!-- Node10&#45;&gt;Node18 -->
<g id="edge27" class="edge"><title>Node10&#45;&gt;Node18</title>
<path fill="none" stroke="midnightblue" d="M277.882,-222.983C289.313,-225.696 301.203,-230.378 310,-238.416 326.82,-253.785 310.395,-271.954 328,-286.416 346.868,-301.916 407.842,-309.595 454.06,-313.271"/>
<polygon fill="midnightblue" stroke="midnightblue" points="278.529,-219.544 268.045,-221.072 277.194,-226.415 278.529,-219.544"/>
</g>
<!-- Node11 -->
<g id="node11" class="node"><title>Node11</title>
<polygon fill="white" stroke="#bfbfbf" points="1,-229.916 1,-248.916 53,-248.916 53,-229.916 1,-229.916"/>
<text text-anchor="middle" x="27" y="-236.916" font-family="Helvetica,sans-Serif" font-size="10.00">Canvas</text>
</g>
<!-- Node11&#45;&gt;Node10 -->
<g id="edge10" class="edge"><title>Node11&#45;&gt;Node10</title>
<path fill="none" stroke="midnightblue" d="M63.0267,-236.096C104.773,-232.139 173.646,-225.611 211.667,-222.007"/>
<polygon fill="midnightblue" stroke="midnightblue" points="62.6581,-232.615 53.0331,-237.043 63.3187,-239.584 62.6581,-232.615"/>
</g>
<!-- Node12 -->
<g id="node12" class="node"><title>Node12</title>
<polygon fill="white" stroke="#bfbfbf" points="0,-123.916 0,-142.916 54,-142.916 54,-123.916 0,-123.916"/>
<text text-anchor="middle" x="27" y="-130.916" font-family="Helvetica,sans-Serif" font-size="10.00">Point2D</text>
</g>
<!-- Node12&#45;&gt;Node9 -->
<g id="edge13" class="edge"><title>Node12&#45;&gt;Node9</title>
<path fill="none" stroke="#9a32cd" stroke-dasharray="5,2" d="M64.2129,-138.449C118.008,-146.093 222.134,-161.538 310,-178.416 367.32,-189.427 433.279,-204.798 473.284,-214.424"/>
<polygon fill="#9a32cd" stroke="#9a32cd" points="64.5362,-134.96 54.1448,-137.026 63.5565,-141.891 64.5362,-134.96"/>
<text text-anchor="middle" x="240" y="-192.416" font-family="Helvetica,sans-Serif" font-size="10.00"> newStart</text>
<text text-anchor="middle" x="240" y="-181.416" font-family="Helvetica,sans-Serif" font-size="10.00">newDest</text>
</g>
<!-- Node12&#45;&gt;Node10 -->
<g id="edge11" class="edge"><title>Node12&#45;&gt;Node10</title>
<path fill="none" stroke="#9a32cd" stroke-dasharray="5,2" d="M40.3521,-151.097C48.2791,-161.152 59.4243,-173.151 72,-180.416 84.0522,-187.379 167.605,-204.98 211.77,-213.961"/>
<polygon fill="#9a32cd" stroke="#9a32cd" points="43.0439,-148.852 34.2593,-142.929 37.4329,-153.038 43.0439,-148.852"/>
<text text-anchor="middle" x="112" y="-214.416" font-family="Helvetica,sans-Serif" font-size="10.00"> DEFAULT_POINT</text>
<text text-anchor="middle" x="112" y="-203.416" font-family="Helvetica,sans-Serif" font-size="10.00">newDest</text>
</g>
<!-- Node12&#45;&gt;Node15 -->
<g id="edge20" class="edge"><title>Node12&#45;&gt;Node15</title>
<path fill="none" stroke="#9a32cd" stroke-dasharray="5,2" d="M64.5371,-128.472C135.962,-119.485 299.085,-102.296 436,-112.416 447.14,-113.24 459.146,-114.751 470.18,-116.396"/>
<polygon fill="#9a32cd" stroke="#9a32cd" points="63.7524,-125.044 54.2783,-129.786 64.642,-131.987 63.7524,-125.044"/>
<text text-anchor="middle" x="240" y="-120.416" font-family="Helvetica,sans-Serif" font-size="10.00"> newDest</text>
</g>
<!-- Node17 -->
<g id="node17" class="node"><title>Node17</title>
<g id="a_node17"><a xlink:href="../../d1/d31/classapplication_1_1_turtle.html" target="_top" xlink:title="application.Turtle">
<polygon fill="white" stroke="black" points="462.5,-28.9162 462.5,-47.9162 559.5,-47.9162 559.5,-28.9162 462.5,-28.9162"/>
<text text-anchor="middle" x="511" y="-35.9162" font-family="Helvetica,sans-Serif" font-size="10.00">application.Turtle</text>
</a>
</g>
</g>
<!-- Node12&#45;&gt;Node17 -->
<g id="edge23" class="edge"><title>Node12&#45;&gt;Node17</title>
<path fill="none" stroke="#9a32cd" stroke-dasharray="5,2" d="M42.2922,-115.902C65.6506,-88.8294 114.954,-37.9104 170,-18.4162 278.41,19.9765 418.35,-11.5146 479.331,-28.8608"/>
<polygon fill="#9a32cd" stroke="#9a32cd" points="39.4167,-113.882 35.6456,-123.783 44.7679,-118.395 39.4167,-113.882"/>
<text text-anchor="middle" x="240" y="-21.4162" font-family="Helvetica,sans-Serif" font-size="10.00"> myLoc</text>
</g>
<!-- Node13 -->
<g id="node13" class="node"><title>Node13</title>
<polygon fill="white" stroke="#bfbfbf" points="192,-247.916 192,-266.916 288,-266.916 288,-247.916 192,-247.916"/>
<text text-anchor="middle" x="240" y="-254.916" font-family="Helvetica,sans-Serif" font-size="10.00">GraphicsContext</text>
</g>
<!-- Node13&#45;&gt;Node9 -->
<g id="edge12" class="edge"><title>Node13&#45;&gt;Node9</title>
<path fill="none" stroke="#9a32cd" stroke-dasharray="5,2" d="M298.411,-246.159C308.258,-244.429 318.407,-242.77 328,-241.416 378.146,-234.338 436.456,-229.092 473.29,-226.144"/>
<polygon fill="#9a32cd" stroke="#9a32cd" points="297.516,-242.764 288.294,-247.979 298.755,-249.653 297.516,-242.764"/>
<text text-anchor="middle" x="382" y="-244.416" font-family="Helvetica,sans-Serif" font-size="10.00"> linesGC</text>
</g>
<!-- Node13&#45;&gt;Node15 -->
<g id="edge19" class="edge"><title>Node13&#45;&gt;Node15</title>
<path fill="none" stroke="#9a32cd" stroke-dasharray="5,2" d="M297.693,-245.089C302.013,-243.174 306.174,-240.965 310,-238.416 320.802,-231.219 317.967,-223.653 328,-215.416 376.435,-175.653 444.897,-146.895 482.539,-132.932"/>
<polygon fill="#9a32cd" stroke="#9a32cd" points="296.111,-241.948 288.051,-248.825 298.64,-248.475 296.111,-241.948"/>
<text text-anchor="middle" x="382" y="-218.416" font-family="Helvetica,sans-Serif" font-size="10.00"> turtleGC</text>
</g>
<!-- Node13&#45;&gt;Node18 -->
<g id="edge28" class="edge"><title>Node13&#45;&gt;Node18</title>
<path fill="none" stroke="#9a32cd" stroke-dasharray="5,2" d="M260.016,-273.395C276.733,-286.364 302.335,-303.716 328,-311.416 369.024,-323.724 417.608,-324.404 454.257,-322.317"/>
<polygon fill="#9a32cd" stroke="#9a32cd" points="262.127,-270.601 252.131,-267.086 257.754,-276.067 262.127,-270.601"/>
<text text-anchor="middle" x="382" y="-326.416" font-family="Helvetica,sans-Serif" font-size="10.00"> backgroundContext</text>
</g>
<!-- Node14&#45;&gt;Node3 -->
<g id="edge15" class="edge"><title>Node14&#45;&gt;Node3</title>
<path fill="none" stroke="#9a32cd" stroke-dasharray="5,2" d="M1001.27,-234.894C1036.82,-249.457 1095.89,-272.805 1148,-289.416 1159.84,-293.192 1172.88,-296.784 1184.8,-299.856"/>
<polygon fill="#9a32cd" stroke="#9a32cd" points="1002.47,-231.603 991.887,-231.032 999.802,-238.076 1002.47,-231.603"/>
<text text-anchor="middle" x="1091" y="-286.416" font-family="Helvetica,sans-Serif" font-size="10.00"> myViewHandler</text>
</g>
<!-- Node15&#45;&gt;Node14 -->
<g id="edge17" class="edge"><title>Node15&#45;&gt;Node14</title>
<path fill="none" stroke="#9a32cd" stroke-dasharray="5,2" d="M561.463,-134.07C650.779,-153.307 837.601,-193.546 922.866,-211.91"/>
<polygon fill="#9a32cd" stroke="#9a32cd" points="562.095,-130.626 551.582,-131.942 560.621,-137.469 562.095,-130.626"/>
<text text-anchor="middle" x="728" y="-185.416" font-family="Helvetica,sans-Serif" font-size="10.00"> myTurtleView</text>
</g>
<!-- Node16 -->
<g id="node16" class="node"><title>Node16</title>
<polygon fill="white" stroke="#bfbfbf" points="206,-38.9162 206,-57.9162 274,-57.9162 274,-38.9162 206,-38.9162"/>
<text text-anchor="middle" x="240" y="-45.9162" font-family="Helvetica,sans-Serif" font-size="10.00">ImageView</text>
</g>
<!-- Node16&#45;&gt;Node15 -->
<g id="edge21" class="edge"><title>Node16&#45;&gt;Node15</title>
<path fill="none" stroke="#9a32cd" stroke-dasharray="5,2" d="M284.271,-48.2759C324.729,-49.4504 386.208,-54.6254 436,-73.4162 460.951,-82.8324 485.779,-102.166 499.386,-113.841"/>
<polygon fill="#9a32cd" stroke="#9a32cd" points="284.28,-44.7754 274.206,-48.0538 284.126,-51.7737 284.28,-44.7754"/>
<text text-anchor="middle" x="382" y="-76.4162" font-family="Helvetica,sans-Serif" font-size="10.00"> myTurtle</text>
</g>
<!-- Node16&#45;&gt;Node17 -->
<g id="edge24" class="edge"><title>Node16&#45;&gt;Node17</title>
<path fill="none" stroke="#9a32cd" stroke-dasharray="5,2" d="M284.643,-43.0596C298.484,-41.5868 313.863,-40.1844 328,-39.4162 373.591,-36.9387 425.701,-36.9395 462.444,-37.4101"/>
<polygon fill="#9a32cd" stroke="#9a32cd" points="283.959,-39.6137 274.404,-44.1902 284.727,-46.5714 283.959,-39.6137"/>
<text text-anchor="middle" x="382" y="-42.4162" font-family="Helvetica,sans-Serif" font-size="10.00"> myImage</text>
</g>
<!-- Node17&#45;&gt;Node14 -->
<g id="edge22" class="edge"><title>Node17&#45;&gt;Node14</title>
<path fill="none" stroke="#9a32cd" stroke-dasharray="5,2" d="M549.608,-51.2256C603.687,-69.8754 706.334,-106.139 792,-141.416 849.146,-164.949 915.089,-196.248 947.271,-211.799"/>
<polygon fill="#9a32cd" stroke="#9a32cd" points="550.686,-47.8949 540.091,-47.9524 548.409,-54.5144 550.686,-47.8949"/>
<text text-anchor="middle" x="728" y="-144.416" font-family="Helvetica,sans-Serif" font-size="10.00"> myTurtle</text>
</g>
<!-- Node18&#45;&gt;Node14 -->
<g id="edge26" class="edge"><title>Node18&#45;&gt;Node14</title>
<path fill="none" stroke="#9a32cd" stroke-dasharray="5,2" d="M567.115,-304.779C595.97,-298.695 631.888,-291.135 664,-284.416 755.113,-265.353 861.677,-243.238 921.05,-230.933"/>
<polygon fill="#9a32cd" stroke="#9a32cd" points="566.283,-301.377 557.221,-306.865 567.728,-308.226 566.283,-301.377"/>
<text text-anchor="middle" x="728" y="-287.416" font-family="Helvetica,sans-Serif" font-size="10.00"> myBackgroundView</text>
</g>
<!-- Node19 -->
<g id="node19" class="node"><title>Node19</title>
<polygon fill="white" stroke="#bfbfbf" points="1170,-250.416 1170,-280.416 1282,-280.416 1282,-250.416 1170,-250.416"/>
<text text-anchor="start" x="1178" y="-268.416" font-family="Helvetica,sans-Serif" font-size="10.00">List&lt; Entry&lt; String,</text>
<text text-anchor="middle" x="1226" y="-257.416" font-family="Helvetica,sans-Serif" font-size="10.00"> Pattern &gt; &gt;</text>
</g>
<!-- Node19&#45;&gt;Node2 -->
<g id="edge30" class="edge"><title>Node19&#45;&gt;Node2</title>
<path fill="none" stroke="#9a32cd" stroke-dasharray="5,2" d="M1292.43,-265.416C1327.54,-265.416 1370.33,-265.416 1403.75,-265.416"/>
<polygon fill="#9a32cd" stroke="#9a32cd" points="1292.28,-261.916 1282.28,-265.416 1292.27,-268.916 1292.28,-261.916"/>
<text text-anchor="middle" x="1354" y="-268.416" font-family="Helvetica,sans-Serif" font-size="10.00"> patterns</text>
</g>
<!-- Node20 -->
<g id="node20" class="node"><title>Node20</title>
<polygon fill="white" stroke="#bfbfbf" points="1171.5,-210.916 1171.5,-229.916 1280.5,-229.916 1280.5,-210.916 1171.5,-210.916"/>
<text text-anchor="middle" x="1226" y="-217.916" font-family="Helvetica,sans-Serif" font-size="10.00">HashSet&lt; String &gt;</text>
</g>
<!-- Node20&#45;&gt;Node2 -->
<g id="edge31" class="edge"><title>Node20&#45;&gt;Node2</title>
<path fill="none" stroke="#9a32cd" stroke-dasharray="5,2" d="M1290.63,-224.747C1319.93,-227.574 1355.01,-232.142 1386,-239.416 1403.29,-243.474 1422.16,-250.26 1436.38,-255.882"/>
<polygon fill="#9a32cd" stroke="#9a32cd" points="1290.8,-221.248 1280.52,-223.818 1290.16,-228.218 1290.8,-221.248"/>
<text text-anchor="middle" x="1354" y="-253.416" font-family="Helvetica,sans-Serif" font-size="10.00"> oneParComs</text>
<text text-anchor="middle" x="1354" y="-242.416" font-family="Helvetica,sans-Serif" font-size="10.00">twoParComs</text>
</g>
</g>
</svg>
