<?xml version="1.0" encoding="UTF-8" standalone="no"?>
<!DOCTYPE svg PUBLIC "-//W3C//DTD SVG 1.1//EN"
 "http://www.w3.org/Graphics/SVG/1.1/DTD/svg11.dtd">
<!-- Generated by graphviz version 2.36.0 (20140111.2315)
 -->
<!-- Title: commands.viewCommands.turtleCommands.ClearScreen.execute Pages: 1 -->
<!--zoomable 541 -->
<svg id="main" version="1.1" xmlns="http://www.w3.org/2000/svg" xmlns:xlink="http://www.w3.org/1999/xlink" xml:space="preserve" onload="init(evt)">
<style type="text/css"><![CDATA[
.edge:hover path { stroke: red; }
.edge:hover polygon { stroke: red; fill: red; }
]]></style>
<script type="text/javascript"><![CDATA[
var edges = document.getElementsByTagName('g');
if (edges && edges.length) {
  for (var i=0;i<edges.length;i++) {
    if (edges[i].id.substr(0,4)=='edge') {
      edges[i].setAttribute('class','edge');
    }
  }
}
]]></script>
        <defs>
                <circle id="rim" cx="0" cy="0" r="7"/>
                <circle id="rim2" cx="0" cy="0" r="3.5"/>
                <g id="zoomPlus">
                        <use xlink:href="#rim" fill="#404040">
                                <set attributeName="fill" to="#808080" begin="zoomplus.mouseover" end="zoomplus.mouseout"/>
                        </use>
                        <path d="M-4,0h8M0,-4v8" fill="none" stroke="white" stroke-width="1.5" pointer-events="none"/>
                </g>
                <g id="zoomMin">
                        <use xlink:href="#rim" fill="#404040">
                                <set attributeName="fill" to="#808080" begin="zoomminus.mouseover" end="zoomminus.mouseout"/>
                        </use>
                        <path d="M-4,0h8" fill="none" stroke="white" stroke-width="1.5" pointer-events="none"/>
                </g>
                <g id="dirArrow">
                        <path fill="none" stroke="white" stroke-width="1.5" d="M0,-3.0v7 M-2.5,-0.5L0,-3.0L2.5,-0.5"/>
                </g>
               <g id="resetDef">
                       <use xlink:href="#rim2" fill="#404040">
                               <set attributeName="fill" to="#808080" begin="reset.mouseover" end="reset.mouseout"/>
                       </use>
               </g>
        </defs>

<script type="text/javascript">
var viewWidth = 1546;
var viewHeight = 541;
var sectionId = 'dynsection-2';
</script>
<script xlink:href="../../svgpan.js"/>
<svg id="graph" class="graph">
<g id="viewport">
<title>commands.viewCommands.turtleCommands.ClearScreen.execute</title>
<polygon fill="white" stroke="none" points="-4,4 -4,-537.292 1542,-537.292 1542,4 -4,4"/>
<!-- Node1 -->
<g id="node1" class="node"><title>Node1</title>
<polygon fill="#bfbfbf" stroke="black" points="0,-386.594 0,-416.594 178,-416.594 178,-386.594 0,-386.594"/>
<text text-anchor="start" x="8" y="-404.594" font-family="Helvetica,sans-Serif" font-size="10.00">commands.viewCommands.turtle</text>
<text text-anchor="middle" x="89" y="-393.594" font-family="Helvetica,sans-Serif" font-size="10.00">Commands.ClearScreen.execute</text>
</g>
<!-- Node2 -->
<g id="node2" class="node"><title>Node2</title>
<g id="a_node2"><a xlink:href="../../d8/d65/classapplication_1_1_view_handler.html#a1aff135a076a9717102bb59ea613131c" target="_top" xlink:title="application.ViewHandler.change\lLocationOfTurtle">
<polygon fill="white" stroke="black" points="214,-386.594 214,-416.594 382,-416.594 382,-386.594 214,-386.594"/>
<text text-anchor="start" x="222" y="-404.594" font-family="Helvetica,sans-Serif" font-size="10.00">application.ViewHandler.change</text>
<text text-anchor="middle" x="298" y="-393.594" font-family="Helvetica,sans-Serif" font-size="10.00">LocationOfTurtle</text>
</a>
</g>
</g>
<!-- Node1&#45;&gt;Node2 -->
<g id="edge1" class="edge"><title>Node1&#45;&gt;Node2</title>
<path fill="none" stroke="midnightblue" d="M178.087,-401.594C186.629,-401.594 195.314,-401.594 203.902,-401.594"/>
<polygon fill="midnightblue" stroke="midnightblue" points="203.926,-405.095 213.926,-401.594 203.926,-398.095 203.926,-405.095"/>
</g>
<!-- Node14 -->
<g id="node14" class="node"><title>Node14</title>
<g id="a_node14"><a xlink:href="../../d8/d65/classapplication_1_1_view_handler.html#a8a3722771a70075225d9c37dc1ff5e8d" target="_top" xlink:title="application.ViewHandler.get\lTurtleLocation">
<polygon fill="white" stroke="black" points="1004.5,-430.594 1004.5,-460.594 1153.5,-460.594 1153.5,-430.594 1004.5,-430.594"/>
<text text-anchor="start" x="1012.5" y="-448.594" font-family="Helvetica,sans-Serif" font-size="10.00">application.ViewHandler.get</text>
<text text-anchor="middle" x="1079" y="-437.594" font-family="Helvetica,sans-Serif" font-size="10.00">TurtleLocation</text>
</a>
</g>
</g>
<!-- Node1&#45;&gt;Node14 -->
<g id="edge45" class="edge"><title>Node1&#45;&gt;Node14</title>
<path fill="none" stroke="midnightblue" d="M145.178,-416.599C209.932,-433.372 320.822,-459.504 418,-469.594 594.828,-487.955 640.222,-470.372 818,-470.594 883.778,-470.677 900.618,-477.803 966,-470.594 980.964,-468.945 996.852,-466.091 1011.81,-462.887"/>
<polygon fill="midnightblue" stroke="midnightblue" points="1013,-466.209 1022,-460.624 1011.48,-459.376 1013,-466.209"/>
</g>
<!-- Node32 -->
<g id="node32" class="node"><title>Node32</title>
<g id="a_node32"><a xlink:href="../../d8/d65/classapplication_1_1_view_handler.html#a53f77a87b6e532c698ba6ddddde5d43b" target="_top" xlink:title="application.ViewHandler.clear\lScreen">
<polygon fill="white" stroke="black" points="220,-299.594 220,-329.594 376,-329.594 376,-299.594 220,-299.594"/>
<text text-anchor="start" x="228" y="-317.594" font-family="Helvetica,sans-Serif" font-size="10.00">application.ViewHandler.clear</text>
<text text-anchor="middle" x="298" y="-306.594" font-family="Helvetica,sans-Serif" font-size="10.00">Screen</text>
</a>
</g>
</g>
<!-- Node1&#45;&gt;Node32 -->
<g id="edge43" class="edge"><title>Node1&#45;&gt;Node32</title>
<path fill="none" stroke="midnightblue" d="M126.057,-386.44C160.975,-371.764 214.034,-349.464 251.767,-333.605"/>
<polygon fill="midnightblue" stroke="midnightblue" points="253.147,-336.822 261.01,-329.721 250.435,-330.369 253.147,-336.822"/>
</g>
<!-- Node3 -->
<g id="node3" class="node"><title>Node3</title>
<g id="a_node3"><a xlink:href="../../d1/d31/classapplication_1_1_turtle.html#a802873f2487ab3b6832050e1bef998a5" target="_top" xlink:title="application.Turtle.getLoc">
<polygon fill="white" stroke="black" points="1211,-480.094 1211,-499.094 1343,-499.094 1343,-480.094 1211,-480.094"/>
<text text-anchor="middle" x="1277" y="-487.094" font-family="Helvetica,sans-Serif" font-size="10.00">application.Turtle.getLoc</text>
</a>
</g>
</g>
<!-- Node2&#45;&gt;Node3 -->
<g id="edge2" class="edge"><title>Node2&#45;&gt;Node3</title>
<path fill="none" stroke="midnightblue" d="M354.376,-416.672C363.981,-420.462 373.577,-425.067 382,-430.594 401.722,-443.537 396.954,-458.941 418,-469.594 650.043,-587.049 741.933,-504.474 1002,-506.594 1070.44,-507.152 1087.72,-511.407 1156,-506.594 1173.72,-505.345 1192.81,-503.071 1210.43,-500.584"/>
<polygon fill="midnightblue" stroke="midnightblue" points="1211.22,-504.005 1220.61,-499.101 1210.21,-497.078 1211.22,-504.005"/>
</g>
<!-- Node4 -->
<g id="node4" class="node"><title>Node4</title>
<g id="a_node4"><a xlink:href="../../d8/d65/classapplication_1_1_view_handler.html#a98b4ba09b3f3e8b1a7667db5598dbfb0" target="_top" xlink:title="application.ViewHandler.move\lTurtleImageAndDraw">
<polygon fill="white" stroke="black" points="418,-304.594 418,-334.594 578,-334.594 578,-304.594 418,-304.594"/>
<text text-anchor="start" x="426" y="-322.594" font-family="Helvetica,sans-Serif" font-size="10.00">application.ViewHandler.move</text>
<text text-anchor="middle" x="498" y="-311.594" font-family="Helvetica,sans-Serif" font-size="10.00">TurtleImageAndDraw</text>
</a>
</g>
</g>
<!-- Node2&#45;&gt;Node4 -->
<g id="edge3" class="edge"><title>Node2&#45;&gt;Node4</title>
<path fill="none" stroke="midnightblue" d="M332.156,-386.586C355.925,-375.954 388.775,-361.52 418,-349.594 427.271,-345.811 437.213,-341.913 446.811,-338.23"/>
<polygon fill="midnightblue" stroke="midnightblue" points="448.157,-341.462 456.255,-334.631 445.664,-334.921 448.157,-341.462"/>
</g>
<!-- Node13 -->
<g id="node13" class="node"><title>Node13</title>
<g id="a_node13"><a xlink:href="../../d8/d65/classapplication_1_1_view_handler.html#ae489ceaa9b5ec67faf3ba22a11cec085" target="_top" xlink:title="application.ViewHandler.update\lTurtleOnView">
<polygon fill="white" stroke="black" points="614.5,-310.594 614.5,-340.594 781.5,-340.594 781.5,-310.594 614.5,-310.594"/>
<text text-anchor="start" x="622.5" y="-328.594" font-family="Helvetica,sans-Serif" font-size="10.00">application.ViewHandler.update</text>
<text text-anchor="middle" x="698" y="-317.594" font-family="Helvetica,sans-Serif" font-size="10.00">TurtleOnView</text>
</a>
</g>
</g>
<!-- Node2&#45;&gt;Node13 -->
<g id="edge42" class="edge"><title>Node2&#45;&gt;Node13</title>
<path fill="none" stroke="midnightblue" d="M377.632,-386.579C444.028,-373.901 539.06,-355.754 608.187,-342.554"/>
<polygon fill="midnightblue" stroke="midnightblue" points="609.026,-345.957 618.192,-340.643 607.713,-339.081 609.026,-345.957"/>
</g>
<!-- Node28 -->
<g id="node28" class="node"><title>Node28</title>
<g id="a_node28"><a xlink:href="../../d1/d31/classapplication_1_1_turtle.html#a1055014d20f219b829679d8d4f3e0d97" target="_top" xlink:title="application.Turtle.setLocation">
<polygon fill="white" stroke="black" points="620.5,-392.094 620.5,-411.094 775.5,-411.094 775.5,-392.094 620.5,-392.094"/>
<text text-anchor="middle" x="698" y="-399.094" font-family="Helvetica,sans-Serif" font-size="10.00">application.Turtle.setLocation</text>
</a>
</g>
</g>
<!-- Node2&#45;&gt;Node28 -->
<g id="edge36" class="edge"><title>Node2&#45;&gt;Node28</title>
<path fill="none" stroke="midnightblue" d="M382.434,-401.594C449.212,-401.594 542.56,-401.594 610.208,-401.594"/>
<polygon fill="midnightblue" stroke="midnightblue" points="610.416,-405.095 620.416,-401.594 610.416,-398.095 610.416,-405.095"/>
</g>
<!-- Node29 -->
<g id="node29" class="node"><title>Node29</title>
<g id="a_node29"><a xlink:href="../../d8/d65/classapplication_1_1_view_handler.html#a0dd92f1869c84b869aa893f428ba149b" target="_top" xlink:title="application.ViewHandler.set\lTurtleLocToViewTurtleLoc">
<polygon fill="white" stroke="black" points="424,-430.594 424,-460.594 572,-460.594 572,-430.594 424,-430.594"/>
<text text-anchor="start" x="432" y="-448.594" font-family="Helvetica,sans-Serif" font-size="10.00">application.ViewHandler.set</text>
<text text-anchor="middle" x="498" y="-437.594" font-family="Helvetica,sans-Serif" font-size="10.00">TurtleLocToViewTurtleLoc</text>
</a>
</g>
</g>
<!-- Node2&#45;&gt;Node29 -->
<g id="edge37" class="edge"><title>Node2&#45;&gt;Node29</title>
<path fill="none" stroke="midnightblue" d="M366.587,-416.614C383.537,-420.38 401.858,-424.452 419.26,-428.319"/>
<polygon fill="midnightblue" stroke="midnightblue" points="418.861,-431.816 429.382,-430.568 420.379,-424.982 418.861,-431.816"/>
</g>
<!-- Node5 -->
<g id="node5" class="node"><title>Node5</title>
<g id="a_node5"><a xlink:href="../../d8/ddb/classgui_1_1_line_view.html#abe4c6727ecf95f07a0a7a68e4e7dcb40" target="_top" xlink:title="gui.LineView.drawLine">
<polygon fill="white" stroke="black" points="638.5,-91.0945 638.5,-110.094 757.5,-110.094 757.5,-91.0945 638.5,-91.0945"/>
<text text-anchor="middle" x="698" y="-98.0945" font-family="Helvetica,sans-Serif" font-size="10.00">gui.LineView.drawLine</text>
</a>
</g>
</g>
<!-- Node4&#45;&gt;Node5 -->
<g id="edge4" class="edge"><title>Node4&#45;&gt;Node5</title>
<path fill="none" stroke="midnightblue" d="M564.867,-304.474C569.661,-301.714 574.126,-298.451 578,-294.594 615.055,-257.706 586.616,-227.136 614,-182.594 630.376,-155.959 657.18,-131.631 675.882,-116.512"/>
<polygon fill="midnightblue" stroke="midnightblue" points="678.153,-119.179 683.839,-110.239 673.819,-113.682 678.153,-119.179"/>
</g>
<!-- Node11 -->
<g id="node11" class="node"><title>Node11</title>
<g id="a_node11"><a xlink:href="../../df/dcb/classapplication_1_1_pen_handler.html#a8477a9a258753bb5538ad83a015fb731" target="_top" xlink:title="application.PenHandler.get\lPenStatus">
<polygon fill="white" stroke="black" points="1006.5,-167.594 1006.5,-197.594 1151.5,-197.594 1151.5,-167.594 1006.5,-167.594"/>
<text text-anchor="start" x="1014.5" y="-185.594" font-family="Helvetica,sans-Serif" font-size="10.00">application.PenHandler.get</text>
<text text-anchor="middle" x="1079" y="-174.594" font-family="Helvetica,sans-Serif" font-size="10.00">PenStatus</text>
</a>
</g>
</g>
<!-- Node4&#45;&gt;Node11 -->
<g id="edge14" class="edge"><title>Node4&#45;&gt;Node11</title>
<path fill="none" stroke="midnightblue" d="M546.624,-304.525C556.968,-301.252 567.851,-297.807 578,-294.594 684.67,-260.827 708.862,-243.244 818,-218.594 876.966,-205.277 944.636,-196.094 996.156,-190.338"/>
<polygon fill="midnightblue" stroke="midnightblue" points="996.678,-193.802 1006.24,-189.232 995.915,-186.843 996.678,-193.802"/>
</g>
<!-- Node4&#45;&gt;Node13 -->
<g id="edge16" class="edge"><title>Node4&#45;&gt;Node13</title>
<path fill="none" stroke="midnightblue" d="M578.108,-321.992C586.702,-322.252 595.505,-322.519 604.242,-322.784"/>
<polygon fill="midnightblue" stroke="midnightblue" points="604.351,-326.288 614.452,-323.093 604.563,-319.292 604.351,-326.288"/>
</g>
<!-- Node6 -->
<g id="node6" class="node"><title>Node6</title>
<g id="a_node6"><a xlink:href="../../d8/ddb/classgui_1_1_line_view.html#aac6f01646ce73691c335b27ecd385dea" target="_top" xlink:title="gui.LineView.findBoundary\lPoint">
<polygon fill="white" stroke="black" points="822,-25.5945 822,-55.5945 962,-55.5945 962,-25.5945 822,-25.5945"/>
<text text-anchor="start" x="830" y="-43.5945" font-family="Helvetica,sans-Serif" font-size="10.00">gui.LineView.findBoundary</text>
<text text-anchor="middle" x="892" y="-32.5945" font-family="Helvetica,sans-Serif" font-size="10.00">Point</text>
</a>
</g>
</g>
<!-- Node5&#45;&gt;Node6 -->
<g id="edge5" class="edge"><title>Node5&#45;&gt;Node6</title>
<path fill="none" stroke="midnightblue" d="M729.423,-91.0873C757.14,-82.4257 798.827,-69.3985 832.915,-58.7459"/>
<polygon fill="midnightblue" stroke="midnightblue" points="834.266,-61.9907 842.767,-55.6672 832.178,-55.3094 834.266,-61.9907"/>
</g>
<!-- Node9 -->
<g id="node9" class="node"><title>Node9</title>
<g id="a_node9"><a xlink:href="../../d8/d8b/classgui_1_1_view.html#a9df94efe60af56c89531c45f0f3f9624" target="_top" xlink:title="gui.View.setNewPoint">
<polygon fill="white" stroke="black" points="1409.5,-72.0945 1409.5,-91.0945 1526.5,-91.0945 1526.5,-72.0945 1409.5,-72.0945"/>
<text text-anchor="middle" x="1468" y="-79.0945" font-family="Helvetica,sans-Serif" font-size="10.00">gui.View.setNewPoint</text>
</a>
</g>
</g>
<!-- Node5&#45;&gt;Node9 -->
<g id="edge13" class="edge"><title>Node5&#45;&gt;Node9</title>
<path fill="none" stroke="midnightblue" d="M757.671,-99.143C897.553,-95.6823 1250.07,-86.9611 1398.96,-83.2778"/>
<polygon fill="midnightblue" stroke="midnightblue" points="1399.41,-86.7678 1409.32,-83.0214 1399.24,-79.7699 1399.41,-86.7678"/>
</g>
<!-- Node7 -->
<g id="node7" class="node"><title>Node7</title>
<g id="a_node7"><a xlink:href="../../d8/ddb/classgui_1_1_line_view.html#a29757337f55037a9e48da9098eca8a09" target="_top" xlink:title="gui.LineView.findCorner">
<polygon fill="white" stroke="black" points="1015.5,-15.0945 1015.5,-34.0945 1142.5,-34.0945 1142.5,-15.0945 1015.5,-15.0945"/>
<text text-anchor="middle" x="1079" y="-22.0945" font-family="Helvetica,sans-Serif" font-size="10.00">gui.LineView.findCorner</text>
</a>
</g>
</g>
<!-- Node6&#45;&gt;Node7 -->
<g id="edge6" class="edge"><title>Node6&#45;&gt;Node7</title>
<path fill="none" stroke="midnightblue" d="M962.15,-34.6139C976.19,-33.3997 990.997,-32.119 1005.16,-30.8942"/>
<polygon fill="midnightblue" stroke="midnightblue" points="1005.68,-34.3626 1015.34,-30.0139 1005.07,-27.3886 1005.68,-34.3626"/>
</g>
<!-- Node8 -->
<g id="node8" class="node"><title>Node8</title>
<g id="a_node8"><a xlink:href="../../d8/ddb/classgui_1_1_line_view.html#a6cc826f05b0ac955fab89afbfca7c1a8" target="_top" xlink:title="gui.LineView.findYEdge">
<polygon fill="white" stroke="black" points="1215,-15.0945 1215,-34.0945 1339,-34.0945 1339,-15.0945 1215,-15.0945"/>
<text text-anchor="middle" x="1277" y="-22.0945" font-family="Helvetica,sans-Serif" font-size="10.00">gui.LineView.findYEdge</text>
</a>
</g>
</g>
<!-- Node6&#45;&gt;Node8 -->
<g id="edge12" class="edge"><title>Node6&#45;&gt;Node8</title>
<path fill="none" stroke="midnightblue" d="M930.134,-25.4991C950.892,-17.8732 977.455,-9.43849 1002,-5.59446 1076.51,6.0742 1163.53,-3.9267 1219.17,-13.276"/>
<polygon fill="midnightblue" stroke="midnightblue" points="1218.73,-16.7523 1229.18,-15.0087 1219.93,-9.85483 1218.73,-16.7523"/>
</g>
<!-- Node10 -->
<g id="node10" class="node"><title>Node10</title>
<g id="a_node10"><a xlink:href="../../d8/ddb/classgui_1_1_line_view.html#a4a4d4a5dc42ec1fc8896b453703b6991" target="_top" xlink:title="gui.LineView.findXEdge">
<polygon fill="white" stroke="black" points="1214.5,-53.0945 1214.5,-72.0945 1339.5,-72.0945 1339.5,-53.0945 1214.5,-53.0945"/>
<text text-anchor="middle" x="1277" y="-60.0945" font-family="Helvetica,sans-Serif" font-size="10.00">gui.LineView.findXEdge</text>
</a>
</g>
</g>
<!-- Node6&#45;&gt;Node10 -->
<g id="edge11" class="edge"><title>Node6&#45;&gt;Node10</title>
<path fill="none" stroke="midnightblue" d="M962.358,-44.5785C1030.74,-48.5064 1134.78,-54.4827 1204.05,-58.4614"/>
<polygon fill="midnightblue" stroke="midnightblue" points="1204.25,-61.9785 1214.43,-59.0578 1204.65,-54.99 1204.25,-61.9785"/>
</g>
<!-- Node7&#45;&gt;Node8 -->
<g id="edge7" class="edge"><title>Node7&#45;&gt;Node8</title>
<path fill="none" stroke="midnightblue" d="M1142.55,-24.5945C1162.3,-24.5945 1184.26,-24.5945 1204.57,-24.5945"/>
<polygon fill="midnightblue" stroke="midnightblue" points="1204.71,-28.0946 1214.71,-24.5945 1204.71,-21.0946 1204.71,-28.0946"/>
</g>
<!-- Node7&#45;&gt;Node10 -->
<g id="edge9" class="edge"><title>Node7&#45;&gt;Node10</title>
<path fill="none" stroke="midnightblue" d="M1129.21,-34.1344C1155.77,-39.2841 1188.75,-45.6785 1216.72,-51.1009"/>
<polygon fill="midnightblue" stroke="midnightblue" points="1216.29,-54.5832 1226.77,-53.0506 1217.62,-47.7111 1216.29,-54.5832"/>
</g>
<!-- Node8&#45;&gt;Node9 -->
<g id="edge8" class="edge"><title>Node8&#45;&gt;Node9</title>
<path fill="none" stroke="midnightblue" d="M1324.92,-34.1201C1337.07,-36.8839 1350.09,-40.1072 1362,-43.5945 1386.3,-50.7105 1413.14,-60.4582 1433.6,-68.2992"/>
<polygon fill="midnightblue" stroke="midnightblue" points="1432.51,-71.6277 1443.09,-71.9754 1435.03,-65.1001 1432.51,-71.6277"/>
</g>
<!-- Node10&#45;&gt;Node9 -->
<g id="edge10" class="edge"><title>Node10&#45;&gt;Node9</title>
<path fill="none" stroke="midnightblue" d="M1339.62,-68.7895C1358.7,-70.7076 1379.83,-72.8311 1399.3,-74.7883"/>
<polygon fill="midnightblue" stroke="midnightblue" points="1399.01,-78.2767 1409.31,-75.7946 1399.71,-71.3118 1399.01,-78.2767"/>
</g>
<!-- Node12 -->
<g id="node12" class="node"><title>Node12</title>
<g id="a_node12"><a xlink:href="../../de/d5a/classapplication_1_1_pen.html#ab21d78789fb66a90181393d7cc42796c" target="_top" xlink:title="application.Pen.getStatus">
<polygon fill="white" stroke="black" points="1207,-173.094 1207,-192.094 1347,-192.094 1347,-173.094 1207,-173.094"/>
<text text-anchor="middle" x="1277" y="-180.094" font-family="Helvetica,sans-Serif" font-size="10.00">application.Pen.getStatus</text>
</a>
</g>
</g>
<!-- Node11&#45;&gt;Node12 -->
<g id="edge15" class="edge"><title>Node11&#45;&gt;Node12</title>
<path fill="none" stroke="midnightblue" d="M1151.59,-182.594C1166.25,-182.594 1181.77,-182.594 1196.68,-182.594"/>
<polygon fill="midnightblue" stroke="midnightblue" points="1196.89,-186.095 1206.89,-182.594 1196.89,-179.095 1196.89,-186.095"/>
</g>
<!-- Node13&#45;&gt;Node14 -->
<g id="edge17" class="edge"><title>Node13&#45;&gt;Node14</title>
<path fill="none" stroke="midnightblue" d="M720.278,-340.874C743.282,-356.669 781.563,-380.897 818,-394.594 874.916,-415.99 942.377,-428.888 994.317,-436.36"/>
<polygon fill="midnightblue" stroke="midnightblue" points="994.102,-439.863 1004.49,-437.782 995.072,-432.931 994.102,-439.863"/>
</g>
<!-- Node15 -->
<g id="node15" class="node"><title>Node15</title>
<g id="a_node15"><a xlink:href="../../d8/d65/classapplication_1_1_view_handler.html#a8a00eb25a7f1d5e3ccc3059e8b717819" target="_top" xlink:title="application.ViewHandler.get\lTurtleOrientation">
<polygon fill="white" stroke="black" points="1004.5,-293.594 1004.5,-323.594 1153.5,-323.594 1153.5,-293.594 1004.5,-293.594"/>
<text text-anchor="start" x="1012.5" y="-311.594" font-family="Helvetica,sans-Serif" font-size="10.00">application.ViewHandler.get</text>
<text text-anchor="middle" x="1079" y="-300.594" font-family="Helvetica,sans-Serif" font-size="10.00">TurtleOrientation</text>
</a>
</g>
</g>
<!-- Node13&#45;&gt;Node15 -->
<g id="edge19" class="edge"><title>Node13&#45;&gt;Node15</title>
<path fill="none" stroke="midnightblue" d="M781.701,-310.666C793.838,-308.977 806.216,-307.529 818,-306.594 883.572,-301.393 900.225,-306.007 966,-306.594 975.069,-306.675 984.55,-306.793 993.992,-306.932"/>
<polygon fill="midnightblue" stroke="midnightblue" points="994.149,-310.435 1004.2,-307.09 994.257,-303.435 994.149,-310.435"/>
</g>
<!-- Node17 -->
<g id="node17" class="node"><title>Node17</title>
<g id="a_node17"><a xlink:href="../../d8/d65/classapplication_1_1_view_handler.html#a6f94dbee91670d4c9ae7164f61b8cd03" target="_top" xlink:title="application.ViewHandler.is\lVisible">
<polygon fill="white" stroke="black" points="822,-132.594 822,-162.594 962,-162.594 962,-132.594 822,-132.594"/>
<text text-anchor="start" x="830" y="-150.594" font-family="Helvetica,sans-Serif" font-size="10.00">application.ViewHandler.is</text>
<text text-anchor="middle" x="892" y="-139.594" font-family="Helvetica,sans-Serif" font-size="10.00">Visible</text>
</a>
</g>
</g>
<!-- Node13&#45;&gt;Node17 -->
<g id="edge21" class="edge"><title>Node13&#45;&gt;Node17</title>
<path fill="none" stroke="midnightblue" d="M715.37,-310.418C749.377,-278.891 827.784,-206.201 867.31,-169.557"/>
<polygon fill="midnightblue" stroke="midnightblue" points="869.718,-172.098 874.672,-162.732 864.959,-166.964 869.718,-172.098"/>
</g>
<!-- Node19 -->
<g id="node19" class="node"><title>Node19</title>
<g id="a_node19"><a xlink:href="../../df/dcc/classgui_1_1_turtle_view.html#adcff447c1d488ddfd13d151067e6db7a" target="_top" xlink:title="gui.TurtleView.rotateAnd\lMoveTurtle">
<polygon fill="white" stroke="black" points="826.5,-228.594 826.5,-258.594 957.5,-258.594 957.5,-228.594 826.5,-228.594"/>
<text text-anchor="start" x="834.5" y="-246.594" font-family="Helvetica,sans-Serif" font-size="10.00">gui.TurtleView.rotateAnd</text>
<text text-anchor="middle" x="892" y="-235.594" font-family="Helvetica,sans-Serif" font-size="10.00">MoveTurtle</text>
</a>
</g>
</g>
<!-- Node13&#45;&gt;Node19 -->
<g id="edge23" class="edge"><title>Node13&#45;&gt;Node19</title>
<path fill="none" stroke="midnightblue" d="M733.025,-310.489C756.777,-300.002 789.25,-285.782 818,-273.594 826.523,-269.981 835.632,-266.186 844.424,-262.556"/>
<polygon fill="midnightblue" stroke="midnightblue" points="845.882,-265.741 853.797,-258.698 843.218,-259.268 845.882,-265.741"/>
</g>
<!-- Node21 -->
<g id="node21" class="node"><title>Node21</title>
<g id="a_node21"><a xlink:href="../../d8/d65/classapplication_1_1_view_handler.html#a308dcaf9847965fa4a3d261347845f56" target="_top" xlink:title="application.ViewHandler.set\lInfoParamsOfTurtleAndLine">
<polygon fill="white" stroke="black" points="818,-316.594 818,-346.594 966,-346.594 966,-316.594 818,-316.594"/>
<text text-anchor="start" x="826" y="-334.594" font-family="Helvetica,sans-Serif" font-size="10.00">application.ViewHandler.set</text>
<text text-anchor="middle" x="892" y="-323.594" font-family="Helvetica,sans-Serif" font-size="10.00">InfoParamsOfTurtleAndLine</text>
</a>
</g>
</g>
<!-- Node13&#45;&gt;Node21 -->
<g id="edge26" class="edge"><title>Node13&#45;&gt;Node21</title>
<path fill="none" stroke="midnightblue" d="M781.54,-328.174C790.233,-328.445 799.076,-328.722 807.777,-328.994"/>
<polygon fill="midnightblue" stroke="midnightblue" points="807.804,-332.496 817.908,-329.31 808.022,-325.5 807.804,-332.496"/>
</g>
<!-- Node27 -->
<g id="node27" class="node"><title>Node27</title>
<g id="a_node27"><a xlink:href="../../df/dcc/classgui_1_1_turtle_view.html#afa73e516fcab92ab1c3a6941b6131cb5" target="_top" xlink:title="gui.TurtleView.showTurtle">
<polygon fill="white" stroke="black" points="825.5,-366.094 825.5,-385.094 958.5,-385.094 958.5,-366.094 825.5,-366.094"/>
<text text-anchor="middle" x="892" y="-373.094" font-family="Helvetica,sans-Serif" font-size="10.00">gui.TurtleView.showTurtle</text>
</a>
</g>
</g>
<!-- Node13&#45;&gt;Node27 -->
<g id="edge35" class="edge"><title>Node13&#45;&gt;Node27</title>
<path fill="none" stroke="midnightblue" d="M756.606,-340.596C784.717,-347.917 818.086,-356.606 844.541,-363.496"/>
<polygon fill="midnightblue" stroke="midnightblue" points="843.756,-366.908 854.316,-366.041 845.521,-360.134 843.756,-366.908"/>
</g>
<!-- Node14&#45;&gt;Node3 -->
<g id="edge18" class="edge"><title>Node14&#45;&gt;Node3</title>
<path fill="none" stroke="midnightblue" d="M1146.9,-460.614C1172.04,-466.256 1200.21,-472.581 1223.81,-477.879"/>
<polygon fill="midnightblue" stroke="midnightblue" points="1223.1,-481.307 1233.63,-480.082 1224.64,-474.477 1223.1,-481.307"/>
</g>
<!-- Node16 -->
<g id="node16" class="node"><title>Node16</title>
<g id="a_node16"><a xlink:href="../../d1/d31/classapplication_1_1_turtle.html#af22147e198fac9068726b95eea235739" target="_top" xlink:title="application.Turtle.getOrientation">
<polygon fill="white" stroke="black" points="1192.5,-299.094 1192.5,-318.094 1361.5,-318.094 1361.5,-299.094 1192.5,-299.094"/>
<text text-anchor="middle" x="1277" y="-306.094" font-family="Helvetica,sans-Serif" font-size="10.00">application.Turtle.getOrientation</text>
</a>
</g>
</g>
<!-- Node15&#45;&gt;Node16 -->
<g id="edge20" class="edge"><title>Node15&#45;&gt;Node16</title>
<path fill="none" stroke="midnightblue" d="M1153.54,-308.594C1162.97,-308.594 1172.73,-308.594 1182.43,-308.594"/>
<polygon fill="midnightblue" stroke="midnightblue" points="1182.5,-312.095 1192.5,-308.594 1182.5,-305.095 1182.5,-312.095"/>
</g>
<!-- Node18 -->
<g id="node18" class="node"><title>Node18</title>
<g id="a_node18"><a xlink:href="../../d1/d31/classapplication_1_1_turtle.html#a75e592fccb8420e254ba668429797898" target="_top" xlink:title="application.Turtle.getVisibility">
<polygon fill="white" stroke="black" points="1002,-129.094 1002,-148.094 1156,-148.094 1156,-129.094 1002,-129.094"/>
<text text-anchor="middle" x="1079" y="-136.094" font-family="Helvetica,sans-Serif" font-size="10.00">application.Turtle.getVisibility</text>
</a>
</g>
</g>
<!-- Node17&#45;&gt;Node18 -->
<g id="edge22" class="edge"><title>Node17&#45;&gt;Node18</title>
<path fill="none" stroke="midnightblue" d="M962.15,-144.23C971.748,-143.763 981.704,-143.279 991.568,-142.799"/>
<polygon fill="midnightblue" stroke="midnightblue" points="991.977,-146.284 1001.79,-142.302 991.637,-139.292 991.977,-146.284"/>
</g>
<!-- Node19&#45;&gt;Node9 -->
<g id="edge25" class="edge"><title>Node19&#45;&gt;Node9</title>
<path fill="none" stroke="midnightblue" d="M957.525,-243.675C1069.15,-242.856 1292.96,-236.718 1362,-201.594 1406.83,-178.787 1440.91,-127.91 1456.93,-100.294"/>
<polygon fill="midnightblue" stroke="midnightblue" points="1460.15,-101.7 1461.99,-91.2668 1454.05,-98.2732 1460.15,-101.7"/>
</g>
<!-- Node20 -->
<g id="node20" class="node"><title>Node20</title>
<g id="a_node20"><a xlink:href="../../df/dcc/classgui_1_1_turtle_view.html#ab9b87d12b06bce95f2b32ee05a89e7d6" target="_top" xlink:title="gui.TurtleView.rotate">
<polygon fill="white" stroke="black" points="1022.5,-255.094 1022.5,-274.094 1135.5,-274.094 1135.5,-255.094 1022.5,-255.094"/>
<text text-anchor="middle" x="1079" y="-262.094" font-family="Helvetica,sans-Serif" font-size="10.00">gui.TurtleView.rotate</text>
</a>
</g>
</g>
<!-- Node19&#45;&gt;Node20 -->
<g id="edge24" class="edge"><title>Node19&#45;&gt;Node20</title>
<path fill="none" stroke="midnightblue" d="M957.704,-250.939C975.299,-252.936 994.372,-255.102 1012.04,-257.107"/>
<polygon fill="midnightblue" stroke="midnightblue" points="1011.92,-260.616 1022.25,-258.266 1012.71,-253.661 1011.92,-260.616"/>
</g>
<!-- Node21&#45;&gt;Node11 -->
<g id="edge27" class="edge"><title>Node21&#45;&gt;Node11</title>
<path fill="none" stroke="midnightblue" d="M911.757,-316.488C944.722,-289.937 1013.14,-234.829 1051.13,-204.238"/>
<polygon fill="midnightblue" stroke="midnightblue" points="1053.6,-206.74 1059.19,-197.741 1049.21,-201.288 1053.6,-206.74"/>
</g>
<!-- Node21&#45;&gt;Node14 -->
<g id="edge28" class="edge"><title>Node21&#45;&gt;Node14</title>
<path fill="none" stroke="midnightblue" d="M950.584,-346.689C956.107,-349.465 961.367,-352.738 966,-356.594 991.083,-377.473 976.791,-399.868 1002,-420.594 1004.07,-422.293 1006.25,-423.877 1008.52,-425.354"/>
<polygon fill="midnightblue" stroke="midnightblue" points="1007.25,-428.656 1017.68,-430.541 1010.7,-422.566 1007.25,-428.656"/>
</g>
<!-- Node21&#45;&gt;Node15 -->
<g id="edge29" class="edge"><title>Node21&#45;&gt;Node15</title>
<path fill="none" stroke="midnightblue" d="M966.117,-322.504C975.314,-321.361 984.779,-320.184 994.125,-319.022"/>
<polygon fill="midnightblue" stroke="midnightblue" points="994.71,-322.476 1004.2,-317.769 993.846,-315.53 994.71,-322.476"/>
</g>
<!-- Node22 -->
<g id="node22" class="node"><title>Node22</title>
<g id="a_node22"><a xlink:href="../../df/dcb/classapplication_1_1_pen_handler.html#a518bb3076e4d9d105870b0778341a8c0" target="_top" xlink:title="application.PenHandler.set\lThicknessParameter">
<polygon fill="white" stroke="black" points="1007,-342.594 1007,-372.594 1151,-372.594 1151,-342.594 1007,-342.594"/>
<text text-anchor="start" x="1015" y="-360.594" font-family="Helvetica,sans-Serif" font-size="10.00">application.PenHandler.set</text>
<text text-anchor="middle" x="1079" y="-349.594" font-family="Helvetica,sans-Serif" font-size="10.00">ThicknessParameter</text>
</a>
</g>
</g>
<!-- Node21&#45;&gt;Node22 -->
<g id="edge30" class="edge"><title>Node21&#45;&gt;Node22</title>
<path fill="none" stroke="midnightblue" d="M966.117,-341.87C976.191,-343.286 986.587,-344.747 996.796,-346.182"/>
<polygon fill="midnightblue" stroke="midnightblue" points="996.535,-349.68 1006.92,-347.606 997.509,-342.748 996.535,-349.68"/>
</g>
<!-- Node26 -->
<g id="node26" class="node"><title>Node26</title>
<g id="a_node26"><a xlink:href="../../df/dcc/classgui_1_1_turtle_view.html#a978020a0f6ccbc4714b77c71435b0799" target="_top" xlink:title="gui.TurtleView.setTurtleInfo">
<polygon fill="white" stroke="black" points="1008.5,-392.094 1008.5,-411.094 1149.5,-411.094 1149.5,-392.094 1008.5,-392.094"/>
<text text-anchor="middle" x="1079" y="-399.094" font-family="Helvetica,sans-Serif" font-size="10.00">gui.TurtleView.setTurtleInfo</text>
</a>
</g>
</g>
<!-- Node21&#45;&gt;Node26 -->
<g id="edge34" class="edge"><title>Node21&#45;&gt;Node26</title>
<path fill="none" stroke="midnightblue" d="M943.238,-346.736C951.008,-349.664 958.828,-352.965 966,-356.594 983.381,-365.39 984.311,-373.436 1002,-381.594 1008.16,-384.436 1014.79,-386.927 1021.49,-389.099"/>
<polygon fill="midnightblue" stroke="midnightblue" points="1020.7,-392.517 1031.28,-392.054 1022.72,-385.815 1020.7,-392.517"/>
</g>
<!-- Node23 -->
<g id="node23" class="node"><title>Node23</title>
<g id="a_node23"><a xlink:href="../../df/dcb/classapplication_1_1_pen_handler.html#a307ff6736f97a1aa1706da924d7e642b" target="_top" xlink:title="application.PenHandler.get\lPenWeight">
<polygon fill="white" stroke="black" points="1204.5,-380.594 1204.5,-410.594 1349.5,-410.594 1349.5,-380.594 1204.5,-380.594"/>
<text text-anchor="start" x="1212.5" y="-398.594" font-family="Helvetica,sans-Serif" font-size="10.00">application.PenHandler.get</text>
<text text-anchor="middle" x="1277" y="-387.594" font-family="Helvetica,sans-Serif" font-size="10.00">PenWeight</text>
</a>
</g>
</g>
<!-- Node22&#45;&gt;Node23 -->
<g id="edge31" class="edge"><title>Node22&#45;&gt;Node23</title>
<path fill="none" stroke="midnightblue" d="M1151.04,-371.367C1165.1,-374.094 1179.97,-376.976 1194.35,-379.765"/>
<polygon fill="midnightblue" stroke="midnightblue" points="1193.73,-383.21 1204.22,-381.677 1195.07,-376.338 1193.73,-383.21"/>
</g>
<!-- Node25 -->
<g id="node25" class="node"><title>Node25</title>
<g id="a_node25"><a xlink:href="../../d8/ddb/classgui_1_1_line_view.html#ab32d4cf33024aea52dcb5d1092003d85" target="_top" xlink:title="gui.LineView.setThickness">
<polygon fill="white" stroke="black" points="1207.5,-342.094 1207.5,-361.094 1346.5,-361.094 1346.5,-342.094 1207.5,-342.094"/>
<text text-anchor="middle" x="1277" y="-349.094" font-family="Helvetica,sans-Serif" font-size="10.00">gui.LineView.setThickness</text>
</a>
</g>
</g>
<!-- Node22&#45;&gt;Node25 -->
<g id="edge33" class="edge"><title>Node22&#45;&gt;Node25</title>
<path fill="none" stroke="midnightblue" d="M1151.04,-355.42C1165.99,-354.962 1181.85,-354.476 1197.08,-354.01"/>
<polygon fill="midnightblue" stroke="midnightblue" points="1197.61,-357.496 1207.5,-353.692 1197.39,-350.499 1197.61,-357.496"/>
</g>
<!-- Node24 -->
<g id="node24" class="node"><title>Node24</title>
<g id="a_node24"><a xlink:href="../../de/d5a/classapplication_1_1_pen.html#aaaae5f55fadb97afef2ae286a6119a58" target="_top" xlink:title="application.Pen.getWeight">
<polygon fill="white" stroke="black" points="1398,-386.094 1398,-405.094 1538,-405.094 1538,-386.094 1398,-386.094"/>
<text text-anchor="middle" x="1468" y="-393.094" font-family="Helvetica,sans-Serif" font-size="10.00">application.Pen.getWeight</text>
</a>
</g>
</g>
<!-- Node23&#45;&gt;Node24 -->
<g id="edge32" class="edge"><title>Node23&#45;&gt;Node24</title>
<path fill="none" stroke="midnightblue" d="M1349.72,-395.594C1362.16,-395.594 1375.17,-395.594 1387.8,-395.594"/>
<polygon fill="midnightblue" stroke="midnightblue" points="1387.82,-399.095 1397.82,-395.594 1387.82,-392.095 1387.82,-399.095"/>
</g>
<!-- Node29&#45;&gt;Node3 -->
<g id="edge38" class="edge"><title>Node29&#45;&gt;Node3</title>
<path fill="none" stroke="midnightblue" d="M561.041,-460.62C578.106,-464.183 596.683,-467.542 614,-469.594 825.572,-494.671 1077.68,-493.924 1200.81,-491.599"/>
<polygon fill="midnightblue" stroke="midnightblue" points="1200.96,-495.097 1210.88,-491.4 1200.82,-488.098 1200.96,-495.097"/>
</g>
<!-- Node29&#45;&gt;Node28 -->
<g id="edge41" class="edge"><title>Node29&#45;&gt;Node28</title>
<path fill="none" stroke="midnightblue" d="M566.587,-430.575C591.975,-424.933 620.439,-418.608 644.281,-413.31"/>
<polygon fill="midnightblue" stroke="midnightblue" points="645.192,-416.693 654.194,-411.107 643.673,-409.86 645.192,-416.693"/>
</g>
<!-- Node30 -->
<g id="node30" class="node"><title>Node30</title>
<g id="a_node30"><a xlink:href="../../d8/d65/classapplication_1_1_view_handler.html#aba2ed11a44abfaf2d5684ab5a7bbb33f" target="_top" xlink:title="application.ViewHandler.get\lViewTurtleLocation">
<polygon fill="white" stroke="black" points="623.5,-430.594 623.5,-460.594 772.5,-460.594 772.5,-430.594 623.5,-430.594"/>
<text text-anchor="start" x="631.5" y="-448.594" font-family="Helvetica,sans-Serif" font-size="10.00">application.ViewHandler.get</text>
<text text-anchor="middle" x="698" y="-437.594" font-family="Helvetica,sans-Serif" font-size="10.00">ViewTurtleLocation</text>
</a>
</g>
</g>
<!-- Node29&#45;&gt;Node30 -->
<g id="edge39" class="edge"><title>Node29&#45;&gt;Node30</title>
<path fill="none" stroke="midnightblue" d="M572.165,-445.594C585.509,-445.594 599.525,-445.594 613.15,-445.594"/>
<polygon fill="midnightblue" stroke="midnightblue" points="613.474,-449.095 623.474,-445.594 613.474,-442.095 613.474,-449.095"/>
</g>
<!-- Node31 -->
<g id="node31" class="node"><title>Node31</title>
<g id="a_node31"><a xlink:href="../../d8/d8b/classgui_1_1_view.html#a805679dcb8753b21508755667f09fac9" target="_top" xlink:title="gui.View.getNewPoint">
<polygon fill="white" stroke="black" points="833,-442.094 833,-461.094 951,-461.094 951,-442.094 833,-442.094"/>
<text text-anchor="middle" x="892" y="-449.094" font-family="Helvetica,sans-Serif" font-size="10.00">gui.View.getNewPoint</text>
</a>
</g>
</g>
<!-- Node30&#45;&gt;Node31 -->
<g id="edge40" class="edge"><title>Node30&#45;&gt;Node31</title>
<path fill="none" stroke="midnightblue" d="M772.683,-447.897C788.992,-448.407 806.211,-448.945 822.311,-449.448"/>
<polygon fill="midnightblue" stroke="midnightblue" points="822.605,-452.959 832.71,-449.773 822.824,-445.962 822.605,-452.959"/>
</g>
<!-- Node33 -->
<g id="node33" class="node"><title>Node33</title>
<g id="a_node33"><a xlink:href="../../d8/ddb/classgui_1_1_line_view.html#ac128e8b07d38df234837089aa91b725c" target="_top" xlink:title="gui.LineView.clearScreen">
<polygon fill="white" stroke="black" points="431,-266.094 431,-285.094 565,-285.094 565,-266.094 431,-266.094"/>
<text text-anchor="middle" x="498" y="-273.094" font-family="Helvetica,sans-Serif" font-size="10.00">gui.LineView.clearScreen</text>
</a>
</g>
</g>
<!-- Node32&#45;&gt;Node33 -->
<g id="edge44" class="edge"><title>Node32&#45;&gt;Node33</title>
<path fill="none" stroke="midnightblue" d="M375.269,-299.572C396.331,-295.423 418.844,-290.989 438.709,-287.076"/>
<polygon fill="midnightblue" stroke="midnightblue" points="439.396,-290.508 448.531,-285.141 438.043,-283.64 439.396,-290.508"/>
</g>
</g>
</svg>
        <g id="navigator" transform="translate(0 0)" fill="#404254">
                <rect fill="#f2f5e9" fill-opacity="0.5" stroke="#606060" stroke-width=".5" x="0" y="0" width="60" height="60"/>
                <use id="zoomplus" xlink:href="#zoomPlus" x="17" y="9" onmousedown="handleZoom(evt,'in')"/>
                <use id="zoomminus" xlink:href="#zoomMin" x="42" y="9" onmousedown="handleZoom(evt,'out')"/>
                <use id="reset" xlink:href="#resetDef" x="30" y="36" onmousedown="handleReset()"/>
                <g id="arrowUp" xlink:href="#dirArrow" transform="translate(30 24)" onmousedown="handlePan(0,-1)">
                  <use xlink:href="#rim" fill="#404040">
                        <set attributeName="fill" to="#808080" begin="arrowUp.mouseover" end="arrowUp.mouseout"/>
                  </use>
                  <path fill="none" stroke="white" stroke-width="1.5" d="M0,-3.0v7 M-2.5,-0.5L0,-3.0L2.5,-0.5"/>
                </g>
                <g id="arrowRight" xlink:href="#dirArrow" transform="rotate(90) translate(36 -43)" onmousedown="handlePan(1,0)">
                  <use xlink:href="#rim" fill="#404040">
                        <set attributeName="fill" to="#808080" begin="arrowRight.mouseover" end="arrowRight.mouseout"/>
                  </use>
                  <path fill="none" stroke="white" stroke-width="1.5" d="M0,-3.0v7 M-2.5,-0.5L0,-3.0L2.5,-0.5"/>
                </g>
                <g id="arrowDown" xlink:href="#dirArrow" transform="rotate(180) translate(-30 -48)" onmousedown="handlePan(0,1)">
                  <use xlink:href="#rim" fill="#404040">
                        <set attributeName="fill" to="#808080" begin="arrowDown.mouseover" end="arrowDown.mouseout"/>
                  </use>
                  <path fill="none" stroke="white" stroke-width="1.5" d="M0,-3.0v7 M-2.5,-0.5L0,-3.0L2.5,-0.5"/>
                </g>
                <g id="arrowLeft" xlink:href="#dirArrow" transform="rotate(270) translate(-36 17)" onmousedown="handlePan(-1,0)">
                  <use xlink:href="#rim" fill="#404040">
                        <set attributeName="fill" to="#808080" begin="arrowLeft.mouseover" end="arrowLeft.mouseout"/>
                  </use>
                  <path fill="none" stroke="white" stroke-width="1.5" d="M0,-3.0v7 M-2.5,-0.5L0,-3.0L2.5,-0.5"/>
                </g>
        </g>
        <svg viewBox="0 0 15 15" width="100%" height="30px" preserveAspectRatio="xMaxYMin meet">
         <g id="arrow_out" transform="scale(0.3 0.3)">
          <a xlink:href="classcommands_1_1view_commands_1_1turtle_commands_1_1_clear_screen_ae547e4c170a1b6d41cdfc6c8bfe5e972_cgraph_org.svg" target="_base">
           <rect id="button" ry="5" rx="5" y="6" x="6" height="38" width="38"
                fill="#f2f5e9" fill-opacity="0.5" stroke="#606060" stroke-width="1.0"/>
           <path id="arrow"
             d="M 11.500037,31.436501 C 11.940474,20.09759 22.043105,11.32322 32.158766,21.979434 L 37.068811,17.246167 C 37.068811,17.246167 37.088388,32 37.088388,32 L 22.160133,31.978069 C 22.160133,31.978069 26.997745,27.140456 26.997745,27.140456 C 18.528582,18.264221 13.291696,25.230495 11.500037,31.436501 z"
             style="fill:#404040;"/>
          </a>
         </g>
        </svg>
</svg>
