<?xml version="1.0" encoding="UTF-8" standalone="no"?>
<!DOCTYPE svg PUBLIC "-//W3C//DTD SVG 1.1//EN"
 "http://www.w3.org/Graphics/SVG/1.1/DTD/svg11.dtd">
<!-- Generated by graphviz version 2.36.0 (20140111.2315)
 -->
<!-- Title: configuration.Parser Pages: 1 -->
<svg width="247pt" height="118pt"
 viewBox="0.00 0.00 247.00 118.00" xmlns="http://www.w3.org/2000/svg" xmlns:xlink="http://www.w3.org/1999/xlink">
<g id="graph0" class="graph" transform="scale(1 1) rotate(0) translate(4 114)">
<title>configuration.Parser</title>
<polygon fill="white" stroke="none" points="-4,4 -4,-114 243,-114 243,4 -4,4"/>
<!-- Node1 -->
<g id="node1" class="node"><title>Node1</title>
<polygon fill="#bfbfbf" stroke="black" points="64,-0.5 64,-19.5 176,-19.5 176,-0.5 64,-0.5"/>
<text text-anchor="middle" x="120" y="-7.5" font-family="Helvetica,sans-Serif" font-size="10.00">configuration.Parser</text>
</g>
<!-- Node2 -->
<g id="node2" class="node"><title>Node2</title>
<polygon fill="white" stroke="#bfbfbf" points="0,-79 0,-109 112,-109 112,-79 0,-79"/>
<text text-anchor="start" x="8" y="-97" font-family="Helvetica,sans-Serif" font-size="10.00">List&lt; Entry&lt; String,</text>
<text text-anchor="middle" x="56" y="-86" font-family="Helvetica,sans-Serif" font-size="10.00"> Pattern &gt; &gt;</text>
</g>
<!-- Node2&#45;&gt;Node1 -->
<g id="edge1" class="edge"><title>Node2&#45;&gt;Node1</title>
<path fill="none" stroke="#9a32cd" stroke-dasharray="5,2" d="M73.5816,-70.4735C86.721,-53.6387 103.961,-31.5501 113.294,-19.5915"/>
<polygon fill="#9a32cd" stroke="#9a32cd" points="70.5416,-68.6801 67.1479,-78.7167 76.0598,-72.987 70.5416,-68.6801"/>
<text text-anchor="middle" x="120" y="-46.5" font-family="Helvetica,sans-Serif" font-size="10.00"> patterns</text>
</g>
<!-- Node3 -->
<g id="node3" class="node"><title>Node3</title>
<polygon fill="white" stroke="#bfbfbf" points="130.5,-84.5 130.5,-103.5 239.5,-103.5 239.5,-84.5 130.5,-84.5"/>
<text text-anchor="middle" x="185" y="-91.5" font-family="Helvetica,sans-Serif" font-size="10.00">HashSet&lt; String &gt;</text>
</g>
<!-- Node3&#45;&gt;Node1 -->
<g id="edge2" class="edge"><title>Node3&#45;&gt;Node1</title>
<path fill="none" stroke="#9a32cd" stroke-dasharray="5,2" d="M173.749,-75.7561C166.278,-64.6649 156.033,-50.1145 146,-38 140.687,-31.5847 134.187,-24.8347 129.015,-19.6885"/>
<polygon fill="#9a32cd" stroke="#9a32cd" points="170.861,-77.7331 179.306,-84.1298 176.693,-73.8623 170.861,-77.7331"/>
<text text-anchor="middle" x="194" y="-52" font-family="Helvetica,sans-Serif" font-size="10.00"> oneParComs</text>
<text text-anchor="middle" x="194" y="-41" font-family="Helvetica,sans-Serif" font-size="10.00">twoParComs</text>
</g>
</g>
</svg>
