<?xml version="1.0" encoding="UTF-8" standalone="no"?>
<!DOCTYPE svg PUBLIC "-//W3C//DTD SVG 1.1//EN"
 "http://www.w3.org/Graphics/SVG/1.1/DTD/svg11.dtd">
<!-- Generated by graphviz version 2.36.0 (20140111.2315)
 -->
<!-- Title: commands.arithmeticCommands.Compare Pages: 1 -->
<!--zoomable 291 -->
<svg id="main" version="1.1" xmlns="http://www.w3.org/2000/svg" xmlns:xlink="http://www.w3.org/1999/xlink" xml:space="preserve" onload="init(evt)">
<style type="text/css"><![CDATA[
.edge:hover path { stroke: red; }
.edge:hover polygon { stroke: red; fill: red; }
]]></style>
<script type="text/javascript"><![CDATA[
var edges = document.getElementsByTagName('g');
if (edges && edges.length) {
  for (var i=0;i<edges.length;i++) {
    if (edges[i].id.substr(0,4)=='edge') {
      edges[i].setAttribute('class','edge');
    }
  }
}
]]></script>
        <defs>
                <circle id="rim" cx="0" cy="0" r="7"/>
                <circle id="rim2" cx="0" cy="0" r="3.5"/>
                <g id="zoomPlus">
                        <use xlink:href="#rim" fill="#404040">
                                <set attributeName="fill" to="#808080" begin="zoomplus.mouseover" end="zoomplus.mouseout"/>
                        </use>
                        <path d="M-4,0h8M0,-4v8" fill="none" stroke="white" stroke-width="1.5" pointer-events="none"/>
                </g>
                <g id="zoomMin">
                        <use xlink:href="#rim" fill="#404040">
                                <set attributeName="fill" to="#808080" begin="zoomminus.mouseover" end="zoomminus.mouseout"/>
                        </use>
                        <path d="M-4,0h8" fill="none" stroke="white" stroke-width="1.5" pointer-events="none"/>
                </g>
                <g id="dirArrow">
                        <path fill="none" stroke="white" stroke-width="1.5" d="M0,-3.0v7 M-2.5,-0.5L0,-3.0L2.5,-0.5"/>
                </g>
               <g id="resetDef">
                       <use xlink:href="#rim2" fill="#404040">
                               <set attributeName="fill" to="#808080" begin="reset.mouseover" end="reset.mouseout"/>
                       </use>
               </g>
        </defs>

<script type="text/javascript">
var viewWidth = 836;
var viewHeight = 291;
var sectionId = 'dynsection-0';
</script>
<script xlink:href="../../svgpan.js"/>
<svg id="graph" class="graph">
<g id="viewport">
<title>commands.arithmeticCommands.Compare</title>
<polygon fill="white" stroke="none" points="-4,4 -4,-287 832,-287 832,4 -4,4"/>
<!-- Node1 -->
<g id="node1" class="node"><title>Node1</title>
<polygon fill="#bfbfbf" stroke="black" points="406.5,-121 406.5,-151 587.5,-151 587.5,-121 406.5,-121"/>
<text text-anchor="start" x="414.5" y="-139" font-family="Helvetica,sans-Serif" font-size="10.00">commands.arithmeticCommands.</text>
<text text-anchor="middle" x="497" y="-128" font-family="Helvetica,sans-Serif" font-size="10.00">Compare</text>
</g>
<!-- Node4 -->
<g id="node4" class="node"><title>Node4</title>
<g id="a_node4"><a xlink:href="../../d7/d17/classcommands_1_1arithmetic_commands_1_1_and.html" target="_top" xlink:title="commands.arithmeticCommands.And">
<polygon fill="white" stroke="black" points="626,-263.5 626,-282.5 826,-282.5 826,-263.5 626,-263.5"/>
<text text-anchor="middle" x="726" y="-270.5" font-family="Helvetica,sans-Serif" font-size="10.00">commands.arithmeticCommands.And</text>
</a>
</g>
</g>
<!-- Node1&#45;&gt;Node4 -->
<g id="edge3" class="edge"><title>Node1&#45;&gt;Node4</title>
<path fill="none" stroke="midnightblue" d="M516.011,-159.183C538.322,-186.18 578.941,-230.002 624,-253 632.597,-257.388 642.062,-260.815 651.645,-263.491"/>
<polygon fill="midnightblue" stroke="midnightblue" points="518.707,-156.95 509.69,-151.386 513.269,-161.359 518.707,-156.95"/>
</g>
<!-- Node5 -->
<g id="node5" class="node"><title>Node5</title>
<g id="a_node5"><a xlink:href="../../d3/d13/classcommands_1_1arithmetic_commands_1_1_equal.html" target="_top" xlink:title="commands.arithmeticCommands.\lEqual">
<polygon fill="white" stroke="black" points="635.5,-214 635.5,-244 816.5,-244 816.5,-214 635.5,-214"/>
<text text-anchor="start" x="643.5" y="-232" font-family="Helvetica,sans-Serif" font-size="10.00">commands.arithmeticCommands.</text>
<text text-anchor="middle" x="726" y="-221" font-family="Helvetica,sans-Serif" font-size="10.00">Equal</text>
</a>
</g>
</g>
<!-- Node1&#45;&gt;Node5 -->
<g id="edge4" class="edge"><title>Node1&#45;&gt;Node5</title>
<path fill="none" stroke="midnightblue" d="M530.393,-156.439C555.22,-171.363 590.753,-191.152 624,-204 633.688,-207.744 644.12,-211.067 654.472,-213.97"/>
<polygon fill="midnightblue" stroke="midnightblue" points="532.117,-153.391 521.754,-151.183 528.478,-159.371 532.117,-153.391"/>
</g>
<!-- Node6 -->
<g id="node6" class="node"><title>Node6</title>
<g id="a_node6"><a xlink:href="../../dd/d4a/classcommands_1_1arithmetic_commands_1_1_greater.html" target="_top" xlink:title="commands.arithmeticCommands.\lGreater">
<polygon fill="white" stroke="black" points="635.5,-165 635.5,-195 816.5,-195 816.5,-165 635.5,-165"/>
<text text-anchor="start" x="643.5" y="-183" font-family="Helvetica,sans-Serif" font-size="10.00">commands.arithmeticCommands.</text>
<text text-anchor="middle" x="726" y="-172" font-family="Helvetica,sans-Serif" font-size="10.00">Greater</text>
</a>
</g>
</g>
<!-- Node1&#45;&gt;Node6 -->
<g id="edge5" class="edge"><title>Node1&#45;&gt;Node6</title>
<path fill="none" stroke="midnightblue" d="M585.414,-152.944C605.859,-156.907 627.498,-161.101 647.478,-164.974"/>
<polygon fill="midnightblue" stroke="midnightblue" points="585.969,-149.486 575.486,-151.019 584.637,-156.358 585.969,-149.486"/>
</g>
<!-- Node7 -->
<g id="node7" class="node"><title>Node7</title>
<g id="a_node7"><a xlink:href="../../dd/d4a/classcommands_1_1arithmetic_commands_1_1_less.html" target="_top" xlink:title="commands.arithmeticCommands.Less">
<polygon fill="white" stroke="black" points="624.5,-126.5 624.5,-145.5 827.5,-145.5 827.5,-126.5 624.5,-126.5"/>
<text text-anchor="middle" x="726" y="-133.5" font-family="Helvetica,sans-Serif" font-size="10.00">commands.arithmeticCommands.Less</text>
</a>
</g>
</g>
<!-- Node1&#45;&gt;Node7 -->
<g id="edge6" class="edge"><title>Node1&#45;&gt;Node7</title>
<path fill="none" stroke="midnightblue" d="M597.935,-136C606.693,-136 615.56,-136 624.324,-136"/>
<polygon fill="midnightblue" stroke="midnightblue" points="597.716,-132.5 587.716,-136 597.716,-139.5 597.716,-132.5"/>
</g>
<!-- Node8 -->
<g id="node8" class="node"><title>Node8</title>
<g id="a_node8"><a xlink:href="../../d8/d8f/classcommands_1_1arithmetic_commands_1_1_not.html" target="_top" xlink:title="commands.arithmeticCommands.Not">
<polygon fill="white" stroke="black" points="627,-88.5 627,-107.5 825,-107.5 825,-88.5 627,-88.5"/>
<text text-anchor="middle" x="726" y="-95.5" font-family="Helvetica,sans-Serif" font-size="10.00">commands.arithmeticCommands.Not</text>
</a>
</g>
</g>
<!-- Node1&#45;&gt;Node8 -->
<g id="edge7" class="edge"><title>Node1&#45;&gt;Node8</title>
<path fill="none" stroke="midnightblue" d="M597.648,-119.319C621.821,-115.272 646.844,-111.083 668.244,-107.501"/>
<polygon fill="midnightblue" stroke="midnightblue" points="597.001,-115.878 587.716,-120.981 598.157,-122.782 597.001,-115.878"/>
</g>
<!-- Node9 -->
<g id="node9" class="node"><title>Node9</title>
<g id="a_node9"><a xlink:href="../../da/de7/classcommands_1_1arithmetic_commands_1_1_not_eq.html" target="_top" xlink:title="commands.arithmeticCommands.\lNotEq">
<polygon fill="white" stroke="black" points="635.5,-39 635.5,-69 816.5,-69 816.5,-39 635.5,-39"/>
<text text-anchor="start" x="643.5" y="-57" font-family="Helvetica,sans-Serif" font-size="10.00">commands.arithmeticCommands.</text>
<text text-anchor="middle" x="726" y="-46" font-family="Helvetica,sans-Serif" font-size="10.00">NotEq</text>
</a>
</g>
</g>
<!-- Node1&#45;&gt;Node9 -->
<g id="edge8" class="edge"><title>Node1&#45;&gt;Node9</title>
<path fill="none" stroke="midnightblue" d="M536.166,-116.535C560.776,-104.538 593.727,-89.4958 624,-79 634.496,-75.3608 645.778,-72.0274 656.863,-69.0627"/>
<polygon fill="midnightblue" stroke="midnightblue" points="534.59,-113.41 527.165,-120.968 537.683,-119.69 534.59,-113.41"/>
</g>
<!-- Node10 -->
<g id="node10" class="node"><title>Node10</title>
<g id="a_node10"><a xlink:href="../../d6/d5a/classcommands_1_1arithmetic_commands_1_1_or.html" target="_top" xlink:title="commands.arithmeticCommands.Or">
<polygon fill="white" stroke="black" points="630,-0.5 630,-19.5 822,-19.5 822,-0.5 630,-0.5"/>
<text text-anchor="middle" x="726" y="-7.5" font-family="Helvetica,sans-Serif" font-size="10.00">commands.arithmeticCommands.Or</text>
</a>
</g>
</g>
<!-- Node1&#45;&gt;Node10 -->
<g id="edge9" class="edge"><title>Node1&#45;&gt;Node10</title>
<path fill="none" stroke="midnightblue" d="M517.813,-113.242C540.771,-88.4235 580.992,-49.5101 624,-29 632.213,-25.0831 641.163,-21.9728 650.229,-19.5031"/>
<polygon fill="midnightblue" stroke="midnightblue" points="515.114,-111.007 510.983,-120.763 520.297,-115.712 515.114,-111.007"/>
</g>
<!-- Node2 -->
<g id="node2" class="node"><title>Node2</title>
<g id="a_node2"><a xlink:href="../../dc/d3e/classcommands_1_1_command_center.html" target="_top" xlink:title="commands.CommandCenter">
<polygon fill="white" stroke="black" points="214,-126.5 214,-145.5 370,-145.5 370,-126.5 214,-126.5"/>
<text text-anchor="middle" x="292" y="-133.5" font-family="Helvetica,sans-Serif" font-size="10.00">commands.CommandCenter</text>
</a>
</g>
</g>
<!-- Node2&#45;&gt;Node1 -->
<g id="edge1" class="edge"><title>Node2&#45;&gt;Node1</title>
<path fill="none" stroke="midnightblue" d="M380.164,-136C388.862,-136 397.703,-136 406.425,-136"/>
<polygon fill="midnightblue" stroke="midnightblue" points="380.035,-132.5 370.035,-136 380.035,-139.5 380.035,-132.5"/>
</g>
<!-- Node3 -->
<g id="node3" class="node"><title>Node3</title>
<g id="a_node3"><a xlink:href="../../d1/d4d/interfacecommands_1_1view_commands_1_1turtle_commands_1_1_executable.html" target="_top" xlink:title="commands.viewCommands.turtle\lCommands.Executable">
<polygon fill="white" stroke="black" points="0,-121 0,-151 178,-151 178,-121 0,-121"/>
<text text-anchor="start" x="8" y="-139" font-family="Helvetica,sans-Serif" font-size="10.00">commands.viewCommands.turtle</text>
<text text-anchor="middle" x="89" y="-128" font-family="Helvetica,sans-Serif" font-size="10.00">Commands.Executable</text>
</a>
</g>
</g>
<!-- Node3&#45;&gt;Node2 -->
<g id="edge2" class="edge"><title>Node3&#45;&gt;Node2</title>
<path fill="none" stroke="midnightblue" d="M188.259,-136C196.882,-136 205.527,-136 213.94,-136"/>
<polygon fill="midnightblue" stroke="midnightblue" points="188.162,-132.5 178.162,-136 188.161,-139.5 188.162,-132.5"/>
</g>
</g>
</svg>
        <g id="navigator" transform="translate(0 0)" fill="#404254">
                <rect fill="#f2f5e9" fill-opacity="0.5" stroke="#606060" stroke-width=".5" x="0" y="0" width="60" height="60"/>
                <use id="zoomplus" xlink:href="#zoomPlus" x="17" y="9" onmousedown="handleZoom(evt,'in')"/>
                <use id="zoomminus" xlink:href="#zoomMin" x="42" y="9" onmousedown="handleZoom(evt,'out')"/>
                <use id="reset" xlink:href="#resetDef" x="30" y="36" onmousedown="handleReset()"/>
                <g id="arrowUp" xlink:href="#dirArrow" transform="translate(30 24)" onmousedown="handlePan(0,-1)">
                  <use xlink:href="#rim" fill="#404040">
                        <set attributeName="fill" to="#808080" begin="arrowUp.mouseover" end="arrowUp.mouseout"/>
                  </use>
                  <path fill="none" stroke="white" stroke-width="1.5" d="M0,-3.0v7 M-2.5,-0.5L0,-3.0L2.5,-0.5"/>
                </g>
                <g id="arrowRight" xlink:href="#dirArrow" transform="rotate(90) translate(36 -43)" onmousedown="handlePan(1,0)">
                  <use xlink:href="#rim" fill="#404040">
                        <set attributeName="fill" to="#808080" begin="arrowRight.mouseover" end="arrowRight.mouseout"/>
                  </use>
                  <path fill="none" stroke="white" stroke-width="1.5" d="M0,-3.0v7 M-2.5,-0.5L0,-3.0L2.5,-0.5"/>
                </g>
                <g id="arrowDown" xlink:href="#dirArrow" transform="rotate(180) translate(-30 -48)" onmousedown="handlePan(0,1)">
                  <use xlink:href="#rim" fill="#404040">
                        <set attributeName="fill" to="#808080" begin="arrowDown.mouseover" end="arrowDown.mouseout"/>
                  </use>
                  <path fill="none" stroke="white" stroke-width="1.5" d="M0,-3.0v7 M-2.5,-0.5L0,-3.0L2.5,-0.5"/>
                </g>
                <g id="arrowLeft" xlink:href="#dirArrow" transform="rotate(270) translate(-36 17)" onmousedown="handlePan(-1,0)">
                  <use xlink:href="#rim" fill="#404040">
                        <set attributeName="fill" to="#808080" begin="arrowLeft.mouseover" end="arrowLeft.mouseout"/>
                  </use>
                  <path fill="none" stroke="white" stroke-width="1.5" d="M0,-3.0v7 M-2.5,-0.5L0,-3.0L2.5,-0.5"/>
                </g>
        </g>
        <svg viewBox="0 0 15 15" width="100%" height="30px" preserveAspectRatio="xMaxYMin meet">
         <g id="arrow_out" transform="scale(0.3 0.3)">
          <a xlink:href="classcommands_1_1arithmetic_commands_1_1_compare__inherit__graph_org.svg" target="_base">
           <rect id="button" ry="5" rx="5" y="6" x="6" height="38" width="38"
                fill="#f2f5e9" fill-opacity="0.5" stroke="#606060" stroke-width="1.0"/>
           <path id="arrow"
             d="M 11.500037,31.436501 C 11.940474,20.09759 22.043105,11.32322 32.158766,21.979434 L 37.068811,17.246167 C 37.068811,17.246167 37.088388,32 37.088388,32 L 22.160133,31.978069 C 22.160133,31.978069 26.997745,27.140456 26.997745,27.140456 C 18.528582,18.264221 13.291696,25.230495 11.500037,31.436501 z"
             style="fill:#404040;"/>
          </a>
         </g>
        </svg>
</svg>
