<?xml version="1.0" encoding="UTF-8" standalone="no"?>
<!DOCTYPE svg PUBLIC "-//W3C//DTD SVG 1.1//EN"
 "http://www.w3.org/Graphics/SVG/1.1/DTD/svg11.dtd">
<!-- Generated by graphviz version 2.36.0 (20140111.2315)
 -->
<!-- Title: application.ViewHandler2.setTurtleLocAndMove Pages: 1 -->
<!--zoomable 428 -->
<svg id="main" version="1.1" xmlns="http://www.w3.org/2000/svg" xmlns:xlink="http://www.w3.org/1999/xlink" xml:space="preserve" onload="init(evt)">
<style type="text/css"><![CDATA[
.edge:hover path { stroke: red; }
.edge:hover polygon { stroke: red; fill: red; }
]]></style>
<script type="text/javascript"><![CDATA[
var edges = document.getElementsByTagName('g');
if (edges && edges.length) {
  for (var i=0;i<edges.length;i++) {
    if (edges[i].id.substr(0,4)=='edge') {
      edges[i].setAttribute('class','edge');
    }
  }
}
]]></script>
        <defs>
                <circle id="rim" cx="0" cy="0" r="7"/>
                <circle id="rim2" cx="0" cy="0" r="3.5"/>
                <g id="zoomPlus">
                        <use xlink:href="#rim" fill="#404040">
                                <set attributeName="fill" to="#808080" begin="zoomplus.mouseover" end="zoomplus.mouseout"/>
                        </use>
                        <path d="M-4,0h8M0,-4v8" fill="none" stroke="white" stroke-width="1.5" pointer-events="none"/>
                </g>
                <g id="zoomMin">
                        <use xlink:href="#rim" fill="#404040">
                                <set attributeName="fill" to="#808080" begin="zoomminus.mouseover" end="zoomminus.mouseout"/>
                        </use>
                        <path d="M-4,0h8" fill="none" stroke="white" stroke-width="1.5" pointer-events="none"/>
                </g>
                <g id="dirArrow">
                        <path fill="none" stroke="white" stroke-width="1.5" d="M0,-3.0v7 M-2.5,-0.5L0,-3.0L2.5,-0.5"/>
                </g>
               <g id="resetDef">
                       <use xlink:href="#rim2" fill="#404040">
                               <set attributeName="fill" to="#808080" begin="reset.mouseover" end="reset.mouseout"/>
                       </use>
               </g>
        </defs>

<script type="text/javascript">
var viewWidth = 1344;
var viewHeight = 428;
var sectionId = 'dynsection-18';
</script>
<script xlink:href="../../svgpan.js"/>
<svg id="graph" class="graph">
<g id="viewport">
<title>application.ViewHandler2.setTurtleLocAndMove</title>
<polygon fill="white" stroke="none" points="-4,4 -4,-423.919 1340,-423.919 1340,4 -4,4"/>
<!-- Node1 -->
<g id="node1" class="node"><title>Node1</title>
<polygon fill="#bfbfbf" stroke="black" points="0.5,-121.282 0.5,-151.282 155.5,-151.282 155.5,-121.282 0.5,-121.282"/>
<text text-anchor="start" x="8.5" y="-139.282" font-family="Helvetica,sans-Serif" font-size="10.00">application.ViewHandler2.set</text>
<text text-anchor="middle" x="78" y="-128.282" font-family="Helvetica,sans-Serif" font-size="10.00">TurtleLocAndMove</text>
</g>
<!-- Node2 -->
<g id="node2" class="node"><title>Node2</title>
<g id="a_node2"><a xlink:href="../../d3/de0/classapplication_1_1_view_handler2.html#ab87b30f73cb5e726f4fcc6b6f60f8007" target="_top" xlink:title="application.ViewHandler2.move\lTurtleImageAndDraw">
<polygon fill="white" stroke="black" points="192.5,-192.282 192.5,-222.282 359.5,-222.282 359.5,-192.282 192.5,-192.282"/>
<text text-anchor="start" x="200.5" y="-210.282" font-family="Helvetica,sans-Serif" font-size="10.00">application.ViewHandler2.move</text>
<text text-anchor="middle" x="276" y="-199.282" font-family="Helvetica,sans-Serif" font-size="10.00">TurtleImageAndDraw</text>
</a>
</g>
</g>
<!-- Node1&#45;&gt;Node2 -->
<g id="edge1" class="edge"><title>Node1&#45;&gt;Node2</title>
<path fill="none" stroke="midnightblue" d="M120.567,-151.34C150.71,-162.259 191.659,-177.093 223.817,-188.742"/>
<polygon fill="midnightblue" stroke="midnightblue" points="222.899,-192.132 233.493,-192.247 225.283,-185.55 222.899,-192.132"/>
</g>
<!-- Node11 -->
<g id="node11" class="node"><title>Node11</title>
<g id="a_node11"><a xlink:href="../../d3/de0/classapplication_1_1_view_handler2.html#adef8a4ac6b5b11687e8ecb1c05253287" target="_top" xlink:title="application.ViewHandler2.update\lTurtleOnView">
<polygon fill="white" stroke="black" points="396.5,-140.282 396.5,-170.282 569.5,-170.282 569.5,-140.282 396.5,-140.282"/>
<text text-anchor="start" x="404.5" y="-158.282" font-family="Helvetica,sans-Serif" font-size="10.00">application.ViewHandler2.update</text>
<text text-anchor="middle" x="483" y="-147.282" font-family="Helvetica,sans-Serif" font-size="10.00">TurtleOnView</text>
</a>
</g>
</g>
<!-- Node1&#45;&gt;Node11 -->
<g id="edge37" class="edge"><title>Node1&#45;&gt;Node11</title>
<path fill="none" stroke="midnightblue" d="M155.75,-139.901C221.268,-142.99 315.796,-147.446 386.252,-150.768"/>
<polygon fill="midnightblue" stroke="midnightblue" points="386.313,-154.275 396.467,-151.25 386.643,-147.283 386.313,-154.275"/>
</g>
<!-- Node26 -->
<g id="node26" class="node"><title>Node26</title>
<g id="a_node26"><a xlink:href="../../d1/d31/classapplication_1_1_turtle.html#a1055014d20f219b829679d8d4f3e0d97" target="_top" xlink:title="application.Turtle.setLocation">
<polygon fill="white" stroke="black" points="405.5,-101.782 405.5,-120.782 560.5,-120.782 560.5,-101.782 405.5,-101.782"/>
<text text-anchor="middle" x="483" y="-108.782" font-family="Helvetica,sans-Serif" font-size="10.00">application.Turtle.setLocation</text>
</a>
</g>
</g>
<!-- Node1&#45;&gt;Node26 -->
<g id="edge33" class="edge"><title>Node1&#45;&gt;Node26</title>
<path fill="none" stroke="midnightblue" d="M155.75,-131.521C223.989,-127.288 323.697,-121.103 394.902,-116.685"/>
<polygon fill="midnightblue" stroke="midnightblue" points="395.429,-120.159 405.194,-116.047 394.996,-113.173 395.429,-120.159"/>
</g>
<!-- Node27 -->
<g id="node27" class="node"><title>Node27</title>
<g id="a_node27"><a xlink:href="../../d3/de0/classapplication_1_1_view_handler2.html#a9da8cb8cc13f59f36a421200fde84e3c" target="_top" xlink:title="application.ViewHandler2.set\lTurtleLocToViewTurtleLoc">
<polygon fill="white" stroke="black" points="198.5,-58.2823 198.5,-88.2823 353.5,-88.2823 353.5,-58.2823 198.5,-58.2823"/>
<text text-anchor="start" x="206.5" y="-76.2823" font-family="Helvetica,sans-Serif" font-size="10.00">application.ViewHandler2.set</text>
<text text-anchor="middle" x="276" y="-65.2823" font-family="Helvetica,sans-Serif" font-size="10.00">TurtleLocToViewTurtleLoc</text>
</a>
</g>
</g>
<!-- Node1&#45;&gt;Node27 -->
<g id="edge34" class="edge"><title>Node1&#45;&gt;Node27</title>
<path fill="none" stroke="midnightblue" d="M125.947,-121.192C153.725,-112.264 189.094,-100.895 218.408,-91.4726"/>
<polygon fill="midnightblue" stroke="midnightblue" points="219.648,-94.7505 228.097,-88.3583 217.506,-88.0863 219.648,-94.7505"/>
</g>
<!-- Node3 -->
<g id="node3" class="node"><title>Node3</title>
<g id="a_node3"><a xlink:href="../../d8/ddb/classgui_1_1_line_view.html#abe4c6727ecf95f07a0a7a68e4e7dcb40" target="_top" xlink:title="gui.LineView.drawLine">
<polygon fill="white" stroke="black" points="423.5,-349.782 423.5,-368.782 542.5,-368.782 542.5,-349.782 423.5,-349.782"/>
<text text-anchor="middle" x="483" y="-356.782" font-family="Helvetica,sans-Serif" font-size="10.00">gui.LineView.drawLine</text>
</a>
</g>
</g>
<!-- Node2&#45;&gt;Node3 -->
<g id="edge2" class="edge"><title>Node2&#45;&gt;Node3</title>
<path fill="none" stroke="midnightblue" d="M297.406,-222.412C336.479,-251.384 421.486,-314.413 461.011,-343.72"/>
<polygon fill="midnightblue" stroke="midnightblue" points="459.042,-346.617 469.159,-349.761 463.211,-340.994 459.042,-346.617"/>
</g>
<!-- Node9 -->
<g id="node9" class="node"><title>Node9</title>
<g id="a_node9"><a xlink:href="../../df/dcb/classapplication_1_1_pen_handler.html#a8477a9a258753bb5538ad83a015fb731" target="_top" xlink:title="application.PenHandler.get\lPenStatus">
<polygon fill="white" stroke="black" points="803.5,-186.282 803.5,-216.282 948.5,-216.282 948.5,-186.282 803.5,-186.282"/>
<text text-anchor="start" x="811.5" y="-204.282" font-family="Helvetica,sans-Serif" font-size="10.00">application.PenHandler.get</text>
<text text-anchor="middle" x="876" y="-193.282" font-family="Helvetica,sans-Serif" font-size="10.00">PenStatus</text>
</a>
</g>
</g>
<!-- Node2&#45;&gt;Node9 -->
<g id="edge12" class="edge"><title>Node2&#45;&gt;Node9</title>
<path fill="none" stroke="midnightblue" d="M359.82,-207.283C456.377,-207.164 620.768,-206.594 762,-204.282 772.112,-204.117 782.731,-203.896 793.244,-203.65"/>
<polygon fill="midnightblue" stroke="midnightblue" points="793.359,-207.148 803.271,-203.406 793.189,-200.15 793.359,-207.148"/>
</g>
<!-- Node2&#45;&gt;Node11 -->
<g id="edge14" class="edge"><title>Node2&#45;&gt;Node11</title>
<path fill="none" stroke="midnightblue" d="M336.294,-192.242C360.305,-186.151 388.187,-179.079 413.094,-172.761"/>
<polygon fill="midnightblue" stroke="midnightblue" points="414.006,-176.14 422.839,-170.289 412.285,-169.355 414.006,-176.14"/>
</g>
<!-- Node4 -->
<g id="node4" class="node"><title>Node4</title>
<g id="a_node4"><a xlink:href="../../d8/ddb/classgui_1_1_line_view.html#aac6f01646ce73691c335b27ecd385dea" target="_top" xlink:title="gui.LineView.findBoundary\lPoint">
<polygon fill="white" stroke="black" points="614,-344.282 614,-374.282 754,-374.282 754,-344.282 614,-344.282"/>
<text text-anchor="start" x="622" y="-362.282" font-family="Helvetica,sans-Serif" font-size="10.00">gui.LineView.findBoundary</text>
<text text-anchor="middle" x="684" y="-351.282" font-family="Helvetica,sans-Serif" font-size="10.00">Point</text>
</a>
</g>
</g>
<!-- Node3&#45;&gt;Node4 -->
<g id="edge3" class="edge"><title>Node3&#45;&gt;Node4</title>
<path fill="none" stroke="midnightblue" d="M542.63,-359.282C561.756,-359.282 583.319,-359.282 603.702,-359.282"/>
<polygon fill="midnightblue" stroke="midnightblue" points="603.914,-362.782 613.914,-359.282 603.914,-355.782 603.914,-362.782"/>
</g>
<!-- Node7 -->
<g id="node7" class="node"><title>Node7</title>
<g id="a_node7"><a xlink:href="../../d8/d8b/classgui_1_1_view.html#a9df94efe60af56c89531c45f0f3f9624" target="_top" xlink:title="gui.View.setNewPoint">
<polygon fill="white" stroke="black" points="1207.5,-349.782 1207.5,-368.782 1324.5,-368.782 1324.5,-349.782 1207.5,-349.782"/>
<text text-anchor="middle" x="1266" y="-356.782" font-family="Helvetica,sans-Serif" font-size="10.00">gui.View.setNewPoint</text>
</a>
</g>
</g>
<!-- Node3&#45;&gt;Node7 -->
<g id="edge11" class="edge"><title>Node3&#45;&gt;Node7</title>
<path fill="none" stroke="midnightblue" d="M525.282,-368.81C548.811,-373.886 578.918,-379.788 606,-383.282 850.276,-414.803 917.402,-439.831 1160,-397.282 1186.54,-392.628 1215.21,-381.826 1235.88,-372.924"/>
<polygon fill="midnightblue" stroke="midnightblue" points="1237.32,-376.113 1245.05,-368.87 1234.49,-369.71 1237.32,-376.113"/>
</g>
<!-- Node5 -->
<g id="node5" class="node"><title>Node5</title>
<g id="a_node5"><a xlink:href="../../d8/ddb/classgui_1_1_line_view.html#a29757337f55037a9e48da9098eca8a09" target="_top" xlink:title="gui.LineView.findCorner">
<polygon fill="white" stroke="black" points="812.5,-349.782 812.5,-368.782 939.5,-368.782 939.5,-349.782 812.5,-349.782"/>
<text text-anchor="middle" x="876" y="-356.782" font-family="Helvetica,sans-Serif" font-size="10.00">gui.LineView.findCorner</text>
</a>
</g>
</g>
<!-- Node4&#45;&gt;Node5 -->
<g id="edge4" class="edge"><title>Node4&#45;&gt;Node5</title>
<path fill="none" stroke="midnightblue" d="M754.132,-359.282C769.712,-359.282 786.297,-359.282 802.029,-359.282"/>
<polygon fill="midnightblue" stroke="midnightblue" points="802.224,-362.782 812.224,-359.282 802.224,-355.782 802.224,-362.782"/>
</g>
<!-- Node6 -->
<g id="node6" class="node"><title>Node6</title>
<g id="a_node6"><a xlink:href="../../d8/ddb/classgui_1_1_line_view.html#a6cc826f05b0ac955fab89afbfca7c1a8" target="_top" xlink:title="gui.LineView.findYEdge">
<polygon fill="white" stroke="black" points="1013,-330.782 1013,-349.782 1137,-349.782 1137,-330.782 1013,-330.782"/>
<text text-anchor="middle" x="1075" y="-337.782" font-family="Helvetica,sans-Serif" font-size="10.00">gui.LineView.findYEdge</text>
</a>
</g>
</g>
<!-- Node4&#45;&gt;Node6 -->
<g id="edge10" class="edge"><title>Node4&#45;&gt;Node6</title>
<path fill="none" stroke="midnightblue" d="M754.091,-345.792C768.543,-343.498 783.726,-341.474 798,-340.282 867.339,-334.493 946.82,-335.272 1002.63,-337.03"/>
<polygon fill="midnightblue" stroke="midnightblue" points="1002.65,-340.532 1012.76,-337.368 1002.89,-333.536 1002.65,-340.532"/>
</g>
<!-- Node8 -->
<g id="node8" class="node"><title>Node8</title>
<g id="a_node8"><a xlink:href="../../d8/ddb/classgui_1_1_line_view.html#a4a4d4a5dc42ec1fc8896b453703b6991" target="_top" xlink:title="gui.LineView.findXEdge">
<polygon fill="white" stroke="black" points="1012.5,-368.782 1012.5,-387.782 1137.5,-387.782 1137.5,-368.782 1012.5,-368.782"/>
<text text-anchor="middle" x="1075" y="-375.782" font-family="Helvetica,sans-Serif" font-size="10.00">gui.LineView.findXEdge</text>
</a>
</g>
</g>
<!-- Node4&#45;&gt;Node8 -->
<g id="edge9" class="edge"><title>Node4&#45;&gt;Node8</title>
<path fill="none" stroke="midnightblue" d="M754.091,-372.772C768.543,-375.066 783.726,-377.091 798,-378.282 867.227,-384.062 946.562,-383.295 1002.35,-381.543"/>
<polygon fill="midnightblue" stroke="midnightblue" points="1002.61,-385.037 1012.49,-381.206 1002.38,-378.041 1002.61,-385.037"/>
</g>
<!-- Node5&#45;&gt;Node6 -->
<g id="edge5" class="edge"><title>Node5&#45;&gt;Node6</title>
<path fill="none" stroke="midnightblue" d="M939.603,-353.244C959.742,-351.302 982.2,-349.136 1002.9,-347.139"/>
<polygon fill="midnightblue" stroke="midnightblue" points="1003.29,-350.618 1012.91,-346.174 1002.62,-343.651 1003.29,-350.618"/>
</g>
<!-- Node5&#45;&gt;Node8 -->
<g id="edge7" class="edge"><title>Node5&#45;&gt;Node8</title>
<path fill="none" stroke="midnightblue" d="M939.603,-365.32C959.457,-367.235 981.566,-369.367 1002.03,-371.341"/>
<polygon fill="midnightblue" stroke="midnightblue" points="1001.94,-374.849 1012.23,-372.325 1002.62,-367.881 1001.94,-374.849"/>
</g>
<!-- Node6&#45;&gt;Node7 -->
<g id="edge6" class="edge"><title>Node6&#45;&gt;Node7</title>
<path fill="none" stroke="midnightblue" d="M1137.1,-346.425C1156.3,-348.354 1177.6,-350.496 1197.23,-352.469"/>
<polygon fill="midnightblue" stroke="midnightblue" points="1197.02,-355.966 1207.32,-353.484 1197.72,-349.001 1197.02,-355.966"/>
</g>
<!-- Node8&#45;&gt;Node7 -->
<g id="edge8" class="edge"><title>Node8&#45;&gt;Node7</title>
<path fill="none" stroke="midnightblue" d="M1137.62,-372.087C1156.7,-370.169 1177.83,-368.046 1197.3,-366.088"/>
<polygon fill="midnightblue" stroke="midnightblue" points="1197.71,-369.565 1207.31,-365.082 1197.01,-362.6 1197.71,-369.565"/>
</g>
<!-- Node10 -->
<g id="node10" class="node"><title>Node10</title>
<g id="a_node10"><a xlink:href="../../de/d5a/classapplication_1_1_pen.html#ab21d78789fb66a90181393d7cc42796c" target="_top" xlink:title="application.Pen.getStatus">
<polygon fill="white" stroke="black" points="1005,-191.782 1005,-210.782 1145,-210.782 1145,-191.782 1005,-191.782"/>
<text text-anchor="middle" x="1075" y="-198.782" font-family="Helvetica,sans-Serif" font-size="10.00">application.Pen.getStatus</text>
</a>
</g>
</g>
<!-- Node9&#45;&gt;Node10 -->
<g id="edge13" class="edge"><title>Node9&#45;&gt;Node10</title>
<path fill="none" stroke="midnightblue" d="M948.679,-201.282C963.517,-201.282 979.234,-201.282 994.337,-201.282"/>
<polygon fill="midnightblue" stroke="midnightblue" points="994.677,-204.782 1004.68,-201.282 994.677,-197.782 994.677,-204.782"/>
</g>
<!-- Node12 -->
<g id="node12" class="node"><title>Node12</title>
<g id="a_node12"><a xlink:href="../../d3/de0/classapplication_1_1_view_handler2.html#a86919837e2dcf639d2f537d41eb5bd1a" target="_top" xlink:title="application.ViewHandler2.set\lInfoParamsOfTurtleAndLine">
<polygon fill="white" stroke="black" points="606.5,-88.2823 606.5,-118.282 761.5,-118.282 761.5,-88.2823 606.5,-88.2823"/>
<text text-anchor="start" x="614.5" y="-106.282" font-family="Helvetica,sans-Serif" font-size="10.00">application.ViewHandler2.set</text>
<text text-anchor="middle" x="684" y="-95.2823" font-family="Helvetica,sans-Serif" font-size="10.00">InfoParamsOfTurtleAndLine</text>
</a>
</g>
</g>
<!-- Node11&#45;&gt;Node12 -->
<g id="edge15" class="edge"><title>Node11&#45;&gt;Node12</title>
<path fill="none" stroke="midnightblue" d="M541.559,-140.242C564.764,-134.178 591.693,-127.141 615.789,-120.845"/>
<polygon fill="midnightblue" stroke="midnightblue" points="616.78,-124.204 625.57,-118.289 615.01,-117.431 616.78,-124.204"/>
</g>
<!-- Node13 -->
<g id="node13" class="node"><title>Node13</title>
<g id="a_node13"><a xlink:href="../../d3/de0/classapplication_1_1_view_handler2.html#a64f43a60dc4ed9c575e910ffb9b2872d" target="_top" xlink:title="application.ViewHandler2.get\lTurtleLocation">
<polygon fill="white" stroke="black" points="798.5,-137.282 798.5,-167.282 953.5,-167.282 953.5,-137.282 798.5,-137.282"/>
<text text-anchor="start" x="806.5" y="-155.282" font-family="Helvetica,sans-Serif" font-size="10.00">application.ViewHandler2.get</text>
<text text-anchor="middle" x="876" y="-144.282" font-family="Helvetica,sans-Serif" font-size="10.00">TurtleLocation</text>
</a>
</g>
</g>
<!-- Node11&#45;&gt;Node13 -->
<g id="edge30" class="edge"><title>Node11&#45;&gt;Node13</title>
<path fill="none" stroke="midnightblue" d="M569.807,-154.624C634.569,-154.127 723.075,-153.448 788.102,-152.949"/>
<polygon fill="midnightblue" stroke="midnightblue" points="788.357,-156.447 798.329,-152.871 788.303,-149.447 788.357,-156.447"/>
</g>
<!-- Node15 -->
<g id="node15" class="node"><title>Node15</title>
<g id="a_node15"><a xlink:href="../../d3/de0/classapplication_1_1_view_handler2.html#af6fa367df07b3cb1bdceb909e8b3ef21" target="_top" xlink:title="application.ViewHandler2.get\lTurtleOrientation">
<polygon fill="white" stroke="black" points="798.5,-0.282272 798.5,-30.2823 953.5,-30.2823 953.5,-0.282272 798.5,-0.282272"/>
<text text-anchor="start" x="806.5" y="-18.2823" font-family="Helvetica,sans-Serif" font-size="10.00">application.ViewHandler2.get</text>
<text text-anchor="middle" x="876" y="-7.28227" font-family="Helvetica,sans-Serif" font-size="10.00">TurtleOrientation</text>
</a>
</g>
</g>
<!-- Node11&#45;&gt;Node15 -->
<g id="edge31" class="edge"><title>Node11&#45;&gt;Node15</title>
<path fill="none" stroke="midnightblue" d="M555.774,-140.183C560.912,-137.417 565.738,-134.147 570,-130.282 601.913,-101.342 571.483,-66.0614 606,-40.2823 657.58,-1.75963 731.18,2.64074 788.359,-1.56498"/>
<polygon fill="midnightblue" stroke="midnightblue" points="788.216,-5.06511 798.473,-2.41008 788.799,1.91058 788.216,-5.06511"/>
</g>
<!-- Node22 -->
<g id="node22" class="node"><title>Node22</title>
<g id="a_node22"><a xlink:href="../../d1/d31/classapplication_1_1_turtle.html#a75e592fccb8420e254ba668429797898" target="_top" xlink:title="application.Turtle.getVisibility">
<polygon fill="white" stroke="black" points="607,-175.782 607,-194.782 761,-194.782 761,-175.782 607,-175.782"/>
<text text-anchor="middle" x="684" y="-182.782" font-family="Helvetica,sans-Serif" font-size="10.00">application.Turtle.getVisibility</text>
</a>
</g>
</g>
<!-- Node11&#45;&gt;Node22 -->
<g id="edge26" class="edge"><title>Node11&#45;&gt;Node22</title>
<path fill="none" stroke="midnightblue" d="M569.549,-168.179C582.848,-170.184 596.487,-172.24 609.489,-174.2"/>
<polygon fill="midnightblue" stroke="midnightblue" points="609.352,-177.719 619.762,-175.749 610.395,-170.797 609.352,-177.719"/>
</g>
<!-- Node23 -->
<g id="node23" class="node"><title>Node23</title>
<g id="a_node23"><a xlink:href="../../df/dcc/classgui_1_1_turtle_view.html#adcff447c1d488ddfd13d151067e6db7a" target="_top" xlink:title="gui.TurtleView.rotateAnd\lMoveTurtle">
<polygon fill="white" stroke="black" points="618.5,-252.282 618.5,-282.282 749.5,-282.282 749.5,-252.282 618.5,-252.282"/>
<text text-anchor="start" x="626.5" y="-270.282" font-family="Helvetica,sans-Serif" font-size="10.00">gui.TurtleView.rotateAnd</text>
<text text-anchor="middle" x="684" y="-259.282" font-family="Helvetica,sans-Serif" font-size="10.00">MoveTurtle</text>
</a>
</g>
</g>
<!-- Node11&#45;&gt;Node23 -->
<g id="edge27" class="edge"><title>Node11&#45;&gt;Node23</title>
<path fill="none" stroke="midnightblue" d="M510.838,-170.387C546.098,-190.232 608.125,-225.142 647.312,-247.196"/>
<polygon fill="midnightblue" stroke="midnightblue" points="645.839,-250.384 656.27,-252.238 649.272,-244.283 645.839,-250.384"/>
</g>
<!-- Node25 -->
<g id="node25" class="node"><title>Node25</title>
<g id="a_node25"><a xlink:href="../../df/dcc/classgui_1_1_turtle_view.html#afa73e516fcab92ab1c3a6941b6131cb5" target="_top" xlink:title="gui.TurtleView.showTurtle">
<polygon fill="white" stroke="black" points="617.5,-49.7823 617.5,-68.7823 750.5,-68.7823 750.5,-49.7823 617.5,-49.7823"/>
<text text-anchor="middle" x="684" y="-56.7823" font-family="Helvetica,sans-Serif" font-size="10.00">gui.TurtleView.showTurtle</text>
</a>
</g>
</g>
<!-- Node11&#45;&gt;Node25 -->
<g id="edge32" class="edge"><title>Node11&#45;&gt;Node25</title>
<path fill="none" stroke="midnightblue" d="M552.268,-140.275C558.545,-137.489 564.574,-134.189 570,-130.282 592.811,-113.857 582.858,-94.237 606,-78.2823 608.923,-76.2674 612.037,-74.4657 615.276,-72.8545"/>
<polygon fill="midnightblue" stroke="midnightblue" points="616.879,-75.9749 624.675,-68.8002 614.107,-69.5474 616.879,-75.9749"/>
</g>
<!-- Node12&#45;&gt;Node9 -->
<g id="edge16" class="edge"><title>Node12&#45;&gt;Node9</title>
<path fill="none" stroke="midnightblue" d="M704.889,-118.418C726.761,-134.503 763.406,-159.837 798,-176.282 802.839,-178.583 807.945,-180.753 813.131,-182.78"/>
<polygon fill="midnightblue" stroke="midnightblue" points="811.918,-186.063 822.51,-186.271 814.36,-179.502 811.918,-186.063"/>
</g>
<!-- Node12&#45;&gt;Node13 -->
<g id="edge17" class="edge"><title>Node12&#45;&gt;Node13</title>
<path fill="none" stroke="midnightblue" d="M743.297,-118.317C763.45,-123.514 786.206,-129.383 807.064,-134.762"/>
<polygon fill="midnightblue" stroke="midnightblue" points="806.256,-138.168 816.813,-137.276 808.004,-131.39 806.256,-138.168"/>
</g>
<!-- Node12&#45;&gt;Node15 -->
<g id="edge19" class="edge"><title>Node12&#45;&gt;Node15</title>
<path fill="none" stroke="midnightblue" d="M742.39,-88.2255C749.237,-85.4034 755.939,-82.1091 762,-78.2823 781.672,-65.8619 778.328,-52.7026 798,-40.2823 801.315,-38.1895 804.821,-36.2559 808.438,-34.4718"/>
<polygon fill="midnightblue" stroke="midnightblue" points="809.931,-37.6381 817.61,-30.3391 807.055,-31.256 809.931,-37.6381"/>
</g>
<!-- Node17 -->
<g id="node17" class="node"><title>Node17</title>
<g id="a_node17"><a xlink:href="../../df/dcb/classapplication_1_1_pen_handler.html#a518bb3076e4d9d105870b0778341a8c0" target="_top" xlink:title="application.PenHandler.set\lThicknessParameter">
<polygon fill="white" stroke="black" points="804,-88.2823 804,-118.282 948,-118.282 948,-88.2823 804,-88.2823"/>
<text text-anchor="start" x="812" y="-106.282" font-family="Helvetica,sans-Serif" font-size="10.00">application.PenHandler.set</text>
<text text-anchor="middle" x="876" y="-95.2823" font-family="Helvetica,sans-Serif" font-size="10.00">ThicknessParameter</text>
</a>
</g>
</g>
<!-- Node12&#45;&gt;Node17 -->
<g id="edge21" class="edge"><title>Node12&#45;&gt;Node17</title>
<path fill="none" stroke="midnightblue" d="M761.733,-103.282C772.269,-103.282 783.117,-103.282 793.732,-103.282"/>
<polygon fill="midnightblue" stroke="midnightblue" points="793.819,-106.782 803.819,-103.282 793.819,-99.7824 793.819,-106.782"/>
</g>
<!-- Node21 -->
<g id="node21" class="node"><title>Node21</title>
<g id="a_node21"><a xlink:href="../../df/dcc/classgui_1_1_turtle_view.html#a978020a0f6ccbc4714b77c71435b0799" target="_top" xlink:title="gui.TurtleView.setTurtleInfo">
<polygon fill="white" stroke="black" points="805.5,-49.7823 805.5,-68.7823 946.5,-68.7823 946.5,-49.7823 805.5,-49.7823"/>
<text text-anchor="middle" x="876" y="-56.7823" font-family="Helvetica,sans-Serif" font-size="10.00">gui.TurtleView.setTurtleInfo</text>
</a>
</g>
</g>
<!-- Node12&#45;&gt;Node21 -->
<g id="edge25" class="edge"><title>Node12&#45;&gt;Node21</title>
<path fill="none" stroke="midnightblue" d="M749.856,-88.263C774.11,-82.6463 801.288,-76.3523 824.105,-71.0686"/>
<polygon fill="midnightblue" stroke="midnightblue" points="824.971,-74.4606 833.924,-68.7947 823.392,-67.6411 824.971,-74.4606"/>
</g>
<!-- Node14 -->
<g id="node14" class="node"><title>Node14</title>
<g id="a_node14"><a xlink:href="../../d1/d31/classapplication_1_1_turtle.html#a802873f2487ab3b6832050e1bef998a5" target="_top" xlink:title="application.Turtle.getLoc">
<polygon fill="white" stroke="black" points="1009,-142.782 1009,-161.782 1141,-161.782 1141,-142.782 1009,-142.782"/>
<text text-anchor="middle" x="1075" y="-149.782" font-family="Helvetica,sans-Serif" font-size="10.00">application.Turtle.getLoc</text>
</a>
</g>
</g>
<!-- Node13&#45;&gt;Node14 -->
<g id="edge18" class="edge"><title>Node13&#45;&gt;Node14</title>
<path fill="none" stroke="midnightblue" d="M953.729,-152.282C968.564,-152.282 984.092,-152.282 998.875,-152.282"/>
<polygon fill="midnightblue" stroke="midnightblue" points="998.972,-155.782 1008.97,-152.282 998.972,-148.782 998.972,-155.782"/>
</g>
<!-- Node16 -->
<g id="node16" class="node"><title>Node16</title>
<g id="a_node16"><a xlink:href="../../d1/d31/classapplication_1_1_turtle.html#af22147e198fac9068726b95eea235739" target="_top" xlink:title="application.Turtle.getOrientation">
<polygon fill="white" stroke="black" points="990.5,-5.78227 990.5,-24.7823 1159.5,-24.7823 1159.5,-5.78227 990.5,-5.78227"/>
<text text-anchor="middle" x="1075" y="-12.7823" font-family="Helvetica,sans-Serif" font-size="10.00">application.Turtle.getOrientation</text>
</a>
</g>
</g>
<!-- Node15&#45;&gt;Node16 -->
<g id="edge20" class="edge"><title>Node15&#45;&gt;Node16</title>
<path fill="none" stroke="midnightblue" d="M953.729,-15.2823C962.442,-15.2823 971.394,-15.2823 980.294,-15.2823"/>
<polygon fill="midnightblue" stroke="midnightblue" points="980.305,-18.7824 990.305,-15.2823 980.305,-11.7824 980.305,-18.7824"/>
</g>
<!-- Node18 -->
<g id="node18" class="node"><title>Node18</title>
<g id="a_node18"><a xlink:href="../../df/dcb/classapplication_1_1_pen_handler.html#a307ff6736f97a1aa1706da924d7e642b" target="_top" xlink:title="application.PenHandler.get\lPenWeight">
<polygon fill="white" stroke="black" points="1002.5,-91.2823 1002.5,-121.282 1147.5,-121.282 1147.5,-91.2823 1002.5,-91.2823"/>
<text text-anchor="start" x="1010.5" y="-109.282" font-family="Helvetica,sans-Serif" font-size="10.00">application.PenHandler.get</text>
<text text-anchor="middle" x="1075" y="-98.2823" font-family="Helvetica,sans-Serif" font-size="10.00">PenWeight</text>
</a>
</g>
</g>
<!-- Node17&#45;&gt;Node18 -->
<g id="edge22" class="edge"><title>Node17&#45;&gt;Node18</title>
<path fill="none" stroke="midnightblue" d="M948.122,-104.365C962.449,-104.584 977.616,-104.814 992.273,-105.038"/>
<polygon fill="midnightblue" stroke="midnightblue" points="992.269,-108.538 1002.32,-105.191 992.376,-101.539 992.269,-108.538"/>
</g>
<!-- Node20 -->
<g id="node20" class="node"><title>Node20</title>
<g id="a_node20"><a xlink:href="../../d8/ddb/classgui_1_1_line_view.html#ab32d4cf33024aea52dcb5d1092003d85" target="_top" xlink:title="gui.LineView.setThickness">
<polygon fill="white" stroke="black" points="1005.5,-52.7823 1005.5,-71.7823 1144.5,-71.7823 1144.5,-52.7823 1005.5,-52.7823"/>
<text text-anchor="middle" x="1075" y="-59.7823" font-family="Helvetica,sans-Serif" font-size="10.00">gui.LineView.setThickness</text>
</a>
</g>
</g>
<!-- Node17&#45;&gt;Node20 -->
<g id="edge24" class="edge"><title>Node17&#45;&gt;Node20</title>
<path fill="none" stroke="midnightblue" d="M948.122,-88.4803C971.146,-83.6884 996.339,-78.4452 1018.1,-73.9169"/>
<polygon fill="midnightblue" stroke="midnightblue" points="1019.08,-77.288 1028.15,-71.8238 1017.65,-70.4349 1019.08,-77.288"/>
</g>
<!-- Node19 -->
<g id="node19" class="node"><title>Node19</title>
<g id="a_node19"><a xlink:href="../../de/d5a/classapplication_1_1_pen.html#aaaae5f55fadb97afef2ae286a6119a58" target="_top" xlink:title="application.Pen.getWeight">
<polygon fill="white" stroke="black" points="1196,-96.7823 1196,-115.782 1336,-115.782 1336,-96.7823 1196,-96.7823"/>
<text text-anchor="middle" x="1266" y="-103.782" font-family="Helvetica,sans-Serif" font-size="10.00">application.Pen.getWeight</text>
</a>
</g>
</g>
<!-- Node18&#45;&gt;Node19 -->
<g id="edge23" class="edge"><title>Node18&#45;&gt;Node19</title>
<path fill="none" stroke="midnightblue" d="M1147.72,-106.282C1160.16,-106.282 1173.17,-106.282 1185.8,-106.282"/>
<polygon fill="midnightblue" stroke="midnightblue" points="1185.82,-109.782 1195.82,-106.282 1185.82,-102.782 1185.82,-109.782"/>
</g>
<!-- Node23&#45;&gt;Node7 -->
<g id="edge29" class="edge"><title>Node23&#45;&gt;Node7</title>
<path fill="none" stroke="midnightblue" d="M749.583,-269.838C841.732,-274.56 1015.76,-287.476 1160,-321.282 1185.47,-327.251 1213.25,-337.483 1233.84,-345.827"/>
<polygon fill="midnightblue" stroke="midnightblue" points="1232.75,-349.163 1243.33,-349.745 1235.42,-342.693 1232.75,-349.163"/>
</g>
<!-- Node24 -->
<g id="node24" class="node"><title>Node24</title>
<g id="a_node24"><a xlink:href="../../df/dcc/classgui_1_1_turtle_view.html#ab9b87d12b06bce95f2b32ee05a89e7d6" target="_top" xlink:title="gui.TurtleView.rotate">
<polygon fill="white" stroke="black" points="819.5,-235.782 819.5,-254.782 932.5,-254.782 932.5,-235.782 819.5,-235.782"/>
<text text-anchor="middle" x="876" y="-242.782" font-family="Helvetica,sans-Serif" font-size="10.00">gui.TurtleView.rotate</text>
</a>
</g>
</g>
<!-- Node23&#45;&gt;Node24 -->
<g id="edge28" class="edge"><title>Node23&#45;&gt;Node24</title>
<path fill="none" stroke="midnightblue" d="M749.59,-259.803C768.921,-257.565 790.128,-255.11 809.515,-252.865"/>
<polygon fill="midnightblue" stroke="midnightblue" points="809.937,-256.339 819.468,-251.712 809.132,-249.386 809.937,-256.339"/>
</g>
<!-- Node27&#45;&gt;Node26 -->
<g id="edge35" class="edge"><title>Node27&#45;&gt;Node26</title>
<path fill="none" stroke="midnightblue" d="M353.626,-87.4861C375.714,-91.5804 399.516,-95.9926 420.555,-99.8924"/>
<polygon fill="midnightblue" stroke="midnightblue" points="420.17,-103.381 430.641,-101.762 421.446,-96.498 420.17,-103.381"/>
</g>
<!-- Node28 -->
<g id="node28" class="node"><title>Node28</title>
<g id="a_node28"><a xlink:href="../../d8/d8b/classgui_1_1_view.html#a805679dcb8753b21508755667f09fac9" target="_top" xlink:title="gui.View.getNewPoint">
<polygon fill="white" stroke="black" points="424,-63.7823 424,-82.7823 542,-82.7823 542,-63.7823 424,-63.7823"/>
<text text-anchor="middle" x="483" y="-70.7823" font-family="Helvetica,sans-Serif" font-size="10.00">gui.View.getNewPoint</text>
</a>
</g>
</g>
<!-- Node27&#45;&gt;Node28 -->
<g id="edge36" class="edge"><title>Node27&#45;&gt;Node28</title>
<path fill="none" stroke="midnightblue" d="M353.626,-73.2823C373.292,-73.2823 394.317,-73.2823 413.54,-73.2823"/>
<polygon fill="midnightblue" stroke="midnightblue" points="413.712,-76.7824 423.712,-73.2823 413.712,-69.7824 413.712,-76.7824"/>
</g>
</g>
</svg>
        <g id="navigator" transform="translate(0 0)" fill="#404254">
                <rect fill="#f2f5e9" fill-opacity="0.5" stroke="#606060" stroke-width=".5" x="0" y="0" width="60" height="60"/>
                <use id="zoomplus" xlink:href="#zoomPlus" x="17" y="9" onmousedown="handleZoom(evt,'in')"/>
                <use id="zoomminus" xlink:href="#zoomMin" x="42" y="9" onmousedown="handleZoom(evt,'out')"/>
                <use id="reset" xlink:href="#resetDef" x="30" y="36" onmousedown="handleReset()"/>
                <g id="arrowUp" xlink:href="#dirArrow" transform="translate(30 24)" onmousedown="handlePan(0,-1)">
                  <use xlink:href="#rim" fill="#404040">
                        <set attributeName="fill" to="#808080" begin="arrowUp.mouseover" end="arrowUp.mouseout"/>
                  </use>
                  <path fill="none" stroke="white" stroke-width="1.5" d="M0,-3.0v7 M-2.5,-0.5L0,-3.0L2.5,-0.5"/>
                </g>
                <g id="arrowRight" xlink:href="#dirArrow" transform="rotate(90) translate(36 -43)" onmousedown="handlePan(1,0)">
                  <use xlink:href="#rim" fill="#404040">
                        <set attributeName="fill" to="#808080" begin="arrowRight.mouseover" end="arrowRight.mouseout"/>
                  </use>
                  <path fill="none" stroke="white" stroke-width="1.5" d="M0,-3.0v7 M-2.5,-0.5L0,-3.0L2.5,-0.5"/>
                </g>
                <g id="arrowDown" xlink:href="#dirArrow" transform="rotate(180) translate(-30 -48)" onmousedown="handlePan(0,1)">
                  <use xlink:href="#rim" fill="#404040">
                        <set attributeName="fill" to="#808080" begin="arrowDown.mouseover" end="arrowDown.mouseout"/>
                  </use>
                  <path fill="none" stroke="white" stroke-width="1.5" d="M0,-3.0v7 M-2.5,-0.5L0,-3.0L2.5,-0.5"/>
                </g>
                <g id="arrowLeft" xlink:href="#dirArrow" transform="rotate(270) translate(-36 17)" onmousedown="handlePan(-1,0)">
                  <use xlink:href="#rim" fill="#404040">
                        <set attributeName="fill" to="#808080" begin="arrowLeft.mouseover" end="arrowLeft.mouseout"/>
                  </use>
                  <path fill="none" stroke="white" stroke-width="1.5" d="M0,-3.0v7 M-2.5,-0.5L0,-3.0L2.5,-0.5"/>
                </g>
        </g>
        <svg viewBox="0 0 15 15" width="100%" height="30px" preserveAspectRatio="xMaxYMin meet">
         <g id="arrow_out" transform="scale(0.3 0.3)">
          <a xlink:href="classapplication_1_1_view_handler2_abaa9dc9add64d8386b9f7fc37152d620_cgraph_org.svg" target="_base">
           <rect id="button" ry="5" rx="5" y="6" x="6" height="38" width="38"
                fill="#f2f5e9" fill-opacity="0.5" stroke="#606060" stroke-width="1.0"/>
           <path id="arrow"
             d="M 11.500037,31.436501 C 11.940474,20.09759 22.043105,11.32322 32.158766,21.979434 L 37.068811,17.246167 C 37.068811,17.246167 37.088388,32 37.088388,32 L 22.160133,31.978069 C 22.160133,31.978069 26.997745,27.140456 26.997745,27.140456 C 18.528582,18.264221 13.291696,25.230495 11.500037,31.436501 z"
             style="fill:#404040;"/>
          </a>
         </g>
        </svg>
</svg>
