<?xml version="1.0" encoding="UTF-8" standalone="no"?>
<!DOCTYPE svg PUBLIC "-//W3C//DTD SVG 1.1//EN"
 "http://www.w3.org/Graphics/SVG/1.1/DTD/svg11.dtd">
<!-- Generated by graphviz version 2.36.0 (20140111.2315)
 -->
<!-- Title: application.ViewHandler2.setTurtleLocToViewTurtleLoc Pages: 1 -->
<svg width="594pt" height="87pt"
 viewBox="0.00 0.00 594.00 87.00" xmlns="http://www.w3.org/2000/svg" xmlns:xlink="http://www.w3.org/1999/xlink">
<g id="graph0" class="graph" transform="scale(1 1) rotate(0) translate(4 83)">
<title>application.ViewHandler2.setTurtleLocToViewTurtleLoc</title>
<polygon fill="white" stroke="none" points="-4,4 -4,-83 590,-83 590,4 -4,4"/>
<!-- Node1 -->
<g id="node1" class="node"><title>Node1</title>
<polygon fill="#bfbfbf" stroke="black" points="0.5,-24 0.5,-54 155.5,-54 155.5,-24 0.5,-24"/>
<text text-anchor="start" x="8.5" y="-42" font-family="Helvetica,sans-Serif" font-size="10.00">application.ViewHandler2.set</text>
<text text-anchor="middle" x="78" y="-31" font-family="Helvetica,sans-Serif" font-size="10.00">TurtleLocToViewTurtleLoc</text>
</g>
<!-- Node2 -->
<g id="node2" class="node"><title>Node2</title>
<g id="a_node2"><a xlink:href="../../d3/de0/classapplication_1_1_view_handler2.html#a4ac48522f428669c1df1a058184cf98c" target="_top" xlink:title="application.ViewHandler2.calculate\lOriginalLocation">
<polygon fill="white" stroke="black" points="192,-49 192,-79 374,-79 374,-49 192,-49"/>
<text text-anchor="start" x="200" y="-67" font-family="Helvetica,sans-Serif" font-size="10.00">application.ViewHandler2.calculate</text>
<text text-anchor="middle" x="283" y="-56" font-family="Helvetica,sans-Serif" font-size="10.00">OriginalLocation</text>
</a>
</g>
</g>
<!-- Node1&#45;&gt;Node2 -->
<g id="edge1" class="edge"><title>Node1&#45;&gt;Node2</title>
<path fill="none" stroke="midnightblue" d="M165.79,-49.6884C174.416,-50.7507 183.187,-51.8309 191.846,-52.8973"/>
<polygon fill="midnightblue" stroke="midnightblue" points="166.098,-46.2001 155.746,-48.4514 165.243,-53.1476 166.098,-46.2001"/>
</g>
<!-- Node5 -->
<g id="node5" class="node"><title>Node5</title>
<g id="a_node5"><a xlink:href="../../d3/de0/classapplication_1_1_view_handler2.html#abaa9dc9add64d8386b9f7fc37152d620" target="_top" xlink:title="application.ViewHandler2.set\lTurtleLocAndMove">
<polygon fill="white" stroke="black" points="205.5,-0 205.5,-30 360.5,-30 360.5,-0 205.5,-0"/>
<text text-anchor="start" x="213.5" y="-18" font-family="Helvetica,sans-Serif" font-size="10.00">application.ViewHandler2.set</text>
<text text-anchor="middle" x="283" y="-7" font-family="Helvetica,sans-Serif" font-size="10.00">TurtleLocAndMove</text>
</a>
</g>
</g>
<!-- Node1&#45;&gt;Node5 -->
<g id="edge4" class="edge"><title>Node1&#45;&gt;Node5</title>
<path fill="none" stroke="midnightblue" d="M165.763,-28.7423C178.97,-27.1809 192.516,-25.5794 205.483,-24.0464"/>
<polygon fill="midnightblue" stroke="midnightblue" points="165.265,-25.2767 155.746,-29.9266 166.087,-32.2282 165.265,-25.2767"/>
</g>
<!-- Node3 -->
<g id="node3" class="node"><title>Node3</title>
<g id="a_node3"><a xlink:href="../../d3/de0/classapplication_1_1_view_handler2.html#acd04df701dbbc0a759c79058966f8264" target="_top" xlink:title="application.ViewHandler2.change\lLocationOfTurtle">
<polygon fill="white" stroke="black" points="410.5,-49 410.5,-79 585.5,-79 585.5,-49 410.5,-49"/>
<text text-anchor="start" x="418.5" y="-67" font-family="Helvetica,sans-Serif" font-size="10.00">application.ViewHandler2.change</text>
<text text-anchor="middle" x="498" y="-56" font-family="Helvetica,sans-Serif" font-size="10.00">LocationOfTurtle</text>
</a>
</g>
</g>
<!-- Node2&#45;&gt;Node3 -->
<g id="edge2" class="edge"><title>Node2&#45;&gt;Node3</title>
<path fill="none" stroke="midnightblue" d="M384.231,-64C392.962,-64 401.749,-64 410.356,-64"/>
<polygon fill="midnightblue" stroke="midnightblue" points="384.022,-60.5001 374.022,-64 384.022,-67.5001 384.022,-60.5001"/>
</g>
<!-- Node4 -->
<g id="node4" class="node"><title>Node4</title>
<g id="a_node4"><a xlink:href="../../d3/de0/classapplication_1_1_view_handler2.html#ac682f2c1ca441598b6d29fe899e7f468" target="_top" xlink:title="application.ViewHandler2.move\lTurtle">
<polygon fill="white" stroke="black" points="414.5,-0 414.5,-30 581.5,-30 581.5,-0 414.5,-0"/>
<text text-anchor="start" x="422.5" y="-18" font-family="Helvetica,sans-Serif" font-size="10.00">application.ViewHandler2.move</text>
<text text-anchor="middle" x="498" y="-7" font-family="Helvetica,sans-Serif" font-size="10.00">Turtle</text>
</a>
</g>
</g>
<!-- Node2&#45;&gt;Node4 -->
<g id="edge3" class="edge"><title>Node2&#45;&gt;Node4</title>
<path fill="none" stroke="midnightblue" d="M359.337,-46.6691C382.985,-41.2288 408.881,-35.2715 431.769,-30.0062"/>
<polygon fill="midnightblue" stroke="midnightblue" points="358.315,-43.3125 349.355,-48.9654 359.885,-50.1343 358.315,-43.3125"/>
</g>
<!-- Node5&#45;&gt;Node3 -->
<g id="edge5" class="edge"><title>Node5&#45;&gt;Node3</title>
<path fill="none" stroke="midnightblue" d="M359.337,-32.3309C382.985,-37.7712 408.881,-43.7285 431.769,-48.9938"/>
<polygon fill="midnightblue" stroke="midnightblue" points="359.885,-28.8657 349.355,-30.0346 358.315,-35.6875 359.885,-28.8657"/>
</g>
<!-- Node5&#45;&gt;Node4 -->
<g id="edge6" class="edge"><title>Node5&#45;&gt;Node4</title>
<path fill="none" stroke="midnightblue" d="M370.917,-15C385.23,-15 400.032,-15 414.24,-15"/>
<polygon fill="midnightblue" stroke="midnightblue" points="370.597,-11.5001 360.597,-15 370.597,-18.5001 370.597,-11.5001"/>
</g>
</g>
</svg>
