<?xml version="1.0" encoding="UTF-8" standalone="no"?>
<!DOCTYPE svg PUBLIC "-//W3C//DTD SVG 1.1//EN"
 "http://www.w3.org/Graphics/SVG/1.1/DTD/svg11.dtd">
<!-- Generated by graphviz version 2.36.0 (20140111.2315)
 -->
<!-- Title: application.ViewHandler2.setTurtleOrientation Pages: 1 -->
<!--zoomable 307 -->
<svg id="main" version="1.1" xmlns="http://www.w3.org/2000/svg" xmlns:xlink="http://www.w3.org/1999/xlink" xml:space="preserve" onload="init(evt)">
<style type="text/css"><![CDATA[
.edge:hover path { stroke: red; }
.edge:hover polygon { stroke: red; fill: red; }
]]></style>
<script type="text/javascript"><![CDATA[
var edges = document.getElementsByTagName('g');
if (edges && edges.length) {
  for (var i=0;i<edges.length;i++) {
    if (edges[i].id.substr(0,4)=='edge') {
      edges[i].setAttribute('class','edge');
    }
  }
}
]]></script>
        <defs>
                <circle id="rim" cx="0" cy="0" r="7"/>
                <circle id="rim2" cx="0" cy="0" r="3.5"/>
                <g id="zoomPlus">
                        <use xlink:href="#rim" fill="#404040">
                                <set attributeName="fill" to="#808080" begin="zoomplus.mouseover" end="zoomplus.mouseout"/>
                        </use>
                        <path d="M-4,0h8M0,-4v8" fill="none" stroke="white" stroke-width="1.5" pointer-events="none"/>
                </g>
                <g id="zoomMin">
                        <use xlink:href="#rim" fill="#404040">
                                <set attributeName="fill" to="#808080" begin="zoomminus.mouseover" end="zoomminus.mouseout"/>
                        </use>
                        <path d="M-4,0h8" fill="none" stroke="white" stroke-width="1.5" pointer-events="none"/>
                </g>
                <g id="dirArrow">
                        <path fill="none" stroke="white" stroke-width="1.5" d="M0,-3.0v7 M-2.5,-0.5L0,-3.0L2.5,-0.5"/>
                </g>
               <g id="resetDef">
                       <use xlink:href="#rim2" fill="#404040">
                               <set attributeName="fill" to="#808080" begin="reset.mouseover" end="reset.mouseout"/>
                       </use>
               </g>
        </defs>

<script type="text/javascript">
var viewWidth = 1140;
var viewHeight = 307;
var sectionId = 'dynsection-22';
</script>
<script xlink:href="../../svgpan.js"/>
<svg id="graph" class="graph">
<g id="viewport">
<title>application.ViewHandler2.setTurtleOrientation</title>
<polygon fill="white" stroke="none" points="-4,4 -4,-303 1136,-303 1136,4 -4,4"/>
<!-- Node1 -->
<g id="node1" class="node"><title>Node1</title>
<polygon fill="#bfbfbf" stroke="black" points="0.5,-124 0.5,-154 155.5,-154 155.5,-124 0.5,-124"/>
<text text-anchor="start" x="8.5" y="-142" font-family="Helvetica,sans-Serif" font-size="10.00">application.ViewHandler2.set</text>
<text text-anchor="middle" x="78" y="-131" font-family="Helvetica,sans-Serif" font-size="10.00">TurtleOrientation</text>
</g>
<!-- Node2 -->
<g id="node2" class="node"><title>Node2</title>
<g id="a_node2"><a xlink:href="../../d1/d31/classapplication_1_1_turtle.html#a624c7cadd7e1f53652383f23c3db603e" target="_top" xlink:title="application.Turtle.setOrientation">
<polygon fill="white" stroke="black" points="195,-151.5 195,-170.5 363,-170.5 363,-151.5 195,-151.5"/>
<text text-anchor="middle" x="279" y="-158.5" font-family="Helvetica,sans-Serif" font-size="10.00">application.Turtle.setOrientation</text>
</a>
</g>
</g>
<!-- Node1&#45;&gt;Node2 -->
<g id="edge1" class="edge"><title>Node1&#45;&gt;Node2</title>
<path fill="none" stroke="midnightblue" d="M155.654,-147.474C165.162,-148.525 174.964,-149.609 184.686,-150.684"/>
<polygon fill="midnightblue" stroke="midnightblue" points="184.45,-154.179 194.774,-151.799 185.219,-147.221 184.45,-154.179"/>
</g>
<!-- Node3 -->
<g id="node3" class="node"><title>Node3</title>
<g id="a_node3"><a xlink:href="../../d3/de0/classapplication_1_1_view_handler2.html#adef8a4ac6b5b11687e8ecb1c05253287" target="_top" xlink:title="application.ViewHandler2.update\lTurtleOnView">
<polygon fill="white" stroke="black" points="192.5,-102 192.5,-132 365.5,-132 365.5,-102 192.5,-102"/>
<text text-anchor="start" x="200.5" y="-120" font-family="Helvetica,sans-Serif" font-size="10.00">application.ViewHandler2.update</text>
<text text-anchor="middle" x="279" y="-109" font-family="Helvetica,sans-Serif" font-size="10.00">TurtleOnView</text>
</a>
</g>
</g>
<!-- Node1&#45;&gt;Node3 -->
<g id="edge2" class="edge"><title>Node1&#45;&gt;Node3</title>
<path fill="none" stroke="midnightblue" d="M155.654,-130.526C164.405,-129.558 173.405,-128.563 182.363,-127.573"/>
<polygon fill="midnightblue" stroke="midnightblue" points="182.888,-131.036 192.443,-126.459 182.119,-124.079 182.888,-131.036"/>
</g>
<!-- Node4 -->
<g id="node4" class="node"><title>Node4</title>
<g id="a_node4"><a xlink:href="../../d3/de0/classapplication_1_1_view_handler2.html#a86919837e2dcf639d2f537d41eb5bd1a" target="_top" xlink:title="application.ViewHandler2.set\lInfoParamsOfTurtleAndLine">
<polygon fill="white" stroke="black" points="402.5,-170 402.5,-200 557.5,-200 557.5,-170 402.5,-170"/>
<text text-anchor="start" x="410.5" y="-188" font-family="Helvetica,sans-Serif" font-size="10.00">application.ViewHandler2.set</text>
<text text-anchor="middle" x="480" y="-177" font-family="Helvetica,sans-Serif" font-size="10.00">InfoParamsOfTurtleAndLine</text>
</a>
</g>
</g>
<!-- Node3&#45;&gt;Node4 -->
<g id="edge3" class="edge"><title>Node3&#45;&gt;Node4</title>
<path fill="none" stroke="midnightblue" d="M334.341,-132.075C344.89,-135.205 355.827,-138.592 366,-142 387.894,-149.335 411.836,-158.305 432.024,-166.152"/>
<polygon fill="midnightblue" stroke="midnightblue" points="431.019,-169.517 441.607,-169.901 433.57,-162.998 431.019,-169.517"/>
</g>
<!-- Node7 -->
<g id="node7" class="node"><title>Node7</title>
<g id="a_node7"><a xlink:href="../../d3/de0/classapplication_1_1_view_handler2.html#a64f43a60dc4ed9c575e910ffb9b2872d" target="_top" xlink:title="application.ViewHandler2.get\lTurtleLocation">
<polygon fill="white" stroke="black" points="594.5,-269 594.5,-299 749.5,-299 749.5,-269 594.5,-269"/>
<text text-anchor="start" x="602.5" y="-287" font-family="Helvetica,sans-Serif" font-size="10.00">application.ViewHandler2.get</text>
<text text-anchor="middle" x="672" y="-276" font-family="Helvetica,sans-Serif" font-size="10.00">TurtleLocation</text>
</a>
</g>
</g>
<!-- Node3&#45;&gt;Node7 -->
<g id="edge19" class="edge"><title>Node3&#45;&gt;Node7</title>
<path fill="none" stroke="midnightblue" d="M350.031,-132.004C355.742,-134.788 361.165,-138.088 366,-142 392.278,-163.264 375.605,-187.881 402,-209 453.871,-250.504 527.28,-269.065 584.31,-277.353"/>
<polygon fill="midnightblue" stroke="midnightblue" points="584.014,-280.845 594.397,-278.737 584.966,-273.91 584.014,-280.845"/>
</g>
<!-- Node9 -->
<g id="node9" class="node"><title>Node9</title>
<g id="a_node9"><a xlink:href="../../d3/de0/classapplication_1_1_view_handler2.html#af6fa367df07b3cb1bdceb909e8b3ef21" target="_top" xlink:title="application.ViewHandler2.get\lTurtleOrientation">
<polygon fill="white" stroke="black" points="594.5,-83 594.5,-113 749.5,-113 749.5,-83 594.5,-83"/>
<text text-anchor="start" x="602.5" y="-101" font-family="Helvetica,sans-Serif" font-size="10.00">application.ViewHandler2.get</text>
<text text-anchor="middle" x="672" y="-90" font-family="Helvetica,sans-Serif" font-size="10.00">TurtleOrientation</text>
</a>
</g>
</g>
<!-- Node3&#45;&gt;Node9 -->
<g id="edge20" class="edge"><title>Node3&#45;&gt;Node9</title>
<path fill="none" stroke="midnightblue" d="M365.631,-120.674C420.676,-122.129 493.671,-122.371 558,-117 566.57,-116.285 575.468,-115.269 584.339,-114.075"/>
<polygon fill="midnightblue" stroke="midnightblue" points="584.915,-117.528 594.324,-112.657 583.932,-110.598 584.915,-117.528"/>
</g>
<!-- Node16 -->
<g id="node16" class="node"><title>Node16</title>
<g id="a_node16"><a xlink:href="../../d1/d31/classapplication_1_1_turtle.html#a75e592fccb8420e254ba668429797898" target="_top" xlink:title="application.Turtle.getVisibility">
<polygon fill="white" stroke="black" points="403,-88.5 403,-107.5 557,-107.5 557,-88.5 403,-88.5"/>
<text text-anchor="middle" x="480" y="-95.5" font-family="Helvetica,sans-Serif" font-size="10.00">application.Turtle.getVisibility</text>
</a>
</g>
</g>
<!-- Node3&#45;&gt;Node16 -->
<g id="edge15" class="edge"><title>Node3&#45;&gt;Node16</title>
<path fill="none" stroke="midnightblue" d="M365.549,-108.832C374.58,-107.97 383.768,-107.092 392.807,-106.229"/>
<polygon fill="midnightblue" stroke="midnightblue" points="393.311,-109.697 402.933,-105.263 392.645,-102.729 393.311,-109.697"/>
</g>
<!-- Node17 -->
<g id="node17" class="node"><title>Node17</title>
<g id="a_node17"><a xlink:href="../../df/dcc/classgui_1_1_turtle_view.html#adcff447c1d488ddfd13d151067e6db7a" target="_top" xlink:title="gui.TurtleView.rotateAnd\lMoveTurtle">
<polygon fill="white" stroke="black" points="414.5,-39 414.5,-69 545.5,-69 545.5,-39 414.5,-39"/>
<text text-anchor="start" x="422.5" y="-57" font-family="Helvetica,sans-Serif" font-size="10.00">gui.TurtleView.rotateAnd</text>
<text text-anchor="middle" x="480" y="-46" font-family="Helvetica,sans-Serif" font-size="10.00">MoveTurtle</text>
</a>
</g>
</g>
<!-- Node3&#45;&gt;Node17 -->
<g id="edge16" class="edge"><title>Node3&#45;&gt;Node17</title>
<path fill="none" stroke="midnightblue" d="M327.413,-101.99C355.713,-93.0306 391.842,-81.5927 421.73,-72.1307"/>
<polygon fill="midnightblue" stroke="midnightblue" points="423.129,-75.3591 431.606,-69.0041 421.016,-68.6856 423.129,-75.3591"/>
</g>
<!-- Node20 -->
<g id="node20" class="node"><title>Node20</title>
<g id="a_node20"><a xlink:href="../../df/dcc/classgui_1_1_turtle_view.html#afa73e516fcab92ab1c3a6941b6131cb5" target="_top" xlink:title="gui.TurtleView.showTurtle">
<polygon fill="white" stroke="black" points="413.5,-0.5 413.5,-19.5 546.5,-19.5 546.5,-0.5 413.5,-0.5"/>
<text text-anchor="middle" x="480" y="-7.5" font-family="Helvetica,sans-Serif" font-size="10.00">gui.TurtleView.showTurtle</text>
</a>
</g>
</g>
<!-- Node3&#45;&gt;Node20 -->
<g id="edge21" class="edge"><title>Node3&#45;&gt;Node20</title>
<path fill="none" stroke="midnightblue" d="M296.455,-101.91C318.742,-82.2682 360.523,-48.1933 402,-29 407.283,-26.5551 412.922,-24.3995 418.654,-22.5044"/>
<polygon fill="midnightblue" stroke="midnightblue" points="419.796,-25.8155 428.344,-19.5558 417.758,-19.1187 419.796,-25.8155"/>
</g>
<!-- Node5 -->
<g id="node5" class="node"><title>Node5</title>
<g id="a_node5"><a xlink:href="../../df/dcb/classapplication_1_1_pen_handler.html#a8477a9a258753bb5538ad83a015fb731" target="_top" xlink:title="application.PenHandler.get\lPenStatus">
<polygon fill="white" stroke="black" points="599.5,-220 599.5,-250 744.5,-250 744.5,-220 599.5,-220"/>
<text text-anchor="start" x="607.5" y="-238" font-family="Helvetica,sans-Serif" font-size="10.00">application.PenHandler.get</text>
<text text-anchor="middle" x="672" y="-227" font-family="Helvetica,sans-Serif" font-size="10.00">PenStatus</text>
</a>
</g>
</g>
<!-- Node4&#45;&gt;Node5 -->
<g id="edge4" class="edge"><title>Node4&#45;&gt;Node5</title>
<path fill="none" stroke="midnightblue" d="M538.006,-200.002C558.765,-205.465 582.422,-211.69 603.971,-217.361"/>
<polygon fill="midnightblue" stroke="midnightblue" points="603.144,-220.762 613.706,-219.923 604.926,-213.993 603.144,-220.762"/>
</g>
<!-- Node4&#45;&gt;Node7 -->
<g id="edge6" class="edge"><title>Node4&#45;&gt;Node7</title>
<path fill="none" stroke="midnightblue" d="M500.457,-200.065C522.25,-216.371 559.106,-242.279 594,-259 598.634,-261.221 603.515,-263.317 608.478,-265.279"/>
<polygon fill="midnightblue" stroke="midnightblue" points="607.488,-268.646 618.08,-268.885 609.949,-262.093 607.488,-268.646"/>
</g>
<!-- Node4&#45;&gt;Node9 -->
<g id="edge8" class="edge"><title>Node4&#45;&gt;Node9</title>
<path fill="none" stroke="midnightblue" d="M518.715,-169.969C531.515,-164.32 545.686,-157.446 558,-150 575.345,-139.512 576.036,-131.389 594,-122 597.529,-120.156 601.224,-118.425 605.005,-116.805"/>
<polygon fill="midnightblue" stroke="midnightblue" points="606.541,-119.961 614.534,-113.007 603.948,-113.459 606.541,-119.961"/>
</g>
<!-- Node11 -->
<g id="node11" class="node"><title>Node11</title>
<g id="a_node11"><a xlink:href="../../df/dcb/classapplication_1_1_pen_handler.html#a518bb3076e4d9d105870b0778341a8c0" target="_top" xlink:title="application.PenHandler.set\lThicknessParameter">
<polygon fill="white" stroke="black" points="600,-132 600,-162 744,-162 744,-132 600,-132"/>
<text text-anchor="start" x="608" y="-150" font-family="Helvetica,sans-Serif" font-size="10.00">application.PenHandler.set</text>
<text text-anchor="middle" x="672" y="-139" font-family="Helvetica,sans-Serif" font-size="10.00">ThicknessParameter</text>
</a>
</g>
</g>
<!-- Node4&#45;&gt;Node11 -->
<g id="edge10" class="edge"><title>Node4&#45;&gt;Node11</title>
<path fill="none" stroke="midnightblue" d="M556.093,-169.981C567.245,-167.751 578.779,-165.444 590.044,-163.191"/>
<polygon fill="midnightblue" stroke="midnightblue" points="590.739,-166.622 599.858,-161.228 589.366,-159.758 590.739,-166.622"/>
</g>
<!-- Node15 -->
<g id="node15" class="node"><title>Node15</title>
<g id="a_node15"><a xlink:href="../../df/dcc/classgui_1_1_turtle_view.html#a978020a0f6ccbc4714b77c71435b0799" target="_top" xlink:title="gui.TurtleView.setTurtleInfo">
<polygon fill="white" stroke="black" points="601.5,-181.5 601.5,-200.5 742.5,-200.5 742.5,-181.5 601.5,-181.5"/>
<text text-anchor="middle" x="672" y="-188.5" font-family="Helvetica,sans-Serif" font-size="10.00">gui.TurtleView.setTurtleInfo</text>
</a>
</g>
</g>
<!-- Node4&#45;&gt;Node15 -->
<g id="edge14" class="edge"><title>Node4&#45;&gt;Node15</title>
<path fill="none" stroke="midnightblue" d="M557.733,-187.423C568.772,-187.772 580.154,-188.131 591.25,-188.482"/>
<polygon fill="midnightblue" stroke="midnightblue" points="591.237,-191.983 601.343,-188.8 591.458,-184.986 591.237,-191.983"/>
</g>
<!-- Node6 -->
<g id="node6" class="node"><title>Node6</title>
<g id="a_node6"><a xlink:href="../../de/d5a/classapplication_1_1_pen.html#ab21d78789fb66a90181393d7cc42796c" target="_top" xlink:title="application.Pen.getStatus">
<polygon fill="white" stroke="black" points="801,-225.5 801,-244.5 941,-244.5 941,-225.5 801,-225.5"/>
<text text-anchor="middle" x="871" y="-232.5" font-family="Helvetica,sans-Serif" font-size="10.00">application.Pen.getStatus</text>
</a>
</g>
</g>
<!-- Node5&#45;&gt;Node6 -->
<g id="edge5" class="edge"><title>Node5&#45;&gt;Node6</title>
<path fill="none" stroke="midnightblue" d="M744.679,-235C759.517,-235 775.234,-235 790.337,-235"/>
<polygon fill="midnightblue" stroke="midnightblue" points="790.677,-238.5 800.677,-235 790.677,-231.5 790.677,-238.5"/>
</g>
<!-- Node8 -->
<g id="node8" class="node"><title>Node8</title>
<g id="a_node8"><a xlink:href="../../d1/d31/classapplication_1_1_turtle.html#a802873f2487ab3b6832050e1bef998a5" target="_top" xlink:title="application.Turtle.getLoc">
<polygon fill="white" stroke="black" points="805,-274.5 805,-293.5 937,-293.5 937,-274.5 805,-274.5"/>
<text text-anchor="middle" x="871" y="-281.5" font-family="Helvetica,sans-Serif" font-size="10.00">application.Turtle.getLoc</text>
</a>
</g>
</g>
<!-- Node7&#45;&gt;Node8 -->
<g id="edge7" class="edge"><title>Node7&#45;&gt;Node8</title>
<path fill="none" stroke="midnightblue" d="M749.729,-284C764.564,-284 780.092,-284 794.875,-284"/>
<polygon fill="midnightblue" stroke="midnightblue" points="794.972,-287.5 804.972,-284 794.972,-280.5 794.972,-287.5"/>
</g>
<!-- Node10 -->
<g id="node10" class="node"><title>Node10</title>
<g id="a_node10"><a xlink:href="../../d1/d31/classapplication_1_1_turtle.html#af22147e198fac9068726b95eea235739" target="_top" xlink:title="application.Turtle.getOrientation">
<polygon fill="white" stroke="black" points="786.5,-88.5 786.5,-107.5 955.5,-107.5 955.5,-88.5 786.5,-88.5"/>
<text text-anchor="middle" x="871" y="-95.5" font-family="Helvetica,sans-Serif" font-size="10.00">application.Turtle.getOrientation</text>
</a>
</g>
</g>
<!-- Node9&#45;&gt;Node10 -->
<g id="edge9" class="edge"><title>Node9&#45;&gt;Node10</title>
<path fill="none" stroke="midnightblue" d="M749.729,-98C758.442,-98 767.394,-98 776.294,-98"/>
<polygon fill="midnightblue" stroke="midnightblue" points="776.305,-101.5 786.305,-98 776.305,-94.5001 776.305,-101.5"/>
</g>
<!-- Node12 -->
<g id="node12" class="node"><title>Node12</title>
<g id="a_node12"><a xlink:href="../../df/dcb/classapplication_1_1_pen_handler.html#a307ff6736f97a1aa1706da924d7e642b" target="_top" xlink:title="application.PenHandler.get\lPenWeight">
<polygon fill="white" stroke="black" points="798.5,-130 798.5,-160 943.5,-160 943.5,-130 798.5,-130"/>
<text text-anchor="start" x="806.5" y="-148" font-family="Helvetica,sans-Serif" font-size="10.00">application.PenHandler.get</text>
<text text-anchor="middle" x="871" y="-137" font-family="Helvetica,sans-Serif" font-size="10.00">PenWeight</text>
</a>
</g>
</g>
<!-- Node11&#45;&gt;Node12 -->
<g id="edge11" class="edge"><title>Node11&#45;&gt;Node12</title>
<path fill="none" stroke="midnightblue" d="M744.122,-146.278C758.449,-146.132 773.616,-145.979 788.273,-145.83"/>
<polygon fill="midnightblue" stroke="midnightblue" points="788.357,-149.329 798.321,-145.728 788.286,-142.33 788.357,-149.329"/>
</g>
<!-- Node14 -->
<g id="node14" class="node"><title>Node14</title>
<g id="a_node14"><a xlink:href="../../d8/ddb/classgui_1_1_line_view.html#ab32d4cf33024aea52dcb5d1092003d85" target="_top" xlink:title="gui.LineView.setThickness">
<polygon fill="white" stroke="black" points="801.5,-179.5 801.5,-198.5 940.5,-198.5 940.5,-179.5 801.5,-179.5"/>
<text text-anchor="middle" x="871" y="-186.5" font-family="Helvetica,sans-Serif" font-size="10.00">gui.LineView.setThickness</text>
</a>
</g>
</g>
<!-- Node11&#45;&gt;Node14 -->
<g id="edge13" class="edge"><title>Node11&#45;&gt;Node14</title>
<path fill="none" stroke="midnightblue" d="M743.565,-162.044C767.213,-167.086 793.203,-172.627 815.437,-177.367"/>
<polygon fill="midnightblue" stroke="midnightblue" points="814.856,-180.822 825.366,-179.484 816.316,-173.976 814.856,-180.822"/>
</g>
<!-- Node13 -->
<g id="node13" class="node"><title>Node13</title>
<g id="a_node13"><a xlink:href="../../de/d5a/classapplication_1_1_pen.html#aaaae5f55fadb97afef2ae286a6119a58" target="_top" xlink:title="application.Pen.getWeight">
<polygon fill="white" stroke="black" points="992,-135.5 992,-154.5 1132,-154.5 1132,-135.5 992,-135.5"/>
<text text-anchor="middle" x="1062" y="-142.5" font-family="Helvetica,sans-Serif" font-size="10.00">application.Pen.getWeight</text>
</a>
</g>
</g>
<!-- Node12&#45;&gt;Node13 -->
<g id="edge12" class="edge"><title>Node12&#45;&gt;Node13</title>
<path fill="none" stroke="midnightblue" d="M943.722,-145C956.165,-145 969.167,-145 981.795,-145"/>
<polygon fill="midnightblue" stroke="midnightblue" points="981.825,-148.5 991.825,-145 981.825,-141.5 981.825,-148.5"/>
</g>
<!-- Node18 -->
<g id="node18" class="node"><title>Node18</title>
<g id="a_node18"><a xlink:href="../../df/dcc/classgui_1_1_turtle_view.html#ab9b87d12b06bce95f2b32ee05a89e7d6" target="_top" xlink:title="gui.TurtleView.rotate">
<polygon fill="white" stroke="black" points="615.5,-6.5 615.5,-25.5 728.5,-25.5 728.5,-6.5 615.5,-6.5"/>
<text text-anchor="middle" x="672" y="-13.5" font-family="Helvetica,sans-Serif" font-size="10.00">gui.TurtleView.rotate</text>
</a>
</g>
</g>
<!-- Node17&#45;&gt;Node18 -->
<g id="edge17" class="edge"><title>Node17&#45;&gt;Node18</title>
<path fill="none" stroke="midnightblue" d="M545.59,-41.0819C567.601,-36.6798 592.047,-31.7907 613.466,-27.5068"/>
<polygon fill="midnightblue" stroke="midnightblue" points="614.274,-30.9146 623.394,-25.5213 612.901,-24.0505 614.274,-30.9146"/>
</g>
<!-- Node19 -->
<g id="node19" class="node"><title>Node19</title>
<g id="a_node19"><a xlink:href="../../d8/d8b/classgui_1_1_view.html#a9df94efe60af56c89531c45f0f3f9624" target="_top" xlink:title="gui.View.setNewPoint">
<polygon fill="white" stroke="black" points="613.5,-44.5 613.5,-63.5 730.5,-63.5 730.5,-44.5 613.5,-44.5"/>
<text text-anchor="middle" x="672" y="-51.5" font-family="Helvetica,sans-Serif" font-size="10.00">gui.View.setNewPoint</text>
</a>
</g>
</g>
<!-- Node17&#45;&gt;Node19 -->
<g id="edge18" class="edge"><title>Node17&#45;&gt;Node19</title>
<path fill="none" stroke="midnightblue" d="M545.59,-54C564.108,-54 584.348,-54 603.061,-54"/>
<polygon fill="midnightblue" stroke="midnightblue" points="603.278,-57.5001 613.278,-54 603.278,-50.5001 603.278,-57.5001"/>
</g>
</g>
</svg>
        <g id="navigator" transform="translate(0 0)" fill="#404254">
                <rect fill="#f2f5e9" fill-opacity="0.5" stroke="#606060" stroke-width=".5" x="0" y="0" width="60" height="60"/>
                <use id="zoomplus" xlink:href="#zoomPlus" x="17" y="9" onmousedown="handleZoom(evt,'in')"/>
                <use id="zoomminus" xlink:href="#zoomMin" x="42" y="9" onmousedown="handleZoom(evt,'out')"/>
                <use id="reset" xlink:href="#resetDef" x="30" y="36" onmousedown="handleReset()"/>
                <g id="arrowUp" xlink:href="#dirArrow" transform="translate(30 24)" onmousedown="handlePan(0,-1)">
                  <use xlink:href="#rim" fill="#404040">
                        <set attributeName="fill" to="#808080" begin="arrowUp.mouseover" end="arrowUp.mouseout"/>
                  </use>
                  <path fill="none" stroke="white" stroke-width="1.5" d="M0,-3.0v7 M-2.5,-0.5L0,-3.0L2.5,-0.5"/>
                </g>
                <g id="arrowRight" xlink:href="#dirArrow" transform="rotate(90) translate(36 -43)" onmousedown="handlePan(1,0)">
                  <use xlink:href="#rim" fill="#404040">
                        <set attributeName="fill" to="#808080" begin="arrowRight.mouseover" end="arrowRight.mouseout"/>
                  </use>
                  <path fill="none" stroke="white" stroke-width="1.5" d="M0,-3.0v7 M-2.5,-0.5L0,-3.0L2.5,-0.5"/>
                </g>
                <g id="arrowDown" xlink:href="#dirArrow" transform="rotate(180) translate(-30 -48)" onmousedown="handlePan(0,1)">
                  <use xlink:href="#rim" fill="#404040">
                        <set attributeName="fill" to="#808080" begin="arrowDown.mouseover" end="arrowDown.mouseout"/>
                  </use>
                  <path fill="none" stroke="white" stroke-width="1.5" d="M0,-3.0v7 M-2.5,-0.5L0,-3.0L2.5,-0.5"/>
                </g>
                <g id="arrowLeft" xlink:href="#dirArrow" transform="rotate(270) translate(-36 17)" onmousedown="handlePan(-1,0)">
                  <use xlink:href="#rim" fill="#404040">
                        <set attributeName="fill" to="#808080" begin="arrowLeft.mouseover" end="arrowLeft.mouseout"/>
                  </use>
                  <path fill="none" stroke="white" stroke-width="1.5" d="M0,-3.0v7 M-2.5,-0.5L0,-3.0L2.5,-0.5"/>
                </g>
        </g>
        <svg viewBox="0 0 15 15" width="100%" height="30px" preserveAspectRatio="xMaxYMin meet">
         <g id="arrow_out" transform="scale(0.3 0.3)">
          <a xlink:href="classapplication_1_1_view_handler2_a0e3021726260bc0112ea6b6deef82aaa_cgraph_org.svg" target="_base">
           <rect id="button" ry="5" rx="5" y="6" x="6" height="38" width="38"
                fill="#f2f5e9" fill-opacity="0.5" stroke="#606060" stroke-width="1.0"/>
           <path id="arrow"
             d="M 11.500037,31.436501 C 11.940474,20.09759 22.043105,11.32322 32.158766,21.979434 L 37.068811,17.246167 C 37.068811,17.246167 37.088388,32 37.088388,32 L 22.160133,31.978069 C 22.160133,31.978069 26.997745,27.140456 26.997745,27.140456 C 18.528582,18.264221 13.291696,25.230495 11.500037,31.436501 z"
             style="fill:#404040;"/>
          </a>
         </g>
        </svg>
</svg>
