<?xml version="1.0" encoding="UTF-8" standalone="no"?>
<!DOCTYPE svg PUBLIC "-//W3C//DTD SVG 1.1//EN"
 "http://www.w3.org/Graphics/SVG/1.1/DTD/svg11.dtd">
<!-- Generated by graphviz version 2.36.0 (20140111.2315)
 -->
<!-- Title: application.ViewHandler2.setTurtleLocToViewTurtleLoc Pages: 1 -->
<svg width="356pt" height="66pt"
 viewBox="0.00 0.00 356.00 66.00" xmlns="http://www.w3.org/2000/svg" xmlns:xlink="http://www.w3.org/1999/xlink">
<g id="graph0" class="graph" transform="scale(1 1) rotate(0) translate(4 62)">
<title>application.ViewHandler2.setTurtleLocToViewTurtleLoc</title>
<polygon fill="white" stroke="none" points="-4,4 -4,-62 352,-62 352,4 -4,4"/>
<!-- Node1 -->
<g id="node1" class="node"><title>Node1</title>
<polygon fill="#bfbfbf" stroke="black" points="0.5,-14 0.5,-44 155.5,-44 155.5,-14 0.5,-14"/>
<text text-anchor="start" x="8.5" y="-32" font-family="Helvetica,sans-Serif" font-size="10.00">application.ViewHandler2.set</text>
<text text-anchor="middle" x="78" y="-21" font-family="Helvetica,sans-Serif" font-size="10.00">TurtleLocToViewTurtleLoc</text>
</g>
<!-- Node2 -->
<g id="node2" class="node"><title>Node2</title>
<g id="a_node2"><a xlink:href="../../d8/d8b/classgui_1_1_view.html#a805679dcb8753b21508755667f09fac9" target="_top" xlink:title="gui.View.getNewPoint">
<polygon fill="white" stroke="black" points="211,-38.5 211,-57.5 329,-57.5 329,-38.5 211,-38.5"/>
<text text-anchor="middle" x="270" y="-45.5" font-family="Helvetica,sans-Serif" font-size="10.00">gui.View.getNewPoint</text>
</a>
</g>
</g>
<!-- Node1&#45;&gt;Node2 -->
<g id="edge1" class="edge"><title>Node1&#45;&gt;Node2</title>
<path fill="none" stroke="midnightblue" d="M155.733,-36.6733C170.712,-38.1712 186.32,-39.732 200.992,-41.1992"/>
<polygon fill="midnightblue" stroke="midnightblue" points="200.682,-44.6856 210.981,-42.1981 201.378,-37.7203 200.682,-44.6856"/>
</g>
<!-- Node3 -->
<g id="node3" class="node"><title>Node3</title>
<g id="a_node3"><a xlink:href="../../d1/d31/classapplication_1_1_turtle.html#a1055014d20f219b829679d8d4f3e0d97" target="_top" xlink:title="application.Turtle.setLocation">
<polygon fill="white" stroke="black" points="192.5,-0.5 192.5,-19.5 347.5,-19.5 347.5,-0.5 192.5,-0.5"/>
<text text-anchor="middle" x="270" y="-7.5" font-family="Helvetica,sans-Serif" font-size="10.00">application.Turtle.setLocation</text>
</a>
</g>
</g>
<!-- Node1&#45;&gt;Node3 -->
<g id="edge2" class="edge"><title>Node1&#45;&gt;Node3</title>
<path fill="none" stroke="midnightblue" d="M155.733,-21.3267C164.488,-20.4512 173.458,-19.5542 182.331,-18.6669"/>
<polygon fill="midnightblue" stroke="midnightblue" points="182.688,-22.1488 192.29,-17.671 181.991,-15.1835 182.688,-22.1488"/>
</g>
</g>
</svg>
