<?xml version="1.0" encoding="UTF-8" standalone="no"?>
<!DOCTYPE svg PUBLIC "-//W3C//DTD SVG 1.1//EN"
 "http://www.w3.org/Graphics/SVG/1.1/DTD/svg11.dtd">
<!-- Generated by graphviz version 2.36.0 (20140111.2315)
 -->
<!-- Title: application.ViewHandler2.getTurtleLocation Pages: 1 -->
<!--zoomable 274 -->
<svg id="main" version="1.1" xmlns="http://www.w3.org/2000/svg" xmlns:xlink="http://www.w3.org/1999/xlink" xml:space="preserve" onload="init(evt)">
<style type="text/css"><![CDATA[
.edge:hover path { stroke: red; }
.edge:hover polygon { stroke: red; fill: red; }
]]></style>
<script type="text/javascript"><![CDATA[
var edges = document.getElementsByTagName('g');
if (edges && edges.length) {
  for (var i=0;i<edges.length;i++) {
    if (edges[i].id.substr(0,4)=='edge') {
      edges[i].setAttribute('class','edge');
    }
  }
}
]]></script>
        <defs>
                <circle id="rim" cx="0" cy="0" r="7"/>
                <circle id="rim2" cx="0" cy="0" r="3.5"/>
                <g id="zoomPlus">
                        <use xlink:href="#rim" fill="#404040">
                                <set attributeName="fill" to="#808080" begin="zoomplus.mouseover" end="zoomplus.mouseout"/>
                        </use>
                        <path d="M-4,0h8M0,-4v8" fill="none" stroke="white" stroke-width="1.5" pointer-events="none"/>
                </g>
                <g id="zoomMin">
                        <use xlink:href="#rim" fill="#404040">
                                <set attributeName="fill" to="#808080" begin="zoomminus.mouseover" end="zoomminus.mouseout"/>
                        </use>
                        <path d="M-4,0h8" fill="none" stroke="white" stroke-width="1.5" pointer-events="none"/>
                </g>
                <g id="dirArrow">
                        <path fill="none" stroke="white" stroke-width="1.5" d="M0,-3.0v7 M-2.5,-0.5L0,-3.0L2.5,-0.5"/>
                </g>
               <g id="resetDef">
                       <use xlink:href="#rim2" fill="#404040">
                               <set attributeName="fill" to="#808080" begin="reset.mouseover" end="reset.mouseout"/>
                       </use>
               </g>
        </defs>

<script type="text/javascript">
var viewWidth = 1180;
var viewHeight = 274;
var sectionId = 'dynsection-7';
</script>
<script xlink:href="../../svgpan.js"/>
<svg id="graph" class="graph">
<g id="viewport">
<title>application.ViewHandler2.getTurtleLocation</title>
<polygon fill="white" stroke="none" points="-4,4 -4,-270 1176,-270 1176,4 -4,4"/>
<!-- Node1 -->
<g id="node1" class="node"><title>Node1</title>
<polygon fill="#bfbfbf" stroke="black" points="0.5,-142 0.5,-172 155.5,-172 155.5,-142 0.5,-142"/>
<text text-anchor="start" x="8.5" y="-160" font-family="Helvetica,sans-Serif" font-size="10.00">application.ViewHandler2.get</text>
<text text-anchor="middle" x="78" y="-149" font-family="Helvetica,sans-Serif" font-size="10.00">TurtleLocation</text>
</g>
<!-- Node2 -->
<g id="node2" class="node"><title>Node2</title>
<g id="a_node2"><a xlink:href="../../d3/de0/classapplication_1_1_view_handler2.html#a86919837e2dcf639d2f537d41eb5bd1a" target="_top" xlink:title="application.ViewHandler2.set\lInfoParamsOfTurtleAndLine">
<polygon fill="white" stroke="black" points="192.5,-164 192.5,-194 347.5,-194 347.5,-164 192.5,-164"/>
<text text-anchor="start" x="200.5" y="-182" font-family="Helvetica,sans-Serif" font-size="10.00">application.ViewHandler2.set</text>
<text text-anchor="middle" x="270" y="-171" font-family="Helvetica,sans-Serif" font-size="10.00">InfoParamsOfTurtleAndLine</text>
</a>
</g>
</g>
<!-- Node1&#45;&gt;Node2 -->
<g id="edge1" class="edge"><title>Node1&#45;&gt;Node2</title>
<path fill="none" stroke="midnightblue" d="M165.692,-167.038C174.565,-168.065 183.535,-169.104 192.29,-170.118"/>
<polygon fill="midnightblue" stroke="midnightblue" points="166.069,-163.558 155.733,-165.885 165.264,-170.512 166.069,-163.558"/>
</g>
<!-- Node5 -->
<g id="node5" class="node"><title>Node5</title>
<g id="a_node5"><a xlink:href="../../d3/de0/classapplication_1_1_view_handler2.html#adef8a4ac6b5b11687e8ecb1c05253287" target="_top" xlink:title="application.ViewHandler2.update\lTurtleOnView">
<polygon fill="white" stroke="black" points="386.5,-120 386.5,-150 559.5,-150 559.5,-120 386.5,-120"/>
<text text-anchor="start" x="394.5" y="-138" font-family="Helvetica,sans-Serif" font-size="10.00">application.ViewHandler2.update</text>
<text text-anchor="middle" x="473" y="-127" font-family="Helvetica,sans-Serif" font-size="10.00">TurtleOnView</text>
</a>
</g>
</g>
<!-- Node1&#45;&gt;Node5 -->
<g id="edge13" class="edge"><title>Node1&#45;&gt;Node5</title>
<path fill="none" stroke="midnightblue" d="M166.017,-152.129C231.579,-148.459 321.023,-143.452 386.269,-139.799"/>
<polygon fill="midnightblue" stroke="midnightblue" points="165.496,-148.652 155.707,-152.706 165.887,-155.641 165.496,-148.652"/>
</g>
<!-- Node3 -->
<g id="node3" class="node"><title>Node3</title>
<g id="a_node3"><a xlink:href="../../d3/de0/classapplication_1_1_view_handler2.html#a3544f8be953d5b1e93f29786bc91e6c9" target="_top" xlink:title="application.ViewHandler2.initialize\lTurtle">
<polygon fill="white" stroke="black" points="384,-213 384,-243 562,-243 562,-213 384,-213"/>
<text text-anchor="start" x="392" y="-231" font-family="Helvetica,sans-Serif" font-size="10.00">application.ViewHandler2.initialize</text>
<text text-anchor="middle" x="473" y="-220" font-family="Helvetica,sans-Serif" font-size="10.00">Turtle</text>
</a>
</g>
</g>
<!-- Node2&#45;&gt;Node3 -->
<g id="edge2" class="edge"><title>Node2&#45;&gt;Node3</title>
<path fill="none" stroke="midnightblue" d="M342.391,-196.404C364.626,-201.824 388.942,-207.752 410.444,-212.994"/>
<polygon fill="midnightblue" stroke="midnightblue" points="343.217,-193.003 332.673,-194.035 341.559,-199.804 343.217,-193.003"/>
</g>
<!-- Node2&#45;&gt;Node5 -->
<g id="edge4" class="edge"><title>Node2&#45;&gt;Node5</title>
<path fill="none" stroke="midnightblue" d="M349.39,-161.84C367.202,-157.941 385.988,-153.829 403.358,-150.026"/>
<polygon fill="midnightblue" stroke="midnightblue" points="348.631,-158.423 339.611,-163.981 350.128,-165.261 348.631,-158.423"/>
</g>
<!-- Node4 -->
<g id="node4" class="node"><title>Node4</title>
<g id="a_node4"><a xlink:href="../../d3/de0/classapplication_1_1_view_handler2.html#ab9f42981fade26d0f6d67bd9dec9181f" target="_top" xlink:title="application.ViewHandler2.\lViewHandler2">
<polygon fill="white" stroke="black" points="613,-235 613,-265 753,-265 753,-235 613,-235"/>
<text text-anchor="start" x="621" y="-253" font-family="Helvetica,sans-Serif" font-size="10.00">application.ViewHandler2.</text>
<text text-anchor="middle" x="683" y="-242" font-family="Helvetica,sans-Serif" font-size="10.00">ViewHandler2</text>
</a>
</g>
</g>
<!-- Node3&#45;&gt;Node4 -->
<g id="edge3" class="edge"><title>Node3&#45;&gt;Node4</title>
<path fill="none" stroke="midnightblue" d="M572.189,-238.385C585.943,-239.84 599.834,-241.309 612.895,-242.691"/>
<polygon fill="midnightblue" stroke="midnightblue" points="572.523,-234.901 562.211,-237.33 571.787,-241.862 572.523,-234.901"/>
</g>
<!-- Node6 -->
<g id="node6" class="node"><title>Node6</title>
<g id="a_node6"><a xlink:href="../../d3/de0/classapplication_1_1_view_handler2.html#abaa9dc9add64d8386b9f7fc37152d620" target="_top" xlink:title="application.ViewHandler2.set\lTurtleLocAndMove">
<polygon fill="white" stroke="black" points="804.5,-169 804.5,-199 959.5,-199 959.5,-169 804.5,-169"/>
<text text-anchor="start" x="812.5" y="-187" font-family="Helvetica,sans-Serif" font-size="10.00">application.ViewHandler2.set</text>
<text text-anchor="middle" x="882" y="-176" font-family="Helvetica,sans-Serif" font-size="10.00">TurtleLocAndMove</text>
</a>
</g>
</g>
<!-- Node5&#45;&gt;Node6 -->
<g id="edge5" class="edge"><title>Node5&#45;&gt;Node6</title>
<path fill="none" stroke="midnightblue" d="M510.694,-154.539C534.769,-166.225 567.357,-179.945 598,-186 666.807,-199.597 746.873,-197.409 804.247,-192.811"/>
<polygon fill="midnightblue" stroke="midnightblue" points="512.094,-151.327 501.581,-150.016 508.982,-157.597 512.094,-151.327"/>
</g>
<!-- Node9 -->
<g id="node9" class="node"><title>Node9</title>
<g id="a_node9"><a xlink:href="../../d3/de0/classapplication_1_1_view_handler2.html#ab87b30f73cb5e726f4fcc6b6f60f8007" target="_top" xlink:title="application.ViewHandler2.move\lTurtleImageAndDraw">
<polygon fill="white" stroke="black" points="599.5,-147 599.5,-177 766.5,-177 766.5,-147 599.5,-147"/>
<text text-anchor="start" x="607.5" y="-165" font-family="Helvetica,sans-Serif" font-size="10.00">application.ViewHandler2.move</text>
<text text-anchor="middle" x="683" y="-154" font-family="Helvetica,sans-Serif" font-size="10.00">TurtleImageAndDraw</text>
</a>
</g>
</g>
<!-- Node5&#45;&gt;Node9 -->
<g id="edge8" class="edge"><title>Node5&#45;&gt;Node9</title>
<path fill="none" stroke="midnightblue" d="M569.707,-147.424C579.55,-148.701 589.491,-149.992 599.177,-151.249"/>
<polygon fill="midnightblue" stroke="midnightblue" points="569.869,-143.915 559.502,-146.099 568.968,-150.857 569.869,-143.915"/>
</g>
<!-- Node10 -->
<g id="node10" class="node"><title>Node10</title>
<g id="a_node10"><a xlink:href="../../d3/de0/classapplication_1_1_view_handler2.html#a4dfbbb48e3c3c7bc5db71a2a308a1b7c" target="_top" xlink:title="application.ViewHandler2.rotate\lTurtle">
<polygon fill="white" stroke="black" points="598.5,-98 598.5,-128 767.5,-128 767.5,-98 598.5,-98"/>
<text text-anchor="start" x="606.5" y="-116" font-family="Helvetica,sans-Serif" font-size="10.00">application.ViewHandler2.rotate</text>
<text text-anchor="middle" x="683" y="-105" font-family="Helvetica,sans-Serif" font-size="10.00">Turtle</text>
</a>
</g>
</g>
<!-- Node5&#45;&gt;Node10 -->
<g id="edge10" class="edge"><title>Node5&#45;&gt;Node10</title>
<path fill="none" stroke="midnightblue" d="M569.747,-124.873C579.236,-123.869 588.818,-122.856 598.172,-121.866"/>
<polygon fill="midnightblue" stroke="midnightblue" points="569.078,-121.424 559.502,-125.957 569.815,-128.385 569.078,-121.424"/>
</g>
<!-- Node11 -->
<g id="node11" class="node"><title>Node11</title>
<g id="a_node11"><a xlink:href="../../d3/de0/classapplication_1_1_view_handler2.html#a0e3021726260bc0112ea6b6deef82aaa" target="_top" xlink:title="application.ViewHandler2.set\lTurtleOrientation">
<polygon fill="white" stroke="black" points="605.5,-49 605.5,-79 760.5,-79 760.5,-49 605.5,-49"/>
<text text-anchor="start" x="613.5" y="-67" font-family="Helvetica,sans-Serif" font-size="10.00">application.ViewHandler2.set</text>
<text text-anchor="middle" x="683" y="-56" font-family="Helvetica,sans-Serif" font-size="10.00">TurtleOrientation</text>
</a>
</g>
</g>
<!-- Node5&#45;&gt;Node11 -->
<g id="edge11" class="edge"><title>Node5&#45;&gt;Node11</title>
<path fill="none" stroke="midnightblue" d="M520.699,-116.237C543.795,-107.23 572.188,-96.5624 598,-88 607.213,-84.9438 617.07,-81.9157 626.672,-79.0927"/>
<polygon fill="midnightblue" stroke="midnightblue" points="519.179,-113.074 511.148,-119.984 521.736,-119.59 519.179,-113.074"/>
</g>
<!-- Node12 -->
<g id="node12" class="node"><title>Node12</title>
<g id="a_node12"><a xlink:href="../../d3/de0/classapplication_1_1_view_handler2.html#a204e29a9937f99e85d42c948f58012c1" target="_top" xlink:title="application.ViewHandler2.show\lTurtle">
<polygon fill="white" stroke="black" points="601,-0 601,-30 765,-30 765,-0 601,-0"/>
<text text-anchor="start" x="609" y="-18" font-family="Helvetica,sans-Serif" font-size="10.00">application.ViewHandler2.show</text>
<text text-anchor="middle" x="683" y="-7" font-family="Helvetica,sans-Serif" font-size="10.00">Turtle</text>
</a>
</g>
</g>
<!-- Node5&#45;&gt;Node12 -->
<g id="edge12" class="edge"><title>Node5&#45;&gt;Node12</title>
<path fill="none" stroke="midnightblue" d="M496.872,-112.892C520.451,-91.222 559.153,-58.6622 598,-39 604.631,-35.6438 611.801,-32.6932 619.06,-30.1158"/>
<polygon fill="midnightblue" stroke="midnightblue" points="494.403,-110.409 489.478,-119.79 499.178,-115.528 494.403,-110.409"/>
</g>
<!-- Node7 -->
<g id="node7" class="node"><title>Node7</title>
<g id="a_node7"><a xlink:href="../../d3/de0/classapplication_1_1_view_handler2.html#ac682f2c1ca441598b6d29fe899e7f468" target="_top" xlink:title="application.ViewHandler2.move\lTurtle">
<polygon fill="white" stroke="black" points="1000.5,-194 1000.5,-224 1167.5,-224 1167.5,-194 1000.5,-194"/>
<text text-anchor="start" x="1008.5" y="-212" font-family="Helvetica,sans-Serif" font-size="10.00">application.ViewHandler2.move</text>
<text text-anchor="middle" x="1084" y="-201" font-family="Helvetica,sans-Serif" font-size="10.00">Turtle</text>
</a>
</g>
</g>
<!-- Node6&#45;&gt;Node7 -->
<g id="edge6" class="edge"><title>Node6&#45;&gt;Node7</title>
<path fill="none" stroke="midnightblue" d="M969.844,-194.855C980.011,-196.126 990.364,-197.42 1000.47,-198.684"/>
<polygon fill="midnightblue" stroke="midnightblue" points="970.11,-191.362 959.753,-193.594 969.242,-198.308 970.11,-191.362"/>
</g>
<!-- Node8 -->
<g id="node8" class="node"><title>Node8</title>
<g id="a_node8"><a xlink:href="../../d3/de0/classapplication_1_1_view_handler2.html#acd04df701dbbc0a759c79058966f8264" target="_top" xlink:title="application.ViewHandler2.change\lLocationOfTurtle">
<polygon fill="white" stroke="black" points="996.5,-145 996.5,-175 1171.5,-175 1171.5,-145 996.5,-145"/>
<text text-anchor="start" x="1004.5" y="-163" font-family="Helvetica,sans-Serif" font-size="10.00">application.ViewHandler2.change</text>
<text text-anchor="middle" x="1084" y="-152" font-family="Helvetica,sans-Serif" font-size="10.00">LocationOfTurtle</text>
</a>
</g>
</g>
<!-- Node6&#45;&gt;Node8 -->
<g id="edge7" class="edge"><title>Node6&#45;&gt;Node8</title>
<path fill="none" stroke="midnightblue" d="M969.694,-173.597C978.565,-172.532 987.579,-171.45 996.449,-170.386"/>
<polygon fill="midnightblue" stroke="midnightblue" points="969.265,-170.123 959.753,-174.79 970.099,-177.073 969.265,-170.123"/>
</g>
<!-- Node9&#45;&gt;Node6 -->
<g id="edge9" class="edge"><title>Node9&#45;&gt;Node6</title>
<path fill="none" stroke="midnightblue" d="M776.733,-172.356C786.028,-173.394 795.392,-174.44 804.492,-175.456"/>
<polygon fill="midnightblue" stroke="midnightblue" points="777.016,-168.866 766.689,-171.234 776.239,-175.823 777.016,-168.866"/>
</g>
</g>
</svg>
        <g id="navigator" transform="translate(0 0)" fill="#404254">
                <rect fill="#f2f5e9" fill-opacity="0.5" stroke="#606060" stroke-width=".5" x="0" y="0" width="60" height="60"/>
                <use id="zoomplus" xlink:href="#zoomPlus" x="17" y="9" onmousedown="handleZoom(evt,'in')"/>
                <use id="zoomminus" xlink:href="#zoomMin" x="42" y="9" onmousedown="handleZoom(evt,'out')"/>
                <use id="reset" xlink:href="#resetDef" x="30" y="36" onmousedown="handleReset()"/>
                <g id="arrowUp" xlink:href="#dirArrow" transform="translate(30 24)" onmousedown="handlePan(0,-1)">
                  <use xlink:href="#rim" fill="#404040">
                        <set attributeName="fill" to="#808080" begin="arrowUp.mouseover" end="arrowUp.mouseout"/>
                  </use>
                  <path fill="none" stroke="white" stroke-width="1.5" d="M0,-3.0v7 M-2.5,-0.5L0,-3.0L2.5,-0.5"/>
                </g>
                <g id="arrowRight" xlink:href="#dirArrow" transform="rotate(90) translate(36 -43)" onmousedown="handlePan(1,0)">
                  <use xlink:href="#rim" fill="#404040">
                        <set attributeName="fill" to="#808080" begin="arrowRight.mouseover" end="arrowRight.mouseout"/>
                  </use>
                  <path fill="none" stroke="white" stroke-width="1.5" d="M0,-3.0v7 M-2.5,-0.5L0,-3.0L2.5,-0.5"/>
                </g>
                <g id="arrowDown" xlink:href="#dirArrow" transform="rotate(180) translate(-30 -48)" onmousedown="handlePan(0,1)">
                  <use xlink:href="#rim" fill="#404040">
                        <set attributeName="fill" to="#808080" begin="arrowDown.mouseover" end="arrowDown.mouseout"/>
                  </use>
                  <path fill="none" stroke="white" stroke-width="1.5" d="M0,-3.0v7 M-2.5,-0.5L0,-3.0L2.5,-0.5"/>
                </g>
                <g id="arrowLeft" xlink:href="#dirArrow" transform="rotate(270) translate(-36 17)" onmousedown="handlePan(-1,0)">
                  <use xlink:href="#rim" fill="#404040">
                        <set attributeName="fill" to="#808080" begin="arrowLeft.mouseover" end="arrowLeft.mouseout"/>
                  </use>
                  <path fill="none" stroke="white" stroke-width="1.5" d="M0,-3.0v7 M-2.5,-0.5L0,-3.0L2.5,-0.5"/>
                </g>
        </g>
        <svg viewBox="0 0 15 15" width="100%" height="30px" preserveAspectRatio="xMaxYMin meet">
         <g id="arrow_out" transform="scale(0.3 0.3)">
          <a xlink:href="classapplication_1_1_view_handler2_a64f43a60dc4ed9c575e910ffb9b2872d_icgraph_org.svg" target="_base">
           <rect id="button" ry="5" rx="5" y="6" x="6" height="38" width="38"
                fill="#f2f5e9" fill-opacity="0.5" stroke="#606060" stroke-width="1.0"/>
           <path id="arrow"
             d="M 11.500037,31.436501 C 11.940474,20.09759 22.043105,11.32322 32.158766,21.979434 L 37.068811,17.246167 C 37.068811,17.246167 37.088388,32 37.088388,32 L 22.160133,31.978069 C 22.160133,31.978069 26.997745,27.140456 26.997745,27.140456 C 18.528582,18.264221 13.291696,25.230495 11.500037,31.436501 z"
             style="fill:#404040;"/>
          </a>
         </g>
        </svg>
</svg>
