<?xml version="1.0" encoding="UTF-8" standalone="no"?>
<!DOCTYPE svg PUBLIC "-//W3C//DTD SVG 1.1//EN"
 "http://www.w3.org/Graphics/SVG/1.1/DTD/svg11.dtd">
<!-- Generated by graphviz version 2.36.0 (20140111.2315)
 -->
<!-- Title: application.ViewHandler2.updateTurtleOnView Pages: 1 -->
<svg width="792pt" height="227pt"
 viewBox="0.00 0.00 792.00 227.00" xmlns="http://www.w3.org/2000/svg" xmlns:xlink="http://www.w3.org/1999/xlink">
<g id="graph0" class="graph" transform="scale(1 1) rotate(0) translate(4 223)">
<title>application.ViewHandler2.updateTurtleOnView</title>
<polygon fill="white" stroke="none" points="-4,4 -4,-223 788,-223 788,4 -4,4"/>
<!-- Node1 -->
<g id="node1" class="node"><title>Node1</title>
<polygon fill="#bfbfbf" stroke="black" points="0.5,-98 0.5,-128 173.5,-128 173.5,-98 0.5,-98"/>
<text text-anchor="start" x="8.5" y="-116" font-family="Helvetica,sans-Serif" font-size="10.00">application.ViewHandler2.update</text>
<text text-anchor="middle" x="87" y="-105" font-family="Helvetica,sans-Serif" font-size="10.00">TurtleOnView</text>
</g>
<!-- Node2 -->
<g id="node2" class="node"><title>Node2</title>
<g id="a_node2"><a xlink:href="../../d3/de0/classapplication_1_1_view_handler2.html#ab87b30f73cb5e726f4fcc6b6f60f8007" target="_top" xlink:title="application.ViewHandler2.move\lTurtleImageAndDraw">
<polygon fill="white" stroke="black" points="211.5,-186 211.5,-216 378.5,-216 378.5,-186 211.5,-186"/>
<text text-anchor="start" x="219.5" y="-204" font-family="Helvetica,sans-Serif" font-size="10.00">application.ViewHandler2.move</text>
<text text-anchor="middle" x="295" y="-193" font-family="Helvetica,sans-Serif" font-size="10.00">TurtleImageAndDraw</text>
</a>
</g>
</g>
<!-- Node1&#45;&gt;Node2 -->
<g id="edge1" class="edge"><title>Node1&#45;&gt;Node2</title>
<path fill="none" stroke="midnightblue" d="M126.747,-132.65C150.507,-144.39 181.699,-159.254 210,-171 222.586,-176.224 236.445,-181.401 249.215,-185.947"/>
<polygon fill="midnightblue" stroke="midnightblue" points="128.215,-129.471 117.703,-128.154 125.1,-135.739 128.215,-129.471"/>
</g>
<!-- Node3 -->
<g id="node3" class="node"><title>Node3</title>
<g id="a_node3"><a xlink:href="../../d3/de0/classapplication_1_1_view_handler2.html#abaa9dc9add64d8386b9f7fc37152d620" target="_top" xlink:title="application.ViewHandler2.set\lTurtleLocAndMove">
<polygon fill="white" stroke="black" points="416.5,-164 416.5,-194 571.5,-194 571.5,-164 416.5,-164"/>
<text text-anchor="start" x="424.5" y="-182" font-family="Helvetica,sans-Serif" font-size="10.00">application.ViewHandler2.set</text>
<text text-anchor="middle" x="494" y="-171" font-family="Helvetica,sans-Serif" font-size="10.00">TurtleLocAndMove</text>
</a>
</g>
</g>
<!-- Node1&#45;&gt;Node3 -->
<g id="edge6" class="edge"><title>Node1&#45;&gt;Node3</title>
<path fill="none" stroke="midnightblue" d="M171.27,-129.922C184.218,-132.396 197.456,-134.837 210,-137 279.628,-149.009 359.256,-160.64 416.273,-168.605"/>
<polygon fill="midnightblue" stroke="midnightblue" points="171.924,-126.483 161.443,-128.027 170.599,-133.357 171.924,-126.483"/>
</g>
<!-- Node6 -->
<g id="node6" class="node"><title>Node6</title>
<g id="a_node6"><a xlink:href="../../d3/de0/classapplication_1_1_view_handler2.html#a4dfbbb48e3c3c7bc5db71a2a308a1b7c" target="_top" xlink:title="application.ViewHandler2.rotate\lTurtle">
<polygon fill="white" stroke="black" points="210.5,-98 210.5,-128 379.5,-128 379.5,-98 210.5,-98"/>
<text text-anchor="start" x="218.5" y="-116" font-family="Helvetica,sans-Serif" font-size="10.00">application.ViewHandler2.rotate</text>
<text text-anchor="middle" x="295" y="-105" font-family="Helvetica,sans-Serif" font-size="10.00">Turtle</text>
</a>
</g>
</g>
<!-- Node1&#45;&gt;Node6 -->
<g id="edge5" class="edge"><title>Node1&#45;&gt;Node6</title>
<path fill="none" stroke="midnightblue" d="M183.608,-113C192.537,-113 201.541,-113 210.349,-113"/>
<polygon fill="midnightblue" stroke="midnightblue" points="183.573,-109.5 173.573,-113 183.573,-116.5 183.573,-109.5"/>
</g>
<!-- Node7 -->
<g id="node7" class="node"><title>Node7</title>
<g id="a_node7"><a xlink:href="../../d3/de0/classapplication_1_1_view_handler2.html#a0e3021726260bc0112ea6b6deef82aaa" target="_top" xlink:title="application.ViewHandler2.set\lTurtleOrientation">
<polygon fill="white" stroke="black" points="217.5,-49 217.5,-79 372.5,-79 372.5,-49 217.5,-49"/>
<text text-anchor="start" x="225.5" y="-67" font-family="Helvetica,sans-Serif" font-size="10.00">application.ViewHandler2.set</text>
<text text-anchor="middle" x="295" y="-56" font-family="Helvetica,sans-Serif" font-size="10.00">TurtleOrientation</text>
</a>
</g>
</g>
<!-- Node1&#45;&gt;Node7 -->
<g id="edge7" class="edge"><title>Node1&#45;&gt;Node7</title>
<path fill="none" stroke="midnightblue" d="M161.167,-95.5962C183.955,-90.1757 208.876,-84.248 230.913,-79.0062"/>
<polygon fill="midnightblue" stroke="midnightblue" points="160.125,-92.2462 151.207,-97.9654 161.745,-99.0562 160.125,-92.2462"/>
</g>
<!-- Node8 -->
<g id="node8" class="node"><title>Node8</title>
<g id="a_node8"><a xlink:href="../../d3/de0/classapplication_1_1_view_handler2.html#a204e29a9937f99e85d42c948f58012c1" target="_top" xlink:title="application.ViewHandler2.show\lTurtle">
<polygon fill="white" stroke="black" points="213,-0 213,-30 377,-30 377,-0 213,-0"/>
<text text-anchor="start" x="221" y="-18" font-family="Helvetica,sans-Serif" font-size="10.00">application.ViewHandler2.show</text>
<text text-anchor="middle" x="295" y="-7" font-family="Helvetica,sans-Serif" font-size="10.00">Turtle</text>
</a>
</g>
</g>
<!-- Node1&#45;&gt;Node8 -->
<g id="edge8" class="edge"><title>Node1&#45;&gt;Node8</title>
<path fill="none" stroke="midnightblue" d="M117.914,-92.203C141.939,-76.2272 176.997,-54.5109 210,-40 218.357,-36.3255 227.411,-33.0001 236.376,-30.0621"/>
<polygon fill="midnightblue" stroke="midnightblue" points="115.931,-89.3194 109.587,-97.8051 119.838,-95.1275 115.931,-89.3194"/>
</g>
<!-- Node2&#45;&gt;Node3 -->
<g id="edge2" class="edge"><title>Node2&#45;&gt;Node3</title>
<path fill="none" stroke="midnightblue" d="M388.733,-190.644C398.028,-189.606 407.392,-188.56 416.492,-187.544"/>
<polygon fill="midnightblue" stroke="midnightblue" points="388.239,-187.177 378.689,-191.766 389.016,-194.134 388.239,-187.177"/>
</g>
<!-- Node4 -->
<g id="node4" class="node"><title>Node4</title>
<g id="a_node4"><a xlink:href="../../d3/de0/classapplication_1_1_view_handler2.html#acd04df701dbbc0a759c79058966f8264" target="_top" xlink:title="application.ViewHandler2.change\lLocationOfTurtle">
<polygon fill="white" stroke="black" points="608.5,-189 608.5,-219 783.5,-219 783.5,-189 608.5,-189"/>
<text text-anchor="start" x="616.5" y="-207" font-family="Helvetica,sans-Serif" font-size="10.00">application.ViewHandler2.change</text>
<text text-anchor="middle" x="696" y="-196" font-family="Helvetica,sans-Serif" font-size="10.00">LocationOfTurtle</text>
</a>
</g>
</g>
<!-- Node3&#45;&gt;Node4 -->
<g id="edge3" class="edge"><title>Node3&#45;&gt;Node4</title>
<path fill="none" stroke="midnightblue" d="M581.694,-189.837C590.565,-190.946 599.579,-192.072 608.449,-193.181"/>
<polygon fill="midnightblue" stroke="midnightblue" points="582.11,-186.362 571.753,-188.594 581.242,-193.308 582.11,-186.362"/>
</g>
<!-- Node5 -->
<g id="node5" class="node"><title>Node5</title>
<g id="a_node5"><a xlink:href="../../d3/de0/classapplication_1_1_view_handler2.html#ac682f2c1ca441598b6d29fe899e7f468" target="_top" xlink:title="application.ViewHandler2.move\lTurtle">
<polygon fill="white" stroke="black" points="612.5,-140 612.5,-170 779.5,-170 779.5,-140 612.5,-140"/>
<text text-anchor="start" x="620.5" y="-158" font-family="Helvetica,sans-Serif" font-size="10.00">application.ViewHandler2.move</text>
<text text-anchor="middle" x="696" y="-147" font-family="Helvetica,sans-Serif" font-size="10.00">Turtle</text>
</a>
</g>
</g>
<!-- Node3&#45;&gt;Node5 -->
<g id="edge4" class="edge"><title>Node3&#45;&gt;Node5</title>
<path fill="none" stroke="midnightblue" d="M581.844,-168.579C592.011,-167.359 602.364,-166.116 612.471,-164.904"/>
<polygon fill="midnightblue" stroke="midnightblue" points="581.265,-165.123 571.753,-169.79 582.099,-172.073 581.265,-165.123"/>
</g>
</g>
</svg>
