<?xml version="1.0" encoding="UTF-8" standalone="no"?>
<!DOCTYPE svg PUBLIC "-//W3C//DTD SVG 1.1//EN"
 "http://www.w3.org/Graphics/SVG/1.1/DTD/svg11.dtd">
<!-- Generated by graphviz version 2.36.0 (20140111.2315)
 -->
<!-- Title: application.ViewHandler2.ViewHandler2 Pages: 1 -->
<svg width="1128pt" height="260pt"
 viewBox="0.00 0.00 1128.00 260.00" xmlns="http://www.w3.org/2000/svg" xmlns:xlink="http://www.w3.org/1999/xlink">
<g id="graph0" class="graph" transform="scale(1 1) rotate(0) translate(4 256)">
<title>application.ViewHandler2.ViewHandler2</title>
<polygon fill="white" stroke="none" points="-4,4 -4,-256 1124,-256 1124,4 -4,4"/>
<!-- Node1 -->
<g id="node1" class="node"><title>Node1</title>
<polygon fill="#bfbfbf" stroke="black" points="0,-158 0,-188 140,-188 140,-158 0,-158"/>
<text text-anchor="start" x="8" y="-176" font-family="Helvetica,sans-Serif" font-size="10.00">application.ViewHandler2.</text>
<text text-anchor="middle" x="70" y="-165" font-family="Helvetica,sans-Serif" font-size="10.00">ViewHandler2</text>
</g>
<!-- Node2 -->
<g id="node2" class="node"><title>Node2</title>
<g id="a_node2"><a xlink:href="../../d3/de0/classapplication_1_1_view_handler2.html#a3544f8be953d5b1e93f29786bc91e6c9" target="_top" xlink:title="application.ViewHandler2.initialize\lTurtle">
<polygon fill="white" stroke="black" points="176,-158 176,-188 354,-188 354,-158 176,-158"/>
<text text-anchor="start" x="184" y="-176" font-family="Helvetica,sans-Serif" font-size="10.00">application.ViewHandler2.initialize</text>
<text text-anchor="middle" x="265" y="-165" font-family="Helvetica,sans-Serif" font-size="10.00">Turtle</text>
</a>
</g>
</g>
<!-- Node1&#45;&gt;Node2 -->
<g id="edge1" class="edge"><title>Node1&#45;&gt;Node2</title>
<path fill="none" stroke="midnightblue" d="M140.132,-173C148.451,-173 157.065,-173 165.698,-173"/>
<polygon fill="midnightblue" stroke="midnightblue" points="165.825,-176.5 175.825,-173 165.825,-169.5 165.825,-176.5"/>
</g>
<!-- Node3 -->
<g id="node3" class="node"><title>Node3</title>
<g id="a_node3"><a xlink:href="../../df/dcc/classgui_1_1_turtle_view.html#a70aa01c57164ada0cc895e7b6772501b" target="_top" xlink:title="gui.TurtleView.initialize\lTurtle">
<polygon fill="white" stroke="black" points="407,-183 407,-213 529,-213 529,-183 407,-183"/>
<text text-anchor="start" x="415" y="-201" font-family="Helvetica,sans-Serif" font-size="10.00">gui.TurtleView.initialize</text>
<text text-anchor="middle" x="468" y="-190" font-family="Helvetica,sans-Serif" font-size="10.00">Turtle</text>
</a>
</g>
</g>
<!-- Node2&#45;&gt;Node3 -->
<g id="edge2" class="edge"><title>Node2&#45;&gt;Node3</title>
<path fill="none" stroke="midnightblue" d="M354.162,-183.965C368.367,-185.732 382.906,-187.541 396.621,-189.246"/>
<polygon fill="midnightblue" stroke="midnightblue" points="396.573,-192.767 406.928,-190.528 397.437,-185.821 396.573,-192.767"/>
</g>
<!-- Node4 -->
<g id="node4" class="node"><title>Node4</title>
<g id="a_node4"><a xlink:href="../../d3/de0/classapplication_1_1_view_handler2.html#a86919837e2dcf639d2f537d41eb5bd1a" target="_top" xlink:title="application.ViewHandler2.set\lInfoParamsOfTurtleAndLine">
<polygon fill="white" stroke="black" points="390.5,-134 390.5,-164 545.5,-164 545.5,-134 390.5,-134"/>
<text text-anchor="start" x="398.5" y="-152" font-family="Helvetica,sans-Serif" font-size="10.00">application.ViewHandler2.set</text>
<text text-anchor="middle" x="468" y="-141" font-family="Helvetica,sans-Serif" font-size="10.00">InfoParamsOfTurtleAndLine</text>
</a>
</g>
</g>
<!-- Node2&#45;&gt;Node4 -->
<g id="edge3" class="edge"><title>Node2&#45;&gt;Node4</title>
<path fill="none" stroke="midnightblue" d="M354.162,-162.473C362.804,-161.441 371.571,-160.395 380.2,-159.364"/>
<polygon fill="midnightblue" stroke="midnightblue" points="380.737,-162.825 390.251,-158.164 379.907,-155.874 380.737,-162.825"/>
</g>
<!-- Node5 -->
<g id="node5" class="node"><title>Node5</title>
<g id="a_node5"><a xlink:href="../../df/dcc/classgui_1_1_turtle_view.html#a978020a0f6ccbc4714b77c71435b0799" target="_top" xlink:title="gui.TurtleView.setTurtleInfo">
<polygon fill="white" stroke="black" points="589.5,-232.5 589.5,-251.5 730.5,-251.5 730.5,-232.5 589.5,-232.5"/>
<text text-anchor="middle" x="660" y="-239.5" font-family="Helvetica,sans-Serif" font-size="10.00">gui.TurtleView.setTurtleInfo</text>
</a>
</g>
</g>
<!-- Node4&#45;&gt;Node5 -->
<g id="edge4" class="edge"><title>Node4&#45;&gt;Node5</title>
<path fill="none" stroke="midnightblue" d="M528.421,-164.1C534.63,-166.885 540.626,-170.158 546,-174 567.694,-189.508 559.852,-207.148 582,-222 585.78,-224.535 589.863,-226.749 594.108,-228.682"/>
<polygon fill="midnightblue" stroke="midnightblue" points="593.021,-232.016 603.605,-232.481 595.621,-225.517 593.021,-232.016"/>
</g>
<!-- Node6 -->
<g id="node6" class="node"><title>Node6</title>
<g id="a_node6"><a xlink:href="../../d3/de0/classapplication_1_1_view_handler2.html#a64f43a60dc4ed9c575e910ffb9b2872d" target="_top" xlink:title="application.ViewHandler2.get\lTurtleLocation">
<polygon fill="white" stroke="black" points="582.5,-183 582.5,-213 737.5,-213 737.5,-183 582.5,-183"/>
<text text-anchor="start" x="590.5" y="-201" font-family="Helvetica,sans-Serif" font-size="10.00">application.ViewHandler2.get</text>
<text text-anchor="middle" x="660" y="-190" font-family="Helvetica,sans-Serif" font-size="10.00">TurtleLocation</text>
</a>
</g>
</g>
<!-- Node4&#45;&gt;Node6 -->
<g id="edge5" class="edge"><title>Node4&#45;&gt;Node6</title>
<path fill="none" stroke="midnightblue" d="M527.297,-164.035C547.45,-169.232 570.206,-175.101 591.064,-180.48"/>
<polygon fill="midnightblue" stroke="midnightblue" points="590.256,-183.886 600.813,-182.994 592.004,-177.107 590.256,-183.886"/>
</g>
<!-- Node8 -->
<g id="node8" class="node"><title>Node8</title>
<g id="a_node8"><a xlink:href="../../d3/de0/classapplication_1_1_view_handler2.html#af6fa367df07b3cb1bdceb909e8b3ef21" target="_top" xlink:title="application.ViewHandler2.get\lTurtleOrientation">
<polygon fill="white" stroke="black" points="582.5,-134 582.5,-164 737.5,-164 737.5,-134 582.5,-134"/>
<text text-anchor="start" x="590.5" y="-152" font-family="Helvetica,sans-Serif" font-size="10.00">application.ViewHandler2.get</text>
<text text-anchor="middle" x="660" y="-141" font-family="Helvetica,sans-Serif" font-size="10.00">TurtleOrientation</text>
</a>
</g>
</g>
<!-- Node4&#45;&gt;Node8 -->
<g id="edge7" class="edge"><title>Node4&#45;&gt;Node8</title>
<path fill="none" stroke="midnightblue" d="M545.733,-149C554.394,-149 563.265,-149 572.044,-149"/>
<polygon fill="midnightblue" stroke="midnightblue" points="572.29,-152.5 582.29,-149 572.29,-145.5 572.29,-152.5"/>
</g>
<!-- Node10 -->
<g id="node10" class="node"><title>Node10</title>
<g id="a_node10"><a xlink:href="../../df/dcb/classapplication_1_1_pen_handler.html#a8477a9a258753bb5538ad83a015fb731" target="_top" xlink:title="application.PenHandler.get\lPenStatus">
<polygon fill="white" stroke="black" points="587.5,-85 587.5,-115 732.5,-115 732.5,-85 587.5,-85"/>
<text text-anchor="start" x="595.5" y="-103" font-family="Helvetica,sans-Serif" font-size="10.00">application.PenHandler.get</text>
<text text-anchor="middle" x="660" y="-92" font-family="Helvetica,sans-Serif" font-size="10.00">PenStatus</text>
</a>
</g>
</g>
<!-- Node4&#45;&gt;Node10 -->
<g id="edge9" class="edge"><title>Node4&#45;&gt;Node10</title>
<path fill="none" stroke="midnightblue" d="M527.297,-133.965C547.45,-128.768 570.206,-122.899 591.064,-117.52"/>
<polygon fill="midnightblue" stroke="midnightblue" points="592.004,-120.893 600.813,-115.006 590.256,-114.114 592.004,-120.893"/>
</g>
<!-- Node12 -->
<g id="node12" class="node"><title>Node12</title>
<g id="a_node12"><a xlink:href="../../df/dcb/classapplication_1_1_pen_handler.html#a518bb3076e4d9d105870b0778341a8c0" target="_top" xlink:title="application.PenHandler.set\lThicknessParameter">
<polygon fill="white" stroke="black" points="588,-36 588,-66 732,-66 732,-36 588,-36"/>
<text text-anchor="start" x="596" y="-54" font-family="Helvetica,sans-Serif" font-size="10.00">application.PenHandler.set</text>
<text text-anchor="middle" x="660" y="-43" font-family="Helvetica,sans-Serif" font-size="10.00">ThicknessParameter</text>
</a>
</g>
</g>
<!-- Node4&#45;&gt;Node12 -->
<g id="edge11" class="edge"><title>Node4&#45;&gt;Node12</title>
<path fill="none" stroke="midnightblue" d="M488.42,-133.856C510.181,-117.482 547.008,-91.5148 582,-75 586.026,-73.0997 590.24,-71.3012 594.534,-69.6085"/>
<polygon fill="midnightblue" stroke="midnightblue" points="595.868,-72.8463 604.016,-66.0736 593.423,-66.2873 595.868,-72.8463"/>
</g>
<!-- Node7 -->
<g id="node7" class="node"><title>Node7</title>
<g id="a_node7"><a xlink:href="../../d1/d31/classapplication_1_1_turtle.html#a802873f2487ab3b6832050e1bef998a5" target="_top" xlink:title="application.Turtle.getLoc">
<polygon fill="white" stroke="black" points="793,-188.5 793,-207.5 925,-207.5 925,-188.5 793,-188.5"/>
<text text-anchor="middle" x="859" y="-195.5" font-family="Helvetica,sans-Serif" font-size="10.00">application.Turtle.getLoc</text>
</a>
</g>
</g>
<!-- Node6&#45;&gt;Node7 -->
<g id="edge6" class="edge"><title>Node6&#45;&gt;Node7</title>
<path fill="none" stroke="midnightblue" d="M737.729,-198C752.564,-198 768.092,-198 782.875,-198"/>
<polygon fill="midnightblue" stroke="midnightblue" points="782.972,-201.5 792.972,-198 782.972,-194.5 782.972,-201.5"/>
</g>
<!-- Node9 -->
<g id="node9" class="node"><title>Node9</title>
<g id="a_node9"><a xlink:href="../../d1/d31/classapplication_1_1_turtle.html#af22147e198fac9068726b95eea235739" target="_top" xlink:title="application.Turtle.getOrientation">
<polygon fill="white" stroke="black" points="774.5,-139.5 774.5,-158.5 943.5,-158.5 943.5,-139.5 774.5,-139.5"/>
<text text-anchor="middle" x="859" y="-146.5" font-family="Helvetica,sans-Serif" font-size="10.00">application.Turtle.getOrientation</text>
</a>
</g>
</g>
<!-- Node8&#45;&gt;Node9 -->
<g id="edge8" class="edge"><title>Node8&#45;&gt;Node9</title>
<path fill="none" stroke="midnightblue" d="M737.729,-149C746.442,-149 755.394,-149 764.294,-149"/>
<polygon fill="midnightblue" stroke="midnightblue" points="764.305,-152.5 774.305,-149 764.305,-145.5 764.305,-152.5"/>
</g>
<!-- Node11 -->
<g id="node11" class="node"><title>Node11</title>
<g id="a_node11"><a xlink:href="../../de/d5a/classapplication_1_1_pen.html#ab21d78789fb66a90181393d7cc42796c" target="_top" xlink:title="application.Pen.getStatus">
<polygon fill="white" stroke="black" points="789,-90.5 789,-109.5 929,-109.5 929,-90.5 789,-90.5"/>
<text text-anchor="middle" x="859" y="-97.5" font-family="Helvetica,sans-Serif" font-size="10.00">application.Pen.getStatus</text>
</a>
</g>
</g>
<!-- Node10&#45;&gt;Node11 -->
<g id="edge10" class="edge"><title>Node10&#45;&gt;Node11</title>
<path fill="none" stroke="midnightblue" d="M732.679,-100C747.517,-100 763.234,-100 778.337,-100"/>
<polygon fill="midnightblue" stroke="midnightblue" points="778.677,-103.5 788.677,-100 778.677,-96.5001 778.677,-103.5"/>
</g>
<!-- Node13 -->
<g id="node13" class="node"><title>Node13</title>
<g id="a_node13"><a xlink:href="../../df/dcb/classapplication_1_1_pen_handler.html#a307ff6736f97a1aa1706da924d7e642b" target="_top" xlink:title="application.PenHandler.get\lPenWeight">
<polygon fill="white" stroke="black" points="786.5,-39 786.5,-69 931.5,-69 931.5,-39 786.5,-39"/>
<text text-anchor="start" x="794.5" y="-57" font-family="Helvetica,sans-Serif" font-size="10.00">application.PenHandler.get</text>
<text text-anchor="middle" x="859" y="-46" font-family="Helvetica,sans-Serif" font-size="10.00">PenWeight</text>
</a>
</g>
</g>
<!-- Node12&#45;&gt;Node13 -->
<g id="edge12" class="edge"><title>Node12&#45;&gt;Node13</title>
<path fill="none" stroke="midnightblue" d="M732.122,-52.0831C746.449,-52.3013 761.616,-52.5322 776.273,-52.7554"/>
<polygon fill="midnightblue" stroke="midnightblue" points="776.269,-56.2557 786.321,-52.9084 776.376,-49.2565 776.269,-56.2557"/>
</g>
<!-- Node15 -->
<g id="node15" class="node"><title>Node15</title>
<g id="a_node15"><a xlink:href="../../d8/ddb/classgui_1_1_line_view.html#ab32d4cf33024aea52dcb5d1092003d85" target="_top" xlink:title="gui.LineView.setThickness">
<polygon fill="white" stroke="black" points="789.5,-0.5 789.5,-19.5 928.5,-19.5 928.5,-0.5 789.5,-0.5"/>
<text text-anchor="middle" x="859" y="-7.5" font-family="Helvetica,sans-Serif" font-size="10.00">gui.LineView.setThickness</text>
</a>
</g>
</g>
<!-- Node12&#45;&gt;Node15 -->
<g id="edge14" class="edge"><title>Node12&#45;&gt;Node15</title>
<path fill="none" stroke="midnightblue" d="M732.122,-36.1981C755.146,-31.4061 780.339,-26.1629 802.097,-21.6346"/>
<polygon fill="midnightblue" stroke="midnightblue" points="803.077,-25.0058 812.154,-19.5416 801.651,-18.1526 803.077,-25.0058"/>
</g>
<!-- Node14 -->
<g id="node14" class="node"><title>Node14</title>
<g id="a_node14"><a xlink:href="../../de/d5a/classapplication_1_1_pen.html#aaaae5f55fadb97afef2ae286a6119a58" target="_top" xlink:title="application.Pen.getWeight">
<polygon fill="white" stroke="black" points="980,-44.5 980,-63.5 1120,-63.5 1120,-44.5 980,-44.5"/>
<text text-anchor="middle" x="1050" y="-51.5" font-family="Helvetica,sans-Serif" font-size="10.00">application.Pen.getWeight</text>
</a>
</g>
</g>
<!-- Node13&#45;&gt;Node14 -->
<g id="edge13" class="edge"><title>Node13&#45;&gt;Node14</title>
<path fill="none" stroke="midnightblue" d="M931.722,-54C944.165,-54 957.167,-54 969.795,-54"/>
<polygon fill="midnightblue" stroke="midnightblue" points="969.825,-57.5001 979.825,-54 969.825,-50.5001 969.825,-57.5001"/>
</g>
</g>
</svg>
