<?xml version="1.0" encoding="UTF-8" standalone="no"?>
<!DOCTYPE svg PUBLIC "-//W3C//DTD SVG 1.1//EN"
 "http://www.w3.org/Graphics/SVG/1.1/DTD/svg11.dtd">
<!-- Generated by graphviz version 2.36.0 (20140111.2315)
 -->
<!-- Title: application.ViewHandler2.showTurtle Pages: 1 -->
<!--zoomable 307 -->
<svg id="main" version="1.1" xmlns="http://www.w3.org/2000/svg" xmlns:xlink="http://www.w3.org/1999/xlink" xml:space="preserve" onload="init(evt)">
<style type="text/css"><![CDATA[
.edge:hover path { stroke: red; }
.edge:hover polygon { stroke: red; fill: red; }
]]></style>
<script type="text/javascript"><![CDATA[
var edges = document.getElementsByTagName('g');
if (edges && edges.length) {
  for (var i=0;i<edges.length;i++) {
    if (edges[i].id.substr(0,4)=='edge') {
      edges[i].setAttribute('class','edge');
    }
  }
}
]]></script>
        <defs>
                <circle id="rim" cx="0" cy="0" r="7"/>
                <circle id="rim2" cx="0" cy="0" r="3.5"/>
                <g id="zoomPlus">
                        <use xlink:href="#rim" fill="#404040">
                                <set attributeName="fill" to="#808080" begin="zoomplus.mouseover" end="zoomplus.mouseout"/>
                        </use>
                        <path d="M-4,0h8M0,-4v8" fill="none" stroke="white" stroke-width="1.5" pointer-events="none"/>
                </g>
                <g id="zoomMin">
                        <use xlink:href="#rim" fill="#404040">
                                <set attributeName="fill" to="#808080" begin="zoomminus.mouseover" end="zoomminus.mouseout"/>
                        </use>
                        <path d="M-4,0h8" fill="none" stroke="white" stroke-width="1.5" pointer-events="none"/>
                </g>
                <g id="dirArrow">
                        <path fill="none" stroke="white" stroke-width="1.5" d="M0,-3.0v7 M-2.5,-0.5L0,-3.0L2.5,-0.5"/>
                </g>
               <g id="resetDef">
                       <use xlink:href="#rim2" fill="#404040">
                               <set attributeName="fill" to="#808080" begin="reset.mouseover" end="reset.mouseout"/>
                       </use>
               </g>
        </defs>

<script type="text/javascript">
var viewWidth = 1148;
var viewHeight = 307;
var sectionId = 'dynsection-23';
</script>
<script xlink:href="../../svgpan.js"/>
<svg id="graph" class="graph">
<g id="viewport">
<title>application.ViewHandler2.showTurtle</title>
<polygon fill="white" stroke="none" points="-4,4 -4,-303 1144,-303 1144,4 -4,4"/>
<!-- Node1 -->
<g id="node1" class="node"><title>Node1</title>
<polygon fill="#bfbfbf" stroke="black" points="0,-124 0,-154 164,-154 164,-124 0,-124"/>
<text text-anchor="start" x="8" y="-142" font-family="Helvetica,sans-Serif" font-size="10.00">application.ViewHandler2.show</text>
<text text-anchor="middle" x="82" y="-131" font-family="Helvetica,sans-Serif" font-size="10.00">Turtle</text>
</g>
<!-- Node2 -->
<g id="node2" class="node"><title>Node2</title>
<g id="a_node2"><a xlink:href="../../d1/d31/classapplication_1_1_turtle.html#ab25b95889f8e0dfdef80fc69ac396923" target="_top" xlink:title="application.Turtle.setVisibility">
<polygon fill="white" stroke="black" points="210.5,-151.5 210.5,-170.5 363.5,-170.5 363.5,-151.5 210.5,-151.5"/>
<text text-anchor="middle" x="287" y="-158.5" font-family="Helvetica,sans-Serif" font-size="10.00">application.Turtle.setVisibility</text>
</a>
</g>
</g>
<!-- Node1&#45;&gt;Node2 -->
<g id="edge1" class="edge"><title>Node1&#45;&gt;Node2</title>
<path fill="none" stroke="midnightblue" d="M164.106,-147.79C176.013,-149.08 188.309,-150.413 200.305,-151.713"/>
<polygon fill="midnightblue" stroke="midnightblue" points="199.975,-155.198 210.294,-152.795 200.73,-148.238 199.975,-155.198"/>
</g>
<!-- Node3 -->
<g id="node3" class="node"><title>Node3</title>
<g id="a_node3"><a xlink:href="../../d3/de0/classapplication_1_1_view_handler2.html#adef8a4ac6b5b11687e8ecb1c05253287" target="_top" xlink:title="application.ViewHandler2.update\lTurtleOnView">
<polygon fill="white" stroke="black" points="200.5,-102 200.5,-132 373.5,-132 373.5,-102 200.5,-102"/>
<text text-anchor="start" x="208.5" y="-120" font-family="Helvetica,sans-Serif" font-size="10.00">application.ViewHandler2.update</text>
<text text-anchor="middle" x="287" y="-109" font-family="Helvetica,sans-Serif" font-size="10.00">TurtleOnView</text>
</a>
</g>
</g>
<!-- Node1&#45;&gt;Node3 -->
<g id="edge2" class="edge"><title>Node1&#45;&gt;Node3</title>
<path fill="none" stroke="midnightblue" d="M164.106,-130.21C172.679,-129.281 181.454,-128.33 190.173,-127.385"/>
<polygon fill="midnightblue" stroke="midnightblue" points="190.802,-130.838 200.367,-126.28 190.048,-123.878 190.802,-130.838"/>
</g>
<!-- Node4 -->
<g id="node4" class="node"><title>Node4</title>
<g id="a_node4"><a xlink:href="../../d3/de0/classapplication_1_1_view_handler2.html#a86919837e2dcf639d2f537d41eb5bd1a" target="_top" xlink:title="application.ViewHandler2.set\lInfoParamsOfTurtleAndLine">
<polygon fill="white" stroke="black" points="410.5,-170 410.5,-200 565.5,-200 565.5,-170 410.5,-170"/>
<text text-anchor="start" x="418.5" y="-188" font-family="Helvetica,sans-Serif" font-size="10.00">application.ViewHandler2.set</text>
<text text-anchor="middle" x="488" y="-177" font-family="Helvetica,sans-Serif" font-size="10.00">InfoParamsOfTurtleAndLine</text>
</a>
</g>
</g>
<!-- Node3&#45;&gt;Node4 -->
<g id="edge3" class="edge"><title>Node3&#45;&gt;Node4</title>
<path fill="none" stroke="midnightblue" d="M342.341,-132.075C352.89,-135.205 363.827,-138.592 374,-142 395.894,-149.335 419.836,-158.305 440.024,-166.152"/>
<polygon fill="midnightblue" stroke="midnightblue" points="439.019,-169.517 449.607,-169.901 441.57,-162.998 439.019,-169.517"/>
</g>
<!-- Node7 -->
<g id="node7" class="node"><title>Node7</title>
<g id="a_node7"><a xlink:href="../../d3/de0/classapplication_1_1_view_handler2.html#a64f43a60dc4ed9c575e910ffb9b2872d" target="_top" xlink:title="application.ViewHandler2.get\lTurtleLocation">
<polygon fill="white" stroke="black" points="602.5,-269 602.5,-299 757.5,-299 757.5,-269 602.5,-269"/>
<text text-anchor="start" x="610.5" y="-287" font-family="Helvetica,sans-Serif" font-size="10.00">application.ViewHandler2.get</text>
<text text-anchor="middle" x="680" y="-276" font-family="Helvetica,sans-Serif" font-size="10.00">TurtleLocation</text>
</a>
</g>
</g>
<!-- Node3&#45;&gt;Node7 -->
<g id="edge19" class="edge"><title>Node3&#45;&gt;Node7</title>
<path fill="none" stroke="midnightblue" d="M358.031,-132.004C363.742,-134.788 369.165,-138.088 374,-142 400.278,-163.264 383.605,-187.881 410,-209 461.871,-250.504 535.28,-269.065 592.31,-277.353"/>
<polygon fill="midnightblue" stroke="midnightblue" points="592.014,-280.845 602.397,-278.737 592.966,-273.91 592.014,-280.845"/>
</g>
<!-- Node9 -->
<g id="node9" class="node"><title>Node9</title>
<g id="a_node9"><a xlink:href="../../d3/de0/classapplication_1_1_view_handler2.html#af6fa367df07b3cb1bdceb909e8b3ef21" target="_top" xlink:title="application.ViewHandler2.get\lTurtleOrientation">
<polygon fill="white" stroke="black" points="602.5,-83 602.5,-113 757.5,-113 757.5,-83 602.5,-83"/>
<text text-anchor="start" x="610.5" y="-101" font-family="Helvetica,sans-Serif" font-size="10.00">application.ViewHandler2.get</text>
<text text-anchor="middle" x="680" y="-90" font-family="Helvetica,sans-Serif" font-size="10.00">TurtleOrientation</text>
</a>
</g>
</g>
<!-- Node3&#45;&gt;Node9 -->
<g id="edge20" class="edge"><title>Node3&#45;&gt;Node9</title>
<path fill="none" stroke="midnightblue" d="M373.631,-120.674C428.676,-122.129 501.671,-122.371 566,-117 574.57,-116.285 583.468,-115.269 592.339,-114.075"/>
<polygon fill="midnightblue" stroke="midnightblue" points="592.915,-117.528 602.324,-112.657 591.932,-110.598 592.915,-117.528"/>
</g>
<!-- Node16 -->
<g id="node16" class="node"><title>Node16</title>
<g id="a_node16"><a xlink:href="../../d1/d31/classapplication_1_1_turtle.html#a75e592fccb8420e254ba668429797898" target="_top" xlink:title="application.Turtle.getVisibility">
<polygon fill="white" stroke="black" points="411,-88.5 411,-107.5 565,-107.5 565,-88.5 411,-88.5"/>
<text text-anchor="middle" x="488" y="-95.5" font-family="Helvetica,sans-Serif" font-size="10.00">application.Turtle.getVisibility</text>
</a>
</g>
</g>
<!-- Node3&#45;&gt;Node16 -->
<g id="edge15" class="edge"><title>Node3&#45;&gt;Node16</title>
<path fill="none" stroke="midnightblue" d="M373.549,-108.832C382.58,-107.97 391.768,-107.092 400.807,-106.229"/>
<polygon fill="midnightblue" stroke="midnightblue" points="401.311,-109.697 410.933,-105.263 400.645,-102.729 401.311,-109.697"/>
</g>
<!-- Node17 -->
<g id="node17" class="node"><title>Node17</title>
<g id="a_node17"><a xlink:href="../../df/dcc/classgui_1_1_turtle_view.html#adcff447c1d488ddfd13d151067e6db7a" target="_top" xlink:title="gui.TurtleView.rotateAnd\lMoveTurtle">
<polygon fill="white" stroke="black" points="422.5,-39 422.5,-69 553.5,-69 553.5,-39 422.5,-39"/>
<text text-anchor="start" x="430.5" y="-57" font-family="Helvetica,sans-Serif" font-size="10.00">gui.TurtleView.rotateAnd</text>
<text text-anchor="middle" x="488" y="-46" font-family="Helvetica,sans-Serif" font-size="10.00">MoveTurtle</text>
</a>
</g>
</g>
<!-- Node3&#45;&gt;Node17 -->
<g id="edge16" class="edge"><title>Node3&#45;&gt;Node17</title>
<path fill="none" stroke="midnightblue" d="M335.413,-101.99C363.713,-93.0306 399.842,-81.5927 429.73,-72.1307"/>
<polygon fill="midnightblue" stroke="midnightblue" points="431.129,-75.3591 439.606,-69.0041 429.016,-68.6856 431.129,-75.3591"/>
</g>
<!-- Node20 -->
<g id="node20" class="node"><title>Node20</title>
<g id="a_node20"><a xlink:href="../../df/dcc/classgui_1_1_turtle_view.html#afa73e516fcab92ab1c3a6941b6131cb5" target="_top" xlink:title="gui.TurtleView.showTurtle">
<polygon fill="white" stroke="black" points="421.5,-0.5 421.5,-19.5 554.5,-19.5 554.5,-0.5 421.5,-0.5"/>
<text text-anchor="middle" x="488" y="-7.5" font-family="Helvetica,sans-Serif" font-size="10.00">gui.TurtleView.showTurtle</text>
</a>
</g>
</g>
<!-- Node3&#45;&gt;Node20 -->
<g id="edge21" class="edge"><title>Node3&#45;&gt;Node20</title>
<path fill="none" stroke="midnightblue" d="M304.455,-101.91C326.742,-82.2682 368.523,-48.1933 410,-29 415.283,-26.5551 420.922,-24.3995 426.654,-22.5044"/>
<polygon fill="midnightblue" stroke="midnightblue" points="427.796,-25.8155 436.344,-19.5558 425.758,-19.1187 427.796,-25.8155"/>
</g>
<!-- Node5 -->
<g id="node5" class="node"><title>Node5</title>
<g id="a_node5"><a xlink:href="../../df/dcb/classapplication_1_1_pen_handler.html#a8477a9a258753bb5538ad83a015fb731" target="_top" xlink:title="application.PenHandler.get\lPenStatus">
<polygon fill="white" stroke="black" points="607.5,-220 607.5,-250 752.5,-250 752.5,-220 607.5,-220"/>
<text text-anchor="start" x="615.5" y="-238" font-family="Helvetica,sans-Serif" font-size="10.00">application.PenHandler.get</text>
<text text-anchor="middle" x="680" y="-227" font-family="Helvetica,sans-Serif" font-size="10.00">PenStatus</text>
</a>
</g>
</g>
<!-- Node4&#45;&gt;Node5 -->
<g id="edge4" class="edge"><title>Node4&#45;&gt;Node5</title>
<path fill="none" stroke="midnightblue" d="M546.006,-200.002C566.765,-205.465 590.422,-211.69 611.971,-217.361"/>
<polygon fill="midnightblue" stroke="midnightblue" points="611.144,-220.762 621.706,-219.923 612.926,-213.993 611.144,-220.762"/>
</g>
<!-- Node4&#45;&gt;Node7 -->
<g id="edge6" class="edge"><title>Node4&#45;&gt;Node7</title>
<path fill="none" stroke="midnightblue" d="M508.457,-200.065C530.25,-216.371 567.106,-242.279 602,-259 606.634,-261.221 611.515,-263.317 616.478,-265.279"/>
<polygon fill="midnightblue" stroke="midnightblue" points="615.488,-268.646 626.08,-268.885 617.949,-262.093 615.488,-268.646"/>
</g>
<!-- Node4&#45;&gt;Node9 -->
<g id="edge8" class="edge"><title>Node4&#45;&gt;Node9</title>
<path fill="none" stroke="midnightblue" d="M526.715,-169.969C539.515,-164.32 553.686,-157.446 566,-150 583.345,-139.512 584.036,-131.389 602,-122 605.529,-120.156 609.224,-118.425 613.005,-116.805"/>
<polygon fill="midnightblue" stroke="midnightblue" points="614.541,-119.961 622.534,-113.007 611.948,-113.459 614.541,-119.961"/>
</g>
<!-- Node11 -->
<g id="node11" class="node"><title>Node11</title>
<g id="a_node11"><a xlink:href="../../df/dcb/classapplication_1_1_pen_handler.html#a518bb3076e4d9d105870b0778341a8c0" target="_top" xlink:title="application.PenHandler.set\lThicknessParameter">
<polygon fill="white" stroke="black" points="608,-132 608,-162 752,-162 752,-132 608,-132"/>
<text text-anchor="start" x="616" y="-150" font-family="Helvetica,sans-Serif" font-size="10.00">application.PenHandler.set</text>
<text text-anchor="middle" x="680" y="-139" font-family="Helvetica,sans-Serif" font-size="10.00">ThicknessParameter</text>
</a>
</g>
</g>
<!-- Node4&#45;&gt;Node11 -->
<g id="edge10" class="edge"><title>Node4&#45;&gt;Node11</title>
<path fill="none" stroke="midnightblue" d="M564.093,-169.981C575.245,-167.751 586.779,-165.444 598.044,-163.191"/>
<polygon fill="midnightblue" stroke="midnightblue" points="598.739,-166.622 607.858,-161.228 597.366,-159.758 598.739,-166.622"/>
</g>
<!-- Node15 -->
<g id="node15" class="node"><title>Node15</title>
<g id="a_node15"><a xlink:href="../../df/dcc/classgui_1_1_turtle_view.html#a978020a0f6ccbc4714b77c71435b0799" target="_top" xlink:title="gui.TurtleView.setTurtleInfo">
<polygon fill="white" stroke="black" points="609.5,-181.5 609.5,-200.5 750.5,-200.5 750.5,-181.5 609.5,-181.5"/>
<text text-anchor="middle" x="680" y="-188.5" font-family="Helvetica,sans-Serif" font-size="10.00">gui.TurtleView.setTurtleInfo</text>
</a>
</g>
</g>
<!-- Node4&#45;&gt;Node15 -->
<g id="edge14" class="edge"><title>Node4&#45;&gt;Node15</title>
<path fill="none" stroke="midnightblue" d="M565.733,-187.423C576.772,-187.772 588.154,-188.131 599.25,-188.482"/>
<polygon fill="midnightblue" stroke="midnightblue" points="599.237,-191.983 609.343,-188.8 599.458,-184.986 599.237,-191.983"/>
</g>
<!-- Node6 -->
<g id="node6" class="node"><title>Node6</title>
<g id="a_node6"><a xlink:href="../../de/d5a/classapplication_1_1_pen.html#ab21d78789fb66a90181393d7cc42796c" target="_top" xlink:title="application.Pen.getStatus">
<polygon fill="white" stroke="black" points="809,-225.5 809,-244.5 949,-244.5 949,-225.5 809,-225.5"/>
<text text-anchor="middle" x="879" y="-232.5" font-family="Helvetica,sans-Serif" font-size="10.00">application.Pen.getStatus</text>
</a>
</g>
</g>
<!-- Node5&#45;&gt;Node6 -->
<g id="edge5" class="edge"><title>Node5&#45;&gt;Node6</title>
<path fill="none" stroke="midnightblue" d="M752.679,-235C767.517,-235 783.234,-235 798.337,-235"/>
<polygon fill="midnightblue" stroke="midnightblue" points="798.677,-238.5 808.677,-235 798.677,-231.5 798.677,-238.5"/>
</g>
<!-- Node8 -->
<g id="node8" class="node"><title>Node8</title>
<g id="a_node8"><a xlink:href="../../d1/d31/classapplication_1_1_turtle.html#a802873f2487ab3b6832050e1bef998a5" target="_top" xlink:title="application.Turtle.getLoc">
<polygon fill="white" stroke="black" points="813,-274.5 813,-293.5 945,-293.5 945,-274.5 813,-274.5"/>
<text text-anchor="middle" x="879" y="-281.5" font-family="Helvetica,sans-Serif" font-size="10.00">application.Turtle.getLoc</text>
</a>
</g>
</g>
<!-- Node7&#45;&gt;Node8 -->
<g id="edge7" class="edge"><title>Node7&#45;&gt;Node8</title>
<path fill="none" stroke="midnightblue" d="M757.729,-284C772.564,-284 788.092,-284 802.875,-284"/>
<polygon fill="midnightblue" stroke="midnightblue" points="802.972,-287.5 812.972,-284 802.972,-280.5 802.972,-287.5"/>
</g>
<!-- Node10 -->
<g id="node10" class="node"><title>Node10</title>
<g id="a_node10"><a xlink:href="../../d1/d31/classapplication_1_1_turtle.html#af22147e198fac9068726b95eea235739" target="_top" xlink:title="application.Turtle.getOrientation">
<polygon fill="white" stroke="black" points="794.5,-88.5 794.5,-107.5 963.5,-107.5 963.5,-88.5 794.5,-88.5"/>
<text text-anchor="middle" x="879" y="-95.5" font-family="Helvetica,sans-Serif" font-size="10.00">application.Turtle.getOrientation</text>
</a>
</g>
</g>
<!-- Node9&#45;&gt;Node10 -->
<g id="edge9" class="edge"><title>Node9&#45;&gt;Node10</title>
<path fill="none" stroke="midnightblue" d="M757.729,-98C766.442,-98 775.394,-98 784.294,-98"/>
<polygon fill="midnightblue" stroke="midnightblue" points="784.305,-101.5 794.305,-98 784.305,-94.5001 784.305,-101.5"/>
</g>
<!-- Node12 -->
<g id="node12" class="node"><title>Node12</title>
<g id="a_node12"><a xlink:href="../../df/dcb/classapplication_1_1_pen_handler.html#a307ff6736f97a1aa1706da924d7e642b" target="_top" xlink:title="application.PenHandler.get\lPenWeight">
<polygon fill="white" stroke="black" points="806.5,-130 806.5,-160 951.5,-160 951.5,-130 806.5,-130"/>
<text text-anchor="start" x="814.5" y="-148" font-family="Helvetica,sans-Serif" font-size="10.00">application.PenHandler.get</text>
<text text-anchor="middle" x="879" y="-137" font-family="Helvetica,sans-Serif" font-size="10.00">PenWeight</text>
</a>
</g>
</g>
<!-- Node11&#45;&gt;Node12 -->
<g id="edge11" class="edge"><title>Node11&#45;&gt;Node12</title>
<path fill="none" stroke="midnightblue" d="M752.122,-146.278C766.449,-146.132 781.616,-145.979 796.273,-145.83"/>
<polygon fill="midnightblue" stroke="midnightblue" points="796.357,-149.329 806.321,-145.728 796.286,-142.33 796.357,-149.329"/>
</g>
<!-- Node14 -->
<g id="node14" class="node"><title>Node14</title>
<g id="a_node14"><a xlink:href="../../d8/ddb/classgui_1_1_line_view.html#ab32d4cf33024aea52dcb5d1092003d85" target="_top" xlink:title="gui.LineView.setThickness">
<polygon fill="white" stroke="black" points="809.5,-179.5 809.5,-198.5 948.5,-198.5 948.5,-179.5 809.5,-179.5"/>
<text text-anchor="middle" x="879" y="-186.5" font-family="Helvetica,sans-Serif" font-size="10.00">gui.LineView.setThickness</text>
</a>
</g>
</g>
<!-- Node11&#45;&gt;Node14 -->
<g id="edge13" class="edge"><title>Node11&#45;&gt;Node14</title>
<path fill="none" stroke="midnightblue" d="M751.565,-162.044C775.213,-167.086 801.203,-172.627 823.437,-177.367"/>
<polygon fill="midnightblue" stroke="midnightblue" points="822.856,-180.822 833.366,-179.484 824.316,-173.976 822.856,-180.822"/>
</g>
<!-- Node13 -->
<g id="node13" class="node"><title>Node13</title>
<g id="a_node13"><a xlink:href="../../de/d5a/classapplication_1_1_pen.html#aaaae5f55fadb97afef2ae286a6119a58" target="_top" xlink:title="application.Pen.getWeight">
<polygon fill="white" stroke="black" points="1000,-135.5 1000,-154.5 1140,-154.5 1140,-135.5 1000,-135.5"/>
<text text-anchor="middle" x="1070" y="-142.5" font-family="Helvetica,sans-Serif" font-size="10.00">application.Pen.getWeight</text>
</a>
</g>
</g>
<!-- Node12&#45;&gt;Node13 -->
<g id="edge12" class="edge"><title>Node12&#45;&gt;Node13</title>
<path fill="none" stroke="midnightblue" d="M951.722,-145C964.165,-145 977.167,-145 989.795,-145"/>
<polygon fill="midnightblue" stroke="midnightblue" points="989.825,-148.5 999.825,-145 989.825,-141.5 989.825,-148.5"/>
</g>
<!-- Node18 -->
<g id="node18" class="node"><title>Node18</title>
<g id="a_node18"><a xlink:href="../../df/dcc/classgui_1_1_turtle_view.html#ab9b87d12b06bce95f2b32ee05a89e7d6" target="_top" xlink:title="gui.TurtleView.rotate">
<polygon fill="white" stroke="black" points="623.5,-6.5 623.5,-25.5 736.5,-25.5 736.5,-6.5 623.5,-6.5"/>
<text text-anchor="middle" x="680" y="-13.5" font-family="Helvetica,sans-Serif" font-size="10.00">gui.TurtleView.rotate</text>
</a>
</g>
</g>
<!-- Node17&#45;&gt;Node18 -->
<g id="edge17" class="edge"><title>Node17&#45;&gt;Node18</title>
<path fill="none" stroke="midnightblue" d="M553.59,-41.0819C575.601,-36.6798 600.047,-31.7907 621.466,-27.5068"/>
<polygon fill="midnightblue" stroke="midnightblue" points="622.274,-30.9146 631.394,-25.5213 620.901,-24.0505 622.274,-30.9146"/>
</g>
<!-- Node19 -->
<g id="node19" class="node"><title>Node19</title>
<g id="a_node19"><a xlink:href="../../d8/d8b/classgui_1_1_view.html#a9df94efe60af56c89531c45f0f3f9624" target="_top" xlink:title="gui.View.setNewPoint">
<polygon fill="white" stroke="black" points="621.5,-44.5 621.5,-63.5 738.5,-63.5 738.5,-44.5 621.5,-44.5"/>
<text text-anchor="middle" x="680" y="-51.5" font-family="Helvetica,sans-Serif" font-size="10.00">gui.View.setNewPoint</text>
</a>
</g>
</g>
<!-- Node17&#45;&gt;Node19 -->
<g id="edge18" class="edge"><title>Node17&#45;&gt;Node19</title>
<path fill="none" stroke="midnightblue" d="M553.59,-54C572.108,-54 592.348,-54 611.061,-54"/>
<polygon fill="midnightblue" stroke="midnightblue" points="611.278,-57.5001 621.278,-54 611.278,-50.5001 611.278,-57.5001"/>
</g>
</g>
</svg>
        <g id="navigator" transform="translate(0 0)" fill="#404254">
                <rect fill="#f2f5e9" fill-opacity="0.5" stroke="#606060" stroke-width=".5" x="0" y="0" width="60" height="60"/>
                <use id="zoomplus" xlink:href="#zoomPlus" x="17" y="9" onmousedown="handleZoom(evt,'in')"/>
                <use id="zoomminus" xlink:href="#zoomMin" x="42" y="9" onmousedown="handleZoom(evt,'out')"/>
                <use id="reset" xlink:href="#resetDef" x="30" y="36" onmousedown="handleReset()"/>
                <g id="arrowUp" xlink:href="#dirArrow" transform="translate(30 24)" onmousedown="handlePan(0,-1)">
                  <use xlink:href="#rim" fill="#404040">
                        <set attributeName="fill" to="#808080" begin="arrowUp.mouseover" end="arrowUp.mouseout"/>
                  </use>
                  <path fill="none" stroke="white" stroke-width="1.5" d="M0,-3.0v7 M-2.5,-0.5L0,-3.0L2.5,-0.5"/>
                </g>
                <g id="arrowRight" xlink:href="#dirArrow" transform="rotate(90) translate(36 -43)" onmousedown="handlePan(1,0)">
                  <use xlink:href="#rim" fill="#404040">
                        <set attributeName="fill" to="#808080" begin="arrowRight.mouseover" end="arrowRight.mouseout"/>
                  </use>
                  <path fill="none" stroke="white" stroke-width="1.5" d="M0,-3.0v7 M-2.5,-0.5L0,-3.0L2.5,-0.5"/>
                </g>
                <g id="arrowDown" xlink:href="#dirArrow" transform="rotate(180) translate(-30 -48)" onmousedown="handlePan(0,1)">
                  <use xlink:href="#rim" fill="#404040">
                        <set attributeName="fill" to="#808080" begin="arrowDown.mouseover" end="arrowDown.mouseout"/>
                  </use>
                  <path fill="none" stroke="white" stroke-width="1.5" d="M0,-3.0v7 M-2.5,-0.5L0,-3.0L2.5,-0.5"/>
                </g>
                <g id="arrowLeft" xlink:href="#dirArrow" transform="rotate(270) translate(-36 17)" onmousedown="handlePan(-1,0)">
                  <use xlink:href="#rim" fill="#404040">
                        <set attributeName="fill" to="#808080" begin="arrowLeft.mouseover" end="arrowLeft.mouseout"/>
                  </use>
                  <path fill="none" stroke="white" stroke-width="1.5" d="M0,-3.0v7 M-2.5,-0.5L0,-3.0L2.5,-0.5"/>
                </g>
        </g>
        <svg viewBox="0 0 15 15" width="100%" height="30px" preserveAspectRatio="xMaxYMin meet">
         <g id="arrow_out" transform="scale(0.3 0.3)">
          <a xlink:href="classapplication_1_1_view_handler2_a204e29a9937f99e85d42c948f58012c1_cgraph_org.svg" target="_base">
           <rect id="button" ry="5" rx="5" y="6" x="6" height="38" width="38"
                fill="#f2f5e9" fill-opacity="0.5" stroke="#606060" stroke-width="1.0"/>
           <path id="arrow"
             d="M 11.500037,31.436501 C 11.940474,20.09759 22.043105,11.32322 32.158766,21.979434 L 37.068811,17.246167 C 37.068811,17.246167 37.088388,32 37.088388,32 L 22.160133,31.978069 C 22.160133,31.978069 26.997745,27.140456 26.997745,27.140456 C 18.528582,18.264221 13.291696,25.230495 11.500037,31.436501 z"
             style="fill:#404040;"/>
          </a>
         </g>
        </svg>
</svg>
