<?xml version="1.0" encoding="UTF-8" standalone="no"?>
<!DOCTYPE svg PUBLIC "-//W3C//DTD SVG 1.1//EN"
 "http://www.w3.org/Graphics/SVG/1.1/DTD/svg11.dtd">
<!-- Generated by graphviz version 2.36.0 (20140111.2315)
 -->
<!-- Title: commands.UserDefined Pages: 1 -->
<svg width="580pt" height="188pt"
 viewBox="0.00 0.00 580.00 188.00" xmlns="http://www.w3.org/2000/svg" xmlns:xlink="http://www.w3.org/1999/xlink">
<g id="graph0" class="graph" transform="scale(1 1) rotate(0) translate(4 184)">
<title>commands.UserDefined</title>
<polygon fill="white" stroke="none" points="-4,4 -4,-184 576,-184 576,4 -4,4"/>
<!-- Node1 -->
<g id="node1" class="node"><title>Node1</title>
<polygon fill="#bfbfbf" stroke="black" points="288.5,-0.5 288.5,-19.5 421.5,-19.5 421.5,-0.5 288.5,-0.5"/>
<text text-anchor="middle" x="355" y="-7.5" font-family="Helvetica,sans-Serif" font-size="10.00">commands.UserDefined</text>
</g>
<!-- Node2 -->
<g id="node2" class="node"><title>Node2</title>
<g id="a_node2"><a xlink:href="../../dc/d3e/classcommands_1_1_command_center.html" target="_top" xlink:title="commands.CommandCenter">
<polygon fill="white" stroke="black" points="92,-74.5 92,-93.5 248,-93.5 248,-74.5 92,-74.5"/>
<text text-anchor="middle" x="170" y="-81.5" font-family="Helvetica,sans-Serif" font-size="10.00">commands.CommandCenter</text>
</a>
</g>
</g>
<!-- Node2&#45;&gt;Node1 -->
<g id="edge1" class="edge"><title>Node2&#45;&gt;Node1</title>
<path fill="none" stroke="midnightblue" d="M201.366,-70.7928C238.797,-56.2251 300.413,-32.2447 333.08,-19.531"/>
<polygon fill="midnightblue" stroke="midnightblue" points="199.998,-67.5693 191.948,-74.4579 202.537,-74.0926 199.998,-67.5693"/>
</g>
<!-- Node3 -->
<g id="node3" class="node"><title>Node3</title>
<g id="a_node3"><a xlink:href="../../d1/d4d/interfacecommands_1_1view_commands_1_1turtle_commands_1_1_executable.html" target="_top" xlink:title="commands.viewCommands.turtle\lCommands.Executable">
<polygon fill="white" stroke="black" points="0,-149 0,-179 178,-179 178,-149 0,-149"/>
<text text-anchor="start" x="8" y="-167" font-family="Helvetica,sans-Serif" font-size="10.00">commands.viewCommands.turtle</text>
<text text-anchor="middle" x="89" y="-156" font-family="Helvetica,sans-Serif" font-size="10.00">Commands.Executable</text>
</a>
</g>
</g>
<!-- Node3&#45;&gt;Node2 -->
<g id="edge2" class="edge"><title>Node3&#45;&gt;Node2</title>
<path fill="none" stroke="midnightblue" d="M111.389,-141.44C127.663,-125.769 148.851,-105.366 160.782,-93.8764"/>
<polygon fill="midnightblue" stroke="midnightblue" points="108.632,-139.236 103.857,-148.694 113.488,-144.278 108.632,-139.236"/>
</g>
<!-- Node4 -->
<g id="node4" class="node"><title>Node4</title>
<polygon fill="white" stroke="#bfbfbf" points="196,-154.5 196,-173.5 308,-173.5 308,-154.5 196,-154.5"/>
<text text-anchor="middle" x="252" y="-161.5" font-family="Helvetica,sans-Serif" font-size="10.00">ArrayList&lt; Object &gt;</text>
</g>
<!-- Node4&#45;&gt;Node2 -->
<g id="edge3" class="edge"><title>Node4&#45;&gt;Node2</title>
<path fill="none" stroke="#9a32cd" stroke-dasharray="5,2" d="M235.376,-147.187C218.41,-131.048 192.699,-106.592 179.129,-93.6841"/>
<polygon fill="#9a32cd" stroke="#9a32cd" points="233.253,-149.998 242.911,-154.355 238.078,-144.926 233.253,-149.998"/>
<text text-anchor="middle" x="246" y="-121.5" font-family="Helvetica,sans-Serif" font-size="10.00"> parameters</text>
</g>
<!-- Node5 -->
<g id="node5" class="node"><title>Node5</title>
<polygon fill="white" stroke="#bfbfbf" points="266.5,-69 266.5,-99 443.5,-99 443.5,-69 266.5,-69"/>
<text text-anchor="start" x="274.5" y="-87" font-family="Helvetica,sans-Serif" font-size="10.00">ArrayList&lt; commands.Command</text>
<text text-anchor="middle" x="355" y="-76" font-family="Helvetica,sans-Serif" font-size="10.00">Center &gt;</text>
</g>
<!-- Node5&#45;&gt;Node1 -->
<g id="edge4" class="edge"><title>Node5&#45;&gt;Node1</title>
<path fill="none" stroke="#9a32cd" stroke-dasharray="5,2" d="M355,-58.6883C355,-45.2526 355,-29.3805 355,-19.7589"/>
<polygon fill="#9a32cd" stroke="#9a32cd" points="351.5,-58.7751 355,-68.7751 358.5,-58.7752 351.5,-58.7751"/>
<text text-anchor="middle" x="375" y="-41.5" font-family="Helvetica,sans-Serif" font-size="10.00"> comms</text>
</g>
<!-- Node6 -->
<g id="node6" class="node"><title>Node6</title>
<polygon fill="white" stroke="#bfbfbf" points="462,-74.5 462,-93.5 572,-93.5 572,-74.5 462,-74.5"/>
<text text-anchor="middle" x="517" y="-81.5" font-family="Helvetica,sans-Serif" font-size="10.00">ArrayList&lt; String &gt;</text>
</g>
<!-- Node6&#45;&gt;Node1 -->
<g id="edge5" class="edge"><title>Node6&#45;&gt;Node1</title>
<path fill="none" stroke="#9a32cd" stroke-dasharray="5,2" d="M488.268,-70.2303C455.383,-55.6146 402.435,-32.0824 374.195,-19.531"/>
<polygon fill="#9a32cd" stroke="#9a32cd" points="487.221,-73.5948 497.78,-74.4579 490.064,-67.1981 487.221,-73.5948"/>
<text text-anchor="middle" x="461" y="-41.5" font-family="Helvetica,sans-Serif" font-size="10.00"> params</text>
</g>
</g>
</svg>
