<?xml version="1.0" encoding="UTF-8" standalone="no"?>
<!DOCTYPE svg PUBLIC "-//W3C//DTD SVG 1.1//EN"
 "http://www.w3.org/Graphics/SVG/1.1/DTD/svg11.dtd">
<!-- Generated by graphviz version 2.36.0 (20140111.2315)
 -->
<!-- Title: commands.UserMadeUtilities.getFromVars Pages: 1 -->
<svg width="1046pt" height="492pt"
 viewBox="0.00 0.00 1046.00 492.00" xmlns="http://www.w3.org/2000/svg" xmlns:xlink="http://www.w3.org/1999/xlink">
<g id="graph0" class="graph" transform="scale(1 1) rotate(0) translate(4 488)">
<title>commands.UserMadeUtilities.getFromVars</title>
<polygon fill="white" stroke="none" points="-4,4 -4,-488 1042,-488 1042,4 -4,4"/>
<!-- Node1 -->
<g id="node1" class="node"><title>Node1</title>
<polygon fill="#bfbfbf" stroke="black" points="0,-215 0,-245 176,-245 176,-215 0,-215"/>
<text text-anchor="start" x="8" y="-233" font-family="Helvetica,sans-Serif" font-size="10.00">commands.UserMadeUtilities.get</text>
<text text-anchor="middle" x="88" y="-222" font-family="Helvetica,sans-Serif" font-size="10.00">FromVars</text>
</g>
<!-- Node2 -->
<g id="node2" class="node"><title>Node2</title>
<g id="a_node2"><a xlink:href="../../d9/d11/classconfiguration_1_1_parser.html#ae0480f44c9defa614fb470ab154fa60b" target="_top" xlink:title="configuration.Parser.buildTree">
<polygon fill="white" stroke="black" points="212,-220.5 212,-239.5 368,-239.5 368,-220.5 212,-220.5"/>
<text text-anchor="middle" x="290" y="-227.5" font-family="Helvetica,sans-Serif" font-size="10.00">configuration.Parser.buildTree</text>
</a>
</g>
</g>
<!-- Node1&#45;&gt;Node2 -->
<g id="edge1" class="edge"><title>Node1&#45;&gt;Node2</title>
<path fill="none" stroke="midnightblue" d="M186.221,-230C194.831,-230 203.469,-230 211.878,-230"/>
<polygon fill="midnightblue" stroke="midnightblue" points="186.141,-226.5 176.141,-230 186.141,-233.5 186.141,-226.5"/>
</g>
<!-- Node3 -->
<g id="node3" class="node"><title>Node3</title>
<g id="a_node3"><a xlink:href="../../d0/da7/classconfiguration_1_1_basic_parser.html#a22bf37b374167e497f639182e7459517" target="_top" xlink:title="configuration.BasicParser.parse">
<polygon fill="white" stroke="black" points="419.5,-464.5 419.5,-483.5 586.5,-483.5 586.5,-464.5 419.5,-464.5"/>
<text text-anchor="middle" x="503" y="-471.5" font-family="Helvetica,sans-Serif" font-size="10.00">configuration.BasicParser.parse</text>
</a>
</g>
</g>
<!-- Node2&#45;&gt;Node3 -->
<g id="edge2" class="edge"><title>Node2&#45;&gt;Node3</title>
<path fill="none" stroke="midnightblue" d="M294.775,-249.648C304.384,-293.986 334.131,-402.058 404,-455 408.973,-458.768 414.485,-461.852 420.286,-464.37"/>
<polygon fill="midnightblue" stroke="midnightblue" points="298.151,-248.688 292.71,-239.597 291.294,-250.097 298.151,-248.688"/>
</g>
<!-- Node4 -->
<g id="node4" class="node"><title>Node4</title>
<g id="a_node4"><a xlink:href="../../d9/dfc/classconfiguration_1_1_dotimes_parser.html#a26cc7f8e0a21d93091bfe8884a924450" target="_top" xlink:title="configuration.DotimesParser.fetch\lNumericExpr">
<polygon fill="white" stroke="black" points="413.5,-377 413.5,-407 592.5,-407 592.5,-377 413.5,-377"/>
<text text-anchor="start" x="421.5" y="-395" font-family="Helvetica,sans-Serif" font-size="10.00">configuration.DotimesParser.fetch</text>
<text text-anchor="middle" x="503" y="-384" font-family="Helvetica,sans-Serif" font-size="10.00">NumericExpr</text>
</a>
</g>
</g>
<!-- Node2&#45;&gt;Node4 -->
<g id="edge3" class="edge"><title>Node2&#45;&gt;Node4</title>
<path fill="none" stroke="midnightblue" d="M301.119,-248.679C318.242,-278.454 355.819,-336.427 404,-367 410.153,-370.904 416.886,-374.2 423.85,-376.981"/>
<polygon fill="midnightblue" stroke="midnightblue" points="304.053,-246.755 296.111,-239.743 297.947,-250.177 304.053,-246.755"/>
</g>
<!-- Node7 -->
<g id="node7" class="node"><title>Node7</title>
<g id="a_node7"><a xlink:href="../../d9/dfc/classconfiguration_1_1_dotimes_parser.html#aff41ee5ce2eeff82f7586bd1cf6a91c8" target="_top" xlink:title="configuration.DotimesParser.parseFor">
<polygon fill="white" stroke="black" points="404.5,-426.5 404.5,-445.5 601.5,-445.5 601.5,-426.5 404.5,-426.5"/>
<text text-anchor="middle" x="503" y="-433.5" font-family="Helvetica,sans-Serif" font-size="10.00">configuration.DotimesParser.parseFor</text>
</a>
</g>
</g>
<!-- Node2&#45;&gt;Node7 -->
<g id="edge6" class="edge"><title>Node2&#45;&gt;Node7</title>
<path fill="none" stroke="midnightblue" d="M296.971,-249.562C309.797,-288.076 343.81,-373.655 404,-416 410.107,-420.296 416.927,-423.714 424.049,-426.426"/>
<polygon fill="midnightblue" stroke="midnightblue" points="300.17,-248.076 293.787,-239.62 293.503,-250.211 300.17,-248.076"/>
</g>
<!-- Node9 -->
<g id="node9" class="node"><title>Node9</title>
<g id="a_node9"><a xlink:href="../../dc/d64/classconfiguration_1_1_for_parser.html#a95aeb8afdb254389dcef062be1cf2727" target="_top" xlink:title="configuration.ForParser.fetch\lNumericExpr">
<polygon fill="white" stroke="black" points="426.5,-328 426.5,-358 579.5,-358 579.5,-328 426.5,-328"/>
<text text-anchor="start" x="434.5" y="-346" font-family="Helvetica,sans-Serif" font-size="10.00">configuration.ForParser.fetch</text>
<text text-anchor="middle" x="503" y="-335" font-family="Helvetica,sans-Serif" font-size="10.00">NumericExpr</text>
</a>
</g>
</g>
<!-- Node2&#45;&gt;Node9 -->
<g id="edge9" class="edge"><title>Node2&#45;&gt;Node9</title>
<path fill="none" stroke="midnightblue" d="M307.698,-246.688C328.499,-266.547 365.958,-299.355 404,-318 411.883,-321.864 420.426,-325.172 429.069,-327.994"/>
<polygon fill="midnightblue" stroke="midnightblue" points="309.943,-243.989 300.333,-239.528 305.063,-249.008 309.943,-243.989"/>
</g>
<!-- Node11 -->
<g id="node11" class="node"><title>Node11</title>
<g id="a_node11"><a xlink:href="../../dc/d64/classconfiguration_1_1_for_parser.html#a6bc38f731ac658c5860fe092ba7689ac" target="_top" xlink:title="configuration.ForParser.parseFor">
<polygon fill="white" stroke="black" points="417.5,-289.5 417.5,-308.5 588.5,-308.5 588.5,-289.5 417.5,-289.5"/>
<text text-anchor="middle" x="503" y="-296.5" font-family="Helvetica,sans-Serif" font-size="10.00">configuration.ForParser.parseFor</text>
</a>
</g>
</g>
<!-- Node2&#45;&gt;Node11 -->
<g id="edge11" class="edge"><title>Node2&#45;&gt;Node11</title>
<path fill="none" stroke="midnightblue" d="M319.009,-244.093C341.504,-254.931 374.154,-269.596 404,-279 417.084,-283.123 431.425,-286.605 445.002,-289.451"/>
<polygon fill="midnightblue" stroke="midnightblue" points="320.253,-240.806 309.732,-239.562 317.182,-247.096 320.253,-240.806"/>
</g>
<!-- Node13 -->
<g id="node13" class="node"><title>Node13</title>
<g id="a_node13"><a xlink:href="../../d7/d56/classconfiguration_1_1_ifelse_parser.html#aef13959a758ccbf8dab0a3f5f94a7be0" target="_top" xlink:title="configuration.IfelseParser.evaluate\lBoolExpr">
<polygon fill="white" stroke="black" points="413,-240 413,-270 593,-270 593,-240 413,-240"/>
<text text-anchor="start" x="421" y="-258" font-family="Helvetica,sans-Serif" font-size="10.00">configuration.IfelseParser.evaluate</text>
<text text-anchor="middle" x="503" y="-247" font-family="Helvetica,sans-Serif" font-size="10.00">BoolExpr</text>
</a>
</g>
</g>
<!-- Node2&#45;&gt;Node13 -->
<g id="edge13" class="edge"><title>Node2&#45;&gt;Node13</title>
<path fill="none" stroke="midnightblue" d="M378.1,-240.32C389.616,-241.684 401.435,-243.085 412.983,-244.453"/>
<polygon fill="midnightblue" stroke="midnightblue" points="378.414,-236.833 368.071,-239.132 377.59,-243.784 378.414,-236.833"/>
</g>
<!-- Node16 -->
<g id="node16" class="node"><title>Node16</title>
<g id="a_node16"><a xlink:href="../../d7/d56/classconfiguration_1_1_ifelse_parser.html#aeb471eacbe15e095075bdd09619fe15d" target="_top" xlink:title="configuration.IfelseParser.parse\lListCommands">
<polygon fill="white" stroke="black" points="420,-191 420,-221 586,-221 586,-191 420,-191"/>
<text text-anchor="start" x="428" y="-209" font-family="Helvetica,sans-Serif" font-size="10.00">configuration.IfelseParser.parse</text>
<text text-anchor="middle" x="503" y="-198" font-family="Helvetica,sans-Serif" font-size="10.00">ListCommands</text>
</a>
</g>
</g>
<!-- Node2&#45;&gt;Node16 -->
<g id="edge16" class="edge"><title>Node2&#45;&gt;Node16</title>
<path fill="none" stroke="midnightblue" d="M378.041,-220.1C391.857,-218.528 406.11,-216.907 419.81,-215.349"/>
<polygon fill="midnightblue" stroke="midnightblue" points="377.612,-216.626 368.071,-221.234 378.403,-223.581 377.612,-216.626"/>
</g>
<!-- Node17 -->
<g id="node17" class="node"><title>Node17</title>
<g id="a_node17"><a xlink:href="../../d9/d11/classconfiguration_1_1_parser.html#a041ccb70bd9dee77d512d8469c15c14f" target="_top" xlink:title="configuration.Parser.buildTree">
<polygon fill="white" stroke="black" points="425,-152.5 425,-171.5 581,-171.5 581,-152.5 425,-152.5"/>
<text text-anchor="middle" x="503" y="-159.5" font-family="Helvetica,sans-Serif" font-size="10.00">configuration.Parser.buildTree</text>
</a>
</g>
</g>
<!-- Node2&#45;&gt;Node17 -->
<g id="edge19" class="edge"><title>Node2&#45;&gt;Node17</title>
<path fill="none" stroke="midnightblue" d="M318.984,-215.826C341.464,-204.943 374.108,-190.257 404,-181 416.085,-177.257 429.247,-174.104 441.888,-171.509"/>
<polygon fill="midnightblue" stroke="midnightblue" points="317.147,-212.829 309.713,-220.378 320.232,-219.112 317.147,-212.829"/>
</g>
<!-- Node18 -->
<g id="node18" class="node"><title>Node18</title>
<g id="a_node18"><a xlink:href="../../d3/d0d/classconfiguration_1_1_repeat_parser.html#ab218ee8c24e4dab18c02cd4a536d15d3" target="_top" xlink:title="configuration.RepeatParser.fetch\lNumericExpr">
<polygon fill="white" stroke="black" points="643.5,-126 643.5,-156 814.5,-156 814.5,-126 643.5,-126"/>
<text text-anchor="start" x="651.5" y="-144" font-family="Helvetica,sans-Serif" font-size="10.00">configuration.RepeatParser.fetch</text>
<text text-anchor="middle" x="729" y="-133" font-family="Helvetica,sans-Serif" font-size="10.00">NumericExpr</text>
</a>
</g>
</g>
<!-- Node2&#45;&gt;Node18 -->
<g id="edge20" class="edge"><title>Node2&#45;&gt;Node18</title>
<path fill="none" stroke="midnightblue" d="M306.19,-212.853C326.168,-191.725 363.515,-156.919 404,-143 481.798,-116.253 576.45,-119.413 643.308,-127.04"/>
<polygon fill="midnightblue" stroke="midnightblue" points="303.615,-210.483 299.413,-220.209 308.763,-215.226 303.615,-210.483"/>
</g>
<!-- Node20 -->
<g id="node20" class="node"><title>Node20</title>
<g id="a_node20"><a xlink:href="../../d3/d0d/classconfiguration_1_1_repeat_parser.html#ad35abe70f202dc3dd93bbdb50acd490d" target="_top" xlink:title="configuration.RepeatParser.parse\lListCommands">
<polygon fill="white" stroke="black" points="642,-28 642,-58 816,-58 816,-28 642,-28"/>
<text text-anchor="start" x="650" y="-46" font-family="Helvetica,sans-Serif" font-size="10.00">configuration.RepeatParser.parse</text>
<text text-anchor="middle" x="729" y="-35" font-family="Helvetica,sans-Serif" font-size="10.00">ListCommands</text>
</a>
</g>
</g>
<!-- Node2&#45;&gt;Node20 -->
<g id="edge22" class="edge"><title>Node2&#45;&gt;Node20</title>
<path fill="none" stroke="midnightblue" d="M297.867,-210.752C311.693,-175.19 346.565,-99.8299 404,-67 443.114,-44.6425 559.579,-40.8425 641.626,-41.1454"/>
<polygon fill="midnightblue" stroke="midnightblue" points="294.476,-209.828 294.25,-220.42 301.032,-212.281 294.476,-209.828"/>
</g>
<!-- Node21 -->
<g id="node21" class="node"><title>Node21</title>
<g id="a_node21"><a xlink:href="../../d3/d0d/classconfiguration_1_1_repeat_parser.html#a27c7e86622dda996677d34987f702cb6" target="_top" xlink:title="configuration.RepeatParser.parseFor">
<polygon fill="white" stroke="black" points="408.5,-76.5 408.5,-95.5 597.5,-95.5 597.5,-76.5 408.5,-76.5"/>
<text text-anchor="middle" x="503" y="-83.5" font-family="Helvetica,sans-Serif" font-size="10.00">configuration.RepeatParser.parseFor</text>
</a>
</g>
</g>
<!-- Node2&#45;&gt;Node21 -->
<g id="edge23" class="edge"><title>Node2&#45;&gt;Node21</title>
<path fill="none" stroke="midnightblue" d="M302.712,-212.112C321.046,-185.593 359.107,-136.171 404,-110 414.896,-103.648 427.415,-98.9708 439.782,-95.5284"/>
<polygon fill="midnightblue" stroke="midnightblue" points="299.77,-210.216 297.072,-220.461 305.57,-214.135 299.77,-210.216"/>
</g>
<!-- Node23 -->
<g id="node23" class="node"><title>Node23</title>
<g id="a_node23"><a xlink:href="../../db/d22/classconfiguration_1_1_set_parser.html#a4f20258805caaf18872872d5283a0e74" target="_top" xlink:title="configuration.SetParser.parse">
<polygon fill="white" stroke="black" points="424,-0.5 424,-19.5 582,-19.5 582,-0.5 424,-0.5"/>
<text text-anchor="middle" x="503" y="-7.5" font-family="Helvetica,sans-Serif" font-size="10.00">configuration.SetParser.parse</text>
</a>
</g>
</g>
<!-- Node2&#45;&gt;Node23 -->
<g id="edge27" class="edge"><title>Node2&#45;&gt;Node23</title>
<path fill="none" stroke="midnightblue" d="M296.468,-210.682C308.724,-171.041 342.27,-80.3445 404,-34 412.405,-27.6899 422.253,-23.0193 432.407,-19.5663"/>
<polygon fill="midnightblue" stroke="midnightblue" points="293.065,-209.847 293.57,-220.43 299.775,-211.842 293.065,-209.847"/>
</g>
<!-- Node5 -->
<g id="node5" class="node"><title>Node5</title>
<g id="a_node5"><a xlink:href="../../d9/dfc/classconfiguration_1_1_dotimes_parser.html#a63d34c400b9b5715b4a2f9a5d0107e62" target="_top" xlink:title="configuration.DotimesParser.parse\lDotimesIterator">
<polygon fill="white" stroke="black" points="638,-374 638,-404 820,-404 820,-374 638,-374"/>
<text text-anchor="start" x="646" y="-392" font-family="Helvetica,sans-Serif" font-size="10.00">configuration.DotimesParser.parse</text>
<text text-anchor="middle" x="729" y="-381" font-family="Helvetica,sans-Serif" font-size="10.00">DotimesIterator</text>
</a>
</g>
</g>
<!-- Node4&#45;&gt;Node5 -->
<g id="edge4" class="edge"><title>Node4&#45;&gt;Node5</title>
<path fill="none" stroke="midnightblue" d="M602.748,-390.677C614.446,-390.521 626.34,-390.362 637.909,-390.207"/>
<polygon fill="midnightblue" stroke="midnightblue" points="602.483,-387.181 592.531,-390.814 602.577,-394.18 602.483,-387.181"/>
</g>
<!-- Node6 -->
<g id="node6" class="node"><title>Node6</title>
<g id="a_node6"><a xlink:href="../../d9/dfc/classconfiguration_1_1_dotimes_parser.html#abf0eb9bddfa4a09adc745008e17b293b" target="_top" xlink:title="configuration.DotimesParser.parse">
<polygon fill="white" stroke="black" points="856,-403.5 856,-422.5 1038,-422.5 1038,-403.5 856,-403.5"/>
<text text-anchor="middle" x="947" y="-410.5" font-family="Helvetica,sans-Serif" font-size="10.00">configuration.DotimesParser.parse</text>
</a>
</g>
</g>
<!-- Node5&#45;&gt;Node6 -->
<g id="edge5" class="edge"><title>Node5&#45;&gt;Node6</title>
<path fill="none" stroke="midnightblue" d="M830.081,-400.12C840.166,-401.241 850.344,-402.372 860.26,-403.473"/>
<polygon fill="midnightblue" stroke="midnightblue" points="830.365,-396.63 820.039,-399.004 829.592,-403.587 830.365,-396.63"/>
</g>
<!-- Node8 -->
<g id="node8" class="node"><title>Node8</title>
<g id="a_node8"><a xlink:href="../../d9/dfc/classconfiguration_1_1_dotimes_parser.html#a6086c4c4651b29dd968bf4728bd71d0c" target="_top" xlink:title="configuration.DotimesParser.parse\lCommands">
<polygon fill="white" stroke="black" points="638,-423 638,-453 820,-453 820,-423 638,-423"/>
<text text-anchor="start" x="646" y="-441" font-family="Helvetica,sans-Serif" font-size="10.00">configuration.DotimesParser.parse</text>
<text text-anchor="middle" x="729" y="-430" font-family="Helvetica,sans-Serif" font-size="10.00">Commands</text>
</a>
</g>
</g>
<!-- Node7&#45;&gt;Node8 -->
<g id="edge7" class="edge"><title>Node7&#45;&gt;Node8</title>
<path fill="none" stroke="midnightblue" d="M611.785,-436.962C620.488,-437.04 629.224,-437.118 637.783,-437.194"/>
<polygon fill="midnightblue" stroke="midnightblue" points="611.629,-433.461 601.598,-436.871 611.566,-440.461 611.629,-433.461"/>
</g>
<!-- Node8&#45;&gt;Node6 -->
<g id="edge8" class="edge"><title>Node8&#45;&gt;Node6</title>
<path fill="none" stroke="midnightblue" d="M830.272,-426.394C841.464,-425.099 852.767,-423.791 863.698,-422.526"/>
<polygon fill="midnightblue" stroke="midnightblue" points="829.571,-422.952 820.039,-427.579 830.375,-429.906 829.571,-422.952"/>
</g>
<!-- Node10 -->
<g id="node10" class="node"><title>Node10</title>
<g id="a_node10"><a xlink:href="../../dc/d64/classconfiguration_1_1_for_parser.html#a2737b422e279cfca7c64fd8eff57d3ff" target="_top" xlink:title="configuration.ForParser.parse">
<polygon fill="white" stroke="black" points="651,-333.5 651,-352.5 807,-352.5 807,-333.5 651,-333.5"/>
<text text-anchor="middle" x="729" y="-340.5" font-family="Helvetica,sans-Serif" font-size="10.00">configuration.ForParser.parse</text>
</a>
</g>
</g>
<!-- Node9&#45;&gt;Node10 -->
<g id="edge10" class="edge"><title>Node9&#45;&gt;Node10</title>
<path fill="none" stroke="midnightblue" d="M589.622,-343C609.778,-343 631.141,-343 650.895,-343"/>
<polygon fill="midnightblue" stroke="midnightblue" points="589.524,-339.5 579.524,-343 589.524,-346.5 589.524,-339.5"/>
</g>
<!-- Node12 -->
<g id="node12" class="node"><title>Node12</title>
<g id="a_node12"><a xlink:href="../../dc/d64/classconfiguration_1_1_for_parser.html#ad3cb5184cf449bd3414f3ba73a8b3104" target="_top" xlink:title="configuration.ForParser.parse\lCommands">
<polygon fill="white" stroke="black" points="651,-284 651,-314 807,-314 807,-284 651,-284"/>
<text text-anchor="start" x="659" y="-302" font-family="Helvetica,sans-Serif" font-size="10.00">configuration.ForParser.parse</text>
<text text-anchor="middle" x="729" y="-291" font-family="Helvetica,sans-Serif" font-size="10.00">Commands</text>
</a>
</g>
</g>
<!-- Node11&#45;&gt;Node12 -->
<g id="edge12" class="edge"><title>Node11&#45;&gt;Node12</title>
<path fill="none" stroke="midnightblue" d="M598.838,-299C616.214,-299 634.155,-299 650.934,-299"/>
<polygon fill="midnightblue" stroke="midnightblue" points="598.685,-295.5 588.685,-299 598.685,-302.5 598.685,-295.5"/>
</g>
<!-- Node14 -->
<g id="node14" class="node"><title>Node14</title>
<g id="a_node14"><a xlink:href="../../d7/d56/classconfiguration_1_1_ifelse_parser.html#a4b806589536dd338338d515a0fdb67ed" target="_top" xlink:title="configuration.IfelseParser.parse">
<polygon fill="white" stroke="black" points="646,-199.5 646,-218.5 812,-218.5 812,-199.5 646,-199.5"/>
<text text-anchor="middle" x="729" y="-206.5" font-family="Helvetica,sans-Serif" font-size="10.00">configuration.IfelseParser.parse</text>
</a>
</g>
</g>
<!-- Node13&#45;&gt;Node14 -->
<g id="edge14" class="edge"><title>Node13&#45;&gt;Node14</title>
<path fill="none" stroke="midnightblue" d="M587.545,-237.843C619.357,-231.311 654.45,-224.104 681.6,-218.529"/>
<polygon fill="midnightblue" stroke="midnightblue" points="586.437,-234.498 577.346,-239.938 587.846,-241.355 586.437,-234.498"/>
</g>
<!-- Node15 -->
<g id="node15" class="node"><title>Node15</title>
<g id="a_node15"><a xlink:href="../../dc/dd1/classconfiguration_1_1_if_parser.html#ab4ed2d3b7778d2b1206e5d26ebac7976" target="_top" xlink:title="configuration.IfParser.parse">
<polygon fill="white" stroke="black" points="656,-240.5 656,-259.5 802,-259.5 802,-240.5 656,-240.5"/>
<text text-anchor="middle" x="729" y="-247.5" font-family="Helvetica,sans-Serif" font-size="10.00">configuration.IfParser.parse</text>
</a>
</g>
</g>
<!-- Node13&#45;&gt;Node15 -->
<g id="edge15" class="edge"><title>Node13&#45;&gt;Node15</title>
<path fill="none" stroke="midnightblue" d="M603.457,-252.78C621.027,-252.388 639.013,-251.986 655.658,-251.615"/>
<polygon fill="midnightblue" stroke="midnightblue" points="603.094,-249.287 593.174,-253.01 603.25,-256.285 603.094,-249.287"/>
</g>
<!-- Node16&#45;&gt;Node14 -->
<g id="edge17" class="edge"><title>Node16&#45;&gt;Node14</title>
<path fill="none" stroke="midnightblue" d="M596.283,-207.236C612.72,-207.456 629.742,-207.684 645.873,-207.9"/>
<polygon fill="midnightblue" stroke="midnightblue" points="596.183,-203.734 586.137,-207.1 596.09,-210.734 596.183,-203.734"/>
</g>
<!-- Node16&#45;&gt;Node15 -->
<g id="edge18" class="edge"><title>Node16&#45;&gt;Node15</title>
<path fill="none" stroke="midnightblue" d="M590.59,-223.009C620.791,-228.941 653.594,-235.384 679.573,-240.488"/>
<polygon fill="midnightblue" stroke="midnightblue" points="590.949,-219.512 580.462,-221.019 589.599,-226.381 590.949,-219.512"/>
</g>
<!-- Node19 -->
<g id="node19" class="node"><title>Node19</title>
<g id="a_node19"><a xlink:href="../../d3/d0d/classconfiguration_1_1_repeat_parser.html#abf20b0ae25909c1cdff93f509830b502" target="_top" xlink:title="configuration.RepeatParser.parse">
<polygon fill="white" stroke="black" points="860,-107.5 860,-126.5 1034,-126.5 1034,-107.5 860,-107.5"/>
<text text-anchor="middle" x="947" y="-114.5" font-family="Helvetica,sans-Serif" font-size="10.00">configuration.RepeatParser.parse</text>
</a>
</g>
</g>
<!-- Node18&#45;&gt;Node19 -->
<g id="edge21" class="edge"><title>Node18&#45;&gt;Node19</title>
<path fill="none" stroke="midnightblue" d="M825.034,-130.441C836.815,-129.132 848.804,-127.8 860.431,-126.508"/>
<polygon fill="midnightblue" stroke="midnightblue" points="824.301,-127 814.749,-131.583 825.074,-133.958 824.301,-127"/>
</g>
<!-- Node21&#45;&gt;Node20 -->
<g id="edge24" class="edge"><title>Node21&#45;&gt;Node20</title>
<path fill="none" stroke="midnightblue" d="M563.587,-74.5615C590.037,-69.484 621.523,-63.4398 649.828,-58.0063"/>
<polygon fill="midnightblue" stroke="midnightblue" points="562.874,-71.1344 553.713,-76.4569 564.193,-78.0088 562.874,-71.1344"/>
</g>
<!-- Node22 -->
<g id="node22" class="node"><title>Node22</title>
<g id="a_node22"><a xlink:href="../../d3/d0d/classconfiguration_1_1_repeat_parser.html#aed07d335bcd1174cb4247a7add0d3315" target="_top" xlink:title="configuration.RepeatParser.parse\lCommands">
<polygon fill="white" stroke="black" points="642,-77 642,-107 816,-107 816,-77 642,-77"/>
<text text-anchor="start" x="650" y="-95" font-family="Helvetica,sans-Serif" font-size="10.00">configuration.RepeatParser.parse</text>
<text text-anchor="middle" x="729" y="-84" font-family="Helvetica,sans-Serif" font-size="10.00">Commands</text>
</a>
</g>
</g>
<!-- Node21&#45;&gt;Node22 -->
<g id="edge25" class="edge"><title>Node21&#45;&gt;Node22</title>
<path fill="none" stroke="midnightblue" d="M608.039,-88.7868C619.348,-89.0897 630.765,-89.3955 641.826,-89.6918"/>
<polygon fill="midnightblue" stroke="midnightblue" points="607.788,-85.2789 597.698,-88.5098 607.601,-92.2764 607.788,-85.2789"/>
</g>
<!-- Node22&#45;&gt;Node19 -->
<g id="edge26" class="edge"><title>Node22&#45;&gt;Node19</title>
<path fill="none" stroke="midnightblue" d="M826.262,-103.141C838.755,-104.587 851.461,-106.058 863.7,-107.475"/>
<polygon fill="midnightblue" stroke="midnightblue" points="826.636,-99.6615 816.3,-101.988 825.831,-106.615 826.636,-99.6615"/>
</g>
</g>
</svg>
