<?xml version="1.0" encoding="UTF-8" standalone="no"?>
<!DOCTYPE svg PUBLIC "-//W3C//DTD SVG 1.1//EN"
 "http://www.w3.org/Graphics/SVG/1.1/DTD/svg11.dtd">
<!-- Generated by graphviz version 2.36.0 (20140111.2315)
 -->
<!-- Title: commands.UserMadeUtilities.checkUDCommands Pages: 1 -->
<svg width="738pt" height="77pt"
 viewBox="0.00 0.00 738.00 77.00" xmlns="http://www.w3.org/2000/svg" xmlns:xlink="http://www.w3.org/1999/xlink">
<g id="graph0" class="graph" transform="scale(1 1) rotate(0) translate(4 73)">
<title>commands.UserMadeUtilities.checkUDCommands</title>
<polygon fill="white" stroke="none" points="-4,4 -4,-73 734,-73 734,4 -4,4"/>
<!-- Node1 -->
<g id="node1" class="node"><title>Node1</title>
<polygon fill="#bfbfbf" stroke="black" points="0,-22 0,-52 188,-52 188,-22 0,-22"/>
<text text-anchor="start" x="8" y="-40" font-family="Helvetica,sans-Serif" font-size="10.00">commands.UserMadeUtilities.check</text>
<text text-anchor="middle" x="94" y="-29" font-family="Helvetica,sans-Serif" font-size="10.00">UDCommands</text>
</g>
<!-- Node2 -->
<g id="node2" class="node"><title>Node2</title>
<g id="a_node2"><a xlink:href="../../d3/d71/classgui_1_1_user_input_box.html#a97af345e01f003fb2eab983e845422f2" target="_top" xlink:title="gui.UserInputBox.doInput">
<polygon fill="white" stroke="black" points="229.5,-49.5 229.5,-68.5 366.5,-68.5 366.5,-49.5 229.5,-49.5"/>
<text text-anchor="middle" x="298" y="-56.5" font-family="Helvetica,sans-Serif" font-size="10.00">gui.UserInputBox.doInput</text>
</a>
</g>
</g>
<!-- Node1&#45;&gt;Node2 -->
<g id="edge1" class="edge"><title>Node1&#45;&gt;Node2</title>
<path fill="none" stroke="midnightblue" d="M198.195,-48.2391C208.816,-49.3958 219.404,-50.5489 229.49,-51.6474"/>
<polygon fill="midnightblue" stroke="midnightblue" points="198.338,-44.7341 188.018,-47.1307 197.58,-51.6929 198.338,-44.7341"/>
</g>
<!-- Node4 -->
<g id="node4" class="node"><title>Node4</title>
<g id="a_node4"><a xlink:href="../../d6/d2f/classgui_1_1_g_u_i.html#a969657070e7503ad76669ed3ef5001ed" target="_top" xlink:title="gui.GUI.initializeCommands\lHistory">
<polygon fill="white" stroke="black" points="224,-0 224,-30 372,-30 372,-0 224,-0"/>
<text text-anchor="start" x="232" y="-18" font-family="Helvetica,sans-Serif" font-size="10.00">gui.GUI.initializeCommands</text>
<text text-anchor="middle" x="298" y="-7" font-family="Helvetica,sans-Serif" font-size="10.00">History</text>
</a>
</g>
</g>
<!-- Node1&#45;&gt;Node4 -->
<g id="edge3" class="edge"><title>Node1&#45;&gt;Node4</title>
<path fill="none" stroke="midnightblue" d="M198.173,-25.7633C206.829,-24.8206 215.463,-23.8803 223.821,-22.97"/>
<polygon fill="midnightblue" stroke="midnightblue" points="197.58,-22.3071 188.018,-26.8693 198.338,-29.2659 197.58,-22.3071"/>
</g>
<!-- Node3 -->
<g id="node3" class="node"><title>Node3</title>
<g id="a_node3"><a xlink:href="../../d3/d71/classgui_1_1_user_input_box.html#a2fc8903ae3868c350deb7b6caef9527d" target="_top" xlink:title="gui.UserInputBox.UserInputBox">
<polygon fill="white" stroke="black" points="408,-49.5 408,-68.5 574,-68.5 574,-49.5 408,-49.5"/>
<text text-anchor="middle" x="491" y="-56.5" font-family="Helvetica,sans-Serif" font-size="10.00">gui.UserInputBox.UserInputBox</text>
</a>
</g>
</g>
<!-- Node2&#45;&gt;Node3 -->
<g id="edge2" class="edge"><title>Node2&#45;&gt;Node3</title>
<path fill="none" stroke="midnightblue" d="M376.719,-59C386.941,-59 397.446,-59 407.741,-59"/>
<polygon fill="midnightblue" stroke="midnightblue" points="376.608,-55.5001 366.608,-59 376.608,-62.5001 376.608,-55.5001"/>
</g>
<!-- Node5 -->
<g id="node5" class="node"><title>Node5</title>
<g id="a_node5"><a xlink:href="../../d6/d2f/classgui_1_1_g_u_i.html#a8b2bdbd34755b5a59657b9ad391d2b22" target="_top" xlink:title="gui.GUI.initialize">
<polygon fill="white" stroke="black" points="445,-5.5 445,-24.5 537,-24.5 537,-5.5 445,-5.5"/>
<text text-anchor="middle" x="491" y="-12.5" font-family="Helvetica,sans-Serif" font-size="10.00">gui.GUI.initialize</text>
</a>
</g>
</g>
<!-- Node4&#45;&gt;Node5 -->
<g id="edge4" class="edge"><title>Node4&#45;&gt;Node5</title>
<path fill="none" stroke="midnightblue" d="M382.191,-15C403.756,-15 426.173,-15 444.944,-15"/>
<polygon fill="midnightblue" stroke="midnightblue" points="382.027,-11.5001 372.026,-15 382.026,-18.5001 382.027,-11.5001"/>
</g>
<!-- Node6 -->
<g id="node6" class="node"><title>Node6</title>
<g id="a_node6"><a xlink:href="../../d9/d96/classapplication_1_1_main.html#a998d14807e266e3f3b9e85468fc1ea98" target="_top" xlink:title="application.Main.start">
<polygon fill="white" stroke="black" points="610.5,-5.5 610.5,-24.5 729.5,-24.5 729.5,-5.5 610.5,-5.5"/>
<text text-anchor="middle" x="670" y="-12.5" font-family="Helvetica,sans-Serif" font-size="10.00">application.Main.start</text>
</a>
</g>
</g>
<!-- Node5&#45;&gt;Node6 -->
<g id="edge5" class="edge"><title>Node5&#45;&gt;Node6</title>
<path fill="none" stroke="midnightblue" d="M547.314,-15C567.315,-15 589.96,-15 610.245,-15"/>
<polygon fill="midnightblue" stroke="midnightblue" points="547.123,-11.5001 537.123,-15 547.123,-18.5001 547.123,-11.5001"/>
</g>
</g>
</svg>
