<?xml version="1.0" encoding="UTF-8" standalone="no"?>
<!DOCTYPE svg PUBLIC "-//W3C//DTD SVG 1.1//EN"
 "http://www.w3.org/Graphics/SVG/1.1/DTD/svg11.dtd">
<!-- Generated by graphviz version 2.36.0 (20140111.2315)
 -->
<!-- Title: commands.UserMadeUtilities.getFromVars Pages: 1 -->
<svg width="1046pt" height="443pt"
 viewBox="0.00 0.00 1046.00 443.00" xmlns="http://www.w3.org/2000/svg" xmlns:xlink="http://www.w3.org/1999/xlink">
<g id="graph0" class="graph" transform="scale(1 1) rotate(0) translate(4 439)">
<title>commands.UserMadeUtilities.getFromVars</title>
<polygon fill="white" stroke="none" points="-4,4 -4,-439 1042,-439 1042,4 -4,4"/>
<!-- Node1 -->
<g id="node1" class="node"><title>Node1</title>
<polygon fill="#bfbfbf" stroke="black" points="0,-202 0,-232 176,-232 176,-202 0,-202"/>
<text text-anchor="start" x="8" y="-220" font-family="Helvetica,sans-Serif" font-size="10.00">commands.UserMadeUtilities.get</text>
<text text-anchor="middle" x="88" y="-209" font-family="Helvetica,sans-Serif" font-size="10.00">FromVars</text>
</g>
<!-- Node2 -->
<g id="node2" class="node"><title>Node2</title>
<g id="a_node2"><a xlink:href="../../d9/d11/classconfiguration_1_1_parser.html#ae0480f44c9defa614fb470ab154fa60b" target="_top" xlink:title="configuration.Parser.buildTree">
<polygon fill="white" stroke="black" points="212,-207.5 212,-226.5 368,-226.5 368,-207.5 212,-207.5"/>
<text text-anchor="middle" x="290" y="-214.5" font-family="Helvetica,sans-Serif" font-size="10.00">configuration.Parser.buildTree</text>
</a>
</g>
</g>
<!-- Node1&#45;&gt;Node2 -->
<g id="edge1" class="edge"><title>Node1&#45;&gt;Node2</title>
<path fill="none" stroke="midnightblue" d="M186.221,-217C194.831,-217 203.469,-217 211.878,-217"/>
<polygon fill="midnightblue" stroke="midnightblue" points="186.141,-213.5 176.141,-217 186.141,-220.5 186.141,-213.5"/>
</g>
<!-- Node3 -->
<g id="node3" class="node"><title>Node3</title>
<g id="a_node3"><a xlink:href="../../d0/da7/classconfiguration_1_1_basic_parser.html#a22bf37b374167e497f639182e7459517" target="_top" xlink:title="configuration.BasicParser.parse">
<polygon fill="white" stroke="black" points="419.5,-415.5 419.5,-434.5 586.5,-434.5 586.5,-415.5 419.5,-415.5"/>
<text text-anchor="middle" x="503" y="-422.5" font-family="Helvetica,sans-Serif" font-size="10.00">configuration.BasicParser.parse</text>
</a>
</g>
</g>
<!-- Node2&#45;&gt;Node3 -->
<g id="edge2" class="edge"><title>Node2&#45;&gt;Node3</title>
<path fill="none" stroke="midnightblue" d="M296.744,-236.27C309.329,-274.947 343.178,-361.995 404,-405 410.097,-409.311 416.91,-412.738 424.028,-415.456"/>
<polygon fill="midnightblue" stroke="midnightblue" points="300.082,-235.218 293.754,-226.721 293.402,-237.31 300.082,-235.218"/>
</g>
<!-- Node4 -->
<g id="node4" class="node"><title>Node4</title>
<g id="a_node4"><a xlink:href="../../d9/dfc/classconfiguration_1_1_dotimes_parser.html#a26cc7f8e0a21d93091bfe8884a924450" target="_top" xlink:title="configuration.DotimesParser.fetch\lNumericExpr">
<polygon fill="white" stroke="black" points="413.5,-366 413.5,-396 592.5,-396 592.5,-366 413.5,-366"/>
<text text-anchor="start" x="421.5" y="-384" font-family="Helvetica,sans-Serif" font-size="10.00">configuration.DotimesParser.fetch</text>
<text text-anchor="middle" x="503" y="-373" font-family="Helvetica,sans-Serif" font-size="10.00">NumericExpr</text>
</a>
</g>
</g>
<!-- Node2&#45;&gt;Node4 -->
<g id="edge3" class="edge"><title>Node2&#45;&gt;Node4</title>
<path fill="none" stroke="midnightblue" d="M300.801,-235.515C317.707,-265.594 355.274,-324.837 404,-356 410.065,-359.879 416.701,-363.156 423.569,-365.926"/>
<polygon fill="midnightblue" stroke="midnightblue" points="303.747,-233.606 295.874,-226.516 297.607,-236.968 303.747,-233.606"/>
</g>
<!-- Node7 -->
<g id="node7" class="node"><title>Node7</title>
<g id="a_node7"><a xlink:href="../../d9/dfc/classconfiguration_1_1_dotimes_parser.html#aff41ee5ce2eeff82f7586bd1cf6a91c8" target="_top" xlink:title="configuration.DotimesParser.parseFor">
<polygon fill="white" stroke="black" points="404.5,-327.5 404.5,-346.5 601.5,-346.5 601.5,-327.5 404.5,-327.5"/>
<text text-anchor="middle" x="503" y="-334.5" font-family="Helvetica,sans-Serif" font-size="10.00">configuration.DotimesParser.parseFor</text>
</a>
</g>
</g>
<!-- Node2&#45;&gt;Node7 -->
<g id="edge6" class="edge"><title>Node2&#45;&gt;Node7</title>
<path fill="none" stroke="midnightblue" d="M306.147,-234.044C326.331,-255.685 364.157,-292.651 404,-313 416.324,-319.294 430.374,-323.989 443.912,-327.473"/>
<polygon fill="midnightblue" stroke="midnightblue" points="308.639,-231.583 299.307,-226.566 303.474,-236.308 308.639,-231.583"/>
</g>
<!-- Node9 -->
<g id="node9" class="node"><title>Node9</title>
<g id="a_node9"><a xlink:href="../../dc/d64/classconfiguration_1_1_for_parser.html#a95aeb8afdb254389dcef062be1cf2727" target="_top" xlink:title="configuration.ForParser.fetch\lNumericExpr">
<polygon fill="white" stroke="black" points="652.5,-284 652.5,-314 805.5,-314 805.5,-284 652.5,-284"/>
<text text-anchor="start" x="660.5" y="-302" font-family="Helvetica,sans-Serif" font-size="10.00">configuration.ForParser.fetch</text>
<text text-anchor="middle" x="729" y="-291" font-family="Helvetica,sans-Serif" font-size="10.00">NumericExpr</text>
</a>
</g>
</g>
<!-- Node2&#45;&gt;Node9 -->
<g id="edge9" class="edge"><title>Node2&#45;&gt;Node9</title>
<path fill="none" stroke="midnightblue" d="M311.856,-232.453C333.61,-247.617 369.317,-269.892 404,-280 486.496,-304.043 585.681,-306.183 652.397,-303.984"/>
<polygon fill="midnightblue" stroke="midnightblue" points="313.874,-229.593 303.699,-226.641 309.812,-235.294 313.874,-229.593"/>
</g>
<!-- Node11 -->
<g id="node11" class="node"><title>Node11</title>
<g id="a_node11"><a xlink:href="../../dc/d64/classconfiguration_1_1_for_parser.html#a6bc38f731ac658c5860fe092ba7689ac" target="_top" xlink:title="configuration.ForParser.parseFor">
<polygon fill="white" stroke="black" points="417.5,-251.5 417.5,-270.5 588.5,-270.5 588.5,-251.5 417.5,-251.5"/>
<text text-anchor="middle" x="503" y="-258.5" font-family="Helvetica,sans-Serif" font-size="10.00">configuration.ForParser.parseFor</text>
</a>
</g>
</g>
<!-- Node2&#45;&gt;Node11 -->
<g id="edge11" class="edge"><title>Node2&#45;&gt;Node11</title>
<path fill="none" stroke="midnightblue" d="M345.565,-228.681C364.105,-232.625 384.948,-237.033 404,-241 420.49,-244.434 438.553,-248.137 454.631,-251.412"/>
<polygon fill="midnightblue" stroke="midnightblue" points="346.038,-225.203 335.529,-226.543 344.58,-232.049 346.038,-225.203"/>
</g>
<!-- Node13 -->
<g id="node13" class="node"><title>Node13</title>
<g id="a_node13"><a xlink:href="../../d7/d56/classconfiguration_1_1_ifelse_parser.html#aef13959a758ccbf8dab0a3f5f94a7be0" target="_top" xlink:title="configuration.IfelseParser.evaluate\lBoolExpr">
<polygon fill="white" stroke="black" points="413,-153 413,-183 593,-183 593,-153 413,-153"/>
<text text-anchor="start" x="421" y="-171" font-family="Helvetica,sans-Serif" font-size="10.00">configuration.IfelseParser.evaluate</text>
<text text-anchor="middle" x="503" y="-160" font-family="Helvetica,sans-Serif" font-size="10.00">BoolExpr</text>
</a>
</g>
</g>
<!-- Node2&#45;&gt;Node13 -->
<g id="edge14" class="edge"><title>Node2&#45;&gt;Node13</title>
<path fill="none" stroke="midnightblue" d="M341.728,-205.22C370.356,-198.571 406.43,-190.194 437.101,-183.071"/>
<polygon fill="midnightblue" stroke="midnightblue" points="340.882,-201.823 331.933,-207.494 342.466,-208.641 340.882,-201.823"/>
</g>
<!-- Node16 -->
<g id="node16" class="node"><title>Node16</title>
<g id="a_node16"><a xlink:href="../../d7/d56/classconfiguration_1_1_ifelse_parser.html#aeb471eacbe15e095075bdd09619fe15d" target="_top" xlink:title="configuration.IfelseParser.parse\lListCommands">
<polygon fill="white" stroke="black" points="420,-202 420,-232 586,-232 586,-202 420,-202"/>
<text text-anchor="start" x="428" y="-220" font-family="Helvetica,sans-Serif" font-size="10.00">configuration.IfelseParser.parse</text>
<text text-anchor="middle" x="503" y="-209" font-family="Helvetica,sans-Serif" font-size="10.00">ListCommands</text>
</a>
</g>
</g>
<!-- Node2&#45;&gt;Node16 -->
<g id="edge17" class="edge"><title>Node2&#45;&gt;Node16</title>
<path fill="none" stroke="midnightblue" d="M378.443,-217C392.134,-217 406.243,-217 419.81,-217"/>
<polygon fill="midnightblue" stroke="midnightblue" points="378.072,-213.5 368.071,-217 378.071,-220.5 378.072,-213.5"/>
</g>
<!-- Node17 -->
<g id="node17" class="node"><title>Node17</title>
<g id="a_node17"><a xlink:href="../../d9/d11/classconfiguration_1_1_parser.html#a041ccb70bd9dee77d512d8469c15c14f" target="_top" xlink:title="configuration.Parser.buildTree">
<polygon fill="white" stroke="black" points="425,-114.5 425,-133.5 581,-133.5 581,-114.5 425,-114.5"/>
<text text-anchor="middle" x="503" y="-121.5" font-family="Helvetica,sans-Serif" font-size="10.00">configuration.Parser.buildTree</text>
</a>
</g>
</g>
<!-- Node2&#45;&gt;Node17 -->
<g id="edge20" class="edge"><title>Node2&#45;&gt;Node17</title>
<path fill="none" stroke="midnightblue" d="M310.346,-200.913C331.855,-183.881 368.289,-157.498 404,-143 413.554,-139.121 423.961,-136.019 434.309,-133.542"/>
<polygon fill="midnightblue" stroke="midnightblue" points="307.933,-198.363 302.347,-207.365 312.328,-203.812 307.933,-198.363"/>
</g>
<!-- Node18 -->
<g id="node18" class="node"><title>Node18</title>
<g id="a_node18"><a xlink:href="../../d3/d0d/classconfiguration_1_1_repeat_parser.html#ab218ee8c24e4dab18c02cd4a536d15d3" target="_top" xlink:title="configuration.RepeatParser.fetch\lNumericExpr">
<polygon fill="white" stroke="black" points="643.5,-77 643.5,-107 814.5,-107 814.5,-77 643.5,-77"/>
<text text-anchor="start" x="651.5" y="-95" font-family="Helvetica,sans-Serif" font-size="10.00">configuration.RepeatParser.fetch</text>
<text text-anchor="middle" x="729" y="-84" font-family="Helvetica,sans-Serif" font-size="10.00">NumericExpr</text>
</a>
</g>
</g>
<!-- Node2&#45;&gt;Node18 -->
<g id="edge21" class="edge"><title>Node2&#45;&gt;Node18</title>
<path fill="none" stroke="midnightblue" d="M302.671,-198.843C320.736,-172.572 358.21,-124.93 404,-105 480.007,-71.9172 575.772,-72.5915 643.418,-79.1345"/>
<polygon fill="midnightblue" stroke="midnightblue" points="299.557,-197.204 296.914,-207.464 305.378,-201.091 299.557,-197.204"/>
</g>
<!-- Node20 -->
<g id="node20" class="node"><title>Node20</title>
<g id="a_node20"><a xlink:href="../../d3/d0d/classconfiguration_1_1_repeat_parser.html#a27c7e86622dda996677d34987f702cb6" target="_top" xlink:title="configuration.RepeatParser.parseFor">
<polygon fill="white" stroke="black" points="408.5,-38.5 408.5,-57.5 597.5,-57.5 597.5,-38.5 408.5,-38.5"/>
<text text-anchor="middle" x="503" y="-45.5" font-family="Helvetica,sans-Serif" font-size="10.00">configuration.RepeatParser.parseFor</text>
</a>
</g>
</g>
<!-- Node2&#45;&gt;Node20 -->
<g id="edge23" class="edge"><title>Node2&#45;&gt;Node20</title>
<path fill="none" stroke="midnightblue" d="M300.103,-198.489C316.424,-167.311 353.715,-104.55 404,-72 413.852,-65.6225 425.26,-60.9394 436.734,-57.5004"/>
<polygon fill="midnightblue" stroke="midnightblue" points="296.972,-196.924 295.551,-207.423 303.209,-200.102 296.972,-196.924"/>
</g>
<!-- Node22 -->
<g id="node22" class="node"><title>Node22</title>
<g id="a_node22"><a xlink:href="../../db/d22/classconfiguration_1_1_set_parser.html#a4f20258805caaf18872872d5283a0e74" target="_top" xlink:title="configuration.SetParser.parse">
<polygon fill="white" stroke="black" points="424,-0.5 424,-19.5 582,-19.5 582,-0.5 424,-0.5"/>
<text text-anchor="middle" x="503" y="-7.5" font-family="Helvetica,sans-Serif" font-size="10.00">configuration.SetParser.parse</text>
</a>
</g>
</g>
<!-- Node2&#45;&gt;Node22 -->
<g id="edge26" class="edge"><title>Node2&#45;&gt;Node22</title>
<path fill="none" stroke="midnightblue" d="M296.709,-197.68C309.23,-158.912 342.968,-71.7064 404,-29 409.964,-24.8269 416.609,-21.5117 423.55,-18.8852"/>
<polygon fill="midnightblue" stroke="midnightblue" points="293.36,-196.664 293.735,-207.252 300.044,-198.741 293.36,-196.664"/>
</g>
<!-- Node5 -->
<g id="node5" class="node"><title>Node5</title>
<g id="a_node5"><a xlink:href="../../d9/dfc/classconfiguration_1_1_dotimes_parser.html#a63d34c400b9b5715b4a2f9a5d0107e62" target="_top" xlink:title="configuration.DotimesParser.parse\lDotimesIterator">
<polygon fill="white" stroke="black" points="638,-382 638,-412 820,-412 820,-382 638,-382"/>
<text text-anchor="start" x="646" y="-400" font-family="Helvetica,sans-Serif" font-size="10.00">configuration.DotimesParser.parse</text>
<text text-anchor="middle" x="729" y="-389" font-family="Helvetica,sans-Serif" font-size="10.00">DotimesIterator</text>
</a>
</g>
</g>
<!-- Node4&#45;&gt;Node5 -->
<g id="edge4" class="edge"><title>Node4&#45;&gt;Node5</title>
<path fill="none" stroke="midnightblue" d="M602.748,-388.053C614.446,-388.889 626.34,-389.739 637.909,-390.565"/>
<polygon fill="midnightblue" stroke="midnightblue" points="602.755,-384.545 592.531,-387.324 602.256,-391.527 602.755,-384.545"/>
</g>
<!-- Node6 -->
<g id="node6" class="node"><title>Node6</title>
<g id="a_node6"><a xlink:href="../../d9/dfc/classconfiguration_1_1_dotimes_parser.html#abf0eb9bddfa4a09adc745008e17b293b" target="_top" xlink:title="configuration.DotimesParser.parse">
<polygon fill="white" stroke="black" points="856,-362.5 856,-381.5 1038,-381.5 1038,-362.5 856,-362.5"/>
<text text-anchor="middle" x="947" y="-369.5" font-family="Helvetica,sans-Serif" font-size="10.00">configuration.DotimesParser.parse</text>
</a>
</g>
</g>
<!-- Node5&#45;&gt;Node6 -->
<g id="edge5" class="edge"><title>Node5&#45;&gt;Node6</title>
<path fill="none" stroke="midnightblue" d="M830.272,-385.394C841.464,-384.099 852.767,-382.791 863.698,-381.526"/>
<polygon fill="midnightblue" stroke="midnightblue" points="829.571,-381.952 820.039,-386.579 830.375,-388.906 829.571,-381.952"/>
</g>
<!-- Node8 -->
<g id="node8" class="node"><title>Node8</title>
<g id="a_node8"><a xlink:href="../../d9/dfc/classconfiguration_1_1_dotimes_parser.html#a6086c4c4651b29dd968bf4728bd71d0c" target="_top" xlink:title="configuration.DotimesParser.parse\lCommands">
<polygon fill="white" stroke="black" points="638,-333 638,-363 820,-363 820,-333 638,-333"/>
<text text-anchor="start" x="646" y="-351" font-family="Helvetica,sans-Serif" font-size="10.00">configuration.DotimesParser.parse</text>
<text text-anchor="middle" x="729" y="-340" font-family="Helvetica,sans-Serif" font-size="10.00">Commands</text>
</a>
</g>
</g>
<!-- Node7&#45;&gt;Node8 -->
<g id="edge7" class="edge"><title>Node7&#45;&gt;Node8</title>
<path fill="none" stroke="midnightblue" d="M611.785,-342.293C620.488,-342.72 629.224,-343.149 637.783,-343.57"/>
<polygon fill="midnightblue" stroke="midnightblue" points="611.758,-338.788 601.598,-341.793 611.414,-345.779 611.758,-338.788"/>
</g>
<!-- Node8&#45;&gt;Node6 -->
<g id="edge8" class="edge"><title>Node8&#45;&gt;Node6</title>
<path fill="none" stroke="midnightblue" d="M830.081,-359.12C840.166,-360.241 850.344,-361.372 860.26,-362.473"/>
<polygon fill="midnightblue" stroke="midnightblue" points="830.365,-355.63 820.039,-358.004 829.592,-362.587 830.365,-355.63"/>
</g>
<!-- Node10 -->
<g id="node10" class="node"><title>Node10</title>
<g id="a_node10"><a xlink:href="../../dc/d64/classconfiguration_1_1_for_parser.html#a2737b422e279cfca7c64fd8eff57d3ff" target="_top" xlink:title="configuration.ForParser.parse">
<polygon fill="white" stroke="black" points="869,-264.5 869,-283.5 1025,-283.5 1025,-264.5 869,-264.5"/>
<text text-anchor="middle" x="947" y="-271.5" font-family="Helvetica,sans-Serif" font-size="10.00">configuration.ForParser.parse</text>
</a>
</g>
</g>
<!-- Node9&#45;&gt;Node10 -->
<g id="edge10" class="edge"><title>Node9&#45;&gt;Node10</title>
<path fill="none" stroke="midnightblue" d="M815.729,-289.078C833.208,-287.055 851.501,-284.937 868.667,-282.951"/>
<polygon fill="midnightblue" stroke="midnightblue" points="815.078,-285.63 805.546,-290.256 815.882,-292.583 815.078,-285.63"/>
</g>
<!-- Node12 -->
<g id="node12" class="node"><title>Node12</title>
<g id="a_node12"><a xlink:href="../../dc/d64/classconfiguration_1_1_for_parser.html#ad3cb5184cf449bd3414f3ba73a8b3104" target="_top" xlink:title="configuration.ForParser.parse\lCommands">
<polygon fill="white" stroke="black" points="651,-235 651,-265 807,-265 807,-235 651,-235"/>
<text text-anchor="start" x="659" y="-253" font-family="Helvetica,sans-Serif" font-size="10.00">configuration.ForParser.parse</text>
<text text-anchor="middle" x="729" y="-242" font-family="Helvetica,sans-Serif" font-size="10.00">Commands</text>
</a>
</g>
</g>
<!-- Node11&#45;&gt;Node12 -->
<g id="edge12" class="edge"><title>Node11&#45;&gt;Node12</title>
<path fill="none" stroke="midnightblue" d="M598.838,-256.343C616.214,-255.489 634.155,-254.608 650.934,-253.784"/>
<polygon fill="midnightblue" stroke="midnightblue" points="598.501,-252.855 588.685,-256.841 598.844,-259.847 598.501,-252.855"/>
</g>
<!-- Node12&#45;&gt;Node10 -->
<g id="edge13" class="edge"><title>Node12&#45;&gt;Node10</title>
<path fill="none" stroke="midnightblue" d="M817.077,-259.675C834.248,-261.583 852.153,-263.573 868.964,-265.44"/>
<polygon fill="midnightblue" stroke="midnightblue" points="817.392,-256.189 807.066,-258.563 816.618,-263.146 817.392,-256.189"/>
</g>
<!-- Node14 -->
<g id="node14" class="node"><title>Node14</title>
<g id="a_node14"><a xlink:href="../../d7/d56/classconfiguration_1_1_ifelse_parser.html#a4b806589536dd338338d515a0fdb67ed" target="_top" xlink:title="configuration.IfelseParser.parse">
<polygon fill="white" stroke="black" points="646,-196.5 646,-215.5 812,-215.5 812,-196.5 646,-196.5"/>
<text text-anchor="middle" x="729" y="-203.5" font-family="Helvetica,sans-Serif" font-size="10.00">configuration.IfelseParser.parse</text>
</a>
</g>
</g>
<!-- Node13&#45;&gt;Node14 -->
<g id="edge15" class="edge"><title>Node13&#45;&gt;Node14</title>
<path fill="none" stroke="midnightblue" d="M602.649,-184.735C626.404,-188.765 650.971,-192.933 671.995,-196.499"/>
<polygon fill="midnightblue" stroke="midnightblue" points="602.975,-181.241 592.531,-183.019 601.804,-188.142 602.975,-181.241"/>
</g>
<!-- Node15 -->
<g id="node15" class="node"><title>Node15</title>
<g id="a_node15"><a xlink:href="../../dc/dd1/classconfiguration_1_1_if_parser.html#ab4ed2d3b7778d2b1206e5d26ebac7976" target="_top" xlink:title="configuration.IfParser.parse">
<polygon fill="white" stroke="black" points="656,-158.5 656,-177.5 802,-177.5 802,-158.5 656,-158.5"/>
<text text-anchor="middle" x="729" y="-165.5" font-family="Helvetica,sans-Serif" font-size="10.00">configuration.IfParser.parse</text>
</a>
</g>
</g>
<!-- Node13&#45;&gt;Node15 -->
<g id="edge16" class="edge"><title>Node13&#45;&gt;Node15</title>
<path fill="none" stroke="midnightblue" d="M603.457,-168C621.027,-168 639.013,-168 655.658,-168"/>
<polygon fill="midnightblue" stroke="midnightblue" points="603.174,-164.5 593.174,-168 603.174,-171.5 603.174,-164.5"/>
</g>
<!-- Node16&#45;&gt;Node14 -->
<g id="edge18" class="edge"><title>Node16&#45;&gt;Node14</title>
<path fill="none" stroke="midnightblue" d="M596.283,-212.468C612.72,-211.661 629.742,-210.825 645.873,-210.033"/>
<polygon fill="midnightblue" stroke="midnightblue" points="595.954,-208.98 586.137,-212.966 596.297,-215.972 595.954,-208.98"/>
</g>
<!-- Node16&#45;&gt;Node15 -->
<g id="edge19" class="edge"><title>Node16&#45;&gt;Node15</title>
<path fill="none" stroke="midnightblue" d="M580.422,-199.722C599.237,-195.514 619.34,-191.058 638,-187 652.356,-183.878 668.017,-180.546 682.192,-177.558"/>
<polygon fill="midnightblue" stroke="midnightblue" points="579.412,-196.361 570.419,-201.962 580.942,-203.192 579.412,-196.361"/>
</g>
<!-- Node19 -->
<g id="node19" class="node"><title>Node19</title>
<g id="a_node19"><a xlink:href="../../d3/d0d/classconfiguration_1_1_repeat_parser.html#abf20b0ae25909c1cdff93f509830b502" target="_top" xlink:title="configuration.RepeatParser.parse">
<polygon fill="white" stroke="black" points="860,-58.5 860,-77.5 1034,-77.5 1034,-58.5 860,-58.5"/>
<text text-anchor="middle" x="947" y="-65.5" font-family="Helvetica,sans-Serif" font-size="10.00">configuration.RepeatParser.parse</text>
</a>
</g>
</g>
<!-- Node18&#45;&gt;Node19 -->
<g id="edge22" class="edge"><title>Node18&#45;&gt;Node19</title>
<path fill="none" stroke="midnightblue" d="M825.034,-81.4407C836.815,-80.1317 848.804,-78.7995 860.431,-77.5077"/>
<polygon fill="midnightblue" stroke="midnightblue" points="824.301,-78.0005 814.749,-82.5834 825.074,-84.9576 824.301,-78.0005"/>
</g>
<!-- Node21 -->
<g id="node21" class="node"><title>Node21</title>
<g id="a_node21"><a xlink:href="../../d3/d0d/classconfiguration_1_1_repeat_parser.html#aed07d335bcd1174cb4247a7add0d3315" target="_top" xlink:title="configuration.RepeatParser.parse\lCommands">
<polygon fill="white" stroke="black" points="642,-28 642,-58 816,-58 816,-28 642,-28"/>
<text text-anchor="start" x="650" y="-46" font-family="Helvetica,sans-Serif" font-size="10.00">configuration.RepeatParser.parse</text>
<text text-anchor="middle" x="729" y="-35" font-family="Helvetica,sans-Serif" font-size="10.00">Commands</text>
</a>
</g>
</g>
<!-- Node20&#45;&gt;Node21 -->
<g id="edge24" class="edge"><title>Node20&#45;&gt;Node21</title>
<path fill="none" stroke="midnightblue" d="M608.039,-45.6777C619.348,-45.4253 630.765,-45.1704 641.826,-44.9235"/>
<polygon fill="midnightblue" stroke="midnightblue" points="607.618,-42.1861 597.698,-45.9085 607.774,-49.1844 607.618,-42.1861"/>
</g>
<!-- Node21&#45;&gt;Node19 -->
<g id="edge25" class="edge"><title>Node21&#45;&gt;Node19</title>
<path fill="none" stroke="midnightblue" d="M826.262,-54.1414C838.755,-55.5874 851.461,-57.058 863.7,-58.4745"/>
<polygon fill="midnightblue" stroke="midnightblue" points="826.636,-50.6615 816.3,-52.9884 825.831,-57.6151 826.636,-50.6615"/>
</g>
</g>
</svg>
