<?xml version="1.0" encoding="UTF-8" standalone="no"?>
<!DOCTYPE svg PUBLIC "-//W3C//DTD SVG 1.1//EN"
 "http://www.w3.org/Graphics/SVG/1.1/DTD/svg11.dtd">
<!-- Generated by graphviz version 2.36.0 (20140111.2315)
 -->
<!-- Title: commands.UserMadeUtilities.containsVars Pages: 1 -->
<!--zoomable 455 -->
<svg id="main" version="1.1" xmlns="http://www.w3.org/2000/svg" xmlns:xlink="http://www.w3.org/1999/xlink" xml:space="preserve" onload="init(evt)">
<style type="text/css"><![CDATA[
.edge:hover path { stroke: red; }
.edge:hover polygon { stroke: red; fill: red; }
]]></style>
<script type="text/javascript"><![CDATA[
var edges = document.getElementsByTagName('g');
if (edges && edges.length) {
  for (var i=0;i<edges.length;i++) {
    if (edges[i].id.substr(0,4)=='edge') {
      edges[i].setAttribute('class','edge');
    }
  }
}
]]></script>
        <defs>
                <circle id="rim" cx="0" cy="0" r="7"/>
                <circle id="rim2" cx="0" cy="0" r="3.5"/>
                <g id="zoomPlus">
                        <use xlink:href="#rim" fill="#404040">
                                <set attributeName="fill" to="#808080" begin="zoomplus.mouseover" end="zoomplus.mouseout"/>
                        </use>
                        <path d="M-4,0h8M0,-4v8" fill="none" stroke="white" stroke-width="1.5" pointer-events="none"/>
                </g>
                <g id="zoomMin">
                        <use xlink:href="#rim" fill="#404040">
                                <set attributeName="fill" to="#808080" begin="zoomminus.mouseover" end="zoomminus.mouseout"/>
                        </use>
                        <path d="M-4,0h8" fill="none" stroke="white" stroke-width="1.5" pointer-events="none"/>
                </g>
                <g id="dirArrow">
                        <path fill="none" stroke="white" stroke-width="1.5" d="M0,-3.0v7 M-2.5,-0.5L0,-3.0L2.5,-0.5"/>
                </g>
               <g id="resetDef">
                       <use xlink:href="#rim2" fill="#404040">
                               <set attributeName="fill" to="#808080" begin="reset.mouseover" end="reset.mouseout"/>
                       </use>
               </g>
        </defs>

<script type="text/javascript">
var viewWidth = 1092;
var viewHeight = 455;
var sectionId = 'dynsection-3';
</script>
<script xlink:href="../../svgpan.js"/>
<svg id="graph" class="graph">
<g id="viewport">
<title>commands.UserMadeUtilities.containsVars</title>
<polygon fill="white" stroke="none" points="-4,4 -4,-451 1088,-451 1088,4 -4,4"/>
<!-- Node1 -->
<g id="node1" class="node"><title>Node1</title>
<polygon fill="#bfbfbf" stroke="black" points="0,-207.5 0,-226.5 222,-226.5 222,-207.5 0,-207.5"/>
<text text-anchor="middle" x="111" y="-214.5" font-family="Helvetica,sans-Serif" font-size="10.00">commands.UserMadeUtilities.containsVars</text>
</g>
<!-- Node2 -->
<g id="node2" class="node"><title>Node2</title>
<g id="a_node2"><a xlink:href="../../d9/d11/classconfiguration_1_1_parser.html#ae0480f44c9defa614fb470ab154fa60b" target="_top" xlink:title="configuration.Parser.buildTree">
<polygon fill="white" stroke="black" points="258,-207.5 258,-226.5 414,-226.5 414,-207.5 258,-207.5"/>
<text text-anchor="middle" x="336" y="-214.5" font-family="Helvetica,sans-Serif" font-size="10.00">configuration.Parser.buildTree</text>
</a>
</g>
</g>
<!-- Node1&#45;&gt;Node2 -->
<g id="edge1" class="edge"><title>Node1&#45;&gt;Node2</title>
<path fill="none" stroke="midnightblue" d="M232.37,-217C241.022,-217 249.602,-217 257.9,-217"/>
<polygon fill="midnightblue" stroke="midnightblue" points="232.193,-213.5 222.193,-217 232.193,-220.5 232.193,-213.5"/>
</g>
<!-- Node3 -->
<g id="node3" class="node"><title>Node3</title>
<g id="a_node3"><a xlink:href="../../d0/da7/classconfiguration_1_1_basic_parser.html#a22bf37b374167e497f639182e7459517" target="_top" xlink:title="configuration.BasicParser.parse">
<polygon fill="white" stroke="black" points="465.5,-427.5 465.5,-446.5 632.5,-446.5 632.5,-427.5 465.5,-427.5"/>
<text text-anchor="middle" x="549" y="-434.5" font-family="Helvetica,sans-Serif" font-size="10.00">configuration.BasicParser.parse</text>
</a>
</g>
</g>
<!-- Node2&#45;&gt;Node3 -->
<g id="edge2" class="edge"><title>Node2&#45;&gt;Node3</title>
<path fill="none" stroke="midnightblue" d="M342.126,-236.643C353.818,-277.315 386.485,-370.796 450,-417 455.898,-421.29 462.498,-424.711 469.412,-427.432"/>
<polygon fill="midnightblue" stroke="midnightblue" points="345.462,-235.576 339.431,-226.865 338.714,-237.436 345.462,-235.576"/>
</g>
<!-- Node4 -->
<g id="node4" class="node"><title>Node4</title>
<g id="a_node4"><a xlink:href="../../d9/dfc/classconfiguration_1_1_dotimes_parser.html#a26cc7f8e0a21d93091bfe8884a924450" target="_top" xlink:title="configuration.DotimesParser.fetch\lNumericExpr">
<polygon fill="white" stroke="black" points="459.5,-378 459.5,-408 638.5,-408 638.5,-378 459.5,-378"/>
<text text-anchor="start" x="467.5" y="-396" font-family="Helvetica,sans-Serif" font-size="10.00">configuration.DotimesParser.fetch</text>
<text text-anchor="middle" x="549" y="-385" font-family="Helvetica,sans-Serif" font-size="10.00">NumericExpr</text>
</a>
</g>
</g>
<!-- Node2&#45;&gt;Node4 -->
<g id="edge3" class="edge"><title>Node2&#45;&gt;Node4</title>
<path fill="none" stroke="midnightblue" d="M345.699,-235.76C361.636,-267.985 398.657,-333.693 450,-368 455.84,-371.902 462.247,-375.195 468.902,-377.974"/>
<polygon fill="midnightblue" stroke="midnightblue" points="348.762,-234.052 341.274,-226.556 342.453,-237.085 348.762,-234.052"/>
</g>
<!-- Node7 -->
<g id="node7" class="node"><title>Node7</title>
<g id="a_node7"><a xlink:href="../../d9/dfc/classconfiguration_1_1_dotimes_parser.html#aff41ee5ce2eeff82f7586bd1cf6a91c8" target="_top" xlink:title="configuration.DotimesParser.parseFor">
<polygon fill="white" stroke="black" points="450.5,-339.5 450.5,-358.5 647.5,-358.5 647.5,-339.5 450.5,-339.5"/>
<text text-anchor="middle" x="549" y="-346.5" font-family="Helvetica,sans-Serif" font-size="10.00">configuration.DotimesParser.parseFor</text>
</a>
</g>
</g>
<!-- Node2&#45;&gt;Node7 -->
<g id="edge6" class="edge"><title>Node2&#45;&gt;Node7</title>
<path fill="none" stroke="midnightblue" d="M349.681,-234.967C368.52,-260.207 406.398,-305.679 450,-329 458.192,-333.381 467.24,-336.805 476.429,-339.48"/>
<polygon fill="midnightblue" stroke="midnightblue" points="352.346,-232.681 343.627,-226.662 346.69,-236.804 352.346,-232.681"/>
</g>
<!-- Node9 -->
<g id="node9" class="node"><title>Node9</title>
<g id="a_node9"><a xlink:href="../../dc/d64/classconfiguration_1_1_for_parser.html#a95aeb8afdb254389dcef062be1cf2727" target="_top" xlink:title="configuration.ForParser.fetch\lNumericExpr">
<polygon fill="white" stroke="black" points="472.5,-290 472.5,-320 625.5,-320 625.5,-290 472.5,-290"/>
<text text-anchor="start" x="480.5" y="-308" font-family="Helvetica,sans-Serif" font-size="10.00">configuration.ForParser.fetch</text>
<text text-anchor="middle" x="549" y="-297" font-family="Helvetica,sans-Serif" font-size="10.00">NumericExpr</text>
</a>
</g>
</g>
<!-- Node2&#45;&gt;Node9 -->
<g id="edge9" class="edge"><title>Node2&#45;&gt;Node9</title>
<path fill="none" stroke="midnightblue" d="M360.089,-232.223C382.33,-246.308 417.319,-266.978 450,-280 459.379,-283.737 469.489,-287.057 479.528,-289.958"/>
<polygon fill="midnightblue" stroke="midnightblue" points="361.688,-229.09 351.382,-226.631 357.905,-234.98 361.688,-229.09"/>
</g>
<!-- Node11 -->
<g id="node11" class="node"><title>Node11</title>
<g id="a_node11"><a xlink:href="../../dc/d64/classconfiguration_1_1_for_parser.html#a6bc38f731ac658c5860fe092ba7689ac" target="_top" xlink:title="configuration.ForParser.parseFor">
<polygon fill="white" stroke="black" points="463.5,-251.5 463.5,-270.5 634.5,-270.5 634.5,-251.5 463.5,-251.5"/>
<text text-anchor="middle" x="549" y="-258.5" font-family="Helvetica,sans-Serif" font-size="10.00">configuration.ForParser.parseFor</text>
</a>
</g>
</g>
<!-- Node2&#45;&gt;Node11 -->
<g id="edge11" class="edge"><title>Node2&#45;&gt;Node11</title>
<path fill="none" stroke="midnightblue" d="M391.565,-228.681C410.105,-232.625 430.948,-237.033 450,-241 466.49,-244.434 484.553,-248.137 500.631,-251.412"/>
<polygon fill="midnightblue" stroke="midnightblue" points="392.038,-225.203 381.529,-226.543 390.58,-232.049 392.038,-225.203"/>
</g>
<!-- Node13 -->
<g id="node13" class="node"><title>Node13</title>
<g id="a_node13"><a xlink:href="../../d7/d56/classconfiguration_1_1_ifelse_parser.html#aef13959a758ccbf8dab0a3f5f94a7be0" target="_top" xlink:title="configuration.IfelseParser.evaluate\lBoolExpr">
<polygon fill="white" stroke="black" points="459,-153 459,-183 639,-183 639,-153 459,-153"/>
<text text-anchor="start" x="467" y="-171" font-family="Helvetica,sans-Serif" font-size="10.00">configuration.IfelseParser.evaluate</text>
<text text-anchor="middle" x="549" y="-160" font-family="Helvetica,sans-Serif" font-size="10.00">BoolExpr</text>
</a>
</g>
</g>
<!-- Node2&#45;&gt;Node13 -->
<g id="edge13" class="edge"><title>Node2&#45;&gt;Node13</title>
<path fill="none" stroke="midnightblue" d="M387.728,-205.22C416.356,-198.571 452.43,-190.194 483.101,-183.071"/>
<polygon fill="midnightblue" stroke="midnightblue" points="386.882,-201.823 377.933,-207.494 388.466,-208.641 386.882,-201.823"/>
</g>
<!-- Node17 -->
<g id="node17" class="node"><title>Node17</title>
<g id="a_node17"><a xlink:href="../../d7/d56/classconfiguration_1_1_ifelse_parser.html#aeb471eacbe15e095075bdd09619fe15d" target="_top" xlink:title="configuration.IfelseParser.parse\lListCommands">
<polygon fill="white" stroke="black" points="466,-202 466,-232 632,-232 632,-202 466,-202"/>
<text text-anchor="start" x="474" y="-220" font-family="Helvetica,sans-Serif" font-size="10.00">configuration.IfelseParser.parse</text>
<text text-anchor="middle" x="549" y="-209" font-family="Helvetica,sans-Serif" font-size="10.00">ListCommands</text>
</a>
</g>
</g>
<!-- Node2&#45;&gt;Node17 -->
<g id="edge17" class="edge"><title>Node2&#45;&gt;Node17</title>
<path fill="none" stroke="midnightblue" d="M424.443,-217C438.134,-217 452.243,-217 465.81,-217"/>
<polygon fill="midnightblue" stroke="midnightblue" points="424.072,-213.5 414.071,-217 424.071,-220.5 424.072,-213.5"/>
</g>
<!-- Node18 -->
<g id="node18" class="node"><title>Node18</title>
<g id="a_node18"><a xlink:href="../../d9/d11/classconfiguration_1_1_parser.html#a041ccb70bd9dee77d512d8469c15c14f" target="_top" xlink:title="configuration.Parser.buildTree">
<polygon fill="white" stroke="black" points="471,-114.5 471,-133.5 627,-133.5 627,-114.5 471,-114.5"/>
<text text-anchor="middle" x="549" y="-121.5" font-family="Helvetica,sans-Serif" font-size="10.00">configuration.Parser.buildTree</text>
</a>
</g>
</g>
<!-- Node2&#45;&gt;Node18 -->
<g id="edge20" class="edge"><title>Node2&#45;&gt;Node18</title>
<path fill="none" stroke="midnightblue" d="M356.346,-200.913C377.855,-183.881 414.289,-157.498 450,-143 459.554,-139.121 469.961,-136.019 480.309,-133.542"/>
<polygon fill="midnightblue" stroke="midnightblue" points="353.933,-198.363 348.347,-207.365 358.328,-203.812 353.933,-198.363"/>
</g>
<!-- Node19 -->
<g id="node19" class="node"><title>Node19</title>
<g id="a_node19"><a xlink:href="../../d3/d0d/classconfiguration_1_1_repeat_parser.html#ab218ee8c24e4dab18c02cd4a536d15d3" target="_top" xlink:title="configuration.RepeatParser.fetch\lNumericExpr">
<polygon fill="white" stroke="black" points="689.5,-77 689.5,-107 860.5,-107 860.5,-77 689.5,-77"/>
<text text-anchor="start" x="697.5" y="-95" font-family="Helvetica,sans-Serif" font-size="10.00">configuration.RepeatParser.fetch</text>
<text text-anchor="middle" x="775" y="-84" font-family="Helvetica,sans-Serif" font-size="10.00">NumericExpr</text>
</a>
</g>
</g>
<!-- Node2&#45;&gt;Node19 -->
<g id="edge21" class="edge"><title>Node2&#45;&gt;Node19</title>
<path fill="none" stroke="midnightblue" d="M348.671,-198.843C366.736,-172.572 404.21,-124.93 450,-105 526.007,-71.9172 621.772,-72.5915 689.418,-79.1345"/>
<polygon fill="midnightblue" stroke="midnightblue" points="345.557,-197.204 342.914,-207.464 351.378,-201.091 345.557,-197.204"/>
</g>
<!-- Node21 -->
<g id="node21" class="node"><title>Node21</title>
<g id="a_node21"><a xlink:href="../../d3/d0d/classconfiguration_1_1_repeat_parser.html#a27c7e86622dda996677d34987f702cb6" target="_top" xlink:title="configuration.RepeatParser.parseFor">
<polygon fill="white" stroke="black" points="454.5,-38.5 454.5,-57.5 643.5,-57.5 643.5,-38.5 454.5,-38.5"/>
<text text-anchor="middle" x="549" y="-45.5" font-family="Helvetica,sans-Serif" font-size="10.00">configuration.RepeatParser.parseFor</text>
</a>
</g>
</g>
<!-- Node2&#45;&gt;Node21 -->
<g id="edge23" class="edge"><title>Node2&#45;&gt;Node21</title>
<path fill="none" stroke="midnightblue" d="M346.103,-198.489C362.424,-167.311 399.715,-104.55 450,-72 459.852,-65.6225 471.26,-60.9394 482.734,-57.5004"/>
<polygon fill="midnightblue" stroke="midnightblue" points="342.972,-196.924 341.551,-207.423 349.209,-200.102 342.972,-196.924"/>
</g>
<!-- Node23 -->
<g id="node23" class="node"><title>Node23</title>
<g id="a_node23"><a xlink:href="../../db/d22/classconfiguration_1_1_set_parser.html#a4f20258805caaf18872872d5283a0e74" target="_top" xlink:title="configuration.SetParser.parse">
<polygon fill="white" stroke="black" points="470,-0.5 470,-19.5 628,-19.5 628,-0.5 470,-0.5"/>
<text text-anchor="middle" x="549" y="-7.5" font-family="Helvetica,sans-Serif" font-size="10.00">configuration.SetParser.parse</text>
</a>
</g>
</g>
<!-- Node2&#45;&gt;Node23 -->
<g id="edge26" class="edge"><title>Node2&#45;&gt;Node23</title>
<path fill="none" stroke="midnightblue" d="M342.709,-197.68C355.23,-158.912 388.968,-71.7064 450,-29 455.964,-24.8269 462.609,-21.5117 469.55,-18.8852"/>
<polygon fill="midnightblue" stroke="midnightblue" points="339.36,-196.664 339.735,-207.252 346.044,-198.741 339.36,-196.664"/>
</g>
<!-- Node5 -->
<g id="node5" class="node"><title>Node5</title>
<g id="a_node5"><a xlink:href="../../d9/dfc/classconfiguration_1_1_dotimes_parser.html#a63d34c400b9b5715b4a2f9a5d0107e62" target="_top" xlink:title="configuration.DotimesParser.parse\lDotimesIterator">
<polygon fill="white" stroke="black" points="684,-383 684,-413 866,-413 866,-383 684,-383"/>
<text text-anchor="start" x="692" y="-401" font-family="Helvetica,sans-Serif" font-size="10.00">configuration.DotimesParser.parse</text>
<text text-anchor="middle" x="775" y="-390" font-family="Helvetica,sans-Serif" font-size="10.00">DotimesIterator</text>
</a>
</g>
</g>
<!-- Node4&#45;&gt;Node5 -->
<g id="edge4" class="edge"><title>Node4&#45;&gt;Node5</title>
<path fill="none" stroke="midnightblue" d="M648.748,-395.204C660.446,-395.465 672.34,-395.731 683.909,-395.989"/>
<polygon fill="midnightblue" stroke="midnightblue" points="648.606,-391.7 638.531,-394.976 648.45,-398.699 648.606,-391.7"/>
</g>
<!-- Node6 -->
<g id="node6" class="node"><title>Node6</title>
<g id="a_node6"><a xlink:href="../../d9/dfc/classconfiguration_1_1_dotimes_parser.html#abf0eb9bddfa4a09adc745008e17b293b" target="_top" xlink:title="configuration.DotimesParser.parse">
<polygon fill="white" stroke="black" points="902,-363.5 902,-382.5 1084,-382.5 1084,-363.5 902,-363.5"/>
<text text-anchor="middle" x="993" y="-370.5" font-family="Helvetica,sans-Serif" font-size="10.00">configuration.DotimesParser.parse</text>
</a>
</g>
</g>
<!-- Node5&#45;&gt;Node6 -->
<g id="edge5" class="edge"><title>Node5&#45;&gt;Node6</title>
<path fill="none" stroke="midnightblue" d="M876.272,-386.394C887.464,-385.099 898.767,-383.791 909.698,-382.526"/>
<polygon fill="midnightblue" stroke="midnightblue" points="875.571,-382.952 866.039,-387.579 876.375,-389.906 875.571,-382.952"/>
</g>
<!-- Node8 -->
<g id="node8" class="node"><title>Node8</title>
<g id="a_node8"><a xlink:href="../../d9/dfc/classconfiguration_1_1_dotimes_parser.html#a6086c4c4651b29dd968bf4728bd71d0c" target="_top" xlink:title="configuration.DotimesParser.parse\lCommands">
<polygon fill="white" stroke="black" points="684,-334 684,-364 866,-364 866,-334 684,-334"/>
<text text-anchor="start" x="692" y="-352" font-family="Helvetica,sans-Serif" font-size="10.00">configuration.DotimesParser.parse</text>
<text text-anchor="middle" x="775" y="-341" font-family="Helvetica,sans-Serif" font-size="10.00">Commands</text>
</a>
</g>
</g>
<!-- Node7&#45;&gt;Node8 -->
<g id="edge7" class="edge"><title>Node7&#45;&gt;Node8</title>
<path fill="none" stroke="midnightblue" d="M657.785,-349C666.488,-349 675.224,-349 683.783,-349"/>
<polygon fill="midnightblue" stroke="midnightblue" points="657.598,-345.5 647.598,-349 657.598,-352.5 657.598,-345.5"/>
</g>
<!-- Node8&#45;&gt;Node6 -->
<g id="edge8" class="edge"><title>Node8&#45;&gt;Node6</title>
<path fill="none" stroke="midnightblue" d="M876.081,-360.12C886.166,-361.241 896.344,-362.372 906.26,-363.473"/>
<polygon fill="midnightblue" stroke="midnightblue" points="876.365,-356.63 866.039,-359.004 875.592,-363.587 876.365,-356.63"/>
</g>
<!-- Node10 -->
<g id="node10" class="node"><title>Node10</title>
<g id="a_node10"><a xlink:href="../../dc/d64/classconfiguration_1_1_for_parser.html#a2737b422e279cfca7c64fd8eff57d3ff" target="_top" xlink:title="configuration.ForParser.parse">
<polygon fill="white" stroke="black" points="697,-295.5 697,-314.5 853,-314.5 853,-295.5 697,-295.5"/>
<text text-anchor="middle" x="775" y="-302.5" font-family="Helvetica,sans-Serif" font-size="10.00">configuration.ForParser.parse</text>
</a>
</g>
</g>
<!-- Node9&#45;&gt;Node10 -->
<g id="edge10" class="edge"><title>Node9&#45;&gt;Node10</title>
<path fill="none" stroke="midnightblue" d="M635.622,-305C655.778,-305 677.141,-305 696.895,-305"/>
<polygon fill="midnightblue" stroke="midnightblue" points="635.524,-301.5 625.524,-305 635.524,-308.5 635.524,-301.5"/>
</g>
<!-- Node12 -->
<g id="node12" class="node"><title>Node12</title>
<g id="a_node12"><a xlink:href="../../dc/d64/classconfiguration_1_1_for_parser.html#ad3cb5184cf449bd3414f3ba73a8b3104" target="_top" xlink:title="configuration.ForParser.parse\lCommands">
<polygon fill="white" stroke="black" points="697,-246 697,-276 853,-276 853,-246 697,-246"/>
<text text-anchor="start" x="705" y="-264" font-family="Helvetica,sans-Serif" font-size="10.00">configuration.ForParser.parse</text>
<text text-anchor="middle" x="775" y="-253" font-family="Helvetica,sans-Serif" font-size="10.00">Commands</text>
</a>
</g>
</g>
<!-- Node11&#45;&gt;Node12 -->
<g id="edge12" class="edge"><title>Node11&#45;&gt;Node12</title>
<path fill="none" stroke="midnightblue" d="M644.838,-261C662.214,-261 680.155,-261 696.934,-261"/>
<polygon fill="midnightblue" stroke="midnightblue" points="644.685,-257.5 634.685,-261 644.685,-264.5 644.685,-257.5"/>
</g>
<!-- Node14 -->
<g id="node14" class="node"><title>Node14</title>
<g id="a_node14"><a xlink:href="../../d7/d56/classconfiguration_1_1_ifelse_parser.html#a4b806589536dd338338d515a0fdb67ed" target="_top" xlink:title="configuration.IfelseParser.parse">
<polygon fill="white" stroke="black" points="692,-204.5 692,-223.5 858,-223.5 858,-204.5 692,-204.5"/>
<text text-anchor="middle" x="775" y="-211.5" font-family="Helvetica,sans-Serif" font-size="10.00">configuration.IfelseParser.parse</text>
</a>
</g>
</g>
<!-- Node13&#45;&gt;Node14 -->
<g id="edge14" class="edge"><title>Node13&#45;&gt;Node14</title>
<path fill="none" stroke="midnightblue" d="M633.545,-185.157C665.357,-191.689 700.45,-198.896 727.6,-204.471"/>
<polygon fill="midnightblue" stroke="midnightblue" points="633.846,-181.645 623.346,-183.062 632.437,-188.502 633.846,-181.645"/>
</g>
<!-- Node15 -->
<g id="node15" class="node"><title>Node15</title>
<g id="a_node15"><a xlink:href="../../dc/dd1/classconfiguration_1_1_if_parser.html#ab4ed2d3b7778d2b1206e5d26ebac7976" target="_top" xlink:title="configuration.IfParser.parse">
<polygon fill="white" stroke="black" points="702,-161.5 702,-180.5 848,-180.5 848,-161.5 702,-161.5"/>
<text text-anchor="middle" x="775" y="-168.5" font-family="Helvetica,sans-Serif" font-size="10.00">configuration.IfParser.parse</text>
</a>
</g>
</g>
<!-- Node13&#45;&gt;Node15 -->
<g id="edge15" class="edge"><title>Node13&#45;&gt;Node15</title>
<path fill="none" stroke="midnightblue" d="M649.457,-169.332C667.027,-169.567 685.013,-169.808 701.658,-170.031"/>
<polygon fill="midnightblue" stroke="midnightblue" points="649.22,-165.829 639.174,-169.194 649.127,-172.828 649.22,-165.829"/>
</g>
<!-- Node16 -->
<g id="node16" class="node"><title>Node16</title>
<g id="a_node16"><a xlink:href="../../dc/dd1/classconfiguration_1_1_if_parser.html#a702326bd885126c4c3ad202676ddeff8" target="_top" xlink:title="configuration.IfParser.main">
<polygon fill="white" stroke="black" points="921.5,-161.5 921.5,-180.5 1064.5,-180.5 1064.5,-161.5 921.5,-161.5"/>
<text text-anchor="middle" x="993" y="-168.5" font-family="Helvetica,sans-Serif" font-size="10.00">configuration.IfParser.main</text>
</a>
</g>
</g>
<!-- Node15&#45;&gt;Node16 -->
<g id="edge16" class="edge"><title>Node15&#45;&gt;Node16</title>
<path fill="none" stroke="midnightblue" d="M858.296,-171C879.062,-171 901.173,-171 921.311,-171"/>
<polygon fill="midnightblue" stroke="midnightblue" points="858.225,-167.5 848.225,-171 858.225,-174.5 858.225,-167.5"/>
</g>
<!-- Node17&#45;&gt;Node14 -->
<g id="edge18" class="edge"><title>Node17&#45;&gt;Node14</title>
<path fill="none" stroke="midnightblue" d="M642.283,-215.764C658.72,-215.544 675.742,-215.316 691.873,-215.1"/>
<polygon fill="midnightblue" stroke="midnightblue" points="642.09,-212.266 632.137,-215.9 642.183,-219.266 642.09,-212.266"/>
</g>
<!-- Node17&#45;&gt;Node15 -->
<g id="edge19" class="edge"><title>Node17&#45;&gt;Node15</title>
<path fill="none" stroke="midnightblue" d="M633.545,-199.843C665.357,-193.311 700.45,-186.104 727.6,-180.529"/>
<polygon fill="midnightblue" stroke="midnightblue" points="632.437,-196.498 623.346,-201.938 633.846,-203.355 632.437,-196.498"/>
</g>
<!-- Node20 -->
<g id="node20" class="node"><title>Node20</title>
<g id="a_node20"><a xlink:href="../../d3/d0d/classconfiguration_1_1_repeat_parser.html#abf20b0ae25909c1cdff93f509830b502" target="_top" xlink:title="configuration.RepeatParser.parse">
<polygon fill="white" stroke="black" points="906,-58.5 906,-77.5 1080,-77.5 1080,-58.5 906,-58.5"/>
<text text-anchor="middle" x="993" y="-65.5" font-family="Helvetica,sans-Serif" font-size="10.00">configuration.RepeatParser.parse</text>
</a>
</g>
</g>
<!-- Node19&#45;&gt;Node20 -->
<g id="edge22" class="edge"><title>Node19&#45;&gt;Node20</title>
<path fill="none" stroke="midnightblue" d="M871.034,-81.4407C882.815,-80.1317 894.804,-78.7995 906.431,-77.5077"/>
<polygon fill="midnightblue" stroke="midnightblue" points="870.301,-78.0005 860.749,-82.5834 871.074,-84.9576 870.301,-78.0005"/>
</g>
<!-- Node22 -->
<g id="node22" class="node"><title>Node22</title>
<g id="a_node22"><a xlink:href="../../d3/d0d/classconfiguration_1_1_repeat_parser.html#aed07d335bcd1174cb4247a7add0d3315" target="_top" xlink:title="configuration.RepeatParser.parse\lCommands">
<polygon fill="white" stroke="black" points="688,-28 688,-58 862,-58 862,-28 688,-28"/>
<text text-anchor="start" x="696" y="-46" font-family="Helvetica,sans-Serif" font-size="10.00">configuration.RepeatParser.parse</text>
<text text-anchor="middle" x="775" y="-35" font-family="Helvetica,sans-Serif" font-size="10.00">Commands</text>
</a>
</g>
</g>
<!-- Node21&#45;&gt;Node22 -->
<g id="edge24" class="edge"><title>Node21&#45;&gt;Node22</title>
<path fill="none" stroke="midnightblue" d="M654.039,-45.6777C665.348,-45.4253 676.765,-45.1704 687.826,-44.9235"/>
<polygon fill="midnightblue" stroke="midnightblue" points="653.618,-42.1861 643.698,-45.9085 653.774,-49.1844 653.618,-42.1861"/>
</g>
<!-- Node22&#45;&gt;Node20 -->
<g id="edge25" class="edge"><title>Node22&#45;&gt;Node20</title>
<path fill="none" stroke="midnightblue" d="M872.262,-54.1414C884.755,-55.5874 897.461,-57.058 909.7,-58.4745"/>
<polygon fill="midnightblue" stroke="midnightblue" points="872.636,-50.6615 862.3,-52.9884 871.831,-57.6151 872.636,-50.6615"/>
</g>
</g>
</svg>
        <g id="navigator" transform="translate(0 0)" fill="#404254">
                <rect fill="#f2f5e9" fill-opacity="0.5" stroke="#606060" stroke-width=".5" x="0" y="0" width="60" height="60"/>
                <use id="zoomplus" xlink:href="#zoomPlus" x="17" y="9" onmousedown="handleZoom(evt,'in')"/>
                <use id="zoomminus" xlink:href="#zoomMin" x="42" y="9" onmousedown="handleZoom(evt,'out')"/>
                <use id="reset" xlink:href="#resetDef" x="30" y="36" onmousedown="handleReset()"/>
                <g id="arrowUp" xlink:href="#dirArrow" transform="translate(30 24)" onmousedown="handlePan(0,-1)">
                  <use xlink:href="#rim" fill="#404040">
                        <set attributeName="fill" to="#808080" begin="arrowUp.mouseover" end="arrowUp.mouseout"/>
                  </use>
                  <path fill="none" stroke="white" stroke-width="1.5" d="M0,-3.0v7 M-2.5,-0.5L0,-3.0L2.5,-0.5"/>
                </g>
                <g id="arrowRight" xlink:href="#dirArrow" transform="rotate(90) translate(36 -43)" onmousedown="handlePan(1,0)">
                  <use xlink:href="#rim" fill="#404040">
                        <set attributeName="fill" to="#808080" begin="arrowRight.mouseover" end="arrowRight.mouseout"/>
                  </use>
                  <path fill="none" stroke="white" stroke-width="1.5" d="M0,-3.0v7 M-2.5,-0.5L0,-3.0L2.5,-0.5"/>
                </g>
                <g id="arrowDown" xlink:href="#dirArrow" transform="rotate(180) translate(-30 -48)" onmousedown="handlePan(0,1)">
                  <use xlink:href="#rim" fill="#404040">
                        <set attributeName="fill" to="#808080" begin="arrowDown.mouseover" end="arrowDown.mouseout"/>
                  </use>
                  <path fill="none" stroke="white" stroke-width="1.5" d="M0,-3.0v7 M-2.5,-0.5L0,-3.0L2.5,-0.5"/>
                </g>
                <g id="arrowLeft" xlink:href="#dirArrow" transform="rotate(270) translate(-36 17)" onmousedown="handlePan(-1,0)">
                  <use xlink:href="#rim" fill="#404040">
                        <set attributeName="fill" to="#808080" begin="arrowLeft.mouseover" end="arrowLeft.mouseout"/>
                  </use>
                  <path fill="none" stroke="white" stroke-width="1.5" d="M0,-3.0v7 M-2.5,-0.5L0,-3.0L2.5,-0.5"/>
                </g>
        </g>
        <svg viewBox="0 0 15 15" width="100%" height="30px" preserveAspectRatio="xMaxYMin meet">
         <g id="arrow_out" transform="scale(0.3 0.3)">
          <a xlink:href="classcommands_1_1_user_made_utilities_ad6e90d3cccee9da7cf3df2c13fc70381_icgraph_org.svg" target="_base">
           <rect id="button" ry="5" rx="5" y="6" x="6" height="38" width="38"
                fill="#f2f5e9" fill-opacity="0.5" stroke="#606060" stroke-width="1.0"/>
           <path id="arrow"
             d="M 11.500037,31.436501 C 11.940474,20.09759 22.043105,11.32322 32.158766,21.979434 L 37.068811,17.246167 C 37.068811,17.246167 37.088388,32 37.088388,32 L 22.160133,31.978069 C 22.160133,31.978069 26.997745,27.140456 26.997745,27.140456 C 18.528582,18.264221 13.291696,25.230495 11.500037,31.436501 z"
             style="fill:#404040;"/>
          </a>
         </g>
        </svg>
</svg>
