<?xml version="1.0" encoding="UTF-8" standalone="no"?>
<!DOCTYPE svg PUBLIC "-//W3C//DTD SVG 1.1//EN"
 "http://www.w3.org/Graphics/SVG/1.1/DTD/svg11.dtd">
<!-- Generated by graphviz version 2.36.0 (20140111.2315)
 -->
<!-- Title: commands.UserMadeUtilities.containsVars Pages: 1 -->
<svg width="1092pt" height="492pt"
 viewBox="0.00 0.00 1092.00 492.00" xmlns="http://www.w3.org/2000/svg" xmlns:xlink="http://www.w3.org/1999/xlink">
<g id="graph0" class="graph" transform="scale(1 1) rotate(0) translate(4 488)">
<title>commands.UserMadeUtilities.containsVars</title>
<polygon fill="white" stroke="none" points="-4,4 -4,-488 1088,-488 1088,4 -4,4"/>
<!-- Node1 -->
<g id="node1" class="node"><title>Node1</title>
<polygon fill="#bfbfbf" stroke="black" points="0,-220.5 0,-239.5 222,-239.5 222,-220.5 0,-220.5"/>
<text text-anchor="middle" x="111" y="-227.5" font-family="Helvetica,sans-Serif" font-size="10.00">commands.UserMadeUtilities.containsVars</text>
</g>
<!-- Node2 -->
<g id="node2" class="node"><title>Node2</title>
<g id="a_node2"><a xlink:href="../../d9/d11/classconfiguration_1_1_parser.html#ae0480f44c9defa614fb470ab154fa60b" target="_top" xlink:title="configuration.Parser.buildTree">
<polygon fill="white" stroke="black" points="258,-220.5 258,-239.5 414,-239.5 414,-220.5 258,-220.5"/>
<text text-anchor="middle" x="336" y="-227.5" font-family="Helvetica,sans-Serif" font-size="10.00">configuration.Parser.buildTree</text>
</a>
</g>
</g>
<!-- Node1&#45;&gt;Node2 -->
<g id="edge1" class="edge"><title>Node1&#45;&gt;Node2</title>
<path fill="none" stroke="midnightblue" d="M232.37,-230C241.022,-230 249.602,-230 257.9,-230"/>
<polygon fill="midnightblue" stroke="midnightblue" points="232.193,-226.5 222.193,-230 232.193,-233.5 232.193,-226.5"/>
</g>
<!-- Node3 -->
<g id="node3" class="node"><title>Node3</title>
<g id="a_node3"><a xlink:href="../../d0/da7/classconfiguration_1_1_basic_parser.html#a22bf37b374167e497f639182e7459517" target="_top" xlink:title="configuration.BasicParser.parse">
<polygon fill="white" stroke="black" points="465.5,-464.5 465.5,-483.5 632.5,-483.5 632.5,-464.5 465.5,-464.5"/>
<text text-anchor="middle" x="549" y="-471.5" font-family="Helvetica,sans-Serif" font-size="10.00">configuration.BasicParser.parse</text>
</a>
</g>
</g>
<!-- Node2&#45;&gt;Node3 -->
<g id="edge2" class="edge"><title>Node2&#45;&gt;Node3</title>
<path fill="none" stroke="midnightblue" d="M340.775,-249.648C350.384,-293.986 380.131,-402.058 450,-455 454.973,-458.768 460.485,-461.852 466.286,-464.37"/>
<polygon fill="midnightblue" stroke="midnightblue" points="344.151,-248.688 338.71,-239.597 337.294,-250.097 344.151,-248.688"/>
</g>
<!-- Node4 -->
<g id="node4" class="node"><title>Node4</title>
<g id="a_node4"><a xlink:href="../../d9/dfc/classconfiguration_1_1_dotimes_parser.html#a26cc7f8e0a21d93091bfe8884a924450" target="_top" xlink:title="configuration.DotimesParser.fetch\lNumericExpr">
<polygon fill="white" stroke="black" points="459.5,-377 459.5,-407 638.5,-407 638.5,-377 459.5,-377"/>
<text text-anchor="start" x="467.5" y="-395" font-family="Helvetica,sans-Serif" font-size="10.00">configuration.DotimesParser.fetch</text>
<text text-anchor="middle" x="549" y="-384" font-family="Helvetica,sans-Serif" font-size="10.00">NumericExpr</text>
</a>
</g>
</g>
<!-- Node2&#45;&gt;Node4 -->
<g id="edge3" class="edge"><title>Node2&#45;&gt;Node4</title>
<path fill="none" stroke="midnightblue" d="M347.119,-248.679C364.242,-278.454 401.819,-336.427 450,-367 456.153,-370.904 462.886,-374.2 469.85,-376.981"/>
<polygon fill="midnightblue" stroke="midnightblue" points="350.053,-246.755 342.111,-239.743 343.947,-250.177 350.053,-246.755"/>
</g>
<!-- Node7 -->
<g id="node7" class="node"><title>Node7</title>
<g id="a_node7"><a xlink:href="../../d9/dfc/classconfiguration_1_1_dotimes_parser.html#aff41ee5ce2eeff82f7586bd1cf6a91c8" target="_top" xlink:title="configuration.DotimesParser.parseFor">
<polygon fill="white" stroke="black" points="450.5,-426.5 450.5,-445.5 647.5,-445.5 647.5,-426.5 450.5,-426.5"/>
<text text-anchor="middle" x="549" y="-433.5" font-family="Helvetica,sans-Serif" font-size="10.00">configuration.DotimesParser.parseFor</text>
</a>
</g>
</g>
<!-- Node2&#45;&gt;Node7 -->
<g id="edge6" class="edge"><title>Node2&#45;&gt;Node7</title>
<path fill="none" stroke="midnightblue" d="M342.971,-249.562C355.797,-288.076 389.81,-373.655 450,-416 456.107,-420.296 462.927,-423.714 470.049,-426.426"/>
<polygon fill="midnightblue" stroke="midnightblue" points="346.17,-248.076 339.787,-239.62 339.503,-250.211 346.17,-248.076"/>
</g>
<!-- Node9 -->
<g id="node9" class="node"><title>Node9</title>
<g id="a_node9"><a xlink:href="../../dc/d64/classconfiguration_1_1_for_parser.html#a95aeb8afdb254389dcef062be1cf2727" target="_top" xlink:title="configuration.ForParser.fetch\lNumericExpr">
<polygon fill="white" stroke="black" points="472.5,-328 472.5,-358 625.5,-358 625.5,-328 472.5,-328"/>
<text text-anchor="start" x="480.5" y="-346" font-family="Helvetica,sans-Serif" font-size="10.00">configuration.ForParser.fetch</text>
<text text-anchor="middle" x="549" y="-335" font-family="Helvetica,sans-Serif" font-size="10.00">NumericExpr</text>
</a>
</g>
</g>
<!-- Node2&#45;&gt;Node9 -->
<g id="edge9" class="edge"><title>Node2&#45;&gt;Node9</title>
<path fill="none" stroke="midnightblue" d="M353.698,-246.688C374.499,-266.547 411.958,-299.355 450,-318 457.883,-321.864 466.426,-325.172 475.069,-327.994"/>
<polygon fill="midnightblue" stroke="midnightblue" points="355.943,-243.989 346.333,-239.528 351.063,-249.008 355.943,-243.989"/>
</g>
<!-- Node11 -->
<g id="node11" class="node"><title>Node11</title>
<g id="a_node11"><a xlink:href="../../dc/d64/classconfiguration_1_1_for_parser.html#a6bc38f731ac658c5860fe092ba7689ac" target="_top" xlink:title="configuration.ForParser.parseFor">
<polygon fill="white" stroke="black" points="463.5,-289.5 463.5,-308.5 634.5,-308.5 634.5,-289.5 463.5,-289.5"/>
<text text-anchor="middle" x="549" y="-296.5" font-family="Helvetica,sans-Serif" font-size="10.00">configuration.ForParser.parseFor</text>
</a>
</g>
</g>
<!-- Node2&#45;&gt;Node11 -->
<g id="edge11" class="edge"><title>Node2&#45;&gt;Node11</title>
<path fill="none" stroke="midnightblue" d="M365.009,-244.093C387.504,-254.931 420.154,-269.596 450,-279 463.084,-283.123 477.425,-286.605 491.002,-289.451"/>
<polygon fill="midnightblue" stroke="midnightblue" points="366.253,-240.806 355.732,-239.562 363.182,-247.096 366.253,-240.806"/>
</g>
<!-- Node13 -->
<g id="node13" class="node"><title>Node13</title>
<g id="a_node13"><a xlink:href="../../d7/d56/classconfiguration_1_1_ifelse_parser.html#aef13959a758ccbf8dab0a3f5f94a7be0" target="_top" xlink:title="configuration.IfelseParser.evaluate\lBoolExpr">
<polygon fill="white" stroke="black" points="459,-240 459,-270 639,-270 639,-240 459,-240"/>
<text text-anchor="start" x="467" y="-258" font-family="Helvetica,sans-Serif" font-size="10.00">configuration.IfelseParser.evaluate</text>
<text text-anchor="middle" x="549" y="-247" font-family="Helvetica,sans-Serif" font-size="10.00">BoolExpr</text>
</a>
</g>
</g>
<!-- Node2&#45;&gt;Node13 -->
<g id="edge13" class="edge"><title>Node2&#45;&gt;Node13</title>
<path fill="none" stroke="midnightblue" d="M424.1,-240.32C435.616,-241.684 447.435,-243.085 458.983,-244.453"/>
<polygon fill="midnightblue" stroke="midnightblue" points="424.414,-236.833 414.071,-239.132 423.59,-243.784 424.414,-236.833"/>
</g>
<!-- Node16 -->
<g id="node16" class="node"><title>Node16</title>
<g id="a_node16"><a xlink:href="../../d7/d56/classconfiguration_1_1_ifelse_parser.html#aeb471eacbe15e095075bdd09619fe15d" target="_top" xlink:title="configuration.IfelseParser.parse\lListCommands">
<polygon fill="white" stroke="black" points="466,-191 466,-221 632,-221 632,-191 466,-191"/>
<text text-anchor="start" x="474" y="-209" font-family="Helvetica,sans-Serif" font-size="10.00">configuration.IfelseParser.parse</text>
<text text-anchor="middle" x="549" y="-198" font-family="Helvetica,sans-Serif" font-size="10.00">ListCommands</text>
</a>
</g>
</g>
<!-- Node2&#45;&gt;Node16 -->
<g id="edge16" class="edge"><title>Node2&#45;&gt;Node16</title>
<path fill="none" stroke="midnightblue" d="M424.041,-220.1C437.857,-218.528 452.11,-216.907 465.81,-215.349"/>
<polygon fill="midnightblue" stroke="midnightblue" points="423.612,-216.626 414.071,-221.234 424.403,-223.581 423.612,-216.626"/>
</g>
<!-- Node17 -->
<g id="node17" class="node"><title>Node17</title>
<g id="a_node17"><a xlink:href="../../d9/d11/classconfiguration_1_1_parser.html#a041ccb70bd9dee77d512d8469c15c14f" target="_top" xlink:title="configuration.Parser.buildTree">
<polygon fill="white" stroke="black" points="471,-152.5 471,-171.5 627,-171.5 627,-152.5 471,-152.5"/>
<text text-anchor="middle" x="549" y="-159.5" font-family="Helvetica,sans-Serif" font-size="10.00">configuration.Parser.buildTree</text>
</a>
</g>
</g>
<!-- Node2&#45;&gt;Node17 -->
<g id="edge19" class="edge"><title>Node2&#45;&gt;Node17</title>
<path fill="none" stroke="midnightblue" d="M364.984,-215.826C387.464,-204.943 420.108,-190.257 450,-181 462.085,-177.257 475.247,-174.104 487.888,-171.509"/>
<polygon fill="midnightblue" stroke="midnightblue" points="363.147,-212.829 355.713,-220.378 366.232,-219.112 363.147,-212.829"/>
</g>
<!-- Node18 -->
<g id="node18" class="node"><title>Node18</title>
<g id="a_node18"><a xlink:href="../../d3/d0d/classconfiguration_1_1_repeat_parser.html#ab218ee8c24e4dab18c02cd4a536d15d3" target="_top" xlink:title="configuration.RepeatParser.fetch\lNumericExpr">
<polygon fill="white" stroke="black" points="689.5,-126 689.5,-156 860.5,-156 860.5,-126 689.5,-126"/>
<text text-anchor="start" x="697.5" y="-144" font-family="Helvetica,sans-Serif" font-size="10.00">configuration.RepeatParser.fetch</text>
<text text-anchor="middle" x="775" y="-133" font-family="Helvetica,sans-Serif" font-size="10.00">NumericExpr</text>
</a>
</g>
</g>
<!-- Node2&#45;&gt;Node18 -->
<g id="edge20" class="edge"><title>Node2&#45;&gt;Node18</title>
<path fill="none" stroke="midnightblue" d="M352.19,-212.853C372.168,-191.725 409.515,-156.919 450,-143 527.798,-116.253 622.45,-119.413 689.308,-127.04"/>
<polygon fill="midnightblue" stroke="midnightblue" points="349.615,-210.483 345.413,-220.209 354.763,-215.226 349.615,-210.483"/>
</g>
<!-- Node20 -->
<g id="node20" class="node"><title>Node20</title>
<g id="a_node20"><a xlink:href="../../d3/d0d/classconfiguration_1_1_repeat_parser.html#ad35abe70f202dc3dd93bbdb50acd490d" target="_top" xlink:title="configuration.RepeatParser.parse\lListCommands">
<polygon fill="white" stroke="black" points="688,-28 688,-58 862,-58 862,-28 688,-28"/>
<text text-anchor="start" x="696" y="-46" font-family="Helvetica,sans-Serif" font-size="10.00">configuration.RepeatParser.parse</text>
<text text-anchor="middle" x="775" y="-35" font-family="Helvetica,sans-Serif" font-size="10.00">ListCommands</text>
</a>
</g>
</g>
<!-- Node2&#45;&gt;Node20 -->
<g id="edge22" class="edge"><title>Node2&#45;&gt;Node20</title>
<path fill="none" stroke="midnightblue" d="M343.867,-210.752C357.693,-175.19 392.565,-99.8299 450,-67 489.114,-44.6425 605.579,-40.8425 687.626,-41.1454"/>
<polygon fill="midnightblue" stroke="midnightblue" points="340.476,-209.828 340.25,-220.42 347.032,-212.281 340.476,-209.828"/>
</g>
<!-- Node21 -->
<g id="node21" class="node"><title>Node21</title>
<g id="a_node21"><a xlink:href="../../d3/d0d/classconfiguration_1_1_repeat_parser.html#a27c7e86622dda996677d34987f702cb6" target="_top" xlink:title="configuration.RepeatParser.parseFor">
<polygon fill="white" stroke="black" points="454.5,-76.5 454.5,-95.5 643.5,-95.5 643.5,-76.5 454.5,-76.5"/>
<text text-anchor="middle" x="549" y="-83.5" font-family="Helvetica,sans-Serif" font-size="10.00">configuration.RepeatParser.parseFor</text>
</a>
</g>
</g>
<!-- Node2&#45;&gt;Node21 -->
<g id="edge23" class="edge"><title>Node2&#45;&gt;Node21</title>
<path fill="none" stroke="midnightblue" d="M348.712,-212.112C367.046,-185.593 405.107,-136.171 450,-110 460.896,-103.648 473.415,-98.9708 485.782,-95.5284"/>
<polygon fill="midnightblue" stroke="midnightblue" points="345.77,-210.216 343.072,-220.461 351.57,-214.135 345.77,-210.216"/>
</g>
<!-- Node23 -->
<g id="node23" class="node"><title>Node23</title>
<g id="a_node23"><a xlink:href="../../db/d22/classconfiguration_1_1_set_parser.html#a4f20258805caaf18872872d5283a0e74" target="_top" xlink:title="configuration.SetParser.parse">
<polygon fill="white" stroke="black" points="470,-0.5 470,-19.5 628,-19.5 628,-0.5 470,-0.5"/>
<text text-anchor="middle" x="549" y="-7.5" font-family="Helvetica,sans-Serif" font-size="10.00">configuration.SetParser.parse</text>
</a>
</g>
</g>
<!-- Node2&#45;&gt;Node23 -->
<g id="edge27" class="edge"><title>Node2&#45;&gt;Node23</title>
<path fill="none" stroke="midnightblue" d="M342.468,-210.682C354.724,-171.041 388.27,-80.3445 450,-34 458.405,-27.6899 468.253,-23.0193 478.407,-19.5663"/>
<polygon fill="midnightblue" stroke="midnightblue" points="339.065,-209.847 339.57,-220.43 345.775,-211.842 339.065,-209.847"/>
</g>
<!-- Node5 -->
<g id="node5" class="node"><title>Node5</title>
<g id="a_node5"><a xlink:href="../../d9/dfc/classconfiguration_1_1_dotimes_parser.html#a63d34c400b9b5715b4a2f9a5d0107e62" target="_top" xlink:title="configuration.DotimesParser.parse\lDotimesIterator">
<polygon fill="white" stroke="black" points="684,-374 684,-404 866,-404 866,-374 684,-374"/>
<text text-anchor="start" x="692" y="-392" font-family="Helvetica,sans-Serif" font-size="10.00">configuration.DotimesParser.parse</text>
<text text-anchor="middle" x="775" y="-381" font-family="Helvetica,sans-Serif" font-size="10.00">DotimesIterator</text>
</a>
</g>
</g>
<!-- Node4&#45;&gt;Node5 -->
<g id="edge4" class="edge"><title>Node4&#45;&gt;Node5</title>
<path fill="none" stroke="midnightblue" d="M648.748,-390.677C660.446,-390.521 672.34,-390.362 683.909,-390.207"/>
<polygon fill="midnightblue" stroke="midnightblue" points="648.483,-387.181 638.531,-390.814 648.577,-394.18 648.483,-387.181"/>
</g>
<!-- Node6 -->
<g id="node6" class="node"><title>Node6</title>
<g id="a_node6"><a xlink:href="../../d9/dfc/classconfiguration_1_1_dotimes_parser.html#abf0eb9bddfa4a09adc745008e17b293b" target="_top" xlink:title="configuration.DotimesParser.parse">
<polygon fill="white" stroke="black" points="902,-403.5 902,-422.5 1084,-422.5 1084,-403.5 902,-403.5"/>
<text text-anchor="middle" x="993" y="-410.5" font-family="Helvetica,sans-Serif" font-size="10.00">configuration.DotimesParser.parse</text>
</a>
</g>
</g>
<!-- Node5&#45;&gt;Node6 -->
<g id="edge5" class="edge"><title>Node5&#45;&gt;Node6</title>
<path fill="none" stroke="midnightblue" d="M876.081,-400.12C886.166,-401.241 896.344,-402.372 906.26,-403.473"/>
<polygon fill="midnightblue" stroke="midnightblue" points="876.365,-396.63 866.039,-399.004 875.592,-403.587 876.365,-396.63"/>
</g>
<!-- Node8 -->
<g id="node8" class="node"><title>Node8</title>
<g id="a_node8"><a xlink:href="../../d9/dfc/classconfiguration_1_1_dotimes_parser.html#a6086c4c4651b29dd968bf4728bd71d0c" target="_top" xlink:title="configuration.DotimesParser.parse\lCommands">
<polygon fill="white" stroke="black" points="684,-423 684,-453 866,-453 866,-423 684,-423"/>
<text text-anchor="start" x="692" y="-441" font-family="Helvetica,sans-Serif" font-size="10.00">configuration.DotimesParser.parse</text>
<text text-anchor="middle" x="775" y="-430" font-family="Helvetica,sans-Serif" font-size="10.00">Commands</text>
</a>
</g>
</g>
<!-- Node7&#45;&gt;Node8 -->
<g id="edge7" class="edge"><title>Node7&#45;&gt;Node8</title>
<path fill="none" stroke="midnightblue" d="M657.785,-436.962C666.488,-437.04 675.224,-437.118 683.783,-437.194"/>
<polygon fill="midnightblue" stroke="midnightblue" points="657.629,-433.461 647.598,-436.871 657.566,-440.461 657.629,-433.461"/>
</g>
<!-- Node8&#45;&gt;Node6 -->
<g id="edge8" class="edge"><title>Node8&#45;&gt;Node6</title>
<path fill="none" stroke="midnightblue" d="M876.272,-426.394C887.464,-425.099 898.767,-423.791 909.698,-422.526"/>
<polygon fill="midnightblue" stroke="midnightblue" points="875.571,-422.952 866.039,-427.579 876.375,-429.906 875.571,-422.952"/>
</g>
<!-- Node10 -->
<g id="node10" class="node"><title>Node10</title>
<g id="a_node10"><a xlink:href="../../dc/d64/classconfiguration_1_1_for_parser.html#a2737b422e279cfca7c64fd8eff57d3ff" target="_top" xlink:title="configuration.ForParser.parse">
<polygon fill="white" stroke="black" points="697,-333.5 697,-352.5 853,-352.5 853,-333.5 697,-333.5"/>
<text text-anchor="middle" x="775" y="-340.5" font-family="Helvetica,sans-Serif" font-size="10.00">configuration.ForParser.parse</text>
</a>
</g>
</g>
<!-- Node9&#45;&gt;Node10 -->
<g id="edge10" class="edge"><title>Node9&#45;&gt;Node10</title>
<path fill="none" stroke="midnightblue" d="M635.622,-343C655.778,-343 677.141,-343 696.895,-343"/>
<polygon fill="midnightblue" stroke="midnightblue" points="635.524,-339.5 625.524,-343 635.524,-346.5 635.524,-339.5"/>
</g>
<!-- Node12 -->
<g id="node12" class="node"><title>Node12</title>
<g id="a_node12"><a xlink:href="../../dc/d64/classconfiguration_1_1_for_parser.html#ad3cb5184cf449bd3414f3ba73a8b3104" target="_top" xlink:title="configuration.ForParser.parse\lCommands">
<polygon fill="white" stroke="black" points="697,-284 697,-314 853,-314 853,-284 697,-284"/>
<text text-anchor="start" x="705" y="-302" font-family="Helvetica,sans-Serif" font-size="10.00">configuration.ForParser.parse</text>
<text text-anchor="middle" x="775" y="-291" font-family="Helvetica,sans-Serif" font-size="10.00">Commands</text>
</a>
</g>
</g>
<!-- Node11&#45;&gt;Node12 -->
<g id="edge12" class="edge"><title>Node11&#45;&gt;Node12</title>
<path fill="none" stroke="midnightblue" d="M644.838,-299C662.214,-299 680.155,-299 696.934,-299"/>
<polygon fill="midnightblue" stroke="midnightblue" points="644.685,-295.5 634.685,-299 644.685,-302.5 644.685,-295.5"/>
</g>
<!-- Node14 -->
<g id="node14" class="node"><title>Node14</title>
<g id="a_node14"><a xlink:href="../../d7/d56/classconfiguration_1_1_ifelse_parser.html#a4b806589536dd338338d515a0fdb67ed" target="_top" xlink:title="configuration.IfelseParser.parse">
<polygon fill="white" stroke="black" points="692,-199.5 692,-218.5 858,-218.5 858,-199.5 692,-199.5"/>
<text text-anchor="middle" x="775" y="-206.5" font-family="Helvetica,sans-Serif" font-size="10.00">configuration.IfelseParser.parse</text>
</a>
</g>
</g>
<!-- Node13&#45;&gt;Node14 -->
<g id="edge14" class="edge"><title>Node13&#45;&gt;Node14</title>
<path fill="none" stroke="midnightblue" d="M633.545,-237.843C665.357,-231.311 700.45,-224.104 727.6,-218.529"/>
<polygon fill="midnightblue" stroke="midnightblue" points="632.437,-234.498 623.346,-239.938 633.846,-241.355 632.437,-234.498"/>
</g>
<!-- Node15 -->
<g id="node15" class="node"><title>Node15</title>
<g id="a_node15"><a xlink:href="../../dc/dd1/classconfiguration_1_1_if_parser.html#ab4ed2d3b7778d2b1206e5d26ebac7976" target="_top" xlink:title="configuration.IfParser.parse">
<polygon fill="white" stroke="black" points="702,-240.5 702,-259.5 848,-259.5 848,-240.5 702,-240.5"/>
<text text-anchor="middle" x="775" y="-247.5" font-family="Helvetica,sans-Serif" font-size="10.00">configuration.IfParser.parse</text>
</a>
</g>
</g>
<!-- Node13&#45;&gt;Node15 -->
<g id="edge15" class="edge"><title>Node13&#45;&gt;Node15</title>
<path fill="none" stroke="midnightblue" d="M649.457,-252.78C667.027,-252.388 685.013,-251.986 701.658,-251.615"/>
<polygon fill="midnightblue" stroke="midnightblue" points="649.094,-249.287 639.174,-253.01 649.25,-256.285 649.094,-249.287"/>
</g>
<!-- Node16&#45;&gt;Node14 -->
<g id="edge17" class="edge"><title>Node16&#45;&gt;Node14</title>
<path fill="none" stroke="midnightblue" d="M642.283,-207.236C658.72,-207.456 675.742,-207.684 691.873,-207.9"/>
<polygon fill="midnightblue" stroke="midnightblue" points="642.183,-203.734 632.137,-207.1 642.09,-210.734 642.183,-203.734"/>
</g>
<!-- Node16&#45;&gt;Node15 -->
<g id="edge18" class="edge"><title>Node16&#45;&gt;Node15</title>
<path fill="none" stroke="midnightblue" d="M636.59,-223.009C666.791,-228.941 699.594,-235.384 725.573,-240.488"/>
<polygon fill="midnightblue" stroke="midnightblue" points="636.949,-219.512 626.462,-221.019 635.599,-226.381 636.949,-219.512"/>
</g>
<!-- Node19 -->
<g id="node19" class="node"><title>Node19</title>
<g id="a_node19"><a xlink:href="../../d3/d0d/classconfiguration_1_1_repeat_parser.html#abf20b0ae25909c1cdff93f509830b502" target="_top" xlink:title="configuration.RepeatParser.parse">
<polygon fill="white" stroke="black" points="906,-107.5 906,-126.5 1080,-126.5 1080,-107.5 906,-107.5"/>
<text text-anchor="middle" x="993" y="-114.5" font-family="Helvetica,sans-Serif" font-size="10.00">configuration.RepeatParser.parse</text>
</a>
</g>
</g>
<!-- Node18&#45;&gt;Node19 -->
<g id="edge21" class="edge"><title>Node18&#45;&gt;Node19</title>
<path fill="none" stroke="midnightblue" d="M871.034,-130.441C882.815,-129.132 894.804,-127.8 906.431,-126.508"/>
<polygon fill="midnightblue" stroke="midnightblue" points="870.301,-127 860.749,-131.583 871.074,-133.958 870.301,-127"/>
</g>
<!-- Node21&#45;&gt;Node20 -->
<g id="edge24" class="edge"><title>Node21&#45;&gt;Node20</title>
<path fill="none" stroke="midnightblue" d="M609.587,-74.5615C636.037,-69.484 667.523,-63.4398 695.828,-58.0063"/>
<polygon fill="midnightblue" stroke="midnightblue" points="608.874,-71.1344 599.713,-76.4569 610.193,-78.0088 608.874,-71.1344"/>
</g>
<!-- Node22 -->
<g id="node22" class="node"><title>Node22</title>
<g id="a_node22"><a xlink:href="../../d3/d0d/classconfiguration_1_1_repeat_parser.html#aed07d335bcd1174cb4247a7add0d3315" target="_top" xlink:title="configuration.RepeatParser.parse\lCommands">
<polygon fill="white" stroke="black" points="688,-77 688,-107 862,-107 862,-77 688,-77"/>
<text text-anchor="start" x="696" y="-95" font-family="Helvetica,sans-Serif" font-size="10.00">configuration.RepeatParser.parse</text>
<text text-anchor="middle" x="775" y="-84" font-family="Helvetica,sans-Serif" font-size="10.00">Commands</text>
</a>
</g>
</g>
<!-- Node21&#45;&gt;Node22 -->
<g id="edge25" class="edge"><title>Node21&#45;&gt;Node22</title>
<path fill="none" stroke="midnightblue" d="M654.039,-88.7868C665.348,-89.0897 676.765,-89.3955 687.826,-89.6918"/>
<polygon fill="midnightblue" stroke="midnightblue" points="653.788,-85.2789 643.698,-88.5098 653.601,-92.2764 653.788,-85.2789"/>
</g>
<!-- Node22&#45;&gt;Node19 -->
<g id="edge26" class="edge"><title>Node22&#45;&gt;Node19</title>
<path fill="none" stroke="midnightblue" d="M872.262,-103.141C884.755,-104.587 897.461,-106.058 909.7,-107.475"/>
<polygon fill="midnightblue" stroke="midnightblue" points="872.636,-99.6615 862.3,-101.988 871.831,-106.615 872.636,-99.6615"/>
</g>
</g>
</svg>
