<?xml version="1.0" encoding="UTF-8" standalone="no"?>
<!DOCTYPE svg PUBLIC "-//W3C//DTD SVG 1.1//EN"
 "http://www.w3.org/Graphics/SVG/1.1/DTD/svg11.dtd">
<!-- Generated by graphviz version 2.36.0 (20140111.2315)
 -->
<!-- Title: commands.UserMadeUtilities.containsVars Pages: 1 -->
<!--zoomable 553 -->
<svg id="main" version="1.1" xmlns="http://www.w3.org/2000/svg" xmlns:xlink="http://www.w3.org/1999/xlink" xml:space="preserve" onload="init(evt)">
<style type="text/css"><![CDATA[
.edge:hover path { stroke: red; }
.edge:hover polygon { stroke: red; fill: red; }
]]></style>
<script type="text/javascript"><![CDATA[
var edges = document.getElementsByTagName('g');
if (edges && edges.length) {
  for (var i=0;i<edges.length;i++) {
    if (edges[i].id.substr(0,4)=='edge') {
      edges[i].setAttribute('class','edge');
    }
  }
}
]]></script>
        <defs>
                <circle id="rim" cx="0" cy="0" r="7"/>
                <circle id="rim2" cx="0" cy="0" r="3.5"/>
                <g id="zoomPlus">
                        <use xlink:href="#rim" fill="#404040">
                                <set attributeName="fill" to="#808080" begin="zoomplus.mouseover" end="zoomplus.mouseout"/>
                        </use>
                        <path d="M-4,0h8M0,-4v8" fill="none" stroke="white" stroke-width="1.5" pointer-events="none"/>
                </g>
                <g id="zoomMin">
                        <use xlink:href="#rim" fill="#404040">
                                <set attributeName="fill" to="#808080" begin="zoomminus.mouseover" end="zoomminus.mouseout"/>
                        </use>
                        <path d="M-4,0h8" fill="none" stroke="white" stroke-width="1.5" pointer-events="none"/>
                </g>
                <g id="dirArrow">
                        <path fill="none" stroke="white" stroke-width="1.5" d="M0,-3.0v7 M-2.5,-0.5L0,-3.0L2.5,-0.5"/>
                </g>
               <g id="resetDef">
                       <use xlink:href="#rim2" fill="#404040">
                               <set attributeName="fill" to="#808080" begin="reset.mouseover" end="reset.mouseout"/>
                       </use>
               </g>
        </defs>

<script type="text/javascript">
var viewWidth = 1092;
var viewHeight = 553;
var sectionId = 'dynsection-3';
</script>
<script xlink:href="../../svgpan.js"/>
<svg id="graph" class="graph">
<g id="viewport">
<title>commands.UserMadeUtilities.containsVars</title>
<polygon fill="white" stroke="none" points="-4,4 -4,-549 1088,-549 1088,4 -4,4"/>
<!-- Node1 -->
<g id="node1" class="node"><title>Node1</title>
<polygon fill="#bfbfbf" stroke="black" points="0,-256.5 0,-275.5 222,-275.5 222,-256.5 0,-256.5"/>
<text text-anchor="middle" x="111" y="-263.5" font-family="Helvetica,sans-Serif" font-size="10.00">commands.UserMadeUtilities.containsVars</text>
</g>
<!-- Node2 -->
<g id="node2" class="node"><title>Node2</title>
<g id="a_node2"><a xlink:href="../../d9/d11/classconfiguration_1_1_parser.html#ae0480f44c9defa614fb470ab154fa60b" target="_top" xlink:title="configuration.Parser.buildTree">
<polygon fill="white" stroke="black" points="258,-256.5 258,-275.5 414,-275.5 414,-256.5 258,-256.5"/>
<text text-anchor="middle" x="336" y="-263.5" font-family="Helvetica,sans-Serif" font-size="10.00">configuration.Parser.buildTree</text>
</a>
</g>
</g>
<!-- Node1&#45;&gt;Node2 -->
<g id="edge1" class="edge"><title>Node1&#45;&gt;Node2</title>
<path fill="none" stroke="midnightblue" d="M232.37,-266C241.022,-266 249.602,-266 257.9,-266"/>
<polygon fill="midnightblue" stroke="midnightblue" points="232.193,-262.5 222.193,-266 232.193,-269.5 232.193,-262.5"/>
</g>
<!-- Node3 -->
<g id="node3" class="node"><title>Node3</title>
<g id="a_node3"><a xlink:href="../../d0/da7/classconfiguration_1_1_basic_parser.html#a22bf37b374167e497f639182e7459517" target="_top" xlink:title="configuration.BasicParser.parse">
<polygon fill="white" stroke="black" points="465.5,-525.5 465.5,-544.5 632.5,-544.5 632.5,-525.5 465.5,-525.5"/>
<text text-anchor="middle" x="549" y="-532.5" font-family="Helvetica,sans-Serif" font-size="10.00">configuration.BasicParser.parse</text>
</a>
</g>
</g>
<!-- Node2&#45;&gt;Node3 -->
<g id="edge2" class="edge"><title>Node2&#45;&gt;Node3</title>
<path fill="none" stroke="midnightblue" d="M339.807,-285.704C347.68,-333.265 374.557,-454.855 450,-515 455.295,-519.222 461.252,-522.621 467.545,-525.351"/>
<polygon fill="midnightblue" stroke="midnightblue" points="343.22,-284.871 338.231,-275.525 336.302,-285.943 343.22,-284.871"/>
</g>
<!-- Node4 -->
<g id="node4" class="node"><title>Node4</title>
<g id="a_node4"><a xlink:href="../../d9/dfc/classconfiguration_1_1_dotimes_parser.html#a26cc7f8e0a21d93091bfe8884a924450" target="_top" xlink:title="configuration.DotimesParser.fetch\lNumericExpr">
<polygon fill="white" stroke="black" points="459.5,-476 459.5,-506 638.5,-506 638.5,-476 459.5,-476"/>
<text text-anchor="start" x="467.5" y="-494" font-family="Helvetica,sans-Serif" font-size="10.00">configuration.DotimesParser.fetch</text>
<text text-anchor="middle" x="549" y="-483" font-family="Helvetica,sans-Serif" font-size="10.00">NumericExpr</text>
</a>
</g>
</g>
<!-- Node2&#45;&gt;Node4 -->
<g id="edge3" class="edge"><title>Node2&#45;&gt;Node4</title>
<path fill="none" stroke="midnightblue" d="M342.308,-285.4C354.343,-325.611 387.623,-418.271 450,-466 455.02,-469.841 460.566,-473.097 466.391,-475.855"/>
<polygon fill="midnightblue" stroke="midnightblue" points="345.656,-284.379 339.527,-275.737 338.929,-286.315 345.656,-284.379"/>
</g>
<!-- Node7 -->
<g id="node7" class="node"><title>Node7</title>
<g id="a_node7"><a xlink:href="../../d9/dfc/classconfiguration_1_1_dotimes_parser.html#aff41ee5ce2eeff82f7586bd1cf6a91c8" target="_top" xlink:title="configuration.DotimesParser.parseFor">
<polygon fill="white" stroke="black" points="450.5,-437.5 450.5,-456.5 647.5,-456.5 647.5,-437.5 450.5,-437.5"/>
<text text-anchor="middle" x="549" y="-444.5" font-family="Helvetica,sans-Serif" font-size="10.00">configuration.DotimesParser.parseFor</text>
</a>
</g>
</g>
<!-- Node2&#45;&gt;Node7 -->
<g id="edge6" class="edge"><title>Node2&#45;&gt;Node7</title>
<path fill="none" stroke="midnightblue" d="M344.553,-284.836C359.311,-319.06 395.382,-391.211 450,-427 456.608,-431.33 463.964,-434.753 471.591,-437.454"/>
<polygon fill="midnightblue" stroke="midnightblue" points="347.744,-283.393 340.661,-275.515 341.285,-286.091 347.744,-283.393"/>
</g>
<!-- Node9 -->
<g id="node9" class="node"><title>Node9</title>
<g id="a_node9"><a xlink:href="../../dc/d64/classconfiguration_1_1_for_parser.html#a95aeb8afdb254389dcef062be1cf2727" target="_top" xlink:title="configuration.ForParser.fetch\lNumericExpr">
<polygon fill="white" stroke="black" points="472.5,-388 472.5,-418 625.5,-418 625.5,-388 472.5,-388"/>
<text text-anchor="start" x="480.5" y="-406" font-family="Helvetica,sans-Serif" font-size="10.00">configuration.ForParser.fetch</text>
<text text-anchor="middle" x="549" y="-395" font-family="Helvetica,sans-Serif" font-size="10.00">NumericExpr</text>
</a>
</g>
</g>
<!-- Node2&#45;&gt;Node9 -->
<g id="edge9" class="edge"><title>Node2&#45;&gt;Node9</title>
<path fill="none" stroke="midnightblue" d="M350.124,-284.055C369.247,-309.024 407.19,-353.751 450,-378 456.952,-381.938 464.528,-385.265 472.287,-388.075"/>
<polygon fill="midnightblue" stroke="midnightblue" points="352.753,-281.728 343.956,-275.825 347.152,-285.926 352.753,-281.728"/>
</g>
<!-- Node11 -->
<g id="node11" class="node"><title>Node11</title>
<g id="a_node11"><a xlink:href="../../dc/d64/classconfiguration_1_1_for_parser.html#a6bc38f731ac658c5860fe092ba7689ac" target="_top" xlink:title="configuration.ForParser.parseFor">
<polygon fill="white" stroke="black" points="463.5,-349.5 463.5,-368.5 634.5,-368.5 634.5,-349.5 463.5,-349.5"/>
<text text-anchor="middle" x="549" y="-356.5" font-family="Helvetica,sans-Serif" font-size="10.00">configuration.ForParser.parseFor</text>
</a>
</g>
</g>
<!-- Node2&#45;&gt;Node11 -->
<g id="edge11" class="edge"><title>Node2&#45;&gt;Node11</title>
<path fill="none" stroke="midnightblue" d="M356.759,-282.061C378.367,-298.804 414.649,-324.574 450,-339 460.611,-343.33 472.265,-346.757 483.718,-349.458"/>
<polygon fill="midnightblue" stroke="midnightblue" points="358.723,-279.153 348.704,-275.708 354.388,-284.649 358.723,-279.153"/>
</g>
<!-- Node13 -->
<g id="node13" class="node"><title>Node13</title>
<g id="a_node13"><a xlink:href="../../d7/d56/classconfiguration_1_1_ifelse_parser.html#aef13959a758ccbf8dab0a3f5f94a7be0" target="_top" xlink:title="configuration.IfelseParser.evaluate\lBoolExpr">
<polygon fill="white" stroke="black" points="459,-300 459,-330 639,-330 639,-300 459,-300"/>
<text text-anchor="start" x="467" y="-318" font-family="Helvetica,sans-Serif" font-size="10.00">configuration.IfelseParser.evaluate</text>
<text text-anchor="middle" x="549" y="-307" font-family="Helvetica,sans-Serif" font-size="10.00">BoolExpr</text>
</a>
</g>
</g>
<!-- Node2&#45;&gt;Node13 -->
<g id="edge13" class="edge"><title>Node2&#45;&gt;Node13</title>
<path fill="none" stroke="midnightblue" d="M387.728,-277.78C416.356,-284.429 452.43,-292.806 483.101,-299.929"/>
<polygon fill="midnightblue" stroke="midnightblue" points="388.466,-274.359 377.933,-275.506 386.882,-281.177 388.466,-274.359"/>
</g>
<!-- Node15 -->
<g id="node15" class="node"><title>Node15</title>
<g id="a_node15"><a xlink:href="../../d7/d56/classconfiguration_1_1_ifelse_parser.html#aeb471eacbe15e095075bdd09619fe15d" target="_top" xlink:title="configuration.IfelseParser.parse\lListCommands">
<polygon fill="white" stroke="black" points="466,-251 466,-281 632,-281 632,-251 466,-251"/>
<text text-anchor="start" x="474" y="-269" font-family="Helvetica,sans-Serif" font-size="10.00">configuration.IfelseParser.parse</text>
<text text-anchor="middle" x="549" y="-258" font-family="Helvetica,sans-Serif" font-size="10.00">ListCommands</text>
</a>
</g>
</g>
<!-- Node2&#45;&gt;Node15 -->
<g id="edge15" class="edge"><title>Node2&#45;&gt;Node15</title>
<path fill="none" stroke="midnightblue" d="M424.443,-266C438.134,-266 452.243,-266 465.81,-266"/>
<polygon fill="midnightblue" stroke="midnightblue" points="424.072,-262.5 414.071,-266 424.071,-269.5 424.072,-262.5"/>
</g>
<!-- Node16 -->
<g id="node16" class="node"><title>Node16</title>
<g id="a_node16"><a xlink:href="../../dc/dd1/classconfiguration_1_1_if_parser.html#a4a4ff4b725b19d88a1b364de84147f5d" target="_top" xlink:title="configuration.IfParser.evaluate\lBoolExpr">
<polygon fill="white" stroke="black" points="468.5,-202 468.5,-232 629.5,-232 629.5,-202 468.5,-202"/>
<text text-anchor="start" x="476.5" y="-220" font-family="Helvetica,sans-Serif" font-size="10.00">configuration.IfParser.evaluate</text>
<text text-anchor="middle" x="549" y="-209" font-family="Helvetica,sans-Serif" font-size="10.00">BoolExpr</text>
</a>
</g>
</g>
<!-- Node2&#45;&gt;Node16 -->
<g id="edge17" class="edge"><title>Node2&#45;&gt;Node16</title>
<path fill="none" stroke="midnightblue" d="M387.728,-254.22C416.356,-247.571 452.43,-239.194 483.101,-232.071"/>
<polygon fill="midnightblue" stroke="midnightblue" points="386.882,-250.823 377.933,-256.494 388.466,-257.641 386.882,-250.823"/>
</g>
<!-- Node18 -->
<g id="node18" class="node"><title>Node18</title>
<g id="a_node18"><a xlink:href="../../dc/dd1/classconfiguration_1_1_if_parser.html#a3e1532b1163cc498d3f7636ed8ff2a16" target="_top" xlink:title="configuration.IfParser.parse\lListCommands">
<polygon fill="white" stroke="black" points="476,-153 476,-183 622,-183 622,-153 476,-153"/>
<text text-anchor="start" x="484" y="-171" font-family="Helvetica,sans-Serif" font-size="10.00">configuration.IfParser.parse</text>
<text text-anchor="middle" x="549" y="-160" font-family="Helvetica,sans-Serif" font-size="10.00">ListCommands</text>
</a>
</g>
</g>
<!-- Node2&#45;&gt;Node18 -->
<g id="edge19" class="edge"><title>Node2&#45;&gt;Node18</title>
<path fill="none" stroke="midnightblue" d="M356.834,-249.976C378.506,-233.221 414.841,-207.28 450,-192 458.193,-188.439 467.011,-185.345 475.88,-182.672"/>
<polygon fill="midnightblue" stroke="midnightblue" points="354.453,-247.396 348.753,-256.327 358.778,-252.9 354.453,-247.396"/>
</g>
<!-- Node19 -->
<g id="node19" class="node"><title>Node19</title>
<g id="a_node19"><a xlink:href="../../d9/d11/classconfiguration_1_1_parser.html#a041ccb70bd9dee77d512d8469c15c14f" target="_top" xlink:title="configuration.Parser.buildTree">
<polygon fill="white" stroke="black" points="471,-114.5 471,-133.5 627,-133.5 627,-114.5 471,-114.5"/>
<text text-anchor="middle" x="549" y="-121.5" font-family="Helvetica,sans-Serif" font-size="10.00">configuration.Parser.buildTree</text>
</a>
</g>
</g>
<!-- Node2&#45;&gt;Node19 -->
<g id="edge21" class="edge"><title>Node2&#45;&gt;Node19</title>
<path fill="none" stroke="midnightblue" d="M348.176,-247.782C366.052,-220.326 403.808,-168.815 450,-143 456.959,-139.111 464.581,-136.006 472.404,-133.529"/>
<polygon fill="midnightblue" stroke="midnightblue" points="345.105,-246.09 342.701,-256.409 351.015,-249.841 345.105,-246.09"/>
</g>
<!-- Node20 -->
<g id="node20" class="node"><title>Node20</title>
<g id="a_node20"><a xlink:href="../../d3/d0d/classconfiguration_1_1_repeat_parser.html#ab218ee8c24e4dab18c02cd4a536d15d3" target="_top" xlink:title="configuration.RepeatParser.fetch\lNumericExpr">
<polygon fill="white" stroke="black" points="689.5,-77 689.5,-107 860.5,-107 860.5,-77 689.5,-77"/>
<text text-anchor="start" x="697.5" y="-95" font-family="Helvetica,sans-Serif" font-size="10.00">configuration.RepeatParser.fetch</text>
<text text-anchor="middle" x="775" y="-84" font-family="Helvetica,sans-Serif" font-size="10.00">NumericExpr</text>
</a>
</g>
</g>
<!-- Node2&#45;&gt;Node20 -->
<g id="edge22" class="edge"><title>Node2&#45;&gt;Node20</title>
<path fill="none" stroke="midnightblue" d="M343.838,-246.801C357.614,-211.361 392.406,-136.423 450,-105 526.598,-63.2077 629.217,-67.2576 698.266,-76.9583"/>
<polygon fill="midnightblue" stroke="midnightblue" points="340.458,-245.847 340.235,-256.44 347.015,-248.298 340.458,-245.847"/>
</g>
<!-- Node22 -->
<g id="node22" class="node"><title>Node22</title>
<g id="a_node22"><a xlink:href="../../d3/d0d/classconfiguration_1_1_repeat_parser.html#a27c7e86622dda996677d34987f702cb6" target="_top" xlink:title="configuration.RepeatParser.parseFor">
<polygon fill="white" stroke="black" points="454.5,-38.5 454.5,-57.5 643.5,-57.5 643.5,-38.5 454.5,-38.5"/>
<text text-anchor="middle" x="549" y="-45.5" font-family="Helvetica,sans-Serif" font-size="10.00">configuration.RepeatParser.parseFor</text>
</a>
</g>
</g>
<!-- Node2&#45;&gt;Node22 -->
<g id="edge24" class="edge"><title>Node2&#45;&gt;Node22</title>
<path fill="none" stroke="midnightblue" d="M342.702,-246.325C355.21,-206.8 388.926,-117.64 450,-72 458.489,-65.6562 468.439,-60.9704 478.686,-57.5132"/>
<polygon fill="midnightblue" stroke="midnightblue" points="339.297,-245.494 339.731,-256.08 345.993,-247.533 339.297,-245.494"/>
</g>
<!-- Node24 -->
<g id="node24" class="node"><title>Node24</title>
<g id="a_node24"><a xlink:href="../../db/d22/classconfiguration_1_1_set_parser.html#a4f20258805caaf18872872d5283a0e74" target="_top" xlink:title="configuration.SetParser.parse">
<polygon fill="white" stroke="black" points="470,-0.5 470,-19.5 628,-19.5 628,-0.5 470,-0.5"/>
<text text-anchor="middle" x="549" y="-7.5" font-family="Helvetica,sans-Serif" font-size="10.00">configuration.SetParser.parse</text>
</a>
</g>
</g>
<!-- Node2&#45;&gt;Node24 -->
<g id="edge27" class="edge"><title>Node2&#45;&gt;Node24</title>
<path fill="none" stroke="midnightblue" d="M340.202,-246.553C348.836,-200.7 377.07,-85.4486 450,-29 455.893,-24.4386 462.571,-20.8735 469.605,-18.0987"/>
<polygon fill="midnightblue" stroke="midnightblue" points="336.754,-245.95 338.452,-256.408 343.647,-247.174 336.754,-245.95"/>
</g>
<!-- Node5 -->
<g id="node5" class="node"><title>Node5</title>
<g id="a_node5"><a xlink:href="../../d9/dfc/classconfiguration_1_1_dotimes_parser.html#a63d34c400b9b5715b4a2f9a5d0107e62" target="_top" xlink:title="configuration.DotimesParser.parse\lDotimesIterator">
<polygon fill="white" stroke="black" points="684,-481 684,-511 866,-511 866,-481 684,-481"/>
<text text-anchor="start" x="692" y="-499" font-family="Helvetica,sans-Serif" font-size="10.00">configuration.DotimesParser.parse</text>
<text text-anchor="middle" x="775" y="-488" font-family="Helvetica,sans-Serif" font-size="10.00">DotimesIterator</text>
</a>
</g>
</g>
<!-- Node4&#45;&gt;Node5 -->
<g id="edge4" class="edge"><title>Node4&#45;&gt;Node5</title>
<path fill="none" stroke="midnightblue" d="M648.748,-493.204C660.446,-493.465 672.34,-493.731 683.909,-493.989"/>
<polygon fill="midnightblue" stroke="midnightblue" points="648.606,-489.7 638.531,-492.976 648.45,-496.699 648.606,-489.7"/>
</g>
<!-- Node6 -->
<g id="node6" class="node"><title>Node6</title>
<g id="a_node6"><a xlink:href="../../d9/dfc/classconfiguration_1_1_dotimes_parser.html#abf0eb9bddfa4a09adc745008e17b293b" target="_top" xlink:title="configuration.DotimesParser.parse">
<polygon fill="white" stroke="black" points="902,-461.5 902,-480.5 1084,-480.5 1084,-461.5 902,-461.5"/>
<text text-anchor="middle" x="993" y="-468.5" font-family="Helvetica,sans-Serif" font-size="10.00">configuration.DotimesParser.parse</text>
</a>
</g>
</g>
<!-- Node5&#45;&gt;Node6 -->
<g id="edge5" class="edge"><title>Node5&#45;&gt;Node6</title>
<path fill="none" stroke="midnightblue" d="M876.272,-484.394C887.464,-483.099 898.767,-481.791 909.698,-480.526"/>
<polygon fill="midnightblue" stroke="midnightblue" points="875.571,-480.952 866.039,-485.579 876.375,-487.906 875.571,-480.952"/>
</g>
<!-- Node8 -->
<g id="node8" class="node"><title>Node8</title>
<g id="a_node8"><a xlink:href="../../d9/dfc/classconfiguration_1_1_dotimes_parser.html#a6086c4c4651b29dd968bf4728bd71d0c" target="_top" xlink:title="configuration.DotimesParser.parse\lCommands">
<polygon fill="white" stroke="black" points="684,-432 684,-462 866,-462 866,-432 684,-432"/>
<text text-anchor="start" x="692" y="-450" font-family="Helvetica,sans-Serif" font-size="10.00">configuration.DotimesParser.parse</text>
<text text-anchor="middle" x="775" y="-439" font-family="Helvetica,sans-Serif" font-size="10.00">Commands</text>
</a>
</g>
</g>
<!-- Node7&#45;&gt;Node8 -->
<g id="edge7" class="edge"><title>Node7&#45;&gt;Node8</title>
<path fill="none" stroke="midnightblue" d="M657.785,-447C666.488,-447 675.224,-447 683.783,-447"/>
<polygon fill="midnightblue" stroke="midnightblue" points="657.598,-443.5 647.598,-447 657.598,-450.5 657.598,-443.5"/>
</g>
<!-- Node8&#45;&gt;Node6 -->
<g id="edge8" class="edge"><title>Node8&#45;&gt;Node6</title>
<path fill="none" stroke="midnightblue" d="M876.081,-458.12C886.166,-459.241 896.344,-460.372 906.26,-461.473"/>
<polygon fill="midnightblue" stroke="midnightblue" points="876.365,-454.63 866.039,-457.004 875.592,-461.587 876.365,-454.63"/>
</g>
<!-- Node10 -->
<g id="node10" class="node"><title>Node10</title>
<g id="a_node10"><a xlink:href="../../dc/d64/classconfiguration_1_1_for_parser.html#a2737b422e279cfca7c64fd8eff57d3ff" target="_top" xlink:title="configuration.ForParser.parse">
<polygon fill="white" stroke="black" points="697,-393.5 697,-412.5 853,-412.5 853,-393.5 697,-393.5"/>
<text text-anchor="middle" x="775" y="-400.5" font-family="Helvetica,sans-Serif" font-size="10.00">configuration.ForParser.parse</text>
</a>
</g>
</g>
<!-- Node9&#45;&gt;Node10 -->
<g id="edge10" class="edge"><title>Node9&#45;&gt;Node10</title>
<path fill="none" stroke="midnightblue" d="M635.622,-403C655.778,-403 677.141,-403 696.895,-403"/>
<polygon fill="midnightblue" stroke="midnightblue" points="635.524,-399.5 625.524,-403 635.524,-406.5 635.524,-399.5"/>
</g>
<!-- Node12 -->
<g id="node12" class="node"><title>Node12</title>
<g id="a_node12"><a xlink:href="../../dc/d64/classconfiguration_1_1_for_parser.html#ad3cb5184cf449bd3414f3ba73a8b3104" target="_top" xlink:title="configuration.ForParser.parse\lCommands">
<polygon fill="white" stroke="black" points="697,-344 697,-374 853,-374 853,-344 697,-344"/>
<text text-anchor="start" x="705" y="-362" font-family="Helvetica,sans-Serif" font-size="10.00">configuration.ForParser.parse</text>
<text text-anchor="middle" x="775" y="-351" font-family="Helvetica,sans-Serif" font-size="10.00">Commands</text>
</a>
</g>
</g>
<!-- Node11&#45;&gt;Node12 -->
<g id="edge12" class="edge"><title>Node11&#45;&gt;Node12</title>
<path fill="none" stroke="midnightblue" d="M644.838,-359C662.214,-359 680.155,-359 696.934,-359"/>
<polygon fill="midnightblue" stroke="midnightblue" points="644.685,-355.5 634.685,-359 644.685,-362.5 644.685,-355.5"/>
</g>
<!-- Node14 -->
<g id="node14" class="node"><title>Node14</title>
<g id="a_node14"><a xlink:href="../../d7/d56/classconfiguration_1_1_ifelse_parser.html#a4b806589536dd338338d515a0fdb67ed" target="_top" xlink:title="configuration.IfelseParser.parse">
<polygon fill="white" stroke="black" points="692,-280.5 692,-299.5 858,-299.5 858,-280.5 692,-280.5"/>
<text text-anchor="middle" x="775" y="-287.5" font-family="Helvetica,sans-Serif" font-size="10.00">configuration.IfelseParser.parse</text>
</a>
</g>
</g>
<!-- Node13&#45;&gt;Node14 -->
<g id="edge14" class="edge"><title>Node13&#45;&gt;Node14</title>
<path fill="none" stroke="midnightblue" d="M649.4,-303.906C663.526,-302.33 677.923,-300.723 691.677,-299.188"/>
<polygon fill="midnightblue" stroke="midnightblue" points="648.724,-300.46 639.174,-305.048 649.501,-307.417 648.724,-300.46"/>
</g>
<!-- Node15&#45;&gt;Node14 -->
<g id="edge16" class="edge"><title>Node15&#45;&gt;Node14</title>
<path fill="none" stroke="midnightblue" d="M642.283,-275.887C658.72,-277.649 675.742,-279.472 691.873,-281.201"/>
<polygon fill="midnightblue" stroke="midnightblue" points="642.453,-272.386 632.137,-274.8 641.708,-279.346 642.453,-272.386"/>
</g>
<!-- Node17 -->
<g id="node17" class="node"><title>Node17</title>
<g id="a_node17"><a xlink:href="../../dc/dd1/classconfiguration_1_1_if_parser.html#ab4ed2d3b7778d2b1206e5d26ebac7976" target="_top" xlink:title="configuration.IfParser.parse">
<polygon fill="white" stroke="black" points="702,-182.5 702,-201.5 848,-201.5 848,-182.5 702,-182.5"/>
<text text-anchor="middle" x="775" y="-189.5" font-family="Helvetica,sans-Serif" font-size="10.00">configuration.IfParser.parse</text>
</a>
</g>
</g>
<!-- Node16&#45;&gt;Node17 -->
<g id="edge18" class="edge"><title>Node16&#45;&gt;Node17</title>
<path fill="none" stroke="midnightblue" d="M639.636,-206.996C660.269,-204.693 681.958,-202.273 701.745,-200.064"/>
<polygon fill="midnightblue" stroke="midnightblue" points="639.155,-203.528 629.605,-208.116 639.931,-210.485 639.155,-203.528"/>
</g>
<!-- Node18&#45;&gt;Node17 -->
<g id="edge20" class="edge"><title>Node18&#45;&gt;Node17</title>
<path fill="none" stroke="midnightblue" d="M632.095,-176.796C654.884,-179.238 679.455,-181.87 701.643,-184.248"/>
<polygon fill="midnightblue" stroke="midnightblue" points="632.424,-173.311 622.108,-175.726 631.678,-180.271 632.424,-173.311"/>
</g>
<!-- Node21 -->
<g id="node21" class="node"><title>Node21</title>
<g id="a_node21"><a xlink:href="../../d3/d0d/classconfiguration_1_1_repeat_parser.html#abf20b0ae25909c1cdff93f509830b502" target="_top" xlink:title="configuration.RepeatParser.parse">
<polygon fill="white" stroke="black" points="906,-58.5 906,-77.5 1080,-77.5 1080,-58.5 906,-58.5"/>
<text text-anchor="middle" x="993" y="-65.5" font-family="Helvetica,sans-Serif" font-size="10.00">configuration.RepeatParser.parse</text>
</a>
</g>
</g>
<!-- Node20&#45;&gt;Node21 -->
<g id="edge23" class="edge"><title>Node20&#45;&gt;Node21</title>
<path fill="none" stroke="midnightblue" d="M871.034,-81.4407C882.815,-80.1317 894.804,-78.7995 906.431,-77.5077"/>
<polygon fill="midnightblue" stroke="midnightblue" points="870.301,-78.0005 860.749,-82.5834 871.074,-84.9576 870.301,-78.0005"/>
</g>
<!-- Node23 -->
<g id="node23" class="node"><title>Node23</title>
<g id="a_node23"><a xlink:href="../../d3/d0d/classconfiguration_1_1_repeat_parser.html#aed07d335bcd1174cb4247a7add0d3315" target="_top" xlink:title="configuration.RepeatParser.parse\lCommands">
<polygon fill="white" stroke="black" points="688,-28 688,-58 862,-58 862,-28 688,-28"/>
<text text-anchor="start" x="696" y="-46" font-family="Helvetica,sans-Serif" font-size="10.00">configuration.RepeatParser.parse</text>
<text text-anchor="middle" x="775" y="-35" font-family="Helvetica,sans-Serif" font-size="10.00">Commands</text>
</a>
</g>
</g>
<!-- Node22&#45;&gt;Node23 -->
<g id="edge25" class="edge"><title>Node22&#45;&gt;Node23</title>
<path fill="none" stroke="midnightblue" d="M654.039,-45.6777C665.348,-45.4253 676.765,-45.1704 687.826,-44.9235"/>
<polygon fill="midnightblue" stroke="midnightblue" points="653.618,-42.1861 643.698,-45.9085 653.774,-49.1844 653.618,-42.1861"/>
</g>
<!-- Node23&#45;&gt;Node21 -->
<g id="edge26" class="edge"><title>Node23&#45;&gt;Node21</title>
<path fill="none" stroke="midnightblue" d="M872.262,-54.1414C884.755,-55.5874 897.461,-57.058 909.7,-58.4745"/>
<polygon fill="midnightblue" stroke="midnightblue" points="872.636,-50.6615 862.3,-52.9884 871.831,-57.6151 872.636,-50.6615"/>
</g>
</g>
</svg>
        <g id="navigator" transform="translate(0 0)" fill="#404254">
                <rect fill="#f2f5e9" fill-opacity="0.5" stroke="#606060" stroke-width=".5" x="0" y="0" width="60" height="60"/>
                <use id="zoomplus" xlink:href="#zoomPlus" x="17" y="9" onmousedown="handleZoom(evt,'in')"/>
                <use id="zoomminus" xlink:href="#zoomMin" x="42" y="9" onmousedown="handleZoom(evt,'out')"/>
                <use id="reset" xlink:href="#resetDef" x="30" y="36" onmousedown="handleReset()"/>
                <g id="arrowUp" xlink:href="#dirArrow" transform="translate(30 24)" onmousedown="handlePan(0,-1)">
                  <use xlink:href="#rim" fill="#404040">
                        <set attributeName="fill" to="#808080" begin="arrowUp.mouseover" end="arrowUp.mouseout"/>
                  </use>
                  <path fill="none" stroke="white" stroke-width="1.5" d="M0,-3.0v7 M-2.5,-0.5L0,-3.0L2.5,-0.5"/>
                </g>
                <g id="arrowRight" xlink:href="#dirArrow" transform="rotate(90) translate(36 -43)" onmousedown="handlePan(1,0)">
                  <use xlink:href="#rim" fill="#404040">
                        <set attributeName="fill" to="#808080" begin="arrowRight.mouseover" end="arrowRight.mouseout"/>
                  </use>
                  <path fill="none" stroke="white" stroke-width="1.5" d="M0,-3.0v7 M-2.5,-0.5L0,-3.0L2.5,-0.5"/>
                </g>
                <g id="arrowDown" xlink:href="#dirArrow" transform="rotate(180) translate(-30 -48)" onmousedown="handlePan(0,1)">
                  <use xlink:href="#rim" fill="#404040">
                        <set attributeName="fill" to="#808080" begin="arrowDown.mouseover" end="arrowDown.mouseout"/>
                  </use>
                  <path fill="none" stroke="white" stroke-width="1.5" d="M0,-3.0v7 M-2.5,-0.5L0,-3.0L2.5,-0.5"/>
                </g>
                <g id="arrowLeft" xlink:href="#dirArrow" transform="rotate(270) translate(-36 17)" onmousedown="handlePan(-1,0)">
                  <use xlink:href="#rim" fill="#404040">
                        <set attributeName="fill" to="#808080" begin="arrowLeft.mouseover" end="arrowLeft.mouseout"/>
                  </use>
                  <path fill="none" stroke="white" stroke-width="1.5" d="M0,-3.0v7 M-2.5,-0.5L0,-3.0L2.5,-0.5"/>
                </g>
        </g>
        <svg viewBox="0 0 15 15" width="100%" height="30px" preserveAspectRatio="xMaxYMin meet">
         <g id="arrow_out" transform="scale(0.3 0.3)">
          <a xlink:href="classcommands_1_1_user_made_utilities_ad6e90d3cccee9da7cf3df2c13fc70381_icgraph_org.svg" target="_base">
           <rect id="button" ry="5" rx="5" y="6" x="6" height="38" width="38"
                fill="#f2f5e9" fill-opacity="0.5" stroke="#606060" stroke-width="1.0"/>
           <path id="arrow"
             d="M 11.500037,31.436501 C 11.940474,20.09759 22.043105,11.32322 32.158766,21.979434 L 37.068811,17.246167 C 37.068811,17.246167 37.088388,32 37.088388,32 L 22.160133,31.978069 C 22.160133,31.978069 26.997745,27.140456 26.997745,27.140456 C 18.528582,18.264221 13.291696,25.230495 11.500037,31.436501 z"
             style="fill:#404040;"/>
          </a>
         </g>
        </svg>
</svg>
