<?xml version="1.0" encoding="UTF-8" standalone="no"?>
<!DOCTYPE svg PUBLIC "-//W3C//DTD SVG 1.1//EN"
 "http://www.w3.org/Graphics/SVG/1.1/DTD/svg11.dtd">
<!-- Generated by graphviz version 2.36.0 (20140111.2315)
 -->
<!-- Title: commands.UserMadeUtilities.getAllVars Pages: 1 -->
<svg width="652pt" height="38pt"
 viewBox="0.00 0.00 652.00 38.00" xmlns="http://www.w3.org/2000/svg" xmlns:xlink="http://www.w3.org/1999/xlink">
<g id="graph0" class="graph" transform="scale(1 1) rotate(0) translate(4 34)">
<title>commands.UserMadeUtilities.getAllVars</title>
<polygon fill="white" stroke="none" points="-4,4 -4,-34 648,-34 648,4 -4,4"/>
<!-- Node1 -->
<g id="node1" class="node"><title>Node1</title>
<polygon fill="#bfbfbf" stroke="black" points="0,-0 0,-30 176,-30 176,-0 0,-0"/>
<text text-anchor="start" x="8" y="-18" font-family="Helvetica,sans-Serif" font-size="10.00">commands.UserMadeUtilities.get</text>
<text text-anchor="middle" x="88" y="-7" font-family="Helvetica,sans-Serif" font-size="10.00">AllVars</text>
</g>
<!-- Node2 -->
<g id="node2" class="node"><title>Node2</title>
<g id="a_node2"><a xlink:href="../../d6/d2f/classgui_1_1_g_u_i.html#a969657070e7503ad76669ed3ef5001ed" target="_top" xlink:title="gui.GUI.initializeCommands\lHistory">
<polygon fill="white" stroke="black" points="212,-0 212,-30 360,-30 360,-0 212,-0"/>
<text text-anchor="start" x="220" y="-18" font-family="Helvetica,sans-Serif" font-size="10.00">gui.GUI.initializeCommands</text>
<text text-anchor="middle" x="286" y="-7" font-family="Helvetica,sans-Serif" font-size="10.00">History</text>
</a>
</g>
</g>
<!-- Node1&#45;&gt;Node2 -->
<g id="edge1" class="edge"><title>Node1&#45;&gt;Node2</title>
<path fill="none" stroke="midnightblue" d="M186.239,-15C194.884,-15 203.537,-15 211.929,-15"/>
<polygon fill="midnightblue" stroke="midnightblue" points="186.11,-11.5001 176.11,-15 186.11,-18.5001 186.11,-11.5001"/>
</g>
<!-- Node3 -->
<g id="node3" class="node"><title>Node3</title>
<g id="a_node3"><a xlink:href="../../d6/d2f/classgui_1_1_g_u_i.html#a8b2bdbd34755b5a59657b9ad391d2b22" target="_top" xlink:title="gui.GUI.initialize">
<polygon fill="white" stroke="black" points="396,-5.5 396,-24.5 488,-24.5 488,-5.5 396,-5.5"/>
<text text-anchor="middle" x="442" y="-12.5" font-family="Helvetica,sans-Serif" font-size="10.00">gui.GUI.initialize</text>
</a>
</g>
</g>
<!-- Node2&#45;&gt;Node3 -->
<g id="edge2" class="edge"><title>Node2&#45;&gt;Node3</title>
<path fill="none" stroke="midnightblue" d="M370.59,-15C379.257,-15 387.811,-15 395.81,-15"/>
<polygon fill="midnightblue" stroke="midnightblue" points="370.392,-11.5001 360.392,-15 370.392,-18.5001 370.392,-11.5001"/>
</g>
<!-- Node4 -->
<g id="node4" class="node"><title>Node4</title>
<g id="a_node4"><a xlink:href="../../d9/d96/classapplication_1_1_main.html#a998d14807e266e3f3b9e85468fc1ea98" target="_top" xlink:title="application.Main.start">
<polygon fill="white" stroke="black" points="524.5,-5.5 524.5,-24.5 643.5,-24.5 643.5,-5.5 524.5,-5.5"/>
<text text-anchor="middle" x="584" y="-12.5" font-family="Helvetica,sans-Serif" font-size="10.00">application.Main.start</text>
</a>
</g>
</g>
<!-- Node3&#45;&gt;Node4 -->
<g id="edge3" class="edge"><title>Node3&#45;&gt;Node4</title>
<path fill="none" stroke="midnightblue" d="M498.345,-15C506.926,-15 515.814,-15 524.462,-15"/>
<polygon fill="midnightblue" stroke="midnightblue" points="498.068,-11.5001 488.068,-15 498.067,-18.5001 498.068,-11.5001"/>
</g>
</g>
</svg>
