<?xml version="1.0" encoding="UTF-8" standalone="no"?>
<!DOCTYPE svg PUBLIC "-//W3C//DTD SVG 1.1//EN"
 "http://www.w3.org/Graphics/SVG/1.1/DTD/svg11.dtd">
<!-- Generated by graphviz version 2.36.0 (20140111.2315)
 -->
<!-- Title: configuration.BasicParser.parse Pages: 1 -->
<svg width="566pt" height="175pt"
 viewBox="0.00 0.00 566.00 175.00" xmlns="http://www.w3.org/2000/svg" xmlns:xlink="http://www.w3.org/1999/xlink">
<g id="graph0" class="graph" transform="scale(1 1) rotate(0) translate(4 171)">
<title>configuration.BasicParser.parse</title>
<polygon fill="white" stroke="none" points="-4,4 -4,-171 562,-171 562,4 -4,4"/>
<!-- Node1 -->
<g id="node1" class="node"><title>Node1</title>
<polygon fill="#bfbfbf" stroke="black" points="0.5,-76.5 0.5,-95.5 167.5,-95.5 167.5,-76.5 0.5,-76.5"/>
<text text-anchor="middle" x="84" y="-83.5" font-family="Helvetica,sans-Serif" font-size="10.00">configuration.BasicParser.parse</text>
</g>
<!-- Node2 -->
<g id="node2" class="node"><title>Node2</title>
<g id="a_node2"><a xlink:href="../../d1/d4d/interfacecommands_1_1view_commands_1_1turtle_commands_1_1_executable.html#a8e431a20f44eb26b441038ba913a2ce4" target="_top" xlink:title="commands.viewCommands.turtle\lCommands.Executable.execute">
<polygon fill="white" stroke="black" points="208,-137 208,-167 386,-167 386,-137 208,-137"/>
<text text-anchor="start" x="216" y="-155" font-family="Helvetica,sans-Serif" font-size="10.00">commands.viewCommands.turtle</text>
<text text-anchor="middle" x="297" y="-144" font-family="Helvetica,sans-Serif" font-size="10.00">Commands.Executable.execute</text>
</a>
</g>
</g>
<!-- Node1&#45;&gt;Node2 -->
<g id="edge1" class="edge"><title>Node1&#45;&gt;Node2</title>
<path fill="none" stroke="midnightblue" d="M111.303,-95.6255C135.307,-104.275 171.837,-117.101 204,-127 211.959,-129.45 220.343,-131.902 228.678,-134.261"/>
<polygon fill="midnightblue" stroke="midnightblue" points="227.838,-137.661 238.411,-136.983 229.723,-130.919 227.838,-137.661"/>
</g>
<!-- Node3 -->
<g id="node3" class="node"><title>Node3</title>
<g id="a_node3"><a xlink:href="../../da/dde/classconfiguration_1_1_util.html#a55c271426926996186d1cde227ae7e23" target="_top" xlink:title="configuration.Util.findCommandKey">
<polygon fill="white" stroke="black" points="204.5,-98.5 204.5,-117.5 389.5,-117.5 389.5,-98.5 204.5,-98.5"/>
<text text-anchor="middle" x="297" y="-105.5" font-family="Helvetica,sans-Serif" font-size="10.00">configuration.Util.findCommandKey</text>
</a>
</g>
</g>
<!-- Node1&#45;&gt;Node3 -->
<g id="edge2" class="edge"><title>Node1&#45;&gt;Node3</title>
<path fill="none" stroke="midnightblue" d="M167.787,-94.6318C176.595,-95.5502 185.625,-96.4917 194.615,-97.429"/>
<polygon fill="midnightblue" stroke="midnightblue" points="194.424,-100.928 204.733,-98.4841 195.15,-93.9658 194.424,-100.928"/>
</g>
<!-- Node5 -->
<g id="node5" class="node"><title>Node5</title>
<g id="a_node5"><a xlink:href="../../dc/d20/classapplication_1_1_command_factory.html#a42b3fb802e5122a2ace019bd081bd945" target="_top" xlink:title="application.CommandFactory.make\lNoParmsCommands">
<polygon fill="white" stroke="black" points="204.5,-49 204.5,-79 389.5,-79 389.5,-49 204.5,-49"/>
<text text-anchor="start" x="212.5" y="-67" font-family="Helvetica,sans-Serif" font-size="10.00">application.CommandFactory.make</text>
<text text-anchor="middle" x="297" y="-56" font-family="Helvetica,sans-Serif" font-size="10.00">NoParmsCommands</text>
</a>
</g>
</g>
<!-- Node1&#45;&gt;Node5 -->
<g id="edge4" class="edge"><title>Node1&#45;&gt;Node5</title>
<path fill="none" stroke="midnightblue" d="M167.787,-77.3682C176.511,-76.4585 185.453,-75.5262 194.358,-74.5978"/>
<polygon fill="midnightblue" stroke="midnightblue" points="194.799,-78.0708 204.382,-73.5525 194.073,-71.1085 194.799,-78.0708"/>
</g>
<!-- Node6 -->
<g id="node6" class="node"><title>Node6</title>
<g id="a_node6"><a xlink:href="../../da/dde/classconfiguration_1_1_util.html#a535858cb955beeaeaa5e7eccfb71d4c1" target="_top" xlink:title="configuration.Util.toCommand\lQueue">
<polygon fill="white" stroke="black" points="216.5,-0 216.5,-30 377.5,-30 377.5,-0 216.5,-0"/>
<text text-anchor="start" x="224.5" y="-18" font-family="Helvetica,sans-Serif" font-size="10.00">configuration.Util.toCommand</text>
<text text-anchor="middle" x="297" y="-7" font-family="Helvetica,sans-Serif" font-size="10.00">Queue</text>
</a>
</g>
</g>
<!-- Node1&#45;&gt;Node6 -->
<g id="edge5" class="edge"><title>Node1&#45;&gt;Node6</title>
<path fill="none" stroke="midnightblue" d="M107.56,-76.474C131.309,-66.6373 169.907,-51.1884 204,-40 211.409,-37.5687 219.206,-35.1857 226.998,-32.9154"/>
<polygon fill="midnightblue" stroke="midnightblue" points="228.182,-36.2173 236.836,-30.105 226.259,-29.4866 228.182,-36.2173"/>
</g>
<!-- Node4 -->
<g id="node4" class="node"><title>Node4</title>
<g id="a_node4"><a xlink:href="../../da/dde/classconfiguration_1_1_util.html#a163b0098613bf2f7becf27b131af3934" target="_top" xlink:title="configuration.Util.match">
<polygon fill="white" stroke="black" points="426.5,-98.5 426.5,-117.5 557.5,-117.5 557.5,-98.5 426.5,-98.5"/>
<text text-anchor="middle" x="492" y="-105.5" font-family="Helvetica,sans-Serif" font-size="10.00">configuration.Util.match</text>
</a>
</g>
</g>
<!-- Node3&#45;&gt;Node4 -->
<g id="edge3" class="edge"><title>Node3&#45;&gt;Node4</title>
<path fill="none" stroke="midnightblue" d="M389.696,-108C398.574,-108 407.506,-108 416.191,-108"/>
<polygon fill="midnightblue" stroke="midnightblue" points="416.255,-111.5 426.255,-108 416.255,-104.5 416.255,-111.5"/>
</g>
</g>
</svg>
