<?xml version="1.0" encoding="UTF-8" standalone="no"?>
<!DOCTYPE svg PUBLIC "-//W3C//DTD SVG 1.1//EN"
 "http://www.w3.org/Graphics/SVG/1.1/DTD/svg11.dtd">
<!-- Generated by graphviz version 2.36.0 (20140111.2315)
 -->
<!-- Title: configuration.BasicParser.parse Pages: 1 -->
<svg width="794pt" height="237pt"
 viewBox="0.00 0.00 794.00 237.00" xmlns="http://www.w3.org/2000/svg" xmlns:xlink="http://www.w3.org/1999/xlink">
<g id="graph0" class="graph" transform="scale(1 1) rotate(0) translate(4 233)">
<title>configuration.BasicParser.parse</title>
<polygon fill="white" stroke="none" points="-4,4 -4,-233 790,-233 790,4 -4,4"/>
<!-- Node1 -->
<g id="node1" class="node"><title>Node1</title>
<polygon fill="#bfbfbf" stroke="black" points="0.5,-57.5 0.5,-76.5 167.5,-76.5 167.5,-57.5 0.5,-57.5"/>
<text text-anchor="middle" x="84" y="-64.5" font-family="Helvetica,sans-Serif" font-size="10.00">configuration.BasicParser.parse</text>
</g>
<!-- Node2 -->
<g id="node2" class="node"><title>Node2</title>
<g id="a_node2"><a xlink:href="../../d9/d11/classconfiguration_1_1_parser.html#ae0480f44c9defa614fb470ab154fa60b" target="_top" xlink:title="configuration.Parser.buildTree">
<polygon fill="white" stroke="black" points="204,-114.5 204,-133.5 360,-133.5 360,-114.5 204,-114.5"/>
<text text-anchor="middle" x="282" y="-121.5" font-family="Helvetica,sans-Serif" font-size="10.00">configuration.Parser.buildTree</text>
</a>
</g>
</g>
<!-- Node1&#45;&gt;Node2 -->
<g id="edge1" class="edge"><title>Node1&#45;&gt;Node2</title>
<path fill="none" stroke="midnightblue" d="M113.21,-76.5981C137.221,-84.6251 172.696,-96.1504 204,-105 212.472,-107.395 221.515,-109.779 230.315,-112.008"/>
<polygon fill="midnightblue" stroke="midnightblue" points="229.555,-115.425 240.105,-114.45 231.25,-108.633 229.555,-115.425"/>
</g>
<!-- Node10 -->
<g id="node10" class="node"><title>Node10</title>
<g id="a_node10"><a xlink:href="../../d8/d4f/interface_tree_1_1_node.html#a83d55b41499cfcfd3607420eed42507c" target="_top" xlink:title="Tree.Node.getValue">
<polygon fill="white" stroke="black" points="227,-76.5 227,-95.5 337,-95.5 337,-76.5 227,-76.5"/>
<text text-anchor="middle" x="282" y="-83.5" font-family="Helvetica,sans-Serif" font-size="10.00">Tree.Node.getValue</text>
</a>
</g>
</g>
<!-- Node1&#45;&gt;Node10 -->
<g id="edge9" class="edge"><title>Node1&#45;&gt;Node10</title>
<path fill="none" stroke="midnightblue" d="M167.554,-75.0026C184.031,-76.6 201.107,-78.2552 216.852,-79.7816"/>
<polygon fill="midnightblue" stroke="midnightblue" points="216.697,-83.2829 226.988,-80.7642 217.373,-76.3155 216.697,-83.2829"/>
</g>
<!-- Node11 -->
<g id="node11" class="node"><title>Node11</title>
<g id="a_node11"><a xlink:href="../../d8/d4f/interface_tree_1_1_node.html#af71a5a5ffc67e8e90b1e8235efbd6a83" target="_top" xlink:title="Tree.Node.hasChild">
<polygon fill="white" stroke="black" points="228,-38.5 228,-57.5 336,-57.5 336,-38.5 228,-38.5"/>
<text text-anchor="middle" x="282" y="-45.5" font-family="Helvetica,sans-Serif" font-size="10.00">Tree.Node.hasChild</text>
</a>
</g>
</g>
<!-- Node1&#45;&gt;Node11 -->
<g id="edge10" class="edge"><title>Node1&#45;&gt;Node11</title>
<path fill="none" stroke="midnightblue" d="M167.554,-58.9974C184.289,-57.3751 201.64,-55.693 217.59,-54.1469"/>
<polygon fill="midnightblue" stroke="midnightblue" points="218.232,-57.6012 227.848,-53.1525 217.556,-50.6338 218.232,-57.6012"/>
</g>
<!-- Node12 -->
<g id="node12" class="node"><title>Node12</title>
<g id="a_node12"><a xlink:href="../../d9/d11/classconfiguration_1_1_parser.html#a07345acba63db50ec60293f2b38e54a6" target="_top" xlink:title="configuration.Parser.isEnd">
<polygon fill="white" stroke="black" points="212,-0.5 212,-19.5 352,-19.5 352,-0.5 212,-0.5"/>
<text text-anchor="middle" x="282" y="-7.5" font-family="Helvetica,sans-Serif" font-size="10.00">configuration.Parser.isEnd</text>
</a>
</g>
</g>
<!-- Node1&#45;&gt;Node12 -->
<g id="edge11" class="edge"><title>Node1&#45;&gt;Node12</title>
<path fill="none" stroke="midnightblue" d="M113.21,-57.4019C137.221,-49.3749 172.696,-37.8496 204,-29 212.472,-26.6051 221.515,-24.2213 230.315,-21.9925"/>
<polygon fill="midnightblue" stroke="midnightblue" points="231.25,-25.3666 240.105,-19.5495 229.555,-18.5749 231.25,-25.3666"/>
</g>
<!-- Node3 -->
<g id="node3" class="node"><title>Node3</title>
<g id="a_node3"><a xlink:href="../../d9/d11/classconfiguration_1_1_parser.html#a6a8ca49b46db578a3d9e84b0c4ce2f75" target="_top" xlink:title="configuration.Parser.isCommand">
<polygon fill="white" stroke="black" points="421,-209.5 421,-228.5 593,-228.5 593,-209.5 421,-209.5"/>
<text text-anchor="middle" x="507" y="-216.5" font-family="Helvetica,sans-Serif" font-size="10.00">configuration.Parser.isCommand</text>
</a>
</g>
</g>
<!-- Node2&#45;&gt;Node3 -->
<g id="edge2" class="edge"><title>Node2&#45;&gt;Node3</title>
<path fill="none" stroke="midnightblue" d="M293.951,-133.735C313.144,-150.22 354.749,-183.449 396,-200 402.677,-202.679 409.731,-204.981 416.913,-206.958"/>
<polygon fill="midnightblue" stroke="midnightblue" points="416.206,-210.39 426.76,-209.458 417.929,-203.605 416.206,-210.39"/>
</g>
<!-- Node4 -->
<g id="node4" class="node"><title>Node4</title>
<g id="a_node4"><a xlink:href="../../da/dde/classconfiguration_1_1_util.html#a55c271426926996186d1cde227ae7e23" target="_top" xlink:title="configuration.Util.findCommandKey">
<polygon fill="white" stroke="black" points="414.5,-171.5 414.5,-190.5 599.5,-190.5 599.5,-171.5 414.5,-171.5"/>
<text text-anchor="middle" x="507" y="-178.5" font-family="Helvetica,sans-Serif" font-size="10.00">configuration.Util.findCommandKey</text>
</a>
</g>
</g>
<!-- Node2&#45;&gt;Node4 -->
<g id="edge3" class="edge"><title>Node2&#45;&gt;Node4</title>
<path fill="none" stroke="midnightblue" d="M307.805,-133.568C330.483,-142.021 365.099,-154.185 396,-162 407.302,-164.859 419.367,-167.423 431.211,-169.673"/>
<polygon fill="midnightblue" stroke="midnightblue" points="430.619,-173.123 441.088,-171.489 431.885,-166.238 430.619,-173.123"/>
</g>
<!-- Node6 -->
<g id="node6" class="node"><title>Node6</title>
<g id="a_node6"><a xlink:href="../../d9/d11/classconfiguration_1_1_parser.html#af0032734232f2e6043d7c8c94d86dd1f" target="_top" xlink:title="configuration.Parser.isConstant">
<polygon fill="white" stroke="black" points="424.5,-133.5 424.5,-152.5 589.5,-152.5 589.5,-133.5 424.5,-133.5"/>
<text text-anchor="middle" x="507" y="-140.5" font-family="Helvetica,sans-Serif" font-size="10.00">configuration.Parser.isConstant</text>
</a>
</g>
</g>
<!-- Node2&#45;&gt;Node6 -->
<g id="edge5" class="edge"><title>Node2&#45;&gt;Node6</title>
<path fill="none" stroke="midnightblue" d="M360.056,-130.565C377.502,-132.052 396.195,-133.644 414.182,-135.177"/>
<polygon fill="midnightblue" stroke="midnightblue" points="414.121,-138.684 424.382,-136.046 414.715,-131.71 414.121,-138.684"/>
</g>
<!-- Node7 -->
<g id="node7" class="node"><title>Node7</title>
<g id="a_node7"><a xlink:href="../../d9/d11/classconfiguration_1_1_parser.html#a061c6e2e973a9e7f531931f61f45448b" target="_top" xlink:title="configuration.Parser.isVariable">
<polygon fill="white" stroke="black" points="427,-95.5 427,-114.5 587,-114.5 587,-95.5 427,-95.5"/>
<text text-anchor="middle" x="507" y="-102.5" font-family="Helvetica,sans-Serif" font-size="10.00">configuration.Parser.isVariable</text>
</a>
</g>
</g>
<!-- Node2&#45;&gt;Node7 -->
<g id="edge6" class="edge"><title>Node2&#45;&gt;Node7</title>
<path fill="none" stroke="midnightblue" d="M360.056,-117.435C378.304,-115.88 397.917,-114.209 416.66,-112.612"/>
<polygon fill="midnightblue" stroke="midnightblue" points="417.001,-116.096 426.668,-111.759 416.407,-109.121 417.001,-116.096"/>
</g>
<!-- Node8 -->
<g id="node8" class="node"><title>Node8</title>
<g id="a_node8"><a xlink:href="../../d0/d3b/classcommands_1_1_user_made_utilities.html#ad6e90d3cccee9da7cf3df2c13fc70381" target="_top" xlink:title="commands.UserMadeUtilities.containsVars">
<polygon fill="white" stroke="black" points="396,-57.5 396,-76.5 618,-76.5 618,-57.5 396,-57.5"/>
<text text-anchor="middle" x="507" y="-64.5" font-family="Helvetica,sans-Serif" font-size="10.00">commands.UserMadeUtilities.containsVars</text>
</a>
</g>
</g>
<!-- Node2&#45;&gt;Node8 -->
<g id="edge7" class="edge"><title>Node2&#45;&gt;Node8</title>
<path fill="none" stroke="midnightblue" d="M329.572,-114.447C339.744,-111.826 350.349,-108.674 360,-105 376.908,-98.563 378.875,-91.8339 396,-86 404.264,-83.1849 413.025,-80.7722 421.853,-78.7074"/>
<polygon fill="midnightblue" stroke="midnightblue" points="422.807,-82.0814 431.826,-76.5212 421.308,-75.2438 422.807,-82.0814"/>
</g>
<!-- Node9 -->
<g id="node9" class="node"><title>Node9</title>
<g id="a_node9"><a xlink:href="../../d0/d3b/classcommands_1_1_user_made_utilities.html#afc570f31a89922ff7a42f13839888c8f" target="_top" xlink:title="commands.UserMadeUtilities.get\lFromVars">
<polygon fill="white" stroke="black" points="419,-8 419,-38 595,-38 595,-8 419,-8"/>
<text text-anchor="start" x="427" y="-26" font-family="Helvetica,sans-Serif" font-size="10.00">commands.UserMadeUtilities.get</text>
<text text-anchor="middle" x="507" y="-15" font-family="Helvetica,sans-Serif" font-size="10.00">FromVars</text>
</a>
</g>
</g>
<!-- Node2&#45;&gt;Node9 -->
<g id="edge8" class="edge"><title>Node2&#45;&gt;Node9</title>
<path fill="none" stroke="midnightblue" d="M342.277,-114.409C348.581,-111.949 354.639,-108.865 360,-105 384.304,-87.476 371.535,-65.2991 396,-48 400.239,-45.0028 404.779,-42.3582 409.513,-40.0254"/>
<polygon fill="midnightblue" stroke="midnightblue" points="411.093,-43.1538 418.827,-35.9128 408.266,-36.7503 411.093,-43.1538"/>
</g>
<!-- Node5 -->
<g id="node5" class="node"><title>Node5</title>
<g id="a_node5"><a xlink:href="../../da/dde/classconfiguration_1_1_util.html#a163b0098613bf2f7becf27b131af3934" target="_top" xlink:title="configuration.Util.match">
<polygon fill="white" stroke="black" points="654.5,-171.5 654.5,-190.5 785.5,-190.5 785.5,-171.5 654.5,-171.5"/>
<text text-anchor="middle" x="720" y="-178.5" font-family="Helvetica,sans-Serif" font-size="10.00">configuration.Util.match</text>
</a>
</g>
</g>
<!-- Node4&#45;&gt;Node5 -->
<g id="edge4" class="edge"><title>Node4&#45;&gt;Node5</title>
<path fill="none" stroke="midnightblue" d="M599.627,-181C614.483,-181 629.713,-181 644.11,-181"/>
<polygon fill="midnightblue" stroke="midnightblue" points="644.429,-184.5 654.429,-181 644.429,-177.5 644.429,-184.5"/>
</g>
</g>
</svg>
