<?xml version="1.0" encoding="UTF-8" standalone="no"?>
<!DOCTYPE svg PUBLIC "-//W3C//DTD SVG 1.1//EN"
 "http://www.w3.org/Graphics/SVG/1.1/DTD/svg11.dtd">
<!-- Generated by graphviz version 2.36.0 (20140111.2315)
 -->
<!-- Title: configuration.BasicParser.parse Pages: 1 -->
<svg width="794pt" height="229pt"
 viewBox="0.00 0.00 794.00 229.00" xmlns="http://www.w3.org/2000/svg" xmlns:xlink="http://www.w3.org/1999/xlink">
<g id="graph0" class="graph" transform="scale(1 1) rotate(0) translate(4 225)">
<title>configuration.BasicParser.parse</title>
<polygon fill="white" stroke="none" points="-4,4 -4,-225 790,-225 790,4 -4,4"/>
<!-- Node1 -->
<g id="node1" class="node"><title>Node1</title>
<polygon fill="#bfbfbf" stroke="black" points="0.5,-68.5 0.5,-87.5 167.5,-87.5 167.5,-68.5 0.5,-68.5"/>
<text text-anchor="middle" x="84" y="-75.5" font-family="Helvetica,sans-Serif" font-size="10.00">configuration.BasicParser.parse</text>
</g>
<!-- Node2 -->
<g id="node2" class="node"><title>Node2</title>
<g id="a_node2"><a xlink:href="../../d9/d11/classconfiguration_1_1_parser.html#ae0480f44c9defa614fb470ab154fa60b" target="_top" xlink:title="configuration.Parser.buildTree">
<polygon fill="white" stroke="black" points="204,-106.5 204,-125.5 360,-125.5 360,-106.5 204,-106.5"/>
<text text-anchor="middle" x="282" y="-113.5" font-family="Helvetica,sans-Serif" font-size="10.00">configuration.Parser.buildTree</text>
</a>
</g>
</g>
<!-- Node1&#45;&gt;Node2 -->
<g id="edge1" class="edge"><title>Node1&#45;&gt;Node2</title>
<path fill="none" stroke="midnightblue" d="M134.206,-87.54C160.767,-92.6896 193.749,-99.084 221.718,-104.506"/>
<polygon fill="midnightblue" stroke="midnightblue" points="221.29,-107.989 231.774,-106.456 222.623,-101.117 221.29,-107.989"/>
</g>
<!-- Node10 -->
<g id="node10" class="node"><title>Node10</title>
<g id="a_node10"><a xlink:href="../../d8/d4f/interface_tree_1_1_node.html#a83d55b41499cfcfd3607420eed42507c" target="_top" xlink:title="Tree.Node.getValue">
<polygon fill="white" stroke="black" points="227,-68.5 227,-87.5 337,-87.5 337,-68.5 227,-68.5"/>
<text text-anchor="middle" x="282" y="-75.5" font-family="Helvetica,sans-Serif" font-size="10.00">Tree.Node.getValue</text>
</a>
</g>
</g>
<!-- Node1&#45;&gt;Node10 -->
<g id="edge9" class="edge"><title>Node1&#45;&gt;Node10</title>
<path fill="none" stroke="midnightblue" d="M167.554,-78C184.031,-78 201.107,-78 216.852,-78"/>
<polygon fill="midnightblue" stroke="midnightblue" points="216.988,-81.5001 226.988,-78 216.988,-74.5001 216.988,-81.5001"/>
</g>
<!-- Node11 -->
<g id="node11" class="node"><title>Node11</title>
<g id="a_node11"><a xlink:href="../../d8/d4f/interface_tree_1_1_node.html#af71a5a5ffc67e8e90b1e8235efbd6a83" target="_top" xlink:title="Tree.Node.hasChild">
<polygon fill="white" stroke="black" points="228,-30.5 228,-49.5 336,-49.5 336,-30.5 228,-30.5"/>
<text text-anchor="middle" x="282" y="-37.5" font-family="Helvetica,sans-Serif" font-size="10.00">Tree.Node.hasChild</text>
</a>
</g>
</g>
<!-- Node1&#45;&gt;Node11 -->
<g id="edge10" class="edge"><title>Node1&#45;&gt;Node11</title>
<path fill="none" stroke="midnightblue" d="M134.206,-68.46C160.767,-63.3104 193.749,-56.916 221.718,-51.4935"/>
<polygon fill="midnightblue" stroke="midnightblue" points="222.623,-54.8833 231.774,-49.5439 221.29,-48.0113 222.623,-54.8833"/>
</g>
<!-- Node3 -->
<g id="node3" class="node"><title>Node3</title>
<g id="a_node3"><a xlink:href="../../d9/d11/classconfiguration_1_1_parser.html#a6a8ca49b46db578a3d9e84b0c4ce2f75" target="_top" xlink:title="configuration.Parser.isCommand">
<polygon fill="white" stroke="black" points="421,-201.5 421,-220.5 593,-220.5 593,-201.5 421,-201.5"/>
<text text-anchor="middle" x="507" y="-208.5" font-family="Helvetica,sans-Serif" font-size="10.00">configuration.Parser.isCommand</text>
</a>
</g>
</g>
<!-- Node2&#45;&gt;Node3 -->
<g id="edge2" class="edge"><title>Node2&#45;&gt;Node3</title>
<path fill="none" stroke="midnightblue" d="M293.951,-125.735C313.144,-142.22 354.749,-175.449 396,-192 402.677,-194.679 409.731,-196.981 416.913,-198.958"/>
<polygon fill="midnightblue" stroke="midnightblue" points="416.206,-202.39 426.76,-201.458 417.929,-195.605 416.206,-202.39"/>
</g>
<!-- Node4 -->
<g id="node4" class="node"><title>Node4</title>
<g id="a_node4"><a xlink:href="../../da/dde/classconfiguration_1_1_util.html#a55c271426926996186d1cde227ae7e23" target="_top" xlink:title="configuration.Util.findCommandKey">
<polygon fill="white" stroke="black" points="414.5,-163.5 414.5,-182.5 599.5,-182.5 599.5,-163.5 414.5,-163.5"/>
<text text-anchor="middle" x="507" y="-170.5" font-family="Helvetica,sans-Serif" font-size="10.00">configuration.Util.findCommandKey</text>
</a>
</g>
</g>
<!-- Node2&#45;&gt;Node4 -->
<g id="edge3" class="edge"><title>Node2&#45;&gt;Node4</title>
<path fill="none" stroke="midnightblue" d="M307.805,-125.568C330.483,-134.021 365.099,-146.185 396,-154 407.302,-156.859 419.367,-159.423 431.211,-161.673"/>
<polygon fill="midnightblue" stroke="midnightblue" points="430.619,-165.123 441.088,-163.489 431.885,-158.238 430.619,-165.123"/>
</g>
<!-- Node6 -->
<g id="node6" class="node"><title>Node6</title>
<g id="a_node6"><a xlink:href="../../d9/d11/classconfiguration_1_1_parser.html#af0032734232f2e6043d7c8c94d86dd1f" target="_top" xlink:title="configuration.Parser.isConstant">
<polygon fill="white" stroke="black" points="424.5,-125.5 424.5,-144.5 589.5,-144.5 589.5,-125.5 424.5,-125.5"/>
<text text-anchor="middle" x="507" y="-132.5" font-family="Helvetica,sans-Serif" font-size="10.00">configuration.Parser.isConstant</text>
</a>
</g>
</g>
<!-- Node2&#45;&gt;Node6 -->
<g id="edge5" class="edge"><title>Node2&#45;&gt;Node6</title>
<path fill="none" stroke="midnightblue" d="M360.056,-122.565C377.502,-124.052 396.195,-125.644 414.182,-127.177"/>
<polygon fill="midnightblue" stroke="midnightblue" points="414.121,-130.684 424.382,-128.046 414.715,-123.71 414.121,-130.684"/>
</g>
<!-- Node7 -->
<g id="node7" class="node"><title>Node7</title>
<g id="a_node7"><a xlink:href="../../d9/d11/classconfiguration_1_1_parser.html#a061c6e2e973a9e7f531931f61f45448b" target="_top" xlink:title="configuration.Parser.isVariable">
<polygon fill="white" stroke="black" points="427,-87.5 427,-106.5 587,-106.5 587,-87.5 427,-87.5"/>
<text text-anchor="middle" x="507" y="-94.5" font-family="Helvetica,sans-Serif" font-size="10.00">configuration.Parser.isVariable</text>
</a>
</g>
</g>
<!-- Node2&#45;&gt;Node7 -->
<g id="edge6" class="edge"><title>Node2&#45;&gt;Node7</title>
<path fill="none" stroke="midnightblue" d="M360.056,-109.435C378.304,-107.88 397.917,-106.209 416.66,-104.612"/>
<polygon fill="midnightblue" stroke="midnightblue" points="417.001,-108.096 426.668,-103.759 416.407,-101.121 417.001,-108.096"/>
</g>
<!-- Node8 -->
<g id="node8" class="node"><title>Node8</title>
<g id="a_node8"><a xlink:href="../../d0/d3b/classcommands_1_1_user_made_utilities.html#ad6e90d3cccee9da7cf3df2c13fc70381" target="_top" xlink:title="commands.UserMadeUtilities.containsVars">
<polygon fill="white" stroke="black" points="396,-49.5 396,-68.5 618,-68.5 618,-49.5 396,-49.5"/>
<text text-anchor="middle" x="507" y="-56.5" font-family="Helvetica,sans-Serif" font-size="10.00">commands.UserMadeUtilities.containsVars</text>
</a>
</g>
</g>
<!-- Node2&#45;&gt;Node8 -->
<g id="edge7" class="edge"><title>Node2&#45;&gt;Node8</title>
<path fill="none" stroke="midnightblue" d="M329.572,-106.447C339.744,-103.826 350.349,-100.674 360,-97 376.908,-90.563 378.875,-83.8339 396,-78 404.264,-75.1849 413.025,-72.7722 421.853,-70.7074"/>
<polygon fill="midnightblue" stroke="midnightblue" points="422.807,-74.0814 431.826,-68.5212 421.308,-67.2438 422.807,-74.0814"/>
</g>
<!-- Node9 -->
<g id="node9" class="node"><title>Node9</title>
<g id="a_node9"><a xlink:href="../../d0/d3b/classcommands_1_1_user_made_utilities.html#afc570f31a89922ff7a42f13839888c8f" target="_top" xlink:title="commands.UserMadeUtilities.get\lFromVars">
<polygon fill="white" stroke="black" points="419,-0 419,-30 595,-30 595,-0 419,-0"/>
<text text-anchor="start" x="427" y="-18" font-family="Helvetica,sans-Serif" font-size="10.00">commands.UserMadeUtilities.get</text>
<text text-anchor="middle" x="507" y="-7" font-family="Helvetica,sans-Serif" font-size="10.00">FromVars</text>
</a>
</g>
</g>
<!-- Node2&#45;&gt;Node9 -->
<g id="edge8" class="edge"><title>Node2&#45;&gt;Node9</title>
<path fill="none" stroke="midnightblue" d="M342.277,-106.409C348.581,-103.949 354.639,-100.865 360,-97 384.304,-79.476 371.535,-57.2991 396,-40 400.239,-37.0028 404.779,-34.3582 409.513,-32.0254"/>
<polygon fill="midnightblue" stroke="midnightblue" points="411.093,-35.1538 418.827,-27.9128 408.266,-28.7503 411.093,-35.1538"/>
</g>
<!-- Node5 -->
<g id="node5" class="node"><title>Node5</title>
<g id="a_node5"><a xlink:href="../../da/dde/classconfiguration_1_1_util.html#a163b0098613bf2f7becf27b131af3934" target="_top" xlink:title="configuration.Util.match">
<polygon fill="white" stroke="black" points="654.5,-163.5 654.5,-182.5 785.5,-182.5 785.5,-163.5 654.5,-163.5"/>
<text text-anchor="middle" x="720" y="-170.5" font-family="Helvetica,sans-Serif" font-size="10.00">configuration.Util.match</text>
</a>
</g>
</g>
<!-- Node4&#45;&gt;Node5 -->
<g id="edge4" class="edge"><title>Node4&#45;&gt;Node5</title>
<path fill="none" stroke="midnightblue" d="M599.627,-173C614.483,-173 629.713,-173 644.11,-173"/>
<polygon fill="midnightblue" stroke="midnightblue" points="644.429,-176.5 654.429,-173 644.429,-169.5 644.429,-176.5"/>
</g>
</g>
</svg>
