<?xml version="1.0" encoding="UTF-8" standalone="no"?>
<!DOCTYPE svg PUBLIC "-//W3C//DTD SVG 1.1//EN"
 "http://www.w3.org/Graphics/SVG/1.1/DTD/svg11.dtd">
<!-- Generated by graphviz version 2.36.0 (20140111.2315)
 -->
<!-- Title: configuration.BasicParser.setLanguage Pages: 1 -->
<svg width="556pt" height="38pt"
 viewBox="0.00 0.00 556.00 38.00" xmlns="http://www.w3.org/2000/svg" xmlns:xlink="http://www.w3.org/1999/xlink">
<g id="graph0" class="graph" transform="scale(1 1) rotate(0) translate(4 34)">
<title>configuration.BasicParser.setLanguage</title>
<polygon fill="white" stroke="none" points="-4,4 -4,-34 552,-34 552,4 -4,4"/>
<!-- Node1 -->
<g id="node1" class="node"><title>Node1</title>
<polygon fill="#bfbfbf" stroke="black" points="0.5,-0 0.5,-30 155.5,-30 155.5,-0 0.5,-0"/>
<text text-anchor="start" x="8.5" y="-18" font-family="Helvetica,sans-Serif" font-size="10.00">configuration.BasicParser.set</text>
<text text-anchor="middle" x="78" y="-7" font-family="Helvetica,sans-Serif" font-size="10.00">Language</text>
</g>
<!-- Node2 -->
<g id="node2" class="node"><title>Node2</title>
<g id="a_node2"><a xlink:href="../../db/dd4/classgui_1_1_language_button.html#a9965f35edd0b97d0e5075992d0068dcc" target="_top" xlink:title="gui.LanguageButton.initialize">
<polygon fill="white" stroke="black" points="192.5,-5.5 192.5,-24.5 347.5,-24.5 347.5,-5.5 192.5,-5.5"/>
<text text-anchor="middle" x="270" y="-12.5" font-family="Helvetica,sans-Serif" font-size="10.00">gui.LanguageButton.initialize</text>
</a>
</g>
</g>
<!-- Node1&#45;&gt;Node2 -->
<g id="edge1" class="edge"><title>Node1&#45;&gt;Node2</title>
<path fill="none" stroke="midnightblue" d="M165.978,-15C174.758,-15 183.629,-15 192.29,-15"/>
<polygon fill="midnightblue" stroke="midnightblue" points="165.733,-11.5001 155.733,-15 165.733,-18.5001 165.733,-11.5001"/>
</g>
<!-- Node3 -->
<g id="node3" class="node"><title>Node3</title>
<g id="a_node3"><a xlink:href="../../db/dd4/classgui_1_1_language_button.html#ab6a066ec1e9fad3aae0ff1a70417db7c" target="_top" xlink:title="gui.LanguageButton.Language\lButton">
<polygon fill="white" stroke="black" points="384,-0 384,-30 548,-30 548,-0 384,-0"/>
<text text-anchor="start" x="392" y="-18" font-family="Helvetica,sans-Serif" font-size="10.00">gui.LanguageButton.Language</text>
<text text-anchor="middle" x="466" y="-7" font-family="Helvetica,sans-Serif" font-size="10.00">Button</text>
</a>
</g>
</g>
<!-- Node2&#45;&gt;Node3 -->
<g id="edge2" class="edge"><title>Node2&#45;&gt;Node3</title>
<path fill="none" stroke="midnightblue" d="M357.767,-15C366.421,-15 375.186,-15 383.78,-15"/>
<polygon fill="midnightblue" stroke="midnightblue" points="357.674,-11.5001 347.674,-15 357.674,-18.5001 357.674,-11.5001"/>
</g>
</g>
</svg>
