<?xml version="1.0" encoding="UTF-8" standalone="no"?>
<!DOCTYPE svg PUBLIC "-//W3C//DTD SVG 1.1//EN"
 "http://www.w3.org/Graphics/SVG/1.1/DTD/svg11.dtd">
<!-- Generated by graphviz version 2.36.0 (20140111.2315)
 -->
<!-- Title: commands.arithmeticCommands.Calculate Pages: 1 -->
<!--zoomable 356 -->
<svg id="main" version="1.1" xmlns="http://www.w3.org/2000/svg" xmlns:xlink="http://www.w3.org/1999/xlink" xml:space="preserve" onload="init(evt)">
<style type="text/css"><![CDATA[
.edge:hover path { stroke: red; }
.edge:hover polygon { stroke: red; fill: red; }
]]></style>
<script type="text/javascript"><![CDATA[
var edges = document.getElementsByTagName('g');
if (edges && edges.length) {
  for (var i=0;i<edges.length;i++) {
    if (edges[i].id.substr(0,4)=='edge') {
      edges[i].setAttribute('class','edge');
    }
  }
}
]]></script>
        <defs>
                <circle id="rim" cx="0" cy="0" r="7"/>
                <circle id="rim2" cx="0" cy="0" r="3.5"/>
                <g id="zoomPlus">
                        <use xlink:href="#rim" fill="#404040">
                                <set attributeName="fill" to="#808080" begin="zoomplus.mouseover" end="zoomplus.mouseout"/>
                        </use>
                        <path d="M-4,0h8M0,-4v8" fill="none" stroke="white" stroke-width="1.5" pointer-events="none"/>
                </g>
                <g id="zoomMin">
                        <use xlink:href="#rim" fill="#404040">
                                <set attributeName="fill" to="#808080" begin="zoomminus.mouseover" end="zoomminus.mouseout"/>
                        </use>
                        <path d="M-4,0h8" fill="none" stroke="white" stroke-width="1.5" pointer-events="none"/>
                </g>
                <g id="dirArrow">
                        <path fill="none" stroke="white" stroke-width="1.5" d="M0,-3.0v7 M-2.5,-0.5L0,-3.0L2.5,-0.5"/>
                </g>
               <g id="resetDef">
                       <use xlink:href="#rim2" fill="#404040">
                               <set attributeName="fill" to="#808080" begin="reset.mouseover" end="reset.mouseout"/>
                       </use>
               </g>
        </defs>

<script type="text/javascript">
var viewWidth = 836;
var viewHeight = 356;
var sectionId = 'dynsection-0';
</script>
<script xlink:href="../../svgpan.js"/>
<svg id="graph" class="graph">
<g id="viewport">
<title>commands.arithmeticCommands.Calculate</title>
<polygon fill="white" stroke="none" points="-4,4 -4,-352 832,-352 832,4 -4,4"/>
<!-- Node1 -->
<g id="node1" class="node"><title>Node1</title>
<polygon fill="#bfbfbf" stroke="black" points="406.5,-159 406.5,-189 587.5,-189 587.5,-159 406.5,-159"/>
<text text-anchor="start" x="414.5" y="-177" font-family="Helvetica,sans-Serif" font-size="10.00">commands.arithmeticCommands.</text>
<text text-anchor="middle" x="497" y="-166" font-family="Helvetica,sans-Serif" font-size="10.00">Calculate</text>
</g>
<!-- Node4 -->
<g id="node4" class="node"><title>Node4</title>
<g id="a_node4"><a xlink:href="../../d8/d56/classcommands_1_1arithmetic_commands_1_1_a_tan.html" target="_top" xlink:title="commands.arithmeticCommands.ATan">
<polygon fill="white" stroke="black" points="624.5,-328.5 624.5,-347.5 827.5,-347.5 827.5,-328.5 624.5,-328.5"/>
<text text-anchor="middle" x="726" y="-335.5" font-family="Helvetica,sans-Serif" font-size="10.00">commands.arithmeticCommands.ATan</text>
</a>
</g>
</g>
<!-- Node1&#45;&gt;Node4 -->
<g id="edge3" class="edge"><title>Node1&#45;&gt;Node4</title>
<path fill="none" stroke="midnightblue" d="M511.798,-198.245C531.942,-231.245 572.654,-289.555 624,-319 630.733,-322.861 638.094,-325.958 645.675,-328.44"/>
<polygon fill="midnightblue" stroke="midnightblue" points="514.571,-196.061 506.443,-189.264 508.558,-199.646 514.571,-196.061"/>
</g>
<!-- Node5 -->
<g id="node5" class="node"><title>Node5</title>
<g id="a_node5"><a xlink:href="../../d4/db2/classcommands_1_1arithmetic_commands_1_1_cos.html" target="_top" xlink:title="commands.arithmeticCommands.Cos">
<polygon fill="white" stroke="black" points="626.5,-290.5 626.5,-309.5 825.5,-309.5 825.5,-290.5 626.5,-290.5"/>
<text text-anchor="middle" x="726" y="-297.5" font-family="Helvetica,sans-Serif" font-size="10.00">commands.arithmeticCommands.Cos</text>
</a>
</g>
</g>
<!-- Node1&#45;&gt;Node5 -->
<g id="edge4" class="edge"><title>Node1&#45;&gt;Node5</title>
<path fill="none" stroke="midnightblue" d="M517.813,-196.758C540.771,-221.576 580.992,-260.49 624,-281 632.213,-284.917 641.163,-288.027 650.229,-290.497"/>
<polygon fill="midnightblue" stroke="midnightblue" points="520.297,-194.288 510.983,-189.237 515.114,-198.993 520.297,-194.288"/>
</g>
<!-- Node6 -->
<g id="node6" class="node"><title>Node6</title>
<g id="a_node6"><a xlink:href="../../d1/d2d/classcommands_1_1arithmetic_commands_1_1_log.html" target="_top" xlink:title="commands.arithmeticCommands.Log">
<polygon fill="white" stroke="black" points="627,-252.5 627,-271.5 825,-271.5 825,-252.5 627,-252.5"/>
<text text-anchor="middle" x="726" y="-259.5" font-family="Helvetica,sans-Serif" font-size="10.00">commands.arithmeticCommands.Log</text>
</a>
</g>
</g>
<!-- Node1&#45;&gt;Node6 -->
<g id="edge5" class="edge"><title>Node1&#45;&gt;Node6</title>
<path fill="none" stroke="midnightblue" d="M529.763,-194.614C554.521,-209.808 590.251,-229.864 624,-242 635.943,-246.294 649.03,-249.745 661.708,-252.49"/>
<polygon fill="midnightblue" stroke="midnightblue" points="531.501,-191.574 521.162,-189.26 527.802,-197.516 531.501,-191.574"/>
</g>
<!-- Node7 -->
<g id="node7" class="node"><title>Node7</title>
<g id="a_node7"><a xlink:href="../../d9/d79/classcommands_1_1arithmetic_commands_1_1_minus.html" target="_top" xlink:title="commands.arithmeticCommands.\lMinus">
<polygon fill="white" stroke="black" points="635.5,-203 635.5,-233 816.5,-233 816.5,-203 635.5,-203"/>
<text text-anchor="start" x="643.5" y="-221" font-family="Helvetica,sans-Serif" font-size="10.00">commands.arithmeticCommands.</text>
<text text-anchor="middle" x="726" y="-210" font-family="Helvetica,sans-Serif" font-size="10.00">Minus</text>
</a>
</g>
</g>
<!-- Node1&#45;&gt;Node7 -->
<g id="edge6" class="edge"><title>Node1&#45;&gt;Node7</title>
<path fill="none" stroke="midnightblue" d="M585.414,-190.944C605.859,-194.907 627.498,-199.101 647.478,-202.974"/>
<polygon fill="midnightblue" stroke="midnightblue" points="585.969,-187.486 575.486,-189.019 584.637,-194.358 585.969,-187.486"/>
</g>
<!-- Node8 -->
<g id="node8" class="node"><title>Node8</title>
<g id="a_node8"><a xlink:href="../../d3/dc4/classcommands_1_1arithmetic_commands_1_1_p_i.html" target="_top" xlink:title="commands.arithmeticCommands.PI">
<polygon fill="white" stroke="black" points="631.5,-164.5 631.5,-183.5 820.5,-183.5 820.5,-164.5 631.5,-164.5"/>
<text text-anchor="middle" x="726" y="-171.5" font-family="Helvetica,sans-Serif" font-size="10.00">commands.arithmeticCommands.PI</text>
</a>
</g>
</g>
<!-- Node1&#45;&gt;Node8 -->
<g id="edge7" class="edge"><title>Node1&#45;&gt;Node8</title>
<path fill="none" stroke="midnightblue" d="M597.899,-174C609.056,-174 620.39,-174 631.462,-174"/>
<polygon fill="midnightblue" stroke="midnightblue" points="597.716,-170.5 587.716,-174 597.716,-177.5 597.716,-170.5"/>
</g>
<!-- Node9 -->
<g id="node9" class="node"><title>Node9</title>
<g id="a_node9"><a xlink:href="../../d7/d19/classcommands_1_1arithmetic_commands_1_1_pow.html" target="_top" xlink:title="commands.arithmeticCommands.Pow">
<polygon fill="white" stroke="black" points="626,-126.5 626,-145.5 826,-145.5 826,-126.5 626,-126.5"/>
<text text-anchor="middle" x="726" y="-133.5" font-family="Helvetica,sans-Serif" font-size="10.00">commands.arithmeticCommands.Pow</text>
</a>
</g>
</g>
<!-- Node1&#45;&gt;Node9 -->
<g id="edge8" class="edge"><title>Node1&#45;&gt;Node9</title>
<path fill="none" stroke="midnightblue" d="M597.648,-157.319C621.821,-153.272 646.844,-149.083 668.244,-145.501"/>
<polygon fill="midnightblue" stroke="midnightblue" points="597.001,-153.878 587.716,-158.981 598.157,-160.782 597.001,-153.878"/>
</g>
<!-- Node10 -->
<g id="node10" class="node"><title>Node10</title>
<g id="a_node10"><a xlink:href="../../d8/dfc/classcommands_1_1arithmetic_commands_1_1_random.html" target="_top" xlink:title="commands.arithmeticCommands.\lRandom">
<polygon fill="white" stroke="black" points="635.5,-77 635.5,-107 816.5,-107 816.5,-77 635.5,-77"/>
<text text-anchor="start" x="643.5" y="-95" font-family="Helvetica,sans-Serif" font-size="10.00">commands.arithmeticCommands.</text>
<text text-anchor="middle" x="726" y="-84" font-family="Helvetica,sans-Serif" font-size="10.00">Random</text>
</a>
</g>
</g>
<!-- Node1&#45;&gt;Node10 -->
<g id="edge9" class="edge"><title>Node1&#45;&gt;Node10</title>
<path fill="none" stroke="midnightblue" d="M536.166,-154.535C560.776,-142.538 593.727,-127.496 624,-117 634.496,-113.361 645.778,-110.027 656.863,-107.063"/>
<polygon fill="midnightblue" stroke="midnightblue" points="534.59,-151.41 527.165,-158.968 537.683,-157.69 534.59,-151.41"/>
</g>
<!-- Node11 -->
<g id="node11" class="node"><title>Node11</title>
<g id="a_node11"><a xlink:href="../../df/d37/classcommands_1_1arithmetic_commands_1_1_sin.html" target="_top" xlink:title="commands.arithmeticCommands.Sin">
<polygon fill="white" stroke="black" points="628,-38.5 628,-57.5 824,-57.5 824,-38.5 628,-38.5"/>
<text text-anchor="middle" x="726" y="-45.5" font-family="Helvetica,sans-Serif" font-size="10.00">commands.arithmeticCommands.Sin</text>
</a>
</g>
</g>
<!-- Node1&#45;&gt;Node11 -->
<g id="edge10" class="edge"><title>Node1&#45;&gt;Node11</title>
<path fill="none" stroke="midnightblue" d="M517.813,-151.242C540.771,-126.424 580.992,-87.5101 624,-67 632.213,-63.0831 641.163,-59.9728 650.229,-57.5031"/>
<polygon fill="midnightblue" stroke="midnightblue" points="515.114,-149.007 510.983,-158.763 520.297,-153.712 515.114,-149.007"/>
</g>
<!-- Node12 -->
<g id="node12" class="node"><title>Node12</title>
<g id="a_node12"><a xlink:href="../../dc/d53/classcommands_1_1arithmetic_commands_1_1_tan.html" target="_top" xlink:title="commands.arithmeticCommands.Tan">
<polygon fill="white" stroke="black" points="627.5,-0.5 627.5,-19.5 824.5,-19.5 824.5,-0.5 627.5,-0.5"/>
<text text-anchor="middle" x="726" y="-7.5" font-family="Helvetica,sans-Serif" font-size="10.00">commands.arithmeticCommands.Tan</text>
</a>
</g>
</g>
<!-- Node1&#45;&gt;Node12 -->
<g id="edge11" class="edge"><title>Node1&#45;&gt;Node12</title>
<path fill="none" stroke="midnightblue" d="M511.798,-149.755C531.942,-116.755 572.654,-58.4447 624,-29 630.733,-25.139 638.094,-22.0415 645.675,-19.5596"/>
<polygon fill="midnightblue" stroke="midnightblue" points="508.558,-148.354 506.443,-158.736 514.571,-151.939 508.558,-148.354"/>
</g>
<!-- Node2 -->
<g id="node2" class="node"><title>Node2</title>
<g id="a_node2"><a xlink:href="../../dc/d3e/classcommands_1_1_command_center.html" target="_top" xlink:title="commands.CommandCenter">
<polygon fill="white" stroke="black" points="214,-164.5 214,-183.5 370,-183.5 370,-164.5 214,-164.5"/>
<text text-anchor="middle" x="292" y="-171.5" font-family="Helvetica,sans-Serif" font-size="10.00">commands.CommandCenter</text>
</a>
</g>
</g>
<!-- Node2&#45;&gt;Node1 -->
<g id="edge1" class="edge"><title>Node2&#45;&gt;Node1</title>
<path fill="none" stroke="midnightblue" d="M380.164,-174C388.862,-174 397.703,-174 406.425,-174"/>
<polygon fill="midnightblue" stroke="midnightblue" points="380.035,-170.5 370.035,-174 380.035,-177.5 380.035,-170.5"/>
</g>
<!-- Node3 -->
<g id="node3" class="node"><title>Node3</title>
<g id="a_node3"><a xlink:href="../../d1/d4d/interfacecommands_1_1view_commands_1_1turtle_commands_1_1_executable.html" target="_top" xlink:title="commands.viewCommands.turtle\lCommands.Executable">
<polygon fill="white" stroke="black" points="0,-159 0,-189 178,-189 178,-159 0,-159"/>
<text text-anchor="start" x="8" y="-177" font-family="Helvetica,sans-Serif" font-size="10.00">commands.viewCommands.turtle</text>
<text text-anchor="middle" x="89" y="-166" font-family="Helvetica,sans-Serif" font-size="10.00">Commands.Executable</text>
</a>
</g>
</g>
<!-- Node3&#45;&gt;Node2 -->
<g id="edge2" class="edge"><title>Node3&#45;&gt;Node2</title>
<path fill="none" stroke="midnightblue" d="M188.259,-174C196.882,-174 205.527,-174 213.94,-174"/>
<polygon fill="midnightblue" stroke="midnightblue" points="188.162,-170.5 178.162,-174 188.161,-177.5 188.162,-170.5"/>
</g>
</g>
</svg>
        <g id="navigator" transform="translate(0 0)" fill="#404254">
                <rect fill="#f2f5e9" fill-opacity="0.5" stroke="#606060" stroke-width=".5" x="0" y="0" width="60" height="60"/>
                <use id="zoomplus" xlink:href="#zoomPlus" x="17" y="9" onmousedown="handleZoom(evt,'in')"/>
                <use id="zoomminus" xlink:href="#zoomMin" x="42" y="9" onmousedown="handleZoom(evt,'out')"/>
                <use id="reset" xlink:href="#resetDef" x="30" y="36" onmousedown="handleReset()"/>
                <g id="arrowUp" xlink:href="#dirArrow" transform="translate(30 24)" onmousedown="handlePan(0,-1)">
                  <use xlink:href="#rim" fill="#404040">
                        <set attributeName="fill" to="#808080" begin="arrowUp.mouseover" end="arrowUp.mouseout"/>
                  </use>
                  <path fill="none" stroke="white" stroke-width="1.5" d="M0,-3.0v7 M-2.5,-0.5L0,-3.0L2.5,-0.5"/>
                </g>
                <g id="arrowRight" xlink:href="#dirArrow" transform="rotate(90) translate(36 -43)" onmousedown="handlePan(1,0)">
                  <use xlink:href="#rim" fill="#404040">
                        <set attributeName="fill" to="#808080" begin="arrowRight.mouseover" end="arrowRight.mouseout"/>
                  </use>
                  <path fill="none" stroke="white" stroke-width="1.5" d="M0,-3.0v7 M-2.5,-0.5L0,-3.0L2.5,-0.5"/>
                </g>
                <g id="arrowDown" xlink:href="#dirArrow" transform="rotate(180) translate(-30 -48)" onmousedown="handlePan(0,1)">
                  <use xlink:href="#rim" fill="#404040">
                        <set attributeName="fill" to="#808080" begin="arrowDown.mouseover" end="arrowDown.mouseout"/>
                  </use>
                  <path fill="none" stroke="white" stroke-width="1.5" d="M0,-3.0v7 M-2.5,-0.5L0,-3.0L2.5,-0.5"/>
                </g>
                <g id="arrowLeft" xlink:href="#dirArrow" transform="rotate(270) translate(-36 17)" onmousedown="handlePan(-1,0)">
                  <use xlink:href="#rim" fill="#404040">
                        <set attributeName="fill" to="#808080" begin="arrowLeft.mouseover" end="arrowLeft.mouseout"/>
                  </use>
                  <path fill="none" stroke="white" stroke-width="1.5" d="M0,-3.0v7 M-2.5,-0.5L0,-3.0L2.5,-0.5"/>
                </g>
        </g>
        <svg viewBox="0 0 15 15" width="100%" height="30px" preserveAspectRatio="xMaxYMin meet">
         <g id="arrow_out" transform="scale(0.3 0.3)">
          <a xlink:href="classcommands_1_1arithmetic_commands_1_1_calculate__inherit__graph_org.svg" target="_base">
           <rect id="button" ry="5" rx="5" y="6" x="6" height="38" width="38"
                fill="#f2f5e9" fill-opacity="0.5" stroke="#606060" stroke-width="1.0"/>
           <path id="arrow"
             d="M 11.500037,31.436501 C 11.940474,20.09759 22.043105,11.32322 32.158766,21.979434 L 37.068811,17.246167 C 37.068811,17.246167 37.088388,32 37.088388,32 L 22.160133,31.978069 C 22.160133,31.978069 26.997745,27.140456 26.997745,27.140456 C 18.528582,18.264221 13.291696,25.230495 11.500037,31.436501 z"
             style="fill:#404040;"/>
          </a>
         </g>
        </svg>
</svg>
