<?xml version="1.0" encoding="UTF-8" standalone="no"?>
<!DOCTYPE svg PUBLIC "-//W3C//DTD SVG 1.1//EN"
 "http://www.w3.org/Graphics/SVG/1.1/DTD/svg11.dtd">
<!-- Generated by graphviz version 2.36.0 (20140111.2315)
 -->
<!-- Title: configuration.Parser.isListEnd Pages: 1 -->
<svg width="834pt" height="402pt"
 viewBox="0.00 0.00 834.00 401.52" xmlns="http://www.w3.org/2000/svg" xmlns:xlink="http://www.w3.org/1999/xlink">
<g id="graph0" class="graph" transform="scale(1 1) rotate(0) translate(4 397.516)">
<title>configuration.Parser.isListEnd</title>
<polygon fill="white" stroke="none" points="-4,4 -4,-397.516 830,-397.516 830,4 -4,4"/>
<!-- Node1 -->
<g id="node1" class="node"><title>Node1</title>
<polygon fill="#bfbfbf" stroke="black" points="0,-191.5 0,-210.5 156,-210.5 156,-191.5 0,-191.5"/>
<text text-anchor="middle" x="78" y="-198.5" font-family="Helvetica,sans-Serif" font-size="10.00">configuration.Parser.isListEnd</text>
</g>
<!-- Node2 -->
<g id="node2" class="node"><title>Node2</title>
<g id="a_node2"><a xlink:href="../../d7/d56/classconfiguration_1_1_ifelse_parser.html#a4b806589536dd338338d515a0fdb67ed" target="_top" xlink:title="configuration.IfelseParser.parse">
<polygon fill="white" stroke="black" points="434,-336.5 434,-355.5 600,-355.5 600,-336.5 434,-336.5"/>
<text text-anchor="middle" x="517" y="-343.5" font-family="Helvetica,sans-Serif" font-size="10.00">configuration.IfelseParser.parse</text>
</a>
</g>
</g>
<!-- Node1&#45;&gt;Node2 -->
<g id="edge1" class="edge"><title>Node1&#45;&gt;Node2</title>
<path fill="none" stroke="midnightblue" d="M85.1454,-220.116C98.0981,-256.785 132.055,-336.183 192,-368 292.595,-421.393 436.167,-376.827 492.261,-355.651"/>
<polygon fill="midnightblue" stroke="midnightblue" points="88.4427,-218.941 81.9188,-210.593 81.8129,-221.188 88.4427,-218.941"/>
</g>
<!-- Node3 -->
<g id="node3" class="node"><title>Node3</title>
<g id="a_node3"><a xlink:href="../../dc/d64/classconfiguration_1_1_for_parser.html#a2737b422e279cfca7c64fd8eff57d3ff" target="_top" xlink:title="configuration.ForParser.parse">
<polygon fill="white" stroke="black" points="213,-339.5 213,-358.5 369,-358.5 369,-339.5 213,-339.5"/>
<text text-anchor="middle" x="291" y="-346.5" font-family="Helvetica,sans-Serif" font-size="10.00">configuration.ForParser.parse</text>
</a>
</g>
</g>
<!-- Node1&#45;&gt;Node3 -->
<g id="edge2" class="edge"><title>Node1&#45;&gt;Node3</title>
<path fill="none" stroke="midnightblue" d="M89.7615,-219.486C107.322,-247.878 144.947,-301.781 192,-329 199.515,-333.347 207.834,-336.76 216.354,-339.436"/>
<polygon fill="midnightblue" stroke="midnightblue" points="92.5626,-217.353 84.4045,-210.593 86.5665,-220.965 92.5626,-217.353"/>
</g>
<!-- Node4 -->
<g id="node4" class="node"><title>Node4</title>
<g id="a_node4"><a xlink:href="../../d9/dfc/classconfiguration_1_1_dotimes_parser.html#a6086c4c4651b29dd968bf4728bd71d0c" target="_top" xlink:title="configuration.DotimesParser.parse\lCommands">
<polygon fill="white" stroke="black" points="426,-208 426,-238 608,-238 608,-208 426,-208"/>
<text text-anchor="start" x="434" y="-226" font-family="Helvetica,sans-Serif" font-size="10.00">configuration.DotimesParser.parse</text>
<text text-anchor="middle" x="517" y="-215" font-family="Helvetica,sans-Serif" font-size="10.00">Commands</text>
</a>
</g>
</g>
<!-- Node1&#45;&gt;Node4 -->
<g id="edge3" class="edge"><title>Node1&#45;&gt;Node4</title>
<path fill="none" stroke="midnightblue" d="M108.091,-214.743C130.468,-224.52 162.457,-236.806 192,-242 274.133,-256.44 369.59,-247.833 435.514,-238.001"/>
<polygon fill="midnightblue" stroke="midnightblue" points="109.386,-211.488 98.8282,-210.599 106.527,-217.878 109.386,-211.488"/>
</g>
<!-- Node6 -->
<g id="node6" class="node"><title>Node6</title>
<g id="a_node6"><a xlink:href="../../d3/d0d/classconfiguration_1_1_repeat_parser.html#aed07d335bcd1174cb4247a7add0d3315" target="_top" xlink:title="configuration.RepeatParser.parse\lCommands">
<polygon fill="white" stroke="black" points="204,-164 204,-194 378,-194 378,-164 204,-164"/>
<text text-anchor="start" x="212" y="-182" font-family="Helvetica,sans-Serif" font-size="10.00">configuration.RepeatParser.parse</text>
<text text-anchor="middle" x="291" y="-171" font-family="Helvetica,sans-Serif" font-size="10.00">Commands</text>
</a>
</g>
</g>
<!-- Node1&#45;&gt;Node6 -->
<g id="edge5" class="edge"><title>Node1&#45;&gt;Node6</title>
<path fill="none" stroke="midnightblue" d="M166.381,-191.889C178.77,-190.597 191.502,-189.27 203.867,-187.981"/>
<polygon fill="midnightblue" stroke="midnightblue" points="165.655,-188.446 156.071,-192.964 166.381,-195.408 165.655,-188.446"/>
</g>
<!-- Node8 -->
<g id="node8" class="node"><title>Node8</title>
<g id="a_node8"><a xlink:href="../../dc/d64/classconfiguration_1_1_for_parser.html#ad3cb5184cf449bd3414f3ba73a8b3104" target="_top" xlink:title="configuration.ForParser.parse\lCommands">
<polygon fill="white" stroke="black" points="439,-113 439,-143 595,-143 595,-113 439,-113"/>
<text text-anchor="start" x="447" y="-131" font-family="Helvetica,sans-Serif" font-size="10.00">configuration.ForParser.parse</text>
<text text-anchor="middle" x="517" y="-120" font-family="Helvetica,sans-Serif" font-size="10.00">Commands</text>
</a>
</g>
</g>
<!-- Node1&#45;&gt;Node8 -->
<g id="edge7" class="edge"><title>Node1&#45;&gt;Node8</title>
<path fill="none" stroke="midnightblue" d="M106.403,-186.732C128.792,-175.787 161.596,-161.348 192,-154 274.826,-133.984 372.668,-128.535 438.995,-127.432"/>
<polygon fill="midnightblue" stroke="midnightblue" points="104.575,-183.732 97.1886,-191.327 107.7,-189.996 104.575,-183.732"/>
</g>
<!-- Node9 -->
<g id="node9" class="node"><title>Node9</title>
<g id="a_node9"><a xlink:href="../../d9/dfc/classconfiguration_1_1_dotimes_parser.html#a63d34c400b9b5715b4a2f9a5d0107e62" target="_top" xlink:title="configuration.DotimesParser.parse\lDotimesIterator">
<polygon fill="white" stroke="black" points="426,-57 426,-87 608,-87 608,-57 426,-57"/>
<text text-anchor="start" x="434" y="-75" font-family="Helvetica,sans-Serif" font-size="10.00">configuration.DotimesParser.parse</text>
<text text-anchor="middle" x="517" y="-64" font-family="Helvetica,sans-Serif" font-size="10.00">DotimesIterator</text>
</a>
</g>
</g>
<!-- Node1&#45;&gt;Node9 -->
<g id="edge8" class="edge"><title>Node1&#45;&gt;Node9</title>
<path fill="none" stroke="midnightblue" d="M89.4156,-182.193C106.509,-153.502 143.514,-99.8349 192,-78 270.486,-42.6552 370.887,-47.4153 438.973,-56.9674"/>
<polygon fill="midnightblue" stroke="midnightblue" points="86.1808,-180.796 84.2138,-191.206 92.2436,-184.295 86.1808,-180.796"/>
</g>
<!-- Node10 -->
<g id="node10" class="node"><title>Node10</title>
<g id="a_node10"><a xlink:href="../../dc/d64/classconfiguration_1_1_for_parser.html#a6bc38f731ac658c5860fe092ba7689ac" target="_top" xlink:title="configuration.ForParser.parseFor">
<polygon fill="white" stroke="black" points="205.5,-87.5 205.5,-106.5 376.5,-106.5 376.5,-87.5 205.5,-87.5"/>
<text text-anchor="middle" x="291" y="-94.5" font-family="Helvetica,sans-Serif" font-size="10.00">configuration.ForParser.parseFor</text>
</a>
</g>
</g>
<!-- Node1&#45;&gt;Node10 -->
<g id="edge10" class="edge"><title>Node1&#45;&gt;Node10</title>
<path fill="none" stroke="midnightblue" d="M97.2921,-184.71C118.586,-166.58 155.514,-137.65 192,-121 205.545,-114.819 220.9,-110.096 235.369,-106.545"/>
<polygon fill="midnightblue" stroke="midnightblue" points="94.9446,-182.113 89.6761,-191.305 99.5269,-187.404 94.9446,-182.113"/>
</g>
<!-- Node11 -->
<g id="node11" class="node"><title>Node11</title>
<g id="a_node11"><a xlink:href="../../d9/dfc/classconfiguration_1_1_dotimes_parser.html#aff41ee5ce2eeff82f7586bd1cf6a91c8" target="_top" xlink:title="configuration.DotimesParser.parseFor">
<polygon fill="white" stroke="black" points="192.5,-213.5 192.5,-232.5 389.5,-232.5 389.5,-213.5 192.5,-213.5"/>
<text text-anchor="middle" x="291" y="-220.5" font-family="Helvetica,sans-Serif" font-size="10.00">configuration.DotimesParser.parseFor</text>
</a>
</g>
</g>
<!-- Node1&#45;&gt;Node11 -->
<g id="edge12" class="edge"><title>Node1&#45;&gt;Node11</title>
<path fill="none" stroke="midnightblue" d="M166.274,-210.1C177.015,-211.22 188.016,-212.367 198.812,-213.492"/>
<polygon fill="midnightblue" stroke="midnightblue" points="166.381,-206.592 156.071,-209.036 165.655,-213.554 166.381,-206.592"/>
</g>
<!-- Node12 -->
<g id="node12" class="node"><title>Node12</title>
<g id="a_node12"><a xlink:href="../../dc/dd1/classconfiguration_1_1_if_parser.html#a3e1532b1163cc498d3f7636ed8ff2a16" target="_top" xlink:title="configuration.IfParser.parse\lListCommands">
<polygon fill="white" stroke="black" points="218,-0 218,-30 364,-30 364,-0 218,-0"/>
<text text-anchor="start" x="226" y="-18" font-family="Helvetica,sans-Serif" font-size="10.00">configuration.IfParser.parse</text>
<text text-anchor="middle" x="291" y="-7" font-family="Helvetica,sans-Serif" font-size="10.00">ListCommands</text>
</a>
</g>
</g>
<!-- Node1&#45;&gt;Node12 -->
<g id="edge14" class="edge"><title>Node1&#45;&gt;Node12</title>
<path fill="none" stroke="midnightblue" d="M87.7056,-181.874C103.652,-148.973 140.688,-81.6699 192,-45 200.614,-38.8444 210.517,-33.9296 220.646,-30.0113"/>
<polygon fill="midnightblue" stroke="midnightblue" points="84.3767,-180.728 83.2778,-191.265 90.7082,-183.713 84.3767,-180.728"/>
</g>
<!-- Node14 -->
<g id="node14" class="node"><title>Node14</title>
<g id="a_node14"><a xlink:href="../../d7/d56/classconfiguration_1_1_ifelse_parser.html#aeb471eacbe15e095075bdd09619fe15d" target="_top" xlink:title="configuration.IfelseParser.parse\lListCommands">
<polygon fill="white" stroke="black" points="208,-290 208,-320 374,-320 374,-290 208,-290"/>
<text text-anchor="start" x="216" y="-308" font-family="Helvetica,sans-Serif" font-size="10.00">configuration.IfelseParser.parse</text>
<text text-anchor="middle" x="291" y="-297" font-family="Helvetica,sans-Serif" font-size="10.00">ListCommands</text>
</a>
</g>
</g>
<!-- Node1&#45;&gt;Node14 -->
<g id="edge16" class="edge"><title>Node1&#45;&gt;Node14</title>
<path fill="none" stroke="midnightblue" d="M99.3634,-216.9C121.223,-233.336 157.477,-258.813 192,-275 204.324,-280.778 218.034,-285.782 231.201,-289.959"/>
<polygon fill="midnightblue" stroke="midnightblue" points="101.265,-213.948 91.1902,-210.669 97.0209,-219.515 101.265,-213.948"/>
</g>
<!-- Node5 -->
<g id="node5" class="node"><title>Node5</title>
<g id="a_node5"><a xlink:href="../../d9/dfc/classconfiguration_1_1_dotimes_parser.html#abf0eb9bddfa4a09adc745008e17b293b" target="_top" xlink:title="configuration.DotimesParser.parse">
<polygon fill="white" stroke="black" points="644,-137.5 644,-156.5 826,-156.5 826,-137.5 644,-137.5"/>
<text text-anchor="middle" x="735" y="-144.5" font-family="Helvetica,sans-Serif" font-size="10.00">configuration.DotimesParser.parse</text>
</a>
</g>
</g>
<!-- Node4&#45;&gt;Node5 -->
<g id="edge4" class="edge"><title>Node4&#45;&gt;Node5</title>
<path fill="none" stroke="midnightblue" d="M585.531,-205.141C593.149,-202.86 600.767,-200.459 608,-198 645.312,-185.312 687.563,-167.475 712.431,-156.606"/>
<polygon fill="midnightblue" stroke="midnightblue" points="584.524,-201.789 575.912,-207.961 586.493,-208.506 584.524,-201.789"/>
</g>
<!-- Node7 -->
<g id="node7" class="node"><title>Node7</title>
<g id="a_node7"><a xlink:href="../../d3/d0d/classconfiguration_1_1_repeat_parser.html#abf20b0ae25909c1cdff93f509830b502" target="_top" xlink:title="configuration.RepeatParser.parse">
<polygon fill="white" stroke="black" points="430,-169.5 430,-188.5 604,-188.5 604,-169.5 430,-169.5"/>
<text text-anchor="middle" x="517" y="-176.5" font-family="Helvetica,sans-Serif" font-size="10.00">configuration.RepeatParser.parse</text>
</a>
</g>
</g>
<!-- Node6&#45;&gt;Node7 -->
<g id="edge6" class="edge"><title>Node6&#45;&gt;Node7</title>
<path fill="none" stroke="midnightblue" d="M388.661,-179C402.329,-179 416.307,-179 429.761,-179"/>
<polygon fill="midnightblue" stroke="midnightblue" points="388.284,-175.5 378.284,-179 388.284,-182.5 388.284,-175.5"/>
</g>
<!-- Node9&#45;&gt;Node5 -->
<g id="edge9" class="edge"><title>Node9&#45;&gt;Node5</title>
<path fill="none" stroke="midnightblue" d="M571.433,-90.3628C583.465,-94.5094 596.173,-98.898 608,-103 641.931,-114.768 680.965,-128.416 706.483,-137.353"/>
<polygon fill="midnightblue" stroke="midnightblue" points="572.553,-87.0469 561.958,-87.0994 570.273,-93.6653 572.553,-87.0469"/>
</g>
<!-- Node10&#45;&gt;Node8 -->
<g id="edge11" class="edge"><title>Node10&#45;&gt;Node8</title>
<path fill="none" stroke="midnightblue" d="M370.729,-107.896C392.815,-110.952 416.799,-114.271 438.794,-117.315"/>
<polygon fill="midnightblue" stroke="midnightblue" points="371.115,-104.416 360.73,-106.512 370.155,-111.35 371.115,-104.416"/>
</g>
<!-- Node11&#45;&gt;Node4 -->
<g id="edge13" class="edge"><title>Node11&#45;&gt;Node4</title>
<path fill="none" stroke="midnightblue" d="M399.785,-223C408.488,-223 417.224,-223 425.783,-223"/>
<polygon fill="midnightblue" stroke="midnightblue" points="399.598,-219.5 389.598,-223 399.598,-226.5 399.598,-219.5"/>
</g>
<!-- Node13 -->
<g id="node13" class="node"><title>Node13</title>
<g id="a_node13"><a xlink:href="../../dc/dd1/classconfiguration_1_1_if_parser.html#ab4ed2d3b7778d2b1206e5d26ebac7976" target="_top" xlink:title="configuration.IfParser.parse">
<polygon fill="white" stroke="black" points="444,-5.5 444,-24.5 590,-24.5 590,-5.5 444,-5.5"/>
<text text-anchor="middle" x="517" y="-12.5" font-family="Helvetica,sans-Serif" font-size="10.00">configuration.IfParser.parse</text>
</a>
</g>
</g>
<!-- Node12&#45;&gt;Node13 -->
<g id="edge15" class="edge"><title>Node12&#45;&gt;Node13</title>
<path fill="none" stroke="midnightblue" d="M374.401,-15C397.104,-15 421.555,-15 443.643,-15"/>
<polygon fill="midnightblue" stroke="midnightblue" points="374.108,-11.5001 364.108,-15 374.108,-18.5001 374.108,-11.5001"/>
</g>
<!-- Node14&#45;&gt;Node2 -->
<g id="edge17" class="edge"><title>Node14&#45;&gt;Node2</title>
<path fill="none" stroke="midnightblue" d="M384.068,-321.852C411.256,-326.828 440.063,-332.101 463.8,-336.446"/>
<polygon fill="midnightblue" stroke="midnightblue" points="384.604,-318.392 374.137,-320.034 383.344,-325.277 384.604,-318.392"/>
</g>
</g>
</svg>
