<?xml version="1.0" encoding="UTF-8" standalone="no"?>
<!DOCTYPE svg PUBLIC "-//W3C//DTD SVG 1.1//EN"
 "http://www.w3.org/Graphics/SVG/1.1/DTD/svg11.dtd">
<!-- Generated by graphviz version 2.36.0 (20140111.2315)
 -->
<!-- Title: configuration.Parser.isListEnd Pages: 1 -->
<svg width="834pt" height="392pt"
 viewBox="0.00 0.00 834.00 391.71" xmlns="http://www.w3.org/2000/svg" xmlns:xlink="http://www.w3.org/1999/xlink">
<g id="graph0" class="graph" transform="scale(1 1) rotate(0) translate(4 387.711)">
<title>configuration.Parser.isListEnd</title>
<polygon fill="white" stroke="none" points="-4,4 -4,-387.711 830,-387.711 830,4 -4,4"/>
<!-- Node1 -->
<g id="node1" class="node"><title>Node1</title>
<polygon fill="#bfbfbf" stroke="black" points="0,-192.051 0,-211.051 156,-211.051 156,-192.051 0,-192.051"/>
<text text-anchor="middle" x="78" y="-199.051" font-family="Helvetica,sans-Serif" font-size="10.00">configuration.Parser.isListEnd</text>
</g>
<!-- Node2 -->
<g id="node2" class="node"><title>Node2</title>
<g id="a_node2"><a xlink:href="../../d7/d56/classconfiguration_1_1_ifelse_parser.html#a4b806589536dd338338d515a0fdb67ed" target="_top" xlink:title="configuration.IfelseParser.parse">
<polygon fill="white" stroke="black" points="434,-170.051 434,-189.051 600,-189.051 600,-170.051 434,-170.051"/>
<text text-anchor="middle" x="517" y="-177.051" font-family="Helvetica,sans-Serif" font-size="10.00">configuration.IfelseParser.parse</text>
</a>
</g>
</g>
<!-- Node1&#45;&gt;Node2 -->
<g id="edge1" class="edge"><title>Node1&#45;&gt;Node2</title>
<path fill="none" stroke="midnightblue" d="M166.391,-197.152C244.274,-193.231 357.42,-187.535 433.711,-183.694"/>
<polygon fill="midnightblue" stroke="midnightblue" points="165.932,-193.67 156.121,-197.669 166.284,-200.661 165.932,-193.67"/>
</g>
<!-- Node3 -->
<g id="node3" class="node"><title>Node3</title>
<g id="a_node3"><a xlink:href="../../dc/d64/classconfiguration_1_1_for_parser.html#a2737b422e279cfca7c64fd8eff57d3ff" target="_top" xlink:title="configuration.ForParser.parse">
<polygon fill="white" stroke="black" points="657,-265.051 657,-284.051 813,-284.051 813,-265.051 657,-265.051"/>
<text text-anchor="middle" x="735" y="-272.051" font-family="Helvetica,sans-Serif" font-size="10.00">configuration.ForParser.parse</text>
</a>
</g>
</g>
<!-- Node1&#45;&gt;Node3 -->
<g id="edge2" class="edge"><title>Node1&#45;&gt;Node3</title>
<path fill="none" stroke="midnightblue" d="M100.589,-216.938C122.463,-231.598 157.854,-252.829 192,-262.551 355.846,-309.201 558.946,-295.884 663.886,-284.077"/>
<polygon fill="midnightblue" stroke="midnightblue" points="102.312,-213.876 92.085,-211.11 98.3554,-219.65 102.312,-213.876"/>
</g>
<!-- Node4 -->
<g id="node4" class="node"><title>Node4</title>
<g id="a_node4"><a xlink:href="../../d9/dfc/classconfiguration_1_1_dotimes_parser.html#a6086c4c4651b29dd968bf4728bd71d0c" target="_top" xlink:title="configuration.DotimesParser.parse\lCommands">
<polygon fill="white" stroke="black" points="426,-30.5512 426,-60.5512 608,-60.5512 608,-30.5512 426,-30.5512"/>
<text text-anchor="start" x="434" y="-48.5512" font-family="Helvetica,sans-Serif" font-size="10.00">configuration.DotimesParser.parse</text>
<text text-anchor="middle" x="517" y="-37.5512" font-family="Helvetica,sans-Serif" font-size="10.00">Commands</text>
</a>
</g>
</g>
<!-- Node1&#45;&gt;Node4 -->
<g id="edge3" class="edge"><title>Node1&#45;&gt;Node4</title>
<path fill="none" stroke="midnightblue" d="M84.6838,-182.091C96.998,-143.969 130.14,-60.243 192,-26.5512 283.544,23.3076 411.982,-8.81759 476.183,-30.4721"/>
<polygon fill="midnightblue" stroke="midnightblue" points="81.2442,-181.367 81.6384,-191.955 87.9327,-183.432 81.2442,-181.367"/>
</g>
<!-- Node6 -->
<g id="node6" class="node"><title>Node6</title>
<g id="a_node6"><a xlink:href="../../d3/d0d/classconfiguration_1_1_repeat_parser.html#aed07d335bcd1174cb4247a7add0d3315" target="_top" xlink:title="configuration.RepeatParser.parse\lCommands">
<polygon fill="white" stroke="black" points="430,-341.551 430,-371.551 604,-371.551 604,-341.551 430,-341.551"/>
<text text-anchor="start" x="438" y="-359.551" font-family="Helvetica,sans-Serif" font-size="10.00">configuration.RepeatParser.parse</text>
<text text-anchor="middle" x="517" y="-348.551" font-family="Helvetica,sans-Serif" font-size="10.00">Commands</text>
</a>
</g>
</g>
<!-- Node1&#45;&gt;Node6 -->
<g id="edge5" class="edge"><title>Node1&#45;&gt;Node6</title>
<path fill="none" stroke="midnightblue" d="M86.2786,-220.351C100.588,-254.323 135.952,-325.053 192,-353.551 274.861,-395.682 385.752,-384.672 453.959,-371.571"/>
<polygon fill="midnightblue" stroke="midnightblue" points="89.5179,-219.025 82.5143,-211.075 83.0317,-221.657 89.5179,-219.025"/>
</g>
<!-- Node8 -->
<g id="node8" class="node"><title>Node8</title>
<g id="a_node8"><a xlink:href="../../dc/d64/classconfiguration_1_1_for_parser.html#ad3cb5184cf449bd3414f3ba73a8b3104" target="_top" xlink:title="configuration.ForParser.parse\lCommands">
<polygon fill="white" stroke="black" points="439,-237.551 439,-267.551 595,-267.551 595,-237.551 439,-237.551"/>
<text text-anchor="start" x="447" y="-255.551" font-family="Helvetica,sans-Serif" font-size="10.00">configuration.ForParser.parse</text>
<text text-anchor="middle" x="517" y="-244.551" font-family="Helvetica,sans-Serif" font-size="10.00">Commands</text>
</a>
</g>
</g>
<!-- Node1&#45;&gt;Node8 -->
<g id="edge7" class="edge"><title>Node1&#45;&gt;Node8</title>
<path fill="none" stroke="midnightblue" d="M110.745,-214.934C133.045,-223.659 163.808,-234.355 192,-239.551 275.321,-254.907 372.654,-256.701 438.727,-255.571"/>
<polygon fill="midnightblue" stroke="midnightblue" points="112.021,-211.675 101.436,-211.215 109.424,-218.176 112.021,-211.675"/>
</g>
<!-- Node9 -->
<g id="node9" class="node"><title>Node9</title>
<g id="a_node9"><a xlink:href="../../d9/dfc/classconfiguration_1_1_dotimes_parser.html#a63d34c400b9b5715b4a2f9a5d0107e62" target="_top" xlink:title="configuration.DotimesParser.parse\lDotimesIterator">
<polygon fill="white" stroke="black" points="200,-74.5512 200,-104.551 382,-104.551 382,-74.5512 200,-74.5512"/>
<text text-anchor="start" x="208" y="-92.5512" font-family="Helvetica,sans-Serif" font-size="10.00">configuration.DotimesParser.parse</text>
<text text-anchor="middle" x="291" y="-81.5512" font-family="Helvetica,sans-Serif" font-size="10.00">DotimesIterator</text>
</a>
</g>
</g>
<!-- Node1&#45;&gt;Node9 -->
<g id="edge9" class="edge"><title>Node1&#45;&gt;Node9</title>
<path fill="none" stroke="midnightblue" d="M95.6683,-184.801C116.439,-164.882 153.868,-132.014 192,-113.551 199.095,-110.116 206.723,-107.147 214.479,-104.586"/>
<polygon fill="midnightblue" stroke="midnightblue" points="93.0218,-182.494 88.3146,-191.986 97.9135,-187.501 93.0218,-182.494"/>
</g>
<!-- Node10 -->
<g id="node10" class="node"><title>Node10</title>
<g id="a_node10"><a xlink:href="../../d3/d0d/classconfiguration_1_1_repeat_parser.html#a27c7e86622dda996677d34987f702cb6" target="_top" xlink:title="configuration.RepeatParser.parseFor">
<polygon fill="white" stroke="black" points="196.5,-325.051 196.5,-344.051 385.5,-344.051 385.5,-325.051 196.5,-325.051"/>
<text text-anchor="middle" x="291" y="-332.051" font-family="Helvetica,sans-Serif" font-size="10.00">configuration.RepeatParser.parseFor</text>
</a>
</g>
</g>
<!-- Node1&#45;&gt;Node10 -->
<g id="edge11" class="edge"><title>Node1&#45;&gt;Node10</title>
<path fill="none" stroke="midnightblue" d="M92.2041,-219.168C111.423,-243.52 149.479,-287.113 192,-310.551 203.505,-316.893 216.681,-321.579 229.56,-325.035"/>
<polygon fill="midnightblue" stroke="midnightblue" points="94.8854,-216.913 86.0024,-211.139 89.3456,-221.192 94.8854,-216.913"/>
</g>
<!-- Node11 -->
<g id="node11" class="node"><title>Node11</title>
<g id="a_node11"><a xlink:href="../../dc/d64/classconfiguration_1_1_for_parser.html#a6bc38f731ac658c5860fe092ba7689ac" target="_top" xlink:title="configuration.ForParser.parseFor">
<polygon fill="white" stroke="black" points="205.5,-211.051 205.5,-230.051 376.5,-230.051 376.5,-211.051 205.5,-211.051"/>
<text text-anchor="middle" x="291" y="-218.051" font-family="Helvetica,sans-Serif" font-size="10.00">configuration.ForParser.parseFor</text>
</a>
</g>
</g>
<!-- Node1&#45;&gt;Node11 -->
<g id="edge13" class="edge"><title>Node1&#45;&gt;Node11</title>
<path fill="none" stroke="midnightblue" d="M166.314,-209.414C179.204,-210.574 192.468,-211.769 205.304,-212.925"/>
<polygon fill="midnightblue" stroke="midnightblue" points="166.345,-205.902 156.071,-208.491 165.717,-212.874 166.345,-205.902"/>
</g>
<!-- Node12 -->
<g id="node12" class="node"><title>Node12</title>
<g id="a_node12"><a xlink:href="../../d9/dfc/classconfiguration_1_1_dotimes_parser.html#aff41ee5ce2eeff82f7586bd1cf6a91c8" target="_top" xlink:title="configuration.DotimesParser.parseFor">
<polygon fill="white" stroke="black" points="192.5,-36.0512 192.5,-55.0512 389.5,-55.0512 389.5,-36.0512 192.5,-36.0512"/>
<text text-anchor="middle" x="291" y="-43.0512" font-family="Helvetica,sans-Serif" font-size="10.00">configuration.DotimesParser.parseFor</text>
</a>
</g>
</g>
<!-- Node1&#45;&gt;Node12 -->
<g id="edge15" class="edge"><title>Node1&#45;&gt;Node12</title>
<path fill="none" stroke="midnightblue" d="M88.6751,-182.984C105.399,-152.882 142.711,-93.8494 192,-64.5512 198.48,-60.6992 205.588,-57.6076 212.923,-55.1293"/>
<polygon fill="midnightblue" stroke="midnightblue" points="85.4788,-181.537 83.8052,-191.999 91.6376,-184.865 85.4788,-181.537"/>
</g>
<!-- Node13 -->
<g id="node13" class="node"><title>Node13</title>
<g id="a_node13"><a xlink:href="../../d7/d56/classconfiguration_1_1_ifelse_parser.html#aeb471eacbe15e095075bdd09619fe15d" target="_top" xlink:title="configuration.IfelseParser.parse\lListCommands">
<polygon fill="white" stroke="black" points="208,-123.551 208,-153.551 374,-153.551 374,-123.551 208,-123.551"/>
<text text-anchor="start" x="216" y="-141.551" font-family="Helvetica,sans-Serif" font-size="10.00">configuration.IfelseParser.parse</text>
<text text-anchor="middle" x="291" y="-130.551" font-family="Helvetica,sans-Serif" font-size="10.00">ListCommands</text>
</a>
</g>
</g>
<!-- Node1&#45;&gt;Node13 -->
<g id="edge17" class="edge"><title>Node1&#45;&gt;Node13</title>
<path fill="none" stroke="midnightblue" d="M120.712,-189.097C154.843,-178.906 203.235,-164.457 239.544,-153.616"/>
<polygon fill="midnightblue" stroke="midnightblue" points="119.627,-185.768 111.046,-191.983 121.63,-192.476 119.627,-185.768"/>
</g>
<!-- Node5 -->
<g id="node5" class="node"><title>Node5</title>
<g id="a_node5"><a xlink:href="../../d9/dfc/classconfiguration_1_1_dotimes_parser.html#abf0eb9bddfa4a09adc745008e17b293b" target="_top" xlink:title="configuration.DotimesParser.parse">
<polygon fill="white" stroke="black" points="644,-58.0512 644,-77.0512 826,-77.0512 826,-58.0512 644,-58.0512"/>
<text text-anchor="middle" x="735" y="-65.0512" font-family="Helvetica,sans-Serif" font-size="10.00">configuration.DotimesParser.parse</text>
</a>
</g>
</g>
<!-- Node4&#45;&gt;Node5 -->
<g id="edge4" class="edge"><title>Node4&#45;&gt;Node5</title>
<path fill="none" stroke="midnightblue" d="M618.059,-55.7424C626.631,-56.6155 635.27,-57.4954 643.759,-58.36"/>
<polygon fill="midnightblue" stroke="midnightblue" points="618.343,-52.2533 608.039,-54.7219 617.633,-59.2173 618.343,-52.2533"/>
</g>
<!-- Node7 -->
<g id="node7" class="node"><title>Node7</title>
<g id="a_node7"><a xlink:href="../../d3/d0d/classconfiguration_1_1_repeat_parser.html#abf20b0ae25909c1cdff93f509830b502" target="_top" xlink:title="configuration.RepeatParser.parse">
<polygon fill="white" stroke="black" points="648,-347.051 648,-366.051 822,-366.051 822,-347.051 648,-347.051"/>
<text text-anchor="middle" x="735" y="-354.051" font-family="Helvetica,sans-Serif" font-size="10.00">configuration.RepeatParser.parse</text>
</a>
</g>
</g>
<!-- Node6&#45;&gt;Node7 -->
<g id="edge6" class="edge"><title>Node6&#45;&gt;Node7</title>
<path fill="none" stroke="midnightblue" d="M614.454,-356.551C625.576,-356.551 636.864,-356.551 647.837,-356.551"/>
<polygon fill="midnightblue" stroke="midnightblue" points="614.3,-353.051 604.3,-356.551 614.3,-360.051 614.3,-353.051"/>
</g>
<!-- Node8&#45;&gt;Node3 -->
<g id="edge8" class="edge"><title>Node8&#45;&gt;Node3</title>
<path fill="none" stroke="midnightblue" d="M605.077,-261.42C622.248,-263.169 640.153,-264.993 656.964,-266.705"/>
<polygon fill="midnightblue" stroke="midnightblue" points="605.369,-257.932 595.066,-260.401 604.66,-264.896 605.369,-257.932"/>
</g>
<!-- Node9&#45;&gt;Node5 -->
<g id="edge10" class="edge"><title>Node9&#45;&gt;Node5</title>
<path fill="none" stroke="midnightblue" d="M392.265,-84.5606C467.922,-80.7949 570.816,-75.6735 643.878,-72.0369"/>
<polygon fill="midnightblue" stroke="midnightblue" points="392.058,-81.0665 382.245,-85.0594 392.406,-88.0579 392.058,-81.0665"/>
</g>
<!-- Node10&#45;&gt;Node6 -->
<g id="edge12" class="edge"><title>Node10&#45;&gt;Node6</title>
<path fill="none" stroke="midnightblue" d="M395.693,-344.735C407.115,-345.857 418.652,-346.99 429.826,-348.088"/>
<polygon fill="midnightblue" stroke="midnightblue" points="395.993,-341.248 385.698,-343.754 395.308,-348.215 395.993,-341.248"/>
</g>
<!-- Node11&#45;&gt;Node8 -->
<g id="edge14" class="edge"><title>Node11&#45;&gt;Node8</title>
<path fill="none" stroke="midnightblue" d="M368.8,-231.523C391.356,-234.745 416.032,-238.27 438.624,-241.498"/>
<polygon fill="midnightblue" stroke="midnightblue" points="368.995,-228.015 358.601,-230.066 368.005,-234.945 368.995,-228.015"/>
</g>
<!-- Node12&#45;&gt;Node4 -->
<g id="edge16" class="edge"><title>Node12&#45;&gt;Node4</title>
<path fill="none" stroke="midnightblue" d="M399.785,-45.5512C408.488,-45.5512 417.224,-45.5512 425.783,-45.5512"/>
<polygon fill="midnightblue" stroke="midnightblue" points="399.598,-42.0513 389.598,-45.5512 399.598,-49.0513 399.598,-42.0513"/>
</g>
<!-- Node13&#45;&gt;Node2 -->
<g id="edge18" class="edge"><title>Node13&#45;&gt;Node2</title>
<path fill="none" stroke="midnightblue" d="M384.068,-155.403C411.256,-160.379 440.063,-165.652 463.8,-169.997"/>
<polygon fill="midnightblue" stroke="midnightblue" points="384.604,-151.943 374.137,-153.585 383.344,-158.829 384.604,-151.943"/>
</g>
<!-- Node14 -->
<g id="node14" class="node"><title>Node14</title>
<g id="a_node14"><a xlink:href="../../dc/dd1/classconfiguration_1_1_if_parser.html#ab4ed2d3b7778d2b1206e5d26ebac7976" target="_top" xlink:title="configuration.IfParser.parse">
<polygon fill="white" stroke="black" points="444,-129.051 444,-148.051 590,-148.051 590,-129.051 444,-129.051"/>
<text text-anchor="middle" x="517" y="-136.051" font-family="Helvetica,sans-Serif" font-size="10.00">configuration.IfParser.parse</text>
</a>
</g>
</g>
<!-- Node13&#45;&gt;Node14 -->
<g id="edge19" class="edge"><title>Node13&#45;&gt;Node14</title>
<path fill="none" stroke="midnightblue" d="M384.144,-138.551C404.059,-138.551 424.839,-138.551 443.856,-138.551"/>
<polygon fill="midnightblue" stroke="midnightblue" points="384.137,-135.051 374.137,-138.551 384.137,-142.051 384.137,-135.051"/>
</g>
</g>
</svg>
