<?xml version="1.0" encoding="UTF-8" standalone="no"?>
<!DOCTYPE svg PUBLIC "-//W3C//DTD SVG 1.1//EN"
 "http://www.w3.org/Graphics/SVG/1.1/DTD/svg11.dtd">
<!-- Generated by graphviz version 2.36.0 (20140111.2315)
 -->
<!-- Title: configuration.Parser.buildTree Pages: 1 -->
<!--zoomable 443 -->
<svg id="main" version="1.1" xmlns="http://www.w3.org/2000/svg" xmlns:xlink="http://www.w3.org/1999/xlink" xml:space="preserve" onload="init(evt)">
<style type="text/css"><![CDATA[
.edge:hover path { stroke: red; }
.edge:hover polygon { stroke: red; fill: red; }
]]></style>
<script type="text/javascript"><![CDATA[
var edges = document.getElementsByTagName('g');
if (edges && edges.length) {
  for (var i=0;i<edges.length;i++) {
    if (edges[i].id.substr(0,4)=='edge') {
      edges[i].setAttribute('class','edge');
    }
  }
}
]]></script>
        <defs>
                <circle id="rim" cx="0" cy="0" r="7"/>
                <circle id="rim2" cx="0" cy="0" r="3.5"/>
                <g id="zoomPlus">
                        <use xlink:href="#rim" fill="#404040">
                                <set attributeName="fill" to="#808080" begin="zoomplus.mouseover" end="zoomplus.mouseout"/>
                        </use>
                        <path d="M-4,0h8M0,-4v8" fill="none" stroke="white" stroke-width="1.5" pointer-events="none"/>
                </g>
                <g id="zoomMin">
                        <use xlink:href="#rim" fill="#404040">
                                <set attributeName="fill" to="#808080" begin="zoomminus.mouseover" end="zoomminus.mouseout"/>
                        </use>
                        <path d="M-4,0h8" fill="none" stroke="white" stroke-width="1.5" pointer-events="none"/>
                </g>
                <g id="dirArrow">
                        <path fill="none" stroke="white" stroke-width="1.5" d="M0,-3.0v7 M-2.5,-0.5L0,-3.0L2.5,-0.5"/>
                </g>
               <g id="resetDef">
                       <use xlink:href="#rim2" fill="#404040">
                               <set attributeName="fill" to="#808080" begin="reset.mouseover" end="reset.mouseout"/>
                       </use>
               </g>
        </defs>

<script type="text/javascript">
var viewWidth = 834;
var viewHeight = 443;
var sectionId = 'dynsection-4';
</script>
<script xlink:href="../../svgpan.js"/>
<svg id="graph" class="graph">
<g id="viewport">
<title>configuration.Parser.buildTree</title>
<polygon fill="white" stroke="none" points="-4,4 -4,-439 830,-439 830,4 -4,4"/>
<!-- Node1 -->
<g id="node1" class="node"><title>Node1</title>
<polygon fill="#bfbfbf" stroke="black" points="0,-202.5 0,-221.5 156,-221.5 156,-202.5 0,-202.5"/>
<text text-anchor="middle" x="78" y="-209.5" font-family="Helvetica,sans-Serif" font-size="10.00">configuration.Parser.buildTree</text>
</g>
<!-- Node2 -->
<g id="node2" class="node"><title>Node2</title>
<g id="a_node2"><a xlink:href="../../d9/d11/classconfiguration_1_1_parser.html#a041ccb70bd9dee77d512d8469c15c14f" target="_top" xlink:title="configuration.Parser.buildTree">
<polygon fill="white" stroke="black" points="213,-415.5 213,-434.5 369,-434.5 369,-415.5 213,-415.5"/>
<text text-anchor="middle" x="291" y="-422.5" font-family="Helvetica,sans-Serif" font-size="10.00">configuration.Parser.buildTree</text>
</a>
</g>
</g>
<!-- Node1&#45;&gt;Node2 -->
<g id="edge1" class="edge"><title>Node1&#45;&gt;Node2</title>
<path fill="none" stroke="midnightblue" d="M84.4164,-231.221C96.5753,-270.626 129.951,-360.588 192,-405 198.354,-409.548 205.503,-413.115 212.97,-415.905"/>
<polygon fill="midnightblue" stroke="midnightblue" points="87.7408,-230.12 81.5433,-221.527 81.0293,-232.109 87.7408,-230.12"/>
</g>
<!-- Node3 -->
<g id="node3" class="node"><title>Node3</title>
<g id="a_node3"><a xlink:href="../../d7/d56/classconfiguration_1_1_ifelse_parser.html#aef13959a758ccbf8dab0a3f5f94a7be0" target="_top" xlink:title="configuration.IfelseParser.evaluate\lBoolExpr">
<polygon fill="white" stroke="black" points="201,-317 201,-347 381,-347 381,-317 201,-317"/>
<text text-anchor="start" x="209" y="-335" font-family="Helvetica,sans-Serif" font-size="10.00">configuration.IfelseParser.evaluate</text>
<text text-anchor="middle" x="291" y="-324" font-family="Helvetica,sans-Serif" font-size="10.00">BoolExpr</text>
</a>
</g>
</g>
<!-- Node1&#45;&gt;Node3 -->
<g id="edge2" class="edge"><title>Node1&#45;&gt;Node3</title>
<path fill="none" stroke="midnightblue" d="M95.777,-228.784C116.656,-248.812 154.192,-282.085 192,-302 203.256,-307.929 215.869,-312.887 228.203,-316.952"/>
<polygon fill="midnightblue" stroke="midnightblue" points="97.9839,-226.047 88.3813,-221.57 93.0963,-231.058 97.9839,-226.047"/>
</g>
<!-- Node6 -->
<g id="node6" class="node"><title>Node6</title>
<g id="a_node6"><a xlink:href="../../d3/d0d/classconfiguration_1_1_repeat_parser.html#ab218ee8c24e4dab18c02cd4a536d15d3" target="_top" xlink:title="configuration.RepeatParser.fetch\lNumericExpr">
<polygon fill="white" stroke="black" points="431.5,-289 431.5,-319 602.5,-319 602.5,-289 431.5,-289"/>
<text text-anchor="start" x="439.5" y="-307" font-family="Helvetica,sans-Serif" font-size="10.00">configuration.RepeatParser.fetch</text>
<text text-anchor="middle" x="517" y="-296" font-family="Helvetica,sans-Serif" font-size="10.00">NumericExpr</text>
</a>
</g>
</g>
<!-- Node1&#45;&gt;Node6 -->
<g id="edge5" class="edge"><title>Node1&#45;&gt;Node6</title>
<path fill="none" stroke="midnightblue" d="M102.316,-226.914C124.469,-240.304 159.181,-259.3 192,-269 271.079,-292.374 365.136,-300.478 431.482,-303.122"/>
<polygon fill="midnightblue" stroke="midnightblue" points="103.982,-223.83 93.6325,-221.563 100.309,-229.789 103.982,-223.83"/>
</g>
<!-- Node8 -->
<g id="node8" class="node"><title>Node8</title>
<g id="a_node8"><a xlink:href="../../dc/d64/classconfiguration_1_1_for_parser.html#a95aeb8afdb254389dcef062be1cf2727" target="_top" xlink:title="configuration.ForParser.fetch\lNumericExpr">
<polygon fill="white" stroke="black" points="440.5,-191 440.5,-221 593.5,-221 593.5,-191 440.5,-191"/>
<text text-anchor="start" x="448.5" y="-209" font-family="Helvetica,sans-Serif" font-size="10.00">configuration.ForParser.fetch</text>
<text text-anchor="middle" x="517" y="-198" font-family="Helvetica,sans-Serif" font-size="10.00">NumericExpr</text>
</a>
</g>
</g>
<!-- Node1&#45;&gt;Node8 -->
<g id="edge7" class="edge"><title>Node1&#45;&gt;Node8</title>
<path fill="none" stroke="midnightblue" d="M166.198,-210.803C246.388,-209.702 364.082,-208.086 440.381,-207.038"/>
<polygon fill="midnightblue" stroke="midnightblue" points="166.072,-207.304 156.121,-210.941 166.168,-214.303 166.072,-207.304"/>
</g>
<!-- Node10 -->
<g id="node10" class="node"><title>Node10</title>
<g id="a_node10"><a xlink:href="../../d9/dfc/classconfiguration_1_1_dotimes_parser.html#a26cc7f8e0a21d93091bfe8884a924450" target="_top" xlink:title="configuration.DotimesParser.fetch\lNumericExpr">
<polygon fill="white" stroke="black" points="201.5,-115 201.5,-145 380.5,-145 380.5,-115 201.5,-115"/>
<text text-anchor="start" x="209.5" y="-133" font-family="Helvetica,sans-Serif" font-size="10.00">configuration.DotimesParser.fetch</text>
<text text-anchor="middle" x="291" y="-122" font-family="Helvetica,sans-Serif" font-size="10.00">NumericExpr</text>
</a>
</g>
</g>
<!-- Node1&#45;&gt;Node10 -->
<g id="edge9" class="edge"><title>Node1&#45;&gt;Node10</title>
<path fill="none" stroke="midnightblue" d="M104.2,-197.286C126.64,-184.674 160.673,-166.737 192,-155 201.866,-151.304 212.49,-147.967 222.976,-145.024"/>
<polygon fill="midnightblue" stroke="midnightblue" points="102.295,-194.343 95.3343,-202.331 105.757,-200.427 102.295,-194.343"/>
</g>
<!-- Node13 -->
<g id="node13" class="node"><title>Node13</title>
<g id="a_node13"><a xlink:href="../../db/d22/classconfiguration_1_1_set_parser.html#a4f20258805caaf18872872d5283a0e74" target="_top" xlink:title="configuration.SetParser.parse">
<polygon fill="white" stroke="black" points="212,-38.5 212,-57.5 370,-57.5 370,-38.5 212,-38.5"/>
<text text-anchor="middle" x="291" y="-45.5" font-family="Helvetica,sans-Serif" font-size="10.00">configuration.SetParser.parse</text>
</a>
</g>
</g>
<!-- Node1&#45;&gt;Node13 -->
<g id="edge12" class="edge"><title>Node1&#45;&gt;Node13</title>
<path fill="none" stroke="midnightblue" d="M87.9369,-193.225C104.009,-161.653 140.938,-98.3171 192,-67 198.279,-63.1492 205.174,-60.0533 212.307,-57.5678"/>
<polygon fill="midnightblue" stroke="midnightblue" points="84.7552,-191.764 83.4599,-202.279 91.0299,-194.867 84.7552,-191.764"/>
</g>
<!-- Node14 -->
<g id="node14" class="node"><title>Node14</title>
<g id="a_node14"><a xlink:href="../../d0/da7/classconfiguration_1_1_basic_parser.html#a22bf37b374167e497f639182e7459517" target="_top" xlink:title="configuration.BasicParser.parse">
<polygon fill="white" stroke="black" points="207.5,-0.5 207.5,-19.5 374.5,-19.5 374.5,-0.5 207.5,-0.5"/>
<text text-anchor="middle" x="291" y="-7.5" font-family="Helvetica,sans-Serif" font-size="10.00">configuration.BasicParser.parse</text>
</a>
</g>
</g>
<!-- Node1&#45;&gt;Node14 -->
<g id="edge13" class="edge"><title>Node1&#45;&gt;Node14</title>
<path fill="none" stroke="midnightblue" d="M85.2138,-192.162C98.2861,-153.919 132.443,-70.1453 192,-29 197.561,-25.1582 203.702,-22.046 210.117,-19.5302"/>
<polygon fill="midnightblue" stroke="midnightblue" points="81.7542,-191.479 81.9548,-202.072 88.4038,-193.666 81.7542,-191.479"/>
</g>
<!-- Node15 -->
<g id="node15" class="node"><title>Node15</title>
<g id="a_node15"><a xlink:href="../../d3/d0d/classconfiguration_1_1_repeat_parser.html#a27c7e86622dda996677d34987f702cb6" target="_top" xlink:title="configuration.RepeatParser.parseFor">
<polygon fill="white" stroke="black" points="196.5,-240.5 196.5,-259.5 385.5,-259.5 385.5,-240.5 196.5,-240.5"/>
<text text-anchor="middle" x="291" y="-247.5" font-family="Helvetica,sans-Serif" font-size="10.00">configuration.RepeatParser.parseFor</text>
</a>
</g>
</g>
<!-- Node1&#45;&gt;Node15 -->
<g id="edge14" class="edge"><title>Node1&#45;&gt;Node15</title>
<path fill="none" stroke="midnightblue" d="M142.005,-223.347C172.279,-228.799 208.158,-235.261 237.006,-240.456"/>
<polygon fill="midnightblue" stroke="midnightblue" points="142.434,-219.868 131.972,-221.54 141.193,-226.757 142.434,-219.868"/>
</g>
<!-- Node17 -->
<g id="node17" class="node"><title>Node17</title>
<g id="a_node17"><a xlink:href="../../dc/d64/classconfiguration_1_1_for_parser.html#a6bc38f731ac658c5860fe092ba7689ac" target="_top" xlink:title="configuration.ForParser.parseFor">
<polygon fill="white" stroke="black" points="205.5,-164.5 205.5,-183.5 376.5,-183.5 376.5,-164.5 205.5,-164.5"/>
<text text-anchor="middle" x="291" y="-171.5" font-family="Helvetica,sans-Serif" font-size="10.00">configuration.ForParser.parseFor</text>
</a>
</g>
</g>
<!-- Node1&#45;&gt;Node17 -->
<g id="edge17" class="edge"><title>Node1&#45;&gt;Node17</title>
<path fill="none" stroke="midnightblue" d="M142.005,-200.653C172.279,-195.201 208.158,-188.739 237.006,-183.544"/>
<polygon fill="midnightblue" stroke="midnightblue" points="141.193,-197.243 131.972,-202.46 142.434,-204.132 141.193,-197.243"/>
</g>
<!-- Node19 -->
<g id="node19" class="node"><title>Node19</title>
<g id="a_node19"><a xlink:href="../../d9/dfc/classconfiguration_1_1_dotimes_parser.html#aff41ee5ce2eeff82f7586bd1cf6a91c8" target="_top" xlink:title="configuration.DotimesParser.parseFor">
<polygon fill="white" stroke="black" points="192.5,-76.5 192.5,-95.5 389.5,-95.5 389.5,-76.5 192.5,-76.5"/>
<text text-anchor="middle" x="291" y="-83.5" font-family="Helvetica,sans-Serif" font-size="10.00">configuration.DotimesParser.parseFor</text>
</a>
</g>
</g>
<!-- Node1&#45;&gt;Node19 -->
<g id="edge20" class="edge"><title>Node1&#45;&gt;Node19</title>
<path fill="none" stroke="midnightblue" d="M92.4836,-194.292C111.782,-170.285 149.656,-127.904 192,-106 200.483,-101.612 209.844,-98.1863 219.315,-95.5119"/>
<polygon fill="midnightblue" stroke="midnightblue" points="89.6695,-192.208 86.2405,-202.233 95.1725,-196.535 89.6695,-192.208"/>
</g>
<!-- Node21 -->
<g id="node21" class="node"><title>Node21</title>
<g id="a_node21"><a xlink:href="../../d7/d56/classconfiguration_1_1_ifelse_parser.html#aeb471eacbe15e095075bdd09619fe15d" target="_top" xlink:title="configuration.IfelseParser.parse\lListCommands">
<polygon fill="white" stroke="black" points="208,-366 208,-396 374,-396 374,-366 208,-366"/>
<text text-anchor="start" x="216" y="-384" font-family="Helvetica,sans-Serif" font-size="10.00">configuration.IfelseParser.parse</text>
<text text-anchor="middle" x="291" y="-373" font-family="Helvetica,sans-Serif" font-size="10.00">ListCommands</text>
</a>
</g>
</g>
<!-- Node1&#45;&gt;Node21 -->
<g id="edge23" class="edge"><title>Node1&#45;&gt;Node21</title>
<path fill="none" stroke="midnightblue" d="M88.4089,-230.78C104.953,-261.815 142.272,-323.59 192,-356 197.958,-359.883 204.483,-363.163 211.247,-365.934"/>
<polygon fill="midnightblue" stroke="midnightblue" points="91.492,-229.122 83.7779,-221.86 85.2794,-232.348 91.492,-229.122"/>
</g>
<!-- Node4 -->
<g id="node4" class="node"><title>Node4</title>
<g id="a_node4"><a xlink:href="../../d7/d56/classconfiguration_1_1_ifelse_parser.html#a4b806589536dd338338d515a0fdb67ed" target="_top" xlink:title="configuration.IfelseParser.parse">
<polygon fill="white" stroke="black" points="434,-376.5 434,-395.5 600,-395.5 600,-376.5 434,-376.5"/>
<text text-anchor="middle" x="517" y="-383.5" font-family="Helvetica,sans-Serif" font-size="10.00">configuration.IfelseParser.parse</text>
</a>
</g>
</g>
<!-- Node3&#45;&gt;Node4 -->
<g id="edge3" class="edge"><title>Node3&#45;&gt;Node4</title>
<path fill="none" stroke="midnightblue" d="M361.549,-349.548C371.116,-352.019 380.807,-354.551 390,-357 406.046,-361.275 409.868,-363.061 426,-367 439.652,-370.334 454.553,-373.621 468.231,-376.499"/>
<polygon fill="midnightblue" stroke="midnightblue" points="362.207,-346.104 351.651,-347.002 360.464,-352.883 362.207,-346.104"/>
</g>
<!-- Node5 -->
<g id="node5" class="node"><title>Node5</title>
<g id="a_node5"><a xlink:href="../../dc/dd1/classconfiguration_1_1_if_parser.html#ab4ed2d3b7778d2b1206e5d26ebac7976" target="_top" xlink:title="configuration.IfParser.parse">
<polygon fill="white" stroke="black" points="444,-338.5 444,-357.5 590,-357.5 590,-338.5 444,-338.5"/>
<text text-anchor="middle" x="517" y="-345.5" font-family="Helvetica,sans-Serif" font-size="10.00">configuration.IfParser.parse</text>
</a>
</g>
</g>
<!-- Node3&#45;&gt;Node5 -->
<g id="edge4" class="edge"><title>Node3&#45;&gt;Node5</title>
<path fill="none" stroke="midnightblue" d="M391.457,-339.104C409.027,-340.359 427.013,-341.644 443.658,-342.833"/>
<polygon fill="midnightblue" stroke="midnightblue" points="391.398,-335.591 381.174,-338.37 390.9,-342.573 391.398,-335.591"/>
</g>
<!-- Node7 -->
<g id="node7" class="node"><title>Node7</title>
<g id="a_node7"><a xlink:href="../../d3/d0d/classconfiguration_1_1_repeat_parser.html#abf20b0ae25909c1cdff93f509830b502" target="_top" xlink:title="configuration.RepeatParser.parse">
<polygon fill="white" stroke="black" points="648,-269.5 648,-288.5 822,-288.5 822,-269.5 648,-269.5"/>
<text text-anchor="middle" x="735" y="-276.5" font-family="Helvetica,sans-Serif" font-size="10.00">configuration.RepeatParser.parse</text>
</a>
</g>
</g>
<!-- Node6&#45;&gt;Node7 -->
<g id="edge6" class="edge"><title>Node6&#45;&gt;Node7</title>
<path fill="none" stroke="midnightblue" d="M613.003,-293.004C625.873,-291.515 638.993,-289.996 651.617,-288.535"/>
<polygon fill="midnightblue" stroke="midnightblue" points="612.28,-289.564 602.749,-294.191 613.085,-296.518 612.28,-289.564"/>
</g>
<!-- Node9 -->
<g id="node9" class="node"><title>Node9</title>
<g id="a_node9"><a xlink:href="../../dc/d64/classconfiguration_1_1_for_parser.html#a2737b422e279cfca7c64fd8eff57d3ff" target="_top" xlink:title="configuration.ForParser.parse">
<polygon fill="white" stroke="black" points="657,-171.5 657,-190.5 813,-190.5 813,-171.5 657,-171.5"/>
<text text-anchor="middle" x="735" y="-178.5" font-family="Helvetica,sans-Serif" font-size="10.00">configuration.ForParser.parse</text>
</a>
</g>
</g>
<!-- Node8&#45;&gt;Node9 -->
<g id="edge8" class="edge"><title>Node8&#45;&gt;Node9</title>
<path fill="none" stroke="midnightblue" d="M603.729,-196.078C621.208,-194.055 639.501,-191.937 656.667,-189.951"/>
<polygon fill="midnightblue" stroke="midnightblue" points="603.078,-192.63 593.546,-197.256 603.882,-199.583 603.078,-192.63"/>
</g>
<!-- Node11 -->
<g id="node11" class="node"><title>Node11</title>
<g id="a_node11"><a xlink:href="../../d9/dfc/classconfiguration_1_1_dotimes_parser.html#a63d34c400b9b5715b4a2f9a5d0107e62" target="_top" xlink:title="configuration.DotimesParser.parse\lDotimesIterator">
<polygon fill="white" stroke="black" points="426,-93 426,-123 608,-123 608,-93 426,-93"/>
<text text-anchor="start" x="434" y="-111" font-family="Helvetica,sans-Serif" font-size="10.00">configuration.DotimesParser.parse</text>
<text text-anchor="middle" x="517" y="-100" font-family="Helvetica,sans-Serif" font-size="10.00">DotimesIterator</text>
</a>
</g>
</g>
<!-- Node10&#45;&gt;Node11 -->
<g id="edge10" class="edge"><title>Node10&#45;&gt;Node11</title>
<path fill="none" stroke="midnightblue" d="M390.748,-120.302C402.446,-119.153 414.34,-117.984 425.909,-116.848"/>
<polygon fill="midnightblue" stroke="midnightblue" points="390.141,-116.844 380.531,-121.305 390.825,-123.811 390.141,-116.844"/>
</g>
<!-- Node12 -->
<g id="node12" class="node"><title>Node12</title>
<g id="a_node12"><a xlink:href="../../d9/dfc/classconfiguration_1_1_dotimes_parser.html#abf0eb9bddfa4a09adc745008e17b293b" target="_top" xlink:title="configuration.DotimesParser.parse">
<polygon fill="white" stroke="black" points="644,-74.5 644,-93.5 826,-93.5 826,-74.5 644,-74.5"/>
<text text-anchor="middle" x="735" y="-81.5" font-family="Helvetica,sans-Serif" font-size="10.00">configuration.DotimesParser.parse</text>
</a>
</g>
</g>
<!-- Node11&#45;&gt;Node12 -->
<g id="edge11" class="edge"><title>Node11&#45;&gt;Node12</title>
<path fill="none" stroke="midnightblue" d="M618.081,-96.8799C628.166,-95.7594 638.344,-94.6285 648.26,-93.5267"/>
<polygon fill="midnightblue" stroke="midnightblue" points="617.592,-93.4126 608.039,-97.9956 618.365,-100.37 617.592,-93.4126"/>
</g>
<!-- Node16 -->
<g id="node16" class="node"><title>Node16</title>
<g id="a_node16"><a xlink:href="../../d3/d0d/classconfiguration_1_1_repeat_parser.html#aed07d335bcd1174cb4247a7add0d3315" target="_top" xlink:title="configuration.RepeatParser.parse\lCommands">
<polygon fill="white" stroke="black" points="430,-240 430,-270 604,-270 604,-240 430,-240"/>
<text text-anchor="start" x="438" y="-258" font-family="Helvetica,sans-Serif" font-size="10.00">configuration.RepeatParser.parse</text>
<text text-anchor="middle" x="517" y="-247" font-family="Helvetica,sans-Serif" font-size="10.00">Commands</text>
</a>
</g>
</g>
<!-- Node15&#45;&gt;Node16 -->
<g id="edge15" class="edge"><title>Node15&#45;&gt;Node16</title>
<path fill="none" stroke="midnightblue" d="M396.039,-252.322C407.348,-252.575 418.765,-252.83 429.826,-253.076"/>
<polygon fill="midnightblue" stroke="midnightblue" points="395.774,-248.816 385.698,-252.091 395.618,-255.814 395.774,-248.816"/>
</g>
<!-- Node16&#45;&gt;Node7 -->
<g id="edge16" class="edge"><title>Node16&#45;&gt;Node7</title>
<path fill="none" stroke="midnightblue" d="M614.538,-265.726C625.752,-266.972 637.133,-268.237 648.189,-269.465"/>
<polygon fill="midnightblue" stroke="midnightblue" points="614.626,-262.215 604.3,-264.589 613.852,-269.172 614.626,-262.215"/>
</g>
<!-- Node18 -->
<g id="node18" class="node"><title>Node18</title>
<g id="a_node18"><a xlink:href="../../dc/d64/classconfiguration_1_1_for_parser.html#ad3cb5184cf449bd3414f3ba73a8b3104" target="_top" xlink:title="configuration.ForParser.parse\lCommands">
<polygon fill="white" stroke="black" points="439,-142 439,-172 595,-172 595,-142 439,-142"/>
<text text-anchor="start" x="447" y="-160" font-family="Helvetica,sans-Serif" font-size="10.00">configuration.ForParser.parse</text>
<text text-anchor="middle" x="517" y="-149" font-family="Helvetica,sans-Serif" font-size="10.00">Commands</text>
</a>
</g>
</g>
<!-- Node17&#45;&gt;Node18 -->
<g id="edge18" class="edge"><title>Node17&#45;&gt;Node18</title>
<path fill="none" stroke="midnightblue" d="M386.838,-166.803C404.214,-165.484 422.155,-164.122 438.934,-162.849"/>
<polygon fill="midnightblue" stroke="midnightblue" points="386.391,-163.326 376.685,-167.573 386.921,-170.306 386.391,-163.326"/>
</g>
<!-- Node18&#45;&gt;Node9 -->
<g id="edge19" class="edge"><title>Node18&#45;&gt;Node9</title>
<path fill="none" stroke="midnightblue" d="M605.077,-166.675C622.248,-168.583 640.153,-170.573 656.964,-172.44"/>
<polygon fill="midnightblue" stroke="midnightblue" points="605.392,-163.189 595.066,-165.563 604.618,-170.146 605.392,-163.189"/>
</g>
<!-- Node20 -->
<g id="node20" class="node"><title>Node20</title>
<g id="a_node20"><a xlink:href="../../d9/dfc/classconfiguration_1_1_dotimes_parser.html#a6086c4c4651b29dd968bf4728bd71d0c" target="_top" xlink:title="configuration.DotimesParser.parse\lCommands">
<polygon fill="white" stroke="black" points="426,-44 426,-74 608,-74 608,-44 426,-44"/>
<text text-anchor="start" x="434" y="-62" font-family="Helvetica,sans-Serif" font-size="10.00">configuration.DotimesParser.parse</text>
<text text-anchor="middle" x="517" y="-51" font-family="Helvetica,sans-Serif" font-size="10.00">Commands</text>
</a>
</g>
</g>
<!-- Node19&#45;&gt;Node20 -->
<g id="edge21" class="edge"><title>Node19&#45;&gt;Node20</title>
<path fill="none" stroke="midnightblue" d="M381.079,-75.2628C395.822,-73.4857 411.119,-71.6419 425.888,-69.8617"/>
<polygon fill="midnightblue" stroke="midnightblue" points="380.483,-71.8092 370.974,-76.4808 381.321,-78.7589 380.483,-71.8092"/>
</g>
<!-- Node20&#45;&gt;Node12 -->
<g id="edge22" class="edge"><title>Node20&#45;&gt;Node12</title>
<path fill="none" stroke="midnightblue" d="M618.272,-70.6056C629.464,-71.901 640.767,-73.2092 651.698,-74.4743"/>
<polygon fill="midnightblue" stroke="midnightblue" points="618.375,-67.0942 608.039,-69.4212 617.571,-74.0478 618.375,-67.0942"/>
</g>
<!-- Node21&#45;&gt;Node4 -->
<g id="edge24" class="edge"><title>Node21&#45;&gt;Node4</title>
<path fill="none" stroke="midnightblue" d="M384.283,-383.06C400.72,-383.427 417.742,-383.807 433.873,-384.167"/>
<polygon fill="midnightblue" stroke="midnightblue" points="384.213,-379.558 374.137,-382.833 384.057,-386.556 384.213,-379.558"/>
</g>
<!-- Node21&#45;&gt;Node5 -->
<g id="edge25" class="edge"><title>Node21&#45;&gt;Node5</title>
<path fill="none" stroke="midnightblue" d="M384.086,-367.434C406.69,-364.104 430.411,-360.609 451.407,-357.516"/>
<polygon fill="midnightblue" stroke="midnightblue" points="383.52,-363.979 374.137,-368.899 384.541,-370.904 383.52,-363.979"/>
</g>
</g>
</svg>
        <g id="navigator" transform="translate(0 0)" fill="#404254">
                <rect fill="#f2f5e9" fill-opacity="0.5" stroke="#606060" stroke-width=".5" x="0" y="0" width="60" height="60"/>
                <use id="zoomplus" xlink:href="#zoomPlus" x="17" y="9" onmousedown="handleZoom(evt,'in')"/>
                <use id="zoomminus" xlink:href="#zoomMin" x="42" y="9" onmousedown="handleZoom(evt,'out')"/>
                <use id="reset" xlink:href="#resetDef" x="30" y="36" onmousedown="handleReset()"/>
                <g id="arrowUp" xlink:href="#dirArrow" transform="translate(30 24)" onmousedown="handlePan(0,-1)">
                  <use xlink:href="#rim" fill="#404040">
                        <set attributeName="fill" to="#808080" begin="arrowUp.mouseover" end="arrowUp.mouseout"/>
                  </use>
                  <path fill="none" stroke="white" stroke-width="1.5" d="M0,-3.0v7 M-2.5,-0.5L0,-3.0L2.5,-0.5"/>
                </g>
                <g id="arrowRight" xlink:href="#dirArrow" transform="rotate(90) translate(36 -43)" onmousedown="handlePan(1,0)">
                  <use xlink:href="#rim" fill="#404040">
                        <set attributeName="fill" to="#808080" begin="arrowRight.mouseover" end="arrowRight.mouseout"/>
                  </use>
                  <path fill="none" stroke="white" stroke-width="1.5" d="M0,-3.0v7 M-2.5,-0.5L0,-3.0L2.5,-0.5"/>
                </g>
                <g id="arrowDown" xlink:href="#dirArrow" transform="rotate(180) translate(-30 -48)" onmousedown="handlePan(0,1)">
                  <use xlink:href="#rim" fill="#404040">
                        <set attributeName="fill" to="#808080" begin="arrowDown.mouseover" end="arrowDown.mouseout"/>
                  </use>
                  <path fill="none" stroke="white" stroke-width="1.5" d="M0,-3.0v7 M-2.5,-0.5L0,-3.0L2.5,-0.5"/>
                </g>
                <g id="arrowLeft" xlink:href="#dirArrow" transform="rotate(270) translate(-36 17)" onmousedown="handlePan(-1,0)">
                  <use xlink:href="#rim" fill="#404040">
                        <set attributeName="fill" to="#808080" begin="arrowLeft.mouseover" end="arrowLeft.mouseout"/>
                  </use>
                  <path fill="none" stroke="white" stroke-width="1.5" d="M0,-3.0v7 M-2.5,-0.5L0,-3.0L2.5,-0.5"/>
                </g>
        </g>
        <svg viewBox="0 0 15 15" width="100%" height="30px" preserveAspectRatio="xMaxYMin meet">
         <g id="arrow_out" transform="scale(0.3 0.3)">
          <a xlink:href="classconfiguration_1_1_parser_ae0480f44c9defa614fb470ab154fa60b_icgraph_org.svg" target="_base">
           <rect id="button" ry="5" rx="5" y="6" x="6" height="38" width="38"
                fill="#f2f5e9" fill-opacity="0.5" stroke="#606060" stroke-width="1.0"/>
           <path id="arrow"
             d="M 11.500037,31.436501 C 11.940474,20.09759 22.043105,11.32322 32.158766,21.979434 L 37.068811,17.246167 C 37.068811,17.246167 37.088388,32 37.088388,32 L 22.160133,31.978069 C 22.160133,31.978069 26.997745,27.140456 26.997745,27.140456 C 18.528582,18.264221 13.291696,25.230495 11.500037,31.436501 z"
             style="fill:#404040;"/>
          </a>
         </g>
        </svg>
</svg>
