<?xml version="1.0" encoding="UTF-8" standalone="no"?>
<!DOCTYPE svg PUBLIC "-//W3C//DTD SVG 1.1//EN"
 "http://www.w3.org/Graphics/SVG/1.1/DTD/svg11.dtd">
<!-- Generated by graphviz version 2.36.0 (20140111.2315)
 -->
<!-- Title: configuration.Parser.isEnd Pages: 1 -->
<!--zoomable 526 -->
<svg id="main" version="1.1" xmlns="http://www.w3.org/2000/svg" xmlns:xlink="http://www.w3.org/1999/xlink" xml:space="preserve" onload="init(evt)">
<style type="text/css"><![CDATA[
.edge:hover path { stroke: red; }
.edge:hover polygon { stroke: red; fill: red; }
]]></style>
<script type="text/javascript"><![CDATA[
var edges = document.getElementsByTagName('g');
if (edges && edges.length) {
  for (var i=0;i<edges.length;i++) {
    if (edges[i].id.substr(0,4)=='edge') {
      edges[i].setAttribute('class','edge');
    }
  }
}
]]></script>
        <defs>
                <circle id="rim" cx="0" cy="0" r="7"/>
                <circle id="rim2" cx="0" cy="0" r="3.5"/>
                <g id="zoomPlus">
                        <use xlink:href="#rim" fill="#404040">
                                <set attributeName="fill" to="#808080" begin="zoomplus.mouseover" end="zoomplus.mouseout"/>
                        </use>
                        <path d="M-4,0h8M0,-4v8" fill="none" stroke="white" stroke-width="1.5" pointer-events="none"/>
                </g>
                <g id="zoomMin">
                        <use xlink:href="#rim" fill="#404040">
                                <set attributeName="fill" to="#808080" begin="zoomminus.mouseover" end="zoomminus.mouseout"/>
                        </use>
                        <path d="M-4,0h8" fill="none" stroke="white" stroke-width="1.5" pointer-events="none"/>
                </g>
                <g id="dirArrow">
                        <path fill="none" stroke="white" stroke-width="1.5" d="M0,-3.0v7 M-2.5,-0.5L0,-3.0L2.5,-0.5"/>
                </g>
               <g id="resetDef">
                       <use xlink:href="#rim2" fill="#404040">
                               <set attributeName="fill" to="#808080" begin="reset.mouseover" end="reset.mouseout"/>
                       </use>
               </g>
        </defs>

<script type="text/javascript">
var viewWidth = 818;
var viewHeight = 526;
var sectionId = 'dynsection-13';
</script>
<script xlink:href="../../svgpan.js"/>
<svg id="graph" class="graph">
<g id="viewport">
<title>configuration.Parser.isEnd</title>
<polygon fill="white" stroke="none" points="-4,4 -4,-521.602 814,-521.602 814,4 -4,4"/>
<!-- Node1 -->
<g id="node1" class="node"><title>Node1</title>
<polygon fill="#bfbfbf" stroke="black" points="0,-230.306 0,-249.306 140,-249.306 140,-230.306 0,-230.306"/>
<text text-anchor="middle" x="70" y="-237.306" font-family="Helvetica,sans-Serif" font-size="10.00">configuration.Parser.isEnd</text>
</g>
<!-- Node2 -->
<g id="node2" class="node"><title>Node2</title>
<g id="a_node2"><a xlink:href="../../d7/d56/classconfiguration_1_1_ifelse_parser.html#a4b806589536dd338338d515a0fdb67ed" target="_top" xlink:title="configuration.IfelseParser.parse">
<polygon fill="white" stroke="black" points="418,-315.306 418,-334.306 584,-334.306 584,-315.306 418,-315.306"/>
<text text-anchor="middle" x="501" y="-322.306" font-family="Helvetica,sans-Serif" font-size="10.00">configuration.IfelseParser.parse</text>
</a>
</g>
</g>
<!-- Node1&#45;&gt;Node2 -->
<g id="edge1" class="edge"><title>Node1&#45;&gt;Node2</title>
<path fill="none" stroke="midnightblue" d="M82.0918,-258.079C98.7788,-283.587 133.015,-328.763 176,-346.806 278.931,-390.011 416.459,-353.223 473.493,-334.335"/>
<polygon fill="midnightblue" stroke="midnightblue" points="84.8804,-255.941 76.574,-249.364 78.9661,-259.685 84.8804,-255.941"/>
</g>
<!-- Node3 -->
<g id="node3" class="node"><title>Node3</title>
<g id="a_node3"><a xlink:href="../../d3/d0d/classconfiguration_1_1_repeat_parser.html#abf20b0ae25909c1cdff93f509830b502" target="_top" xlink:title="configuration.RepeatParser.parse">
<polygon fill="white" stroke="black" points="632,-448.306 632,-467.306 806,-467.306 806,-448.306 632,-448.306"/>
<text text-anchor="middle" x="719" y="-455.306" font-family="Helvetica,sans-Serif" font-size="10.00">configuration.RepeatParser.parse</text>
</a>
</g>
</g>
<!-- Node1&#45;&gt;Node3 -->
<g id="edge2" class="edge"><title>Node1&#45;&gt;Node3</title>
<path fill="none" stroke="midnightblue" d="M73.4661,-259.73C80.2653,-305 103.836,-415.197 176,-460.806 344.832,-567.51 606.282,-495.215 690.714,-467.388"/>
<polygon fill="midnightblue" stroke="midnightblue" points="76.9158,-259.125 72.0794,-249.698 69.9817,-260.083 76.9158,-259.125"/>
</g>
<!-- Node4 -->
<g id="node4" class="node"><title>Node4</title>
<g id="a_node4"><a xlink:href="../../d9/dfc/classconfiguration_1_1_dotimes_parser.html#abf0eb9bddfa4a09adc745008e17b293b" target="_top" xlink:title="configuration.DotimesParser.parse">
<polygon fill="white" stroke="black" points="628,-127.306 628,-146.306 810,-146.306 810,-127.306 628,-127.306"/>
<text text-anchor="middle" x="719" y="-134.306" font-family="Helvetica,sans-Serif" font-size="10.00">configuration.DotimesParser.parse</text>
</a>
</g>
</g>
<!-- Node1&#45;&gt;Node4 -->
<g id="edge3" class="edge"><title>Node1&#45;&gt;Node4</title>
<path fill="none" stroke="midnightblue" d="M83.9231,-221.946C101.682,-199.084 136.017,-160.549 176,-144.806 349.158,-76.6262 578.21,-109.005 673.481,-127.27"/>
<polygon fill="midnightblue" stroke="midnightblue" points="80.977,-220.04 77.7526,-230.132 86.5669,-224.254 80.977,-220.04"/>
</g>
<!-- Node5 -->
<g id="node5" class="node"><title>Node5</title>
<g id="a_node5"><a xlink:href="../../dc/d64/classconfiguration_1_1_for_parser.html#a2737b422e279cfca7c64fd8eff57d3ff" target="_top" xlink:title="configuration.ForParser.parse">
<polygon fill="white" stroke="black" points="641,-67.3059 641,-86.3059 797,-86.3059 797,-67.3059 641,-67.3059"/>
<text text-anchor="middle" x="719" y="-74.3059" font-family="Helvetica,sans-Serif" font-size="10.00">configuration.ForParser.parse</text>
</a>
</g>
</g>
<!-- Node1&#45;&gt;Node5 -->
<g id="edge4" class="edge"><title>Node1&#45;&gt;Node5</title>
<path fill="none" stroke="midnightblue" d="M78.936,-220.772C93.1455,-189.459 126.183,-127.946 176,-101.806 254.563,-60.5816 510.978,-66.4897 640.965,-72.4878"/>
<polygon fill="midnightblue" stroke="midnightblue" points="75.6399,-219.574 74.8419,-230.139 82.054,-222.378 75.6399,-219.574"/>
</g>
<!-- Node6 -->
<g id="node6" class="node"><title>Node6</title>
<g id="a_node6"><a xlink:href="../../db/d22/classconfiguration_1_1_set_parser.html#a4f20258805caaf18872872d5283a0e74" target="_top" xlink:title="configuration.SetParser.parse">
<polygon fill="white" stroke="black" points="196,-318.306 196,-337.306 354,-337.306 354,-318.306 196,-318.306"/>
<text text-anchor="middle" x="275" y="-325.306" font-family="Helvetica,sans-Serif" font-size="10.00">configuration.SetParser.parse</text>
</a>
</g>
</g>
<!-- Node1&#45;&gt;Node6 -->
<g id="edge5" class="edge"><title>Node1&#45;&gt;Node6</title>
<path fill="none" stroke="midnightblue" d="M90.5463,-255.693C110.744,-271.301 143.778,-294.636 176,-307.806 186.609,-312.142 198.261,-315.572 209.714,-318.274"/>
<polygon fill="midnightblue" stroke="midnightblue" points="92.4885,-252.767 82.467,-249.329 88.1571,-258.266 92.4885,-252.767"/>
</g>
<!-- Node7 -->
<g id="node7" class="node"><title>Node7</title>
<g id="a_node7"><a xlink:href="../../dc/dd1/classconfiguration_1_1_if_parser.html#ab4ed2d3b7778d2b1206e5d26ebac7976" target="_top" xlink:title="configuration.IfParser.parse">
<polygon fill="white" stroke="black" points="428,-252.306 428,-271.306 574,-271.306 574,-252.306 428,-252.306"/>
<text text-anchor="middle" x="501" y="-259.306" font-family="Helvetica,sans-Serif" font-size="10.00">configuration.IfParser.parse</text>
</a>
</g>
</g>
<!-- Node1&#45;&gt;Node7 -->
<g id="edge6" class="edge"><title>Node1&#45;&gt;Node7</title>
<path fill="none" stroke="midnightblue" d="M150.848,-243.901C230.313,-247.976 351.173,-254.174 427.831,-258.105"/>
<polygon fill="midnightblue" stroke="midnightblue" points="150.569,-240.382 140.403,-243.365 150.211,-247.373 150.569,-240.382"/>
</g>
<!-- Node8 -->
<g id="node8" class="node"><title>Node8</title>
<g id="a_node8"><a xlink:href="../../d9/dfc/classconfiguration_1_1_dotimes_parser.html#a6086c4c4651b29dd968bf4728bd71d0c" target="_top" xlink:title="configuration.DotimesParser.parse\lCommands">
<polygon fill="white" stroke="black" points="410,-154.806 410,-184.806 592,-184.806 592,-154.806 410,-154.806"/>
<text text-anchor="start" x="418" y="-172.806" font-family="Helvetica,sans-Serif" font-size="10.00">configuration.DotimesParser.parse</text>
<text text-anchor="middle" x="501" y="-161.806" font-family="Helvetica,sans-Serif" font-size="10.00">Commands</text>
</a>
</g>
</g>
<!-- Node1&#45;&gt;Node8 -->
<g id="edge7" class="edge"><title>Node1&#45;&gt;Node8</title>
<path fill="none" stroke="midnightblue" d="M139.332,-228.656C212.501,-216.717 328.946,-197.717 409.644,-184.549"/>
<polygon fill="midnightblue" stroke="midnightblue" points="138.609,-225.228 129.303,-230.292 139.736,-232.136 138.609,-225.228"/>
</g>
<!-- Node9 -->
<g id="node9" class="node"><title>Node9</title>
<g id="a_node9"><a xlink:href="../../d3/d0d/classconfiguration_1_1_repeat_parser.html#aed07d335bcd1174cb4247a7add0d3315" target="_top" xlink:title="configuration.RepeatParser.parse\lCommands">
<polygon fill="white" stroke="black" points="414,-420.806 414,-450.806 588,-450.806 588,-420.806 414,-420.806"/>
<text text-anchor="start" x="422" y="-438.806" font-family="Helvetica,sans-Serif" font-size="10.00">configuration.RepeatParser.parse</text>
<text text-anchor="middle" x="501" y="-427.806" font-family="Helvetica,sans-Serif" font-size="10.00">Commands</text>
</a>
</g>
</g>
<!-- Node1&#45;&gt;Node9 -->
<g id="edge9" class="edge"><title>Node1&#45;&gt;Node9</title>
<path fill="none" stroke="midnightblue" d="M80.5311,-258.744C96.2155,-287.826 130.337,-343.026 176,-370.806 215.149,-394.623 331.606,-414.027 413.641,-425.251"/>
<polygon fill="midnightblue" stroke="midnightblue" points="83.5014,-256.871 75.7635,-249.634 77.2994,-260.117 83.5014,-256.871"/>
</g>
<!-- Node10 -->
<g id="node10" class="node"><title>Node10</title>
<g id="a_node10"><a xlink:href="../../dc/d64/classconfiguration_1_1_for_parser.html#ad3cb5184cf449bd3414f3ba73a8b3104" target="_top" xlink:title="configuration.ForParser.parse\lCommands">
<polygon fill="white" stroke="black" points="423,-28.8059 423,-58.8059 579,-58.8059 579,-28.8059 423,-28.8059"/>
<text text-anchor="start" x="431" y="-46.8059" font-family="Helvetica,sans-Serif" font-size="10.00">configuration.ForParser.parse</text>
<text text-anchor="middle" x="501" y="-35.8059" font-family="Helvetica,sans-Serif" font-size="10.00">Commands</text>
</a>
</g>
</g>
<!-- Node1&#45;&gt;Node10 -->
<g id="edge11" class="edge"><title>Node1&#45;&gt;Node10</title>
<path fill="none" stroke="midnightblue" d="M73.9957,-220.053C81.7662,-176.63 107.006,-73.3556 176,-30.8059 264.644,23.8623 394.373,-7.2711 459.514,-28.7455"/>
<polygon fill="midnightblue" stroke="midnightblue" points="70.5375,-219.513 72.3463,-229.952 77.4423,-220.664 70.5375,-219.513"/>
</g>
<!-- Node11 -->
<g id="node11" class="node"><title>Node11</title>
<g id="a_node11"><a xlink:href="../../d3/d0d/classconfiguration_1_1_repeat_parser.html#a27c7e86622dda996677d34987f702cb6" target="_top" xlink:title="configuration.RepeatParser.parseFor">
<polygon fill="white" stroke="black" points="180.5,-432.306 180.5,-451.306 369.5,-451.306 369.5,-432.306 180.5,-432.306"/>
<text text-anchor="middle" x="275" y="-439.306" font-family="Helvetica,sans-Serif" font-size="10.00">configuration.RepeatParser.parseFor</text>
</a>
</g>
</g>
<!-- Node1&#45;&gt;Node11 -->
<g id="edge13" class="edge"><title>Node1&#45;&gt;Node11</title>
<path fill="none" stroke="midnightblue" d="M76.8427,-259.319C88.9533,-296.283 120.408,-376.501 176,-417.806 184.507,-424.126 194.466,-428.8 204.716,-432.252"/>
<polygon fill="midnightblue" stroke="midnightblue" points="80.0392,-257.816 73.7,-249.327 73.3617,-259.916 80.0392,-257.816"/>
</g>
<!-- Node12 -->
<g id="node12" class="node"><title>Node12</title>
<g id="a_node12"><a xlink:href="../../dc/d64/classconfiguration_1_1_for_parser.html#a6bc38f731ac658c5860fe092ba7689ac" target="_top" xlink:title="configuration.ForParser.parseFor">
<polygon fill="white" stroke="black" points="189.5,-40.3059 189.5,-59.3059 360.5,-59.3059 360.5,-40.3059 189.5,-40.3059"/>
<text text-anchor="middle" x="275" y="-47.3059" font-family="Helvetica,sans-Serif" font-size="10.00">configuration.ForParser.parseFor</text>
</a>
</g>
</g>
<!-- Node1&#45;&gt;Node12 -->
<g id="edge15" class="edge"><title>Node1&#45;&gt;Node12</title>
<path fill="none" stroke="midnightblue" d="M77.5985,-220.61C90.6249,-185.691 123.062,-111.878 176,-73.8059 184.817,-67.4648 195.111,-62.7875 205.65,-59.34"/>
<polygon fill="midnightblue" stroke="midnightblue" points="74.2706,-219.521 74.1777,-230.116 80.8571,-221.892 74.2706,-219.521"/>
</g>
<!-- Node13 -->
<g id="node13" class="node"><title>Node13</title>
<g id="a_node13"><a xlink:href="../../d9/dfc/classconfiguration_1_1_dotimes_parser.html#aff41ee5ce2eeff82f7586bd1cf6a91c8" target="_top" xlink:title="configuration.DotimesParser.parseFor">
<polygon fill="white" stroke="black" points="176.5,-154.306 176.5,-173.306 373.5,-173.306 373.5,-154.306 176.5,-154.306"/>
<text text-anchor="middle" x="275" y="-161.306" font-family="Helvetica,sans-Serif" font-size="10.00">configuration.DotimesParser.parseFor</text>
</a>
</g>
</g>
<!-- Node1&#45;&gt;Node13 -->
<g id="edge17" class="edge"><title>Node1&#45;&gt;Node13</title>
<path fill="none" stroke="midnightblue" d="M96.4399,-225.227C117.283,-213.773 147.829,-198.089 176,-187.806 191.961,-181.98 209.896,-177.123 226.019,-173.337"/>
<polygon fill="midnightblue" stroke="midnightblue" points="94.6218,-222.234 87.5893,-230.158 98.0285,-228.349 94.6218,-222.234"/>
</g>
<!-- Node14 -->
<g id="node14" class="node"><title>Node14</title>
<g id="a_node14"><a xlink:href="../../d7/d56/classconfiguration_1_1_ifelse_parser.html#aeb471eacbe15e095075bdd09619fe15d" target="_top" xlink:title="configuration.IfelseParser.parse\lListCommands">
<polygon fill="white" stroke="black" points="192,-268.806 192,-298.806 358,-298.806 358,-268.806 192,-268.806"/>
<text text-anchor="start" x="200" y="-286.806" font-family="Helvetica,sans-Serif" font-size="10.00">configuration.IfelseParser.parse</text>
<text text-anchor="middle" x="275" y="-275.806" font-family="Helvetica,sans-Serif" font-size="10.00">ListCommands</text>
</a>
</g>
</g>
<!-- Node1&#45;&gt;Node14 -->
<g id="edge19" class="edge"><title>Node1&#45;&gt;Node14</title>
<path fill="none" stroke="midnightblue" d="M124.849,-251.478C149.268,-256.77 178.447,-263.095 204.494,-268.74"/>
<polygon fill="midnightblue" stroke="midnightblue" points="125.562,-248.051 115.048,-249.353 124.08,-254.892 125.562,-248.051"/>
</g>
<!-- Node8&#45;&gt;Node4 -->
<g id="edge8" class="edge"><title>Node8&#45;&gt;Node4</title>
<path fill="none" stroke="midnightblue" d="M602.135,-154.507C620.388,-151.719 638.942,-148.884 655.697,-146.324"/>
<polygon fill="midnightblue" stroke="midnightblue" points="601.396,-151.08 592.039,-156.05 602.453,-157.999 601.396,-151.08"/>
</g>
<!-- Node9&#45;&gt;Node3 -->
<g id="edge10" class="edge"><title>Node9&#45;&gt;Node3</title>
<path fill="none" stroke="midnightblue" d="M598.454,-445.63C609.576,-446.763 620.864,-447.912 631.837,-449.03"/>
<polygon fill="midnightblue" stroke="midnightblue" points="598.603,-442.127 588.3,-444.596 597.894,-449.091 598.603,-442.127"/>
</g>
<!-- Node10&#45;&gt;Node5 -->
<g id="edge12" class="edge"><title>Node10&#45;&gt;Node5</title>
<path fill="none" stroke="midnightblue" d="M589.173,-57.124C611.389,-60.518 634.826,-64.0988 655.531,-67.262"/>
<polygon fill="midnightblue" stroke="midnightblue" points="589.48,-53.6303 579.066,-55.5798 588.423,-60.55 589.48,-53.6303"/>
</g>
<!-- Node11&#45;&gt;Node9 -->
<g id="edge14" class="edge"><title>Node11&#45;&gt;Node9</title>
<path fill="none" stroke="midnightblue" d="M380.039,-439.019C391.348,-438.716 402.765,-438.41 413.826,-438.114"/>
<polygon fill="midnightblue" stroke="midnightblue" points="379.601,-435.529 369.698,-439.296 379.788,-442.527 379.601,-435.529"/>
</g>
<!-- Node12&#45;&gt;Node10 -->
<g id="edge16" class="edge"><title>Node12&#45;&gt;Node10</title>
<path fill="none" stroke="midnightblue" d="M370.838,-47.2656C388.214,-46.8001 406.155,-46.3196 422.934,-45.8701"/>
<polygon fill="midnightblue" stroke="midnightblue" points="370.587,-43.7709 360.685,-47.5375 370.775,-50.7684 370.587,-43.7709"/>
</g>
<!-- Node13&#45;&gt;Node8 -->
<g id="edge18" class="edge"><title>Node13&#45;&gt;Node8</title>
<path fill="none" stroke="midnightblue" d="M383.785,-166.693C392.488,-166.926 401.224,-167.16 409.783,-167.389"/>
<polygon fill="midnightblue" stroke="midnightblue" points="383.688,-163.189 373.598,-166.42 383.501,-170.187 383.688,-163.189"/>
</g>
<!-- Node14&#45;&gt;Node2 -->
<g id="edge20" class="edge"><title>Node14&#45;&gt;Node2</title>
<path fill="none" stroke="midnightblue" d="M368.068,-300.658C395.256,-305.634 424.063,-310.907 447.8,-315.251"/>
<polygon fill="midnightblue" stroke="midnightblue" points="368.604,-297.198 358.137,-298.84 367.344,-304.083 368.604,-297.198"/>
</g>
<!-- Node14&#45;&gt;Node7 -->
<g id="edge21" class="edge"><title>Node14&#45;&gt;Node7</title>
<path fill="none" stroke="midnightblue" d="M368.144,-274.756C388.059,-272.8 408.839,-270.759 427.856,-268.891"/>
<polygon fill="midnightblue" stroke="midnightblue" points="367.747,-271.278 358.137,-275.739 368.432,-278.244 367.747,-271.278"/>
</g>
</g>
</svg>
        <g id="navigator" transform="translate(0 0)" fill="#404254">
                <rect fill="#f2f5e9" fill-opacity="0.5" stroke="#606060" stroke-width=".5" x="0" y="0" width="60" height="60"/>
                <use id="zoomplus" xlink:href="#zoomPlus" x="17" y="9" onmousedown="handleZoom(evt,'in')"/>
                <use id="zoomminus" xlink:href="#zoomMin" x="42" y="9" onmousedown="handleZoom(evt,'out')"/>
                <use id="reset" xlink:href="#resetDef" x="30" y="36" onmousedown="handleReset()"/>
                <g id="arrowUp" xlink:href="#dirArrow" transform="translate(30 24)" onmousedown="handlePan(0,-1)">
                  <use xlink:href="#rim" fill="#404040">
                        <set attributeName="fill" to="#808080" begin="arrowUp.mouseover" end="arrowUp.mouseout"/>
                  </use>
                  <path fill="none" stroke="white" stroke-width="1.5" d="M0,-3.0v7 M-2.5,-0.5L0,-3.0L2.5,-0.5"/>
                </g>
                <g id="arrowRight" xlink:href="#dirArrow" transform="rotate(90) translate(36 -43)" onmousedown="handlePan(1,0)">
                  <use xlink:href="#rim" fill="#404040">
                        <set attributeName="fill" to="#808080" begin="arrowRight.mouseover" end="arrowRight.mouseout"/>
                  </use>
                  <path fill="none" stroke="white" stroke-width="1.5" d="M0,-3.0v7 M-2.5,-0.5L0,-3.0L2.5,-0.5"/>
                </g>
                <g id="arrowDown" xlink:href="#dirArrow" transform="rotate(180) translate(-30 -48)" onmousedown="handlePan(0,1)">
                  <use xlink:href="#rim" fill="#404040">
                        <set attributeName="fill" to="#808080" begin="arrowDown.mouseover" end="arrowDown.mouseout"/>
                  </use>
                  <path fill="none" stroke="white" stroke-width="1.5" d="M0,-3.0v7 M-2.5,-0.5L0,-3.0L2.5,-0.5"/>
                </g>
                <g id="arrowLeft" xlink:href="#dirArrow" transform="rotate(270) translate(-36 17)" onmousedown="handlePan(-1,0)">
                  <use xlink:href="#rim" fill="#404040">
                        <set attributeName="fill" to="#808080" begin="arrowLeft.mouseover" end="arrowLeft.mouseout"/>
                  </use>
                  <path fill="none" stroke="white" stroke-width="1.5" d="M0,-3.0v7 M-2.5,-0.5L0,-3.0L2.5,-0.5"/>
                </g>
        </g>
        <svg viewBox="0 0 15 15" width="100%" height="30px" preserveAspectRatio="xMaxYMin meet">
         <g id="arrow_out" transform="scale(0.3 0.3)">
          <a xlink:href="classconfiguration_1_1_parser_a07345acba63db50ec60293f2b38e54a6_icgraph_org.svg" target="_base">
           <rect id="button" ry="5" rx="5" y="6" x="6" height="38" width="38"
                fill="#f2f5e9" fill-opacity="0.5" stroke="#606060" stroke-width="1.0"/>
           <path id="arrow"
             d="M 11.500037,31.436501 C 11.940474,20.09759 22.043105,11.32322 32.158766,21.979434 L 37.068811,17.246167 C 37.068811,17.246167 37.088388,32 37.088388,32 L 22.160133,31.978069 C 22.160133,31.978069 26.997745,27.140456 26.997745,27.140456 C 18.528582,18.264221 13.291696,25.230495 11.500037,31.436501 z"
             style="fill:#404040;"/>
          </a>
         </g>
        </svg>
</svg>
