<?xml version="1.0" encoding="UTF-8" standalone="no"?>
<!DOCTYPE svg PUBLIC "-//W3C//DTD SVG 1.1//EN"
 "http://www.w3.org/Graphics/SVG/1.1/DTD/svg11.dtd">
<!-- Generated by graphviz version 2.36.0 (20140111.2315)
 -->
<!-- Title: configuration.Parser.isVariable Pages: 1 -->
<svg width="1030pt" height="496pt"
 viewBox="0.00 0.00 1030.00 496.05" xmlns="http://www.w3.org/2000/svg" xmlns:xlink="http://www.w3.org/1999/xlink">
<g id="graph0" class="graph" transform="scale(1 1) rotate(0) translate(4 492.051)">
<title>configuration.Parser.isVariable</title>
<polygon fill="white" stroke="none" points="-4,4 -4,-492.051 1026,-492.051 1026,4 -4,4"/>
<!-- Node1 -->
<g id="node1" class="node"><title>Node1</title>
<polygon fill="#bfbfbf" stroke="black" points="0,-161.551 0,-180.551 160,-180.551 160,-161.551 0,-161.551"/>
<text text-anchor="middle" x="80" y="-168.551" font-family="Helvetica,sans-Serif" font-size="10.00">configuration.Parser.isVariable</text>
</g>
<!-- Node2 -->
<g id="node2" class="node"><title>Node2</title>
<g id="a_node2"><a xlink:href="../../d9/d11/classconfiguration_1_1_parser.html#ae0480f44c9defa614fb470ab154fa60b" target="_top" xlink:title="configuration.Parser.buildTree">
<polygon fill="white" stroke="black" points="196,-224.551 196,-243.551 352,-243.551 352,-224.551 196,-224.551"/>
<text text-anchor="middle" x="274" y="-231.551" font-family="Helvetica,sans-Serif" font-size="10.00">configuration.Parser.buildTree</text>
</a>
</g>
</g>
<!-- Node1&#45;&gt;Node2 -->
<g id="edge1" class="edge"><title>Node1&#45;&gt;Node2</title>
<path fill="none" stroke="midnightblue" d="M120.017,-183.853C156.712,-195.894 210.815,-213.647 243.88,-224.496"/>
<polygon fill="midnightblue" stroke="midnightblue" points="120.753,-180.411 110.161,-180.619 118.571,-187.063 120.753,-180.411"/>
</g>
<!-- Node10 -->
<g id="node10" class="node"><title>Node10</title>
<g id="a_node10"><a xlink:href="../../d9/dfc/classconfiguration_1_1_dotimes_parser.html#a63d34c400b9b5715b4a2f9a5d0107e62" target="_top" xlink:title="configuration.DotimesParser.parse\lDotimesIterator">
<polygon fill="white" stroke="black" points="622,-360.051 622,-390.051 804,-390.051 804,-360.051 622,-360.051"/>
<text text-anchor="start" x="630" y="-378.051" font-family="Helvetica,sans-Serif" font-size="10.00">configuration.DotimesParser.parse</text>
<text text-anchor="middle" x="713" y="-367.051" font-family="Helvetica,sans-Serif" font-size="10.00">DotimesIterator</text>
</a>
</g>
</g>
<!-- Node1&#45;&gt;Node10 -->
<g id="edge29" class="edge"><title>Node1&#45;&gt;Node10</title>
<path fill="none" stroke="midnightblue" d="M93.8065,-188.726C131.727,-239.349 249.483,-384.536 388,-436.051 470.481,-466.726 504.699,-469.727 586,-436.051 606.905,-427.392 602.456,-411.454 622,-400.051 628.583,-396.21 635.783,-392.936 643.15,-390.152"/>
<polygon fill="midnightblue" stroke="midnightblue" points="96.6111,-186.633 87.8523,-180.672 90.9821,-190.794 96.6111,-186.633"/>
</g>
<!-- Node13 -->
<g id="node13" class="node"><title>Node13</title>
<g id="a_node13"><a xlink:href="../../dc/d64/classconfiguration_1_1_for_parser.html#a2737b422e279cfca7c64fd8eff57d3ff" target="_top" xlink:title="configuration.ForParser.parse">
<polygon fill="white" stroke="black" points="853,-218.551 853,-237.551 1009,-237.551 1009,-218.551 853,-218.551"/>
<text text-anchor="middle" x="931" y="-225.551" font-family="Helvetica,sans-Serif" font-size="10.00">configuration.ForParser.parse</text>
</a>
</g>
</g>
<!-- Node1&#45;&gt;Node13 -->
<g id="edge27" class="edge"><title>Node1&#45;&gt;Node13</title>
<path fill="none" stroke="midnightblue" d="M95.33,-153.743C115.414,-130.644 154.191,-90.096 196,-68.0508 350.434,13.3803 414.42,11.2163 586,-21.0508 688.202,-40.2708 716.477,-49.8869 804,-106.051 855.765,-139.269 904.288,-196.024 922.456,-218.49"/>
<polygon fill="midnightblue" stroke="midnightblue" points="92.629,-151.516 88.8054,-161.397 97.9562,-156.057 92.629,-151.516"/>
</g>
<!-- Node14 -->
<g id="node14" class="node"><title>Node14</title>
<g id="a_node14"><a xlink:href="../../db/d22/classconfiguration_1_1_set_parser.html#a4f20258805caaf18872872d5283a0e74" target="_top" xlink:title="configuration.SetParser.parse">
<polygon fill="white" stroke="black" points="408,-30.5508 408,-49.5508 566,-49.5508 566,-30.5508 408,-30.5508"/>
<text text-anchor="middle" x="487" y="-37.5508" font-family="Helvetica,sans-Serif" font-size="10.00">configuration.SetParser.parse</text>
</a>
</g>
</g>
<!-- Node1&#45;&gt;Node14 -->
<g id="edge28" class="edge"><title>Node1&#45;&gt;Node14</title>
<path fill="none" stroke="midnightblue" d="M112.887,-157.509C168.068,-134.508 285.325,-87.5398 388,-59.0508 401.026,-55.4366 415.212,-52.2609 428.642,-49.5921"/>
<polygon fill="midnightblue" stroke="midnightblue" points="111.195,-154.423 103.323,-161.515 113.899,-160.879 111.195,-154.423"/>
</g>
<!-- Node3 -->
<g id="node3" class="node"><title>Node3</title>
<g id="a_node3"><a xlink:href="../../d9/d11/classconfiguration_1_1_parser.html#a041ccb70bd9dee77d512d8469c15c14f" target="_top" xlink:title="configuration.Parser.buildTree">
<polygon fill="white" stroke="black" points="409,-205.551 409,-224.551 565,-224.551 565,-205.551 409,-205.551"/>
<text text-anchor="middle" x="487" y="-212.551" font-family="Helvetica,sans-Serif" font-size="10.00">configuration.Parser.buildTree</text>
</a>
</g>
</g>
<!-- Node2&#45;&gt;Node3 -->
<g id="edge2" class="edge"><title>Node2&#45;&gt;Node3</title>
<path fill="none" stroke="midnightblue" d="M362.142,-226.204C377.608,-224.811 393.617,-223.37 408.784,-222.004"/>
<polygon fill="midnightblue" stroke="midnightblue" points="361.717,-222.728 352.071,-227.111 362.345,-229.7 361.717,-222.728"/>
</g>
<!-- Node4 -->
<g id="node4" class="node"><title>Node4</title>
<g id="a_node4"><a xlink:href="../../d7/d56/classconfiguration_1_1_ifelse_parser.html#aef13959a758ccbf8dab0a3f5f94a7be0" target="_top" xlink:title="configuration.IfelseParser.evaluate\lBoolExpr">
<polygon fill="white" stroke="black" points="397,-107.051 397,-137.051 577,-137.051 577,-107.051 397,-107.051"/>
<text text-anchor="start" x="405" y="-125.051" font-family="Helvetica,sans-Serif" font-size="10.00">configuration.IfelseParser.evaluate</text>
<text text-anchor="middle" x="487" y="-114.051" font-family="Helvetica,sans-Serif" font-size="10.00">BoolExpr</text>
</a>
</g>
</g>
<!-- Node2&#45;&gt;Node4 -->
<g id="edge3" class="edge"><title>Node2&#45;&gt;Node4</title>
<path fill="none" stroke="midnightblue" d="M291.668,-217.301C312.439,-197.381 349.868,-164.513 388,-146.051 395.095,-142.616 402.723,-139.647 410.479,-137.086"/>
<polygon fill="midnightblue" stroke="midnightblue" points="289.022,-214.993 284.315,-224.485 293.914,-220.001 289.022,-214.993"/>
</g>
<!-- Node7 -->
<g id="node7" class="node"><title>Node7</title>
<g id="a_node7"><a xlink:href="../../d3/d0d/classconfiguration_1_1_repeat_parser.html#ab218ee8c24e4dab18c02cd4a536d15d3" target="_top" xlink:title="configuration.RepeatParser.fetch\lNumericExpr">
<polygon fill="white" stroke="black" points="627.5,-458.051 627.5,-488.051 798.5,-488.051 798.5,-458.051 627.5,-458.051"/>
<text text-anchor="start" x="635.5" y="-476.051" font-family="Helvetica,sans-Serif" font-size="10.00">configuration.RepeatParser.fetch</text>
<text text-anchor="middle" x="713" y="-465.051" font-family="Helvetica,sans-Serif" font-size="10.00">NumericExpr</text>
</a>
</g>
</g>
<!-- Node2&#45;&gt;Node7 -->
<g id="edge6" class="edge"><title>Node2&#45;&gt;Node7</title>
<path fill="none" stroke="midnightblue" d="M279.527,-253.494C290.301,-294.963 321.671,-391.905 388,-436.051 458.579,-483.025 557.452,-487.704 627.367,-483.496"/>
<polygon fill="midnightblue" stroke="midnightblue" points="282.923,-252.648 277.122,-243.782 276.129,-254.331 282.923,-252.648"/>
</g>
<!-- Node9 -->
<g id="node9" class="node"><title>Node9</title>
<g id="a_node9"><a xlink:href="../../d9/dfc/classconfiguration_1_1_dotimes_parser.html#a26cc7f8e0a21d93091bfe8884a924450" target="_top" xlink:title="configuration.DotimesParser.fetch\lNumericExpr">
<polygon fill="white" stroke="black" points="397.5,-358.051 397.5,-388.051 576.5,-388.051 576.5,-358.051 397.5,-358.051"/>
<text text-anchor="start" x="405.5" y="-376.051" font-family="Helvetica,sans-Serif" font-size="10.00">configuration.DotimesParser.fetch</text>
<text text-anchor="middle" x="487" y="-365.051" font-family="Helvetica,sans-Serif" font-size="10.00">NumericExpr</text>
</a>
</g>
</g>
<!-- Node2&#45;&gt;Node9 -->
<g id="edge8" class="edge"><title>Node2&#45;&gt;Node9</title>
<path fill="none" stroke="midnightblue" d="M287.764,-252.056C306.703,-277.403 344.702,-323.272 388,-348.051 394.782,-351.932 402.167,-355.219 409.741,-358.002"/>
<polygon fill="midnightblue" stroke="midnightblue" points="290.401,-249.732 281.674,-243.723 284.749,-253.862 290.401,-249.732"/>
</g>
<!-- Node12 -->
<g id="node12" class="node"><title>Node12</title>
<g id="a_node12"><a xlink:href="../../dc/d64/classconfiguration_1_1_for_parser.html#a95aeb8afdb254389dcef062be1cf2727" target="_top" xlink:title="configuration.ForParser.fetch\lNumericExpr">
<polygon fill="white" stroke="black" points="636.5,-262.051 636.5,-292.051 789.5,-292.051 789.5,-262.051 636.5,-262.051"/>
<text text-anchor="start" x="644.5" y="-280.051" font-family="Helvetica,sans-Serif" font-size="10.00">configuration.ForParser.fetch</text>
<text text-anchor="middle" x="713" y="-269.051" font-family="Helvetica,sans-Serif" font-size="10.00">NumericExpr</text>
</a>
</g>
</g>
<!-- Node2&#45;&gt;Node12 -->
<g id="edge11" class="edge"><title>Node2&#45;&gt;Node12</title>
<path fill="none" stroke="midnightblue" d="M306.286,-247.488C328.601,-256.343 359.568,-267.173 388,-272.051 472.14,-286.487 570.375,-285.565 636.43,-282.421"/>
<polygon fill="midnightblue" stroke="midnightblue" points="307.566,-244.23 296.984,-243.712 304.934,-250.716 307.566,-244.23"/>
</g>
<!-- Node2&#45;&gt;Node14 -->
<g id="edge13" class="edge"><title>Node2&#45;&gt;Node14</title>
<path fill="none" stroke="midnightblue" d="M288.078,-216.029C303.791,-194.153 330.699,-155.972 352,-122.051 369.15,-94.74 361.783,-77.83 388,-59.0508 394.058,-54.7113 400.846,-51.2935 407.948,-48.6103"/>
<polygon fill="midnightblue" stroke="midnightblue" points="285.09,-214.189 282.078,-224.347 290.767,-218.284 285.09,-214.189"/>
</g>
<!-- Node15 -->
<g id="node15" class="node"><title>Node15</title>
<g id="a_node15"><a xlink:href="../../d0/da7/classconfiguration_1_1_basic_parser.html#a22bf37b374167e497f639182e7459517" target="_top" xlink:title="configuration.BasicParser.parse">
<polygon fill="white" stroke="black" points="403.5,-68.5508 403.5,-87.5508 570.5,-87.5508 570.5,-68.5508 403.5,-68.5508"/>
<text text-anchor="middle" x="487" y="-75.5508" font-family="Helvetica,sans-Serif" font-size="10.00">configuration.BasicParser.parse</text>
</a>
</g>
</g>
<!-- Node2&#45;&gt;Node15 -->
<g id="edge14" class="edge"><title>Node2&#45;&gt;Node15</title>
<path fill="none" stroke="midnightblue" d="M284.675,-215.484C301.399,-185.382 338.711,-126.349 388,-97.0508 394.48,-93.1988 401.588,-90.1072 408.923,-87.6289"/>
<polygon fill="midnightblue" stroke="midnightblue" points="281.479,-214.037 279.805,-224.499 287.638,-217.364 281.479,-214.037"/>
</g>
<!-- Node16 -->
<g id="node16" class="node"><title>Node16</title>
<g id="a_node16"><a xlink:href="../../d3/d0d/classconfiguration_1_1_repeat_parser.html#a27c7e86622dda996677d34987f702cb6" target="_top" xlink:title="configuration.RepeatParser.parseFor">
<polygon fill="white" stroke="black" points="392.5,-407.551 392.5,-426.551 581.5,-426.551 581.5,-407.551 392.5,-407.551"/>
<text text-anchor="middle" x="487" y="-414.551" font-family="Helvetica,sans-Serif" font-size="10.00">configuration.RepeatParser.parseFor</text>
</a>
</g>
</g>
<!-- Node2&#45;&gt;Node16 -->
<g id="edge15" class="edge"><title>Node2&#45;&gt;Node16</title>
<path fill="none" stroke="midnightblue" d="M282.486,-253.118C297.134,-287.763 333.031,-360.804 388,-397.051 394.596,-401.4 401.943,-404.835 409.566,-407.544"/>
<polygon fill="midnightblue" stroke="midnightblue" points="285.651,-251.612 278.625,-243.682 279.173,-254.263 285.651,-251.612"/>
</g>
<!-- Node18 -->
<g id="node18" class="node"><title>Node18</title>
<g id="a_node18"><a xlink:href="../../dc/d64/classconfiguration_1_1_for_parser.html#a6bc38f731ac658c5860fe092ba7689ac" target="_top" xlink:title="configuration.ForParser.parseFor">
<polygon fill="white" stroke="black" points="401.5,-243.551 401.5,-262.551 572.5,-262.551 572.5,-243.551 401.5,-243.551"/>
<text text-anchor="middle" x="487" y="-250.551" font-family="Helvetica,sans-Serif" font-size="10.00">configuration.ForParser.parseFor</text>
</a>
</g>
</g>
<!-- Node2&#45;&gt;Node18 -->
<g id="edge18" class="edge"><title>Node2&#45;&gt;Node18</title>
<path fill="none" stroke="midnightblue" d="M362.314,-241.913C375.204,-243.074 388.468,-244.268 401.304,-245.424"/>
<polygon fill="midnightblue" stroke="midnightblue" points="362.345,-238.402 352.071,-240.991 361.717,-245.374 362.345,-238.402"/>
</g>
<!-- Node20 -->
<g id="node20" class="node"><title>Node20</title>
<g id="a_node20"><a xlink:href="../../d9/dfc/classconfiguration_1_1_dotimes_parser.html#aff41ee5ce2eeff82f7586bd1cf6a91c8" target="_top" xlink:title="configuration.DotimesParser.parseFor">
<polygon fill="white" stroke="black" points="388.5,-319.551 388.5,-338.551 585.5,-338.551 585.5,-319.551 388.5,-319.551"/>
<text text-anchor="middle" x="487" y="-326.551" font-family="Helvetica,sans-Serif" font-size="10.00">configuration.DotimesParser.parseFor</text>
</a>
</g>
</g>
<!-- Node2&#45;&gt;Node20 -->
<g id="edge21" class="edge"><title>Node2&#45;&gt;Node20</title>
<path fill="none" stroke="midnightblue" d="M295.652,-249.903C317.492,-265.955 353.497,-290.44 388,-305.051 402.356,-311.13 418.574,-315.883 433.626,-319.497"/>
<polygon fill="midnightblue" stroke="midnightblue" points="297.579,-246.973 287.472,-243.795 293.391,-252.583 297.579,-246.973"/>
</g>
<!-- Node22 -->
<g id="node22" class="node"><title>Node22</title>
<g id="a_node22"><a xlink:href="../../d7/d56/classconfiguration_1_1_ifelse_parser.html#aeb471eacbe15e095075bdd09619fe15d" target="_top" xlink:title="configuration.IfelseParser.parse\lListCommands">
<polygon fill="white" stroke="black" points="404,-156.051 404,-186.051 570,-186.051 570,-156.051 404,-156.051"/>
<text text-anchor="start" x="412" y="-174.051" font-family="Helvetica,sans-Serif" font-size="10.00">configuration.IfelseParser.parse</text>
<text text-anchor="middle" x="487" y="-163.051" font-family="Helvetica,sans-Serif" font-size="10.00">ListCommands</text>
</a>
</g>
</g>
<!-- Node2&#45;&gt;Node22 -->
<g id="edge24" class="edge"><title>Node2&#45;&gt;Node22</title>
<path fill="none" stroke="midnightblue" d="M311.382,-221.047C333.423,-213.362 362.179,-203.674 388,-196.051 399.62,-192.62 412.095,-189.223 424.121,-186.09"/>
<polygon fill="midnightblue" stroke="midnightblue" points="310.039,-217.809 301.762,-224.423 312.357,-224.414 310.039,-217.809"/>
</g>
<!-- Node5 -->
<g id="node5" class="node"><title>Node5</title>
<g id="a_node5"><a xlink:href="../../d7/d56/classconfiguration_1_1_ifelse_parser.html#a4b806589536dd338338d515a0fdb67ed" target="_top" xlink:title="configuration.IfelseParser.parse">
<polygon fill="white" stroke="black" points="630,-115.551 630,-134.551 796,-134.551 796,-115.551 630,-115.551"/>
<text text-anchor="middle" x="713" y="-122.551" font-family="Helvetica,sans-Serif" font-size="10.00">configuration.IfelseParser.parse</text>
</a>
</g>
</g>
<!-- Node4&#45;&gt;Node5 -->
<g id="edge4" class="edge"><title>Node4&#45;&gt;Node5</title>
<path fill="none" stroke="midnightblue" d="M587.4,-123.382C601.526,-123.571 615.923,-123.764 629.677,-123.948"/>
<polygon fill="midnightblue" stroke="midnightblue" points="587.22,-119.879 577.174,-123.245 587.127,-126.879 587.22,-119.879"/>
</g>
<!-- Node6 -->
<g id="node6" class="node"><title>Node6</title>
<g id="a_node6"><a xlink:href="../../dc/dd1/classconfiguration_1_1_if_parser.html#ab4ed2d3b7778d2b1206e5d26ebac7976" target="_top" xlink:title="configuration.IfParser.parse">
<polygon fill="white" stroke="black" points="640,-156.551 640,-175.551 786,-175.551 786,-156.551 640,-156.551"/>
<text text-anchor="middle" x="713" y="-163.551" font-family="Helvetica,sans-Serif" font-size="10.00">configuration.IfParser.parse</text>
</a>
</g>
</g>
<!-- Node4&#45;&gt;Node6 -->
<g id="edge5" class="edge"><title>Node4&#45;&gt;Node6</title>
<path fill="none" stroke="midnightblue" d="M574.59,-139.06C604.791,-144.992 637.594,-151.435 663.573,-156.538"/>
<polygon fill="midnightblue" stroke="midnightblue" points="574.949,-135.563 564.462,-137.07 573.599,-142.432 574.949,-135.563"/>
</g>
<!-- Node8 -->
<g id="node8" class="node"><title>Node8</title>
<g id="a_node8"><a xlink:href="../../d3/d0d/classconfiguration_1_1_repeat_parser.html#abf20b0ae25909c1cdff93f509830b502" target="_top" xlink:title="configuration.RepeatParser.parse">
<polygon fill="white" stroke="black" points="844,-438.551 844,-457.551 1018,-457.551 1018,-438.551 844,-438.551"/>
<text text-anchor="middle" x="931" y="-445.551" font-family="Helvetica,sans-Serif" font-size="10.00">configuration.RepeatParser.parse</text>
</a>
</g>
</g>
<!-- Node7&#45;&gt;Node8 -->
<g id="edge7" class="edge"><title>Node7&#45;&gt;Node8</title>
<path fill="none" stroke="midnightblue" d="M809.003,-462.055C821.873,-460.566 834.993,-459.047 847.617,-457.586"/>
<polygon fill="midnightblue" stroke="midnightblue" points="808.28,-458.615 798.749,-463.242 809.085,-465.569 808.28,-458.615"/>
</g>
<!-- Node9&#45;&gt;Node10 -->
<g id="edge9" class="edge"><title>Node9&#45;&gt;Node10</title>
<path fill="none" stroke="midnightblue" d="M586.748,-373.933C598.446,-374.037 610.34,-374.143 621.909,-374.246"/>
<polygon fill="midnightblue" stroke="midnightblue" points="586.562,-370.431 576.531,-373.841 586.499,-377.431 586.562,-370.431"/>
</g>
<!-- Node11 -->
<g id="node11" class="node"><title>Node11</title>
<g id="a_node11"><a xlink:href="../../d9/dfc/classconfiguration_1_1_dotimes_parser.html#abf0eb9bddfa4a09adc745008e17b293b" target="_top" xlink:title="configuration.DotimesParser.parse">
<polygon fill="white" stroke="black" points="840,-340.551 840,-359.551 1022,-359.551 1022,-340.551 840,-340.551"/>
<text text-anchor="middle" x="931" y="-347.551" font-family="Helvetica,sans-Serif" font-size="10.00">configuration.DotimesParser.parse</text>
</a>
</g>
</g>
<!-- Node10&#45;&gt;Node11 -->
<g id="edge10" class="edge"><title>Node10&#45;&gt;Node11</title>
<path fill="none" stroke="midnightblue" d="M814.272,-363.445C825.464,-362.15 836.767,-360.842 847.698,-359.577"/>
<polygon fill="midnightblue" stroke="midnightblue" points="813.571,-360.003 804.039,-364.63 814.375,-366.957 813.571,-360.003"/>
</g>
<!-- Node12&#45;&gt;Node13 -->
<g id="edge12" class="edge"><title>Node12&#45;&gt;Node13</title>
<path fill="none" stroke="midnightblue" d="M790.314,-259.739C823.153,-252.289 860.28,-243.867 887.999,-237.579"/>
<polygon fill="midnightblue" stroke="midnightblue" points="789.253,-256.391 780.275,-262.016 790.802,-263.217 789.253,-256.391"/>
</g>
<!-- Node17 -->
<g id="node17" class="node"><title>Node17</title>
<g id="a_node17"><a xlink:href="../../d3/d0d/classconfiguration_1_1_repeat_parser.html#aed07d335bcd1174cb4247a7add0d3315" target="_top" xlink:title="configuration.RepeatParser.parse\lCommands">
<polygon fill="white" stroke="black" points="626,-409.051 626,-439.051 800,-439.051 800,-409.051 626,-409.051"/>
<text text-anchor="start" x="634" y="-427.051" font-family="Helvetica,sans-Serif" font-size="10.00">configuration.RepeatParser.parse</text>
<text text-anchor="middle" x="713" y="-416.051" font-family="Helvetica,sans-Serif" font-size="10.00">Commands</text>
</a>
</g>
</g>
<!-- Node16&#45;&gt;Node17 -->
<g id="edge16" class="edge"><title>Node16&#45;&gt;Node17</title>
<path fill="none" stroke="midnightblue" d="M592.039,-420.302C603.348,-420.655 614.765,-421.012 625.826,-421.358"/>
<polygon fill="midnightblue" stroke="midnightblue" points="591.803,-416.793 581.698,-419.979 591.584,-423.79 591.803,-416.793"/>
</g>
<!-- Node17&#45;&gt;Node8 -->
<g id="edge17" class="edge"><title>Node17&#45;&gt;Node8</title>
<path fill="none" stroke="midnightblue" d="M810.538,-434.777C821.752,-436.023 833.133,-437.288 844.189,-438.516"/>
<polygon fill="midnightblue" stroke="midnightblue" points="810.626,-431.266 800.3,-433.64 809.852,-438.223 810.626,-431.266"/>
</g>
<!-- Node19 -->
<g id="node19" class="node"><title>Node19</title>
<g id="a_node19"><a xlink:href="../../dc/d64/classconfiguration_1_1_for_parser.html#ad3cb5184cf449bd3414f3ba73a8b3104" target="_top" xlink:title="configuration.ForParser.parse\lCommands">
<polygon fill="white" stroke="black" points="635,-213.051 635,-243.051 791,-243.051 791,-213.051 635,-213.051"/>
<text text-anchor="start" x="643" y="-231.051" font-family="Helvetica,sans-Serif" font-size="10.00">configuration.ForParser.parse</text>
<text text-anchor="middle" x="713" y="-220.051" font-family="Helvetica,sans-Serif" font-size="10.00">Commands</text>
</a>
</g>
</g>
<!-- Node18&#45;&gt;Node19 -->
<g id="edge19" class="edge"><title>Node18&#45;&gt;Node19</title>
<path fill="none" stroke="midnightblue" d="M582.838,-242.466C600.214,-240.527 618.155,-238.525 634.934,-236.652"/>
<polygon fill="midnightblue" stroke="midnightblue" points="582.235,-239.012 572.685,-243.599 583.011,-245.969 582.235,-239.012"/>
</g>
<!-- Node19&#45;&gt;Node13 -->
<g id="edge20" class="edge"><title>Node19&#45;&gt;Node13</title>
<path fill="none" stroke="midnightblue" d="M801.077,-228.051C818.248,-228.051 836.153,-228.051 852.964,-228.051"/>
<polygon fill="midnightblue" stroke="midnightblue" points="801.066,-224.551 791.066,-228.051 801.066,-231.551 801.066,-224.551"/>
</g>
<!-- Node21 -->
<g id="node21" class="node"><title>Node21</title>
<g id="a_node21"><a xlink:href="../../d9/dfc/classconfiguration_1_1_dotimes_parser.html#a6086c4c4651b29dd968bf4728bd71d0c" target="_top" xlink:title="configuration.DotimesParser.parse\lCommands">
<polygon fill="white" stroke="black" points="622,-311.051 622,-341.051 804,-341.051 804,-311.051 622,-311.051"/>
<text text-anchor="start" x="630" y="-329.051" font-family="Helvetica,sans-Serif" font-size="10.00">configuration.DotimesParser.parse</text>
<text text-anchor="middle" x="713" y="-318.051" font-family="Helvetica,sans-Serif" font-size="10.00">Commands</text>
</a>
</g>
</g>
<!-- Node20&#45;&gt;Node21 -->
<g id="edge22" class="edge"><title>Node20&#45;&gt;Node21</title>
<path fill="none" stroke="midnightblue" d="M595.785,-327.607C604.488,-327.491 613.224,-327.374 621.783,-327.259"/>
<polygon fill="midnightblue" stroke="midnightblue" points="595.55,-324.11 585.598,-327.744 595.644,-331.109 595.55,-324.11"/>
</g>
<!-- Node21&#45;&gt;Node11 -->
<g id="edge23" class="edge"><title>Node21&#45;&gt;Node11</title>
<path fill="none" stroke="midnightblue" d="M814.081,-337.171C824.166,-338.291 834.344,-339.422 844.26,-340.524"/>
<polygon fill="midnightblue" stroke="midnightblue" points="814.365,-333.681 804.039,-336.055 813.592,-340.638 814.365,-333.681"/>
</g>
<!-- Node22&#45;&gt;Node5 -->
<g id="edge25" class="edge"><title>Node22&#45;&gt;Node5</title>
<path fill="none" stroke="midnightblue" d="M571.545,-153.894C603.357,-147.361 638.45,-140.155 665.6,-134.579"/>
<polygon fill="midnightblue" stroke="midnightblue" points="570.437,-150.549 561.346,-155.989 571.846,-157.406 570.437,-150.549"/>
</g>
<!-- Node22&#45;&gt;Node6 -->
<g id="edge26" class="edge"><title>Node22&#45;&gt;Node6</title>
<path fill="none" stroke="midnightblue" d="M580.144,-168.994C600.059,-168.55 620.839,-168.086 639.856,-167.661"/>
<polygon fill="midnightblue" stroke="midnightblue" points="580.057,-165.495 570.137,-169.217 580.213,-172.493 580.057,-165.495"/>
</g>
</g>
</svg>
