<?xml version="1.0" encoding="UTF-8" standalone="no"?>
<!DOCTYPE svg PUBLIC "-//W3C//DTD SVG 1.1//EN"
 "http://www.w3.org/Graphics/SVG/1.1/DTD/svg11.dtd">
<!-- Generated by graphviz version 2.36.0 (20140111.2315)
 -->
<!-- Title: configuration.Parser.buildTree Pages: 1 -->
<svg width="782pt" height="254pt"
 viewBox="0.00 0.00 782.00 254.00" xmlns="http://www.w3.org/2000/svg" xmlns:xlink="http://www.w3.org/1999/xlink">
<g id="graph0" class="graph" transform="scale(1 1) rotate(0) translate(4 250)">
<title>configuration.Parser.buildTree</title>
<polygon fill="white" stroke="none" points="-4,4 -4,-250 778,-250 778,4 -4,4"/>
<!-- Node1 -->
<g id="node1" class="node"><title>Node1</title>
<polygon fill="#bfbfbf" stroke="black" points="0,-113.5 0,-132.5 156,-132.5 156,-113.5 0,-113.5"/>
<text text-anchor="middle" x="78" y="-120.5" font-family="Helvetica,sans-Serif" font-size="10.00">configuration.Parser.buildTree</text>
</g>
<!-- Node2 -->
<g id="node2" class="node"><title>Node2</title>
<g id="a_node2"><a xlink:href="../../d9/d11/classconfiguration_1_1_parser.html#ae0480f44c9defa614fb470ab154fa60b" target="_top" xlink:title="configuration.Parser.buildTree">
<polygon fill="white" stroke="black" points="192,-113.5 192,-132.5 348,-132.5 348,-113.5 192,-113.5"/>
<text text-anchor="middle" x="270" y="-120.5" font-family="Helvetica,sans-Serif" font-size="10.00">configuration.Parser.buildTree</text>
</a>
</g>
</g>
<!-- Node1&#45;&gt;Node2 -->
<g id="edge1" class="edge"><title>Node1&#45;&gt;Node2</title>
<path fill="none" stroke="midnightblue" d="M156.006,-123C164.509,-123 173.211,-123 181.827,-123"/>
<polygon fill="midnightblue" stroke="midnightblue" points="181.884,-126.5 191.884,-123 181.884,-119.5 181.884,-126.5"/>
</g>
<!-- Node3 -->
<g id="node3" class="node"><title>Node3</title>
<g id="a_node3"><a xlink:href="../../d0/d3b/classcommands_1_1_user_made_utilities.html#ad6e90d3cccee9da7cf3df2c13fc70381" target="_top" xlink:title="commands.UserMadeUtilities.containsVars">
<polygon fill="white" stroke="black" points="384,-226.5 384,-245.5 606,-245.5 606,-226.5 384,-226.5"/>
<text text-anchor="middle" x="495" y="-233.5" font-family="Helvetica,sans-Serif" font-size="10.00">commands.UserMadeUtilities.containsVars</text>
</a>
</g>
</g>
<!-- Node1&#45;&gt;Node3 -->
<g id="edge9" class="edge"><title>Node1&#45;&gt;Node3</title>
<path fill="none" stroke="midnightblue" d="M92.1635,-132.54C112.506,-146.784 153.289,-173.39 192,-187 250.025,-207.401 317.348,-219.371 373.685,-226.364"/>
<polygon fill="midnightblue" stroke="midnightblue" points="373.362,-229.851 383.709,-227.571 374.199,-222.901 373.362,-229.851"/>
</g>
<!-- Node4 -->
<g id="node4" class="node"><title>Node4</title>
<g id="a_node4"><a xlink:href="../../da/dde/classconfiguration_1_1_util.html#a55c271426926996186d1cde227ae7e23" target="_top" xlink:title="configuration.Util.findCommandKey">
<polygon fill="white" stroke="black" points="402.5,-185.5 402.5,-204.5 587.5,-204.5 587.5,-185.5 402.5,-185.5"/>
<text text-anchor="middle" x="495" y="-192.5" font-family="Helvetica,sans-Serif" font-size="10.00">configuration.Util.findCommandKey</text>
</a>
</g>
</g>
<!-- Node1&#45;&gt;Node4 -->
<g id="edge10" class="edge"><title>Node1&#45;&gt;Node4</title>
<path fill="none" stroke="midnightblue" d="M103.294,-132.532C125.914,-141.027 160.746,-153.145 192,-160 257.916,-174.457 333.319,-183.204 392.291,-188.338"/>
<polygon fill="midnightblue" stroke="midnightblue" points="392.096,-191.833 402.356,-189.193 392.688,-184.859 392.096,-191.833"/>
</g>
<!-- Node6 -->
<g id="node6" class="node"><title>Node6</title>
<g id="a_node6"><a xlink:href="../../d0/d3b/classcommands_1_1_user_made_utilities.html#afc570f31a89922ff7a42f13839888c8f" target="_top" xlink:title="commands.UserMadeUtilities.get\lFromVars">
<polygon fill="white" stroke="black" points="407,-130 407,-160 583,-160 583,-130 407,-130"/>
<text text-anchor="start" x="415" y="-148" font-family="Helvetica,sans-Serif" font-size="10.00">commands.UserMadeUtilities.get</text>
<text text-anchor="middle" x="495" y="-137" font-family="Helvetica,sans-Serif" font-size="10.00">FromVars</text>
</a>
</g>
</g>
<!-- Node1&#45;&gt;Node6 -->
<g id="edge11" class="edge"><title>Node1&#45;&gt;Node6</title>
<path fill="none" stroke="midnightblue" d="M125.52,-132.508C145.839,-136.223 170.004,-140.054 192,-142 260.258,-148.04 337.53,-148.695 396.823,-147.889"/>
<polygon fill="midnightblue" stroke="midnightblue" points="396.982,-151.387 406.928,-147.735 396.876,-144.388 396.982,-151.387"/>
</g>
<!-- Node7 -->
<g id="node7" class="node"><title>Node7</title>
<g id="a_node7"><a xlink:href="../../d9/d11/classconfiguration_1_1_parser.html#a6a8ca49b46db578a3d9e84b0c4ce2f75" target="_top" xlink:title="configuration.Parser.isCommand">
<polygon fill="white" stroke="black" points="409,-78.5 409,-97.5 581,-97.5 581,-78.5 409,-78.5"/>
<text text-anchor="middle" x="495" y="-85.5" font-family="Helvetica,sans-Serif" font-size="10.00">configuration.Parser.isCommand</text>
</a>
</g>
</g>
<!-- Node1&#45;&gt;Node7 -->
<g id="edge12" class="edge"><title>Node1&#45;&gt;Node7</title>
<path fill="none" stroke="midnightblue" d="M128.335,-113.454C148.064,-109.964 171.04,-106.31 192,-104 260.944,-96.4023 339.155,-92.3853 398.709,-90.2766"/>
<polygon fill="midnightblue" stroke="midnightblue" points="398.977,-93.7696 408.852,-89.9295 398.738,-86.7737 398.977,-93.7696"/>
</g>
<!-- Node8 -->
<g id="node8" class="node"><title>Node8</title>
<g id="a_node8"><a xlink:href="../../d9/d11/classconfiguration_1_1_parser.html#af0032734232f2e6043d7c8c94d86dd1f" target="_top" xlink:title="configuration.Parser.isConstant">
<polygon fill="white" stroke="black" points="412.5,-38.5 412.5,-57.5 577.5,-57.5 577.5,-38.5 412.5,-38.5"/>
<text text-anchor="middle" x="495" y="-45.5" font-family="Helvetica,sans-Serif" font-size="10.00">configuration.Parser.isConstant</text>
</a>
</g>
</g>
<!-- Node1&#45;&gt;Node8 -->
<g id="edge13" class="edge"><title>Node1&#45;&gt;Node8</title>
<path fill="none" stroke="midnightblue" d="M106.544,-113.384C129.231,-105.787 162.369,-95.4274 192,-89 261.778,-73.8644 341.906,-63.2932 402.084,-56.68"/>
<polygon fill="midnightblue" stroke="midnightblue" points="402.757,-60.1277 412.322,-55.5719 402.004,-53.1684 402.757,-60.1277"/>
</g>
<!-- Node9 -->
<g id="node9" class="node"><title>Node9</title>
<g id="a_node9"><a xlink:href="../../d9/d11/classconfiguration_1_1_parser.html#a061c6e2e973a9e7f531931f61f45448b" target="_top" xlink:title="configuration.Parser.isVariable">
<polygon fill="white" stroke="black" points="415,-0.5 415,-19.5 575,-19.5 575,-0.5 415,-0.5"/>
<text text-anchor="middle" x="495" y="-7.5" font-family="Helvetica,sans-Serif" font-size="10.00">configuration.Parser.isVariable</text>
</a>
</g>
</g>
<!-- Node1&#45;&gt;Node9 -->
<g id="edge14" class="edge"><title>Node1&#45;&gt;Node9</title>
<path fill="none" stroke="midnightblue" d="M92.532,-113.401C113.026,-99.3549 153.623,-73.4173 192,-60 261.262,-35.7845 343.655,-23.1456 404.871,-16.6397"/>
<polygon fill="midnightblue" stroke="midnightblue" points="405.302,-20.1139 414.892,-15.6092 404.586,-13.1506 405.302,-20.1139"/>
</g>
<!-- Node2&#45;&gt;Node3 -->
<g id="edge2" class="edge"><title>Node2&#45;&gt;Node3</title>
<path fill="none" stroke="midnightblue" d="M279.885,-132.783C297.668,-151.708 339.74,-193.289 384,-214 392.51,-217.982 401.719,-221.245 411.061,-223.918"/>
<polygon fill="midnightblue" stroke="midnightblue" points="410.259,-227.326 420.821,-226.495 412.046,-220.558 410.259,-227.326"/>
</g>
<!-- Node2&#45;&gt;Node4 -->
<g id="edge3" class="edge"><title>Node2&#45;&gt;Node4</title>
<path fill="none" stroke="midnightblue" d="M291.883,-132.64C314.294,-142.714 351.113,-158.489 384,-169 400.875,-174.394 419.529,-179.216 436.607,-183.201"/>
<polygon fill="midnightblue" stroke="midnightblue" points="435.928,-186.635 446.456,-185.447 437.485,-179.811 435.928,-186.635"/>
</g>
<!-- Node2&#45;&gt;Node6 -->
<g id="edge5" class="edge"><title>Node2&#45;&gt;Node6</title>
<path fill="none" stroke="midnightblue" d="M348.056,-130.602C363.694,-132.145 380.335,-133.786 396.571,-135.388"/>
<polygon fill="midnightblue" stroke="midnightblue" points="396.32,-138.88 406.616,-136.379 397.008,-131.914 396.32,-138.88"/>
</g>
<!-- Node2&#45;&gt;Node7 -->
<g id="edge6" class="edge"><title>Node2&#45;&gt;Node7</title>
<path fill="none" stroke="midnightblue" d="M331.641,-113.482C359.907,-109.046 393.723,-103.739 423.158,-99.1187"/>
<polygon fill="midnightblue" stroke="midnightblue" points="424.035,-102.524 433.371,-97.5158 422.949,-95.6087 424.035,-102.524"/>
</g>
<!-- Node2&#45;&gt;Node8 -->
<g id="edge7" class="edge"><title>Node2&#45;&gt;Node8</title>
<path fill="none" stroke="midnightblue" d="M287.662,-113.352C309.221,-101.269 348.261,-80.7331 384,-69 395.184,-65.3282 407.231,-62.2185 419.107,-59.6105"/>
<polygon fill="midnightblue" stroke="midnightblue" points="419.949,-63.0103 429.02,-57.5364 418.515,-56.1586 419.949,-63.0103"/>
</g>
<!-- Node2&#45;&gt;Node9 -->
<g id="edge8" class="edge"><title>Node2&#45;&gt;Node9</title>
<path fill="none" stroke="midnightblue" d="M279.229,-113.384C296.475,-93.9269 338.588,-49.9618 384,-29 390.653,-25.9288 397.741,-23.3504 404.99,-21.1861"/>
<polygon fill="midnightblue" stroke="midnightblue" points="406.214,-24.4806 414.949,-18.4842 404.381,-17.7249 406.214,-24.4806"/>
</g>
<!-- Node5 -->
<g id="node5" class="node"><title>Node5</title>
<g id="a_node5"><a xlink:href="../../da/dde/classconfiguration_1_1_util.html#a163b0098613bf2f7becf27b131af3934" target="_top" xlink:title="configuration.Util.match">
<polygon fill="white" stroke="black" points="642.5,-185.5 642.5,-204.5 773.5,-204.5 773.5,-185.5 642.5,-185.5"/>
<text text-anchor="middle" x="708" y="-192.5" font-family="Helvetica,sans-Serif" font-size="10.00">configuration.Util.match</text>
</a>
</g>
</g>
<!-- Node4&#45;&gt;Node5 -->
<g id="edge4" class="edge"><title>Node4&#45;&gt;Node5</title>
<path fill="none" stroke="midnightblue" d="M587.627,-195C602.483,-195 617.713,-195 632.11,-195"/>
<polygon fill="midnightblue" stroke="midnightblue" points="632.429,-198.5 642.429,-195 632.429,-191.5 632.429,-198.5"/>
</g>
</g>
</svg>
