<?xml version="1.0" encoding="UTF-8" standalone="no"?>
<!DOCTYPE svg PUBLIC "-//W3C//DTD SVG 1.1//EN"
 "http://www.w3.org/Graphics/SVG/1.1/DTD/svg11.dtd">
<!-- Generated by graphviz version 2.36.0 (20140111.2315)
 -->
<!-- Title: configuration.Parser.initializeSets Pages: 1 -->
<svg width="550pt" height="28pt"
 viewBox="0.00 0.00 550.00 28.00" xmlns="http://www.w3.org/2000/svg" xmlns:xlink="http://www.w3.org/1999/xlink">
<g id="graph0" class="graph" transform="scale(1 1) rotate(0) translate(4 24)">
<title>configuration.Parser.initializeSets</title>
<polygon fill="white" stroke="none" points="-4,4 -4,-24 546,-24 546,4 -4,4"/>
<!-- Node1 -->
<g id="node1" class="node"><title>Node1</title>
<polygon fill="#bfbfbf" stroke="black" points="0,-0.5 0,-19.5 174,-19.5 174,-0.5 0,-0.5"/>
<text text-anchor="middle" x="87" y="-7.5" font-family="Helvetica,sans-Serif" font-size="10.00">configuration.Parser.initializeSets</text>
</g>
<!-- Node2 -->
<g id="node2" class="node"><title>Node2</title>
<g id="a_node2"><a xlink:href="../../d9/d11/classconfiguration_1_1_parser.html#a7dc7b5e5d519030e3b00c4e040f25ca8" target="_top" xlink:title="configuration.Parser.initialize">
<polygon fill="white" stroke="black" points="210,-0.5 210,-19.5 362,-19.5 362,-0.5 210,-0.5"/>
<text text-anchor="middle" x="286" y="-7.5" font-family="Helvetica,sans-Serif" font-size="10.00">configuration.Parser.initialize</text>
</a>
</g>
</g>
<!-- Node1&#45;&gt;Node2 -->
<g id="edge1" class="edge"><title>Node1&#45;&gt;Node2</title>
<path fill="none" stroke="midnightblue" d="M184.209,-10C192.825,-10 201.465,-10 209.865,-10"/>
<polygon fill="midnightblue" stroke="midnightblue" points="184.121,-6.5001 174.12,-10 184.12,-13.5001 184.121,-6.5001"/>
</g>
<!-- Node3 -->
<g id="node3" class="node"><title>Node3</title>
<g id="a_node3"><a xlink:href="../../d9/d11/classconfiguration_1_1_parser.html#ae8e2d2603bed9523a72f4f5c64924f31" target="_top" xlink:title="configuration.Parser.Parser">
<polygon fill="white" stroke="black" points="398,-0.5 398,-19.5 542,-19.5 542,-0.5 398,-0.5"/>
<text text-anchor="middle" x="470" y="-7.5" font-family="Helvetica,sans-Serif" font-size="10.00">configuration.Parser.Parser</text>
</a>
</g>
</g>
<!-- Node2&#45;&gt;Node3 -->
<g id="edge2" class="edge"><title>Node2&#45;&gt;Node3</title>
<path fill="none" stroke="midnightblue" d="M372.144,-10C380.762,-10 389.451,-10 397.899,-10"/>
<polygon fill="midnightblue" stroke="midnightblue" points="372.077,-6.5001 362.077,-10 372.077,-13.5001 372.077,-6.5001"/>
</g>
</g>
</svg>
