<?xml version="1.0" encoding="UTF-8" standalone="no"?>
<!DOCTYPE svg PUBLIC "-//W3C//DTD SVG 1.1//EN"
 "http://www.w3.org/Graphics/SVG/1.1/DTD/svg11.dtd">
<!-- Generated by graphviz version 2.36.0 (20140111.2315)
 -->
<!-- Title: configuration.Parser.isConstant Pages: 1 -->
<svg width="1036pt" height="443pt"
 viewBox="0.00 0.00 1036.00 443.00" xmlns="http://www.w3.org/2000/svg" xmlns:xlink="http://www.w3.org/1999/xlink">
<g id="graph0" class="graph" transform="scale(1 1) rotate(0) translate(4 439)">
<title>configuration.Parser.isConstant</title>
<polygon fill="white" stroke="none" points="-4,4 -4,-439 1032,-439 1032,4 -4,4"/>
<!-- Node1 -->
<g id="node1" class="node"><title>Node1</title>
<polygon fill="#bfbfbf" stroke="black" points="0.5,-196.5 0.5,-215.5 165.5,-215.5 165.5,-196.5 0.5,-196.5"/>
<text text-anchor="middle" x="83" y="-203.5" font-family="Helvetica,sans-Serif" font-size="10.00">configuration.Parser.isConstant</text>
</g>
<!-- Node2 -->
<g id="node2" class="node"><title>Node2</title>
<g id="a_node2"><a xlink:href="../../d9/d11/classconfiguration_1_1_parser.html#ae0480f44c9defa614fb470ab154fa60b" target="_top" xlink:title="configuration.Parser.buildTree">
<polygon fill="white" stroke="black" points="202,-196.5 202,-215.5 358,-215.5 358,-196.5 202,-196.5"/>
<text text-anchor="middle" x="280" y="-203.5" font-family="Helvetica,sans-Serif" font-size="10.00">configuration.Parser.buildTree</text>
</a>
</g>
</g>
<!-- Node1&#45;&gt;Node2 -->
<g id="edge1" class="edge"><title>Node1&#45;&gt;Node2</title>
<path fill="none" stroke="midnightblue" d="M175.756,-206C184.474,-206 193.252,-206 201.813,-206"/>
<polygon fill="midnightblue" stroke="midnightblue" points="175.568,-202.5 165.568,-206 175.568,-209.5 175.568,-202.5"/>
</g>
<!-- Node3 -->
<g id="node3" class="node"><title>Node3</title>
<g id="a_node3"><a xlink:href="../../d9/d11/classconfiguration_1_1_parser.html#a041ccb70bd9dee77d512d8469c15c14f" target="_top" xlink:title="configuration.Parser.buildTree">
<polygon fill="white" stroke="black" points="415,-415.5 415,-434.5 571,-434.5 571,-415.5 415,-415.5"/>
<text text-anchor="middle" x="493" y="-422.5" font-family="Helvetica,sans-Serif" font-size="10.00">configuration.Parser.buildTree</text>
</a>
</g>
</g>
<!-- Node2&#45;&gt;Node3 -->
<g id="edge2" class="edge"><title>Node2&#45;&gt;Node3</title>
<path fill="none" stroke="midnightblue" d="M286.156,-225.547C297.906,-266.019 330.676,-359.039 394,-405 400.324,-409.59 407.453,-413.184 414.908,-415.991"/>
<polygon fill="midnightblue" stroke="midnightblue" points="289.501,-224.512 283.447,-215.817 282.758,-226.389 289.501,-224.512"/>
</g>
<!-- Node4 -->
<g id="node4" class="node"><title>Node4</title>
<g id="a_node4"><a xlink:href="../../d7/d56/classconfiguration_1_1_ifelse_parser.html#aef13959a758ccbf8dab0a3f5f94a7be0" target="_top" xlink:title="configuration.IfelseParser.evaluate\lBoolExpr">
<polygon fill="white" stroke="black" points="403,-317 403,-347 583,-347 583,-317 403,-317"/>
<text text-anchor="start" x="411" y="-335" font-family="Helvetica,sans-Serif" font-size="10.00">configuration.IfelseParser.evaluate</text>
<text text-anchor="middle" x="493" y="-324" font-family="Helvetica,sans-Serif" font-size="10.00">BoolExpr</text>
</a>
</g>
</g>
<!-- Node2&#45;&gt;Node4 -->
<g id="edge3" class="edge"><title>Node2&#45;&gt;Node4</title>
<path fill="none" stroke="midnightblue" d="M296.644,-223.023C317.101,-244.335 354.952,-280.635 394,-302 404.927,-307.978 417.205,-312.931 429.279,-316.97"/>
<polygon fill="midnightblue" stroke="midnightblue" points="299.097,-220.523 289.689,-215.65 294.006,-225.326 299.097,-220.523"/>
</g>
<!-- Node7 -->
<g id="node7" class="node"><title>Node7</title>
<g id="a_node7"><a xlink:href="../../d3/d0d/classconfiguration_1_1_repeat_parser.html#ab218ee8c24e4dab18c02cd4a536d15d3" target="_top" xlink:title="configuration.RepeatParser.fetch\lNumericExpr">
<polygon fill="white" stroke="black" points="633.5,-286 633.5,-316 804.5,-316 804.5,-286 633.5,-286"/>
<text text-anchor="start" x="641.5" y="-304" font-family="Helvetica,sans-Serif" font-size="10.00">configuration.RepeatParser.fetch</text>
<text text-anchor="middle" x="719" y="-293" font-family="Helvetica,sans-Serif" font-size="10.00">NumericExpr</text>
</a>
</g>
</g>
<!-- Node2&#45;&gt;Node7 -->
<g id="edge6" class="edge"><title>Node2&#45;&gt;Node7</title>
<path fill="none" stroke="midnightblue" d="M302.302,-221.413C324.156,-236.345 359.713,-258.261 394,-269 472.617,-293.623 566.738,-300.581 633.225,-302.007"/>
<polygon fill="midnightblue" stroke="midnightblue" points="304.293,-218.535 294.088,-215.686 300.289,-224.277 304.293,-218.535"/>
</g>
<!-- Node9 -->
<g id="node9" class="node"><title>Node9</title>
<g id="a_node9"><a xlink:href="../../d9/dfc/classconfiguration_1_1_dotimes_parser.html#a26cc7f8e0a21d93091bfe8884a924450" target="_top" xlink:title="configuration.DotimesParser.fetch\lNumericExpr">
<polygon fill="white" stroke="black" points="403.5,-191 403.5,-221 582.5,-221 582.5,-191 403.5,-191"/>
<text text-anchor="start" x="411.5" y="-209" font-family="Helvetica,sans-Serif" font-size="10.00">configuration.DotimesParser.fetch</text>
<text text-anchor="middle" x="493" y="-198" font-family="Helvetica,sans-Serif" font-size="10.00">NumericExpr</text>
</a>
</g>
</g>
<!-- Node2&#45;&gt;Node9 -->
<g id="edge8" class="edge"><title>Node2&#45;&gt;Node9</title>
<path fill="none" stroke="midnightblue" d="M368.182,-206C379.792,-206 391.708,-206 403.344,-206"/>
<polygon fill="midnightblue" stroke="midnightblue" points="368.072,-202.5 358.071,-206 368.071,-209.5 368.072,-202.5"/>
</g>
<!-- Node12 -->
<g id="node12" class="node"><title>Node12</title>
<g id="a_node12"><a xlink:href="../../dc/d64/classconfiguration_1_1_for_parser.html#a95aeb8afdb254389dcef062be1cf2727" target="_top" xlink:title="configuration.ForParser.fetch\lNumericExpr">
<polygon fill="white" stroke="black" points="642.5,-90 642.5,-120 795.5,-120 795.5,-90 642.5,-90"/>
<text text-anchor="start" x="650.5" y="-108" font-family="Helvetica,sans-Serif" font-size="10.00">configuration.ForParser.fetch</text>
<text text-anchor="middle" x="719" y="-97" font-family="Helvetica,sans-Serif" font-size="10.00">NumericExpr</text>
</a>
</g>
</g>
<!-- Node2&#45;&gt;Node12 -->
<g id="edge11" class="edge"><title>Node2&#45;&gt;Node12</title>
<path fill="none" stroke="midnightblue" d="M302.636,-190.521C324.547,-175.696 359.965,-154.003 394,-143 476.182,-116.432 575.427,-108.033 642.243,-105.584"/>
<polygon fill="midnightblue" stroke="midnightblue" points="300.358,-187.841 294.117,-196.403 304.335,-193.602 300.358,-187.841"/>
</g>
<!-- Node14 -->
<g id="node14" class="node"><title>Node14</title>
<g id="a_node14"><a xlink:href="../../db/d22/classconfiguration_1_1_set_parser.html#a4f20258805caaf18872872d5283a0e74" target="_top" xlink:title="configuration.SetParser.parse">
<polygon fill="white" stroke="black" points="414,-38.5 414,-57.5 572,-57.5 572,-38.5 414,-38.5"/>
<text text-anchor="middle" x="493" y="-45.5" font-family="Helvetica,sans-Serif" font-size="10.00">configuration.SetParser.parse</text>
</a>
</g>
</g>
<!-- Node2&#45;&gt;Node14 -->
<g id="edge13" class="edge"><title>Node2&#45;&gt;Node14</title>
<path fill="none" stroke="midnightblue" d="M290.602,-187.163C307.222,-156.623 344.387,-96.7299 394,-67 400.467,-63.1249 407.565,-60.0182 414.894,-57.5306"/>
<polygon fill="midnightblue" stroke="midnightblue" points="287.347,-185.833 285.766,-196.309 293.535,-189.105 287.347,-185.833"/>
</g>
<!-- Node15 -->
<g id="node15" class="node"><title>Node15</title>
<g id="a_node15"><a xlink:href="../../d0/da7/classconfiguration_1_1_basic_parser.html#a22bf37b374167e497f639182e7459517" target="_top" xlink:title="configuration.BasicParser.parse">
<polygon fill="white" stroke="black" points="409.5,-0.5 409.5,-19.5 576.5,-19.5 576.5,-0.5 409.5,-0.5"/>
<text text-anchor="middle" x="493" y="-7.5" font-family="Helvetica,sans-Serif" font-size="10.00">configuration.BasicParser.parse</text>
</a>
</g>
</g>
<!-- Node2&#45;&gt;Node15 -->
<g id="edge14" class="edge"><title>Node2&#45;&gt;Node15</title>
<path fill="none" stroke="midnightblue" d="M287.409,-186.802C300.824,-149.794 335.55,-68.7356 394,-29 399.59,-25.2 405.751,-22.1169 412.179,-19.6204"/>
<polygon fill="midnightblue" stroke="midnightblue" points="284.053,-185.797 284.058,-196.391 290.661,-188.106 284.053,-185.797"/>
</g>
<!-- Node16 -->
<g id="node16" class="node"><title>Node16</title>
<g id="a_node16"><a xlink:href="../../d3/d0d/classconfiguration_1_1_repeat_parser.html#a27c7e86622dda996677d34987f702cb6" target="_top" xlink:title="configuration.RepeatParser.parseFor">
<polygon fill="white" stroke="black" points="398.5,-240.5 398.5,-259.5 587.5,-259.5 587.5,-240.5 398.5,-240.5"/>
<text text-anchor="middle" x="493" y="-247.5" font-family="Helvetica,sans-Serif" font-size="10.00">configuration.RepeatParser.parseFor</text>
</a>
</g>
</g>
<!-- Node2&#45;&gt;Node16 -->
<g id="edge15" class="edge"><title>Node2&#45;&gt;Node16</title>
<path fill="none" stroke="midnightblue" d="M335.565,-217.681C354.105,-221.625 374.948,-226.033 394,-230 410.49,-233.434 428.553,-237.137 444.631,-240.412"/>
<polygon fill="midnightblue" stroke="midnightblue" points="336.038,-214.203 325.529,-215.543 334.58,-221.049 336.038,-214.203"/>
</g>
<!-- Node18 -->
<g id="node18" class="node"><title>Node18</title>
<g id="a_node18"><a xlink:href="../../dc/d64/classconfiguration_1_1_for_parser.html#a6bc38f731ac658c5860fe092ba7689ac" target="_top" xlink:title="configuration.ForParser.parseFor">
<polygon fill="white" stroke="black" points="407.5,-76.5 407.5,-95.5 578.5,-95.5 578.5,-76.5 407.5,-76.5"/>
<text text-anchor="middle" x="493" y="-83.5" font-family="Helvetica,sans-Serif" font-size="10.00">configuration.ForParser.parseFor</text>
</a>
</g>
</g>
<!-- Node2&#45;&gt;Node18 -->
<g id="edge18" class="edge"><title>Node2&#45;&gt;Node18</title>
<path fill="none" stroke="midnightblue" d="M296.147,-188.956C316.331,-167.315 354.157,-130.349 394,-110 406.324,-103.706 420.374,-99.0107 433.912,-95.5272"/>
<polygon fill="midnightblue" stroke="midnightblue" points="293.474,-186.692 289.307,-196.434 298.639,-191.417 293.474,-186.692"/>
</g>
<!-- Node20 -->
<g id="node20" class="node"><title>Node20</title>
<g id="a_node20"><a xlink:href="../../d9/dfc/classconfiguration_1_1_dotimes_parser.html#aff41ee5ce2eeff82f7586bd1cf6a91c8" target="_top" xlink:title="configuration.DotimesParser.parseFor">
<polygon fill="white" stroke="black" points="394.5,-152.5 394.5,-171.5 591.5,-171.5 591.5,-152.5 394.5,-152.5"/>
<text text-anchor="middle" x="493" y="-159.5" font-family="Helvetica,sans-Serif" font-size="10.00">configuration.DotimesParser.parseFor</text>
</a>
</g>
</g>
<!-- Node2&#45;&gt;Node20 -->
<g id="edge21" class="edge"><title>Node2&#45;&gt;Node20</title>
<path fill="none" stroke="midnightblue" d="M335.565,-194.319C354.105,-190.375 374.948,-185.967 394,-182 410.49,-178.566 428.553,-174.863 444.631,-171.588"/>
<polygon fill="midnightblue" stroke="midnightblue" points="334.58,-190.951 325.529,-196.457 336.038,-197.797 334.58,-190.951"/>
</g>
<!-- Node22 -->
<g id="node22" class="node"><title>Node22</title>
<g id="a_node22"><a xlink:href="../../d7/d56/classconfiguration_1_1_ifelse_parser.html#aeb471eacbe15e095075bdd09619fe15d" target="_top" xlink:title="configuration.IfelseParser.parse\lListCommands">
<polygon fill="white" stroke="black" points="410,-366 410,-396 576,-396 576,-366 410,-366"/>
<text text-anchor="start" x="418" y="-384" font-family="Helvetica,sans-Serif" font-size="10.00">configuration.IfelseParser.parse</text>
<text text-anchor="middle" x="493" y="-373" font-family="Helvetica,sans-Serif" font-size="10.00">ListCommands</text>
</a>
</g>
</g>
<!-- Node2&#45;&gt;Node22 -->
<g id="edge24" class="edge"><title>Node2&#45;&gt;Node22</title>
<path fill="none" stroke="midnightblue" d="M289.964,-225.097C306.077,-257.271 343.065,-322.083 394,-356 399.846,-359.893 406.258,-363.179 412.916,-365.954"/>
<polygon fill="midnightblue" stroke="midnightblue" points="293,-223.337 285.475,-215.878 286.706,-226.401 293,-223.337"/>
</g>
<!-- Node5 -->
<g id="node5" class="node"><title>Node5</title>
<g id="a_node5"><a xlink:href="../../d7/d56/classconfiguration_1_1_ifelse_parser.html#a4b806589536dd338338d515a0fdb67ed" target="_top" xlink:title="configuration.IfelseParser.parse">
<polygon fill="white" stroke="black" points="636,-373.5 636,-392.5 802,-392.5 802,-373.5 636,-373.5"/>
<text text-anchor="middle" x="719" y="-380.5" font-family="Helvetica,sans-Serif" font-size="10.00">configuration.IfelseParser.parse</text>
</a>
</g>
</g>
<!-- Node4&#45;&gt;Node5 -->
<g id="edge4" class="edge"><title>Node4&#45;&gt;Node5</title>
<path fill="none" stroke="midnightblue" d="M565.39,-349.417C585.605,-354.249 607.646,-359.422 628,-364 642.178,-367.189 657.648,-370.511 671.701,-373.47"/>
<polygon fill="midnightblue" stroke="midnightblue" points="566.169,-346.005 555.629,-347.077 564.537,-352.812 566.169,-346.005"/>
</g>
<!-- Node6 -->
<g id="node6" class="node"><title>Node6</title>
<g id="a_node6"><a xlink:href="../../dc/dd1/classconfiguration_1_1_if_parser.html#ab4ed2d3b7778d2b1206e5d26ebac7976" target="_top" xlink:title="configuration.IfParser.parse">
<polygon fill="white" stroke="black" points="646,-335.5 646,-354.5 792,-354.5 792,-335.5 646,-335.5"/>
<text text-anchor="middle" x="719" y="-342.5" font-family="Helvetica,sans-Serif" font-size="10.00">configuration.IfParser.parse</text>
</a>
</g>
</g>
<!-- Node4&#45;&gt;Node6 -->
<g id="edge5" class="edge"><title>Node4&#45;&gt;Node6</title>
<path fill="none" stroke="midnightblue" d="M593.457,-337.772C611.027,-338.792 629.013,-339.836 645.658,-340.802"/>
<polygon fill="midnightblue" stroke="midnightblue" points="593.36,-334.261 583.174,-337.175 592.955,-341.249 593.36,-334.261"/>
</g>
<!-- Node8 -->
<g id="node8" class="node"><title>Node8</title>
<g id="a_node8"><a xlink:href="../../d3/d0d/classconfiguration_1_1_repeat_parser.html#abf20b0ae25909c1cdff93f509830b502" target="_top" xlink:title="configuration.RepeatParser.parse">
<polygon fill="white" stroke="black" points="850,-266.5 850,-285.5 1024,-285.5 1024,-266.5 850,-266.5"/>
<text text-anchor="middle" x="937" y="-273.5" font-family="Helvetica,sans-Serif" font-size="10.00">configuration.RepeatParser.parse</text>
</a>
</g>
</g>
<!-- Node7&#45;&gt;Node8 -->
<g id="edge7" class="edge"><title>Node7&#45;&gt;Node8</title>
<path fill="none" stroke="midnightblue" d="M815.003,-290.004C827.873,-288.515 840.993,-286.996 853.617,-285.535"/>
<polygon fill="midnightblue" stroke="midnightblue" points="814.28,-286.564 804.749,-291.191 815.085,-293.518 814.28,-286.564"/>
</g>
<!-- Node10 -->
<g id="node10" class="node"><title>Node10</title>
<g id="a_node10"><a xlink:href="../../d9/dfc/classconfiguration_1_1_dotimes_parser.html#a63d34c400b9b5715b4a2f9a5d0107e62" target="_top" xlink:title="configuration.DotimesParser.parse\lDotimesIterator">
<polygon fill="white" stroke="black" points="628,-188 628,-218 810,-218 810,-188 628,-188"/>
<text text-anchor="start" x="636" y="-206" font-family="Helvetica,sans-Serif" font-size="10.00">configuration.DotimesParser.parse</text>
<text text-anchor="middle" x="719" y="-195" font-family="Helvetica,sans-Serif" font-size="10.00">DotimesIterator</text>
</a>
</g>
</g>
<!-- Node9&#45;&gt;Node10 -->
<g id="edge9" class="edge"><title>Node9&#45;&gt;Node10</title>
<path fill="none" stroke="midnightblue" d="M592.748,-204.677C604.446,-204.521 616.34,-204.362 627.909,-204.207"/>
<polygon fill="midnightblue" stroke="midnightblue" points="592.483,-201.181 582.531,-204.814 592.577,-208.18 592.483,-201.181"/>
</g>
<!-- Node11 -->
<g id="node11" class="node"><title>Node11</title>
<g id="a_node11"><a xlink:href="../../d9/dfc/classconfiguration_1_1_dotimes_parser.html#abf0eb9bddfa4a09adc745008e17b293b" target="_top" xlink:title="configuration.DotimesParser.parse">
<polygon fill="white" stroke="black" points="846,-168.5 846,-187.5 1028,-187.5 1028,-168.5 846,-168.5"/>
<text text-anchor="middle" x="937" y="-175.5" font-family="Helvetica,sans-Serif" font-size="10.00">configuration.DotimesParser.parse</text>
</a>
</g>
</g>
<!-- Node10&#45;&gt;Node11 -->
<g id="edge10" class="edge"><title>Node10&#45;&gt;Node11</title>
<path fill="none" stroke="midnightblue" d="M820.272,-191.394C831.464,-190.099 842.767,-188.791 853.698,-187.526"/>
<polygon fill="midnightblue" stroke="midnightblue" points="819.571,-187.952 810.039,-192.579 820.375,-194.906 819.571,-187.952"/>
</g>
<!-- Node13 -->
<g id="node13" class="node"><title>Node13</title>
<g id="a_node13"><a xlink:href="../../dc/d64/classconfiguration_1_1_for_parser.html#a2737b422e279cfca7c64fd8eff57d3ff" target="_top" xlink:title="configuration.ForParser.parse">
<polygon fill="white" stroke="black" points="859,-71.5 859,-90.5 1015,-90.5 1015,-71.5 859,-71.5"/>
<text text-anchor="middle" x="937" y="-78.5" font-family="Helvetica,sans-Serif" font-size="10.00">configuration.ForParser.parse</text>
</a>
</g>
</g>
<!-- Node12&#45;&gt;Node13 -->
<g id="edge12" class="edge"><title>Node12&#45;&gt;Node13</title>
<path fill="none" stroke="midnightblue" d="M805.729,-95.4745C823.208,-93.5324 841.501,-91.4998 858.667,-89.5925"/>
<polygon fill="midnightblue" stroke="midnightblue" points="805.099,-92.023 795.546,-96.606 805.872,-98.9802 805.099,-92.023"/>
</g>
<!-- Node17 -->
<g id="node17" class="node"><title>Node17</title>
<g id="a_node17"><a xlink:href="../../d3/d0d/classconfiguration_1_1_repeat_parser.html#aed07d335bcd1174cb4247a7add0d3315" target="_top" xlink:title="configuration.RepeatParser.parse\lCommands">
<polygon fill="white" stroke="black" points="632,-237 632,-267 806,-267 806,-237 632,-237"/>
<text text-anchor="start" x="640" y="-255" font-family="Helvetica,sans-Serif" font-size="10.00">configuration.RepeatParser.parse</text>
<text text-anchor="middle" x="719" y="-244" font-family="Helvetica,sans-Serif" font-size="10.00">Commands</text>
</a>
</g>
</g>
<!-- Node16&#45;&gt;Node17 -->
<g id="edge16" class="edge"><title>Node16&#45;&gt;Node17</title>
<path fill="none" stroke="midnightblue" d="M598.039,-250.929C609.348,-251.03 620.765,-251.132 631.826,-251.231"/>
<polygon fill="midnightblue" stroke="midnightblue" points="597.729,-247.426 587.698,-250.837 597.667,-254.426 597.729,-247.426"/>
</g>
<!-- Node17&#45;&gt;Node8 -->
<g id="edge17" class="edge"><title>Node17&#45;&gt;Node8</title>
<path fill="none" stroke="midnightblue" d="M816.538,-262.726C827.752,-263.972 839.133,-265.237 850.189,-266.465"/>
<polygon fill="midnightblue" stroke="midnightblue" points="816.626,-259.215 806.3,-261.589 815.852,-266.172 816.626,-259.215"/>
</g>
<!-- Node19 -->
<g id="node19" class="node"><title>Node19</title>
<g id="a_node19"><a xlink:href="../../dc/d64/classconfiguration_1_1_for_parser.html#ad3cb5184cf449bd3414f3ba73a8b3104" target="_top" xlink:title="configuration.ForParser.parse\lCommands">
<polygon fill="white" stroke="black" points="641,-41 641,-71 797,-71 797,-41 641,-41"/>
<text text-anchor="start" x="649" y="-59" font-family="Helvetica,sans-Serif" font-size="10.00">configuration.ForParser.parse</text>
<text text-anchor="middle" x="719" y="-48" font-family="Helvetica,sans-Serif" font-size="10.00">Commands</text>
</a>
</g>
</g>
<!-- Node18&#45;&gt;Node19 -->
<g id="edge19" class="edge"><title>Node18&#45;&gt;Node19</title>
<path fill="none" stroke="midnightblue" d="M575.211,-75.1236C596.604,-72.2584 619.621,-69.1757 640.797,-66.3397"/>
<polygon fill="midnightblue" stroke="midnightblue" points="574.63,-71.67 565.183,-76.4666 575.559,-78.6081 574.63,-71.67"/>
</g>
<!-- Node19&#45;&gt;Node13 -->
<g id="edge20" class="edge"><title>Node19&#45;&gt;Node13</title>
<path fill="none" stroke="midnightblue" d="M807.077,-66.0784C824.248,-68.0658 842.153,-70.138 858.964,-72.0837"/>
<polygon fill="midnightblue" stroke="midnightblue" points="807.402,-62.5927 797.066,-64.9197 806.597,-69.5463 807.402,-62.5927"/>
</g>
<!-- Node21 -->
<g id="node21" class="node"><title>Node21</title>
<g id="a_node21"><a xlink:href="../../d9/dfc/classconfiguration_1_1_dotimes_parser.html#a6086c4c4651b29dd968bf4728bd71d0c" target="_top" xlink:title="configuration.DotimesParser.parse\lCommands">
<polygon fill="white" stroke="black" points="628,-139 628,-169 810,-169 810,-139 628,-139"/>
<text text-anchor="start" x="636" y="-157" font-family="Helvetica,sans-Serif" font-size="10.00">configuration.DotimesParser.parse</text>
<text text-anchor="middle" x="719" y="-146" font-family="Helvetica,sans-Serif" font-size="10.00">Commands</text>
</a>
</g>
</g>
<!-- Node20&#45;&gt;Node21 -->
<g id="edge22" class="edge"><title>Node20&#45;&gt;Node21</title>
<path fill="none" stroke="midnightblue" d="M601.785,-158.151C610.488,-157.84 619.224,-157.528 627.783,-157.222"/>
<polygon fill="midnightblue" stroke="midnightblue" points="601.467,-154.66 591.598,-158.514 601.717,-161.655 601.467,-154.66"/>
</g>
<!-- Node21&#45;&gt;Node11 -->
<g id="edge23" class="edge"><title>Node21&#45;&gt;Node11</title>
<path fill="none" stroke="midnightblue" d="M820.081,-165.12C830.166,-166.241 840.344,-167.372 850.26,-168.473"/>
<polygon fill="midnightblue" stroke="midnightblue" points="820.365,-161.63 810.039,-164.004 819.592,-168.587 820.365,-161.63"/>
</g>
<!-- Node22&#45;&gt;Node5 -->
<g id="edge25" class="edge"><title>Node22&#45;&gt;Node5</title>
<path fill="none" stroke="midnightblue" d="M586.283,-381.824C602.72,-381.971 619.742,-382.123 635.873,-382.267"/>
<polygon fill="midnightblue" stroke="midnightblue" points="586.168,-378.323 576.137,-381.733 586.106,-385.323 586.168,-378.323"/>
</g>
<!-- Node22&#45;&gt;Node6 -->
<g id="edge26" class="edge"><title>Node22&#45;&gt;Node6</title>
<path fill="none" stroke="midnightblue" d="M586.171,-366.187C610.657,-362.251 636.45,-358.106 658.663,-354.536"/>
<polygon fill="midnightblue" stroke="midnightblue" points="585.455,-362.757 576.137,-367.799 586.566,-369.668 585.455,-362.757"/>
</g>
</g>
</svg>
