<?xml version="1.0" encoding="UTF-8" standalone="no"?>
<!DOCTYPE svg PUBLIC "-//W3C//DTD SVG 1.1//EN"
 "http://www.w3.org/Graphics/SVG/1.1/DTD/svg11.dtd">
<!-- Generated by graphviz version 2.36.0 (20140111.2315)
 -->
<!-- Title: configuration.Parser.isEnd Pages: 1 -->
<!--zoomable 554 -->
<svg id="main" version="1.1" xmlns="http://www.w3.org/2000/svg" xmlns:xlink="http://www.w3.org/1999/xlink" xml:space="preserve" onload="init(evt)">
<style type="text/css"><![CDATA[
.edge:hover path { stroke: red; }
.edge:hover polygon { stroke: red; fill: red; }
]]></style>
<script type="text/javascript"><![CDATA[
var edges = document.getElementsByTagName('g');
if (edges && edges.length) {
  for (var i=0;i<edges.length;i++) {
    if (edges[i].id.substr(0,4)=='edge') {
      edges[i].setAttribute('class','edge');
    }
  }
}
]]></script>
        <defs>
                <circle id="rim" cx="0" cy="0" r="7"/>
                <circle id="rim2" cx="0" cy="0" r="3.5"/>
                <g id="zoomPlus">
                        <use xlink:href="#rim" fill="#404040">
                                <set attributeName="fill" to="#808080" begin="zoomplus.mouseover" end="zoomplus.mouseout"/>
                        </use>
                        <path d="M-4,0h8M0,-4v8" fill="none" stroke="white" stroke-width="1.5" pointer-events="none"/>
                </g>
                <g id="zoomMin">
                        <use xlink:href="#rim" fill="#404040">
                                <set attributeName="fill" to="#808080" begin="zoomminus.mouseover" end="zoomminus.mouseout"/>
                        </use>
                        <path d="M-4,0h8" fill="none" stroke="white" stroke-width="1.5" pointer-events="none"/>
                </g>
                <g id="dirArrow">
                        <path fill="none" stroke="white" stroke-width="1.5" d="M0,-3.0v7 M-2.5,-0.5L0,-3.0L2.5,-0.5"/>
                </g>
               <g id="resetDef">
                       <use xlink:href="#rim2" fill="#404040">
                               <set attributeName="fill" to="#808080" begin="reset.mouseover" end="reset.mouseout"/>
                       </use>
               </g>
        </defs>

<script type="text/javascript">
var viewWidth = 818;
var viewHeight = 554;
var sectionId = 'dynsection-13';
</script>
<script xlink:href="../../svgpan.js"/>
<svg id="graph" class="graph">
<g id="viewport">
<title>configuration.Parser.isEnd</title>
<polygon fill="white" stroke="none" points="-4,4 -4,-549.535 814,-549.535 814,4 -4,4"/>
<!-- Node1 -->
<g id="node1" class="node"><title>Node1</title>
<polygon fill="#bfbfbf" stroke="black" points="0,-251.063 0,-270.063 140,-270.063 140,-251.063 0,-251.063"/>
<text text-anchor="middle" x="70" y="-258.063" font-family="Helvetica,sans-Serif" font-size="10.00">configuration.Parser.isEnd</text>
</g>
<!-- Node2 -->
<g id="node2" class="node"><title>Node2</title>
<g id="a_node2"><a xlink:href="../../d7/d56/classconfiguration_1_1_ifelse_parser.html#a4b806589536dd338338d515a0fdb67ed" target="_top" xlink:title="configuration.IfelseParser.parse">
<polygon fill="white" stroke="black" points="418,-431.063 418,-450.063 584,-450.063 584,-431.063 418,-431.063"/>
<text text-anchor="middle" x="501" y="-438.063" font-family="Helvetica,sans-Serif" font-size="10.00">configuration.IfelseParser.parse</text>
</a>
</g>
</g>
<!-- Node1&#45;&gt;Node2 -->
<g id="edge1" class="edge"><title>Node1&#45;&gt;Node2</title>
<path fill="none" stroke="midnightblue" d="M79.1345,-279.299C93.6355,-310.2 127.091,-371.243 176,-399.563 215.867,-422.647 335.67,-432.946 417.864,-437.389"/>
<polygon fill="midnightblue" stroke="midnightblue" points="82.2654,-277.729 74.9484,-270.066 75.89,-280.619 82.2654,-277.729"/>
</g>
<!-- Node3 -->
<g id="node3" class="node"><title>Node3</title>
<g id="a_node3"><a xlink:href="../../d3/d0d/classconfiguration_1_1_repeat_parser.html#abf20b0ae25909c1cdff93f509830b502" target="_top" xlink:title="configuration.RepeatParser.parse">
<polygon fill="white" stroke="black" points="414,-273.063 414,-292.063 588,-292.063 588,-273.063 414,-273.063"/>
<text text-anchor="middle" x="501" y="-280.063" font-family="Helvetica,sans-Serif" font-size="10.00">configuration.RepeatParser.parse</text>
</a>
</g>
</g>
<!-- Node1&#45;&gt;Node3 -->
<g id="edge2" class="edge"><title>Node1&#45;&gt;Node3</title>
<path fill="none" stroke="midnightblue" d="M114.025,-272.695C132.878,-277.411 155.367,-282.235 176,-284.563 256.211,-293.614 348.303,-291.889 413.753,-288.626"/>
<polygon fill="midnightblue" stroke="midnightblue" points="114.801,-269.28 104.244,-270.177 113.056,-276.059 114.801,-269.28"/>
</g>
<!-- Node4 -->
<g id="node4" class="node"><title>Node4</title>
<g id="a_node4"><a xlink:href="../../d9/dfc/classconfiguration_1_1_dotimes_parser.html#abf0eb9bddfa4a09adc745008e17b293b" target="_top" xlink:title="configuration.DotimesParser.parse">
<polygon fill="white" stroke="black" points="628,-308.063 628,-327.063 810,-327.063 810,-308.063 628,-308.063"/>
<text text-anchor="middle" x="719" y="-315.063" font-family="Helvetica,sans-Serif" font-size="10.00">configuration.DotimesParser.parse</text>
</a>
</g>
</g>
<!-- Node1&#45;&gt;Node4 -->
<g id="edge3" class="edge"><title>Node1&#45;&gt;Node4</title>
<path fill="none" stroke="midnightblue" d="M73.2209,-280.288C79.5685,-326.143 102.366,-439.581 176,-486.563 332.192,-586.223 428.014,-545.798 592,-459.563 652.676,-427.656 697.933,-353.856 712.771,-327.303"/>
<polygon fill="midnightblue" stroke="midnightblue" points="76.6681,-279.649 71.9406,-270.168 69.7234,-280.528 76.6681,-279.649"/>
</g>
<!-- Node5 -->
<g id="node5" class="node"><title>Node5</title>
<g id="a_node5"><a xlink:href="../../dc/d64/classconfiguration_1_1_for_parser.html#a2737b422e279cfca7c64fd8eff57d3ff" target="_top" xlink:title="configuration.ForParser.parse">
<polygon fill="white" stroke="black" points="197,-371.063 197,-390.063 353,-390.063 353,-371.063 197,-371.063"/>
<text text-anchor="middle" x="275" y="-378.063" font-family="Helvetica,sans-Serif" font-size="10.00">configuration.ForParser.parse</text>
</a>
</g>
</g>
<!-- Node1&#45;&gt;Node5 -->
<g id="edge4" class="edge"><title>Node1&#45;&gt;Node5</title>
<path fill="none" stroke="midnightblue" d="M84.1467,-278.455C102.152,-301.555 136.758,-341.196 176,-361.563 183.537,-365.475 191.78,-368.586 200.181,-371.058"/>
<polygon fill="midnightblue" stroke="midnightblue" points="86.7202,-276.057 77.8818,-270.215 81.1476,-280.294 86.7202,-276.057"/>
</g>
<!-- Node6 -->
<g id="node6" class="node"><title>Node6</title>
<g id="a_node6"><a xlink:href="../../db/d22/classconfiguration_1_1_set_parser.html#a4f20258805caaf18872872d5283a0e74" target="_top" xlink:title="configuration.SetParser.parse">
<polygon fill="white" stroke="black" points="196,-333.063 196,-352.063 354,-352.063 354,-333.063 196,-333.063"/>
<text text-anchor="middle" x="275" y="-340.063" font-family="Helvetica,sans-Serif" font-size="10.00">configuration.SetParser.parse</text>
</a>
</g>
</g>
<!-- Node1&#45;&gt;Node6 -->
<g id="edge5" class="edge"><title>Node1&#45;&gt;Node6</title>
<path fill="none" stroke="midnightblue" d="M94.054,-275.64C114.768,-288.607 146.394,-306.998 176,-318.563 191.255,-324.523 208.44,-329.331 224.11,-333.033"/>
<polygon fill="midnightblue" stroke="midnightblue" points="95.668,-272.519 85.351,-270.108 91.9128,-278.426 95.668,-272.519"/>
</g>
<!-- Node7 -->
<g id="node7" class="node"><title>Node7</title>
<g id="a_node7"><a xlink:href="../../dc/dd1/classconfiguration_1_1_if_parser.html#ab4ed2d3b7778d2b1206e5d26ebac7976" target="_top" xlink:title="configuration.IfParser.parse">
<polygon fill="white" stroke="black" points="428,-183.063 428,-202.063 574,-202.063 574,-183.063 428,-183.063"/>
<text text-anchor="middle" x="501" y="-190.063" font-family="Helvetica,sans-Serif" font-size="10.00">configuration.IfParser.parse</text>
</a>
</g>
</g>
<!-- Node1&#45;&gt;Node7 -->
<g id="edge6" class="edge"><title>Node1&#45;&gt;Node7</title>
<path fill="none" stroke="midnightblue" d="M87.6357,-243.785C106.936,-225.627 140.657,-197.766 176,-186.563 272.132,-156.092 392.49,-171.234 456.017,-183.052"/>
<polygon fill="midnightblue" stroke="midnightblue" points="85.0384,-241.428 80.2844,-250.897 89.9053,-246.46 85.0384,-241.428"/>
</g>
<!-- Node8 -->
<g id="node8" class="node"><title>Node8</title>
<g id="a_node8"><a xlink:href="../../d9/dfc/classconfiguration_1_1_dotimes_parser.html#a6086c4c4651b29dd968bf4728bd71d0c" target="_top" xlink:title="configuration.DotimesParser.parse\lCommands">
<polygon fill="white" stroke="black" points="410,-114.563 410,-144.563 592,-144.563 592,-114.563 410,-114.563"/>
<text text-anchor="start" x="418" y="-132.563" font-family="Helvetica,sans-Serif" font-size="10.00">configuration.DotimesParser.parse</text>
<text text-anchor="middle" x="501" y="-121.563" font-family="Helvetica,sans-Serif" font-size="10.00">Commands</text>
</a>
</g>
</g>
<!-- Node1&#45;&gt;Node8 -->
<g id="edge7" class="edge"><title>Node1&#45;&gt;Node8</title>
<path fill="none" stroke="midnightblue" d="M77.7602,-241.084C90.7097,-207.202 122.572,-138.381 176,-110.563 267.96,-62.6838 395.106,-93.4465 459.352,-114.538"/>
<polygon fill="midnightblue" stroke="midnightblue" points="74.3688,-240.167 74.217,-250.76 80.942,-242.574 74.3688,-240.167"/>
</g>
<!-- Node9 -->
<g id="node9" class="node"><title>Node9</title>
<g id="a_node9"><a xlink:href="../../d3/d0d/classconfiguration_1_1_repeat_parser.html#aed07d335bcd1174cb4247a7add0d3315" target="_top" xlink:title="configuration.RepeatParser.parse\lCommands">
<polygon fill="white" stroke="black" points="188,-245.563 188,-275.563 362,-275.563 362,-245.563 188,-245.563"/>
<text text-anchor="start" x="196" y="-263.563" font-family="Helvetica,sans-Serif" font-size="10.00">configuration.RepeatParser.parse</text>
<text text-anchor="middle" x="275" y="-252.563" font-family="Helvetica,sans-Serif" font-size="10.00">Commands</text>
</a>
</g>
</g>
<!-- Node1&#45;&gt;Node9 -->
<g id="edge9" class="edge"><title>Node1&#45;&gt;Node9</title>
<path fill="none" stroke="midnightblue" d="M150.26,-260.563C162.614,-260.563 175.429,-260.563 187.925,-260.563"/>
<polygon fill="midnightblue" stroke="midnightblue" points="150.01,-257.063 140.01,-260.563 150.01,-264.063 150.01,-257.063"/>
</g>
<!-- Node10 -->
<g id="node10" class="node"><title>Node10</title>
<g id="a_node10"><a xlink:href="../../dc/d64/classconfiguration_1_1_for_parser.html#ad3cb5184cf449bd3414f3ba73a8b3104" target="_top" xlink:title="configuration.ForParser.parse\lCommands">
<polygon fill="white" stroke="black" points="423,-19.5633 423,-49.5633 579,-49.5633 579,-19.5633 423,-19.5633"/>
<text text-anchor="start" x="431" y="-37.5633" font-family="Helvetica,sans-Serif" font-size="10.00">configuration.ForParser.parse</text>
<text text-anchor="middle" x="501" y="-26.5633" font-family="Helvetica,sans-Serif" font-size="10.00">Commands</text>
</a>
</g>
</g>
<!-- Node1&#45;&gt;Node10 -->
<g id="edge11" class="edge"><title>Node1&#45;&gt;Node10</title>
<path fill="none" stroke="midnightblue" d="M73.2209,-240.839C79.5685,-194.984 102.366,-81.5459 176,-34.5633 260.288,19.2174 383.729,-1.68566 451.317,-19.489"/>
<polygon fill="midnightblue" stroke="midnightblue" points="69.7234,-240.599 71.9406,-250.959 76.6681,-241.477 69.7234,-240.599"/>
</g>
<!-- Node11 -->
<g id="node11" class="node"><title>Node11</title>
<g id="a_node11"><a xlink:href="../../dc/d64/classconfiguration_1_1_for_parser.html#a6bc38f731ac658c5860fe092ba7689ac" target="_top" xlink:title="configuration.ForParser.parseFor">
<polygon fill="white" stroke="black" points="189.5,-44.0633 189.5,-63.0633 360.5,-63.0633 360.5,-44.0633 189.5,-44.0633"/>
<text text-anchor="middle" x="275" y="-51.0633" font-family="Helvetica,sans-Serif" font-size="10.00">configuration.ForParser.parseFor</text>
</a>
</g>
</g>
<!-- Node1&#45;&gt;Node11 -->
<g id="edge12" class="edge"><title>Node1&#45;&gt;Node11</title>
<path fill="none" stroke="midnightblue" d="M76.5261,-240.999C88.24,-203.233 119.257,-120.256 176,-77.5633 184.398,-71.2445 194.243,-66.5692 204.395,-63.1142"/>
<polygon fill="midnightblue" stroke="midnightblue" points="73.1134,-240.196 73.6152,-250.779 79.8225,-242.193 73.1134,-240.196"/>
</g>
<!-- Node12 -->
<g id="node12" class="node"><title>Node12</title>
<g id="a_node12"><a xlink:href="../../d9/dfc/classconfiguration_1_1_dotimes_parser.html#aff41ee5ce2eeff82f7586bd1cf6a91c8" target="_top" xlink:title="configuration.DotimesParser.parseFor">
<polygon fill="white" stroke="black" points="176.5,-120.063 176.5,-139.063 373.5,-139.063 373.5,-120.063 176.5,-120.063"/>
<text text-anchor="middle" x="275" y="-127.063" font-family="Helvetica,sans-Serif" font-size="10.00">configuration.DotimesParser.parseFor</text>
</a>
</g>
</g>
<!-- Node1&#45;&gt;Node12 -->
<g id="edge14" class="edge"><title>Node1&#45;&gt;Node12</title>
<path fill="none" stroke="midnightblue" d="M83.552,-242.573C101.31,-218.519 136.088,-176.283 176,-153.563 187.113,-147.237 199.857,-142.568 212.398,-139.124"/>
<polygon fill="midnightblue" stroke="midnightblue" points="80.6133,-240.664 77.6039,-250.822 86.2914,-244.758 80.6133,-240.664"/>
</g>
<!-- Node13 -->
<g id="node13" class="node"><title>Node13</title>
<g id="a_node13"><a xlink:href="../../d7/d56/classconfiguration_1_1_ifelse_parser.html#aeb471eacbe15e095075bdd09619fe15d" target="_top" xlink:title="configuration.IfelseParser.parse\lListCommands">
<polygon fill="white" stroke="black" points="192,-447.563 192,-477.563 358,-477.563 358,-447.563 192,-447.563"/>
<text text-anchor="start" x="200" y="-465.563" font-family="Helvetica,sans-Serif" font-size="10.00">configuration.IfelseParser.parse</text>
<text text-anchor="middle" x="275" y="-454.563" font-family="Helvetica,sans-Serif" font-size="10.00">ListCommands</text>
</a>
</g>
</g>
<!-- Node1&#45;&gt;Node13 -->
<g id="edge16" class="edge"><title>Node1&#45;&gt;Node13</title>
<path fill="none" stroke="midnightblue" d="M77.6146,-280.153C90.6675,-315.843 123.146,-391.552 176,-432.563 183.943,-438.726 193.153,-443.63 202.684,-447.53"/>
<polygon fill="midnightblue" stroke="midnightblue" points="80.8163,-278.708 74.1863,-270.444 74.2157,-281.039 80.8163,-278.708"/>
</g>
<!-- Node14 -->
<g id="node14" class="node"><title>Node14</title>
<g id="a_node14"><a xlink:href="../../dc/dd1/classconfiguration_1_1_if_parser.html#a3e1532b1163cc498d3f7636ed8ff2a16" target="_top" xlink:title="configuration.IfParser.parse\lListCommands">
<polygon fill="white" stroke="black" points="202,-196.563 202,-226.563 348,-226.563 348,-196.563 202,-196.563"/>
<text text-anchor="start" x="210" y="-214.563" font-family="Helvetica,sans-Serif" font-size="10.00">configuration.IfParser.parse</text>
<text text-anchor="middle" x="275" y="-203.563" font-family="Helvetica,sans-Serif" font-size="10.00">ListCommands</text>
</a>
</g>
</g>
<!-- Node1&#45;&gt;Node14 -->
<g id="edge18" class="edge"><title>Node1&#45;&gt;Node14</title>
<path fill="none" stroke="midnightblue" d="M120.411,-248.637C147.9,-242.001 182.381,-233.678 211.704,-226.6"/>
<polygon fill="midnightblue" stroke="midnightblue" points="119.522,-245.251 110.622,-250.999 121.164,-252.055 119.522,-245.251"/>
</g>
<!-- Node8&#45;&gt;Node4 -->
<g id="edge8" class="edge"><title>Node8&#45;&gt;Node4</title>
<path fill="none" stroke="midnightblue" d="M550.28,-148.835C564.409,-155.592 579.425,-163.937 592,-173.563 646.339,-215.159 694.814,-283.055 711.677,-307.99"/>
<polygon fill="midnightblue" stroke="midnightblue" points="551.705,-145.638 541.158,-144.626 548.772,-151.994 551.705,-145.638"/>
</g>
<!-- Node9&#45;&gt;Node3 -->
<g id="edge10" class="edge"><title>Node9&#45;&gt;Node3</title>
<path fill="none" stroke="midnightblue" d="M372.259,-270.017C386.055,-271.372 400.175,-272.759 413.761,-274.093"/>
<polygon fill="midnightblue" stroke="midnightblue" points="372.578,-266.532 362.284,-269.038 371.894,-273.498 372.578,-266.532"/>
</g>
<!-- Node11&#45;&gt;Node10 -->
<g id="edge13" class="edge"><title>Node11&#45;&gt;Node10</title>
<path fill="none" stroke="midnightblue" d="M370.838,-45.519C388.214,-44.0451 406.155,-42.5233 422.934,-41.1001"/>
<polygon fill="midnightblue" stroke="midnightblue" points="370.353,-42.0475 360.685,-46.3802 370.945,-49.0224 370.353,-42.0475"/>
</g>
<!-- Node12&#45;&gt;Node8 -->
<g id="edge15" class="edge"><title>Node12&#45;&gt;Node8</title>
<path fill="none" stroke="midnightblue" d="M383.785,-129.563C392.488,-129.563 401.224,-129.563 409.783,-129.563"/>
<polygon fill="midnightblue" stroke="midnightblue" points="383.598,-126.063 373.598,-129.563 383.598,-133.063 383.598,-126.063"/>
</g>
<!-- Node13&#45;&gt;Node2 -->
<g id="edge17" class="edge"><title>Node13&#45;&gt;Node2</title>
<path fill="none" stroke="midnightblue" d="M368.283,-453.5C384.72,-451.885 401.742,-450.214 417.873,-448.629"/>
<polygon fill="midnightblue" stroke="midnightblue" points="367.747,-450.035 358.137,-454.496 368.432,-457.002 367.747,-450.035"/>
</g>
<!-- Node14&#45;&gt;Node7 -->
<g id="edge19" class="edge"><title>Node14&#45;&gt;Node7</title>
<path fill="none" stroke="midnightblue" d="M358.095,-204.6C380.884,-202.667 405.455,-200.583 427.643,-198.701"/>
<polygon fill="midnightblue" stroke="midnightblue" points="357.776,-201.114 348.108,-205.447 358.368,-208.089 357.776,-201.114"/>
</g>
</g>
</svg>
        <g id="navigator" transform="translate(0 0)" fill="#404254">
                <rect fill="#f2f5e9" fill-opacity="0.5" stroke="#606060" stroke-width=".5" x="0" y="0" width="60" height="60"/>
                <use id="zoomplus" xlink:href="#zoomPlus" x="17" y="9" onmousedown="handleZoom(evt,'in')"/>
                <use id="zoomminus" xlink:href="#zoomMin" x="42" y="9" onmousedown="handleZoom(evt,'out')"/>
                <use id="reset" xlink:href="#resetDef" x="30" y="36" onmousedown="handleReset()"/>
                <g id="arrowUp" xlink:href="#dirArrow" transform="translate(30 24)" onmousedown="handlePan(0,-1)">
                  <use xlink:href="#rim" fill="#404040">
                        <set attributeName="fill" to="#808080" begin="arrowUp.mouseover" end="arrowUp.mouseout"/>
                  </use>
                  <path fill="none" stroke="white" stroke-width="1.5" d="M0,-3.0v7 M-2.5,-0.5L0,-3.0L2.5,-0.5"/>
                </g>
                <g id="arrowRight" xlink:href="#dirArrow" transform="rotate(90) translate(36 -43)" onmousedown="handlePan(1,0)">
                  <use xlink:href="#rim" fill="#404040">
                        <set attributeName="fill" to="#808080" begin="arrowRight.mouseover" end="arrowRight.mouseout"/>
                  </use>
                  <path fill="none" stroke="white" stroke-width="1.5" d="M0,-3.0v7 M-2.5,-0.5L0,-3.0L2.5,-0.5"/>
                </g>
                <g id="arrowDown" xlink:href="#dirArrow" transform="rotate(180) translate(-30 -48)" onmousedown="handlePan(0,1)">
                  <use xlink:href="#rim" fill="#404040">
                        <set attributeName="fill" to="#808080" begin="arrowDown.mouseover" end="arrowDown.mouseout"/>
                  </use>
                  <path fill="none" stroke="white" stroke-width="1.5" d="M0,-3.0v7 M-2.5,-0.5L0,-3.0L2.5,-0.5"/>
                </g>
                <g id="arrowLeft" xlink:href="#dirArrow" transform="rotate(270) translate(-36 17)" onmousedown="handlePan(-1,0)">
                  <use xlink:href="#rim" fill="#404040">
                        <set attributeName="fill" to="#808080" begin="arrowLeft.mouseover" end="arrowLeft.mouseout"/>
                  </use>
                  <path fill="none" stroke="white" stroke-width="1.5" d="M0,-3.0v7 M-2.5,-0.5L0,-3.0L2.5,-0.5"/>
                </g>
        </g>
        <svg viewBox="0 0 15 15" width="100%" height="30px" preserveAspectRatio="xMaxYMin meet">
         <g id="arrow_out" transform="scale(0.3 0.3)">
          <a xlink:href="classconfiguration_1_1_parser_a07345acba63db50ec60293f2b38e54a6_icgraph_org.svg" target="_base">
           <rect id="button" ry="5" rx="5" y="6" x="6" height="38" width="38"
                fill="#f2f5e9" fill-opacity="0.5" stroke="#606060" stroke-width="1.0"/>
           <path id="arrow"
             d="M 11.500037,31.436501 C 11.940474,20.09759 22.043105,11.32322 32.158766,21.979434 L 37.068811,17.246167 C 37.068811,17.246167 37.088388,32 37.088388,32 L 22.160133,31.978069 C 22.160133,31.978069 26.997745,27.140456 26.997745,27.140456 C 18.528582,18.264221 13.291696,25.230495 11.500037,31.436501 z"
             style="fill:#404040;"/>
          </a>
         </g>
        </svg>
</svg>
