<?xml version="1.0" encoding="UTF-8" standalone="no"?>
<!DOCTYPE svg PUBLIC "-//W3C//DTD SVG 1.1//EN"
 "http://www.w3.org/Graphics/SVG/1.1/DTD/svg11.dtd">
<!-- Generated by graphviz version 2.36.0 (20140111.2315)
 -->
<!-- Title: configuration.Parser.buildTree Pages: 1 -->
<svg width="590pt" height="230pt"
 viewBox="0.00 0.00 590.00 230.00" xmlns="http://www.w3.org/2000/svg" xmlns:xlink="http://www.w3.org/1999/xlink">
<g id="graph0" class="graph" transform="scale(1 1) rotate(0) translate(4 226)">
<title>configuration.Parser.buildTree</title>
<polygon fill="white" stroke="none" points="-4,4 -4,-226 586,-226 586,4 -4,4"/>
<!-- Node1 -->
<g id="node1" class="node"><title>Node1</title>
<polygon fill="#bfbfbf" stroke="black" points="0,-98.5 0,-117.5 156,-117.5 156,-98.5 0,-98.5"/>
<text text-anchor="middle" x="78" y="-105.5" font-family="Helvetica,sans-Serif" font-size="10.00">configuration.Parser.buildTree</text>
</g>
<!-- Node2 -->
<g id="node2" class="node"><title>Node2</title>
<g id="a_node2"><a xlink:href="../../d0/d3b/classcommands_1_1_user_made_utilities.html#ad6e90d3cccee9da7cf3df2c13fc70381" target="_top" xlink:title="commands.UserMadeUtilities.containsVars">
<polygon fill="white" stroke="black" points="192,-202.5 192,-221.5 414,-221.5 414,-202.5 192,-202.5"/>
<text text-anchor="middle" x="303" y="-209.5" font-family="Helvetica,sans-Serif" font-size="10.00">commands.UserMadeUtilities.containsVars</text>
</a>
</g>
</g>
<!-- Node1&#45;&gt;Node2 -->
<g id="edge1" class="edge"><title>Node1&#45;&gt;Node2</title>
<path fill="none" stroke="midnightblue" d="M88.5441,-117.775C106.805,-135.837 148.735,-174.3 192,-193 197.896,-195.548 204.108,-197.755 210.457,-199.666"/>
<polygon fill="midnightblue" stroke="midnightblue" points="209.949,-203.157 220.519,-202.433 211.805,-196.407 209.949,-203.157"/>
</g>
<!-- Node3 -->
<g id="node3" class="node"><title>Node3</title>
<g id="a_node3"><a xlink:href="../../da/dde/classconfiguration_1_1_util.html#a55c271426926996186d1cde227ae7e23" target="_top" xlink:title="configuration.Util.findCommandKey">
<polygon fill="white" stroke="black" points="210.5,-164.5 210.5,-183.5 395.5,-183.5 395.5,-164.5 210.5,-164.5"/>
<text text-anchor="middle" x="303" y="-171.5" font-family="Helvetica,sans-Serif" font-size="10.00">configuration.Util.findCommandKey</text>
</a>
</g>
</g>
<!-- Node1&#45;&gt;Node3 -->
<g id="edge2" class="edge"><title>Node1&#45;&gt;Node3</title>
<path fill="none" stroke="midnightblue" d="M98.9638,-117.603C121.201,-127.947 158.443,-144.233 192,-154 203.211,-157.263 215.228,-160.097 227.052,-162.523"/>
<polygon fill="midnightblue" stroke="midnightblue" points="226.429,-165.968 236.917,-164.466 227.781,-159.099 226.429,-165.968"/>
</g>
<!-- Node5 -->
<g id="node5" class="node"><title>Node5</title>
<g id="a_node5"><a xlink:href="../../d0/d3b/classcommands_1_1_user_made_utilities.html#afc570f31a89922ff7a42f13839888c8f" target="_top" xlink:title="commands.UserMadeUtilities.get\lFromVars">
<polygon fill="white" stroke="black" points="215,-115 215,-145 391,-145 391,-115 215,-115"/>
<text text-anchor="start" x="223" y="-133" font-family="Helvetica,sans-Serif" font-size="10.00">commands.UserMadeUtilities.get</text>
<text text-anchor="middle" x="303" y="-122" font-family="Helvetica,sans-Serif" font-size="10.00">FromVars</text>
</a>
</g>
</g>
<!-- Node1&#45;&gt;Node5 -->
<g id="edge4" class="edge"><title>Node1&#45;&gt;Node5</title>
<path fill="none" stroke="midnightblue" d="M156.056,-115.602C171.694,-117.145 188.335,-118.786 204.571,-120.388"/>
<polygon fill="midnightblue" stroke="midnightblue" points="204.32,-123.88 214.616,-121.379 205.008,-116.914 204.32,-123.88"/>
</g>
<!-- Node6 -->
<g id="node6" class="node"><title>Node6</title>
<g id="a_node6"><a xlink:href="../../d9/d11/classconfiguration_1_1_parser.html#a6a8ca49b46db578a3d9e84b0c4ce2f75" target="_top" xlink:title="configuration.Parser.isCommand">
<polygon fill="white" stroke="black" points="217,-76.5 217,-95.5 389,-95.5 389,-76.5 217,-76.5"/>
<text text-anchor="middle" x="303" y="-83.5" font-family="Helvetica,sans-Serif" font-size="10.00">configuration.Parser.isCommand</text>
</a>
</g>
</g>
<!-- Node1&#45;&gt;Node6 -->
<g id="edge5" class="edge"><title>Node1&#45;&gt;Node6</title>
<path fill="none" stroke="midnightblue" d="M156.056,-100.398C172.32,-98.7935 189.668,-97.0821 206.518,-95.4198"/>
<polygon fill="midnightblue" stroke="midnightblue" points="207.322,-98.8575 216.93,-94.3925 206.635,-91.8913 207.322,-98.8575"/>
</g>
<!-- Node7 -->
<g id="node7" class="node"><title>Node7</title>
<g id="a_node7"><a xlink:href="../../d9/d11/classconfiguration_1_1_parser.html#af0032734232f2e6043d7c8c94d86dd1f" target="_top" xlink:title="configuration.Parser.isConstant">
<polygon fill="white" stroke="black" points="220.5,-38.5 220.5,-57.5 385.5,-57.5 385.5,-38.5 220.5,-38.5"/>
<text text-anchor="middle" x="303" y="-45.5" font-family="Helvetica,sans-Serif" font-size="10.00">configuration.Parser.isConstant</text>
</a>
</g>
</g>
<!-- Node1&#45;&gt;Node7 -->
<g id="edge6" class="edge"><title>Node1&#45;&gt;Node7</title>
<path fill="none" stroke="midnightblue" d="M101.563,-98.4696C124.106,-89.2697 159.929,-75.5161 192,-67 202.793,-64.134 214.3,-61.5957 225.653,-59.3826"/>
<polygon fill="midnightblue" stroke="midnightblue" points="226.386,-62.8062 235.569,-57.5214 225.095,-55.9264 226.386,-62.8062"/>
</g>
<!-- Node8 -->
<g id="node8" class="node"><title>Node8</title>
<g id="a_node8"><a xlink:href="../../d9/d11/classconfiguration_1_1_parser.html#a061c6e2e973a9e7f531931f61f45448b" target="_top" xlink:title="configuration.Parser.isVariable">
<polygon fill="white" stroke="black" points="223,-0.5 223,-19.5 383,-19.5 383,-0.5 223,-0.5"/>
<text text-anchor="middle" x="303" y="-7.5" font-family="Helvetica,sans-Serif" font-size="10.00">configuration.Parser.isVariable</text>
</a>
</g>
</g>
<!-- Node1&#45;&gt;Node8 -->
<g id="edge7" class="edge"><title>Node1&#45;&gt;Node8</title>
<path fill="none" stroke="midnightblue" d="M89.2738,-98.4075C108.07,-81.4449 149.945,-46.3157 192,-29 198.715,-26.2353 205.82,-23.873 213.058,-21.8543"/>
<polygon fill="midnightblue" stroke="midnightblue" points="214.169,-25.1829 222.986,-19.3092 212.43,-18.4022 214.169,-25.1829"/>
</g>
<!-- Node4 -->
<g id="node4" class="node"><title>Node4</title>
<g id="a_node4"><a xlink:href="../../da/dde/classconfiguration_1_1_util.html#a163b0098613bf2f7becf27b131af3934" target="_top" xlink:title="configuration.Util.match">
<polygon fill="white" stroke="black" points="450.5,-164.5 450.5,-183.5 581.5,-183.5 581.5,-164.5 450.5,-164.5"/>
<text text-anchor="middle" x="516" y="-171.5" font-family="Helvetica,sans-Serif" font-size="10.00">configuration.Util.match</text>
</a>
</g>
</g>
<!-- Node3&#45;&gt;Node4 -->
<g id="edge3" class="edge"><title>Node3&#45;&gt;Node4</title>
<path fill="none" stroke="midnightblue" d="M395.627,-174C410.483,-174 425.713,-174 440.11,-174"/>
<polygon fill="midnightblue" stroke="midnightblue" points="440.429,-177.5 450.429,-174 440.429,-170.5 440.429,-177.5"/>
</g>
</g>
</svg>
