<?xml version="1.0" encoding="UTF-8" standalone="no"?>
<!DOCTYPE svg PUBLIC "-//W3C//DTD SVG 1.1//EN"
 "http://www.w3.org/Graphics/SVG/1.1/DTD/svg11.dtd">
<!-- Generated by graphviz version 2.36.0 (20140111.2315)
 -->
<!-- Title: configuration.Parser.skip Pages: 1 -->
<!--zoomable 533 -->
<svg id="main" version="1.1" xmlns="http://www.w3.org/2000/svg" xmlns:xlink="http://www.w3.org/1999/xlink" xml:space="preserve" onload="init(evt)">
<style type="text/css"><![CDATA[
.edge:hover path { stroke: red; }
.edge:hover polygon { stroke: red; fill: red; }
]]></style>
<script type="text/javascript"><![CDATA[
var edges = document.getElementsByTagName('g');
if (edges && edges.length) {
  for (var i=0;i<edges.length;i++) {
    if (edges[i].id.substr(0,4)=='edge') {
      edges[i].setAttribute('class','edge');
    }
  }
}
]]></script>
        <defs>
                <circle id="rim" cx="0" cy="0" r="7"/>
                <circle id="rim2" cx="0" cy="0" r="3.5"/>
                <g id="zoomPlus">
                        <use xlink:href="#rim" fill="#404040">
                                <set attributeName="fill" to="#808080" begin="zoomplus.mouseover" end="zoomplus.mouseout"/>
                        </use>
                        <path d="M-4,0h8M0,-4v8" fill="none" stroke="white" stroke-width="1.5" pointer-events="none"/>
                </g>
                <g id="zoomMin">
                        <use xlink:href="#rim" fill="#404040">
                                <set attributeName="fill" to="#808080" begin="zoomminus.mouseover" end="zoomminus.mouseout"/>
                        </use>
                        <path d="M-4,0h8" fill="none" stroke="white" stroke-width="1.5" pointer-events="none"/>
                </g>
                <g id="dirArrow">
                        <path fill="none" stroke="white" stroke-width="1.5" d="M0,-3.0v7 M-2.5,-0.5L0,-3.0L2.5,-0.5"/>
                </g>
               <g id="resetDef">
                       <use xlink:href="#rim2" fill="#404040">
                               <set attributeName="fill" to="#808080" begin="reset.mouseover" end="reset.mouseout"/>
                       </use>
               </g>
        </defs>

<script type="text/javascript">
var viewWidth = 812;
var viewHeight = 533;
var sectionId = 'dynsection-18';
</script>
<script xlink:href="../../svgpan.js"/>
<svg id="graph" class="graph">
<g id="viewport">
<title>configuration.Parser.skip</title>
<polygon fill="white" stroke="none" points="-4,4 -4,-529 808,-529 808,4 -4,4"/>
<!-- Node1 -->
<g id="node1" class="node"><title>Node1</title>
<polygon fill="#bfbfbf" stroke="black" points="0.5,-277.5 0.5,-296.5 133.5,-296.5 133.5,-277.5 0.5,-277.5"/>
<text text-anchor="middle" x="67" y="-284.5" font-family="Helvetica,sans-Serif" font-size="10.00">configuration.Parser.skip</text>
</g>
<!-- Node2 -->
<g id="node2" class="node"><title>Node2</title>
<g id="a_node2"><a xlink:href="../../d7/d56/classconfiguration_1_1_ifelse_parser.html#a608612d46f8239cbf096bbcffd0d4119" target="_top" xlink:title="configuration.IfelseParser.parse">
<polygon fill="white" stroke="black" points="186,-505.5 186,-524.5 352,-524.5 352,-505.5 186,-505.5"/>
<text text-anchor="middle" x="269" y="-512.5" font-family="Helvetica,sans-Serif" font-size="10.00">configuration.IfelseParser.parse</text>
</a>
</g>
</g>
<!-- Node1&#45;&gt;Node2 -->
<g id="edge1" class="edge"><title>Node1&#45;&gt;Node2</title>
<path fill="none" stroke="midnightblue" d="M71.5285,-306.653C80.1617,-348.654 106.469,-447.288 170,-496 174.951,-499.796 180.448,-502.901 186.239,-505.432"/>
<polygon fill="midnightblue" stroke="midnightblue" points="74.9627,-305.978 69.6235,-296.826 68.0907,-307.31 74.9627,-305.978"/>
</g>
<!-- Node3 -->
<g id="node3" class="node"><title>Node3</title>
<g id="a_node3"><a xlink:href="../../dc/dd1/classconfiguration_1_1_if_parser.html#a87fb238c550985341209cfebebe0a779" target="_top" xlink:title="configuration.IfParser.parse">
<polygon fill="white" stroke="black" points="196,-467.5 196,-486.5 342,-486.5 342,-467.5 196,-467.5"/>
<text text-anchor="middle" x="269" y="-474.5" font-family="Helvetica,sans-Serif" font-size="10.00">configuration.IfParser.parse</text>
</a>
</g>
</g>
<!-- Node1&#45;&gt;Node3 -->
<g id="edge2" class="edge"><title>Node1&#45;&gt;Node3</title>
<path fill="none" stroke="midnightblue" d="M73.7305,-306.496C85.4281,-342.641 115.649,-419.833 170,-458 177.73,-463.428 186.61,-467.406 195.8,-470.306"/>
<polygon fill="midnightblue" stroke="midnightblue" points="76.9932,-305.201 70.6888,-296.686 70.3072,-307.274 76.9932,-305.201"/>
</g>
<!-- Node4 -->
<g id="node4" class="node"><title>Node4</title>
<g id="a_node4"><a xlink:href="../../d3/d0d/classconfiguration_1_1_repeat_parser.html#a7785a2e509d96ff2ad5504e7a781d1d2" target="_top" xlink:title="configuration.RepeatParser.parse">
<polygon fill="white" stroke="black" points="182,-429.5 182,-448.5 356,-448.5 356,-429.5 182,-429.5"/>
<text text-anchor="middle" x="269" y="-436.5" font-family="Helvetica,sans-Serif" font-size="10.00">configuration.RepeatParser.parse</text>
</a>
</g>
</g>
<!-- Node1&#45;&gt;Node4 -->
<g id="edge3" class="edge"><title>Node1&#45;&gt;Node4</title>
<path fill="none" stroke="midnightblue" d="M76.7955,-305.828C91.5971,-335.279 124.4,-391.789 170,-420 176.264,-423.875 183.149,-426.987 190.276,-429.483"/>
<polygon fill="midnightblue" stroke="midnightblue" points="79.8422,-304.09 72.3192,-296.63 73.548,-307.153 79.8422,-304.09"/>
</g>
<!-- Node5 -->
<g id="node5" class="node"><title>Node5</title>
<g id="a_node5"><a xlink:href="../../d9/dfc/classconfiguration_1_1_dotimes_parser.html#ad7321bee5b452f826f1ec05a89d100b6" target="_top" xlink:title="configuration.DotimesParser.parse">
<polygon fill="white" stroke="black" points="178,-391.5 178,-410.5 360,-410.5 360,-391.5 178,-391.5"/>
<text text-anchor="middle" x="269" y="-398.5" font-family="Helvetica,sans-Serif" font-size="10.00">configuration.DotimesParser.parse</text>
</a>
</g>
</g>
<!-- Node1&#45;&gt;Node5 -->
<g id="edge4" class="edge"><title>Node1&#45;&gt;Node5</title>
<path fill="none" stroke="midnightblue" d="M81.6742,-304.774C99.5082,-326.616 132.846,-363.095 170,-382 177.646,-385.89 185.999,-388.987 194.5,-391.451"/>
<polygon fill="midnightblue" stroke="midnightblue" points="84.1836,-302.307 75.2163,-296.665 78.7077,-306.668 84.1836,-302.307"/>
</g>
<!-- Node6 -->
<g id="node6" class="node"><title>Node6</title>
<g id="a_node6"><a xlink:href="../../dc/d64/classconfiguration_1_1_for_parser.html#a57f9ebf60e25c370f7ca73c0862f387a" target="_top" xlink:title="configuration.ForParser.parse">
<polygon fill="white" stroke="black" points="191,-353.5 191,-372.5 347,-372.5 347,-353.5 191,-353.5"/>
<text text-anchor="middle" x="269" y="-360.5" font-family="Helvetica,sans-Serif" font-size="10.00">configuration.ForParser.parse</text>
</a>
</g>
</g>
<!-- Node1&#45;&gt;Node6 -->
<g id="edge5" class="edge"><title>Node1&#45;&gt;Node6</title>
<path fill="none" stroke="midnightblue" d="M90.2397,-302.176C110.261,-315.153 140.922,-333.368 170,-344 180.498,-347.839 191.928,-350.949 203.152,-353.455"/>
<polygon fill="midnightblue" stroke="midnightblue" points="92.1076,-299.215 81.8335,-296.628 88.2519,-305.058 92.1076,-299.215"/>
</g>
<!-- Node7 -->
<g id="node7" class="node"><title>Node7</title>
<g id="a_node7"><a xlink:href="../../db/d22/classconfiguration_1_1_set_parser.html#aef4ad6dce7a472c79efa57ffd1647b95" target="_top" xlink:title="configuration.SetParser.parse">
<polygon fill="white" stroke="black" points="190,-315.5 190,-334.5 348,-334.5 348,-315.5 190,-315.5"/>
<text text-anchor="middle" x="269" y="-322.5" font-family="Helvetica,sans-Serif" font-size="10.00">configuration.SetParser.parse</text>
</a>
</g>
</g>
<!-- Node1&#45;&gt;Node7 -->
<g id="edge6" class="edge"><title>Node1&#45;&gt;Node7</title>
<path fill="none" stroke="midnightblue" d="M128.095,-298.418C156.712,-303.855 190.543,-310.283 217.769,-315.456"/>
<polygon fill="midnightblue" stroke="midnightblue" points="128.688,-294.968 118.21,-296.54 127.381,-301.845 128.688,-294.968"/>
</g>
<!-- Node8 -->
<g id="node8" class="node"><title>Node8</title>
<g id="a_node8"><a xlink:href="../../d9/dfc/classconfiguration_1_1_dotimes_parser.html#a6086c4c4651b29dd968bf4728bd71d0c" target="_top" xlink:title="configuration.DotimesParser.parse\lCommands">
<polygon fill="white" stroke="black" points="404,-234 404,-264 586,-264 586,-234 404,-234"/>
<text text-anchor="start" x="412" y="-252" font-family="Helvetica,sans-Serif" font-size="10.00">configuration.DotimesParser.parse</text>
<text text-anchor="middle" x="495" y="-241" font-family="Helvetica,sans-Serif" font-size="10.00">Commands</text>
</a>
</g>
</g>
<!-- Node1&#45;&gt;Node8 -->
<g id="edge7" class="edge"><title>Node1&#45;&gt;Node8</title>
<path fill="none" stroke="midnightblue" d="M143.951,-284.006C204.691,-281.174 291.966,-276.125 368,-268 379.658,-266.754 391.89,-265.21 403.958,-263.544"/>
<polygon fill="midnightblue" stroke="midnightblue" points="143.513,-280.522 133.684,-284.475 143.833,-287.514 143.513,-280.522"/>
</g>
<!-- Node10 -->
<g id="node10" class="node"><title>Node10</title>
<g id="a_node10"><a xlink:href="../../d3/d0d/classconfiguration_1_1_repeat_parser.html#aed07d335bcd1174cb4247a7add0d3315" target="_top" xlink:title="configuration.RepeatParser.parse\lCommands">
<polygon fill="white" stroke="black" points="182,-190 182,-220 356,-220 356,-190 182,-190"/>
<text text-anchor="start" x="190" y="-208" font-family="Helvetica,sans-Serif" font-size="10.00">configuration.RepeatParser.parse</text>
<text text-anchor="middle" x="269" y="-197" font-family="Helvetica,sans-Serif" font-size="10.00">Commands</text>
</a>
</g>
</g>
<!-- Node1&#45;&gt;Node10 -->
<g id="edge9" class="edge"><title>Node1&#45;&gt;Node10</title>
<path fill="none" stroke="midnightblue" d="M90.7413,-272.019C110.87,-259.323 141.407,-241.41 170,-230 179.377,-226.258 189.486,-222.936 199.525,-220.034"/>
<polygon fill="midnightblue" stroke="midnightblue" points="88.8041,-269.103 82.2699,-277.443 92.5788,-274.999 88.8041,-269.103"/>
</g>
<!-- Node12 -->
<g id="node12" class="node"><title>Node12</title>
<g id="a_node12"><a xlink:href="../../dc/d64/classconfiguration_1_1_for_parser.html#ad3cb5184cf449bd3414f3ba73a8b3104" target="_top" xlink:title="configuration.ForParser.parse\lCommands">
<polygon fill="white" stroke="black" points="417,-84 417,-114 573,-114 573,-84 417,-84"/>
<text text-anchor="start" x="425" y="-102" font-family="Helvetica,sans-Serif" font-size="10.00">configuration.ForParser.parse</text>
<text text-anchor="middle" x="495" y="-91" font-family="Helvetica,sans-Serif" font-size="10.00">Commands</text>
</a>
</g>
</g>
<!-- Node1&#45;&gt;Node12 -->
<g id="edge11" class="edge"><title>Node1&#45;&gt;Node12</title>
<path fill="none" stroke="midnightblue" d="M75.6328,-267.81C89.324,-236.145 121.257,-173.524 170,-144 210.317,-119.58 334.58,-107.908 416.97,-102.72"/>
<polygon fill="midnightblue" stroke="midnightblue" points="72.3069,-266.692 71.6911,-277.269 78.7683,-269.385 72.3069,-266.692"/>
</g>
<!-- Node14 -->
<g id="node14" class="node"><title>Node14</title>
<g id="a_node14"><a xlink:href="../../d9/dfc/classconfiguration_1_1_dotimes_parser.html#a63d34c400b9b5715b4a2f9a5d0107e62" target="_top" xlink:title="configuration.DotimesParser.parse\lDotimesIterator">
<polygon fill="white" stroke="black" points="404,-146 404,-176 586,-176 586,-146 404,-146"/>
<text text-anchor="start" x="412" y="-164" font-family="Helvetica,sans-Serif" font-size="10.00">configuration.DotimesParser.parse</text>
<text text-anchor="middle" x="495" y="-153" font-family="Helvetica,sans-Serif" font-size="10.00">DotimesIterator</text>
</a>
</g>
</g>
<!-- Node1&#45;&gt;Node14 -->
<g id="edge13" class="edge"><title>Node1&#45;&gt;Node14</title>
<path fill="none" stroke="midnightblue" d="M79.0301,-268.7C95.3436,-243.549 128.498,-199.232 170,-180 243.363,-146.003 336.284,-144.15 403.785,-149.087"/>
<polygon fill="midnightblue" stroke="midnightblue" points="75.9777,-266.98 73.6201,-277.309 81.9045,-270.704 75.9777,-266.98"/>
</g>
<!-- Node15 -->
<g id="node15" class="node"><title>Node15</title>
<g id="a_node15"><a xlink:href="../../dc/d64/classconfiguration_1_1_for_parser.html#a6bc38f731ac658c5860fe092ba7689ac" target="_top" xlink:title="configuration.ForParser.parseFor">
<polygon fill="white" stroke="black" points="183.5,-75.5 183.5,-94.5 354.5,-94.5 354.5,-75.5 183.5,-75.5"/>
<text text-anchor="middle" x="269" y="-82.5" font-family="Helvetica,sans-Serif" font-size="10.00">configuration.ForParser.parseFor</text>
</a>
</g>
</g>
<!-- Node1&#45;&gt;Node15 -->
<g id="edge15" class="edge"><title>Node1&#45;&gt;Node15</title>
<path fill="none" stroke="midnightblue" d="M73.5082,-267.495C84.9861,-230.545 115.073,-150.35 170,-109 178.397,-102.679 188.241,-98.0024 198.392,-94.5469"/>
<polygon fill="midnightblue" stroke="midnightblue" points="70.0336,-266.9 70.5366,-277.483 76.743,-268.896 70.0336,-266.9"/>
</g>
<!-- Node16 -->
<g id="node16" class="node"><title>Node16</title>
<g id="a_node16"><a xlink:href="../../d9/dfc/classconfiguration_1_1_dotimes_parser.html#aff41ee5ce2eeff82f7586bd1cf6a91c8" target="_top" xlink:title="configuration.DotimesParser.parseFor">
<polygon fill="white" stroke="black" points="170.5,-239.5 170.5,-258.5 367.5,-258.5 367.5,-239.5 170.5,-239.5"/>
<text text-anchor="middle" x="269" y="-246.5" font-family="Helvetica,sans-Serif" font-size="10.00">configuration.DotimesParser.parseFor</text>
</a>
</g>
</g>
<!-- Node1&#45;&gt;Node16 -->
<g id="edge17" class="edge"><title>Node1&#45;&gt;Node16</title>
<path fill="none" stroke="midnightblue" d="M128.095,-275.582C156.712,-270.145 190.543,-263.717 217.769,-258.544"/>
<polygon fill="midnightblue" stroke="midnightblue" points="127.381,-272.155 118.21,-277.46 128.688,-279.032 127.381,-272.155"/>
</g>
<!-- Node17 -->
<g id="node17" class="node"><title>Node17</title>
<g id="a_node17"><a xlink:href="../../d7/d56/classconfiguration_1_1_ifelse_parser.html#aeb471eacbe15e095075bdd09619fe15d" target="_top" xlink:title="configuration.IfelseParser.parse\lListCommands">
<polygon fill="white" stroke="black" points="186,-26 186,-56 352,-56 352,-26 186,-26"/>
<text text-anchor="start" x="194" y="-44" font-family="Helvetica,sans-Serif" font-size="10.00">configuration.IfelseParser.parse</text>
<text text-anchor="middle" x="269" y="-33" font-family="Helvetica,sans-Serif" font-size="10.00">ListCommands</text>
</a>
</g>
</g>
<!-- Node1&#45;&gt;Node17 -->
<g id="edge19" class="edge"><title>Node1&#45;&gt;Node17</title>
<path fill="none" stroke="midnightblue" d="M71.2803,-267.141C79.53,-223.704 105.298,-119.846 170,-66 174.724,-62.0688 179.988,-58.7452 185.556,-55.9366"/>
<polygon fill="midnightblue" stroke="midnightblue" points="67.7859,-266.8 69.4731,-277.26 74.6769,-268.031 67.7859,-266.8"/>
</g>
<!-- Node9 -->
<g id="node9" class="node"><title>Node9</title>
<g id="a_node9"><a xlink:href="../../d9/dfc/classconfiguration_1_1_dotimes_parser.html#abf0eb9bddfa4a09adc745008e17b293b" target="_top" xlink:title="configuration.DotimesParser.parse">
<polygon fill="white" stroke="black" points="622,-195.5 622,-214.5 804,-214.5 804,-195.5 622,-195.5"/>
<text text-anchor="middle" x="713" y="-202.5" font-family="Helvetica,sans-Serif" font-size="10.00">configuration.DotimesParser.parse</text>
</a>
</g>
</g>
<!-- Node8&#45;&gt;Node9 -->
<g id="edge8" class="edge"><title>Node8&#45;&gt;Node9</title>
<path fill="none" stroke="midnightblue" d="M579.878,-231.914C608.895,-226.003 640.36,-219.593 665.303,-214.512"/>
<polygon fill="midnightblue" stroke="midnightblue" points="578.831,-228.555 569.731,-233.981 580.228,-235.414 578.831,-228.555"/>
</g>
<!-- Node11 -->
<g id="node11" class="node"><title>Node11</title>
<g id="a_node11"><a xlink:href="../../d3/d0d/classconfiguration_1_1_repeat_parser.html#abf20b0ae25909c1cdff93f509830b502" target="_top" xlink:title="configuration.RepeatParser.parse">
<polygon fill="white" stroke="black" points="408,-195.5 408,-214.5 582,-214.5 582,-195.5 408,-195.5"/>
<text text-anchor="middle" x="495" y="-202.5" font-family="Helvetica,sans-Serif" font-size="10.00">configuration.RepeatParser.parse</text>
</a>
</g>
</g>
<!-- Node10&#45;&gt;Node11 -->
<g id="edge10" class="edge"><title>Node10&#45;&gt;Node11</title>
<path fill="none" stroke="midnightblue" d="M366.661,-205C380.329,-205 394.307,-205 407.761,-205"/>
<polygon fill="midnightblue" stroke="midnightblue" points="366.284,-201.5 356.284,-205 366.284,-208.5 366.284,-201.5"/>
</g>
<!-- Node13 -->
<g id="node13" class="node"><title>Node13</title>
<g id="a_node13"><a xlink:href="../../dc/d64/classconfiguration_1_1_for_parser.html#a2737b422e279cfca7c64fd8eff57d3ff" target="_top" xlink:title="configuration.ForParser.parse">
<polygon fill="white" stroke="black" points="635,-89.5 635,-108.5 791,-108.5 791,-89.5 635,-89.5"/>
<text text-anchor="middle" x="713" y="-96.5" font-family="Helvetica,sans-Serif" font-size="10.00">configuration.ForParser.parse</text>
</a>
</g>
</g>
<!-- Node12&#45;&gt;Node13 -->
<g id="edge12" class="edge"><title>Node12&#45;&gt;Node13</title>
<path fill="none" stroke="midnightblue" d="M583.077,-99C600.248,-99 618.153,-99 634.964,-99"/>
<polygon fill="midnightblue" stroke="midnightblue" points="583.066,-95.5001 573.066,-99 583.066,-102.5 583.066,-95.5001"/>
</g>
<!-- Node14&#45;&gt;Node9 -->
<g id="edge14" class="edge"><title>Node14&#45;&gt;Node9</title>
<path fill="none" stroke="midnightblue" d="M579.878,-178.086C608.895,-183.997 640.36,-190.407 665.303,-195.488"/>
<polygon fill="midnightblue" stroke="midnightblue" points="580.228,-174.586 569.731,-176.019 578.831,-181.445 580.228,-174.586"/>
</g>
<!-- Node15&#45;&gt;Node12 -->
<g id="edge16" class="edge"><title>Node15&#45;&gt;Node12</title>
<path fill="none" stroke="midnightblue" d="M364.838,-90.9273C382.214,-92.0134 400.155,-93.1347 416.934,-94.1834"/>
<polygon fill="midnightblue" stroke="midnightblue" points="364.884,-87.4235 354.685,-90.2928 364.447,-94.4099 364.884,-87.4235"/>
</g>
<!-- Node16&#45;&gt;Node8 -->
<g id="edge18" class="edge"><title>Node16&#45;&gt;Node8</title>
<path fill="none" stroke="midnightblue" d="M377.785,-249C386.488,-249 395.224,-249 403.783,-249"/>
<polygon fill="midnightblue" stroke="midnightblue" points="377.598,-245.5 367.598,-249 377.598,-252.5 377.598,-245.5"/>
</g>
<!-- Node18 -->
<g id="node18" class="node"><title>Node18</title>
<g id="a_node18"><a xlink:href="../../d7/d56/classconfiguration_1_1_ifelse_parser.html#a4b806589536dd338338d515a0fdb67ed" target="_top" xlink:title="configuration.IfelseParser.parse">
<polygon fill="white" stroke="black" points="412,-38.5 412,-57.5 578,-57.5 578,-38.5 412,-38.5"/>
<text text-anchor="middle" x="495" y="-45.5" font-family="Helvetica,sans-Serif" font-size="10.00">configuration.IfelseParser.parse</text>
</a>
</g>
</g>
<!-- Node17&#45;&gt;Node18 -->
<g id="edge20" class="edge"><title>Node17&#45;&gt;Node18</title>
<path fill="none" stroke="midnightblue" d="M362.283,-43.8838C378.72,-44.3975 395.742,-44.9294 411.873,-45.4335"/>
<polygon fill="midnightblue" stroke="midnightblue" points="362.242,-40.3809 352.137,-43.5668 362.023,-47.3775 362.242,-40.3809"/>
</g>
<!-- Node19 -->
<g id="node19" class="node"><title>Node19</title>
<g id="a_node19"><a xlink:href="../../dc/dd1/classconfiguration_1_1_if_parser.html#ab4ed2d3b7778d2b1206e5d26ebac7976" target="_top" xlink:title="configuration.IfParser.parse">
<polygon fill="white" stroke="black" points="422,-0.5 422,-19.5 568,-19.5 568,-0.5 422,-0.5"/>
<text text-anchor="middle" x="495" y="-7.5" font-family="Helvetica,sans-Serif" font-size="10.00">configuration.IfParser.parse</text>
</a>
</g>
</g>
<!-- Node17&#45;&gt;Node19 -->
<g id="edge21" class="edge"><title>Node17&#45;&gt;Node19</title>
<path fill="none" stroke="midnightblue" d="M362.068,-28.2584C383.151,-25.3407 405.207,-22.2883 425.118,-19.5328"/>
<polygon fill="midnightblue" stroke="midnightblue" points="361.563,-24.7949 352.137,-29.6328 362.523,-31.7288 361.563,-24.7949"/>
</g>
</g>
</svg>
        <g id="navigator" transform="translate(0 0)" fill="#404254">
                <rect fill="#f2f5e9" fill-opacity="0.5" stroke="#606060" stroke-width=".5" x="0" y="0" width="60" height="60"/>
                <use id="zoomplus" xlink:href="#zoomPlus" x="17" y="9" onmousedown="handleZoom(evt,'in')"/>
                <use id="zoomminus" xlink:href="#zoomMin" x="42" y="9" onmousedown="handleZoom(evt,'out')"/>
                <use id="reset" xlink:href="#resetDef" x="30" y="36" onmousedown="handleReset()"/>
                <g id="arrowUp" xlink:href="#dirArrow" transform="translate(30 24)" onmousedown="handlePan(0,-1)">
                  <use xlink:href="#rim" fill="#404040">
                        <set attributeName="fill" to="#808080" begin="arrowUp.mouseover" end="arrowUp.mouseout"/>
                  </use>
                  <path fill="none" stroke="white" stroke-width="1.5" d="M0,-3.0v7 M-2.5,-0.5L0,-3.0L2.5,-0.5"/>
                </g>
                <g id="arrowRight" xlink:href="#dirArrow" transform="rotate(90) translate(36 -43)" onmousedown="handlePan(1,0)">
                  <use xlink:href="#rim" fill="#404040">
                        <set attributeName="fill" to="#808080" begin="arrowRight.mouseover" end="arrowRight.mouseout"/>
                  </use>
                  <path fill="none" stroke="white" stroke-width="1.5" d="M0,-3.0v7 M-2.5,-0.5L0,-3.0L2.5,-0.5"/>
                </g>
                <g id="arrowDown" xlink:href="#dirArrow" transform="rotate(180) translate(-30 -48)" onmousedown="handlePan(0,1)">
                  <use xlink:href="#rim" fill="#404040">
                        <set attributeName="fill" to="#808080" begin="arrowDown.mouseover" end="arrowDown.mouseout"/>
                  </use>
                  <path fill="none" stroke="white" stroke-width="1.5" d="M0,-3.0v7 M-2.5,-0.5L0,-3.0L2.5,-0.5"/>
                </g>
                <g id="arrowLeft" xlink:href="#dirArrow" transform="rotate(270) translate(-36 17)" onmousedown="handlePan(-1,0)">
                  <use xlink:href="#rim" fill="#404040">
                        <set attributeName="fill" to="#808080" begin="arrowLeft.mouseover" end="arrowLeft.mouseout"/>
                  </use>
                  <path fill="none" stroke="white" stroke-width="1.5" d="M0,-3.0v7 M-2.5,-0.5L0,-3.0L2.5,-0.5"/>
                </g>
        </g>
        <svg viewBox="0 0 15 15" width="100%" height="30px" preserveAspectRatio="xMaxYMin meet">
         <g id="arrow_out" transform="scale(0.3 0.3)">
          <a xlink:href="classconfiguration_1_1_parser_a0d2aa50e7ee2ec257e7030f716ab880e_icgraph_org.svg" target="_base">
           <rect id="button" ry="5" rx="5" y="6" x="6" height="38" width="38"
                fill="#f2f5e9" fill-opacity="0.5" stroke="#606060" stroke-width="1.0"/>
           <path id="arrow"
             d="M 11.500037,31.436501 C 11.940474,20.09759 22.043105,11.32322 32.158766,21.979434 L 37.068811,17.246167 C 37.068811,17.246167 37.088388,32 37.088388,32 L 22.160133,31.978069 C 22.160133,31.978069 26.997745,27.140456 26.997745,27.140456 C 18.528582,18.264221 13.291696,25.230495 11.500037,31.436501 z"
             style="fill:#404040;"/>
          </a>
         </g>
        </svg>
</svg>
