<?xml version="1.0" encoding="UTF-8" standalone="no"?>
<!DOCTYPE svg PUBLIC "-//W3C//DTD SVG 1.1//EN"
 "http://www.w3.org/Graphics/SVG/1.1/DTD/svg11.dtd">
<!-- Generated by graphviz version 2.36.0 (20140111.2315)
 -->
<!-- Title: configuration.Parser.isEnd Pages: 1 -->
<svg width="818pt" height="473pt"
 viewBox="0.00 0.00 818.00 472.89" xmlns="http://www.w3.org/2000/svg" xmlns:xlink="http://www.w3.org/1999/xlink">
<g id="graph0" class="graph" transform="scale(1 1) rotate(0) translate(4 468.894)">
<title>configuration.Parser.isEnd</title>
<polygon fill="white" stroke="none" points="-4,4 -4,-468.894 814,-468.894 814,4 -4,4"/>
<!-- Node1 -->
<g id="node1" class="node"><title>Node1</title>
<polygon fill="#bfbfbf" stroke="black" points="0,-221.5 0,-240.5 140,-240.5 140,-221.5 0,-221.5"/>
<text text-anchor="middle" x="70" y="-228.5" font-family="Helvetica,sans-Serif" font-size="10.00">configuration.Parser.isEnd</text>
</g>
<!-- Node2 -->
<g id="node2" class="node"><title>Node2</title>
<g id="a_node2"><a xlink:href="../../d7/d56/classconfiguration_1_1_ifelse_parser.html#a4b806589536dd338338d515a0fdb67ed" target="_top" xlink:title="configuration.IfelseParser.parse">
<polygon fill="white" stroke="black" points="418,-420.5 418,-439.5 584,-439.5 584,-420.5 418,-420.5"/>
<text text-anchor="middle" x="501" y="-427.5" font-family="Helvetica,sans-Serif" font-size="10.00">configuration.IfelseParser.parse</text>
</a>
</g>
</g>
<!-- Node1&#45;&gt;Node2 -->
<g id="edge1" class="edge"><title>Node1&#45;&gt;Node2</title>
<path fill="none" stroke="midnightblue" d="M74.4238,-250.877C82.9029,-293.179 109.233,-391.55 176,-432 270.537,-489.274 410.838,-457.445 470.949,-439.556"/>
<polygon fill="midnightblue" stroke="midnightblue" points="77.8473,-250.143 72.5622,-240.961 70.9675,-251.435 77.8473,-250.143"/>
</g>
<!-- Node3 -->
<g id="node3" class="node"><title>Node3</title>
<g id="a_node3"><a xlink:href="../../dc/dd1/classconfiguration_1_1_if_parser.html#ab4ed2d3b7778d2b1206e5d26ebac7976" target="_top" xlink:title="configuration.IfParser.parse">
<polygon fill="white" stroke="black" points="428,-368.5 428,-387.5 574,-387.5 574,-368.5 428,-368.5"/>
<text text-anchor="middle" x="501" y="-375.5" font-family="Helvetica,sans-Serif" font-size="10.00">configuration.IfParser.parse</text>
</a>
</g>
</g>
<!-- Node1&#45;&gt;Node3 -->
<g id="edge2" class="edge"><title>Node1&#45;&gt;Node3</title>
<path fill="none" stroke="midnightblue" d="M84.0466,-248.994C101.942,-272.173 136.427,-311.76 176,-331 256.127,-369.956 359.603,-378.828 427.793,-379.851"/>
<polygon fill="midnightblue" stroke="midnightblue" points="86.6308,-246.607 77.824,-240.717 81.0357,-250.814 86.6308,-246.607"/>
</g>
<!-- Node5 -->
<g id="node5" class="node"><title>Node5</title>
<g id="a_node5"><a xlink:href="../../d3/d0d/classconfiguration_1_1_repeat_parser.html#abf20b0ae25909c1cdff93f509830b502" target="_top" xlink:title="configuration.RepeatParser.parse">
<polygon fill="white" stroke="black" points="414,-136.5 414,-155.5 588,-155.5 588,-136.5 414,-136.5"/>
<text text-anchor="middle" x="501" y="-143.5" font-family="Helvetica,sans-Serif" font-size="10.00">configuration.RepeatParser.parse</text>
</a>
</g>
</g>
<!-- Node1&#45;&gt;Node5 -->
<g id="edge4" class="edge"><title>Node1&#45;&gt;Node5</title>
<path fill="none" stroke="midnightblue" d="M84.9931,-213.409C103.265,-192.007 137.494,-157.002 176,-143 271.819,-108.157 394.37,-124.156 457.768,-136.47"/>
<polygon fill="midnightblue" stroke="midnightblue" points="82.0655,-211.456 78.3799,-221.389 87.4555,-215.923 82.0655,-211.456"/>
</g>
<!-- Node6 -->
<g id="node6" class="node"><title>Node6</title>
<g id="a_node6"><a xlink:href="../../d9/dfc/classconfiguration_1_1_dotimes_parser.html#abf0eb9bddfa4a09adc745008e17b293b" target="_top" xlink:title="configuration.DotimesParser.parse">
<polygon fill="white" stroke="black" points="628,-139.5 628,-158.5 810,-158.5 810,-139.5 628,-139.5"/>
<text text-anchor="middle" x="719" y="-146.5" font-family="Helvetica,sans-Serif" font-size="10.00">configuration.DotimesParser.parse</text>
</a>
</g>
</g>
<!-- Node1&#45;&gt;Node6 -->
<g id="edge5" class="edge"><title>Node1&#45;&gt;Node6</title>
<path fill="none" stroke="midnightblue" d="M81.369,-212.483C97.5519,-185.727 131.615,-137.346 176,-118 359.169,-38.1626 610.663,-111.815 691.703,-139.492"/>
<polygon fill="midnightblue" stroke="midnightblue" points="78.2582,-210.869 76.2299,-221.268 84.3003,-214.404 78.2582,-210.869"/>
</g>
<!-- Node7 -->
<g id="node7" class="node"><title>Node7</title>
<g id="a_node7"><a xlink:href="../../dc/d64/classconfiguration_1_1_for_parser.html#a2737b422e279cfca7c64fd8eff57d3ff" target="_top" xlink:title="configuration.ForParser.parse">
<polygon fill="white" stroke="black" points="197,-278.5 197,-297.5 353,-297.5 353,-278.5 197,-278.5"/>
<text text-anchor="middle" x="275" y="-285.5" font-family="Helvetica,sans-Serif" font-size="10.00">configuration.ForParser.parse</text>
</a>
</g>
</g>
<!-- Node1&#45;&gt;Node7 -->
<g id="edge6" class="edge"><title>Node1&#45;&gt;Node7</title>
<path fill="none" stroke="midnightblue" d="M103.518,-244.254C124.046,-252.248 151.269,-262.172 176,-269 189.114,-272.621 203.4,-275.807 216.907,-278.486"/>
<polygon fill="midnightblue" stroke="midnightblue" points="104.605,-240.92 94.0181,-240.507 102.036,-247.432 104.605,-240.92"/>
</g>
<!-- Node8 -->
<g id="node8" class="node"><title>Node8</title>
<g id="a_node8"><a xlink:href="../../db/d22/classconfiguration_1_1_set_parser.html#a4f20258805caaf18872872d5283a0e74" target="_top" xlink:title="configuration.SetParser.parse">
<polygon fill="white" stroke="black" points="196,-240.5 196,-259.5 354,-259.5 354,-240.5 196,-240.5"/>
<text text-anchor="middle" x="275" y="-247.5" font-family="Helvetica,sans-Serif" font-size="10.00">configuration.SetParser.parse</text>
</a>
</g>
</g>
<!-- Node1&#45;&gt;Node8 -->
<g id="edge7" class="edge"><title>Node1&#45;&gt;Node8</title>
<path fill="none" stroke="midnightblue" d="M150.238,-238.416C165.194,-239.816 180.828,-241.279 195.753,-242.676"/>
<polygon fill="midnightblue" stroke="midnightblue" points="150.292,-234.906 140.01,-237.459 149.64,-241.876 150.292,-234.906"/>
</g>
<!-- Node9 -->
<g id="node9" class="node"><title>Node9</title>
<g id="a_node9"><a xlink:href="../../d9/dfc/classconfiguration_1_1_dotimes_parser.html#a6086c4c4651b29dd968bf4728bd71d0c" target="_top" xlink:title="configuration.DotimesParser.parse\lCommands">
<polygon fill="white" stroke="black" points="410,-197 410,-227 592,-227 592,-197 410,-197"/>
<text text-anchor="start" x="418" y="-215" font-family="Helvetica,sans-Serif" font-size="10.00">configuration.DotimesParser.parse</text>
<text text-anchor="middle" x="501" y="-204" font-family="Helvetica,sans-Serif" font-size="10.00">Commands</text>
</a>
</g>
</g>
<!-- Node1&#45;&gt;Node9 -->
<g id="edge8" class="edge"><title>Node1&#45;&gt;Node9</title>
<path fill="none" stroke="midnightblue" d="M87.242,-247.929C106.408,-266.562 140.222,-295.41 176,-307 259.717,-334.119 290.551,-334.934 374,-307 421.282,-291.173 465.019,-249.834 486.354,-227.257"/>
<polygon fill="midnightblue" stroke="midnightblue" points="89.5078,-245.245 79.9618,-240.649 84.558,-250.195 89.5078,-245.245"/>
</g>
<!-- Node10 -->
<g id="node10" class="node"><title>Node10</title>
<g id="a_node10"><a xlink:href="../../d3/d0d/classconfiguration_1_1_repeat_parser.html#aed07d335bcd1174cb4247a7add0d3315" target="_top" xlink:title="configuration.RepeatParser.parse\lCommands">
<polygon fill="white" stroke="black" points="188,-153 188,-183 362,-183 362,-153 188,-153"/>
<text text-anchor="start" x="196" y="-171" font-family="Helvetica,sans-Serif" font-size="10.00">configuration.RepeatParser.parse</text>
<text text-anchor="middle" x="275" y="-160" font-family="Helvetica,sans-Serif" font-size="10.00">Commands</text>
</a>
</g>
</g>
<!-- Node1&#45;&gt;Node10 -->
<g id="edge10" class="edge"><title>Node1&#45;&gt;Node10</title>
<path fill="none" stroke="midnightblue" d="M104.875,-217.79C125.308,-210.06 151.956,-200.398 176,-193 187.328,-189.514 199.496,-186.129 211.272,-183.033"/>
<polygon fill="midnightblue" stroke="midnightblue" points="103.478,-214.577 95.3815,-221.411 105.972,-221.117 103.478,-214.577"/>
</g>
<!-- Node11 -->
<g id="node11" class="node"><title>Node11</title>
<g id="a_node11"><a xlink:href="../../dc/d64/classconfiguration_1_1_for_parser.html#ad3cb5184cf449bd3414f3ba73a8b3104" target="_top" xlink:title="configuration.ForParser.parse\lCommands">
<polygon fill="white" stroke="black" points="423,-11 423,-41 579,-41 579,-11 423,-11"/>
<text text-anchor="start" x="431" y="-29" font-family="Helvetica,sans-Serif" font-size="10.00">configuration.ForParser.parse</text>
<text text-anchor="middle" x="501" y="-18" font-family="Helvetica,sans-Serif" font-size="10.00">Commands</text>
</a>
</g>
</g>
<!-- Node1&#45;&gt;Node11 -->
<g id="edge12" class="edge"><title>Node1&#45;&gt;Node11</title>
<path fill="none" stroke="midnightblue" d="M77.6666,-211.66C90.6411,-177.207 122.775,-105.674 176,-72 215.85,-46.7881 340.252,-34.9312 422.797,-29.7104"/>
<polygon fill="midnightblue" stroke="midnightblue" points="74.2363,-210.853 74.1248,-221.448 80.8186,-213.235 74.2363,-210.853"/>
</g>
<!-- Node12 -->
<g id="node12" class="node"><title>Node12</title>
<g id="a_node12"><a xlink:href="../../dc/d64/classconfiguration_1_1_for_parser.html#a6bc38f731ac658c5860fe092ba7689ac" target="_top" xlink:title="configuration.ForParser.parseFor">
<polygon fill="white" stroke="black" points="189.5,-0.5 189.5,-19.5 360.5,-19.5 360.5,-0.5 189.5,-0.5"/>
<text text-anchor="middle" x="275" y="-7.5" font-family="Helvetica,sans-Serif" font-size="10.00">configuration.ForParser.parseFor</text>
</a>
</g>
</g>
<!-- Node1&#45;&gt;Node12 -->
<g id="edge13" class="edge"><title>Node1&#45;&gt;Node12</title>
<path fill="none" stroke="midnightblue" d="M75.6308,-211.608C86.1771,-171.812 115.86,-80.7363 176,-34 184.091,-27.7121 193.602,-23.0447 203.461,-19.5855"/>
<polygon fill="midnightblue" stroke="midnightblue" points="72.2148,-210.841 73.1542,-221.394 79.0008,-212.558 72.2148,-210.841"/>
</g>
<!-- Node13 -->
<g id="node13" class="node"><title>Node13</title>
<g id="a_node13"><a xlink:href="../../d9/dfc/classconfiguration_1_1_dotimes_parser.html#aff41ee5ce2eeff82f7586bd1cf6a91c8" target="_top" xlink:title="configuration.DotimesParser.parseFor">
<polygon fill="white" stroke="black" points="176.5,-202.5 176.5,-221.5 373.5,-221.5 373.5,-202.5 176.5,-202.5"/>
<text text-anchor="middle" x="275" y="-209.5" font-family="Helvetica,sans-Serif" font-size="10.00">configuration.DotimesParser.parseFor</text>
</a>
</g>
</g>
<!-- Node1&#45;&gt;Node13 -->
<g id="edge15" class="edge"><title>Node1&#45;&gt;Node13</title>
<path fill="none" stroke="midnightblue" d="M150.039,-223.602C158.686,-222.793 167.562,-221.962 176.399,-221.135"/>
<polygon fill="midnightblue" stroke="midnightblue" points="149.64,-220.124 140.01,-224.541 150.292,-227.094 149.64,-220.124"/>
</g>
<!-- Node14 -->
<g id="node14" class="node"><title>Node14</title>
<g id="a_node14"><a xlink:href="../../d7/d56/classconfiguration_1_1_ifelse_parser.html#aeb471eacbe15e095075bdd09619fe15d" target="_top" xlink:title="configuration.IfelseParser.parse\lListCommands">
<polygon fill="white" stroke="black" points="192,-393 192,-423 358,-423 358,-393 192,-393"/>
<text text-anchor="start" x="200" y="-411" font-family="Helvetica,sans-Serif" font-size="10.00">configuration.IfelseParser.parse</text>
<text text-anchor="middle" x="275" y="-400" font-family="Helvetica,sans-Serif" font-size="10.00">ListCommands</text>
</a>
</g>
</g>
<!-- Node1&#45;&gt;Node14 -->
<g id="edge17" class="edge"><title>Node1&#45;&gt;Node14</title>
<path fill="none" stroke="midnightblue" d="M79.4273,-249.877C94.3585,-281.18 128.429,-343.765 176,-378 184.521,-384.132 194.319,-389.031 204.354,-392.94"/>
<polygon fill="midnightblue" stroke="midnightblue" points="82.4845,-248.15 75.1056,-240.547 76.1328,-251.092 82.4845,-248.15"/>
</g>
<!-- Node4 -->
<g id="node4" class="node"><title>Node4</title>
<g id="a_node4"><a xlink:href="../../dc/dd1/classconfiguration_1_1_if_parser.html#a702326bd885126c4c3ad202676ddeff8" target="_top" xlink:title="configuration.IfParser.main">
<polygon fill="white" stroke="black" points="647.5,-368.5 647.5,-387.5 790.5,-387.5 790.5,-368.5 647.5,-368.5"/>
<text text-anchor="middle" x="719" y="-375.5" font-family="Helvetica,sans-Serif" font-size="10.00">configuration.IfParser.main</text>
</a>
</g>
</g>
<!-- Node3&#45;&gt;Node4 -->
<g id="edge3" class="edge"><title>Node3&#45;&gt;Node4</title>
<path fill="none" stroke="midnightblue" d="M584.296,-378C605.062,-378 627.173,-378 647.311,-378"/>
<polygon fill="midnightblue" stroke="midnightblue" points="584.225,-374.5 574.225,-378 584.225,-381.5 584.225,-374.5"/>
</g>
<!-- Node9&#45;&gt;Node6 -->
<g id="edge9" class="edge"><title>Node9&#45;&gt;Node6</title>
<path fill="none" stroke="midnightblue" d="M563.315,-194.117C603.015,-182.537 653.139,-167.918 685.381,-158.514"/>
<polygon fill="midnightblue" stroke="midnightblue" points="562.083,-190.83 553.463,-196.99 564.043,-197.55 562.083,-190.83"/>
</g>
<!-- Node10&#45;&gt;Node5 -->
<g id="edge11" class="edge"><title>Node10&#45;&gt;Node5</title>
<path fill="none" stroke="midnightblue" d="M372.259,-158.546C386.055,-157.191 400.175,-155.804 413.761,-154.47"/>
<polygon fill="midnightblue" stroke="midnightblue" points="371.894,-155.065 362.284,-159.526 372.578,-162.031 371.894,-155.065"/>
</g>
<!-- Node12&#45;&gt;Node11 -->
<g id="edge14" class="edge"><title>Node12&#45;&gt;Node11</title>
<path fill="none" stroke="midnightblue" d="M370.838,-16.7741C388.214,-18.0153 406.155,-19.2968 422.934,-20.4953"/>
<polygon fill="midnightblue" stroke="midnightblue" points="370.909,-13.2704 360.685,-16.0489 370.41,-20.2526 370.909,-13.2704"/>
</g>
<!-- Node13&#45;&gt;Node9 -->
<g id="edge16" class="edge"><title>Node13&#45;&gt;Node9</title>
<path fill="none" stroke="midnightblue" d="M383.785,-212C392.488,-212 401.224,-212 409.783,-212"/>
<polygon fill="midnightblue" stroke="midnightblue" points="383.598,-208.5 373.598,-212 383.598,-215.5 383.598,-208.5"/>
</g>
<!-- Node14&#45;&gt;Node2 -->
<g id="edge18" class="edge"><title>Node14&#45;&gt;Node2</title>
<path fill="none" stroke="midnightblue" d="M368.283,-417.064C384.72,-418.678 401.742,-420.35 417.873,-421.934"/>
<polygon fill="midnightblue" stroke="midnightblue" points="368.432,-413.561 358.137,-416.067 367.747,-420.528 368.432,-413.561"/>
</g>
<!-- Node14&#45;&gt;Node3 -->
<g id="edge19" class="edge"><title>Node14&#45;&gt;Node3</title>
<path fill="none" stroke="midnightblue" d="M368.31,-395.637C388.556,-392.926 409.688,-390.095 428.947,-387.516"/>
<polygon fill="midnightblue" stroke="midnightblue" points="367.584,-392.203 358.137,-396.999 368.514,-399.141 367.584,-392.203"/>
</g>
</g>
</svg>
