<?xml version="1.0" encoding="UTF-8" standalone="no"?>
<!DOCTYPE svg PUBLIC "-//W3C//DTD SVG 1.1//EN"
 "http://www.w3.org/Graphics/SVG/1.1/DTD/svg11.dtd">
<!-- Generated by graphviz version 2.36.0 (20140111.2315)
 -->
<!-- Title: configuration.Parser.isVariable Pages: 1 -->
<svg width="1030pt" height="514pt"
 viewBox="0.00 0.00 1030.00 514.20" xmlns="http://www.w3.org/2000/svg" xmlns:xlink="http://www.w3.org/1999/xlink">
<g id="graph0" class="graph" transform="scale(1 1) rotate(0) translate(4 510.199)">
<title>configuration.Parser.isVariable</title>
<polygon fill="white" stroke="none" points="-4,4 -4,-510.199 1026,-510.199 1026,4 -4,4"/>
<!-- Node1 -->
<g id="node1" class="node"><title>Node1</title>
<polygon fill="#bfbfbf" stroke="black" points="0,-149.699 0,-168.699 160,-168.699 160,-149.699 0,-149.699"/>
<text text-anchor="middle" x="80" y="-156.699" font-family="Helvetica,sans-Serif" font-size="10.00">configuration.Parser.isVariable</text>
</g>
<!-- Node2 -->
<g id="node2" class="node"><title>Node2</title>
<g id="a_node2"><a xlink:href="../../d9/d11/classconfiguration_1_1_parser.html#ae0480f44c9defa614fb470ab154fa60b" target="_top" xlink:title="configuration.Parser.buildTree">
<polygon fill="white" stroke="black" points="196,-205.699 196,-224.699 352,-224.699 352,-205.699 196,-205.699"/>
<text text-anchor="middle" x="274" y="-212.699" font-family="Helvetica,sans-Serif" font-size="10.00">configuration.Parser.buildTree</text>
</a>
</g>
</g>
<!-- Node1&#45;&gt;Node2 -->
<g id="edge1" class="edge"><title>Node1&#45;&gt;Node2</title>
<path fill="none" stroke="midnightblue" d="M124.008,-171.743C159.252,-182.022 208.374,-196.349 240.425,-205.697"/>
<polygon fill="midnightblue" stroke="midnightblue" points="124.586,-168.265 114.006,-168.825 122.626,-174.985 124.586,-168.265"/>
</g>
<!-- Node11 -->
<g id="node11" class="node"><title>Node11</title>
<g id="a_node11"><a xlink:href="../../dc/d64/classconfiguration_1_1_for_parser.html#a2737b422e279cfca7c64fd8eff57d3ff" target="_top" xlink:title="configuration.ForParser.parse">
<polygon fill="white" stroke="black" points="635,-25.6986 635,-44.6986 791,-44.6986 791,-25.6986 635,-25.6986"/>
<text text-anchor="middle" x="713" y="-32.6986" font-family="Helvetica,sans-Serif" font-size="10.00">configuration.ForParser.parse</text>
</a>
</g>
</g>
<!-- Node1&#45;&gt;Node11 -->
<g id="edge27" class="edge"><title>Node1&#45;&gt;Node11</title>
<path fill="none" stroke="midnightblue" d="M96.0533,-141.954C116.462,-119.676 155.084,-81.2622 196,-60.1986 351.226,19.7123 412.064,1.87226 586,-13.1986 613.654,-15.5947 644.343,-20.8961 668.51,-25.6943"/>
<polygon fill="midnightblue" stroke="midnightblue" points="93.2349,-139.854 89.1567,-149.632 98.4427,-144.531 93.2349,-139.854"/>
</g>
<!-- Node13 -->
<g id="node13" class="node"><title>Node13</title>
<g id="a_node13"><a xlink:href="../../d9/dfc/classconfiguration_1_1_dotimes_parser.html#a63d34c400b9b5715b4a2f9a5d0107e62" target="_top" xlink:title="configuration.DotimesParser.parse\lDotimesIterator">
<polygon fill="white" stroke="black" points="622,-306.199 622,-336.199 804,-336.199 804,-306.199 622,-306.199"/>
<text text-anchor="start" x="630" y="-324.199" font-family="Helvetica,sans-Serif" font-size="10.00">configuration.DotimesParser.parse</text>
<text text-anchor="middle" x="713" y="-313.199" font-family="Helvetica,sans-Serif" font-size="10.00">DotimesIterator</text>
</a>
</g>
</g>
<!-- Node1&#45;&gt;Node13 -->
<g id="edge29" class="edge"><title>Node1&#45;&gt;Node13</title>
<path fill="none" stroke="midnightblue" d="M96.7386,-176.26C138.78,-220.411 259.294,-337.844 388,-379.199 471.781,-406.119 500.039,-398.033 586,-379.199 623.402,-371.003 662.949,-350.614 687.549,-336.34"/>
<polygon fill="midnightblue" stroke="midnightblue" points="99.2191,-173.789 89.8175,-168.904 94.1208,-178.586 99.2191,-173.789"/>
</g>
<!-- Node15 -->
<g id="node15" class="node"><title>Node15</title>
<g id="a_node15"><a xlink:href="../../db/d22/classconfiguration_1_1_set_parser.html#a4f20258805caaf18872872d5283a0e74" target="_top" xlink:title="configuration.SetParser.parse">
<polygon fill="white" stroke="black" points="408,-22.6986 408,-41.6986 566,-41.6986 566,-22.6986 408,-22.6986"/>
<text text-anchor="middle" x="487" y="-29.6986" font-family="Helvetica,sans-Serif" font-size="10.00">configuration.SetParser.parse</text>
</a>
</g>
</g>
<!-- Node1&#45;&gt;Node15 -->
<g id="edge28" class="edge"><title>Node1&#45;&gt;Node15</title>
<path fill="none" stroke="midnightblue" d="M113.854,-145.842C169.489,-123.633 286.146,-78.8274 388,-51.1986 401.214,-47.6143 415.605,-44.4327 429.188,-41.7468"/>
<polygon fill="midnightblue" stroke="midnightblue" points="112.487,-142.619 104.509,-149.59 115.093,-149.116 112.487,-142.619"/>
</g>
<!-- Node3 -->
<g id="node3" class="node"><title>Node3</title>
<g id="a_node3"><a xlink:href="../../d9/d11/classconfiguration_1_1_parser.html#a041ccb70bd9dee77d512d8469c15c14f" target="_top" xlink:title="configuration.Parser.buildTree">
<polygon fill="white" stroke="black" points="409,-350.699 409,-369.699 565,-369.699 565,-350.699 409,-350.699"/>
<text text-anchor="middle" x="487" y="-357.699" font-family="Helvetica,sans-Serif" font-size="10.00">configuration.Parser.buildTree</text>
</a>
</g>
</g>
<!-- Node2&#45;&gt;Node3 -->
<g id="edge2" class="edge"><title>Node2&#45;&gt;Node3</title>
<path fill="none" stroke="midnightblue" d="M286.133,-233.657C303.951,-261.487 341.633,-313.74 388,-340.199 395.616,-344.545 404.041,-347.954 412.66,-350.628"/>
<polygon fill="midnightblue" stroke="midnightblue" points="288.941,-231.545 280.677,-224.915 283.002,-235.251 288.941,-231.545"/>
</g>
<!-- Node4 -->
<g id="node4" class="node"><title>Node4</title>
<g id="a_node4"><a xlink:href="../../d7/d56/classconfiguration_1_1_ifelse_parser.html#aef13959a758ccbf8dab0a3f5f94a7be0" target="_top" xlink:title="configuration.IfelseParser.evaluate\lBoolExpr">
<polygon fill="white" stroke="black" points="397,-427.199 397,-457.199 577,-457.199 577,-427.199 397,-427.199"/>
<text text-anchor="start" x="405" y="-445.199" font-family="Helvetica,sans-Serif" font-size="10.00">configuration.IfelseParser.evaluate</text>
<text text-anchor="middle" x="487" y="-434.199" font-family="Helvetica,sans-Serif" font-size="10.00">BoolExpr</text>
</a>
</g>
</g>
<!-- Node2&#45;&gt;Node4 -->
<g id="edge3" class="edge"><title>Node2&#45;&gt;Node4</title>
<path fill="none" stroke="midnightblue" d="M284.661,-233.934C302.045,-266.369 341.182,-333.855 388,-379.199 408.195,-398.758 435.352,-415.651 455.956,-427.006"/>
<polygon fill="midnightblue" stroke="midnightblue" points="287.74,-232.269 279.98,-225.056 281.548,-235.534 287.74,-232.269"/>
</g>
<!-- Node8 -->
<g id="node8" class="node"><title>Node8</title>
<g id="a_node8"><a xlink:href="../../d3/d0d/classconfiguration_1_1_repeat_parser.html#ab218ee8c24e4dab18c02cd4a536d15d3" target="_top" xlink:title="configuration.RepeatParser.fetch\lNumericExpr">
<polygon fill="white" stroke="black" points="627.5,-207.199 627.5,-237.199 798.5,-237.199 798.5,-207.199 627.5,-207.199"/>
<text text-anchor="start" x="635.5" y="-225.199" font-family="Helvetica,sans-Serif" font-size="10.00">configuration.RepeatParser.fetch</text>
<text text-anchor="middle" x="713" y="-214.199" font-family="Helvetica,sans-Serif" font-size="10.00">NumericExpr</text>
</a>
</g>
</g>
<!-- Node2&#45;&gt;Node8 -->
<g id="edge7" class="edge"><title>Node2&#45;&gt;Node8</title>
<path fill="none" stroke="midnightblue" d="M362.292,-216.597C439.411,-217.832 551.16,-219.622 627.445,-220.844"/>
<polygon fill="midnightblue" stroke="midnightblue" points="362.176,-213.095 352.121,-216.434 362.064,-220.094 362.176,-213.095"/>
</g>
<!-- Node10 -->
<g id="node10" class="node"><title>Node10</title>
<g id="a_node10"><a xlink:href="../../dc/d64/classconfiguration_1_1_for_parser.html#a95aeb8afdb254389dcef062be1cf2727" target="_top" xlink:title="configuration.ForParser.fetch\lNumericExpr">
<polygon fill="white" stroke="black" points="410.5,-61.1986 410.5,-91.1986 563.5,-91.1986 563.5,-61.1986 410.5,-61.1986"/>
<text text-anchor="start" x="418.5" y="-79.1986" font-family="Helvetica,sans-Serif" font-size="10.00">configuration.ForParser.fetch</text>
<text text-anchor="middle" x="487" y="-68.1986" font-family="Helvetica,sans-Serif" font-size="10.00">NumericExpr</text>
</a>
</g>
</g>
<!-- Node2&#45;&gt;Node10 -->
<g id="edge9" class="edge"><title>Node2&#45;&gt;Node10</title>
<path fill="none" stroke="midnightblue" d="M287.764,-197.193C306.703,-171.847 344.702,-125.977 388,-101.199 394.934,-97.2304 402.499,-93.883 410.252,-91.0611"/>
<polygon fill="midnightblue" stroke="midnightblue" points="284.749,-195.387 281.674,-205.526 290.401,-199.518 284.749,-195.387"/>
</g>
<!-- Node12 -->
<g id="node12" class="node"><title>Node12</title>
<g id="a_node12"><a xlink:href="../../d9/dfc/classconfiguration_1_1_dotimes_parser.html#a26cc7f8e0a21d93091bfe8884a924450" target="_top" xlink:title="configuration.DotimesParser.fetch\lNumericExpr">
<polygon fill="white" stroke="black" points="397.5,-301.199 397.5,-331.199 576.5,-331.199 576.5,-301.199 397.5,-301.199"/>
<text text-anchor="start" x="405.5" y="-319.199" font-family="Helvetica,sans-Serif" font-size="10.00">configuration.DotimesParser.fetch</text>
<text text-anchor="middle" x="487" y="-308.199" font-family="Helvetica,sans-Serif" font-size="10.00">NumericExpr</text>
</a>
</g>
</g>
<!-- Node2&#45;&gt;Node12 -->
<g id="edge11" class="edge"><title>Node2&#45;&gt;Node12</title>
<path fill="none" stroke="midnightblue" d="M294.441,-231.34C316.031,-248.505 352.534,-275.321 388,-291.199 396.494,-295.001 405.671,-298.301 414.885,-301.143"/>
<polygon fill="midnightblue" stroke="midnightblue" points="296.386,-228.412 286.408,-224.849 291.986,-233.856 296.386,-228.412"/>
</g>
<!-- Node2&#45;&gt;Node15 -->
<g id="edge14" class="edge"><title>Node2&#45;&gt;Node15</title>
<path fill="none" stroke="midnightblue" d="M290.466,-197.698C306.776,-178.807 332.731,-147.481 352,-118.199 370.582,-89.9599 360.778,-71.2402 388,-51.1986 394.001,-46.7804 400.751,-43.3104 407.829,-40.5946"/>
<polygon fill="midnightblue" stroke="midnightblue" points="287.641,-195.612 283.709,-205.45 292.918,-200.211 287.641,-195.612"/>
</g>
<!-- Node16 -->
<g id="node16" class="node"><title>Node16</title>
<g id="a_node16"><a xlink:href="../../d0/da7/classconfiguration_1_1_basic_parser.html#a22bf37b374167e497f639182e7459517" target="_top" xlink:title="configuration.BasicParser.parse">
<polygon fill="white" stroke="black" points="403.5,-186.699 403.5,-205.699 570.5,-205.699 570.5,-186.699 403.5,-186.699"/>
<text text-anchor="middle" x="487" y="-193.699" font-family="Helvetica,sans-Serif" font-size="10.00">configuration.BasicParser.parse</text>
</a>
</g>
</g>
<!-- Node2&#45;&gt;Node16 -->
<g id="edge15" class="edge"><title>Node2&#45;&gt;Node16</title>
<path fill="none" stroke="midnightblue" d="M362.37,-207.331C375.964,-206.107 389.971,-204.846 403.453,-203.632"/>
<polygon fill="midnightblue" stroke="midnightblue" points="361.717,-203.876 352.071,-208.259 362.345,-210.847 361.717,-203.876"/>
</g>
<!-- Node17 -->
<g id="node17" class="node"><title>Node17</title>
<g id="a_node17"><a xlink:href="../../d3/d0d/classconfiguration_1_1_repeat_parser.html#a27c7e86622dda996677d34987f702cb6" target="_top" xlink:title="configuration.RepeatParser.parseFor">
<polygon fill="white" stroke="black" points="392.5,-148.699 392.5,-167.699 581.5,-167.699 581.5,-148.699 392.5,-148.699"/>
<text text-anchor="middle" x="487" y="-155.699" font-family="Helvetica,sans-Serif" font-size="10.00">configuration.RepeatParser.parseFor</text>
</a>
</g>
</g>
<!-- Node2&#45;&gt;Node17 -->
<g id="edge16" class="edge"><title>Node2&#45;&gt;Node17</title>
<path fill="none" stroke="midnightblue" d="M309.918,-202.117C332.064,-194.155 361.447,-184.204 388,-177.199 401.49,-173.64 416.186,-170.44 429.996,-167.726"/>
<polygon fill="midnightblue" stroke="midnightblue" points="308.49,-198.912 300.288,-205.617 310.882,-205.491 308.49,-198.912"/>
</g>
<!-- Node19 -->
<g id="node19" class="node"><title>Node19</title>
<g id="a_node19"><a xlink:href="../../dc/d64/classconfiguration_1_1_for_parser.html#a6bc38f731ac658c5860fe092ba7689ac" target="_top" xlink:title="configuration.ForParser.parseFor">
<polygon fill="white" stroke="black" points="401.5,-110.699 401.5,-129.699 572.5,-129.699 572.5,-110.699 401.5,-110.699"/>
<text text-anchor="middle" x="487" y="-117.699" font-family="Helvetica,sans-Serif" font-size="10.00">configuration.ForParser.parseFor</text>
</a>
</g>
</g>
<!-- Node2&#45;&gt;Node19 -->
<g id="edge19" class="edge"><title>Node2&#45;&gt;Node19</title>
<path fill="none" stroke="midnightblue" d="M293.926,-198.937C315.322,-181.438 351.895,-154.115 388,-139.199 397.45,-135.294 407.75,-132.18 418.006,-129.7"/>
<polygon fill="midnightblue" stroke="midnightblue" points="291.429,-196.462 285.988,-205.553 295.911,-201.84 291.429,-196.462"/>
</g>
<!-- Node21 -->
<g id="node21" class="node"><title>Node21</title>
<g id="a_node21"><a xlink:href="../../d9/dfc/classconfiguration_1_1_dotimes_parser.html#aff41ee5ce2eeff82f7586bd1cf6a91c8" target="_top" xlink:title="configuration.DotimesParser.parseFor">
<polygon fill="white" stroke="black" points="388.5,-262.699 388.5,-281.699 585.5,-281.699 585.5,-262.699 388.5,-262.699"/>
<text text-anchor="middle" x="487" y="-269.699" font-family="Helvetica,sans-Serif" font-size="10.00">configuration.DotimesParser.parseFor</text>
</a>
</g>
</g>
<!-- Node2&#45;&gt;Node21 -->
<g id="edge21" class="edge"><title>Node2&#45;&gt;Node21</title>
<path fill="none" stroke="midnightblue" d="M316.278,-227.726C337.626,-234.085 364.143,-241.797 388,-248.199 406.779,-253.238 427.698,-258.419 445.37,-262.672"/>
<polygon fill="midnightblue" stroke="midnightblue" points="317.139,-224.331 306.556,-224.818 315.133,-231.037 317.139,-224.331"/>
</g>
<!-- Node23 -->
<g id="node23" class="node"><title>Node23</title>
<g id="a_node23"><a xlink:href="../../d7/d56/classconfiguration_1_1_ifelse_parser.html#aeb471eacbe15e095075bdd09619fe15d" target="_top" xlink:title="configuration.IfelseParser.parse\lListCommands">
<polygon fill="white" stroke="black" points="404,-476.199 404,-506.199 570,-506.199 570,-476.199 404,-476.199"/>
<text text-anchor="start" x="412" y="-494.199" font-family="Helvetica,sans-Serif" font-size="10.00">configuration.IfelseParser.parse</text>
<text text-anchor="middle" x="487" y="-483.199" font-family="Helvetica,sans-Serif" font-size="10.00">ListCommands</text>
</a>
</g>
</g>
<!-- Node2&#45;&gt;Node23 -->
<g id="edge24" class="edge"><title>Node2&#45;&gt;Node23</title>
<path fill="none" stroke="midnightblue" d="M277.949,-234.848C286.135,-282.28 313.649,-403.729 388,-466.199 392.84,-470.265 398.256,-473.682 403.992,-476.552"/>
<polygon fill="midnightblue" stroke="midnightblue" points="281.397,-234.245 276.338,-224.936 274.487,-235.368 281.397,-234.245"/>
</g>
<!-- Node5 -->
<g id="node5" class="node"><title>Node5</title>
<g id="a_node5"><a xlink:href="../../d7/d56/classconfiguration_1_1_ifelse_parser.html#a4b806589536dd338338d515a0fdb67ed" target="_top" xlink:title="configuration.IfelseParser.parse">
<polygon fill="white" stroke="black" points="630,-478.699 630,-497.699 796,-497.699 796,-478.699 630,-478.699"/>
<text text-anchor="middle" x="713" y="-485.699" font-family="Helvetica,sans-Serif" font-size="10.00">configuration.IfelseParser.parse</text>
</a>
</g>
</g>
<!-- Node4&#45;&gt;Node5 -->
<g id="edge4" class="edge"><title>Node4&#45;&gt;Node5</title>
<path fill="none" stroke="midnightblue" d="M571.545,-459.355C603.357,-465.888 638.45,-473.095 665.6,-478.67"/>
<polygon fill="midnightblue" stroke="midnightblue" points="571.846,-455.844 561.346,-457.261 570.437,-462.701 571.846,-455.844"/>
</g>
<!-- Node6 -->
<g id="node6" class="node"><title>Node6</title>
<g id="a_node6"><a xlink:href="../../dc/dd1/classconfiguration_1_1_if_parser.html#ab4ed2d3b7778d2b1206e5d26ebac7976" target="_top" xlink:title="configuration.IfParser.parse">
<polygon fill="white" stroke="black" points="640,-435.699 640,-454.699 786,-454.699 786,-435.699 640,-435.699"/>
<text text-anchor="middle" x="713" y="-442.699" font-family="Helvetica,sans-Serif" font-size="10.00">configuration.IfParser.parse</text>
</a>
</g>
</g>
<!-- Node4&#45;&gt;Node6 -->
<g id="edge5" class="edge"><title>Node4&#45;&gt;Node6</title>
<path fill="none" stroke="midnightblue" d="M587.457,-443.531C605.027,-443.766 623.013,-444.007 639.658,-444.23"/>
<polygon fill="midnightblue" stroke="midnightblue" points="587.22,-440.027 577.174,-443.393 587.127,-447.027 587.22,-440.027"/>
</g>
<!-- Node7 -->
<g id="node7" class="node"><title>Node7</title>
<g id="a_node7"><a xlink:href="../../dc/dd1/classconfiguration_1_1_if_parser.html#a702326bd885126c4c3ad202676ddeff8" target="_top" xlink:title="configuration.IfParser.main">
<polygon fill="white" stroke="black" points="859.5,-435.699 859.5,-454.699 1002.5,-454.699 1002.5,-435.699 859.5,-435.699"/>
<text text-anchor="middle" x="931" y="-442.699" font-family="Helvetica,sans-Serif" font-size="10.00">configuration.IfParser.main</text>
</a>
</g>
</g>
<!-- Node6&#45;&gt;Node7 -->
<g id="edge6" class="edge"><title>Node6&#45;&gt;Node7</title>
<path fill="none" stroke="midnightblue" d="M796.296,-445.199C817.062,-445.199 839.173,-445.199 859.311,-445.199"/>
<polygon fill="midnightblue" stroke="midnightblue" points="796.225,-441.699 786.225,-445.199 796.225,-448.699 796.225,-441.699"/>
</g>
<!-- Node9 -->
<g id="node9" class="node"><title>Node9</title>
<g id="a_node9"><a xlink:href="../../d3/d0d/classconfiguration_1_1_repeat_parser.html#abf20b0ae25909c1cdff93f509830b502" target="_top" xlink:title="configuration.RepeatParser.parse">
<polygon fill="white" stroke="black" points="844,-187.699 844,-206.699 1018,-206.699 1018,-187.699 844,-187.699"/>
<text text-anchor="middle" x="931" y="-194.699" font-family="Helvetica,sans-Serif" font-size="10.00">configuration.RepeatParser.parse</text>
</a>
</g>
</g>
<!-- Node8&#45;&gt;Node9 -->
<g id="edge8" class="edge"><title>Node8&#45;&gt;Node9</title>
<path fill="none" stroke="midnightblue" d="M809.003,-211.203C821.873,-209.713 834.993,-208.195 847.617,-206.734"/>
<polygon fill="midnightblue" stroke="midnightblue" points="808.28,-207.763 798.749,-212.39 809.085,-214.717 808.28,-207.763"/>
</g>
<!-- Node10&#45;&gt;Node11 -->
<g id="edge10" class="edge"><title>Node10&#45;&gt;Node11</title>
<path fill="none" stroke="midnightblue" d="M573.703,-60.5118C602.818,-55.1829 634.445,-49.394 660.096,-44.6988"/>
<polygon fill="midnightblue" stroke="midnightblue" points="572.73,-57.1317 563.524,-62.375 573.991,-64.0173 572.73,-57.1317"/>
</g>
<!-- Node12&#45;&gt;Node13 -->
<g id="edge12" class="edge"><title>Node12&#45;&gt;Node13</title>
<path fill="none" stroke="midnightblue" d="M586.748,-318.403C598.446,-318.664 610.34,-318.929 621.909,-319.188"/>
<polygon fill="midnightblue" stroke="midnightblue" points="586.606,-314.899 576.531,-318.175 586.45,-321.897 586.606,-314.899"/>
</g>
<!-- Node14 -->
<g id="node14" class="node"><title>Node14</title>
<g id="a_node14"><a xlink:href="../../d9/dfc/classconfiguration_1_1_dotimes_parser.html#abf0eb9bddfa4a09adc745008e17b293b" target="_top" xlink:title="configuration.DotimesParser.parse">
<polygon fill="white" stroke="black" points="840,-286.699 840,-305.699 1022,-305.699 1022,-286.699 840,-286.699"/>
<text text-anchor="middle" x="931" y="-293.699" font-family="Helvetica,sans-Serif" font-size="10.00">configuration.DotimesParser.parse</text>
</a>
</g>
</g>
<!-- Node13&#45;&gt;Node14 -->
<g id="edge13" class="edge"><title>Node13&#45;&gt;Node14</title>
<path fill="none" stroke="midnightblue" d="M814.272,-309.593C825.464,-308.298 836.767,-306.989 847.698,-305.724"/>
<polygon fill="midnightblue" stroke="midnightblue" points="813.571,-306.151 804.039,-310.777 814.375,-313.104 813.571,-306.151"/>
</g>
<!-- Node18 -->
<g id="node18" class="node"><title>Node18</title>
<g id="a_node18"><a xlink:href="../../d3/d0d/classconfiguration_1_1_repeat_parser.html#aed07d335bcd1174cb4247a7add0d3315" target="_top" xlink:title="configuration.RepeatParser.parse\lCommands">
<polygon fill="white" stroke="black" points="626,-156.199 626,-186.199 800,-186.199 800,-156.199 626,-156.199"/>
<text text-anchor="start" x="634" y="-174.199" font-family="Helvetica,sans-Serif" font-size="10.00">configuration.RepeatParser.parse</text>
<text text-anchor="middle" x="713" y="-163.199" font-family="Helvetica,sans-Serif" font-size="10.00">Commands</text>
</a>
</g>
</g>
<!-- Node17&#45;&gt;Node18 -->
<g id="edge17" class="edge"><title>Node17&#45;&gt;Node18</title>
<path fill="none" stroke="midnightblue" d="M591.693,-164.217C603.115,-164.879 614.652,-165.549 625.826,-166.197"/>
<polygon fill="midnightblue" stroke="midnightblue" points="591.884,-160.722 581.698,-163.636 591.479,-167.71 591.884,-160.722"/>
</g>
<!-- Node18&#45;&gt;Node9 -->
<g id="edge18" class="edge"><title>Node18&#45;&gt;Node9</title>
<path fill="none" stroke="midnightblue" d="M810.543,-182.82C824.018,-184.442 837.734,-186.092 850.838,-187.67"/>
<polygon fill="midnightblue" stroke="midnightblue" points="810.647,-179.307 800.3,-181.587 809.81,-186.257 810.647,-179.307"/>
</g>
<!-- Node20 -->
<g id="node20" class="node"><title>Node20</title>
<g id="a_node20"><a xlink:href="../../dc/d64/classconfiguration_1_1_for_parser.html#ad3cb5184cf449bd3414f3ba73a8b3104" target="_top" xlink:title="configuration.ForParser.parse\lCommands">
<polygon fill="white" stroke="black" points="635,-105.199 635,-135.199 791,-135.199 791,-105.199 635,-105.199"/>
<text text-anchor="start" x="643" y="-123.199" font-family="Helvetica,sans-Serif" font-size="10.00">configuration.ForParser.parse</text>
<text text-anchor="middle" x="713" y="-112.199" font-family="Helvetica,sans-Serif" font-size="10.00">Commands</text>
</a>
</g>
</g>
<!-- Node19&#45;&gt;Node20 -->
<g id="edge20" class="edge"><title>Node19&#45;&gt;Node20</title>
<path fill="none" stroke="midnightblue" d="M582.838,-120.199C600.214,-120.199 618.155,-120.199 634.934,-120.199"/>
<polygon fill="midnightblue" stroke="midnightblue" points="582.685,-116.699 572.685,-120.199 582.685,-123.699 582.685,-116.699"/>
</g>
<!-- Node22 -->
<g id="node22" class="node"><title>Node22</title>
<g id="a_node22"><a xlink:href="../../d9/dfc/classconfiguration_1_1_dotimes_parser.html#a6086c4c4651b29dd968bf4728bd71d0c" target="_top" xlink:title="configuration.DotimesParser.parse\lCommands">
<polygon fill="white" stroke="black" points="622,-257.199 622,-287.199 804,-287.199 804,-257.199 622,-257.199"/>
<text text-anchor="start" x="630" y="-275.199" font-family="Helvetica,sans-Serif" font-size="10.00">configuration.DotimesParser.parse</text>
<text text-anchor="middle" x="713" y="-264.199" font-family="Helvetica,sans-Serif" font-size="10.00">Commands</text>
</a>
</g>
</g>
<!-- Node21&#45;&gt;Node22 -->
<g id="edge22" class="edge"><title>Node21&#45;&gt;Node22</title>
<path fill="none" stroke="midnightblue" d="M595.785,-272.199C604.488,-272.199 613.224,-272.199 621.783,-272.199"/>
<polygon fill="midnightblue" stroke="midnightblue" points="595.598,-268.699 585.598,-272.199 595.598,-275.699 595.598,-268.699"/>
</g>
<!-- Node22&#45;&gt;Node14 -->
<g id="edge23" class="edge"><title>Node22&#45;&gt;Node14</title>
<path fill="none" stroke="midnightblue" d="M814.081,-283.319C824.166,-284.439 834.344,-285.57 844.26,-286.672"/>
<polygon fill="midnightblue" stroke="midnightblue" points="814.365,-279.829 804.039,-282.203 813.592,-286.786 814.365,-279.829"/>
</g>
<!-- Node23&#45;&gt;Node5 -->
<g id="edge25" class="edge"><title>Node23&#45;&gt;Node5</title>
<path fill="none" stroke="midnightblue" d="M580.283,-489.963C596.72,-489.743 613.742,-489.515 629.873,-489.299"/>
<polygon fill="midnightblue" stroke="midnightblue" points="580.09,-486.465 570.137,-490.099 580.183,-493.464 580.09,-486.465"/>
</g>
<!-- Node23&#45;&gt;Node6 -->
<g id="edge26" class="edge"><title>Node23&#45;&gt;Node6</title>
<path fill="none" stroke="midnightblue" d="M571.545,-474.042C603.357,-467.509 638.45,-460.303 665.6,-454.727"/>
<polygon fill="midnightblue" stroke="midnightblue" points="570.437,-470.696 561.346,-476.136 571.846,-477.553 570.437,-470.696"/>
</g>
</g>
</svg>
