<?xml version="1.0" encoding="UTF-8" standalone="no"?>
<!DOCTYPE svg PUBLIC "-//W3C//DTD SVG 1.1//EN"
 "http://www.w3.org/Graphics/SVG/1.1/DTD/svg11.dtd">
<!-- Generated by graphviz version 2.36.0 (20140111.2315)
 -->
<!-- Title: configuration.Parser.isEnd Pages: 1 -->
<svg width="818pt" height="523pt"
 viewBox="0.00 0.00 818.00 523.44" xmlns="http://www.w3.org/2000/svg" xmlns:xlink="http://www.w3.org/1999/xlink">
<g id="graph0" class="graph" transform="scale(1 1) rotate(0) translate(4 519.444)">
<title>configuration.Parser.isEnd</title>
<polygon fill="white" stroke="none" points="-4,4 -4,-519.444 814,-519.444 814,4 -4,4"/>
<!-- Node1 -->
<g id="node1" class="node"><title>Node1</title>
<polygon fill="#bfbfbf" stroke="black" points="0,-239.5 0,-258.5 140,-258.5 140,-239.5 0,-239.5"/>
<text text-anchor="middle" x="70" y="-246.5" font-family="Helvetica,sans-Serif" font-size="10.00">configuration.Parser.isEnd</text>
</g>
<!-- Node2 -->
<g id="node2" class="node"><title>Node2</title>
<g id="a_node2"><a xlink:href="../../d7/d56/classconfiguration_1_1_ifelse_parser.html#a4b806589536dd338338d515a0fdb67ed" target="_top" xlink:title="configuration.IfelseParser.parse">
<polygon fill="white" stroke="black" points="418,-469.5 418,-488.5 584,-488.5 584,-469.5 418,-469.5"/>
<text text-anchor="middle" x="501" y="-476.5" font-family="Helvetica,sans-Serif" font-size="10.00">configuration.IfelseParser.parse</text>
</a>
</g>
</g>
<!-- Node1&#45;&gt;Node2 -->
<g id="edge1" class="edge"><title>Node1&#45;&gt;Node2</title>
<path fill="none" stroke="midnightblue" d="M72.9592,-268.61C78.7955,-315.229 100.663,-432.403 176,-481 269.594,-541.374 412.228,-507.161 472.055,-488.559"/>
<polygon fill="midnightblue" stroke="midnightblue" points="76.428,-268.137 71.8215,-258.596 69.4728,-268.927 76.428,-268.137"/>
</g>
<!-- Node3 -->
<g id="node3" class="node"><title>Node3</title>
<g id="a_node3"><a xlink:href="../../d3/d0d/classconfiguration_1_1_repeat_parser.html#abf20b0ae25909c1cdff93f509830b502" target="_top" xlink:title="configuration.RepeatParser.parse">
<polygon fill="white" stroke="black" points="414,-343.5 414,-362.5 588,-362.5 588,-343.5 414,-343.5"/>
<text text-anchor="middle" x="501" y="-350.5" font-family="Helvetica,sans-Serif" font-size="10.00">configuration.RepeatParser.parse</text>
</a>
</g>
</g>
<!-- Node1&#45;&gt;Node3 -->
<g id="edge2" class="edge"><title>Node1&#45;&gt;Node3</title>
<path fill="none" stroke="midnightblue" d="M82.3856,-267.484C99.216,-292.825 133.389,-337.232 176,-355 272.308,-395.16 399.164,-376.069 461.729,-362.509"/>
<polygon fill="midnightblue" stroke="midnightblue" points="85.155,-265.32 76.8029,-258.801 79.2669,-269.105 85.155,-265.32"/>
</g>
<!-- Node4 -->
<g id="node4" class="node"><title>Node4</title>
<g id="a_node4"><a xlink:href="../../d9/dfc/classconfiguration_1_1_dotimes_parser.html#abf0eb9bddfa4a09adc745008e17b293b" target="_top" xlink:title="configuration.DotimesParser.parse">
<polygon fill="white" stroke="black" points="628,-255.5 628,-274.5 810,-274.5 810,-255.5 628,-255.5"/>
<text text-anchor="middle" x="719" y="-262.5" font-family="Helvetica,sans-Serif" font-size="10.00">configuration.DotimesParser.parse</text>
</a>
</g>
</g>
<!-- Node1&#45;&gt;Node4 -->
<g id="edge3" class="edge"><title>Node1&#45;&gt;Node4</title>
<path fill="none" stroke="midnightblue" d="M150.256,-258.81C158.934,-259.66 167.646,-260.417 176,-261 360.459,-273.88 407.098,-268.467 592,-267 603.595,-266.908 615.789,-266.768 627.838,-266.605"/>
<polygon fill="midnightblue" stroke="midnightblue" points="150.412,-255.308 140.108,-257.775 149.701,-262.272 150.412,-255.308"/>
</g>
<!-- Node5 -->
<g id="node5" class="node"><title>Node5</title>
<g id="a_node5"><a xlink:href="../../dc/d64/classconfiguration_1_1_for_parser.html#a2737b422e279cfca7c64fd8eff57d3ff" target="_top" xlink:title="configuration.ForParser.parse">
<polygon fill="white" stroke="black" points="197,-163.5 197,-182.5 353,-182.5 353,-163.5 197,-163.5"/>
<text text-anchor="middle" x="275" y="-170.5" font-family="Helvetica,sans-Serif" font-size="10.00">configuration.ForParser.parse</text>
</a>
</g>
</g>
<!-- Node1&#45;&gt;Node5 -->
<g id="edge4" class="edge"><title>Node1&#45;&gt;Node5</title>
<path fill="none" stroke="midnightblue" d="M93.9599,-233.852C114.613,-220.893 146.202,-202.689 176,-192 186.685,-188.167 198.318,-185.052 209.714,-182.538"/>
<polygon fill="midnightblue" stroke="midnightblue" points="91.8304,-231.059 85.2861,-239.391 95.5979,-236.959 91.8304,-231.059"/>
</g>
<!-- Node6 -->
<g id="node6" class="node"><title>Node6</title>
<g id="a_node6"><a xlink:href="../../db/d22/classconfiguration_1_1_set_parser.html#a4f20258805caaf18872872d5283a0e74" target="_top" xlink:title="configuration.SetParser.parse">
<polygon fill="white" stroke="black" points="196,-125.5 196,-144.5 354,-144.5 354,-125.5 196,-125.5"/>
<text text-anchor="middle" x="275" y="-132.5" font-family="Helvetica,sans-Serif" font-size="10.00">configuration.SetParser.parse</text>
</a>
</g>
</g>
<!-- Node1&#45;&gt;Node6 -->
<g id="edge5" class="edge"><title>Node1&#45;&gt;Node6</title>
<path fill="none" stroke="midnightblue" d="M84.9484,-231.524C103.368,-209.726 137.951,-173.016 176,-154 183.829,-150.087 192.382,-146.979 201.07,-144.51"/>
<polygon fill="midnightblue" stroke="midnightblue" points="82.1635,-229.4 78.4972,-239.34 87.5621,-233.856 82.1635,-229.4"/>
</g>
<!-- Node7 -->
<g id="node7" class="node"><title>Node7</title>
<g id="a_node7"><a xlink:href="../../dc/dd1/classconfiguration_1_1_if_parser.html#ab4ed2d3b7778d2b1206e5d26ebac7976" target="_top" xlink:title="configuration.IfParser.parse">
<polygon fill="white" stroke="black" points="428,-417.5 428,-436.5 574,-436.5 574,-417.5 428,-417.5"/>
<text text-anchor="middle" x="501" y="-424.5" font-family="Helvetica,sans-Serif" font-size="10.00">configuration.IfParser.parse</text>
</a>
</g>
</g>
<!-- Node1&#45;&gt;Node7 -->
<g id="edge6" class="edge"><title>Node1&#45;&gt;Node7</title>
<path fill="none" stroke="midnightblue" d="M80.0806,-267.967C95.3539,-297.583 129.17,-354.191 176,-381 253.781,-425.527 358.731,-432.645 427.831,-431.55"/>
<polygon fill="midnightblue" stroke="midnightblue" points="83.0578,-266.094 75.4606,-258.71 76.7945,-269.22 83.0578,-266.094"/>
</g>
<!-- Node8 -->
<g id="node8" class="node"><title>Node8</title>
<g id="a_node8"><a xlink:href="../../d9/dfc/classconfiguration_1_1_dotimes_parser.html#a6086c4c4651b29dd968bf4728bd71d0c" target="_top" xlink:title="configuration.DotimesParser.parse\lCommands">
<polygon fill="white" stroke="black" points="410,-228 410,-258 592,-258 592,-228 410,-228"/>
<text text-anchor="start" x="418" y="-246" font-family="Helvetica,sans-Serif" font-size="10.00">configuration.DotimesParser.parse</text>
<text text-anchor="middle" x="501" y="-235" font-family="Helvetica,sans-Serif" font-size="10.00">Commands</text>
</a>
</g>
</g>
<!-- Node1&#45;&gt;Node8 -->
<g id="edge7" class="edge"><title>Node1&#45;&gt;Node8</title>
<path fill="none" stroke="midnightblue" d="M150.529,-247.888C224.012,-246.86 333.093,-245.334 409.797,-244.262"/>
<polygon fill="midnightblue" stroke="midnightblue" points="150.353,-244.39 140.403,-248.029 150.451,-251.389 150.353,-244.39"/>
</g>
<!-- Node9 -->
<g id="node9" class="node"><title>Node9</title>
<g id="a_node9"><a xlink:href="../../dc/d64/classconfiguration_1_1_for_parser.html#ad3cb5184cf449bd3414f3ba73a8b3104" target="_top" xlink:title="configuration.ForParser.parse\lCommands">
<polygon fill="white" stroke="black" points="423,-63 423,-93 579,-93 579,-63 423,-63"/>
<text text-anchor="start" x="431" y="-81" font-family="Helvetica,sans-Serif" font-size="10.00">configuration.ForParser.parse</text>
<text text-anchor="middle" x="501" y="-70" font-family="Helvetica,sans-Serif" font-size="10.00">Commands</text>
</a>
</g>
</g>
<!-- Node1&#45;&gt;Node9 -->
<g id="edge9" class="edge"><title>Node1&#45;&gt;Node9</title>
<path fill="none" stroke="midnightblue" d="M79.7676,-230.149C94.7847,-200.233 128.471,-142.562 176,-116 216.972,-93.1018 340.711,-83.9251 422.865,-80.3008"/>
<polygon fill="midnightblue" stroke="midnightblue" points="76.6189,-228.62 75.3976,-239.145 82.9153,-231.679 76.6189,-228.62"/>
</g>
<!-- Node10 -->
<g id="node10" class="node"><title>Node10</title>
<g id="a_node10"><a xlink:href="../../d3/d0d/classconfiguration_1_1_repeat_parser.html#aed07d335bcd1174cb4247a7add0d3315" target="_top" xlink:title="configuration.RepeatParser.parse\lCommands">
<polygon fill="white" stroke="black" points="188,-316 188,-346 362,-346 362,-316 188,-316"/>
<text text-anchor="start" x="196" y="-334" font-family="Helvetica,sans-Serif" font-size="10.00">configuration.RepeatParser.parse</text>
<text text-anchor="middle" x="275" y="-323" font-family="Helvetica,sans-Serif" font-size="10.00">Commands</text>
</a>
</g>
</g>
<!-- Node1&#45;&gt;Node10 -->
<g id="edge10" class="edge"><title>Node1&#45;&gt;Node10</title>
<path fill="none" stroke="midnightblue" d="M96.9744,-263.346C117.901,-274.54 148.297,-289.985 176,-301 189.806,-306.489 205.032,-311.59 219.282,-315.97"/>
<polygon fill="midnightblue" stroke="midnightblue" points="98.5311,-260.209 88.0695,-258.534 95.203,-266.368 98.5311,-260.209"/>
</g>
<!-- Node11 -->
<g id="node11" class="node"><title>Node11</title>
<g id="a_node11"><a xlink:href="../../dc/d64/classconfiguration_1_1_for_parser.html#a6bc38f731ac658c5860fe092ba7689ac" target="_top" xlink:title="configuration.ForParser.parseFor">
<polygon fill="white" stroke="black" points="189.5,-49.5 189.5,-68.5 360.5,-68.5 360.5,-49.5 189.5,-49.5"/>
<text text-anchor="middle" x="275" y="-56.5" font-family="Helvetica,sans-Serif" font-size="10.00">configuration.ForParser.parseFor</text>
</a>
</g>
</g>
<!-- Node1&#45;&gt;Node11 -->
<g id="edge12" class="edge"><title>Node1&#45;&gt;Node11</title>
<path fill="none" stroke="midnightblue" d="M77.5985,-229.804C90.6249,-194.885 123.062,-121.072 176,-83 184.817,-76.659 195.111,-71.9817 205.65,-68.5342"/>
<polygon fill="midnightblue" stroke="midnightblue" points="74.2706,-228.715 74.1777,-239.31 80.8571,-231.086 74.2706,-228.715"/>
</g>
<!-- Node12 -->
<g id="node12" class="node"><title>Node12</title>
<g id="a_node12"><a xlink:href="../../d9/dfc/classconfiguration_1_1_dotimes_parser.html#aff41ee5ce2eeff82f7586bd1cf6a91c8" target="_top" xlink:title="configuration.DotimesParser.parseFor">
<polygon fill="white" stroke="black" points="176.5,-201.5 176.5,-220.5 373.5,-220.5 373.5,-201.5 176.5,-201.5"/>
<text text-anchor="middle" x="275" y="-208.5" font-family="Helvetica,sans-Serif" font-size="10.00">configuration.DotimesParser.parseFor</text>
</a>
</g>
</g>
<!-- Node1&#45;&gt;Node12 -->
<g id="edge14" class="edge"><title>Node1&#45;&gt;Node12</title>
<path fill="none" stroke="midnightblue" d="M131.997,-237.582C161.042,-232.145 195.382,-225.717 223.016,-220.544"/>
<polygon fill="midnightblue" stroke="midnightblue" points="131.149,-234.18 121.963,-239.46 132.437,-241.06 131.149,-234.18"/>
</g>
<!-- Node13 -->
<g id="node13" class="node"><title>Node13</title>
<g id="a_node13"><a xlink:href="../../d3/d0d/classconfiguration_1_1_repeat_parser.html#ad35abe70f202dc3dd93bbdb50acd490d" target="_top" xlink:title="configuration.RepeatParser.parse\lListCommands">
<polygon fill="white" stroke="black" points="188,-0 188,-30 362,-30 362,-0 188,-0"/>
<text text-anchor="start" x="196" y="-18" font-family="Helvetica,sans-Serif" font-size="10.00">configuration.RepeatParser.parse</text>
<text text-anchor="middle" x="275" y="-7" font-family="Helvetica,sans-Serif" font-size="10.00">ListCommands</text>
</a>
</g>
</g>
<!-- Node1&#45;&gt;Node13 -->
<g id="edge16" class="edge"><title>Node1&#45;&gt;Node13</title>
<path fill="none" stroke="midnightblue" d="M75.1011,-229.349C84.8437,-187.724 113.401,-90.3636 176,-40 180.788,-36.1476 186.099,-32.8814 191.7,-30.1129"/>
<polygon fill="midnightblue" stroke="midnightblue" points="71.6395,-228.792 72.8841,-239.314 78.4724,-230.313 71.6395,-228.792"/>
</g>
<!-- Node14 -->
<g id="node14" class="node"><title>Node14</title>
<g id="a_node14"><a xlink:href="../../d7/d56/classconfiguration_1_1_ifelse_parser.html#aeb471eacbe15e095075bdd09619fe15d" target="_top" xlink:title="configuration.IfelseParser.parse\lListCommands">
<polygon fill="white" stroke="black" points="192,-442 192,-472 358,-472 358,-442 192,-442"/>
<text text-anchor="start" x="200" y="-460" font-family="Helvetica,sans-Serif" font-size="10.00">configuration.IfelseParser.parse</text>
<text text-anchor="middle" x="275" y="-449" font-family="Helvetica,sans-Serif" font-size="10.00">ListCommands</text>
</a>
</g>
</g>
<!-- Node1&#45;&gt;Node14 -->
<g id="edge17" class="edge"><title>Node1&#45;&gt;Node14</title>
<path fill="none" stroke="midnightblue" d="M77.2371,-268.746C89.8438,-305.452 121.861,-384.332 176,-427 183.826,-433.168 192.917,-438.073 202.346,-441.972"/>
<polygon fill="midnightblue" stroke="midnightblue" points="80.4088,-267.189 73.9449,-258.795 73.7631,-269.388 80.4088,-267.189"/>
</g>
<!-- Node8&#45;&gt;Node4 -->
<g id="edge8" class="edge"><title>Node8&#45;&gt;Node4</title>
<path fill="none" stroke="midnightblue" d="M602.059,-253.191C610.631,-254.064 619.27,-254.944 627.759,-255.809"/>
<polygon fill="midnightblue" stroke="midnightblue" points="602.343,-249.702 592.039,-252.171 601.633,-256.666 602.343,-249.702"/>
</g>
<!-- Node10&#45;&gt;Node3 -->
<g id="edge11" class="edge"><title>Node10&#45;&gt;Node3</title>
<path fill="none" stroke="midnightblue" d="M372.259,-340.454C386.055,-341.809 400.175,-343.196 413.761,-344.53"/>
<polygon fill="midnightblue" stroke="midnightblue" points="372.578,-336.969 362.284,-339.474 371.894,-343.935 372.578,-336.969"/>
</g>
<!-- Node11&#45;&gt;Node9 -->
<g id="edge13" class="edge"><title>Node11&#45;&gt;Node9</title>
<path fill="none" stroke="midnightblue" d="M370.838,-67.0443C388.214,-68.5182 406.155,-70.04 422.934,-71.4631"/>
<polygon fill="midnightblue" stroke="midnightblue" points="370.945,-63.5409 360.685,-66.1831 370.353,-70.5158 370.945,-63.5409"/>
</g>
<!-- Node12&#45;&gt;Node8 -->
<g id="edge15" class="edge"><title>Node12&#45;&gt;Node8</title>
<path fill="none" stroke="midnightblue" d="M352.628,-221.947C370.964,-224.566 390.71,-227.387 409.603,-230.086"/>
<polygon fill="midnightblue" stroke="midnightblue" points="352.995,-218.464 342.601,-220.514 352.005,-225.394 352.995,-218.464"/>
</g>
<!-- Node14&#45;&gt;Node2 -->
<g id="edge18" class="edge"><title>Node14&#45;&gt;Node2</title>
<path fill="none" stroke="midnightblue" d="M368.283,-466.064C384.72,-467.678 401.742,-469.35 417.873,-470.934"/>
<polygon fill="midnightblue" stroke="midnightblue" points="368.432,-462.561 358.137,-465.067 367.747,-469.528 368.432,-462.561"/>
</g>
<!-- Node14&#45;&gt;Node7 -->
<g id="edge19" class="edge"><title>Node14&#45;&gt;Node7</title>
<path fill="none" stroke="midnightblue" d="M368.31,-444.637C388.556,-441.926 409.688,-439.095 428.947,-436.516"/>
<polygon fill="midnightblue" stroke="midnightblue" points="367.584,-441.203 358.137,-445.999 368.514,-448.141 367.584,-441.203"/>
</g>
</g>
</svg>
