<?xml version="1.0" encoding="UTF-8" standalone="no"?>
<!DOCTYPE svg PUBLIC "-//W3C//DTD SVG 1.1//EN"
 "http://www.w3.org/Graphics/SVG/1.1/DTD/svg11.dtd">
<!-- Generated by graphviz version 2.36.0 (20140111.2315)
 -->
<!-- Title: configuration.Parser.buildTree Pages: 1 -->
<svg width="834pt" height="557pt"
 viewBox="0.00 0.00 834.00 557.00" xmlns="http://www.w3.org/2000/svg" xmlns:xlink="http://www.w3.org/1999/xlink">
<g id="graph0" class="graph" transform="scale(1 1) rotate(0) translate(4 553)">
<title>configuration.Parser.buildTree</title>
<polygon fill="white" stroke="none" points="-4,4 -4,-553 830,-553 830,4 -4,4"/>
<!-- Node1 -->
<g id="node1" class="node"><title>Node1</title>
<polygon fill="#bfbfbf" stroke="black" points="0,-267.5 0,-286.5 156,-286.5 156,-267.5 0,-267.5"/>
<text text-anchor="middle" x="78" y="-274.5" font-family="Helvetica,sans-Serif" font-size="10.00">configuration.Parser.buildTree</text>
</g>
<!-- Node2 -->
<g id="node2" class="node"><title>Node2</title>
<g id="a_node2"><a xlink:href="../../d9/d11/classconfiguration_1_1_parser.html#a041ccb70bd9dee77d512d8469c15c14f" target="_top" xlink:title="configuration.Parser.buildTree">
<polygon fill="white" stroke="black" points="213,-529.5 213,-548.5 369,-548.5 369,-529.5 213,-529.5"/>
<text text-anchor="middle" x="291" y="-536.5" font-family="Helvetica,sans-Serif" font-size="10.00">configuration.Parser.buildTree</text>
</a>
</g>
</g>
<!-- Node1&#45;&gt;Node2 -->
<g id="edge1" class="edge"><title>Node1&#45;&gt;Node2</title>
<path fill="none" stroke="midnightblue" d="M82.4171,-296.584C91.4606,-342.314 120.419,-456.658 192,-515 199.739,-521.308 208.891,-525.997 218.442,-529.475"/>
<polygon fill="midnightblue" stroke="midnightblue" points="85.8121,-295.698 80.5331,-286.512 78.9315,-296.985 85.8121,-295.698"/>
</g>
<!-- Node3 -->
<g id="node3" class="node"><title>Node3</title>
<g id="a_node3"><a xlink:href="../../d7/d56/classconfiguration_1_1_ifelse_parser.html#aef13959a758ccbf8dab0a3f5f94a7be0" target="_top" xlink:title="configuration.IfelseParser.evaluate\lBoolExpr">
<polygon fill="white" stroke="black" points="201,-344 201,-374 381,-374 381,-344 201,-344"/>
<text text-anchor="start" x="209" y="-362" font-family="Helvetica,sans-Serif" font-size="10.00">configuration.IfelseParser.evaluate</text>
<text text-anchor="middle" x="291" y="-351" font-family="Helvetica,sans-Serif" font-size="10.00">BoolExpr</text>
</a>
</g>
</g>
<!-- Node1&#45;&gt;Node3 -->
<g id="edge2" class="edge"><title>Node1&#45;&gt;Node3</title>
<path fill="none" stroke="midnightblue" d="M104.2,-291.714C126.64,-304.326 160.673,-322.263 192,-334 201.866,-337.696 212.49,-341.033 222.976,-343.976"/>
<polygon fill="midnightblue" stroke="midnightblue" points="105.757,-288.573 95.3343,-286.669 102.295,-294.657 105.757,-288.573"/>
</g>
<!-- Node5 -->
<g id="node5" class="node"><title>Node5</title>
<g id="a_node5"><a xlink:href="../../dc/dd1/classconfiguration_1_1_if_parser.html#a4a4ff4b725b19d88a1b364de84147f5d" target="_top" xlink:title="configuration.IfParser.evaluate\lBoolExpr">
<polygon fill="white" stroke="black" points="210.5,-131 210.5,-161 371.5,-161 371.5,-131 210.5,-131"/>
<text text-anchor="start" x="218.5" y="-149" font-family="Helvetica,sans-Serif" font-size="10.00">configuration.IfParser.evaluate</text>
<text text-anchor="middle" x="291" y="-138" font-family="Helvetica,sans-Serif" font-size="10.00">BoolExpr</text>
</a>
</g>
</g>
<!-- Node1&#45;&gt;Node5 -->
<g id="edge4" class="edge"><title>Node1&#45;&gt;Node5</title>
<path fill="none" stroke="midnightblue" d="M92.5693,-259.355C111.967,-235.391 149.958,-192.921 192,-170 198.306,-166.562 205.105,-163.61 212.079,-161.076"/>
<polygon fill="midnightblue" stroke="midnightblue" points="89.7596,-257.265 86.2908,-267.276 95.2454,-261.613 89.7596,-257.265"/>
</g>
<!-- Node7 -->
<g id="node7" class="node"><title>Node7</title>
<g id="a_node7"><a xlink:href="../../d3/d0d/classconfiguration_1_1_repeat_parser.html#ab218ee8c24e4dab18c02cd4a536d15d3" target="_top" xlink:title="configuration.RepeatParser.fetch\lNumericExpr">
<polygon fill="white" stroke="black" points="431.5,-486 431.5,-516 602.5,-516 602.5,-486 431.5,-486"/>
<text text-anchor="start" x="439.5" y="-504" font-family="Helvetica,sans-Serif" font-size="10.00">configuration.RepeatParser.fetch</text>
<text text-anchor="middle" x="517" y="-493" font-family="Helvetica,sans-Serif" font-size="10.00">NumericExpr</text>
</a>
</g>
</g>
<!-- Node1&#45;&gt;Node7 -->
<g id="edge6" class="edge"><title>Node1&#45;&gt;Node7</title>
<path fill="none" stroke="midnightblue" d="M83.2914,-296.897C93.6038,-339.289 124.125,-438.133 192,-481 230.418,-505.263 348.986,-506.895 431.491,-504.78"/>
<polygon fill="midnightblue" stroke="midnightblue" points="86.6583,-295.921 80.9987,-286.965 79.8376,-297.496 86.6583,-295.921"/>
</g>
<!-- Node9 -->
<g id="node9" class="node"><title>Node9</title>
<g id="a_node9"><a xlink:href="../../dc/d64/classconfiguration_1_1_for_parser.html#a95aeb8afdb254389dcef062be1cf2727" target="_top" xlink:title="configuration.ForParser.fetch\lNumericExpr">
<polygon fill="white" stroke="black" points="214.5,-442 214.5,-472 367.5,-472 367.5,-442 214.5,-442"/>
<text text-anchor="start" x="222.5" y="-460" font-family="Helvetica,sans-Serif" font-size="10.00">configuration.ForParser.fetch</text>
<text text-anchor="middle" x="291" y="-449" font-family="Helvetica,sans-Serif" font-size="10.00">NumericExpr</text>
</a>
</g>
</g>
<!-- Node1&#45;&gt;Node9 -->
<g id="edge8" class="edge"><title>Node1&#45;&gt;Node9</title>
<path fill="none" stroke="midnightblue" d="M87.5626,-296.256C103.29,-329.335 140,-396.782 192,-432 198.833,-436.628 206.46,-440.399 214.36,-443.472"/>
<polygon fill="midnightblue" stroke="midnightblue" points="90.5701,-294.421 83.2007,-286.809 84.2148,-297.355 90.5701,-294.421"/>
</g>
<!-- Node11 -->
<g id="node11" class="node"><title>Node11</title>
<g id="a_node11"><a xlink:href="../../d9/dfc/classconfiguration_1_1_dotimes_parser.html#a26cc7f8e0a21d93091bfe8884a924450" target="_top" xlink:title="configuration.DotimesParser.fetch\lNumericExpr">
<polygon fill="white" stroke="black" points="201.5,-2 201.5,-32 380.5,-32 380.5,-2 201.5,-2"/>
<text text-anchor="start" x="209.5" y="-20" font-family="Helvetica,sans-Serif" font-size="10.00">configuration.DotimesParser.fetch</text>
<text text-anchor="middle" x="291" y="-9" font-family="Helvetica,sans-Serif" font-size="10.00">NumericExpr</text>
</a>
</g>
</g>
<!-- Node1&#45;&gt;Node11 -->
<g id="edge10" class="edge"><title>Node1&#45;&gt;Node11</title>
<path fill="none" stroke="midnightblue" d="M82.8569,-257.468C92.702,-212.853 123.016,-102.86 192,-45 198.236,-39.7693 205.396,-35.5143 212.945,-32.0533"/>
<polygon fill="midnightblue" stroke="midnightblue" points="79.4157,-256.825 80.7839,-267.331 86.2661,-258.265 79.4157,-256.825"/>
</g>
<!-- Node14 -->
<g id="node14" class="node"><title>Node14</title>
<g id="a_node14"><a xlink:href="../../db/d22/classconfiguration_1_1_set_parser.html#a4f20258805caaf18872872d5283a0e74" target="_top" xlink:title="configuration.SetParser.parse">
<polygon fill="white" stroke="black" points="212,-267.5 212,-286.5 370,-286.5 370,-267.5 212,-267.5"/>
<text text-anchor="middle" x="291" y="-274.5" font-family="Helvetica,sans-Serif" font-size="10.00">configuration.SetParser.parse</text>
</a>
</g>
</g>
<!-- Node1&#45;&gt;Node14 -->
<g id="edge13" class="edge"><title>Node1&#45;&gt;Node14</title>
<path fill="none" stroke="midnightblue" d="M166.381,-277C181.413,-277 196.95,-277 211.723,-277"/>
<polygon fill="midnightblue" stroke="midnightblue" points="166.072,-273.5 156.071,-277 166.071,-280.5 166.072,-273.5"/>
</g>
<!-- Node15 -->
<g id="node15" class="node"><title>Node15</title>
<g id="a_node15"><a xlink:href="../../d0/da7/classconfiguration_1_1_basic_parser.html#a22bf37b374167e497f639182e7459517" target="_top" xlink:title="configuration.BasicParser.parse">
<polygon fill="white" stroke="black" points="207.5,-229.5 207.5,-248.5 374.5,-248.5 374.5,-229.5 207.5,-229.5"/>
<text text-anchor="middle" x="291" y="-236.5" font-family="Helvetica,sans-Serif" font-size="10.00">configuration.BasicParser.parse</text>
</a>
</g>
</g>
<!-- Node1&#45;&gt;Node15 -->
<g id="edge14" class="edge"><title>Node1&#45;&gt;Node15</title>
<path fill="none" stroke="midnightblue" d="M142.005,-265.653C172.279,-260.201 208.158,-253.739 237.006,-248.544"/>
<polygon fill="midnightblue" stroke="midnightblue" points="141.193,-262.243 131.972,-267.46 142.434,-269.132 141.193,-262.243"/>
</g>
<!-- Node16 -->
<g id="node16" class="node"><title>Node16</title>
<g id="a_node16"><a xlink:href="../../d3/d0d/classconfiguration_1_1_repeat_parser.html#a27c7e86622dda996677d34987f702cb6" target="_top" xlink:title="configuration.RepeatParser.parseFor">
<polygon fill="white" stroke="black" points="196.5,-305.5 196.5,-324.5 385.5,-324.5 385.5,-305.5 196.5,-305.5"/>
<text text-anchor="middle" x="291" y="-312.5" font-family="Helvetica,sans-Serif" font-size="10.00">configuration.RepeatParser.parseFor</text>
</a>
</g>
</g>
<!-- Node1&#45;&gt;Node16 -->
<g id="edge15" class="edge"><title>Node1&#45;&gt;Node16</title>
<path fill="none" stroke="midnightblue" d="M142.005,-288.347C172.279,-293.799 208.158,-300.261 237.006,-305.456"/>
<polygon fill="midnightblue" stroke="midnightblue" points="142.434,-284.868 131.972,-286.54 141.193,-291.757 142.434,-284.868"/>
</g>
<!-- Node18 -->
<g id="node18" class="node"><title>Node18</title>
<g id="a_node18"><a xlink:href="../../dc/d64/classconfiguration_1_1_for_parser.html#a6bc38f731ac658c5860fe092ba7689ac" target="_top" xlink:title="configuration.ForParser.parseFor">
<polygon fill="white" stroke="black" points="205.5,-54.5 205.5,-73.5 376.5,-73.5 376.5,-54.5 205.5,-54.5"/>
<text text-anchor="middle" x="291" y="-61.5" font-family="Helvetica,sans-Serif" font-size="10.00">configuration.ForParser.parseFor</text>
</a>
</g>
</g>
<!-- Node1&#45;&gt;Node18 -->
<g id="edge18" class="edge"><title>Node1&#45;&gt;Node18</title>
<path fill="none" stroke="midnightblue" d="M84.3503,-257.632C96.3858,-217.934 129.543,-127.347 192,-83 197.37,-79.1873 203.305,-76.0878 209.519,-73.5739"/>
<polygon fill="midnightblue" stroke="midnightblue" points="80.9418,-256.819 81.509,-267.399 87.6631,-258.775 80.9418,-256.819"/>
</g>
<!-- Node20 -->
<g id="node20" class="node"><title>Node20</title>
<g id="a_node20"><a xlink:href="../../d9/dfc/classconfiguration_1_1_dotimes_parser.html#aff41ee5ce2eeff82f7586bd1cf6a91c8" target="_top" xlink:title="configuration.DotimesParser.parseFor">
<polygon fill="white" stroke="black" points="192.5,-92.5 192.5,-111.5 389.5,-111.5 389.5,-92.5 192.5,-92.5"/>
<text text-anchor="middle" x="291" y="-99.5" font-family="Helvetica,sans-Serif" font-size="10.00">configuration.DotimesParser.parseFor</text>
</a>
</g>
</g>
<!-- Node1&#45;&gt;Node20 -->
<g id="edge20" class="edge"><title>Node1&#45;&gt;Node20</title>
<path fill="none" stroke="midnightblue" d="M87.0991,-257.783C102.325,-224.177 138.57,-155.074 192,-121 198.064,-117.133 204.737,-114.02 211.663,-111.519"/>
<polygon fill="midnightblue" stroke="midnightblue" points="83.7112,-256.794 82.8989,-267.357 90.1215,-259.606 83.7112,-256.794"/>
</g>
<!-- Node22 -->
<g id="node22" class="node"><title>Node22</title>
<g id="a_node22"><a xlink:href="../../d7/d56/classconfiguration_1_1_ifelse_parser.html#aeb471eacbe15e095075bdd09619fe15d" target="_top" xlink:title="configuration.IfelseParser.parse\lListCommands">
<polygon fill="white" stroke="black" points="208,-393 208,-423 374,-423 374,-393 208,-393"/>
<text text-anchor="start" x="216" y="-411" font-family="Helvetica,sans-Serif" font-size="10.00">configuration.IfelseParser.parse</text>
<text text-anchor="middle" x="291" y="-400" font-family="Helvetica,sans-Serif" font-size="10.00">ListCommands</text>
</a>
</g>
</g>
<!-- Node1&#45;&gt;Node22 -->
<g id="edge23" class="edge"><title>Node1&#45;&gt;Node22</title>
<path fill="none" stroke="midnightblue" d="M92.6379,-294.419C112.116,-318.087 150.199,-360.077 192,-383 199.082,-386.884 206.783,-390.179 214.652,-392.972"/>
<polygon fill="midnightblue" stroke="midnightblue" points="95.3327,-292.185 86.3312,-286.597 89.8834,-296.579 95.3327,-292.185"/>
</g>
<!-- Node23 -->
<g id="node23" class="node"><title>Node23</title>
<g id="a_node23"><a xlink:href="../../dc/dd1/classconfiguration_1_1_if_parser.html#a3e1532b1163cc498d3f7636ed8ff2a16" target="_top" xlink:title="configuration.IfParser.parse\lListCommands">
<polygon fill="white" stroke="black" points="218,-180 218,-210 364,-210 364,-180 218,-180"/>
<text text-anchor="start" x="226" y="-198" font-family="Helvetica,sans-Serif" font-size="10.00">configuration.IfParser.parse</text>
<text text-anchor="middle" x="291" y="-187" font-family="Helvetica,sans-Serif" font-size="10.00">ListCommands</text>
</a>
</g>
</g>
<!-- Node1&#45;&gt;Node23 -->
<g id="edge25" class="edge"><title>Node1&#45;&gt;Node23</title>
<path fill="none" stroke="midnightblue" d="M104.2,-262.286C126.64,-249.674 160.673,-231.737 192,-220 201.866,-216.304 212.49,-212.967 222.976,-210.024"/>
<polygon fill="midnightblue" stroke="midnightblue" points="102.295,-259.343 95.3343,-267.331 105.757,-265.427 102.295,-259.343"/>
</g>
<!-- Node4 -->
<g id="node4" class="node"><title>Node4</title>
<g id="a_node4"><a xlink:href="../../d7/d56/classconfiguration_1_1_ifelse_parser.html#a4b806589536dd338338d515a0fdb67ed" target="_top" xlink:title="configuration.IfelseParser.parse">
<polygon fill="white" stroke="black" points="434,-374.5 434,-393.5 600,-393.5 600,-374.5 434,-374.5"/>
<text text-anchor="middle" x="517" y="-381.5" font-family="Helvetica,sans-Serif" font-size="10.00">configuration.IfelseParser.parse</text>
</a>
</g>
</g>
<!-- Node3&#45;&gt;Node4 -->
<g id="edge3" class="edge"><title>Node3&#45;&gt;Node4</title>
<path fill="none" stroke="midnightblue" d="M391.4,-370.094C405.526,-371.67 419.923,-373.277 433.677,-374.812"/>
<polygon fill="midnightblue" stroke="midnightblue" points="391.501,-366.583 381.174,-368.952 390.724,-373.54 391.501,-366.583"/>
</g>
<!-- Node6 -->
<g id="node6" class="node"><title>Node6</title>
<g id="a_node6"><a xlink:href="../../dc/dd1/classconfiguration_1_1_if_parser.html#ab4ed2d3b7778d2b1206e5d26ebac7976" target="_top" xlink:title="configuration.IfParser.parse">
<polygon fill="white" stroke="black" points="444,-166.5 444,-185.5 590,-185.5 590,-166.5 444,-166.5"/>
<text text-anchor="middle" x="517" y="-173.5" font-family="Helvetica,sans-Serif" font-size="10.00">configuration.IfParser.parse</text>
</a>
</g>
</g>
<!-- Node5&#45;&gt;Node6 -->
<g id="edge5" class="edge"><title>Node5&#45;&gt;Node6</title>
<path fill="none" stroke="midnightblue" d="M381.798,-158.027C402.768,-160.835 424.82,-163.788 444.851,-166.471"/>
<polygon fill="midnightblue" stroke="midnightblue" points="381.981,-154.52 371.605,-156.661 381.052,-161.458 381.981,-154.52"/>
</g>
<!-- Node8 -->
<g id="node8" class="node"><title>Node8</title>
<g id="a_node8"><a xlink:href="../../d3/d0d/classconfiguration_1_1_repeat_parser.html#abf20b0ae25909c1cdff93f509830b502" target="_top" xlink:title="configuration.RepeatParser.parse">
<polygon fill="white" stroke="black" points="648,-404.5 648,-423.5 822,-423.5 822,-404.5 648,-404.5"/>
<text text-anchor="middle" x="735" y="-411.5" font-family="Helvetica,sans-Serif" font-size="10.00">configuration.RepeatParser.parse</text>
</a>
</g>
</g>
<!-- Node7&#45;&gt;Node8 -->
<g id="edge7" class="edge"><title>Node7&#45;&gt;Node8</title>
<path fill="none" stroke="midnightblue" d="M588.351,-482.83C595.047,-480.69 601.688,-478.406 608,-476 648.323,-460.633 693.12,-436.877 716.929,-423.678"/>
<polygon fill="midnightblue" stroke="midnightblue" points="587.058,-479.566 578.534,-485.858 589.121,-486.255 587.058,-479.566"/>
</g>
<!-- Node10 -->
<g id="node10" class="node"><title>Node10</title>
<g id="a_node10"><a xlink:href="../../dc/d64/classconfiguration_1_1_for_parser.html#a2737b422e279cfca7c64fd8eff57d3ff" target="_top" xlink:title="configuration.ForParser.parse">
<polygon fill="white" stroke="black" points="439,-447.5 439,-466.5 595,-466.5 595,-447.5 439,-447.5"/>
<text text-anchor="middle" x="517" y="-454.5" font-family="Helvetica,sans-Serif" font-size="10.00">configuration.ForParser.parse</text>
</a>
</g>
</g>
<!-- Node9&#45;&gt;Node10 -->
<g id="edge9" class="edge"><title>Node9&#45;&gt;Node10</title>
<path fill="none" stroke="midnightblue" d="M377.622,-457C397.778,-457 419.141,-457 438.895,-457"/>
<polygon fill="midnightblue" stroke="midnightblue" points="377.524,-453.5 367.524,-457 377.524,-460.5 377.524,-453.5"/>
</g>
<!-- Node12 -->
<g id="node12" class="node"><title>Node12</title>
<g id="a_node12"><a xlink:href="../../d9/dfc/classconfiguration_1_1_dotimes_parser.html#a63d34c400b9b5715b4a2f9a5d0107e62" target="_top" xlink:title="configuration.DotimesParser.parse\lDotimesIterator">
<polygon fill="white" stroke="black" points="426,-0 426,-30 608,-30 608,-0 426,-0"/>
<text text-anchor="start" x="434" y="-18" font-family="Helvetica,sans-Serif" font-size="10.00">configuration.DotimesParser.parse</text>
<text text-anchor="middle" x="517" y="-7" font-family="Helvetica,sans-Serif" font-size="10.00">DotimesIterator</text>
</a>
</g>
</g>
<!-- Node11&#45;&gt;Node12 -->
<g id="edge11" class="edge"><title>Node11&#45;&gt;Node12</title>
<path fill="none" stroke="midnightblue" d="M390.748,-16.1183C402.446,-16.0139 414.34,-15.9077 425.909,-15.8044"/>
<polygon fill="midnightblue" stroke="midnightblue" points="390.499,-12.6203 380.531,-16.2095 390.562,-19.62 390.499,-12.6203"/>
</g>
<!-- Node13 -->
<g id="node13" class="node"><title>Node13</title>
<g id="a_node13"><a xlink:href="../../d9/dfc/classconfiguration_1_1_dotimes_parser.html#abf0eb9bddfa4a09adc745008e17b293b" target="_top" xlink:title="configuration.DotimesParser.parse">
<polygon fill="white" stroke="black" points="644,-54.5 644,-73.5 826,-73.5 826,-54.5 644,-54.5"/>
<text text-anchor="middle" x="735" y="-61.5" font-family="Helvetica,sans-Serif" font-size="10.00">configuration.DotimesParser.parse</text>
</a>
</g>
</g>
<!-- Node12&#45;&gt;Node13 -->
<g id="edge12" class="edge"><title>Node12&#45;&gt;Node13</title>
<path fill="none" stroke="midnightblue" d="M594.314,-32.3119C627.153,-39.7615 664.28,-48.1838 691.999,-54.472"/>
<polygon fill="midnightblue" stroke="midnightblue" points="594.802,-28.8337 584.275,-30.0346 593.253,-35.6603 594.802,-28.8337"/>
</g>
<!-- Node17 -->
<g id="node17" class="node"><title>Node17</title>
<g id="a_node17"><a xlink:href="../../d3/d0d/classconfiguration_1_1_repeat_parser.html#aed07d335bcd1174cb4247a7add0d3315" target="_top" xlink:title="configuration.RepeatParser.parse\lCommands">
<polygon fill="white" stroke="black" points="430,-312 430,-342 604,-342 604,-312 430,-312"/>
<text text-anchor="start" x="438" y="-330" font-family="Helvetica,sans-Serif" font-size="10.00">configuration.RepeatParser.parse</text>
<text text-anchor="middle" x="517" y="-319" font-family="Helvetica,sans-Serif" font-size="10.00">Commands</text>
</a>
</g>
</g>
<!-- Node16&#45;&gt;Node17 -->
<g id="edge16" class="edge"><title>Node16&#45;&gt;Node17</title>
<path fill="none" stroke="midnightblue" d="M395.693,-320.555C407.115,-321.167 418.652,-321.785 429.826,-322.384"/>
<polygon fill="midnightblue" stroke="midnightblue" points="395.871,-317.06 385.698,-320.02 395.497,-324.05 395.871,-317.06"/>
</g>
<!-- Node17&#45;&gt;Node8 -->
<g id="edge17" class="edge"><title>Node17&#45;&gt;Node8</title>
<path fill="none" stroke="midnightblue" d="M565.121,-345.979C609.877,-364.006 675.348,-390.376 710.163,-404.399"/>
<polygon fill="midnightblue" stroke="midnightblue" points="566.208,-342.644 555.624,-342.154 563.593,-349.137 566.208,-342.644"/>
</g>
<!-- Node19 -->
<g id="node19" class="node"><title>Node19</title>
<g id="a_node19"><a xlink:href="../../dc/d64/classconfiguration_1_1_for_parser.html#ad3cb5184cf449bd3414f3ba73a8b3104" target="_top" xlink:title="configuration.ForParser.parse\lCommands">
<polygon fill="white" stroke="black" points="439,-49 439,-79 595,-79 595,-49 439,-49"/>
<text text-anchor="start" x="447" y="-67" font-family="Helvetica,sans-Serif" font-size="10.00">configuration.ForParser.parse</text>
<text text-anchor="middle" x="517" y="-56" font-family="Helvetica,sans-Serif" font-size="10.00">Commands</text>
</a>
</g>
</g>
<!-- Node18&#45;&gt;Node19 -->
<g id="edge19" class="edge"><title>Node18&#45;&gt;Node19</title>
<path fill="none" stroke="midnightblue" d="M386.838,-64C404.214,-64 422.155,-64 438.934,-64"/>
<polygon fill="midnightblue" stroke="midnightblue" points="386.685,-60.5001 376.685,-64 386.685,-67.5001 386.685,-60.5001"/>
</g>
<!-- Node21 -->
<g id="node21" class="node"><title>Node21</title>
<g id="a_node21"><a xlink:href="../../d9/dfc/classconfiguration_1_1_dotimes_parser.html#a6086c4c4651b29dd968bf4728bd71d0c" target="_top" xlink:title="configuration.DotimesParser.parse\lCommands">
<polygon fill="white" stroke="black" points="426,-98 426,-128 608,-128 608,-98 426,-98"/>
<text text-anchor="start" x="434" y="-116" font-family="Helvetica,sans-Serif" font-size="10.00">configuration.DotimesParser.parse</text>
<text text-anchor="middle" x="517" y="-105" font-family="Helvetica,sans-Serif" font-size="10.00">Commands</text>
</a>
</g>
</g>
<!-- Node20&#45;&gt;Node21 -->
<g id="edge21" class="edge"><title>Node20&#45;&gt;Node21</title>
<path fill="none" stroke="midnightblue" d="M399.785,-107.293C408.488,-107.72 417.224,-108.149 425.783,-108.57"/>
<polygon fill="midnightblue" stroke="midnightblue" points="399.758,-103.788 389.598,-106.793 399.414,-110.779 399.758,-103.788"/>
</g>
<!-- Node21&#45;&gt;Node13 -->
<g id="edge22" class="edge"><title>Node21&#45;&gt;Node13</title>
<path fill="none" stroke="midnightblue" d="M594.314,-95.6881C627.153,-88.2385 664.28,-79.8162 691.999,-73.528"/>
<polygon fill="midnightblue" stroke="midnightblue" points="593.253,-92.3397 584.275,-97.9654 594.802,-99.1663 593.253,-92.3397"/>
</g>
<!-- Node22&#45;&gt;Node4 -->
<g id="edge24" class="edge"><title>Node22&#45;&gt;Node4</title>
<path fill="none" stroke="midnightblue" d="M384.283,-398.113C400.72,-396.351 417.742,-394.528 433.873,-392.799"/>
<polygon fill="midnightblue" stroke="midnightblue" points="383.708,-394.654 374.137,-399.2 384.453,-401.614 383.708,-394.654"/>
</g>
<!-- Node23&#45;&gt;Node6 -->
<g id="edge26" class="edge"><title>Node23&#45;&gt;Node6</title>
<path fill="none" stroke="midnightblue" d="M374.095,-188.037C396.884,-186.104 421.455,-184.019 443.643,-182.137"/>
<polygon fill="midnightblue" stroke="midnightblue" points="373.776,-184.551 364.108,-188.884 374.368,-191.526 373.776,-184.551"/>
</g>
</g>
</svg>
