<?xml version="1.0" encoding="UTF-8" standalone="no"?>
<!DOCTYPE svg PUBLIC "-//W3C//DTD SVG 1.1//EN"
 "http://www.w3.org/Graphics/SVG/1.1/DTD/svg11.dtd">
<!-- Generated by graphviz version 2.36.0 (20140111.2315)
 -->
<!-- Title: configuration.Parser.isVariable Pages: 1 -->
<!--zoomable 544 -->
<svg id="main" version="1.1" xmlns="http://www.w3.org/2000/svg" xmlns:xlink="http://www.w3.org/1999/xlink" xml:space="preserve" onload="init(evt)">
<style type="text/css"><![CDATA[
.edge:hover path { stroke: red; }
.edge:hover polygon { stroke: red; fill: red; }
]]></style>
<script type="text/javascript"><![CDATA[
var edges = document.getElementsByTagName('g');
if (edges && edges.length) {
  for (var i=0;i<edges.length;i++) {
    if (edges[i].id.substr(0,4)=='edge') {
      edges[i].setAttribute('class','edge');
    }
  }
}
]]></script>
        <defs>
                <circle id="rim" cx="0" cy="0" r="7"/>
                <circle id="rim2" cx="0" cy="0" r="3.5"/>
                <g id="zoomPlus">
                        <use xlink:href="#rim" fill="#404040">
                                <set attributeName="fill" to="#808080" begin="zoomplus.mouseover" end="zoomplus.mouseout"/>
                        </use>
                        <path d="M-4,0h8M0,-4v8" fill="none" stroke="white" stroke-width="1.5" pointer-events="none"/>
                </g>
                <g id="zoomMin">
                        <use xlink:href="#rim" fill="#404040">
                                <set attributeName="fill" to="#808080" begin="zoomminus.mouseover" end="zoomminus.mouseout"/>
                        </use>
                        <path d="M-4,0h8" fill="none" stroke="white" stroke-width="1.5" pointer-events="none"/>
                </g>
                <g id="dirArrow">
                        <path fill="none" stroke="white" stroke-width="1.5" d="M0,-3.0v7 M-2.5,-0.5L0,-3.0L2.5,-0.5"/>
                </g>
               <g id="resetDef">
                       <use xlink:href="#rim2" fill="#404040">
                               <set attributeName="fill" to="#808080" begin="reset.mouseover" end="reset.mouseout"/>
                       </use>
               </g>
        </defs>

<script type="text/javascript">
var viewWidth = 1030;
var viewHeight = 544;
var sectionId = 'dynsection-16';
</script>
<script xlink:href="../../svgpan.js"/>
<svg id="graph" class="graph">
<g id="viewport">
<title>configuration.Parser.isVariable</title>
<polygon fill="white" stroke="none" points="-4,4 -4,-539.789 1026,-539.789 1026,4 -4,4"/>
<!-- Node1 -->
<g id="node1" class="node"><title>Node1</title>
<polygon fill="#bfbfbf" stroke="black" points="0,-179.979 0,-198.979 160,-198.979 160,-179.979 0,-179.979"/>
<text text-anchor="middle" x="80" y="-186.979" font-family="Helvetica,sans-Serif" font-size="10.00">configuration.Parser.isVariable</text>
</g>
<!-- Node2 -->
<g id="node2" class="node"><title>Node2</title>
<g id="a_node2"><a xlink:href="../../d9/d11/classconfiguration_1_1_parser.html#ae0480f44c9defa614fb470ab154fa60b" target="_top" xlink:title="configuration.Parser.buildTree">
<polygon fill="white" stroke="black" points="196,-245.979 196,-264.979 352,-264.979 352,-245.979 196,-245.979"/>
<text text-anchor="middle" x="274" y="-252.979" font-family="Helvetica,sans-Serif" font-size="10.00">configuration.Parser.buildTree</text>
</a>
</g>
</g>
<!-- Node1&#45;&gt;Node2 -->
<g id="edge1" class="edge"><title>Node1&#45;&gt;Node2</title>
<path fill="none" stroke="midnightblue" d="M118.419,-202.341C155.67,-215.147 211.975,-234.501 245.359,-245.977"/>
<polygon fill="midnightblue" stroke="midnightblue" points="119.513,-199.017 108.918,-199.076 117.238,-205.636 119.513,-199.017"/>
</g>
<!-- Node10 -->
<g id="node10" class="node"><title>Node10</title>
<g id="a_node10"><a xlink:href="../../dc/d64/classconfiguration_1_1_for_parser.html#a2737b422e279cfca7c64fd8eff57d3ff" target="_top" xlink:title="configuration.ForParser.parse">
<polygon fill="white" stroke="black" points="635,-23.9787 635,-42.9787 791,-42.9787 791,-23.9787 635,-23.9787"/>
<text text-anchor="middle" x="713" y="-30.9787" font-family="Helvetica,sans-Serif" font-size="10.00">configuration.ForParser.parse</text>
</a>
</g>
</g>
<!-- Node1&#45;&gt;Node10 -->
<g id="edge29" class="edge"><title>Node1&#45;&gt;Node10</title>
<path fill="none" stroke="midnightblue" d="M92.2446,-171.253C110.484,-143.262 149.23,-89.9479 196,-61.4787 350.417,32.5172 581.431,-4.10984 672.794,-23.9651"/>
<polygon fill="midnightblue" stroke="midnightblue" points="89.2831,-169.388 86.8635,-179.703 95.1874,-173.148 89.2831,-169.388"/>
</g>
<!-- Node12 -->
<g id="node12" class="node"><title>Node12</title>
<g id="a_node12"><a xlink:href="../../d9/dfc/classconfiguration_1_1_dotimes_parser.html#a63d34c400b9b5715b4a2f9a5d0107e62" target="_top" xlink:title="configuration.DotimesParser.parse\lDotimesIterator">
<polygon fill="white" stroke="black" points="622,-484.479 622,-514.479 804,-514.479 804,-484.479 622,-484.479"/>
<text text-anchor="start" x="630" y="-502.479" font-family="Helvetica,sans-Serif" font-size="10.00">configuration.DotimesParser.parse</text>
<text text-anchor="middle" x="713" y="-491.479" font-family="Helvetica,sans-Serif" font-size="10.00">DotimesIterator</text>
</a>
</g>
</g>
<!-- Node1&#45;&gt;Node12 -->
<g id="edge30" class="edge"><title>Node1&#45;&gt;Node12</title>
<path fill="none" stroke="midnightblue" d="M91.1625,-208.173C124.358,-266.989 236.254,-448.216 388,-513.479 478.513,-552.407 596.683,-531.571 662.401,-514.488"/>
<polygon fill="midnightblue" stroke="midnightblue" points="94.1157,-206.281 86.1991,-199.24 87.9968,-209.681 94.1157,-206.281"/>
</g>
<!-- Node14 -->
<g id="node14" class="node"><title>Node14</title>
<g id="a_node14"><a xlink:href="../../db/d22/classconfiguration_1_1_set_parser.html#a4f20258805caaf18872872d5283a0e74" target="_top" xlink:title="configuration.SetParser.parse">
<polygon fill="white" stroke="black" points="408,-20.9787 408,-39.9787 566,-39.9787 566,-20.9787 408,-20.9787"/>
<text text-anchor="middle" x="487" y="-27.9787" font-family="Helvetica,sans-Serif" font-size="10.00">configuration.SetParser.parse</text>
</a>
</g>
</g>
<!-- Node1&#45;&gt;Node14 -->
<g id="edge28" class="edge"><title>Node1&#45;&gt;Node14</title>
<path fill="none" stroke="midnightblue" d="M106.932,-175.09C158.771,-146.911 279.539,-84.1832 388,-49.4787 399.719,-45.7288 412.476,-42.5974 424.794,-40.03"/>
<polygon fill="midnightblue" stroke="midnightblue" points="105.167,-172.066 98.0729,-179.935 108.526,-178.207 105.167,-172.066"/>
</g>
<!-- Node3 -->
<g id="node3" class="node"><title>Node3</title>
<g id="a_node3"><a xlink:href="../../d9/d11/classconfiguration_1_1_parser.html#a041ccb70bd9dee77d512d8469c15c14f" target="_top" xlink:title="configuration.Parser.buildTree">
<polygon fill="white" stroke="black" points="409,-283.979 409,-302.979 565,-302.979 565,-283.979 409,-283.979"/>
<text text-anchor="middle" x="487" y="-290.979" font-family="Helvetica,sans-Serif" font-size="10.00">configuration.Parser.buildTree</text>
</a>
</g>
</g>
<!-- Node2&#45;&gt;Node3 -->
<g id="edge2" class="edge"><title>Node2&#45;&gt;Node3</title>
<path fill="none" stroke="midnightblue" d="M338.005,-266.826C368.279,-272.278 404.158,-278.739 433.006,-283.935"/>
<polygon fill="midnightblue" stroke="midnightblue" points="338.434,-263.347 327.972,-265.019 337.193,-270.236 338.434,-263.347"/>
</g>
<!-- Node4 -->
<g id="node4" class="node"><title>Node4</title>
<g id="a_node4"><a xlink:href="../../d7/d56/classconfiguration_1_1_ifelse_parser.html#aef13959a758ccbf8dab0a3f5f94a7be0" target="_top" xlink:title="configuration.IfelseParser.evaluate\lBoolExpr">
<polygon fill="white" stroke="black" points="397,-196.479 397,-226.479 577,-226.479 577,-196.479 397,-196.479"/>
<text text-anchor="start" x="405" y="-214.479" font-family="Helvetica,sans-Serif" font-size="10.00">configuration.IfelseParser.evaluate</text>
<text text-anchor="middle" x="487" y="-203.479" font-family="Helvetica,sans-Serif" font-size="10.00">BoolExpr</text>
</a>
</g>
</g>
<!-- Node2&#45;&gt;Node4 -->
<g id="edge3" class="edge"><title>Node2&#45;&gt;Node4</title>
<path fill="none" stroke="midnightblue" d="M330.633,-243.877C356.083,-238.57 386.561,-232.215 413.755,-226.544"/>
<polygon fill="midnightblue" stroke="midnightblue" points="329.859,-240.464 320.784,-245.931 331.288,-247.316 329.859,-240.464"/>
</g>
<!-- Node7 -->
<g id="node7" class="node"><title>Node7</title>
<g id="a_node7"><a xlink:href="../../d3/d0d/classconfiguration_1_1_repeat_parser.html#ab218ee8c24e4dab18c02cd4a536d15d3" target="_top" xlink:title="configuration.RepeatParser.fetch\lNumericExpr">
<polygon fill="white" stroke="black" points="627.5,-105.479 627.5,-135.479 798.5,-135.479 798.5,-105.479 627.5,-105.479"/>
<text text-anchor="start" x="635.5" y="-123.479" font-family="Helvetica,sans-Serif" font-size="10.00">configuration.RepeatParser.fetch</text>
<text text-anchor="middle" x="713" y="-112.479" font-family="Helvetica,sans-Serif" font-size="10.00">NumericExpr</text>
</a>
</g>
</g>
<!-- Node2&#45;&gt;Node7 -->
<g id="edge6" class="edge"><title>Node2&#45;&gt;Node7</title>
<path fill="none" stroke="midnightblue" d="M285.963,-237.21C303.556,-209.823 340.945,-159.044 388,-137.479 463.529,-102.864 559.582,-102.494 627.435,-108.398"/>
<polygon fill="midnightblue" stroke="midnightblue" points="282.905,-235.498 280.582,-245.835 288.844,-239.203 282.905,-235.498"/>
</g>
<!-- Node9 -->
<g id="node9" class="node"><title>Node9</title>
<g id="a_node9"><a xlink:href="../../dc/d64/classconfiguration_1_1_for_parser.html#a95aeb8afdb254389dcef062be1cf2727" target="_top" xlink:title="configuration.ForParser.fetch\lNumericExpr">
<polygon fill="white" stroke="black" points="410.5,-59.4787 410.5,-89.4787 563.5,-89.4787 563.5,-59.4787 410.5,-59.4787"/>
<text text-anchor="start" x="418.5" y="-77.4787" font-family="Helvetica,sans-Serif" font-size="10.00">configuration.ForParser.fetch</text>
<text text-anchor="middle" x="487" y="-66.4787" font-family="Helvetica,sans-Serif" font-size="10.00">NumericExpr</text>
</a>
</g>
</g>
<!-- Node2&#45;&gt;Node9 -->
<g id="edge8" class="edge"><title>Node2&#45;&gt;Node9</title>
<path fill="none" stroke="midnightblue" d="M286.554,-237.263C309.708,-201.263 361.812,-122.888 388,-104.479 396.734,-98.3391 406.757,-93.4295 416.985,-89.5106"/>
<polygon fill="midnightblue" stroke="midnightblue" points="283.517,-235.516 281.079,-245.827 289.414,-239.287 283.517,-235.516"/>
</g>
<!-- Node11 -->
<g id="node11" class="node"><title>Node11</title>
<g id="a_node11"><a xlink:href="../../d9/dfc/classconfiguration_1_1_dotimes_parser.html#a26cc7f8e0a21d93091bfe8884a924450" target="_top" xlink:title="configuration.DotimesParser.fetch\lNumericExpr">
<polygon fill="white" stroke="black" points="397.5,-474.479 397.5,-504.479 576.5,-504.479 576.5,-474.479 397.5,-474.479"/>
<text text-anchor="start" x="405.5" y="-492.479" font-family="Helvetica,sans-Serif" font-size="10.00">configuration.DotimesParser.fetch</text>
<text text-anchor="middle" x="487" y="-481.479" font-family="Helvetica,sans-Serif" font-size="10.00">NumericExpr</text>
</a>
</g>
</g>
<!-- Node2&#45;&gt;Node11 -->
<g id="edge10" class="edge"><title>Node2&#45;&gt;Node11</title>
<path fill="none" stroke="midnightblue" d="M279.808,-274.889C291.131,-316.415 323.511,-414.174 388,-464.479 392.984,-468.367 398.504,-471.655 404.312,-474.437"/>
<polygon fill="midnightblue" stroke="midnightblue" points="283.185,-273.968 277.269,-265.178 276.412,-275.738 283.185,-273.968"/>
</g>
<!-- Node2&#45;&gt;Node14 -->
<g id="edge13" class="edge"><title>Node2&#45;&gt;Node14</title>
<path fill="none" stroke="midnightblue" d="M288.291,-237.494C304.611,-214.907 332.52,-174.603 352,-137.479 371.635,-100.06 355.328,-76.2788 388,-49.4787 393.896,-44.6425 400.66,-40.9075 407.82,-38.0379"/>
<polygon fill="midnightblue" stroke="midnightblue" points="285.322,-235.625 282.257,-245.767 290.977,-239.75 285.322,-235.625"/>
</g>
<!-- Node15 -->
<g id="node15" class="node"><title>Node15</title>
<g id="a_node15"><a xlink:href="../../d0/da7/classconfiguration_1_1_basic_parser.html#a22bf37b374167e497f639182e7459517" target="_top" xlink:title="configuration.BasicParser.parse">
<polygon fill="white" stroke="black" points="403.5,-321.979 403.5,-340.979 570.5,-340.979 570.5,-321.979 403.5,-321.979"/>
<text text-anchor="middle" x="487" y="-328.979" font-family="Helvetica,sans-Serif" font-size="10.00">configuration.BasicParser.parse</text>
</a>
</g>
</g>
<!-- Node2&#45;&gt;Node15 -->
<g id="edge14" class="edge"><title>Node2&#45;&gt;Node15</title>
<path fill="none" stroke="midnightblue" d="M299.273,-270.202C321.593,-283.131 355.981,-301.535 388,-312.479 399.152,-316.29 411.293,-319.417 423.113,-321.955"/>
<polygon fill="midnightblue" stroke="midnightblue" points="300.882,-267.088 290.488,-265.035 297.332,-273.122 300.882,-267.088"/>
</g>
<!-- Node16 -->
<g id="node16" class="node"><title>Node16</title>
<g id="a_node16"><a xlink:href="../../dc/d64/classconfiguration_1_1_for_parser.html#a6bc38f731ac658c5860fe092ba7689ac" target="_top" xlink:title="configuration.ForParser.parseFor">
<polygon fill="white" stroke="black" points="401.5,-397.979 401.5,-416.979 572.5,-416.979 572.5,-397.979 401.5,-397.979"/>
<text text-anchor="middle" x="487" y="-404.979" font-family="Helvetica,sans-Serif" font-size="10.00">configuration.ForParser.parseFor</text>
</a>
</g>
</g>
<!-- Node2&#45;&gt;Node16 -->
<g id="edge15" class="edge"><title>Node2&#45;&gt;Node16</title>
<path fill="none" stroke="midnightblue" d="M286.152,-274.158C303.996,-302.362 341.711,-355.488 388,-383.479 398.492,-389.823 410.574,-394.493 422.591,-397.929"/>
<polygon fill="midnightblue" stroke="midnightblue" points="288.918,-271.976 280.688,-265.304 282.961,-275.652 288.918,-271.976"/>
</g>
<!-- Node18 -->
<g id="node18" class="node"><title>Node18</title>
<g id="a_node18"><a xlink:href="../../d3/d0d/classconfiguration_1_1_repeat_parser.html#a27c7e86622dda996677d34987f702cb6" target="_top" xlink:title="configuration.RepeatParser.parseFor">
<polygon fill="white" stroke="black" points="392.5,-245.979 392.5,-264.979 581.5,-264.979 581.5,-245.979 392.5,-245.979"/>
<text text-anchor="middle" x="487" y="-252.979" font-family="Helvetica,sans-Serif" font-size="10.00">configuration.RepeatParser.parseFor</text>
</a>
</g>
</g>
<!-- Node2&#45;&gt;Node18 -->
<g id="edge17" class="edge"><title>Node2&#45;&gt;Node18</title>
<path fill="none" stroke="midnightblue" d="M362.289,-255.479C372.184,-255.479 382.3,-255.479 392.273,-255.479"/>
<polygon fill="midnightblue" stroke="midnightblue" points="362.072,-251.979 352.071,-255.479 362.071,-258.979 362.072,-251.979"/>
</g>
<!-- Node19 -->
<g id="node19" class="node"><title>Node19</title>
<g id="a_node19"><a xlink:href="../../d3/d0d/classconfiguration_1_1_repeat_parser.html#ad35abe70f202dc3dd93bbdb50acd490d" target="_top" xlink:title="configuration.RepeatParser.parse\lListCommands">
<polygon fill="white" stroke="black" points="626,-313.479 626,-343.479 800,-343.479 800,-313.479 626,-313.479"/>
<text text-anchor="start" x="634" y="-331.479" font-family="Helvetica,sans-Serif" font-size="10.00">configuration.RepeatParser.parse</text>
<text text-anchor="middle" x="713" y="-320.479" font-family="Helvetica,sans-Serif" font-size="10.00">ListCommands</text>
</a>
</g>
</g>
<!-- Node2&#45;&gt;Node19 -->
<g id="edge24" class="edge"><title>Node2&#45;&gt;Node19</title>
<path fill="none" stroke="midnightblue" d="M288.934,-273.155C308.285,-296.112 345.723,-335.068 388,-350.479 481.228,-384.461 599.408,-361.319 664.166,-343.537"/>
<polygon fill="midnightblue" stroke="midnightblue" points="291.477,-270.737 282.431,-265.222 286.064,-275.174 291.477,-270.737"/>
</g>
<!-- Node21 -->
<g id="node21" class="node"><title>Node21</title>
<g id="a_node21"><a xlink:href="../../d9/dfc/classconfiguration_1_1_dotimes_parser.html#aff41ee5ce2eeff82f7586bd1cf6a91c8" target="_top" xlink:title="configuration.DotimesParser.parseFor">
<polygon fill="white" stroke="black" points="388.5,-435.979 388.5,-454.979 585.5,-454.979 585.5,-435.979 388.5,-435.979"/>
<text text-anchor="middle" x="487" y="-442.979" font-family="Helvetica,sans-Serif" font-size="10.00">configuration.DotimesParser.parseFor</text>
</a>
</g>
</g>
<!-- Node2&#45;&gt;Node21 -->
<g id="edge21" class="edge"><title>Node2&#45;&gt;Node21</title>
<path fill="none" stroke="midnightblue" d="M281.978,-275.008C295.991,-311.208 331.161,-388.489 388,-426.479 393.763,-430.331 400.118,-433.443 406.739,-435.952"/>
<polygon fill="midnightblue" stroke="midnightblue" points="285.086,-273.325 278.309,-265.182 278.528,-275.774 285.086,-273.325"/>
</g>
<!-- Node23 -->
<g id="node23" class="node"><title>Node23</title>
<g id="a_node23"><a xlink:href="../../d7/d56/classconfiguration_1_1_ifelse_parser.html#aeb471eacbe15e095075bdd09619fe15d" target="_top" xlink:title="configuration.IfelseParser.parse\lListCommands">
<polygon fill="white" stroke="black" points="404,-147.479 404,-177.479 570,-177.479 570,-147.479 404,-147.479"/>
<text text-anchor="start" x="412" y="-165.479" font-family="Helvetica,sans-Serif" font-size="10.00">configuration.IfelseParser.parse</text>
<text text-anchor="middle" x="487" y="-154.479" font-family="Helvetica,sans-Serif" font-size="10.00">ListCommands</text>
</a>
</g>
</g>
<!-- Node2&#45;&gt;Node23 -->
<g id="edge25" class="edge"><title>Node2&#45;&gt;Node23</title>
<path fill="none" stroke="midnightblue" d="M296.083,-239.85C318.017,-224.271 353.864,-200.678 388,-186.479 396.087,-183.115 404.753,-180.15 413.464,-177.556"/>
<polygon fill="midnightblue" stroke="midnightblue" points="293.914,-237.099 287.851,-245.787 298.009,-242.777 293.914,-237.099"/>
</g>
<!-- Node5 -->
<g id="node5" class="node"><title>Node5</title>
<g id="a_node5"><a xlink:href="../../d7/d56/classconfiguration_1_1_ifelse_parser.html#a4b806589536dd338338d515a0fdb67ed" target="_top" xlink:title="configuration.IfelseParser.parse">
<polygon fill="white" stroke="black" points="630,-157.979 630,-176.979 796,-176.979 796,-157.979 630,-157.979"/>
<text text-anchor="middle" x="713" y="-164.979" font-family="Helvetica,sans-Serif" font-size="10.00">configuration.IfelseParser.parse</text>
</a>
</g>
</g>
<!-- Node4&#45;&gt;Node5 -->
<g id="edge4" class="edge"><title>Node4&#45;&gt;Node5</title>
<path fill="none" stroke="midnightblue" d="M574.59,-194.47C604.791,-188.538 637.594,-182.094 663.573,-176.991"/>
<polygon fill="midnightblue" stroke="midnightblue" points="573.599,-191.098 564.462,-196.459 574.949,-197.966 573.599,-191.098"/>
</g>
<!-- Node6 -->
<g id="node6" class="node"><title>Node6</title>
<g id="a_node6"><a xlink:href="../../dc/dd1/classconfiguration_1_1_if_parser.html#ab4ed2d3b7778d2b1206e5d26ebac7976" target="_top" xlink:title="configuration.IfParser.parse">
<polygon fill="white" stroke="black" points="640,-200.979 640,-219.979 786,-219.979 786,-200.979 640,-200.979"/>
<text text-anchor="middle" x="713" y="-207.979" font-family="Helvetica,sans-Serif" font-size="10.00">configuration.IfParser.parse</text>
</a>
</g>
</g>
<!-- Node4&#45;&gt;Node6 -->
<g id="edge5" class="edge"><title>Node4&#45;&gt;Node6</title>
<path fill="none" stroke="midnightblue" d="M587.457,-211.035C605.027,-210.956 623.013,-210.876 639.658,-210.802"/>
<polygon fill="midnightblue" stroke="midnightblue" points="587.159,-207.536 577.174,-211.081 587.19,-214.536 587.159,-207.536"/>
</g>
<!-- Node8 -->
<g id="node8" class="node"><title>Node8</title>
<g id="a_node8"><a xlink:href="../../d3/d0d/classconfiguration_1_1_repeat_parser.html#abf20b0ae25909c1cdff93f509830b502" target="_top" xlink:title="configuration.RepeatParser.parse">
<polygon fill="white" stroke="black" points="844,-178.979 844,-197.979 1018,-197.979 1018,-178.979 844,-178.979"/>
<text text-anchor="middle" x="931" y="-185.979" font-family="Helvetica,sans-Serif" font-size="10.00">configuration.RepeatParser.parse</text>
</a>
</g>
</g>
<!-- Node7&#45;&gt;Node8 -->
<g id="edge7" class="edge"><title>Node7&#45;&gt;Node8</title>
<path fill="none" stroke="midnightblue" d="M772.187,-138.527C782.776,-141.827 793.721,-145.248 804,-148.479 836.952,-158.835 874.707,-170.839 900.229,-178.974"/>
<polygon fill="midnightblue" stroke="midnightblue" points="773.181,-135.171 762.593,-135.54 771.1,-141.855 773.181,-135.171"/>
</g>
<!-- Node9&#45;&gt;Node10 -->
<g id="edge9" class="edge"><title>Node9&#45;&gt;Node10</title>
<path fill="none" stroke="midnightblue" d="M573.703,-58.7919C602.818,-53.463 634.445,-47.6741 660.096,-42.9789"/>
<polygon fill="midnightblue" stroke="midnightblue" points="572.73,-55.4118 563.524,-60.6551 573.991,-62.2974 572.73,-55.4118"/>
</g>
<!-- Node11&#45;&gt;Node12 -->
<g id="edge11" class="edge"><title>Node11&#45;&gt;Node12</title>
<path fill="none" stroke="midnightblue" d="M586.748,-493.887C598.446,-494.409 610.34,-494.94 621.909,-495.457"/>
<polygon fill="midnightblue" stroke="midnightblue" points="586.677,-490.381 576.531,-493.431 586.365,-497.374 586.677,-490.381"/>
</g>
<!-- Node13 -->
<g id="node13" class="node"><title>Node13</title>
<g id="a_node13"><a xlink:href="../../d9/dfc/classconfiguration_1_1_dotimes_parser.html#abf0eb9bddfa4a09adc745008e17b293b" target="_top" xlink:title="configuration.DotimesParser.parse">
<polygon fill="white" stroke="black" points="840,-464.979 840,-483.979 1022,-483.979 1022,-464.979 840,-464.979"/>
<text text-anchor="middle" x="931" y="-471.979" font-family="Helvetica,sans-Serif" font-size="10.00">configuration.DotimesParser.parse</text>
</a>
</g>
</g>
<!-- Node12&#45;&gt;Node13 -->
<g id="edge12" class="edge"><title>Node12&#45;&gt;Node13</title>
<path fill="none" stroke="midnightblue" d="M814.272,-487.873C825.464,-486.578 836.767,-485.27 847.698,-484.004"/>
<polygon fill="midnightblue" stroke="midnightblue" points="813.571,-484.431 804.039,-489.057 814.375,-491.384 813.571,-484.431"/>
</g>
<!-- Node17 -->
<g id="node17" class="node"><title>Node17</title>
<g id="a_node17"><a xlink:href="../../dc/d64/classconfiguration_1_1_for_parser.html#ad3cb5184cf449bd3414f3ba73a8b3104" target="_top" xlink:title="configuration.ForParser.parse\lCommands">
<polygon fill="white" stroke="black" points="635,-386.479 635,-416.479 791,-416.479 791,-386.479 635,-386.479"/>
<text text-anchor="start" x="643" y="-404.479" font-family="Helvetica,sans-Serif" font-size="10.00">configuration.ForParser.parse</text>
<text text-anchor="middle" x="713" y="-393.479" font-family="Helvetica,sans-Serif" font-size="10.00">Commands</text>
</a>
</g>
</g>
<!-- Node16&#45;&gt;Node17 -->
<g id="edge16" class="edge"><title>Node16&#45;&gt;Node17</title>
<path fill="none" stroke="midnightblue" d="M582.838,-404.938C600.214,-404.473 618.155,-403.992 634.934,-403.543"/>
<polygon fill="midnightblue" stroke="midnightblue" points="582.587,-401.444 572.685,-405.21 582.775,-408.441 582.587,-401.444"/>
</g>
<!-- Node18&#45;&gt;Node19 -->
<g id="edge18" class="edge"><title>Node18&#45;&gt;Node19</title>
<path fill="none" stroke="midnightblue" d="M557.955,-267.142C567.459,-269.278 577.025,-271.72 586,-274.479 619.782,-284.862 656.77,-301.37 681.876,-313.402"/>
<polygon fill="midnightblue" stroke="midnightblue" points="558.611,-263.704 548.1,-265.027 557.142,-270.548 558.611,-263.704"/>
</g>
<!-- Node20 -->
<g id="node20" class="node"><title>Node20</title>
<g id="a_node20"><a xlink:href="../../d3/d0d/classconfiguration_1_1_repeat_parser.html#aed07d335bcd1174cb4247a7add0d3315" target="_top" xlink:title="configuration.RepeatParser.parse\lCommands">
<polygon fill="white" stroke="black" points="626,-240.479 626,-270.479 800,-270.479 800,-240.479 626,-240.479"/>
<text text-anchor="start" x="634" y="-258.479" font-family="Helvetica,sans-Serif" font-size="10.00">configuration.RepeatParser.parse</text>
<text text-anchor="middle" x="713" y="-247.479" font-family="Helvetica,sans-Serif" font-size="10.00">Commands</text>
</a>
</g>
</g>
<!-- Node18&#45;&gt;Node20 -->
<g id="edge19" class="edge"><title>Node18&#45;&gt;Node20</title>
<path fill="none" stroke="midnightblue" d="M592.039,-255.479C603.348,-255.479 614.765,-255.479 625.826,-255.479"/>
<polygon fill="midnightblue" stroke="midnightblue" points="591.698,-251.979 581.698,-255.479 591.698,-258.979 591.698,-251.979"/>
</g>
<!-- Node20&#45;&gt;Node8 -->
<g id="edge20" class="edge"><title>Node20&#45;&gt;Node8</title>
<path fill="none" stroke="midnightblue" d="M777.113,-237.535C786.151,-234.882 795.323,-232.143 804,-229.479 837.646,-219.148 876.081,-206.521 901.562,-198.032"/>
<polygon fill="midnightblue" stroke="midnightblue" points="776.007,-234.212 767.388,-240.374 777.968,-240.931 776.007,-234.212"/>
</g>
<!-- Node22 -->
<g id="node22" class="node"><title>Node22</title>
<g id="a_node22"><a xlink:href="../../d9/dfc/classconfiguration_1_1_dotimes_parser.html#a6086c4c4651b29dd968bf4728bd71d0c" target="_top" xlink:title="configuration.DotimesParser.parse\lCommands">
<polygon fill="white" stroke="black" points="622,-435.479 622,-465.479 804,-465.479 804,-435.479 622,-435.479"/>
<text text-anchor="start" x="630" y="-453.479" font-family="Helvetica,sans-Serif" font-size="10.00">configuration.DotimesParser.parse</text>
<text text-anchor="middle" x="713" y="-442.479" font-family="Helvetica,sans-Serif" font-size="10.00">Commands</text>
</a>
</g>
</g>
<!-- Node21&#45;&gt;Node22 -->
<g id="edge22" class="edge"><title>Node21&#45;&gt;Node22</title>
<path fill="none" stroke="midnightblue" d="M595.785,-447.885C604.488,-448.079 613.224,-448.274 621.783,-448.465"/>
<polygon fill="midnightblue" stroke="midnightblue" points="595.674,-444.381 585.598,-447.657 595.517,-451.38 595.674,-444.381"/>
</g>
<!-- Node22&#45;&gt;Node13 -->
<g id="edge23" class="edge"><title>Node22&#45;&gt;Node13</title>
<path fill="none" stroke="midnightblue" d="M814.081,-461.599C824.166,-462.719 834.344,-463.85 844.26,-464.952"/>
<polygon fill="midnightblue" stroke="midnightblue" points="814.365,-458.109 804.039,-460.483 813.592,-465.066 814.365,-458.109"/>
</g>
<!-- Node23&#45;&gt;Node5 -->
<g id="edge26" class="edge"><title>Node23&#45;&gt;Node5</title>
<path fill="none" stroke="midnightblue" d="M580.283,-164.539C596.72,-164.905 613.742,-165.285 629.873,-165.645"/>
<polygon fill="midnightblue" stroke="midnightblue" points="580.213,-161.036 570.137,-164.312 580.057,-168.034 580.213,-161.036"/>
</g>
<!-- Node23&#45;&gt;Node6 -->
<g id="edge27" class="edge"><title>Node23&#45;&gt;Node6</title>
<path fill="none" stroke="midnightblue" d="M568.451,-179.718C601.755,-186.855 639.111,-194.86 667.366,-200.914"/>
<polygon fill="midnightblue" stroke="midnightblue" points="568.772,-176.208 558.26,-177.534 567.305,-183.052 568.772,-176.208"/>
</g>
</g>
</svg>
        <g id="navigator" transform="translate(0 0)" fill="#404254">
                <rect fill="#f2f5e9" fill-opacity="0.5" stroke="#606060" stroke-width=".5" x="0" y="0" width="60" height="60"/>
                <use id="zoomplus" xlink:href="#zoomPlus" x="17" y="9" onmousedown="handleZoom(evt,'in')"/>
                <use id="zoomminus" xlink:href="#zoomMin" x="42" y="9" onmousedown="handleZoom(evt,'out')"/>
                <use id="reset" xlink:href="#resetDef" x="30" y="36" onmousedown="handleReset()"/>
                <g id="arrowUp" xlink:href="#dirArrow" transform="translate(30 24)" onmousedown="handlePan(0,-1)">
                  <use xlink:href="#rim" fill="#404040">
                        <set attributeName="fill" to="#808080" begin="arrowUp.mouseover" end="arrowUp.mouseout"/>
                  </use>
                  <path fill="none" stroke="white" stroke-width="1.5" d="M0,-3.0v7 M-2.5,-0.5L0,-3.0L2.5,-0.5"/>
                </g>
                <g id="arrowRight" xlink:href="#dirArrow" transform="rotate(90) translate(36 -43)" onmousedown="handlePan(1,0)">
                  <use xlink:href="#rim" fill="#404040">
                        <set attributeName="fill" to="#808080" begin="arrowRight.mouseover" end="arrowRight.mouseout"/>
                  </use>
                  <path fill="none" stroke="white" stroke-width="1.5" d="M0,-3.0v7 M-2.5,-0.5L0,-3.0L2.5,-0.5"/>
                </g>
                <g id="arrowDown" xlink:href="#dirArrow" transform="rotate(180) translate(-30 -48)" onmousedown="handlePan(0,1)">
                  <use xlink:href="#rim" fill="#404040">
                        <set attributeName="fill" to="#808080" begin="arrowDown.mouseover" end="arrowDown.mouseout"/>
                  </use>
                  <path fill="none" stroke="white" stroke-width="1.5" d="M0,-3.0v7 M-2.5,-0.5L0,-3.0L2.5,-0.5"/>
                </g>
                <g id="arrowLeft" xlink:href="#dirArrow" transform="rotate(270) translate(-36 17)" onmousedown="handlePan(-1,0)">
                  <use xlink:href="#rim" fill="#404040">
                        <set attributeName="fill" to="#808080" begin="arrowLeft.mouseover" end="arrowLeft.mouseout"/>
                  </use>
                  <path fill="none" stroke="white" stroke-width="1.5" d="M0,-3.0v7 M-2.5,-0.5L0,-3.0L2.5,-0.5"/>
                </g>
        </g>
        <svg viewBox="0 0 15 15" width="100%" height="30px" preserveAspectRatio="xMaxYMin meet">
         <g id="arrow_out" transform="scale(0.3 0.3)">
          <a xlink:href="classconfiguration_1_1_parser_a061c6e2e973a9e7f531931f61f45448b_icgraph_org.svg" target="_base">
           <rect id="button" ry="5" rx="5" y="6" x="6" height="38" width="38"
                fill="#f2f5e9" fill-opacity="0.5" stroke="#606060" stroke-width="1.0"/>
           <path id="arrow"
             d="M 11.500037,31.436501 C 11.940474,20.09759 22.043105,11.32322 32.158766,21.979434 L 37.068811,17.246167 C 37.068811,17.246167 37.088388,32 37.088388,32 L 22.160133,31.978069 C 22.160133,31.978069 26.997745,27.140456 26.997745,27.140456 C 18.528582,18.264221 13.291696,25.230495 11.500037,31.436501 z"
             style="fill:#404040;"/>
          </a>
         </g>
        </svg>
</svg>
