<?xml version="1.0" encoding="UTF-8" standalone="no"?>
<!DOCTYPE svg PUBLIC "-//W3C//DTD SVG 1.1//EN"
 "http://www.w3.org/Graphics/SVG/1.1/DTD/svg11.dtd">
<!-- Generated by graphviz version 2.36.0 (20140111.2315)
 -->
<!-- Title: configuration.Parser.initialize Pages: 1 -->
<svg width="550pt" height="116pt"
 viewBox="0.00 0.00 550.00 116.00" xmlns="http://www.w3.org/2000/svg" xmlns:xlink="http://www.w3.org/1999/xlink">
<g id="graph0" class="graph" transform="scale(1 1) rotate(0) translate(4 112)">
<title>configuration.Parser.initialize</title>
<polygon fill="white" stroke="none" points="-4,4 -4,-112 546,-112 546,4 -4,4"/>
<!-- Node1 -->
<g id="node1" class="node"><title>Node1</title>
<polygon fill="#bfbfbf" stroke="black" points="0,-44.5 0,-63.5 152,-63.5 152,-44.5 0,-44.5"/>
<text text-anchor="middle" x="76" y="-51.5" font-family="Helvetica,sans-Serif" font-size="10.00">configuration.Parser.initialize</text>
</g>
<!-- Node2 -->
<g id="node2" class="node"><title>Node2</title>
<g id="a_node2"><a xlink:href="../../d9/d11/classconfiguration_1_1_parser.html#a652ba1a09779c2e73f1f42012a232418" target="_top" xlink:title="configuration.Parser.initializeSets">
<polygon fill="white" stroke="black" points="188,-88.5 188,-107.5 362,-107.5 362,-88.5 188,-88.5"/>
<text text-anchor="middle" x="275" y="-95.5" font-family="Helvetica,sans-Serif" font-size="10.00">configuration.Parser.initializeSets</text>
</a>
</g>
</g>
<!-- Node1&#45;&gt;Node2 -->
<g id="edge1" class="edge"><title>Node1&#45;&gt;Node2</title>
<path fill="none" stroke="midnightblue" d="M119.746,-63.5473C149.563,-70.2069 189.542,-79.1363 221.328,-86.2358"/>
<polygon fill="midnightblue" stroke="midnightblue" points="220.815,-89.7073 231.337,-88.4713 222.341,-82.8756 220.815,-89.7073"/>
</g>
<!-- Node4 -->
<g id="node4" class="node"><title>Node4</title>
<g id="a_node4"><a xlink:href="../../d9/d11/classconfiguration_1_1_parser.html#aceff574c48e41c29be01ca0e92605c22" target="_top" xlink:title="configuration.Parser.initialize\lSyntax">
<polygon fill="white" stroke="black" points="199,-39 199,-69 351,-69 351,-39 199,-39"/>
<text text-anchor="start" x="207" y="-57" font-family="Helvetica,sans-Serif" font-size="10.00">configuration.Parser.initialize</text>
<text text-anchor="middle" x="275" y="-46" font-family="Helvetica,sans-Serif" font-size="10.00">Syntax</text>
</a>
</g>
</g>
<!-- Node1&#45;&gt;Node4 -->
<g id="edge3" class="edge"><title>Node1&#45;&gt;Node4</title>
<path fill="none" stroke="midnightblue" d="M152.039,-54C164.017,-54 176.486,-54 188.681,-54"/>
<polygon fill="midnightblue" stroke="midnightblue" points="188.843,-57.5001 198.843,-54 188.843,-50.5001 188.843,-57.5001"/>
</g>
<!-- Node5 -->
<g id="node5" class="node"><title>Node5</title>
<g id="a_node5"><a xlink:href="../../da/dde/classconfiguration_1_1_util.html#ad860dc9a74ec099a348842220ff14ea0" target="_top" xlink:title="configuration.Util.makePatterns">
<polygon fill="white" stroke="black" points="191.5,-0.5 191.5,-19.5 358.5,-19.5 358.5,-0.5 191.5,-0.5"/>
<text text-anchor="middle" x="275" y="-7.5" font-family="Helvetica,sans-Serif" font-size="10.00">configuration.Util.makePatterns</text>
</a>
</g>
</g>
<!-- Node1&#45;&gt;Node5 -->
<g id="edge4" class="edge"><title>Node1&#45;&gt;Node5</title>
<path fill="none" stroke="midnightblue" d="M119.746,-44.4527C149.563,-37.7931 189.542,-28.8637 221.328,-21.7642"/>
<polygon fill="midnightblue" stroke="midnightblue" points="222.341,-25.1244 231.337,-19.5287 220.815,-18.2927 222.341,-25.1244"/>
</g>
<!-- Node3 -->
<g id="node3" class="node"><title>Node3</title>
<g id="a_node3"><a xlink:href="../../da/dde/classconfiguration_1_1_util.html#a7064c984f36db6251b05250d443a8b5c" target="_top" xlink:title="configuration.Util.makeSet">
<polygon fill="white" stroke="black" points="398,-88.5 398,-107.5 542,-107.5 542,-88.5 398,-88.5"/>
<text text-anchor="middle" x="470" y="-95.5" font-family="Helvetica,sans-Serif" font-size="10.00">configuration.Util.makeSet</text>
</a>
</g>
</g>
<!-- Node2&#45;&gt;Node3 -->
<g id="edge2" class="edge"><title>Node2&#45;&gt;Node3</title>
<path fill="none" stroke="midnightblue" d="M362.058,-98C370.562,-98 379.176,-98 387.63,-98"/>
<polygon fill="midnightblue" stroke="midnightblue" points="387.847,-101.5 397.847,-98 387.846,-94.5001 387.847,-101.5"/>
</g>
</g>
</svg>
