<?xml version="1.0" encoding="UTF-8" standalone="no"?>
<!DOCTYPE svg PUBLIC "-//W3C//DTD SVG 1.1//EN"
 "http://www.w3.org/Graphics/SVG/1.1/DTD/svg11.dtd">
<!-- Generated by graphviz version 2.36.0 (20140111.2315)
 -->
<!-- Title: configuration.Parser.skip Pages: 1 -->
<svg width="812pt" height="570pt"
 viewBox="0.00 0.00 812.00 570.00" xmlns="http://www.w3.org/2000/svg" xmlns:xlink="http://www.w3.org/1999/xlink">
<g id="graph0" class="graph" transform="scale(1 1) rotate(0) translate(4 566)">
<title>configuration.Parser.skip</title>
<polygon fill="white" stroke="none" points="-4,4 -4,-566 808,-566 808,4 -4,4"/>
<!-- Node1 -->
<g id="node1" class="node"><title>Node1</title>
<polygon fill="#bfbfbf" stroke="black" points="0.5,-295.5 0.5,-314.5 133.5,-314.5 133.5,-295.5 0.5,-295.5"/>
<text text-anchor="middle" x="67" y="-302.5" font-family="Helvetica,sans-Serif" font-size="10.00">configuration.Parser.skip</text>
</g>
<!-- Node2 -->
<g id="node2" class="node"><title>Node2</title>
<g id="a_node2"><a xlink:href="../../d7/d56/classconfiguration_1_1_ifelse_parser.html#a608612d46f8239cbf096bbcffd0d4119" target="_top" xlink:title="configuration.IfelseParser.parse">
<polygon fill="white" stroke="black" points="186,-542.5 186,-561.5 352,-561.5 352,-542.5 186,-542.5"/>
<text text-anchor="middle" x="269" y="-549.5" font-family="Helvetica,sans-Serif" font-size="10.00">configuration.IfelseParser.parse</text>
</a>
</g>
</g>
<!-- Node1&#45;&gt;Node2 -->
<g id="edge1" class="edge"><title>Node1&#45;&gt;Node2</title>
<path fill="none" stroke="midnightblue" d="M70.696,-324.853C77.8923,-369.662 101.881,-478.941 170,-533 174.751,-536.771 180.035,-539.865 185.618,-542.399"/>
<polygon fill="midnightblue" stroke="midnightblue" points="74.1179,-324.069 69.1804,-314.695 67.1946,-325.102 74.1179,-324.069"/>
</g>
<!-- Node3 -->
<g id="node3" class="node"><title>Node3</title>
<g id="a_node3"><a xlink:href="../../dc/dd1/classconfiguration_1_1_if_parser.html#a87fb238c550985341209cfebebe0a779" target="_top" xlink:title="configuration.IfParser.parse">
<polygon fill="white" stroke="black" points="196,-504.5 196,-523.5 342,-523.5 342,-504.5 196,-504.5"/>
<text text-anchor="middle" x="269" y="-511.5" font-family="Helvetica,sans-Serif" font-size="10.00">configuration.IfParser.parse</text>
</a>
</g>
</g>
<!-- Node1&#45;&gt;Node3 -->
<g id="edge2" class="edge"><title>Node1&#45;&gt;Node3</title>
<path fill="none" stroke="midnightblue" d="M72.5713,-324.732C82.7484,-363.955 111.159,-451.663 170,-495 177.675,-500.653 186.576,-504.753 195.821,-507.708"/>
<polygon fill="midnightblue" stroke="midnightblue" points="75.921,-323.697 70.1264,-314.828 69.125,-325.375 75.921,-323.697"/>
</g>
<!-- Node4 -->
<g id="node4" class="node"><title>Node4</title>
<g id="a_node4"><a xlink:href="../../d3/d0d/classconfiguration_1_1_repeat_parser.html#a7785a2e509d96ff2ad5504e7a781d1d2" target="_top" xlink:title="configuration.RepeatParser.parse">
<polygon fill="white" stroke="black" points="182,-466.5 182,-485.5 356,-485.5 356,-466.5 182,-466.5"/>
<text text-anchor="middle" x="269" y="-473.5" font-family="Helvetica,sans-Serif" font-size="10.00">configuration.RepeatParser.parse</text>
</a>
</g>
</g>
<!-- Node1&#45;&gt;Node4 -->
<g id="edge3" class="edge"><title>Node1&#45;&gt;Node4</title>
<path fill="none" stroke="midnightblue" d="M75.1032,-324.177C88.3411,-357.064 120.054,-423.873 170,-457 175.777,-460.832 182.141,-463.93 188.768,-466.43"/>
<polygon fill="midnightblue" stroke="midnightblue" points="78.336,-322.833 71.4546,-314.777 71.8103,-325.366 78.336,-322.833"/>
</g>
<!-- Node5 -->
<g id="node5" class="node"><title>Node5</title>
<g id="a_node5"><a xlink:href="../../dc/d64/classconfiguration_1_1_for_parser.html#a57f9ebf60e25c370f7ca73c0862f387a" target="_top" xlink:title="configuration.ForParser.parse">
<polygon fill="white" stroke="black" points="191,-428.5 191,-447.5 347,-447.5 347,-428.5 191,-428.5"/>
<text text-anchor="middle" x="269" y="-435.5" font-family="Helvetica,sans-Serif" font-size="10.00">configuration.ForParser.parse</text>
</a>
</g>
</g>
<!-- Node1&#45;&gt;Node5 -->
<g id="edge4" class="edge"><title>Node1&#45;&gt;Node5</title>
<path fill="none" stroke="midnightblue" d="M78.8794,-323.317C95.217,-349.089 128.629,-395.521 170,-419 176.858,-422.892 184.374,-426.001 192.097,-428.482"/>
<polygon fill="midnightblue" stroke="midnightblue" points="81.6984,-321.22 73.4729,-314.543 75.7388,-324.893 81.6984,-321.22"/>
</g>
<!-- Node6 -->
<g id="node6" class="node"><title>Node6</title>
<g id="a_node6"><a xlink:href="../../d9/dfc/classconfiguration_1_1_dotimes_parser.html#ad7321bee5b452f826f1ec05a89d100b6" target="_top" xlink:title="configuration.DotimesParser.parse">
<polygon fill="white" stroke="black" points="178,-390.5 178,-409.5 360,-409.5 360,-390.5 178,-390.5"/>
<text text-anchor="middle" x="269" y="-397.5" font-family="Helvetica,sans-Serif" font-size="10.00">configuration.DotimesParser.parse</text>
</a>
</g>
</g>
<!-- Node1&#45;&gt;Node6 -->
<g id="edge5" class="edge"><title>Node1&#45;&gt;Node6</title>
<path fill="none" stroke="midnightblue" d="M85.0414,-321.561C104.129,-339.127 136.77,-366.322 170,-381 178.798,-384.886 188.388,-387.981 198.012,-390.443"/>
<polygon fill="midnightblue" stroke="midnightblue" points="87.412,-318.986 77.7284,-314.688 82.6177,-324.087 87.412,-318.986"/>
</g>
<!-- Node7 -->
<g id="node7" class="node"><title>Node7</title>
<g id="a_node7"><a xlink:href="../../db/d22/classconfiguration_1_1_set_parser.html#aef4ad6dce7a472c79efa57ffd1647b95" target="_top" xlink:title="configuration.SetParser.parse">
<polygon fill="white" stroke="black" points="190,-352.5 190,-371.5 348,-371.5 348,-352.5 190,-352.5"/>
<text text-anchor="middle" x="269" y="-359.5" font-family="Helvetica,sans-Serif" font-size="10.00">configuration.SetParser.parse</text>
</a>
</g>
</g>
<!-- Node1&#45;&gt;Node7 -->
<g id="edge6" class="edge"><title>Node1&#45;&gt;Node7</title>
<path fill="none" stroke="midnightblue" d="M105.142,-317.735C124.394,-324.153 148.349,-331.855 170,-338 188.199,-343.165 208.485,-348.244 225.857,-352.389"/>
<polygon fill="midnightblue" stroke="midnightblue" points="106.135,-314.376 95.5406,-314.511 103.906,-321.012 106.135,-314.376"/>
</g>
<!-- Node8 -->
<g id="node8" class="node"><title>Node8</title>
<g id="a_node8"><a xlink:href="../../d9/dfc/classconfiguration_1_1_dotimes_parser.html#a6086c4c4651b29dd968bf4728bd71d0c" target="_top" xlink:title="configuration.DotimesParser.parse\lCommands">
<polygon fill="white" stroke="black" points="404,-271 404,-301 586,-301 586,-271 404,-271"/>
<text text-anchor="start" x="412" y="-289" font-family="Helvetica,sans-Serif" font-size="10.00">configuration.DotimesParser.parse</text>
<text text-anchor="middle" x="495" y="-278" font-family="Helvetica,sans-Serif" font-size="10.00">Commands</text>
</a>
</g>
</g>
<!-- Node1&#45;&gt;Node8 -->
<g id="edge7" class="edge"><title>Node1&#45;&gt;Node8</title>
<path fill="none" stroke="midnightblue" d="M143.915,-308.13C204.634,-309.88 291.899,-310.706 368,-305 380.244,-304.082 393.1,-302.669 405.729,-301.019"/>
<polygon fill="midnightblue" stroke="midnightblue" points="143.753,-304.624 133.651,-307.818 143.54,-311.621 143.753,-304.624"/>
</g>
<!-- Node10 -->
<g id="node10" class="node"><title>Node10</title>
<g id="a_node10"><a xlink:href="../../dc/d64/classconfiguration_1_1_for_parser.html#ad3cb5184cf449bd3414f3ba73a8b3104" target="_top" xlink:title="configuration.ForParser.parse\lCommands">
<polygon fill="white" stroke="black" points="417,-209 417,-239 573,-239 573,-209 417,-209"/>
<text text-anchor="start" x="425" y="-227" font-family="Helvetica,sans-Serif" font-size="10.00">configuration.ForParser.parse</text>
<text text-anchor="middle" x="495" y="-216" font-family="Helvetica,sans-Serif" font-size="10.00">Commands</text>
</a>
</g>
</g>
<!-- Node1&#45;&gt;Node10 -->
<g id="edge9" class="edge"><title>Node1&#45;&gt;Node10</title>
<path fill="none" stroke="midnightblue" d="M98.9206,-291.407C118.853,-283.166 145.53,-273.099 170,-267 253.001,-246.311 350.6,-235.077 416.824,-229.337"/>
<polygon fill="midnightblue" stroke="midnightblue" points="97.2967,-288.293 89.4384,-295.399 100.013,-294.744 97.2967,-288.293"/>
</g>
<!-- Node11 -->
<g id="node11" class="node"><title>Node11</title>
<g id="a_node11"><a xlink:href="../../d3/d0d/classconfiguration_1_1_repeat_parser.html#aed07d335bcd1174cb4247a7add0d3315" target="_top" xlink:title="configuration.RepeatParser.parse\lCommands">
<polygon fill="white" stroke="black" points="182,-151 182,-181 356,-181 356,-151 182,-151"/>
<text text-anchor="start" x="190" y="-169" font-family="Helvetica,sans-Serif" font-size="10.00">configuration.RepeatParser.parse</text>
<text text-anchor="middle" x="269" y="-158" font-family="Helvetica,sans-Serif" font-size="10.00">Commands</text>
</a>
</g>
</g>
<!-- Node1&#45;&gt;Node11 -->
<g id="edge10" class="edge"><title>Node1&#45;&gt;Node11</title>
<path fill="none" stroke="midnightblue" d="M79.3166,-286.628C95.9721,-261.174 129.532,-215.552 170,-191 176.38,-187.129 183.343,-183.855 190.519,-181.085"/>
<polygon fill="midnightblue" stroke="midnightblue" points="76.2063,-284.995 73.7817,-295.309 82.1088,-288.759 76.2063,-284.995"/>
</g>
<!-- Node13 -->
<g id="node13" class="node"><title>Node13</title>
<g id="a_node13"><a xlink:href="../../d9/dfc/classconfiguration_1_1_dotimes_parser.html#a63d34c400b9b5715b4a2f9a5d0107e62" target="_top" xlink:title="configuration.DotimesParser.parse\lDotimesIterator">
<polygon fill="white" stroke="black" points="404,-107 404,-137 586,-137 586,-107 404,-107"/>
<text text-anchor="start" x="412" y="-125" font-family="Helvetica,sans-Serif" font-size="10.00">configuration.DotimesParser.parse</text>
<text text-anchor="middle" x="495" y="-114" font-family="Helvetica,sans-Serif" font-size="10.00">DotimesIterator</text>
</a>
</g>
</g>
<!-- Node1&#45;&gt;Node13 -->
<g id="edge12" class="edge"><title>Node1&#45;&gt;Node13</title>
<path fill="none" stroke="midnightblue" d="M73.5403,-285.615C84.9198,-249.801 114.631,-173.926 170,-141 243.009,-97.5844 342.385,-98.7123 411.757,-106.978"/>
<polygon fill="midnightblue" stroke="midnightblue" points="70.1404,-284.766 70.5892,-295.351 76.8395,-286.796 70.1404,-284.766"/>
</g>
<!-- Node14 -->
<g id="node14" class="node"><title>Node14</title>
<g id="a_node14"><a xlink:href="../../dc/d64/classconfiguration_1_1_for_parser.html#a6bc38f731ac658c5860fe092ba7689ac" target="_top" xlink:title="configuration.ForParser.parseFor">
<polygon fill="white" stroke="black" points="183.5,-200.5 183.5,-219.5 354.5,-219.5 354.5,-200.5 183.5,-200.5"/>
<text text-anchor="middle" x="269" y="-207.5" font-family="Helvetica,sans-Serif" font-size="10.00">configuration.ForParser.parseFor</text>
</a>
</g>
</g>
<!-- Node1&#45;&gt;Node14 -->
<g id="edge14" class="edge"><title>Node1&#45;&gt;Node14</title>
<path fill="none" stroke="midnightblue" d="M86.5794,-288.876C106.098,-272.738 138.31,-248.309 170,-234 183.65,-227.837 199.113,-223.113 213.657,-219.555"/>
<polygon fill="midnightblue" stroke="midnightblue" points="84.1846,-286.317 78.7906,-295.436 88.694,-291.671 84.1846,-286.317"/>
</g>
<!-- Node15 -->
<g id="node15" class="node"><title>Node15</title>
<g id="a_node15"><a xlink:href="../../d9/dfc/classconfiguration_1_1_dotimes_parser.html#aff41ee5ce2eeff82f7586bd1cf6a91c8" target="_top" xlink:title="configuration.DotimesParser.parseFor">
<polygon fill="white" stroke="black" points="170.5,-276.5 170.5,-295.5 367.5,-295.5 367.5,-276.5 170.5,-276.5"/>
<text text-anchor="middle" x="269" y="-283.5" font-family="Helvetica,sans-Serif" font-size="10.00">configuration.DotimesParser.parseFor</text>
</a>
</g>
</g>
<!-- Node1&#45;&gt;Node15 -->
<g id="edge16" class="edge"><title>Node1&#45;&gt;Node15</title>
<path fill="none" stroke="midnightblue" d="M143.812,-297.798C152.486,-296.974 161.418,-296.125 170.326,-295.279"/>
<polygon fill="midnightblue" stroke="midnightblue" points="143.389,-294.322 133.764,-298.752 144.051,-301.291 143.389,-294.322"/>
</g>
<!-- Node16 -->
<g id="node16" class="node"><title>Node16</title>
<g id="a_node16"><a xlink:href="../../d3/d0d/classconfiguration_1_1_repeat_parser.html#ad35abe70f202dc3dd93bbdb50acd490d" target="_top" xlink:title="configuration.RepeatParser.parse\lListCommands">
<polygon fill="white" stroke="black" points="182,-63 182,-93 356,-93 356,-63 182,-63"/>
<text text-anchor="start" x="190" y="-81" font-family="Helvetica,sans-Serif" font-size="10.00">configuration.RepeatParser.parse</text>
<text text-anchor="middle" x="269" y="-70" font-family="Helvetica,sans-Serif" font-size="10.00">ListCommands</text>
</a>
</g>
</g>
<!-- Node1&#45;&gt;Node16 -->
<g id="edge18" class="edge"><title>Node1&#45;&gt;Node16</title>
<path fill="none" stroke="midnightblue" d="M72.691,-285.338C83.149,-245.781 112.14,-156.248 170,-108 177.379,-101.847 186.006,-96.9543 195.026,-93.0649"/>
<polygon fill="midnightblue" stroke="midnightblue" points="69.2824,-284.542 70.2241,-295.094 76.0688,-286.258 69.2824,-284.542"/>
</g>
<!-- Node17 -->
<g id="node17" class="node"><title>Node17</title>
<g id="a_node17"><a xlink:href="../../d7/d56/classconfiguration_1_1_ifelse_parser.html#aeb471eacbe15e095075bdd09619fe15d" target="_top" xlink:title="configuration.IfelseParser.parse\lListCommands">
<polygon fill="white" stroke="black" points="186,-14 186,-44 352,-44 352,-14 186,-14"/>
<text text-anchor="start" x="194" y="-32" font-family="Helvetica,sans-Serif" font-size="10.00">configuration.IfelseParser.parse</text>
<text text-anchor="middle" x="269" y="-21" font-family="Helvetica,sans-Serif" font-size="10.00">ListCommands</text>
</a>
</g>
</g>
<!-- Node1&#45;&gt;Node17 -->
<g id="edge19" class="edge"><title>Node1&#45;&gt;Node17</title>
<path fill="none" stroke="midnightblue" d="M69.9671,-285.3C75.8074,-237.703 97.4525,-115.759 170,-53 174.769,-48.8743 180.135,-45.4344 185.835,-42.569"/>
<polygon fill="midnightblue" stroke="midnightblue" points="66.4616,-285.154 68.8251,-295.482 73.418,-285.934 66.4616,-285.154"/>
</g>
<!-- Node9 -->
<g id="node9" class="node"><title>Node9</title>
<g id="a_node9"><a xlink:href="../../d9/dfc/classconfiguration_1_1_dotimes_parser.html#abf0eb9bddfa4a09adc745008e17b293b" target="_top" xlink:title="configuration.DotimesParser.parse">
<polygon fill="white" stroke="black" points="622,-194.5 622,-213.5 804,-213.5 804,-194.5 622,-194.5"/>
<text text-anchor="middle" x="713" y="-201.5" font-family="Helvetica,sans-Serif" font-size="10.00">configuration.DotimesParser.parse</text>
</a>
</g>
</g>
<!-- Node8&#45;&gt;Node9 -->
<g id="edge8" class="edge"><title>Node8&#45;&gt;Node9</title>
<path fill="none" stroke="midnightblue" d="M545.003,-267.397C589.112,-250.652 652.165,-226.715 686.806,-213.564"/>
<polygon fill="midnightblue" stroke="midnightblue" points="543.724,-264.139 535.618,-270.96 546.209,-270.683 543.724,-264.139"/>
</g>
<!-- Node12 -->
<g id="node12" class="node"><title>Node12</title>
<g id="a_node12"><a xlink:href="../../d3/d0d/classconfiguration_1_1_repeat_parser.html#abf20b0ae25909c1cdff93f509830b502" target="_top" xlink:title="configuration.RepeatParser.parse">
<polygon fill="white" stroke="black" points="408,-156.5 408,-175.5 582,-175.5 582,-156.5 408,-156.5"/>
<text text-anchor="middle" x="495" y="-163.5" font-family="Helvetica,sans-Serif" font-size="10.00">configuration.RepeatParser.parse</text>
</a>
</g>
</g>
<!-- Node11&#45;&gt;Node12 -->
<g id="edge11" class="edge"><title>Node11&#45;&gt;Node12</title>
<path fill="none" stroke="midnightblue" d="M366.661,-166C380.329,-166 394.307,-166 407.761,-166"/>
<polygon fill="midnightblue" stroke="midnightblue" points="366.284,-162.5 356.284,-166 366.284,-169.5 366.284,-162.5"/>
</g>
<!-- Node13&#45;&gt;Node9 -->
<g id="edge13" class="edge"><title>Node13&#45;&gt;Node9</title>
<path fill="none" stroke="midnightblue" d="M565.137,-140.034C572.231,-142.233 579.292,-144.567 586,-147 625.048,-161.16 668.862,-182.213 693.168,-194.376"/>
<polygon fill="midnightblue" stroke="midnightblue" points="566.057,-136.656 555.473,-137.123 564.039,-143.358 566.057,-136.656"/>
</g>
<!-- Node14&#45;&gt;Node10 -->
<g id="edge15" class="edge"><title>Node14&#45;&gt;Node10</title>
<path fill="none" stroke="midnightblue" d="M364.838,-215.927C382.214,-217.013 400.155,-218.135 416.934,-219.183"/>
<polygon fill="midnightblue" stroke="midnightblue" points="364.884,-212.423 354.685,-215.293 364.447,-219.41 364.884,-212.423"/>
</g>
<!-- Node15&#45;&gt;Node8 -->
<g id="edge17" class="edge"><title>Node15&#45;&gt;Node8</title>
<path fill="none" stroke="midnightblue" d="M377.785,-286C386.488,-286 395.224,-286 403.783,-286"/>
<polygon fill="midnightblue" stroke="midnightblue" points="377.598,-282.5 367.598,-286 377.598,-289.5 377.598,-282.5"/>
</g>
<!-- Node18 -->
<g id="node18" class="node"><title>Node18</title>
<g id="a_node18"><a xlink:href="../../d7/d56/classconfiguration_1_1_ifelse_parser.html#a4b806589536dd338338d515a0fdb67ed" target="_top" xlink:title="configuration.IfelseParser.parse">
<polygon fill="white" stroke="black" points="412,-38.5 412,-57.5 578,-57.5 578,-38.5 412,-38.5"/>
<text text-anchor="middle" x="495" y="-45.5" font-family="Helvetica,sans-Serif" font-size="10.00">configuration.IfelseParser.parse</text>
</a>
</g>
</g>
<!-- Node17&#45;&gt;Node18 -->
<g id="edge20" class="edge"><title>Node17&#45;&gt;Node18</title>
<path fill="none" stroke="midnightblue" d="M362.283,-36.8276C378.72,-38.2218 395.742,-39.6656 411.873,-41.0338"/>
<polygon fill="midnightblue" stroke="midnightblue" points="362.397,-33.3248 352.137,-35.967 361.806,-40.2998 362.397,-33.3248"/>
</g>
<!-- Node19 -->
<g id="node19" class="node"><title>Node19</title>
<g id="a_node19"><a xlink:href="../../dc/dd1/classconfiguration_1_1_if_parser.html#ab4ed2d3b7778d2b1206e5d26ebac7976" target="_top" xlink:title="configuration.IfParser.parse">
<polygon fill="white" stroke="black" points="422,-0.5 422,-19.5 568,-19.5 568,-0.5 422,-0.5"/>
<text text-anchor="middle" x="495" y="-7.5" font-family="Helvetica,sans-Serif" font-size="10.00">configuration.IfParser.parse</text>
</a>
</g>
</g>
<!-- Node17&#45;&gt;Node19 -->
<g id="edge21" class="edge"><title>Node17&#45;&gt;Node19</title>
<path fill="none" stroke="midnightblue" d="M362.144,-21.1842C382.059,-19.495 402.839,-17.7324 421.856,-16.1194"/>
<polygon fill="midnightblue" stroke="midnightblue" points="361.806,-17.7002 352.137,-22.033 362.397,-24.6752 361.806,-17.7002"/>
</g>
</g>
</svg>
