<?xml version="1.0" encoding="UTF-8" standalone="no"?>
<!DOCTYPE svg PUBLIC "-//W3C//DTD SVG 1.1//EN"
 "http://www.w3.org/Graphics/SVG/1.1/DTD/svg11.dtd">
<!-- Generated by graphviz version 2.36.0 (20140111.2315)
 -->
<!-- Title: configuration.Parser.isConstant Pages: 1 -->
<!--zoomable 557 -->
<svg id="main" version="1.1" xmlns="http://www.w3.org/2000/svg" xmlns:xlink="http://www.w3.org/1999/xlink" xml:space="preserve" onload="init(evt)">
<style type="text/css"><![CDATA[
.edge:hover path { stroke: red; }
.edge:hover polygon { stroke: red; fill: red; }
]]></style>
<script type="text/javascript"><![CDATA[
var edges = document.getElementsByTagName('g');
if (edges && edges.length) {
  for (var i=0;i<edges.length;i++) {
    if (edges[i].id.substr(0,4)=='edge') {
      edges[i].setAttribute('class','edge');
    }
  }
}
]]></script>
        <defs>
                <circle id="rim" cx="0" cy="0" r="7"/>
                <circle id="rim2" cx="0" cy="0" r="3.5"/>
                <g id="zoomPlus">
                        <use xlink:href="#rim" fill="#404040">
                                <set attributeName="fill" to="#808080" begin="zoomplus.mouseover" end="zoomplus.mouseout"/>
                        </use>
                        <path d="M-4,0h8M0,-4v8" fill="none" stroke="white" stroke-width="1.5" pointer-events="none"/>
                </g>
                <g id="zoomMin">
                        <use xlink:href="#rim" fill="#404040">
                                <set attributeName="fill" to="#808080" begin="zoomminus.mouseover" end="zoomminus.mouseout"/>
                        </use>
                        <path d="M-4,0h8" fill="none" stroke="white" stroke-width="1.5" pointer-events="none"/>
                </g>
                <g id="dirArrow">
                        <path fill="none" stroke="white" stroke-width="1.5" d="M0,-3.0v7 M-2.5,-0.5L0,-3.0L2.5,-0.5"/>
                </g>
               <g id="resetDef">
                       <use xlink:href="#rim2" fill="#404040">
                               <set attributeName="fill" to="#808080" begin="reset.mouseover" end="reset.mouseout"/>
                       </use>
               </g>
        </defs>

<script type="text/javascript">
var viewWidth = 1036;
var viewHeight = 557;
var sectionId = 'dynsection-12';
</script>
<script xlink:href="../../svgpan.js"/>
<svg id="graph" class="graph">
<g id="viewport">
<title>configuration.Parser.isConstant</title>
<polygon fill="white" stroke="none" points="-4,4 -4,-553 1032,-553 1032,4 -4,4"/>
<!-- Node1 -->
<g id="node1" class="node"><title>Node1</title>
<polygon fill="#bfbfbf" stroke="black" points="0.5,-267.5 0.5,-286.5 165.5,-286.5 165.5,-267.5 0.5,-267.5"/>
<text text-anchor="middle" x="83" y="-274.5" font-family="Helvetica,sans-Serif" font-size="10.00">configuration.Parser.isConstant</text>
</g>
<!-- Node2 -->
<g id="node2" class="node"><title>Node2</title>
<g id="a_node2"><a xlink:href="../../d9/d11/classconfiguration_1_1_parser.html#ae0480f44c9defa614fb470ab154fa60b" target="_top" xlink:title="configuration.Parser.buildTree">
<polygon fill="white" stroke="black" points="202,-267.5 202,-286.5 358,-286.5 358,-267.5 202,-267.5"/>
<text text-anchor="middle" x="280" y="-274.5" font-family="Helvetica,sans-Serif" font-size="10.00">configuration.Parser.buildTree</text>
</a>
</g>
</g>
<!-- Node1&#45;&gt;Node2 -->
<g id="edge1" class="edge"><title>Node1&#45;&gt;Node2</title>
<path fill="none" stroke="midnightblue" d="M175.756,-277C184.474,-277 193.252,-277 201.813,-277"/>
<polygon fill="midnightblue" stroke="midnightblue" points="175.568,-273.5 165.568,-277 175.568,-280.5 175.568,-273.5"/>
</g>
<!-- Node3 -->
<g id="node3" class="node"><title>Node3</title>
<g id="a_node3"><a xlink:href="../../d9/d11/classconfiguration_1_1_parser.html#a041ccb70bd9dee77d512d8469c15c14f" target="_top" xlink:title="configuration.Parser.buildTree">
<polygon fill="white" stroke="black" points="415,-529.5 415,-548.5 571,-548.5 571,-529.5 415,-529.5"/>
<text text-anchor="middle" x="493" y="-536.5" font-family="Helvetica,sans-Serif" font-size="10.00">configuration.Parser.buildTree</text>
</a>
</g>
</g>
<!-- Node2&#45;&gt;Node3 -->
<g id="edge2" class="edge"><title>Node2&#45;&gt;Node3</title>
<path fill="none" stroke="midnightblue" d="M284.417,-296.584C293.461,-342.314 322.419,-456.658 394,-515 401.739,-521.308 410.891,-525.997 420.442,-529.475"/>
<polygon fill="midnightblue" stroke="midnightblue" points="287.812,-295.698 282.533,-286.512 280.931,-296.985 287.812,-295.698"/>
</g>
<!-- Node4 -->
<g id="node4" class="node"><title>Node4</title>
<g id="a_node4"><a xlink:href="../../d7/d56/classconfiguration_1_1_ifelse_parser.html#aef13959a758ccbf8dab0a3f5f94a7be0" target="_top" xlink:title="configuration.IfelseParser.evaluate\lBoolExpr">
<polygon fill="white" stroke="black" points="403,-344 403,-374 583,-374 583,-344 403,-344"/>
<text text-anchor="start" x="411" y="-362" font-family="Helvetica,sans-Serif" font-size="10.00">configuration.IfelseParser.evaluate</text>
<text text-anchor="middle" x="493" y="-351" font-family="Helvetica,sans-Serif" font-size="10.00">BoolExpr</text>
</a>
</g>
</g>
<!-- Node2&#45;&gt;Node4 -->
<g id="edge3" class="edge"><title>Node2&#45;&gt;Node4</title>
<path fill="none" stroke="midnightblue" d="M306.2,-291.714C328.64,-304.326 362.673,-322.263 394,-334 403.866,-337.696 414.49,-341.033 424.976,-343.976"/>
<polygon fill="midnightblue" stroke="midnightblue" points="307.757,-288.573 297.334,-286.669 304.295,-294.657 307.757,-288.573"/>
</g>
<!-- Node6 -->
<g id="node6" class="node"><title>Node6</title>
<g id="a_node6"><a xlink:href="../../dc/dd1/classconfiguration_1_1_if_parser.html#a4a4ff4b725b19d88a1b364de84147f5d" target="_top" xlink:title="configuration.IfParser.evaluate\lBoolExpr">
<polygon fill="white" stroke="black" points="412.5,-131 412.5,-161 573.5,-161 573.5,-131 412.5,-131"/>
<text text-anchor="start" x="420.5" y="-149" font-family="Helvetica,sans-Serif" font-size="10.00">configuration.IfParser.evaluate</text>
<text text-anchor="middle" x="493" y="-138" font-family="Helvetica,sans-Serif" font-size="10.00">BoolExpr</text>
</a>
</g>
</g>
<!-- Node2&#45;&gt;Node6 -->
<g id="edge5" class="edge"><title>Node2&#45;&gt;Node6</title>
<path fill="none" stroke="midnightblue" d="M294.569,-259.355C313.967,-235.391 351.958,-192.921 394,-170 400.306,-166.562 407.105,-163.61 414.079,-161.076"/>
<polygon fill="midnightblue" stroke="midnightblue" points="291.76,-257.265 288.291,-267.276 297.245,-261.613 291.76,-257.265"/>
</g>
<!-- Node8 -->
<g id="node8" class="node"><title>Node8</title>
<g id="a_node8"><a xlink:href="../../d3/d0d/classconfiguration_1_1_repeat_parser.html#ab218ee8c24e4dab18c02cd4a536d15d3" target="_top" xlink:title="configuration.RepeatParser.fetch\lNumericExpr">
<polygon fill="white" stroke="black" points="633.5,-486 633.5,-516 804.5,-516 804.5,-486 633.5,-486"/>
<text text-anchor="start" x="641.5" y="-504" font-family="Helvetica,sans-Serif" font-size="10.00">configuration.RepeatParser.fetch</text>
<text text-anchor="middle" x="719" y="-493" font-family="Helvetica,sans-Serif" font-size="10.00">NumericExpr</text>
</a>
</g>
</g>
<!-- Node2&#45;&gt;Node8 -->
<g id="edge7" class="edge"><title>Node2&#45;&gt;Node8</title>
<path fill="none" stroke="midnightblue" d="M285.291,-296.897C295.604,-339.289 326.125,-438.133 394,-481 432.418,-505.263 550.986,-506.895 633.491,-504.78"/>
<polygon fill="midnightblue" stroke="midnightblue" points="288.658,-295.921 282.999,-286.965 281.838,-297.496 288.658,-295.921"/>
</g>
<!-- Node10 -->
<g id="node10" class="node"><title>Node10</title>
<g id="a_node10"><a xlink:href="../../dc/d64/classconfiguration_1_1_for_parser.html#a95aeb8afdb254389dcef062be1cf2727" target="_top" xlink:title="configuration.ForParser.fetch\lNumericExpr">
<polygon fill="white" stroke="black" points="416.5,-442 416.5,-472 569.5,-472 569.5,-442 416.5,-442"/>
<text text-anchor="start" x="424.5" y="-460" font-family="Helvetica,sans-Serif" font-size="10.00">configuration.ForParser.fetch</text>
<text text-anchor="middle" x="493" y="-449" font-family="Helvetica,sans-Serif" font-size="10.00">NumericExpr</text>
</a>
</g>
</g>
<!-- Node2&#45;&gt;Node10 -->
<g id="edge9" class="edge"><title>Node2&#45;&gt;Node10</title>
<path fill="none" stroke="midnightblue" d="M289.563,-296.256C305.29,-329.335 342,-396.782 394,-432 400.833,-436.628 408.46,-440.399 416.36,-443.472"/>
<polygon fill="midnightblue" stroke="midnightblue" points="292.57,-294.421 285.201,-286.809 286.215,-297.355 292.57,-294.421"/>
</g>
<!-- Node12 -->
<g id="node12" class="node"><title>Node12</title>
<g id="a_node12"><a xlink:href="../../d9/dfc/classconfiguration_1_1_dotimes_parser.html#a26cc7f8e0a21d93091bfe8884a924450" target="_top" xlink:title="configuration.DotimesParser.fetch\lNumericExpr">
<polygon fill="white" stroke="black" points="403.5,-2 403.5,-32 582.5,-32 582.5,-2 403.5,-2"/>
<text text-anchor="start" x="411.5" y="-20" font-family="Helvetica,sans-Serif" font-size="10.00">configuration.DotimesParser.fetch</text>
<text text-anchor="middle" x="493" y="-9" font-family="Helvetica,sans-Serif" font-size="10.00">NumericExpr</text>
</a>
</g>
</g>
<!-- Node2&#45;&gt;Node12 -->
<g id="edge11" class="edge"><title>Node2&#45;&gt;Node12</title>
<path fill="none" stroke="midnightblue" d="M284.857,-257.468C294.702,-212.853 325.016,-102.86 394,-45 400.236,-39.7693 407.396,-35.5143 414.945,-32.0533"/>
<polygon fill="midnightblue" stroke="midnightblue" points="281.416,-256.825 282.784,-267.331 288.266,-258.265 281.416,-256.825"/>
</g>
<!-- Node15 -->
<g id="node15" class="node"><title>Node15</title>
<g id="a_node15"><a xlink:href="../../db/d22/classconfiguration_1_1_set_parser.html#a4f20258805caaf18872872d5283a0e74" target="_top" xlink:title="configuration.SetParser.parse">
<polygon fill="white" stroke="black" points="414,-267.5 414,-286.5 572,-286.5 572,-267.5 414,-267.5"/>
<text text-anchor="middle" x="493" y="-274.5" font-family="Helvetica,sans-Serif" font-size="10.00">configuration.SetParser.parse</text>
</a>
</g>
</g>
<!-- Node2&#45;&gt;Node15 -->
<g id="edge14" class="edge"><title>Node2&#45;&gt;Node15</title>
<path fill="none" stroke="midnightblue" d="M368.381,-277C383.413,-277 398.95,-277 413.723,-277"/>
<polygon fill="midnightblue" stroke="midnightblue" points="368.072,-273.5 358.071,-277 368.071,-280.5 368.072,-273.5"/>
</g>
<!-- Node16 -->
<g id="node16" class="node"><title>Node16</title>
<g id="a_node16"><a xlink:href="../../d0/da7/classconfiguration_1_1_basic_parser.html#a22bf37b374167e497f639182e7459517" target="_top" xlink:title="configuration.BasicParser.parse">
<polygon fill="white" stroke="black" points="409.5,-229.5 409.5,-248.5 576.5,-248.5 576.5,-229.5 409.5,-229.5"/>
<text text-anchor="middle" x="493" y="-236.5" font-family="Helvetica,sans-Serif" font-size="10.00">configuration.BasicParser.parse</text>
</a>
</g>
</g>
<!-- Node2&#45;&gt;Node16 -->
<g id="edge15" class="edge"><title>Node2&#45;&gt;Node16</title>
<path fill="none" stroke="midnightblue" d="M344.005,-265.653C374.279,-260.201 410.158,-253.739 439.006,-248.544"/>
<polygon fill="midnightblue" stroke="midnightblue" points="343.193,-262.243 333.972,-267.46 344.434,-269.132 343.193,-262.243"/>
</g>
<!-- Node17 -->
<g id="node17" class="node"><title>Node17</title>
<g id="a_node17"><a xlink:href="../../d3/d0d/classconfiguration_1_1_repeat_parser.html#a27c7e86622dda996677d34987f702cb6" target="_top" xlink:title="configuration.RepeatParser.parseFor">
<polygon fill="white" stroke="black" points="398.5,-305.5 398.5,-324.5 587.5,-324.5 587.5,-305.5 398.5,-305.5"/>
<text text-anchor="middle" x="493" y="-312.5" font-family="Helvetica,sans-Serif" font-size="10.00">configuration.RepeatParser.parseFor</text>
</a>
</g>
</g>
<!-- Node2&#45;&gt;Node17 -->
<g id="edge16" class="edge"><title>Node2&#45;&gt;Node17</title>
<path fill="none" stroke="midnightblue" d="M344.005,-288.347C374.279,-293.799 410.158,-300.261 439.006,-305.456"/>
<polygon fill="midnightblue" stroke="midnightblue" points="344.434,-284.868 333.972,-286.54 343.193,-291.757 344.434,-284.868"/>
</g>
<!-- Node19 -->
<g id="node19" class="node"><title>Node19</title>
<g id="a_node19"><a xlink:href="../../dc/d64/classconfiguration_1_1_for_parser.html#a6bc38f731ac658c5860fe092ba7689ac" target="_top" xlink:title="configuration.ForParser.parseFor">
<polygon fill="white" stroke="black" points="407.5,-54.5 407.5,-73.5 578.5,-73.5 578.5,-54.5 407.5,-54.5"/>
<text text-anchor="middle" x="493" y="-61.5" font-family="Helvetica,sans-Serif" font-size="10.00">configuration.ForParser.parseFor</text>
</a>
</g>
</g>
<!-- Node2&#45;&gt;Node19 -->
<g id="edge19" class="edge"><title>Node2&#45;&gt;Node19</title>
<path fill="none" stroke="midnightblue" d="M286.35,-257.632C298.386,-217.934 331.543,-127.347 394,-83 399.37,-79.1873 405.305,-76.0878 411.519,-73.5739"/>
<polygon fill="midnightblue" stroke="midnightblue" points="282.942,-256.819 283.509,-267.399 289.663,-258.775 282.942,-256.819"/>
</g>
<!-- Node21 -->
<g id="node21" class="node"><title>Node21</title>
<g id="a_node21"><a xlink:href="../../d9/dfc/classconfiguration_1_1_dotimes_parser.html#aff41ee5ce2eeff82f7586bd1cf6a91c8" target="_top" xlink:title="configuration.DotimesParser.parseFor">
<polygon fill="white" stroke="black" points="394.5,-92.5 394.5,-111.5 591.5,-111.5 591.5,-92.5 394.5,-92.5"/>
<text text-anchor="middle" x="493" y="-99.5" font-family="Helvetica,sans-Serif" font-size="10.00">configuration.DotimesParser.parseFor</text>
</a>
</g>
</g>
<!-- Node2&#45;&gt;Node21 -->
<g id="edge21" class="edge"><title>Node2&#45;&gt;Node21</title>
<path fill="none" stroke="midnightblue" d="M289.099,-257.783C304.325,-224.177 340.57,-155.074 394,-121 400.064,-117.133 406.737,-114.02 413.663,-111.519"/>
<polygon fill="midnightblue" stroke="midnightblue" points="285.711,-256.794 284.899,-267.357 292.121,-259.606 285.711,-256.794"/>
</g>
<!-- Node23 -->
<g id="node23" class="node"><title>Node23</title>
<g id="a_node23"><a xlink:href="../../d7/d56/classconfiguration_1_1_ifelse_parser.html#aeb471eacbe15e095075bdd09619fe15d" target="_top" xlink:title="configuration.IfelseParser.parse\lListCommands">
<polygon fill="white" stroke="black" points="410,-393 410,-423 576,-423 576,-393 410,-393"/>
<text text-anchor="start" x="418" y="-411" font-family="Helvetica,sans-Serif" font-size="10.00">configuration.IfelseParser.parse</text>
<text text-anchor="middle" x="493" y="-400" font-family="Helvetica,sans-Serif" font-size="10.00">ListCommands</text>
</a>
</g>
</g>
<!-- Node2&#45;&gt;Node23 -->
<g id="edge24" class="edge"><title>Node2&#45;&gt;Node23</title>
<path fill="none" stroke="midnightblue" d="M294.638,-294.419C314.116,-318.087 352.199,-360.077 394,-383 401.082,-386.884 408.783,-390.179 416.652,-392.972"/>
<polygon fill="midnightblue" stroke="midnightblue" points="297.333,-292.185 288.331,-286.597 291.883,-296.579 297.333,-292.185"/>
</g>
<!-- Node24 -->
<g id="node24" class="node"><title>Node24</title>
<g id="a_node24"><a xlink:href="../../dc/dd1/classconfiguration_1_1_if_parser.html#a3e1532b1163cc498d3f7636ed8ff2a16" target="_top" xlink:title="configuration.IfParser.parse\lListCommands">
<polygon fill="white" stroke="black" points="420,-180 420,-210 566,-210 566,-180 420,-180"/>
<text text-anchor="start" x="428" y="-198" font-family="Helvetica,sans-Serif" font-size="10.00">configuration.IfParser.parse</text>
<text text-anchor="middle" x="493" y="-187" font-family="Helvetica,sans-Serif" font-size="10.00">ListCommands</text>
</a>
</g>
</g>
<!-- Node2&#45;&gt;Node24 -->
<g id="edge26" class="edge"><title>Node2&#45;&gt;Node24</title>
<path fill="none" stroke="midnightblue" d="M306.2,-262.286C328.64,-249.674 362.673,-231.737 394,-220 403.866,-216.304 414.49,-212.967 424.976,-210.024"/>
<polygon fill="midnightblue" stroke="midnightblue" points="304.295,-259.343 297.334,-267.331 307.757,-265.427 304.295,-259.343"/>
</g>
<!-- Node5 -->
<g id="node5" class="node"><title>Node5</title>
<g id="a_node5"><a xlink:href="../../d7/d56/classconfiguration_1_1_ifelse_parser.html#a4b806589536dd338338d515a0fdb67ed" target="_top" xlink:title="configuration.IfelseParser.parse">
<polygon fill="white" stroke="black" points="636,-374.5 636,-393.5 802,-393.5 802,-374.5 636,-374.5"/>
<text text-anchor="middle" x="719" y="-381.5" font-family="Helvetica,sans-Serif" font-size="10.00">configuration.IfelseParser.parse</text>
</a>
</g>
</g>
<!-- Node4&#45;&gt;Node5 -->
<g id="edge4" class="edge"><title>Node4&#45;&gt;Node5</title>
<path fill="none" stroke="midnightblue" d="M593.4,-370.094C607.526,-371.67 621.923,-373.277 635.677,-374.812"/>
<polygon fill="midnightblue" stroke="midnightblue" points="593.501,-366.583 583.174,-368.952 592.724,-373.54 593.501,-366.583"/>
</g>
<!-- Node7 -->
<g id="node7" class="node"><title>Node7</title>
<g id="a_node7"><a xlink:href="../../dc/dd1/classconfiguration_1_1_if_parser.html#ab4ed2d3b7778d2b1206e5d26ebac7976" target="_top" xlink:title="configuration.IfParser.parse">
<polygon fill="white" stroke="black" points="646,-166.5 646,-185.5 792,-185.5 792,-166.5 646,-166.5"/>
<text text-anchor="middle" x="719" y="-173.5" font-family="Helvetica,sans-Serif" font-size="10.00">configuration.IfParser.parse</text>
</a>
</g>
</g>
<!-- Node6&#45;&gt;Node7 -->
<g id="edge6" class="edge"><title>Node6&#45;&gt;Node7</title>
<path fill="none" stroke="midnightblue" d="M583.798,-158.027C604.768,-160.835 626.82,-163.788 646.851,-166.471"/>
<polygon fill="midnightblue" stroke="midnightblue" points="583.981,-154.52 573.605,-156.661 583.052,-161.458 583.981,-154.52"/>
</g>
<!-- Node9 -->
<g id="node9" class="node"><title>Node9</title>
<g id="a_node9"><a xlink:href="../../d3/d0d/classconfiguration_1_1_repeat_parser.html#abf20b0ae25909c1cdff93f509830b502" target="_top" xlink:title="configuration.RepeatParser.parse">
<polygon fill="white" stroke="black" points="850,-404.5 850,-423.5 1024,-423.5 1024,-404.5 850,-404.5"/>
<text text-anchor="middle" x="937" y="-411.5" font-family="Helvetica,sans-Serif" font-size="10.00">configuration.RepeatParser.parse</text>
</a>
</g>
</g>
<!-- Node8&#45;&gt;Node9 -->
<g id="edge8" class="edge"><title>Node8&#45;&gt;Node9</title>
<path fill="none" stroke="midnightblue" d="M790.351,-482.83C797.047,-480.69 803.688,-478.406 810,-476 850.323,-460.633 895.12,-436.877 918.929,-423.678"/>
<polygon fill="midnightblue" stroke="midnightblue" points="789.058,-479.566 780.534,-485.858 791.121,-486.255 789.058,-479.566"/>
</g>
<!-- Node11 -->
<g id="node11" class="node"><title>Node11</title>
<g id="a_node11"><a xlink:href="../../dc/d64/classconfiguration_1_1_for_parser.html#a2737b422e279cfca7c64fd8eff57d3ff" target="_top" xlink:title="configuration.ForParser.parse">
<polygon fill="white" stroke="black" points="641,-447.5 641,-466.5 797,-466.5 797,-447.5 641,-447.5"/>
<text text-anchor="middle" x="719" y="-454.5" font-family="Helvetica,sans-Serif" font-size="10.00">configuration.ForParser.parse</text>
</a>
</g>
</g>
<!-- Node10&#45;&gt;Node11 -->
<g id="edge10" class="edge"><title>Node10&#45;&gt;Node11</title>
<path fill="none" stroke="midnightblue" d="M579.622,-457C599.778,-457 621.141,-457 640.895,-457"/>
<polygon fill="midnightblue" stroke="midnightblue" points="579.524,-453.5 569.524,-457 579.524,-460.5 579.524,-453.5"/>
</g>
<!-- Node13 -->
<g id="node13" class="node"><title>Node13</title>
<g id="a_node13"><a xlink:href="../../d9/dfc/classconfiguration_1_1_dotimes_parser.html#a63d34c400b9b5715b4a2f9a5d0107e62" target="_top" xlink:title="configuration.DotimesParser.parse\lDotimesIterator">
<polygon fill="white" stroke="black" points="628,-0 628,-30 810,-30 810,-0 628,-0"/>
<text text-anchor="start" x="636" y="-18" font-family="Helvetica,sans-Serif" font-size="10.00">configuration.DotimesParser.parse</text>
<text text-anchor="middle" x="719" y="-7" font-family="Helvetica,sans-Serif" font-size="10.00">DotimesIterator</text>
</a>
</g>
</g>
<!-- Node12&#45;&gt;Node13 -->
<g id="edge12" class="edge"><title>Node12&#45;&gt;Node13</title>
<path fill="none" stroke="midnightblue" d="M592.748,-16.1183C604.446,-16.0139 616.34,-15.9077 627.909,-15.8044"/>
<polygon fill="midnightblue" stroke="midnightblue" points="592.499,-12.6203 582.531,-16.2095 592.562,-19.62 592.499,-12.6203"/>
</g>
<!-- Node14 -->
<g id="node14" class="node"><title>Node14</title>
<g id="a_node14"><a xlink:href="../../d9/dfc/classconfiguration_1_1_dotimes_parser.html#abf0eb9bddfa4a09adc745008e17b293b" target="_top" xlink:title="configuration.DotimesParser.parse">
<polygon fill="white" stroke="black" points="846,-54.5 846,-73.5 1028,-73.5 1028,-54.5 846,-54.5"/>
<text text-anchor="middle" x="937" y="-61.5" font-family="Helvetica,sans-Serif" font-size="10.00">configuration.DotimesParser.parse</text>
</a>
</g>
</g>
<!-- Node13&#45;&gt;Node14 -->
<g id="edge13" class="edge"><title>Node13&#45;&gt;Node14</title>
<path fill="none" stroke="midnightblue" d="M796.314,-32.3119C829.153,-39.7615 866.28,-48.1838 893.999,-54.472"/>
<polygon fill="midnightblue" stroke="midnightblue" points="796.802,-28.8337 786.275,-30.0346 795.253,-35.6603 796.802,-28.8337"/>
</g>
<!-- Node18 -->
<g id="node18" class="node"><title>Node18</title>
<g id="a_node18"><a xlink:href="../../d3/d0d/classconfiguration_1_1_repeat_parser.html#aed07d335bcd1174cb4247a7add0d3315" target="_top" xlink:title="configuration.RepeatParser.parse\lCommands">
<polygon fill="white" stroke="black" points="632,-312 632,-342 806,-342 806,-312 632,-312"/>
<text text-anchor="start" x="640" y="-330" font-family="Helvetica,sans-Serif" font-size="10.00">configuration.RepeatParser.parse</text>
<text text-anchor="middle" x="719" y="-319" font-family="Helvetica,sans-Serif" font-size="10.00">Commands</text>
</a>
</g>
</g>
<!-- Node17&#45;&gt;Node18 -->
<g id="edge17" class="edge"><title>Node17&#45;&gt;Node18</title>
<path fill="none" stroke="midnightblue" d="M597.693,-320.555C609.115,-321.167 620.652,-321.785 631.826,-322.384"/>
<polygon fill="midnightblue" stroke="midnightblue" points="597.871,-317.06 587.698,-320.02 597.497,-324.05 597.871,-317.06"/>
</g>
<!-- Node18&#45;&gt;Node9 -->
<g id="edge18" class="edge"><title>Node18&#45;&gt;Node9</title>
<path fill="none" stroke="midnightblue" d="M767.121,-345.979C811.877,-364.006 877.348,-390.376 912.163,-404.399"/>
<polygon fill="midnightblue" stroke="midnightblue" points="768.208,-342.644 757.624,-342.154 765.593,-349.137 768.208,-342.644"/>
</g>
<!-- Node20 -->
<g id="node20" class="node"><title>Node20</title>
<g id="a_node20"><a xlink:href="../../dc/d64/classconfiguration_1_1_for_parser.html#ad3cb5184cf449bd3414f3ba73a8b3104" target="_top" xlink:title="configuration.ForParser.parse\lCommands">
<polygon fill="white" stroke="black" points="641,-49 641,-79 797,-79 797,-49 641,-49"/>
<text text-anchor="start" x="649" y="-67" font-family="Helvetica,sans-Serif" font-size="10.00">configuration.ForParser.parse</text>
<text text-anchor="middle" x="719" y="-56" font-family="Helvetica,sans-Serif" font-size="10.00">Commands</text>
</a>
</g>
</g>
<!-- Node19&#45;&gt;Node20 -->
<g id="edge20" class="edge"><title>Node19&#45;&gt;Node20</title>
<path fill="none" stroke="midnightblue" d="M588.838,-64C606.214,-64 624.155,-64 640.934,-64"/>
<polygon fill="midnightblue" stroke="midnightblue" points="588.685,-60.5001 578.685,-64 588.685,-67.5001 588.685,-60.5001"/>
</g>
<!-- Node22 -->
<g id="node22" class="node"><title>Node22</title>
<g id="a_node22"><a xlink:href="../../d9/dfc/classconfiguration_1_1_dotimes_parser.html#a6086c4c4651b29dd968bf4728bd71d0c" target="_top" xlink:title="configuration.DotimesParser.parse\lCommands">
<polygon fill="white" stroke="black" points="628,-98 628,-128 810,-128 810,-98 628,-98"/>
<text text-anchor="start" x="636" y="-116" font-family="Helvetica,sans-Serif" font-size="10.00">configuration.DotimesParser.parse</text>
<text text-anchor="middle" x="719" y="-105" font-family="Helvetica,sans-Serif" font-size="10.00">Commands</text>
</a>
</g>
</g>
<!-- Node21&#45;&gt;Node22 -->
<g id="edge22" class="edge"><title>Node21&#45;&gt;Node22</title>
<path fill="none" stroke="midnightblue" d="M601.785,-107.293C610.488,-107.72 619.224,-108.149 627.783,-108.57"/>
<polygon fill="midnightblue" stroke="midnightblue" points="601.758,-103.788 591.598,-106.793 601.414,-110.779 601.758,-103.788"/>
</g>
<!-- Node22&#45;&gt;Node14 -->
<g id="edge23" class="edge"><title>Node22&#45;&gt;Node14</title>
<path fill="none" stroke="midnightblue" d="M796.314,-95.6881C829.153,-88.2385 866.28,-79.8162 893.999,-73.528"/>
<polygon fill="midnightblue" stroke="midnightblue" points="795.253,-92.3397 786.275,-97.9654 796.802,-99.1663 795.253,-92.3397"/>
</g>
<!-- Node23&#45;&gt;Node5 -->
<g id="edge25" class="edge"><title>Node23&#45;&gt;Node5</title>
<path fill="none" stroke="midnightblue" d="M586.283,-398.113C602.72,-396.351 619.742,-394.528 635.873,-392.799"/>
<polygon fill="midnightblue" stroke="midnightblue" points="585.708,-394.654 576.137,-399.2 586.453,-401.614 585.708,-394.654"/>
</g>
<!-- Node24&#45;&gt;Node7 -->
<g id="edge27" class="edge"><title>Node24&#45;&gt;Node7</title>
<path fill="none" stroke="midnightblue" d="M576.095,-188.037C598.884,-186.104 623.455,-184.019 645.643,-182.137"/>
<polygon fill="midnightblue" stroke="midnightblue" points="575.776,-184.551 566.108,-188.884 576.368,-191.526 575.776,-184.551"/>
</g>
</g>
</svg>
        <g id="navigator" transform="translate(0 0)" fill="#404254">
                <rect fill="#f2f5e9" fill-opacity="0.5" stroke="#606060" stroke-width=".5" x="0" y="0" width="60" height="60"/>
                <use id="zoomplus" xlink:href="#zoomPlus" x="17" y="9" onmousedown="handleZoom(evt,'in')"/>
                <use id="zoomminus" xlink:href="#zoomMin" x="42" y="9" onmousedown="handleZoom(evt,'out')"/>
                <use id="reset" xlink:href="#resetDef" x="30" y="36" onmousedown="handleReset()"/>
                <g id="arrowUp" xlink:href="#dirArrow" transform="translate(30 24)" onmousedown="handlePan(0,-1)">
                  <use xlink:href="#rim" fill="#404040">
                        <set attributeName="fill" to="#808080" begin="arrowUp.mouseover" end="arrowUp.mouseout"/>
                  </use>
                  <path fill="none" stroke="white" stroke-width="1.5" d="M0,-3.0v7 M-2.5,-0.5L0,-3.0L2.5,-0.5"/>
                </g>
                <g id="arrowRight" xlink:href="#dirArrow" transform="rotate(90) translate(36 -43)" onmousedown="handlePan(1,0)">
                  <use xlink:href="#rim" fill="#404040">
                        <set attributeName="fill" to="#808080" begin="arrowRight.mouseover" end="arrowRight.mouseout"/>
                  </use>
                  <path fill="none" stroke="white" stroke-width="1.5" d="M0,-3.0v7 M-2.5,-0.5L0,-3.0L2.5,-0.5"/>
                </g>
                <g id="arrowDown" xlink:href="#dirArrow" transform="rotate(180) translate(-30 -48)" onmousedown="handlePan(0,1)">
                  <use xlink:href="#rim" fill="#404040">
                        <set attributeName="fill" to="#808080" begin="arrowDown.mouseover" end="arrowDown.mouseout"/>
                  </use>
                  <path fill="none" stroke="white" stroke-width="1.5" d="M0,-3.0v7 M-2.5,-0.5L0,-3.0L2.5,-0.5"/>
                </g>
                <g id="arrowLeft" xlink:href="#dirArrow" transform="rotate(270) translate(-36 17)" onmousedown="handlePan(-1,0)">
                  <use xlink:href="#rim" fill="#404040">
                        <set attributeName="fill" to="#808080" begin="arrowLeft.mouseover" end="arrowLeft.mouseout"/>
                  </use>
                  <path fill="none" stroke="white" stroke-width="1.5" d="M0,-3.0v7 M-2.5,-0.5L0,-3.0L2.5,-0.5"/>
                </g>
        </g>
        <svg viewBox="0 0 15 15" width="100%" height="30px" preserveAspectRatio="xMaxYMin meet">
         <g id="arrow_out" transform="scale(0.3 0.3)">
          <a xlink:href="classconfiguration_1_1_parser_af0032734232f2e6043d7c8c94d86dd1f_icgraph_org.svg" target="_base">
           <rect id="button" ry="5" rx="5" y="6" x="6" height="38" width="38"
                fill="#f2f5e9" fill-opacity="0.5" stroke="#606060" stroke-width="1.0"/>
           <path id="arrow"
             d="M 11.500037,31.436501 C 11.940474,20.09759 22.043105,11.32322 32.158766,21.979434 L 37.068811,17.246167 C 37.068811,17.246167 37.088388,32 37.088388,32 L 22.160133,31.978069 C 22.160133,31.978069 26.997745,27.140456 26.997745,27.140456 C 18.528582,18.264221 13.291696,25.230495 11.500037,31.436501 z"
             style="fill:#404040;"/>
          </a>
         </g>
        </svg>
</svg>
