<?xml version="1.0" encoding="UTF-8" standalone="no"?>
<!DOCTYPE svg PUBLIC "-//W3C//DTD SVG 1.1//EN"
 "http://www.w3.org/Graphics/SVG/1.1/DTD/svg11.dtd">
<!-- Generated by graphviz version 2.36.0 (20140111.2315)
 -->
<!-- Title: configuration.Parser.isCommand Pages: 1 -->
<svg width="1042pt" height="443pt"
 viewBox="0.00 0.00 1042.00 443.00" xmlns="http://www.w3.org/2000/svg" xmlns:xlink="http://www.w3.org/1999/xlink">
<g id="graph0" class="graph" transform="scale(1 1) rotate(0) translate(4 439)">
<title>configuration.Parser.isCommand</title>
<polygon fill="white" stroke="none" points="-4,4 -4,-439 1038,-439 1038,4 -4,4"/>
<!-- Node1 -->
<g id="node1" class="node"><title>Node1</title>
<polygon fill="#bfbfbf" stroke="black" points="0,-202.5 0,-221.5 172,-221.5 172,-202.5 0,-202.5"/>
<text text-anchor="middle" x="86" y="-209.5" font-family="Helvetica,sans-Serif" font-size="10.00">configuration.Parser.isCommand</text>
</g>
<!-- Node2 -->
<g id="node2" class="node"><title>Node2</title>
<g id="a_node2"><a xlink:href="../../d9/d11/classconfiguration_1_1_parser.html#ae0480f44c9defa614fb470ab154fa60b" target="_top" xlink:title="configuration.Parser.buildTree">
<polygon fill="white" stroke="black" points="208,-202.5 208,-221.5 364,-221.5 364,-202.5 208,-202.5"/>
<text text-anchor="middle" x="286" y="-209.5" font-family="Helvetica,sans-Serif" font-size="10.00">configuration.Parser.buildTree</text>
</a>
</g>
</g>
<!-- Node1&#45;&gt;Node2 -->
<g id="edge1" class="edge"><title>Node1&#45;&gt;Node2</title>
<path fill="none" stroke="midnightblue" d="M182.161,-212C190.744,-212 199.365,-212 207.766,-212"/>
<polygon fill="midnightblue" stroke="midnightblue" points="182.119,-208.5 172.119,-212 182.119,-215.5 182.119,-208.5"/>
</g>
<!-- Node3 -->
<g id="node3" class="node"><title>Node3</title>
<g id="a_node3"><a xlink:href="../../d9/d11/classconfiguration_1_1_parser.html#a041ccb70bd9dee77d512d8469c15c14f" target="_top" xlink:title="configuration.Parser.buildTree">
<polygon fill="white" stroke="black" points="421,-415.5 421,-434.5 577,-434.5 577,-415.5 421,-415.5"/>
<text text-anchor="middle" x="499" y="-422.5" font-family="Helvetica,sans-Serif" font-size="10.00">configuration.Parser.buildTree</text>
</a>
</g>
</g>
<!-- Node2&#45;&gt;Node3 -->
<g id="edge2" class="edge"><title>Node2&#45;&gt;Node3</title>
<path fill="none" stroke="midnightblue" d="M292.416,-231.221C304.575,-270.626 337.951,-360.588 400,-405 406.354,-409.548 413.503,-413.115 420.97,-415.905"/>
<polygon fill="midnightblue" stroke="midnightblue" points="295.741,-230.12 289.543,-221.527 289.029,-232.109 295.741,-230.12"/>
</g>
<!-- Node4 -->
<g id="node4" class="node"><title>Node4</title>
<g id="a_node4"><a xlink:href="../../d7/d56/classconfiguration_1_1_ifelse_parser.html#aef13959a758ccbf8dab0a3f5f94a7be0" target="_top" xlink:title="configuration.IfelseParser.evaluate\lBoolExpr">
<polygon fill="white" stroke="black" points="409,-317 409,-347 589,-347 589,-317 409,-317"/>
<text text-anchor="start" x="417" y="-335" font-family="Helvetica,sans-Serif" font-size="10.00">configuration.IfelseParser.evaluate</text>
<text text-anchor="middle" x="499" y="-324" font-family="Helvetica,sans-Serif" font-size="10.00">BoolExpr</text>
</a>
</g>
</g>
<!-- Node2&#45;&gt;Node4 -->
<g id="edge3" class="edge"><title>Node2&#45;&gt;Node4</title>
<path fill="none" stroke="midnightblue" d="M303.777,-228.784C324.656,-248.812 362.192,-282.085 400,-302 411.256,-307.929 423.869,-312.887 436.203,-316.952"/>
<polygon fill="midnightblue" stroke="midnightblue" points="305.984,-226.047 296.381,-221.57 301.096,-231.058 305.984,-226.047"/>
</g>
<!-- Node7 -->
<g id="node7" class="node"><title>Node7</title>
<g id="a_node7"><a xlink:href="../../d3/d0d/classconfiguration_1_1_repeat_parser.html#ab218ee8c24e4dab18c02cd4a536d15d3" target="_top" xlink:title="configuration.RepeatParser.fetch\lNumericExpr">
<polygon fill="white" stroke="black" points="639.5,-289 639.5,-319 810.5,-319 810.5,-289 639.5,-289"/>
<text text-anchor="start" x="647.5" y="-307" font-family="Helvetica,sans-Serif" font-size="10.00">configuration.RepeatParser.fetch</text>
<text text-anchor="middle" x="725" y="-296" font-family="Helvetica,sans-Serif" font-size="10.00">NumericExpr</text>
</a>
</g>
</g>
<!-- Node2&#45;&gt;Node7 -->
<g id="edge6" class="edge"><title>Node2&#45;&gt;Node7</title>
<path fill="none" stroke="midnightblue" d="M310.316,-226.914C332.469,-240.304 367.181,-259.3 400,-269 479.079,-292.374 573.136,-300.478 639.482,-303.122"/>
<polygon fill="midnightblue" stroke="midnightblue" points="311.982,-223.83 301.632,-221.563 308.309,-229.789 311.982,-223.83"/>
</g>
<!-- Node9 -->
<g id="node9" class="node"><title>Node9</title>
<g id="a_node9"><a xlink:href="../../dc/d64/classconfiguration_1_1_for_parser.html#a95aeb8afdb254389dcef062be1cf2727" target="_top" xlink:title="configuration.ForParser.fetch\lNumericExpr">
<polygon fill="white" stroke="black" points="648.5,-191 648.5,-221 801.5,-221 801.5,-191 648.5,-191"/>
<text text-anchor="start" x="656.5" y="-209" font-family="Helvetica,sans-Serif" font-size="10.00">configuration.ForParser.fetch</text>
<text text-anchor="middle" x="725" y="-198" font-family="Helvetica,sans-Serif" font-size="10.00">NumericExpr</text>
</a>
</g>
</g>
<!-- Node2&#45;&gt;Node9 -->
<g id="edge8" class="edge"><title>Node2&#45;&gt;Node9</title>
<path fill="none" stroke="midnightblue" d="M374.198,-210.803C454.388,-209.702 572.082,-208.086 648.381,-207.038"/>
<polygon fill="midnightblue" stroke="midnightblue" points="374.072,-207.304 364.121,-210.941 374.168,-214.303 374.072,-207.304"/>
</g>
<!-- Node11 -->
<g id="node11" class="node"><title>Node11</title>
<g id="a_node11"><a xlink:href="../../d9/dfc/classconfiguration_1_1_dotimes_parser.html#a26cc7f8e0a21d93091bfe8884a924450" target="_top" xlink:title="configuration.DotimesParser.fetch\lNumericExpr">
<polygon fill="white" stroke="black" points="409.5,-115 409.5,-145 588.5,-145 588.5,-115 409.5,-115"/>
<text text-anchor="start" x="417.5" y="-133" font-family="Helvetica,sans-Serif" font-size="10.00">configuration.DotimesParser.fetch</text>
<text text-anchor="middle" x="499" y="-122" font-family="Helvetica,sans-Serif" font-size="10.00">NumericExpr</text>
</a>
</g>
</g>
<!-- Node2&#45;&gt;Node11 -->
<g id="edge10" class="edge"><title>Node2&#45;&gt;Node11</title>
<path fill="none" stroke="midnightblue" d="M312.2,-197.286C334.64,-184.674 368.673,-166.737 400,-155 409.866,-151.304 420.49,-147.967 430.976,-145.024"/>
<polygon fill="midnightblue" stroke="midnightblue" points="310.295,-194.343 303.334,-202.331 313.757,-200.427 310.295,-194.343"/>
</g>
<!-- Node14 -->
<g id="node14" class="node"><title>Node14</title>
<g id="a_node14"><a xlink:href="../../db/d22/classconfiguration_1_1_set_parser.html#a4f20258805caaf18872872d5283a0e74" target="_top" xlink:title="configuration.SetParser.parse">
<polygon fill="white" stroke="black" points="420,-38.5 420,-57.5 578,-57.5 578,-38.5 420,-38.5"/>
<text text-anchor="middle" x="499" y="-45.5" font-family="Helvetica,sans-Serif" font-size="10.00">configuration.SetParser.parse</text>
</a>
</g>
</g>
<!-- Node2&#45;&gt;Node14 -->
<g id="edge13" class="edge"><title>Node2&#45;&gt;Node14</title>
<path fill="none" stroke="midnightblue" d="M295.937,-193.225C312.009,-161.653 348.938,-98.3171 400,-67 406.279,-63.1492 413.174,-60.0533 420.307,-57.5678"/>
<polygon fill="midnightblue" stroke="midnightblue" points="292.755,-191.764 291.46,-202.279 299.03,-194.867 292.755,-191.764"/>
</g>
<!-- Node15 -->
<g id="node15" class="node"><title>Node15</title>
<g id="a_node15"><a xlink:href="../../d0/da7/classconfiguration_1_1_basic_parser.html#a22bf37b374167e497f639182e7459517" target="_top" xlink:title="configuration.BasicParser.parse">
<polygon fill="white" stroke="black" points="415.5,-0.5 415.5,-19.5 582.5,-19.5 582.5,-0.5 415.5,-0.5"/>
<text text-anchor="middle" x="499" y="-7.5" font-family="Helvetica,sans-Serif" font-size="10.00">configuration.BasicParser.parse</text>
</a>
</g>
</g>
<!-- Node2&#45;&gt;Node15 -->
<g id="edge14" class="edge"><title>Node2&#45;&gt;Node15</title>
<path fill="none" stroke="midnightblue" d="M293.214,-192.162C306.286,-153.919 340.443,-70.1453 400,-29 405.561,-25.1582 411.702,-22.046 418.117,-19.5302"/>
<polygon fill="midnightblue" stroke="midnightblue" points="289.754,-191.479 289.955,-202.072 296.404,-193.666 289.754,-191.479"/>
</g>
<!-- Node16 -->
<g id="node16" class="node"><title>Node16</title>
<g id="a_node16"><a xlink:href="../../d3/d0d/classconfiguration_1_1_repeat_parser.html#a27c7e86622dda996677d34987f702cb6" target="_top" xlink:title="configuration.RepeatParser.parseFor">
<polygon fill="white" stroke="black" points="404.5,-240.5 404.5,-259.5 593.5,-259.5 593.5,-240.5 404.5,-240.5"/>
<text text-anchor="middle" x="499" y="-247.5" font-family="Helvetica,sans-Serif" font-size="10.00">configuration.RepeatParser.parseFor</text>
</a>
</g>
</g>
<!-- Node2&#45;&gt;Node16 -->
<g id="edge15" class="edge"><title>Node2&#45;&gt;Node16</title>
<path fill="none" stroke="midnightblue" d="M350.005,-223.347C380.279,-228.799 416.158,-235.261 445.006,-240.456"/>
<polygon fill="midnightblue" stroke="midnightblue" points="350.434,-219.868 339.972,-221.54 349.193,-226.757 350.434,-219.868"/>
</g>
<!-- Node18 -->
<g id="node18" class="node"><title>Node18</title>
<g id="a_node18"><a xlink:href="../../dc/d64/classconfiguration_1_1_for_parser.html#a6bc38f731ac658c5860fe092ba7689ac" target="_top" xlink:title="configuration.ForParser.parseFor">
<polygon fill="white" stroke="black" points="413.5,-164.5 413.5,-183.5 584.5,-183.5 584.5,-164.5 413.5,-164.5"/>
<text text-anchor="middle" x="499" y="-171.5" font-family="Helvetica,sans-Serif" font-size="10.00">configuration.ForParser.parseFor</text>
</a>
</g>
</g>
<!-- Node2&#45;&gt;Node18 -->
<g id="edge18" class="edge"><title>Node2&#45;&gt;Node18</title>
<path fill="none" stroke="midnightblue" d="M350.005,-200.653C380.279,-195.201 416.158,-188.739 445.006,-183.544"/>
<polygon fill="midnightblue" stroke="midnightblue" points="349.193,-197.243 339.972,-202.46 350.434,-204.132 349.193,-197.243"/>
</g>
<!-- Node20 -->
<g id="node20" class="node"><title>Node20</title>
<g id="a_node20"><a xlink:href="../../d9/dfc/classconfiguration_1_1_dotimes_parser.html#aff41ee5ce2eeff82f7586bd1cf6a91c8" target="_top" xlink:title="configuration.DotimesParser.parseFor">
<polygon fill="white" stroke="black" points="400.5,-76.5 400.5,-95.5 597.5,-95.5 597.5,-76.5 400.5,-76.5"/>
<text text-anchor="middle" x="499" y="-83.5" font-family="Helvetica,sans-Serif" font-size="10.00">configuration.DotimesParser.parseFor</text>
</a>
</g>
</g>
<!-- Node2&#45;&gt;Node20 -->
<g id="edge21" class="edge"><title>Node2&#45;&gt;Node20</title>
<path fill="none" stroke="midnightblue" d="M300.484,-194.292C319.782,-170.285 357.656,-127.904 400,-106 408.483,-101.612 417.844,-98.1863 427.315,-95.5119"/>
<polygon fill="midnightblue" stroke="midnightblue" points="297.67,-192.208 294.24,-202.233 303.173,-196.535 297.67,-192.208"/>
</g>
<!-- Node22 -->
<g id="node22" class="node"><title>Node22</title>
<g id="a_node22"><a xlink:href="../../d7/d56/classconfiguration_1_1_ifelse_parser.html#aeb471eacbe15e095075bdd09619fe15d" target="_top" xlink:title="configuration.IfelseParser.parse\lListCommands">
<polygon fill="white" stroke="black" points="416,-366 416,-396 582,-396 582,-366 416,-366"/>
<text text-anchor="start" x="424" y="-384" font-family="Helvetica,sans-Serif" font-size="10.00">configuration.IfelseParser.parse</text>
<text text-anchor="middle" x="499" y="-373" font-family="Helvetica,sans-Serif" font-size="10.00">ListCommands</text>
</a>
</g>
</g>
<!-- Node2&#45;&gt;Node22 -->
<g id="edge24" class="edge"><title>Node2&#45;&gt;Node22</title>
<path fill="none" stroke="midnightblue" d="M296.409,-230.78C312.953,-261.815 350.272,-323.59 400,-356 405.958,-359.883 412.483,-363.163 419.247,-365.934"/>
<polygon fill="midnightblue" stroke="midnightblue" points="299.492,-229.122 291.778,-221.86 293.279,-232.348 299.492,-229.122"/>
</g>
<!-- Node5 -->
<g id="node5" class="node"><title>Node5</title>
<g id="a_node5"><a xlink:href="../../d7/d56/classconfiguration_1_1_ifelse_parser.html#a4b806589536dd338338d515a0fdb67ed" target="_top" xlink:title="configuration.IfelseParser.parse">
<polygon fill="white" stroke="black" points="642,-376.5 642,-395.5 808,-395.5 808,-376.5 642,-376.5"/>
<text text-anchor="middle" x="725" y="-383.5" font-family="Helvetica,sans-Serif" font-size="10.00">configuration.IfelseParser.parse</text>
</a>
</g>
</g>
<!-- Node4&#45;&gt;Node5 -->
<g id="edge4" class="edge"><title>Node4&#45;&gt;Node5</title>
<path fill="none" stroke="midnightblue" d="M569.549,-349.548C579.116,-352.019 588.807,-354.551 598,-357 614.046,-361.275 617.868,-363.061 634,-367 647.652,-370.334 662.553,-373.621 676.231,-376.499"/>
<polygon fill="midnightblue" stroke="midnightblue" points="570.207,-346.104 559.651,-347.002 568.464,-352.883 570.207,-346.104"/>
</g>
<!-- Node6 -->
<g id="node6" class="node"><title>Node6</title>
<g id="a_node6"><a xlink:href="../../dc/dd1/classconfiguration_1_1_if_parser.html#ab4ed2d3b7778d2b1206e5d26ebac7976" target="_top" xlink:title="configuration.IfParser.parse">
<polygon fill="white" stroke="black" points="652,-338.5 652,-357.5 798,-357.5 798,-338.5 652,-338.5"/>
<text text-anchor="middle" x="725" y="-345.5" font-family="Helvetica,sans-Serif" font-size="10.00">configuration.IfParser.parse</text>
</a>
</g>
</g>
<!-- Node4&#45;&gt;Node6 -->
<g id="edge5" class="edge"><title>Node4&#45;&gt;Node6</title>
<path fill="none" stroke="midnightblue" d="M599.457,-339.104C617.027,-340.359 635.013,-341.644 651.658,-342.833"/>
<polygon fill="midnightblue" stroke="midnightblue" points="599.398,-335.591 589.174,-338.37 598.9,-342.573 599.398,-335.591"/>
</g>
<!-- Node8 -->
<g id="node8" class="node"><title>Node8</title>
<g id="a_node8"><a xlink:href="../../d3/d0d/classconfiguration_1_1_repeat_parser.html#abf20b0ae25909c1cdff93f509830b502" target="_top" xlink:title="configuration.RepeatParser.parse">
<polygon fill="white" stroke="black" points="856,-269.5 856,-288.5 1030,-288.5 1030,-269.5 856,-269.5"/>
<text text-anchor="middle" x="943" y="-276.5" font-family="Helvetica,sans-Serif" font-size="10.00">configuration.RepeatParser.parse</text>
</a>
</g>
</g>
<!-- Node7&#45;&gt;Node8 -->
<g id="edge7" class="edge"><title>Node7&#45;&gt;Node8</title>
<path fill="none" stroke="midnightblue" d="M821.003,-293.004C833.873,-291.515 846.993,-289.996 859.617,-288.535"/>
<polygon fill="midnightblue" stroke="midnightblue" points="820.28,-289.564 810.749,-294.191 821.085,-296.518 820.28,-289.564"/>
</g>
<!-- Node10 -->
<g id="node10" class="node"><title>Node10</title>
<g id="a_node10"><a xlink:href="../../dc/d64/classconfiguration_1_1_for_parser.html#a2737b422e279cfca7c64fd8eff57d3ff" target="_top" xlink:title="configuration.ForParser.parse">
<polygon fill="white" stroke="black" points="865,-171.5 865,-190.5 1021,-190.5 1021,-171.5 865,-171.5"/>
<text text-anchor="middle" x="943" y="-178.5" font-family="Helvetica,sans-Serif" font-size="10.00">configuration.ForParser.parse</text>
</a>
</g>
</g>
<!-- Node9&#45;&gt;Node10 -->
<g id="edge9" class="edge"><title>Node9&#45;&gt;Node10</title>
<path fill="none" stroke="midnightblue" d="M811.729,-196.078C829.208,-194.055 847.501,-191.937 864.667,-189.951"/>
<polygon fill="midnightblue" stroke="midnightblue" points="811.078,-192.63 801.546,-197.256 811.882,-199.583 811.078,-192.63"/>
</g>
<!-- Node12 -->
<g id="node12" class="node"><title>Node12</title>
<g id="a_node12"><a xlink:href="../../d9/dfc/classconfiguration_1_1_dotimes_parser.html#a63d34c400b9b5715b4a2f9a5d0107e62" target="_top" xlink:title="configuration.DotimesParser.parse\lDotimesIterator">
<polygon fill="white" stroke="black" points="634,-93 634,-123 816,-123 816,-93 634,-93"/>
<text text-anchor="start" x="642" y="-111" font-family="Helvetica,sans-Serif" font-size="10.00">configuration.DotimesParser.parse</text>
<text text-anchor="middle" x="725" y="-100" font-family="Helvetica,sans-Serif" font-size="10.00">DotimesIterator</text>
</a>
</g>
</g>
<!-- Node11&#45;&gt;Node12 -->
<g id="edge11" class="edge"><title>Node11&#45;&gt;Node12</title>
<path fill="none" stroke="midnightblue" d="M598.748,-120.302C610.446,-119.153 622.34,-117.984 633.909,-116.848"/>
<polygon fill="midnightblue" stroke="midnightblue" points="598.141,-116.844 588.531,-121.305 598.825,-123.811 598.141,-116.844"/>
</g>
<!-- Node13 -->
<g id="node13" class="node"><title>Node13</title>
<g id="a_node13"><a xlink:href="../../d9/dfc/classconfiguration_1_1_dotimes_parser.html#abf0eb9bddfa4a09adc745008e17b293b" target="_top" xlink:title="configuration.DotimesParser.parse">
<polygon fill="white" stroke="black" points="852,-74.5 852,-93.5 1034,-93.5 1034,-74.5 852,-74.5"/>
<text text-anchor="middle" x="943" y="-81.5" font-family="Helvetica,sans-Serif" font-size="10.00">configuration.DotimesParser.parse</text>
</a>
</g>
</g>
<!-- Node12&#45;&gt;Node13 -->
<g id="edge12" class="edge"><title>Node12&#45;&gt;Node13</title>
<path fill="none" stroke="midnightblue" d="M826.081,-96.8799C836.166,-95.7594 846.344,-94.6285 856.26,-93.5267"/>
<polygon fill="midnightblue" stroke="midnightblue" points="825.592,-93.4126 816.039,-97.9956 826.365,-100.37 825.592,-93.4126"/>
</g>
<!-- Node17 -->
<g id="node17" class="node"><title>Node17</title>
<g id="a_node17"><a xlink:href="../../d3/d0d/classconfiguration_1_1_repeat_parser.html#aed07d335bcd1174cb4247a7add0d3315" target="_top" xlink:title="configuration.RepeatParser.parse\lCommands">
<polygon fill="white" stroke="black" points="638,-240 638,-270 812,-270 812,-240 638,-240"/>
<text text-anchor="start" x="646" y="-258" font-family="Helvetica,sans-Serif" font-size="10.00">configuration.RepeatParser.parse</text>
<text text-anchor="middle" x="725" y="-247" font-family="Helvetica,sans-Serif" font-size="10.00">Commands</text>
</a>
</g>
</g>
<!-- Node16&#45;&gt;Node17 -->
<g id="edge16" class="edge"><title>Node16&#45;&gt;Node17</title>
<path fill="none" stroke="midnightblue" d="M604.039,-252.322C615.348,-252.575 626.765,-252.83 637.826,-253.076"/>
<polygon fill="midnightblue" stroke="midnightblue" points="603.774,-248.816 593.698,-252.091 603.618,-255.814 603.774,-248.816"/>
</g>
<!-- Node17&#45;&gt;Node8 -->
<g id="edge17" class="edge"><title>Node17&#45;&gt;Node8</title>
<path fill="none" stroke="midnightblue" d="M822.538,-265.726C833.752,-266.972 845.133,-268.237 856.189,-269.465"/>
<polygon fill="midnightblue" stroke="midnightblue" points="822.626,-262.215 812.3,-264.589 821.852,-269.172 822.626,-262.215"/>
</g>
<!-- Node19 -->
<g id="node19" class="node"><title>Node19</title>
<g id="a_node19"><a xlink:href="../../dc/d64/classconfiguration_1_1_for_parser.html#ad3cb5184cf449bd3414f3ba73a8b3104" target="_top" xlink:title="configuration.ForParser.parse\lCommands">
<polygon fill="white" stroke="black" points="647,-142 647,-172 803,-172 803,-142 647,-142"/>
<text text-anchor="start" x="655" y="-160" font-family="Helvetica,sans-Serif" font-size="10.00">configuration.ForParser.parse</text>
<text text-anchor="middle" x="725" y="-149" font-family="Helvetica,sans-Serif" font-size="10.00">Commands</text>
</a>
</g>
</g>
<!-- Node18&#45;&gt;Node19 -->
<g id="edge19" class="edge"><title>Node18&#45;&gt;Node19</title>
<path fill="none" stroke="midnightblue" d="M594.838,-166.803C612.214,-165.484 630.155,-164.122 646.934,-162.849"/>
<polygon fill="midnightblue" stroke="midnightblue" points="594.391,-163.326 584.685,-167.573 594.921,-170.306 594.391,-163.326"/>
</g>
<!-- Node19&#45;&gt;Node10 -->
<g id="edge20" class="edge"><title>Node19&#45;&gt;Node10</title>
<path fill="none" stroke="midnightblue" d="M813.077,-166.675C830.248,-168.583 848.153,-170.573 864.964,-172.44"/>
<polygon fill="midnightblue" stroke="midnightblue" points="813.392,-163.189 803.066,-165.563 812.618,-170.146 813.392,-163.189"/>
</g>
<!-- Node21 -->
<g id="node21" class="node"><title>Node21</title>
<g id="a_node21"><a xlink:href="../../d9/dfc/classconfiguration_1_1_dotimes_parser.html#a6086c4c4651b29dd968bf4728bd71d0c" target="_top" xlink:title="configuration.DotimesParser.parse\lCommands">
<polygon fill="white" stroke="black" points="634,-44 634,-74 816,-74 816,-44 634,-44"/>
<text text-anchor="start" x="642" y="-62" font-family="Helvetica,sans-Serif" font-size="10.00">configuration.DotimesParser.parse</text>
<text text-anchor="middle" x="725" y="-51" font-family="Helvetica,sans-Serif" font-size="10.00">Commands</text>
</a>
</g>
</g>
<!-- Node20&#45;&gt;Node21 -->
<g id="edge22" class="edge"><title>Node20&#45;&gt;Node21</title>
<path fill="none" stroke="midnightblue" d="M589.079,-75.2628C603.822,-73.4857 619.119,-71.6419 633.888,-69.8617"/>
<polygon fill="midnightblue" stroke="midnightblue" points="588.483,-71.8092 578.974,-76.4808 589.321,-78.7589 588.483,-71.8092"/>
</g>
<!-- Node21&#45;&gt;Node13 -->
<g id="edge23" class="edge"><title>Node21&#45;&gt;Node13</title>
<path fill="none" stroke="midnightblue" d="M826.272,-70.6056C837.464,-71.901 848.767,-73.2092 859.698,-74.4743"/>
<polygon fill="midnightblue" stroke="midnightblue" points="826.375,-67.0942 816.039,-69.4212 825.571,-74.0478 826.375,-67.0942"/>
</g>
<!-- Node22&#45;&gt;Node5 -->
<g id="edge25" class="edge"><title>Node22&#45;&gt;Node5</title>
<path fill="none" stroke="midnightblue" d="M592.283,-383.06C608.72,-383.427 625.742,-383.807 641.873,-384.167"/>
<polygon fill="midnightblue" stroke="midnightblue" points="592.213,-379.558 582.137,-382.833 592.057,-386.556 592.213,-379.558"/>
</g>
<!-- Node22&#45;&gt;Node6 -->
<g id="edge26" class="edge"><title>Node22&#45;&gt;Node6</title>
<path fill="none" stroke="midnightblue" d="M592.086,-367.434C614.69,-364.104 638.411,-360.609 659.407,-357.516"/>
<polygon fill="midnightblue" stroke="midnightblue" points="591.52,-363.979 582.137,-368.899 592.541,-370.904 591.52,-363.979"/>
</g>
</g>
</svg>
