<?xml version="1.0" encoding="UTF-8" standalone="no"?>
<!DOCTYPE svg PUBLIC "-//W3C//DTD SVG 1.1//EN"
 "http://www.w3.org/Graphics/SVG/1.1/DTD/svg11.dtd">
<!-- Generated by graphviz version 2.36.0 (20140111.2315)
 -->
<!-- Title: configuration.Parser.isConstant Pages: 1 -->
<!--zoomable 459 -->
<svg id="main" version="1.1" xmlns="http://www.w3.org/2000/svg" xmlns:xlink="http://www.w3.org/1999/xlink" xml:space="preserve" onload="init(evt)">
<style type="text/css"><![CDATA[
.edge:hover path { stroke: red; }
.edge:hover polygon { stroke: red; fill: red; }
]]></style>
<script type="text/javascript"><![CDATA[
var edges = document.getElementsByTagName('g');
if (edges && edges.length) {
  for (var i=0;i<edges.length;i++) {
    if (edges[i].id.substr(0,4)=='edge') {
      edges[i].setAttribute('class','edge');
    }
  }
}
]]></script>
        <defs>
                <circle id="rim" cx="0" cy="0" r="7"/>
                <circle id="rim2" cx="0" cy="0" r="3.5"/>
                <g id="zoomPlus">
                        <use xlink:href="#rim" fill="#404040">
                                <set attributeName="fill" to="#808080" begin="zoomplus.mouseover" end="zoomplus.mouseout"/>
                        </use>
                        <path d="M-4,0h8M0,-4v8" fill="none" stroke="white" stroke-width="1.5" pointer-events="none"/>
                </g>
                <g id="zoomMin">
                        <use xlink:href="#rim" fill="#404040">
                                <set attributeName="fill" to="#808080" begin="zoomminus.mouseover" end="zoomminus.mouseout"/>
                        </use>
                        <path d="M-4,0h8" fill="none" stroke="white" stroke-width="1.5" pointer-events="none"/>
                </g>
                <g id="dirArrow">
                        <path fill="none" stroke="white" stroke-width="1.5" d="M0,-3.0v7 M-2.5,-0.5L0,-3.0L2.5,-0.5"/>
                </g>
               <g id="resetDef">
                       <use xlink:href="#rim2" fill="#404040">
                               <set attributeName="fill" to="#808080" begin="reset.mouseover" end="reset.mouseout"/>
                       </use>
               </g>
        </defs>

<script type="text/javascript">
var viewWidth = 1036;
var viewHeight = 459;
var sectionId = 'dynsection-12';
</script>
<script xlink:href="../../svgpan.js"/>
<svg id="graph" class="graph">
<g id="viewport">
<title>configuration.Parser.isConstant</title>
<polygon fill="white" stroke="none" points="-4,4 -4,-455 1032,-455 1032,4 -4,4"/>
<!-- Node1 -->
<g id="node1" class="node"><title>Node1</title>
<polygon fill="#bfbfbf" stroke="black" points="0.5,-212.5 0.5,-231.5 165.5,-231.5 165.5,-212.5 0.5,-212.5"/>
<text text-anchor="middle" x="83" y="-219.5" font-family="Helvetica,sans-Serif" font-size="10.00">configuration.Parser.isConstant</text>
</g>
<!-- Node2 -->
<g id="node2" class="node"><title>Node2</title>
<g id="a_node2"><a xlink:href="../../d9/d11/classconfiguration_1_1_parser.html#ae0480f44c9defa614fb470ab154fa60b" target="_top" xlink:title="configuration.Parser.buildTree">
<polygon fill="white" stroke="black" points="202,-212.5 202,-231.5 358,-231.5 358,-212.5 202,-212.5"/>
<text text-anchor="middle" x="280" y="-219.5" font-family="Helvetica,sans-Serif" font-size="10.00">configuration.Parser.buildTree</text>
</a>
</g>
</g>
<!-- Node1&#45;&gt;Node2 -->
<g id="edge1" class="edge"><title>Node1&#45;&gt;Node2</title>
<path fill="none" stroke="midnightblue" d="M175.756,-222C184.474,-222 193.252,-222 201.813,-222"/>
<polygon fill="midnightblue" stroke="midnightblue" points="175.568,-218.5 165.568,-222 175.568,-225.5 175.568,-218.5"/>
</g>
<!-- Node3 -->
<g id="node3" class="node"><title>Node3</title>
<g id="a_node3"><a xlink:href="../../d9/d11/classconfiguration_1_1_parser.html#a041ccb70bd9dee77d512d8469c15c14f" target="_top" xlink:title="configuration.Parser.buildTree">
<polygon fill="white" stroke="black" points="415,-431.5 415,-450.5 571,-450.5 571,-431.5 415,-431.5"/>
<text text-anchor="middle" x="493" y="-438.5" font-family="Helvetica,sans-Serif" font-size="10.00">configuration.Parser.buildTree</text>
</a>
</g>
</g>
<!-- Node2&#45;&gt;Node3 -->
<g id="edge2" class="edge"><title>Node2&#45;&gt;Node3</title>
<path fill="none" stroke="midnightblue" d="M286.156,-241.547C297.906,-282.019 330.676,-375.039 394,-421 400.324,-425.59 407.453,-429.184 414.908,-431.991"/>
<polygon fill="midnightblue" stroke="midnightblue" points="289.501,-240.512 283.447,-231.817 282.758,-242.389 289.501,-240.512"/>
</g>
<!-- Node4 -->
<g id="node4" class="node"><title>Node4</title>
<g id="a_node4"><a xlink:href="../../d7/d56/classconfiguration_1_1_ifelse_parser.html#aef13959a758ccbf8dab0a3f5f94a7be0" target="_top" xlink:title="configuration.IfelseParser.evaluate\lBoolExpr">
<polygon fill="white" stroke="black" points="403,-333 403,-363 583,-363 583,-333 403,-333"/>
<text text-anchor="start" x="411" y="-351" font-family="Helvetica,sans-Serif" font-size="10.00">configuration.IfelseParser.evaluate</text>
<text text-anchor="middle" x="493" y="-340" font-family="Helvetica,sans-Serif" font-size="10.00">BoolExpr</text>
</a>
</g>
</g>
<!-- Node2&#45;&gt;Node4 -->
<g id="edge3" class="edge"><title>Node2&#45;&gt;Node4</title>
<path fill="none" stroke="midnightblue" d="M296.644,-239.023C317.101,-260.335 354.952,-296.635 394,-318 404.927,-323.978 417.205,-328.931 429.279,-332.97"/>
<polygon fill="midnightblue" stroke="midnightblue" points="299.097,-236.523 289.689,-231.65 294.006,-241.326 299.097,-236.523"/>
</g>
<!-- Node8 -->
<g id="node8" class="node"><title>Node8</title>
<g id="a_node8"><a xlink:href="../../d3/d0d/classconfiguration_1_1_repeat_parser.html#ab218ee8c24e4dab18c02cd4a536d15d3" target="_top" xlink:title="configuration.RepeatParser.fetch\lNumericExpr">
<polygon fill="white" stroke="black" points="633.5,-300 633.5,-330 804.5,-330 804.5,-300 633.5,-300"/>
<text text-anchor="start" x="641.5" y="-318" font-family="Helvetica,sans-Serif" font-size="10.00">configuration.RepeatParser.fetch</text>
<text text-anchor="middle" x="719" y="-307" font-family="Helvetica,sans-Serif" font-size="10.00">NumericExpr</text>
</a>
</g>
</g>
<!-- Node2&#45;&gt;Node8 -->
<g id="edge7" class="edge"><title>Node2&#45;&gt;Node8</title>
<path fill="none" stroke="midnightblue" d="M302.288,-237.457C324.131,-252.424 359.681,-274.366 394,-285 472.646,-309.368 566.763,-315.713 633.241,-316.659"/>
<polygon fill="midnightblue" stroke="midnightblue" points="304.28,-234.579 294.079,-231.716 300.268,-240.316 304.28,-234.579"/>
</g>
<!-- Node10 -->
<g id="node10" class="node"><title>Node10</title>
<g id="a_node10"><a xlink:href="../../dc/d64/classconfiguration_1_1_for_parser.html#a95aeb8afdb254389dcef062be1cf2727" target="_top" xlink:title="configuration.ForParser.fetch\lNumericExpr">
<polygon fill="white" stroke="black" points="416.5,-207 416.5,-237 569.5,-237 569.5,-207 416.5,-207"/>
<text text-anchor="start" x="424.5" y="-225" font-family="Helvetica,sans-Serif" font-size="10.00">configuration.ForParser.fetch</text>
<text text-anchor="middle" x="493" y="-214" font-family="Helvetica,sans-Serif" font-size="10.00">NumericExpr</text>
</a>
</g>
</g>
<!-- Node2&#45;&gt;Node10 -->
<g id="edge9" class="edge"><title>Node2&#45;&gt;Node10</title>
<path fill="none" stroke="midnightblue" d="M368.401,-222C384.267,-222 400.697,-222 416.195,-222"/>
<polygon fill="midnightblue" stroke="midnightblue" points="368.072,-218.5 358.071,-222 368.071,-225.5 368.072,-218.5"/>
</g>
<!-- Node12 -->
<g id="node12" class="node"><title>Node12</title>
<g id="a_node12"><a xlink:href="../../d9/dfc/classconfiguration_1_1_dotimes_parser.html#a26cc7f8e0a21d93091bfe8884a924450" target="_top" xlink:title="configuration.DotimesParser.fetch\lNumericExpr">
<polygon fill="white" stroke="black" points="403.5,-158 403.5,-188 582.5,-188 582.5,-158 403.5,-158"/>
<text text-anchor="start" x="411.5" y="-176" font-family="Helvetica,sans-Serif" font-size="10.00">configuration.DotimesParser.fetch</text>
<text text-anchor="middle" x="493" y="-165" font-family="Helvetica,sans-Serif" font-size="10.00">NumericExpr</text>
</a>
</g>
</g>
<!-- Node2&#45;&gt;Node12 -->
<g id="edge11" class="edge"><title>Node2&#45;&gt;Node12</title>
<path fill="none" stroke="midnightblue" d="M331.728,-210.22C360.356,-203.571 396.43,-195.194 427.101,-188.071"/>
<polygon fill="midnightblue" stroke="midnightblue" points="330.882,-206.823 321.933,-212.494 332.466,-213.641 330.882,-206.823"/>
</g>
<!-- Node15 -->
<g id="node15" class="node"><title>Node15</title>
<g id="a_node15"><a xlink:href="../../db/d22/classconfiguration_1_1_set_parser.html#a4f20258805caaf18872872d5283a0e74" target="_top" xlink:title="configuration.SetParser.parse">
<polygon fill="white" stroke="black" points="414,-81.5 414,-100.5 572,-100.5 572,-81.5 414,-81.5"/>
<text text-anchor="middle" x="493" y="-88.5" font-family="Helvetica,sans-Serif" font-size="10.00">configuration.SetParser.parse</text>
</a>
</g>
</g>
<!-- Node2&#45;&gt;Node15 -->
<g id="edge14" class="edge"><title>Node2&#45;&gt;Node15</title>
<path fill="none" stroke="midnightblue" d="M293.65,-203.975C312.451,-178.664 350.284,-133.106 394,-110 401.355,-106.113 409.397,-103.015 417.61,-100.548"/>
<polygon fill="midnightblue" stroke="midnightblue" points="290.647,-202.155 287.609,-212.305 296.314,-206.264 290.647,-202.155"/>
</g>
<!-- Node16 -->
<g id="node16" class="node"><title>Node16</title>
<g id="a_node16"><a xlink:href="../../d0/da7/classconfiguration_1_1_basic_parser.html#a22bf37b374167e497f639182e7459517" target="_top" xlink:title="configuration.BasicParser.parse">
<polygon fill="white" stroke="black" points="409.5,-43.5 409.5,-62.5 576.5,-62.5 576.5,-43.5 409.5,-43.5"/>
<text text-anchor="middle" x="493" y="-50.5" font-family="Helvetica,sans-Serif" font-size="10.00">configuration.BasicParser.parse</text>
</a>
</g>
</g>
<!-- Node2&#45;&gt;Node16 -->
<g id="edge15" class="edge"><title>Node2&#45;&gt;Node16</title>
<path fill="none" stroke="midnightblue" d="M289.531,-203.051C305.211,-170.56 341.849,-104.575 394,-72 400.174,-68.1438 406.959,-65.0416 413.99,-62.5496"/>
<polygon fill="midnightblue" stroke="midnightblue" points="286.253,-201.798 285.184,-212.339 292.593,-204.766 286.253,-201.798"/>
</g>
<!-- Node17 -->
<g id="node17" class="node"><title>Node17</title>
<g id="a_node17"><a xlink:href="../../d3/d0d/classconfiguration_1_1_repeat_parser.html#a27c7e86622dda996677d34987f702cb6" target="_top" xlink:title="configuration.RepeatParser.parseFor">
<polygon fill="white" stroke="black" points="398.5,-256.5 398.5,-275.5 587.5,-275.5 587.5,-256.5 398.5,-256.5"/>
<text text-anchor="middle" x="493" y="-263.5" font-family="Helvetica,sans-Serif" font-size="10.00">configuration.RepeatParser.parseFor</text>
</a>
</g>
</g>
<!-- Node2&#45;&gt;Node17 -->
<g id="edge16" class="edge"><title>Node2&#45;&gt;Node17</title>
<path fill="none" stroke="midnightblue" d="M335.565,-233.681C354.105,-237.625 374.948,-242.033 394,-246 410.49,-249.434 428.553,-253.137 444.631,-256.412"/>
<polygon fill="midnightblue" stroke="midnightblue" points="336.038,-230.203 325.529,-231.543 334.58,-237.049 336.038,-230.203"/>
</g>
<!-- Node19 -->
<g id="node19" class="node"><title>Node19</title>
<g id="a_node19"><a xlink:href="../../dc/d64/classconfiguration_1_1_for_parser.html#a6bc38f731ac658c5860fe092ba7689ac" target="_top" xlink:title="configuration.ForParser.parseFor">
<polygon fill="white" stroke="black" points="407.5,-5.5 407.5,-24.5 578.5,-24.5 578.5,-5.5 407.5,-5.5"/>
<text text-anchor="middle" x="493" y="-12.5" font-family="Helvetica,sans-Serif" font-size="10.00">configuration.ForParser.parseFor</text>
</a>
</g>
</g>
<!-- Node2&#45;&gt;Node19 -->
<g id="edge19" class="edge"><title>Node2&#45;&gt;Node19</title>
<path fill="none" stroke="midnightblue" d="M286.709,-202.68C299.23,-163.912 332.968,-76.7064 394,-34 399.396,-30.2243 405.349,-27.1509 411.575,-24.6545"/>
<polygon fill="midnightblue" stroke="midnightblue" points="283.36,-201.664 283.735,-212.252 290.044,-203.741 283.36,-201.664"/>
</g>
<!-- Node21 -->
<g id="node21" class="node"><title>Node21</title>
<g id="a_node21"><a xlink:href="../../d9/dfc/classconfiguration_1_1_dotimes_parser.html#aff41ee5ce2eeff82f7586bd1cf6a91c8" target="_top" xlink:title="configuration.DotimesParser.parseFor">
<polygon fill="white" stroke="black" points="394.5,-119.5 394.5,-138.5 591.5,-138.5 591.5,-119.5 394.5,-119.5"/>
<text text-anchor="middle" x="493" y="-126.5" font-family="Helvetica,sans-Serif" font-size="10.00">configuration.DotimesParser.parseFor</text>
</a>
</g>
</g>
<!-- Node2&#45;&gt;Node21 -->
<g id="edge21" class="edge"><title>Node2&#45;&gt;Node21</title>
<path fill="none" stroke="midnightblue" d="M300.346,-205.913C321.855,-188.881 358.289,-162.498 394,-148 403.554,-144.121 413.961,-141.019 424.309,-138.542"/>
<polygon fill="midnightblue" stroke="midnightblue" points="297.933,-203.363 292.347,-212.365 302.328,-208.812 297.933,-203.363"/>
</g>
<!-- Node23 -->
<g id="node23" class="node"><title>Node23</title>
<g id="a_node23"><a xlink:href="../../d7/d56/classconfiguration_1_1_ifelse_parser.html#aeb471eacbe15e095075bdd09619fe15d" target="_top" xlink:title="configuration.IfelseParser.parse\lListCommands">
<polygon fill="white" stroke="black" points="410,-382 410,-412 576,-412 576,-382 410,-382"/>
<text text-anchor="start" x="418" y="-400" font-family="Helvetica,sans-Serif" font-size="10.00">configuration.IfelseParser.parse</text>
<text text-anchor="middle" x="493" y="-389" font-family="Helvetica,sans-Serif" font-size="10.00">ListCommands</text>
</a>
</g>
</g>
<!-- Node2&#45;&gt;Node23 -->
<g id="edge24" class="edge"><title>Node2&#45;&gt;Node23</title>
<path fill="none" stroke="midnightblue" d="M289.964,-241.097C306.077,-273.271 343.065,-338.083 394,-372 399.846,-375.893 406.258,-379.179 412.916,-381.954"/>
<polygon fill="midnightblue" stroke="midnightblue" points="293,-239.337 285.475,-231.878 286.706,-242.401 293,-239.337"/>
</g>
<!-- Node5 -->
<g id="node5" class="node"><title>Node5</title>
<g id="a_node5"><a xlink:href="../../d7/d56/classconfiguration_1_1_ifelse_parser.html#a4b806589536dd338338d515a0fdb67ed" target="_top" xlink:title="configuration.IfelseParser.parse">
<polygon fill="white" stroke="black" points="636,-387.5 636,-406.5 802,-406.5 802,-387.5 636,-387.5"/>
<text text-anchor="middle" x="719" y="-394.5" font-family="Helvetica,sans-Serif" font-size="10.00">configuration.IfelseParser.parse</text>
</a>
</g>
</g>
<!-- Node4&#45;&gt;Node5 -->
<g id="edge4" class="edge"><title>Node4&#45;&gt;Node5</title>
<path fill="none" stroke="midnightblue" d="M570.422,-365.278C589.237,-369.486 609.34,-373.942 628,-378 642.356,-381.122 658.017,-384.454 672.192,-387.442"/>
<polygon fill="midnightblue" stroke="midnightblue" points="570.942,-361.808 560.419,-363.038 569.412,-368.639 570.942,-361.808"/>
</g>
<!-- Node6 -->
<g id="node6" class="node"><title>Node6</title>
<g id="a_node6"><a xlink:href="../../dc/dd1/classconfiguration_1_1_if_parser.html#ab4ed2d3b7778d2b1206e5d26ebac7976" target="_top" xlink:title="configuration.IfParser.parse">
<polygon fill="white" stroke="black" points="646,-349.5 646,-368.5 792,-368.5 792,-349.5 646,-349.5"/>
<text text-anchor="middle" x="719" y="-356.5" font-family="Helvetica,sans-Serif" font-size="10.00">configuration.IfParser.parse</text>
</a>
</g>
</g>
<!-- Node4&#45;&gt;Node6 -->
<g id="edge5" class="edge"><title>Node4&#45;&gt;Node6</title>
<path fill="none" stroke="midnightblue" d="M593.457,-352.884C611.027,-353.747 629.013,-354.63 645.658,-355.447"/>
<polygon fill="midnightblue" stroke="midnightblue" points="593.334,-349.374 583.174,-352.379 592.991,-356.365 593.334,-349.374"/>
</g>
<!-- Node7 -->
<g id="node7" class="node"><title>Node7</title>
<g id="a_node7"><a xlink:href="../../dc/dd1/classconfiguration_1_1_if_parser.html#a702326bd885126c4c3ad202676ddeff8" target="_top" xlink:title="configuration.IfParser.main">
<polygon fill="white" stroke="black" points="865.5,-349.5 865.5,-368.5 1008.5,-368.5 1008.5,-349.5 865.5,-349.5"/>
<text text-anchor="middle" x="937" y="-356.5" font-family="Helvetica,sans-Serif" font-size="10.00">configuration.IfParser.main</text>
</a>
</g>
</g>
<!-- Node6&#45;&gt;Node7 -->
<g id="edge6" class="edge"><title>Node6&#45;&gt;Node7</title>
<path fill="none" stroke="midnightblue" d="M802.296,-359C823.062,-359 845.173,-359 865.311,-359"/>
<polygon fill="midnightblue" stroke="midnightblue" points="802.225,-355.5 792.225,-359 802.225,-362.5 802.225,-355.5"/>
</g>
<!-- Node9 -->
<g id="node9" class="node"><title>Node9</title>
<g id="a_node9"><a xlink:href="../../d3/d0d/classconfiguration_1_1_repeat_parser.html#abf20b0ae25909c1cdff93f509830b502" target="_top" xlink:title="configuration.RepeatParser.parse">
<polygon fill="white" stroke="black" points="850,-280.5 850,-299.5 1024,-299.5 1024,-280.5 850,-280.5"/>
<text text-anchor="middle" x="937" y="-287.5" font-family="Helvetica,sans-Serif" font-size="10.00">configuration.RepeatParser.parse</text>
</a>
</g>
</g>
<!-- Node8&#45;&gt;Node9 -->
<g id="edge8" class="edge"><title>Node8&#45;&gt;Node9</title>
<path fill="none" stroke="midnightblue" d="M815.003,-304.004C827.873,-302.515 840.993,-300.996 853.617,-299.535"/>
<polygon fill="midnightblue" stroke="midnightblue" points="814.28,-300.564 804.749,-305.191 815.085,-307.518 814.28,-300.564"/>
</g>
<!-- Node11 -->
<g id="node11" class="node"><title>Node11</title>
<g id="a_node11"><a xlink:href="../../dc/d64/classconfiguration_1_1_for_parser.html#a2737b422e279cfca7c64fd8eff57d3ff" target="_top" xlink:title="configuration.ForParser.parse">
<polygon fill="white" stroke="black" points="641,-212.5 641,-231.5 797,-231.5 797,-212.5 641,-212.5"/>
<text text-anchor="middle" x="719" y="-219.5" font-family="Helvetica,sans-Serif" font-size="10.00">configuration.ForParser.parse</text>
</a>
</g>
</g>
<!-- Node10&#45;&gt;Node11 -->
<g id="edge10" class="edge"><title>Node10&#45;&gt;Node11</title>
<path fill="none" stroke="midnightblue" d="M579.622,-222C599.778,-222 621.141,-222 640.895,-222"/>
<polygon fill="midnightblue" stroke="midnightblue" points="579.524,-218.5 569.524,-222 579.524,-225.5 579.524,-218.5"/>
</g>
<!-- Node13 -->
<g id="node13" class="node"><title>Node13</title>
<g id="a_node13"><a xlink:href="../../d9/dfc/classconfiguration_1_1_dotimes_parser.html#a63d34c400b9b5715b4a2f9a5d0107e62" target="_top" xlink:title="configuration.DotimesParser.parse\lDotimesIterator">
<polygon fill="white" stroke="black" points="628,-160 628,-190 810,-190 810,-160 628,-160"/>
<text text-anchor="start" x="636" y="-178" font-family="Helvetica,sans-Serif" font-size="10.00">configuration.DotimesParser.parse</text>
<text text-anchor="middle" x="719" y="-167" font-family="Helvetica,sans-Serif" font-size="10.00">DotimesIterator</text>
</a>
</g>
</g>
<!-- Node12&#45;&gt;Node13 -->
<g id="edge12" class="edge"><title>Node12&#45;&gt;Node13</title>
<path fill="none" stroke="midnightblue" d="M592.748,-173.882C604.446,-173.986 616.34,-174.092 627.909,-174.196"/>
<polygon fill="midnightblue" stroke="midnightblue" points="592.562,-170.38 582.531,-173.79 592.499,-177.38 592.562,-170.38"/>
</g>
<!-- Node14 -->
<g id="node14" class="node"><title>Node14</title>
<g id="a_node14"><a xlink:href="../../d9/dfc/classconfiguration_1_1_dotimes_parser.html#abf0eb9bddfa4a09adc745008e17b293b" target="_top" xlink:title="configuration.DotimesParser.parse">
<polygon fill="white" stroke="black" points="846,-141.5 846,-160.5 1028,-160.5 1028,-141.5 846,-141.5"/>
<text text-anchor="middle" x="937" y="-148.5" font-family="Helvetica,sans-Serif" font-size="10.00">configuration.DotimesParser.parse</text>
</a>
</g>
</g>
<!-- Node13&#45;&gt;Node14 -->
<g id="edge13" class="edge"><title>Node13&#45;&gt;Node14</title>
<path fill="none" stroke="midnightblue" d="M820.081,-163.88C830.166,-162.759 840.344,-161.628 850.26,-160.527"/>
<polygon fill="midnightblue" stroke="midnightblue" points="819.592,-160.413 810.039,-164.996 820.365,-167.37 819.592,-160.413"/>
</g>
<!-- Node18 -->
<g id="node18" class="node"><title>Node18</title>
<g id="a_node18"><a xlink:href="../../d3/d0d/classconfiguration_1_1_repeat_parser.html#aed07d335bcd1174cb4247a7add0d3315" target="_top" xlink:title="configuration.RepeatParser.parse\lCommands">
<polygon fill="white" stroke="black" points="632,-251 632,-281 806,-281 806,-251 632,-251"/>
<text text-anchor="start" x="640" y="-269" font-family="Helvetica,sans-Serif" font-size="10.00">configuration.RepeatParser.parse</text>
<text text-anchor="middle" x="719" y="-258" font-family="Helvetica,sans-Serif" font-size="10.00">Commands</text>
</a>
</g>
</g>
<!-- Node17&#45;&gt;Node18 -->
<g id="edge17" class="edge"><title>Node17&#45;&gt;Node18</title>
<path fill="none" stroke="midnightblue" d="M598.039,-266C609.348,-266 620.765,-266 631.826,-266"/>
<polygon fill="midnightblue" stroke="midnightblue" points="597.698,-262.5 587.698,-266 597.698,-269.5 597.698,-262.5"/>
</g>
<!-- Node18&#45;&gt;Node9 -->
<g id="edge18" class="edge"><title>Node18&#45;&gt;Node9</title>
<path fill="none" stroke="midnightblue" d="M816.538,-276.726C827.752,-277.972 839.133,-279.237 850.189,-280.465"/>
<polygon fill="midnightblue" stroke="midnightblue" points="816.626,-273.215 806.3,-275.589 815.852,-280.172 816.626,-273.215"/>
</g>
<!-- Node20 -->
<g id="node20" class="node"><title>Node20</title>
<g id="a_node20"><a xlink:href="../../dc/d64/classconfiguration_1_1_for_parser.html#ad3cb5184cf449bd3414f3ba73a8b3104" target="_top" xlink:title="configuration.ForParser.parse\lCommands">
<polygon fill="white" stroke="black" points="641,-0 641,-30 797,-30 797,-0 641,-0"/>
<text text-anchor="start" x="649" y="-18" font-family="Helvetica,sans-Serif" font-size="10.00">configuration.ForParser.parse</text>
<text text-anchor="middle" x="719" y="-7" font-family="Helvetica,sans-Serif" font-size="10.00">Commands</text>
</a>
</g>
</g>
<!-- Node19&#45;&gt;Node20 -->
<g id="edge20" class="edge"><title>Node19&#45;&gt;Node20</title>
<path fill="none" stroke="midnightblue" d="M588.838,-15C606.214,-15 624.155,-15 640.934,-15"/>
<polygon fill="midnightblue" stroke="midnightblue" points="588.685,-11.5001 578.685,-15 588.685,-18.5001 588.685,-11.5001"/>
</g>
<!-- Node22 -->
<g id="node22" class="node"><title>Node22</title>
<g id="a_node22"><a xlink:href="../../d9/dfc/classconfiguration_1_1_dotimes_parser.html#a6086c4c4651b29dd968bf4728bd71d0c" target="_top" xlink:title="configuration.DotimesParser.parse\lCommands">
<polygon fill="white" stroke="black" points="628,-111 628,-141 810,-141 810,-111 628,-111"/>
<text text-anchor="start" x="636" y="-129" font-family="Helvetica,sans-Serif" font-size="10.00">configuration.DotimesParser.parse</text>
<text text-anchor="middle" x="719" y="-118" font-family="Helvetica,sans-Serif" font-size="10.00">Commands</text>
</a>
</g>
</g>
<!-- Node21&#45;&gt;Node22 -->
<g id="edge22" class="edge"><title>Node21&#45;&gt;Node22</title>
<path fill="none" stroke="midnightblue" d="M601.785,-127.556C610.488,-127.44 619.224,-127.323 627.783,-127.208"/>
<polygon fill="midnightblue" stroke="midnightblue" points="601.55,-124.059 591.598,-127.693 601.644,-131.059 601.55,-124.059"/>
</g>
<!-- Node22&#45;&gt;Node14 -->
<g id="edge23" class="edge"><title>Node22&#45;&gt;Node14</title>
<path fill="none" stroke="midnightblue" d="M820.272,-137.606C831.464,-138.901 842.767,-140.209 853.698,-141.474"/>
<polygon fill="midnightblue" stroke="midnightblue" points="820.375,-134.094 810.039,-136.421 819.571,-141.048 820.375,-134.094"/>
</g>
<!-- Node23&#45;&gt;Node5 -->
<g id="edge25" class="edge"><title>Node23&#45;&gt;Node5</title>
<path fill="none" stroke="midnightblue" d="M586.283,-397C602.72,-397 619.742,-397 635.873,-397"/>
<polygon fill="midnightblue" stroke="midnightblue" points="586.137,-393.5 576.137,-397 586.137,-400.5 586.137,-393.5"/>
</g>
<!-- Node23&#45;&gt;Node6 -->
<g id="edge26" class="edge"><title>Node23&#45;&gt;Node6</title>
<path fill="none" stroke="midnightblue" d="M586.247,-381.351C611.856,-377.007 638.887,-372.421 661.755,-368.541"/>
<polygon fill="midnightblue" stroke="midnightblue" points="585.411,-377.943 576.137,-383.066 586.582,-384.844 585.411,-377.943"/>
</g>
</g>
</svg>
        <g id="navigator" transform="translate(0 0)" fill="#404254">
                <rect fill="#f2f5e9" fill-opacity="0.5" stroke="#606060" stroke-width=".5" x="0" y="0" width="60" height="60"/>
                <use id="zoomplus" xlink:href="#zoomPlus" x="17" y="9" onmousedown="handleZoom(evt,'in')"/>
                <use id="zoomminus" xlink:href="#zoomMin" x="42" y="9" onmousedown="handleZoom(evt,'out')"/>
                <use id="reset" xlink:href="#resetDef" x="30" y="36" onmousedown="handleReset()"/>
                <g id="arrowUp" xlink:href="#dirArrow" transform="translate(30 24)" onmousedown="handlePan(0,-1)">
                  <use xlink:href="#rim" fill="#404040">
                        <set attributeName="fill" to="#808080" begin="arrowUp.mouseover" end="arrowUp.mouseout"/>
                  </use>
                  <path fill="none" stroke="white" stroke-width="1.5" d="M0,-3.0v7 M-2.5,-0.5L0,-3.0L2.5,-0.5"/>
                </g>
                <g id="arrowRight" xlink:href="#dirArrow" transform="rotate(90) translate(36 -43)" onmousedown="handlePan(1,0)">
                  <use xlink:href="#rim" fill="#404040">
                        <set attributeName="fill" to="#808080" begin="arrowRight.mouseover" end="arrowRight.mouseout"/>
                  </use>
                  <path fill="none" stroke="white" stroke-width="1.5" d="M0,-3.0v7 M-2.5,-0.5L0,-3.0L2.5,-0.5"/>
                </g>
                <g id="arrowDown" xlink:href="#dirArrow" transform="rotate(180) translate(-30 -48)" onmousedown="handlePan(0,1)">
                  <use xlink:href="#rim" fill="#404040">
                        <set attributeName="fill" to="#808080" begin="arrowDown.mouseover" end="arrowDown.mouseout"/>
                  </use>
                  <path fill="none" stroke="white" stroke-width="1.5" d="M0,-3.0v7 M-2.5,-0.5L0,-3.0L2.5,-0.5"/>
                </g>
                <g id="arrowLeft" xlink:href="#dirArrow" transform="rotate(270) translate(-36 17)" onmousedown="handlePan(-1,0)">
                  <use xlink:href="#rim" fill="#404040">
                        <set attributeName="fill" to="#808080" begin="arrowLeft.mouseover" end="arrowLeft.mouseout"/>
                  </use>
                  <path fill="none" stroke="white" stroke-width="1.5" d="M0,-3.0v7 M-2.5,-0.5L0,-3.0L2.5,-0.5"/>
                </g>
        </g>
        <svg viewBox="0 0 15 15" width="100%" height="30px" preserveAspectRatio="xMaxYMin meet">
         <g id="arrow_out" transform="scale(0.3 0.3)">
          <a xlink:href="classconfiguration_1_1_parser_af0032734232f2e6043d7c8c94d86dd1f_icgraph_org.svg" target="_base">
           <rect id="button" ry="5" rx="5" y="6" x="6" height="38" width="38"
                fill="#f2f5e9" fill-opacity="0.5" stroke="#606060" stroke-width="1.0"/>
           <path id="arrow"
             d="M 11.500037,31.436501 C 11.940474,20.09759 22.043105,11.32322 32.158766,21.979434 L 37.068811,17.246167 C 37.068811,17.246167 37.088388,32 37.088388,32 L 22.160133,31.978069 C 22.160133,31.978069 26.997745,27.140456 26.997745,27.140456 C 18.528582,18.264221 13.291696,25.230495 11.500037,31.436501 z"
             style="fill:#404040;"/>
          </a>
         </g>
        </svg>
</svg>
