<?xml version="1.0" encoding="UTF-8" standalone="no"?>
<!DOCTYPE svg PUBLIC "-//W3C//DTD SVG 1.1//EN"
 "http://www.w3.org/Graphics/SVG/1.1/DTD/svg11.dtd">
<!-- Generated by graphviz version 2.36.0 (20140111.2315)
 -->
<!-- Title: configuration.Parser.isListEnd Pages: 1 -->
<svg width="834pt" height="361pt"
 viewBox="0.00 0.00 834.00 361.24" xmlns="http://www.w3.org/2000/svg" xmlns:xlink="http://www.w3.org/1999/xlink">
<g id="graph0" class="graph" transform="scale(1 1) rotate(0) translate(4 357.24)">
<title>configuration.Parser.isListEnd</title>
<polygon fill="white" stroke="none" points="-4,4 -4,-357.24 830,-357.24 830,4 -4,4"/>
<!-- Node1 -->
<g id="node1" class="node"><title>Node1</title>
<polygon fill="#bfbfbf" stroke="black" points="0,-164.5 0,-183.5 156,-183.5 156,-164.5 0,-164.5"/>
<text text-anchor="middle" x="78" y="-171.5" font-family="Helvetica,sans-Serif" font-size="10.00">configuration.Parser.isListEnd</text>
</g>
<!-- Node2 -->
<g id="node2" class="node"><title>Node2</title>
<g id="a_node2"><a xlink:href="../../d7/d56/classconfiguration_1_1_ifelse_parser.html#a4b806589536dd338338d515a0fdb67ed" target="_top" xlink:title="configuration.IfelseParser.parse">
<polygon fill="white" stroke="black" points="434,-325.5 434,-344.5 600,-344.5 600,-325.5 434,-325.5"/>
<text text-anchor="middle" x="517" y="-332.5" font-family="Helvetica,sans-Serif" font-size="10.00">configuration.IfelseParser.parse</text>
</a>
</g>
</g>
<!-- Node1&#45;&gt;Node2 -->
<g id="edge1" class="edge"><title>Node1&#45;&gt;Node2</title>
<path fill="none" stroke="midnightblue" d="M87.3154,-192.951C102.664,-225.307 138.812,-290.382 192,-318 279.732,-363.555 399.447,-354.64 466.061,-344.528"/>
<polygon fill="midnightblue" stroke="midnightblue" points="90.4163,-191.316 83.0676,-183.684 84.053,-194.233 90.4163,-191.316"/>
</g>
<!-- Node3 -->
<g id="node3" class="node"><title>Node3</title>
<g id="a_node3"><a xlink:href="../../dc/d64/classconfiguration_1_1_for_parser.html#a2737b422e279cfca7c64fd8eff57d3ff" target="_top" xlink:title="configuration.ForParser.parse">
<polygon fill="white" stroke="black" points="213,-240.5 213,-259.5 369,-259.5 369,-240.5 213,-240.5"/>
<text text-anchor="middle" x="291" y="-247.5" font-family="Helvetica,sans-Serif" font-size="10.00">configuration.ForParser.parse</text>
</a>
</g>
</g>
<!-- Node1&#45;&gt;Node3 -->
<g id="edge2" class="edge"><title>Node1&#45;&gt;Node3</title>
<path fill="none" stroke="midnightblue" d="M105.911,-188.161C128.435,-199.576 161.67,-215.417 192,-226 208.373,-231.713 226.739,-236.597 243.107,-240.438"/>
<polygon fill="midnightblue" stroke="midnightblue" points="107.449,-185.016 96.9539,-183.567 104.255,-191.245 107.449,-185.016"/>
</g>
<!-- Node4 -->
<g id="node4" class="node"><title>Node4</title>
<g id="a_node4"><a xlink:href="../../d9/dfc/classconfiguration_1_1_dotimes_parser.html#a6086c4c4651b29dd968bf4728bd71d0c" target="_top" xlink:title="configuration.DotimesParser.parse\lCommands">
<polygon fill="white" stroke="black" points="426,-170 426,-200 608,-200 608,-170 426,-170"/>
<text text-anchor="start" x="434" y="-188" font-family="Helvetica,sans-Serif" font-size="10.00">configuration.DotimesParser.parse</text>
<text text-anchor="middle" x="517" y="-177" font-family="Helvetica,sans-Serif" font-size="10.00">Commands</text>
</a>
</g>
</g>
<!-- Node1&#45;&gt;Node4 -->
<g id="edge3" class="edge"><title>Node1&#45;&gt;Node4</title>
<path fill="none" stroke="midnightblue" d="M134.807,-185.277C152.965,-188.438 173.266,-191.436 192,-193 270.781,-199.577 360.681,-196.525 425.764,-192.432"/>
<polygon fill="midnightblue" stroke="midnightblue" points="135.423,-181.832 124.963,-183.512 134.188,-188.722 135.423,-181.832"/>
</g>
<!-- Node6 -->
<g id="node6" class="node"><title>Node6</title>
<g id="a_node6"><a xlink:href="../../d3/d0d/classconfiguration_1_1_repeat_parser.html#aed07d335bcd1174cb4247a7add0d3315" target="_top" xlink:title="configuration.RepeatParser.parse\lCommands">
<polygon fill="white" stroke="black" points="204,-77 204,-107 378,-107 378,-77 204,-77"/>
<text text-anchor="start" x="212" y="-95" font-family="Helvetica,sans-Serif" font-size="10.00">configuration.RepeatParser.parse</text>
<text text-anchor="middle" x="291" y="-84" font-family="Helvetica,sans-Serif" font-size="10.00">Commands</text>
</a>
</g>
</g>
<!-- Node1&#45;&gt;Node6 -->
<g id="edge5" class="edge"><title>Node1&#45;&gt;Node6</title>
<path fill="none" stroke="midnightblue" d="M106.879,-159.896C129.48,-148.774 162.336,-133.307 192,-122 206.132,-116.613 221.684,-111.496 236.154,-107.064"/>
<polygon fill="midnightblue" stroke="midnightblue" points="105.262,-156.791 97.86,-164.372 108.374,-163.062 105.262,-156.791"/>
</g>
<!-- Node8 -->
<g id="node8" class="node"><title>Node8</title>
<g id="a_node8"><a xlink:href="../../dc/d64/classconfiguration_1_1_for_parser.html#ad3cb5184cf449bd3414f3ba73a8b3104" target="_top" xlink:title="configuration.ForParser.parse\lCommands">
<polygon fill="white" stroke="black" points="439,-14 439,-44 595,-44 595,-14 439,-14"/>
<text text-anchor="start" x="447" y="-32" font-family="Helvetica,sans-Serif" font-size="10.00">configuration.ForParser.parse</text>
<text text-anchor="middle" x="517" y="-21" font-family="Helvetica,sans-Serif" font-size="10.00">Commands</text>
</a>
</g>
</g>
<!-- Node1&#45;&gt;Node8 -->
<g id="edge7" class="edge"><title>Node1&#45;&gt;Node8</title>
<path fill="none" stroke="midnightblue" d="M91.6246,-156.349C110.394,-131.645 148.188,-87.4888 192,-67 234.389,-47.1765 357.057,-37.1116 438.701,-32.4669"/>
<polygon fill="midnightblue" stroke="midnightblue" points="88.7338,-154.372 85.5946,-164.491 94.359,-158.538 88.7338,-154.372"/>
</g>
<!-- Node9 -->
<g id="node9" class="node"><title>Node9</title>
<g id="a_node9"><a xlink:href="../../d9/dfc/classconfiguration_1_1_dotimes_parser.html#a63d34c400b9b5715b4a2f9a5d0107e62" target="_top" xlink:title="configuration.DotimesParser.parse\lDotimesIterator">
<polygon fill="white" stroke="black" points="426,-121 426,-151 608,-151 608,-121 426,-121"/>
<text text-anchor="start" x="434" y="-139" font-family="Helvetica,sans-Serif" font-size="10.00">configuration.DotimesParser.parse</text>
<text text-anchor="middle" x="517" y="-128" font-family="Helvetica,sans-Serif" font-size="10.00">DotimesIterator</text>
</a>
</g>
</g>
<!-- Node1&#45;&gt;Node9 -->
<g id="edge8" class="edge"><title>Node1&#45;&gt;Node9</title>
<path fill="none" stroke="midnightblue" d="M138.536,-162.752C155.734,-159.839 174.567,-156.971 192,-155 270.666,-146.106 360.576,-141.252 425.694,-138.682"/>
<polygon fill="midnightblue" stroke="midnightblue" points="137.879,-159.313 128.621,-164.466 139.071,-166.211 137.879,-159.313"/>
</g>
<!-- Node10 -->
<g id="node10" class="node"><title>Node10</title>
<g id="a_node10"><a xlink:href="../../dc/d64/classconfiguration_1_1_for_parser.html#a6bc38f731ac658c5860fe092ba7689ac" target="_top" xlink:title="configuration.ForParser.parseFor">
<polygon fill="white" stroke="black" points="205.5,-0.5 205.5,-19.5 376.5,-19.5 376.5,-0.5 205.5,-0.5"/>
<text text-anchor="middle" x="291" y="-7.5" font-family="Helvetica,sans-Serif" font-size="10.00">configuration.ForParser.parseFor</text>
</a>
</g>
</g>
<!-- Node1&#45;&gt;Node10 -->
<g id="edge10" class="edge"><title>Node1&#45;&gt;Node10</title>
<path fill="none" stroke="midnightblue" d="M88.7327,-155.298C105.539,-124.926 142.967,-65.1485 192,-34 201.98,-27.66 213.511,-22.9948 225.08,-19.5619"/>
<polygon fill="midnightblue" stroke="midnightblue" points="85.4979,-153.923 83.8366,-164.387 91.6606,-157.243 85.4979,-153.923"/>
</g>
<!-- Node11 -->
<g id="node11" class="node"><title>Node11</title>
<g id="a_node11"><a xlink:href="../../d9/dfc/classconfiguration_1_1_dotimes_parser.html#aff41ee5ce2eeff82f7586bd1cf6a91c8" target="_top" xlink:title="configuration.DotimesParser.parseFor">
<polygon fill="white" stroke="black" points="192.5,-164.5 192.5,-183.5 389.5,-183.5 389.5,-164.5 192.5,-164.5"/>
<text text-anchor="middle" x="291" y="-171.5" font-family="Helvetica,sans-Serif" font-size="10.00">configuration.DotimesParser.parseFor</text>
</a>
</g>
</g>
<!-- Node1&#45;&gt;Node11 -->
<g id="edge12" class="edge"><title>Node1&#45;&gt;Node11</title>
<path fill="none" stroke="midnightblue" d="M166.111,-174C174.742,-174 183.542,-174 192.271,-174"/>
<polygon fill="midnightblue" stroke="midnightblue" points="166.072,-170.5 156.071,-174 166.071,-177.5 166.072,-170.5"/>
</g>
<!-- Node12 -->
<g id="node12" class="node"><title>Node12</title>
<g id="a_node12"><a xlink:href="../../d7/d56/classconfiguration_1_1_ifelse_parser.html#aeb471eacbe15e095075bdd09619fe15d" target="_top" xlink:title="configuration.IfelseParser.parse\lListCommands">
<polygon fill="white" stroke="black" points="208,-279 208,-309 374,-309 374,-279 208,-279"/>
<text text-anchor="start" x="216" y="-297" font-family="Helvetica,sans-Serif" font-size="10.00">configuration.IfelseParser.parse</text>
<text text-anchor="middle" x="291" y="-286" font-family="Helvetica,sans-Serif" font-size="10.00">ListCommands</text>
</a>
</g>
</g>
<!-- Node1&#45;&gt;Node12 -->
<g id="edge14" class="edge"><title>Node1&#45;&gt;Node12</title>
<path fill="none" stroke="midnightblue" d="M94.5259,-191.129C114.858,-212.519 152.578,-248.755 192,-269 199.497,-272.85 207.629,-276.136 215.892,-278.932"/>
<polygon fill="midnightblue" stroke="midnightblue" points="96.9978,-188.648 87.6174,-183.722 91.8789,-193.422 96.9978,-188.648"/>
</g>
<!-- Node5 -->
<g id="node5" class="node"><title>Node5</title>
<g id="a_node5"><a xlink:href="../../d9/dfc/classconfiguration_1_1_dotimes_parser.html#abf0eb9bddfa4a09adc745008e17b293b" target="_top" xlink:title="configuration.DotimesParser.parse">
<polygon fill="white" stroke="black" points="644,-151.5 644,-170.5 826,-170.5 826,-151.5 644,-151.5"/>
<text text-anchor="middle" x="735" y="-158.5" font-family="Helvetica,sans-Serif" font-size="10.00">configuration.DotimesParser.parse</text>
</a>
</g>
</g>
<!-- Node4&#45;&gt;Node5 -->
<g id="edge4" class="edge"><title>Node4&#45;&gt;Node5</title>
<path fill="none" stroke="midnightblue" d="M618.081,-173.88C628.166,-172.759 638.344,-171.628 648.26,-170.527"/>
<polygon fill="midnightblue" stroke="midnightblue" points="617.592,-170.413 608.039,-174.996 618.365,-177.37 617.592,-170.413"/>
</g>
<!-- Node7 -->
<g id="node7" class="node"><title>Node7</title>
<g id="a_node7"><a xlink:href="../../d3/d0d/classconfiguration_1_1_repeat_parser.html#abf20b0ae25909c1cdff93f509830b502" target="_top" xlink:title="configuration.RepeatParser.parse">
<polygon fill="white" stroke="black" points="430,-82.5 430,-101.5 604,-101.5 604,-82.5 430,-82.5"/>
<text text-anchor="middle" x="517" y="-89.5" font-family="Helvetica,sans-Serif" font-size="10.00">configuration.RepeatParser.parse</text>
</a>
</g>
</g>
<!-- Node6&#45;&gt;Node7 -->
<g id="edge6" class="edge"><title>Node6&#45;&gt;Node7</title>
<path fill="none" stroke="midnightblue" d="M388.661,-92C402.329,-92 416.307,-92 429.761,-92"/>
<polygon fill="midnightblue" stroke="midnightblue" points="388.284,-88.5001 378.284,-92 388.284,-95.5001 388.284,-88.5001"/>
</g>
<!-- Node9&#45;&gt;Node5 -->
<g id="edge9" class="edge"><title>Node9&#45;&gt;Node5</title>
<path fill="none" stroke="midnightblue" d="M618.272,-147.606C629.464,-148.901 640.767,-150.209 651.698,-151.474"/>
<polygon fill="midnightblue" stroke="midnightblue" points="618.375,-144.094 608.039,-146.421 617.571,-151.048 618.375,-144.094"/>
</g>
<!-- Node10&#45;&gt;Node8 -->
<g id="edge11" class="edge"><title>Node10&#45;&gt;Node8</title>
<path fill="none" stroke="midnightblue" d="M386.838,-18.0443C404.214,-19.5182 422.155,-21.04 438.934,-22.4631"/>
<polygon fill="midnightblue" stroke="midnightblue" points="386.945,-14.5409 376.685,-17.1831 386.353,-21.5158 386.945,-14.5409"/>
</g>
<!-- Node11&#45;&gt;Node4 -->
<g id="edge13" class="edge"><title>Node11&#45;&gt;Node4</title>
<path fill="none" stroke="midnightblue" d="M399.785,-179.293C408.488,-179.72 417.224,-180.149 425.783,-180.57"/>
<polygon fill="midnightblue" stroke="midnightblue" points="399.758,-175.788 389.598,-178.793 399.414,-182.779 399.758,-175.788"/>
</g>
<!-- Node12&#45;&gt;Node2 -->
<g id="edge15" class="edge"><title>Node12&#45;&gt;Node2</title>
<path fill="none" stroke="midnightblue" d="M384.068,-310.852C411.256,-315.828 440.063,-321.101 463.8,-325.446"/>
<polygon fill="midnightblue" stroke="midnightblue" points="384.604,-307.392 374.137,-309.034 383.344,-314.277 384.604,-307.392"/>
</g>
<!-- Node13 -->
<g id="node13" class="node"><title>Node13</title>
<g id="a_node13"><a xlink:href="../../dc/dd1/classconfiguration_1_1_if_parser.html#ab4ed2d3b7778d2b1206e5d26ebac7976" target="_top" xlink:title="configuration.IfParser.parse">
<polygon fill="white" stroke="black" points="444,-284.5 444,-303.5 590,-303.5 590,-284.5 444,-284.5"/>
<text text-anchor="middle" x="517" y="-291.5" font-family="Helvetica,sans-Serif" font-size="10.00">configuration.IfParser.parse</text>
</a>
</g>
</g>
<!-- Node12&#45;&gt;Node13 -->
<g id="edge16" class="edge"><title>Node12&#45;&gt;Node13</title>
<path fill="none" stroke="midnightblue" d="M384.144,-294C404.059,-294 424.839,-294 443.856,-294"/>
<polygon fill="midnightblue" stroke="midnightblue" points="384.137,-290.5 374.137,-294 384.137,-297.5 384.137,-290.5"/>
</g>
<!-- Node14 -->
<g id="node14" class="node"><title>Node14</title>
<g id="a_node14"><a xlink:href="../../dc/dd1/classconfiguration_1_1_if_parser.html#a702326bd885126c4c3ad202676ddeff8" target="_top" xlink:title="configuration.IfParser.main">
<polygon fill="white" stroke="black" points="663.5,-284.5 663.5,-303.5 806.5,-303.5 806.5,-284.5 663.5,-284.5"/>
<text text-anchor="middle" x="735" y="-291.5" font-family="Helvetica,sans-Serif" font-size="10.00">configuration.IfParser.main</text>
</a>
</g>
</g>
<!-- Node13&#45;&gt;Node14 -->
<g id="edge17" class="edge"><title>Node13&#45;&gt;Node14</title>
<path fill="none" stroke="midnightblue" d="M600.296,-294C621.062,-294 643.173,-294 663.311,-294"/>
<polygon fill="midnightblue" stroke="midnightblue" points="600.225,-290.5 590.225,-294 600.225,-297.5 600.225,-290.5"/>
</g>
</g>
</svg>
