<?xml version="1.0" encoding="UTF-8" standalone="no"?>
<!DOCTYPE svg PUBLIC "-//W3C//DTD SVG 1.1//EN"
 "http://www.w3.org/Graphics/SVG/1.1/DTD/svg11.dtd">
<!-- Generated by graphviz version 2.36.0 (20140111.2315)
 -->
<!-- Title: configuration.Parser.skip Pages: 1 -->
<svg width="812pt" height="498pt"
 viewBox="0.00 0.00 812.00 498.00" xmlns="http://www.w3.org/2000/svg" xmlns:xlink="http://www.w3.org/1999/xlink">
<g id="graph0" class="graph" transform="scale(1 1) rotate(0) translate(4 494)">
<title>configuration.Parser.skip</title>
<polygon fill="white" stroke="none" points="-4,4 -4,-494 808,-494 808,4 -4,4"/>
<!-- Node1 -->
<g id="node1" class="node"><title>Node1</title>
<polygon fill="#bfbfbf" stroke="black" points="0.5,-261.5 0.5,-280.5 133.5,-280.5 133.5,-261.5 0.5,-261.5"/>
<text text-anchor="middle" x="67" y="-268.5" font-family="Helvetica,sans-Serif" font-size="10.00">configuration.Parser.skip</text>
</g>
<!-- Node2 -->
<g id="node2" class="node"><title>Node2</title>
<g id="a_node2"><a xlink:href="../../d7/d56/classconfiguration_1_1_ifelse_parser.html#a608612d46f8239cbf096bbcffd0d4119" target="_top" xlink:title="configuration.IfelseParser.parse">
<polygon fill="white" stroke="black" points="186,-470.5 186,-489.5 352,-489.5 352,-470.5 186,-470.5"/>
<text text-anchor="middle" x="269" y="-477.5" font-family="Helvetica,sans-Serif" font-size="10.00">configuration.IfelseParser.parse</text>
</a>
</g>
</g>
<!-- Node1&#45;&gt;Node2 -->
<g id="edge1" class="edge"><title>Node1&#45;&gt;Node2</title>
<path fill="none" stroke="midnightblue" d="M72.5713,-290.732C82.7484,-329.955 111.159,-417.663 170,-461 175.163,-464.803 180.881,-467.903 186.885,-470.425"/>
<polygon fill="midnightblue" stroke="midnightblue" points="75.921,-289.697 70.1264,-280.828 69.125,-291.375 75.921,-289.697"/>
</g>
<!-- Node3 -->
<g id="node3" class="node"><title>Node3</title>
<g id="a_node3"><a xlink:href="../../d3/d0d/classconfiguration_1_1_repeat_parser.html#a7785a2e509d96ff2ad5504e7a781d1d2" target="_top" xlink:title="configuration.RepeatParser.parse">
<polygon fill="white" stroke="black" points="182,-432.5 182,-451.5 356,-451.5 356,-432.5 182,-432.5"/>
<text text-anchor="middle" x="269" y="-439.5" font-family="Helvetica,sans-Serif" font-size="10.00">configuration.RepeatParser.parse</text>
</a>
</g>
</g>
<!-- Node1&#45;&gt;Node3 -->
<g id="edge2" class="edge"><title>Node1&#45;&gt;Node3</title>
<path fill="none" stroke="midnightblue" d="M75.1032,-290.177C88.3411,-323.064 120.054,-389.873 170,-423 175.777,-426.832 182.141,-429.93 188.768,-432.43"/>
<polygon fill="midnightblue" stroke="midnightblue" points="78.336,-288.833 71.4546,-280.777 71.8103,-291.366 78.336,-288.833"/>
</g>
<!-- Node5 -->
<g id="node5" class="node"><title>Node5</title>
<g id="a_node5"><a xlink:href="../../dc/d64/classconfiguration_1_1_for_parser.html#a57f9ebf60e25c370f7ca73c0862f387a" target="_top" xlink:title="configuration.ForParser.parse">
<polygon fill="white" stroke="black" points="191,-394.5 191,-413.5 347,-413.5 347,-394.5 191,-394.5"/>
<text text-anchor="middle" x="269" y="-401.5" font-family="Helvetica,sans-Serif" font-size="10.00">configuration.ForParser.parse</text>
</a>
</g>
</g>
<!-- Node1&#45;&gt;Node5 -->
<g id="edge4" class="edge"><title>Node1&#45;&gt;Node5</title>
<path fill="none" stroke="midnightblue" d="M78.8794,-289.317C95.217,-315.089 128.629,-361.521 170,-385 176.858,-388.892 184.374,-392.001 192.097,-394.482"/>
<polygon fill="midnightblue" stroke="midnightblue" points="81.6984,-287.22 73.4729,-280.543 75.7388,-290.893 81.6984,-287.22"/>
</g>
<!-- Node7 -->
<g id="node7" class="node"><title>Node7</title>
<g id="a_node7"><a xlink:href="../../d9/dfc/classconfiguration_1_1_dotimes_parser.html#ad7321bee5b452f826f1ec05a89d100b6" target="_top" xlink:title="configuration.DotimesParser.parse">
<polygon fill="white" stroke="black" points="178,-356.5 178,-375.5 360,-375.5 360,-356.5 178,-356.5"/>
<text text-anchor="middle" x="269" y="-363.5" font-family="Helvetica,sans-Serif" font-size="10.00">configuration.DotimesParser.parse</text>
</a>
</g>
</g>
<!-- Node1&#45;&gt;Node7 -->
<g id="edge6" class="edge"><title>Node1&#45;&gt;Node7</title>
<path fill="none" stroke="midnightblue" d="M85.0414,-287.561C104.129,-305.127 136.77,-332.322 170,-347 178.798,-350.886 188.388,-353.981 198.012,-356.443"/>
<polygon fill="midnightblue" stroke="midnightblue" points="87.412,-284.986 77.7284,-280.688 82.6177,-290.087 87.412,-284.986"/>
</g>
<!-- Node9 -->
<g id="node9" class="node"><title>Node9</title>
<g id="a_node9"><a xlink:href="../../db/d22/classconfiguration_1_1_set_parser.html#aef4ad6dce7a472c79efa57ffd1647b95" target="_top" xlink:title="configuration.SetParser.parse">
<polygon fill="white" stroke="black" points="190,-318.5 190,-337.5 348,-337.5 348,-318.5 190,-318.5"/>
<text text-anchor="middle" x="269" y="-325.5" font-family="Helvetica,sans-Serif" font-size="10.00">configuration.SetParser.parse</text>
</a>
</g>
</g>
<!-- Node1&#45;&gt;Node9 -->
<g id="edge8" class="edge"><title>Node1&#45;&gt;Node9</title>
<path fill="none" stroke="midnightblue" d="M105.142,-283.735C124.394,-290.153 148.349,-297.855 170,-304 188.199,-309.165 208.485,-314.244 225.857,-318.389"/>
<polygon fill="midnightblue" stroke="midnightblue" points="106.135,-280.376 95.5406,-280.511 103.906,-287.012 106.135,-280.376"/>
</g>
<!-- Node11 -->
<g id="node11" class="node"><title>Node11</title>
<g id="a_node11"><a xlink:href="../../d9/dfc/classconfiguration_1_1_dotimes_parser.html#a6086c4c4651b29dd968bf4728bd71d0c" target="_top" xlink:title="configuration.DotimesParser.parse\lCommands">
<polygon fill="white" stroke="black" points="404,-237 404,-267 586,-267 586,-237 404,-237"/>
<text text-anchor="start" x="412" y="-255" font-family="Helvetica,sans-Serif" font-size="10.00">configuration.DotimesParser.parse</text>
<text text-anchor="middle" x="495" y="-244" font-family="Helvetica,sans-Serif" font-size="10.00">Commands</text>
</a>
</g>
</g>
<!-- Node1&#45;&gt;Node11 -->
<g id="edge10" class="edge"><title>Node1&#45;&gt;Node11</title>
<path fill="none" stroke="midnightblue" d="M143.915,-274.13C204.634,-275.88 291.899,-276.706 368,-271 380.244,-270.082 393.1,-268.669 405.729,-267.019"/>
<polygon fill="midnightblue" stroke="midnightblue" points="143.753,-270.624 133.651,-273.818 143.54,-277.621 143.753,-270.624"/>
</g>
<!-- Node13 -->
<g id="node13" class="node"><title>Node13</title>
<g id="a_node13"><a xlink:href="../../d3/d0d/classconfiguration_1_1_repeat_parser.html#aed07d335bcd1174cb4247a7add0d3315" target="_top" xlink:title="configuration.RepeatParser.parse\lCommands">
<polygon fill="white" stroke="black" points="182,-193 182,-223 356,-223 356,-193 182,-193"/>
<text text-anchor="start" x="190" y="-211" font-family="Helvetica,sans-Serif" font-size="10.00">configuration.RepeatParser.parse</text>
<text text-anchor="middle" x="269" y="-200" font-family="Helvetica,sans-Serif" font-size="10.00">Commands</text>
</a>
</g>
</g>
<!-- Node1&#45;&gt;Node13 -->
<g id="edge12" class="edge"><title>Node1&#45;&gt;Node13</title>
<path fill="none" stroke="midnightblue" d="M101.144,-257.628C120.946,-249.897 146.703,-240.288 170,-233 181.228,-229.487 193.291,-226.101 204.984,-223.015"/>
<polygon fill="midnightblue" stroke="midnightblue" points="99.6784,-254.444 91.6576,-261.366 102.245,-260.956 99.6784,-254.444"/>
</g>
<!-- Node15 -->
<g id="node15" class="node"><title>Node15</title>
<g id="a_node15"><a xlink:href="../../dc/d64/classconfiguration_1_1_for_parser.html#ad3cb5184cf449bd3414f3ba73a8b3104" target="_top" xlink:title="configuration.ForParser.parse\lCommands">
<polygon fill="white" stroke="black" points="417,-146 417,-176 573,-176 573,-146 417,-146"/>
<text text-anchor="start" x="425" y="-164" font-family="Helvetica,sans-Serif" font-size="10.00">configuration.ForParser.parse</text>
<text text-anchor="middle" x="495" y="-153" font-family="Helvetica,sans-Serif" font-size="10.00">Commands</text>
</a>
</g>
</g>
<!-- Node1&#45;&gt;Node15 -->
<g id="edge14" class="edge"><title>Node1&#45;&gt;Node15</title>
<path fill="none" stroke="midnightblue" d="M81.9116,-253.507C99.7742,-232.511 132.923,-198.233 170,-183 249.528,-150.326 349.281,-148.773 416.942,-152.858"/>
<polygon fill="midnightblue" stroke="midnightblue" points="79.1057,-251.408 75.4286,-261.344 84.4995,-255.869 79.1057,-251.408"/>
</g>
<!-- Node16 -->
<g id="node16" class="node"><title>Node16</title>
<g id="a_node16"><a xlink:href="../../d9/dfc/classconfiguration_1_1_dotimes_parser.html#a63d34c400b9b5715b4a2f9a5d0107e62" target="_top" xlink:title="configuration.DotimesParser.parse\lDotimesIterator">
<polygon fill="white" stroke="black" points="404,-90 404,-120 586,-120 586,-90 404,-90"/>
<text text-anchor="start" x="412" y="-108" font-family="Helvetica,sans-Serif" font-size="10.00">configuration.DotimesParser.parse</text>
<text text-anchor="middle" x="495" y="-97" font-family="Helvetica,sans-Serif" font-size="10.00">DotimesIterator</text>
</a>
</g>
</g>
<!-- Node1&#45;&gt;Node16 -->
<g id="edge15" class="edge"><title>Node1&#45;&gt;Node16</title>
<path fill="none" stroke="midnightblue" d="M73.3828,-251.341C84.4988,-215.071 113.787,-138.464 170,-107 253.935,-60.0188 370.301,-74.9092 438.322,-89.9768"/>
<polygon fill="midnightblue" stroke="midnightblue" points="69.9451,-250.628 70.5067,-261.208 76.6654,-252.587 69.9451,-250.628"/>
</g>
<!-- Node17 -->
<g id="node17" class="node"><title>Node17</title>
<g id="a_node17"><a xlink:href="../../dc/d64/classconfiguration_1_1_for_parser.html#a6bc38f731ac658c5860fe092ba7689ac" target="_top" xlink:title="configuration.ForParser.parseFor">
<polygon fill="white" stroke="black" points="183.5,-116.5 183.5,-135.5 354.5,-135.5 354.5,-116.5 183.5,-116.5"/>
<text text-anchor="middle" x="269" y="-123.5" font-family="Helvetica,sans-Serif" font-size="10.00">configuration.ForParser.parseFor</text>
</a>
</g>
</g>
<!-- Node1&#45;&gt;Node17 -->
<g id="edge17" class="edge"><title>Node1&#45;&gt;Node17</title>
<path fill="none" stroke="midnightblue" d="M78.3073,-252.589C94.3256,-225.737 127.789,-176.187 170,-150 180.271,-143.628 192.124,-138.948 203.961,-135.51"/>
<polygon fill="midnightblue" stroke="midnightblue" points="75.2038,-250.964 73.2113,-261.369 81.2581,-254.477 75.2038,-250.964"/>
</g>
<!-- Node18 -->
<g id="node18" class="node"><title>Node18</title>
<g id="a_node18"><a xlink:href="../../d9/dfc/classconfiguration_1_1_dotimes_parser.html#aff41ee5ce2eeff82f7586bd1cf6a91c8" target="_top" xlink:title="configuration.DotimesParser.parseFor">
<polygon fill="white" stroke="black" points="170.5,-242.5 170.5,-261.5 367.5,-261.5 367.5,-242.5 170.5,-242.5"/>
<text text-anchor="middle" x="269" y="-249.5" font-family="Helvetica,sans-Serif" font-size="10.00">configuration.DotimesParser.parseFor</text>
</a>
</g>
</g>
<!-- Node1&#45;&gt;Node18 -->
<g id="edge19" class="edge"><title>Node1&#45;&gt;Node18</title>
<path fill="none" stroke="midnightblue" d="M143.812,-263.798C152.486,-262.974 161.418,-262.125 170.326,-261.279"/>
<polygon fill="midnightblue" stroke="midnightblue" points="143.389,-260.322 133.764,-264.752 144.051,-267.291 143.389,-260.322"/>
</g>
<!-- Node19 -->
<g id="node19" class="node"><title>Node19</title>
<g id="a_node19"><a xlink:href="../../d7/d56/classconfiguration_1_1_ifelse_parser.html#aeb471eacbe15e095075bdd09619fe15d" target="_top" xlink:title="configuration.IfelseParser.parse\lListCommands">
<polygon fill="white" stroke="black" points="186,-29 186,-59 352,-59 352,-29 186,-29"/>
<text text-anchor="start" x="194" y="-47" font-family="Helvetica,sans-Serif" font-size="10.00">configuration.IfelseParser.parse</text>
<text text-anchor="middle" x="269" y="-36" font-family="Helvetica,sans-Serif" font-size="10.00">ListCommands</text>
</a>
</g>
</g>
<!-- Node1&#45;&gt;Node19 -->
<g id="edge21" class="edge"><title>Node1&#45;&gt;Node19</title>
<path fill="none" stroke="midnightblue" d="M72.691,-251.338C83.149,-211.781 112.14,-122.248 170,-74 177.379,-67.8466 186.006,-62.9543 195.026,-59.0649"/>
<polygon fill="midnightblue" stroke="midnightblue" points="69.2824,-250.542 70.2241,-261.094 76.0688,-252.258 69.2824,-250.542"/>
</g>
<!-- Node4 -->
<g id="node4" class="node"><title>Node4</title>
<g id="a_node4"><a xlink:href="../../d3/d0d/classconfiguration_1_1_repeat_parser.html#aca031091657e8bca5729c8d03b3bdfd2" target="_top" xlink:title="configuration.RepeatParser.main">
<polygon fill="white" stroke="black" points="409.5,-432.5 409.5,-451.5 580.5,-451.5 580.5,-432.5 409.5,-432.5"/>
<text text-anchor="middle" x="495" y="-439.5" font-family="Helvetica,sans-Serif" font-size="10.00">configuration.RepeatParser.main</text>
</a>
</g>
</g>
<!-- Node3&#45;&gt;Node4 -->
<g id="edge3" class="edge"><title>Node3&#45;&gt;Node4</title>
<path fill="none" stroke="midnightblue" d="M366.553,-442C380.755,-442 395.296,-442 409.237,-442"/>
<polygon fill="midnightblue" stroke="midnightblue" points="366.284,-438.5 356.284,-442 366.284,-445.5 366.284,-438.5"/>
</g>
<!-- Node6 -->
<g id="node6" class="node"><title>Node6</title>
<g id="a_node6"><a xlink:href="../../dc/d64/classconfiguration_1_1_for_parser.html#aead4cc87be49611ecb83b52828910795" target="_top" xlink:title="configuration.ForParser.main">
<polygon fill="white" stroke="black" points="418.5,-394.5 418.5,-413.5 571.5,-413.5 571.5,-394.5 418.5,-394.5"/>
<text text-anchor="middle" x="495" y="-401.5" font-family="Helvetica,sans-Serif" font-size="10.00">configuration.ForParser.main</text>
</a>
</g>
</g>
<!-- Node5&#45;&gt;Node6 -->
<g id="edge5" class="edge"><title>Node5&#45;&gt;Node6</title>
<path fill="none" stroke="midnightblue" d="M357.199,-404C377.364,-404 398.658,-404 418.286,-404"/>
<polygon fill="midnightblue" stroke="midnightblue" points="357.088,-400.5 347.088,-404 357.088,-407.5 357.088,-400.5"/>
</g>
<!-- Node8 -->
<g id="node8" class="node"><title>Node8</title>
<g id="a_node8"><a xlink:href="../../d9/dfc/classconfiguration_1_1_dotimes_parser.html#abae1c580e594f69c707cdd1c35ba7a51" target="_top" xlink:title="configuration.DotimesParser.main">
<polygon fill="white" stroke="black" points="405.5,-356.5 405.5,-375.5 584.5,-375.5 584.5,-356.5 405.5,-356.5"/>
<text text-anchor="middle" x="495" y="-363.5" font-family="Helvetica,sans-Serif" font-size="10.00">configuration.DotimesParser.main</text>
</a>
</g>
</g>
<!-- Node7&#45;&gt;Node8 -->
<g id="edge7" class="edge"><title>Node7&#45;&gt;Node8</title>
<path fill="none" stroke="midnightblue" d="M370.291,-366C381.905,-366 393.689,-366 405.136,-366"/>
<polygon fill="midnightblue" stroke="midnightblue" points="370.141,-362.5 360.141,-366 370.141,-369.5 370.141,-362.5"/>
</g>
<!-- Node10 -->
<g id="node10" class="node"><title>Node10</title>
<g id="a_node10"><a xlink:href="../../db/d22/classconfiguration_1_1_set_parser.html#a6bb1dac2d5e504cec62879f84bac6002" target="_top" xlink:title="configuration.SetParser.main">
<polygon fill="white" stroke="black" points="417.5,-318.5 417.5,-337.5 572.5,-337.5 572.5,-318.5 417.5,-318.5"/>
<text text-anchor="middle" x="495" y="-325.5" font-family="Helvetica,sans-Serif" font-size="10.00">configuration.SetParser.main</text>
</a>
</g>
</g>
<!-- Node9&#45;&gt;Node10 -->
<g id="edge9" class="edge"><title>Node9&#45;&gt;Node10</title>
<path fill="none" stroke="midnightblue" d="M358.158,-328C377.729,-328 398.318,-328 417.383,-328"/>
<polygon fill="midnightblue" stroke="midnightblue" points="358.03,-324.5 348.03,-328 358.03,-331.5 358.03,-324.5"/>
</g>
<!-- Node12 -->
<g id="node12" class="node"><title>Node12</title>
<g id="a_node12"><a xlink:href="../../d9/dfc/classconfiguration_1_1_dotimes_parser.html#abf0eb9bddfa4a09adc745008e17b293b" target="_top" xlink:title="configuration.DotimesParser.parse">
<polygon fill="white" stroke="black" points="622,-168.5 622,-187.5 804,-187.5 804,-168.5 622,-168.5"/>
<text text-anchor="middle" x="713" y="-175.5" font-family="Helvetica,sans-Serif" font-size="10.00">configuration.DotimesParser.parse</text>
</a>
</g>
</g>
<!-- Node11&#45;&gt;Node12 -->
<g id="edge11" class="edge"><title>Node11&#45;&gt;Node12</title>
<path fill="none" stroke="midnightblue" d="M563.156,-234.143C570.894,-231.85 578.642,-229.446 586,-227 622.75,-214.784 664.47,-197.96 689.486,-187.542"/>
<polygon fill="midnightblue" stroke="midnightblue" points="562.018,-230.829 553.393,-236.983 563.972,-237.551 562.018,-230.829"/>
</g>
<!-- Node14 -->
<g id="node14" class="node"><title>Node14</title>
<g id="a_node14"><a xlink:href="../../d3/d0d/classconfiguration_1_1_repeat_parser.html#abf20b0ae25909c1cdff93f509830b502" target="_top" xlink:title="configuration.RepeatParser.parse">
<polygon fill="white" stroke="black" points="408,-198.5 408,-217.5 582,-217.5 582,-198.5 408,-198.5"/>
<text text-anchor="middle" x="495" y="-205.5" font-family="Helvetica,sans-Serif" font-size="10.00">configuration.RepeatParser.parse</text>
</a>
</g>
</g>
<!-- Node13&#45;&gt;Node14 -->
<g id="edge13" class="edge"><title>Node13&#45;&gt;Node14</title>
<path fill="none" stroke="midnightblue" d="M366.661,-208C380.329,-208 394.307,-208 407.761,-208"/>
<polygon fill="midnightblue" stroke="midnightblue" points="366.284,-204.5 356.284,-208 366.284,-211.5 366.284,-204.5"/>
</g>
<!-- Node16&#45;&gt;Node12 -->
<g id="edge16" class="edge"><title>Node16&#45;&gt;Node12</title>
<path fill="none" stroke="midnightblue" d="M550.119,-123.29C592.547,-137.629 649.892,-157.01 683.712,-168.44"/>
<polygon fill="midnightblue" stroke="midnightblue" points="551.088,-119.923 540.493,-120.037 548.846,-126.555 551.088,-119.923"/>
</g>
<!-- Node17&#45;&gt;Node15 -->
<g id="edge18" class="edge"><title>Node17&#45;&gt;Node15</title>
<path fill="none" stroke="midnightblue" d="M341.035,-137.099C365.106,-140.86 392.106,-145.079 416.645,-148.913"/>
<polygon fill="midnightblue" stroke="midnightblue" points="341.334,-133.603 330.913,-135.518 340.253,-140.52 341.334,-133.603"/>
</g>
<!-- Node18&#45;&gt;Node11 -->
<g id="edge20" class="edge"><title>Node18&#45;&gt;Node11</title>
<path fill="none" stroke="midnightblue" d="M377.785,-252C386.488,-252 395.224,-252 403.783,-252"/>
<polygon fill="midnightblue" stroke="midnightblue" points="377.598,-248.5 367.598,-252 377.598,-255.5 377.598,-248.5"/>
</g>
<!-- Node20 -->
<g id="node20" class="node"><title>Node20</title>
<g id="a_node20"><a xlink:href="../../d7/d56/classconfiguration_1_1_ifelse_parser.html#a4b806589536dd338338d515a0fdb67ed" target="_top" xlink:title="configuration.IfelseParser.parse">
<polygon fill="white" stroke="black" points="412,-38.5 412,-57.5 578,-57.5 578,-38.5 412,-38.5"/>
<text text-anchor="middle" x="495" y="-45.5" font-family="Helvetica,sans-Serif" font-size="10.00">configuration.IfelseParser.parse</text>
</a>
</g>
</g>
<!-- Node19&#45;&gt;Node20 -->
<g id="edge22" class="edge"><title>Node19&#45;&gt;Node20</title>
<path fill="none" stroke="midnightblue" d="M362.283,-45.6479C378.72,-45.9414 395.742,-46.2454 411.873,-46.5334"/>
<polygon fill="midnightblue" stroke="midnightblue" points="362.198,-42.1459 352.137,-45.4667 362.073,-49.1448 362.198,-42.1459"/>
</g>
<!-- Node21 -->
<g id="node21" class="node"><title>Node21</title>
<g id="a_node21"><a xlink:href="../../dc/dd1/classconfiguration_1_1_if_parser.html#ab4ed2d3b7778d2b1206e5d26ebac7976" target="_top" xlink:title="configuration.IfParser.parse">
<polygon fill="white" stroke="black" points="422,-0.5 422,-19.5 568,-19.5 568,-0.5 422,-0.5"/>
<text text-anchor="middle" x="495" y="-7.5" font-family="Helvetica,sans-Serif" font-size="10.00">configuration.IfParser.parse</text>
</a>
</g>
</g>
<!-- Node19&#45;&gt;Node21 -->
<g id="edge23" class="edge"><title>Node19&#45;&gt;Node21</title>
<path fill="none" stroke="midnightblue" d="M362.332,-29.9853C385.498,-26.4691 409.823,-22.7769 431.173,-19.5363"/>
<polygon fill="midnightblue" stroke="midnightblue" points="361.499,-26.5716 352.137,-31.5327 362.549,-33.4923 361.499,-26.5716"/>
</g>
<!-- Node22 -->
<g id="node22" class="node"><title>Node22</title>
<g id="a_node22"><a xlink:href="../../dc/dd1/classconfiguration_1_1_if_parser.html#a702326bd885126c4c3ad202676ddeff8" target="_top" xlink:title="configuration.IfParser.main">
<polygon fill="white" stroke="black" points="641.5,-0.5 641.5,-19.5 784.5,-19.5 784.5,-0.5 641.5,-0.5"/>
<text text-anchor="middle" x="713" y="-7.5" font-family="Helvetica,sans-Serif" font-size="10.00">configuration.IfParser.main</text>
</a>
</g>
</g>
<!-- Node21&#45;&gt;Node22 -->
<g id="edge24" class="edge"><title>Node21&#45;&gt;Node22</title>
<path fill="none" stroke="midnightblue" d="M578.296,-10C599.062,-10 621.173,-10 641.311,-10"/>
<polygon fill="midnightblue" stroke="midnightblue" points="578.225,-6.5001 568.225,-10 578.225,-13.5001 578.225,-6.5001"/>
</g>
</g>
</svg>
