<?xml version="1.0" encoding="UTF-8" standalone="no"?>
<!DOCTYPE svg PUBLIC "-//W3C//DTD SVG 1.1//EN"
 "http://www.w3.org/Graphics/SVG/1.1/DTD/svg11.dtd">
<!-- Generated by graphviz version 2.36.0 (20140111.2315)
 -->
<!-- Title: configuration.Parser.isListStart Pages: 1 -->
<svg width="582pt" height="336pt"
 viewBox="0.00 0.00 582.00 336.00" xmlns="http://www.w3.org/2000/svg" xmlns:xlink="http://www.w3.org/1999/xlink">
<g id="graph0" class="graph" transform="scale(1 1) rotate(0) translate(4 332)">
<title>configuration.Parser.isListStart</title>
<polygon fill="white" stroke="none" points="-4,4 -4,-332 578,-332 578,4 -4,4"/>
<!-- Node1 -->
<g id="node1" class="node"><title>Node1</title>
<polygon fill="#bfbfbf" stroke="black" points="0,-161 0,-191 138,-191 138,-161 0,-161"/>
<text text-anchor="start" x="8" y="-179" font-family="Helvetica,sans-Serif" font-size="10.00">configuration.Parser.isList</text>
<text text-anchor="middle" x="69" y="-168" font-family="Helvetica,sans-Serif" font-size="10.00">Start</text>
</g>
<!-- Node2 -->
<g id="node2" class="node"><title>Node2</title>
<g id="a_node2"><a xlink:href="../../dc/d64/classconfiguration_1_1_for_parser.html#a2737b422e279cfca7c64fd8eff57d3ff" target="_top" xlink:title="configuration.ForParser.parse">
<polygon fill="white" stroke="black" points="187,-308.5 187,-327.5 343,-327.5 343,-308.5 187,-308.5"/>
<text text-anchor="middle" x="265" y="-315.5" font-family="Helvetica,sans-Serif" font-size="10.00">configuration.ForParser.parse</text>
</a>
</g>
</g>
<!-- Node1&#45;&gt;Node2 -->
<g id="edge1" class="edge"><title>Node1&#45;&gt;Node2</title>
<path fill="none" stroke="midnightblue" d="M83.6596,-199.89C100.976,-227.913 133.508,-273.63 174,-298 181.268,-302.374 189.385,-305.795 197.687,-308.469"/>
<polygon fill="midnightblue" stroke="midnightblue" points="86.537,-197.884 78.3808,-191.122 80.5398,-201.494 86.537,-197.884"/>
</g>
<!-- Node3 -->
<g id="node3" class="node"><title>Node3</title>
<g id="a_node3"><a xlink:href="../../d9/dfc/classconfiguration_1_1_dotimes_parser.html#a6086c4c4651b29dd968bf4728bd71d0c" target="_top" xlink:title="configuration.DotimesParser.parse\lCommands">
<polygon fill="white" stroke="black" points="174,-259 174,-289 356,-289 356,-259 174,-259"/>
<text text-anchor="start" x="182" y="-277" font-family="Helvetica,sans-Serif" font-size="10.00">configuration.DotimesParser.parse</text>
<text text-anchor="middle" x="265" y="-266" font-family="Helvetica,sans-Serif" font-size="10.00">Commands</text>
</a>
</g>
</g>
<!-- Node1&#45;&gt;Node3 -->
<g id="edge2" class="edge"><title>Node1&#45;&gt;Node3</title>
<path fill="none" stroke="midnightblue" d="M95.3825,-197.556C115.549,-213.723 145.077,-235.331 174,-249 181.917,-252.742 190.499,-256.017 199.113,-258.857"/>
<polygon fill="midnightblue" stroke="midnightblue" points="97.5693,-194.823 87.6064,-191.219 93.1471,-200.25 97.5693,-194.823"/>
</g>
<!-- Node5 -->
<g id="node5" class="node"><title>Node5</title>
<g id="a_node5"><a xlink:href="../../dc/d64/classconfiguration_1_1_for_parser.html#ad3cb5184cf449bd3414f3ba73a8b3104" target="_top" xlink:title="configuration.ForParser.parse\lCommands">
<polygon fill="white" stroke="black" points="187,-210 187,-240 343,-240 343,-210 187,-210"/>
<text text-anchor="start" x="195" y="-228" font-family="Helvetica,sans-Serif" font-size="10.00">configuration.ForParser.parse</text>
<text text-anchor="middle" x="265" y="-217" font-family="Helvetica,sans-Serif" font-size="10.00">Commands</text>
</a>
</g>
</g>
<!-- Node1&#45;&gt;Node5 -->
<g id="edge4" class="edge"><title>Node1&#45;&gt;Node5</title>
<path fill="none" stroke="midnightblue" d="M139.483,-193.55C160.787,-198.931 184.021,-204.799 204.588,-209.994"/>
<polygon fill="midnightblue" stroke="midnightblue" points="140.077,-190.09 129.525,-191.035 138.363,-196.877 140.077,-190.09"/>
</g>
<!-- Node6 -->
<g id="node6" class="node"><title>Node6</title>
<g id="a_node6"><a xlink:href="../../d3/d0d/classconfiguration_1_1_repeat_parser.html#aed07d335bcd1174cb4247a7add0d3315" target="_top" xlink:title="configuration.RepeatParser.parse\lCommands">
<polygon fill="white" stroke="black" points="178,-112 178,-142 352,-142 352,-112 178,-112"/>
<text text-anchor="start" x="186" y="-130" font-family="Helvetica,sans-Serif" font-size="10.00">configuration.RepeatParser.parse</text>
<text text-anchor="middle" x="265" y="-119" font-family="Helvetica,sans-Serif" font-size="10.00">Commands</text>
</a>
</g>
</g>
<!-- Node1&#45;&gt;Node6 -->
<g id="edge5" class="edge"><title>Node1&#45;&gt;Node6</title>
<path fill="none" stroke="midnightblue" d="M139.483,-158.45C160.787,-153.069 184.021,-147.201 204.588,-142.006"/>
<polygon fill="midnightblue" stroke="midnightblue" points="138.363,-155.123 129.525,-160.965 140.077,-161.91 138.363,-155.123"/>
</g>
<!-- Node8 -->
<g id="node8" class="node"><title>Node8</title>
<g id="a_node8"><a xlink:href="../../d9/dfc/classconfiguration_1_1_dotimes_parser.html#a63d34c400b9b5715b4a2f9a5d0107e62" target="_top" xlink:title="configuration.DotimesParser.parse\lDotimesIterator">
<polygon fill="white" stroke="black" points="174,-161 174,-191 356,-191 356,-161 174,-161"/>
<text text-anchor="start" x="182" y="-179" font-family="Helvetica,sans-Serif" font-size="10.00">configuration.DotimesParser.parse</text>
<text text-anchor="middle" x="265" y="-168" font-family="Helvetica,sans-Serif" font-size="10.00">DotimesIterator</text>
</a>
</g>
</g>
<!-- Node1&#45;&gt;Node8 -->
<g id="edge7" class="edge"><title>Node1&#45;&gt;Node8</title>
<path fill="none" stroke="midnightblue" d="M148.293,-176C156.725,-176 165.352,-176 173.907,-176"/>
<polygon fill="midnightblue" stroke="midnightblue" points="148.124,-172.5 138.124,-176 148.124,-179.5 148.124,-172.5"/>
</g>
<!-- Node9 -->
<g id="node9" class="node"><title>Node9</title>
<g id="a_node9"><a xlink:href="../../d3/d0d/classconfiguration_1_1_repeat_parser.html#ad35abe70f202dc3dd93bbdb50acd490d" target="_top" xlink:title="configuration.RepeatParser.parse\lListCommands">
<polygon fill="white" stroke="black" points="178,-63 178,-93 352,-93 352,-63 178,-63"/>
<text text-anchor="start" x="186" y="-81" font-family="Helvetica,sans-Serif" font-size="10.00">configuration.RepeatParser.parse</text>
<text text-anchor="middle" x="265" y="-70" font-family="Helvetica,sans-Serif" font-size="10.00">ListCommands</text>
</a>
</g>
</g>
<!-- Node1&#45;&gt;Node9 -->
<g id="edge9" class="edge"><title>Node1&#45;&gt;Node9</title>
<path fill="none" stroke="midnightblue" d="M94.9285,-154.344C115.054,-137.869 144.742,-115.757 174,-102 181.171,-98.6284 188.894,-95.6682 196.695,-93.0855"/>
<polygon fill="midnightblue" stroke="midnightblue" points="92.6253,-151.707 87.1808,-160.796 97.1049,-157.086 92.6253,-151.707"/>
</g>
<!-- Node10 -->
<g id="node10" class="node"><title>Node10</title>
<g id="a_node10"><a xlink:href="../../d7/d56/classconfiguration_1_1_ifelse_parser.html#aeb471eacbe15e095075bdd09619fe15d" target="_top" xlink:title="configuration.IfelseParser.parse\lListCommands">
<polygon fill="white" stroke="black" points="182,-14 182,-44 348,-44 348,-14 182,-14"/>
<text text-anchor="start" x="190" y="-32" font-family="Helvetica,sans-Serif" font-size="10.00">configuration.IfelseParser.parse</text>
<text text-anchor="middle" x="265" y="-21" font-family="Helvetica,sans-Serif" font-size="10.00">ListCommands</text>
</a>
</g>
</g>
<!-- Node1&#45;&gt;Node10 -->
<g id="edge10" class="edge"><title>Node1&#45;&gt;Node10</title>
<path fill="none" stroke="midnightblue" d="M83.7891,-152.201C101.232,-124.23 133.889,-78.4142 174,-53 179.464,-49.5381 185.418,-46.572 191.575,-44.0315"/>
<polygon fill="midnightblue" stroke="midnightblue" points="80.6753,-150.585 78.4679,-160.947 86.6556,-154.223 80.6753,-150.585"/>
</g>
<!-- Node4 -->
<g id="node4" class="node"><title>Node4</title>
<g id="a_node4"><a xlink:href="../../d9/dfc/classconfiguration_1_1_dotimes_parser.html#abf0eb9bddfa4a09adc745008e17b293b" target="_top" xlink:title="configuration.DotimesParser.parse">
<polygon fill="white" stroke="black" points="392,-215.5 392,-234.5 574,-234.5 574,-215.5 392,-215.5"/>
<text text-anchor="middle" x="483" y="-222.5" font-family="Helvetica,sans-Serif" font-size="10.00">configuration.DotimesParser.parse</text>
</a>
</g>
</g>
<!-- Node3&#45;&gt;Node4 -->
<g id="edge3" class="edge"><title>Node3&#45;&gt;Node4</title>
<path fill="none" stroke="midnightblue" d="M342.314,-256.688C375.153,-249.239 412.28,-240.816 439.999,-234.528"/>
<polygon fill="midnightblue" stroke="midnightblue" points="341.253,-253.34 332.275,-258.965 342.802,-260.166 341.253,-253.34"/>
</g>
<!-- Node7 -->
<g id="node7" class="node"><title>Node7</title>
<g id="a_node7"><a xlink:href="../../d3/d0d/classconfiguration_1_1_repeat_parser.html#abf20b0ae25909c1cdff93f509830b502" target="_top" xlink:title="configuration.RepeatParser.parse">
<polygon fill="white" stroke="black" points="396,-117.5 396,-136.5 570,-136.5 570,-117.5 396,-117.5"/>
<text text-anchor="middle" x="483" y="-124.5" font-family="Helvetica,sans-Serif" font-size="10.00">configuration.RepeatParser.parse</text>
</a>
</g>
</g>
<!-- Node6&#45;&gt;Node7 -->
<g id="edge6" class="edge"><title>Node6&#45;&gt;Node7</title>
<path fill="none" stroke="midnightblue" d="M362.454,-127C373.576,-127 384.864,-127 395.837,-127"/>
<polygon fill="midnightblue" stroke="midnightblue" points="362.3,-123.5 352.3,-127 362.3,-130.5 362.3,-123.5"/>
</g>
<!-- Node8&#45;&gt;Node4 -->
<g id="edge8" class="edge"><title>Node8&#45;&gt;Node4</title>
<path fill="none" stroke="midnightblue" d="M342.314,-193.312C375.153,-200.761 412.28,-209.184 439.999,-215.472"/>
<polygon fill="midnightblue" stroke="midnightblue" points="342.802,-189.834 332.275,-191.035 341.253,-196.66 342.802,-189.834"/>
</g>
<!-- Node11 -->
<g id="node11" class="node"><title>Node11</title>
<g id="a_node11"><a xlink:href="../../d7/d56/classconfiguration_1_1_ifelse_parser.html#a4b806589536dd338338d515a0fdb67ed" target="_top" xlink:title="configuration.IfelseParser.parse">
<polygon fill="white" stroke="black" points="400,-38.5 400,-57.5 566,-57.5 566,-38.5 400,-38.5"/>
<text text-anchor="middle" x="483" y="-45.5" font-family="Helvetica,sans-Serif" font-size="10.00">configuration.IfelseParser.parse</text>
</a>
</g>
</g>
<!-- Node10&#45;&gt;Node11 -->
<g id="edge11" class="edge"><title>Node10&#45;&gt;Node11</title>
<path fill="none" stroke="midnightblue" d="M358.285,-37.1177C372.134,-38.3359 386.336,-39.5851 399.952,-40.7828"/>
<polygon fill="midnightblue" stroke="midnightblue" points="358.545,-33.6271 348.277,-36.2373 357.931,-40.6002 358.545,-33.6271"/>
</g>
<!-- Node12 -->
<g id="node12" class="node"><title>Node12</title>
<g id="a_node12"><a xlink:href="../../dc/dd1/classconfiguration_1_1_if_parser.html#ab4ed2d3b7778d2b1206e5d26ebac7976" target="_top" xlink:title="configuration.IfParser.parse">
<polygon fill="white" stroke="black" points="410,-0.5 410,-19.5 556,-19.5 556,-0.5 410,-0.5"/>
<text text-anchor="middle" x="483" y="-7.5" font-family="Helvetica,sans-Serif" font-size="10.00">configuration.IfParser.parse</text>
</a>
</g>
</g>
<!-- Node10&#45;&gt;Node12 -->
<g id="edge12" class="edge"><title>Node10&#45;&gt;Node12</title>
<path fill="none" stroke="midnightblue" d="M358.342,-20.8773C375.567,-19.3622 393.335,-17.7992 409.843,-16.3472"/>
<polygon fill="midnightblue" stroke="midnightblue" points="357.931,-17.3998 348.277,-21.7627 358.545,-24.3729 357.931,-17.3998"/>
</g>
</g>
</svg>
