<?xml version="1.0" encoding="UTF-8" standalone="no"?>
<!DOCTYPE svg PUBLIC "-//W3C//DTD SVG 1.1//EN"
 "http://www.w3.org/Graphics/SVG/1.1/DTD/svg11.dtd">
<!-- Generated by graphviz version 2.36.0 (20140111.2315)
 -->
<!-- Title: configuration.Parser.skip Pages: 1 -->
<svg width="812pt" height="536pt"
 viewBox="0.00 0.00 812.00 536.00" xmlns="http://www.w3.org/2000/svg" xmlns:xlink="http://www.w3.org/1999/xlink">
<g id="graph0" class="graph" transform="scale(1 1) rotate(0) translate(4 532)">
<title>configuration.Parser.skip</title>
<polygon fill="white" stroke="none" points="-4,4 -4,-532 808,-532 808,4 -4,4"/>
<!-- Node1 -->
<g id="node1" class="node"><title>Node1</title>
<polygon fill="#bfbfbf" stroke="black" points="0.5,-280.5 0.5,-299.5 133.5,-299.5 133.5,-280.5 0.5,-280.5"/>
<text text-anchor="middle" x="67" y="-287.5" font-family="Helvetica,sans-Serif" font-size="10.00">configuration.Parser.skip</text>
</g>
<!-- Node2 -->
<g id="node2" class="node"><title>Node2</title>
<g id="a_node2"><a xlink:href="../../d7/d56/classconfiguration_1_1_ifelse_parser.html#a608612d46f8239cbf096bbcffd0d4119" target="_top" xlink:title="configuration.IfelseParser.parse">
<polygon fill="white" stroke="black" points="186,-508.5 186,-527.5 352,-527.5 352,-508.5 186,-508.5"/>
<text text-anchor="middle" x="269" y="-515.5" font-family="Helvetica,sans-Serif" font-size="10.00">configuration.IfelseParser.parse</text>
</a>
</g>
</g>
<!-- Node1&#45;&gt;Node2 -->
<g id="edge1" class="edge"><title>Node1&#45;&gt;Node2</title>
<path fill="none" stroke="midnightblue" d="M71.5285,-309.653C80.1617,-351.654 106.469,-450.288 170,-499 174.951,-502.796 180.448,-505.901 186.239,-508.432"/>
<polygon fill="midnightblue" stroke="midnightblue" points="74.9627,-308.978 69.6235,-299.826 68.0907,-310.31 74.9627,-308.978"/>
</g>
<!-- Node3 -->
<g id="node3" class="node"><title>Node3</title>
<g id="a_node3"><a xlink:href="../../dc/dd1/classconfiguration_1_1_if_parser.html#a87fb238c550985341209cfebebe0a779" target="_top" xlink:title="configuration.IfParser.parse">
<polygon fill="white" stroke="black" points="196,-470.5 196,-489.5 342,-489.5 342,-470.5 196,-470.5"/>
<text text-anchor="middle" x="269" y="-477.5" font-family="Helvetica,sans-Serif" font-size="10.00">configuration.IfParser.parse</text>
</a>
</g>
</g>
<!-- Node1&#45;&gt;Node3 -->
<g id="edge2" class="edge"><title>Node1&#45;&gt;Node3</title>
<path fill="none" stroke="midnightblue" d="M73.7305,-309.496C85.4281,-345.641 115.649,-422.833 170,-461 177.73,-466.428 186.61,-470.406 195.8,-473.306"/>
<polygon fill="midnightblue" stroke="midnightblue" points="76.9932,-308.201 70.6888,-299.686 70.3072,-310.274 76.9932,-308.201"/>
</g>
<!-- Node4 -->
<g id="node4" class="node"><title>Node4</title>
<g id="a_node4"><a xlink:href="../../d3/d0d/classconfiguration_1_1_repeat_parser.html#a7785a2e509d96ff2ad5504e7a781d1d2" target="_top" xlink:title="configuration.RepeatParser.parse">
<polygon fill="white" stroke="black" points="182,-432.5 182,-451.5 356,-451.5 356,-432.5 182,-432.5"/>
<text text-anchor="middle" x="269" y="-439.5" font-family="Helvetica,sans-Serif" font-size="10.00">configuration.RepeatParser.parse</text>
</a>
</g>
</g>
<!-- Node1&#45;&gt;Node4 -->
<g id="edge3" class="edge"><title>Node1&#45;&gt;Node4</title>
<path fill="none" stroke="midnightblue" d="M76.7955,-308.828C91.5971,-338.279 124.4,-394.789 170,-423 176.264,-426.875 183.149,-429.987 190.276,-432.483"/>
<polygon fill="midnightblue" stroke="midnightblue" points="79.8422,-307.09 72.3192,-299.63 73.548,-310.153 79.8422,-307.09"/>
</g>
<!-- Node5 -->
<g id="node5" class="node"><title>Node5</title>
<g id="a_node5"><a xlink:href="../../d9/dfc/classconfiguration_1_1_dotimes_parser.html#ad7321bee5b452f826f1ec05a89d100b6" target="_top" xlink:title="configuration.DotimesParser.parse">
<polygon fill="white" stroke="black" points="178,-394.5 178,-413.5 360,-413.5 360,-394.5 178,-394.5"/>
<text text-anchor="middle" x="269" y="-401.5" font-family="Helvetica,sans-Serif" font-size="10.00">configuration.DotimesParser.parse</text>
</a>
</g>
</g>
<!-- Node1&#45;&gt;Node5 -->
<g id="edge4" class="edge"><title>Node1&#45;&gt;Node5</title>
<path fill="none" stroke="midnightblue" d="M81.6742,-307.774C99.5082,-329.616 132.846,-366.095 170,-385 177.646,-388.89 185.999,-391.987 194.5,-394.451"/>
<polygon fill="midnightblue" stroke="midnightblue" points="84.1836,-305.307 75.2163,-299.665 78.7077,-309.668 84.1836,-305.307"/>
</g>
<!-- Node7 -->
<g id="node7" class="node"><title>Node7</title>
<g id="a_node7"><a xlink:href="../../dc/d64/classconfiguration_1_1_for_parser.html#a57f9ebf60e25c370f7ca73c0862f387a" target="_top" xlink:title="configuration.ForParser.parse">
<polygon fill="white" stroke="black" points="191,-356.5 191,-375.5 347,-375.5 347,-356.5 191,-356.5"/>
<text text-anchor="middle" x="269" y="-363.5" font-family="Helvetica,sans-Serif" font-size="10.00">configuration.ForParser.parse</text>
</a>
</g>
</g>
<!-- Node1&#45;&gt;Node7 -->
<g id="edge6" class="edge"><title>Node1&#45;&gt;Node7</title>
<path fill="none" stroke="midnightblue" d="M90.2397,-305.176C110.261,-318.153 140.922,-336.368 170,-347 180.498,-350.839 191.928,-353.949 203.152,-356.455"/>
<polygon fill="midnightblue" stroke="midnightblue" points="92.1076,-302.215 81.8335,-299.628 88.2519,-308.058 92.1076,-302.215"/>
</g>
<!-- Node8 -->
<g id="node8" class="node"><title>Node8</title>
<g id="a_node8"><a xlink:href="../../db/d22/classconfiguration_1_1_set_parser.html#aef4ad6dce7a472c79efa57ffd1647b95" target="_top" xlink:title="configuration.SetParser.parse">
<polygon fill="white" stroke="black" points="190,-318.5 190,-337.5 348,-337.5 348,-318.5 190,-318.5"/>
<text text-anchor="middle" x="269" y="-325.5" font-family="Helvetica,sans-Serif" font-size="10.00">configuration.SetParser.parse</text>
</a>
</g>
</g>
<!-- Node1&#45;&gt;Node8 -->
<g id="edge7" class="edge"><title>Node1&#45;&gt;Node8</title>
<path fill="none" stroke="midnightblue" d="M128.095,-301.418C156.712,-306.855 190.543,-313.283 217.769,-318.456"/>
<polygon fill="midnightblue" stroke="midnightblue" points="128.688,-297.968 118.21,-299.54 127.381,-304.845 128.688,-297.968"/>
</g>
<!-- Node9 -->
<g id="node9" class="node"><title>Node9</title>
<g id="a_node9"><a xlink:href="../../d9/dfc/classconfiguration_1_1_dotimes_parser.html#a6086c4c4651b29dd968bf4728bd71d0c" target="_top" xlink:title="configuration.DotimesParser.parse\lCommands">
<polygon fill="white" stroke="black" points="404,-237 404,-267 586,-267 586,-237 404,-237"/>
<text text-anchor="start" x="412" y="-255" font-family="Helvetica,sans-Serif" font-size="10.00">configuration.DotimesParser.parse</text>
<text text-anchor="middle" x="495" y="-244" font-family="Helvetica,sans-Serif" font-size="10.00">Commands</text>
</a>
</g>
</g>
<!-- Node1&#45;&gt;Node9 -->
<g id="edge8" class="edge"><title>Node1&#45;&gt;Node9</title>
<path fill="none" stroke="midnightblue" d="M143.951,-287.006C204.691,-284.174 291.966,-279.125 368,-271 379.658,-269.754 391.89,-268.21 403.958,-266.544"/>
<polygon fill="midnightblue" stroke="midnightblue" points="143.513,-283.522 133.684,-287.475 143.833,-290.514 143.513,-283.522"/>
</g>
<!-- Node11 -->
<g id="node11" class="node"><title>Node11</title>
<g id="a_node11"><a xlink:href="../../d3/d0d/classconfiguration_1_1_repeat_parser.html#aed07d335bcd1174cb4247a7add0d3315" target="_top" xlink:title="configuration.RepeatParser.parse\lCommands">
<polygon fill="white" stroke="black" points="182,-193 182,-223 356,-223 356,-193 182,-193"/>
<text text-anchor="start" x="190" y="-211" font-family="Helvetica,sans-Serif" font-size="10.00">configuration.RepeatParser.parse</text>
<text text-anchor="middle" x="269" y="-200" font-family="Helvetica,sans-Serif" font-size="10.00">Commands</text>
</a>
</g>
</g>
<!-- Node1&#45;&gt;Node11 -->
<g id="edge10" class="edge"><title>Node1&#45;&gt;Node11</title>
<path fill="none" stroke="midnightblue" d="M90.7413,-275.019C110.87,-262.323 141.407,-244.41 170,-233 179.377,-229.258 189.486,-225.936 199.525,-223.034"/>
<polygon fill="midnightblue" stroke="midnightblue" points="88.8041,-272.103 82.2699,-280.443 92.5788,-277.999 88.8041,-272.103"/>
</g>
<!-- Node13 -->
<g id="node13" class="node"><title>Node13</title>
<g id="a_node13"><a xlink:href="../../dc/d64/classconfiguration_1_1_for_parser.html#ad3cb5184cf449bd3414f3ba73a8b3104" target="_top" xlink:title="configuration.ForParser.parse\lCommands">
<polygon fill="white" stroke="black" points="417,-146 417,-176 573,-176 573,-146 417,-146"/>
<text text-anchor="start" x="425" y="-164" font-family="Helvetica,sans-Serif" font-size="10.00">configuration.ForParser.parse</text>
<text text-anchor="middle" x="495" y="-153" font-family="Helvetica,sans-Serif" font-size="10.00">Commands</text>
</a>
</g>
</g>
<!-- Node1&#45;&gt;Node13 -->
<g id="edge12" class="edge"><title>Node1&#45;&gt;Node13</title>
<path fill="none" stroke="midnightblue" d="M79.0548,-271.753C95.3977,-246.665 128.587,-202.424 170,-183 248.097,-146.371 348.575,-145.667 416.785,-151.03"/>
<polygon fill="midnightblue" stroke="midnightblue" points="76.0133,-270.015 73.634,-280.339 81.9323,-273.752 76.0133,-270.015"/>
</g>
<!-- Node14 -->
<g id="node14" class="node"><title>Node14</title>
<g id="a_node14"><a xlink:href="../../d9/dfc/classconfiguration_1_1_dotimes_parser.html#a63d34c400b9b5715b4a2f9a5d0107e62" target="_top" xlink:title="configuration.DotimesParser.parse\lDotimesIterator">
<polygon fill="white" stroke="black" points="404,-90 404,-120 586,-120 586,-90 404,-90"/>
<text text-anchor="start" x="412" y="-108" font-family="Helvetica,sans-Serif" font-size="10.00">configuration.DotimesParser.parse</text>
<text text-anchor="middle" x="495" y="-97" font-family="Helvetica,sans-Serif" font-size="10.00">DotimesIterator</text>
</a>
</g>
</g>
<!-- Node1&#45;&gt;Node14 -->
<g id="edge13" class="edge"><title>Node1&#45;&gt;Node14</title>
<path fill="none" stroke="midnightblue" d="M72.0566,-270.599C81.4199,-231.38 108.611,-143.319 170,-107 253.875,-57.3772 372.616,-74.0036 440.617,-89.9372"/>
<polygon fill="midnightblue" stroke="midnightblue" points="68.6126,-269.961 69.8318,-280.486 75.4418,-271.498 68.6126,-269.961"/>
</g>
<!-- Node15 -->
<g id="node15" class="node"><title>Node15</title>
<g id="a_node15"><a xlink:href="../../dc/d64/classconfiguration_1_1_for_parser.html#a6bc38f731ac658c5860fe092ba7689ac" target="_top" xlink:title="configuration.ForParser.parseFor">
<polygon fill="white" stroke="black" points="183.5,-116.5 183.5,-135.5 354.5,-135.5 354.5,-116.5 183.5,-116.5"/>
<text text-anchor="middle" x="269" y="-123.5" font-family="Helvetica,sans-Serif" font-size="10.00">configuration.ForParser.parseFor</text>
</a>
</g>
</g>
<!-- Node1&#45;&gt;Node15 -->
<g id="edge15" class="edge"><title>Node1&#45;&gt;Node15</title>
<path fill="none" stroke="midnightblue" d="M76.2932,-271.298C90.7566,-240.925 123.548,-181.147 170,-150 179.457,-143.659 190.429,-138.991 201.538,-135.555"/>
<polygon fill="midnightblue" stroke="midnightblue" points="73.111,-269.84 72.0976,-280.386 79.4666,-272.774 73.111,-269.84"/>
</g>
<!-- Node16 -->
<g id="node16" class="node"><title>Node16</title>
<g id="a_node16"><a xlink:href="../../d9/dfc/classconfiguration_1_1_dotimes_parser.html#aff41ee5ce2eeff82f7586bd1cf6a91c8" target="_top" xlink:title="configuration.DotimesParser.parseFor">
<polygon fill="white" stroke="black" points="170.5,-242.5 170.5,-261.5 367.5,-261.5 367.5,-242.5 170.5,-242.5"/>
<text text-anchor="middle" x="269" y="-249.5" font-family="Helvetica,sans-Serif" font-size="10.00">configuration.DotimesParser.parseFor</text>
</a>
</g>
</g>
<!-- Node1&#45;&gt;Node16 -->
<g id="edge17" class="edge"><title>Node1&#45;&gt;Node16</title>
<path fill="none" stroke="midnightblue" d="M128.095,-278.582C156.712,-273.145 190.543,-266.717 217.769,-261.544"/>
<polygon fill="midnightblue" stroke="midnightblue" points="127.381,-275.155 118.21,-280.46 128.688,-282.032 127.381,-275.155"/>
</g>
<!-- Node17 -->
<g id="node17" class="node"><title>Node17</title>
<g id="a_node17"><a xlink:href="../../d7/d56/classconfiguration_1_1_ifelse_parser.html#aeb471eacbe15e095075bdd09619fe15d" target="_top" xlink:title="configuration.IfelseParser.parse\lListCommands">
<polygon fill="white" stroke="black" points="186,-29 186,-59 352,-59 352,-29 186,-29"/>
<text text-anchor="start" x="194" y="-47" font-family="Helvetica,sans-Serif" font-size="10.00">configuration.IfelseParser.parse</text>
<text text-anchor="middle" x="269" y="-36" font-family="Helvetica,sans-Serif" font-size="10.00">ListCommands</text>
</a>
</g>
</g>
<!-- Node1&#45;&gt;Node17 -->
<g id="edge19" class="edge"><title>Node1&#45;&gt;Node17</title>
<path fill="none" stroke="midnightblue" d="M71.7345,-270.217C80.7709,-227.843 107.82,-127.808 170,-74 177.131,-67.8291 185.51,-62.9275 194.314,-59.034"/>
<polygon fill="midnightblue" stroke="midnightblue" points="68.2833,-269.625 69.7313,-280.121 75.1444,-271.013 68.2833,-269.625"/>
</g>
<!-- Node6 -->
<g id="node6" class="node"><title>Node6</title>
<g id="a_node6"><a xlink:href="../../d9/dfc/classconfiguration_1_1_dotimes_parser.html#abae1c580e594f69c707cdd1c35ba7a51" target="_top" xlink:title="configuration.DotimesParser.main">
<polygon fill="white" stroke="black" points="405.5,-394.5 405.5,-413.5 584.5,-413.5 584.5,-394.5 405.5,-394.5"/>
<text text-anchor="middle" x="495" y="-401.5" font-family="Helvetica,sans-Serif" font-size="10.00">configuration.DotimesParser.main</text>
</a>
</g>
</g>
<!-- Node5&#45;&gt;Node6 -->
<g id="edge5" class="edge"><title>Node5&#45;&gt;Node6</title>
<path fill="none" stroke="midnightblue" d="M370.291,-404C381.905,-404 393.689,-404 405.136,-404"/>
<polygon fill="midnightblue" stroke="midnightblue" points="370.141,-400.5 360.141,-404 370.141,-407.5 370.141,-400.5"/>
</g>
<!-- Node10 -->
<g id="node10" class="node"><title>Node10</title>
<g id="a_node10"><a xlink:href="../../d9/dfc/classconfiguration_1_1_dotimes_parser.html#abf0eb9bddfa4a09adc745008e17b293b" target="_top" xlink:title="configuration.DotimesParser.parse">
<polygon fill="white" stroke="black" points="622,-168.5 622,-187.5 804,-187.5 804,-168.5 622,-168.5"/>
<text text-anchor="middle" x="713" y="-175.5" font-family="Helvetica,sans-Serif" font-size="10.00">configuration.DotimesParser.parse</text>
</a>
</g>
</g>
<!-- Node9&#45;&gt;Node10 -->
<g id="edge9" class="edge"><title>Node9&#45;&gt;Node10</title>
<path fill="none" stroke="midnightblue" d="M563.156,-234.143C570.894,-231.85 578.642,-229.446 586,-227 622.75,-214.784 664.47,-197.96 689.486,-187.542"/>
<polygon fill="midnightblue" stroke="midnightblue" points="562.018,-230.829 553.393,-236.983 563.972,-237.551 562.018,-230.829"/>
</g>
<!-- Node12 -->
<g id="node12" class="node"><title>Node12</title>
<g id="a_node12"><a xlink:href="../../d3/d0d/classconfiguration_1_1_repeat_parser.html#abf20b0ae25909c1cdff93f509830b502" target="_top" xlink:title="configuration.RepeatParser.parse">
<polygon fill="white" stroke="black" points="408,-198.5 408,-217.5 582,-217.5 582,-198.5 408,-198.5"/>
<text text-anchor="middle" x="495" y="-205.5" font-family="Helvetica,sans-Serif" font-size="10.00">configuration.RepeatParser.parse</text>
</a>
</g>
</g>
<!-- Node11&#45;&gt;Node12 -->
<g id="edge11" class="edge"><title>Node11&#45;&gt;Node12</title>
<path fill="none" stroke="midnightblue" d="M366.661,-208C380.329,-208 394.307,-208 407.761,-208"/>
<polygon fill="midnightblue" stroke="midnightblue" points="366.284,-204.5 356.284,-208 366.284,-211.5 366.284,-204.5"/>
</g>
<!-- Node14&#45;&gt;Node10 -->
<g id="edge14" class="edge"><title>Node14&#45;&gt;Node10</title>
<path fill="none" stroke="midnightblue" d="M550.119,-123.29C592.547,-137.629 649.892,-157.01 683.712,-168.44"/>
<polygon fill="midnightblue" stroke="midnightblue" points="551.088,-119.923 540.493,-120.037 548.846,-126.555 551.088,-119.923"/>
</g>
<!-- Node15&#45;&gt;Node13 -->
<g id="edge16" class="edge"><title>Node15&#45;&gt;Node13</title>
<path fill="none" stroke="midnightblue" d="M341.035,-137.099C365.106,-140.86 392.106,-145.079 416.645,-148.913"/>
<polygon fill="midnightblue" stroke="midnightblue" points="341.334,-133.603 330.913,-135.518 340.253,-140.52 341.334,-133.603"/>
</g>
<!-- Node16&#45;&gt;Node9 -->
<g id="edge18" class="edge"><title>Node16&#45;&gt;Node9</title>
<path fill="none" stroke="midnightblue" d="M377.785,-252C386.488,-252 395.224,-252 403.783,-252"/>
<polygon fill="midnightblue" stroke="midnightblue" points="377.598,-248.5 367.598,-252 377.598,-255.5 377.598,-248.5"/>
</g>
<!-- Node18 -->
<g id="node18" class="node"><title>Node18</title>
<g id="a_node18"><a xlink:href="../../d7/d56/classconfiguration_1_1_ifelse_parser.html#a4b806589536dd338338d515a0fdb67ed" target="_top" xlink:title="configuration.IfelseParser.parse">
<polygon fill="white" stroke="black" points="412,-38.5 412,-57.5 578,-57.5 578,-38.5 412,-38.5"/>
<text text-anchor="middle" x="495" y="-45.5" font-family="Helvetica,sans-Serif" font-size="10.00">configuration.IfelseParser.parse</text>
</a>
</g>
</g>
<!-- Node17&#45;&gt;Node18 -->
<g id="edge20" class="edge"><title>Node17&#45;&gt;Node18</title>
<path fill="none" stroke="midnightblue" d="M362.283,-45.6479C378.72,-45.9414 395.742,-46.2454 411.873,-46.5334"/>
<polygon fill="midnightblue" stroke="midnightblue" points="362.198,-42.1459 352.137,-45.4667 362.073,-49.1448 362.198,-42.1459"/>
</g>
<!-- Node19 -->
<g id="node19" class="node"><title>Node19</title>
<g id="a_node19"><a xlink:href="../../dc/dd1/classconfiguration_1_1_if_parser.html#ab4ed2d3b7778d2b1206e5d26ebac7976" target="_top" xlink:title="configuration.IfParser.parse">
<polygon fill="white" stroke="black" points="422,-0.5 422,-19.5 568,-19.5 568,-0.5 422,-0.5"/>
<text text-anchor="middle" x="495" y="-7.5" font-family="Helvetica,sans-Serif" font-size="10.00">configuration.IfParser.parse</text>
</a>
</g>
</g>
<!-- Node17&#45;&gt;Node19 -->
<g id="edge21" class="edge"><title>Node17&#45;&gt;Node19</title>
<path fill="none" stroke="midnightblue" d="M362.332,-29.9853C385.498,-26.4691 409.823,-22.7769 431.173,-19.5363"/>
<polygon fill="midnightblue" stroke="midnightblue" points="361.499,-26.5716 352.137,-31.5327 362.549,-33.4923 361.499,-26.5716"/>
</g>
</g>
</svg>
