<?xml version="1.0" encoding="UTF-8" standalone="no"?>
<!DOCTYPE svg PUBLIC "-//W3C//DTD SVG 1.1//EN"
 "http://www.w3.org/Graphics/SVG/1.1/DTD/svg11.dtd">
<!-- Generated by graphviz version 2.36.0 (20140111.2315)
 -->
<!-- Title: configuration.Parser.isEnd Pages: 1 -->
<!--zoomable 490 -->
<svg id="main" version="1.1" xmlns="http://www.w3.org/2000/svg" xmlns:xlink="http://www.w3.org/1999/xlink" xml:space="preserve" onload="init(evt)">
<style type="text/css"><![CDATA[
.edge:hover path { stroke: red; }
.edge:hover polygon { stroke: red; fill: red; }
]]></style>
<script type="text/javascript"><![CDATA[
var edges = document.getElementsByTagName('g');
if (edges && edges.length) {
  for (var i=0;i<edges.length;i++) {
    if (edges[i].id.substr(0,4)=='edge') {
      edges[i].setAttribute('class','edge');
    }
  }
}
]]></script>
        <defs>
                <circle id="rim" cx="0" cy="0" r="7"/>
                <circle id="rim2" cx="0" cy="0" r="3.5"/>
                <g id="zoomPlus">
                        <use xlink:href="#rim" fill="#404040">
                                <set attributeName="fill" to="#808080" begin="zoomplus.mouseover" end="zoomplus.mouseout"/>
                        </use>
                        <path d="M-4,0h8M0,-4v8" fill="none" stroke="white" stroke-width="1.5" pointer-events="none"/>
                </g>
                <g id="zoomMin">
                        <use xlink:href="#rim" fill="#404040">
                                <set attributeName="fill" to="#808080" begin="zoomminus.mouseover" end="zoomminus.mouseout"/>
                        </use>
                        <path d="M-4,0h8" fill="none" stroke="white" stroke-width="1.5" pointer-events="none"/>
                </g>
                <g id="dirArrow">
                        <path fill="none" stroke="white" stroke-width="1.5" d="M0,-3.0v7 M-2.5,-0.5L0,-3.0L2.5,-0.5"/>
                </g>
               <g id="resetDef">
                       <use xlink:href="#rim2" fill="#404040">
                               <set attributeName="fill" to="#808080" begin="reset.mouseover" end="reset.mouseout"/>
                       </use>
               </g>
        </defs>

<script type="text/javascript">
var viewWidth = 818;
var viewHeight = 490;
var sectionId = 'dynsection-13';
</script>
<script xlink:href="../../svgpan.js"/>
<svg id="graph" class="graph">
<g id="viewport">
<title>configuration.Parser.isEnd</title>
<polygon fill="white" stroke="none" points="-4,4 -4,-485.935 814,-485.935 814,4 -4,4"/>
<!-- Node1 -->
<g id="node1" class="node"><title>Node1</title>
<polygon fill="#bfbfbf" stroke="black" points="0,-218.5 0,-237.5 140,-237.5 140,-218.5 0,-218.5"/>
<text text-anchor="middle" x="70" y="-225.5" font-family="Helvetica,sans-Serif" font-size="10.00">configuration.Parser.isEnd</text>
</g>
<!-- Node2 -->
<g id="node2" class="node"><title>Node2</title>
<g id="a_node2"><a xlink:href="../../d7/d56/classconfiguration_1_1_ifelse_parser.html#a4b806589536dd338338d515a0fdb67ed" target="_top" xlink:title="configuration.IfelseParser.parse">
<polygon fill="white" stroke="black" points="418,-228.5 418,-247.5 584,-247.5 584,-228.5 418,-228.5"/>
<text text-anchor="middle" x="501" y="-235.5" font-family="Helvetica,sans-Serif" font-size="10.00">configuration.IfelseParser.parse</text>
</a>
</g>
</g>
<!-- Node1&#45;&gt;Node2 -->
<g id="edge1" class="edge"><title>Node1&#45;&gt;Node2</title>
<path fill="none" stroke="midnightblue" d="M150.415,-229.851C226.513,-231.625 340.862,-234.29 417.858,-236.085"/>
<polygon fill="midnightblue" stroke="midnightblue" points="150.482,-226.352 140.403,-229.618 150.319,-233.35 150.482,-226.352"/>
</g>
<!-- Node3 -->
<g id="node3" class="node"><title>Node3</title>
<g id="a_node3"><a xlink:href="../../d3/d0d/classconfiguration_1_1_repeat_parser.html#abf20b0ae25909c1cdff93f509830b502" target="_top" xlink:title="configuration.RepeatParser.parse">
<polygon fill="white" stroke="black" points="414,-382.5 414,-401.5 588,-401.5 588,-382.5 414,-382.5"/>
<text text-anchor="middle" x="501" y="-389.5" font-family="Helvetica,sans-Serif" font-size="10.00">configuration.RepeatParser.parse</text>
</a>
</g>
</g>
<!-- Node1&#45;&gt;Node3 -->
<g id="edge2" class="edge"><title>Node1&#45;&gt;Node3</title>
<path fill="none" stroke="midnightblue" d="M76.4674,-247.426C87.9362,-283.998 118.341,-362.246 176,-394 271.59,-446.644 408.368,-418.351 469.013,-401.559"/>
<polygon fill="midnightblue" stroke="midnightblue" points="79.7219,-246.092 73.5069,-237.511 73.0146,-248.095 79.7219,-246.092"/>
</g>
<!-- Node4 -->
<g id="node4" class="node"><title>Node4</title>
<g id="a_node4"><a xlink:href="../../d9/dfc/classconfiguration_1_1_dotimes_parser.html#abf0eb9bddfa4a09adc745008e17b293b" target="_top" xlink:title="configuration.DotimesParser.parse">
<polygon fill="white" stroke="black" points="628,-278.5 628,-297.5 810,-297.5 810,-278.5 628,-278.5"/>
<text text-anchor="middle" x="719" y="-285.5" font-family="Helvetica,sans-Serif" font-size="10.00">configuration.DotimesParser.parse</text>
</a>
</g>
</g>
<!-- Node1&#45;&gt;Node4 -->
<g id="edge3" class="edge"><title>Node1&#45;&gt;Node4</title>
<path fill="none" stroke="midnightblue" d="M74.6811,-247.569C83.6107,-288.796 110.687,-383.989 176,-423 334.796,-517.848 422.673,-485.436 592,-411 649.37,-385.78 695.656,-322.078 711.821,-297.697"/>
<polygon fill="midnightblue" stroke="midnightblue" points="78.0915,-246.776 72.6671,-237.675 71.2322,-248.172 78.0915,-246.776"/>
</g>
<!-- Node5 -->
<g id="node5" class="node"><title>Node5</title>
<g id="a_node5"><a xlink:href="../../dc/d64/classconfiguration_1_1_for_parser.html#a2737b422e279cfca7c64fd8eff57d3ff" target="_top" xlink:title="configuration.ForParser.parse">
<polygon fill="white" stroke="black" points="197,-316.5 197,-335.5 353,-335.5 353,-316.5 197,-316.5"/>
<text text-anchor="middle" x="275" y="-323.5" font-family="Helvetica,sans-Serif" font-size="10.00">configuration.ForParser.parse</text>
</a>
</g>
</g>
<!-- Node1&#45;&gt;Node5 -->
<g id="edge4" class="edge"><title>Node1&#45;&gt;Node5</title>
<path fill="none" stroke="midnightblue" d="M87.8888,-244.641C107.417,-262.881 141.344,-291.596 176,-307 184.789,-310.907 194.374,-314.013 203.996,-316.481"/>
<polygon fill="midnightblue" stroke="midnightblue" points="90.092,-241.906 80.4408,-237.535 85.2596,-246.97 90.092,-241.906"/>
</g>
<!-- Node6 -->
<g id="node6" class="node"><title>Node6</title>
<g id="a_node6"><a xlink:href="../../db/d22/classconfiguration_1_1_set_parser.html#a4f20258805caaf18872872d5283a0e74" target="_top" xlink:title="configuration.SetParser.parse">
<polygon fill="white" stroke="black" points="196,-278.5 196,-297.5 354,-297.5 354,-278.5 196,-278.5"/>
<text text-anchor="middle" x="275" y="-285.5" font-family="Helvetica,sans-Serif" font-size="10.00">configuration.SetParser.parse</text>
</a>
</g>
</g>
<!-- Node1&#45;&gt;Node6 -->
<g id="edge5" class="edge"><title>Node1&#45;&gt;Node6</title>
<path fill="none" stroke="midnightblue" d="M106.135,-240.933C126.413,-248.173 152.48,-257.103 176,-264 193.986,-269.274 214.057,-274.332 231.328,-278.433"/>
<polygon fill="midnightblue" stroke="midnightblue" points="107.277,-237.624 96.6824,-237.531 104.906,-244.21 107.277,-237.624"/>
</g>
<!-- Node7 -->
<g id="node7" class="node"><title>Node7</title>
<g id="a_node7"><a xlink:href="../../dc/dd1/classconfiguration_1_1_if_parser.html#ab4ed2d3b7778d2b1206e5d26ebac7976" target="_top" xlink:title="configuration.IfParser.parse">
<polygon fill="white" stroke="black" points="428,-177.5 428,-196.5 574,-196.5 574,-177.5 428,-177.5"/>
<text text-anchor="middle" x="501" y="-184.5" font-family="Helvetica,sans-Serif" font-size="10.00">configuration.IfParser.parse</text>
</a>
</g>
</g>
<!-- Node1&#45;&gt;Node7 -->
<g id="edge6" class="edge"><title>Node1&#45;&gt;Node7</title>
<path fill="none" stroke="midnightblue" d="M95.3789,-213.525C116.038,-202.149 146.868,-187.223 176,-181 265.13,-161.962 371.201,-169.422 437.08,-177.467"/>
<polygon fill="midnightblue" stroke="midnightblue" points="93.6311,-210.492 86.6451,-218.458 97.0736,-216.587 93.6311,-210.492"/>
</g>
<!-- Node8 -->
<g id="node8" class="node"><title>Node8</title>
<g id="a_node8"><a xlink:href="../../d9/dfc/classconfiguration_1_1_dotimes_parser.html#a6086c4c4651b29dd968bf4728bd71d0c" target="_top" xlink:title="configuration.DotimesParser.parse\lCommands">
<polygon fill="white" stroke="black" points="410,-109 410,-139 592,-139 592,-109 410,-109"/>
<text text-anchor="start" x="418" y="-127" font-family="Helvetica,sans-Serif" font-size="10.00">configuration.DotimesParser.parse</text>
<text text-anchor="middle" x="501" y="-116" font-family="Helvetica,sans-Serif" font-size="10.00">Commands</text>
</a>
</g>
</g>
<!-- Node1&#45;&gt;Node8 -->
<g id="edge7" class="edge"><title>Node1&#45;&gt;Node8</title>
<path fill="none" stroke="midnightblue" d="M91.6029,-212.388C111.923,-197.855 144.435,-176.852 176,-166 252.167,-139.813 343.524,-129.755 409.785,-125.99"/>
<polygon fill="midnightblue" stroke="midnightblue" points="89.4363,-209.637 83.4257,-218.361 93.5653,-215.289 89.4363,-209.637"/>
</g>
<!-- Node9 -->
<g id="node9" class="node"><title>Node9</title>
<g id="a_node9"><a xlink:href="../../d3/d0d/classconfiguration_1_1_repeat_parser.html#aed07d335bcd1174cb4247a7add0d3315" target="_top" xlink:title="configuration.RepeatParser.parse\lCommands">
<polygon fill="white" stroke="black" points="188,-355 188,-385 362,-385 362,-355 188,-355"/>
<text text-anchor="start" x="196" y="-373" font-family="Helvetica,sans-Serif" font-size="10.00">configuration.RepeatParser.parse</text>
<text text-anchor="middle" x="275" y="-362" font-family="Helvetica,sans-Serif" font-size="10.00">Commands</text>
</a>
</g>
</g>
<!-- Node1&#45;&gt;Node9 -->
<g id="edge9" class="edge"><title>Node1&#45;&gt;Node9</title>
<path fill="none" stroke="midnightblue" d="M82.184,-246.124C99.1762,-272.095 134.001,-319.562 176,-345 182.383,-348.866 189.348,-352.137 196.525,-354.905"/>
<polygon fill="midnightblue" stroke="midnightblue" points="85.0801,-244.156 76.7502,-237.609 79.1792,-247.922 85.0801,-244.156"/>
</g>
<!-- Node10 -->
<g id="node10" class="node"><title>Node10</title>
<g id="a_node10"><a xlink:href="../../dc/d64/classconfiguration_1_1_for_parser.html#ad3cb5184cf449bd3414f3ba73a8b3104" target="_top" xlink:title="configuration.ForParser.parse\lCommands">
<polygon fill="white" stroke="black" points="423,-14 423,-44 579,-44 579,-14 423,-14"/>
<text text-anchor="start" x="431" y="-32" font-family="Helvetica,sans-Serif" font-size="10.00">configuration.ForParser.parse</text>
<text text-anchor="middle" x="501" y="-21" font-family="Helvetica,sans-Serif" font-size="10.00">Commands</text>
</a>
</g>
</g>
<!-- Node1&#45;&gt;Node10 -->
<g id="edge11" class="edge"><title>Node1&#45;&gt;Node10</title>
<path fill="none" stroke="midnightblue" d="M77.3487,-208.746C89.9669,-173.84 121.762,-100.615 176,-67 215.956,-42.2368 340.327,-33.6105 422.837,-30.6057"/>
<polygon fill="midnightblue" stroke="midnightblue" points="74.0181,-207.668 74.0447,-218.263 80.6309,-209.964 74.0181,-207.668"/>
</g>
<!-- Node11 -->
<g id="node11" class="node"><title>Node11</title>
<g id="a_node11"><a xlink:href="../../dc/d64/classconfiguration_1_1_for_parser.html#a6bc38f731ac658c5860fe092ba7689ac" target="_top" xlink:title="configuration.ForParser.parseFor">
<polygon fill="white" stroke="black" points="189.5,-0.5 189.5,-19.5 360.5,-19.5 360.5,-0.5 189.5,-0.5"/>
<text text-anchor="middle" x="275" y="-7.5" font-family="Helvetica,sans-Serif" font-size="10.00">configuration.ForParser.parseFor</text>
</a>
</g>
</g>
<!-- Node1&#45;&gt;Node11 -->
<g id="edge12" class="edge"><title>Node1&#45;&gt;Node11</title>
<path fill="none" stroke="midnightblue" d="M75.873,-208.348C86.719,-168.865 116.702,-79.7787 176,-34 184.181,-27.6845 193.796,-23.0052 203.75,-19.5435"/>
<polygon fill="midnightblue" stroke="midnightblue" points="72.469,-207.531 73.3129,-218.092 79.2392,-209.31 72.469,-207.531"/>
</g>
<!-- Node12 -->
<g id="node12" class="node"><title>Node12</title>
<g id="a_node12"><a xlink:href="../../d9/dfc/classconfiguration_1_1_dotimes_parser.html#aff41ee5ce2eeff82f7586bd1cf6a91c8" target="_top" xlink:title="configuration.DotimesParser.parseFor">
<polygon fill="white" stroke="black" points="176.5,-76.5 176.5,-95.5 373.5,-95.5 373.5,-76.5 176.5,-76.5"/>
<text text-anchor="middle" x="275" y="-83.5" font-family="Helvetica,sans-Serif" font-size="10.00">configuration.DotimesParser.parseFor</text>
</a>
</g>
</g>
<!-- Node1&#45;&gt;Node12 -->
<g id="edge14" class="edge"><title>Node1&#45;&gt;Node12</title>
<path fill="none" stroke="midnightblue" d="M82.113,-209.665C99.0171,-183.403 133.734,-135.445 176,-110 186.58,-103.631 198.765,-98.9493 210.869,-95.5093"/>
<polygon fill="midnightblue" stroke="midnightblue" points="79.0597,-207.946 76.7101,-218.278 84.9894,-211.667 79.0597,-207.946"/>
</g>
<!-- Node13 -->
<g id="node13" class="node"><title>Node13</title>
<g id="a_node13"><a xlink:href="../../d7/d56/classconfiguration_1_1_ifelse_parser.html#aeb471eacbe15e095075bdd09619fe15d" target="_top" xlink:title="configuration.IfelseParser.parse\lListCommands">
<polygon fill="white" stroke="black" points="192,-191 192,-221 358,-221 358,-191 192,-191"/>
<text text-anchor="start" x="200" y="-209" font-family="Helvetica,sans-Serif" font-size="10.00">configuration.IfelseParser.parse</text>
<text text-anchor="middle" x="275" y="-198" font-family="Helvetica,sans-Serif" font-size="10.00">ListCommands</text>
</a>
</g>
</g>
<!-- Node1&#45;&gt;Node13 -->
<g id="edge16" class="edge"><title>Node1&#45;&gt;Node13</title>
<path fill="none" stroke="midnightblue" d="M150.31,-219.405C163.946,-217.927 178.144,-216.388 191.852,-214.903"/>
<polygon fill="midnightblue" stroke="midnightblue" points="149.574,-215.964 140.01,-220.521 150.329,-222.923 149.574,-215.964"/>
</g>
<!-- Node8&#45;&gt;Node4 -->
<g id="edge8" class="edge"><title>Node8&#45;&gt;Node4</title>
<path fill="none" stroke="midnightblue" d="M548.61,-143.449C563.042,-150.337 578.649,-158.711 592,-168 641.594,-202.505 690.602,-256.338 709.669,-278.239"/>
<polygon fill="midnightblue" stroke="midnightblue" points="549.875,-140.178 539.33,-139.143 546.928,-146.527 549.875,-140.178"/>
</g>
<!-- Node9&#45;&gt;Node3 -->
<g id="edge10" class="edge"><title>Node9&#45;&gt;Node3</title>
<path fill="none" stroke="midnightblue" d="M372.259,-379.454C386.055,-380.809 400.175,-382.196 413.761,-383.53"/>
<polygon fill="midnightblue" stroke="midnightblue" points="372.578,-375.969 362.284,-378.474 371.894,-382.935 372.578,-375.969"/>
</g>
<!-- Node11&#45;&gt;Node10 -->
<g id="edge13" class="edge"><title>Node11&#45;&gt;Node10</title>
<path fill="none" stroke="midnightblue" d="M370.838,-18.0443C388.214,-19.5182 406.155,-21.04 422.934,-22.4631"/>
<polygon fill="midnightblue" stroke="midnightblue" points="370.945,-14.5409 360.685,-17.1831 370.353,-21.5158 370.945,-14.5409"/>
</g>
<!-- Node12&#45;&gt;Node8 -->
<g id="edge15" class="edge"><title>Node12&#45;&gt;Node8</title>
<path fill="none" stroke="midnightblue" d="M342.309,-97.2489C363.983,-100.926 388.412,-105.07 411.455,-108.979"/>
<polygon fill="midnightblue" stroke="midnightblue" points="342.68,-93.7619 332.236,-95.54 341.509,-100.663 342.68,-93.7619"/>
</g>
<!-- Node13&#45;&gt;Node2 -->
<g id="edge17" class="edge"><title>Node13&#45;&gt;Node2</title>
<path fill="none" stroke="midnightblue" d="M368.086,-219.155C389.927,-222.275 412.811,-225.544 433.271,-228.467"/>
<polygon fill="midnightblue" stroke="midnightblue" points="368.532,-215.683 358.137,-217.734 367.542,-222.613 368.532,-215.683"/>
</g>
<!-- Node13&#45;&gt;Node7 -->
<g id="edge18" class="edge"><title>Node13&#45;&gt;Node7</title>
<path fill="none" stroke="midnightblue" d="M368.144,-198.184C388.059,-196.495 408.839,-194.732 427.856,-193.119"/>
<polygon fill="midnightblue" stroke="midnightblue" points="367.806,-194.7 358.137,-199.033 368.397,-201.675 367.806,-194.7"/>
</g>
</g>
</svg>
        <g id="navigator" transform="translate(0 0)" fill="#404254">
                <rect fill="#f2f5e9" fill-opacity="0.5" stroke="#606060" stroke-width=".5" x="0" y="0" width="60" height="60"/>
                <use id="zoomplus" xlink:href="#zoomPlus" x="17" y="9" onmousedown="handleZoom(evt,'in')"/>
                <use id="zoomminus" xlink:href="#zoomMin" x="42" y="9" onmousedown="handleZoom(evt,'out')"/>
                <use id="reset" xlink:href="#resetDef" x="30" y="36" onmousedown="handleReset()"/>
                <g id="arrowUp" xlink:href="#dirArrow" transform="translate(30 24)" onmousedown="handlePan(0,-1)">
                  <use xlink:href="#rim" fill="#404040">
                        <set attributeName="fill" to="#808080" begin="arrowUp.mouseover" end="arrowUp.mouseout"/>
                  </use>
                  <path fill="none" stroke="white" stroke-width="1.5" d="M0,-3.0v7 M-2.5,-0.5L0,-3.0L2.5,-0.5"/>
                </g>
                <g id="arrowRight" xlink:href="#dirArrow" transform="rotate(90) translate(36 -43)" onmousedown="handlePan(1,0)">
                  <use xlink:href="#rim" fill="#404040">
                        <set attributeName="fill" to="#808080" begin="arrowRight.mouseover" end="arrowRight.mouseout"/>
                  </use>
                  <path fill="none" stroke="white" stroke-width="1.5" d="M0,-3.0v7 M-2.5,-0.5L0,-3.0L2.5,-0.5"/>
                </g>
                <g id="arrowDown" xlink:href="#dirArrow" transform="rotate(180) translate(-30 -48)" onmousedown="handlePan(0,1)">
                  <use xlink:href="#rim" fill="#404040">
                        <set attributeName="fill" to="#808080" begin="arrowDown.mouseover" end="arrowDown.mouseout"/>
                  </use>
                  <path fill="none" stroke="white" stroke-width="1.5" d="M0,-3.0v7 M-2.5,-0.5L0,-3.0L2.5,-0.5"/>
                </g>
                <g id="arrowLeft" xlink:href="#dirArrow" transform="rotate(270) translate(-36 17)" onmousedown="handlePan(-1,0)">
                  <use xlink:href="#rim" fill="#404040">
                        <set attributeName="fill" to="#808080" begin="arrowLeft.mouseover" end="arrowLeft.mouseout"/>
                  </use>
                  <path fill="none" stroke="white" stroke-width="1.5" d="M0,-3.0v7 M-2.5,-0.5L0,-3.0L2.5,-0.5"/>
                </g>
        </g>
        <svg viewBox="0 0 15 15" width="100%" height="30px" preserveAspectRatio="xMaxYMin meet">
         <g id="arrow_out" transform="scale(0.3 0.3)">
          <a xlink:href="classconfiguration_1_1_parser_a07345acba63db50ec60293f2b38e54a6_icgraph_org.svg" target="_base">
           <rect id="button" ry="5" rx="5" y="6" x="6" height="38" width="38"
                fill="#f2f5e9" fill-opacity="0.5" stroke="#606060" stroke-width="1.0"/>
           <path id="arrow"
             d="M 11.500037,31.436501 C 11.940474,20.09759 22.043105,11.32322 32.158766,21.979434 L 37.068811,17.246167 C 37.068811,17.246167 37.088388,32 37.088388,32 L 22.160133,31.978069 C 22.160133,31.978069 26.997745,27.140456 26.997745,27.140456 C 18.528582,18.264221 13.291696,25.230495 11.500037,31.436501 z"
             style="fill:#404040;"/>
          </a>
         </g>
        </svg>
</svg>
