<?xml version="1.0" encoding="UTF-8" standalone="no"?>
<!DOCTYPE svg PUBLIC "-//W3C//DTD SVG 1.1//EN"
 "http://www.w3.org/Graphics/SVG/1.1/DTD/svg11.dtd">
<!-- Generated by graphviz version 2.36.0 (20140111.2315)
 -->
<!-- Title: gui.BackgroundView Pages: 1 -->
<svg width="355pt" height="174pt"
 viewBox="0.00 0.00 355.00 174.00" xmlns="http://www.w3.org/2000/svg" xmlns:xlink="http://www.w3.org/1999/xlink">
<g id="graph0" class="graph" transform="scale(1 1) rotate(0) translate(4 170)">
<title>gui.BackgroundView</title>
<polygon fill="white" stroke="none" points="-4,4 -4,-170 351,-170 351,4 -4,4"/>
<!-- Node1 -->
<g id="node1" class="node"><title>Node1</title>
<polygon fill="#bfbfbf" stroke="black" points="98.5,-0.5 98.5,-19.5 211.5,-19.5 211.5,-0.5 98.5,-0.5"/>
<text text-anchor="middle" x="155" y="-7.5" font-family="Helvetica,sans-Serif" font-size="10.00">gui.BackgroundView</text>
</g>
<!-- Node2 -->
<g id="node2" class="node"><title>Node2</title>
<g id="a_node2"><a xlink:href="../../d8/d8b/classgui_1_1_view.html" target="_top" xlink:title="gui.View">
<polygon fill="white" stroke="black" points="33,-68.5 33,-87.5 89,-87.5 89,-68.5 33,-68.5"/>
<text text-anchor="middle" x="61" y="-75.5" font-family="Helvetica,sans-Serif" font-size="10.00">gui.View</text>
</a>
</g>
</g>
<!-- Node2&#45;&gt;Node1 -->
<g id="edge1" class="edge"><title>Node2&#45;&gt;Node1</title>
<path fill="none" stroke="midnightblue" d="M81.7154,-62.4551C100.39,-49.3431 127.225,-30.5016 142.708,-19.6305"/>
<polygon fill="midnightblue" stroke="midnightblue" points="79.4618,-59.7609 73.2889,-68.3717 83.4842,-65.4898 79.4618,-59.7609"/>
</g>
<!-- Node3 -->
<g id="node3" class="node"><title>Node3</title>
<polygon fill="white" stroke="#bfbfbf" points="0,-146.5 0,-165.5 52,-165.5 52,-146.5 0,-146.5"/>
<text text-anchor="middle" x="26" y="-153.5" font-family="Helvetica,sans-Serif" font-size="10.00">Canvas</text>
</g>
<!-- Node3&#45;&gt;Node2 -->
<g id="edge2" class="edge"><title>Node3&#45;&gt;Node2</title>
<path fill="none" stroke="midnightblue" d="M34.2335,-137.122C41.4139,-121.53 51.5195,-99.5862 57.0319,-87.6165"/>
<polygon fill="midnightblue" stroke="midnightblue" points="31.0189,-135.735 30.0149,-146.282 37.3771,-138.663 31.0189,-135.735"/>
</g>
<!-- Node4 -->
<g id="node4" class="node"><title>Node4</title>
<polygon fill="white" stroke="#bfbfbf" points="70,-146.5 70,-165.5 124,-165.5 124,-146.5 70,-146.5"/>
<text text-anchor="middle" x="97" y="-153.5" font-family="Helvetica,sans-Serif" font-size="10.00">Point2D</text>
</g>
<!-- Node4&#45;&gt;Node2 -->
<g id="edge3" class="edge"><title>Node4&#45;&gt;Node2</title>
<path fill="none" stroke="#9a32cd" stroke-dasharray="5,2" d="M88.5313,-137.122C81.1457,-121.53 70.7513,-99.5862 65.0815,-87.6165"/>
<polygon fill="#9a32cd" stroke="#9a32cd" points="85.4263,-138.743 92.8703,-146.282 91.7525,-135.746 85.4263,-138.743"/>
<text text-anchor="middle" x="123.5" y="-120" font-family="Helvetica,sans-Serif" font-size="10.00"> DEFAULT_POINT</text>
<text text-anchor="middle" x="123.5" y="-109" font-family="Helvetica,sans-Serif" font-size="10.00">newDest</text>
</g>
<!-- Node5 -->
<g id="node5" class="node"><title>Node5</title>
<polygon fill="white" stroke="#bfbfbf" points="107,-68.5 107,-87.5 203,-87.5 203,-68.5 107,-68.5"/>
<text text-anchor="middle" x="155" y="-75.5" font-family="Helvetica,sans-Serif" font-size="10.00">GraphicsContext</text>
</g>
<!-- Node5&#45;&gt;Node1 -->
<g id="edge4" class="edge"><title>Node5&#45;&gt;Node1</title>
<path fill="none" stroke="#9a32cd" stroke-dasharray="5,2" d="M155,-58.0413C155,-45.4724 155,-29.5631 155,-19.8411"/>
<polygon fill="#9a32cd" stroke="#9a32cd" points="151.5,-58.3716 155,-68.3717 158.5,-58.3717 151.5,-58.3716"/>
<text text-anchor="middle" x="203.5" y="-41.5" font-family="Helvetica,sans-Serif" font-size="10.00"> backgroundContext</text>
</g>
<!-- Node6 -->
<g id="node6" class="node"><title>Node6</title>
<polygon fill="white" stroke="#bfbfbf" points="254.5,-68.5 254.5,-87.5 295.5,-87.5 295.5,-68.5 254.5,-68.5"/>
<text text-anchor="middle" x="275" y="-75.5" font-family="Helvetica,sans-Serif" font-size="10.00">Color</text>
</g>
<!-- Node6&#45;&gt;Node1 -->
<g id="edge5" class="edge"><title>Node6&#45;&gt;Node1</title>
<path fill="none" stroke="#9a32cd" stroke-dasharray="5,2" d="M268.403,-58.8247C264.874,-51.4029 259.824,-43.329 253,-38 241.108,-28.7129 226.228,-22.6175 211.682,-18.6179"/>
<polygon fill="#9a32cd" stroke="#9a32cd" points="265.234,-60.3222 272.294,-68.2221 271.702,-57.6438 265.234,-60.3222"/>
<text text-anchor="middle" x="305.5" y="-41.5" font-family="Helvetica,sans-Serif" font-size="10.00"> DEFAULT_COLOR</text>
</g>
</g>
</svg>
