<?xml version="1.0" encoding="UTF-8" standalone="no"?>
<!DOCTYPE svg PUBLIC "-//W3C//DTD SVG 1.1//EN"
 "http://www.w3.org/Graphics/SVG/1.1/DTD/svg11.dtd">
<!-- Generated by graphviz version 2.36.0 (20140111.2315)
 -->
<!-- Title: commands.arithmeticCommands.Sin Pages: 1 -->
<svg width="202pt" height="220pt"
 viewBox="0.00 0.00 202.00 220.00" xmlns="http://www.w3.org/2000/svg" xmlns:xlink="http://www.w3.org/1999/xlink">
<g id="graph0" class="graph" transform="scale(1 1) rotate(0) translate(4 216)">
<title>commands.arithmeticCommands.Sin</title>
<polygon fill="white" stroke="none" points="-4,4 -4,-216 198,-216 198,4 -4,4"/>
<!-- Node1 -->
<g id="node1" class="node"><title>Node1</title>
<polygon fill="#bfbfbf" stroke="black" points="-1,-0.5 -1,-19.5 195,-19.5 195,-0.5 -1,-0.5"/>
<text text-anchor="middle" x="97" y="-7.5" font-family="Helvetica,sans-Serif" font-size="10.00">commands.arithmeticCommands.Sin</text>
</g>
<!-- Node2 -->
<g id="node2" class="node"><title>Node2</title>
<g id="a_node2"><a xlink:href="../../db/d90/classcommands_1_1arithmetic_commands_1_1_calculate.html" target="_top" xlink:title="commands.arithmeticCommands.\lCalculate">
<polygon fill="white" stroke="black" points="6.5,-57 6.5,-87 187.5,-87 187.5,-57 6.5,-57"/>
<text text-anchor="start" x="14.5" y="-75" font-family="Helvetica,sans-Serif" font-size="10.00">commands.arithmeticCommands.</text>
<text text-anchor="middle" x="97" y="-64" font-family="Helvetica,sans-Serif" font-size="10.00">Calculate</text>
</a>
</g>
</g>
<!-- Node2&#45;&gt;Node1 -->
<g id="edge1" class="edge"><title>Node2&#45;&gt;Node1</title>
<path fill="none" stroke="midnightblue" d="M97,-46.5858C97,-37.0743 97,-26.7864 97,-19.7305"/>
<polygon fill="midnightblue" stroke="midnightblue" points="93.5001,-46.7808 97,-56.7808 100.5,-46.7809 93.5001,-46.7808"/>
</g>
<!-- Node3 -->
<g id="node3" class="node"><title>Node3</title>
<g id="a_node3"><a xlink:href="../../dc/d3e/classcommands_1_1_command_center.html" target="_top" xlink:title="commands.CommandCenter">
<polygon fill="white" stroke="black" points="19,-124.5 19,-143.5 175,-143.5 175,-124.5 19,-124.5"/>
<text text-anchor="middle" x="97" y="-131.5" font-family="Helvetica,sans-Serif" font-size="10.00">commands.CommandCenter</text>
</a>
</g>
</g>
<!-- Node3&#45;&gt;Node2 -->
<g id="edge2" class="edge"><title>Node3&#45;&gt;Node2</title>
<path fill="none" stroke="midnightblue" d="M97,-114.371C97,-105.585 97,-95.2721 97,-87.1408"/>
<polygon fill="midnightblue" stroke="midnightblue" points="93.5001,-114.403 97,-124.403 100.5,-114.403 93.5001,-114.403"/>
</g>
<!-- Node4 -->
<g id="node4" class="node"><title>Node4</title>
<g id="a_node4"><a xlink:href="../../d1/d4d/interfacecommands_1_1view_commands_1_1turtle_commands_1_1_executable.html" target="_top" xlink:title="commands.viewCommands.turtle\lCommands.Executable">
<polygon fill="white" stroke="black" points="8,-181 8,-211 186,-211 186,-181 8,-181"/>
<text text-anchor="start" x="16" y="-199" font-family="Helvetica,sans-Serif" font-size="10.00">commands.viewCommands.turtle</text>
<text text-anchor="middle" x="97" y="-188" font-family="Helvetica,sans-Serif" font-size="10.00">Commands.Executable</text>
</a>
</g>
</g>
<!-- Node4&#45;&gt;Node3 -->
<g id="edge3" class="edge"><title>Node4&#45;&gt;Node3</title>
<path fill="none" stroke="midnightblue" d="M97,-170.586C97,-161.074 97,-150.786 97,-143.731"/>
<polygon fill="midnightblue" stroke="midnightblue" points="93.5001,-170.781 97,-180.781 100.5,-170.781 93.5001,-170.781"/>
</g>
</g>
</svg>
