<?xml version="1.0" encoding="UTF-8" standalone="no"?>
<!DOCTYPE svg PUBLIC "-//W3C//DTD SVG 1.1//EN"
 "http://www.w3.org/Graphics/SVG/1.1/DTD/svg11.dtd">
<!-- Generated by graphviz version 2.36.0 (20140111.2315)
 -->
<!-- Title: commands.viewCommands.turtleCommands.TurtleCommands Pages: 1 -->
<svg width="1020pt" height="577pt"
 viewBox="0.00 0.00 1020.00 577.00" xmlns="http://www.w3.org/2000/svg" xmlns:xlink="http://www.w3.org/1999/xlink">
<g id="graph0" class="graph" transform="scale(1 1) rotate(0) translate(4 573)">
<title>commands.viewCommands.turtleCommands.TurtleCommands</title>
<polygon fill="white" stroke="none" points="-4,4 -4,-573 1016,-573 1016,4 -4,4"/>
<!-- Node1 -->
<g id="node1" class="node"><title>Node1</title>
<polygon fill="#bfbfbf" stroke="black" points="406,-245 406,-275 584,-275 584,-245 406,-245"/>
<text text-anchor="start" x="414" y="-263" font-family="Helvetica,sans-Serif" font-size="10.00">commands.viewCommands.turtle</text>
<text text-anchor="middle" x="495" y="-252" font-family="Helvetica,sans-Serif" font-size="10.00">Commands.TurtleCommands</text>
</g>
<!-- Node4 -->
<g id="node4" class="node"><title>Node4</title>
<g id="a_node4"><a xlink:href="../../d5/d60/classcommands_1_1view_commands_1_1turtle_commands_1_1_display.html" target="_top" xlink:title="commands.viewCommands.turtle\lCommands.Display">
<polygon fill="white" stroke="black" points="620,-490 620,-520 798,-520 798,-490 620,-490"/>
<text text-anchor="start" x="628" y="-508" font-family="Helvetica,sans-Serif" font-size="10.00">commands.viewCommands.turtle</text>
<text text-anchor="middle" x="709" y="-497" font-family="Helvetica,sans-Serif" font-size="10.00">Commands.Display</text>
</a>
</g>
</g>
<!-- Node1&#45;&gt;Node4 -->
<g id="edge3" class="edge"><title>Node1&#45;&gt;Node4</title>
<path fill="none" stroke="midnightblue" d="M503.07,-284.911C517.347,-330.636 554.016,-428.027 620,-480 624.866,-483.833 630.292,-487.078 635.994,-489.826"/>
<polygon fill="midnightblue" stroke="midnightblue" points="506.382,-283.771 500.138,-275.212 499.681,-285.797 506.382,-283.771"/>
</g>
<!-- Node5 -->
<g id="node5" class="node"><title>Node5</title>
<g id="a_node5"><a xlink:href="../../d6/d64/classcommands_1_1view_commands_1_1turtle_commands_1_1_heading.html" target="_top" xlink:title="commands.viewCommands.turtle\lCommands.Heading">
<polygon fill="white" stroke="black" points="620,-441 620,-471 798,-471 798,-441 620,-441"/>
<text text-anchor="start" x="628" y="-459" font-family="Helvetica,sans-Serif" font-size="10.00">commands.viewCommands.turtle</text>
<text text-anchor="middle" x="709" y="-448" font-family="Helvetica,sans-Serif" font-size="10.00">Commands.Heading</text>
</a>
</g>
</g>
<!-- Node1&#45;&gt;Node5 -->
<g id="edge4" class="edge"><title>Node1&#45;&gt;Node5</title>
<path fill="none" stroke="midnightblue" d="M507.041,-284.322C525.209,-321.586 564.958,-392.522 620,-431 625.467,-434.822 631.509,-438.063 637.79,-440.81"/>
<polygon fill="midnightblue" stroke="midnightblue" points="510.15,-282.711 502.692,-275.186 503.83,-285.72 510.15,-282.711"/>
</g>
<!-- Node6 -->
<g id="node6" class="node"><title>Node6</title>
<g id="a_node6"><a xlink:href="../../dd/da6/classcommands_1_1view_commands_1_1turtle_commands_1_1_move.html" target="_top" xlink:title="commands.viewCommands.turtle\lCommands.Move">
<polygon fill="white" stroke="black" points="620,-392 620,-422 798,-422 798,-392 620,-392"/>
<text text-anchor="start" x="628" y="-410" font-family="Helvetica,sans-Serif" font-size="10.00">commands.viewCommands.turtle</text>
<text text-anchor="middle" x="709" y="-399" font-family="Helvetica,sans-Serif" font-size="10.00">Commands.Move</text>
</a>
</g>
</g>
<!-- Node1&#45;&gt;Node6 -->
<g id="edge5" class="edge"><title>Node1&#45;&gt;Node6</title>
<path fill="none" stroke="midnightblue" d="M513.411,-283.129C535.328,-310.651 575.528,-356.12 620,-382 626.589,-385.834 633.801,-389.11 641.17,-391.901"/>
<polygon fill="midnightblue" stroke="midnightblue" points="516.131,-280.925 507.212,-275.206 510.618,-285.239 516.131,-280.925"/>
</g>
<!-- Node11 -->
<g id="node11" class="node"><title>Node11</title>
<g id="a_node11"><a xlink:href="../../d3/dba/classcommands_1_1view_commands_1_1turtle_commands_1_1_rotate.html" target="_top" xlink:title="commands.viewCommands.turtle\lCommands.Rotate">
<polygon fill="white" stroke="black" points="620,-343 620,-373 798,-373 798,-343 620,-343"/>
<text text-anchor="start" x="628" y="-361" font-family="Helvetica,sans-Serif" font-size="10.00">commands.viewCommands.turtle</text>
<text text-anchor="middle" x="709" y="-350" font-family="Helvetica,sans-Serif" font-size="10.00">Commands.Rotate</text>
</a>
</g>
</g>
<!-- Node1&#45;&gt;Node11 -->
<g id="edge10" class="edge"><title>Node1&#45;&gt;Node11</title>
<path fill="none" stroke="midnightblue" d="M526.405,-280.881C550.823,-296.904 586.455,-318.642 620,-333 628.615,-336.687 637.933,-340.003 647.172,-342.922"/>
<polygon fill="midnightblue" stroke="midnightblue" points="528.207,-277.877 517.94,-275.261 524.335,-283.709 528.207,-277.877"/>
</g>
<!-- Node16 -->
<g id="node16" class="node"><title>Node16</title>
<g id="a_node16"><a xlink:href="../../d8/db2/classcommands_1_1view_commands_1_1turtle_commands_1_1_run_u_d.html" target="_top" xlink:title="commands.viewCommands.turtle\lCommands.RunUD">
<polygon fill="white" stroke="black" points="620,-294 620,-324 798,-324 798,-294 620,-294"/>
<text text-anchor="start" x="628" y="-312" font-family="Helvetica,sans-Serif" font-size="10.00">commands.viewCommands.turtle</text>
<text text-anchor="middle" x="709" y="-301" font-family="Helvetica,sans-Serif" font-size="10.00">Commands.RunUD</text>
</a>
</g>
</g>
<!-- Node1&#45;&gt;Node16 -->
<g id="edge15" class="edge"><title>Node1&#45;&gt;Node16</title>
<path fill="none" stroke="midnightblue" d="M570.983,-277.331C594.52,-282.771 620.295,-288.729 643.075,-293.994"/>
<polygon fill="midnightblue" stroke="midnightblue" points="571.579,-273.877 561.048,-275.035 570.003,-280.697 571.579,-273.877"/>
</g>
<!-- Node17 -->
<g id="node17" class="node"><title>Node17</title>
<g id="a_node17"><a xlink:href="../../de/d3c/classcommands_1_1view_commands_1_1turtle_commands_1_1_set.html" target="_top" xlink:title="commands.viewCommands.turtle\lCommands.Set">
<polygon fill="white" stroke="black" points="620,-245 620,-275 798,-275 798,-245 620,-245"/>
<text text-anchor="start" x="628" y="-263" font-family="Helvetica,sans-Serif" font-size="10.00">commands.viewCommands.turtle</text>
<text text-anchor="middle" x="709" y="-252" font-family="Helvetica,sans-Serif" font-size="10.00">Commands.Set</text>
</a>
</g>
</g>
<!-- Node1&#45;&gt;Node17 -->
<g id="edge16" class="edge"><title>Node1&#45;&gt;Node17</title>
<path fill="none" stroke="midnightblue" d="M594.107,-260C602.7,-260 611.363,-260 619.868,-260"/>
<polygon fill="midnightblue" stroke="midnightblue" points="594.065,-256.5 584.065,-260 594.065,-263.5 594.065,-256.5"/>
</g>
<!-- Node18 -->
<g id="node18" class="node"><title>Node18</title>
<g id="a_node18"><a xlink:href="../../db/d73/classcommands_1_1view_commands_1_1turtle_commands_1_1_set_background.html" target="_top" xlink:title="commands.viewCommands.turtle\lCommands.SetBackground">
<polygon fill="white" stroke="black" points="620,-196 620,-226 798,-226 798,-196 620,-196"/>
<text text-anchor="start" x="628" y="-214" font-family="Helvetica,sans-Serif" font-size="10.00">commands.viewCommands.turtle</text>
<text text-anchor="middle" x="709" y="-203" font-family="Helvetica,sans-Serif" font-size="10.00">Commands.SetBackground</text>
</a>
</g>
</g>
<!-- Node1&#45;&gt;Node18 -->
<g id="edge17" class="edge"><title>Node1&#45;&gt;Node18</title>
<path fill="none" stroke="midnightblue" d="M570.983,-242.669C594.52,-237.229 620.295,-231.271 643.075,-226.006"/>
<polygon fill="midnightblue" stroke="midnightblue" points="570.003,-239.303 561.048,-244.965 571.579,-246.123 570.003,-239.303"/>
</g>
<!-- Node19 -->
<g id="node19" class="node"><title>Node19</title>
<g id="a_node19"><a xlink:href="../../df/df5/classcommands_1_1view_commands_1_1turtle_commands_1_1_showing.html" target="_top" xlink:title="commands.viewCommands.turtle\lCommands.Showing">
<polygon fill="white" stroke="black" points="620,-147 620,-177 798,-177 798,-147 620,-147"/>
<text text-anchor="start" x="628" y="-165" font-family="Helvetica,sans-Serif" font-size="10.00">commands.viewCommands.turtle</text>
<text text-anchor="middle" x="709" y="-154" font-family="Helvetica,sans-Serif" font-size="10.00">Commands.Showing</text>
</a>
</g>
</g>
<!-- Node1&#45;&gt;Node19 -->
<g id="edge18" class="edge"><title>Node1&#45;&gt;Node19</title>
<path fill="none" stroke="midnightblue" d="M525.876,-239.007C550.258,-222.669 586.098,-200.419 620,-186 627.723,-182.715 636.021,-179.762 644.323,-177.143"/>
<polygon fill="midnightblue" stroke="midnightblue" points="523.746,-236.222 517.436,-244.733 527.677,-242.015 523.746,-236.222"/>
</g>
<!-- Node20 -->
<g id="node20" class="node"><title>Node20</title>
<g id="a_node20"><a xlink:href="../../df/d7a/classcommands_1_1view_commands_1_1turtle_commands_1_1_turt_screen.html" target="_top" xlink:title="commands.viewCommands.turtle\lCommands.TurtScreen">
<polygon fill="white" stroke="black" points="620,-98 620,-128 798,-128 798,-98 620,-98"/>
<text text-anchor="start" x="628" y="-116" font-family="Helvetica,sans-Serif" font-size="10.00">commands.viewCommands.turtle</text>
<text text-anchor="middle" x="709" y="-105" font-family="Helvetica,sans-Serif" font-size="10.00">Commands.TurtScreen</text>
</a>
</g>
</g>
<!-- Node1&#45;&gt;Node20 -->
<g id="edge19" class="edge"><title>Node1&#45;&gt;Node20</title>
<path fill="none" stroke="midnightblue" d="M513.323,-236.596C535.152,-208.765 575.265,-162.84 620,-137 625.896,-133.594 632.295,-130.655 638.86,-128.123"/>
<polygon fill="midnightblue" stroke="midnightblue" points="510.48,-234.552 507.151,-244.61 516.025,-238.823 510.48,-234.552"/>
</g>
<!-- Node24 -->
<g id="node24" class="node"><title>Node24</title>
<g id="a_node24"><a xlink:href="../../d2/dc3/classcommands_1_1view_commands_1_1turtle_commands_1_1_x_cor.html" target="_top" xlink:title="commands.viewCommands.turtle\lCommands.XCor">
<polygon fill="white" stroke="black" points="620,-49 620,-79 798,-79 798,-49 620,-49"/>
<text text-anchor="start" x="628" y="-67" font-family="Helvetica,sans-Serif" font-size="10.00">commands.viewCommands.turtle</text>
<text text-anchor="middle" x="709" y="-56" font-family="Helvetica,sans-Serif" font-size="10.00">Commands.XCor</text>
</a>
</g>
</g>
<!-- Node1&#45;&gt;Node24 -->
<g id="edge23" class="edge"><title>Node1&#45;&gt;Node24</title>
<path fill="none" stroke="midnightblue" d="M506.818,-235.746C524.805,-198.246 564.458,-126.507 620,-88 624.945,-84.5715 630.362,-81.6319 636,-79.1118"/>
<polygon fill="midnightblue" stroke="midnightblue" points="503.588,-234.39 502.519,-244.931 509.928,-237.358 503.588,-234.39"/>
</g>
<!-- Node25 -->
<g id="node25" class="node"><title>Node25</title>
<g id="a_node25"><a xlink:href="../../de/d9a/classcommands_1_1view_commands_1_1turtle_commands_1_1_y_cor.html" target="_top" xlink:title="commands.viewCommands.turtle\lCommands.YCor">
<polygon fill="white" stroke="black" points="620,-0 620,-30 798,-30 798,-0 620,-0"/>
<text text-anchor="start" x="628" y="-18" font-family="Helvetica,sans-Serif" font-size="10.00">commands.viewCommands.turtle</text>
<text text-anchor="middle" x="709" y="-7" font-family="Helvetica,sans-Serif" font-size="10.00">Commands.YCor</text>
</a>
</g>
</g>
<!-- Node1&#45;&gt;Node25 -->
<g id="edge24" class="edge"><title>Node1&#45;&gt;Node25</title>
<path fill="none" stroke="midnightblue" d="M502.882,-235.245C516.943,-189.345 553.404,-90.9923 620,-39 624.369,-35.5892 629.188,-32.6625 634.252,-30.1512"/>
<polygon fill="midnightblue" stroke="midnightblue" points="499.486,-234.387 500,-244.969 506.197,-236.376 499.486,-234.387"/>
</g>
<!-- Node2 -->
<g id="node2" class="node"><title>Node2</title>
<g id="a_node2"><a xlink:href="../../dc/d3e/classcommands_1_1_command_center.html" target="_top" xlink:title="commands.CommandCenter">
<polygon fill="white" stroke="black" points="214,-250.5 214,-269.5 370,-269.5 370,-250.5 214,-250.5"/>
<text text-anchor="middle" x="292" y="-257.5" font-family="Helvetica,sans-Serif" font-size="10.00">commands.CommandCenter</text>
</a>
</g>
</g>
<!-- Node2&#45;&gt;Node1 -->
<g id="edge1" class="edge"><title>Node2&#45;&gt;Node1</title>
<path fill="none" stroke="midnightblue" d="M380.312,-260C388.718,-260 397.249,-260 405.665,-260"/>
<polygon fill="midnightblue" stroke="midnightblue" points="380.137,-256.5 370.137,-260 380.137,-263.5 380.137,-256.5"/>
</g>
<!-- Node3 -->
<g id="node3" class="node"><title>Node3</title>
<g id="a_node3"><a xlink:href="../../d1/d4d/interfacecommands_1_1view_commands_1_1turtle_commands_1_1_executable.html" target="_top" xlink:title="commands.viewCommands.turtle\lCommands.Executable">
<polygon fill="white" stroke="black" points="0,-245 0,-275 178,-275 178,-245 0,-245"/>
<text text-anchor="start" x="8" y="-263" font-family="Helvetica,sans-Serif" font-size="10.00">commands.viewCommands.turtle</text>
<text text-anchor="middle" x="89" y="-252" font-family="Helvetica,sans-Serif" font-size="10.00">Commands.Executable</text>
</a>
</g>
</g>
<!-- Node3&#45;&gt;Node2 -->
<g id="edge2" class="edge"><title>Node3&#45;&gt;Node2</title>
<path fill="none" stroke="midnightblue" d="M188.259,-260C196.882,-260 205.527,-260 213.94,-260"/>
<polygon fill="midnightblue" stroke="midnightblue" points="188.162,-256.5 178.162,-260 188.161,-263.5 188.162,-256.5"/>
</g>
<!-- Node7 -->
<g id="node7" class="node"><title>Node7</title>
<g id="a_node7"><a xlink:href="../../dd/de5/classcommands_1_1view_commands_1_1turtle_commands_1_1_backward.html" target="_top" xlink:title="commands.viewCommands.turtle\lCommands.Backward">
<polygon fill="white" stroke="black" points="834,-539 834,-569 1012,-569 1012,-539 834,-539"/>
<text text-anchor="start" x="842" y="-557" font-family="Helvetica,sans-Serif" font-size="10.00">commands.viewCommands.turtle</text>
<text text-anchor="middle" x="923" y="-546" font-family="Helvetica,sans-Serif" font-size="10.00">Commands.Backward</text>
</a>
</g>
</g>
<!-- Node6&#45;&gt;Node7 -->
<g id="edge6" class="edge"><title>Node6&#45;&gt;Node7</title>
<path fill="none" stroke="midnightblue" d="M792.622,-427.56C794.496,-428.945 796.294,-430.423 798,-432 831.768,-463.214 800.232,-497.786 834,-529 838.199,-532.881 842.957,-536.165 848.034,-538.943"/>
<polygon fill="midnightblue" stroke="midnightblue" points="794.283,-424.468 783.966,-422.057 790.528,-430.376 794.283,-424.468"/>
</g>
<!-- Node8 -->
<g id="node8" class="node"><title>Node8</title>
<g id="a_node8"><a xlink:href="../../d6/d7a/classcommands_1_1view_commands_1_1turtle_commands_1_1_forward.html" target="_top" xlink:title="commands.viewCommands.turtle\lCommands.Forward">
<polygon fill="white" stroke="black" points="834,-490 834,-520 1012,-520 1012,-490 834,-490"/>
<text text-anchor="start" x="842" y="-508" font-family="Helvetica,sans-Serif" font-size="10.00">commands.viewCommands.turtle</text>
<text text-anchor="middle" x="923" y="-497" font-family="Helvetica,sans-Serif" font-size="10.00">Commands.Forward</text>
</a>
</g>
</g>
<!-- Node6&#45;&gt;Node8 -->
<g id="edge7" class="edge"><title>Node6&#45;&gt;Node8</title>
<path fill="none" stroke="midnightblue" d="M788.87,-426.479C792.038,-428.169 795.098,-430.006 798,-432 819.978,-447.102 812.022,-464.898 834,-480 839.629,-483.868 845.849,-487.141 852.304,-489.912"/>
<polygon fill="midnightblue" stroke="midnightblue" points="790.227,-423.248 779.696,-422.088 787.206,-429.562 790.227,-423.248"/>
</g>
<!-- Node9 -->
<g id="node9" class="node"><title>Node9</title>
<g id="a_node9"><a xlink:href="../../d7/dae/classcommands_1_1view_commands_1_1turtle_commands_1_1_go_to_location.html" target="_top" xlink:title="commands.viewCommands.turtle\lCommands.GoToLocation">
<polygon fill="white" stroke="black" points="834,-441 834,-471 1012,-471 1012,-441 834,-441"/>
<text text-anchor="start" x="842" y="-459" font-family="Helvetica,sans-Serif" font-size="10.00">commands.viewCommands.turtle</text>
<text text-anchor="middle" x="923" y="-448" font-family="Helvetica,sans-Serif" font-size="10.00">Commands.GoToLocation</text>
</a>
</g>
</g>
<!-- Node6&#45;&gt;Node9 -->
<g id="edge8" class="edge"><title>Node6&#45;&gt;Node9</title>
<path fill="none" stroke="midnightblue" d="M784.983,-424.331C808.52,-429.771 834.295,-435.729 857.075,-440.994"/>
<polygon fill="midnightblue" stroke="midnightblue" points="785.579,-420.877 775.048,-422.035 784.003,-427.697 785.579,-420.877"/>
</g>
<!-- Node10 -->
<g id="node10" class="node"><title>Node10</title>
<g id="a_node10"><a xlink:href="../../de/dc5/classcommands_1_1view_commands_1_1turtle_commands_1_1_home.html" target="_top" xlink:title="commands.viewCommands.turtle\lCommands.Home">
<polygon fill="white" stroke="black" points="834,-392 834,-422 1012,-422 1012,-392 834,-392"/>
<text text-anchor="start" x="842" y="-410" font-family="Helvetica,sans-Serif" font-size="10.00">commands.viewCommands.turtle</text>
<text text-anchor="middle" x="923" y="-399" font-family="Helvetica,sans-Serif" font-size="10.00">Commands.Home</text>
</a>
</g>
</g>
<!-- Node6&#45;&gt;Node10 -->
<g id="edge9" class="edge"><title>Node6&#45;&gt;Node10</title>
<path fill="none" stroke="midnightblue" d="M808.107,-407C816.7,-407 825.363,-407 833.868,-407"/>
<polygon fill="midnightblue" stroke="midnightblue" points="808.065,-403.5 798.065,-407 808.065,-410.5 808.065,-403.5"/>
</g>
<!-- Node12 -->
<g id="node12" class="node"><title>Node12</title>
<g id="a_node12"><a xlink:href="../../df/d03/classcommands_1_1view_commands_1_1turtle_commands_1_1_go_towards_loc.html" target="_top" xlink:title="commands.viewCommands.turtle\lCommands.GoTowardsLoc">
<polygon fill="white" stroke="black" points="834,-343 834,-373 1012,-373 1012,-343 834,-343"/>
<text text-anchor="start" x="842" y="-361" font-family="Helvetica,sans-Serif" font-size="10.00">commands.viewCommands.turtle</text>
<text text-anchor="middle" x="923" y="-350" font-family="Helvetica,sans-Serif" font-size="10.00">Commands.GoTowardsLoc</text>
</a>
</g>
</g>
<!-- Node11&#45;&gt;Node12 -->
<g id="edge11" class="edge"><title>Node11&#45;&gt;Node12</title>
<path fill="none" stroke="midnightblue" d="M808.107,-358C816.7,-358 825.363,-358 833.868,-358"/>
<polygon fill="midnightblue" stroke="midnightblue" points="808.065,-354.5 798.065,-358 808.065,-361.5 808.065,-354.5"/>
</g>
<!-- Node13 -->
<g id="node13" class="node"><title>Node13</title>
<g id="a_node13"><a xlink:href="../../da/d51/classcommands_1_1view_commands_1_1turtle_commands_1_1_left.html" target="_top" xlink:title="commands.viewCommands.turtle\lCommands.Left">
<polygon fill="white" stroke="black" points="834,-294 834,-324 1012,-324 1012,-294 834,-294"/>
<text text-anchor="start" x="842" y="-312" font-family="Helvetica,sans-Serif" font-size="10.00">commands.viewCommands.turtle</text>
<text text-anchor="middle" x="923" y="-301" font-family="Helvetica,sans-Serif" font-size="10.00">Commands.Left</text>
</a>
</g>
</g>
<!-- Node11&#45;&gt;Node13 -->
<g id="edge12" class="edge"><title>Node11&#45;&gt;Node13</title>
<path fill="none" stroke="midnightblue" d="M784.983,-340.669C808.52,-335.229 834.295,-329.271 857.075,-324.006"/>
<polygon fill="midnightblue" stroke="midnightblue" points="784.003,-337.303 775.048,-342.965 785.579,-344.123 784.003,-337.303"/>
</g>
<!-- Node14 -->
<g id="node14" class="node"><title>Node14</title>
<g id="a_node14"><a xlink:href="../../dc/d1a/classcommands_1_1view_commands_1_1turtle_commands_1_1_right.html" target="_top" xlink:title="commands.viewCommands.turtle\lCommands.Right">
<polygon fill="white" stroke="black" points="834,-245 834,-275 1012,-275 1012,-245 834,-245"/>
<text text-anchor="start" x="842" y="-263" font-family="Helvetica,sans-Serif" font-size="10.00">commands.viewCommands.turtle</text>
<text text-anchor="middle" x="923" y="-252" font-family="Helvetica,sans-Serif" font-size="10.00">Commands.Right</text>
</a>
</g>
</g>
<!-- Node11&#45;&gt;Node14 -->
<g id="edge13" class="edge"><title>Node11&#45;&gt;Node14</title>
<path fill="none" stroke="midnightblue" d="M788.87,-338.521C792.038,-336.831 795.098,-334.994 798,-333 819.978,-317.898 812.022,-300.102 834,-285 839.629,-281.132 845.849,-277.859 852.304,-275.088"/>
<polygon fill="midnightblue" stroke="midnightblue" points="787.206,-335.438 779.696,-342.912 790.227,-341.752 787.206,-335.438"/>
</g>
<!-- Node15 -->
<g id="node15" class="node"><title>Node15</title>
<g id="a_node15"><a xlink:href="../../df/ded/classcommands_1_1view_commands_1_1turtle_commands_1_1_set_heading.html" target="_top" xlink:title="commands.viewCommands.turtle\lCommands.SetHeading">
<polygon fill="white" stroke="black" points="834,-196 834,-226 1012,-226 1012,-196 834,-196"/>
<text text-anchor="start" x="842" y="-214" font-family="Helvetica,sans-Serif" font-size="10.00">commands.viewCommands.turtle</text>
<text text-anchor="middle" x="923" y="-203" font-family="Helvetica,sans-Serif" font-size="10.00">Commands.SetHeading</text>
</a>
</g>
</g>
<!-- Node11&#45;&gt;Node15 -->
<g id="edge14" class="edge"><title>Node11&#45;&gt;Node15</title>
<path fill="none" stroke="midnightblue" d="M792.629,-337.448C794.501,-336.06 796.297,-334.58 798,-333 832.022,-301.447 799.812,-266.374 834,-235 837.734,-231.574 841.909,-228.629 846.357,-226.099"/>
<polygon fill="midnightblue" stroke="midnightblue" points="790.534,-334.633 783.981,-342.958 794.295,-340.537 790.534,-334.633"/>
</g>
<!-- Node21 -->
<g id="node21" class="node"><title>Node21</title>
<g id="a_node21"><a xlink:href="../../d5/de0/classcommands_1_1view_commands_1_1turtle_commands_1_1_clear_screen.html" target="_top" xlink:title="commands.viewCommands.turtle\lCommands.ClearScreen">
<polygon fill="white" stroke="black" points="834,-147 834,-177 1012,-177 1012,-147 834,-147"/>
<text text-anchor="start" x="842" y="-165" font-family="Helvetica,sans-Serif" font-size="10.00">commands.viewCommands.turtle</text>
<text text-anchor="middle" x="923" y="-154" font-family="Helvetica,sans-Serif" font-size="10.00">Commands.ClearScreen</text>
</a>
</g>
</g>
<!-- Node20&#45;&gt;Node21 -->
<g id="edge20" class="edge"><title>Node20&#45;&gt;Node21</title>
<path fill="none" stroke="midnightblue" d="M784.983,-130.331C808.52,-135.771 834.295,-141.729 857.075,-146.994"/>
<polygon fill="midnightblue" stroke="midnightblue" points="785.579,-126.877 775.048,-128.035 784.003,-133.697 785.579,-126.877"/>
</g>
<!-- Node22 -->
<g id="node22" class="node"><title>Node22</title>
<g id="a_node22"><a xlink:href="../../d9/d59/classcommands_1_1view_commands_1_1turtle_commands_1_1_hide_turtle.html" target="_top" xlink:title="commands.viewCommands.turtle\lCommands.HideTurtle">
<polygon fill="white" stroke="black" points="834,-98 834,-128 1012,-128 1012,-98 834,-98"/>
<text text-anchor="start" x="842" y="-116" font-family="Helvetica,sans-Serif" font-size="10.00">commands.viewCommands.turtle</text>
<text text-anchor="middle" x="923" y="-105" font-family="Helvetica,sans-Serif" font-size="10.00">Commands.HideTurtle</text>
</a>
</g>
</g>
<!-- Node20&#45;&gt;Node22 -->
<g id="edge21" class="edge"><title>Node20&#45;&gt;Node22</title>
<path fill="none" stroke="midnightblue" d="M808.107,-113C816.7,-113 825.363,-113 833.868,-113"/>
<polygon fill="midnightblue" stroke="midnightblue" points="808.065,-109.5 798.065,-113 808.065,-116.5 808.065,-109.5"/>
</g>
<!-- Node23 -->
<g id="node23" class="node"><title>Node23</title>
<g id="a_node23"><a xlink:href="../../dd/db2/classcommands_1_1view_commands_1_1turtle_commands_1_1_show_turtle.html" target="_top" xlink:title="commands.viewCommands.turtle\lCommands.ShowTurtle">
<polygon fill="white" stroke="black" points="834,-49 834,-79 1012,-79 1012,-49 834,-49"/>
<text text-anchor="start" x="842" y="-67" font-family="Helvetica,sans-Serif" font-size="10.00">commands.viewCommands.turtle</text>
<text text-anchor="middle" x="923" y="-56" font-family="Helvetica,sans-Serif" font-size="10.00">Commands.ShowTurtle</text>
</a>
</g>
</g>
<!-- Node20&#45;&gt;Node23 -->
<g id="edge22" class="edge"><title>Node20&#45;&gt;Node23</title>
<path fill="none" stroke="midnightblue" d="M784.983,-95.6691C808.52,-90.2288 834.295,-84.2715 857.075,-79.0062"/>
<polygon fill="midnightblue" stroke="midnightblue" points="784.003,-92.3033 775.048,-97.9654 785.579,-99.1235 784.003,-92.3033"/>
</g>
</g>
</svg>
