<?xml version="1.0" encoding="UTF-8" standalone="no"?>
<!DOCTYPE svg PUBLIC "-//W3C//DTD SVG 1.1//EN"
 "http://www.w3.org/Graphics/SVG/1.1/DTD/svg11.dtd">
<!-- Generated by graphviz version 2.36.0 (20140111.2315)
 -->
<!-- Title: commands.viewCommands.turtleCommands.TurtleCommands Pages: 1 -->
<!--zoomable 626 -->
<svg id="main" version="1.1" xmlns="http://www.w3.org/2000/svg" xmlns:xlink="http://www.w3.org/1999/xlink" xml:space="preserve" onload="init(evt)">
<style type="text/css"><![CDATA[
.edge:hover path { stroke: red; }
.edge:hover polygon { stroke: red; fill: red; }
]]></style>
<script type="text/javascript"><![CDATA[
var edges = document.getElementsByTagName('g');
if (edges && edges.length) {
  for (var i=0;i<edges.length;i++) {
    if (edges[i].id.substr(0,4)=='edge') {
      edges[i].setAttribute('class','edge');
    }
  }
}
]]></script>
        <defs>
                <circle id="rim" cx="0" cy="0" r="7"/>
                <circle id="rim2" cx="0" cy="0" r="3.5"/>
                <g id="zoomPlus">
                        <use xlink:href="#rim" fill="#404040">
                                <set attributeName="fill" to="#808080" begin="zoomplus.mouseover" end="zoomplus.mouseout"/>
                        </use>
                        <path d="M-4,0h8M0,-4v8" fill="none" stroke="white" stroke-width="1.5" pointer-events="none"/>
                </g>
                <g id="zoomMin">
                        <use xlink:href="#rim" fill="#404040">
                                <set attributeName="fill" to="#808080" begin="zoomminus.mouseover" end="zoomminus.mouseout"/>
                        </use>
                        <path d="M-4,0h8" fill="none" stroke="white" stroke-width="1.5" pointer-events="none"/>
                </g>
                <g id="dirArrow">
                        <path fill="none" stroke="white" stroke-width="1.5" d="M0,-3.0v7 M-2.5,-0.5L0,-3.0L2.5,-0.5"/>
                </g>
               <g id="resetDef">
                       <use xlink:href="#rim2" fill="#404040">
                               <set attributeName="fill" to="#808080" begin="reset.mouseover" end="reset.mouseout"/>
                       </use>
               </g>
        </defs>

<script type="text/javascript">
var viewWidth = 1020;
var viewHeight = 626;
var sectionId = 'dynsection-0';
</script>
<script xlink:href="../../svgpan.js"/>
<svg id="graph" class="graph">
<g id="viewport">
<title>commands.viewCommands.turtleCommands.TurtleCommands</title>
<polygon fill="white" stroke="none" points="-4,4 -4,-622 1016,-622 1016,4 -4,4"/>
<!-- Node1 -->
<g id="node1" class="node"><title>Node1</title>
<polygon fill="#bfbfbf" stroke="black" points="406,-245 406,-275 584,-275 584,-245 406,-245"/>
<text text-anchor="start" x="414" y="-263" font-family="Helvetica,sans-Serif" font-size="10.00">commands.viewCommands.turtle</text>
<text text-anchor="middle" x="495" y="-252" font-family="Helvetica,sans-Serif" font-size="10.00">Commands.TurtleCommands</text>
</g>
<!-- Node4 -->
<g id="node4" class="node"><title>Node4</title>
<g id="a_node4"><a xlink:href="../../d5/d60/classcommands_1_1view_commands_1_1turtle_commands_1_1_display.html" target="_top" xlink:title="commands.viewCommands.turtle\lCommands.Display">
<polygon fill="white" stroke="black" points="620,-539 620,-569 798,-569 798,-539 620,-539"/>
<text text-anchor="start" x="628" y="-557" font-family="Helvetica,sans-Serif" font-size="10.00">commands.viewCommands.turtle</text>
<text text-anchor="middle" x="709" y="-546" font-family="Helvetica,sans-Serif" font-size="10.00">Commands.Display</text>
</a>
</g>
</g>
<!-- Node1&#45;&gt;Node4 -->
<g id="edge3" class="edge"><title>Node1&#45;&gt;Node4</title>
<path fill="none" stroke="midnightblue" d="M500.319,-285.079C510.811,-338.251 542.691,-462.842 620,-529 624.465,-532.821 629.477,-536.059 634.786,-538.804"/>
<polygon fill="midnightblue" stroke="midnightblue" points="503.739,-284.327 498.447,-275.148 496.86,-285.624 503.739,-284.327"/>
</g>
<!-- Node5 -->
<g id="node5" class="node"><title>Node5</title>
<g id="a_node5"><a xlink:href="../../d6/d64/classcommands_1_1view_commands_1_1turtle_commands_1_1_heading.html" target="_top" xlink:title="commands.viewCommands.turtle\lCommands.Heading">
<polygon fill="white" stroke="black" points="620,-490 620,-520 798,-520 798,-490 620,-490"/>
<text text-anchor="start" x="628" y="-508" font-family="Helvetica,sans-Serif" font-size="10.00">commands.viewCommands.turtle</text>
<text text-anchor="middle" x="709" y="-497" font-family="Helvetica,sans-Serif" font-size="10.00">Commands.Heading</text>
</a>
</g>
</g>
<!-- Node1&#45;&gt;Node5 -->
<g id="edge4" class="edge"><title>Node1&#45;&gt;Node5</title>
<path fill="none" stroke="midnightblue" d="M503.07,-284.911C517.347,-330.636 554.016,-428.027 620,-480 624.866,-483.833 630.292,-487.078 635.994,-489.826"/>
<polygon fill="midnightblue" stroke="midnightblue" points="506.382,-283.771 500.138,-275.212 499.681,-285.797 506.382,-283.771"/>
</g>
<!-- Node6 -->
<g id="node6" class="node"><title>Node6</title>
<g id="a_node6"><a xlink:href="../../dd/da6/classcommands_1_1view_commands_1_1turtle_commands_1_1_move.html" target="_top" xlink:title="commands.viewCommands.turtle\lCommands.Move">
<polygon fill="white" stroke="black" points="620,-441 620,-471 798,-471 798,-441 620,-441"/>
<text text-anchor="start" x="628" y="-459" font-family="Helvetica,sans-Serif" font-size="10.00">commands.viewCommands.turtle</text>
<text text-anchor="middle" x="709" y="-448" font-family="Helvetica,sans-Serif" font-size="10.00">Commands.Move</text>
</a>
</g>
</g>
<!-- Node1&#45;&gt;Node6 -->
<g id="edge5" class="edge"><title>Node1&#45;&gt;Node6</title>
<path fill="none" stroke="midnightblue" d="M517.521,-282.194C541.866,-307.058 582.954,-348.294 620,-382 643.181,-403.091 671.027,-426.145 689.097,-440.822"/>
<polygon fill="midnightblue" stroke="midnightblue" points="520.017,-279.74 510.526,-275.03 515.008,-284.631 520.017,-279.74"/>
</g>
<!-- Node11 -->
<g id="node11" class="node"><title>Node11</title>
<g id="a_node11"><a xlink:href="../../d3/dba/classcommands_1_1view_commands_1_1turtle_commands_1_1_rotate.html" target="_top" xlink:title="commands.viewCommands.turtle\lCommands.Rotate">
<polygon fill="white" stroke="black" points="620,-343 620,-373 798,-373 798,-343 620,-343"/>
<text text-anchor="start" x="628" y="-361" font-family="Helvetica,sans-Serif" font-size="10.00">commands.viewCommands.turtle</text>
<text text-anchor="middle" x="709" y="-350" font-family="Helvetica,sans-Serif" font-size="10.00">Commands.Rotate</text>
</a>
</g>
</g>
<!-- Node1&#45;&gt;Node11 -->
<g id="edge10" class="edge"><title>Node1&#45;&gt;Node11</title>
<path fill="none" stroke="midnightblue" d="M526.405,-280.881C550.823,-296.904 586.455,-318.642 620,-333 628.615,-336.687 637.933,-340.003 647.172,-342.922"/>
<polygon fill="midnightblue" stroke="midnightblue" points="528.207,-277.877 517.94,-275.261 524.335,-283.709 528.207,-277.877"/>
</g>
<!-- Node17 -->
<g id="node17" class="node"><title>Node17</title>
<g id="a_node17"><a xlink:href="../../d8/db2/classcommands_1_1view_commands_1_1turtle_commands_1_1_run_u_d.html" target="_top" xlink:title="commands.viewCommands.turtle\lCommands.RunUD">
<polygon fill="white" stroke="black" points="620,-294 620,-324 798,-324 798,-294 620,-294"/>
<text text-anchor="start" x="628" y="-312" font-family="Helvetica,sans-Serif" font-size="10.00">commands.viewCommands.turtle</text>
<text text-anchor="middle" x="709" y="-301" font-family="Helvetica,sans-Serif" font-size="10.00">Commands.RunUD</text>
</a>
</g>
</g>
<!-- Node1&#45;&gt;Node17 -->
<g id="edge16" class="edge"><title>Node1&#45;&gt;Node17</title>
<path fill="none" stroke="midnightblue" d="M570.983,-277.331C594.52,-282.771 620.295,-288.729 643.075,-293.994"/>
<polygon fill="midnightblue" stroke="midnightblue" points="571.579,-273.877 561.048,-275.035 570.003,-280.697 571.579,-273.877"/>
</g>
<!-- Node18 -->
<g id="node18" class="node"><title>Node18</title>
<g id="a_node18"><a xlink:href="../../de/d3c/classcommands_1_1view_commands_1_1turtle_commands_1_1_set.html" target="_top" xlink:title="commands.viewCommands.turtle\lCommands.Set">
<polygon fill="white" stroke="black" points="620,-245 620,-275 798,-275 798,-245 620,-245"/>
<text text-anchor="start" x="628" y="-263" font-family="Helvetica,sans-Serif" font-size="10.00">commands.viewCommands.turtle</text>
<text text-anchor="middle" x="709" y="-252" font-family="Helvetica,sans-Serif" font-size="10.00">Commands.Set</text>
</a>
</g>
</g>
<!-- Node1&#45;&gt;Node18 -->
<g id="edge17" class="edge"><title>Node1&#45;&gt;Node18</title>
<path fill="none" stroke="midnightblue" d="M594.107,-260C602.7,-260 611.363,-260 619.868,-260"/>
<polygon fill="midnightblue" stroke="midnightblue" points="594.065,-256.5 584.065,-260 594.065,-263.5 594.065,-256.5"/>
</g>
<!-- Node19 -->
<g id="node19" class="node"><title>Node19</title>
<g id="a_node19"><a xlink:href="../../db/d73/classcommands_1_1view_commands_1_1turtle_commands_1_1_set_background.html" target="_top" xlink:title="commands.viewCommands.turtle\lCommands.SetBackground">
<polygon fill="white" stroke="black" points="620,-196 620,-226 798,-226 798,-196 620,-196"/>
<text text-anchor="start" x="628" y="-214" font-family="Helvetica,sans-Serif" font-size="10.00">commands.viewCommands.turtle</text>
<text text-anchor="middle" x="709" y="-203" font-family="Helvetica,sans-Serif" font-size="10.00">Commands.SetBackground</text>
</a>
</g>
</g>
<!-- Node1&#45;&gt;Node19 -->
<g id="edge18" class="edge"><title>Node1&#45;&gt;Node19</title>
<path fill="none" stroke="midnightblue" d="M570.983,-242.669C594.52,-237.229 620.295,-231.271 643.075,-226.006"/>
<polygon fill="midnightblue" stroke="midnightblue" points="570.003,-239.303 561.048,-244.965 571.579,-246.123 570.003,-239.303"/>
</g>
<!-- Node20 -->
<g id="node20" class="node"><title>Node20</title>
<g id="a_node20"><a xlink:href="../../df/df5/classcommands_1_1view_commands_1_1turtle_commands_1_1_showing.html" target="_top" xlink:title="commands.viewCommands.turtle\lCommands.Showing">
<polygon fill="white" stroke="black" points="620,-147 620,-177 798,-177 798,-147 620,-147"/>
<text text-anchor="start" x="628" y="-165" font-family="Helvetica,sans-Serif" font-size="10.00">commands.viewCommands.turtle</text>
<text text-anchor="middle" x="709" y="-154" font-family="Helvetica,sans-Serif" font-size="10.00">Commands.Showing</text>
</a>
</g>
</g>
<!-- Node1&#45;&gt;Node20 -->
<g id="edge19" class="edge"><title>Node1&#45;&gt;Node20</title>
<path fill="none" stroke="midnightblue" d="M525.876,-239.007C550.258,-222.669 586.098,-200.419 620,-186 627.723,-182.715 636.021,-179.762 644.323,-177.143"/>
<polygon fill="midnightblue" stroke="midnightblue" points="523.746,-236.222 517.436,-244.733 527.677,-242.015 523.746,-236.222"/>
</g>
<!-- Node21 -->
<g id="node21" class="node"><title>Node21</title>
<g id="a_node21"><a xlink:href="../../df/d7a/classcommands_1_1view_commands_1_1turtle_commands_1_1_turt_screen.html" target="_top" xlink:title="commands.viewCommands.turtle\lCommands.TurtScreen">
<polygon fill="white" stroke="black" points="620,-98 620,-128 798,-128 798,-98 620,-98"/>
<text text-anchor="start" x="628" y="-116" font-family="Helvetica,sans-Serif" font-size="10.00">commands.viewCommands.turtle</text>
<text text-anchor="middle" x="709" y="-105" font-family="Helvetica,sans-Serif" font-size="10.00">Commands.TurtScreen</text>
</a>
</g>
</g>
<!-- Node1&#45;&gt;Node21 -->
<g id="edge20" class="edge"><title>Node1&#45;&gt;Node21</title>
<path fill="none" stroke="midnightblue" d="M513.323,-236.596C535.152,-208.765 575.265,-162.84 620,-137 625.896,-133.594 632.295,-130.655 638.86,-128.123"/>
<polygon fill="midnightblue" stroke="midnightblue" points="510.48,-234.552 507.151,-244.61 516.025,-238.823 510.48,-234.552"/>
</g>
<!-- Node25 -->
<g id="node25" class="node"><title>Node25</title>
<g id="a_node25"><a xlink:href="../../d2/dc3/classcommands_1_1view_commands_1_1turtle_commands_1_1_x_cor.html" target="_top" xlink:title="commands.viewCommands.turtle\lCommands.XCor">
<polygon fill="white" stroke="black" points="620,-49 620,-79 798,-79 798,-49 620,-49"/>
<text text-anchor="start" x="628" y="-67" font-family="Helvetica,sans-Serif" font-size="10.00">commands.viewCommands.turtle</text>
<text text-anchor="middle" x="709" y="-56" font-family="Helvetica,sans-Serif" font-size="10.00">Commands.XCor</text>
</a>
</g>
</g>
<!-- Node1&#45;&gt;Node25 -->
<g id="edge24" class="edge"><title>Node1&#45;&gt;Node25</title>
<path fill="none" stroke="midnightblue" d="M506.818,-235.746C524.805,-198.246 564.458,-126.507 620,-88 624.945,-84.5715 630.362,-81.6319 636,-79.1118"/>
<polygon fill="midnightblue" stroke="midnightblue" points="503.588,-234.39 502.519,-244.931 509.928,-237.358 503.588,-234.39"/>
</g>
<!-- Node26 -->
<g id="node26" class="node"><title>Node26</title>
<g id="a_node26"><a xlink:href="../../de/d9a/classcommands_1_1view_commands_1_1turtle_commands_1_1_y_cor.html" target="_top" xlink:title="commands.viewCommands.turtle\lCommands.YCor">
<polygon fill="white" stroke="black" points="620,-0 620,-30 798,-30 798,-0 620,-0"/>
<text text-anchor="start" x="628" y="-18" font-family="Helvetica,sans-Serif" font-size="10.00">commands.viewCommands.turtle</text>
<text text-anchor="middle" x="709" y="-7" font-family="Helvetica,sans-Serif" font-size="10.00">Commands.YCor</text>
</a>
</g>
</g>
<!-- Node1&#45;&gt;Node26 -->
<g id="edge25" class="edge"><title>Node1&#45;&gt;Node26</title>
<path fill="none" stroke="midnightblue" d="M502.882,-235.245C516.943,-189.345 553.404,-90.9923 620,-39 624.369,-35.5892 629.188,-32.6625 634.252,-30.1512"/>
<polygon fill="midnightblue" stroke="midnightblue" points="499.486,-234.387 500,-244.969 506.197,-236.376 499.486,-234.387"/>
</g>
<!-- Node2 -->
<g id="node2" class="node"><title>Node2</title>
<g id="a_node2"><a xlink:href="../../dc/d3e/classcommands_1_1_command_center.html" target="_top" xlink:title="commands.CommandCenter">
<polygon fill="white" stroke="black" points="214,-250.5 214,-269.5 370,-269.5 370,-250.5 214,-250.5"/>
<text text-anchor="middle" x="292" y="-257.5" font-family="Helvetica,sans-Serif" font-size="10.00">commands.CommandCenter</text>
</a>
</g>
</g>
<!-- Node2&#45;&gt;Node1 -->
<g id="edge1" class="edge"><title>Node2&#45;&gt;Node1</title>
<path fill="none" stroke="midnightblue" d="M380.312,-260C388.718,-260 397.249,-260 405.665,-260"/>
<polygon fill="midnightblue" stroke="midnightblue" points="380.137,-256.5 370.137,-260 380.137,-263.5 380.137,-256.5"/>
</g>
<!-- Node3 -->
<g id="node3" class="node"><title>Node3</title>
<g id="a_node3"><a xlink:href="../../d1/d4d/interfacecommands_1_1view_commands_1_1turtle_commands_1_1_executable.html" target="_top" xlink:title="commands.viewCommands.turtle\lCommands.Executable">
<polygon fill="white" stroke="black" points="0,-245 0,-275 178,-275 178,-245 0,-245"/>
<text text-anchor="start" x="8" y="-263" font-family="Helvetica,sans-Serif" font-size="10.00">commands.viewCommands.turtle</text>
<text text-anchor="middle" x="89" y="-252" font-family="Helvetica,sans-Serif" font-size="10.00">Commands.Executable</text>
</a>
</g>
</g>
<!-- Node3&#45;&gt;Node2 -->
<g id="edge2" class="edge"><title>Node3&#45;&gt;Node2</title>
<path fill="none" stroke="midnightblue" d="M188.259,-260C196.882,-260 205.527,-260 213.94,-260"/>
<polygon fill="midnightblue" stroke="midnightblue" points="188.162,-256.5 178.162,-260 188.161,-263.5 188.162,-256.5"/>
</g>
<!-- Node7 -->
<g id="node7" class="node"><title>Node7</title>
<g id="a_node7"><a xlink:href="../../dd/de5/classcommands_1_1view_commands_1_1turtle_commands_1_1_backward.html" target="_top" xlink:title="commands.viewCommands.turtle\lCommands.Backward">
<polygon fill="white" stroke="black" points="834,-588 834,-618 1012,-618 1012,-588 834,-588"/>
<text text-anchor="start" x="842" y="-606" font-family="Helvetica,sans-Serif" font-size="10.00">commands.viewCommands.turtle</text>
<text text-anchor="middle" x="923" y="-595" font-family="Helvetica,sans-Serif" font-size="10.00">Commands.Backward</text>
</a>
</g>
</g>
<!-- Node6&#45;&gt;Node7 -->
<g id="edge6" class="edge"><title>Node6&#45;&gt;Node7</title>
<path fill="none" stroke="midnightblue" d="M792.622,-476.56C794.496,-477.945 796.294,-479.423 798,-481 831.768,-512.214 800.232,-546.786 834,-578 838.199,-581.881 842.957,-585.165 848.034,-587.943"/>
<polygon fill="midnightblue" stroke="midnightblue" points="794.283,-473.468 783.966,-471.057 790.528,-479.376 794.283,-473.468"/>
</g>
<!-- Node8 -->
<g id="node8" class="node"><title>Node8</title>
<g id="a_node8"><a xlink:href="../../d6/d7a/classcommands_1_1view_commands_1_1turtle_commands_1_1_forward.html" target="_top" xlink:title="commands.viewCommands.turtle\lCommands.Forward">
<polygon fill="white" stroke="black" points="834,-539 834,-569 1012,-569 1012,-539 834,-539"/>
<text text-anchor="start" x="842" y="-557" font-family="Helvetica,sans-Serif" font-size="10.00">commands.viewCommands.turtle</text>
<text text-anchor="middle" x="923" y="-546" font-family="Helvetica,sans-Serif" font-size="10.00">Commands.Forward</text>
</a>
</g>
</g>
<!-- Node6&#45;&gt;Node8 -->
<g id="edge7" class="edge"><title>Node6&#45;&gt;Node8</title>
<path fill="none" stroke="midnightblue" d="M788.87,-475.479C792.038,-477.169 795.098,-479.006 798,-481 819.978,-496.102 812.022,-513.898 834,-529 839.629,-532.868 845.849,-536.141 852.304,-538.912"/>
<polygon fill="midnightblue" stroke="midnightblue" points="790.227,-472.248 779.696,-471.088 787.206,-478.562 790.227,-472.248"/>
</g>
<!-- Node9 -->
<g id="node9" class="node"><title>Node9</title>
<g id="a_node9"><a xlink:href="../../d7/dae/classcommands_1_1view_commands_1_1turtle_commands_1_1_go_to_location.html" target="_top" xlink:title="commands.viewCommands.turtle\lCommands.GoToLocation">
<polygon fill="white" stroke="black" points="834,-490 834,-520 1012,-520 1012,-490 834,-490"/>
<text text-anchor="start" x="842" y="-508" font-family="Helvetica,sans-Serif" font-size="10.00">commands.viewCommands.turtle</text>
<text text-anchor="middle" x="923" y="-497" font-family="Helvetica,sans-Serif" font-size="10.00">Commands.GoToLocation</text>
</a>
</g>
</g>
<!-- Node6&#45;&gt;Node9 -->
<g id="edge8" class="edge"><title>Node6&#45;&gt;Node9</title>
<path fill="none" stroke="midnightblue" d="M784.983,-473.331C808.52,-478.771 834.295,-484.729 857.075,-489.994"/>
<polygon fill="midnightblue" stroke="midnightblue" points="785.579,-469.877 775.048,-471.035 784.003,-476.697 785.579,-469.877"/>
</g>
<!-- Node10 -->
<g id="node10" class="node"><title>Node10</title>
<g id="a_node10"><a xlink:href="../../de/dc5/classcommands_1_1view_commands_1_1turtle_commands_1_1_home.html" target="_top" xlink:title="commands.viewCommands.turtle\lCommands.Home">
<polygon fill="white" stroke="black" points="834,-441 834,-471 1012,-471 1012,-441 834,-441"/>
<text text-anchor="start" x="842" y="-459" font-family="Helvetica,sans-Serif" font-size="10.00">commands.viewCommands.turtle</text>
<text text-anchor="middle" x="923" y="-448" font-family="Helvetica,sans-Serif" font-size="10.00">Commands.Home</text>
</a>
</g>
</g>
<!-- Node6&#45;&gt;Node10 -->
<g id="edge9" class="edge"><title>Node6&#45;&gt;Node10</title>
<path fill="none" stroke="midnightblue" d="M808.107,-456C816.7,-456 825.363,-456 833.868,-456"/>
<polygon fill="midnightblue" stroke="midnightblue" points="808.065,-452.5 798.065,-456 808.065,-459.5 808.065,-452.5"/>
</g>
<!-- Node12 -->
<g id="node12" class="node"><title>Node12</title>
<g id="a_node12"><a xlink:href="../../df/d03/classcommands_1_1view_commands_1_1turtle_commands_1_1_go_towards_loc.html" target="_top" xlink:title="commands.viewCommands.turtle\lCommands.GoTowardsLoc">
<polygon fill="white" stroke="black" points="834,-392 834,-422 1012,-422 1012,-392 834,-392"/>
<text text-anchor="start" x="842" y="-410" font-family="Helvetica,sans-Serif" font-size="10.00">commands.viewCommands.turtle</text>
<text text-anchor="middle" x="923" y="-399" font-family="Helvetica,sans-Serif" font-size="10.00">Commands.GoTowardsLoc</text>
</a>
</g>
</g>
<!-- Node11&#45;&gt;Node12 -->
<g id="edge11" class="edge"><title>Node11&#45;&gt;Node12</title>
<path fill="none" stroke="midnightblue" d="M784.983,-375.331C808.52,-380.771 834.295,-386.729 857.075,-391.994"/>
<polygon fill="midnightblue" stroke="midnightblue" points="785.579,-371.877 775.048,-373.035 784.003,-378.697 785.579,-371.877"/>
</g>
<!-- Node13 -->
<g id="node13" class="node"><title>Node13</title>
<g id="a_node13"><a xlink:href="../../da/d51/classcommands_1_1view_commands_1_1turtle_commands_1_1_left.html" target="_top" xlink:title="commands.viewCommands.turtle\lCommands.Left">
<polygon fill="white" stroke="black" points="834,-343 834,-373 1012,-373 1012,-343 834,-343"/>
<text text-anchor="start" x="842" y="-361" font-family="Helvetica,sans-Serif" font-size="10.00">commands.viewCommands.turtle</text>
<text text-anchor="middle" x="923" y="-350" font-family="Helvetica,sans-Serif" font-size="10.00">Commands.Left</text>
</a>
</g>
</g>
<!-- Node11&#45;&gt;Node13 -->
<g id="edge12" class="edge"><title>Node11&#45;&gt;Node13</title>
<path fill="none" stroke="midnightblue" d="M808.107,-358C816.7,-358 825.363,-358 833.868,-358"/>
<polygon fill="midnightblue" stroke="midnightblue" points="808.065,-354.5 798.065,-358 808.065,-361.5 808.065,-354.5"/>
</g>
<!-- Node14 -->
<g id="node14" class="node"><title>Node14</title>
<g id="a_node14"><a xlink:href="../../dc/d1a/classcommands_1_1view_commands_1_1turtle_commands_1_1_right.html" target="_top" xlink:title="commands.viewCommands.turtle\lCommands.Right">
<polygon fill="white" stroke="black" points="834,-294 834,-324 1012,-324 1012,-294 834,-294"/>
<text text-anchor="start" x="842" y="-312" font-family="Helvetica,sans-Serif" font-size="10.00">commands.viewCommands.turtle</text>
<text text-anchor="middle" x="923" y="-301" font-family="Helvetica,sans-Serif" font-size="10.00">Commands.Right</text>
</a>
</g>
</g>
<!-- Node11&#45;&gt;Node14 -->
<g id="edge13" class="edge"><title>Node11&#45;&gt;Node14</title>
<path fill="none" stroke="midnightblue" d="M784.983,-340.669C808.52,-335.229 834.295,-329.271 857.075,-324.006"/>
<polygon fill="midnightblue" stroke="midnightblue" points="784.003,-337.303 775.048,-342.965 785.579,-344.123 784.003,-337.303"/>
</g>
<!-- Node15 -->
<g id="node15" class="node"><title>Node15</title>
<g id="a_node15"><a xlink:href="../../df/ded/classcommands_1_1view_commands_1_1turtle_commands_1_1_set_heading.html" target="_top" xlink:title="commands.viewCommands.turtle\lCommands.SetHeading">
<polygon fill="white" stroke="black" points="834,-245 834,-275 1012,-275 1012,-245 834,-245"/>
<text text-anchor="start" x="842" y="-263" font-family="Helvetica,sans-Serif" font-size="10.00">commands.viewCommands.turtle</text>
<text text-anchor="middle" x="923" y="-252" font-family="Helvetica,sans-Serif" font-size="10.00">Commands.SetHeading</text>
</a>
</g>
</g>
<!-- Node11&#45;&gt;Node15 -->
<g id="edge14" class="edge"><title>Node11&#45;&gt;Node15</title>
<path fill="none" stroke="midnightblue" d="M788.87,-338.521C792.038,-336.831 795.098,-334.994 798,-333 819.978,-317.898 812.022,-300.102 834,-285 839.629,-281.132 845.849,-277.859 852.304,-275.088"/>
<polygon fill="midnightblue" stroke="midnightblue" points="787.206,-335.438 779.696,-342.912 790.227,-341.752 787.206,-335.438"/>
</g>
<!-- Node16 -->
<g id="node16" class="node"><title>Node16</title>
<g id="a_node16"><a xlink:href="../../d5/da3/classcommands_1_1view_commands_1_1turtle_commands_1_1_towards.html" target="_top" xlink:title="commands.viewCommands.turtle\lCommands.Towards">
<polygon fill="white" stroke="black" points="834,-196 834,-226 1012,-226 1012,-196 834,-196"/>
<text text-anchor="start" x="842" y="-214" font-family="Helvetica,sans-Serif" font-size="10.00">commands.viewCommands.turtle</text>
<text text-anchor="middle" x="923" y="-203" font-family="Helvetica,sans-Serif" font-size="10.00">Commands.Towards</text>
</a>
</g>
</g>
<!-- Node11&#45;&gt;Node16 -->
<g id="edge15" class="edge"><title>Node11&#45;&gt;Node16</title>
<path fill="none" stroke="midnightblue" d="M792.629,-337.448C794.501,-336.06 796.297,-334.58 798,-333 832.022,-301.447 799.812,-266.374 834,-235 837.734,-231.574 841.909,-228.629 846.357,-226.099"/>
<polygon fill="midnightblue" stroke="midnightblue" points="790.534,-334.633 783.981,-342.958 794.295,-340.537 790.534,-334.633"/>
</g>
<!-- Node22 -->
<g id="node22" class="node"><title>Node22</title>
<g id="a_node22"><a xlink:href="../../d5/de0/classcommands_1_1view_commands_1_1turtle_commands_1_1_clear_screen.html" target="_top" xlink:title="commands.viewCommands.turtle\lCommands.ClearScreen">
<polygon fill="white" stroke="black" points="834,-147 834,-177 1012,-177 1012,-147 834,-147"/>
<text text-anchor="start" x="842" y="-165" font-family="Helvetica,sans-Serif" font-size="10.00">commands.viewCommands.turtle</text>
<text text-anchor="middle" x="923" y="-154" font-family="Helvetica,sans-Serif" font-size="10.00">Commands.ClearScreen</text>
</a>
</g>
</g>
<!-- Node21&#45;&gt;Node22 -->
<g id="edge21" class="edge"><title>Node21&#45;&gt;Node22</title>
<path fill="none" stroke="midnightblue" d="M784.983,-130.331C808.52,-135.771 834.295,-141.729 857.075,-146.994"/>
<polygon fill="midnightblue" stroke="midnightblue" points="785.579,-126.877 775.048,-128.035 784.003,-133.697 785.579,-126.877"/>
</g>
<!-- Node23 -->
<g id="node23" class="node"><title>Node23</title>
<g id="a_node23"><a xlink:href="../../d9/d59/classcommands_1_1view_commands_1_1turtle_commands_1_1_hide_turtle.html" target="_top" xlink:title="commands.viewCommands.turtle\lCommands.HideTurtle">
<polygon fill="white" stroke="black" points="834,-98 834,-128 1012,-128 1012,-98 834,-98"/>
<text text-anchor="start" x="842" y="-116" font-family="Helvetica,sans-Serif" font-size="10.00">commands.viewCommands.turtle</text>
<text text-anchor="middle" x="923" y="-105" font-family="Helvetica,sans-Serif" font-size="10.00">Commands.HideTurtle</text>
</a>
</g>
</g>
<!-- Node21&#45;&gt;Node23 -->
<g id="edge22" class="edge"><title>Node21&#45;&gt;Node23</title>
<path fill="none" stroke="midnightblue" d="M808.107,-113C816.7,-113 825.363,-113 833.868,-113"/>
<polygon fill="midnightblue" stroke="midnightblue" points="808.065,-109.5 798.065,-113 808.065,-116.5 808.065,-109.5"/>
</g>
<!-- Node24 -->
<g id="node24" class="node"><title>Node24</title>
<g id="a_node24"><a xlink:href="../../dd/db2/classcommands_1_1view_commands_1_1turtle_commands_1_1_show_turtle.html" target="_top" xlink:title="commands.viewCommands.turtle\lCommands.ShowTurtle">
<polygon fill="white" stroke="black" points="834,-49 834,-79 1012,-79 1012,-49 834,-49"/>
<text text-anchor="start" x="842" y="-67" font-family="Helvetica,sans-Serif" font-size="10.00">commands.viewCommands.turtle</text>
<text text-anchor="middle" x="923" y="-56" font-family="Helvetica,sans-Serif" font-size="10.00">Commands.ShowTurtle</text>
</a>
</g>
</g>
<!-- Node21&#45;&gt;Node24 -->
<g id="edge23" class="edge"><title>Node21&#45;&gt;Node24</title>
<path fill="none" stroke="midnightblue" d="M784.983,-95.6691C808.52,-90.2288 834.295,-84.2715 857.075,-79.0062"/>
<polygon fill="midnightblue" stroke="midnightblue" points="784.003,-92.3033 775.048,-97.9654 785.579,-99.1235 784.003,-92.3033"/>
</g>
</g>
</svg>
        <g id="navigator" transform="translate(0 0)" fill="#404254">
                <rect fill="#f2f5e9" fill-opacity="0.5" stroke="#606060" stroke-width=".5" x="0" y="0" width="60" height="60"/>
                <use id="zoomplus" xlink:href="#zoomPlus" x="17" y="9" onmousedown="handleZoom(evt,'in')"/>
                <use id="zoomminus" xlink:href="#zoomMin" x="42" y="9" onmousedown="handleZoom(evt,'out')"/>
                <use id="reset" xlink:href="#resetDef" x="30" y="36" onmousedown="handleReset()"/>
                <g id="arrowUp" xlink:href="#dirArrow" transform="translate(30 24)" onmousedown="handlePan(0,-1)">
                  <use xlink:href="#rim" fill="#404040">
                        <set attributeName="fill" to="#808080" begin="arrowUp.mouseover" end="arrowUp.mouseout"/>
                  </use>
                  <path fill="none" stroke="white" stroke-width="1.5" d="M0,-3.0v7 M-2.5,-0.5L0,-3.0L2.5,-0.5"/>
                </g>
                <g id="arrowRight" xlink:href="#dirArrow" transform="rotate(90) translate(36 -43)" onmousedown="handlePan(1,0)">
                  <use xlink:href="#rim" fill="#404040">
                        <set attributeName="fill" to="#808080" begin="arrowRight.mouseover" end="arrowRight.mouseout"/>
                  </use>
                  <path fill="none" stroke="white" stroke-width="1.5" d="M0,-3.0v7 M-2.5,-0.5L0,-3.0L2.5,-0.5"/>
                </g>
                <g id="arrowDown" xlink:href="#dirArrow" transform="rotate(180) translate(-30 -48)" onmousedown="handlePan(0,1)">
                  <use xlink:href="#rim" fill="#404040">
                        <set attributeName="fill" to="#808080" begin="arrowDown.mouseover" end="arrowDown.mouseout"/>
                  </use>
                  <path fill="none" stroke="white" stroke-width="1.5" d="M0,-3.0v7 M-2.5,-0.5L0,-3.0L2.5,-0.5"/>
                </g>
                <g id="arrowLeft" xlink:href="#dirArrow" transform="rotate(270) translate(-36 17)" onmousedown="handlePan(-1,0)">
                  <use xlink:href="#rim" fill="#404040">
                        <set attributeName="fill" to="#808080" begin="arrowLeft.mouseover" end="arrowLeft.mouseout"/>
                  </use>
                  <path fill="none" stroke="white" stroke-width="1.5" d="M0,-3.0v7 M-2.5,-0.5L0,-3.0L2.5,-0.5"/>
                </g>
        </g>
        <svg viewBox="0 0 15 15" width="100%" height="30px" preserveAspectRatio="xMaxYMin meet">
         <g id="arrow_out" transform="scale(0.3 0.3)">
          <a xlink:href="classcommands_1_1view_commands_1_1turtle_commands_1_1_turtle_commands__inherit__graph_org.svg" target="_base">
           <rect id="button" ry="5" rx="5" y="6" x="6" height="38" width="38"
                fill="#f2f5e9" fill-opacity="0.5" stroke="#606060" stroke-width="1.0"/>
           <path id="arrow"
             d="M 11.500037,31.436501 C 11.940474,20.09759 22.043105,11.32322 32.158766,21.979434 L 37.068811,17.246167 C 37.068811,17.246167 37.088388,32 37.088388,32 L 22.160133,31.978069 C 22.160133,31.978069 26.997745,27.140456 26.997745,27.140456 C 18.528582,18.264221 13.291696,25.230495 11.500037,31.436501 z"
             style="fill:#404040;"/>
          </a>
         </g>
        </svg>
</svg>
