<?xml version="1.0" encoding="UTF-8" standalone="no"?>
<!DOCTYPE svg PUBLIC "-//W3C//DTD SVG 1.1//EN"
 "http://www.w3.org/Graphics/SVG/1.1/DTD/svg11.dtd">
<!-- Generated by graphviz version 2.36.0 (20140111.2315)
 -->
<!-- Title: application.PenHandler.getPenStatus Pages: 1 -->
<svg width="1194pt" height="312pt"
 viewBox="0.00 0.00 1194.00 312.00" xmlns="http://www.w3.org/2000/svg" xmlns:xlink="http://www.w3.org/1999/xlink">
<g id="graph0" class="graph" transform="scale(1 1) rotate(0) translate(4 308)">
<title>application.PenHandler.getPenStatus</title>
<polygon fill="white" stroke="none" points="-4,4 -4,-308 1190,-308 1190,4 -4,4"/>
<!-- Node1 -->
<g id="node1" class="node"><title>Node1</title>
<polygon fill="#bfbfbf" stroke="black" points="0.5,-206 0.5,-236 145.5,-236 145.5,-206 0.5,-206"/>
<text text-anchor="start" x="8.5" y="-224" font-family="Helvetica,sans-Serif" font-size="10.00">application.PenHandler.get</text>
<text text-anchor="middle" x="73" y="-213" font-family="Helvetica,sans-Serif" font-size="10.00">PenStatus</text>
</g>
<!-- Node2 -->
<g id="node2" class="node"><title>Node2</title>
<g id="a_node2"><a xlink:href="../../d8/d65/classapplication_1_1_view_handler.html#a98b4ba09b3f3e8b1a7667db5598dbfb0" target="_top" xlink:title="application.ViewHandler.move\lTurtleImageAndDraw">
<polygon fill="white" stroke="black" points="575,-273 575,-303 735,-303 735,-273 575,-273"/>
<text text-anchor="start" x="583" y="-291" font-family="Helvetica,sans-Serif" font-size="10.00">application.ViewHandler.move</text>
<text text-anchor="middle" x="655" y="-280" font-family="Helvetica,sans-Serif" font-size="10.00">TurtleImageAndDraw</text>
</a>
</g>
</g>
<!-- Node1&#45;&gt;Node2 -->
<g id="edge1" class="edge"><title>Node1&#45;&gt;Node2</title>
<path fill="none" stroke="midnightblue" d="M155.86,-230.456C267.08,-243.304 464.638,-266.125 574.58,-278.826"/>
<polygon fill="midnightblue" stroke="midnightblue" points="156.037,-226.953 145.701,-229.283 155.233,-233.907 156.037,-226.953"/>
</g>
<!-- Node8 -->
<g id="node8" class="node"><title>Node8</title>
<g id="a_node8"><a xlink:href="../../d8/d65/classapplication_1_1_view_handler.html#a308dcaf9847965fa4a3d261347845f56" target="_top" xlink:title="application.ViewHandler.set\lInfoParamsOfTurtleAndLine">
<polygon fill="white" stroke="black" points="182,-169 182,-199 330,-199 330,-169 182,-169"/>
<text text-anchor="start" x="190" y="-187" font-family="Helvetica,sans-Serif" font-size="10.00">application.ViewHandler.set</text>
<text text-anchor="middle" x="256" y="-176" font-family="Helvetica,sans-Serif" font-size="10.00">InfoParamsOfTurtleAndLine</text>
</a>
</g>
</g>
<!-- Node1&#45;&gt;Node8 -->
<g id="edge7" class="edge"><title>Node1&#45;&gt;Node8</title>
<path fill="none" stroke="midnightblue" d="M155.43,-204.354C164.252,-202.551 173.191,-200.723 181.906,-198.942"/>
<polygon fill="midnightblue" stroke="midnightblue" points="154.632,-200.945 145.536,-206.377 156.034,-207.803 154.632,-200.945"/>
</g>
<!-- Node3 -->
<g id="node3" class="node"><title>Node3</title>
<g id="a_node3"><a xlink:href="../../d8/d65/classapplication_1_1_view_handler.html#a1a94c855ceb0e8ffb1f72f138addb75b" target="_top" xlink:title="application.ViewHandler.move\lTurtle">
<polygon fill="white" stroke="black" points="791,-259 791,-289 951,-289 951,-259 791,-259"/>
<text text-anchor="start" x="799" y="-277" font-family="Helvetica,sans-Serif" font-size="10.00">application.ViewHandler.move</text>
<text text-anchor="middle" x="871" y="-266" font-family="Helvetica,sans-Serif" font-size="10.00">Turtle</text>
</a>
</g>
</g>
<!-- Node2&#45;&gt;Node3 -->
<g id="edge2" class="edge"><title>Node2&#45;&gt;Node3</title>
<path fill="none" stroke="midnightblue" d="M745.432,-282.149C760.52,-281.162 776.088,-280.144 790.89,-279.175"/>
<polygon fill="midnightblue" stroke="midnightblue" points="744.828,-278.681 735.078,-282.827 745.285,-285.666 744.828,-278.681"/>
</g>
<!-- Node5 -->
<g id="node5" class="node"><title>Node5</title>
<g id="a_node5"><a xlink:href="../../d8/d65/classapplication_1_1_view_handler.html#a1aff135a076a9717102bb59ea613131c" target="_top" xlink:title="application.ViewHandler.change\lLocationOfTurtle">
<polygon fill="white" stroke="black" points="787,-203 787,-233 955,-233 955,-203 787,-203"/>
<text text-anchor="start" x="795" y="-221" font-family="Helvetica,sans-Serif" font-size="10.00">application.ViewHandler.change</text>
<text text-anchor="middle" x="871" y="-210" font-family="Helvetica,sans-Serif" font-size="10.00">LocationOfTurtle</text>
</a>
</g>
</g>
<!-- Node2&#45;&gt;Node5 -->
<g id="edge4" class="edge"><title>Node2&#45;&gt;Node5</title>
<path fill="none" stroke="midnightblue" d="M709.675,-269.73C729.264,-263.122 751.61,-255.652 772,-249 788.201,-243.714 805.953,-238.058 821.844,-233.044"/>
<polygon fill="midnightblue" stroke="midnightblue" points="708.358,-266.481 700.005,-272.998 710.599,-273.113 708.358,-266.481"/>
</g>
<!-- Node4 -->
<g id="node4" class="node"><title>Node4</title>
<g id="a_node4"><a xlink:href="../../dd/da6/classcommands_1_1view_commands_1_1turtle_commands_1_1_move.html#af95e8ccf5c290a4d06f79caf2deed407" target="_top" xlink:title="commands.viewCommands.turtle\lCommands.Move.changeLocation">
<polygon fill="white" stroke="black" points="1006.5,-259 1006.5,-289 1185.5,-289 1185.5,-259 1006.5,-259"/>
<text text-anchor="start" x="1014.5" y="-277" font-family="Helvetica,sans-Serif" font-size="10.00">commands.viewCommands.turtle</text>
<text text-anchor="middle" x="1096" y="-266" font-family="Helvetica,sans-Serif" font-size="10.00">Commands.Move.changeLocation</text>
</a>
</g>
</g>
<!-- Node3&#45;&gt;Node4 -->
<g id="edge3" class="edge"><title>Node3&#45;&gt;Node4</title>
<path fill="none" stroke="midnightblue" d="M961.362,-274C976.112,-274 991.401,-274 1006.14,-274"/>
<polygon fill="midnightblue" stroke="midnightblue" points="961.249,-270.5 951.249,-274 961.249,-277.5 961.249,-270.5"/>
</g>
<!-- Node6 -->
<g id="node6" class="node"><title>Node6</title>
<g id="a_node6"><a xlink:href="../../d5/de0/classcommands_1_1view_commands_1_1turtle_commands_1_1_clear_screen.html#ae547e4c170a1b6d41cdfc6c8bfe5e972" target="_top" xlink:title="commands.viewCommands.turtle\lCommands.ClearScreen.execute">
<polygon fill="white" stroke="black" points="1007,-207 1007,-237 1185,-237 1185,-207 1007,-207"/>
<text text-anchor="start" x="1015" y="-225" font-family="Helvetica,sans-Serif" font-size="10.00">commands.viewCommands.turtle</text>
<text text-anchor="middle" x="1096" y="-214" font-family="Helvetica,sans-Serif" font-size="10.00">Commands.ClearScreen.execute</text>
</a>
</g>
</g>
<!-- Node5&#45;&gt;Node6 -->
<g id="edge5" class="edge"><title>Node5&#45;&gt;Node6</title>
<path fill="none" stroke="midnightblue" d="M965.4,-219.675C979.066,-219.92 993.104,-220.172 1006.66,-220.416"/>
<polygon fill="midnightblue" stroke="midnightblue" points="965.098,-216.169 955.037,-219.489 964.973,-223.168 965.098,-216.169"/>
</g>
<!-- Node7 -->
<g id="node7" class="node"><title>Node7</title>
<g id="a_node7"><a xlink:href="../../dd/da6/classcommands_1_1view_commands_1_1turtle_commands_1_1_move.html#af4d9a4d9ade56b5e3a1e582bd891b7b5" target="_top" xlink:title="commands.viewCommands.turtle\lCommands.Move.goToLocation">
<polygon fill="white" stroke="black" points="1007,-158 1007,-188 1185,-188 1185,-158 1007,-158"/>
<text text-anchor="start" x="1015" y="-176" font-family="Helvetica,sans-Serif" font-size="10.00">commands.viewCommands.turtle</text>
<text text-anchor="middle" x="1096" y="-165" font-family="Helvetica,sans-Serif" font-size="10.00">Commands.Move.goToLocation</text>
</a>
</g>
</g>
<!-- Node5&#45;&gt;Node7 -->
<g id="edge6" class="edge"><title>Node5&#45;&gt;Node7</title>
<path fill="none" stroke="midnightblue" d="M956.458,-200.957C977.524,-196.706 999.959,-192.179 1020.5,-188.033"/>
<polygon fill="midnightblue" stroke="midnightblue" points="955.676,-197.544 946.566,-202.953 957.061,-204.406 955.676,-197.544"/>
</g>
<!-- Node9 -->
<g id="node9" class="node"><title>Node9</title>
<g id="a_node9"><a xlink:href="../../d8/d65/classapplication_1_1_view_handler.html#ac37927f63d43d93f1b1e0f5a3b59cf26" target="_top" xlink:title="application.ViewHandler.initialize\lTurtle">
<polygon fill="white" stroke="black" points="366.5,-71 366.5,-101 537.5,-101 537.5,-71 366.5,-71"/>
<text text-anchor="start" x="374.5" y="-89" font-family="Helvetica,sans-Serif" font-size="10.00">application.ViewHandler.initialize</text>
<text text-anchor="middle" x="452" y="-78" font-family="Helvetica,sans-Serif" font-size="10.00">Turtle</text>
</a>
</g>
</g>
<!-- Node8&#45;&gt;Node9 -->
<g id="edge8" class="edge"><title>Node8&#45;&gt;Node9</title>
<path fill="none" stroke="midnightblue" d="M295.862,-164.369C332.765,-145.727 387.456,-118.099 421.079,-101.115"/>
<polygon fill="midnightblue" stroke="midnightblue" points="294.235,-161.269 286.887,-168.902 297.391,-167.517 294.235,-161.269"/>
</g>
<!-- Node11 -->
<g id="node11" class="node"><title>Node11</title>
<g id="a_node11"><a xlink:href="../../d8/d65/classapplication_1_1_view_handler.html#ae489ceaa9b5ec67faf3ba22a11cec085" target="_top" xlink:title="application.ViewHandler.update\lTurtleOnView">
<polygon fill="white" stroke="black" points="368.5,-169 368.5,-199 535.5,-199 535.5,-169 368.5,-169"/>
<text text-anchor="start" x="376.5" y="-187" font-family="Helvetica,sans-Serif" font-size="10.00">application.ViewHandler.update</text>
<text text-anchor="middle" x="452" y="-176" font-family="Helvetica,sans-Serif" font-size="10.00">TurtleOnView</text>
</a>
</g>
</g>
<!-- Node8&#45;&gt;Node11 -->
<g id="edge10" class="edge"><title>Node8&#45;&gt;Node11</title>
<path fill="none" stroke="midnightblue" d="M340.097,-184C349.42,-184 358.918,-184 368.236,-184"/>
<polygon fill="midnightblue" stroke="midnightblue" points="340.067,-180.5 330.067,-184 340.067,-187.5 340.067,-180.5"/>
</g>
<!-- Node10 -->
<g id="node10" class="node"><title>Node10</title>
<g id="a_node10"><a xlink:href="../../d8/d65/classapplication_1_1_view_handler.html#aede07ea15df8a762813028bb80403e6b" target="_top" xlink:title="application.ViewHandler.\lViewHandler">
<polygon fill="white" stroke="black" points="588.5,-0 588.5,-30 721.5,-30 721.5,-0 588.5,-0"/>
<text text-anchor="start" x="596.5" y="-18" font-family="Helvetica,sans-Serif" font-size="10.00">application.ViewHandler.</text>
<text text-anchor="middle" x="655" y="-7" font-family="Helvetica,sans-Serif" font-size="10.00">ViewHandler</text>
</a>
</g>
</g>
<!-- Node9&#45;&gt;Node10 -->
<g id="edge9" class="edge"><title>Node9&#45;&gt;Node10</title>
<path fill="none" stroke="midnightblue" d="M498.83,-67.2138C521.324,-58.2461 548.917,-47.6187 574,-39 582.914,-35.9371 592.458,-32.8824 601.739,-30.0291"/>
<polygon fill="midnightblue" stroke="midnightblue" points="497.504,-63.9748 489.524,-70.9448 500.109,-70.4721 497.504,-63.9748"/>
</g>
<!-- Node11&#45;&gt;Node2 -->
<g id="edge13" class="edge"><title>Node11&#45;&gt;Node2</title>
<path fill="none" stroke="midnightblue" d="M483.649,-204.996C507.574,-220.824 542.012,-242.397 574,-258 585.199,-263.463 597.662,-268.57 609.353,-272.968"/>
<polygon fill="midnightblue" stroke="midnightblue" points="485.282,-201.878 475.021,-199.236 481.395,-207.699 485.282,-201.878"/>
</g>
<!-- Node11&#45;&gt;Node3 -->
<g id="edge11" class="edge"><title>Node11&#45;&gt;Node3</title>
<path fill="none" stroke="midnightblue" d="M518.91,-201.574C536.742,-206.141 556.07,-210.919 574,-215 647.191,-231.657 731.154,-248.147 790.917,-259.44"/>
<polygon fill="midnightblue" stroke="midnightblue" points="519.732,-198.172 509.175,-199.065 517.985,-204.95 519.732,-198.172"/>
</g>
<!-- Node11&#45;&gt;Node5 -->
<g id="edge12" class="edge"><title>Node11&#45;&gt;Node5</title>
<path fill="none" stroke="midnightblue" d="M545.887,-191.573C618.085,-197.46 717.33,-205.552 786.916,-211.226"/>
<polygon fill="midnightblue" stroke="midnightblue" points="546.136,-188.082 535.884,-190.758 545.567,-195.059 546.136,-188.082"/>
</g>
<!-- Node12 -->
<g id="node12" class="node"><title>Node12</title>
<g id="a_node12"><a xlink:href="../../d8/d65/classapplication_1_1_view_handler.html#abe68f02cdf0227b13568e1aaabf57e5c" target="_top" xlink:title="application.ViewHandler.rotate\lTurtle">
<polygon fill="white" stroke="black" points="574,-147 574,-177 736,-177 736,-147 574,-147"/>
<text text-anchor="start" x="582" y="-165" font-family="Helvetica,sans-Serif" font-size="10.00">application.ViewHandler.rotate</text>
<text text-anchor="middle" x="655" y="-154" font-family="Helvetica,sans-Serif" font-size="10.00">Turtle</text>
</a>
</g>
</g>
<!-- Node11&#45;&gt;Node12 -->
<g id="edge14" class="edge"><title>Node11&#45;&gt;Node12</title>
<path fill="none" stroke="midnightblue" d="M545.787,-173.844C555.2,-172.814 564.703,-171.774 573.964,-170.76"/>
<polygon fill="midnightblue" stroke="midnightblue" points="545.184,-170.389 535.625,-174.957 545.946,-177.348 545.184,-170.389"/>
</g>
<!-- Node14 -->
<g id="node14" class="node"><title>Node14</title>
<g id="a_node14"><a xlink:href="../../d8/d65/classapplication_1_1_view_handler.html#af07eafb381b0ea9a1ce68f6ffe8a7428" target="_top" xlink:title="application.ViewHandler.set\lTurtleOrientation">
<polygon fill="white" stroke="black" points="581,-98 581,-128 729,-128 729,-98 581,-98"/>
<text text-anchor="start" x="589" y="-116" font-family="Helvetica,sans-Serif" font-size="10.00">application.ViewHandler.set</text>
<text text-anchor="middle" x="655" y="-105" font-family="Helvetica,sans-Serif" font-size="10.00">TurtleOrientation</text>
</a>
</g>
</g>
<!-- Node11&#45;&gt;Node14 -->
<g id="edge16" class="edge"><title>Node11&#45;&gt;Node14</title>
<path fill="none" stroke="midnightblue" d="M498.83,-165.214C521.324,-156.246 548.917,-145.619 574,-137 582.914,-133.937 592.458,-130.882 601.739,-128.029"/>
<polygon fill="midnightblue" stroke="midnightblue" points="497.504,-161.975 489.524,-168.945 500.109,-168.472 497.504,-161.975"/>
</g>
<!-- Node17 -->
<g id="node17" class="node"><title>Node17</title>
<g id="a_node17"><a xlink:href="../../d8/d65/classapplication_1_1_view_handler.html#a55d042c40e05453e3f5f6bc6c1c6e060" target="_top" xlink:title="application.ViewHandler.show\lTurtle">
<polygon fill="white" stroke="black" points="576.5,-49 576.5,-79 733.5,-79 733.5,-49 576.5,-49"/>
<text text-anchor="start" x="584.5" y="-67" font-family="Helvetica,sans-Serif" font-size="10.00">application.ViewHandler.show</text>
<text text-anchor="middle" x="655" y="-56" font-family="Helvetica,sans-Serif" font-size="10.00">Turtle</text>
</a>
</g>
</g>
<!-- Node11&#45;&gt;Node17 -->
<g id="edge19" class="edge"><title>Node11&#45;&gt;Node17</title>
<path fill="none" stroke="midnightblue" d="M475.573,-161.687C498.573,-140.076 536.149,-107.758 574,-88 580.427,-84.6451 587.396,-81.6851 594.449,-79.0939"/>
<polygon fill="midnightblue" stroke="midnightblue" points="472.889,-159.41 468.069,-168.846 477.721,-164.475 472.889,-159.41"/>
</g>
<!-- Node13 -->
<g id="node13" class="node"><title>Node13</title>
<g id="a_node13"><a xlink:href="../../d3/dba/classcommands_1_1view_commands_1_1turtle_commands_1_1_rotate.html#a8ee301e936ff8d884357dccac52c2bfb" target="_top" xlink:title="commands.viewCommands.turtle\lCommands.Rotate.changeOrientation">
<polygon fill="white" stroke="black" points="772.5,-147 772.5,-177 969.5,-177 969.5,-147 772.5,-147"/>
<text text-anchor="start" x="780.5" y="-165" font-family="Helvetica,sans-Serif" font-size="10.00">commands.viewCommands.turtle</text>
<text text-anchor="middle" x="871" y="-154" font-family="Helvetica,sans-Serif" font-size="10.00">Commands.Rotate.changeOrientation</text>
</a>
</g>
</g>
<!-- Node12&#45;&gt;Node13 -->
<g id="edge15" class="edge"><title>Node12&#45;&gt;Node13</title>
<path fill="none" stroke="midnightblue" d="M746.296,-162C754.886,-162 763.623,-162 772.278,-162"/>
<polygon fill="midnightblue" stroke="midnightblue" points="746.295,-158.5 736.295,-162 746.295,-165.5 746.295,-158.5"/>
</g>
<!-- Node15 -->
<g id="node15" class="node"><title>Node15</title>
<g id="a_node15"><a xlink:href="../../df/d03/classcommands_1_1view_commands_1_1turtle_commands_1_1_go_towards_loc.html#a67f5f04ce72d0cd234d1e0a11e6d7c83" target="_top" xlink:title="commands.viewCommands.turtle\lCommands.GoTowardsLoc.execute">
<polygon fill="white" stroke="black" points="779,-98 779,-128 963,-128 963,-98 779,-98"/>
<text text-anchor="start" x="787" y="-116" font-family="Helvetica,sans-Serif" font-size="10.00">commands.viewCommands.turtle</text>
<text text-anchor="middle" x="871" y="-105" font-family="Helvetica,sans-Serif" font-size="10.00">Commands.GoTowardsLoc.execute</text>
</a>
</g>
</g>
<!-- Node14&#45;&gt;Node15 -->
<g id="edge17" class="edge"><title>Node14&#45;&gt;Node15</title>
<path fill="none" stroke="midnightblue" d="M739.297,-113C752.226,-113 765.642,-113 778.736,-113"/>
<polygon fill="midnightblue" stroke="midnightblue" points="739.048,-109.5 729.048,-113 739.048,-116.5 739.048,-109.5"/>
</g>
<!-- Node16 -->
<g id="node16" class="node"><title>Node16</title>
<g id="a_node16"><a xlink:href="../../df/ded/classcommands_1_1view_commands_1_1turtle_commands_1_1_set_heading.html#a3efffc1774ad2f0b23742a20789f0ee8" target="_top" xlink:title="commands.viewCommands.turtle\lCommands.SetHeading.execute">
<polygon fill="white" stroke="black" points="782,-49 782,-79 960,-79 960,-49 782,-49"/>
<text text-anchor="start" x="790" y="-67" font-family="Helvetica,sans-Serif" font-size="10.00">commands.viewCommands.turtle</text>
<text text-anchor="middle" x="871" y="-56" font-family="Helvetica,sans-Serif" font-size="10.00">Commands.SetHeading.execute</text>
</a>
</g>
</g>
<!-- Node14&#45;&gt;Node16 -->
<g id="edge18" class="edge"><title>Node14&#45;&gt;Node16</title>
<path fill="none" stroke="midnightblue" d="M731.69,-95.6691C755.45,-90.2288 781.467,-84.2715 804.463,-79.0062"/>
<polygon fill="midnightblue" stroke="midnightblue" points="730.628,-92.3216 721.661,-97.9654 732.19,-99.1451 730.628,-92.3216"/>
</g>
</g>
</svg>
