<?xml version="1.0" encoding="UTF-8" standalone="no"?>
<!DOCTYPE svg PUBLIC "-//W3C//DTD SVG 1.1//EN"
 "http://www.w3.org/Graphics/SVG/1.1/DTD/svg11.dtd">
<!-- Generated by graphviz version 2.36.0 (20140111.2315)
 -->
<!-- Title: application.PenHandler.setThicknessParameter Pages: 1 -->
<svg width="1192pt" height="312pt"
 viewBox="0.00 0.00 1192.00 312.00" xmlns="http://www.w3.org/2000/svg" xmlns:xlink="http://www.w3.org/1999/xlink">
<g id="graph0" class="graph" transform="scale(1 1) rotate(0) translate(4 308)">
<title>application.PenHandler.setThicknessParameter</title>
<polygon fill="white" stroke="none" points="-4,4 -4,-308 1188,-308 1188,4 -4,4"/>
<!-- Node1 -->
<g id="node1" class="node"><title>Node1</title>
<polygon fill="#bfbfbf" stroke="black" points="0,-187 0,-217 144,-217 144,-187 0,-187"/>
<text text-anchor="start" x="8" y="-205" font-family="Helvetica,sans-Serif" font-size="10.00">application.PenHandler.set</text>
<text text-anchor="middle" x="72" y="-194" font-family="Helvetica,sans-Serif" font-size="10.00">ThicknessParameter</text>
</g>
<!-- Node2 -->
<g id="node2" class="node"><title>Node2</title>
<g id="a_node2"><a xlink:href="../../d8/d65/classapplication_1_1_view_handler.html#a308dcaf9847965fa4a3d261347845f56" target="_top" xlink:title="application.ViewHandler.set\lInfoParamsOfTurtleAndLine">
<polygon fill="white" stroke="black" points="180,-187 180,-217 328,-217 328,-187 180,-187"/>
<text text-anchor="start" x="188" y="-205" font-family="Helvetica,sans-Serif" font-size="10.00">application.ViewHandler.set</text>
<text text-anchor="middle" x="254" y="-194" font-family="Helvetica,sans-Serif" font-size="10.00">InfoParamsOfTurtleAndLine</text>
</a>
</g>
</g>
<!-- Node1&#45;&gt;Node2 -->
<g id="edge1" class="edge"><title>Node1&#45;&gt;Node2</title>
<path fill="none" stroke="midnightblue" d="M154.373,-202C162.819,-202 171.368,-202 179.718,-202"/>
<polygon fill="midnightblue" stroke="midnightblue" points="154.141,-198.5 144.141,-202 154.141,-205.5 154.141,-198.5"/>
</g>
<!-- Node3 -->
<g id="node3" class="node"><title>Node3</title>
<g id="a_node3"><a xlink:href="../../d8/d65/classapplication_1_1_view_handler.html#ac37927f63d43d93f1b1e0f5a3b59cf26" target="_top" xlink:title="application.ViewHandler.initialize\lTurtle">
<polygon fill="white" stroke="black" points="364.5,-232 364.5,-262 535.5,-262 535.5,-232 364.5,-232"/>
<text text-anchor="start" x="372.5" y="-250" font-family="Helvetica,sans-Serif" font-size="10.00">application.ViewHandler.initialize</text>
<text text-anchor="middle" x="450" y="-239" font-family="Helvetica,sans-Serif" font-size="10.00">Turtle</text>
</a>
</g>
</g>
<!-- Node2&#45;&gt;Node3 -->
<g id="edge2" class="edge"><title>Node2&#45;&gt;Node3</title>
<path fill="none" stroke="midnightblue" d="M329.72,-219.332C347.683,-223.499 366.723,-227.915 384.192,-231.967"/>
<polygon fill="midnightblue" stroke="midnightblue" points="330.401,-215.897 319.869,-217.047 328.819,-222.716 330.401,-215.897"/>
</g>
<!-- Node5 -->
<g id="node5" class="node"><title>Node5</title>
<g id="a_node5"><a xlink:href="../../d8/d65/classapplication_1_1_view_handler.html#ae489ceaa9b5ec67faf3ba22a11cec085" target="_top" xlink:title="application.ViewHandler.update\lTurtleOnView">
<polygon fill="white" stroke="black" points="366.5,-142 366.5,-172 533.5,-172 533.5,-142 366.5,-142"/>
<text text-anchor="start" x="374.5" y="-160" font-family="Helvetica,sans-Serif" font-size="10.00">application.ViewHandler.update</text>
<text text-anchor="middle" x="450" y="-149" font-family="Helvetica,sans-Serif" font-size="10.00">TurtleOnView</text>
</a>
</g>
</g>
<!-- Node2&#45;&gt;Node5 -->
<g id="edge4" class="edge"><title>Node2&#45;&gt;Node5</title>
<path fill="none" stroke="midnightblue" d="M329.72,-184.668C347.683,-180.501 366.723,-176.085 384.192,-172.033"/>
<polygon fill="midnightblue" stroke="midnightblue" points="328.819,-181.284 319.869,-186.953 330.401,-188.103 328.819,-181.284"/>
</g>
<!-- Node4 -->
<g id="node4" class="node"><title>Node4</title>
<g id="a_node4"><a xlink:href="../../d8/d65/classapplication_1_1_view_handler.html#aede07ea15df8a762813028bb80403e6b" target="_top" xlink:title="application.ViewHandler.\lViewHandler">
<polygon fill="white" stroke="black" points="586.5,-274 586.5,-304 719.5,-304 719.5,-274 586.5,-274"/>
<text text-anchor="start" x="594.5" y="-292" font-family="Helvetica,sans-Serif" font-size="10.00">application.ViewHandler.</text>
<text text-anchor="middle" x="653" y="-281" font-family="Helvetica,sans-Serif" font-size="10.00">ViewHandler</text>
</a>
</g>
</g>
<!-- Node3&#45;&gt;Node4 -->
<g id="edge3" class="edge"><title>Node3&#45;&gt;Node4</title>
<path fill="none" stroke="midnightblue" d="M533.268,-264.19C550.891,-267.873 569.288,-271.717 586.193,-275.249"/>
<polygon fill="midnightblue" stroke="midnightblue" points="533.502,-260.664 522.998,-262.044 532.071,-267.516 533.502,-260.664"/>
</g>
<!-- Node6 -->
<g id="node6" class="node"><title>Node6</title>
<g id="a_node6"><a xlink:href="../../d8/d65/classapplication_1_1_view_handler.html#a1a94c855ceb0e8ffb1f72f138addb75b" target="_top" xlink:title="application.ViewHandler.move\lTurtle">
<polygon fill="white" stroke="black" points="789,-213 789,-243 949,-243 949,-213 789,-213"/>
<text text-anchor="start" x="797" y="-231" font-family="Helvetica,sans-Serif" font-size="10.00">application.ViewHandler.move</text>
<text text-anchor="middle" x="869" y="-220" font-family="Helvetica,sans-Serif" font-size="10.00">Turtle</text>
</a>
</g>
</g>
<!-- Node5&#45;&gt;Node6 -->
<g id="edge5" class="edge"><title>Node5&#45;&gt;Node6</title>
<path fill="none" stroke="midnightblue" d="M479,-178.154C502.448,-194.482 537.526,-215.79 572,-225 643.62,-244.134 728.51,-242.658 788.975,-237.722"/>
<polygon fill="midnightblue" stroke="midnightblue" points="480.784,-175.127 470.608,-172.176 476.722,-180.829 480.784,-175.127"/>
</g>
<!-- Node8 -->
<g id="node8" class="node"><title>Node8</title>
<g id="a_node8"><a xlink:href="../../d8/d65/classapplication_1_1_view_handler.html#a1aff135a076a9717102bb59ea613131c" target="_top" xlink:title="application.ViewHandler.change\lLocationOfTurtle">
<polygon fill="white" stroke="black" points="785,-155 785,-185 953,-185 953,-155 785,-155"/>
<text text-anchor="start" x="793" y="-173" font-family="Helvetica,sans-Serif" font-size="10.00">application.ViewHandler.change</text>
<text text-anchor="middle" x="869" y="-162" font-family="Helvetica,sans-Serif" font-size="10.00">LocationOfTurtle</text>
</a>
</g>
</g>
<!-- Node5&#45;&gt;Node8 -->
<g id="edge7" class="edge"><title>Node5&#45;&gt;Node8</title>
<path fill="none" stroke="midnightblue" d="M543.887,-159.896C616.085,-162.147 715.33,-165.241 784.916,-167.41"/>
<polygon fill="midnightblue" stroke="midnightblue" points="543.989,-156.397 533.884,-159.584 543.77,-163.394 543.989,-156.397"/>
</g>
<!-- Node11 -->
<g id="node11" class="node"><title>Node11</title>
<g id="a_node11"><a xlink:href="../../d8/d65/classapplication_1_1_view_handler.html#a98b4ba09b3f3e8b1a7667db5598dbfb0" target="_top" xlink:title="application.ViewHandler.move\lTurtleImageAndDraw">
<polygon fill="white" stroke="black" points="573,-186 573,-216 733,-216 733,-186 573,-186"/>
<text text-anchor="start" x="581" y="-204" font-family="Helvetica,sans-Serif" font-size="10.00">application.ViewHandler.move</text>
<text text-anchor="middle" x="653" y="-193" font-family="Helvetica,sans-Serif" font-size="10.00">TurtleImageAndDraw</text>
</a>
</g>
</g>
<!-- Node5&#45;&gt;Node11 -->
<g id="edge10" class="edge"><title>Node5&#45;&gt;Node11</title>
<path fill="none" stroke="midnightblue" d="M529.39,-174.16C547.202,-178.059 565.988,-182.171 583.358,-185.974"/>
<polygon fill="midnightblue" stroke="midnightblue" points="530.128,-170.739 519.611,-172.019 528.631,-177.577 530.128,-170.739"/>
</g>
<!-- Node12 -->
<g id="node12" class="node"><title>Node12</title>
<g id="a_node12"><a xlink:href="../../d8/d65/classapplication_1_1_view_handler.html#abe68f02cdf0227b13568e1aaabf57e5c" target="_top" xlink:title="application.ViewHandler.rotate\lTurtle">
<polygon fill="white" stroke="black" points="572,-98 572,-128 734,-128 734,-98 572,-98"/>
<text text-anchor="start" x="580" y="-116" font-family="Helvetica,sans-Serif" font-size="10.00">application.ViewHandler.rotate</text>
<text text-anchor="middle" x="653" y="-105" font-family="Helvetica,sans-Serif" font-size="10.00">Turtle</text>
</a>
</g>
</g>
<!-- Node5&#45;&gt;Node12 -->
<g id="edge13" class="edge"><title>Node5&#45;&gt;Node12</title>
<path fill="none" stroke="midnightblue" d="M529.39,-139.84C547.202,-135.941 565.988,-131.829 583.358,-128.026"/>
<polygon fill="midnightblue" stroke="midnightblue" points="528.631,-136.423 519.611,-141.981 530.128,-143.261 528.631,-136.423"/>
</g>
<!-- Node14 -->
<g id="node14" class="node"><title>Node14</title>
<g id="a_node14"><a xlink:href="../../d8/d65/classapplication_1_1_view_handler.html#af07eafb381b0ea9a1ce68f6ffe8a7428" target="_top" xlink:title="application.ViewHandler.set\lTurtleOrientation">
<polygon fill="white" stroke="black" points="579,-49 579,-79 727,-79 727,-49 579,-49"/>
<text text-anchor="start" x="587" y="-67" font-family="Helvetica,sans-Serif" font-size="10.00">application.ViewHandler.set</text>
<text text-anchor="middle" x="653" y="-56" font-family="Helvetica,sans-Serif" font-size="10.00">TurtleOrientation</text>
</a>
</g>
</g>
<!-- Node5&#45;&gt;Node14 -->
<g id="edge15" class="edge"><title>Node5&#45;&gt;Node14</title>
<path fill="none" stroke="midnightblue" d="M482.454,-136.424C506.298,-121.488 540.268,-101.598 572,-88 579.597,-84.7444 587.777,-81.7488 595.904,-79.0587"/>
<polygon fill="midnightblue" stroke="midnightblue" points="480.412,-133.574 473.837,-141.882 484.158,-139.487 480.412,-133.574"/>
</g>
<!-- Node17 -->
<g id="node17" class="node"><title>Node17</title>
<g id="a_node17"><a xlink:href="../../d8/d65/classapplication_1_1_view_handler.html#a55d042c40e05453e3f5f6bc6c1c6e060" target="_top" xlink:title="application.ViewHandler.show\lTurtle">
<polygon fill="white" stroke="black" points="574.5,-0 574.5,-30 731.5,-30 731.5,-0 574.5,-0"/>
<text text-anchor="start" x="582.5" y="-18" font-family="Helvetica,sans-Serif" font-size="10.00">application.ViewHandler.show</text>
<text text-anchor="middle" x="653" y="-7" font-family="Helvetica,sans-Serif" font-size="10.00">Turtle</text>
</a>
</g>
</g>
<!-- Node5&#45;&gt;Node17 -->
<g id="edge18" class="edge"><title>Node5&#45;&gt;Node17</title>
<path fill="none" stroke="midnightblue" d="M468.721,-133.972C490.344,-107.392 529.335,-64.1217 572,-39 577.748,-35.6156 584.013,-32.6726 590.424,-30.1216"/>
<polygon fill="midnightblue" stroke="midnightblue" points="465.837,-131.975 462.328,-141.972 471.305,-136.345 465.837,-131.975"/>
</g>
<!-- Node7 -->
<g id="node7" class="node"><title>Node7</title>
<g id="a_node7"><a xlink:href="../../dd/da6/classcommands_1_1view_commands_1_1turtle_commands_1_1_move.html#af95e8ccf5c290a4d06f79caf2deed407" target="_top" xlink:title="commands.viewCommands.turtle\lCommands.Move.changeLocation">
<polygon fill="white" stroke="black" points="1004.5,-213 1004.5,-243 1183.5,-243 1183.5,-213 1004.5,-213"/>
<text text-anchor="start" x="1012.5" y="-231" font-family="Helvetica,sans-Serif" font-size="10.00">commands.viewCommands.turtle</text>
<text text-anchor="middle" x="1094" y="-220" font-family="Helvetica,sans-Serif" font-size="10.00">Commands.Move.changeLocation</text>
</a>
</g>
</g>
<!-- Node6&#45;&gt;Node7 -->
<g id="edge6" class="edge"><title>Node6&#45;&gt;Node7</title>
<path fill="none" stroke="midnightblue" d="M959.362,-228C974.112,-228 989.401,-228 1004.14,-228"/>
<polygon fill="midnightblue" stroke="midnightblue" points="959.249,-224.5 949.249,-228 959.249,-231.5 959.249,-224.5"/>
</g>
<!-- Node9 -->
<g id="node9" class="node"><title>Node9</title>
<g id="a_node9"><a xlink:href="../../d5/de0/classcommands_1_1view_commands_1_1turtle_commands_1_1_clear_screen.html#ae547e4c170a1b6d41cdfc6c8bfe5e972" target="_top" xlink:title="commands.viewCommands.turtle\lCommands.ClearScreen.execute">
<polygon fill="white" stroke="black" points="1005,-160 1005,-190 1183,-190 1183,-160 1005,-160"/>
<text text-anchor="start" x="1013" y="-178" font-family="Helvetica,sans-Serif" font-size="10.00">commands.viewCommands.turtle</text>
<text text-anchor="middle" x="1094" y="-167" font-family="Helvetica,sans-Serif" font-size="10.00">Commands.ClearScreen.execute</text>
</a>
</g>
</g>
<!-- Node8&#45;&gt;Node9 -->
<g id="edge8" class="edge"><title>Node8&#45;&gt;Node9</title>
<path fill="none" stroke="midnightblue" d="M963.4,-172.094C977.066,-172.401 991.104,-172.715 1004.66,-173.019"/>
<polygon fill="midnightblue" stroke="midnightblue" points="963.113,-168.587 953.037,-171.862 962.956,-175.585 963.113,-168.587"/>
</g>
<!-- Node10 -->
<g id="node10" class="node"><title>Node10</title>
<g id="a_node10"><a xlink:href="../../dd/da6/classcommands_1_1view_commands_1_1turtle_commands_1_1_move.html#af4d9a4d9ade56b5e3a1e582bd891b7b5" target="_top" xlink:title="commands.viewCommands.turtle\lCommands.Move.goToLocation">
<polygon fill="white" stroke="black" points="1005,-111 1005,-141 1183,-141 1183,-111 1005,-111"/>
<text text-anchor="start" x="1013" y="-129" font-family="Helvetica,sans-Serif" font-size="10.00">commands.viewCommands.turtle</text>
<text text-anchor="middle" x="1094" y="-118" font-family="Helvetica,sans-Serif" font-size="10.00">Commands.Move.goToLocation</text>
</a>
</g>
</g>
<!-- Node8&#45;&gt;Node10 -->
<g id="edge9" class="edge"><title>Node8&#45;&gt;Node10</title>
<path fill="none" stroke="midnightblue" d="M956.148,-153.002C976.152,-149.055 997.306,-144.881 1016.84,-141.026"/>
<polygon fill="midnightblue" stroke="midnightblue" points="955.254,-149.611 946.12,-154.981 956.609,-156.479 955.254,-149.611"/>
</g>
<!-- Node11&#45;&gt;Node6 -->
<g id="edge11" class="edge"><title>Node11&#45;&gt;Node6</title>
<path fill="none" stroke="midnightblue" d="M743.432,-212.283C758.52,-214.187 774.088,-216.151 788.89,-218.019"/>
<polygon fill="midnightblue" stroke="midnightblue" points="743.437,-208.756 733.078,-210.977 742.561,-215.701 743.437,-208.756"/>
</g>
<!-- Node11&#45;&gt;Node8 -->
<g id="edge12" class="edge"><title>Node11&#45;&gt;Node8</title>
<path fill="none" stroke="midnightblue" d="M743.085,-188.095C756.947,-186.087 771.222,-184.019 784.944,-182.032"/>
<polygon fill="midnightblue" stroke="midnightblue" points="742.473,-184.647 733.078,-189.545 743.476,-191.575 742.473,-184.647"/>
</g>
<!-- Node13 -->
<g id="node13" class="node"><title>Node13</title>
<g id="a_node13"><a xlink:href="../../d3/dba/classcommands_1_1view_commands_1_1turtle_commands_1_1_rotate.html#a8ee301e936ff8d884357dccac52c2bfb" target="_top" xlink:title="commands.viewCommands.turtle\lCommands.Rotate.changeOrientation">
<polygon fill="white" stroke="black" points="770.5,-98 770.5,-128 967.5,-128 967.5,-98 770.5,-98"/>
<text text-anchor="start" x="778.5" y="-116" font-family="Helvetica,sans-Serif" font-size="10.00">commands.viewCommands.turtle</text>
<text text-anchor="middle" x="869" y="-105" font-family="Helvetica,sans-Serif" font-size="10.00">Commands.Rotate.changeOrientation</text>
</a>
</g>
</g>
<!-- Node12&#45;&gt;Node13 -->
<g id="edge14" class="edge"><title>Node12&#45;&gt;Node13</title>
<path fill="none" stroke="midnightblue" d="M744.296,-113C752.886,-113 761.623,-113 770.278,-113"/>
<polygon fill="midnightblue" stroke="midnightblue" points="744.295,-109.5 734.295,-113 744.295,-116.5 744.295,-109.5"/>
</g>
<!-- Node15 -->
<g id="node15" class="node"><title>Node15</title>
<g id="a_node15"><a xlink:href="../../df/d03/classcommands_1_1view_commands_1_1turtle_commands_1_1_go_towards_loc.html#a67f5f04ce72d0cd234d1e0a11e6d7c83" target="_top" xlink:title="commands.viewCommands.turtle\lCommands.GoTowardsLoc.execute">
<polygon fill="white" stroke="black" points="777,-49 777,-79 961,-79 961,-49 777,-49"/>
<text text-anchor="start" x="785" y="-67" font-family="Helvetica,sans-Serif" font-size="10.00">commands.viewCommands.turtle</text>
<text text-anchor="middle" x="869" y="-56" font-family="Helvetica,sans-Serif" font-size="10.00">Commands.GoTowardsLoc.execute</text>
</a>
</g>
</g>
<!-- Node14&#45;&gt;Node15 -->
<g id="edge16" class="edge"><title>Node14&#45;&gt;Node15</title>
<path fill="none" stroke="midnightblue" d="M737.297,-64C750.226,-64 763.642,-64 776.736,-64"/>
<polygon fill="midnightblue" stroke="midnightblue" points="737.048,-60.5001 727.048,-64 737.048,-67.5001 737.048,-60.5001"/>
</g>
<!-- Node16 -->
<g id="node16" class="node"><title>Node16</title>
<g id="a_node16"><a xlink:href="../../df/ded/classcommands_1_1view_commands_1_1turtle_commands_1_1_set_heading.html#a3efffc1774ad2f0b23742a20789f0ee8" target="_top" xlink:title="commands.viewCommands.turtle\lCommands.SetHeading.execute">
<polygon fill="white" stroke="black" points="780,-0 780,-30 958,-30 958,-0 780,-0"/>
<text text-anchor="start" x="788" y="-18" font-family="Helvetica,sans-Serif" font-size="10.00">commands.viewCommands.turtle</text>
<text text-anchor="middle" x="869" y="-7" font-family="Helvetica,sans-Serif" font-size="10.00">Commands.SetHeading.execute</text>
</a>
</g>
</g>
<!-- Node14&#45;&gt;Node16 -->
<g id="edge17" class="edge"><title>Node14&#45;&gt;Node16</title>
<path fill="none" stroke="midnightblue" d="M729.69,-46.6691C753.45,-41.2288 779.467,-35.2715 802.463,-30.0062"/>
<polygon fill="midnightblue" stroke="midnightblue" points="728.628,-43.3216 719.661,-48.9654 730.19,-50.1451 728.628,-43.3216"/>
</g>
</g>
</svg>
