<?xml version="1.0" encoding="UTF-8" standalone="no"?>
<!DOCTYPE svg PUBLIC "-//W3C//DTD SVG 1.1//EN"
 "http://www.w3.org/Graphics/SVG/1.1/DTD/svg11.dtd">
<!-- Generated by graphviz version 2.36.0 (20140111.2315)
 -->
<!-- Title: configuration.IfelseParser.isboolean Pages: 1 -->
<svg width="612pt" height="38pt"
 viewBox="0.00 0.00 612.00 38.00" xmlns="http://www.w3.org/2000/svg" xmlns:xlink="http://www.w3.org/1999/xlink">
<g id="graph0" class="graph" transform="scale(1 1) rotate(0) translate(4 34)">
<title>configuration.IfelseParser.isboolean</title>
<polygon fill="white" stroke="none" points="-4,4 -4,-34 608,-34 608,4 -4,4"/>
<!-- Node1 -->
<g id="node1" class="node"><title>Node1</title>
<polygon fill="#bfbfbf" stroke="black" points="0.5,-5.5 0.5,-24.5 185.5,-24.5 185.5,-5.5 0.5,-5.5"/>
<text text-anchor="middle" x="93" y="-12.5" font-family="Helvetica,sans-Serif" font-size="10.00">configuration.IfelseParser.isboolean</text>
</g>
<!-- Node2 -->
<g id="node2" class="node"><title>Node2</title>
<g id="a_node2"><a xlink:href="../../d7/d56/classconfiguration_1_1_ifelse_parser.html#aef13959a758ccbf8dab0a3f5f94a7be0" target="_top" xlink:title="configuration.IfelseParser.evaluate\lBoolExpr">
<polygon fill="white" stroke="black" points="222,-0 222,-30 402,-30 402,-0 222,-0"/>
<text text-anchor="start" x="230" y="-18" font-family="Helvetica,sans-Serif" font-size="10.00">configuration.IfelseParser.evaluate</text>
<text text-anchor="middle" x="312" y="-7" font-family="Helvetica,sans-Serif" font-size="10.00">BoolExpr</text>
</a>
</g>
</g>
<!-- Node1&#45;&gt;Node2 -->
<g id="edge1" class="edge"><title>Node1&#45;&gt;Node2</title>
<path fill="none" stroke="midnightblue" d="M195.818,-15C204.46,-15 213.158,-15 221.693,-15"/>
<polygon fill="midnightblue" stroke="midnightblue" points="195.713,-11.5001 185.713,-15 195.713,-18.5001 195.713,-11.5001"/>
</g>
<!-- Node3 -->
<g id="node3" class="node"><title>Node3</title>
<g id="a_node3"><a xlink:href="../../d7/d56/classconfiguration_1_1_ifelse_parser.html#a4b806589536dd338338d515a0fdb67ed" target="_top" xlink:title="configuration.IfelseParser.parse">
<polygon fill="white" stroke="black" points="438,-5.5 438,-24.5 604,-24.5 604,-5.5 438,-5.5"/>
<text text-anchor="middle" x="521" y="-12.5" font-family="Helvetica,sans-Serif" font-size="10.00">configuration.IfelseParser.parse</text>
</a>
</g>
</g>
<!-- Node2&#45;&gt;Node3 -->
<g id="edge2" class="edge"><title>Node2&#45;&gt;Node3</title>
<path fill="none" stroke="midnightblue" d="M412.305,-15C420.865,-15 429.463,-15 437.865,-15"/>
<polygon fill="midnightblue" stroke="midnightblue" points="412.289,-11.5001 402.289,-15 412.289,-18.5001 412.289,-11.5001"/>
</g>
</g>
</svg>
