<?xml version="1.0" encoding="UTF-8" standalone="no"?>
<!DOCTYPE svg PUBLIC "-//W3C//DTD SVG 1.1//EN"
 "http://www.w3.org/Graphics/SVG/1.1/DTD/svg11.dtd">
<!-- Generated by graphviz version 2.36.0 (20140111.2315)
 -->
<!-- Title: configuration.IfelseParser.parseListCommands Pages: 1 -->
<svg width="376pt" height="66pt"
 viewBox="0.00 0.00 376.00 66.00" xmlns="http://www.w3.org/2000/svg" xmlns:xlink="http://www.w3.org/1999/xlink">
<g id="graph0" class="graph" transform="scale(1 1) rotate(0) translate(4 62)">
<title>configuration.IfelseParser.parseListCommands</title>
<polygon fill="white" stroke="none" points="-4,4 -4,-62 372,-62 372,4 -4,4"/>
<!-- Node1 -->
<g id="node1" class="node"><title>Node1</title>
<polygon fill="#bfbfbf" stroke="black" points="0,-14 0,-44 166,-44 166,-14 0,-14"/>
<text text-anchor="start" x="8" y="-32" font-family="Helvetica,sans-Serif" font-size="10.00">configuration.IfelseParser.parse</text>
<text text-anchor="middle" x="83" y="-21" font-family="Helvetica,sans-Serif" font-size="10.00">ListCommands</text>
</g>
<!-- Node2 -->
<g id="node2" class="node"><title>Node2</title>
<g id="a_node2"><a xlink:href="../../d7/d56/classconfiguration_1_1_ifelse_parser.html#a4b806589536dd338338d515a0fdb67ed" target="_top" xlink:title="configuration.IfelseParser.parse">
<polygon fill="white" stroke="black" points="202,-38.5 202,-57.5 368,-57.5 368,-38.5 202,-38.5"/>
<text text-anchor="middle" x="285" y="-45.5" font-family="Helvetica,sans-Serif" font-size="10.00">configuration.IfelseParser.parse</text>
</a>
</g>
</g>
<!-- Node1&#45;&gt;Node2 -->
<g id="edge1" class="edge"><title>Node1&#45;&gt;Node2</title>
<path fill="none" stroke="midnightblue" d="M176.187,-37.7578C184.726,-38.569 193.342,-39.3875 201.783,-40.1893"/>
<polygon fill="midnightblue" stroke="midnightblue" points="176.5,-34.2718 166.213,-36.8103 175.838,-41.2404 176.5,-34.2718"/>
</g>
<!-- Node3 -->
<g id="node3" class="node"><title>Node3</title>
<g id="a_node3"><a xlink:href="../../dc/dd1/classconfiguration_1_1_if_parser.html#ab4ed2d3b7778d2b1206e5d26ebac7976" target="_top" xlink:title="configuration.IfParser.parse">
<polygon fill="white" stroke="black" points="212,-0.5 212,-19.5 358,-19.5 358,-0.5 212,-0.5"/>
<text text-anchor="middle" x="285" y="-7.5" font-family="Helvetica,sans-Serif" font-size="10.00">configuration.IfParser.parse</text>
</a>
</g>
</g>
<!-- Node1&#45;&gt;Node3 -->
<g id="edge2" class="edge"><title>Node1&#45;&gt;Node3</title>
<path fill="none" stroke="midnightblue" d="M176.177,-20.2432C188.098,-19.1107 200.169,-17.964 211.705,-16.868"/>
<polygon fill="midnightblue" stroke="midnightblue" points="175.838,-16.7596 166.213,-21.1897 176.5,-23.7282 175.838,-16.7596"/>
</g>
</g>
</svg>
