<?xml version="1.0" encoding="UTF-8" standalone="no"?>
<!DOCTYPE svg PUBLIC "-//W3C//DTD SVG 1.1//EN"
 "http://www.w3.org/Graphics/SVG/1.1/DTD/svg11.dtd">
<!-- Generated by graphviz version 2.36.0 (20140111.2315)
 -->
<!-- Title: configuration.IfelseParser.parseListCommands Pages: 1 -->
<svg width="792pt" height="287pt"
 viewBox="0.00 0.00 792.00 287.00" xmlns="http://www.w3.org/2000/svg" xmlns:xlink="http://www.w3.org/1999/xlink">
<g id="graph0" class="graph" transform="scale(1 1) rotate(0) translate(4 283)">
<title>configuration.IfelseParser.parseListCommands</title>
<polygon fill="white" stroke="none" points="-4,4 -4,-283 788,-283 788,4 -4,4"/>
<!-- Node1 -->
<g id="node1" class="node"><title>Node1</title>
<polygon fill="#bfbfbf" stroke="black" points="0,-83 0,-113 166,-113 166,-83 0,-83"/>
<text text-anchor="start" x="8" y="-101" font-family="Helvetica,sans-Serif" font-size="10.00">configuration.IfelseParser.parse</text>
<text text-anchor="middle" x="83" y="-90" font-family="Helvetica,sans-Serif" font-size="10.00">ListCommands</text>
</g>
<!-- Node2 -->
<g id="node2" class="node"><title>Node2</title>
<g id="a_node2"><a xlink:href="../../d9/d11/classconfiguration_1_1_parser.html#ae0480f44c9defa614fb470ab154fa60b" target="_top" xlink:title="configuration.Parser.buildTree">
<polygon fill="white" stroke="black" points="202,-164.5 202,-183.5 358,-183.5 358,-164.5 202,-164.5"/>
<text text-anchor="middle" x="280" y="-171.5" font-family="Helvetica,sans-Serif" font-size="10.00">configuration.Parser.buildTree</text>
</a>
</g>
</g>
<!-- Node1&#45;&gt;Node2 -->
<g id="edge1" class="edge"><title>Node1&#45;&gt;Node2</title>
<path fill="none" stroke="midnightblue" d="M110.958,-113.022C134.435,-125.613 169.681,-143.351 202,-155 209.025,-157.532 216.53,-159.844 223.995,-161.916"/>
<polygon fill="midnightblue" stroke="midnightblue" points="223.18,-165.321 233.743,-164.499 224.973,-158.554 223.18,-165.321"/>
</g>
<!-- Node10 -->
<g id="node10" class="node"><title>Node10</title>
<g id="a_node10"><a xlink:href="../../d9/d11/classconfiguration_1_1_parser.html#a07345acba63db50ec60293f2b38e54a6" target="_top" xlink:title="configuration.Parser.isEnd">
<polygon fill="white" stroke="black" points="210,-126.5 210,-145.5 350,-145.5 350,-126.5 210,-126.5"/>
<text text-anchor="middle" x="280" y="-133.5" font-family="Helvetica,sans-Serif" font-size="10.00">configuration.Parser.isEnd</text>
</a>
</g>
</g>
<!-- Node1&#45;&gt;Node10 -->
<g id="edge9" class="edge"><title>Node1&#45;&gt;Node10</title>
<path fill="none" stroke="midnightblue" d="M161.069,-113.019C180.831,-116.87 201.766,-120.949 220.425,-124.585"/>
<polygon fill="midnightblue" stroke="midnightblue" points="219.76,-128.022 230.245,-126.499 221.099,-121.151 219.76,-128.022"/>
</g>
<!-- Node11 -->
<g id="node11" class="node"><title>Node11</title>
<g id="a_node11"><a xlink:href="../../d9/d11/classconfiguration_1_1_parser.html#a2d882145164d4ce98e9ac91b6000c2ab" target="_top" xlink:title="configuration.Parser.isListEnd">
<polygon fill="white" stroke="black" points="202,-88.5 202,-107.5 358,-107.5 358,-88.5 202,-88.5"/>
<text text-anchor="middle" x="280" y="-95.5" font-family="Helvetica,sans-Serif" font-size="10.00">configuration.Parser.isListEnd</text>
</a>
</g>
</g>
<!-- Node1&#45;&gt;Node11 -->
<g id="edge10" class="edge"><title>Node1&#45;&gt;Node11</title>
<path fill="none" stroke="midnightblue" d="M166.132,-98C174.661,-98 183.35,-98 191.931,-98"/>
<polygon fill="midnightblue" stroke="midnightblue" points="191.937,-101.5 201.937,-98 191.937,-94.5001 191.937,-101.5"/>
</g>
<!-- Node12 -->
<g id="node12" class="node"><title>Node12</title>
<g id="a_node12"><a xlink:href="../../d9/d11/classconfiguration_1_1_parser.html#a21cf49f5bc55db161bc1ac86153035a1" target="_top" xlink:title="configuration.Parser.isList\lStart">
<polygon fill="white" stroke="black" points="211,-39 211,-69 349,-69 349,-39 211,-39"/>
<text text-anchor="start" x="219" y="-57" font-family="Helvetica,sans-Serif" font-size="10.00">configuration.Parser.isList</text>
<text text-anchor="middle" x="280" y="-46" font-family="Helvetica,sans-Serif" font-size="10.00">Start</text>
</a>
</g>
</g>
<!-- Node1&#45;&gt;Node12 -->
<g id="edge11" class="edge"><title>Node1&#45;&gt;Node12</title>
<path fill="none" stroke="midnightblue" d="M150.563,-82.9808C167.256,-79.214 185.3,-75.1426 202.438,-71.2756"/>
<polygon fill="midnightblue" stroke="midnightblue" points="203.422,-74.6415 212.407,-69.0262 201.881,-67.8132 203.422,-74.6415"/>
</g>
<!-- Node13 -->
<g id="node13" class="node"><title>Node13</title>
<g id="a_node13"><a xlink:href="../../d9/d11/classconfiguration_1_1_parser.html#a0d2aa50e7ee2ec257e7030f716ab880e" target="_top" xlink:title="configuration.Parser.skip">
<polygon fill="white" stroke="black" points="213.5,-0.5 213.5,-19.5 346.5,-19.5 346.5,-0.5 213.5,-0.5"/>
<text text-anchor="middle" x="280" y="-7.5" font-family="Helvetica,sans-Serif" font-size="10.00">configuration.Parser.skip</text>
</a>
</g>
</g>
<!-- Node1&#45;&gt;Node13 -->
<g id="edge12" class="edge"><title>Node1&#45;&gt;Node13</title>
<path fill="none" stroke="midnightblue" d="M105.636,-82.7704C128.586,-67.248 166.377,-43.457 202,-29 208.172,-26.4953 214.761,-24.2587 221.389,-22.2784"/>
<polygon fill="midnightblue" stroke="midnightblue" points="222.4,-25.6298 231.083,-19.5589 220.509,-18.89 222.4,-25.6298"/>
</g>
<!-- Node3 -->
<g id="node3" class="node"><title>Node3</title>
<g id="a_node3"><a xlink:href="../../d9/d11/classconfiguration_1_1_parser.html#a6a8ca49b46db578a3d9e84b0c4ce2f75" target="_top" xlink:title="configuration.Parser.isCommand">
<polygon fill="white" stroke="black" points="419,-259.5 419,-278.5 591,-278.5 591,-259.5 419,-259.5"/>
<text text-anchor="middle" x="505" y="-266.5" font-family="Helvetica,sans-Serif" font-size="10.00">configuration.Parser.isCommand</text>
</a>
</g>
</g>
<!-- Node2&#45;&gt;Node3 -->
<g id="edge2" class="edge"><title>Node2&#45;&gt;Node3</title>
<path fill="none" stroke="midnightblue" d="M291.951,-183.735C311.144,-200.22 352.749,-233.449 394,-250 400.677,-252.679 407.731,-254.981 414.913,-256.958"/>
<polygon fill="midnightblue" stroke="midnightblue" points="414.206,-260.39 424.76,-259.458 415.929,-253.605 414.206,-260.39"/>
</g>
<!-- Node4 -->
<g id="node4" class="node"><title>Node4</title>
<g id="a_node4"><a xlink:href="../../da/dde/classconfiguration_1_1_util.html#a55c271426926996186d1cde227ae7e23" target="_top" xlink:title="configuration.Util.findCommandKey">
<polygon fill="white" stroke="black" points="412.5,-221.5 412.5,-240.5 597.5,-240.5 597.5,-221.5 412.5,-221.5"/>
<text text-anchor="middle" x="505" y="-228.5" font-family="Helvetica,sans-Serif" font-size="10.00">configuration.Util.findCommandKey</text>
</a>
</g>
</g>
<!-- Node2&#45;&gt;Node4 -->
<g id="edge3" class="edge"><title>Node2&#45;&gt;Node4</title>
<path fill="none" stroke="midnightblue" d="M305.805,-183.568C328.483,-192.021 363.099,-204.185 394,-212 405.302,-214.859 417.367,-217.423 429.211,-219.673"/>
<polygon fill="midnightblue" stroke="midnightblue" points="428.619,-223.123 439.088,-221.489 429.885,-216.238 428.619,-223.123"/>
</g>
<!-- Node6 -->
<g id="node6" class="node"><title>Node6</title>
<g id="a_node6"><a xlink:href="../../d9/d11/classconfiguration_1_1_parser.html#af0032734232f2e6043d7c8c94d86dd1f" target="_top" xlink:title="configuration.Parser.isConstant">
<polygon fill="white" stroke="black" points="422.5,-183.5 422.5,-202.5 587.5,-202.5 587.5,-183.5 422.5,-183.5"/>
<text text-anchor="middle" x="505" y="-190.5" font-family="Helvetica,sans-Serif" font-size="10.00">configuration.Parser.isConstant</text>
</a>
</g>
</g>
<!-- Node2&#45;&gt;Node6 -->
<g id="edge5" class="edge"><title>Node2&#45;&gt;Node6</title>
<path fill="none" stroke="midnightblue" d="M358.056,-180.565C375.502,-182.052 394.195,-183.644 412.182,-185.177"/>
<polygon fill="midnightblue" stroke="midnightblue" points="412.121,-188.684 422.382,-186.046 412.715,-181.71 412.121,-188.684"/>
</g>
<!-- Node7 -->
<g id="node7" class="node"><title>Node7</title>
<g id="a_node7"><a xlink:href="../../d9/d11/classconfiguration_1_1_parser.html#a061c6e2e973a9e7f531931f61f45448b" target="_top" xlink:title="configuration.Parser.isVariable">
<polygon fill="white" stroke="black" points="425,-145.5 425,-164.5 585,-164.5 585,-145.5 425,-145.5"/>
<text text-anchor="middle" x="505" y="-152.5" font-family="Helvetica,sans-Serif" font-size="10.00">configuration.Parser.isVariable</text>
</a>
</g>
</g>
<!-- Node2&#45;&gt;Node7 -->
<g id="edge6" class="edge"><title>Node2&#45;&gt;Node7</title>
<path fill="none" stroke="midnightblue" d="M358.056,-167.435C376.304,-165.88 395.917,-164.209 414.66,-162.612"/>
<polygon fill="midnightblue" stroke="midnightblue" points="415.001,-166.096 424.668,-161.759 414.407,-159.121 415.001,-166.096"/>
</g>
<!-- Node8 -->
<g id="node8" class="node"><title>Node8</title>
<g id="a_node8"><a xlink:href="../../d0/d3b/classcommands_1_1_user_made_utilities.html#ad6e90d3cccee9da7cf3df2c13fc70381" target="_top" xlink:title="commands.UserMadeUtilities.containsVars">
<polygon fill="white" stroke="black" points="394,-107.5 394,-126.5 616,-126.5 616,-107.5 394,-107.5"/>
<text text-anchor="middle" x="505" y="-114.5" font-family="Helvetica,sans-Serif" font-size="10.00">commands.UserMadeUtilities.containsVars</text>
</a>
</g>
</g>
<!-- Node2&#45;&gt;Node8 -->
<g id="edge7" class="edge"><title>Node2&#45;&gt;Node8</title>
<path fill="none" stroke="midnightblue" d="M327.572,-164.447C337.744,-161.826 348.349,-158.674 358,-155 374.908,-148.563 376.875,-141.834 394,-136 402.264,-133.185 411.025,-130.772 419.853,-128.707"/>
<polygon fill="midnightblue" stroke="midnightblue" points="420.807,-132.081 429.826,-126.521 419.308,-125.244 420.807,-132.081"/>
</g>
<!-- Node9 -->
<g id="node9" class="node"><title>Node9</title>
<g id="a_node9"><a xlink:href="../../d0/d3b/classcommands_1_1_user_made_utilities.html#afc570f31a89922ff7a42f13839888c8f" target="_top" xlink:title="commands.UserMadeUtilities.get\lFromVars">
<polygon fill="white" stroke="black" points="417,-58 417,-88 593,-88 593,-58 417,-58"/>
<text text-anchor="start" x="425" y="-76" font-family="Helvetica,sans-Serif" font-size="10.00">commands.UserMadeUtilities.get</text>
<text text-anchor="middle" x="505" y="-65" font-family="Helvetica,sans-Serif" font-size="10.00">FromVars</text>
</a>
</g>
</g>
<!-- Node2&#45;&gt;Node9 -->
<g id="edge8" class="edge"><title>Node2&#45;&gt;Node9</title>
<path fill="none" stroke="midnightblue" d="M340.277,-164.409C346.581,-161.949 352.639,-158.865 358,-155 382.304,-137.476 369.535,-115.299 394,-98 398.239,-95.0028 402.779,-92.3582 407.513,-90.0254"/>
<polygon fill="midnightblue" stroke="midnightblue" points="409.093,-93.1538 416.827,-85.9128 406.266,-86.7503 409.093,-93.1538"/>
</g>
<!-- Node5 -->
<g id="node5" class="node"><title>Node5</title>
<g id="a_node5"><a xlink:href="../../da/dde/classconfiguration_1_1_util.html#a163b0098613bf2f7becf27b131af3934" target="_top" xlink:title="configuration.Util.match">
<polygon fill="white" stroke="black" points="652.5,-221.5 652.5,-240.5 783.5,-240.5 783.5,-221.5 652.5,-221.5"/>
<text text-anchor="middle" x="718" y="-228.5" font-family="Helvetica,sans-Serif" font-size="10.00">configuration.Util.match</text>
</a>
</g>
</g>
<!-- Node4&#45;&gt;Node5 -->
<g id="edge4" class="edge"><title>Node4&#45;&gt;Node5</title>
<path fill="none" stroke="midnightblue" d="M597.627,-231C612.483,-231 627.713,-231 642.11,-231"/>
<polygon fill="midnightblue" stroke="midnightblue" points="642.429,-234.5 652.429,-231 642.429,-227.5 642.429,-234.5"/>
</g>
</g>
</svg>
