<?xml version="1.0" encoding="UTF-8" standalone="no"?>
<!DOCTYPE svg PUBLIC "-//W3C//DTD SVG 1.1//EN"
 "http://www.w3.org/Graphics/SVG/1.1/DTD/svg11.dtd">
<!-- Generated by graphviz version 2.36.0 (20140111.2315)
 -->
<!-- Title: configuration.IfelseParser.parse Pages: 1 -->
<svg width="372pt" height="77pt"
 viewBox="0.00 0.00 372.00 77.00" xmlns="http://www.w3.org/2000/svg" xmlns:xlink="http://www.w3.org/1999/xlink">
<g id="graph0" class="graph" transform="scale(1 1) rotate(0) translate(4 73)">
<title>configuration.IfelseParser.parse</title>
<polygon fill="white" stroke="none" points="-4,4 -4,-73 368,-73 368,4 -4,4"/>
<!-- Node1 -->
<g id="node1" class="node"><title>Node1</title>
<polygon fill="#bfbfbf" stroke="black" points="0,-27.5 0,-46.5 166,-46.5 166,-27.5 0,-27.5"/>
<text text-anchor="middle" x="83" y="-34.5" font-family="Helvetica,sans-Serif" font-size="10.00">configuration.IfelseParser.parse</text>
</g>
<!-- Node2 -->
<g id="node2" class="node"><title>Node2</title>
<g id="a_node2"><a xlink:href="../../d9/d11/classconfiguration_1_1_parser.html#a0d2aa50e7ee2ec257e7030f716ab880e" target="_top" xlink:title="configuration.Parser.skip">
<polygon fill="white" stroke="black" points="216.5,-49.5 216.5,-68.5 349.5,-68.5 349.5,-49.5 216.5,-49.5"/>
<text text-anchor="middle" x="283" y="-56.5" font-family="Helvetica,sans-Serif" font-size="10.00">configuration.Parser.skip</text>
</a>
</g>
</g>
<!-- Node1&#45;&gt;Node2 -->
<g id="edge1" class="edge"><title>Node1&#45;&gt;Node2</title>
<path fill="none" stroke="midnightblue" d="M166.25,-46.1389C179.412,-47.6014 192.982,-49.1091 205.991,-50.5545"/>
<polygon fill="midnightblue" stroke="midnightblue" points="205.959,-54.0725 216.285,-51.6983 206.733,-47.1153 205.959,-54.0725"/>
</g>
<!-- Node3 -->
<g id="node3" class="node"><title>Node3</title>
<g id="a_node3"><a xlink:href="../../da/dde/classconfiguration_1_1_util.html#a535858cb955beeaeaa5e7eccfb71d4c1" target="_top" xlink:title="configuration.Util.toCommand\lQueue">
<polygon fill="white" stroke="black" points="202.5,-0 202.5,-30 363.5,-30 363.5,-0 202.5,-0"/>
<text text-anchor="start" x="210.5" y="-18" font-family="Helvetica,sans-Serif" font-size="10.00">configuration.Util.toCommand</text>
<text text-anchor="middle" x="283" y="-7" font-family="Helvetica,sans-Serif" font-size="10.00">Queue</text>
</a>
</g>
</g>
<!-- Node1&#45;&gt;Node3 -->
<g id="edge2" class="edge"><title>Node1&#45;&gt;Node3</title>
<path fill="none" stroke="midnightblue" d="M166.25,-27.8611C174.803,-26.9108 183.528,-25.9414 192.159,-24.9823"/>
<polygon fill="midnightblue" stroke="midnightblue" points="192.68,-28.446 202.233,-23.863 191.907,-21.4889 192.68,-28.446"/>
</g>
</g>
</svg>
