<?xml version="1.0" encoding="UTF-8" standalone="no"?>
<!DOCTYPE svg PUBLIC "-//W3C//DTD SVG 1.1//EN"
 "http://www.w3.org/Graphics/SVG/1.1/DTD/svg11.dtd">
<!-- Generated by graphviz version 2.36.0 (20140111.2315)
 -->
<!-- Title: configuration.IfelseParser.parse Pages: 1 -->
<!--zoomable 306 -->
<svg id="main" version="1.1" xmlns="http://www.w3.org/2000/svg" xmlns:xlink="http://www.w3.org/1999/xlink" xml:space="preserve" onload="init(evt)">
<style type="text/css"><![CDATA[
.edge:hover path { stroke: red; }
.edge:hover polygon { stroke: red; fill: red; }
]]></style>
<script type="text/javascript"><![CDATA[
var edges = document.getElementsByTagName('g');
if (edges && edges.length) {
  for (var i=0;i<edges.length;i++) {
    if (edges[i].id.substr(0,4)=='edge') {
      edges[i].setAttribute('class','edge');
    }
  }
}
]]></script>
        <defs>
                <circle id="rim" cx="0" cy="0" r="7"/>
                <circle id="rim2" cx="0" cy="0" r="3.5"/>
                <g id="zoomPlus">
                        <use xlink:href="#rim" fill="#404040">
                                <set attributeName="fill" to="#808080" begin="zoomplus.mouseover" end="zoomplus.mouseout"/>
                        </use>
                        <path d="M-4,0h8M0,-4v8" fill="none" stroke="white" stroke-width="1.5" pointer-events="none"/>
                </g>
                <g id="zoomMin">
                        <use xlink:href="#rim" fill="#404040">
                                <set attributeName="fill" to="#808080" begin="zoomminus.mouseover" end="zoomminus.mouseout"/>
                        </use>
                        <path d="M-4,0h8" fill="none" stroke="white" stroke-width="1.5" pointer-events="none"/>
                </g>
                <g id="dirArrow">
                        <path fill="none" stroke="white" stroke-width="1.5" d="M0,-3.0v7 M-2.5,-0.5L0,-3.0L2.5,-0.5"/>
                </g>
               <g id="resetDef">
                       <use xlink:href="#rim2" fill="#404040">
                               <set attributeName="fill" to="#808080" begin="reset.mouseover" end="reset.mouseout"/>
                       </use>
               </g>
        </defs>

<script type="text/javascript">
var viewWidth = 1038;
var viewHeight = 306;
var sectionId = 'dynsection-10';
</script>
<script xlink:href="../../svgpan.js"/>
<svg id="graph" class="graph">
<g id="viewport">
<title>configuration.IfelseParser.parse</title>
<polygon fill="white" stroke="none" points="-4,4 -4,-302 1034,-302 1034,4 -4,4"/>
<!-- Node1 -->
<g id="node1" class="node"><title>Node1</title>
<polygon fill="#bfbfbf" stroke="black" points="0,-98.5 0,-117.5 166,-117.5 166,-98.5 0,-98.5"/>
<text text-anchor="middle" x="83" y="-105.5" font-family="Helvetica,sans-Serif" font-size="10.00">configuration.IfelseParser.parse</text>
</g>
<!-- Node2 -->
<g id="node2" class="node"><title>Node2</title>
<g id="a_node2"><a xlink:href="../../d7/d56/classconfiguration_1_1_ifelse_parser.html#aef13959a758ccbf8dab0a3f5f94a7be0" target="_top" xlink:title="configuration.IfelseParser.evaluate\lBoolExpr">
<polygon fill="white" stroke="black" points="202,-219 202,-249 382,-249 382,-219 202,-219"/>
<text text-anchor="start" x="210" y="-237" font-family="Helvetica,sans-Serif" font-size="10.00">configuration.IfelseParser.evaluate</text>
<text text-anchor="middle" x="292" y="-226" font-family="Helvetica,sans-Serif" font-size="10.00">BoolExpr</text>
</a>
</g>
</g>
<!-- Node1&#45;&gt;Node2 -->
<g id="edge1" class="edge"><title>Node1&#45;&gt;Node2</title>
<path fill="none" stroke="midnightblue" d="M97.1129,-117.648C118.546,-133.242 162.643,-164.6 202,-188 217.476,-197.201 234.988,-206.483 250.36,-214.275"/>
<polygon fill="midnightblue" stroke="midnightblue" points="249.109,-217.563 259.616,-218.92 252.248,-211.307 249.109,-217.563"/>
</g>
<!-- Node13 -->
<g id="node13" class="node"><title>Node13</title>
<g id="a_node13"><a xlink:href="../../da/dde/classconfiguration_1_1_util.html#af37a7249e56aff3c4b501035bd9e403a" target="_top" xlink:title="configuration.Util.executeAll">
<polygon fill="white" stroke="black" points="217,-0.5 217,-19.5 367,-19.5 367,-0.5 217,-0.5"/>
<text text-anchor="middle" x="292" y="-7.5" font-family="Helvetica,sans-Serif" font-size="10.00">configuration.Util.executeAll</text>
</a>
</g>
</g>
<!-- Node1&#45;&gt;Node13 -->
<g id="edge13" class="edge"><title>Node1&#45;&gt;Node13</title>
<path fill="none" stroke="midnightblue" d="M96.3977,-98.4649C117.168,-82.9083 160.782,-52.0008 202,-34 212.549,-29.393 224.196,-25.4801 235.492,-22.2351"/>
<polygon fill="midnightblue" stroke="midnightblue" points="236.569,-25.5691 245.291,-19.5547 234.722,-18.8171 236.569,-25.5691"/>
</g>
<!-- Node14 -->
<g id="node14" class="node"><title>Node14</title>
<g id="a_node14"><a xlink:href="../../d9/d11/classconfiguration_1_1_parser.html#a07345acba63db50ec60293f2b38e54a6" target="_top" xlink:title="configuration.Parser.isEnd">
<polygon fill="white" stroke="black" points="441,-164.5 441,-183.5 581,-183.5 581,-164.5 441,-164.5"/>
<text text-anchor="middle" x="511" y="-171.5" font-family="Helvetica,sans-Serif" font-size="10.00">configuration.Parser.isEnd</text>
</a>
</g>
</g>
<!-- Node1&#45;&gt;Node14 -->
<g id="edge14" class="edge"><title>Node1&#45;&gt;Node14</title>
<path fill="none" stroke="midnightblue" d="M103.052,-117.539C125.917,-128.484 165.723,-145.953 202,-154 278.438,-170.955 367.958,-175.071 430.724,-175.48"/>
<polygon fill="midnightblue" stroke="midnightblue" points="430.939,-178.981 440.952,-175.516 430.964,-171.981 430.939,-178.981"/>
</g>
<!-- Node15 -->
<g id="node15" class="node"><title>Node15</title>
<g id="a_node15"><a xlink:href="../../d9/d11/classconfiguration_1_1_parser.html#a2d882145164d4ce98e9ac91b6000c2ab" target="_top" xlink:title="configuration.Parser.isListEnd">
<polygon fill="white" stroke="black" points="433,-76.5 433,-95.5 589,-95.5 589,-76.5 433,-76.5"/>
<text text-anchor="middle" x="511" y="-83.5" font-family="Helvetica,sans-Serif" font-size="10.00">configuration.Parser.isListEnd</text>
</a>
</g>
</g>
<!-- Node1&#45;&gt;Node15 -->
<g id="edge15" class="edge"><title>Node1&#45;&gt;Node15</title>
<path fill="none" stroke="midnightblue" d="M166.137,-103.758C239.684,-99.96 347.218,-94.4066 422.392,-90.5244"/>
<polygon fill="midnightblue" stroke="midnightblue" points="422.971,-93.9992 432.777,-89.988 422.61,-87.0085 422.971,-93.9992"/>
</g>
<!-- Node16 -->
<g id="node16" class="node"><title>Node16</title>
<g id="a_node16"><a xlink:href="../../d7/d56/classconfiguration_1_1_ifelse_parser.html#aeb471eacbe15e095075bdd09619fe15d" target="_top" xlink:title="configuration.IfelseParser.parse\lListCommands">
<polygon fill="white" stroke="black" points="209,-115 209,-145 375,-145 375,-115 209,-115"/>
<text text-anchor="start" x="217" y="-133" font-family="Helvetica,sans-Serif" font-size="10.00">configuration.IfelseParser.parse</text>
<text text-anchor="middle" x="292" y="-122" font-family="Helvetica,sans-Serif" font-size="10.00">ListCommands</text>
</a>
</g>
</g>
<!-- Node1&#45;&gt;Node16 -->
<g id="edge16" class="edge"><title>Node1&#45;&gt;Node16</title>
<path fill="none" stroke="midnightblue" d="M166.109,-116.727C176.912,-117.875 188.04,-119.057 198.994,-120.222"/>
<polygon fill="midnightblue" stroke="midnightblue" points="198.676,-123.707 208.99,-121.284 199.416,-116.747 198.676,-123.707"/>
</g>
<!-- Node18 -->
<g id="node18" class="node"><title>Node18</title>
<g id="a_node18"><a xlink:href="../../d9/d11/classconfiguration_1_1_parser.html#a0d2aa50e7ee2ec257e7030f716ab880e" target="_top" xlink:title="configuration.Parser.skip">
<polygon fill="white" stroke="black" points="444.5,-38.5 444.5,-57.5 577.5,-57.5 577.5,-38.5 444.5,-38.5"/>
<text text-anchor="middle" x="511" y="-45.5" font-family="Helvetica,sans-Serif" font-size="10.00">configuration.Parser.skip</text>
</a>
</g>
</g>
<!-- Node1&#45;&gt;Node18 -->
<g id="edge22" class="edge"><title>Node1&#45;&gt;Node18</title>
<path fill="none" stroke="midnightblue" d="M145.217,-98.4733C163.476,-95.6826 183.541,-92.6663 202,-90 281.183,-78.5625 371.944,-66.2872 434.32,-57.9799"/>
<polygon fill="midnightblue" stroke="midnightblue" points="435.016,-61.4183 444.467,-56.6302 434.093,-54.4794 435.016,-61.4183"/>
</g>
<!-- Node3 -->
<g id="node3" class="node"><title>Node3</title>
<g id="a_node3"><a xlink:href="../../d9/d11/classconfiguration_1_1_parser.html#ae0480f44c9defa614fb470ab154fa60b" target="_top" xlink:title="configuration.Parser.buildTree">
<polygon fill="white" stroke="black" points="433,-202.5 433,-221.5 589,-221.5 589,-202.5 433,-202.5"/>
<text text-anchor="middle" x="511" y="-209.5" font-family="Helvetica,sans-Serif" font-size="10.00">configuration.Parser.buildTree</text>
</a>
</g>
</g>
<!-- Node2&#45;&gt;Node3 -->
<g id="edge2" class="edge"><title>Node2&#45;&gt;Node3</title>
<path fill="none" stroke="midnightblue" d="M382.202,-224.957C395.616,-223.597 409.436,-222.195 422.807,-220.84"/>
<polygon fill="midnightblue" stroke="midnightblue" points="423.335,-224.304 432.931,-219.813 422.629,-217.34 423.335,-224.304"/>
</g>
<!-- Node11 -->
<g id="node11" class="node"><title>Node11</title>
<g id="a_node11"><a xlink:href="../../d8/d4f/interface_tree_1_1_node.html#a83d55b41499cfcfd3607420eed42507c" target="_top" xlink:title="Tree.Node.getValue">
<polygon fill="white" stroke="black" points="456,-278.5 456,-297.5 566,-297.5 566,-278.5 456,-278.5"/>
<text text-anchor="middle" x="511" y="-285.5" font-family="Helvetica,sans-Serif" font-size="10.00">Tree.Node.getValue</text>
</a>
</g>
</g>
<!-- Node2&#45;&gt;Node11 -->
<g id="edge10" class="edge"><title>Node2&#45;&gt;Node11</title>
<path fill="none" stroke="midnightblue" d="M343.574,-249.021C366.24,-255.531 393.364,-263.015 418,-269 428.556,-271.565 439.848,-274.081 450.777,-276.401"/>
<polygon fill="midnightblue" stroke="midnightblue" points="450.176,-279.851 460.681,-278.471 451.609,-272.999 450.176,-279.851"/>
</g>
<!-- Node12 -->
<g id="node12" class="node"><title>Node12</title>
<g id="a_node12"><a xlink:href="../../d7/d56/classconfiguration_1_1_ifelse_parser.html#a6098b84b1c6e73b18db5e016da7fece1" target="_top" xlink:title="configuration.IfelseParser.isboolean">
<polygon fill="white" stroke="black" points="418.5,-240.5 418.5,-259.5 603.5,-259.5 603.5,-240.5 418.5,-240.5"/>
<text text-anchor="middle" x="511" y="-247.5" font-family="Helvetica,sans-Serif" font-size="10.00">configuration.IfelseParser.isboolean</text>
</a>
</g>
</g>
<!-- Node2&#45;&gt;Node12 -->
<g id="edge11" class="edge"><title>Node2&#45;&gt;Node12</title>
<path fill="none" stroke="midnightblue" d="M382.202,-240.577C390.772,-241.209 399.508,-241.853 408.186,-242.493"/>
<polygon fill="midnightblue" stroke="midnightblue" points="408.105,-245.996 418.335,-243.241 408.619,-239.015 408.105,-245.996"/>
</g>
<!-- Node4 -->
<g id="node4" class="node"><title>Node4</title>
<g id="a_node4"><a xlink:href="../../d9/d11/classconfiguration_1_1_parser.html#a6a8ca49b46db578a3d9e84b0c4ce2f75" target="_top" xlink:title="configuration.Parser.isCommand">
<polygon fill="white" stroke="black" points="665,-114.5 665,-133.5 837,-133.5 837,-114.5 665,-114.5"/>
<text text-anchor="middle" x="751" y="-121.5" font-family="Helvetica,sans-Serif" font-size="10.00">configuration.Parser.isCommand</text>
</a>
</g>
</g>
<!-- Node3&#45;&gt;Node4 -->
<g id="edge3" class="edge"><title>Node3&#45;&gt;Node4</title>
<path fill="none" stroke="midnightblue" d="M584.864,-202.352C591.612,-199.885 598.116,-196.815 604,-193 626.976,-178.103 616.784,-157.52 640,-143 644.775,-140.013 649.884,-137.46 655.189,-135.28"/>
<polygon fill="midnightblue" stroke="midnightblue" points="656.715,-138.45 664.92,-131.746 654.326,-131.87 656.715,-138.45"/>
</g>
<!-- Node5 -->
<g id="node5" class="node"><title>Node5</title>
<g id="a_node5"><a xlink:href="../../da/dde/classconfiguration_1_1_util.html#a55c271426926996186d1cde227ae7e23" target="_top" xlink:title="configuration.Util.findCommandKey">
<polygon fill="white" stroke="black" points="658.5,-278.5 658.5,-297.5 843.5,-297.5 843.5,-278.5 658.5,-278.5"/>
<text text-anchor="middle" x="751" y="-285.5" font-family="Helvetica,sans-Serif" font-size="10.00">configuration.Util.findCommandKey</text>
</a>
</g>
</g>
<!-- Node3&#45;&gt;Node5 -->
<g id="edge4" class="edge"><title>Node3&#45;&gt;Node5</title>
<path fill="none" stroke="midnightblue" d="M581.483,-221.553C589.338,-224.017 597.018,-227.112 604,-231 624.326,-242.317 619.492,-258.016 640,-269 644.26,-271.282 648.734,-273.299 653.34,-275.083"/>
<polygon fill="midnightblue" stroke="midnightblue" points="652.358,-278.447 662.953,-278.423 654.656,-271.834 652.358,-278.447"/>
</g>
<!-- Node7 -->
<g id="node7" class="node"><title>Node7</title>
<g id="a_node7"><a xlink:href="../../d9/d11/classconfiguration_1_1_parser.html#af0032734232f2e6043d7c8c94d86dd1f" target="_top" xlink:title="configuration.Parser.isConstant">
<polygon fill="white" stroke="black" points="668.5,-76.5 668.5,-95.5 833.5,-95.5 833.5,-76.5 668.5,-76.5"/>
<text text-anchor="middle" x="751" y="-83.5" font-family="Helvetica,sans-Serif" font-size="10.00">configuration.Parser.isConstant</text>
</a>
</g>
</g>
<!-- Node3&#45;&gt;Node7 -->
<g id="edge6" class="edge"><title>Node3&#45;&gt;Node7</title>
<path fill="none" stroke="midnightblue" d="M589.046,-202.333C594.417,-199.823 599.483,-196.751 604,-193 636.508,-166.002 607.056,-131.464 640,-105 645.713,-100.411 652.138,-96.7625 658.941,-93.8777"/>
<polygon fill="midnightblue" stroke="midnightblue" points="660.236,-97.1305 668.419,-90.4003 657.825,-90.5589 660.236,-97.1305"/>
</g>
<!-- Node8 -->
<g id="node8" class="node"><title>Node8</title>
<g id="a_node8"><a xlink:href="../../d9/d11/classconfiguration_1_1_parser.html#a061c6e2e973a9e7f531931f61f45448b" target="_top" xlink:title="configuration.Parser.isVariable">
<polygon fill="white" stroke="black" points="671,-240.5 671,-259.5 831,-259.5 831,-240.5 671,-240.5"/>
<text text-anchor="middle" x="751" y="-247.5" font-family="Helvetica,sans-Serif" font-size="10.00">configuration.Parser.isVariable</text>
</a>
</g>
</g>
<!-- Node3&#45;&gt;Node8 -->
<g id="edge7" class="edge"><title>Node3&#45;&gt;Node8</title>
<path fill="none" stroke="midnightblue" d="M571.75,-221.54C604.711,-226.803 645.813,-233.365 680.24,-238.862"/>
<polygon fill="midnightblue" stroke="midnightblue" points="679.798,-242.336 690.225,-240.456 680.902,-235.423 679.798,-242.336"/>
</g>
<!-- Node9 -->
<g id="node9" class="node"><title>Node9</title>
<g id="a_node9"><a xlink:href="../../d0/d3b/classcommands_1_1_user_made_utilities.html#ad6e90d3cccee9da7cf3df2c13fc70381" target="_top" xlink:title="commands.UserMadeUtilities.containsVars">
<polygon fill="white" stroke="black" points="640,-202.5 640,-221.5 862,-221.5 862,-202.5 640,-202.5"/>
<text text-anchor="middle" x="751" y="-209.5" font-family="Helvetica,sans-Serif" font-size="10.00">commands.UserMadeUtilities.containsVars</text>
</a>
</g>
</g>
<!-- Node3&#45;&gt;Node9 -->
<g id="edge8" class="edge"><title>Node3&#45;&gt;Node9</title>
<path fill="none" stroke="midnightblue" d="M589.272,-212C602.269,-212 616.027,-212 629.806,-212"/>
<polygon fill="midnightblue" stroke="midnightblue" points="629.833,-215.5 639.833,-212 629.832,-208.5 629.833,-215.5"/>
</g>
<!-- Node10 -->
<g id="node10" class="node"><title>Node10</title>
<g id="a_node10"><a xlink:href="../../d0/d3b/classcommands_1_1_user_made_utilities.html#afc570f31a89922ff7a42f13839888c8f" target="_top" xlink:title="commands.UserMadeUtilities.get\lFromVars">
<polygon fill="white" stroke="black" points="663,-153 663,-183 839,-183 839,-153 663,-153"/>
<text text-anchor="start" x="671" y="-171" font-family="Helvetica,sans-Serif" font-size="10.00">commands.UserMadeUtilities.get</text>
<text text-anchor="middle" x="751" y="-160" font-family="Helvetica,sans-Serif" font-size="10.00">FromVars</text>
</a>
</g>
</g>
<!-- Node3&#45;&gt;Node10 -->
<g id="edge9" class="edge"><title>Node3&#45;&gt;Node10</title>
<path fill="none" stroke="midnightblue" d="M563.642,-202.453C591.395,-197.322 626.437,-190.844 658.624,-184.893"/>
<polygon fill="midnightblue" stroke="midnightblue" points="659.313,-188.325 668.51,-183.065 658.04,-181.442 659.313,-188.325"/>
</g>
<!-- Node6 -->
<g id="node6" class="node"><title>Node6</title>
<g id="a_node6"><a xlink:href="../../da/dde/classconfiguration_1_1_util.html#a163b0098613bf2f7becf27b131af3934" target="_top" xlink:title="configuration.Util.match">
<polygon fill="white" stroke="black" points="898.5,-278.5 898.5,-297.5 1029.5,-297.5 1029.5,-278.5 898.5,-278.5"/>
<text text-anchor="middle" x="964" y="-285.5" font-family="Helvetica,sans-Serif" font-size="10.00">configuration.Util.match</text>
</a>
</g>
</g>
<!-- Node5&#45;&gt;Node6 -->
<g id="edge5" class="edge"><title>Node5&#45;&gt;Node6</title>
<path fill="none" stroke="midnightblue" d="M843.627,-288C858.483,-288 873.713,-288 888.11,-288"/>
<polygon fill="midnightblue" stroke="midnightblue" points="888.429,-291.5 898.429,-288 888.429,-284.5 888.429,-291.5"/>
</g>
<!-- Node12&#45;&gt;Node5 -->
<g id="edge12" class="edge"><title>Node12&#45;&gt;Node5</title>
<path fill="none" stroke="midnightblue" d="M571.75,-259.54C604.711,-264.803 645.813,-271.365 680.24,-276.862"/>
<polygon fill="midnightblue" stroke="midnightblue" points="679.798,-280.336 690.225,-278.456 680.902,-273.423 679.798,-280.336"/>
</g>
<!-- Node16&#45;&gt;Node3 -->
<g id="edge21" class="edge"><title>Node16&#45;&gt;Node3</title>
<path fill="none" stroke="midnightblue" d="M317.989,-145.075C342.624,-159.33 381.741,-180.367 418,-193 425.665,-195.67 433.826,-198.02 442.001,-200.074"/>
<polygon fill="midnightblue" stroke="midnightblue" points="441.41,-203.531 451.948,-202.433 443.026,-196.72 441.41,-203.531"/>
</g>
<!-- Node16&#45;&gt;Node14 -->
<g id="edge19" class="edge"><title>Node16&#45;&gt;Node14</title>
<path fill="none" stroke="midnightblue" d="M367.072,-145.019C395.27,-150.737 426.928,-157.156 453.27,-162.497"/>
<polygon fill="midnightblue" stroke="midnightblue" points="452.59,-165.93 463.086,-164.488 453.981,-159.07 452.59,-165.93"/>
</g>
<!-- Node16&#45;&gt;Node15 -->
<g id="edge20" class="edge"><title>Node16&#45;&gt;Node15</title>
<path fill="none" stroke="midnightblue" d="M367.072,-114.981C395.27,-109.263 426.928,-102.844 453.27,-97.5029"/>
<polygon fill="midnightblue" stroke="midnightblue" points="453.981,-100.93 463.086,-95.5124 452.59,-94.0695 453.981,-100.93"/>
</g>
<!-- Node17 -->
<g id="node17" class="node"><title>Node17</title>
<g id="a_node17"><a xlink:href="../../d9/d11/classconfiguration_1_1_parser.html#a21cf49f5bc55db161bc1ac86153035a1" target="_top" xlink:title="configuration.Parser.isList\lStart">
<polygon fill="white" stroke="black" points="442,-115 442,-145 580,-145 580,-115 442,-115"/>
<text text-anchor="start" x="450" y="-133" font-family="Helvetica,sans-Serif" font-size="10.00">configuration.Parser.isList</text>
<text text-anchor="middle" x="511" y="-122" font-family="Helvetica,sans-Serif" font-size="10.00">Start</text>
</a>
</g>
</g>
<!-- Node16&#45;&gt;Node17 -->
<g id="edge17" class="edge"><title>Node16&#45;&gt;Node17</title>
<path fill="none" stroke="midnightblue" d="M375.038,-130C393.672,-130 413.414,-130 431.879,-130"/>
<polygon fill="midnightblue" stroke="midnightblue" points="431.991,-133.5 441.991,-130 431.991,-126.5 431.991,-133.5"/>
</g>
<!-- Node16&#45;&gt;Node18 -->
<g id="edge18" class="edge"><title>Node16&#45;&gt;Node18</title>
<path fill="none" stroke="midnightblue" d="M317.989,-114.925C342.624,-100.67 381.741,-79.6328 418,-67 425.665,-64.3297 433.826,-61.9795 442.001,-59.926"/>
<polygon fill="midnightblue" stroke="midnightblue" points="443.026,-63.2802 451.948,-57.5667 441.41,-56.4692 443.026,-63.2802"/>
</g>
</g>
</svg>
        <g id="navigator" transform="translate(0 0)" fill="#404254">
                <rect fill="#f2f5e9" fill-opacity="0.5" stroke="#606060" stroke-width=".5" x="0" y="0" width="60" height="60"/>
                <use id="zoomplus" xlink:href="#zoomPlus" x="17" y="9" onmousedown="handleZoom(evt,'in')"/>
                <use id="zoomminus" xlink:href="#zoomMin" x="42" y="9" onmousedown="handleZoom(evt,'out')"/>
                <use id="reset" xlink:href="#resetDef" x="30" y="36" onmousedown="handleReset()"/>
                <g id="arrowUp" xlink:href="#dirArrow" transform="translate(30 24)" onmousedown="handlePan(0,-1)">
                  <use xlink:href="#rim" fill="#404040">
                        <set attributeName="fill" to="#808080" begin="arrowUp.mouseover" end="arrowUp.mouseout"/>
                  </use>
                  <path fill="none" stroke="white" stroke-width="1.5" d="M0,-3.0v7 M-2.5,-0.5L0,-3.0L2.5,-0.5"/>
                </g>
                <g id="arrowRight" xlink:href="#dirArrow" transform="rotate(90) translate(36 -43)" onmousedown="handlePan(1,0)">
                  <use xlink:href="#rim" fill="#404040">
                        <set attributeName="fill" to="#808080" begin="arrowRight.mouseover" end="arrowRight.mouseout"/>
                  </use>
                  <path fill="none" stroke="white" stroke-width="1.5" d="M0,-3.0v7 M-2.5,-0.5L0,-3.0L2.5,-0.5"/>
                </g>
                <g id="arrowDown" xlink:href="#dirArrow" transform="rotate(180) translate(-30 -48)" onmousedown="handlePan(0,1)">
                  <use xlink:href="#rim" fill="#404040">
                        <set attributeName="fill" to="#808080" begin="arrowDown.mouseover" end="arrowDown.mouseout"/>
                  </use>
                  <path fill="none" stroke="white" stroke-width="1.5" d="M0,-3.0v7 M-2.5,-0.5L0,-3.0L2.5,-0.5"/>
                </g>
                <g id="arrowLeft" xlink:href="#dirArrow" transform="rotate(270) translate(-36 17)" onmousedown="handlePan(-1,0)">
                  <use xlink:href="#rim" fill="#404040">
                        <set attributeName="fill" to="#808080" begin="arrowLeft.mouseover" end="arrowLeft.mouseout"/>
                  </use>
                  <path fill="none" stroke="white" stroke-width="1.5" d="M0,-3.0v7 M-2.5,-0.5L0,-3.0L2.5,-0.5"/>
                </g>
        </g>
        <svg viewBox="0 0 15 15" width="100%" height="30px" preserveAspectRatio="xMaxYMin meet">
         <g id="arrow_out" transform="scale(0.3 0.3)">
          <a xlink:href="classconfiguration_1_1_ifelse_parser_a4b806589536dd338338d515a0fdb67ed_cgraph_org.svg" target="_base">
           <rect id="button" ry="5" rx="5" y="6" x="6" height="38" width="38"
                fill="#f2f5e9" fill-opacity="0.5" stroke="#606060" stroke-width="1.0"/>
           <path id="arrow"
             d="M 11.500037,31.436501 C 11.940474,20.09759 22.043105,11.32322 32.158766,21.979434 L 37.068811,17.246167 C 37.068811,17.246167 37.088388,32 37.088388,32 L 22.160133,31.978069 C 22.160133,31.978069 26.997745,27.140456 26.997745,27.140456 C 18.528582,18.264221 13.291696,25.230495 11.500037,31.436501 z"
             style="fill:#404040;"/>
          </a>
         </g>
        </svg>
</svg>
