<?xml version="1.0" encoding="UTF-8" standalone="no"?>
<!DOCTYPE svg PUBLIC "-//W3C//DTD SVG 1.1//EN"
 "http://www.w3.org/Graphics/SVG/1.1/DTD/svg11.dtd">
<!-- Generated by graphviz version 2.36.0 (20140111.2315)
 -->
<!-- Title: configuration.IfParser Pages: 1 -->
<!--zoomable 490 -->
<svg id="main" version="1.1" xmlns="http://www.w3.org/2000/svg" xmlns:xlink="http://www.w3.org/1999/xlink" xml:space="preserve" onload="init(evt)">
<style type="text/css"><![CDATA[
.edge:hover path { stroke: red; }
.edge:hover polygon { stroke: red; fill: red; }
]]></style>
<script type="text/javascript"><![CDATA[
var edges = document.getElementsByTagName('g');
if (edges && edges.length) {
  for (var i=0;i<edges.length;i++) {
    if (edges[i].id.substr(0,4)=='edge') {
      edges[i].setAttribute('class','edge');
    }
  }
}
]]></script>
        <defs>
                <circle id="rim" cx="0" cy="0" r="7"/>
                <circle id="rim2" cx="0" cy="0" r="3.5"/>
                <g id="zoomPlus">
                        <use xlink:href="#rim" fill="#404040">
                                <set attributeName="fill" to="#808080" begin="zoomplus.mouseover" end="zoomplus.mouseout"/>
                        </use>
                        <path d="M-4,0h8M0,-4v8" fill="none" stroke="white" stroke-width="1.5" pointer-events="none"/>
                </g>
                <g id="zoomMin">
                        <use xlink:href="#rim" fill="#404040">
                                <set attributeName="fill" to="#808080" begin="zoomminus.mouseover" end="zoomminus.mouseout"/>
                        </use>
                        <path d="M-4,0h8" fill="none" stroke="white" stroke-width="1.5" pointer-events="none"/>
                </g>
                <g id="dirArrow">
                        <path fill="none" stroke="white" stroke-width="1.5" d="M0,-3.0v7 M-2.5,-0.5L0,-3.0L2.5,-0.5"/>
                </g>
               <g id="resetDef">
                       <use xlink:href="#rim2" fill="#404040">
                               <set attributeName="fill" to="#808080" begin="reset.mouseover" end="reset.mouseout"/>
                       </use>
               </g>
        </defs>

<script type="text/javascript">
var viewWidth = 1908;
var viewHeight = 490;
var sectionId = 'dynsection-1';
</script>
<script xlink:href="../../svgpan.js"/>
<svg id="graph" class="graph">
<g id="viewport">
<title>configuration.IfParser</title>
<polygon fill="white" stroke="none" points="-4,4 -4,-485.755 1904,-485.755 1904,4 -4,4"/>
<!-- Node1 -->
<g id="node1" class="node"><title>Node1</title>
<polygon fill="#bfbfbf" stroke="black" points="1782.5,-312.255 1782.5,-331.255 1899.5,-331.255 1899.5,-312.255 1782.5,-312.255"/>
<text text-anchor="middle" x="1841" y="-319.255" font-family="Helvetica,sans-Serif" font-size="10.00">configuration.IfParser</text>
</g>
<!-- Node2 -->
<g id="node2" class="node"><title>Node2</title>
<g id="a_node2"><a xlink:href="../../d7/d56/classconfiguration_1_1_ifelse_parser.html" target="_top" xlink:title="configuration.IfelseParser">
<polygon fill="white" stroke="black" points="1606.5,-289.255 1606.5,-308.255 1743.5,-308.255 1743.5,-289.255 1606.5,-289.255"/>
<text text-anchor="middle" x="1675" y="-296.255" font-family="Helvetica,sans-Serif" font-size="10.00">configuration.IfelseParser</text>
</a>
</g>
</g>
<!-- Node2&#45;&gt;Node1 -->
<g id="edge1" class="edge"><title>Node2&#45;&gt;Node1</title>
<path fill="none" stroke="midnightblue" d="M1753.69,-309.65C1763.37,-311.008 1773.13,-312.377 1782.44,-313.682"/>
<polygon fill="midnightblue" stroke="midnightblue" points="1754.04,-306.165 1743.65,-308.243 1753.07,-313.098 1754.04,-306.165"/>
</g>
<!-- Node3 -->
<g id="node3" class="node"><title>Node3</title>
<g id="a_node3"><a xlink:href="../../d9/d11/classconfiguration_1_1_parser.html" target="_top" xlink:title="configuration.Parser">
<polygon fill="white" stroke="black" points="1404,-236.255 1404,-255.255 1516,-255.255 1516,-236.255 1404,-236.255"/>
<text text-anchor="middle" x="1460" y="-243.255" font-family="Helvetica,sans-Serif" font-size="10.00">configuration.Parser</text>
</a>
</g>
</g>
<!-- Node3&#45;&gt;Node2 -->
<g id="edge2" class="edge"><title>Node3&#45;&gt;Node2</title>
<path fill="none" stroke="midnightblue" d="M1509.46,-257.814C1547.72,-267.334 1600.37,-280.434 1635.71,-289.228"/>
<polygon fill="midnightblue" stroke="midnightblue" points="1510.12,-254.371 1499.57,-255.353 1508.43,-261.164 1510.12,-254.371"/>
</g>
<!-- Node4 -->
<g id="node4" class="node"><title>Node4</title>
<g id="a_node4"><a xlink:href="../../dc/d20/classapplication_1_1_command_factory.html" target="_top" xlink:title="application.CommandFactory">
<polygon fill="white" stroke="black" points="1148,-289.255 1148,-308.255 1304,-308.255 1304,-289.255 1148,-289.255"/>
<text text-anchor="middle" x="1226" y="-296.255" font-family="Helvetica,sans-Serif" font-size="10.00">application.CommandFactory</text>
</a>
</g>
</g>
<!-- Node4&#45;&gt;Node1 -->
<g id="edge34" class="edge"><title>Node4&#45;&gt;Node1</title>
<path fill="none" stroke="#9a32cd" stroke-dasharray="5,2" d="M1293.98,-309.663C1303.37,-310.888 1312.91,-311.974 1322,-312.755 1516.9,-329.49 1566.4,-321.31 1762,-323.755 1768.64,-323.838 1775.59,-323.816 1782.5,-323.726"/>
<polygon fill="#9a32cd" stroke="#9a32cd" points="1294.27,-306.169 1283.89,-308.286 1293.32,-313.105 1294.27,-306.169"/>
<text text-anchor="middle" x="1561" y="-326.755" font-family="Helvetica,sans-Serif" font-size="10.00"> myFactory</text>
</g>
<!-- Node4&#45;&gt;Node2 -->
<g id="edge33" class="edge"><title>Node4&#45;&gt;Node2</title>
<path fill="none" stroke="#9a32cd" stroke-dasharray="5,2" d="M1314.3,-298.755C1399.79,-298.755 1528.24,-298.755 1606.28,-298.755"/>
<polygon fill="#9a32cd" stroke="#9a32cd" points="1314.1,-295.255 1304.1,-298.755 1314.1,-302.255 1314.1,-295.255"/>
<text text-anchor="middle" x="1460" y="-301.755" font-family="Helvetica,sans-Serif" font-size="10.00"> myFactory</text>
</g>
<!-- Node4&#45;&gt;Node3 -->
<g id="edge3" class="edge"><title>Node4&#45;&gt;Node3</title>
<path fill="none" stroke="#9a32cd" stroke-dasharray="5,2" d="M1271.69,-286.446C1287.53,-282.228 1305.52,-277.605 1322,-273.755 1350.72,-267.046 1383.04,-260.398 1409.07,-255.265"/>
<polygon fill="#9a32cd" stroke="#9a32cd" points="1270.38,-283.174 1261.63,-289.146 1272.19,-289.935 1270.38,-283.174"/>
<text text-anchor="middle" x="1354" y="-276.755" font-family="Helvetica,sans-Serif" font-size="10.00"> myFactory</text>
</g>
<!-- Node5 -->
<g id="node5" class="node"><title>Node5</title>
<g id="a_node5"><a xlink:href="../../df/dcb/classapplication_1_1_pen_handler.html" target="_top" xlink:title="application.PenHandler">
<polygon fill="white" stroke="black" points="664.5,-294.255 664.5,-313.255 791.5,-313.255 791.5,-294.255 664.5,-294.255"/>
<text text-anchor="middle" x="728" y="-301.255" font-family="Helvetica,sans-Serif" font-size="10.00">application.PenHandler</text>
</a>
</g>
</g>
<!-- Node5&#45;&gt;Node4 -->
<g id="edge4" class="edge"><title>Node5&#45;&gt;Node4</title>
<path fill="none" stroke="#9a32cd" stroke-dasharray="5,2" d="M801.686,-303.022C894.223,-302.089 1053.41,-300.485 1147.97,-299.531"/>
<polygon fill="#9a32cd" stroke="#9a32cd" points="801.532,-299.523 791.567,-303.124 801.602,-306.523 801.532,-299.523"/>
<text text-anchor="middle" x="968" y="-305.755" font-family="Helvetica,sans-Serif" font-size="10.00"> myPenHandler</text>
</g>
<!-- Node15 -->
<g id="node15" class="node"><title>Node15</title>
<g id="a_node15"><a xlink:href="../../d8/d65/classapplication_1_1_view_handler.html" target="_top" xlink:title="application.ViewHandler">
<polygon fill="white" stroke="black" points="902.5,-201.255 902.5,-220.255 1033.5,-220.255 1033.5,-201.255 902.5,-201.255"/>
<text text-anchor="middle" x="968" y="-208.255" font-family="Helvetica,sans-Serif" font-size="10.00">application.ViewHandler</text>
</a>
</g>
</g>
<!-- Node5&#45;&gt;Node15 -->
<g id="edge17" class="edge"><title>Node5&#45;&gt;Node15</title>
<path fill="none" stroke="#9a32cd" stroke-dasharray="5,2" d="M785.531,-292.028C822.221,-284.01 866.369,-273.477 884,-265.755 911.551,-253.688 939.994,-232.616 955.388,-220.354"/>
<polygon fill="#9a32cd" stroke="#9a32cd" points="784.442,-288.683 775.409,-294.219 785.923,-295.524 784.442,-288.683"/>
<text text-anchor="middle" x="847" y="-289.755" font-family="Helvetica,sans-Serif" font-size="10.00"> myPenHandler</text>
</g>
<!-- Node6 -->
<g id="node6" class="node"><title>Node6</title>
<g id="a_node6"><a xlink:href="../../de/d5a/classapplication_1_1_pen.html" target="_top" xlink:title="application.Pen">
<polygon fill="white" stroke="black" points="466.5,-407.255 466.5,-426.255 555.5,-426.255 555.5,-407.255 466.5,-407.255"/>
<text text-anchor="middle" x="511" y="-414.255" font-family="Helvetica,sans-Serif" font-size="10.00">application.Pen</text>
</a>
</g>
</g>
<!-- Node6&#45;&gt;Node5 -->
<g id="edge5" class="edge"><title>Node6&#45;&gt;Node5</title>
<path fill="none" stroke="#9a32cd" stroke-dasharray="5,2" d="M539.418,-402.344C583.973,-378.927 670.913,-333.233 708.716,-313.365"/>
<polygon fill="#9a32cd" stroke="#9a32cd" points="537.554,-399.37 530.331,-407.12 540.811,-405.566 537.554,-399.37"/>
<text text-anchor="middle" x="616" y="-380.755" font-family="Helvetica,sans-Serif" font-size="10.00"> myPen</text>
</g>
<!-- Node7 -->
<g id="node7" class="node"><title>Node7</title>
<polygon fill="white" stroke="#bfbfbf" points="178,-462.255 178,-481.255 302,-481.255 302,-462.255 178,-462.255"/>
<text text-anchor="middle" x="240" y="-469.255" font-family="Helvetica,sans-Serif" font-size="10.00">Map&lt; Integer, Color &gt;</text>
</g>
<!-- Node7&#45;&gt;Node6 -->
<g id="edge6" class="edge"><title>Node7&#45;&gt;Node6</title>
<path fill="none" stroke="#9a32cd" stroke-dasharray="5,2" d="M312.482,-465.085C349.674,-460.713 395.675,-453.89 436,-443.755 453.773,-439.288 473.215,-432.1 487.709,-426.263"/>
<polygon fill="#9a32cd" stroke="#9a32cd" points="311.776,-461.643 302.238,-466.254 312.57,-468.597 311.776,-461.643"/>
<text text-anchor="middle" x="382" y="-466.755" font-family="Helvetica,sans-Serif" font-size="10.00"> myPaletteOptions</text>
</g>
<!-- Node8 -->
<g id="node8" class="node"><title>Node8</title>
<g id="a_node8"><a xlink:href="../../d0/d9b/enumapplication_1_1_pen_1_1_p_e_n_s_t_y_l_e.html" target="_top" xlink:title="application.Pen.PENSTYLE">
<polygon fill="white" stroke="black" points="170,-424.255 170,-443.255 310,-443.255 310,-424.255 170,-424.255"/>
<text text-anchor="middle" x="240" y="-431.255" font-family="Helvetica,sans-Serif" font-size="10.00">application.Pen.PENSTYLE</text>
</a>
</g>
</g>
<!-- Node8&#45;&gt;Node6 -->
<g id="edge7" class="edge"><title>Node8&#45;&gt;Node6</title>
<path fill="none" stroke="#9a32cd" stroke-dasharray="5,2" d="M320.266,-428.745C367.94,-425.733 426.819,-422.012 466.229,-419.521"/>
<polygon fill="#9a32cd" stroke="#9a32cd" points="320.033,-425.253 310.274,-429.377 320.475,-432.239 320.033,-425.253"/>
<text text-anchor="middle" x="382" y="-431.755" font-family="Helvetica,sans-Serif" font-size="10.00"> myStyle</text>
</g>
<!-- Node9 -->
<g id="node9" class="node"><title>Node9</title>
<polygon fill="white" stroke="#bfbfbf" points="219.5,-356.255 219.5,-375.255 260.5,-375.255 260.5,-356.255 219.5,-356.255"/>
<text text-anchor="middle" x="240" y="-363.255" font-family="Helvetica,sans-Serif" font-size="10.00">Color</text>
</g>
<!-- Node9&#45;&gt;Node6 -->
<g id="edge8" class="edge"><title>Node9&#45;&gt;Node6</title>
<path fill="none" stroke="#9a32cd" stroke-dasharray="5,2" d="M270.736,-371.392C318.234,-380.398 411.459,-398.072 466.47,-408.502"/>
<polygon fill="#9a32cd" stroke="#9a32cd" points="271.257,-367.929 260.78,-369.505 269.953,-374.806 271.257,-367.929"/>
<text text-anchor="middle" x="382" y="-404.755" font-family="Helvetica,sans-Serif" font-size="10.00"> myColor</text>
</g>
<!-- Node10 -->
<g id="node10" class="node"><title>Node10</title>
<g id="a_node10"><a xlink:href="../../d8/ddb/classgui_1_1_line_view.html" target="_top" xlink:title="gui.LineView">
<polygon fill="white" stroke="black" points="473.5,-187.255 473.5,-206.255 548.5,-206.255 548.5,-187.255 473.5,-187.255"/>
<text text-anchor="middle" x="511" y="-194.255" font-family="Helvetica,sans-Serif" font-size="10.00">gui.LineView</text>
</a>
</g>
</g>
<!-- Node9&#45;&gt;Node10 -->
<g id="edge15" class="edge"><title>Node9&#45;&gt;Node10</title>
<path fill="none" stroke="#9a32cd" stroke-dasharray="5,2" d="M270.068,-353.115C286.832,-346.065 308.408,-337.394 328,-330.755 375.182,-314.767 398.048,-333.026 436,-300.755 450.544,-288.388 443.67,-277.809 454,-261.755 467.702,-240.461 487.901,-218.784 499.926,-206.623"/>
<polygon fill="#9a32cd" stroke="#9a32cd" points="268.639,-349.919 260.805,-357.051 271.377,-356.361 268.639,-349.919"/>
<text text-anchor="middle" x="382" y="-333.755" font-family="Helvetica,sans-Serif" font-size="10.00"> DEFAULT_PEN_COLOR</text>
</g>
<!-- Node19 -->
<g id="node19" class="node"><title>Node19</title>
<g id="a_node19"><a xlink:href="../../d7/d9b/classgui_1_1_background_view.html" target="_top" xlink:title="gui.BackgroundView">
<polygon fill="white" stroke="black" points="454.5,-271.255 454.5,-290.255 567.5,-290.255 567.5,-271.255 454.5,-271.255"/>
<text text-anchor="middle" x="511" y="-278.255" font-family="Helvetica,sans-Serif" font-size="10.00">gui.BackgroundView</text>
</a>
</g>
</g>
<!-- Node9&#45;&gt;Node19 -->
<g id="edge30" class="edge"><title>Node9&#45;&gt;Node19</title>
<path fill="none" stroke="#9a32cd" stroke-dasharray="5,2" d="M270.809,-367.66C310.29,-369.033 381.305,-367.45 436,-343.755 464.177,-331.548 489.692,-304.855 502.088,-290.444"/>
<polygon fill="#9a32cd" stroke="#9a32cd" points="270.925,-364.162 260.782,-367.223 270.62,-371.155 270.925,-364.162"/>
<text text-anchor="middle" x="382" y="-369.755" font-family="Helvetica,sans-Serif" font-size="10.00"> DEFAULT_COLOR</text>
</g>
<!-- Node10&#45;&gt;Node5 -->
<g id="edge9" class="edge"><title>Node10&#45;&gt;Node5</title>
<path fill="none" stroke="#9a32cd" stroke-dasharray="5,2" d="M540.571,-210.974C585.073,-233.121 669.767,-275.271 707.74,-294.17"/>
<polygon fill="#9a32cd" stroke="#9a32cd" points="541.971,-207.761 531.459,-206.439 538.852,-214.028 541.971,-207.761"/>
<text text-anchor="middle" x="616" y="-266.755" font-family="Helvetica,sans-Serif" font-size="10.00"> myLineView</text>
</g>
<!-- Node10&#45;&gt;Node15 -->
<g id="edge26" class="edge"><title>Node10&#45;&gt;Node15</title>
<path fill="none" stroke="#9a32cd" stroke-dasharray="5,2" d="M558.855,-198.196C640.665,-200.714 809.67,-205.914 902.482,-208.77"/>
<polygon fill="#9a32cd" stroke="#9a32cd" points="558.952,-194.698 548.849,-197.889 558.737,-201.695 558.952,-194.698"/>
<text text-anchor="middle" x="728" y="-208.755" font-family="Helvetica,sans-Serif" font-size="10.00"> myLineView</text>
</g>
<!-- Node11 -->
<g id="node11" class="node"><title>Node11</title>
<g id="a_node11"><a xlink:href="../../d8/d8b/classgui_1_1_view.html" target="_top" xlink:title="gui.View">
<polygon fill="white" stroke="black" points="212,-123.255 212,-142.255 268,-142.255 268,-123.255 212,-123.255"/>
<text text-anchor="middle" x="240" y="-130.255" font-family="Helvetica,sans-Serif" font-size="10.00">gui.View</text>
</a>
</g>
</g>
<!-- Node11&#45;&gt;Node10 -->
<g id="edge10" class="edge"><title>Node11&#45;&gt;Node10</title>
<path fill="none" stroke="midnightblue" d="M278.114,-134.661C317.907,-137.489 382.574,-144.363 436,-160.755 457.034,-167.208 479.54,-178.925 494.136,-187.237"/>
<polygon fill="midnightblue" stroke="midnightblue" points="278.277,-131.164 268.068,-133.996 277.815,-138.149 278.277,-131.164"/>
</g>
<!-- Node16 -->
<g id="node16" class="node"><title>Node16</title>
<g id="a_node16"><a xlink:href="../../df/dcc/classgui_1_1_turtle_view.html" target="_top" xlink:title="gui.TurtleView">
<polygon fill="white" stroke="black" points="470.5,-112.255 470.5,-131.255 551.5,-131.255 551.5,-112.255 470.5,-112.255"/>
<text text-anchor="middle" x="511" y="-119.255" font-family="Helvetica,sans-Serif" font-size="10.00">gui.TurtleView</text>
</a>
</g>
</g>
<!-- Node11&#45;&gt;Node16 -->
<g id="edge19" class="edge"><title>Node11&#45;&gt;Node16</title>
<path fill="none" stroke="midnightblue" d="M278.181,-131.234C328.716,-129.168 418.701,-125.488 470.44,-123.372"/>
<polygon fill="midnightblue" stroke="midnightblue" points="277.873,-127.744 268.024,-131.65 278.159,-134.738 277.873,-127.744"/>
</g>
<!-- Node11&#45;&gt;Node19 -->
<g id="edge28" class="edge"><title>Node11&#45;&gt;Node19</title>
<path fill="none" stroke="midnightblue" d="M277.919,-138.141C289.702,-141.619 301.798,-147.342 310,-156.755 336.797,-187.51 298.973,-218.094 328,-246.755 345.555,-264.088 407.493,-272.859 454.277,-277.104"/>
<polygon fill="midnightblue" stroke="midnightblue" points="278.737,-134.737 268.187,-135.715 277.044,-141.53 278.737,-134.737"/>
</g>
<!-- Node12 -->
<g id="node12" class="node"><title>Node12</title>
<polygon fill="white" stroke="#bfbfbf" points="1,-194.255 1,-213.255 53,-213.255 53,-194.255 1,-194.255"/>
<text text-anchor="middle" x="27" y="-201.255" font-family="Helvetica,sans-Serif" font-size="10.00">Canvas</text>
</g>
<!-- Node12&#45;&gt;Node11 -->
<g id="edge11" class="edge"><title>Node12&#45;&gt;Node11</title>
<path fill="none" stroke="midnightblue" d="M62.7617,-192.058C104.481,-178.02 173.565,-154.773 211.667,-141.952"/>
<polygon fill="midnightblue" stroke="midnightblue" points="61.3946,-188.825 53.0331,-195.331 63.6271,-195.459 61.3946,-188.825"/>
</g>
<!-- Node13 -->
<g id="node13" class="node"><title>Node13</title>
<polygon fill="white" stroke="#bfbfbf" points="0,-102.255 0,-121.255 54,-121.255 54,-102.255 0,-102.255"/>
<text text-anchor="middle" x="27" y="-109.255" font-family="Helvetica,sans-Serif" font-size="10.00">Point2D</text>
</g>
<!-- Node13&#45;&gt;Node10 -->
<g id="edge14" class="edge"><title>Node13&#45;&gt;Node10</title>
<path fill="none" stroke="#9a32cd" stroke-dasharray="5,2" d="M42.9326,-128.783C50.7657,-136.545 61.0092,-145.037 72,-149.755 221.386,-213.879 274.663,-165.797 436,-185.755 448.117,-187.254 461.312,-189.135 473.161,-190.916"/>
<polygon fill="#9a32cd" stroke="#9a32cd" points="45.3842,-126.282 35.9646,-121.432 40.3038,-131.097 45.3842,-126.282"/>
<text text-anchor="middle" x="240" y="-198.755" font-family="Helvetica,sans-Serif" font-size="10.00"> newStart</text>
<text text-anchor="middle" x="240" y="-187.755" font-family="Helvetica,sans-Serif" font-size="10.00">newDest</text>
</g>
<!-- Node13&#45;&gt;Node11 -->
<g id="edge12" class="edge"><title>Node13&#45;&gt;Node11</title>
<path fill="none" stroke="#9a32cd" stroke-dasharray="5,2" d="M64.3496,-115.373C106.228,-119.54 174.087,-126.294 211.703,-130.038"/>
<polygon fill="#9a32cd" stroke="#9a32cd" points="64.5942,-111.88 54.2967,-114.372 63.9008,-118.845 64.5942,-111.88"/>
<text text-anchor="middle" x="112" y="-137.755" font-family="Helvetica,sans-Serif" font-size="10.00"> DEFAULT_POINT</text>
<text text-anchor="middle" x="112" y="-126.755" font-family="Helvetica,sans-Serif" font-size="10.00">newDest</text>
</g>
<!-- Node13&#45;&gt;Node16 -->
<g id="edge21" class="edge"><title>Node13&#45;&gt;Node16</title>
<path fill="none" stroke="#9a32cd" stroke-dasharray="5,2" d="M64.119,-108.833C92.8003,-106.665 133.937,-103.896 170,-102.755 232.191,-100.786 247.848,-99.8092 310,-102.755 365.743,-105.397 429.932,-112.158 470.235,-116.858"/>
<polygon fill="#9a32cd" stroke="#9a32cd" points="63.8502,-105.343 54.1482,-109.6 64.3873,-112.322 63.8502,-105.343"/>
<text text-anchor="middle" x="240" y="-105.755" font-family="Helvetica,sans-Serif" font-size="10.00"> newDest</text>
</g>
<!-- Node18 -->
<g id="node18" class="node"><title>Node18</title>
<g id="a_node18"><a xlink:href="../../d1/d31/classapplication_1_1_turtle.html" target="_top" xlink:title="application.Turtle">
<polygon fill="white" stroke="black" points="462.5,-26.2548 462.5,-45.2548 559.5,-45.2548 559.5,-26.2548 462.5,-26.2548"/>
<text text-anchor="middle" x="511" y="-33.2548" font-family="Helvetica,sans-Serif" font-size="10.00">application.Turtle</text>
</a>
</g>
</g>
<!-- Node13&#45;&gt;Node18 -->
<g id="edge24" class="edge"><title>Node13&#45;&gt;Node18</title>
<path fill="none" stroke="#9a32cd" stroke-dasharray="5,2" d="M45.0771,-95.0767C70.0529,-71.9787 119.129,-31.3372 170,-15.7548 277.986,17.3225 414.099,-10.0909 476.258,-26.1441"/>
<polygon fill="#9a32cd" stroke="#9a32cd" points="42.4284,-92.7641 37.5632,-102.176 47.2358,-97.8523 42.4284,-92.7641"/>
<text text-anchor="middle" x="240" y="-18.7548" font-family="Helvetica,sans-Serif" font-size="10.00"> myLoc</text>
</g>
<!-- Node14 -->
<g id="node14" class="node"><title>Node14</title>
<polygon fill="white" stroke="#bfbfbf" points="192,-229.255 192,-248.255 288,-248.255 288,-229.255 192,-229.255"/>
<text text-anchor="middle" x="240" y="-236.255" font-family="Helvetica,sans-Serif" font-size="10.00">GraphicsContext</text>
</g>
<!-- Node14&#45;&gt;Node10 -->
<g id="edge13" class="edge"><title>Node14&#45;&gt;Node10</title>
<path fill="none" stroke="#9a32cd" stroke-dasharray="5,2" d="M298.31,-234.59C337.345,-231.191 390.07,-225.5 436,-216.755 450.25,-214.042 465.781,-210.013 478.918,-206.281"/>
<polygon fill="#9a32cd" stroke="#9a32cd" points="297.857,-231.116 288.188,-235.447 298.447,-238.091 297.857,-231.116"/>
<text text-anchor="middle" x="382" y="-234.755" font-family="Helvetica,sans-Serif" font-size="10.00"> linesGC</text>
</g>
<!-- Node14&#45;&gt;Node16 -->
<g id="edge20" class="edge"><title>Node14&#45;&gt;Node16</title>
<path fill="none" stroke="#9a32cd" stroke-dasharray="5,2" d="M272.286,-225.147C327.39,-201.18 440.423,-152.017 488.06,-131.298"/>
<polygon fill="#9a32cd" stroke="#9a32cd" points="270.788,-221.982 263.013,-229.18 273.58,-228.401 270.788,-221.982"/>
<text text-anchor="middle" x="382" y="-204.755" font-family="Helvetica,sans-Serif" font-size="10.00"> turtleGC</text>
</g>
<!-- Node14&#45;&gt;Node19 -->
<g id="edge29" class="edge"><title>Node14&#45;&gt;Node19</title>
<path fill="none" stroke="#9a32cd" stroke-dasharray="5,2" d="M267.214,-252.965C284.052,-261.31 306.686,-271.105 328,-275.755 369.692,-284.85 418.024,-285.743 454.4,-284.555"/>
<polygon fill="#9a32cd" stroke="#9a32cd" points="268.522,-249.703 258.024,-248.27 265.337,-255.936 268.522,-249.703"/>
<text text-anchor="middle" x="382" y="-288.755" font-family="Helvetica,sans-Serif" font-size="10.00"> backgroundContext</text>
</g>
<!-- Node15&#45;&gt;Node4 -->
<g id="edge16" class="edge"><title>Node15&#45;&gt;Node4</title>
<path fill="none" stroke="#9a32cd" stroke-dasharray="5,2" d="M1006.38,-223.605C1058.26,-241.439 1150.91,-273.287 1197.15,-289.182"/>
<polygon fill="#9a32cd" stroke="#9a32cd" points="1007.48,-220.281 996.884,-220.34 1005.2,-226.901 1007.48,-220.281"/>
<text text-anchor="middle" x="1091" y="-268.755" font-family="Helvetica,sans-Serif" font-size="10.00"> myViewHandler</text>
</g>
<!-- Node16&#45;&gt;Node15 -->
<g id="edge18" class="edge"><title>Node16&#45;&gt;Node15</title>
<path fill="none" stroke="#9a32cd" stroke-dasharray="5,2" d="M561.559,-131.449C649.371,-148.625 831.219,-184.195 918.366,-201.242"/>
<polygon fill="#9a32cd" stroke="#9a32cd" points="562.068,-127.982 551.582,-129.497 560.724,-134.852 562.068,-127.982"/>
<text text-anchor="middle" x="728" y="-178.755" font-family="Helvetica,sans-Serif" font-size="10.00"> myTurtleView</text>
</g>
<!-- Node17 -->
<g id="node17" class="node"><title>Node17</title>
<polygon fill="white" stroke="#bfbfbf" points="206,-36.2548 206,-55.2548 274,-55.2548 274,-36.2548 206,-36.2548"/>
<text text-anchor="middle" x="240" y="-43.2548" font-family="Helvetica,sans-Serif" font-size="10.00">ImageView</text>
</g>
<!-- Node17&#45;&gt;Node16 -->
<g id="edge22" class="edge"><title>Node17&#45;&gt;Node16</title>
<path fill="none" stroke="#9a32cd" stroke-dasharray="5,2" d="M284.311,-45.5093C324.797,-46.6096 386.295,-51.7346 436,-70.7548 461.064,-80.346 485.853,-100.071 499.422,-111.983"/>
<polygon fill="#9a32cd" stroke="#9a32cd" points="284.306,-42.0086 274.238,-45.307 284.166,-49.0072 284.306,-42.0086"/>
<text text-anchor="middle" x="382" y="-73.7548" font-family="Helvetica,sans-Serif" font-size="10.00"> myTurtle</text>
</g>
<!-- Node17&#45;&gt;Node18 -->
<g id="edge25" class="edge"><title>Node17&#45;&gt;Node18</title>
<path fill="none" stroke="#9a32cd" stroke-dasharray="5,2" d="M284.643,-40.3981C298.484,-38.9254 313.863,-37.523 328,-36.7548 373.591,-34.2773 425.701,-34.278 462.444,-34.7487"/>
<polygon fill="#9a32cd" stroke="#9a32cd" points="283.959,-36.9523 274.404,-41.5288 284.727,-43.91 283.959,-36.9523"/>
<text text-anchor="middle" x="382" y="-39.7548" font-family="Helvetica,sans-Serif" font-size="10.00"> myImage</text>
</g>
<!-- Node18&#45;&gt;Node15 -->
<g id="edge23" class="edge"><title>Node18&#45;&gt;Node15</title>
<path fill="none" stroke="#9a32cd" stroke-dasharray="5,2" d="M549.498,-48.56C603.441,-67.1444 705.927,-103.061 792,-136.755 847.751,-158.579 912.414,-186.654 945.329,-201.146"/>
<polygon fill="#9a32cd" stroke="#9a32cd" points="550.6,-45.2379 540.005,-45.2961 548.323,-51.8575 550.6,-45.2379"/>
<text text-anchor="middle" x="728" y="-139.755" font-family="Helvetica,sans-Serif" font-size="10.00"> myTurtle</text>
</g>
<!-- Node19&#45;&gt;Node15 -->
<g id="edge27" class="edge"><title>Node19&#45;&gt;Node15</title>
<path fill="none" stroke="#9a32cd" stroke-dasharray="5,2" d="M577.881,-270.619C665.503,-257.139 819.269,-233.483 904.926,-220.305"/>
<polygon fill="#9a32cd" stroke="#9a32cd" points="577.143,-267.191 567.792,-272.171 578.208,-274.11 577.143,-267.191"/>
<text text-anchor="middle" x="728" y="-260.755" font-family="Helvetica,sans-Serif" font-size="10.00"> myBackgroundView</text>
</g>
<!-- Node20 -->
<g id="node20" class="node"><title>Node20</title>
<polygon fill="white" stroke="#bfbfbf" points="1170,-223.755 1170,-253.755 1282,-253.755 1282,-223.755 1170,-223.755"/>
<text text-anchor="start" x="1178" y="-241.755" font-family="Helvetica,sans-Serif" font-size="10.00">List&lt; Entry&lt; String,</text>
<text text-anchor="middle" x="1226" y="-230.755" font-family="Helvetica,sans-Serif" font-size="10.00"> Pattern &gt; &gt;</text>
</g>
<!-- Node20&#45;&gt;Node3 -->
<g id="edge31" class="edge"><title>Node20&#45;&gt;Node3</title>
<path fill="none" stroke="#9a32cd" stroke-dasharray="5,2" d="M1292.53,-238.052C1321.23,-238.033 1355.3,-238.398 1386,-239.755 1391.72,-240.007 1397.68,-240.356 1403.62,-240.76"/>
<polygon fill="#9a32cd" stroke="#9a32cd" points="1292.21,-234.553 1282.21,-238.076 1292.22,-241.553 1292.21,-234.553"/>
<text text-anchor="middle" x="1354" y="-242.755" font-family="Helvetica,sans-Serif" font-size="10.00"> patterns</text>
</g>
<!-- Node21 -->
<g id="node21" class="node"><title>Node21</title>
<polygon fill="white" stroke="#bfbfbf" points="1171.5,-184.255 1171.5,-203.255 1280.5,-203.255 1280.5,-184.255 1171.5,-184.255"/>
<text text-anchor="middle" x="1226" y="-191.255" font-family="Helvetica,sans-Serif" font-size="10.00">HashSet&lt; String &gt;</text>
</g>
<!-- Node21&#45;&gt;Node3 -->
<g id="edge32" class="edge"><title>Node21&#45;&gt;Node3</title>
<path fill="none" stroke="#9a32cd" stroke-dasharray="5,2" d="M1290.93,-196.921C1320.3,-199.509 1355.34,-204.211 1386,-212.755 1405.96,-218.317 1427.42,-228.584 1441.86,-236.194"/>
<polygon fill="#9a32cd" stroke="#9a32cd" points="1291.04,-193.419 1280.79,-196.091 1290.47,-200.396 1291.04,-193.419"/>
<text text-anchor="middle" x="1354" y="-226.755" font-family="Helvetica,sans-Serif" font-size="10.00"> oneParComs</text>
<text text-anchor="middle" x="1354" y="-215.755" font-family="Helvetica,sans-Serif" font-size="10.00">twoParComs</text>
</g>
</g>
</svg>
        <g id="navigator" transform="translate(0 0)" fill="#404254">
                <rect fill="#f2f5e9" fill-opacity="0.5" stroke="#606060" stroke-width=".5" x="0" y="0" width="60" height="60"/>
                <use id="zoomplus" xlink:href="#zoomPlus" x="17" y="9" onmousedown="handleZoom(evt,'in')"/>
                <use id="zoomminus" xlink:href="#zoomMin" x="42" y="9" onmousedown="handleZoom(evt,'out')"/>
                <use id="reset" xlink:href="#resetDef" x="30" y="36" onmousedown="handleReset()"/>
                <g id="arrowUp" xlink:href="#dirArrow" transform="translate(30 24)" onmousedown="handlePan(0,-1)">
                  <use xlink:href="#rim" fill="#404040">
                        <set attributeName="fill" to="#808080" begin="arrowUp.mouseover" end="arrowUp.mouseout"/>
                  </use>
                  <path fill="none" stroke="white" stroke-width="1.5" d="M0,-3.0v7 M-2.5,-0.5L0,-3.0L2.5,-0.5"/>
                </g>
                <g id="arrowRight" xlink:href="#dirArrow" transform="rotate(90) translate(36 -43)" onmousedown="handlePan(1,0)">
                  <use xlink:href="#rim" fill="#404040">
                        <set attributeName="fill" to="#808080" begin="arrowRight.mouseover" end="arrowRight.mouseout"/>
                  </use>
                  <path fill="none" stroke="white" stroke-width="1.5" d="M0,-3.0v7 M-2.5,-0.5L0,-3.0L2.5,-0.5"/>
                </g>
                <g id="arrowDown" xlink:href="#dirArrow" transform="rotate(180) translate(-30 -48)" onmousedown="handlePan(0,1)">
                  <use xlink:href="#rim" fill="#404040">
                        <set attributeName="fill" to="#808080" begin="arrowDown.mouseover" end="arrowDown.mouseout"/>
                  </use>
                  <path fill="none" stroke="white" stroke-width="1.5" d="M0,-3.0v7 M-2.5,-0.5L0,-3.0L2.5,-0.5"/>
                </g>
                <g id="arrowLeft" xlink:href="#dirArrow" transform="rotate(270) translate(-36 17)" onmousedown="handlePan(-1,0)">
                  <use xlink:href="#rim" fill="#404040">
                        <set attributeName="fill" to="#808080" begin="arrowLeft.mouseover" end="arrowLeft.mouseout"/>
                  </use>
                  <path fill="none" stroke="white" stroke-width="1.5" d="M0,-3.0v7 M-2.5,-0.5L0,-3.0L2.5,-0.5"/>
                </g>
        </g>
        <svg viewBox="0 0 15 15" width="100%" height="30px" preserveAspectRatio="xMaxYMin meet">
         <g id="arrow_out" transform="scale(0.3 0.3)">
          <a xlink:href="classconfiguration_1_1_if_parser__coll__graph_org.svg" target="_base">
           <rect id="button" ry="5" rx="5" y="6" x="6" height="38" width="38"
                fill="#f2f5e9" fill-opacity="0.5" stroke="#606060" stroke-width="1.0"/>
           <path id="arrow"
             d="M 11.500037,31.436501 C 11.940474,20.09759 22.043105,11.32322 32.158766,21.979434 L 37.068811,17.246167 C 37.068811,17.246167 37.088388,32 37.088388,32 L 22.160133,31.978069 C 22.160133,31.978069 26.997745,27.140456 26.997745,27.140456 C 18.528582,18.264221 13.291696,25.230495 11.500037,31.436501 z"
             style="fill:#404040;"/>
          </a>
         </g>
        </svg>
</svg>
