<?xml version="1.0" encoding="UTF-8" standalone="no"?>
<!DOCTYPE svg PUBLIC "-//W3C//DTD SVG 1.1//EN"
 "http://www.w3.org/Graphics/SVG/1.1/DTD/svg11.dtd">
<!-- Generated by graphviz version 2.36.0 (20140111.2315)
 -->
<!-- Title: gui.TurtleView Pages: 1 -->
<svg width="406pt" height="174pt"
 viewBox="0.00 0.00 406.00 174.00" xmlns="http://www.w3.org/2000/svg" xmlns:xlink="http://www.w3.org/1999/xlink">
<g id="graph0" class="graph" transform="scale(1 1) rotate(0) translate(4 170)">
<title>gui.TurtleView</title>
<polygon fill="white" stroke="none" points="-4,4 -4,-170 402,-170 402,4 -4,4"/>
<!-- Node1 -->
<g id="node1" class="node"><title>Node1</title>
<polygon fill="#bfbfbf" stroke="black" points="167.5,-0.5 167.5,-19.5 248.5,-19.5 248.5,-0.5 167.5,-0.5"/>
<text text-anchor="middle" x="208" y="-7.5" font-family="Helvetica,sans-Serif" font-size="10.00">gui.TurtleView</text>
</g>
<!-- Node2 -->
<g id="node2" class="node"><title>Node2</title>
<g id="a_node2"><a xlink:href="../../d8/d8b/classgui_1_1_view.html" target="_top" xlink:title="gui.View">
<polygon fill="white" stroke="black" points="31,-68.5 31,-87.5 87,-87.5 87,-68.5 31,-68.5"/>
<text text-anchor="middle" x="59" y="-75.5" font-family="Helvetica,sans-Serif" font-size="10.00">gui.View</text>
</a>
</g>
</g>
<!-- Node2&#45;&gt;Node1 -->
<g id="edge1" class="edge"><title>Node2&#45;&gt;Node1</title>
<path fill="none" stroke="midnightblue" d="M84.6881,-63.8228C100.257,-56.0008 120.602,-46.0684 139,-38 154.079,-31.387 171.329,-24.637 184.809,-19.5403"/>
<polygon fill="midnightblue" stroke="midnightblue" points="83.0143,-60.7471 75.6715,-68.3848 86.1745,-66.9931 83.0143,-60.7471"/>
</g>
<!-- Node3 -->
<g id="node3" class="node"><title>Node3</title>
<polygon fill="white" stroke="#bfbfbf" points="0,-146.5 0,-165.5 52,-165.5 52,-146.5 0,-146.5"/>
<text text-anchor="middle" x="26" y="-153.5" font-family="Helvetica,sans-Serif" font-size="10.00">Canvas</text>
</g>
<!-- Node3&#45;&gt;Node2 -->
<g id="edge2" class="edge"><title>Node3&#45;&gt;Node2</title>
<path fill="none" stroke="midnightblue" d="M29.7372,-136.492C32.0184,-127.087 35.3941,-115.639 40,-106 43.1631,-99.3802 47.9131,-92.6302 51.8723,-87.5351"/>
<polygon fill="midnightblue" stroke="midnightblue" points="26.2959,-135.845 27.5539,-146.365 33.1308,-137.356 26.2959,-135.845"/>
</g>
<!-- Node4 -->
<g id="node4" class="node"><title>Node4</title>
<polygon fill="white" stroke="#bfbfbf" points="98,-146.5 98,-165.5 152,-165.5 152,-146.5 98,-146.5"/>
<text text-anchor="middle" x="125" y="-153.5" font-family="Helvetica,sans-Serif" font-size="10.00">Point2D</text>
</g>
<!-- Node4&#45;&gt;Node1 -->
<g id="edge5" class="edge"><title>Node4&#45;&gt;Node1</title>
<path fill="none" stroke="#9a32cd" stroke-dasharray="5,2" d="M134.623,-137.129C136.146,-134.11 137.659,-130.986 139,-128 150.703,-101.949 147.747,-92.7479 162,-68 172.789,-49.2669 189.534,-30.2779 199.567,-19.6338"/>
<polygon fill="#9a32cd" stroke="#9a32cd" points="131.452,-135.64 129.923,-146.124 137.656,-138.882 131.452,-135.64"/>
<text text-anchor="middle" x="184.5" y="-75.5" font-family="Helvetica,sans-Serif" font-size="10.00"> newDest</text>
</g>
<!-- Node4&#45;&gt;Node2 -->
<g id="edge3" class="edge"><title>Node4&#45;&gt;Node2</title>
<path fill="none" stroke="#9a32cd" stroke-dasharray="5,2" d="M87.9522,-147.765C77.1667,-143.771 66.5384,-137.583 60,-128 51.8475,-116.051 54.0815,-98.3641 56.5026,-87.8289"/>
<polygon fill="#9a32cd" stroke="#9a32cd" points="87.1995,-151.197 97.7886,-150.851 89.2945,-144.518 87.1995,-151.197"/>
<text text-anchor="middle" x="99.5" y="-120" font-family="Helvetica,sans-Serif" font-size="10.00"> DEFAULT_POINT</text>
<text text-anchor="middle" x="99.5" y="-109" font-family="Helvetica,sans-Serif" font-size="10.00">newDest</text>
</g>
<!-- Node5 -->
<g id="node5" class="node"><title>Node5</title>
<polygon fill="white" stroke="#bfbfbf" points="216,-68.5 216,-87.5 312,-87.5 312,-68.5 216,-68.5"/>
<text text-anchor="middle" x="264" y="-75.5" font-family="Helvetica,sans-Serif" font-size="10.00">GraphicsContext</text>
</g>
<!-- Node5&#45;&gt;Node1 -->
<g id="edge4" class="edge"><title>Node5&#45;&gt;Node1</title>
<path fill="none" stroke="#9a32cd" stroke-dasharray="5,2" d="M250.153,-60.68C239.205,-47.7768 224.34,-30.2575 215.502,-19.8411"/>
<polygon fill="#9a32cd" stroke="#9a32cd" points="247.54,-63.011 256.679,-68.3717 252.878,-58.4821 247.54,-63.011"/>
<text text-anchor="middle" x="262.5" y="-41.5" font-family="Helvetica,sans-Serif" font-size="10.00"> turtleGC</text>
</g>
<!-- Node6 -->
<g id="node6" class="node"><title>Node6</title>
<polygon fill="white" stroke="#bfbfbf" points="330,-68.5 330,-87.5 398,-87.5 398,-68.5 330,-68.5"/>
<text text-anchor="middle" x="364" y="-75.5" font-family="Helvetica,sans-Serif" font-size="10.00">ImageView</text>
</g>
<!-- Node6&#45;&gt;Node1 -->
<g id="edge6" class="edge"><title>Node6&#45;&gt;Node1</title>
<path fill="none" stroke="#9a32cd" stroke-dasharray="5,2" d="M339.943,-63.4897C325.208,-55.5099 305.818,-45.5291 288,-38 271.392,-30.982 252.275,-24.4749 236.894,-19.6078"/>
<polygon fill="#9a32cd" stroke="#9a32cd" points="338.439,-66.657 348.89,-68.3987 341.806,-60.52 338.439,-66.657"/>
<text text-anchor="middle" x="335" y="-41.5" font-family="Helvetica,sans-Serif" font-size="10.00"> myTurtle</text>
</g>
</g>
</svg>
