<?xml version="1.0" encoding="UTF-8" standalone="no"?>
<!DOCTYPE svg PUBLIC "-//W3C//DTD SVG 1.1//EN"
 "http://www.w3.org/Graphics/SVG/1.1/DTD/svg11.dtd">
<!-- Generated by graphviz version 2.36.0 (20140111.2315)
 -->
<!-- Title: gui.View.setNewPoint Pages: 1 -->
<svg width="1494pt" height="484pt"
 viewBox="0.00 0.00 1494.00 483.88" xmlns="http://www.w3.org/2000/svg" xmlns:xlink="http://www.w3.org/1999/xlink">
<g id="graph0" class="graph" transform="scale(1 1) rotate(0) translate(4 479.877)">
<title>gui.View.setNewPoint</title>
<polygon fill="white" stroke="none" points="-4,4 -4,-479.877 1490,-479.877 1490,4 -4,4"/>
<!-- Node1 -->
<g id="node1" class="node"><title>Node1</title>
<polygon fill="#bfbfbf" stroke="black" points="0.5,-183.377 0.5,-202.377 117.5,-202.377 117.5,-183.377 0.5,-183.377"/>
<text text-anchor="middle" x="59" y="-190.377" font-family="Helvetica,sans-Serif" font-size="10.00">gui.View.setNewPoint</text>
</g>
<!-- Node2 -->
<g id="node2" class="node"><title>Node2</title>
<g id="a_node2"><a xlink:href="../../d8/ddb/classgui_1_1_line_view.html#abe4c6727ecf95f07a0a7a68e4e7dcb40" target="_top" xlink:title="gui.LineView.drawLine">
<polygon fill="white" stroke="black" points="683.5,-226.377 683.5,-245.377 802.5,-245.377 802.5,-226.377 683.5,-226.377"/>
<text text-anchor="middle" x="743" y="-233.377" font-family="Helvetica,sans-Serif" font-size="10.00">gui.LineView.drawLine</text>
</a>
</g>
</g>
<!-- Node1&#45;&gt;Node2 -->
<g id="edge1" class="edge"><title>Node1&#45;&gt;Node2</title>
<path fill="none" stroke="midnightblue" d="M86.9314,-206.928C105.284,-215.702 130.439,-226.191 154,-230.877 344.489,-268.765 576.597,-253.1 683.259,-242.555"/>
<polygon fill="midnightblue" stroke="midnightblue" points="88.2616,-203.682 77.7437,-202.408 85.1714,-209.963 88.2616,-203.682"/>
</g>
<!-- Node13 -->
<g id="node13" class="node"><title>Node13</title>
<g id="a_node13"><a xlink:href="../../d8/ddb/classgui_1_1_line_view.html#a4a4d4a5dc42ec1fc8896b453703b6991" target="_top" xlink:title="gui.LineView.findXEdge">
<polygon fill="white" stroke="black" points="154.5,-164.377 154.5,-183.377 279.5,-183.377 279.5,-164.377 154.5,-164.377"/>
<text text-anchor="middle" x="217" y="-171.377" font-family="Helvetica,sans-Serif" font-size="10.00">gui.LineView.findXEdge</text>
</a>
</g>
</g>
<!-- Node1&#45;&gt;Node13 -->
<g id="edge12" class="edge"><title>Node1&#45;&gt;Node13</title>
<path fill="none" stroke="midnightblue" d="M127.6,-184.644C136.508,-183.559 145.601,-182.451 154.402,-181.379"/>
<polygon fill="midnightblue" stroke="midnightblue" points="127.149,-181.173 117.645,-185.856 127.995,-188.121 127.149,-181.173"/>
</g>
<!-- Node16 -->
<g id="node16" class="node"><title>Node16</title>
<g id="a_node16"><a xlink:href="../../d8/ddb/classgui_1_1_line_view.html#a6cc826f05b0ac955fab89afbfca7c1a8" target="_top" xlink:title="gui.LineView.findYEdge">
<polygon fill="white" stroke="black" points="155,-202.377 155,-221.377 279,-221.377 279,-202.377 155,-202.377"/>
<text text-anchor="middle" x="217" y="-209.377" font-family="Helvetica,sans-Serif" font-size="10.00">gui.LineView.findYEdge</text>
</a>
</g>
</g>
<!-- Node1&#45;&gt;Node16 -->
<g id="edge17" class="edge"><title>Node1&#45;&gt;Node16</title>
<path fill="none" stroke="midnightblue" d="M127.746,-201.128C136.785,-202.229 146.012,-203.353 154.929,-204.439"/>
<polygon fill="midnightblue" stroke="midnightblue" points="127.995,-197.633 117.645,-199.898 127.149,-204.581 127.995,-197.633"/>
</g>
<!-- Node17 -->
<g id="node17" class="node"><title>Node17</title>
<g id="a_node17"><a xlink:href="../../df/dcc/classgui_1_1_turtle_view.html#adcff447c1d488ddfd13d151067e6db7a" target="_top" xlink:title="gui.TurtleView.rotateAnd\lMoveTurtle">
<polygon fill="white" stroke="black" points="484.5,-101.877 484.5,-131.877 615.5,-131.877 615.5,-101.877 484.5,-101.877"/>
<text text-anchor="start" x="492.5" y="-119.877" font-family="Helvetica,sans-Serif" font-size="10.00">gui.TurtleView.rotateAnd</text>
<text text-anchor="middle" x="550" y="-108.877" font-family="Helvetica,sans-Serif" font-size="10.00">MoveTurtle</text>
</a>
</g>
</g>
<!-- Node1&#45;&gt;Node17 -->
<g id="edge20" class="edge"><title>Node1&#45;&gt;Node17</title>
<path fill="none" stroke="midnightblue" d="M88.1165,-179.019C106.434,-170.623 131.101,-160.482 154,-154.877 268.095,-126.951 405.425,-119.368 484.43,-117.417"/>
<polygon fill="midnightblue" stroke="midnightblue" points="86.4698,-175.926 78.9025,-183.341 89.4424,-182.263 86.4698,-175.926"/>
</g>
<!-- Node3 -->
<g id="node3" class="node"><title>Node3</title>
<g id="a_node3"><a xlink:href="../../d3/de0/classapplication_1_1_view_handler2.html#ab87b30f73cb5e726f4fcc6b6f60f8007" target="_top" xlink:title="application.ViewHandler2.move\lTurtleImageAndDraw">
<polygon fill="white" stroke="black" points="867.5,-171.877 867.5,-201.877 1034.5,-201.877 1034.5,-171.877 867.5,-171.877"/>
<text text-anchor="start" x="875.5" y="-189.877" font-family="Helvetica,sans-Serif" font-size="10.00">application.ViewHandler2.move</text>
<text text-anchor="middle" x="951" y="-178.877" font-family="Helvetica,sans-Serif" font-size="10.00">TurtleImageAndDraw</text>
</a>
</g>
</g>
<!-- Node2&#45;&gt;Node3 -->
<g id="edge2" class="edge"><title>Node2&#45;&gt;Node3</title>
<path fill="none" stroke="midnightblue" d="M794.141,-223.95C822.036,-217.315 857.027,-208.992 886.783,-201.914"/>
<polygon fill="midnightblue" stroke="midnightblue" points="793.127,-220.594 784.208,-226.313 794.746,-227.404 793.127,-220.594"/>
</g>
<!-- Node7 -->
<g id="node7" class="node"><title>Node7</title>
<g id="a_node7"><a xlink:href="../../d8/d65/classapplication_1_1_view_handler.html#a98b4ba09b3f3e8b1a7667db5598dbfb0" target="_top" xlink:title="application.ViewHandler.move\lTurtleImageAndDraw">
<polygon fill="white" stroke="black" points="871,-269.877 871,-299.877 1031,-299.877 1031,-269.877 871,-269.877"/>
<text text-anchor="start" x="879" y="-287.877" font-family="Helvetica,sans-Serif" font-size="10.00">application.ViewHandler.move</text>
<text text-anchor="middle" x="951" y="-276.877" font-family="Helvetica,sans-Serif" font-size="10.00">TurtleImageAndDraw</text>
</a>
</g>
</g>
<!-- Node2&#45;&gt;Node7 -->
<g id="edge6" class="edge"><title>Node2&#45;&gt;Node7</title>
<path fill="none" stroke="midnightblue" d="M794.141,-247.804C822.036,-254.439 857.027,-262.762 886.783,-269.84"/>
<polygon fill="midnightblue" stroke="midnightblue" points="794.746,-244.35 784.208,-245.441 793.127,-251.16 794.746,-244.35"/>
</g>
<!-- Node4 -->
<g id="node4" class="node"><title>Node4</title>
<g id="a_node4"><a xlink:href="../../d3/de0/classapplication_1_1_view_handler2.html#abaa9dc9add64d8386b9f7fc37152d620" target="_top" xlink:title="application.ViewHandler2.set\lTurtleLocAndMove">
<polygon fill="white" stroke="black" points="1093.5,-56.8769 1093.5,-86.8769 1248.5,-86.8769 1248.5,-56.8769 1093.5,-56.8769"/>
<text text-anchor="start" x="1101.5" y="-74.8769" font-family="Helvetica,sans-Serif" font-size="10.00">application.ViewHandler2.set</text>
<text text-anchor="middle" x="1171" y="-63.8769" font-family="Helvetica,sans-Serif" font-size="10.00">TurtleLocAndMove</text>
</a>
</g>
</g>
<!-- Node3&#45;&gt;Node4 -->
<g id="edge3" class="edge"><title>Node3&#45;&gt;Node4</title>
<path fill="none" stroke="midnightblue" d="M1020.67,-168.331C1025.93,-166.339 1031.1,-164.187 1036,-161.877 1080.36,-140.972 1126.69,-106.591 1151.57,-86.9271"/>
<polygon fill="midnightblue" stroke="midnightblue" points="1019.37,-165.078 1011.14,-171.745 1021.73,-171.668 1019.37,-165.078"/>
</g>
<!-- Node5 -->
<g id="node5" class="node"><title>Node5</title>
<g id="a_node5"><a xlink:href="../../d3/de0/classapplication_1_1_view_handler2.html#acd04df701dbbc0a759c79058966f8264" target="_top" xlink:title="application.ViewHandler2.change\lLocationOfTurtle">
<polygon fill="white" stroke="black" points="1308.5,-81.8769 1308.5,-111.877 1483.5,-111.877 1483.5,-81.8769 1308.5,-81.8769"/>
<text text-anchor="start" x="1316.5" y="-99.8769" font-family="Helvetica,sans-Serif" font-size="10.00">application.ViewHandler2.change</text>
<text text-anchor="middle" x="1396" y="-88.8769" font-family="Helvetica,sans-Serif" font-size="10.00">LocationOfTurtle</text>
</a>
</g>
</g>
<!-- Node4&#45;&gt;Node5 -->
<g id="edge4" class="edge"><title>Node4&#45;&gt;Node5</title>
<path fill="none" stroke="midnightblue" d="M1258.74,-81.6011C1274.97,-83.4203 1291.93,-85.3222 1308.16,-87.1419"/>
<polygon fill="midnightblue" stroke="midnightblue" points="1259.07,-78.1164 1248.74,-80.4804 1258.29,-85.0728 1259.07,-78.1164"/>
</g>
<!-- Node6 -->
<g id="node6" class="node"><title>Node6</title>
<g id="a_node6"><a xlink:href="../../d3/de0/classapplication_1_1_view_handler2.html#ac682f2c1ca441598b6d29fe899e7f468" target="_top" xlink:title="application.ViewHandler2.move\lTurtle">
<polygon fill="white" stroke="black" points="1312.5,-32.8769 1312.5,-62.8769 1479.5,-62.8769 1479.5,-32.8769 1312.5,-32.8769"/>
<text text-anchor="start" x="1320.5" y="-50.8769" font-family="Helvetica,sans-Serif" font-size="10.00">application.ViewHandler2.move</text>
<text text-anchor="middle" x="1396" y="-39.8769" font-family="Helvetica,sans-Serif" font-size="10.00">Turtle</text>
</a>
</g>
</g>
<!-- Node4&#45;&gt;Node6 -->
<g id="edge5" class="edge"><title>Node4&#45;&gt;Node6</title>
<path fill="none" stroke="midnightblue" d="M1258.98,-62.5159C1276.55,-60.6245 1294.98,-58.6411 1312.4,-56.7664"/>
<polygon fill="midnightblue" stroke="midnightblue" points="1258.31,-59.0674 1248.74,-63.6174 1259.06,-66.0272 1258.31,-59.0674"/>
</g>
<!-- Node8 -->
<g id="node8" class="node"><title>Node8</title>
<g id="a_node8"><a xlink:href="../../d8/d65/classapplication_1_1_view_handler.html#a1aff135a076a9717102bb59ea613131c" target="_top" xlink:title="application.ViewHandler.change\lLocationOfTurtle">
<polygon fill="white" stroke="black" points="1087,-279.877 1087,-309.877 1255,-309.877 1255,-279.877 1087,-279.877"/>
<text text-anchor="start" x="1095" y="-297.877" font-family="Helvetica,sans-Serif" font-size="10.00">application.ViewHandler.change</text>
<text text-anchor="middle" x="1171" y="-286.877" font-family="Helvetica,sans-Serif" font-size="10.00">LocationOfTurtle</text>
</a>
</g>
</g>
<!-- Node7&#45;&gt;Node8 -->
<g id="edge7" class="edge"><title>Node7&#45;&gt;Node8</title>
<path fill="none" stroke="midnightblue" d="M1041.34,-288.975C1056.39,-289.665 1071.96,-290.38 1086.85,-291.063"/>
<polygon fill="midnightblue" stroke="midnightblue" points="1041.16,-285.463 1031.01,-288.501 1040.84,-292.456 1041.16,-285.463"/>
</g>
<!-- Node11 -->
<g id="node11" class="node"><title>Node11</title>
<g id="a_node11"><a xlink:href="../../d8/d65/classapplication_1_1_view_handler.html#a1a94c855ceb0e8ffb1f72f138addb75b" target="_top" xlink:title="application.ViewHandler.move\lTurtle">
<polygon fill="white" stroke="black" points="1091,-386.877 1091,-416.877 1251,-416.877 1251,-386.877 1091,-386.877"/>
<text text-anchor="start" x="1099" y="-404.877" font-family="Helvetica,sans-Serif" font-size="10.00">application.ViewHandler.move</text>
<text text-anchor="middle" x="1171" y="-393.877" font-family="Helvetica,sans-Serif" font-size="10.00">Turtle</text>
</a>
</g>
</g>
<!-- Node7&#45;&gt;Node11 -->
<g id="edge10" class="edge"><title>Node7&#45;&gt;Node11</title>
<path fill="none" stroke="midnightblue" d="M989.1,-304.788C1032.3,-327.972 1102.69,-365.752 1141.71,-386.693"/>
<polygon fill="midnightblue" stroke="midnightblue" points="990.52,-301.578 980.053,-299.933 987.209,-307.746 990.52,-301.578"/>
</g>
<!-- Node9 -->
<g id="node9" class="node"><title>Node9</title>
<g id="a_node9"><a xlink:href="../../d5/de0/classcommands_1_1view_commands_1_1turtle_commands_1_1_clear_screen.html#ae547e4c170a1b6d41cdfc6c8bfe5e972" target="_top" xlink:title="commands.viewCommands.turtle\lCommands.ClearScreen.execute">
<polygon fill="white" stroke="black" points="1307,-298.877 1307,-328.877 1485,-328.877 1485,-298.877 1307,-298.877"/>
<text text-anchor="start" x="1315" y="-316.877" font-family="Helvetica,sans-Serif" font-size="10.00">commands.viewCommands.turtle</text>
<text text-anchor="middle" x="1396" y="-305.877" font-family="Helvetica,sans-Serif" font-size="10.00">Commands.ClearScreen.execute</text>
</a>
</g>
</g>
<!-- Node8&#45;&gt;Node9 -->
<g id="edge8" class="edge"><title>Node8&#45;&gt;Node9</title>
<path fill="none" stroke="midnightblue" d="M1265.4,-302.835C1279.07,-303.999 1293.1,-305.195 1306.66,-306.351"/>
<polygon fill="midnightblue" stroke="midnightblue" points="1265.3,-299.313 1255.04,-301.952 1264.7,-306.288 1265.3,-299.313"/>
</g>
<!-- Node10 -->
<g id="node10" class="node"><title>Node10</title>
<g id="a_node10"><a xlink:href="../../dd/da6/classcommands_1_1view_commands_1_1turtle_commands_1_1_move.html#af4d9a4d9ade56b5e3a1e582bd891b7b5" target="_top" xlink:title="commands.viewCommands.turtle\lCommands.Move.goToLocation">
<polygon fill="white" stroke="black" points="1307,-249.877 1307,-279.877 1485,-279.877 1485,-249.877 1307,-249.877"/>
<text text-anchor="start" x="1315" y="-267.877" font-family="Helvetica,sans-Serif" font-size="10.00">commands.viewCommands.turtle</text>
<text text-anchor="middle" x="1396" y="-256.877" font-family="Helvetica,sans-Serif" font-size="10.00">Commands.Move.goToLocation</text>
</a>
</g>
</g>
<!-- Node8&#45;&gt;Node10 -->
<g id="edge9" class="edge"><title>Node8&#45;&gt;Node10</title>
<path fill="none" stroke="midnightblue" d="M1265,-282.366C1278.79,-280.51 1292.97,-278.603 1306.66,-276.761"/>
<polygon fill="midnightblue" stroke="midnightblue" points="1264.48,-278.904 1255.04,-283.706 1265.41,-285.841 1264.48,-278.904"/>
</g>
<!-- Node12 -->
<g id="node12" class="node"><title>Node12</title>
<g id="a_node12"><a xlink:href="../../dd/da6/classcommands_1_1view_commands_1_1turtle_commands_1_1_move.html#af95e8ccf5c290a4d06f79caf2deed407" target="_top" xlink:title="commands.viewCommands.turtle\lCommands.Move.changeLocation">
<polygon fill="white" stroke="black" points="1306.5,-386.877 1306.5,-416.877 1485.5,-416.877 1485.5,-386.877 1306.5,-386.877"/>
<text text-anchor="start" x="1314.5" y="-404.877" font-family="Helvetica,sans-Serif" font-size="10.00">commands.viewCommands.turtle</text>
<text text-anchor="middle" x="1396" y="-393.877" font-family="Helvetica,sans-Serif" font-size="10.00">Commands.Move.changeLocation</text>
</a>
</g>
</g>
<!-- Node11&#45;&gt;Node12 -->
<g id="edge11" class="edge"><title>Node11&#45;&gt;Node12</title>
<path fill="none" stroke="midnightblue" d="M1261.36,-401.877C1276.11,-401.877 1291.4,-401.877 1306.14,-401.877"/>
<polygon fill="midnightblue" stroke="midnightblue" points="1261.25,-398.377 1251.25,-401.877 1261.25,-405.377 1261.25,-398.377"/>
</g>
<!-- Node14 -->
<g id="node14" class="node"><title>Node14</title>
<g id="a_node14"><a xlink:href="../../d8/ddb/classgui_1_1_line_view.html#aac6f01646ce73691c335b27ecd385dea" target="_top" xlink:title="gui.LineView.findBoundary\lPoint">
<polygon fill="white" stroke="black" points="480,-193.877 480,-223.877 620,-223.877 620,-193.877 480,-193.877"/>
<text text-anchor="start" x="488" y="-211.877" font-family="Helvetica,sans-Serif" font-size="10.00">gui.LineView.findBoundary</text>
<text text-anchor="middle" x="550" y="-200.877" font-family="Helvetica,sans-Serif" font-size="10.00">Point</text>
</a>
</g>
</g>
<!-- Node13&#45;&gt;Node14 -->
<g id="edge13" class="edge"><title>Node13&#45;&gt;Node14</title>
<path fill="none" stroke="midnightblue" d="M289.987,-168.025C334.62,-165.839 392.978,-165.597 444,-173.877 467.709,-177.724 493.299,-186.159 513.28,-193.784"/>
<polygon fill="midnightblue" stroke="midnightblue" points="289.616,-164.539 279.817,-168.568 289.99,-171.529 289.616,-164.539"/>
</g>
<!-- Node15 -->
<g id="node15" class="node"><title>Node15</title>
<g id="a_node15"><a xlink:href="../../d8/ddb/classgui_1_1_line_view.html#a29757337f55037a9e48da9098eca8a09" target="_top" xlink:title="gui.LineView.findCorner">
<polygon fill="white" stroke="black" points="316.5,-183.377 316.5,-202.377 443.5,-202.377 443.5,-183.377 316.5,-183.377"/>
<text text-anchor="middle" x="380" y="-190.377" font-family="Helvetica,sans-Serif" font-size="10.00">gui.LineView.findCorner</text>
</a>
</g>
</g>
<!-- Node13&#45;&gt;Node15 -->
<g id="edge15" class="edge"><title>Node13&#45;&gt;Node15</title>
<path fill="none" stroke="midnightblue" d="M290.001,-182.374C298.777,-183.41 307.689,-184.461 316.314,-185.479"/>
<polygon fill="midnightblue" stroke="midnightblue" points="290.128,-178.865 279.786,-181.168 289.307,-185.816 290.128,-178.865"/>
</g>
<!-- Node14&#45;&gt;Node2 -->
<g id="edge14" class="edge"><title>Node14&#45;&gt;Node2</title>
<path fill="none" stroke="midnightblue" d="M630.545,-220.121C648.251,-222.624 666.71,-225.234 683.395,-227.592"/>
<polygon fill="midnightblue" stroke="midnightblue" points="630.617,-216.597 620.225,-218.663 629.637,-223.528 630.617,-216.597"/>
</g>
<!-- Node15&#45;&gt;Node14 -->
<g id="edge16" class="edge"><title>Node15&#45;&gt;Node14</title>
<path fill="none" stroke="midnightblue" d="M453.675,-199.798C462.379,-200.627 471.248,-201.472 479.899,-202.296"/>
<polygon fill="midnightblue" stroke="midnightblue" points="453.844,-196.299 443.557,-198.835 453.18,-203.267 453.844,-196.299"/>
</g>
<!-- Node16&#45;&gt;Node14 -->
<g id="edge18" class="edge"><title>Node16&#45;&gt;Node14</title>
<path fill="none" stroke="midnightblue" d="M289.519,-212.399C333.977,-212.593 392.316,-212.615 444,-211.877 455.579,-211.711 467.874,-211.444 479.818,-211.134"/>
<polygon fill="midnightblue" stroke="midnightblue" points="289.409,-208.898 279.393,-212.35 289.376,-215.898 289.409,-208.898"/>
</g>
<!-- Node16&#45;&gt;Node15 -->
<g id="edge19" class="edge"><title>Node16&#45;&gt;Node15</title>
<path fill="none" stroke="midnightblue" d="M289.354,-203.456C298.314,-202.399 307.427,-201.323 316.242,-200.283"/>
<polygon fill="midnightblue" stroke="midnightblue" points="288.847,-199.992 279.326,-204.64 289.668,-206.943 288.847,-199.992"/>
</g>
<!-- Node18 -->
<g id="node18" class="node"><title>Node18</title>
<g id="a_node18"><a xlink:href="../../d3/de0/classapplication_1_1_view_handler2.html#adef8a4ac6b5b11687e8ecb1c05253287" target="_top" xlink:title="application.ViewHandler2.update\lTurtleOnView">
<polygon fill="white" stroke="black" points="656.5,-87.8769 656.5,-117.877 829.5,-117.877 829.5,-87.8769 656.5,-87.8769"/>
<text text-anchor="start" x="664.5" y="-105.877" font-family="Helvetica,sans-Serif" font-size="10.00">application.ViewHandler2.update</text>
<text text-anchor="middle" x="743" y="-94.8769" font-family="Helvetica,sans-Serif" font-size="10.00">TurtleOnView</text>
</a>
</g>
</g>
<!-- Node17&#45;&gt;Node18 -->
<g id="edge21" class="edge"><title>Node17&#45;&gt;Node18</title>
<path fill="none" stroke="midnightblue" d="M625.945,-111.383C635.94,-110.651 646.249,-109.895 656.408,-109.151"/>
<polygon fill="midnightblue" stroke="midnightblue" points="625.381,-107.915 615.664,-112.137 625.893,-114.897 625.381,-107.915"/>
</g>
<!-- Node22 -->
<g id="node22" class="node"><title>Node22</title>
<g id="a_node22"><a xlink:href="../../d8/d65/classapplication_1_1_view_handler.html#ae489ceaa9b5ec67faf3ba22a11cec085" target="_top" xlink:title="application.ViewHandler.update\lTurtleOnView">
<polygon fill="white" stroke="black" points="659.5,-313.877 659.5,-343.877 826.5,-343.877 826.5,-313.877 659.5,-313.877"/>
<text text-anchor="start" x="667.5" y="-331.877" font-family="Helvetica,sans-Serif" font-size="10.00">application.ViewHandler.update</text>
<text text-anchor="middle" x="743" y="-320.877" font-family="Helvetica,sans-Serif" font-size="10.00">TurtleOnView</text>
</a>
</g>
</g>
<!-- Node17&#45;&gt;Node22 -->
<g id="edge27" class="edge"><title>Node17&#45;&gt;Node22</title>
<path fill="none" stroke="midnightblue" d="M577.419,-138.732C591.226,-151.037 607.752,-167.242 620,-183.877 640.978,-212.367 634.175,-227.03 656,-254.877 674.469,-278.441 701.324,-300.111 720.096,-313.828"/>
<polygon fill="midnightblue" stroke="midnightblue" points="579.494,-135.898 569.656,-131.964 574.894,-141.174 579.494,-135.898"/>
</g>
<!-- Node18&#45;&gt;Node3 -->
<g id="edge22" class="edge"><title>Node18&#45;&gt;Node3</title>
<path fill="none" stroke="midnightblue" d="M781.059,-122.731C804.889,-135.012 836.758,-150.54 866,-161.877 875.221,-165.452 885.175,-168.823 894.895,-171.864"/>
<polygon fill="midnightblue" stroke="midnightblue" points="782.505,-119.539 772.018,-118.03 779.276,-125.749 782.505,-119.539"/>
</g>
<!-- Node18&#45;&gt;Node4 -->
<g id="edge24" class="edge"><title>Node18&#45;&gt;Node4</title>
<path fill="none" stroke="midnightblue" d="M765.775,-80.5007C788.465,-58.9321 826.208,-27.7306 866,-14.8769 937.898,8.34774 961.967,0.21466 1036,-14.8769 1075.14,-22.8553 1117.01,-42.6979 1143.33,-56.7206"/>
<polygon fill="midnightblue" stroke="midnightblue" points="763.123,-78.1986 758.399,-87.6821 768.006,-83.2142 763.123,-78.1986"/>
</g>
<!-- Node19 -->
<g id="node19" class="node"><title>Node19</title>
<g id="a_node19"><a xlink:href="../../d3/de0/classapplication_1_1_view_handler2.html#a4dfbbb48e3c3c7bc5db71a2a308a1b7c" target="_top" xlink:title="application.ViewHandler2.rotate\lTurtle">
<polygon fill="white" stroke="black" points="866.5,-73.8769 866.5,-103.877 1035.5,-103.877 1035.5,-73.8769 866.5,-73.8769"/>
<text text-anchor="start" x="874.5" y="-91.8769" font-family="Helvetica,sans-Serif" font-size="10.00">application.ViewHandler2.rotate</text>
<text text-anchor="middle" x="951" y="-80.8769" font-family="Helvetica,sans-Serif" font-size="10.00">Turtle</text>
</a>
</g>
</g>
<!-- Node18&#45;&gt;Node19 -->
<g id="edge23" class="edge"><title>Node18&#45;&gt;Node19</title>
<path fill="none" stroke="midnightblue" d="M839.608,-96.3792C848.537,-95.7724 857.541,-95.1605 866.349,-94.5619"/>
<polygon fill="midnightblue" stroke="midnightblue" points="839.313,-92.8911 829.573,-97.0612 839.787,-99.875 839.313,-92.8911"/>
</g>
<!-- Node20 -->
<g id="node20" class="node"><title>Node20</title>
<g id="a_node20"><a xlink:href="../../d3/de0/classapplication_1_1_view_handler2.html#a0e3021726260bc0112ea6b6deef82aaa" target="_top" xlink:title="application.ViewHandler2.set\lTurtleOrientation">
<polygon fill="white" stroke="black" points="873.5,-24.8769 873.5,-54.8769 1028.5,-54.8769 1028.5,-24.8769 873.5,-24.8769"/>
<text text-anchor="start" x="881.5" y="-42.8769" font-family="Helvetica,sans-Serif" font-size="10.00">application.ViewHandler2.set</text>
<text text-anchor="middle" x="951" y="-31.8769" font-family="Helvetica,sans-Serif" font-size="10.00">TurtleOrientation</text>
</a>
</g>
</g>
<!-- Node18&#45;&gt;Node20 -->
<g id="edge25" class="edge"><title>Node18&#45;&gt;Node20</title>
<path fill="none" stroke="midnightblue" d="M799.58,-84.7078C820.374,-78.0161 844.227,-70.4655 866,-63.8769 875.726,-60.9336 886.115,-57.887 896.154,-54.9928"/>
<polygon fill="midnightblue" stroke="midnightblue" points="798.393,-81.4131 789.951,-87.8152 800.543,-88.0748 798.393,-81.4131"/>
</g>
<!-- Node21 -->
<g id="node21" class="node"><title>Node21</title>
<g id="a_node21"><a xlink:href="../../d3/de0/classapplication_1_1_view_handler2.html#a204e29a9937f99e85d42c948f58012c1" target="_top" xlink:title="application.ViewHandler2.show\lTurtle">
<polygon fill="white" stroke="black" points="869,-122.877 869,-152.877 1033,-152.877 1033,-122.877 869,-122.877"/>
<text text-anchor="start" x="877" y="-140.877" font-family="Helvetica,sans-Serif" font-size="10.00">application.ViewHandler2.show</text>
<text text-anchor="middle" x="951" y="-129.877" font-family="Helvetica,sans-Serif" font-size="10.00">Turtle</text>
</a>
</g>
</g>
<!-- Node18&#45;&gt;Node21 -->
<g id="edge26" class="edge"><title>Node18&#45;&gt;Node21</title>
<path fill="none" stroke="midnightblue" d="M839.723,-119.141C849.509,-120.803 859.382,-122.481 868.988,-124.113"/>
<polygon fill="midnightblue" stroke="midnightblue" points="840.018,-115.641 829.573,-117.416 838.845,-122.542 840.018,-115.641"/>
</g>
<!-- Node22&#45;&gt;Node7 -->
<g id="edge30" class="edge"><title>Node22&#45;&gt;Node7</title>
<path fill="none" stroke="midnightblue" d="M824.34,-311.717C842.595,-307.818 861.848,-303.705 879.65,-299.903"/>
<polygon fill="midnightblue" stroke="midnightblue" points="823.366,-308.346 814.317,-313.858 824.828,-315.192 823.366,-308.346"/>
</g>
<!-- Node22&#45;&gt;Node8 -->
<g id="edge28" class="edge"><title>Node22&#45;&gt;Node8</title>
<path fill="none" stroke="midnightblue" d="M836.649,-323.379C894.09,-319.76 969.379,-314.637 1036,-308.877 1052.43,-307.456 1069.97,-305.757 1086.77,-304.039"/>
<polygon fill="midnightblue" stroke="midnightblue" points="836.263,-319.896 826.501,-324.014 836.7,-326.882 836.263,-319.896"/>
</g>
<!-- Node22&#45;&gt;Node11 -->
<g id="edge29" class="edge"><title>Node22&#45;&gt;Node11</title>
<path fill="none" stroke="midnightblue" d="M772.275,-349.974C795.942,-366.269 831.322,-387.56 866,-396.877 940.299,-416.839 1028.54,-415.691 1090.76,-411"/>
<polygon fill="midnightblue" stroke="midnightblue" points="773.995,-346.905 763.803,-344.009 769.965,-352.628 773.995,-346.905"/>
</g>
<!-- Node23 -->
<g id="node23" class="node"><title>Node23</title>
<g id="a_node23"><a xlink:href="../../d8/d65/classapplication_1_1_view_handler.html#abe68f02cdf0227b13568e1aaabf57e5c" target="_top" xlink:title="application.ViewHandler.rotate\lTurtle">
<polygon fill="white" stroke="black" points="870,-445.877 870,-475.877 1032,-475.877 1032,-445.877 870,-445.877"/>
<text text-anchor="start" x="878" y="-463.877" font-family="Helvetica,sans-Serif" font-size="10.00">application.ViewHandler.rotate</text>
<text text-anchor="middle" x="951" y="-452.877" font-family="Helvetica,sans-Serif" font-size="10.00">Turtle</text>
</a>
</g>
</g>
<!-- Node22&#45;&gt;Node23 -->
<g id="edge31" class="edge"><title>Node22&#45;&gt;Node23</title>
<path fill="none" stroke="midnightblue" d="M765.685,-351.169C788.77,-373.841 827.247,-408.705 866,-430.877 876.081,-436.645 887.465,-441.608 898.523,-445.743"/>
<polygon fill="midnightblue" stroke="midnightblue" points="768.024,-348.559 758.468,-343.983 763.085,-353.519 768.024,-348.559"/>
</g>
<!-- Node25 -->
<g id="node25" class="node"><title>Node25</title>
<g id="a_node25"><a xlink:href="../../d8/d65/classapplication_1_1_view_handler.html#af07eafb381b0ea9a1ce68f6ffe8a7428" target="_top" xlink:title="application.ViewHandler.set\lTurtleOrientation">
<polygon fill="white" stroke="black" points="877,-220.877 877,-250.877 1025,-250.877 1025,-220.877 877,-220.877"/>
<text text-anchor="start" x="885" y="-238.877" font-family="Helvetica,sans-Serif" font-size="10.00">application.ViewHandler.set</text>
<text text-anchor="middle" x="951" y="-227.877" font-family="Helvetica,sans-Serif" font-size="10.00">TurtleOrientation</text>
</a>
</g>
</g>
<!-- Node22&#45;&gt;Node25 -->
<g id="edge33" class="edge"><title>Node22&#45;&gt;Node25</title>
<path fill="none" stroke="midnightblue" d="M775.685,-308.194C799.711,-293.204 833.956,-273.293 866,-259.877 873.834,-256.597 882.261,-253.603 890.645,-250.928"/>
<polygon fill="midnightblue" stroke="midnightblue" points="773.591,-305.376 767.003,-313.674 777.328,-311.296 773.591,-305.376"/>
</g>
<!-- Node28 -->
<g id="node28" class="node"><title>Node28</title>
<g id="a_node28"><a xlink:href="../../d8/d65/classapplication_1_1_view_handler.html#a55d042c40e05453e3f5f6bc6c1c6e060" target="_top" xlink:title="application.ViewHandler.show\lTurtle">
<polygon fill="white" stroke="black" points="872.5,-357.877 872.5,-387.877 1029.5,-387.877 1029.5,-357.877 872.5,-357.877"/>
<text text-anchor="start" x="880.5" y="-375.877" font-family="Helvetica,sans-Serif" font-size="10.00">application.ViewHandler.show</text>
<text text-anchor="middle" x="951" y="-364.877" font-family="Helvetica,sans-Serif" font-size="10.00">Turtle</text>
</a>
</g>
</g>
<!-- Node22&#45;&gt;Node28 -->
<g id="edge36" class="edge"><title>Node22&#45;&gt;Node28</title>
<path fill="none" stroke="midnightblue" d="M824.34,-346.037C842.595,-349.936 861.848,-354.048 879.65,-357.851"/>
<polygon fill="midnightblue" stroke="midnightblue" points="824.828,-342.562 814.317,-343.896 823.366,-349.408 824.828,-342.562"/>
</g>
<!-- Node24 -->
<g id="node24" class="node"><title>Node24</title>
<g id="a_node24"><a xlink:href="../../d3/dba/classcommands_1_1view_commands_1_1turtle_commands_1_1_rotate.html#a8ee301e936ff8d884357dccac52c2bfb" target="_top" xlink:title="commands.viewCommands.turtle\lCommands.Rotate.changeOrientation">
<polygon fill="white" stroke="black" points="1072.5,-445.877 1072.5,-475.877 1269.5,-475.877 1269.5,-445.877 1072.5,-445.877"/>
<text text-anchor="start" x="1080.5" y="-463.877" font-family="Helvetica,sans-Serif" font-size="10.00">commands.viewCommands.turtle</text>
<text text-anchor="middle" x="1171" y="-452.877" font-family="Helvetica,sans-Serif" font-size="10.00">Commands.Rotate.changeOrientation</text>
</a>
</g>
</g>
<!-- Node23&#45;&gt;Node24 -->
<g id="edge32" class="edge"><title>Node23&#45;&gt;Node24</title>
<path fill="none" stroke="midnightblue" d="M1042.4,-460.877C1052.22,-460.877 1062.26,-460.877 1072.16,-460.877"/>
<polygon fill="midnightblue" stroke="midnightblue" points="1042.25,-457.377 1032.25,-460.877 1042.25,-464.377 1042.25,-457.377"/>
</g>
<!-- Node26 -->
<g id="node26" class="node"><title>Node26</title>
<g id="a_node26"><a xlink:href="../../df/d03/classcommands_1_1view_commands_1_1turtle_commands_1_1_go_towards_loc.html#a67f5f04ce72d0cd234d1e0a11e6d7c83" target="_top" xlink:title="commands.viewCommands.turtle\lCommands.GoTowardsLoc.execute">
<polygon fill="white" stroke="black" points="1079,-225.877 1079,-255.877 1263,-255.877 1263,-225.877 1079,-225.877"/>
<text text-anchor="start" x="1087" y="-243.877" font-family="Helvetica,sans-Serif" font-size="10.00">commands.viewCommands.turtle</text>
<text text-anchor="middle" x="1171" y="-232.877" font-family="Helvetica,sans-Serif" font-size="10.00">Commands.GoTowardsLoc.execute</text>
</a>
</g>
</g>
<!-- Node25&#45;&gt;Node26 -->
<g id="edge34" class="edge"><title>Node25&#45;&gt;Node26</title>
<path fill="none" stroke="midnightblue" d="M1035.41,-237.79C1049.6,-238.115 1064.41,-238.455 1078.8,-238.785"/>
<polygon fill="midnightblue" stroke="midnightblue" points="1035.27,-234.286 1025.2,-237.556 1035.11,-241.284 1035.27,-234.286"/>
</g>
<!-- Node27 -->
<g id="node27" class="node"><title>Node27</title>
<g id="a_node27"><a xlink:href="../../df/ded/classcommands_1_1view_commands_1_1turtle_commands_1_1_set_heading.html#a3efffc1774ad2f0b23742a20789f0ee8" target="_top" xlink:title="commands.viewCommands.turtle\lCommands.SetHeading.execute">
<polygon fill="white" stroke="black" points="1082,-176.877 1082,-206.877 1260,-206.877 1260,-176.877 1082,-176.877"/>
<text text-anchor="start" x="1090" y="-194.877" font-family="Helvetica,sans-Serif" font-size="10.00">commands.viewCommands.turtle</text>
<text text-anchor="middle" x="1171" y="-183.877" font-family="Helvetica,sans-Serif" font-size="10.00">Commands.SetHeading.execute</text>
</a>
</g>
</g>
<!-- Node25&#45;&gt;Node27 -->
<g id="edge35" class="edge"><title>Node25&#45;&gt;Node27</title>
<path fill="none" stroke="midnightblue" d="M1035.14,-219.096C1055,-215.088 1076.07,-210.835 1095.51,-206.912"/>
<polygon fill="midnightblue" stroke="midnightblue" points="1034.31,-215.694 1025.2,-221.103 1035.69,-222.555 1034.31,-215.694"/>
</g>
</g>
</svg>
