<?xml version="1.0" encoding="UTF-8" standalone="no"?>
<!DOCTYPE svg PUBLIC "-//W3C//DTD SVG 1.1//EN"
 "http://www.w3.org/Graphics/SVG/1.1/DTD/svg11.dtd">
<!-- Generated by graphviz version 2.36.0 (20140111.2315)
 -->
<!-- Title: Tree.SingleNode Pages: 1 -->
<!--zoomable 491 -->
<svg id="main" version="1.1" xmlns="http://www.w3.org/2000/svg" xmlns:xlink="http://www.w3.org/1999/xlink" xml:space="preserve" onload="init(evt)">
<style type="text/css"><![CDATA[
.edge:hover path { stroke: red; }
.edge:hover polygon { stroke: red; fill: red; }
]]></style>
<script type="text/javascript"><![CDATA[
var edges = document.getElementsByTagName('g');
if (edges && edges.length) {
  for (var i=0;i<edges.length;i++) {
    if (edges[i].id.substr(0,4)=='edge') {
      edges[i].setAttribute('class','edge');
    }
  }
}
]]></script>
        <defs>
                <circle id="rim" cx="0" cy="0" r="7"/>
                <circle id="rim2" cx="0" cy="0" r="3.5"/>
                <g id="zoomPlus">
                        <use xlink:href="#rim" fill="#404040">
                                <set attributeName="fill" to="#808080" begin="zoomplus.mouseover" end="zoomplus.mouseout"/>
                        </use>
                        <path d="M-4,0h8M0,-4v8" fill="none" stroke="white" stroke-width="1.5" pointer-events="none"/>
                </g>
                <g id="zoomMin">
                        <use xlink:href="#rim" fill="#404040">
                                <set attributeName="fill" to="#808080" begin="zoomminus.mouseover" end="zoomminus.mouseout"/>
                        </use>
                        <path d="M-4,0h8" fill="none" stroke="white" stroke-width="1.5" pointer-events="none"/>
                </g>
                <g id="dirArrow">
                        <path fill="none" stroke="white" stroke-width="1.5" d="M0,-3.0v7 M-2.5,-0.5L0,-3.0L2.5,-0.5"/>
                </g>
               <g id="resetDef">
                       <use xlink:href="#rim2" fill="#404040">
                               <set attributeName="fill" to="#808080" begin="reset.mouseover" end="reset.mouseout"/>
                       </use>
               </g>
        </defs>

<script type="text/javascript">
var viewWidth = 1496;
var viewHeight = 491;
var sectionId = 'dynsection-1';
</script>
<script xlink:href="../../svgpan.js"/>
<svg id="graph" class="graph">
<g id="viewport">
<title>Tree.SingleNode</title>
<polygon fill="white" stroke="none" points="-4,4 -4,-486.614 1492,-486.614 1492,4 -4,4"/>
<!-- Node1 -->
<g id="node1" class="node"><title>Node1</title>
<polygon fill="#bfbfbf" stroke="black" points="1394,-312.114 1394,-331.114 1488,-331.114 1488,-312.114 1394,-312.114"/>
<text text-anchor="middle" x="1441" y="-319.114" font-family="Helvetica,sans-Serif" font-size="10.00">Tree.SingleNode</text>
</g>
<!-- Node2 -->
<g id="node2" class="node"><title>Node2</title>
<g id="a_node2"><a xlink:href="../../d8/d4f/interface_tree_1_1_node.html" target="_top" xlink:title="Tree.Node">
<polygon fill="white" stroke="black" points="1193.5,-327.114 1193.5,-346.114 1258.5,-346.114 1258.5,-327.114 1193.5,-327.114"/>
<text text-anchor="middle" x="1226" y="-334.114" font-family="Helvetica,sans-Serif" font-size="10.00">Tree.Node</text>
</a>
</g>
</g>
<!-- Node2&#45;&gt;Node1 -->
<g id="edge1" class="edge"><title>Node2&#45;&gt;Node1</title>
<path fill="none" stroke="midnightblue" d="M1268.86,-337.613C1298.79,-337.878 1339.97,-337.329 1376,-333.614 1381.96,-333 1388.2,-332.125 1394.34,-331.125"/>
<polygon fill="midnightblue" stroke="midnightblue" points="1268.82,-334.112 1258.78,-337.489 1268.73,-341.112 1268.82,-334.112"/>
</g>
<!-- Node2&#45;&gt;Node1 -->
<g id="edge30" class="edge"><title>Node2&#45;&gt;Node1</title>
<path fill="none" stroke="#9a32cd" stroke-dasharray="5,2" d="M1268.82,-328.023C1285.31,-325.042 1304.47,-322.08 1322,-320.614 1345.92,-318.614 1352,-320.427 1376,-320.614 1381.78,-320.659 1387.85,-320.727 1393.86,-320.807"/>
<polygon fill="#9a32cd" stroke="#9a32cd" points="1268.12,-324.593 1258.93,-329.869 1269.4,-331.474 1268.12,-324.593"/>
<text text-anchor="middle" x="1349" y="-323.614" font-family="Helvetica,sans-Serif" font-size="10.00"> child</text>
</g>
<!-- Node3 -->
<g id="node3" class="node"><title>Node3</title>
<g id="a_node3"><a xlink:href="../../dc/d20/classapplication_1_1_command_factory.html" target="_top" xlink:title="application.CommandFactory">
<polygon fill="white" stroke="black" points="1148,-278.114 1148,-297.114 1304,-297.114 1304,-278.114 1148,-278.114"/>
<text text-anchor="middle" x="1226" y="-285.114" font-family="Helvetica,sans-Serif" font-size="10.00">application.CommandFactory</text>
</a>
</g>
</g>
<!-- Node3&#45;&gt;Node1 -->
<g id="edge2" class="edge"><title>Node3&#45;&gt;Node1</title>
<path fill="none" stroke="#9a32cd" stroke-dasharray="5,2" d="M1314.45,-295.431C1334.74,-297.842 1356.19,-300.874 1376,-304.614 1386.39,-306.577 1397.58,-309.324 1407.65,-312.039"/>
<polygon fill="#9a32cd" stroke="#9a32cd" points="1314.61,-291.926 1304.27,-294.261 1313.81,-298.881 1314.61,-291.926"/>
<text text-anchor="middle" x="1349" y="-307.614" font-family="Helvetica,sans-Serif" font-size="10.00"> myFactory</text>
</g>
<!-- Node4 -->
<g id="node4" class="node"><title>Node4</title>
<g id="a_node4"><a xlink:href="../../df/dcb/classapplication_1_1_pen_handler.html" target="_top" xlink:title="application.PenHandler">
<polygon fill="white" stroke="black" points="664.5,-304.114 664.5,-323.114 791.5,-323.114 791.5,-304.114 664.5,-304.114"/>
<text text-anchor="middle" x="728" y="-311.114" font-family="Helvetica,sans-Serif" font-size="10.00">application.PenHandler</text>
</a>
</g>
</g>
<!-- Node4&#45;&gt;Node3 -->
<g id="edge3" class="edge"><title>Node4&#45;&gt;Node3</title>
<path fill="none" stroke="#9a32cd" stroke-dasharray="5,2" d="M801.756,-312.316C827.718,-311.7 857.174,-310.825 884,-309.614 974.674,-305.521 1078.77,-298.462 1147.85,-293.445"/>
<polygon fill="#9a32cd" stroke="#9a32cd" points="801.533,-308.821 791.616,-312.548 801.693,-315.819 801.533,-308.821"/>
<text text-anchor="middle" x="968" y="-311.614" font-family="Helvetica,sans-Serif" font-size="10.00"> myPenHandler</text>
</g>
<!-- Node14 -->
<g id="node14" class="node"><title>Node14</title>
<g id="a_node14"><a xlink:href="../../d8/d65/classapplication_1_1_view_handler.html" target="_top" xlink:title="application.ViewHandler">
<polygon fill="white" stroke="black" points="902.5,-219.114 902.5,-238.114 1033.5,-238.114 1033.5,-219.114 902.5,-219.114"/>
<text text-anchor="middle" x="968" y="-226.114" font-family="Helvetica,sans-Serif" font-size="10.00">application.ViewHandler</text>
</a>
</g>
</g>
<!-- Node4&#45;&gt;Node14 -->
<g id="edge16" class="edge"><title>Node4&#45;&gt;Node14</title>
<path fill="none" stroke="#9a32cd" stroke-dasharray="5,2" d="M793.378,-301.98C821.727,-295.807 855.089,-287.089 884,-275.614 909.55,-265.473 936.864,-248.722 952.911,-238.197"/>
<polygon fill="#9a32cd" stroke="#9a32cd" points="792.632,-298.561 783.575,-304.058 794.083,-305.408 792.632,-298.561"/>
<text text-anchor="middle" x="847" y="-299.614" font-family="Helvetica,sans-Serif" font-size="10.00"> myPenHandler</text>
</g>
<!-- Node5 -->
<g id="node5" class="node"><title>Node5</title>
<g id="a_node5"><a xlink:href="../../de/d5a/classapplication_1_1_pen.html" target="_top" xlink:title="application.Pen">
<polygon fill="white" stroke="black" points="466.5,-408.114 466.5,-427.114 555.5,-427.114 555.5,-408.114 466.5,-408.114"/>
<text text-anchor="middle" x="511" y="-415.114" font-family="Helvetica,sans-Serif" font-size="10.00">application.Pen</text>
</a>
</g>
</g>
<!-- Node5&#45;&gt;Node4 -->
<g id="edge4" class="edge"><title>Node5&#45;&gt;Node4</title>
<path fill="none" stroke="#9a32cd" stroke-dasharray="5,2" d="M540.944,-403.614C585.336,-382.14 669.086,-341.628 707.207,-323.189"/>
<polygon fill="#9a32cd" stroke="#9a32cd" points="539.319,-400.511 531.841,-408.017 542.368,-406.813 539.319,-400.511"/>
<text text-anchor="middle" x="616" y="-383.614" font-family="Helvetica,sans-Serif" font-size="10.00"> myPen</text>
</g>
<!-- Node6 -->
<g id="node6" class="node"><title>Node6</title>
<polygon fill="white" stroke="#bfbfbf" points="178,-463.114 178,-482.114 302,-482.114 302,-463.114 178,-463.114"/>
<text text-anchor="middle" x="240" y="-470.114" font-family="Helvetica,sans-Serif" font-size="10.00">Map&lt; Integer, Color &gt;</text>
</g>
<!-- Node6&#45;&gt;Node5 -->
<g id="edge5" class="edge"><title>Node6&#45;&gt;Node5</title>
<path fill="none" stroke="#9a32cd" stroke-dasharray="5,2" d="M312.429,-465.297C349.607,-460.659 395.611,-453.616 436,-443.614 453.183,-439.359 471.997,-432.721 486.355,-427.217"/>
<polygon fill="#9a32cd" stroke="#9a32cd" points="311.693,-461.86 302.189,-466.542 312.538,-468.809 311.693,-461.86"/>
<text text-anchor="middle" x="382" y="-465.614" font-family="Helvetica,sans-Serif" font-size="10.00"> myPaletteOptions</text>
</g>
<!-- Node7 -->
<g id="node7" class="node"><title>Node7</title>
<g id="a_node7"><a xlink:href="../../d0/d9b/enumapplication_1_1_pen_1_1_p_e_n_s_t_y_l_e.html" target="_top" xlink:title="application.Pen.PENSTYLE">
<polygon fill="white" stroke="black" points="170,-425.114 170,-444.114 310,-444.114 310,-425.114 170,-425.114"/>
<text text-anchor="middle" x="240" y="-432.114" font-family="Helvetica,sans-Serif" font-size="10.00">application.Pen.PENSTYLE</text>
</a>
</g>
</g>
<!-- Node7&#45;&gt;Node5 -->
<g id="edge6" class="edge"><title>Node7&#45;&gt;Node5</title>
<path fill="none" stroke="#9a32cd" stroke-dasharray="5,2" d="M320.266,-429.605C367.94,-426.592 426.819,-422.871 466.229,-420.381"/>
<polygon fill="#9a32cd" stroke="#9a32cd" points="320.033,-426.113 310.274,-430.236 320.475,-433.099 320.033,-426.113"/>
<text text-anchor="middle" x="382" y="-431.614" font-family="Helvetica,sans-Serif" font-size="10.00"> myStyle</text>
</g>
<!-- Node8 -->
<g id="node8" class="node"><title>Node8</title>
<polygon fill="white" stroke="#bfbfbf" points="219.5,-357.114 219.5,-376.114 260.5,-376.114 260.5,-357.114 219.5,-357.114"/>
<text text-anchor="middle" x="240" y="-364.114" font-family="Helvetica,sans-Serif" font-size="10.00">Color</text>
</g>
<!-- Node8&#45;&gt;Node5 -->
<g id="edge7" class="edge"><title>Node8&#45;&gt;Node5</title>
<path fill="none" stroke="#9a32cd" stroke-dasharray="5,2" d="M270.736,-372.252C318.234,-381.257 411.459,-398.932 466.47,-409.361"/>
<polygon fill="#9a32cd" stroke="#9a32cd" points="271.257,-368.789 260.78,-370.364 269.953,-375.666 271.257,-368.789"/>
<text text-anchor="middle" x="382" y="-404.614" font-family="Helvetica,sans-Serif" font-size="10.00"> myColor</text>
</g>
<!-- Node9 -->
<g id="node9" class="node"><title>Node9</title>
<g id="a_node9"><a xlink:href="../../d8/ddb/classgui_1_1_line_view.html" target="_top" xlink:title="gui.LineView">
<polygon fill="white" stroke="black" points="473.5,-213.114 473.5,-232.114 548.5,-232.114 548.5,-213.114 473.5,-213.114"/>
<text text-anchor="middle" x="511" y="-220.114" font-family="Helvetica,sans-Serif" font-size="10.00">gui.LineView</text>
</a>
</g>
</g>
<!-- Node8&#45;&gt;Node9 -->
<g id="edge14" class="edge"><title>Node8&#45;&gt;Node9</title>
<path fill="none" stroke="#9a32cd" stroke-dasharray="5,2" d="M258.057,-350.029C274.798,-334.425 301.593,-311.192 328,-295.614 335.166,-291.387 437.528,-251.043 485.51,-232.21"/>
<polygon fill="#9a32cd" stroke="#9a32cd" points="255.543,-347.59 250.692,-357.009 260.358,-352.67 255.543,-347.59"/>
<text text-anchor="middle" x="382" y="-298.614" font-family="Helvetica,sans-Serif" font-size="10.00"> DEFAULT_PEN_COLOR</text>
</g>
<!-- Node18 -->
<g id="node18" class="node"><title>Node18</title>
<g id="a_node18"><a xlink:href="../../d7/d9b/classgui_1_1_background_view.html" target="_top" xlink:title="gui.BackgroundView">
<polygon fill="white" stroke="black" points="454.5,-306.114 454.5,-325.114 567.5,-325.114 567.5,-306.114 454.5,-306.114"/>
<text text-anchor="middle" x="511" y="-313.114" font-family="Helvetica,sans-Serif" font-size="10.00">gui.BackgroundView</text>
</a>
</g>
</g>
<!-- Node8&#45;&gt;Node18 -->
<g id="edge29" class="edge"><title>Node8&#45;&gt;Node18</title>
<path fill="none" stroke="#9a32cd" stroke-dasharray="5,2" d="M270.712,-365.668C309.315,-363.893 378.569,-358.847 436,-344.614 454.751,-339.968 475.124,-331.73 489.738,-325.219"/>
<polygon fill="#9a32cd" stroke="#9a32cd" points="270.517,-362.173 260.672,-366.086 270.809,-369.167 270.517,-362.173"/>
<text text-anchor="middle" x="382" y="-363.614" font-family="Helvetica,sans-Serif" font-size="10.00"> DEFAULT_COLOR</text>
</g>
<!-- Node9&#45;&gt;Node4 -->
<g id="edge8" class="edge"><title>Node9&#45;&gt;Node4</title>
<path fill="none" stroke="#9a32cd" stroke-dasharray="5,2" d="M543.961,-236.142C587.927,-254.751 665.975,-287.785 704.378,-304.039"/>
<polygon fill="#9a32cd" stroke="#9a32cd" points="545.176,-232.856 534.602,-232.181 542.447,-239.302 545.176,-232.856"/>
<text text-anchor="middle" x="616" y="-281.614" font-family="Helvetica,sans-Serif" font-size="10.00"> myLineView</text>
</g>
<!-- Node9&#45;&gt;Node14 -->
<g id="edge25" class="edge"><title>Node9&#45;&gt;Node14</title>
<path fill="none" stroke="#9a32cd" stroke-dasharray="5,2" d="M558.855,-223.232C640.665,-224.311 809.67,-226.54 902.482,-227.764"/>
<polygon fill="#9a32cd" stroke="#9a32cd" points="558.894,-219.732 548.849,-223.1 558.802,-226.732 558.894,-219.732"/>
<text text-anchor="middle" x="728" y="-228.614" font-family="Helvetica,sans-Serif" font-size="10.00"> myLineView</text>
</g>
<!-- Node10 -->
<g id="node10" class="node"><title>Node10</title>
<g id="a_node10"><a xlink:href="../../d8/d8b/classgui_1_1_view.html" target="_top" xlink:title="gui.View">
<polygon fill="white" stroke="black" points="212,-209.114 212,-228.114 268,-228.114 268,-209.114 212,-209.114"/>
<text text-anchor="middle" x="240" y="-216.114" font-family="Helvetica,sans-Serif" font-size="10.00">gui.View</text>
</a>
</g>
</g>
<!-- Node10&#45;&gt;Node9 -->
<g id="edge9" class="edge"><title>Node10&#45;&gt;Node9</title>
<path fill="none" stroke="midnightblue" d="M278.288,-218.811C317.535,-219.062 381.117,-219.591 436,-220.614 448.207,-220.842 461.545,-221.176 473.493,-221.506"/>
<polygon fill="midnightblue" stroke="midnightblue" points="278.153,-215.31 268.131,-218.749 278.11,-222.31 278.153,-215.31"/>
</g>
<!-- Node15 -->
<g id="node15" class="node"><title>Node15</title>
<g id="a_node15"><a xlink:href="../../df/dcc/classgui_1_1_turtle_view.html" target="_top" xlink:title="gui.TurtleView">
<polygon fill="white" stroke="black" points="470.5,-113.114 470.5,-132.114 551.5,-132.114 551.5,-113.114 470.5,-113.114"/>
<text text-anchor="middle" x="511" y="-120.114" font-family="Helvetica,sans-Serif" font-size="10.00">gui.TurtleView</text>
</a>
</g>
</g>
<!-- Node10&#45;&gt;Node15 -->
<g id="edge18" class="edge"><title>Node10&#45;&gt;Node15</title>
<path fill="none" stroke="midnightblue" d="M278.007,-212.541C289.551,-209.01 301.477,-203.43 310,-194.614 328.76,-175.209 306.9,-153.445 328,-136.614 368.01,-104.699 429.972,-107.48 470.265,-113.882"/>
<polygon fill="midnightblue" stroke="midnightblue" points="276.844,-209.228 268.056,-215.147 278.617,-216 276.844,-209.228"/>
</g>
<!-- Node10&#45;&gt;Node18 -->
<g id="edge27" class="edge"><title>Node10&#45;&gt;Node18</title>
<path fill="none" stroke="midnightblue" d="M277.882,-222.181C289.313,-224.894 301.203,-229.576 310,-237.614 326.82,-252.983 310.395,-271.152 328,-285.614 346.868,-301.114 407.842,-308.793 454.06,-312.469"/>
<polygon fill="midnightblue" stroke="midnightblue" points="278.529,-218.742 268.045,-220.27 277.194,-225.613 278.529,-218.742"/>
</g>
<!-- Node11 -->
<g id="node11" class="node"><title>Node11</title>
<polygon fill="white" stroke="#bfbfbf" points="1,-229.114 1,-248.114 53,-248.114 53,-229.114 1,-229.114"/>
<text text-anchor="middle" x="27" y="-236.114" font-family="Helvetica,sans-Serif" font-size="10.00">Canvas</text>
</g>
<!-- Node11&#45;&gt;Node10 -->
<g id="edge10" class="edge"><title>Node11&#45;&gt;Node10</title>
<path fill="none" stroke="midnightblue" d="M63.0267,-235.294C104.773,-231.337 173.646,-224.809 211.667,-221.205"/>
<polygon fill="midnightblue" stroke="midnightblue" points="62.6581,-231.813 53.0331,-236.241 63.3187,-238.782 62.6581,-231.813"/>
</g>
<!-- Node12 -->
<g id="node12" class="node"><title>Node12</title>
<polygon fill="white" stroke="#bfbfbf" points="0,-117.114 0,-136.114 54,-136.114 54,-117.114 0,-117.114"/>
<text text-anchor="middle" x="27" y="-124.114" font-family="Helvetica,sans-Serif" font-size="10.00">Point2D</text>
</g>
<!-- Node12&#45;&gt;Node9 -->
<g id="edge13" class="edge"><title>Node12&#45;&gt;Node9</title>
<path fill="none" stroke="#9a32cd" stroke-dasharray="5,2" d="M64.179,-132.652C117.931,-141.737 222.004,-159.766 310,-177.614 367.203,-189.217 433.195,-204.422 473.239,-213.852"/>
<polygon fill="#9a32cd" stroke="#9a32cd" points="64.5618,-129.167 54.1192,-130.957 63.3987,-136.07 64.5618,-129.167"/>
<text text-anchor="middle" x="240" y="-191.614" font-family="Helvetica,sans-Serif" font-size="10.00"> newStart</text>
<text text-anchor="middle" x="240" y="-180.614" font-family="Helvetica,sans-Serif" font-size="10.00">newDest</text>
</g>
<!-- Node12&#45;&gt;Node10 -->
<g id="edge11" class="edge"><title>Node12&#45;&gt;Node10</title>
<path fill="none" stroke="#9a32cd" stroke-dasharray="5,2" d="M38.8692,-145.068C46.6601,-156.698 58.1942,-171.08 72,-179.614 77.9831,-183.313 166.157,-202.808 211.9,-212.758"/>
<polygon fill="#9a32cd" stroke="#9a32cd" points="41.7525,-143.079 33.4517,-136.495 35.8349,-146.818 41.7525,-143.079"/>
<text text-anchor="middle" x="112" y="-213.614" font-family="Helvetica,sans-Serif" font-size="10.00"> DEFAULT_POINT</text>
<text text-anchor="middle" x="112" y="-202.614" font-family="Helvetica,sans-Serif" font-size="10.00">newDest</text>
</g>
<!-- Node12&#45;&gt;Node15 -->
<g id="edge20" class="edge"><title>Node12&#45;&gt;Node15</title>
<path fill="none" stroke="#9a32cd" stroke-dasharray="5,2" d="M64.5529,-122.568C136.005,-115.256 299.173,-101.5 436,-111.614 447.14,-112.438 459.146,-113.949 470.18,-115.594"/>
<polygon fill="#9a32cd" stroke="#9a32cd" points="63.8727,-119.12 54.29,-123.639 64.5993,-126.082 63.8727,-119.12"/>
<text text-anchor="middle" x="240" y="-116.614" font-family="Helvetica,sans-Serif" font-size="10.00"> newDest</text>
</g>
<!-- Node17 -->
<g id="node17" class="node"><title>Node17</title>
<g id="a_node17"><a xlink:href="../../d1/d31/classapplication_1_1_turtle.html" target="_top" xlink:title="application.Turtle">
<polygon fill="white" stroke="black" points="462.5,-28.1143 462.5,-47.1143 559.5,-47.1143 559.5,-28.1143 462.5,-28.1143"/>
<text text-anchor="middle" x="511" y="-35.1143" font-family="Helvetica,sans-Serif" font-size="10.00">application.Turtle</text>
</a>
</g>
</g>
<!-- Node12&#45;&gt;Node17 -->
<g id="edge23" class="edge"><title>Node12&#45;&gt;Node17</title>
<path fill="none" stroke="#9a32cd" stroke-dasharray="5,2" d="M43.2023,-109.232C67.117,-83.3628 116.36,-35.8277 170,-17.6143 278.341,19.1731 417.151,-11.0782 478.471,-28.042"/>
<polygon fill="#9a32cd" stroke="#9a32cd" points="40.4653,-107.04 36.3543,-116.805 45.6574,-111.735 40.4653,-107.04"/>
<text text-anchor="middle" x="240" y="-20.6143" font-family="Helvetica,sans-Serif" font-size="10.00"> myLoc</text>
</g>
<!-- Node13 -->
<g id="node13" class="node"><title>Node13</title>
<polygon fill="white" stroke="#bfbfbf" points="192,-247.114 192,-266.114 288,-266.114 288,-247.114 192,-247.114"/>
<text text-anchor="middle" x="240" y="-254.114" font-family="Helvetica,sans-Serif" font-size="10.00">GraphicsContext</text>
</g>
<!-- Node13&#45;&gt;Node9 -->
<g id="edge12" class="edge"><title>Node13&#45;&gt;Node9</title>
<path fill="none" stroke="#9a32cd" stroke-dasharray="5,2" d="M298.411,-245.357C308.258,-243.627 318.407,-241.968 328,-240.614 378.146,-233.536 436.456,-228.29 473.29,-225.342"/>
<polygon fill="#9a32cd" stroke="#9a32cd" points="297.516,-241.962 288.294,-247.177 298.755,-248.851 297.516,-241.962"/>
<text text-anchor="middle" x="382" y="-243.614" font-family="Helvetica,sans-Serif" font-size="10.00"> linesGC</text>
</g>
<!-- Node13&#45;&gt;Node15 -->
<g id="edge19" class="edge"><title>Node13&#45;&gt;Node15</title>
<path fill="none" stroke="#9a32cd" stroke-dasharray="5,2" d="M297.751,-244.373C302.058,-242.439 306.201,-240.202 310,-237.614 321.02,-230.108 317.763,-222.158 328,-213.614 375.599,-173.889 443.471,-145.863 481.449,-132.166"/>
<polygon fill="#9a32cd" stroke="#9a32cd" points="296.166,-241.234 288.128,-248.138 298.716,-247.753 296.166,-241.234"/>
<text text-anchor="middle" x="382" y="-216.614" font-family="Helvetica,sans-Serif" font-size="10.00"> turtleGC</text>
</g>
<!-- Node13&#45;&gt;Node18 -->
<g id="edge28" class="edge"><title>Node13&#45;&gt;Node18</title>
<path fill="none" stroke="#9a32cd" stroke-dasharray="5,2" d="M260.016,-272.593C276.733,-285.562 302.335,-302.914 328,-310.614 369.024,-322.922 417.608,-323.602 454.257,-321.515"/>
<polygon fill="#9a32cd" stroke="#9a32cd" points="262.127,-269.799 252.131,-266.284 257.754,-275.265 262.127,-269.799"/>
<text text-anchor="middle" x="382" y="-324.614" font-family="Helvetica,sans-Serif" font-size="10.00"> backgroundContext</text>
</g>
<!-- Node14&#45;&gt;Node3 -->
<g id="edge15" class="edge"><title>Node14&#45;&gt;Node3</title>
<path fill="none" stroke="#9a32cd" stroke-dasharray="5,2" d="M1020.3,-240.437C1068.31,-251.503 1139.15,-267.827 1183.64,-278.083"/>
<polygon fill="#9a32cd" stroke="#9a32cd" points="1020.95,-236.995 1010.42,-238.159 1019.37,-243.816 1020.95,-236.995"/>
<text text-anchor="middle" x="1091" y="-267.614" font-family="Helvetica,sans-Serif" font-size="10.00"> myViewHandler</text>
</g>
<!-- Node15&#45;&gt;Node14 -->
<g id="edge17" class="edge"><title>Node15&#45;&gt;Node14</title>
<path fill="none" stroke="#9a32cd" stroke-dasharray="5,2" d="M561.595,-134.168C652.149,-155.264 842.614,-199.637 926.205,-219.11"/>
<polygon fill="#9a32cd" stroke="#9a32cd" points="562.116,-130.696 551.582,-131.836 560.527,-137.513 562.116,-130.696"/>
<text text-anchor="middle" x="728" y="-189.614" font-family="Helvetica,sans-Serif" font-size="10.00"> myTurtleView</text>
</g>
<!-- Node16 -->
<g id="node16" class="node"><title>Node16</title>
<polygon fill="white" stroke="#bfbfbf" points="206,-38.1143 206,-57.1143 274,-57.1143 274,-38.1143 206,-38.1143"/>
<text text-anchor="middle" x="240" y="-45.1143" font-family="Helvetica,sans-Serif" font-size="10.00">ImageView</text>
</g>
<!-- Node16&#45;&gt;Node15 -->
<g id="edge21" class="edge"><title>Node16&#45;&gt;Node15</title>
<path fill="none" stroke="#9a32cd" stroke-dasharray="5,2" d="M284.271,-47.474C324.729,-48.6484 386.208,-53.8234 436,-72.6143 460.951,-82.0304 485.779,-101.364 499.386,-113.039"/>
<polygon fill="#9a32cd" stroke="#9a32cd" points="284.28,-43.9734 274.206,-47.2519 284.126,-50.9717 284.28,-43.9734"/>
<text text-anchor="middle" x="382" y="-75.6143" font-family="Helvetica,sans-Serif" font-size="10.00"> myTurtle</text>
</g>
<!-- Node16&#45;&gt;Node17 -->
<g id="edge24" class="edge"><title>Node16&#45;&gt;Node17</title>
<path fill="none" stroke="#9a32cd" stroke-dasharray="5,2" d="M284.643,-42.2577C298.484,-40.7849 313.863,-39.3825 328,-38.6143 373.591,-36.1368 425.701,-36.1375 462.444,-36.6082"/>
<polygon fill="#9a32cd" stroke="#9a32cd" points="283.959,-38.8118 274.404,-43.3883 284.727,-45.7695 283.959,-38.8118"/>
<text text-anchor="middle" x="382" y="-41.6143" font-family="Helvetica,sans-Serif" font-size="10.00"> myImage</text>
</g>
<!-- Node17&#45;&gt;Node14 -->
<g id="edge22" class="edge"><title>Node17&#45;&gt;Node14</title>
<path fill="none" stroke="#9a32cd" stroke-dasharray="5,2" d="M549.261,-50.5105C603.321,-69.4926 706.399,-106.712 792,-143.614 850.156,-168.686 917,-202.629 948.608,-218.999"/>
<polygon fill="#9a32cd" stroke="#9a32cd" points="550.347,-47.1826 539.752,-47.1825 548.035,-53.7896 550.347,-47.1826"/>
<text text-anchor="middle" x="728" y="-146.614" font-family="Helvetica,sans-Serif" font-size="10.00"> myTurtle</text>
</g>
<!-- Node18&#45;&gt;Node14 -->
<g id="edge26" class="edge"><title>Node18&#45;&gt;Node14</title>
<path fill="none" stroke="#9a32cd" stroke-dasharray="5,2" d="M565.779,-303.91C594.825,-297.685 631.332,-290.017 664,-283.614 750.437,-266.674 851.112,-248.759 911.899,-238.14"/>
<polygon fill="#9a32cd" stroke="#9a32cd" points="564.876,-300.524 555.834,-306.047 566.346,-307.368 564.876,-300.524"/>
<text text-anchor="middle" x="728" y="-286.614" font-family="Helvetica,sans-Serif" font-size="10.00"> myBackgroundView</text>
</g>
</g>
</svg>
        <g id="navigator" transform="translate(0 0)" fill="#404254">
                <rect fill="#f2f5e9" fill-opacity="0.5" stroke="#606060" stroke-width=".5" x="0" y="0" width="60" height="60"/>
                <use id="zoomplus" xlink:href="#zoomPlus" x="17" y="9" onmousedown="handleZoom(evt,'in')"/>
                <use id="zoomminus" xlink:href="#zoomMin" x="42" y="9" onmousedown="handleZoom(evt,'out')"/>
                <use id="reset" xlink:href="#resetDef" x="30" y="36" onmousedown="handleReset()"/>
                <g id="arrowUp" xlink:href="#dirArrow" transform="translate(30 24)" onmousedown="handlePan(0,-1)">
                  <use xlink:href="#rim" fill="#404040">
                        <set attributeName="fill" to="#808080" begin="arrowUp.mouseover" end="arrowUp.mouseout"/>
                  </use>
                  <path fill="none" stroke="white" stroke-width="1.5" d="M0,-3.0v7 M-2.5,-0.5L0,-3.0L2.5,-0.5"/>
                </g>
                <g id="arrowRight" xlink:href="#dirArrow" transform="rotate(90) translate(36 -43)" onmousedown="handlePan(1,0)">
                  <use xlink:href="#rim" fill="#404040">
                        <set attributeName="fill" to="#808080" begin="arrowRight.mouseover" end="arrowRight.mouseout"/>
                  </use>
                  <path fill="none" stroke="white" stroke-width="1.5" d="M0,-3.0v7 M-2.5,-0.5L0,-3.0L2.5,-0.5"/>
                </g>
                <g id="arrowDown" xlink:href="#dirArrow" transform="rotate(180) translate(-30 -48)" onmousedown="handlePan(0,1)">
                  <use xlink:href="#rim" fill="#404040">
                        <set attributeName="fill" to="#808080" begin="arrowDown.mouseover" end="arrowDown.mouseout"/>
                  </use>
                  <path fill="none" stroke="white" stroke-width="1.5" d="M0,-3.0v7 M-2.5,-0.5L0,-3.0L2.5,-0.5"/>
                </g>
                <g id="arrowLeft" xlink:href="#dirArrow" transform="rotate(270) translate(-36 17)" onmousedown="handlePan(-1,0)">
                  <use xlink:href="#rim" fill="#404040">
                        <set attributeName="fill" to="#808080" begin="arrowLeft.mouseover" end="arrowLeft.mouseout"/>
                  </use>
                  <path fill="none" stroke="white" stroke-width="1.5" d="M0,-3.0v7 M-2.5,-0.5L0,-3.0L2.5,-0.5"/>
                </g>
        </g>
        <svg viewBox="0 0 15 15" width="100%" height="30px" preserveAspectRatio="xMaxYMin meet">
         <g id="arrow_out" transform="scale(0.3 0.3)">
          <a xlink:href="class_tree_1_1_single_node__coll__graph_org.svg" target="_base">
           <rect id="button" ry="5" rx="5" y="6" x="6" height="38" width="38"
                fill="#f2f5e9" fill-opacity="0.5" stroke="#606060" stroke-width="1.0"/>
           <path id="arrow"
             d="M 11.500037,31.436501 C 11.940474,20.09759 22.043105,11.32322 32.158766,21.979434 L 37.068811,17.246167 C 37.068811,17.246167 37.088388,32 37.088388,32 L 22.160133,31.978069 C 22.160133,31.978069 26.997745,27.140456 26.997745,27.140456 C 18.528582,18.264221 13.291696,25.230495 11.500037,31.436501 z"
             style="fill:#404040;"/>
          </a>
         </g>
        </svg>
</svg>
