<?xml version="1.0" encoding="UTF-8" standalone="no"?>
<!DOCTYPE svg PUBLIC "-//W3C//DTD SVG 1.1//EN"
 "http://www.w3.org/Graphics/SVG/1.1/DTD/svg11.dtd">
<!-- Generated by graphviz version 2.36.0 (20140111.2315)
 -->
<!-- Title: commands.viewCommands.ViewCommands Pages: 1 -->
<svg width="787pt" height="336pt"
 viewBox="0.00 0.00 787.00 336.00" xmlns="http://www.w3.org/2000/svg" xmlns:xlink="http://www.w3.org/1999/xlink">
<g id="graph0" class="graph" transform="scale(1 1) rotate(0) translate(4 332)">
<title>commands.viewCommands.ViewCommands</title>
<polygon fill="white" stroke="none" points="-4,4 -4,-332 783,-332 783,4 -4,4"/>
<!-- Node1 -->
<g id="node1" class="node"><title>Node1</title>
<polygon fill="#bfbfbf" stroke="black" points="165,-1 165,-31 339,-31 339,-1 165,-1"/>
<text text-anchor="start" x="173" y="-19" font-family="Helvetica,sans-Serif" font-size="10.00">commands.viewCommands.View</text>
<text text-anchor="middle" x="252" y="-8" font-family="Helvetica,sans-Serif" font-size="10.00">Commands</text>
</g>
<!-- Node2 -->
<g id="node2" class="node"><title>Node2</title>
<g id="a_node2"><a xlink:href="../../dc/d3e/classcommands_1_1_command_center.html" target="_top" xlink:title="commands.CommandCenter">
<polygon fill="white" stroke="black" points="60,-80.5 60,-99.5 216,-99.5 216,-80.5 60,-80.5"/>
<text text-anchor="middle" x="138" y="-87.5" font-family="Helvetica,sans-Serif" font-size="10.00">commands.CommandCenter</text>
</a>
</g>
</g>
<!-- Node2&#45;&gt;Node1 -->
<g id="edge1" class="edge"><title>Node2&#45;&gt;Node1</title>
<path fill="none" stroke="midnightblue" d="M160.25,-74.9477C180.224,-62.3322 209.406,-43.9018 229.467,-31.2316"/>
<polygon fill="midnightblue" stroke="midnightblue" points="158.111,-72.1587 151.525,-80.4579 161.849,-78.0772 158.111,-72.1587"/>
</g>
<!-- Node3 -->
<g id="node3" class="node"><title>Node3</title>
<g id="a_node3"><a xlink:href="../../d1/d4d/interfacecommands_1_1view_commands_1_1turtle_commands_1_1_executable.html" target="_top" xlink:title="commands.viewCommands.turtle\lCommands.Executable">
<polygon fill="white" stroke="black" points="0,-149 0,-179 178,-179 178,-149 0,-149"/>
<text text-anchor="start" x="8" y="-167" font-family="Helvetica,sans-Serif" font-size="10.00">commands.viewCommands.turtle</text>
<text text-anchor="middle" x="89" y="-156" font-family="Helvetica,sans-Serif" font-size="10.00">Commands.Executable</text>
</a>
</g>
</g>
<!-- Node3&#45;&gt;Node2 -->
<g id="edge2" class="edge"><title>Node3&#45;&gt;Node2</title>
<path fill="none" stroke="midnightblue" d="M104.467,-140.273C113.827,-126.52 125.232,-109.762 132.039,-99.7589"/>
<polygon fill="midnightblue" stroke="midnightblue" points="101.414,-138.539 98.6808,-148.775 107.201,-142.477 101.414,-138.539"/>
</g>
<!-- Node4 -->
<g id="node4" class="node"><title>Node4</title>
<polygon fill="white" stroke="#bfbfbf" points="196,-154.5 196,-173.5 308,-173.5 308,-154.5 196,-154.5"/>
<text text-anchor="middle" x="252" y="-161.5" font-family="Helvetica,sans-Serif" font-size="10.00">ArrayList&lt; Object &gt;</text>
</g>
<!-- Node4&#45;&gt;Node1 -->
<g id="edge16" class="edge"><title>Node4&#45;&gt;Node1</title>
<path fill="none" stroke="#9a32cd" stroke-dasharray="5,2" d="M252,-144.057C252,-114.394 252,-57.6433 252,-31.2066"/>
<polygon fill="#9a32cd" stroke="#9a32cd" points="248.5,-144.304 252,-154.304 255.5,-144.304 248.5,-144.304"/>
<text text-anchor="middle" x="272" y="-87.5" font-family="Helvetica,sans-Serif" font-size="10.00"> params</text>
</g>
<!-- Node4&#45;&gt;Node2 -->
<g id="edge3" class="edge"><title>Node4&#45;&gt;Node2</title>
<path fill="none" stroke="#9a32cd" stroke-dasharray="5,2" d="M217.665,-150.661C204.698,-145.252 190.152,-138.244 178,-130 165.158,-121.288 152.744,-108.231 145.239,-99.6643"/>
<polygon fill="#9a32cd" stroke="#9a32cd" points="216.623,-154.014 227.208,-154.48 219.224,-147.515 216.623,-154.014"/>
<text text-anchor="middle" x="208" y="-121.5" font-family="Helvetica,sans-Serif" font-size="10.00"> parameters</text>
</g>
<!-- Node5 -->
<g id="node5" class="node"><title>Node5</title>
<g id="a_node5"><a xlink:href="../../df/dcb/classapplication_1_1_pen_handler.html" target="_top" xlink:title="application.PenHandler">
<polygon fill="white" stroke="black" points="310.5,-80.5 310.5,-99.5 437.5,-99.5 437.5,-80.5 310.5,-80.5"/>
<text text-anchor="middle" x="374" y="-87.5" font-family="Helvetica,sans-Serif" font-size="10.00">application.PenHandler</text>
</a>
</g>
</g>
<!-- Node5&#45;&gt;Node1 -->
<g id="edge4" class="edge"><title>Node5&#45;&gt;Node1</title>
<path fill="none" stroke="#9a32cd" stroke-dasharray="5,2" d="M350.767,-75.2887C329.379,-62.6663 297.778,-44.0164 276.115,-31.2316"/>
<polygon fill="#9a32cd" stroke="#9a32cd" points="349.135,-78.3896 359.526,-80.4579 352.693,-72.3611 349.135,-78.3896"/>
<text text-anchor="middle" x="344" y="-53.5" font-family="Helvetica,sans-Serif" font-size="10.00"> myPH</text>
</g>
<!-- Node6 -->
<g id="node6" class="node"><title>Node6</title>
<g id="a_node6"><a xlink:href="../../de/d5a/classapplication_1_1_pen.html" target="_top" xlink:title="application.Pen">
<polygon fill="white" stroke="black" points="327.5,-154.5 327.5,-173.5 416.5,-173.5 416.5,-154.5 327.5,-154.5"/>
<text text-anchor="middle" x="372" y="-161.5" font-family="Helvetica,sans-Serif" font-size="10.00">application.Pen</text>
</a>
</g>
</g>
<!-- Node6&#45;&gt;Node5 -->
<g id="edge5" class="edge"><title>Node6&#45;&gt;Node5</title>
<path fill="none" stroke="#9a32cd" stroke-dasharray="5,2" d="M372.523,-144.156C372.925,-129.712 373.459,-110.459 373.763,-99.531"/>
<polygon fill="#9a32cd" stroke="#9a32cd" points="369.016,-144.365 372.237,-154.458 376.014,-144.559 369.016,-144.365"/>
<text text-anchor="middle" x="392.5" y="-121.5" font-family="Helvetica,sans-Serif" font-size="10.00"> myPen</text>
</g>
<!-- Node7 -->
<g id="node7" class="node"><title>Node7</title>
<polygon fill="white" stroke="#bfbfbf" points="127,-229.5 127,-248.5 251,-248.5 251,-229.5 127,-229.5"/>
<text text-anchor="middle" x="189" y="-236.5" font-family="Helvetica,sans-Serif" font-size="10.00">Map&lt; Integer, Color &gt;</text>
</g>
<!-- Node7&#45;&gt;Node6 -->
<g id="edge6" class="edge"><title>Node7&#45;&gt;Node6</title>
<path fill="none" stroke="#9a32cd" stroke-dasharray="5,2" d="M206.607,-223.133C217.383,-214.696 231.792,-204.547 246,-198 275.175,-184.556 284.929,-188.156 316,-180 323.885,-177.93 332.387,-175.668 340.326,-173.543"/>
<polygon fill="#9a32cd" stroke="#9a32cd" points="204.393,-220.421 198.817,-229.43 208.794,-225.865 204.393,-220.421"/>
<text text-anchor="middle" x="290" y="-201.5" font-family="Helvetica,sans-Serif" font-size="10.00"> myPaletteOptions</text>
</g>
<!-- Node8 -->
<g id="node8" class="node"><title>Node8</title>
<g id="a_node8"><a xlink:href="../../d0/d9b/enumapplication_1_1_pen_1_1_p_e_n_s_t_y_l_e.html" target="_top" xlink:title="application.Pen.PENSTYLE">
<polygon fill="white" stroke="black" points="269,-229.5 269,-248.5 409,-248.5 409,-229.5 269,-229.5"/>
<text text-anchor="middle" x="339" y="-236.5" font-family="Helvetica,sans-Serif" font-size="10.00">application.Pen.PENSTYLE</text>
</a>
</g>
</g>
<!-- Node8&#45;&gt;Node6 -->
<g id="edge7" class="edge"><title>Node8&#45;&gt;Node6</title>
<path fill="none" stroke="#9a32cd" stroke-dasharray="5,2" d="M336.67,-218.925C336.552,-212.093 337.278,-204.483 340,-198 344.14,-188.14 352.713,-179.561 359.945,-173.623"/>
<polygon fill="#9a32cd" stroke="#9a32cd" points="333.214,-219.645 337.459,-229.352 340.194,-219.116 333.214,-219.645"/>
<text text-anchor="middle" x="361.5" y="-201.5" font-family="Helvetica,sans-Serif" font-size="10.00"> myStyle</text>
</g>
<!-- Node9 -->
<g id="node9" class="node"><title>Node9</title>
<polygon fill="white" stroke="#bfbfbf" points="432.5,-229.5 432.5,-248.5 473.5,-248.5 473.5,-229.5 432.5,-229.5"/>
<text text-anchor="middle" x="453" y="-236.5" font-family="Helvetica,sans-Serif" font-size="10.00">Color</text>
</g>
<!-- Node9&#45;&gt;Node6 -->
<g id="edge8" class="edge"><title>Node9&#45;&gt;Node6</title>
<path fill="none" stroke="#9a32cd" stroke-dasharray="5,2" d="M425.877,-224.257C419.024,-220.154 411.934,-215.316 406,-210 393.893,-199.154 383.191,-183.453 377.163,-173.753"/>
<polygon fill="#9a32cd" stroke="#9a32cd" points="424.514,-227.506 434.943,-229.372 427.953,-221.409 424.514,-227.506"/>
<text text-anchor="middle" x="427.5" y="-201.5" font-family="Helvetica,sans-Serif" font-size="10.00"> myColor</text>
</g>
<!-- Node10 -->
<g id="node10" class="node"><title>Node10</title>
<g id="a_node10"><a xlink:href="../../d8/ddb/classgui_1_1_line_view.html" target="_top" xlink:title="gui.LineView">
<polygon fill="white" stroke="black" points="556.5,-154.5 556.5,-173.5 631.5,-173.5 631.5,-154.5 556.5,-154.5"/>
<text text-anchor="middle" x="594" y="-161.5" font-family="Helvetica,sans-Serif" font-size="10.00">gui.LineView</text>
</a>
</g>
</g>
<!-- Node9&#45;&gt;Node10 -->
<g id="edge15" class="edge"><title>Node9&#45;&gt;Node10</title>
<path fill="none" stroke="#9a32cd" stroke-dasharray="5,2" d="M456.076,-219.443C458.225,-211.837 461.862,-203.538 468,-198 492.092,-176.262 528.765,-168.525 556.345,-165.923"/>
<polygon fill="#9a32cd" stroke="#9a32cd" points="452.621,-218.857 453.92,-229.372 459.462,-220.342 452.621,-218.857"/>
<text text-anchor="middle" x="522" y="-201.5" font-family="Helvetica,sans-Serif" font-size="10.00"> DEFAULT_PEN_COLOR</text>
</g>
<!-- Node10&#45;&gt;Node5 -->
<g id="edge9" class="edge"><title>Node10&#45;&gt;Node5</title>
<path fill="none" stroke="#9a32cd" stroke-dasharray="5,2" d="M558.391,-151.346C514.064,-136.839 439.41,-112.407 400.067,-99.531"/>
<polygon fill="#9a32cd" stroke="#9a32cd" points="557.307,-154.674 567.899,-154.458 559.484,-148.021 557.307,-154.674"/>
<text text-anchor="middle" x="521" y="-121.5" font-family="Helvetica,sans-Serif" font-size="10.00"> myLineView</text>
</g>
<!-- Node11 -->
<g id="node11" class="node"><title>Node11</title>
<g id="a_node11"><a xlink:href="../../d8/d8b/classgui_1_1_view.html" target="_top" xlink:title="gui.View">
<polygon fill="white" stroke="black" points="497,-229.5 497,-248.5 553,-248.5 553,-229.5 497,-229.5"/>
<text text-anchor="middle" x="525" y="-236.5" font-family="Helvetica,sans-Serif" font-size="10.00">gui.View</text>
</a>
</g>
</g>
<!-- Node11&#45;&gt;Node10 -->
<g id="edge10" class="edge"><title>Node11&#45;&gt;Node10</title>
<path fill="none" stroke="midnightblue" d="M560.766,-225.05C567.909,-221.12 574.802,-216.162 580,-210 588.863,-199.494 592.123,-183.397 593.316,-173.572"/>
<polygon fill="midnightblue" stroke="midnightblue" points="559.137,-221.951 551.694,-229.491 562.214,-228.238 559.137,-221.951"/>
</g>
<!-- Node12 -->
<g id="node12" class="node"><title>Node12</title>
<polygon fill="white" stroke="#bfbfbf" points="466,-308.5 466,-327.5 518,-327.5 518,-308.5 466,-308.5"/>
<text text-anchor="middle" x="492" y="-315.5" font-family="Helvetica,sans-Serif" font-size="10.00">Canvas</text>
</g>
<!-- Node12&#45;&gt;Node11 -->
<g id="edge11" class="edge"><title>Node12&#45;&gt;Node11</title>
<path fill="none" stroke="midnightblue" d="M495.806,-298.525C498.105,-289.128 501.476,-277.678 506,-268 509.184,-261.188 513.934,-254.188 517.888,-248.891"/>
<polygon fill="midnightblue" stroke="midnightblue" points="492.368,-297.86 493.594,-308.384 499.198,-299.392 492.368,-297.86"/>
</g>
<!-- Node13 -->
<g id="node13" class="node"><title>Node13</title>
<polygon fill="white" stroke="#bfbfbf" points="564,-308.5 564,-327.5 618,-327.5 618,-308.5 564,-308.5"/>
<text text-anchor="middle" x="591" y="-315.5" font-family="Helvetica,sans-Serif" font-size="10.00">Point2D</text>
</g>
<!-- Node13&#45;&gt;Node10 -->
<g id="edge14" class="edge"><title>Node13&#45;&gt;Node10</title>
<path fill="none" stroke="#9a32cd" stroke-dasharray="5,2" d="M601.598,-299.463C603.003,-296.404 604.224,-293.181 605,-290 615.425,-247.246 602.549,-194.136 596.653,-173.632"/>
<polygon fill="#9a32cd" stroke="#9a32cd" points="598.435,-297.957 596.799,-308.425 604.606,-301.262 598.435,-297.957"/>
<text text-anchor="middle" x="631" y="-242" font-family="Helvetica,sans-Serif" font-size="10.00"> newStart</text>
<text text-anchor="middle" x="631" y="-231" font-family="Helvetica,sans-Serif" font-size="10.00">newDest</text>
</g>
<!-- Node13&#45;&gt;Node11 -->
<g id="edge12" class="edge"><title>Node13&#45;&gt;Node11</title>
<path fill="none" stroke="#9a32cd" stroke-dasharray="5,2" d="M553.95,-309.767C543.164,-305.773 532.536,-299.584 526,-290 517.586,-277.663 520.027,-259.333 522.535,-248.632"/>
<polygon fill="#9a32cd" stroke="#9a32cd" points="553.197,-313.199 563.787,-312.852 555.292,-306.52 553.197,-313.199"/>
<text text-anchor="middle" x="565.5" y="-282" font-family="Helvetica,sans-Serif" font-size="10.00"> DEFAULT_POINT</text>
<text text-anchor="middle" x="565.5" y="-271" font-family="Helvetica,sans-Serif" font-size="10.00">newDest</text>
</g>
<!-- Node14 -->
<g id="node14" class="node"><title>Node14</title>
<polygon fill="white" stroke="#bfbfbf" points="683,-229.5 683,-248.5 779,-248.5 779,-229.5 683,-229.5"/>
<text text-anchor="middle" x="731" y="-236.5" font-family="Helvetica,sans-Serif" font-size="10.00">GraphicsContext</text>
</g>
<!-- Node14&#45;&gt;Node10 -->
<g id="edge13" class="edge"><title>Node14&#45;&gt;Node10</title>
<path fill="none" stroke="#9a32cd" stroke-dasharray="5,2" d="M705.91,-224.631C678.077,-209.8 633.982,-186.304 610.307,-173.689"/>
<polygon fill="#9a32cd" stroke="#9a32cd" points="704.545,-227.869 715.016,-229.483 707.837,-221.692 704.545,-227.869"/>
<text text-anchor="middle" x="694" y="-201.5" font-family="Helvetica,sans-Serif" font-size="10.00"> linesGC</text>
</g>
</g>
</svg>
