<?xml version="1.0" encoding="UTF-8" standalone="no"?>
<!DOCTYPE svg PUBLIC "-//W3C//DTD SVG 1.1//EN"
 "http://www.w3.org/Graphics/SVG/1.1/DTD/svg11.dtd">
<!-- Generated by graphviz version 2.36.0 (20140111.2315)
 -->
<!-- Title: gui.GUI Pages: 1 -->
<!--zoomable 681 -->
<svg id="main" version="1.1" xmlns="http://www.w3.org/2000/svg" xmlns:xlink="http://www.w3.org/1999/xlink" xml:space="preserve" onload="init(evt)">
<style type="text/css"><![CDATA[
.edge:hover path { stroke: red; }
.edge:hover polygon { stroke: red; fill: red; }
]]></style>
<script type="text/javascript"><![CDATA[
var edges = document.getElementsByTagName('g');
if (edges && edges.length) {
  for (var i=0;i<edges.length;i++) {
    if (edges[i].id.substr(0,4)=='edge') {
      edges[i].setAttribute('class','edge');
    }
  }
}
]]></script>
        <defs>
                <circle id="rim" cx="0" cy="0" r="7"/>
                <circle id="rim2" cx="0" cy="0" r="3.5"/>
                <g id="zoomPlus">
                        <use xlink:href="#rim" fill="#404040">
                                <set attributeName="fill" to="#808080" begin="zoomplus.mouseover" end="zoomplus.mouseout"/>
                        </use>
                        <path d="M-4,0h8M0,-4v8" fill="none" stroke="white" stroke-width="1.5" pointer-events="none"/>
                </g>
                <g id="zoomMin">
                        <use xlink:href="#rim" fill="#404040">
                                <set attributeName="fill" to="#808080" begin="zoomminus.mouseover" end="zoomminus.mouseout"/>
                        </use>
                        <path d="M-4,0h8" fill="none" stroke="white" stroke-width="1.5" pointer-events="none"/>
                </g>
                <g id="dirArrow">
                        <path fill="none" stroke="white" stroke-width="1.5" d="M0,-3.0v7 M-2.5,-0.5L0,-3.0L2.5,-0.5"/>
                </g>
               <g id="resetDef">
                       <use xlink:href="#rim2" fill="#404040">
                               <set attributeName="fill" to="#808080" begin="reset.mouseover" end="reset.mouseout"/>
                       </use>
               </g>
        </defs>

<script type="text/javascript">
var viewWidth = 2114;
var viewHeight = 681;
var sectionId = 'dynsection-0';
</script>
<script xlink:href="../../svgpan.js"/>
<svg id="graph" class="graph">
<g id="viewport">
<title>gui.GUI</title>
<polygon fill="white" stroke="none" points="-4,4 -4,-677.447 2110,-677.447 2110,4 -4,4"/>
<!-- Node1 -->
<g id="node1" class="node"><title>Node1</title>
<polygon fill="#bfbfbf" stroke="black" points="2054.5,-215.947 2054.5,-234.947 2105.5,-234.947 2105.5,-215.947 2054.5,-215.947"/>
<text text-anchor="middle" x="2080" y="-222.947" font-family="Helvetica,sans-Serif" font-size="10.00">gui.GUI</text>
</g>
<!-- Node2 -->
<g id="node2" class="node"><title>Node2</title>
<g id="a_node2"><a xlink:href="../../df/dcc/classgui_1_1_turtle_view.html" target="_top" xlink:title="gui.TurtleView">
<polygon fill="white" stroke="black" points="470.5,-180.947 470.5,-199.947 551.5,-199.947 551.5,-180.947 470.5,-180.947"/>
<text text-anchor="middle" x="511" y="-187.947" font-family="Helvetica,sans-Serif" font-size="10.00">gui.TurtleView</text>
</a>
</g>
</g>
<!-- Node2&#45;&gt;Node1 -->
<g id="edge1" class="edge"><title>Node2&#45;&gt;Node1</title>
<path fill="none" stroke="#9a32cd" stroke-dasharray="5,2" d="M559.787,-202.107C568.464,-203.844 577.467,-205.401 586,-206.447 1123.57,-272.392 1262.47,-236.002 1804,-244.447 1907.11,-246.055 1934.82,-260.412 2036,-240.447 2042.36,-239.192 2049.06,-237.202 2055.22,-235.077"/>
<polygon fill="#9a32cd" stroke="#9a32cd" points="560.307,-198.64 549.8,-200.004 558.865,-205.49 560.307,-198.64"/>
<text text-anchor="middle" x="1266" y="-250.447" font-family="Helvetica,sans-Serif" font-size="10.00"> myTurtleView</text>
</g>
<!-- Node19 -->
<g id="node19" class="node"><title>Node19</title>
<g id="a_node19"><a xlink:href="../../d8/d65/classapplication_1_1_view_handler.html" target="_top" xlink:title="application.ViewHandler">
<polygon fill="white" stroke="black" points="902.5,-337.947 902.5,-356.947 1033.5,-356.947 1033.5,-337.947 902.5,-337.947"/>
<text text-anchor="middle" x="968" y="-344.947" font-family="Helvetica,sans-Serif" font-size="10.00">application.ViewHandler</text>
</a>
</g>
</g>
<!-- Node2&#45;&gt;Node19 -->
<g id="edge25" class="edge"><title>Node2&#45;&gt;Node19</title>
<path fill="none" stroke="#9a32cd" stroke-dasharray="5,2" d="M561.769,-192.885C587.297,-195.013 618.684,-198.994 646,-206.447 767.848,-239.693 903.062,-311.679 949.921,-337.762"/>
<polygon fill="#9a32cd" stroke="#9a32cd" points="561.814,-189.379 551.577,-192.108 561.282,-196.358 561.814,-189.379"/>
<text text-anchor="middle" x="728" y="-262.447" font-family="Helvetica,sans-Serif" font-size="10.00"> myTurtleView</text>
</g>
<!-- Node3 -->
<g id="node3" class="node"><title>Node3</title>
<g id="a_node3"><a xlink:href="../../d8/d8b/classgui_1_1_view.html" target="_top" xlink:title="gui.View">
<polygon fill="white" stroke="black" points="212,-215.947 212,-234.947 268,-234.947 268,-215.947 212,-215.947"/>
<text text-anchor="middle" x="240" y="-222.947" font-family="Helvetica,sans-Serif" font-size="10.00">gui.View</text>
</a>
</g>
</g>
<!-- Node3&#45;&gt;Node2 -->
<g id="edge2" class="edge"><title>Node3&#45;&gt;Node2</title>
<path fill="none" stroke="midnightblue" d="M278.181,-220.61C328.716,-214.034 418.701,-202.326 470.44,-195.594"/>
<polygon fill="midnightblue" stroke="midnightblue" points="277.489,-217.17 268.024,-221.931 278.392,-224.112 277.489,-217.17"/>
</g>
<!-- Node18 -->
<g id="node18" class="node"><title>Node18</title>
<g id="a_node18"><a xlink:href="../../d8/ddb/classgui_1_1_line_view.html" target="_top" xlink:title="gui.LineView">
<polygon fill="white" stroke="black" points="473.5,-341.947 473.5,-360.947 548.5,-360.947 548.5,-341.947 473.5,-341.947"/>
<text text-anchor="middle" x="511" y="-348.947" font-family="Helvetica,sans-Serif" font-size="10.00">gui.LineView</text>
</a>
</g>
</g>
<!-- Node3&#45;&gt;Node18 -->
<g id="edge19" class="edge"><title>Node3&#45;&gt;Node18</title>
<path fill="none" stroke="midnightblue" d="M278.484,-230.829C331.815,-238.801 424.45,-253.936 436,-264.447 456.59,-283.186 435.926,-303.27 454,-324.447 460.516,-332.082 469.688,-337.733 478.727,-341.834"/>
<polygon fill="midnightblue" stroke="midnightblue" points="278.783,-227.335 268.378,-229.333 277.758,-234.26 278.783,-227.335"/>
</g>
<!-- Node21 -->
<g id="node21" class="node"><title>Node21</title>
<g id="a_node21"><a xlink:href="../../d7/d9b/classgui_1_1_background_view.html" target="_top" xlink:title="gui.BackgroundView">
<polygon fill="white" stroke="black" points="454.5,-295.947 454.5,-314.947 567.5,-314.947 567.5,-295.947 454.5,-295.947"/>
<text text-anchor="middle" x="511" y="-302.947" font-family="Helvetica,sans-Serif" font-size="10.00">gui.BackgroundView</text>
</a>
</g>
</g>
<!-- Node3&#45;&gt;Node21 -->
<g id="edge31" class="edge"><title>Node3&#45;&gt;Node21</title>
<path fill="none" stroke="midnightblue" d="M278.095,-221.211C318.589,-218.125 384.522,-217.683 436,-239.447 465.175,-251.782 490.639,-280.481 502.655,-295.649"/>
<polygon fill="midnightblue" stroke="midnightblue" points="277.79,-217.724 268.124,-222.064 278.386,-224.699 277.79,-217.724"/>
</g>
<!-- Node4 -->
<g id="node4" class="node"><title>Node4</title>
<polygon fill="white" stroke="#bfbfbf" points="1,-235.947 1,-254.947 53,-254.947 53,-235.947 1,-235.947"/>
<text text-anchor="middle" x="27" y="-242.947" font-family="Helvetica,sans-Serif" font-size="10.00">Canvas</text>
</g>
<!-- Node4&#45;&gt;Node3 -->
<g id="edge3" class="edge"><title>Node4&#45;&gt;Node3</title>
<path fill="none" stroke="midnightblue" d="M63.0267,-242.127C104.773,-238.17 173.646,-231.642 211.667,-228.038"/>
<polygon fill="midnightblue" stroke="midnightblue" points="62.6581,-238.646 53.0331,-243.075 63.3187,-245.615 62.6581,-238.646"/>
</g>
<!-- Node5 -->
<g id="node5" class="node"><title>Node5</title>
<polygon fill="white" stroke="#bfbfbf" points="0,-136.947 0,-155.947 54,-155.947 54,-136.947 0,-136.947"/>
<text text-anchor="middle" x="27" y="-143.947" font-family="Helvetica,sans-Serif" font-size="10.00">Point2D</text>
</g>
<!-- Node5&#45;&gt;Node2 -->
<g id="edge6" class="edge"><title>Node5&#45;&gt;Node2</title>
<path fill="none" stroke="#9a32cd" stroke-dasharray="5,2" d="M64.3446,-149.765C152.804,-157.84 378.762,-178.467 470.448,-186.837"/>
<polygon fill="#9a32cd" stroke="#9a32cd" points="64.5335,-146.268 54.2567,-148.844 63.8971,-153.239 64.5335,-146.268"/>
<text text-anchor="middle" x="240" y="-175.447" font-family="Helvetica,sans-Serif" font-size="10.00"> newDest</text>
</g>
<!-- Node5&#45;&gt;Node3 -->
<g id="edge4" class="edge"><title>Node5&#45;&gt;Node3</title>
<path fill="none" stroke="#9a32cd" stroke-dasharray="5,2" d="M43.0713,-163.747C50.9378,-171.766 61.1694,-180.759 72,-186.447 84.3227,-192.919 167.751,-210.746 211.829,-219.885"/>
<polygon fill="#9a32cd" stroke="#9a32cd" points="45.4331,-161.147 36.0586,-156.21 40.3085,-165.915 45.4331,-161.147"/>
<text text-anchor="middle" x="112" y="-220.447" font-family="Helvetica,sans-Serif" font-size="10.00"> DEFAULT_POINT</text>
<text text-anchor="middle" x="112" y="-209.447" font-family="Helvetica,sans-Serif" font-size="10.00">newDest</text>
</g>
<!-- Node5&#45;&gt;Node18 -->
<g id="edge21" class="edge"><title>Node5&#45;&gt;Node18</title>
<path fill="none" stroke="#9a32cd" stroke-dasharray="5,2" d="M64.17,-136.562C119.077,-123.378 225.957,-104.921 310,-134.447 377.713,-158.237 398.65,-174.161 436,-235.447 457.002,-269.909 429.239,-292.58 454,-324.447 460.026,-332.203 468.844,-337.857 477.708,-341.923"/>
<polygon fill="#9a32cd" stroke="#9a32cd" points="63.0841,-133.225 54.2216,-139.031 64.7703,-140.019 63.0841,-133.225"/>
<text text-anchor="middle" x="240" y="-148.447" font-family="Helvetica,sans-Serif" font-size="10.00"> newStart</text>
<text text-anchor="middle" x="240" y="-137.447" font-family="Helvetica,sans-Serif" font-size="10.00">newDest</text>
</g>
<!-- Node20 -->
<g id="node20" class="node"><title>Node20</title>
<g id="a_node20"><a xlink:href="../../d1/d31/classapplication_1_1_turtle.html" target="_top" xlink:title="application.Turtle">
<polygon fill="white" stroke="black" points="462.5,-60.9473 462.5,-79.9473 559.5,-79.9473 559.5,-60.9473 462.5,-60.9473"/>
<text text-anchor="middle" x="511" y="-67.9473" font-family="Helvetica,sans-Serif" font-size="10.00">application.Turtle</text>
</a>
</g>
</g>
<!-- Node5&#45;&gt;Node20 -->
<g id="edge27" class="edge"><title>Node5&#45;&gt;Node20</title>
<path fill="none" stroke="#9a32cd" stroke-dasharray="5,2" d="M41.3766,-129.182C49.3098,-120.136 60.121,-109.672 72,-103.447 111.297,-82.8534 125.933,-89.5967 170,-84.4473 273.714,-72.3278 396.289,-70.2699 462.241,-70.1573"/>
<polygon fill="#9a32cd" stroke="#9a32cd" points="38.6413,-126.997 34.952,-136.929 44.0296,-131.465 38.6413,-126.997"/>
<text text-anchor="middle" x="240" y="-87.4473" font-family="Helvetica,sans-Serif" font-size="10.00"> myLoc</text>
</g>
<!-- Node6 -->
<g id="node6" class="node"><title>Node6</title>
<polygon fill="white" stroke="#bfbfbf" points="192,-307.947 192,-326.947 288,-326.947 288,-307.947 192,-307.947"/>
<text text-anchor="middle" x="240" y="-314.947" font-family="Helvetica,sans-Serif" font-size="10.00">GraphicsContext</text>
</g>
<!-- Node6&#45;&gt;Node2 -->
<g id="edge5" class="edge"><title>Node6&#45;&gt;Node2</title>
<path fill="none" stroke="#9a32cd" stroke-dasharray="5,2" d="M270.417,-303.559C325.362,-277.618 442.287,-222.416 489.547,-200.104"/>
<polygon fill="#9a32cd" stroke="#9a32cd" points="268.767,-300.467 261.219,-307.902 271.756,-306.797 268.767,-300.467"/>
<text text-anchor="middle" x="382" y="-279.447" font-family="Helvetica,sans-Serif" font-size="10.00"> turtleGC</text>
</g>
<!-- Node6&#45;&gt;Node18 -->
<g id="edge20" class="edge"><title>Node6&#45;&gt;Node18</title>
<path fill="none" stroke="#9a32cd" stroke-dasharray="5,2" d="M298.503,-325.517C308.34,-326.858 318.461,-328.213 328,-329.447 378.345,-335.962 436.605,-342.899 473.375,-347.203"/>
<polygon fill="#9a32cd" stroke="#9a32cd" points="298.774,-322.022 288.391,-324.131 297.823,-328.957 298.774,-322.022"/>
<text text-anchor="middle" x="382" y="-345.447" font-family="Helvetica,sans-Serif" font-size="10.00"> linesGC</text>
</g>
<!-- Node6&#45;&gt;Node21 -->
<g id="edge32" class="edge"><title>Node6&#45;&gt;Node21</title>
<path fill="none" stroke="#9a32cd" stroke-dasharray="5,2" d="M298.266,-314.893C344.236,-312.842 408.415,-309.979 454.037,-307.944"/>
<polygon fill="#9a32cd" stroke="#9a32cd" points="297.998,-311.401 288.164,-315.343 298.31,-318.394 297.998,-311.401"/>
<text text-anchor="middle" x="382" y="-317.447" font-family="Helvetica,sans-Serif" font-size="10.00"> backgroundContext</text>
</g>
<!-- Node7 -->
<g id="node7" class="node"><title>Node7</title>
<polygon fill="white" stroke="#bfbfbf" points="206,-7.9473 206,-26.9473 274,-26.9473 274,-7.9473 206,-7.9473"/>
<text text-anchor="middle" x="240" y="-14.9473" font-family="Helvetica,sans-Serif" font-size="10.00">ImageView</text>
</g>
<!-- Node7&#45;&gt;Node2 -->
<g id="edge7" class="edge"><title>Node7&#45;&gt;Node2</title>
<path fill="none" stroke="#9a32cd" stroke-dasharray="5,2" d="M284.012,-26.6651C325.951,-37.2453 389.965,-57.7691 436,-92.4473 469.206,-117.461 494.761,-161.229 505.054,-180.667"/>
<polygon fill="#9a32cd" stroke="#9a32cd" points="284.656,-23.2195 274.111,-24.2484 282.996,-30.0199 284.656,-23.2195"/>
<text text-anchor="middle" x="382" y="-95.4473" font-family="Helvetica,sans-Serif" font-size="10.00"> myTurtle</text>
</g>
<!-- Node7&#45;&gt;Node20 -->
<g id="edge28" class="edge"><title>Node7&#45;&gt;Node20</title>
<path fill="none" stroke="#9a32cd" stroke-dasharray="5,2" d="M284.245,-7.41832C324.683,-0.03807 386.15,5.99294 436,-11.4473 463.916,-21.214 489.16,-46.415 501.688,-60.5173"/>
<polygon fill="#9a32cd" stroke="#9a32cd" points="283.339,-4.02857 274.184,-9.36172 284.666,-10.9015 283.339,-4.02857"/>
<text text-anchor="middle" x="382" y="-14.4473" font-family="Helvetica,sans-Serif" font-size="10.00"> myImage</text>
</g>
<!-- Node8 -->
<g id="node8" class="node"><title>Node8</title>
<polygon fill="white" stroke="#bfbfbf" points="1836.5,-215.947 1836.5,-234.947 1929.5,-234.947 1929.5,-215.947 1836.5,-215.947"/>
<text text-anchor="middle" x="1883" y="-222.947" font-family="Helvetica,sans-Serif" font-size="10.00">ResourceBundle</text>
</g>
<!-- Node8&#45;&gt;Node1 -->
<g id="edge8" class="edge"><title>Node8&#45;&gt;Node1</title>
<path fill="none" stroke="#9a32cd" stroke-dasharray="5,2" d="M1940.08,-225.447C1977.86,-225.447 2025.83,-225.447 2054.38,-225.447"/>
<polygon fill="#9a32cd" stroke="#9a32cd" points="1939.72,-221.947 1929.72,-225.447 1939.72,-228.947 1939.72,-221.947"/>
<text text-anchor="middle" x="2008" y="-228.447" font-family="Helvetica,sans-Serif" font-size="10.00"> myLabels</text>
</g>
<!-- Node9 -->
<g id="node9" class="node"><title>Node9</title>
<polygon fill="white" stroke="#bfbfbf" points="1858.5,-177.947 1858.5,-196.947 1907.5,-196.947 1907.5,-177.947 1858.5,-177.947"/>
<text text-anchor="middle" x="1883" y="-184.947" font-family="Helvetica,sans-Serif" font-size="10.00">Button</text>
</g>
<!-- Node9&#45;&gt;Node1 -->
<g id="edge9" class="edge"><title>Node9&#45;&gt;Node1</title>
<path fill="none" stroke="#9a32cd" stroke-dasharray="5,2" d="M1917.98,-190.763C1949.02,-194.221 1996.03,-200.542 2036,-210.447 2041.99,-211.931 2048.32,-213.903 2054.23,-215.928"/>
<polygon fill="#9a32cd" stroke="#9a32cd" points="1918.02,-187.247 1907.7,-189.658 1917.27,-194.207 1918.02,-187.247"/>
<text text-anchor="middle" x="2008" y="-213.447" font-family="Helvetica,sans-Serif" font-size="10.00"> myButtons</text>
</g>
<!-- Node10 -->
<g id="node10" class="node"><title>Node10</title>
<g id="a_node10"><a xlink:href="../../d0/da7/classconfiguration_1_1_basic_parser.html" target="_top" xlink:title="configuration.BasicParser">
<polygon fill="white" stroke="black" points="1814.5,-518.947 1814.5,-537.947 1951.5,-537.947 1951.5,-518.947 1814.5,-518.947"/>
<text text-anchor="middle" x="1883" y="-525.947" font-family="Helvetica,sans-Serif" font-size="10.00">configuration.BasicParser</text>
</a>
</g>
</g>
<!-- Node10&#45;&gt;Node1 -->
<g id="edge10" class="edge"><title>Node10&#45;&gt;Node1</title>
<path fill="none" stroke="#9a32cd" stroke-dasharray="5,2" d="M1933.89,-515.771C1967.88,-504.515 2011.07,-484.581 2036,-451.447 2062.53,-416.179 2075.3,-273.376 2078.3,-234.988"/>
<polygon fill="#9a32cd" stroke="#9a32cd" points="1932.6,-512.507 1924.12,-518.854 1934.71,-519.182 1932.6,-512.507"/>
<text text-anchor="middle" x="2008" y="-498.447" font-family="Helvetica,sans-Serif" font-size="10.00"> myParser</text>
</g>
<!-- Node11 -->
<g id="node11" class="node"><title>Node11</title>
<g id="a_node11"><a xlink:href="../../d9/d11/classconfiguration_1_1_parser.html" target="_top" xlink:title="configuration.Parser">
<polygon fill="white" stroke="black" points="1475,-609.947 1475,-628.947 1587,-628.947 1587,-609.947 1475,-609.947"/>
<text text-anchor="middle" x="1531" y="-616.947" font-family="Helvetica,sans-Serif" font-size="10.00">configuration.Parser</text>
</a>
</g>
</g>
<!-- Node11&#45;&gt;Node10 -->
<g id="edge11" class="edge"><title>Node11&#45;&gt;Node10</title>
<path fill="none" stroke="midnightblue" d="M1597.2,-621.865C1649.72,-621.749 1724.64,-616.859 1786,-594.447 1820.96,-581.679 1855.26,-553.17 1871.79,-538.143"/>
<polygon fill="midnightblue" stroke="midnightblue" points="1597.02,-618.365 1587.01,-621.829 1597,-625.364 1597.02,-618.365"/>
</g>
<!-- Node12 -->
<g id="node12" class="node"><title>Node12</title>
<g id="a_node12"><a xlink:href="../../dc/d20/classapplication_1_1_command_factory.html" target="_top" xlink:title="application.CommandFactory">
<polygon fill="white" stroke="black" points="1188,-508.947 1188,-527.947 1344,-527.947 1344,-508.947 1188,-508.947"/>
<text text-anchor="middle" x="1266" y="-515.947" font-family="Helvetica,sans-Serif" font-size="10.00">application.CommandFactory</text>
</a>
</g>
</g>
<!-- Node12&#45;&gt;Node10 -->
<g id="edge36" class="edge"><title>Node12&#45;&gt;Node10</title>
<path fill="none" stroke="#9a32cd" stroke-dasharray="5,2" d="M1328.51,-507.159C1362.44,-501.502 1405.4,-495.267 1444,-492.447 1521.13,-486.813 1540.84,-487.211 1618,-492.447 1691.15,-497.412 1774.92,-510.029 1828.12,-518.92"/>
<polygon fill="#9a32cd" stroke="#9a32cd" points="1327.56,-503.77 1318.29,-508.892 1328.73,-510.672 1327.56,-503.77"/>
<text text-anchor="middle" x="1531" y="-495.447" font-family="Helvetica,sans-Serif" font-size="10.00"> myFactory</text>
</g>
<!-- Node12&#45;&gt;Node11 -->
<g id="edge12" class="edge"><title>Node12&#45;&gt;Node11</title>
<path fill="none" stroke="#9a32cd" stroke-dasharray="5,2" d="M1295.6,-532.352C1330.19,-548.826 1390.46,-576.432 1444,-595.447 1459.34,-600.894 1476.56,-605.91 1491.54,-609.933"/>
<polygon fill="#9a32cd" stroke="#9a32cd" points="1297.08,-529.181 1286.55,-528.017 1294.06,-535.494 1297.08,-529.181"/>
<text text-anchor="middle" x="1394" y="-591.447" font-family="Helvetica,sans-Serif" font-size="10.00"> myFactory</text>
</g>
<!-- Node13 -->
<g id="node13" class="node"><title>Node13</title>
<g id="a_node13"><a xlink:href="../../df/dcb/classapplication_1_1_pen_handler.html" target="_top" xlink:title="application.PenHandler">
<polygon fill="white" stroke="black" points="664.5,-472.947 664.5,-491.947 791.5,-491.947 791.5,-472.947 664.5,-472.947"/>
<text text-anchor="middle" x="728" y="-479.947" font-family="Helvetica,sans-Serif" font-size="10.00">application.PenHandler</text>
</a>
</g>
</g>
<!-- Node13&#45;&gt;Node12 -->
<g id="edge13" class="edge"><title>Node13&#45;&gt;Node12</title>
<path fill="none" stroke="#9a32cd" stroke-dasharray="5,2" d="M801.723,-487.837C867.178,-492.638 966.006,-499.761 1052,-505.447 1096.92,-508.417 1147.18,-511.496 1187.59,-513.912"/>
<polygon fill="#9a32cd" stroke="#9a32cd" points="801.741,-484.329 791.512,-487.087 801.228,-491.31 801.741,-484.329"/>
<text text-anchor="middle" x="968" y="-507.447" font-family="Helvetica,sans-Serif" font-size="10.00"> myPenHandler</text>
</g>
<!-- Node13&#45;&gt;Node19 -->
<g id="edge24" class="edge"><title>Node13&#45;&gt;Node19</title>
<path fill="none" stroke="#9a32cd" stroke-dasharray="5,2" d="M754.856,-467.781C803.843,-439.995 908.945,-380.378 950.039,-357.068"/>
<polygon fill="#9a32cd" stroke="#9a32cd" points="753.088,-464.76 746.116,-472.738 756.541,-470.849 753.088,-464.76"/>
<text text-anchor="middle" x="847" y="-438.447" font-family="Helvetica,sans-Serif" font-size="10.00"> myPenHandler</text>
</g>
<!-- Node14 -->
<g id="node14" class="node"><title>Node14</title>
<g id="a_node14"><a xlink:href="../../de/d5a/classapplication_1_1_pen.html" target="_top" xlink:title="application.Pen">
<polygon fill="white" stroke="black" points="466.5,-487.947 466.5,-506.947 555.5,-506.947 555.5,-487.947 466.5,-487.947"/>
<text text-anchor="middle" x="511" y="-494.947" font-family="Helvetica,sans-Serif" font-size="10.00">application.Pen</text>
</a>
</g>
</g>
<!-- Node14&#45;&gt;Node13 -->
<g id="edge14" class="edge"><title>Node14&#45;&gt;Node13</title>
<path fill="none" stroke="#9a32cd" stroke-dasharray="5,2" d="M565.766,-493.696C595.71,-491.607 633.144,-488.995 664.402,-486.815"/>
<polygon fill="#9a32cd" stroke="#9a32cd" points="565.241,-490.224 555.508,-494.412 565.728,-497.207 565.241,-490.224"/>
<text text-anchor="middle" x="616" y="-495.447" font-family="Helvetica,sans-Serif" font-size="10.00"> myPen</text>
</g>
<!-- Node15 -->
<g id="node15" class="node"><title>Node15</title>
<polygon fill="white" stroke="#bfbfbf" points="178,-540.947 178,-559.947 302,-559.947 302,-540.947 178,-540.947"/>
<text text-anchor="middle" x="240" y="-547.947" font-family="Helvetica,sans-Serif" font-size="10.00">Map&lt; Integer, Color &gt;</text>
</g>
<!-- Node15&#45;&gt;Node14 -->
<g id="edge15" class="edge"><title>Node15&#45;&gt;Node14</title>
<path fill="none" stroke="#9a32cd" stroke-dasharray="5,2" d="M312.436,-544.025C349.616,-539.813 395.619,-533.232 436,-523.447 453.337,-519.246 472.308,-512.537 486.701,-506.986"/>
<polygon fill="#9a32cd" stroke="#9a32cd" points="311.753,-540.579 302.195,-545.152 312.518,-547.537 311.753,-540.579"/>
<text text-anchor="middle" x="382" y="-545.447" font-family="Helvetica,sans-Serif" font-size="10.00"> myPaletteOptions</text>
</g>
<!-- Node16 -->
<g id="node16" class="node"><title>Node16</title>
<g id="a_node16"><a xlink:href="../../d0/d9b/enumapplication_1_1_pen_1_1_p_e_n_s_t_y_l_e.html" target="_top" xlink:title="application.Pen.PENSTYLE">
<polygon fill="white" stroke="black" points="170,-502.947 170,-521.947 310,-521.947 310,-502.947 170,-502.947"/>
<text text-anchor="middle" x="240" y="-509.947" font-family="Helvetica,sans-Serif" font-size="10.00">application.Pen.PENSTYLE</text>
</a>
</g>
</g>
<!-- Node16&#45;&gt;Node14 -->
<g id="edge16" class="edge"><title>Node16&#45;&gt;Node14</title>
<path fill="none" stroke="#9a32cd" stroke-dasharray="5,2" d="M320.266,-508.027C367.94,-505.369 426.819,-502.086 466.229,-499.888"/>
<polygon fill="#9a32cd" stroke="#9a32cd" points="320.064,-504.533 310.274,-508.584 320.454,-511.522 320.064,-504.533"/>
<text text-anchor="middle" x="382" y="-511.447" font-family="Helvetica,sans-Serif" font-size="10.00"> myStyle</text>
</g>
<!-- Node17 -->
<g id="node17" class="node"><title>Node17</title>
<polygon fill="white" stroke="#bfbfbf" points="219.5,-422.947 219.5,-441.947 260.5,-441.947 260.5,-422.947 219.5,-422.947"/>
<text text-anchor="middle" x="240" y="-429.947" font-family="Helvetica,sans-Serif" font-size="10.00">Color</text>
</g>
<!-- Node17&#45;&gt;Node1 -->
<g id="edge48" class="edge"><title>Node17&#45;&gt;Node1</title>
<path fill="none" stroke="#9a32cd" stroke-dasharray="5,2" d="M270.755,-432.393C408.9,-432.161 988.653,-431.389 1170,-434.447 1212.24,-435.16 1222.76,-437.447 1265,-437.447 1265,-437.447 1265,-437.447 1884,-437.447 1965.11,-437.447 1990.3,-403.454 2036,-336.447 2058.94,-302.814 2072.04,-255.213 2076.86,-235.058"/>
<polygon fill="#9a32cd" stroke="#9a32cd" points="270.514,-428.894 260.52,-432.411 270.526,-435.894 270.514,-428.894"/>
<text text-anchor="middle" x="1111" y="-459.447" font-family="Helvetica,sans-Serif" font-size="10.00"> DEFAULT_PEN_COLOR</text>
<text text-anchor="start" x="1052.5" y="-448.447" font-family="Helvetica,sans-Serif" font-size="10.00">DEFAULT_BACKGROUND</text>
<text text-anchor="middle" x="1111" y="-437.447" font-family="Helvetica,sans-Serif" font-size="10.00">_COLOR</text>
</g>
<!-- Node17&#45;&gt;Node14 -->
<g id="edge17" class="edge"><title>Node17&#45;&gt;Node14</title>
<path fill="none" stroke="#9a32cd" stroke-dasharray="5,2" d="M270.424,-440.939C287.236,-445.697 308.742,-451.625 328,-456.447 375.128,-468.249 429.513,-480.297 466.47,-488.251"/>
<polygon fill="#9a32cd" stroke="#9a32cd" points="271.201,-437.521 260.625,-438.148 269.283,-444.254 271.201,-437.521"/>
<text text-anchor="middle" x="382" y="-485.447" font-family="Helvetica,sans-Serif" font-size="10.00"> myColor</text>
</g>
<!-- Node17&#45;&gt;Node18 -->
<g id="edge22" class="edge"><title>Node17&#45;&gt;Node18</title>
<path fill="none" stroke="#9a32cd" stroke-dasharray="5,2" d="M270.762,-428.506C317.612,-422.068 406.288,-408.865 436,-397.447 459.581,-388.386 483.887,-371.571 497.937,-360.975"/>
<polygon fill="#9a32cd" stroke="#9a32cd" points="270.06,-425.069 260.623,-429.884 271.003,-432.006 270.06,-425.069"/>
<text text-anchor="middle" x="382" y="-423.447" font-family="Helvetica,sans-Serif" font-size="10.00"> DEFAULT_PEN_COLOR</text>
</g>
<!-- Node17&#45;&gt;Node21 -->
<g id="edge33" class="edge"><title>Node17&#45;&gt;Node21</title>
<path fill="none" stroke="#9a32cd" stroke-dasharray="5,2" d="M264.226,-417.458C281.302,-406.986 305.378,-393.341 328,-384.447 374.047,-366.345 395.05,-385.216 436,-357.447 447.332,-349.763 443.511,-341.247 454,-332.447 462.6,-325.233 473.454,-319.424 483.312,-315.07"/>
<polygon fill="#9a32cd" stroke="#9a32cd" points="262.141,-414.633 255.513,-422.898 265.849,-420.57 262.141,-414.633"/>
<text text-anchor="middle" x="382" y="-387.447" font-family="Helvetica,sans-Serif" font-size="10.00"> DEFAULT_COLOR</text>
</g>
<!-- Node18&#45;&gt;Node1 -->
<g id="edge39" class="edge"><title>Node18&#45;&gt;Node1</title>
<path fill="none" stroke="#9a32cd" stroke-dasharray="5,2" d="M558.751,-360.96C567.769,-362.605 577.159,-364.189 586,-365.447 700.93,-381.81 729.911,-390.447 846,-390.447 846,-390.447 846,-390.447 1884,-390.447 1980.68,-390.447 2054.11,-270.796 2073.78,-235.275"/>
<polygon fill="#9a32cd" stroke="#9a32cd" points="559.251,-357.493 548.777,-359.09 557.961,-364.373 559.251,-357.493"/>
<text text-anchor="middle" x="1266" y="-393.447" font-family="Helvetica,sans-Serif" font-size="10.00"> myLineView</text>
</g>
<!-- Node18&#45;&gt;Node13 -->
<g id="edge18" class="edge"><title>Node18&#45;&gt;Node13</title>
<path fill="none" stroke="#9a32cd" stroke-dasharray="5,2" d="M536.074,-366.528C550.521,-375.548 569.278,-387.211 586,-397.447 631.099,-425.056 684.651,-457.151 710.886,-472.83"/>
<polygon fill="#9a32cd" stroke="#9a32cd" points="537.603,-363.356 527.269,-361.023 533.893,-369.292 537.603,-363.356"/>
<text text-anchor="middle" x="616" y="-436.447" font-family="Helvetica,sans-Serif" font-size="10.00"> myLineView</text>
</g>
<!-- Node18&#45;&gt;Node19 -->
<g id="edge29" class="edge"><title>Node18&#45;&gt;Node19</title>
<path fill="none" stroke="#9a32cd" stroke-dasharray="5,2" d="M558.855,-351.035C640.665,-350.316 809.67,-348.83 902.482,-348.014"/>
<polygon fill="#9a32cd" stroke="#9a32cd" points="558.818,-347.535 548.849,-351.123 558.88,-354.535 558.818,-347.535"/>
<text text-anchor="middle" x="728" y="-353.447" font-family="Helvetica,sans-Serif" font-size="10.00"> myLineView</text>
</g>
<!-- Node19&#45;&gt;Node12 -->
<g id="edge23" class="edge"><title>Node19&#45;&gt;Node12</title>
<path fill="none" stroke="#9a32cd" stroke-dasharray="5,2" d="M976.164,-366.506C987.66,-394.312 1012.98,-445.504 1052,-471.447 1096.5,-501.029 1117.86,-482.788 1170,-494.447 1189.59,-498.827 1211.3,-504.269 1229.02,-508.862"/>
<polygon fill="#9a32cd" stroke="#9a32cd" points="979.373,-365.103 972.435,-357.096 972.865,-367.682 979.373,-365.103"/>
<text text-anchor="middle" x="1111" y="-497.447" font-family="Helvetica,sans-Serif" font-size="10.00"> myViewHandler</text>
</g>
<!-- Node20&#45;&gt;Node19 -->
<g id="edge26" class="edge"><title>Node20&#45;&gt;Node19</title>
<path fill="none" stroke="#9a32cd" stroke-dasharray="5,2" d="M547.057,-83.6675C601.216,-104.677 707.773,-148.365 792,-197.447 835.704,-222.915 845.555,-231.575 884,-264.447 912.808,-289.08 943.57,-321.733 958.238,-337.749"/>
<polygon fill="#9a32cd" stroke="#9a32cd" points="548.161,-80.3421 537.571,-80.0122 545.644,-86.8739 548.161,-80.3421"/>
<text text-anchor="middle" x="728" y="-200.447" font-family="Helvetica,sans-Serif" font-size="10.00"> myTurtle</text>
</g>
<!-- Node21&#45;&gt;Node1 -->
<g id="edge40" class="edge"><title>Node21&#45;&gt;Node1</title>
<path fill="none" stroke="#9a32cd" stroke-dasharray="5,2" d="M577.911,-305.447C620.458,-305.447 676.999,-305.447 727,-305.447 727,-305.447 727,-305.447 1884,-305.447 1954.58,-305.447 1973.44,-292.131 2036,-259.447 2048.48,-252.925 2060.91,-242.58 2069.16,-235.013"/>
<polygon fill="#9a32cd" stroke="#9a32cd" points="577.684,-301.947 567.684,-305.447 577.684,-308.947 577.684,-301.947"/>
<text text-anchor="middle" x="1266" y="-308.447" font-family="Helvetica,sans-Serif" font-size="10.00"> myBackgroundView</text>
</g>
<!-- Node21&#45;&gt;Node19 -->
<g id="edge30" class="edge"><title>Node21&#45;&gt;Node19</title>
<path fill="none" stroke="#9a32cd" stroke-dasharray="5,2" d="M565.021,-294.181C572.048,-293.051 579.178,-292.087 586,-291.447 612.55,-288.958 619.433,-289.147 646,-291.447 747.448,-300.23 864.932,-324.348 925.747,-337.893"/>
<polygon fill="#9a32cd" stroke="#9a32cd" points="564.109,-290.786 554.85,-295.935 565.299,-297.685 564.109,-290.786"/>
<text text-anchor="middle" x="728" y="-314.447" font-family="Helvetica,sans-Serif" font-size="10.00"> myBackgroundView</text>
</g>
<!-- Node22 -->
<g id="node22" class="node"><title>Node22</title>
<polygon fill="white" stroke="#bfbfbf" points="1210,-643.447 1210,-673.447 1322,-673.447 1322,-643.447 1210,-643.447"/>
<text text-anchor="start" x="1218" y="-661.447" font-family="Helvetica,sans-Serif" font-size="10.00">List&lt; Entry&lt; String,</text>
<text text-anchor="middle" x="1266" y="-650.447" font-family="Helvetica,sans-Serif" font-size="10.00"> Pattern &gt; &gt;</text>
</g>
<!-- Node22&#45;&gt;Node11 -->
<g id="edge34" class="edge"><title>Node22&#45;&gt;Node11</title>
<path fill="none" stroke="#9a32cd" stroke-dasharray="5,2" d="M1332.18,-649.797C1360.96,-645.881 1395.19,-641.096 1426,-636.447 1441.92,-634.045 1459.18,-631.286 1474.99,-628.698"/>
<polygon fill="#9a32cd" stroke="#9a32cd" points="1331.68,-646.332 1322.24,-651.143 1332.62,-653.269 1331.68,-646.332"/>
<text text-anchor="middle" x="1394" y="-648.447" font-family="Helvetica,sans-Serif" font-size="10.00"> patterns</text>
</g>
<!-- Node23 -->
<g id="node23" class="node"><title>Node23</title>
<polygon fill="white" stroke="#bfbfbf" points="1211.5,-586.947 1211.5,-605.947 1320.5,-605.947 1320.5,-586.947 1211.5,-586.947"/>
<text text-anchor="middle" x="1266" y="-593.947" font-family="Helvetica,sans-Serif" font-size="10.00">HashSet&lt; String &gt;</text>
</g>
<!-- Node23&#45;&gt;Node10 -->
<g id="edge37" class="edge"><title>Node23&#45;&gt;Node10</title>
<path fill="none" stroke="#9a32cd" stroke-dasharray="5,2" d="M1330.56,-591.054C1428.53,-582.495 1622.25,-564.587 1786,-543.447 1798.46,-541.838 1811.8,-539.895 1824.45,-537.949"/>
<polygon fill="#9a32cd" stroke="#9a32cd" points="1330.19,-587.574 1320.53,-591.928 1330.79,-594.548 1330.19,-587.574"/>
<text text-anchor="middle" x="1531" y="-583.447" font-family="Helvetica,sans-Serif" font-size="10.00"> userdefined</text>
</g>
<!-- Node23&#45;&gt;Node11 -->
<g id="edge35" class="edge"><title>Node23&#45;&gt;Node11</title>
<path fill="none" stroke="#9a32cd" stroke-dasharray="5,2" d="M1330.56,-602.006C1374.58,-605.856 1432.62,-610.931 1474.72,-614.613"/>
<polygon fill="#9a32cd" stroke="#9a32cd" points="1330.81,-598.514 1320.54,-601.129 1330.2,-605.487 1330.81,-598.514"/>
<text text-anchor="middle" x="1394" y="-624.447" font-family="Helvetica,sans-Serif" font-size="10.00"> oneParComs</text>
<text text-anchor="middle" x="1394" y="-613.447" font-family="Helvetica,sans-Serif" font-size="10.00">twoParComs</text>
</g>
<!-- Node24 -->
<g id="node24" class="node"><title>Node24</title>
<polygon fill="white" stroke="#bfbfbf" points="1444.5,-513.447 1444.5,-543.447 1617.5,-543.447 1617.5,-513.447 1444.5,-513.447"/>
<text text-anchor="start" x="1452.5" y="-531.447" font-family="Helvetica,sans-Serif" font-size="10.00">HashMap&lt; String, configuration.</text>
<text text-anchor="middle" x="1531" y="-520.447" font-family="Helvetica,sans-Serif" font-size="10.00">Parser &gt;</text>
</g>
<!-- Node24&#45;&gt;Node10 -->
<g id="edge38" class="edge"><title>Node24&#45;&gt;Node10</title>
<path fill="none" stroke="#9a32cd" stroke-dasharray="5,2" d="M1627.71,-528.447C1686.81,-528.447 1761.2,-528.447 1814.22,-528.447"/>
<polygon fill="#9a32cd" stroke="#9a32cd" points="1627.62,-524.947 1617.62,-528.447 1627.62,-531.947 1627.62,-524.947"/>
<text text-anchor="middle" x="1711" y="-531.447" font-family="Helvetica,sans-Serif" font-size="10.00"> myParsers</text>
</g>
<!-- Node25 -->
<g id="node25" class="node"><title>Node25</title>
<polygon fill="white" stroke="#bfbfbf" points="1462,-125.947 1462,-144.947 1600,-144.947 1600,-125.947 1462,-125.947"/>
<text text-anchor="middle" x="1531" y="-132.947" font-family="Helvetica,sans-Serif" font-size="10.00">ObservableList&lt; String &gt;</text>
</g>
<!-- Node25&#45;&gt;Node1 -->
<g id="edge41" class="edge"><title>Node25&#45;&gt;Node1</title>
<path fill="none" stroke="#9a32cd" stroke-dasharray="5,2" d="M1610.3,-135.427C1715.87,-136.09 1898,-139.867 1962,-157.447 2004.36,-169.084 2047.27,-200.004 2067.32,-215.826"/>
<polygon fill="#9a32cd" stroke="#9a32cd" points="1610.04,-131.925 1600.02,-135.37 1610,-138.925 1610.04,-131.925"/>
<text text-anchor="middle" x="1883" y="-160.447" font-family="Helvetica,sans-Serif" font-size="10.00"> myCommandsList</text>
</g>
<!-- Node26 -->
<g id="node26" class="node"><title>Node26</title>
<g id="a_node26"><a xlink:href="../../d0/d3b/classcommands_1_1_user_made_utilities.html" target="_top" xlink:title="commands.UserMadeUtilities">
<polygon fill="white" stroke="black" points="1804,-92.9473 1804,-111.947 1962,-111.947 1962,-92.9473 1804,-92.9473"/>
<text text-anchor="middle" x="1883" y="-99.9473" font-family="Helvetica,sans-Serif" font-size="10.00">commands.UserMadeUtilities</text>
</a>
</g>
</g>
<!-- Node25&#45;&gt;Node26 -->
<g id="edge45" class="edge"><title>Node25&#45;&gt;Node26</title>
<path fill="none" stroke="#9a32cd" stroke-dasharray="5,2" d="M1577.78,-123.489C1595.8,-119.265 1616.75,-114.947 1636,-112.447 1691.85,-105.195 1755.37,-102.759 1803.87,-102.102"/>
<polygon fill="#9a32cd" stroke="#9a32cd" points="1576.73,-120.142 1567.82,-125.882 1578.36,-126.948 1576.73,-120.142"/>
<text text-anchor="middle" x="1711" y="-126.447" font-family="Helvetica,sans-Serif" font-size="10.00"> myUserDefinedCommandsList</text>
<text text-anchor="middle" x="1711" y="-115.447" font-family="Helvetica,sans-Serif" font-size="10.00">myVarsList</text>
</g>
<!-- Node26&#45;&gt;Node1 -->
<g id="edge42" class="edge"><title>Node26&#45;&gt;Node1</title>
<path fill="none" stroke="#9a32cd" stroke-dasharray="5,2" d="M1972.18,-99.4988C1994.81,-102.585 2017.87,-109.531 2036,-123.447 2066.19,-146.613 2075.4,-194.961 2078.03,-215.68"/>
<polygon fill="#9a32cd" stroke="#9a32cd" points="1972.5,-96.0132 1962.17,-98.3724 1971.72,-102.969 1972.5,-96.0132"/>
<text text-anchor="middle" x="2008" y="-126.447" font-family="Helvetica,sans-Serif" font-size="10.00"> myUtils</text>
</g>
<!-- Node27 -->
<g id="node27" class="node"><title>Node27</title>
<polygon fill="white" stroke="#bfbfbf" points="1449,-62.4473 1449,-92.4473 1613,-92.4473 1613,-62.4473 1449,-62.4473"/>
<text text-anchor="start" x="1457" y="-80.4473" font-family="Helvetica,sans-Serif" font-size="10.00">HashMap&lt; String, commands.</text>
<text text-anchor="middle" x="1531" y="-69.4473" font-family="Helvetica,sans-Serif" font-size="10.00">UserDefined &gt;</text>
</g>
<!-- Node27&#45;&gt;Node26 -->
<g id="edge43" class="edge"><title>Node27&#45;&gt;Node26</title>
<path fill="none" stroke="#9a32cd" stroke-dasharray="5,2" d="M1623.21,-71.9508C1671.77,-70.4968 1732.37,-71.0299 1786,-78.4473 1794.22,-79.5849 1795.97,-81.3534 1804,-83.4473 1816.27,-86.6459 1829.68,-89.9713 1841.86,-92.9291"/>
<polygon fill="#9a32cd" stroke="#9a32cd" points="1622.91,-68.4586 1613.04,-72.2895 1623.15,-75.4547 1622.91,-68.4586"/>
<text text-anchor="middle" x="1711" y="-81.4473" font-family="Helvetica,sans-Serif" font-size="10.00"> UDCommands</text>
</g>
<!-- Node28 -->
<g id="node28" class="node"><title>Node28</title>
<polygon fill="white" stroke="#bfbfbf" points="1455,-23.9473 1455,-42.9473 1607,-42.9473 1607,-23.9473 1455,-23.9473"/>
<text text-anchor="middle" x="1531" y="-30.9473" font-family="Helvetica,sans-Serif" font-size="10.00">HashMap&lt; String, Double &gt;</text>
</g>
<!-- Node28&#45;&gt;Node26 -->
<g id="edge44" class="edge"><title>Node28&#45;&gt;Node26</title>
<path fill="none" stroke="#9a32cd" stroke-dasharray="5,2" d="M1616.64,-23.421C1668.91,-21.3209 1735.43,-26.3694 1786,-56.4473 1798.4,-63.8195 1792.19,-75.1751 1804,-83.4473 1809.48,-87.2846 1815.65,-90.3508 1822.05,-92.8003"/>
<polygon fill="#9a32cd" stroke="#9a32cd" points="1616.2,-19.9386 1606.38,-23.9311 1616.54,-26.93 1616.2,-19.9386"/>
<text text-anchor="middle" x="1711" y="-59.4473" font-family="Helvetica,sans-Serif" font-size="10.00"> globalVars</text>
</g>
<!-- Node29 -->
<g id="node29" class="node"><title>Node29</title>
<polygon fill="white" stroke="#bfbfbf" points="1862,-54.9473 1862,-73.9473 1904,-73.9473 1904,-54.9473 1862,-54.9473"/>
<text text-anchor="middle" x="1883" y="-61.9473" font-family="Helvetica,sans-Serif" font-size="10.00">HBox</text>
</g>
<!-- Node29&#45;&gt;Node1 -->
<g id="edge46" class="edge"><title>Node29&#45;&gt;Node1</title>
<path fill="none" stroke="#9a32cd" stroke-dasharray="5,2" d="M1914.38,-60.0558C1948.12,-56.9716 2002.26,-57.6043 2036,-86.4473 2075.75,-120.422 2079.33,-190.335 2079.25,-215.854"/>
<polygon fill="#9a32cd" stroke="#9a32cd" points="1913.76,-56.6023 1904.2,-61.1568 1914.51,-63.5617 1913.76,-56.6023"/>
<text text-anchor="middle" x="2008" y="-89.4473" font-family="Helvetica,sans-Serif" font-size="10.00"> mainHBox</text>
</g>
<!-- Node30 -->
<g id="node30" class="node"><title>Node30</title>
<polygon fill="white" stroke="#bfbfbf" points="1847,-16.9473 1847,-35.9473 1919,-35.9473 1919,-16.9473 1847,-16.9473"/>
<text text-anchor="middle" x="1883" y="-23.9473" font-family="Helvetica,sans-Serif" font-size="10.00">BorderPane</text>
</g>
<!-- Node30&#45;&gt;Node1 -->
<g id="edge47" class="edge"><title>Node30&#45;&gt;Node1</title>
<path fill="none" stroke="#9a32cd" stroke-dasharray="5,2" d="M1929.11,-20.231C1962.68,-18.2551 2007.45,-21.6102 2036,-47.4473 2061.58,-70.592 2074.69,-182.396 2078.09,-215.924"/>
<polygon fill="#9a32cd" stroke="#9a32cd" points="1928.79,-16.7454 1919.08,-20.9963 1929.32,-23.7251 1928.79,-16.7454"/>
<text text-anchor="middle" x="2008" y="-50.4473" font-family="Helvetica,sans-Serif" font-size="10.00"> myBorders</text>
</g>
</g>
</svg>
        <g id="navigator" transform="translate(0 0)" fill="#404254">
                <rect fill="#f2f5e9" fill-opacity="0.5" stroke="#606060" stroke-width=".5" x="0" y="0" width="60" height="60"/>
                <use id="zoomplus" xlink:href="#zoomPlus" x="17" y="9" onmousedown="handleZoom(evt,'in')"/>
                <use id="zoomminus" xlink:href="#zoomMin" x="42" y="9" onmousedown="handleZoom(evt,'out')"/>
                <use id="reset" xlink:href="#resetDef" x="30" y="36" onmousedown="handleReset()"/>
                <g id="arrowUp" xlink:href="#dirArrow" transform="translate(30 24)" onmousedown="handlePan(0,-1)">
                  <use xlink:href="#rim" fill="#404040">
                        <set attributeName="fill" to="#808080" begin="arrowUp.mouseover" end="arrowUp.mouseout"/>
                  </use>
                  <path fill="none" stroke="white" stroke-width="1.5" d="M0,-3.0v7 M-2.5,-0.5L0,-3.0L2.5,-0.5"/>
                </g>
                <g id="arrowRight" xlink:href="#dirArrow" transform="rotate(90) translate(36 -43)" onmousedown="handlePan(1,0)">
                  <use xlink:href="#rim" fill="#404040">
                        <set attributeName="fill" to="#808080" begin="arrowRight.mouseover" end="arrowRight.mouseout"/>
                  </use>
                  <path fill="none" stroke="white" stroke-width="1.5" d="M0,-3.0v7 M-2.5,-0.5L0,-3.0L2.5,-0.5"/>
                </g>
                <g id="arrowDown" xlink:href="#dirArrow" transform="rotate(180) translate(-30 -48)" onmousedown="handlePan(0,1)">
                  <use xlink:href="#rim" fill="#404040">
                        <set attributeName="fill" to="#808080" begin="arrowDown.mouseover" end="arrowDown.mouseout"/>
                  </use>
                  <path fill="none" stroke="white" stroke-width="1.5" d="M0,-3.0v7 M-2.5,-0.5L0,-3.0L2.5,-0.5"/>
                </g>
                <g id="arrowLeft" xlink:href="#dirArrow" transform="rotate(270) translate(-36 17)" onmousedown="handlePan(-1,0)">
                  <use xlink:href="#rim" fill="#404040">
                        <set attributeName="fill" to="#808080" begin="arrowLeft.mouseover" end="arrowLeft.mouseout"/>
                  </use>
                  <path fill="none" stroke="white" stroke-width="1.5" d="M0,-3.0v7 M-2.5,-0.5L0,-3.0L2.5,-0.5"/>
                </g>
        </g>
        <svg viewBox="0 0 15 15" width="100%" height="30px" preserveAspectRatio="xMaxYMin meet">
         <g id="arrow_out" transform="scale(0.3 0.3)">
          <a xlink:href="classgui_1_1_g_u_i__coll__graph_org.svg" target="_base">
           <rect id="button" ry="5" rx="5" y="6" x="6" height="38" width="38"
                fill="#f2f5e9" fill-opacity="0.5" stroke="#606060" stroke-width="1.0"/>
           <path id="arrow"
             d="M 11.500037,31.436501 C 11.940474,20.09759 22.043105,11.32322 32.158766,21.979434 L 37.068811,17.246167 C 37.068811,17.246167 37.088388,32 37.088388,32 L 22.160133,31.978069 C 22.160133,31.978069 26.997745,27.140456 26.997745,27.140456 C 18.528582,18.264221 13.291696,25.230495 11.500037,31.436501 z"
             style="fill:#404040;"/>
          </a>
         </g>
        </svg>
</svg>
