<?xml version="1.0" encoding="UTF-8" standalone="no"?>
<!DOCTYPE svg PUBLIC "-//W3C//DTD SVG 1.1//EN"
 "http://www.w3.org/Graphics/SVG/1.1/DTD/svg11.dtd">
<!-- Generated by graphviz version 2.36.0 (20140111.2315)
 -->
<!-- Title: configuration.RepeatParser.parseCommands Pages: 1 -->
<svg width="1026pt" height="230pt"
 viewBox="0.00 0.00 1026.00 230.00" xmlns="http://www.w3.org/2000/svg" xmlns:xlink="http://www.w3.org/1999/xlink">
<g id="graph0" class="graph" transform="scale(1 1) rotate(0) translate(4 226)">
<title>configuration.RepeatParser.parseCommands</title>
<polygon fill="white" stroke="none" points="-4,4 -4,-226 1022,-226 1022,4 -4,4"/>
<!-- Node1 -->
<g id="node1" class="node"><title>Node1</title>
<polygon fill="#bfbfbf" stroke="black" points="0,-93 0,-123 174,-123 174,-93 0,-93"/>
<text text-anchor="start" x="8" y="-111" font-family="Helvetica,sans-Serif" font-size="10.00">configuration.RepeatParser.parse</text>
<text text-anchor="middle" x="87" y="-100" font-family="Helvetica,sans-Serif" font-size="10.00">Commands</text>
</g>
<!-- Node2 -->
<g id="node2" class="node"><title>Node2</title>
<g id="a_node2"><a xlink:href="../../d9/d11/classconfiguration_1_1_parser.html#a07345acba63db50ec60293f2b38e54a6" target="_top" xlink:title="configuration.Parser.isEnd">
<polygon fill="white" stroke="black" points="444,-174.5 444,-193.5 584,-193.5 584,-174.5 444,-174.5"/>
<text text-anchor="middle" x="514" y="-181.5" font-family="Helvetica,sans-Serif" font-size="10.00">configuration.Parser.isEnd</text>
</a>
</g>
</g>
<!-- Node1&#45;&gt;Node2 -->
<g id="edge1" class="edge"><title>Node1&#45;&gt;Node2</title>
<path fill="none" stroke="midnightblue" d="M127.281,-123.085C150.926,-131.607 181.815,-141.77 210,-148 284.967,-164.571 372.166,-173.917 433.719,-178.908"/>
<polygon fill="midnightblue" stroke="midnightblue" points="433.509,-182.402 443.754,-179.702 434.061,-175.424 433.509,-182.402"/>
</g>
<!-- Node3 -->
<g id="node3" class="node"><title>Node3</title>
<g id="a_node3"><a xlink:href="../../d9/d11/classconfiguration_1_1_parser.html#a2d882145164d4ce98e9ac91b6000c2ab" target="_top" xlink:title="configuration.Parser.isListEnd">
<polygon fill="white" stroke="black" points="436,-136.5 436,-155.5 592,-155.5 592,-136.5 436,-136.5"/>
<text text-anchor="middle" x="514" y="-143.5" font-family="Helvetica,sans-Serif" font-size="10.00">configuration.Parser.isListEnd</text>
</a>
</g>
</g>
<!-- Node1&#45;&gt;Node3 -->
<g id="edge2" class="edge"><title>Node1&#45;&gt;Node3</title>
<path fill="none" stroke="midnightblue" d="M174.181,-122.431C186.188,-124.146 198.386,-125.734 210,-127 282.44,-134.895 365.008,-139.804 425.638,-142.65"/>
<polygon fill="midnightblue" stroke="midnightblue" points="425.784,-146.16 435.934,-143.123 426.105,-139.167 425.784,-146.16"/>
</g>
<!-- Node4 -->
<g id="node4" class="node"><title>Node4</title>
<g id="a_node4"><a xlink:href="../../d9/d11/classconfiguration_1_1_parser.html#a21cf49f5bc55db161bc1ac86153035a1" target="_top" xlink:title="configuration.Parser.isList\lStart">
<polygon fill="white" stroke="black" points="236,-49 236,-79 374,-79 374,-49 236,-49"/>
<text text-anchor="start" x="244" y="-67" font-family="Helvetica,sans-Serif" font-size="10.00">configuration.Parser.isList</text>
<text text-anchor="middle" x="305" y="-56" font-family="Helvetica,sans-Serif" font-size="10.00">Start</text>
</a>
</g>
</g>
<!-- Node1&#45;&gt;Node4 -->
<g id="edge3" class="edge"><title>Node1&#45;&gt;Node4</title>
<path fill="none" stroke="midnightblue" d="M161.731,-92.9808C182.41,-88.7684 204.959,-84.1751 225.883,-79.9127"/>
<polygon fill="midnightblue" stroke="midnightblue" points="226.589,-83.341 235.689,-77.9153 225.191,-76.4818 226.589,-83.341"/>
</g>
<!-- Node5 -->
<g id="node5" class="node"><title>Node5</title>
<g id="a_node5"><a xlink:href="../../d3/d0d/classconfiguration_1_1_repeat_parser.html#a27c7e86622dda996677d34987f702cb6" target="_top" xlink:title="configuration.RepeatParser.parseFor">
<polygon fill="white" stroke="black" points="210.5,-98.5 210.5,-117.5 399.5,-117.5 399.5,-98.5 210.5,-98.5"/>
<text text-anchor="middle" x="305" y="-105.5" font-family="Helvetica,sans-Serif" font-size="10.00">configuration.RepeatParser.parseFor</text>
</a>
</g>
</g>
<!-- Node1&#45;&gt;Node5 -->
<g id="edge4" class="edge"><title>Node1&#45;&gt;Node5</title>
<path fill="none" stroke="midnightblue" d="M174.3,-108C182.831,-108 191.549,-108 200.232,-108"/>
<polygon fill="midnightblue" stroke="midnightblue" points="200.394,-111.5 210.394,-108 200.393,-104.5 200.394,-111.5"/>
</g>
<!-- Node15 -->
<g id="node15" class="node"><title>Node15</title>
<g id="a_node15"><a xlink:href="../../d9/d11/classconfiguration_1_1_parser.html#a0d2aa50e7ee2ec257e7030f716ab880e" target="_top" xlink:title="configuration.Parser.skip">
<polygon fill="white" stroke="black" points="238.5,-10.5 238.5,-29.5 371.5,-29.5 371.5,-10.5 238.5,-10.5"/>
<text text-anchor="middle" x="305" y="-17.5" font-family="Helvetica,sans-Serif" font-size="10.00">configuration.Parser.skip</text>
</a>
</g>
</g>
<!-- Node1&#45;&gt;Node15 -->
<g id="edge16" class="edge"><title>Node1&#45;&gt;Node15</title>
<path fill="none" stroke="midnightblue" d="M110.391,-92.8116C134.137,-77.3679 173.223,-53.8038 210,-40 218.172,-36.9329 226.929,-34.2842 235.691,-32.0109"/>
<polygon fill="midnightblue" stroke="midnightblue" points="236.671,-35.3745 245.555,-29.6015 235.01,-28.5744 236.671,-35.3745"/>
</g>
<!-- Node5&#45;&gt;Node2 -->
<g id="edge5" class="edge"><title>Node5&#45;&gt;Node2</title>
<path fill="none" stroke="midnightblue" d="M324.973,-117.552C349.934,-129.829 395.4,-151.204 436,-165 443.333,-167.492 451.161,-169.806 458.913,-171.9"/>
<polygon fill="midnightblue" stroke="midnightblue" points="458.089,-175.302 468.648,-174.432 459.851,-168.528 458.089,-175.302"/>
</g>
<!-- Node5&#45;&gt;Node3 -->
<g id="edge6" class="edge"><title>Node5&#45;&gt;Node3</title>
<path fill="none" stroke="midnightblue" d="M357.968,-117.54C386.266,-122.735 421.464,-129.196 451.167,-134.649"/>
<polygon fill="midnightblue" stroke="midnightblue" points="450.543,-138.093 461.011,-136.456 451.807,-131.208 450.543,-138.093"/>
</g>
<!-- Node6 -->
<g id="node6" class="node"><title>Node6</title>
<g id="a_node6"><a xlink:href="../../d9/d11/classconfiguration_1_1_parser.html#ae0480f44c9defa614fb470ab154fa60b" target="_top" xlink:title="configuration.Parser.buildTree">
<polygon fill="white" stroke="black" points="436,-98.5 436,-117.5 592,-117.5 592,-98.5 436,-98.5"/>
<text text-anchor="middle" x="514" y="-105.5" font-family="Helvetica,sans-Serif" font-size="10.00">configuration.Parser.buildTree</text>
</a>
</g>
</g>
<!-- Node5&#45;&gt;Node6 -->
<g id="edge7" class="edge"><title>Node5&#45;&gt;Node6</title>
<path fill="none" stroke="midnightblue" d="M399.508,-108C408.209,-108 417.006,-108 425.649,-108"/>
<polygon fill="midnightblue" stroke="midnightblue" points="425.71,-111.5 435.71,-108 425.71,-104.5 425.71,-111.5"/>
</g>
<!-- Node14 -->
<g id="node14" class="node"><title>Node14</title>
<g id="a_node14"><a xlink:href="../../da/dde/classconfiguration_1_1_util.html#af37a7249e56aff3c4b501035bd9e403a" target="_top" xlink:title="configuration.Util.executeAll">
<polygon fill="white" stroke="black" points="439,-60.5 439,-79.5 589,-79.5 589,-60.5 439,-60.5"/>
<text text-anchor="middle" x="514" y="-67.5" font-family="Helvetica,sans-Serif" font-size="10.00">configuration.Util.executeAll</text>
</a>
</g>
</g>
<!-- Node5&#45;&gt;Node14 -->
<g id="edge15" class="edge"><title>Node5&#45;&gt;Node14</title>
<path fill="none" stroke="midnightblue" d="M357.968,-98.46C386.266,-93.2652 421.464,-86.8037 451.167,-81.3511"/>
<polygon fill="midnightblue" stroke="midnightblue" points="451.807,-84.792 461.011,-79.5439 450.543,-77.9071 451.807,-84.792"/>
</g>
<!-- Node7 -->
<g id="node7" class="node"><title>Node7</title>
<g id="a_node7"><a xlink:href="../../d0/d3b/classcommands_1_1_user_made_utilities.html#ad6e90d3cccee9da7cf3df2c13fc70381" target="_top" xlink:title="commands.UserMadeUtilities.containsVars">
<polygon fill="white" stroke="black" points="628,-202.5 628,-221.5 850,-221.5 850,-202.5 628,-202.5"/>
<text text-anchor="middle" x="739" y="-209.5" font-family="Helvetica,sans-Serif" font-size="10.00">commands.UserMadeUtilities.containsVars</text>
</a>
</g>
</g>
<!-- Node6&#45;&gt;Node7 -->
<g id="edge8" class="edge"><title>Node6&#45;&gt;Node7</title>
<path fill="none" stroke="midnightblue" d="M575.308,-117.574C581.284,-120.043 586.984,-123.133 592,-127 618.464,-147.399 600.83,-173.552 628,-193 630.557,-194.83 633.232,-196.505 636,-198.036"/>
<polygon fill="midnightblue" stroke="midnightblue" points="634.596,-201.246 645.122,-202.455 637.648,-194.946 634.596,-201.246"/>
</g>
<!-- Node8 -->
<g id="node8" class="node"><title>Node8</title>
<g id="a_node8"><a xlink:href="../../da/dde/classconfiguration_1_1_util.html#a55c271426926996186d1cde227ae7e23" target="_top" xlink:title="configuration.Util.findCommandKey">
<polygon fill="white" stroke="black" points="646.5,-164.5 646.5,-183.5 831.5,-183.5 831.5,-164.5 646.5,-164.5"/>
<text text-anchor="middle" x="739" y="-171.5" font-family="Helvetica,sans-Serif" font-size="10.00">configuration.Util.findCommandKey</text>
</a>
</g>
</g>
<!-- Node6&#45;&gt;Node8 -->
<g id="edge9" class="edge"><title>Node6&#45;&gt;Node8</title>
<path fill="none" stroke="midnightblue" d="M566.124,-117.545C574.969,-120.054 583.913,-123.166 592,-127 610.072,-135.568 609.671,-145.997 628,-154 635.067,-157.086 642.589,-159.695 650.256,-161.902"/>
<polygon fill="midnightblue" stroke="midnightblue" points="649.458,-165.311 660.02,-164.488 651.25,-158.544 649.458,-165.311"/>
</g>
<!-- Node10 -->
<g id="node10" class="node"><title>Node10</title>
<g id="a_node10"><a xlink:href="../../d0/d3b/classcommands_1_1_user_made_utilities.html#afc570f31a89922ff7a42f13839888c8f" target="_top" xlink:title="commands.UserMadeUtilities.get\lFromVars">
<polygon fill="white" stroke="black" points="651,-115 651,-145 827,-145 827,-115 651,-115"/>
<text text-anchor="start" x="659" y="-133" font-family="Helvetica,sans-Serif" font-size="10.00">commands.UserMadeUtilities.get</text>
<text text-anchor="middle" x="739" y="-122" font-family="Helvetica,sans-Serif" font-size="10.00">FromVars</text>
</a>
</g>
</g>
<!-- Node6&#45;&gt;Node10 -->
<g id="edge11" class="edge"><title>Node6&#45;&gt;Node10</title>
<path fill="none" stroke="midnightblue" d="M592.056,-115.602C607.694,-117.145 624.335,-118.786 640.571,-120.388"/>
<polygon fill="midnightblue" stroke="midnightblue" points="640.32,-123.88 650.616,-121.379 641.008,-116.914 640.32,-123.88"/>
</g>
<!-- Node11 -->
<g id="node11" class="node"><title>Node11</title>
<g id="a_node11"><a xlink:href="../../d9/d11/classconfiguration_1_1_parser.html#a6a8ca49b46db578a3d9e84b0c4ce2f75" target="_top" xlink:title="configuration.Parser.isCommand">
<polygon fill="white" stroke="black" points="653,-76.5 653,-95.5 825,-95.5 825,-76.5 653,-76.5"/>
<text text-anchor="middle" x="739" y="-83.5" font-family="Helvetica,sans-Serif" font-size="10.00">configuration.Parser.isCommand</text>
</a>
</g>
</g>
<!-- Node6&#45;&gt;Node11 -->
<g id="edge12" class="edge"><title>Node6&#45;&gt;Node11</title>
<path fill="none" stroke="midnightblue" d="M592.056,-100.398C608.32,-98.7935 625.668,-97.0821 642.518,-95.4198"/>
<polygon fill="midnightblue" stroke="midnightblue" points="643.322,-98.8575 652.93,-94.3925 642.635,-91.8913 643.322,-98.8575"/>
</g>
<!-- Node12 -->
<g id="node12" class="node"><title>Node12</title>
<g id="a_node12"><a xlink:href="../../d9/d11/classconfiguration_1_1_parser.html#af0032734232f2e6043d7c8c94d86dd1f" target="_top" xlink:title="configuration.Parser.isConstant">
<polygon fill="white" stroke="black" points="656.5,-38.5 656.5,-57.5 821.5,-57.5 821.5,-38.5 656.5,-38.5"/>
<text text-anchor="middle" x="739" y="-45.5" font-family="Helvetica,sans-Serif" font-size="10.00">configuration.Parser.isConstant</text>
</a>
</g>
</g>
<!-- Node6&#45;&gt;Node12 -->
<g id="edge13" class="edge"><title>Node6&#45;&gt;Node12</title>
<path fill="none" stroke="midnightblue" d="M563.382,-98.4708C573.037,-95.9016 582.978,-92.764 592,-89 609.306,-81.7803 610.45,-73.6019 628,-67 635.27,-64.2653 642.959,-61.9212 650.759,-59.9124"/>
<polygon fill="midnightblue" stroke="midnightblue" points="651.762,-63.2715 660.675,-57.5431 650.135,-56.4632 651.762,-63.2715"/>
</g>
<!-- Node13 -->
<g id="node13" class="node"><title>Node13</title>
<g id="a_node13"><a xlink:href="../../d9/d11/classconfiguration_1_1_parser.html#a061c6e2e973a9e7f531931f61f45448b" target="_top" xlink:title="configuration.Parser.isVariable">
<polygon fill="white" stroke="black" points="659,-0.5 659,-19.5 819,-19.5 819,-0.5 659,-0.5"/>
<text text-anchor="middle" x="739" y="-7.5" font-family="Helvetica,sans-Serif" font-size="10.00">configuration.Parser.isVariable</text>
</a>
</g>
</g>
<!-- Node6&#45;&gt;Node13 -->
<g id="edge14" class="edge"><title>Node6&#45;&gt;Node13</title>
<path fill="none" stroke="midnightblue" d="M574.758,-98.3738C580.905,-95.9181 586.794,-92.8447 592,-89 617.015,-70.5244 602.346,-46.5777 628,-29 634.464,-24.5713 641.629,-21.0675 649.114,-18.307"/>
<polygon fill="midnightblue" stroke="midnightblue" points="650.299,-21.6023 658.736,-15.1942 648.144,-14.9421 650.299,-21.6023"/>
</g>
<!-- Node9 -->
<g id="node9" class="node"><title>Node9</title>
<g id="a_node9"><a xlink:href="../../da/dde/classconfiguration_1_1_util.html#a163b0098613bf2f7becf27b131af3934" target="_top" xlink:title="configuration.Util.match">
<polygon fill="white" stroke="black" points="886.5,-164.5 886.5,-183.5 1017.5,-183.5 1017.5,-164.5 886.5,-164.5"/>
<text text-anchor="middle" x="952" y="-171.5" font-family="Helvetica,sans-Serif" font-size="10.00">configuration.Util.match</text>
</a>
</g>
</g>
<!-- Node8&#45;&gt;Node9 -->
<g id="edge10" class="edge"><title>Node8&#45;&gt;Node9</title>
<path fill="none" stroke="midnightblue" d="M831.627,-174C846.483,-174 861.713,-174 876.11,-174"/>
<polygon fill="midnightblue" stroke="midnightblue" points="876.429,-177.5 886.429,-174 876.429,-170.5 876.429,-177.5"/>
</g>
</g>
</svg>
