<?xml version="1.0" encoding="UTF-8" standalone="no"?>
<!DOCTYPE svg PUBLIC "-//W3C//DTD SVG 1.1//EN"
 "http://www.w3.org/Graphics/SVG/1.1/DTD/svg11.dtd">
<!-- Generated by graphviz version 2.36.0 (20140111.2315)
 -->
<!-- Title: configuration.RepeatParser.parseFor Pages: 1 -->
<svg width="816pt" height="230pt"
 viewBox="0.00 0.00 816.00 230.00" xmlns="http://www.w3.org/2000/svg" xmlns:xlink="http://www.w3.org/1999/xlink">
<g id="graph0" class="graph" transform="scale(1 1) rotate(0) translate(4 226)">
<title>configuration.RepeatParser.parseFor</title>
<polygon fill="white" stroke="none" points="-4,4 -4,-226 812,-226 812,4 -4,4"/>
<!-- Node1 -->
<g id="node1" class="node"><title>Node1</title>
<polygon fill="#bfbfbf" stroke="black" points="0.5,-79.5 0.5,-98.5 189.5,-98.5 189.5,-79.5 0.5,-79.5"/>
<text text-anchor="middle" x="95" y="-86.5" font-family="Helvetica,sans-Serif" font-size="10.00">configuration.RepeatParser.parseFor</text>
</g>
<!-- Node2 -->
<g id="node2" class="node"><title>Node2</title>
<g id="a_node2"><a xlink:href="../../d9/d11/classconfiguration_1_1_parser.html#ae0480f44c9defa614fb470ab154fa60b" target="_top" xlink:title="configuration.Parser.buildTree">
<polygon fill="white" stroke="black" points="226,-98.5 226,-117.5 382,-117.5 382,-98.5 226,-98.5"/>
<text text-anchor="middle" x="304" y="-105.5" font-family="Helvetica,sans-Serif" font-size="10.00">configuration.Parser.buildTree</text>
</a>
</g>
</g>
<!-- Node1&#45;&gt;Node2 -->
<g id="edge1" class="edge"><title>Node1&#45;&gt;Node2</title>
<path fill="none" stroke="midnightblue" d="M189.508,-97.5828C198.209,-98.3815 207.006,-99.189 215.649,-99.9823"/>
<polygon fill="midnightblue" stroke="midnightblue" points="215.432,-103.477 225.71,-100.906 216.072,-96.5063 215.432,-103.477"/>
</g>
<!-- Node10 -->
<g id="node10" class="node"><title>Node10</title>
<g id="a_node10"><a xlink:href="../../d8/d4f/interface_tree_1_1_node.html#a83d55b41499cfcfd3607420eed42507c" target="_top" xlink:title="Tree.Node.getValue">
<polygon fill="white" stroke="black" points="249,-60.5 249,-79.5 359,-79.5 359,-60.5 249,-60.5"/>
<text text-anchor="middle" x="304" y="-67.5" font-family="Helvetica,sans-Serif" font-size="10.00">Tree.Node.getValue</text>
</a>
</g>
</g>
<!-- Node1&#45;&gt;Node10 -->
<g id="edge9" class="edge"><title>Node1&#45;&gt;Node10</title>
<path fill="none" stroke="midnightblue" d="M189.508,-80.4172C206.207,-78.8844 223.256,-77.3195 238.895,-75.8841"/>
<polygon fill="midnightblue" stroke="midnightblue" points="239.312,-79.3606 248.95,-74.9611 238.672,-72.3899 239.312,-79.3606"/>
</g>
<!-- Node3 -->
<g id="node3" class="node"><title>Node3</title>
<g id="a_node3"><a xlink:href="../../d0/d3b/classcommands_1_1_user_made_utilities.html#ad6e90d3cccee9da7cf3df2c13fc70381" target="_top" xlink:title="commands.UserMadeUtilities.containsVars">
<polygon fill="white" stroke="black" points="418,-202.5 418,-221.5 640,-221.5 640,-202.5 418,-202.5"/>
<text text-anchor="middle" x="529" y="-209.5" font-family="Helvetica,sans-Serif" font-size="10.00">commands.UserMadeUtilities.containsVars</text>
</a>
</g>
</g>
<!-- Node2&#45;&gt;Node3 -->
<g id="edge2" class="edge"><title>Node2&#45;&gt;Node3</title>
<path fill="none" stroke="midnightblue" d="M314.544,-117.775C332.805,-135.837 374.735,-174.3 418,-193 423.896,-195.548 430.108,-197.755 436.457,-199.666"/>
<polygon fill="midnightblue" stroke="midnightblue" points="435.949,-203.157 446.519,-202.433 437.805,-196.407 435.949,-203.157"/>
</g>
<!-- Node4 -->
<g id="node4" class="node"><title>Node4</title>
<g id="a_node4"><a xlink:href="../../da/dde/classconfiguration_1_1_util.html#a55c271426926996186d1cde227ae7e23" target="_top" xlink:title="configuration.Util.findCommandKey">
<polygon fill="white" stroke="black" points="436.5,-164.5 436.5,-183.5 621.5,-183.5 621.5,-164.5 436.5,-164.5"/>
<text text-anchor="middle" x="529" y="-171.5" font-family="Helvetica,sans-Serif" font-size="10.00">configuration.Util.findCommandKey</text>
</a>
</g>
</g>
<!-- Node2&#45;&gt;Node4 -->
<g id="edge3" class="edge"><title>Node2&#45;&gt;Node4</title>
<path fill="none" stroke="midnightblue" d="M324.964,-117.603C347.201,-127.947 384.443,-144.233 418,-154 429.211,-157.263 441.228,-160.097 453.052,-162.523"/>
<polygon fill="midnightblue" stroke="midnightblue" points="452.429,-165.968 462.917,-164.466 453.781,-159.099 452.429,-165.968"/>
</g>
<!-- Node6 -->
<g id="node6" class="node"><title>Node6</title>
<g id="a_node6"><a xlink:href="../../d0/d3b/classcommands_1_1_user_made_utilities.html#afc570f31a89922ff7a42f13839888c8f" target="_top" xlink:title="commands.UserMadeUtilities.get\lFromVars">
<polygon fill="white" stroke="black" points="441,-115 441,-145 617,-145 617,-115 441,-115"/>
<text text-anchor="start" x="449" y="-133" font-family="Helvetica,sans-Serif" font-size="10.00">commands.UserMadeUtilities.get</text>
<text text-anchor="middle" x="529" y="-122" font-family="Helvetica,sans-Serif" font-size="10.00">FromVars</text>
</a>
</g>
</g>
<!-- Node2&#45;&gt;Node6 -->
<g id="edge5" class="edge"><title>Node2&#45;&gt;Node6</title>
<path fill="none" stroke="midnightblue" d="M382.056,-115.602C397.694,-117.145 414.335,-118.786 430.571,-120.388"/>
<polygon fill="midnightblue" stroke="midnightblue" points="430.32,-123.88 440.616,-121.379 431.008,-116.914 430.32,-123.88"/>
</g>
<!-- Node7 -->
<g id="node7" class="node"><title>Node7</title>
<g id="a_node7"><a xlink:href="../../d9/d11/classconfiguration_1_1_parser.html#a6a8ca49b46db578a3d9e84b0c4ce2f75" target="_top" xlink:title="configuration.Parser.isCommand">
<polygon fill="white" stroke="black" points="443,-76.5 443,-95.5 615,-95.5 615,-76.5 443,-76.5"/>
<text text-anchor="middle" x="529" y="-83.5" font-family="Helvetica,sans-Serif" font-size="10.00">configuration.Parser.isCommand</text>
</a>
</g>
</g>
<!-- Node2&#45;&gt;Node7 -->
<g id="edge6" class="edge"><title>Node2&#45;&gt;Node7</title>
<path fill="none" stroke="midnightblue" d="M382.056,-100.398C398.32,-98.7935 415.668,-97.0821 432.518,-95.4198"/>
<polygon fill="midnightblue" stroke="midnightblue" points="433.322,-98.8575 442.93,-94.3925 432.635,-91.8913 433.322,-98.8575"/>
</g>
<!-- Node8 -->
<g id="node8" class="node"><title>Node8</title>
<g id="a_node8"><a xlink:href="../../d9/d11/classconfiguration_1_1_parser.html#af0032734232f2e6043d7c8c94d86dd1f" target="_top" xlink:title="configuration.Parser.isConstant">
<polygon fill="white" stroke="black" points="446.5,-38.5 446.5,-57.5 611.5,-57.5 611.5,-38.5 446.5,-38.5"/>
<text text-anchor="middle" x="529" y="-45.5" font-family="Helvetica,sans-Serif" font-size="10.00">configuration.Parser.isConstant</text>
</a>
</g>
</g>
<!-- Node2&#45;&gt;Node8 -->
<g id="edge7" class="edge"><title>Node2&#45;&gt;Node8</title>
<path fill="none" stroke="midnightblue" d="M353.382,-98.4708C363.037,-95.9016 372.978,-92.764 382,-89 399.306,-81.7803 400.45,-73.6019 418,-67 425.27,-64.2653 432.959,-61.9212 440.759,-59.9124"/>
<polygon fill="midnightblue" stroke="midnightblue" points="441.762,-63.2715 450.675,-57.5431 440.135,-56.4632 441.762,-63.2715"/>
</g>
<!-- Node9 -->
<g id="node9" class="node"><title>Node9</title>
<g id="a_node9"><a xlink:href="../../d9/d11/classconfiguration_1_1_parser.html#a061c6e2e973a9e7f531931f61f45448b" target="_top" xlink:title="configuration.Parser.isVariable">
<polygon fill="white" stroke="black" points="449,-0.5 449,-19.5 609,-19.5 609,-0.5 449,-0.5"/>
<text text-anchor="middle" x="529" y="-7.5" font-family="Helvetica,sans-Serif" font-size="10.00">configuration.Parser.isVariable</text>
</a>
</g>
</g>
<!-- Node2&#45;&gt;Node9 -->
<g id="edge8" class="edge"><title>Node2&#45;&gt;Node9</title>
<path fill="none" stroke="midnightblue" d="M364.758,-98.3738C370.905,-95.9181 376.794,-92.8447 382,-89 407.015,-70.5244 392.346,-46.5777 418,-29 424.464,-24.5713 431.629,-21.0675 439.114,-18.307"/>
<polygon fill="midnightblue" stroke="midnightblue" points="440.299,-21.6023 448.736,-15.1942 438.144,-14.9421 440.299,-21.6023"/>
</g>
<!-- Node5 -->
<g id="node5" class="node"><title>Node5</title>
<g id="a_node5"><a xlink:href="../../da/dde/classconfiguration_1_1_util.html#a163b0098613bf2f7becf27b131af3934" target="_top" xlink:title="configuration.Util.match">
<polygon fill="white" stroke="black" points="676.5,-164.5 676.5,-183.5 807.5,-183.5 807.5,-164.5 676.5,-164.5"/>
<text text-anchor="middle" x="742" y="-171.5" font-family="Helvetica,sans-Serif" font-size="10.00">configuration.Util.match</text>
</a>
</g>
</g>
<!-- Node4&#45;&gt;Node5 -->
<g id="edge4" class="edge"><title>Node4&#45;&gt;Node5</title>
<path fill="none" stroke="midnightblue" d="M621.627,-174C636.483,-174 651.713,-174 666.11,-174"/>
<polygon fill="midnightblue" stroke="midnightblue" points="666.429,-177.5 676.429,-174 666.429,-170.5 666.429,-177.5"/>
</g>
</g>
</svg>
