<?xml version="1.0" encoding="UTF-8" standalone="no"?>
<!DOCTYPE svg PUBLIC "-//W3C//DTD SVG 1.1//EN"
 "http://www.w3.org/Graphics/SVG/1.1/DTD/svg11.dtd">
<!-- Generated by graphviz version 2.36.0 (20140111.2315)
 -->
<!-- Title: configuration.RepeatParser.parseCommands Pages: 1 -->
<svg width="1026pt" height="233pt"
 viewBox="0.00 0.00 1026.00 233.00" xmlns="http://www.w3.org/2000/svg" xmlns:xlink="http://www.w3.org/1999/xlink">
<g id="graph0" class="graph" transform="scale(1 1) rotate(0) translate(4 229)">
<title>configuration.RepeatParser.parseCommands</title>
<polygon fill="white" stroke="none" points="-4,4 -4,-229 1022,-229 1022,4 -4,4"/>
<!-- Node1 -->
<g id="node1" class="node"><title>Node1</title>
<polygon fill="#bfbfbf" stroke="black" points="0,-118 0,-148 174,-148 174,-118 0,-118"/>
<text text-anchor="start" x="8" y="-136" font-family="Helvetica,sans-Serif" font-size="10.00">configuration.RepeatParser.parse</text>
<text text-anchor="middle" x="87" y="-125" font-family="Helvetica,sans-Serif" font-size="10.00">Commands</text>
</g>
<!-- Node2 -->
<g id="node2" class="node"><title>Node2</title>
<g id="a_node2"><a xlink:href="../../d9/d11/classconfiguration_1_1_parser.html#a07345acba63db50ec60293f2b38e54a6" target="_top" xlink:title="configuration.Parser.isEnd">
<polygon fill="white" stroke="black" points="235,-205.5 235,-224.5 375,-224.5 375,-205.5 235,-205.5"/>
<text text-anchor="middle" x="305" y="-212.5" font-family="Helvetica,sans-Serif" font-size="10.00">configuration.Parser.isEnd</text>
</a>
</g>
</g>
<!-- Node1&#45;&gt;Node2 -->
<g id="edge1" class="edge"><title>Node1&#45;&gt;Node2</title>
<path fill="none" stroke="midnightblue" d="M112.326,-148.137C136.323,-162.438 174.468,-183.509 210,-196 217.79,-198.739 226.089,-201.129 234.408,-203.204"/>
<polygon fill="midnightblue" stroke="midnightblue" points="233.618,-206.613 244.154,-205.496 235.221,-199.799 233.618,-206.613"/>
</g>
<!-- Node3 -->
<g id="node3" class="node"><title>Node3</title>
<g id="a_node3"><a xlink:href="../../d9/d11/classconfiguration_1_1_parser.html#a2d882145164d4ce98e9ac91b6000c2ab" target="_top" xlink:title="configuration.Parser.isListEnd">
<polygon fill="white" stroke="black" points="227,-167.5 227,-186.5 383,-186.5 383,-167.5 227,-167.5"/>
<text text-anchor="middle" x="305" y="-174.5" font-family="Helvetica,sans-Serif" font-size="10.00">configuration.Parser.isListEnd</text>
</a>
</g>
</g>
<!-- Node1&#45;&gt;Node3 -->
<g id="edge2" class="edge"><title>Node1&#45;&gt;Node3</title>
<path fill="none" stroke="midnightblue" d="M161.731,-148.019C189.675,-153.712 221.034,-160.099 247.184,-165.426"/>
<polygon fill="midnightblue" stroke="midnightblue" points="246.805,-168.921 257.303,-167.488 248.203,-162.062 246.805,-168.921"/>
</g>
<!-- Node4 -->
<g id="node4" class="node"><title>Node4</title>
<g id="a_node4"><a xlink:href="../../d9/d11/classconfiguration_1_1_parser.html#a21cf49f5bc55db161bc1ac86153035a1" target="_top" xlink:title="configuration.Parser.isList\lStart">
<polygon fill="white" stroke="black" points="236,-118 236,-148 374,-148 374,-118 236,-118"/>
<text text-anchor="start" x="244" y="-136" font-family="Helvetica,sans-Serif" font-size="10.00">configuration.Parser.isList</text>
<text text-anchor="middle" x="305" y="-125" font-family="Helvetica,sans-Serif" font-size="10.00">Start</text>
</a>
</g>
</g>
<!-- Node1&#45;&gt;Node4 -->
<g id="edge3" class="edge"><title>Node1&#45;&gt;Node4</title>
<path fill="none" stroke="midnightblue" d="M174.3,-133C191.232,-133 208.907,-133 225.565,-133"/>
<polygon fill="midnightblue" stroke="midnightblue" points="225.79,-136.5 235.789,-133 225.789,-129.5 225.79,-136.5"/>
</g>
<!-- Node5 -->
<g id="node5" class="node"><title>Node5</title>
<g id="a_node5"><a xlink:href="../../d3/d0d/classconfiguration_1_1_repeat_parser.html#a27c7e86622dda996677d34987f702cb6" target="_top" xlink:title="configuration.RepeatParser.parseFor">
<polygon fill="white" stroke="black" points="210.5,-79.5 210.5,-98.5 399.5,-98.5 399.5,-79.5 210.5,-79.5"/>
<text text-anchor="middle" x="305" y="-86.5" font-family="Helvetica,sans-Serif" font-size="10.00">configuration.RepeatParser.parseFor</text>
</a>
</g>
</g>
<!-- Node1&#45;&gt;Node5 -->
<g id="edge4" class="edge"><title>Node1&#45;&gt;Node5</title>
<path fill="none" stroke="midnightblue" d="M161.731,-117.981C189.675,-112.288 221.034,-105.901 247.184,-100.574"/>
<polygon fill="midnightblue" stroke="midnightblue" points="248.203,-103.938 257.303,-98.5124 246.805,-97.079 248.203,-103.938"/>
</g>
<!-- Node15 -->
<g id="node15" class="node"><title>Node15</title>
<g id="a_node15"><a xlink:href="../../d9/d11/classconfiguration_1_1_parser.html#a0d2aa50e7ee2ec257e7030f716ab880e" target="_top" xlink:title="configuration.Parser.skip">
<polygon fill="white" stroke="black" points="238.5,-41.5 238.5,-60.5 371.5,-60.5 371.5,-41.5 238.5,-41.5"/>
<text text-anchor="middle" x="305" y="-48.5" font-family="Helvetica,sans-Serif" font-size="10.00">configuration.Parser.skip</text>
</a>
</g>
</g>
<!-- Node1&#45;&gt;Node15 -->
<g id="edge14" class="edge"><title>Node1&#45;&gt;Node15</title>
<path fill="none" stroke="midnightblue" d="M112.326,-117.863C136.323,-103.562 174.468,-82.4914 210,-70 217.79,-67.2615 226.089,-64.8709 234.408,-62.7963"/>
<polygon fill="midnightblue" stroke="midnightblue" points="235.221,-66.2008 244.154,-60.5041 233.618,-59.3867 235.221,-66.2008"/>
</g>
<!-- Node6 -->
<g id="node6" class="node"><title>Node6</title>
<g id="a_node6"><a xlink:href="../../d9/d11/classconfiguration_1_1_parser.html#ae0480f44c9defa614fb470ab154fa60b" target="_top" xlink:title="configuration.Parser.buildTree">
<polygon fill="white" stroke="black" points="436,-98.5 436,-117.5 592,-117.5 592,-98.5 436,-98.5"/>
<text text-anchor="middle" x="514" y="-105.5" font-family="Helvetica,sans-Serif" font-size="10.00">configuration.Parser.buildTree</text>
</a>
</g>
</g>
<!-- Node5&#45;&gt;Node6 -->
<g id="edge5" class="edge"><title>Node5&#45;&gt;Node6</title>
<path fill="none" stroke="midnightblue" d="M399.508,-97.5828C408.209,-98.3815 417.006,-99.189 425.649,-99.9823"/>
<polygon fill="midnightblue" stroke="midnightblue" points="425.432,-103.477 435.71,-100.906 426.072,-96.5063 425.432,-103.477"/>
</g>
<!-- Node14 -->
<g id="node14" class="node"><title>Node14</title>
<g id="a_node14"><a xlink:href="../../d8/d4f/interface_tree_1_1_node.html#a83d55b41499cfcfd3607420eed42507c" target="_top" xlink:title="Tree.Node.getValue">
<polygon fill="white" stroke="black" points="459,-60.5 459,-79.5 569,-79.5 569,-60.5 459,-60.5"/>
<text text-anchor="middle" x="514" y="-67.5" font-family="Helvetica,sans-Serif" font-size="10.00">Tree.Node.getValue</text>
</a>
</g>
</g>
<!-- Node5&#45;&gt;Node14 -->
<g id="edge13" class="edge"><title>Node5&#45;&gt;Node14</title>
<path fill="none" stroke="midnightblue" d="M399.508,-80.4172C416.207,-78.8844 433.256,-77.3195 448.895,-75.8841"/>
<polygon fill="midnightblue" stroke="midnightblue" points="449.312,-79.3606 458.95,-74.9611 448.672,-72.3899 449.312,-79.3606"/>
</g>
<!-- Node7 -->
<g id="node7" class="node"><title>Node7</title>
<g id="a_node7"><a xlink:href="../../d0/d3b/classcommands_1_1_user_made_utilities.html#ad6e90d3cccee9da7cf3df2c13fc70381" target="_top" xlink:title="commands.UserMadeUtilities.containsVars">
<polygon fill="white" stroke="black" points="628,-202.5 628,-221.5 850,-221.5 850,-202.5 628,-202.5"/>
<text text-anchor="middle" x="739" y="-209.5" font-family="Helvetica,sans-Serif" font-size="10.00">commands.UserMadeUtilities.containsVars</text>
</a>
</g>
</g>
<!-- Node6&#45;&gt;Node7 -->
<g id="edge6" class="edge"><title>Node6&#45;&gt;Node7</title>
<path fill="none" stroke="midnightblue" d="M524.544,-117.775C542.805,-135.837 584.735,-174.3 628,-193 633.896,-195.548 640.108,-197.755 646.457,-199.666"/>
<polygon fill="midnightblue" stroke="midnightblue" points="645.949,-203.157 656.519,-202.433 647.805,-196.407 645.949,-203.157"/>
</g>
<!-- Node8 -->
<g id="node8" class="node"><title>Node8</title>
<g id="a_node8"><a xlink:href="../../da/dde/classconfiguration_1_1_util.html#a55c271426926996186d1cde227ae7e23" target="_top" xlink:title="configuration.Util.findCommandKey">
<polygon fill="white" stroke="black" points="646.5,-164.5 646.5,-183.5 831.5,-183.5 831.5,-164.5 646.5,-164.5"/>
<text text-anchor="middle" x="739" y="-171.5" font-family="Helvetica,sans-Serif" font-size="10.00">configuration.Util.findCommandKey</text>
</a>
</g>
</g>
<!-- Node6&#45;&gt;Node8 -->
<g id="edge7" class="edge"><title>Node6&#45;&gt;Node8</title>
<path fill="none" stroke="midnightblue" d="M534.964,-117.603C557.201,-127.947 594.443,-144.233 628,-154 639.211,-157.263 651.228,-160.097 663.052,-162.523"/>
<polygon fill="midnightblue" stroke="midnightblue" points="662.429,-165.968 672.917,-164.466 663.781,-159.099 662.429,-165.968"/>
</g>
<!-- Node10 -->
<g id="node10" class="node"><title>Node10</title>
<g id="a_node10"><a xlink:href="../../d0/d3b/classcommands_1_1_user_made_utilities.html#afc570f31a89922ff7a42f13839888c8f" target="_top" xlink:title="commands.UserMadeUtilities.get\lFromVars">
<polygon fill="white" stroke="black" points="651,-115 651,-145 827,-145 827,-115 651,-115"/>
<text text-anchor="start" x="659" y="-133" font-family="Helvetica,sans-Serif" font-size="10.00">commands.UserMadeUtilities.get</text>
<text text-anchor="middle" x="739" y="-122" font-family="Helvetica,sans-Serif" font-size="10.00">FromVars</text>
</a>
</g>
</g>
<!-- Node6&#45;&gt;Node10 -->
<g id="edge9" class="edge"><title>Node6&#45;&gt;Node10</title>
<path fill="none" stroke="midnightblue" d="M592.056,-115.602C607.694,-117.145 624.335,-118.786 640.571,-120.388"/>
<polygon fill="midnightblue" stroke="midnightblue" points="640.32,-123.88 650.616,-121.379 641.008,-116.914 640.32,-123.88"/>
</g>
<!-- Node11 -->
<g id="node11" class="node"><title>Node11</title>
<g id="a_node11"><a xlink:href="../../d9/d11/classconfiguration_1_1_parser.html#a6a8ca49b46db578a3d9e84b0c4ce2f75" target="_top" xlink:title="configuration.Parser.isCommand">
<polygon fill="white" stroke="black" points="653,-76.5 653,-95.5 825,-95.5 825,-76.5 653,-76.5"/>
<text text-anchor="middle" x="739" y="-83.5" font-family="Helvetica,sans-Serif" font-size="10.00">configuration.Parser.isCommand</text>
</a>
</g>
</g>
<!-- Node6&#45;&gt;Node11 -->
<g id="edge10" class="edge"><title>Node6&#45;&gt;Node11</title>
<path fill="none" stroke="midnightblue" d="M592.056,-100.398C608.32,-98.7935 625.668,-97.0821 642.518,-95.4198"/>
<polygon fill="midnightblue" stroke="midnightblue" points="643.322,-98.8575 652.93,-94.3925 642.635,-91.8913 643.322,-98.8575"/>
</g>
<!-- Node12 -->
<g id="node12" class="node"><title>Node12</title>
<g id="a_node12"><a xlink:href="../../d9/d11/classconfiguration_1_1_parser.html#af0032734232f2e6043d7c8c94d86dd1f" target="_top" xlink:title="configuration.Parser.isConstant">
<polygon fill="white" stroke="black" points="656.5,-38.5 656.5,-57.5 821.5,-57.5 821.5,-38.5 656.5,-38.5"/>
<text text-anchor="middle" x="739" y="-45.5" font-family="Helvetica,sans-Serif" font-size="10.00">configuration.Parser.isConstant</text>
</a>
</g>
</g>
<!-- Node6&#45;&gt;Node12 -->
<g id="edge11" class="edge"><title>Node6&#45;&gt;Node12</title>
<path fill="none" stroke="midnightblue" d="M563.382,-98.4708C573.037,-95.9016 582.978,-92.764 592,-89 609.306,-81.7803 610.45,-73.6019 628,-67 635.27,-64.2653 642.959,-61.9212 650.759,-59.9124"/>
<polygon fill="midnightblue" stroke="midnightblue" points="651.762,-63.2715 660.675,-57.5431 650.135,-56.4632 651.762,-63.2715"/>
</g>
<!-- Node13 -->
<g id="node13" class="node"><title>Node13</title>
<g id="a_node13"><a xlink:href="../../d9/d11/classconfiguration_1_1_parser.html#a061c6e2e973a9e7f531931f61f45448b" target="_top" xlink:title="configuration.Parser.isVariable">
<polygon fill="white" stroke="black" points="659,-0.5 659,-19.5 819,-19.5 819,-0.5 659,-0.5"/>
<text text-anchor="middle" x="739" y="-7.5" font-family="Helvetica,sans-Serif" font-size="10.00">configuration.Parser.isVariable</text>
</a>
</g>
</g>
<!-- Node6&#45;&gt;Node13 -->
<g id="edge12" class="edge"><title>Node6&#45;&gt;Node13</title>
<path fill="none" stroke="midnightblue" d="M574.758,-98.3738C580.905,-95.9181 586.794,-92.8447 592,-89 617.015,-70.5244 602.346,-46.5777 628,-29 634.464,-24.5713 641.629,-21.0675 649.114,-18.307"/>
<polygon fill="midnightblue" stroke="midnightblue" points="650.299,-21.6023 658.736,-15.1942 648.144,-14.9421 650.299,-21.6023"/>
</g>
<!-- Node9 -->
<g id="node9" class="node"><title>Node9</title>
<g id="a_node9"><a xlink:href="../../da/dde/classconfiguration_1_1_util.html#a163b0098613bf2f7becf27b131af3934" target="_top" xlink:title="configuration.Util.match">
<polygon fill="white" stroke="black" points="886.5,-164.5 886.5,-183.5 1017.5,-183.5 1017.5,-164.5 886.5,-164.5"/>
<text text-anchor="middle" x="952" y="-171.5" font-family="Helvetica,sans-Serif" font-size="10.00">configuration.Util.match</text>
</a>
</g>
</g>
<!-- Node8&#45;&gt;Node9 -->
<g id="edge8" class="edge"><title>Node8&#45;&gt;Node9</title>
<path fill="none" stroke="midnightblue" d="M831.627,-174C846.483,-174 861.713,-174 876.11,-174"/>
<polygon fill="midnightblue" stroke="midnightblue" points="876.429,-177.5 886.429,-174 876.429,-170.5 876.429,-177.5"/>
</g>
</g>
</svg>
