<?xml version="1.0" encoding="UTF-8" standalone="no"?>
<!DOCTYPE svg PUBLIC "-//W3C//DTD SVG 1.1//EN"
 "http://www.w3.org/Graphics/SVG/1.1/DTD/svg11.dtd">
<!-- Generated by graphviz version 2.36.0 (20140111.2315)
 -->
<!-- Title: configuration.RepeatParser.parseFor Pages: 1 -->
<svg width="816pt" height="246pt"
 viewBox="0.00 0.00 816.00 246.00" xmlns="http://www.w3.org/2000/svg" xmlns:xlink="http://www.w3.org/1999/xlink">
<g id="graph0" class="graph" transform="scale(1 1) rotate(0) translate(4 242)">
<title>configuration.RepeatParser.parseFor</title>
<polygon fill="white" stroke="none" points="-4,4 -4,-242 812,-242 812,4 -4,4"/>
<!-- Node1 -->
<g id="node1" class="node"><title>Node1</title>
<polygon fill="#bfbfbf" stroke="black" points="0.5,-57.5 0.5,-76.5 189.5,-76.5 189.5,-57.5 0.5,-57.5"/>
<text text-anchor="middle" x="95" y="-64.5" font-family="Helvetica,sans-Serif" font-size="10.00">configuration.RepeatParser.parseFor</text>
</g>
<!-- Node2 -->
<g id="node2" class="node"><title>Node2</title>
<g id="a_node2"><a xlink:href="../../d9/d11/classconfiguration_1_1_parser.html#ae0480f44c9defa614fb470ab154fa60b" target="_top" xlink:title="configuration.Parser.buildTree">
<polygon fill="white" stroke="black" points="226,-114.5 226,-133.5 382,-133.5 382,-114.5 226,-114.5"/>
<text text-anchor="middle" x="304" y="-121.5" font-family="Helvetica,sans-Serif" font-size="10.00">configuration.Parser.buildTree</text>
</a>
</g>
</g>
<!-- Node1&#45;&gt;Node2 -->
<g id="edge1" class="edge"><title>Node1&#45;&gt;Node2</title>
<path fill="none" stroke="midnightblue" d="M127.154,-76.5101C153.423,-84.4322 192.057,-95.8557 226,-105 234.694,-107.342 243.97,-109.727 252.964,-111.981"/>
<polygon fill="midnightblue" stroke="midnightblue" points="252.404,-115.448 262.953,-114.46 254.09,-108.654 252.404,-115.448"/>
</g>
<!-- Node10 -->
<g id="node10" class="node"><title>Node10</title>
<g id="a_node10"><a xlink:href="../../da/dde/classconfiguration_1_1_util.html#af37a7249e56aff3c4b501035bd9e403a" target="_top" xlink:title="configuration.Util.executeAll">
<polygon fill="white" stroke="black" points="229,-76.5 229,-95.5 379,-95.5 379,-76.5 229,-76.5"/>
<text text-anchor="middle" x="304" y="-83.5" font-family="Helvetica,sans-Serif" font-size="10.00">configuration.Util.executeAll</text>
</a>
</g>
</g>
<!-- Node1&#45;&gt;Node10 -->
<g id="edge9" class="edge"><title>Node1&#45;&gt;Node10</title>
<path fill="none" stroke="midnightblue" d="M189.508,-75.5828C199.288,-76.4806 209.189,-77.3894 218.857,-78.2767"/>
<polygon fill="midnightblue" stroke="midnightblue" points="218.554,-81.7635 228.832,-79.1923 219.194,-74.7928 218.554,-81.7635"/>
</g>
<!-- Node11 -->
<g id="node11" class="node"><title>Node11</title>
<g id="a_node11"><a xlink:href="../../d9/d11/classconfiguration_1_1_parser.html#a07345acba63db50ec60293f2b38e54a6" target="_top" xlink:title="configuration.Parser.isEnd">
<polygon fill="white" stroke="black" points="234,-38.5 234,-57.5 374,-57.5 374,-38.5 234,-38.5"/>
<text text-anchor="middle" x="304" y="-45.5" font-family="Helvetica,sans-Serif" font-size="10.00">configuration.Parser.isEnd</text>
</a>
</g>
</g>
<!-- Node1&#45;&gt;Node11 -->
<g id="edge10" class="edge"><title>Node1&#45;&gt;Node11</title>
<path fill="none" stroke="midnightblue" d="M189.508,-58.4172C200.91,-57.3706 212.475,-56.309 223.644,-55.2839"/>
<polygon fill="midnightblue" stroke="midnightblue" points="224.134,-58.7537 233.772,-54.3542 223.494,-51.783 224.134,-58.7537"/>
</g>
<!-- Node12 -->
<g id="node12" class="node"><title>Node12</title>
<g id="a_node12"><a xlink:href="../../d9/d11/classconfiguration_1_1_parser.html#a2d882145164d4ce98e9ac91b6000c2ab" target="_top" xlink:title="configuration.Parser.isListEnd">
<polygon fill="white" stroke="black" points="226,-0.5 226,-19.5 382,-19.5 382,-0.5 226,-0.5"/>
<text text-anchor="middle" x="304" y="-7.5" font-family="Helvetica,sans-Serif" font-size="10.00">configuration.Parser.isListEnd</text>
</a>
</g>
</g>
<!-- Node1&#45;&gt;Node12 -->
<g id="edge11" class="edge"><title>Node1&#45;&gt;Node12</title>
<path fill="none" stroke="midnightblue" d="M127.154,-57.4899C153.423,-49.5678 192.057,-38.1443 226,-29 234.694,-26.6579 243.97,-24.2727 252.964,-22.0191"/>
<polygon fill="midnightblue" stroke="midnightblue" points="254.09,-25.3459 262.953,-19.54 252.404,-18.552 254.09,-25.3459"/>
</g>
<!-- Node3 -->
<g id="node3" class="node"><title>Node3</title>
<g id="a_node3"><a xlink:href="../../d0/d3b/classcommands_1_1_user_made_utilities.html#ad6e90d3cccee9da7cf3df2c13fc70381" target="_top" xlink:title="commands.UserMadeUtilities.containsVars">
<polygon fill="white" stroke="black" points="418,-218.5 418,-237.5 640,-237.5 640,-218.5 418,-218.5"/>
<text text-anchor="middle" x="529" y="-225.5" font-family="Helvetica,sans-Serif" font-size="10.00">commands.UserMadeUtilities.containsVars</text>
</a>
</g>
</g>
<!-- Node2&#45;&gt;Node3 -->
<g id="edge2" class="edge"><title>Node2&#45;&gt;Node3</title>
<path fill="none" stroke="midnightblue" d="M314.544,-133.775C332.805,-151.837 374.735,-190.3 418,-209 423.896,-211.548 430.108,-213.755 436.457,-215.666"/>
<polygon fill="midnightblue" stroke="midnightblue" points="435.949,-219.157 446.519,-218.433 437.805,-212.407 435.949,-219.157"/>
</g>
<!-- Node4 -->
<g id="node4" class="node"><title>Node4</title>
<g id="a_node4"><a xlink:href="../../da/dde/classconfiguration_1_1_util.html#a55c271426926996186d1cde227ae7e23" target="_top" xlink:title="configuration.Util.findCommandKey">
<polygon fill="white" stroke="black" points="436.5,-180.5 436.5,-199.5 621.5,-199.5 621.5,-180.5 436.5,-180.5"/>
<text text-anchor="middle" x="529" y="-187.5" font-family="Helvetica,sans-Serif" font-size="10.00">configuration.Util.findCommandKey</text>
</a>
</g>
</g>
<!-- Node2&#45;&gt;Node4 -->
<g id="edge3" class="edge"><title>Node2&#45;&gt;Node4</title>
<path fill="none" stroke="midnightblue" d="M324.964,-133.603C347.201,-143.947 384.443,-160.233 418,-170 429.211,-173.263 441.228,-176.097 453.052,-178.523"/>
<polygon fill="midnightblue" stroke="midnightblue" points="452.429,-181.968 462.917,-180.466 453.781,-175.099 452.429,-181.968"/>
</g>
<!-- Node6 -->
<g id="node6" class="node"><title>Node6</title>
<g id="a_node6"><a xlink:href="../../d0/d3b/classcommands_1_1_user_made_utilities.html#afc570f31a89922ff7a42f13839888c8f" target="_top" xlink:title="commands.UserMadeUtilities.get\lFromVars">
<polygon fill="white" stroke="black" points="441,-131 441,-161 617,-161 617,-131 441,-131"/>
<text text-anchor="start" x="449" y="-149" font-family="Helvetica,sans-Serif" font-size="10.00">commands.UserMadeUtilities.get</text>
<text text-anchor="middle" x="529" y="-138" font-family="Helvetica,sans-Serif" font-size="10.00">FromVars</text>
</a>
</g>
</g>
<!-- Node2&#45;&gt;Node6 -->
<g id="edge5" class="edge"><title>Node2&#45;&gt;Node6</title>
<path fill="none" stroke="midnightblue" d="M382.056,-131.602C397.694,-133.145 414.335,-134.786 430.571,-136.388"/>
<polygon fill="midnightblue" stroke="midnightblue" points="430.32,-139.88 440.616,-137.379 431.008,-132.914 430.32,-139.88"/>
</g>
<!-- Node7 -->
<g id="node7" class="node"><title>Node7</title>
<g id="a_node7"><a xlink:href="../../d9/d11/classconfiguration_1_1_parser.html#a6a8ca49b46db578a3d9e84b0c4ce2f75" target="_top" xlink:title="configuration.Parser.isCommand">
<polygon fill="white" stroke="black" points="443,-92.5 443,-111.5 615,-111.5 615,-92.5 443,-92.5"/>
<text text-anchor="middle" x="529" y="-99.5" font-family="Helvetica,sans-Serif" font-size="10.00">configuration.Parser.isCommand</text>
</a>
</g>
</g>
<!-- Node2&#45;&gt;Node7 -->
<g id="edge6" class="edge"><title>Node2&#45;&gt;Node7</title>
<path fill="none" stroke="midnightblue" d="M382.056,-116.398C398.32,-114.794 415.668,-113.082 432.518,-111.42"/>
<polygon fill="midnightblue" stroke="midnightblue" points="433.322,-114.857 442.93,-110.393 432.635,-107.891 433.322,-114.857"/>
</g>
<!-- Node8 -->
<g id="node8" class="node"><title>Node8</title>
<g id="a_node8"><a xlink:href="../../d9/d11/classconfiguration_1_1_parser.html#af0032734232f2e6043d7c8c94d86dd1f" target="_top" xlink:title="configuration.Parser.isConstant">
<polygon fill="white" stroke="black" points="446.5,-54.5 446.5,-73.5 611.5,-73.5 611.5,-54.5 446.5,-54.5"/>
<text text-anchor="middle" x="529" y="-61.5" font-family="Helvetica,sans-Serif" font-size="10.00">configuration.Parser.isConstant</text>
</a>
</g>
</g>
<!-- Node2&#45;&gt;Node8 -->
<g id="edge7" class="edge"><title>Node2&#45;&gt;Node8</title>
<path fill="none" stroke="midnightblue" d="M353.382,-114.471C363.037,-111.902 372.978,-108.764 382,-105 399.306,-97.7803 400.45,-89.6019 418,-83 425.27,-80.2653 432.959,-77.9212 440.759,-75.9124"/>
<polygon fill="midnightblue" stroke="midnightblue" points="441.762,-79.2715 450.675,-73.5431 440.135,-72.4632 441.762,-79.2715"/>
</g>
<!-- Node9 -->
<g id="node9" class="node"><title>Node9</title>
<g id="a_node9"><a xlink:href="../../d9/d11/classconfiguration_1_1_parser.html#a061c6e2e973a9e7f531931f61f45448b" target="_top" xlink:title="configuration.Parser.isVariable">
<polygon fill="white" stroke="black" points="449,-16.5 449,-35.5 609,-35.5 609,-16.5 449,-16.5"/>
<text text-anchor="middle" x="529" y="-23.5" font-family="Helvetica,sans-Serif" font-size="10.00">configuration.Parser.isVariable</text>
</a>
</g>
</g>
<!-- Node2&#45;&gt;Node9 -->
<g id="edge8" class="edge"><title>Node2&#45;&gt;Node9</title>
<path fill="none" stroke="midnightblue" d="M364.758,-114.374C370.905,-111.918 376.794,-108.845 382,-105 407.015,-86.5244 392.346,-62.5777 418,-45 424.464,-40.5713 431.629,-37.0675 439.114,-34.307"/>
<polygon fill="midnightblue" stroke="midnightblue" points="440.299,-37.6023 448.736,-31.1942 438.144,-30.9421 440.299,-37.6023"/>
</g>
<!-- Node5 -->
<g id="node5" class="node"><title>Node5</title>
<g id="a_node5"><a xlink:href="../../da/dde/classconfiguration_1_1_util.html#a163b0098613bf2f7becf27b131af3934" target="_top" xlink:title="configuration.Util.match">
<polygon fill="white" stroke="black" points="676.5,-180.5 676.5,-199.5 807.5,-199.5 807.5,-180.5 676.5,-180.5"/>
<text text-anchor="middle" x="742" y="-187.5" font-family="Helvetica,sans-Serif" font-size="10.00">configuration.Util.match</text>
</a>
</g>
</g>
<!-- Node4&#45;&gt;Node5 -->
<g id="edge4" class="edge"><title>Node4&#45;&gt;Node5</title>
<path fill="none" stroke="midnightblue" d="M621.627,-190C636.483,-190 651.713,-190 666.11,-190"/>
<polygon fill="midnightblue" stroke="midnightblue" points="666.429,-193.5 676.429,-190 666.429,-186.5 666.429,-193.5"/>
</g>
</g>
</svg>
