<?xml version="1.0" encoding="UTF-8" standalone="no"?>
<!DOCTYPE svg PUBLIC "-//W3C//DTD SVG 1.1//EN"
 "http://www.w3.org/Graphics/SVG/1.1/DTD/svg11.dtd">
<!-- Generated by graphviz version 2.36.0 (20140111.2315)
 -->
<!-- Title: configuration.RepeatParser.main Pages: 1 -->
<svg width="588pt" height="104pt"
 viewBox="0.00 0.00 588.00 104.00" xmlns="http://www.w3.org/2000/svg" xmlns:xlink="http://www.w3.org/1999/xlink">
<g id="graph0" class="graph" transform="scale(1 1) rotate(0) translate(4 100)">
<title>configuration.RepeatParser.main</title>
<polygon fill="white" stroke="none" points="-4,4 -4,-100 584,-100 584,4 -4,4"/>
<!-- Node1 -->
<g id="node1" class="node"><title>Node1</title>
<polygon fill="#bfbfbf" stroke="black" points="0.5,-27.5 0.5,-46.5 171.5,-46.5 171.5,-27.5 0.5,-27.5"/>
<text text-anchor="middle" x="86" y="-34.5" font-family="Helvetica,sans-Serif" font-size="10.00">configuration.RepeatParser.main</text>
</g>
<!-- Node2 -->
<g id="node2" class="node"><title>Node2</title>
<g id="a_node2"><a xlink:href="../../d3/d0d/classconfiguration_1_1_repeat_parser.html#a7785a2e509d96ff2ad5504e7a781d1d2" target="_top" xlink:title="configuration.RepeatParser.parse">
<polygon fill="white" stroke="black" points="208,-49.5 208,-68.5 382,-68.5 382,-49.5 208,-49.5"/>
<text text-anchor="middle" x="295" y="-56.5" font-family="Helvetica,sans-Serif" font-size="10.00">configuration.RepeatParser.parse</text>
</a>
</g>
</g>
<!-- Node1&#45;&gt;Node2 -->
<g id="edge1" class="edge"><title>Node1&#45;&gt;Node2</title>
<path fill="none" stroke="midnightblue" d="M171.792,-46.0117C180.379,-46.9243 189.143,-47.8558 197.838,-48.7799"/>
<polygon fill="midnightblue" stroke="midnightblue" points="197.685,-52.2832 207.999,-49.8598 198.425,-45.3224 197.685,-52.2832"/>
</g>
<!-- Node5 -->
<g id="node5" class="node"><title>Node5</title>
<g id="a_node5"><a xlink:href="../../d3/d0d/classconfiguration_1_1_repeat_parser.html#a910cfd3c8ef1525764d74ee5a0d90252" target="_top" xlink:title="configuration.RepeatParser.\lRepeatParser">
<polygon fill="white" stroke="black" points="221.5,-0 221.5,-30 368.5,-30 368.5,-0 221.5,-0"/>
<text text-anchor="start" x="229.5" y="-18" font-family="Helvetica,sans-Serif" font-size="10.00">configuration.RepeatParser.</text>
<text text-anchor="middle" x="295" y="-7" font-family="Helvetica,sans-Serif" font-size="10.00">RepeatParser</text>
</a>
</g>
</g>
<!-- Node1&#45;&gt;Node5 -->
<g id="edge4" class="edge"><title>Node1&#45;&gt;Node5</title>
<path fill="none" stroke="midnightblue" d="M171.792,-27.9883C184.743,-26.6119 198.098,-25.1925 211.009,-23.8203"/>
<polygon fill="midnightblue" stroke="midnightblue" points="211.679,-27.2689 221.253,-22.7316 210.939,-20.3081 211.679,-27.2689"/>
</g>
<!-- Node3 -->
<g id="node3" class="node"><title>Node3</title>
<g id="a_node3"><a xlink:href="../../da/dde/classconfiguration_1_1_util.html#a535858cb955beeaeaa5e7eccfb71d4c1" target="_top" xlink:title="configuration.Util.toCommand\lQueue">
<polygon fill="white" stroke="black" points="418.5,-66 418.5,-96 579.5,-96 579.5,-66 418.5,-66"/>
<text text-anchor="start" x="426.5" y="-84" font-family="Helvetica,sans-Serif" font-size="10.00">configuration.Util.toCommand</text>
<text text-anchor="middle" x="499" y="-73" font-family="Helvetica,sans-Serif" font-size="10.00">Queue</text>
</a>
</g>
</g>
<!-- Node2&#45;&gt;Node3 -->
<g id="edge2" class="edge"><title>Node2&#45;&gt;Node3</title>
<path fill="none" stroke="midnightblue" d="M382.252,-68.3938C390.884,-69.3339 399.663,-70.2901 408.33,-71.2339"/>
<polygon fill="midnightblue" stroke="midnightblue" points="408.116,-74.7313 418.436,-72.3346 408.874,-67.7724 408.116,-74.7313"/>
</g>
<!-- Node4 -->
<g id="node4" class="node"><title>Node4</title>
<g id="a_node4"><a xlink:href="../../d9/d11/classconfiguration_1_1_parser.html#a0d2aa50e7ee2ec257e7030f716ab880e" target="_top" xlink:title="configuration.Parser.skip">
<polygon fill="white" stroke="black" points="432.5,-27.5 432.5,-46.5 565.5,-46.5 565.5,-27.5 432.5,-27.5"/>
<text text-anchor="middle" x="499" y="-34.5" font-family="Helvetica,sans-Serif" font-size="10.00">configuration.Parser.skip</text>
</a>
</g>
</g>
<!-- Node2&#45;&gt;Node4 -->
<g id="edge3" class="edge"><title>Node2&#45;&gt;Node4</title>
<path fill="none" stroke="midnightblue" d="M382.252,-49.6062C395.452,-48.1686 408.995,-46.6936 421.953,-45.2823"/>
<polygon fill="midnightblue" stroke="midnightblue" points="422.64,-48.7283 432.203,-44.1661 421.882,-41.7694 422.64,-48.7283"/>
</g>
</g>
</svg>
