<?xml version="1.0" encoding="UTF-8" standalone="no"?>
<!DOCTYPE svg PUBLIC "-//W3C//DTD SVG 1.1//EN"
 "http://www.w3.org/Graphics/SVG/1.1/DTD/svg11.dtd">
<!-- Generated by graphviz version 2.36.0 (20140111.2315)
 -->
<!-- Title: configuration.RepeatParser.parse Pages: 1 -->
<svg width="1236pt" height="356pt"
 viewBox="0.00 0.00 1236.00 355.74" xmlns="http://www.w3.org/2000/svg" xmlns:xlink="http://www.w3.org/1999/xlink">
<g id="graph0" class="graph" transform="scale(1 1) rotate(0) translate(4 351.74)">
<title>configuration.RepeatParser.parse</title>
<polygon fill="white" stroke="none" points="-4,4 -4,-351.74 1232,-351.74 1232,4 -4,4"/>
<!-- Node1 -->
<g id="node1" class="node"><title>Node1</title>
<polygon fill="#bfbfbf" stroke="black" points="0,-85.2402 0,-104.24 174,-104.24 174,-85.2402 0,-85.2402"/>
<text text-anchor="middle" x="87" y="-92.2402" font-family="Helvetica,sans-Serif" font-size="10.00">configuration.RepeatParser.parse</text>
</g>
<!-- Node2 -->
<g id="node2" class="node"><title>Node2</title>
<g id="a_node2"><a xlink:href="../../d3/d0d/classconfiguration_1_1_repeat_parser.html#ab218ee8c24e4dab18c02cd4a536d15d3" target="_top" xlink:title="configuration.RepeatParser.fetch\lNumericExpr">
<polygon fill="white" stroke="black" points="211.5,-199.74 211.5,-229.74 382.5,-229.74 382.5,-199.74 211.5,-199.74"/>
<text text-anchor="start" x="219.5" y="-217.74" font-family="Helvetica,sans-Serif" font-size="10.00">configuration.RepeatParser.fetch</text>
<text text-anchor="middle" x="297" y="-206.74" font-family="Helvetica,sans-Serif" font-size="10.00">NumericExpr</text>
</a>
</g>
</g>
<!-- Node1&#45;&gt;Node2 -->
<g id="edge1" class="edge"><title>Node1&#45;&gt;Node2</title>
<path fill="none" stroke="midnightblue" d="M104.67,-104.357C138.49,-123.869 215.796,-168.468 261.113,-194.613"/>
<polygon fill="midnightblue" stroke="midnightblue" points="259.588,-197.774 269.999,-199.74 263.087,-191.711 259.588,-197.774"/>
</g>
<!-- Node12 -->
<g id="node12" class="node"><title>Node12</title>
<g id="a_node12"><a xlink:href="../../d9/d11/classconfiguration_1_1_parser.html#a07345acba63db50ec60293f2b38e54a6" target="_top" xlink:title="configuration.Parser.isEnd">
<polygon fill="white" stroke="black" points="654,-3.24024 654,-22.2402 794,-22.2402 794,-3.24024 654,-3.24024"/>
<text text-anchor="middle" x="724" y="-10.2402" font-family="Helvetica,sans-Serif" font-size="10.00">configuration.Parser.isEnd</text>
</a>
</g>
</g>
<!-- Node1&#45;&gt;Node12 -->
<g id="edge11" class="edge"><title>Node1&#45;&gt;Node12</title>
<path fill="none" stroke="midnightblue" d="M114.203,-85.1835C169.674,-65.52 303.449,-21.0913 420,-5.74024 503.721,5.28678 525.596,-3.12846 610,-5.74024 620.83,-6.07536 632.235,-6.59074 643.466,-7.19319"/>
<polygon fill="midnightblue" stroke="midnightblue" points="643.53,-10.7022 653.71,-7.76828 643.922,-3.71316 643.53,-10.7022"/>
</g>
<!-- Node13 -->
<g id="node13" class="node"><title>Node13</title>
<g id="a_node13"><a xlink:href="../../d3/d0d/classconfiguration_1_1_repeat_parser.html#aed07d335bcd1174cb4247a7add0d3315" target="_top" xlink:title="configuration.RepeatParser.parse\lCommands">
<polygon fill="white" stroke="black" points="210,-79.7402 210,-109.74 384,-109.74 384,-79.7402 210,-79.7402"/>
<text text-anchor="start" x="218" y="-97.7402" font-family="Helvetica,sans-Serif" font-size="10.00">configuration.RepeatParser.parse</text>
<text text-anchor="middle" x="297" y="-86.7402" font-family="Helvetica,sans-Serif" font-size="10.00">Commands</text>
</a>
</g>
</g>
<!-- Node1&#45;&gt;Node13 -->
<g id="edge12" class="edge"><title>Node1&#45;&gt;Node13</title>
<path fill="none" stroke="midnightblue" d="M174.103,-94.7402C182.618,-94.7402 191.298,-94.7402 199.905,-94.7402"/>
<polygon fill="midnightblue" stroke="midnightblue" points="199.962,-98.2403 209.962,-94.7402 199.962,-91.2403 199.962,-98.2403"/>
</g>
<!-- Node3 -->
<g id="node3" class="node"><title>Node3</title>
<g id="a_node3"><a xlink:href="../../d9/d11/classconfiguration_1_1_parser.html#ae0480f44c9defa614fb470ab154fa60b" target="_top" xlink:title="configuration.Parser.buildTree">
<polygon fill="white" stroke="black" points="646,-224.24 646,-243.24 802,-243.24 802,-224.24 646,-224.24"/>
<text text-anchor="middle" x="724" y="-231.24" font-family="Helvetica,sans-Serif" font-size="10.00">configuration.Parser.buildTree</text>
</a>
</g>
</g>
<!-- Node2&#45;&gt;Node3 -->
<g id="edge2" class="edge"><title>Node2&#45;&gt;Node3</title>
<path fill="none" stroke="midnightblue" d="M382.795,-229.669C395.237,-231.358 407.925,-232.806 420,-233.74 492.509,-239.353 575.072,-238.903 635.682,-237.302"/>
<polygon fill="midnightblue" stroke="midnightblue" points="636.076,-240.793 645.974,-237.014 635.88,-233.795 636.076,-240.793"/>
</g>
<!-- Node11 -->
<g id="node11" class="node"><title>Node11</title>
<g id="a_node11"><a xlink:href="../../d8/d4f/interface_tree_1_1_node.html#a83d55b41499cfcfd3607420eed42507c" target="_top" xlink:title="Tree.Node.getValue">
<polygon fill="white" stroke="black" points="460,-205.24 460,-224.24 570,-224.24 570,-205.24 460,-205.24"/>
<text text-anchor="middle" x="515" y="-212.24" font-family="Helvetica,sans-Serif" font-size="10.00">Tree.Node.getValue</text>
</a>
</g>
</g>
<!-- Node2&#45;&gt;Node11 -->
<g id="edge10" class="edge"><title>Node2&#45;&gt;Node11</title>
<path fill="none" stroke="midnightblue" d="M382.749,-214.74C405.094,-214.74 428.834,-214.74 449.891,-214.74"/>
<polygon fill="midnightblue" stroke="midnightblue" points="449.995,-218.24 459.995,-214.74 449.995,-211.24 449.995,-218.24"/>
</g>
<!-- Node4 -->
<g id="node4" class="node"><title>Node4</title>
<g id="a_node4"><a xlink:href="../../d0/d3b/classcommands_1_1_user_made_utilities.html#ad6e90d3cccee9da7cf3df2c13fc70381" target="_top" xlink:title="commands.UserMadeUtilities.containsVars">
<polygon fill="white" stroke="black" points="838,-328.24 838,-347.24 1060,-347.24 1060,-328.24 838,-328.24"/>
<text text-anchor="middle" x="949" y="-335.24" font-family="Helvetica,sans-Serif" font-size="10.00">commands.UserMadeUtilities.containsVars</text>
</a>
</g>
</g>
<!-- Node3&#45;&gt;Node4 -->
<g id="edge3" class="edge"><title>Node3&#45;&gt;Node4</title>
<path fill="none" stroke="midnightblue" d="M734.544,-243.515C752.805,-261.578 794.735,-300.04 838,-318.74 843.896,-321.288 850.108,-323.495 856.457,-325.407"/>
<polygon fill="midnightblue" stroke="midnightblue" points="855.949,-328.897 866.519,-328.173 857.805,-322.147 855.949,-328.897"/>
</g>
<!-- Node5 -->
<g id="node5" class="node"><title>Node5</title>
<g id="a_node5"><a xlink:href="../../da/dde/classconfiguration_1_1_util.html#a55c271426926996186d1cde227ae7e23" target="_top" xlink:title="configuration.Util.findCommandKey">
<polygon fill="white" stroke="black" points="856.5,-290.24 856.5,-309.24 1041.5,-309.24 1041.5,-290.24 856.5,-290.24"/>
<text text-anchor="middle" x="949" y="-297.24" font-family="Helvetica,sans-Serif" font-size="10.00">configuration.Util.findCommandKey</text>
</a>
</g>
</g>
<!-- Node3&#45;&gt;Node5 -->
<g id="edge4" class="edge"><title>Node3&#45;&gt;Node5</title>
<path fill="none" stroke="midnightblue" d="M744.964,-243.343C767.201,-253.687 804.443,-269.974 838,-279.74 849.211,-283.003 861.228,-285.837 873.052,-288.263"/>
<polygon fill="midnightblue" stroke="midnightblue" points="872.429,-291.708 882.917,-290.206 873.781,-284.84 872.429,-291.708"/>
</g>
<!-- Node7 -->
<g id="node7" class="node"><title>Node7</title>
<g id="a_node7"><a xlink:href="../../d0/d3b/classcommands_1_1_user_made_utilities.html#afc570f31a89922ff7a42f13839888c8f" target="_top" xlink:title="commands.UserMadeUtilities.get\lFromVars">
<polygon fill="white" stroke="black" points="861,-240.74 861,-270.74 1037,-270.74 1037,-240.74 861,-240.74"/>
<text text-anchor="start" x="869" y="-258.74" font-family="Helvetica,sans-Serif" font-size="10.00">commands.UserMadeUtilities.get</text>
<text text-anchor="middle" x="949" y="-247.74" font-family="Helvetica,sans-Serif" font-size="10.00">FromVars</text>
</a>
</g>
</g>
<!-- Node3&#45;&gt;Node7 -->
<g id="edge6" class="edge"><title>Node3&#45;&gt;Node7</title>
<path fill="none" stroke="midnightblue" d="M802.056,-241.342C817.694,-242.885 834.335,-244.527 850.571,-246.128"/>
<polygon fill="midnightblue" stroke="midnightblue" points="850.32,-249.621 860.616,-247.119 851.008,-242.654 850.32,-249.621"/>
</g>
<!-- Node8 -->
<g id="node8" class="node"><title>Node8</title>
<g id="a_node8"><a xlink:href="../../d9/d11/classconfiguration_1_1_parser.html#a6a8ca49b46db578a3d9e84b0c4ce2f75" target="_top" xlink:title="configuration.Parser.isCommand">
<polygon fill="white" stroke="black" points="863,-202.24 863,-221.24 1035,-221.24 1035,-202.24 863,-202.24"/>
<text text-anchor="middle" x="949" y="-209.24" font-family="Helvetica,sans-Serif" font-size="10.00">configuration.Parser.isCommand</text>
</a>
</g>
</g>
<!-- Node3&#45;&gt;Node8 -->
<g id="edge7" class="edge"><title>Node3&#45;&gt;Node8</title>
<path fill="none" stroke="midnightblue" d="M802.056,-226.138C818.32,-224.534 835.668,-222.822 852.518,-221.16"/>
<polygon fill="midnightblue" stroke="midnightblue" points="853.322,-224.598 862.93,-220.133 852.635,-217.632 853.322,-224.598"/>
</g>
<!-- Node9 -->
<g id="node9" class="node"><title>Node9</title>
<g id="a_node9"><a xlink:href="../../d9/d11/classconfiguration_1_1_parser.html#af0032734232f2e6043d7c8c94d86dd1f" target="_top" xlink:title="configuration.Parser.isConstant">
<polygon fill="white" stroke="black" points="866.5,-164.24 866.5,-183.24 1031.5,-183.24 1031.5,-164.24 866.5,-164.24"/>
<text text-anchor="middle" x="949" y="-171.24" font-family="Helvetica,sans-Serif" font-size="10.00">configuration.Parser.isConstant</text>
</a>
</g>
</g>
<!-- Node3&#45;&gt;Node9 -->
<g id="edge8" class="edge"><title>Node3&#45;&gt;Node9</title>
<path fill="none" stroke="midnightblue" d="M747.563,-224.21C770.106,-215.01 805.929,-201.256 838,-192.74 848.793,-189.874 860.3,-187.336 871.653,-185.123"/>
<polygon fill="midnightblue" stroke="midnightblue" points="872.386,-188.546 881.569,-183.262 871.095,-181.667 872.386,-188.546"/>
</g>
<!-- Node10 -->
<g id="node10" class="node"><title>Node10</title>
<g id="a_node10"><a xlink:href="../../d9/d11/classconfiguration_1_1_parser.html#a061c6e2e973a9e7f531931f61f45448b" target="_top" xlink:title="configuration.Parser.isVariable">
<polygon fill="white" stroke="black" points="869,-126.24 869,-145.24 1029,-145.24 1029,-126.24 869,-126.24"/>
<text text-anchor="middle" x="949" y="-133.24" font-family="Helvetica,sans-Serif" font-size="10.00">configuration.Parser.isVariable</text>
</a>
</g>
</g>
<!-- Node3&#45;&gt;Node10 -->
<g id="edge9" class="edge"><title>Node3&#45;&gt;Node10</title>
<path fill="none" stroke="midnightblue" d="M750.35,-224.21C766.1,-217.593 786.268,-207.808 802,-195.74 821.241,-180.981 816.844,-166.592 838,-154.74 844.509,-151.094 851.549,-148.114 858.812,-145.684"/>
<polygon fill="midnightblue" stroke="midnightblue" points="860.242,-148.909 868.825,-142.698 858.242,-142.201 860.242,-148.909"/>
</g>
<!-- Node6 -->
<g id="node6" class="node"><title>Node6</title>
<g id="a_node6"><a xlink:href="../../da/dde/classconfiguration_1_1_util.html#a163b0098613bf2f7becf27b131af3934" target="_top" xlink:title="configuration.Util.match">
<polygon fill="white" stroke="black" points="1096.5,-290.24 1096.5,-309.24 1227.5,-309.24 1227.5,-290.24 1096.5,-290.24"/>
<text text-anchor="middle" x="1162" y="-297.24" font-family="Helvetica,sans-Serif" font-size="10.00">configuration.Util.match</text>
</a>
</g>
</g>
<!-- Node5&#45;&gt;Node6 -->
<g id="edge5" class="edge"><title>Node5&#45;&gt;Node6</title>
<path fill="none" stroke="midnightblue" d="M1041.63,-299.74C1056.48,-299.74 1071.71,-299.74 1086.11,-299.74"/>
<polygon fill="midnightblue" stroke="midnightblue" points="1086.43,-303.24 1096.43,-299.74 1086.43,-296.24 1086.43,-303.24"/>
</g>
<!-- Node13&#45;&gt;Node12 -->
<g id="edge20" class="edge"><title>Node13&#45;&gt;Node12</title>
<path fill="none" stroke="midnightblue" d="M320.211,-79.6569C343.81,-64.5235 382.778,-42.0277 420,-31.7402 493.99,-11.2907 581.862,-7.9596 643.873,-8.88789"/>
<polygon fill="midnightblue" stroke="midnightblue" points="643.918,-12.3893 653.982,-9.08031 644.051,-5.39054 643.918,-12.3893"/>
</g>
<!-- Node14 -->
<g id="node14" class="node"><title>Node14</title>
<g id="a_node14"><a xlink:href="../../d9/d11/classconfiguration_1_1_parser.html#a21cf49f5bc55db161bc1ac86153035a1" target="_top" xlink:title="configuration.Parser.isList\lStart">
<polygon fill="white" stroke="black" points="446,-79.7402 446,-109.74 584,-109.74 584,-79.7402 446,-79.7402"/>
<text text-anchor="start" x="454" y="-97.7402" font-family="Helvetica,sans-Serif" font-size="10.00">configuration.Parser.isList</text>
<text text-anchor="middle" x="515" y="-86.7402" font-family="Helvetica,sans-Serif" font-size="10.00">Start</text>
</a>
</g>
</g>
<!-- Node13&#45;&gt;Node14 -->
<g id="edge13" class="edge"><title>Node13&#45;&gt;Node14</title>
<path fill="none" stroke="midnightblue" d="M384.3,-94.7402C401.232,-94.7402 418.907,-94.7402 435.565,-94.7402"/>
<polygon fill="midnightblue" stroke="midnightblue" points="435.79,-98.2403 445.789,-94.7402 435.789,-91.2403 435.79,-98.2403"/>
</g>
<!-- Node15 -->
<g id="node15" class="node"><title>Node15</title>
<g id="a_node15"><a xlink:href="../../d9/d11/classconfiguration_1_1_parser.html#a0d2aa50e7ee2ec257e7030f716ab880e" target="_top" xlink:title="configuration.Parser.skip">
<polygon fill="white" stroke="black" points="448.5,-41.2402 448.5,-60.2402 581.5,-60.2402 581.5,-41.2402 448.5,-41.2402"/>
<text text-anchor="middle" x="515" y="-48.2402" font-family="Helvetica,sans-Serif" font-size="10.00">configuration.Parser.skip</text>
</a>
</g>
</g>
<!-- Node13&#45;&gt;Node15 -->
<g id="edge14" class="edge"><title>Node13&#45;&gt;Node15</title>
<path fill="none" stroke="midnightblue" d="M371.215,-79.7039C387.287,-76.4125 404.216,-72.9526 420,-69.7402 431.854,-67.3277 444.551,-64.7541 456.658,-62.3053"/>
<polygon fill="midnightblue" stroke="midnightblue" points="457.549,-65.696 466.657,-60.2838 456.162,-58.8348 457.549,-65.696"/>
</g>
<!-- Node16 -->
<g id="node16" class="node"><title>Node16</title>
<g id="a_node16"><a xlink:href="../../d3/d0d/classconfiguration_1_1_repeat_parser.html#a27c7e86622dda996677d34987f702cb6" target="_top" xlink:title="configuration.RepeatParser.parseFor">
<polygon fill="white" stroke="black" points="420.5,-167.24 420.5,-186.24 609.5,-186.24 609.5,-167.24 420.5,-167.24"/>
<text text-anchor="middle" x="515" y="-174.24" font-family="Helvetica,sans-Serif" font-size="10.00">configuration.RepeatParser.parseFor</text>
</a>
</g>
</g>
<!-- Node13&#45;&gt;Node16 -->
<g id="edge15" class="edge"><title>Node13&#45;&gt;Node16</title>
<path fill="none" stroke="midnightblue" d="M325.928,-109.932C350.235,-122.685 386.696,-140.701 420,-152.74 432.496,-157.258 446.217,-161.27 459.222,-164.659"/>
<polygon fill="midnightblue" stroke="midnightblue" points="458.442,-168.072 468.995,-167.128 460.156,-161.286 458.442,-168.072"/>
</g>
<!-- Node17 -->
<g id="node17" class="node"><title>Node17</title>
<g id="a_node17"><a xlink:href="../../d9/d11/classconfiguration_1_1_parser.html#a2d882145164d4ce98e9ac91b6000c2ab" target="_top" xlink:title="configuration.Parser.isListEnd">
<polygon fill="white" stroke="black" points="646,-129.24 646,-148.24 802,-148.24 802,-129.24 646,-129.24"/>
<text text-anchor="middle" x="724" y="-136.24" font-family="Helvetica,sans-Serif" font-size="10.00">configuration.Parser.isListEnd</text>
</a>
</g>
</g>
<!-- Node13&#45;&gt;Node17 -->
<g id="edge21" class="edge"><title>Node13&#45;&gt;Node17</title>
<path fill="none" stroke="midnightblue" d="M366.142,-109.748C383.624,-113.157 402.449,-116.444 420,-118.74 492.269,-128.194 574.851,-133.27 635.529,-135.939"/>
<polygon fill="midnightblue" stroke="midnightblue" points="635.694,-139.449 645.834,-136.379 635.992,-132.456 635.694,-139.449"/>
</g>
<!-- Node16&#45;&gt;Node3 -->
<g id="edge18" class="edge"><title>Node16&#45;&gt;Node3</title>
<path fill="none" stroke="midnightblue" d="M568.969,-186.241C582.43,-188.985 596.813,-192.205 610,-195.74 636.525,-202.851 665.909,-212.798 688.063,-220.732"/>
<polygon fill="midnightblue" stroke="midnightblue" points="687.102,-224.107 697.697,-224.218 689.484,-217.524 687.102,-224.107"/>
</g>
<!-- Node16&#45;&gt;Node12 -->
<g id="edge16" class="edge"><title>Node16&#45;&gt;Node12</title>
<path fill="none" stroke="midnightblue" d="M534.018,-167.057C553.471,-156.279 585.024,-137.851 610,-118.74 647.1,-90.3521 685.869,-51.6965 706.967,-29.7696"/>
<polygon fill="midnightblue" stroke="midnightblue" points="709.534,-32.1494 713.905,-22.4982 704.47,-27.3171 709.534,-32.1494"/>
</g>
<!-- Node16&#45;&gt;Node17 -->
<g id="edge17" class="edge"><title>Node16&#45;&gt;Node17</title>
<path fill="none" stroke="midnightblue" d="M567.968,-167.2C596.266,-162.005 631.464,-155.544 661.167,-150.091"/>
<polygon fill="midnightblue" stroke="midnightblue" points="661.807,-153.532 671.011,-148.284 660.543,-146.647 661.807,-153.532"/>
</g>
<!-- Node18 -->
<g id="node18" class="node"><title>Node18</title>
<g id="a_node18"><a xlink:href="../../da/dde/classconfiguration_1_1_util.html#af37a7249e56aff3c4b501035bd9e403a" target="_top" xlink:title="configuration.Util.executeAll">
<polygon fill="white" stroke="black" points="649,-167.24 649,-186.24 799,-186.24 799,-167.24 649,-167.24"/>
<text text-anchor="middle" x="724" y="-174.24" font-family="Helvetica,sans-Serif" font-size="10.00">configuration.Util.executeAll</text>
</a>
</g>
</g>
<!-- Node16&#45;&gt;Node18 -->
<g id="edge19" class="edge"><title>Node16&#45;&gt;Node18</title>
<path fill="none" stroke="midnightblue" d="M609.508,-176.74C619.185,-176.74 628.981,-176.74 638.551,-176.74"/>
<polygon fill="midnightblue" stroke="midnightblue" points="638.832,-180.24 648.832,-176.74 638.832,-173.24 638.832,-180.24"/>
</g>
</g>
</svg>
