<?xml version="1.0" encoding="UTF-8" standalone="no"?>
<!DOCTYPE svg PUBLIC "-//W3C//DTD SVG 1.1//EN"
 "http://www.w3.org/Graphics/SVG/1.1/DTD/svg11.dtd">
<!-- Generated by graphviz version 2.36.0 (20140111.2315)
 -->
<!-- Title: configuration.RepeatParser.parse Pages: 1 -->
<svg width="380pt" height="77pt"
 viewBox="0.00 0.00 380.00 77.00" xmlns="http://www.w3.org/2000/svg" xmlns:xlink="http://www.w3.org/1999/xlink">
<g id="graph0" class="graph" transform="scale(1 1) rotate(0) translate(4 73)">
<title>configuration.RepeatParser.parse</title>
<polygon fill="white" stroke="none" points="-4,4 -4,-73 376,-73 376,4 -4,4"/>
<!-- Node1 -->
<g id="node1" class="node"><title>Node1</title>
<polygon fill="#bfbfbf" stroke="black" points="0,-27.5 0,-46.5 174,-46.5 174,-27.5 0,-27.5"/>
<text text-anchor="middle" x="87" y="-34.5" font-family="Helvetica,sans-Serif" font-size="10.00">configuration.RepeatParser.parse</text>
</g>
<!-- Node2 -->
<g id="node2" class="node"><title>Node2</title>
<g id="a_node2"><a xlink:href="../../d9/d11/classconfiguration_1_1_parser.html#a0d2aa50e7ee2ec257e7030f716ab880e" target="_top" xlink:title="configuration.Parser.skip">
<polygon fill="white" stroke="black" points="224.5,-49.5 224.5,-68.5 357.5,-68.5 357.5,-49.5 224.5,-49.5"/>
<text text-anchor="middle" x="291" y="-56.5" font-family="Helvetica,sans-Serif" font-size="10.00">configuration.Parser.skip</text>
</a>
</g>
</g>
<!-- Node1&#45;&gt;Node2 -->
<g id="edge1" class="edge"><title>Node1&#45;&gt;Node2</title>
<path fill="none" stroke="midnightblue" d="M174.252,-46.3938C187.452,-47.8314 200.995,-49.3064 213.953,-50.7177"/>
<polygon fill="midnightblue" stroke="midnightblue" points="213.882,-54.2306 224.203,-51.8339 214.64,-47.2717 213.882,-54.2306"/>
</g>
<!-- Node3 -->
<g id="node3" class="node"><title>Node3</title>
<g id="a_node3"><a xlink:href="../../da/dde/classconfiguration_1_1_util.html#a535858cb955beeaeaa5e7eccfb71d4c1" target="_top" xlink:title="configuration.Util.toCommand\lQueue">
<polygon fill="white" stroke="black" points="210.5,-0 210.5,-30 371.5,-30 371.5,-0 210.5,-0"/>
<text text-anchor="start" x="218.5" y="-18" font-family="Helvetica,sans-Serif" font-size="10.00">configuration.Util.toCommand</text>
<text text-anchor="middle" x="291" y="-7" font-family="Helvetica,sans-Serif" font-size="10.00">Queue</text>
</a>
</g>
</g>
<!-- Node1&#45;&gt;Node3 -->
<g id="edge2" class="edge"><title>Node1&#45;&gt;Node3</title>
<path fill="none" stroke="midnightblue" d="M174.252,-27.6062C182.884,-26.6661 191.663,-25.7099 200.33,-24.7661"/>
<polygon fill="midnightblue" stroke="midnightblue" points="200.874,-28.2276 210.436,-23.6654 200.116,-21.2687 200.874,-28.2276"/>
</g>
</g>
</svg>
