<?xml version="1.0" encoding="UTF-8" standalone="no"?>
<!DOCTYPE svg PUBLIC "-//W3C//DTD SVG 1.1//EN"
 "http://www.w3.org/Graphics/SVG/1.1/DTD/svg11.dtd">
<!-- Generated by graphviz version 2.36.0 (20140111.2315)
 -->
<!-- Title: commands.arithmeticCommands.Cos Pages: 1 -->
<svg width="206pt" height="220pt"
 viewBox="0.00 0.00 206.00 220.00" xmlns="http://www.w3.org/2000/svg" xmlns:xlink="http://www.w3.org/1999/xlink">
<g id="graph0" class="graph" transform="scale(1 1) rotate(0) translate(4 216)">
<title>commands.arithmeticCommands.Cos</title>
<polygon fill="white" stroke="none" points="-4,4 -4,-216 202,-216 202,4 -4,4"/>
<!-- Node1 -->
<g id="node1" class="node"><title>Node1</title>
<polygon fill="#bfbfbf" stroke="black" points="-0.5,-0.5 -0.5,-19.5 198.5,-19.5 198.5,-0.5 -0.5,-0.5"/>
<text text-anchor="middle" x="99" y="-7.5" font-family="Helvetica,sans-Serif" font-size="10.00">commands.arithmeticCommands.Cos</text>
</g>
<!-- Node2 -->
<g id="node2" class="node"><title>Node2</title>
<g id="a_node2"><a xlink:href="../../db/d90/classcommands_1_1arithmetic_commands_1_1_calculate.html" target="_top" xlink:title="commands.arithmeticCommands.\lCalculate">
<polygon fill="white" stroke="black" points="8.5,-57 8.5,-87 189.5,-87 189.5,-57 8.5,-57"/>
<text text-anchor="start" x="16.5" y="-75" font-family="Helvetica,sans-Serif" font-size="10.00">commands.arithmeticCommands.</text>
<text text-anchor="middle" x="99" y="-64" font-family="Helvetica,sans-Serif" font-size="10.00">Calculate</text>
</a>
</g>
</g>
<!-- Node2&#45;&gt;Node1 -->
<g id="edge1" class="edge"><title>Node2&#45;&gt;Node1</title>
<path fill="none" stroke="midnightblue" d="M99,-46.5858C99,-37.0743 99,-26.7864 99,-19.7305"/>
<polygon fill="midnightblue" stroke="midnightblue" points="95.5001,-46.7808 99,-56.7808 102.5,-46.7809 95.5001,-46.7808"/>
</g>
<!-- Node3 -->
<g id="node3" class="node"><title>Node3</title>
<g id="a_node3"><a xlink:href="../../dc/d3e/classcommands_1_1_command_center.html" target="_top" xlink:title="commands.CommandCenter">
<polygon fill="white" stroke="black" points="21,-124.5 21,-143.5 177,-143.5 177,-124.5 21,-124.5"/>
<text text-anchor="middle" x="99" y="-131.5" font-family="Helvetica,sans-Serif" font-size="10.00">commands.CommandCenter</text>
</a>
</g>
</g>
<!-- Node3&#45;&gt;Node2 -->
<g id="edge2" class="edge"><title>Node3&#45;&gt;Node2</title>
<path fill="none" stroke="midnightblue" d="M99,-114.371C99,-105.585 99,-95.2721 99,-87.1408"/>
<polygon fill="midnightblue" stroke="midnightblue" points="95.5001,-114.403 99,-124.403 102.5,-114.403 95.5001,-114.403"/>
</g>
<!-- Node4 -->
<g id="node4" class="node"><title>Node4</title>
<g id="a_node4"><a xlink:href="../../d1/d4d/interfacecommands_1_1view_commands_1_1turtle_commands_1_1_executable.html" target="_top" xlink:title="commands.viewCommands.turtle\lCommands.Executable">
<polygon fill="white" stroke="black" points="10,-181 10,-211 188,-211 188,-181 10,-181"/>
<text text-anchor="start" x="18" y="-199" font-family="Helvetica,sans-Serif" font-size="10.00">commands.viewCommands.turtle</text>
<text text-anchor="middle" x="99" y="-188" font-family="Helvetica,sans-Serif" font-size="10.00">Commands.Executable</text>
</a>
</g>
</g>
<!-- Node4&#45;&gt;Node3 -->
<g id="edge3" class="edge"><title>Node4&#45;&gt;Node3</title>
<path fill="none" stroke="midnightblue" d="M99,-170.586C99,-161.074 99,-150.786 99,-143.731"/>
<polygon fill="midnightblue" stroke="midnightblue" points="95.5001,-170.781 99,-180.781 102.5,-170.781 95.5001,-170.781"/>
</g>
</g>
</svg>
