<?xml version="1.0" encoding="UTF-8" standalone="no"?>
<!DOCTYPE svg PUBLIC "-//W3C//DTD SVG 1.1//EN"
 "http://www.w3.org/Graphics/SVG/1.1/DTD/svg11.dtd">
<!-- Generated by graphviz version 2.36.0 (20140111.2315)
 -->
<!-- Title: configuration.Parser Pages: 1 -->
<svg width="462pt" height="218pt"
 viewBox="0.00 0.00 462.00 218.00" xmlns="http://www.w3.org/2000/svg" xmlns:xlink="http://www.w3.org/1999/xlink">
<g id="graph0" class="graph" transform="scale(1 1) rotate(0) translate(4 214)">
<title>configuration.Parser</title>
<polygon fill="white" stroke="none" points="-4,4 -4,-214 458,-214 458,4 -4,4"/>
<!-- Node1 -->
<g id="node1" class="node"><title>Node1</title>
<polygon fill="#bfbfbf" stroke="black" points="0,-95.5 0,-114.5 112,-114.5 112,-95.5 0,-95.5"/>
<text text-anchor="middle" x="56" y="-102.5" font-family="Helvetica,sans-Serif" font-size="10.00">configuration.Parser</text>
</g>
<!-- Node2 -->
<g id="node2" class="node"><title>Node2</title>
<g id="a_node2"><a xlink:href="../../d0/da7/classconfiguration_1_1_basic_parser.html" target="_top" xlink:title="configuration.BasicParser">
<polygon fill="white" stroke="black" points="155.5,-190.5 155.5,-209.5 292.5,-209.5 292.5,-190.5 155.5,-190.5"/>
<text text-anchor="middle" x="224" y="-197.5" font-family="Helvetica,sans-Serif" font-size="10.00">configuration.BasicParser</text>
</a>
</g>
</g>
<!-- Node1&#45;&gt;Node2 -->
<g id="edge1" class="edge"><title>Node1&#45;&gt;Node2</title>
<path fill="none" stroke="midnightblue" d="M72.4618,-121.753C89.3844,-139.096 118.111,-165.743 148,-181 155.537,-184.847 163.907,-187.952 172.243,-190.446"/>
<polygon fill="midnightblue" stroke="midnightblue" points="74.9907,-119.334 65.5554,-114.514 69.9259,-124.166 74.9907,-119.334"/>
</g>
<!-- Node3 -->
<g id="node3" class="node"><title>Node3</title>
<g id="a_node3"><a xlink:href="../../d9/dfc/classconfiguration_1_1_dotimes_parser.html" target="_top" xlink:title="configuration.DotimesParser">
<polygon fill="white" stroke="black" points="148,-152.5 148,-171.5 300,-171.5 300,-152.5 148,-152.5"/>
<text text-anchor="middle" x="224" y="-159.5" font-family="Helvetica,sans-Serif" font-size="10.00">configuration.DotimesParser</text>
</a>
</g>
</g>
<!-- Node1&#45;&gt;Node3 -->
<g id="edge2" class="edge"><title>Node1&#45;&gt;Node3</title>
<path fill="none" stroke="midnightblue" d="M86.8052,-118.756C104.372,-126.531 127.17,-136.055 148,-143 158.449,-146.484 169.899,-149.685 180.637,-152.428"/>
<polygon fill="midnightblue" stroke="midnightblue" points="88.1868,-115.539 77.63,-114.643 85.3238,-121.927 88.1868,-115.539"/>
</g>
<!-- Node4 -->
<g id="node4" class="node"><title>Node4</title>
<g id="a_node4"><a xlink:href="../../dc/d64/classconfiguration_1_1_for_parser.html" target="_top" xlink:title="configuration.ForParser">
<polygon fill="white" stroke="black" points="160.5,-114.5 160.5,-133.5 287.5,-133.5 287.5,-114.5 160.5,-114.5"/>
<text text-anchor="middle" x="224" y="-121.5" font-family="Helvetica,sans-Serif" font-size="10.00">configuration.ForParser</text>
</a>
</g>
</g>
<!-- Node1&#45;&gt;Node4 -->
<g id="edge3" class="edge"><title>Node1&#45;&gt;Node4</title>
<path fill="none" stroke="midnightblue" d="M122.544,-112.502C134.952,-113.922 147.906,-115.405 160.226,-116.815"/>
<polygon fill="midnightblue" stroke="midnightblue" points="122.609,-108.987 112.276,-111.327 121.813,-115.941 122.609,-108.987"/>
</g>
<!-- Node5 -->
<g id="node5" class="node"><title>Node5</title>
<g id="a_node5"><a xlink:href="../../d7/d56/classconfiguration_1_1_ifelse_parser.html" target="_top" xlink:title="configuration.IfelseParser">
<polygon fill="white" stroke="black" points="155.5,-76.5 155.5,-95.5 292.5,-95.5 292.5,-76.5 155.5,-76.5"/>
<text text-anchor="middle" x="224" y="-83.5" font-family="Helvetica,sans-Serif" font-size="10.00">configuration.IfelseParser</text>
</a>
</g>
</g>
<!-- Node1&#45;&gt;Node5 -->
<g id="edge4" class="edge"><title>Node1&#45;&gt;Node5</title>
<path fill="none" stroke="midnightblue" d="M122.458,-97.5079C133.236,-96.2742 144.428,-94.9932 155.261,-93.7533"/>
<polygon fill="midnightblue" stroke="midnightblue" points="121.813,-94.0587 112.276,-98.6733 122.609,-101.013 121.813,-94.0587"/>
</g>
<!-- Node7 -->
<g id="node7" class="node"><title>Node7</title>
<g id="a_node7"><a xlink:href="../../d3/d0d/classconfiguration_1_1_repeat_parser.html" target="_top" xlink:title="configuration.RepeatParser">
<polygon fill="white" stroke="black" points="151.5,-38.5 151.5,-57.5 296.5,-57.5 296.5,-38.5 151.5,-38.5"/>
<text text-anchor="middle" x="224" y="-45.5" font-family="Helvetica,sans-Serif" font-size="10.00">configuration.RepeatParser</text>
</a>
</g>
</g>
<!-- Node1&#45;&gt;Node7 -->
<g id="edge6" class="edge"><title>Node1&#45;&gt;Node7</title>
<path fill="none" stroke="midnightblue" d="M86.8052,-91.2444C104.372,-83.469 127.17,-73.9454 148,-67 158.449,-63.516 169.899,-60.3145 180.637,-57.5721"/>
<polygon fill="midnightblue" stroke="midnightblue" points="85.3238,-88.0728 77.63,-95.3567 88.1868,-94.4606 85.3238,-88.0728"/>
</g>
<!-- Node8 -->
<g id="node8" class="node"><title>Node8</title>
<g id="a_node8"><a xlink:href="../../db/d22/classconfiguration_1_1_set_parser.html" target="_top" xlink:title="configuration.SetParser">
<polygon fill="white" stroke="black" points="160,-0.5 160,-19.5 288,-19.5 288,-0.5 160,-0.5"/>
<text text-anchor="middle" x="224" y="-7.5" font-family="Helvetica,sans-Serif" font-size="10.00">configuration.SetParser</text>
</a>
</g>
</g>
<!-- Node1&#45;&gt;Node8 -->
<g id="edge7" class="edge"><title>Node1&#45;&gt;Node8</title>
<path fill="none" stroke="midnightblue" d="M72.4618,-88.2467C89.3844,-70.9043 118.111,-44.2567 148,-29 155.537,-25.1527 163.907,-22.0484 172.243,-19.5542"/>
<polygon fill="midnightblue" stroke="midnightblue" points="69.9259,-85.8344 65.5554,-95.4858 74.9907,-90.6664 69.9259,-85.8344"/>
</g>
<!-- Node6 -->
<g id="node6" class="node"><title>Node6</title>
<g id="a_node6"><a xlink:href="../../dc/dd1/classconfiguration_1_1_if_parser.html" target="_top" xlink:title="configuration.IfParser">
<polygon fill="white" stroke="black" points="336.5,-76.5 336.5,-95.5 453.5,-95.5 453.5,-76.5 336.5,-76.5"/>
<text text-anchor="middle" x="395" y="-83.5" font-family="Helvetica,sans-Serif" font-size="10.00">configuration.IfParser</text>
</a>
</g>
</g>
<!-- Node5&#45;&gt;Node6 -->
<g id="edge5" class="edge"><title>Node5&#45;&gt;Node6</title>
<path fill="none" stroke="midnightblue" d="M302.991,-86C314.198,-86 325.558,-86 336.277,-86"/>
<polygon fill="midnightblue" stroke="midnightblue" points="302.765,-82.5001 292.765,-86 302.765,-89.5001 302.765,-82.5001"/>
</g>
</g>
</svg>
