<?xml version="1.0" encoding="UTF-8" standalone="no"?>
<!DOCTYPE svg PUBLIC "-//W3C//DTD SVG 1.1//EN"
 "http://www.w3.org/Graphics/SVG/1.1/DTD/svg11.dtd">
<!-- Generated by graphviz version 2.36.0 (20140111.2315)
 -->
<!-- Title: configuration.Parser Pages: 1 -->
<svg width="308pt" height="256pt"
 viewBox="0.00 0.00 308.00 256.00" xmlns="http://www.w3.org/2000/svg" xmlns:xlink="http://www.w3.org/1999/xlink">
<g id="graph0" class="graph" transform="scale(1 1) rotate(0) translate(4 252)">
<title>configuration.Parser</title>
<polygon fill="white" stroke="none" points="-4,4 -4,-252 304,-252 304,4 -4,4"/>
<!-- Node1 -->
<g id="node1" class="node"><title>Node1</title>
<polygon fill="#bfbfbf" stroke="black" points="0,-114.5 0,-133.5 112,-133.5 112,-114.5 0,-114.5"/>
<text text-anchor="middle" x="56" y="-121.5" font-family="Helvetica,sans-Serif" font-size="10.00">configuration.Parser</text>
</g>
<!-- Node2 -->
<g id="node2" class="node"><title>Node2</title>
<g id="a_node2"><a xlink:href="../../d0/da7/classconfiguration_1_1_basic_parser.html" target="_top" xlink:title="configuration.BasicParser">
<polygon fill="white" stroke="black" points="155.5,-228.5 155.5,-247.5 292.5,-247.5 292.5,-228.5 155.5,-228.5"/>
<text text-anchor="middle" x="224" y="-235.5" font-family="Helvetica,sans-Serif" font-size="10.00">configuration.BasicParser</text>
</a>
</g>
</g>
<!-- Node1&#45;&gt;Node2 -->
<g id="edge1" class="edge"><title>Node1&#45;&gt;Node2</title>
<path fill="none" stroke="midnightblue" d="M69.3775,-142.105C85.1166,-163.715 114.328,-199.384 148,-219 154.616,-222.854 162.003,-225.934 169.491,-228.393"/>
<polygon fill="midnightblue" stroke="midnightblue" points="72.1226,-139.926 63.4833,-133.793 66.4124,-143.974 72.1226,-139.926"/>
</g>
<!-- Node3 -->
<g id="node3" class="node"><title>Node3</title>
<g id="a_node3"><a xlink:href="../../d9/dfc/classconfiguration_1_1_dotimes_parser.html" target="_top" xlink:title="configuration.DotimesParser">
<polygon fill="white" stroke="black" points="148,-190.5 148,-209.5 300,-209.5 300,-190.5 148,-190.5"/>
<text text-anchor="middle" x="224" y="-197.5" font-family="Helvetica,sans-Serif" font-size="10.00">configuration.DotimesParser</text>
</a>
</g>
</g>
<!-- Node1&#45;&gt;Node3 -->
<g id="edge2" class="edge"><title>Node1&#45;&gt;Node3</title>
<path fill="none" stroke="midnightblue" d="M78.0084,-139.823C95.8129,-152.561 122.454,-170.083 148,-181 156.77,-184.748 166.444,-187.878 175.846,-190.445"/>
<polygon fill="midnightblue" stroke="midnightblue" points="79.6977,-136.723 69.5558,-133.658 75.5728,-142.378 79.6977,-136.723"/>
</g>
<!-- Node4 -->
<g id="node4" class="node"><title>Node4</title>
<g id="a_node4"><a xlink:href="../../dc/d64/classconfiguration_1_1_for_parser.html" target="_top" xlink:title="configuration.ForParser">
<polygon fill="white" stroke="black" points="160.5,-152.5 160.5,-171.5 287.5,-171.5 287.5,-152.5 160.5,-152.5"/>
<text text-anchor="middle" x="224" y="-159.5" font-family="Helvetica,sans-Serif" font-size="10.00">configuration.ForParser</text>
</a>
</g>
</g>
<!-- Node1&#45;&gt;Node4 -->
<g id="edge3" class="edge"><title>Node1&#45;&gt;Node4</title>
<path fill="none" stroke="midnightblue" d="M108.653,-135.824C132.056,-141.182 159.357,-147.431 181.412,-152.48"/>
<polygon fill="midnightblue" stroke="midnightblue" points="109.418,-132.409 98.8888,-133.589 107.856,-139.232 109.418,-132.409"/>
</g>
<!-- Node5 -->
<g id="node5" class="node"><title>Node5</title>
<g id="a_node5"><a xlink:href="../../d7/d56/classconfiguration_1_1_ifelse_parser.html" target="_top" xlink:title="configuration.IfelseParser">
<polygon fill="white" stroke="black" points="155.5,-114.5 155.5,-133.5 292.5,-133.5 292.5,-114.5 155.5,-114.5"/>
<text text-anchor="middle" x="224" y="-121.5" font-family="Helvetica,sans-Serif" font-size="10.00">configuration.IfelseParser</text>
</a>
</g>
</g>
<!-- Node1&#45;&gt;Node5 -->
<g id="edge4" class="edge"><title>Node1&#45;&gt;Node5</title>
<path fill="none" stroke="midnightblue" d="M122.458,-124C133.236,-124 144.428,-124 155.261,-124"/>
<polygon fill="midnightblue" stroke="midnightblue" points="122.276,-120.5 112.276,-124 122.276,-127.5 122.276,-120.5"/>
</g>
<!-- Node6 -->
<g id="node6" class="node"><title>Node6</title>
<g id="a_node6"><a xlink:href="../../dc/dd1/classconfiguration_1_1_if_parser.html" target="_top" xlink:title="configuration.IfParser">
<polygon fill="white" stroke="black" points="165.5,-76.5 165.5,-95.5 282.5,-95.5 282.5,-76.5 165.5,-76.5"/>
<text text-anchor="middle" x="224" y="-83.5" font-family="Helvetica,sans-Serif" font-size="10.00">configuration.IfParser</text>
</a>
</g>
</g>
<!-- Node1&#45;&gt;Node6 -->
<g id="edge5" class="edge"><title>Node1&#45;&gt;Node6</title>
<path fill="none" stroke="midnightblue" d="M108.653,-112.176C132.056,-106.818 159.357,-100.569 181.412,-95.5201"/>
<polygon fill="midnightblue" stroke="midnightblue" points="107.856,-108.768 98.8888,-114.411 109.418,-115.591 107.856,-108.768"/>
</g>
<!-- Node7 -->
<g id="node7" class="node"><title>Node7</title>
<g id="a_node7"><a xlink:href="../../d3/d0d/classconfiguration_1_1_repeat_parser.html" target="_top" xlink:title="configuration.RepeatParser">
<polygon fill="white" stroke="black" points="151.5,-38.5 151.5,-57.5 296.5,-57.5 296.5,-38.5 151.5,-38.5"/>
<text text-anchor="middle" x="224" y="-45.5" font-family="Helvetica,sans-Serif" font-size="10.00">configuration.RepeatParser</text>
</a>
</g>
</g>
<!-- Node1&#45;&gt;Node7 -->
<g id="edge6" class="edge"><title>Node1&#45;&gt;Node7</title>
<path fill="none" stroke="midnightblue" d="M78.0084,-108.177C95.8129,-95.4392 122.454,-77.9168 148,-67 156.77,-63.2524 166.444,-60.1221 175.846,-57.5549"/>
<polygon fill="midnightblue" stroke="midnightblue" points="75.5728,-105.622 69.5558,-114.342 79.6977,-111.277 75.5728,-105.622"/>
</g>
<!-- Node8 -->
<g id="node8" class="node"><title>Node8</title>
<g id="a_node8"><a xlink:href="../../db/d22/classconfiguration_1_1_set_parser.html" target="_top" xlink:title="configuration.SetParser">
<polygon fill="white" stroke="black" points="160,-0.5 160,-19.5 288,-19.5 288,-0.5 160,-0.5"/>
<text text-anchor="middle" x="224" y="-7.5" font-family="Helvetica,sans-Serif" font-size="10.00">configuration.SetParser</text>
</a>
</g>
</g>
<!-- Node1&#45;&gt;Node8 -->
<g id="edge7" class="edge"><title>Node1&#45;&gt;Node8</title>
<path fill="none" stroke="midnightblue" d="M69.3775,-105.895C85.1166,-84.2855 114.328,-48.6162 148,-29 154.616,-25.146 162.003,-22.0662 169.491,-19.6071"/>
<polygon fill="midnightblue" stroke="midnightblue" points="66.4124,-104.026 63.4833,-114.207 72.1226,-108.074 66.4124,-104.026"/>
</g>
</g>
</svg>
