<?xml version="1.0" encoding="UTF-8" standalone="no"?>
<!DOCTYPE svg PUBLIC "-//W3C//DTD SVG 1.1//EN"
 "http://www.w3.org/Graphics/SVG/1.1/DTD/svg11.dtd">
<!-- Generated by graphviz version 2.36.0 (20140111.2315)
 -->
<!-- Title: commands.arithmeticCommands.Not Pages: 1 -->
<svg width="330pt" height="236pt"
 viewBox="0.00 0.00 330.00 236.00" xmlns="http://www.w3.org/2000/svg" xmlns:xlink="http://www.w3.org/1999/xlink">
<g id="graph0" class="graph" transform="scale(1 1) rotate(0) translate(4 232)">
<title>commands.arithmeticCommands.Not</title>
<polygon fill="white" stroke="none" points="-4,4 -4,-232 326,-232 326,4 -4,4"/>
<!-- Node1 -->
<g id="node1" class="node"><title>Node1</title>
<polygon fill="#bfbfbf" stroke="black" points="124,-0.5 124,-19.5 322,-19.5 322,-0.5 124,-0.5"/>
<text text-anchor="middle" x="223" y="-7.5" font-family="Helvetica,sans-Serif" font-size="10.00">commands.arithmeticCommands.Not</text>
</g>
<!-- Node2 -->
<g id="node2" class="node"><title>Node2</title>
<g id="a_node2"><a xlink:href="../../d4/d06/classcommands_1_1arithmetic_commands_1_1_compare.html" target="_top" xlink:title="commands.arithmeticCommands.\lCompare">
<polygon fill="white" stroke="black" points="132.5,-59 132.5,-89 313.5,-89 313.5,-59 132.5,-59"/>
<text text-anchor="start" x="140.5" y="-77" font-family="Helvetica,sans-Serif" font-size="10.00">commands.arithmeticCommands.</text>
<text text-anchor="middle" x="223" y="-66" font-family="Helvetica,sans-Serif" font-size="10.00">Compare</text>
</a>
</g>
</g>
<!-- Node2&#45;&gt;Node1 -->
<g id="edge1" class="edge"><title>Node2&#45;&gt;Node1</title>
<path fill="none" stroke="midnightblue" d="M223,-48.8706C223,-38.6625 223,-27.4077 223,-19.8419"/>
<polygon fill="midnightblue" stroke="midnightblue" points="219.5,-48.9312 223,-58.9312 226.5,-48.9313 219.5,-48.9312"/>
</g>
<!-- Node3 -->
<g id="node3" class="node"><title>Node3</title>
<g id="a_node3"><a xlink:href="../../dc/d3e/classcommands_1_1_command_center.html" target="_top" xlink:title="commands.CommandCenter">
<polygon fill="white" stroke="black" points="60,-128.5 60,-147.5 216,-147.5 216,-128.5 60,-128.5"/>
<text text-anchor="middle" x="138" y="-135.5" font-family="Helvetica,sans-Serif" font-size="10.00">commands.CommandCenter</text>
</a>
</g>
</g>
<!-- Node3&#45;&gt;Node2 -->
<g id="edge2" class="edge"><title>Node3&#45;&gt;Node2</title>
<path fill="none" stroke="midnightblue" d="M158.165,-122.292C171.971,-112.221 190.17,-98.9463 203.772,-89.0252"/>
<polygon fill="midnightblue" stroke="midnightblue" points="155.835,-119.658 149.819,-128.379 159.961,-125.314 155.835,-119.658"/>
</g>
<!-- Node4 -->
<g id="node4" class="node"><title>Node4</title>
<g id="a_node4"><a xlink:href="../../d1/d4d/interfacecommands_1_1view_commands_1_1turtle_commands_1_1_executable.html" target="_top" xlink:title="commands.viewCommands.turtle\lCommands.Executable">
<polygon fill="white" stroke="black" points="0,-197 0,-227 178,-227 178,-197 0,-197"/>
<text text-anchor="start" x="8" y="-215" font-family="Helvetica,sans-Serif" font-size="10.00">commands.viewCommands.turtle</text>
<text text-anchor="middle" x="89" y="-204" font-family="Helvetica,sans-Serif" font-size="10.00">Commands.Executable</text>
</a>
</g>
</g>
<!-- Node4&#45;&gt;Node3 -->
<g id="edge3" class="edge"><title>Node4&#45;&gt;Node3</title>
<path fill="none" stroke="midnightblue" d="M104.467,-188.273C113.827,-174.52 125.232,-157.762 132.039,-147.759"/>
<polygon fill="midnightblue" stroke="midnightblue" points="101.414,-186.539 98.6808,-196.775 107.201,-190.477 101.414,-186.539"/>
</g>
<!-- Node5 -->
<g id="node5" class="node"><title>Node5</title>
<polygon fill="white" stroke="#bfbfbf" points="196,-202.5 196,-221.5 308,-221.5 308,-202.5 196,-202.5"/>
<text text-anchor="middle" x="252" y="-209.5" font-family="Helvetica,sans-Serif" font-size="10.00">ArrayList&lt; Object &gt;</text>
</g>
<!-- Node5&#45;&gt;Node2 -->
<g id="edge5" class="edge"><title>Node5&#45;&gt;Node2</title>
<path fill="none" stroke="#9a32cd" stroke-dasharray="5,2" d="M248.087,-192.649C242.248,-165.269 231.377,-114.283 226.071,-89.4035"/>
<polygon fill="#9a32cd" stroke="#9a32cd" points="244.677,-193.442 250.186,-202.493 251.523,-191.983 244.677,-193.442"/>
<text text-anchor="middle" x="259" y="-135.5" font-family="Helvetica,sans-Serif" font-size="10.00"> params</text>
</g>
<!-- Node5&#45;&gt;Node3 -->
<g id="edge4" class="edge"><title>Node5&#45;&gt;Node3</title>
<path fill="none" stroke="#9a32cd" stroke-dasharray="5,2" d="M217.665,-198.661C204.698,-193.252 190.152,-186.244 178,-178 165.158,-169.288 152.744,-156.231 145.239,-147.664"/>
<polygon fill="#9a32cd" stroke="#9a32cd" points="216.623,-202.014 227.208,-202.48 219.224,-195.515 216.623,-202.014"/>
<text text-anchor="middle" x="208" y="-169.5" font-family="Helvetica,sans-Serif" font-size="10.00"> parameters</text>
</g>
</g>
</svg>
