<?xml version="1.0" encoding="UTF-8" standalone="no"?>
<!DOCTYPE svg PUBLIC "-//W3C//DTD SVG 1.1//EN"
 "http://www.w3.org/Graphics/SVG/1.1/DTD/svg11.dtd">
<!-- Generated by graphviz version 2.36.0 (20140111.2315)
 -->
<!-- Title: configuration.IfParser.parseListCommands Pages: 1 -->
<!--zoomable 287 -->
<svg id="main" version="1.1" xmlns="http://www.w3.org/2000/svg" xmlns:xlink="http://www.w3.org/1999/xlink" xml:space="preserve" onload="init(evt)">
<style type="text/css"><![CDATA[
.edge:hover path { stroke: red; }
.edge:hover polygon { stroke: red; fill: red; }
]]></style>
<script type="text/javascript"><![CDATA[
var edges = document.getElementsByTagName('g');
if (edges && edges.length) {
  for (var i=0;i<edges.length;i++) {
    if (edges[i].id.substr(0,4)=='edge') {
      edges[i].setAttribute('class','edge');
    }
  }
}
]]></script>
        <defs>
                <circle id="rim" cx="0" cy="0" r="7"/>
                <circle id="rim2" cx="0" cy="0" r="3.5"/>
                <g id="zoomPlus">
                        <use xlink:href="#rim" fill="#404040">
                                <set attributeName="fill" to="#808080" begin="zoomplus.mouseover" end="zoomplus.mouseout"/>
                        </use>
                        <path d="M-4,0h8M0,-4v8" fill="none" stroke="white" stroke-width="1.5" pointer-events="none"/>
                </g>
                <g id="zoomMin">
                        <use xlink:href="#rim" fill="#404040">
                                <set attributeName="fill" to="#808080" begin="zoomminus.mouseover" end="zoomminus.mouseout"/>
                        </use>
                        <path d="M-4,0h8" fill="none" stroke="white" stroke-width="1.5" pointer-events="none"/>
                </g>
                <g id="dirArrow">
                        <path fill="none" stroke="white" stroke-width="1.5" d="M0,-3.0v7 M-2.5,-0.5L0,-3.0L2.5,-0.5"/>
                </g>
               <g id="resetDef">
                       <use xlink:href="#rim2" fill="#404040">
                               <set attributeName="fill" to="#808080" begin="reset.mouseover" end="reset.mouseout"/>
                       </use>
               </g>
        </defs>

<script type="text/javascript">
var viewWidth = 772;
var viewHeight = 287;
var sectionId = 'dynsection-11';
</script>
<script xlink:href="../../svgpan.js"/>
<svg id="graph" class="graph">
<g id="viewport">
<title>configuration.IfParser.parseListCommands</title>
<polygon fill="white" stroke="none" points="-4,4 -4,-283 768,-283 768,4 -4,4"/>
<!-- Node1 -->
<g id="node1" class="node"><title>Node1</title>
<polygon fill="#bfbfbf" stroke="black" points="0,-83 0,-113 146,-113 146,-83 0,-83"/>
<text text-anchor="start" x="8" y="-101" font-family="Helvetica,sans-Serif" font-size="10.00">configuration.IfParser.parse</text>
<text text-anchor="middle" x="73" y="-90" font-family="Helvetica,sans-Serif" font-size="10.00">ListCommands</text>
</g>
<!-- Node2 -->
<g id="node2" class="node"><title>Node2</title>
<g id="a_node2"><a xlink:href="../../d9/d11/classconfiguration_1_1_parser.html#ae0480f44c9defa614fb470ab154fa60b" target="_top" xlink:title="configuration.Parser.buildTree">
<polygon fill="white" stroke="black" points="182,-164.5 182,-183.5 338,-183.5 338,-164.5 182,-164.5"/>
<text text-anchor="middle" x="260" y="-171.5" font-family="Helvetica,sans-Serif" font-size="10.00">configuration.Parser.buildTree</text>
</a>
</g>
</g>
<!-- Node1&#45;&gt;Node2 -->
<g id="edge1" class="edge"><title>Node1&#45;&gt;Node2</title>
<path fill="none" stroke="midnightblue" d="M98.5024,-113.152C119.882,-125.825 152.081,-143.609 182,-155 188.484,-157.469 195.399,-159.702 202.324,-161.696"/>
<polygon fill="midnightblue" stroke="midnightblue" points="201.86,-165.197 212.428,-164.447 203.699,-158.443 201.86,-165.197"/>
</g>
<!-- Node10 -->
<g id="node10" class="node"><title>Node10</title>
<g id="a_node10"><a xlink:href="../../d9/d11/classconfiguration_1_1_parser.html#a07345acba63db50ec60293f2b38e54a6" target="_top" xlink:title="configuration.Parser.isEnd">
<polygon fill="white" stroke="black" points="190,-126.5 190,-145.5 330,-145.5 330,-126.5 190,-126.5"/>
<text text-anchor="middle" x="260" y="-133.5" font-family="Helvetica,sans-Serif" font-size="10.00">configuration.Parser.isEnd</text>
</a>
</g>
</g>
<!-- Node1&#45;&gt;Node10 -->
<g id="edge9" class="edge"><title>Node1&#45;&gt;Node10</title>
<path fill="none" stroke="midnightblue" d="M146.056,-112.801C164.799,-116.651 184.72,-120.743 202.53,-124.401"/>
<polygon fill="midnightblue" stroke="midnightblue" points="202.248,-127.916 212.747,-126.499 203.656,-121.059 202.248,-127.916"/>
</g>
<!-- Node11 -->
<g id="node11" class="node"><title>Node11</title>
<g id="a_node11"><a xlink:href="../../d9/d11/classconfiguration_1_1_parser.html#a2d882145164d4ce98e9ac91b6000c2ab" target="_top" xlink:title="configuration.Parser.isListEnd">
<polygon fill="white" stroke="black" points="182,-88.5 182,-107.5 338,-107.5 338,-88.5 182,-88.5"/>
<text text-anchor="middle" x="260" y="-95.5" font-family="Helvetica,sans-Serif" font-size="10.00">configuration.Parser.isListEnd</text>
</a>
</g>
</g>
<!-- Node1&#45;&gt;Node11 -->
<g id="edge10" class="edge"><title>Node1&#45;&gt;Node11</title>
<path fill="none" stroke="midnightblue" d="M146.056,-98C154.514,-98 163.213,-98 171.85,-98"/>
<polygon fill="midnightblue" stroke="midnightblue" points="171.942,-101.5 181.942,-98 171.941,-94.5001 171.942,-101.5"/>
</g>
<!-- Node12 -->
<g id="node12" class="node"><title>Node12</title>
<g id="a_node12"><a xlink:href="../../d9/d11/classconfiguration_1_1_parser.html#a21cf49f5bc55db161bc1ac86153035a1" target="_top" xlink:title="configuration.Parser.isList\lStart">
<polygon fill="white" stroke="black" points="191,-39 191,-69 329,-69 329,-39 191,-39"/>
<text text-anchor="start" x="199" y="-57" font-family="Helvetica,sans-Serif" font-size="10.00">configuration.Parser.isList</text>
<text text-anchor="middle" x="260" y="-46" font-family="Helvetica,sans-Serif" font-size="10.00">Start</text>
</a>
</g>
</g>
<!-- Node1&#45;&gt;Node12 -->
<g id="edge11" class="edge"><title>Node1&#45;&gt;Node12</title>
<path fill="none" stroke="midnightblue" d="M137.149,-82.9808C152.839,-79.2492 169.785,-75.2186 185.908,-71.384"/>
<polygon fill="midnightblue" stroke="midnightblue" points="186.903,-74.7451 195.822,-69.0262 185.283,-67.9351 186.903,-74.7451"/>
</g>
<!-- Node13 -->
<g id="node13" class="node"><title>Node13</title>
<g id="a_node13"><a xlink:href="../../d9/d11/classconfiguration_1_1_parser.html#a0d2aa50e7ee2ec257e7030f716ab880e" target="_top" xlink:title="configuration.Parser.skip">
<polygon fill="white" stroke="black" points="193.5,-0.5 193.5,-19.5 326.5,-19.5 326.5,-0.5 193.5,-0.5"/>
<text text-anchor="middle" x="260" y="-7.5" font-family="Helvetica,sans-Serif" font-size="10.00">configuration.Parser.skip</text>
</a>
</g>
</g>
<!-- Node1&#45;&gt;Node13 -->
<g id="edge12" class="edge"><title>Node1&#45;&gt;Node13</title>
<path fill="none" stroke="midnightblue" d="M93.2074,-82.9584C113.999,-67.3614 148.67,-43.2975 182,-29 187.73,-26.5421 193.842,-24.3593 200.021,-22.4311"/>
<polygon fill="midnightblue" stroke="midnightblue" points="201.116,-25.758 209.743,-19.6078 199.163,-19.0358 201.116,-25.758"/>
</g>
<!-- Node3 -->
<g id="node3" class="node"><title>Node3</title>
<g id="a_node3"><a xlink:href="../../d9/d11/classconfiguration_1_1_parser.html#a6a8ca49b46db578a3d9e84b0c4ce2f75" target="_top" xlink:title="configuration.Parser.isCommand">
<polygon fill="white" stroke="black" points="399,-259.5 399,-278.5 571,-278.5 571,-259.5 399,-259.5"/>
<text text-anchor="middle" x="485" y="-266.5" font-family="Helvetica,sans-Serif" font-size="10.00">configuration.Parser.isCommand</text>
</a>
</g>
</g>
<!-- Node2&#45;&gt;Node3 -->
<g id="edge2" class="edge"><title>Node2&#45;&gt;Node3</title>
<path fill="none" stroke="midnightblue" d="M271.951,-183.735C291.144,-200.22 332.749,-233.449 374,-250 380.677,-252.679 387.731,-254.981 394.913,-256.958"/>
<polygon fill="midnightblue" stroke="midnightblue" points="394.206,-260.39 404.76,-259.458 395.929,-253.605 394.206,-260.39"/>
</g>
<!-- Node4 -->
<g id="node4" class="node"><title>Node4</title>
<g id="a_node4"><a xlink:href="../../da/dde/classconfiguration_1_1_util.html#a55c271426926996186d1cde227ae7e23" target="_top" xlink:title="configuration.Util.findCommandKey">
<polygon fill="white" stroke="black" points="392.5,-221.5 392.5,-240.5 577.5,-240.5 577.5,-221.5 392.5,-221.5"/>
<text text-anchor="middle" x="485" y="-228.5" font-family="Helvetica,sans-Serif" font-size="10.00">configuration.Util.findCommandKey</text>
</a>
</g>
</g>
<!-- Node2&#45;&gt;Node4 -->
<g id="edge3" class="edge"><title>Node2&#45;&gt;Node4</title>
<path fill="none" stroke="midnightblue" d="M285.805,-183.568C308.483,-192.021 343.099,-204.185 374,-212 385.302,-214.859 397.367,-217.423 409.211,-219.673"/>
<polygon fill="midnightblue" stroke="midnightblue" points="408.619,-223.123 419.088,-221.489 409.885,-216.238 408.619,-223.123"/>
</g>
<!-- Node6 -->
<g id="node6" class="node"><title>Node6</title>
<g id="a_node6"><a xlink:href="../../d9/d11/classconfiguration_1_1_parser.html#af0032734232f2e6043d7c8c94d86dd1f" target="_top" xlink:title="configuration.Parser.isConstant">
<polygon fill="white" stroke="black" points="402.5,-183.5 402.5,-202.5 567.5,-202.5 567.5,-183.5 402.5,-183.5"/>
<text text-anchor="middle" x="485" y="-190.5" font-family="Helvetica,sans-Serif" font-size="10.00">configuration.Parser.isConstant</text>
</a>
</g>
</g>
<!-- Node2&#45;&gt;Node6 -->
<g id="edge5" class="edge"><title>Node2&#45;&gt;Node6</title>
<path fill="none" stroke="midnightblue" d="M338.056,-180.565C355.502,-182.052 374.195,-183.644 392.182,-185.177"/>
<polygon fill="midnightblue" stroke="midnightblue" points="392.121,-188.684 402.382,-186.046 392.715,-181.71 392.121,-188.684"/>
</g>
<!-- Node7 -->
<g id="node7" class="node"><title>Node7</title>
<g id="a_node7"><a xlink:href="../../d9/d11/classconfiguration_1_1_parser.html#a061c6e2e973a9e7f531931f61f45448b" target="_top" xlink:title="configuration.Parser.isVariable">
<polygon fill="white" stroke="black" points="405,-145.5 405,-164.5 565,-164.5 565,-145.5 405,-145.5"/>
<text text-anchor="middle" x="485" y="-152.5" font-family="Helvetica,sans-Serif" font-size="10.00">configuration.Parser.isVariable</text>
</a>
</g>
</g>
<!-- Node2&#45;&gt;Node7 -->
<g id="edge6" class="edge"><title>Node2&#45;&gt;Node7</title>
<path fill="none" stroke="midnightblue" d="M338.056,-167.435C356.304,-165.88 375.917,-164.209 394.66,-162.612"/>
<polygon fill="midnightblue" stroke="midnightblue" points="395.001,-166.096 404.668,-161.759 394.407,-159.121 395.001,-166.096"/>
</g>
<!-- Node8 -->
<g id="node8" class="node"><title>Node8</title>
<g id="a_node8"><a xlink:href="../../d0/d3b/classcommands_1_1_user_made_utilities.html#ad6e90d3cccee9da7cf3df2c13fc70381" target="_top" xlink:title="commands.UserMadeUtilities.containsVars">
<polygon fill="white" stroke="black" points="374,-107.5 374,-126.5 596,-126.5 596,-107.5 374,-107.5"/>
<text text-anchor="middle" x="485" y="-114.5" font-family="Helvetica,sans-Serif" font-size="10.00">commands.UserMadeUtilities.containsVars</text>
</a>
</g>
</g>
<!-- Node2&#45;&gt;Node8 -->
<g id="edge7" class="edge"><title>Node2&#45;&gt;Node8</title>
<path fill="none" stroke="midnightblue" d="M307.572,-164.447C317.744,-161.826 328.349,-158.674 338,-155 354.908,-148.563 356.875,-141.834 374,-136 382.264,-133.185 391.025,-130.772 399.853,-128.707"/>
<polygon fill="midnightblue" stroke="midnightblue" points="400.807,-132.081 409.826,-126.521 399.308,-125.244 400.807,-132.081"/>
</g>
<!-- Node9 -->
<g id="node9" class="node"><title>Node9</title>
<g id="a_node9"><a xlink:href="../../d0/d3b/classcommands_1_1_user_made_utilities.html#afc570f31a89922ff7a42f13839888c8f" target="_top" xlink:title="commands.UserMadeUtilities.get\lFromVars">
<polygon fill="white" stroke="black" points="397,-58 397,-88 573,-88 573,-58 397,-58"/>
<text text-anchor="start" x="405" y="-76" font-family="Helvetica,sans-Serif" font-size="10.00">commands.UserMadeUtilities.get</text>
<text text-anchor="middle" x="485" y="-65" font-family="Helvetica,sans-Serif" font-size="10.00">FromVars</text>
</a>
</g>
</g>
<!-- Node2&#45;&gt;Node9 -->
<g id="edge8" class="edge"><title>Node2&#45;&gt;Node9</title>
<path fill="none" stroke="midnightblue" d="M320.277,-164.409C326.581,-161.949 332.639,-158.865 338,-155 362.304,-137.476 349.535,-115.299 374,-98 378.239,-95.0028 382.779,-92.3582 387.513,-90.0254"/>
<polygon fill="midnightblue" stroke="midnightblue" points="389.093,-93.1538 396.827,-85.9128 386.266,-86.7503 389.093,-93.1538"/>
</g>
<!-- Node5 -->
<g id="node5" class="node"><title>Node5</title>
<g id="a_node5"><a xlink:href="../../da/dde/classconfiguration_1_1_util.html#a163b0098613bf2f7becf27b131af3934" target="_top" xlink:title="configuration.Util.match">
<polygon fill="white" stroke="black" points="632.5,-221.5 632.5,-240.5 763.5,-240.5 763.5,-221.5 632.5,-221.5"/>
<text text-anchor="middle" x="698" y="-228.5" font-family="Helvetica,sans-Serif" font-size="10.00">configuration.Util.match</text>
</a>
</g>
</g>
<!-- Node4&#45;&gt;Node5 -->
<g id="edge4" class="edge"><title>Node4&#45;&gt;Node5</title>
<path fill="none" stroke="midnightblue" d="M577.627,-231C592.483,-231 607.713,-231 622.11,-231"/>
<polygon fill="midnightblue" stroke="midnightblue" points="622.429,-234.5 632.429,-231 622.429,-227.5 622.429,-234.5"/>
</g>
</g>
</svg>
        <g id="navigator" transform="translate(0 0)" fill="#404254">
                <rect fill="#f2f5e9" fill-opacity="0.5" stroke="#606060" stroke-width=".5" x="0" y="0" width="60" height="60"/>
                <use id="zoomplus" xlink:href="#zoomPlus" x="17" y="9" onmousedown="handleZoom(evt,'in')"/>
                <use id="zoomminus" xlink:href="#zoomMin" x="42" y="9" onmousedown="handleZoom(evt,'out')"/>
                <use id="reset" xlink:href="#resetDef" x="30" y="36" onmousedown="handleReset()"/>
                <g id="arrowUp" xlink:href="#dirArrow" transform="translate(30 24)" onmousedown="handlePan(0,-1)">
                  <use xlink:href="#rim" fill="#404040">
                        <set attributeName="fill" to="#808080" begin="arrowUp.mouseover" end="arrowUp.mouseout"/>
                  </use>
                  <path fill="none" stroke="white" stroke-width="1.5" d="M0,-3.0v7 M-2.5,-0.5L0,-3.0L2.5,-0.5"/>
                </g>
                <g id="arrowRight" xlink:href="#dirArrow" transform="rotate(90) translate(36 -43)" onmousedown="handlePan(1,0)">
                  <use xlink:href="#rim" fill="#404040">
                        <set attributeName="fill" to="#808080" begin="arrowRight.mouseover" end="arrowRight.mouseout"/>
                  </use>
                  <path fill="none" stroke="white" stroke-width="1.5" d="M0,-3.0v7 M-2.5,-0.5L0,-3.0L2.5,-0.5"/>
                </g>
                <g id="arrowDown" xlink:href="#dirArrow" transform="rotate(180) translate(-30 -48)" onmousedown="handlePan(0,1)">
                  <use xlink:href="#rim" fill="#404040">
                        <set attributeName="fill" to="#808080" begin="arrowDown.mouseover" end="arrowDown.mouseout"/>
                  </use>
                  <path fill="none" stroke="white" stroke-width="1.5" d="M0,-3.0v7 M-2.5,-0.5L0,-3.0L2.5,-0.5"/>
                </g>
                <g id="arrowLeft" xlink:href="#dirArrow" transform="rotate(270) translate(-36 17)" onmousedown="handlePan(-1,0)">
                  <use xlink:href="#rim" fill="#404040">
                        <set attributeName="fill" to="#808080" begin="arrowLeft.mouseover" end="arrowLeft.mouseout"/>
                  </use>
                  <path fill="none" stroke="white" stroke-width="1.5" d="M0,-3.0v7 M-2.5,-0.5L0,-3.0L2.5,-0.5"/>
                </g>
        </g>
        <svg viewBox="0 0 15 15" width="100%" height="30px" preserveAspectRatio="xMaxYMin meet">
         <g id="arrow_out" transform="scale(0.3 0.3)">
          <a xlink:href="classconfiguration_1_1_if_parser_a3e1532b1163cc498d3f7636ed8ff2a16_cgraph_org.svg" target="_base">
           <rect id="button" ry="5" rx="5" y="6" x="6" height="38" width="38"
                fill="#f2f5e9" fill-opacity="0.5" stroke="#606060" stroke-width="1.0"/>
           <path id="arrow"
             d="M 11.500037,31.436501 C 11.940474,20.09759 22.043105,11.32322 32.158766,21.979434 L 37.068811,17.246167 C 37.068811,17.246167 37.088388,32 37.088388,32 L 22.160133,31.978069 C 22.160133,31.978069 26.997745,27.140456 26.997745,27.140456 C 18.528582,18.264221 13.291696,25.230495 11.500037,31.436501 z"
             style="fill:#404040;"/>
          </a>
         </g>
        </svg>
</svg>
