<?xml version="1.0" encoding="UTF-8" standalone="no"?>
<!DOCTYPE svg PUBLIC "-//W3C//DTD SVG 1.1//EN"
 "http://www.w3.org/Graphics/SVG/1.1/DTD/svg11.dtd">
<!-- Generated by graphviz version 2.36.0 (20140111.2315)
 -->
<!-- Title: configuration.IfParser.parse Pages: 1 -->
<!--zoomable 268 -->
<svg id="main" version="1.1" xmlns="http://www.w3.org/2000/svg" xmlns:xlink="http://www.w3.org/1999/xlink" xml:space="preserve" onload="init(evt)">
<style type="text/css"><![CDATA[
.edge:hover path { stroke: red; }
.edge:hover polygon { stroke: red; fill: red; }
]]></style>
<script type="text/javascript"><![CDATA[
var edges = document.getElementsByTagName('g');
if (edges && edges.length) {
  for (var i=0;i<edges.length;i++) {
    if (edges[i].id.substr(0,4)=='edge') {
      edges[i].setAttribute('class','edge');
    }
  }
}
]]></script>
        <defs>
                <circle id="rim" cx="0" cy="0" r="7"/>
                <circle id="rim2" cx="0" cy="0" r="3.5"/>
                <g id="zoomPlus">
                        <use xlink:href="#rim" fill="#404040">
                                <set attributeName="fill" to="#808080" begin="zoomplus.mouseover" end="zoomplus.mouseout"/>
                        </use>
                        <path d="M-4,0h8M0,-4v8" fill="none" stroke="white" stroke-width="1.5" pointer-events="none"/>
                </g>
                <g id="zoomMin">
                        <use xlink:href="#rim" fill="#404040">
                                <set attributeName="fill" to="#808080" begin="zoomminus.mouseover" end="zoomminus.mouseout"/>
                        </use>
                        <path d="M-4,0h8" fill="none" stroke="white" stroke-width="1.5" pointer-events="none"/>
                </g>
                <g id="dirArrow">
                        <path fill="none" stroke="white" stroke-width="1.5" d="M0,-3.0v7 M-2.5,-0.5L0,-3.0L2.5,-0.5"/>
                </g>
               <g id="resetDef">
                       <use xlink:href="#rim2" fill="#404040">
                               <set attributeName="fill" to="#808080" begin="reset.mouseover" end="reset.mouseout"/>
                       </use>
               </g>
        </defs>

<script type="text/javascript">
var viewWidth = 1018;
var viewHeight = 268;
var sectionId = 'dynsection-4';
</script>
<script xlink:href="../../svgpan.js"/>
<svg id="graph" class="graph">
<g id="viewport">
<title>configuration.IfParser.parse</title>
<polygon fill="white" stroke="none" points="-4,4 -4,-264 1014,-264 1014,4 -4,4"/>
<!-- Node1 -->
<g id="node1" class="node"><title>Node1</title>
<polygon fill="#bfbfbf" stroke="black" points="0,-110.5 0,-129.5 146,-129.5 146,-110.5 0,-110.5"/>
<text text-anchor="middle" x="73" y="-117.5" font-family="Helvetica,sans-Serif" font-size="10.00">configuration.IfParser.parse</text>
</g>
<!-- Node2 -->
<g id="node2" class="node"><title>Node2</title>
<g id="a_node2"><a xlink:href="../../d7/d56/classconfiguration_1_1_ifelse_parser.html#aef13959a758ccbf8dab0a3f5f94a7be0" target="_top" xlink:title="configuration.IfelseParser.evaluate\lBoolExpr">
<polygon fill="white" stroke="black" points="182,-184 182,-214 362,-214 362,-184 182,-184"/>
<text text-anchor="start" x="190" y="-202" font-family="Helvetica,sans-Serif" font-size="10.00">configuration.IfelseParser.evaluate</text>
<text text-anchor="middle" x="272" y="-191" font-family="Helvetica,sans-Serif" font-size="10.00">BoolExpr</text>
</a>
</g>
</g>
<!-- Node1&#45;&gt;Node2 -->
<g id="edge1" class="edge"><title>Node1&#45;&gt;Node2</title>
<path fill="none" stroke="midnightblue" d="M97.7628,-129.529C128.867,-142.002 184.091,-164.148 223.837,-180.087"/>
<polygon fill="midnightblue" stroke="midnightblue" points="222.746,-183.42 233.33,-183.894 225.352,-176.923 222.746,-183.42"/>
</g>
<!-- Node13 -->
<g id="node13" class="node"><title>Node13</title>
<g id="a_node13"><a xlink:href="../../da/dde/classconfiguration_1_1_util.html#af37a7249e56aff3c4b501035bd9e403a" target="_top" xlink:title="configuration.Util.executeAll">
<polygon fill="white" stroke="black" points="197,-44.5 197,-63.5 347,-63.5 347,-44.5 197,-44.5"/>
<text text-anchor="middle" x="272" y="-51.5" font-family="Helvetica,sans-Serif" font-size="10.00">configuration.Util.executeAll</text>
</a>
</g>
</g>
<!-- Node1&#45;&gt;Node13 -->
<g id="edge13" class="edge"><title>Node1&#45;&gt;Node13</title>
<path fill="none" stroke="midnightblue" d="M93.0593,-110.312C114.294,-99.8513 149.872,-83.3054 182,-73 190.307,-70.3353 199.172,-67.9361 207.966,-65.8119"/>
<polygon fill="midnightblue" stroke="midnightblue" points="208.878,-69.1936 217.833,-63.531 207.301,-62.3735 208.878,-69.1936"/>
</g>
<!-- Node14 -->
<g id="node14" class="node"><title>Node14</title>
<g id="a_node14"><a xlink:href="../../d9/d11/classconfiguration_1_1_parser.html#a07345acba63db50ec60293f2b38e54a6" target="_top" xlink:title="configuration.Parser.isEnd">
<polygon fill="white" stroke="black" points="421,-126.5 421,-145.5 561,-145.5 561,-126.5 421,-126.5"/>
<text text-anchor="middle" x="491" y="-133.5" font-family="Helvetica,sans-Serif" font-size="10.00">configuration.Parser.isEnd</text>
</a>
</g>
</g>
<!-- Node1&#45;&gt;Node14 -->
<g id="edge14" class="edge"><title>Node1&#45;&gt;Node14</title>
<path fill="none" stroke="midnightblue" d="M146.462,-122.787C220.315,-125.627 334.546,-130.021 410.759,-132.952"/>
<polygon fill="midnightblue" stroke="midnightblue" points="410.661,-136.451 420.788,-133.338 410.93,-129.456 410.661,-136.451"/>
</g>
<!-- Node15 -->
<g id="node15" class="node"><title>Node15</title>
<g id="a_node15"><a xlink:href="../../d7/d56/classconfiguration_1_1_ifelse_parser.html#aeb471eacbe15e095075bdd09619fe15d" target="_top" xlink:title="configuration.IfelseParser.parse\lListCommands">
<polygon fill="white" stroke="black" points="189,-83 189,-113 355,-113 355,-83 189,-83"/>
<text text-anchor="start" x="197" y="-101" font-family="Helvetica,sans-Serif" font-size="10.00">configuration.IfelseParser.parse</text>
<text text-anchor="middle" x="272" y="-90" font-family="Helvetica,sans-Serif" font-size="10.00">ListCommands</text>
</a>
</g>
</g>
<!-- Node1&#45;&gt;Node15 -->
<g id="edge15" class="edge"><title>Node1&#45;&gt;Node15</title>
<path fill="none" stroke="midnightblue" d="M146.237,-111.933C156.83,-110.75 167.861,-109.518 178.788,-108.298"/>
<polygon fill="midnightblue" stroke="midnightblue" points="179.229,-111.77 188.778,-107.182 178.452,-104.814 179.229,-111.77"/>
</g>
<!-- Node3 -->
<g id="node3" class="node"><title>Node3</title>
<g id="a_node3"><a xlink:href="../../d9/d11/classconfiguration_1_1_parser.html#ae0480f44c9defa614fb470ab154fa60b" target="_top" xlink:title="configuration.Parser.buildTree">
<polygon fill="white" stroke="black" points="413,-164.5 413,-183.5 569,-183.5 569,-164.5 413,-164.5"/>
<text text-anchor="middle" x="491" y="-171.5" font-family="Helvetica,sans-Serif" font-size="10.00">configuration.Parser.buildTree</text>
</a>
</g>
</g>
<!-- Node2&#45;&gt;Node3 -->
<g id="edge2" class="edge"><title>Node2&#45;&gt;Node3</title>
<path fill="none" stroke="midnightblue" d="M362.202,-188.723C375.616,-187.178 389.436,-185.586 402.807,-184.045"/>
<polygon fill="midnightblue" stroke="midnightblue" points="403.397,-187.501 412.931,-182.879 402.596,-180.547 403.397,-187.501"/>
</g>
<!-- Node11 -->
<g id="node11" class="node"><title>Node11</title>
<g id="a_node11"><a xlink:href="../../d8/d4f/interface_tree_1_1_node.html#a83d55b41499cfcfd3607420eed42507c" target="_top" xlink:title="Tree.Node.getValue">
<polygon fill="white" stroke="black" points="436,-240.5 436,-259.5 546,-259.5 546,-240.5 436,-240.5"/>
<text text-anchor="middle" x="491" y="-247.5" font-family="Helvetica,sans-Serif" font-size="10.00">Tree.Node.getValue</text>
</a>
</g>
</g>
<!-- Node2&#45;&gt;Node11 -->
<g id="edge10" class="edge"><title>Node2&#45;&gt;Node11</title>
<path fill="none" stroke="midnightblue" d="M329.488,-214.06C350.894,-219.609 375.519,-225.804 398,-231 408.828,-233.503 420.41,-236.019 431.577,-238.365"/>
<polygon fill="midnightblue" stroke="midnightblue" points="431.179,-241.857 441.682,-240.466 432.604,-235.003 431.179,-241.857"/>
</g>
<!-- Node12 -->
<g id="node12" class="node"><title>Node12</title>
<g id="a_node12"><a xlink:href="../../d7/d56/classconfiguration_1_1_ifelse_parser.html#a6098b84b1c6e73b18db5e016da7fece1" target="_top" xlink:title="configuration.IfelseParser.isboolean">
<polygon fill="white" stroke="black" points="398.5,-202.5 398.5,-221.5 583.5,-221.5 583.5,-202.5 398.5,-202.5"/>
<text text-anchor="middle" x="491" y="-209.5" font-family="Helvetica,sans-Serif" font-size="10.00">configuration.IfelseParser.isboolean</text>
</a>
</g>
</g>
<!-- Node2&#45;&gt;Node12 -->
<g id="edge11" class="edge"><title>Node2&#45;&gt;Node12</title>
<path fill="none" stroke="midnightblue" d="M362.202,-204.344C370.772,-204.857 379.508,-205.381 388.186,-205.901"/>
<polygon fill="midnightblue" stroke="midnightblue" points="388.143,-209.404 398.335,-206.509 388.562,-202.417 388.143,-209.404"/>
</g>
<!-- Node4 -->
<g id="node4" class="node"><title>Node4</title>
<g id="a_node4"><a xlink:href="../../d9/d11/classconfiguration_1_1_parser.html#a6a8ca49b46db578a3d9e84b0c4ce2f75" target="_top" xlink:title="configuration.Parser.isCommand">
<polygon fill="white" stroke="black" points="645,-76.5 645,-95.5 817,-95.5 817,-76.5 645,-76.5"/>
<text text-anchor="middle" x="731" y="-83.5" font-family="Helvetica,sans-Serif" font-size="10.00">configuration.Parser.isCommand</text>
</a>
</g>
</g>
<!-- Node3&#45;&gt;Node4 -->
<g id="edge3" class="edge"><title>Node3&#45;&gt;Node4</title>
<path fill="none" stroke="midnightblue" d="M564.864,-164.352C571.612,-161.885 578.116,-158.815 584,-155 606.976,-140.103 596.784,-119.52 620,-105 624.775,-102.013 629.884,-99.4601 635.189,-97.2801"/>
<polygon fill="midnightblue" stroke="midnightblue" points="636.715,-100.45 644.92,-93.7464 634.326,-93.8699 636.715,-100.45"/>
</g>
<!-- Node5 -->
<g id="node5" class="node"><title>Node5</title>
<g id="a_node5"><a xlink:href="../../da/dde/classconfiguration_1_1_util.html#a55c271426926996186d1cde227ae7e23" target="_top" xlink:title="configuration.Util.findCommandKey">
<polygon fill="white" stroke="black" points="638.5,-240.5 638.5,-259.5 823.5,-259.5 823.5,-240.5 638.5,-240.5"/>
<text text-anchor="middle" x="731" y="-247.5" font-family="Helvetica,sans-Serif" font-size="10.00">configuration.Util.findCommandKey</text>
</a>
</g>
</g>
<!-- Node3&#45;&gt;Node5 -->
<g id="edge4" class="edge"><title>Node3&#45;&gt;Node5</title>
<path fill="none" stroke="midnightblue" d="M561.483,-183.553C569.338,-186.017 577.018,-189.112 584,-193 604.326,-204.317 599.492,-220.016 620,-231 624.26,-233.282 628.734,-235.299 633.34,-237.083"/>
<polygon fill="midnightblue" stroke="midnightblue" points="632.358,-240.447 642.953,-240.423 634.656,-233.834 632.358,-240.447"/>
</g>
<!-- Node7 -->
<g id="node7" class="node"><title>Node7</title>
<g id="a_node7"><a xlink:href="../../d9/d11/classconfiguration_1_1_parser.html#af0032734232f2e6043d7c8c94d86dd1f" target="_top" xlink:title="configuration.Parser.isConstant">
<polygon fill="white" stroke="black" points="648.5,-38.5 648.5,-57.5 813.5,-57.5 813.5,-38.5 648.5,-38.5"/>
<text text-anchor="middle" x="731" y="-45.5" font-family="Helvetica,sans-Serif" font-size="10.00">configuration.Parser.isConstant</text>
</a>
</g>
</g>
<!-- Node3&#45;&gt;Node7 -->
<g id="edge6" class="edge"><title>Node3&#45;&gt;Node7</title>
<path fill="none" stroke="midnightblue" d="M569.046,-164.333C574.417,-161.823 579.483,-158.751 584,-155 616.508,-128.002 587.056,-93.4644 620,-67 625.713,-62.4107 632.138,-58.7625 638.941,-55.8777"/>
<polygon fill="midnightblue" stroke="midnightblue" points="640.236,-59.1305 648.419,-52.4003 637.825,-52.5589 640.236,-59.1305"/>
</g>
<!-- Node8 -->
<g id="node8" class="node"><title>Node8</title>
<g id="a_node8"><a xlink:href="../../d9/d11/classconfiguration_1_1_parser.html#a061c6e2e973a9e7f531931f61f45448b" target="_top" xlink:title="configuration.Parser.isVariable">
<polygon fill="white" stroke="black" points="651,-202.5 651,-221.5 811,-221.5 811,-202.5 651,-202.5"/>
<text text-anchor="middle" x="731" y="-209.5" font-family="Helvetica,sans-Serif" font-size="10.00">configuration.Parser.isVariable</text>
</a>
</g>
</g>
<!-- Node3&#45;&gt;Node8 -->
<g id="edge7" class="edge"><title>Node3&#45;&gt;Node8</title>
<path fill="none" stroke="midnightblue" d="M551.75,-183.54C584.711,-188.803 625.813,-195.365 660.24,-200.862"/>
<polygon fill="midnightblue" stroke="midnightblue" points="659.798,-204.336 670.225,-202.456 660.902,-197.423 659.798,-204.336"/>
</g>
<!-- Node9 -->
<g id="node9" class="node"><title>Node9</title>
<g id="a_node9"><a xlink:href="../../d0/d3b/classcommands_1_1_user_made_utilities.html#ad6e90d3cccee9da7cf3df2c13fc70381" target="_top" xlink:title="commands.UserMadeUtilities.containsVars">
<polygon fill="white" stroke="black" points="620,-164.5 620,-183.5 842,-183.5 842,-164.5 620,-164.5"/>
<text text-anchor="middle" x="731" y="-171.5" font-family="Helvetica,sans-Serif" font-size="10.00">commands.UserMadeUtilities.containsVars</text>
</a>
</g>
</g>
<!-- Node3&#45;&gt;Node9 -->
<g id="edge8" class="edge"><title>Node3&#45;&gt;Node9</title>
<path fill="none" stroke="midnightblue" d="M569.272,-174C582.269,-174 596.027,-174 609.806,-174"/>
<polygon fill="midnightblue" stroke="midnightblue" points="609.833,-177.5 619.833,-174 609.832,-170.5 609.833,-177.5"/>
</g>
<!-- Node10 -->
<g id="node10" class="node"><title>Node10</title>
<g id="a_node10"><a xlink:href="../../d0/d3b/classcommands_1_1_user_made_utilities.html#afc570f31a89922ff7a42f13839888c8f" target="_top" xlink:title="commands.UserMadeUtilities.get\lFromVars">
<polygon fill="white" stroke="black" points="643,-115 643,-145 819,-145 819,-115 643,-115"/>
<text text-anchor="start" x="651" y="-133" font-family="Helvetica,sans-Serif" font-size="10.00">commands.UserMadeUtilities.get</text>
<text text-anchor="middle" x="731" y="-122" font-family="Helvetica,sans-Serif" font-size="10.00">FromVars</text>
</a>
</g>
</g>
<!-- Node3&#45;&gt;Node10 -->
<g id="edge9" class="edge"><title>Node3&#45;&gt;Node10</title>
<path fill="none" stroke="midnightblue" d="M543.642,-164.453C571.395,-159.322 606.437,-152.844 638.624,-146.893"/>
<polygon fill="midnightblue" stroke="midnightblue" points="639.313,-150.325 648.51,-145.065 638.04,-143.442 639.313,-150.325"/>
</g>
<!-- Node6 -->
<g id="node6" class="node"><title>Node6</title>
<g id="a_node6"><a xlink:href="../../da/dde/classconfiguration_1_1_util.html#a163b0098613bf2f7becf27b131af3934" target="_top" xlink:title="configuration.Util.match">
<polygon fill="white" stroke="black" points="878.5,-240.5 878.5,-259.5 1009.5,-259.5 1009.5,-240.5 878.5,-240.5"/>
<text text-anchor="middle" x="944" y="-247.5" font-family="Helvetica,sans-Serif" font-size="10.00">configuration.Util.match</text>
</a>
</g>
</g>
<!-- Node5&#45;&gt;Node6 -->
<g id="edge5" class="edge"><title>Node5&#45;&gt;Node6</title>
<path fill="none" stroke="midnightblue" d="M823.627,-250C838.483,-250 853.713,-250 868.11,-250"/>
<polygon fill="midnightblue" stroke="midnightblue" points="868.429,-253.5 878.429,-250 868.429,-246.5 868.429,-253.5"/>
</g>
<!-- Node12&#45;&gt;Node5 -->
<g id="edge12" class="edge"><title>Node12&#45;&gt;Node5</title>
<path fill="none" stroke="midnightblue" d="M551.75,-221.54C584.711,-226.803 625.813,-233.365 660.24,-238.862"/>
<polygon fill="midnightblue" stroke="midnightblue" points="659.798,-242.336 670.225,-240.456 660.902,-235.423 659.798,-242.336"/>
</g>
<!-- Node15&#45;&gt;Node3 -->
<g id="edge16" class="edge"><title>Node15&#45;&gt;Node3</title>
<path fill="none" stroke="midnightblue" d="M301.065,-113.004C325.933,-125.758 363.538,-143.742 398,-155 406.223,-157.686 414.987,-160.075 423.716,-162.174"/>
<polygon fill="midnightblue" stroke="midnightblue" points="422.996,-165.6 433.526,-164.421 424.56,-158.776 422.996,-165.6"/>
</g>
<!-- Node15&#45;&gt;Node14 -->
<g id="edge17" class="edge"><title>Node15&#45;&gt;Node14</title>
<path fill="none" stroke="midnightblue" d="M355.038,-112.366C378.352,-116.449 403.402,-120.835 425.515,-124.708"/>
<polygon fill="midnightblue" stroke="midnightblue" points="424.998,-128.17 435.452,-126.448 426.205,-121.275 424.998,-128.17"/>
</g>
<!-- Node16 -->
<g id="node16" class="node"><title>Node16</title>
<g id="a_node16"><a xlink:href="../../d9/d11/classconfiguration_1_1_parser.html#a2d882145164d4ce98e9ac91b6000c2ab" target="_top" xlink:title="configuration.Parser.isListEnd">
<polygon fill="white" stroke="black" points="413,-88.5 413,-107.5 569,-107.5 569,-88.5 413,-88.5"/>
<text text-anchor="middle" x="491" y="-95.5" font-family="Helvetica,sans-Serif" font-size="10.00">configuration.Parser.isListEnd</text>
</a>
</g>
</g>
<!-- Node15&#45;&gt;Node16 -->
<g id="edge18" class="edge"><title>Node15&#45;&gt;Node16</title>
<path fill="none" stroke="midnightblue" d="M355.038,-98C370.594,-98 386.923,-98 402.636,-98"/>
<polygon fill="midnightblue" stroke="midnightblue" points="402.859,-101.5 412.859,-98 402.859,-94.5001 402.859,-101.5"/>
</g>
<!-- Node17 -->
<g id="node17" class="node"><title>Node17</title>
<g id="a_node17"><a xlink:href="../../d9/d11/classconfiguration_1_1_parser.html#a21cf49f5bc55db161bc1ac86153035a1" target="_top" xlink:title="configuration.Parser.isList\lStart">
<polygon fill="white" stroke="black" points="422,-39 422,-69 560,-69 560,-39 422,-39"/>
<text text-anchor="start" x="430" y="-57" font-family="Helvetica,sans-Serif" font-size="10.00">configuration.Parser.isList</text>
<text text-anchor="middle" x="491" y="-46" font-family="Helvetica,sans-Serif" font-size="10.00">Start</text>
</a>
</g>
</g>
<!-- Node15&#45;&gt;Node17 -->
<g id="edge19" class="edge"><title>Node15&#45;&gt;Node17</title>
<path fill="none" stroke="midnightblue" d="M347.072,-82.9808C367.953,-78.7469 390.731,-74.1282 411.843,-69.8475"/>
<polygon fill="midnightblue" stroke="midnightblue" points="412.629,-73.2594 421.734,-67.8419 411.238,-66.399 412.629,-73.2594"/>
</g>
<!-- Node18 -->
<g id="node18" class="node"><title>Node18</title>
<g id="a_node18"><a xlink:href="../../d9/d11/classconfiguration_1_1_parser.html#a0d2aa50e7ee2ec257e7030f716ab880e" target="_top" xlink:title="configuration.Parser.skip">
<polygon fill="white" stroke="black" points="424.5,-0.5 424.5,-19.5 557.5,-19.5 557.5,-0.5 424.5,-0.5"/>
<text text-anchor="middle" x="491" y="-7.5" font-family="Helvetica,sans-Serif" font-size="10.00">configuration.Parser.skip</text>
</a>
</g>
</g>
<!-- Node15&#45;&gt;Node18 -->
<g id="edge20" class="edge"><title>Node15&#45;&gt;Node18</title>
<path fill="none" stroke="midnightblue" d="M342.859,-82.9171C349.584,-80.1429 356.091,-76.8668 362,-73 383.142,-59.1646 376.385,-42.0851 398,-29 403.095,-25.9158 408.608,-23.325 414.316,-21.1494"/>
<polygon fill="midnightblue" stroke="midnightblue" points="415.708,-24.374 424.068,-17.8663 413.474,-17.7399 415.708,-24.374"/>
</g>
</g>
</svg>
        <g id="navigator" transform="translate(0 0)" fill="#404254">
                <rect fill="#f2f5e9" fill-opacity="0.5" stroke="#606060" stroke-width=".5" x="0" y="0" width="60" height="60"/>
                <use id="zoomplus" xlink:href="#zoomPlus" x="17" y="9" onmousedown="handleZoom(evt,'in')"/>
                <use id="zoomminus" xlink:href="#zoomMin" x="42" y="9" onmousedown="handleZoom(evt,'out')"/>
                <use id="reset" xlink:href="#resetDef" x="30" y="36" onmousedown="handleReset()"/>
                <g id="arrowUp" xlink:href="#dirArrow" transform="translate(30 24)" onmousedown="handlePan(0,-1)">
                  <use xlink:href="#rim" fill="#404040">
                        <set attributeName="fill" to="#808080" begin="arrowUp.mouseover" end="arrowUp.mouseout"/>
                  </use>
                  <path fill="none" stroke="white" stroke-width="1.5" d="M0,-3.0v7 M-2.5,-0.5L0,-3.0L2.5,-0.5"/>
                </g>
                <g id="arrowRight" xlink:href="#dirArrow" transform="rotate(90) translate(36 -43)" onmousedown="handlePan(1,0)">
                  <use xlink:href="#rim" fill="#404040">
                        <set attributeName="fill" to="#808080" begin="arrowRight.mouseover" end="arrowRight.mouseout"/>
                  </use>
                  <path fill="none" stroke="white" stroke-width="1.5" d="M0,-3.0v7 M-2.5,-0.5L0,-3.0L2.5,-0.5"/>
                </g>
                <g id="arrowDown" xlink:href="#dirArrow" transform="rotate(180) translate(-30 -48)" onmousedown="handlePan(0,1)">
                  <use xlink:href="#rim" fill="#404040">
                        <set attributeName="fill" to="#808080" begin="arrowDown.mouseover" end="arrowDown.mouseout"/>
                  </use>
                  <path fill="none" stroke="white" stroke-width="1.5" d="M0,-3.0v7 M-2.5,-0.5L0,-3.0L2.5,-0.5"/>
                </g>
                <g id="arrowLeft" xlink:href="#dirArrow" transform="rotate(270) translate(-36 17)" onmousedown="handlePan(-1,0)">
                  <use xlink:href="#rim" fill="#404040">
                        <set attributeName="fill" to="#808080" begin="arrowLeft.mouseover" end="arrowLeft.mouseout"/>
                  </use>
                  <path fill="none" stroke="white" stroke-width="1.5" d="M0,-3.0v7 M-2.5,-0.5L0,-3.0L2.5,-0.5"/>
                </g>
        </g>
        <svg viewBox="0 0 15 15" width="100%" height="30px" preserveAspectRatio="xMaxYMin meet">
         <g id="arrow_out" transform="scale(0.3 0.3)">
          <a xlink:href="classconfiguration_1_1_if_parser_ab4ed2d3b7778d2b1206e5d26ebac7976_cgraph_org.svg" target="_base">
           <rect id="button" ry="5" rx="5" y="6" x="6" height="38" width="38"
                fill="#f2f5e9" fill-opacity="0.5" stroke="#606060" stroke-width="1.0"/>
           <path id="arrow"
             d="M 11.500037,31.436501 C 11.940474,20.09759 22.043105,11.32322 32.158766,21.979434 L 37.068811,17.246167 C 37.068811,17.246167 37.088388,32 37.088388,32 L 22.160133,31.978069 C 22.160133,31.978069 26.997745,27.140456 26.997745,27.140456 C 18.528582,18.264221 13.291696,25.230495 11.500037,31.436501 z"
             style="fill:#404040;"/>
          </a>
         </g>
        </svg>
</svg>
