<?xml version="1.0" encoding="UTF-8" standalone="no"?>
<!DOCTYPE svg PUBLIC "-//W3C//DTD SVG 1.1//EN"
 "http://www.w3.org/Graphics/SVG/1.1/DTD/svg11.dtd">
<!-- Generated by graphviz version 2.36.0 (20140111.2315)
 -->
<!-- Title: configuration.IfParser.main Pages: 1 -->
<svg width="532pt" height="99pt"
 viewBox="0.00 0.00 532.00 99.00" xmlns="http://www.w3.org/2000/svg" xmlns:xlink="http://www.w3.org/1999/xlink">
<g id="graph0" class="graph" transform="scale(1 1) rotate(0) translate(4 95)">
<title>configuration.IfParser.main</title>
<polygon fill="white" stroke="none" points="-4,4 -4,-95 528,-95 528,4 -4,4"/>
<!-- Node1 -->
<g id="node1" class="node"><title>Node1</title>
<polygon fill="#bfbfbf" stroke="black" points="0.5,-44.5 0.5,-63.5 143.5,-63.5 143.5,-44.5 0.5,-44.5"/>
<text text-anchor="middle" x="72" y="-51.5" font-family="Helvetica,sans-Serif" font-size="10.00">configuration.IfParser.main</text>
</g>
<!-- Node2 -->
<g id="node2" class="node"><title>Node2</title>
<g id="a_node2"><a xlink:href="../../dc/dd1/classconfiguration_1_1_if_parser.html#aad3b80d9851234c76dec102a233996f0" target="_top" xlink:title="configuration.IfParser.If\lParser">
<polygon fill="white" stroke="black" points="190.5,-61 190.5,-91 315.5,-91 315.5,-61 190.5,-61"/>
<text text-anchor="start" x="198.5" y="-79" font-family="Helvetica,sans-Serif" font-size="10.00">configuration.IfParser.If</text>
<text text-anchor="middle" x="253" y="-68" font-family="Helvetica,sans-Serif" font-size="10.00">Parser</text>
</a>
</g>
</g>
<!-- Node1&#45;&gt;Node2 -->
<g id="edge1" class="edge"><title>Node1&#45;&gt;Node2</title>
<path fill="none" stroke="midnightblue" d="M143.746,-62.695C155.808,-64.1775 168.346,-65.7186 180.43,-67.2037"/>
<polygon fill="midnightblue" stroke="midnightblue" points="180.101,-70.6895 190.453,-68.4356 180.955,-63.7418 180.101,-70.6895"/>
</g>
<!-- Node3 -->
<g id="node3" class="node"><title>Node3</title>
<g id="a_node3"><a xlink:href="../../dc/dd1/classconfiguration_1_1_if_parser.html#a87fb238c550985341209cfebebe0a779" target="_top" xlink:title="configuration.IfParser.parse">
<polygon fill="white" stroke="black" points="180,-22.5 180,-41.5 326,-41.5 326,-22.5 180,-22.5"/>
<text text-anchor="middle" x="253" y="-29.5" font-family="Helvetica,sans-Serif" font-size="10.00">configuration.IfParser.parse</text>
</a>
</g>
</g>
<!-- Node1&#45;&gt;Node3 -->
<g id="edge2" class="edge"><title>Node1&#45;&gt;Node3</title>
<path fill="none" stroke="midnightblue" d="M143.746,-45.305C152.244,-44.2605 160.979,-43.1869 169.625,-42.1243"/>
<polygon fill="midnightblue" stroke="midnightblue" points="170.216,-45.5782 179.714,-40.8843 169.362,-38.6304 170.216,-45.5782"/>
</g>
<!-- Node4 -->
<g id="node4" class="node"><title>Node4</title>
<g id="a_node4"><a xlink:href="../../da/dde/classconfiguration_1_1_util.html#a535858cb955beeaeaa5e7eccfb71d4c1" target="_top" xlink:title="configuration.Util.toCommand\lQueue">
<polygon fill="white" stroke="black" points="362.5,-39 362.5,-69 523.5,-69 523.5,-39 362.5,-39"/>
<text text-anchor="start" x="370.5" y="-57" font-family="Helvetica,sans-Serif" font-size="10.00">configuration.Util.toCommand</text>
<text text-anchor="middle" x="443" y="-46" font-family="Helvetica,sans-Serif" font-size="10.00">Queue</text>
</a>
</g>
</g>
<!-- Node3&#45;&gt;Node4 -->
<g id="edge3" class="edge"><title>Node3&#45;&gt;Node4</title>
<path fill="none" stroke="midnightblue" d="M326.148,-40.4429C334.633,-41.4357 343.369,-42.458 352.058,-43.4749"/>
<polygon fill="midnightblue" stroke="midnightblue" points="351.881,-46.978 362.22,-44.664 352.695,-40.0254 351.881,-46.978"/>
</g>
<!-- Node5 -->
<g id="node5" class="node"><title>Node5</title>
<g id="a_node5"><a xlink:href="../../d9/d11/classconfiguration_1_1_parser.html#a0d2aa50e7ee2ec257e7030f716ab880e" target="_top" xlink:title="configuration.Parser.skip">
<polygon fill="white" stroke="black" points="376.5,-0.5 376.5,-19.5 509.5,-19.5 509.5,-0.5 376.5,-0.5"/>
<text text-anchor="middle" x="443" y="-7.5" font-family="Helvetica,sans-Serif" font-size="10.00">configuration.Parser.skip</text>
</a>
</g>
</g>
<!-- Node3&#45;&gt;Node5 -->
<g id="edge4" class="edge"><title>Node3&#45;&gt;Node5</title>
<path fill="none" stroke="midnightblue" d="M326.148,-23.5571C339.268,-22.0218 352.989,-20.4162 366.211,-18.869"/>
<polygon fill="midnightblue" stroke="midnightblue" points="366.68,-22.338 376.205,-17.6994 365.866,-15.3855 366.68,-22.338"/>
</g>
</g>
</svg>
