<?xml version="1.0" encoding="UTF-8" standalone="no"?>
<!DOCTYPE svg PUBLIC "-//W3C//DTD SVG 1.1//EN"
 "http://www.w3.org/Graphics/SVG/1.1/DTD/svg11.dtd">
<!-- Generated by graphviz version 2.36.0 (20140111.2315)
 -->
<!-- Title: commands.viewCommands.turtleCommands.Right Pages: 1 -->
<!--zoomable 479 -->
<svg id="main" version="1.1" xmlns="http://www.w3.org/2000/svg" xmlns:xlink="http://www.w3.org/1999/xlink" xml:space="preserve" onload="init(evt)">
<style type="text/css"><![CDATA[
.edge:hover path { stroke: red; }
.edge:hover polygon { stroke: red; fill: red; }
]]></style>
<script type="text/javascript"><![CDATA[
var edges = document.getElementsByTagName('g');
if (edges && edges.length) {
  for (var i=0;i<edges.length;i++) {
    if (edges[i].id.substr(0,4)=='edge') {
      edges[i].setAttribute('class','edge');
    }
  }
}
]]></script>
        <defs>
                <circle id="rim" cx="0" cy="0" r="7"/>
                <circle id="rim2" cx="0" cy="0" r="3.5"/>
                <g id="zoomPlus">
                        <use xlink:href="#rim" fill="#404040">
                                <set attributeName="fill" to="#808080" begin="zoomplus.mouseover" end="zoomplus.mouseout"/>
                        </use>
                        <path d="M-4,0h8M0,-4v8" fill="none" stroke="white" stroke-width="1.5" pointer-events="none"/>
                </g>
                <g id="zoomMin">
                        <use xlink:href="#rim" fill="#404040">
                                <set attributeName="fill" to="#808080" begin="zoomminus.mouseover" end="zoomminus.mouseout"/>
                        </use>
                        <path d="M-4,0h8" fill="none" stroke="white" stroke-width="1.5" pointer-events="none"/>
                </g>
                <g id="dirArrow">
                        <path fill="none" stroke="white" stroke-width="1.5" d="M0,-3.0v7 M-2.5,-0.5L0,-3.0L2.5,-0.5"/>
                </g>
               <g id="resetDef">
                       <use xlink:href="#rim2" fill="#404040">
                               <set attributeName="fill" to="#808080" begin="reset.mouseover" end="reset.mouseout"/>
                       </use>
               </g>
        </defs>

<script type="text/javascript">
var viewWidth = 1840;
var viewHeight = 479;
var sectionId = 'dynsection-1';
</script>
<script xlink:href="../../svgpan.js"/>
<svg id="graph" class="graph">
<g id="viewport">
<title>commands.viewCommands.turtleCommands.Right</title>
<polygon fill="white" stroke="none" points="-4,4 -4,-475 1836,-475 1836,4 -4,4"/>
<!-- Node1 -->
<g id="node1" class="node"><title>Node1</title>
<polygon fill="#bfbfbf" stroke="black" points="1654,-269 1654,-299 1832,-299 1832,-269 1654,-269"/>
<text text-anchor="start" x="1662" y="-287" font-family="Helvetica,sans-Serif" font-size="10.00">commands.viewCommands.turtle</text>
<text text-anchor="middle" x="1743" y="-276" font-family="Helvetica,sans-Serif" font-size="10.00">Commands.Right</text>
</g>
<!-- Node2 -->
<g id="node2" class="node"><title>Node2</title>
<g id="a_node2"><a xlink:href="../../d3/dba/classcommands_1_1view_commands_1_1turtle_commands_1_1_rotate.html" target="_top" xlink:title="commands.viewCommands.turtle\lCommands.Rotate">
<polygon fill="white" stroke="black" points="1438,-269 1438,-299 1616,-299 1616,-269 1438,-269"/>
<text text-anchor="start" x="1446" y="-287" font-family="Helvetica,sans-Serif" font-size="10.00">commands.viewCommands.turtle</text>
<text text-anchor="middle" x="1527" y="-276" font-family="Helvetica,sans-Serif" font-size="10.00">Commands.Rotate</text>
</a>
</g>
</g>
<!-- Node2&#45;&gt;Node1 -->
<g id="edge1" class="edge"><title>Node2&#45;&gt;Node1</title>
<path fill="none" stroke="midnightblue" d="M1626.54,-284C1635.68,-284 1644.89,-284 1653.93,-284"/>
<polygon fill="midnightblue" stroke="midnightblue" points="1626.28,-280.5 1616.28,-284 1626.28,-287.5 1626.28,-280.5"/>
</g>
<!-- Node3 -->
<g id="node3" class="node"><title>Node3</title>
<g id="a_node3"><a xlink:href="../../d8/def/classcommands_1_1view_commands_1_1turtle_commands_1_1_turtle_commands.html" target="_top" xlink:title="commands.viewCommands.turtle\lCommands.TurtleCommands">
<polygon fill="white" stroke="black" points="1222,-297 1222,-327 1400,-327 1400,-297 1222,-297"/>
<text text-anchor="start" x="1230" y="-315" font-family="Helvetica,sans-Serif" font-size="10.00">commands.viewCommands.turtle</text>
<text text-anchor="middle" x="1311" y="-304" font-family="Helvetica,sans-Serif" font-size="10.00">Commands.TurtleCommands</text>
</a>
</g>
</g>
<!-- Node3&#45;&gt;Node2 -->
<g id="edge2" class="edge"><title>Node3&#45;&gt;Node2</title>
<path fill="none" stroke="midnightblue" d="M1410.25,-299.145C1419.48,-297.937 1428.8,-296.718 1437.93,-295.524"/>
<polygon fill="midnightblue" stroke="midnightblue" points="1409.74,-295.682 1400.28,-300.45 1410.65,-302.623 1409.74,-295.682"/>
</g>
<!-- Node4 -->
<g id="node4" class="node"><title>Node4</title>
<g id="a_node4"><a xlink:href="../../dc/d3e/classcommands_1_1_command_center.html" target="_top" xlink:title="commands.CommandCenter">
<polygon fill="white" stroke="black" points="952,-360.5 952,-379.5 1108,-379.5 1108,-360.5 952,-360.5"/>
<text text-anchor="middle" x="1030" y="-367.5" font-family="Helvetica,sans-Serif" font-size="10.00">commands.CommandCenter</text>
</a>
</g>
</g>
<!-- Node4&#45;&gt;Node3 -->
<g id="edge3" class="edge"><title>Node4&#45;&gt;Node3</title>
<path fill="none" stroke="midnightblue" d="M1086.57,-358.448C1129.96,-349.428 1190.59,-336.823 1237.75,-327.02"/>
<polygon fill="midnightblue" stroke="midnightblue" points="1085.84,-355.025 1076.76,-360.487 1087.26,-361.879 1085.84,-355.025"/>
</g>
<!-- Node5 -->
<g id="node5" class="node"><title>Node5</title>
<g id="a_node5"><a xlink:href="../../d1/d4d/interfacecommands_1_1view_commands_1_1turtle_commands_1_1_executable.html" target="_top" xlink:title="commands.viewCommands.turtle\lCommands.Executable">
<polygon fill="white" stroke="black" points="664,-426 664,-456 842,-456 842,-426 664,-426"/>
<text text-anchor="start" x="672" y="-444" font-family="Helvetica,sans-Serif" font-size="10.00">commands.viewCommands.turtle</text>
<text text-anchor="middle" x="753" y="-433" font-family="Helvetica,sans-Serif" font-size="10.00">Commands.Executable</text>
</a>
</g>
</g>
<!-- Node5&#45;&gt;Node4 -->
<g id="edge4" class="edge"><title>Node5&#45;&gt;Node4</title>
<path fill="none" stroke="midnightblue" d="M852.485,-428.203C879.214,-423.605 907.957,-417.617 934,-410 961.138,-402.063 990.965,-388.686 1009.82,-379.608"/>
<polygon fill="midnightblue" stroke="midnightblue" points="851.635,-424.796 842.349,-429.897 852.789,-431.7 851.635,-424.796"/>
</g>
<!-- Node6 -->
<g id="node6" class="node"><title>Node6</title>
<polygon fill="white" stroke="#bfbfbf" points="697,-187.5 697,-206.5 809,-206.5 809,-187.5 697,-187.5"/>
<text text-anchor="middle" x="753" y="-194.5" font-family="Helvetica,sans-Serif" font-size="10.00">ArrayList&lt; Object &gt;</text>
</g>
<!-- Node6&#45;&gt;Node3 -->
<g id="edge32" class="edge"><title>Node6&#45;&gt;Node3</title>
<path fill="none" stroke="#9a32cd" stroke-dasharray="5,2" d="M819.379,-208.072C827.007,-209.385 834.676,-210.715 842,-212 960.324,-232.76 990.817,-233.547 1108,-260 1159.22,-271.562 1171.12,-278.016 1222,-291 1229.76,-292.981 1237.92,-295.006 1246.02,-296.979"/>
<polygon fill="#9a32cd" stroke="#9a32cd" points="819.855,-204.602 809.407,-206.36 818.671,-211.501 819.855,-204.602"/>
<text text-anchor="middle" x="1030" y="-263" font-family="Helvetica,sans-Serif" font-size="10.00"> params</text>
</g>
<!-- Node6&#45;&gt;Node4 -->
<g id="edge5" class="edge"><title>Node6&#45;&gt;Node4</title>
<path fill="none" stroke="#9a32cd" stroke-dasharray="5,2" d="M812.46,-209.327C822.582,-212.47 832.801,-216.321 842,-221 897.806,-249.382 903.018,-270.006 952,-309 974.816,-327.164 1001.51,-348.279 1016.72,-360.298"/>
<polygon fill="#9a32cd" stroke="#9a32cd" points="813.399,-205.955 802.82,-206.527 811.447,-212.677 813.399,-205.955"/>
<text text-anchor="middle" x="897" y="-297" font-family="Helvetica,sans-Serif" font-size="10.00"> parameters</text>
</g>
<!-- Node7 -->
<g id="node7" class="node"><title>Node7</title>
<g id="a_node7"><a xlink:href="../../d8/d65/classapplication_1_1_view_handler.html" target="_top" xlink:title="application.ViewHandler">
<polygon fill="white" stroke="black" points="964.5,-280.5 964.5,-299.5 1095.5,-299.5 1095.5,-280.5 964.5,-280.5"/>
<text text-anchor="middle" x="1030" y="-287.5" font-family="Helvetica,sans-Serif" font-size="10.00">application.ViewHandler</text>
</a>
</g>
</g>
<!-- Node7&#45;&gt;Node2 -->
<g id="edge33" class="edge"><title>Node7&#45;&gt;Node2</title>
<path fill="none" stroke="#9a32cd" stroke-dasharray="5,2" d="M1106.1,-283.22C1141.27,-280.373 1183.74,-277.4 1222,-276 1301.06,-273.106 1320.93,-273.492 1400,-276 1412.27,-276.389 1425.2,-276.991 1437.91,-277.693"/>
<polygon fill="#9a32cd" stroke="#9a32cd" points="1105.59,-279.75 1095.91,-284.058 1106.17,-286.726 1105.59,-279.75"/>
<text text-anchor="middle" x="1311" y="-279" font-family="Helvetica,sans-Serif" font-size="10.00"> myViewHandler</text>
</g>
<!-- Node7&#45;&gt;Node3 -->
<g id="edge6" class="edge"><title>Node7&#45;&gt;Node3</title>
<path fill="none" stroke="#9a32cd" stroke-dasharray="5,2" d="M1106.05,-295.918C1141.74,-298.732 1184.64,-302.115 1221.87,-305.05"/>
<polygon fill="#9a32cd" stroke="#9a32cd" points="1105.95,-292.4 1095.71,-295.103 1105.4,-299.378 1105.95,-292.4"/>
<text text-anchor="middle" x="1165" y="-307" font-family="Helvetica,sans-Serif" font-size="10.00"> myViewHandler</text>
</g>
<!-- Node8 -->
<g id="node8" class="node"><title>Node8</title>
<g id="a_node8"><a xlink:href="../../df/dcb/classapplication_1_1_pen_handler.html" target="_top" xlink:title="application.PenHandler">
<polygon fill="white" stroke="black" points="689.5,-149.5 689.5,-168.5 816.5,-168.5 816.5,-149.5 689.5,-149.5"/>
<text text-anchor="middle" x="753" y="-156.5" font-family="Helvetica,sans-Serif" font-size="10.00">application.PenHandler</text>
</a>
</g>
</g>
<!-- Node8&#45;&gt;Node7 -->
<g id="edge7" class="edge"><title>Node8&#45;&gt;Node7</title>
<path fill="none" stroke="#9a32cd" stroke-dasharray="5,2" d="M816.323,-170.85C825.019,-172.968 833.784,-175.356 842,-178 884.442,-191.66 895.515,-195.486 934,-218 966.688,-237.123 1001.19,-265.698 1018.21,-280.44"/>
<polygon fill="#9a32cd" stroke="#9a32cd" points="817.101,-167.437 806.567,-168.573 815.51,-174.254 817.101,-167.437"/>
<text text-anchor="middle" x="897" y="-221" font-family="Helvetica,sans-Serif" font-size="10.00"> myPenHandler</text>
</g>
<!-- Node9 -->
<g id="node9" class="node"><title>Node9</title>
<g id="a_node9"><a xlink:href="../../de/d5a/classapplication_1_1_pen.html" target="_top" xlink:title="application.Pen">
<polygon fill="white" stroke="black" points="466.5,-55.5 466.5,-74.5 555.5,-74.5 555.5,-55.5 466.5,-55.5"/>
<text text-anchor="middle" x="511" y="-62.5" font-family="Helvetica,sans-Serif" font-size="10.00">application.Pen</text>
</a>
</g>
</g>
<!-- Node9&#45;&gt;Node8 -->
<g id="edge8" class="edge"><title>Node9&#45;&gt;Node8</title>
<path fill="none" stroke="#9a32cd" stroke-dasharray="5,2" d="M545.862,-78.2628C594.902,-97.47 684.521,-132.571 727.602,-149.444"/>
<polygon fill="#9a32cd" stroke="#9a32cd" points="546.921,-74.9185 536.333,-74.5305 544.368,-81.4365 546.921,-74.9185"/>
<text text-anchor="middle" x="616" y="-118" font-family="Helvetica,sans-Serif" font-size="10.00"> myPen</text>
</g>
<!-- Node10 -->
<g id="node10" class="node"><title>Node10</title>
<polygon fill="white" stroke="#bfbfbf" points="178,-38.5 178,-57.5 302,-57.5 302,-38.5 178,-38.5"/>
<text text-anchor="middle" x="240" y="-45.5" font-family="Helvetica,sans-Serif" font-size="10.00">Map&lt; Integer, Color &gt;</text>
</g>
<!-- Node10&#45;&gt;Node9 -->
<g id="edge9" class="edge"><title>Node10&#45;&gt;Node9</title>
<path fill="none" stroke="#9a32cd" stroke-dasharray="5,2" d="M312.414,-44.8242C349.403,-44.0743 395.241,-44.5382 436,-49 448.151,-50.3302 461.24,-52.8055 472.981,-55.4183"/>
<polygon fill="#9a32cd" stroke="#9a32cd" points="312.142,-41.3296 302.227,-45.0656 312.308,-48.3276 312.142,-41.3296"/>
<text text-anchor="middle" x="382" y="-52" font-family="Helvetica,sans-Serif" font-size="10.00"> myPaletteOptions</text>
</g>
<!-- Node11 -->
<g id="node11" class="node"><title>Node11</title>
<g id="a_node11"><a xlink:href="../../d0/d9b/enumapplication_1_1_pen_1_1_p_e_n_s_t_y_l_e.html" target="_top" xlink:title="application.Pen.PENSTYLE">
<polygon fill="white" stroke="black" points="170,-0.5 170,-19.5 310,-19.5 310,-0.5 170,-0.5"/>
<text text-anchor="middle" x="240" y="-7.5" font-family="Helvetica,sans-Serif" font-size="10.00">application.Pen.PENSTYLE</text>
</a>
</g>
</g>
<!-- Node11&#45;&gt;Node9 -->
<g id="edge10" class="edge"><title>Node11&#45;&gt;Node9</title>
<path fill="none" stroke="#9a32cd" stroke-dasharray="5,2" d="M320.588,-12.058C356.388,-14.5326 398.855,-19.6398 436,-30 456.945,-35.8417 479.286,-47.2025 493.874,-55.3987"/>
<polygon fill="#9a32cd" stroke="#9a32cd" points="320.394,-8.53877 310.192,-11.3996 319.951,-15.5248 320.394,-8.53877"/>
<text text-anchor="middle" x="382" y="-33" font-family="Helvetica,sans-Serif" font-size="10.00"> myStyle</text>
</g>
<!-- Node12 -->
<g id="node12" class="node"><title>Node12</title>
<polygon fill="white" stroke="#bfbfbf" points="219.5,-86.5 219.5,-105.5 260.5,-105.5 260.5,-86.5 219.5,-86.5"/>
<text text-anchor="middle" x="240" y="-93.5" font-family="Helvetica,sans-Serif" font-size="10.00">Color</text>
</g>
<!-- Node12&#45;&gt;Node9 -->
<g id="edge11" class="edge"><title>Node12&#45;&gt;Node9</title>
<path fill="none" stroke="#9a32cd" stroke-dasharray="5,2" d="M270.943,-91.15C287.697,-88.5309 308.979,-85.3603 328,-83 375.107,-77.1547 429.263,-71.9979 466.17,-68.7188"/>
<polygon fill="#9a32cd" stroke="#9a32cd" points="269.987,-87.7577 260.657,-92.7774 271.081,-94.6717 269.987,-87.7577"/>
<text text-anchor="middle" x="382" y="-86" font-family="Helvetica,sans-Serif" font-size="10.00"> myColor</text>
</g>
<!-- Node13 -->
<g id="node13" class="node"><title>Node13</title>
<g id="a_node13"><a xlink:href="../../d8/ddb/classgui_1_1_line_view.html" target="_top" xlink:title="gui.LineView">
<polygon fill="white" stroke="black" points="473.5,-165.5 473.5,-184.5 548.5,-184.5 548.5,-165.5 473.5,-165.5"/>
<text text-anchor="middle" x="511" y="-172.5" font-family="Helvetica,sans-Serif" font-size="10.00">gui.LineView</text>
</a>
</g>
</g>
<!-- Node12&#45;&gt;Node13 -->
<g id="edge18" class="edge"><title>Node12&#45;&gt;Node13</title>
<path fill="none" stroke="#9a32cd" stroke-dasharray="5,2" d="M270.912,-94.2297C310.279,-92.9969 380.928,-94.6178 436,-117 462.917,-127.94 488.179,-151.707 501.074,-165.175"/>
<polygon fill="#9a32cd" stroke="#9a32cd" points="270.53,-90.7421 260.678,-94.6382 270.809,-97.7365 270.53,-90.7421"/>
<text text-anchor="middle" x="382" y="-120" font-family="Helvetica,sans-Serif" font-size="10.00"> DEFAULT_PEN_COLOR</text>
</g>
<!-- Node21 -->
<g id="node21" class="node"><title>Node21</title>
<g id="a_node21"><a xlink:href="../../d7/d9b/classgui_1_1_background_view.html" target="_top" xlink:title="gui.BackgroundView">
<polygon fill="white" stroke="black" points="454.5,-249.5 454.5,-268.5 567.5,-268.5 567.5,-249.5 454.5,-249.5"/>
<text text-anchor="middle" x="511" y="-256.5" font-family="Helvetica,sans-Serif" font-size="10.00">gui.BackgroundView</text>
</a>
</g>
</g>
<!-- Node12&#45;&gt;Node21 -->
<g id="edge31" class="edge"><title>Node12&#45;&gt;Node21</title>
<path fill="none" stroke="#9a32cd" stroke-dasharray="5,2" d="M270.67,-99.8557C284.367,-103.093 299.812,-109.048 310,-120 331.001,-142.576 307.478,-163.988 328,-187 338.715,-199.014 433.293,-232.694 481.706,-249.381"/>
<polygon fill="#9a32cd" stroke="#9a32cd" points="271.143,-96.3814 260.654,-97.872 269.783,-103.248 271.143,-96.3814"/>
<text text-anchor="middle" x="382" y="-236" font-family="Helvetica,sans-Serif" font-size="10.00"> DEFAULT_COLOR</text>
</g>
<!-- Node13&#45;&gt;Node7 -->
<g id="edge27" class="edge"><title>Node13&#45;&gt;Node7</title>
<path fill="none" stroke="#9a32cd" stroke-dasharray="5,2" d="M554.888,-187.349C585.235,-195.895 626.956,-207.258 664,-216 723.625,-230.071 894.978,-263.858 979.977,-280.462"/>
<polygon fill="#9a32cd" stroke="#9a32cd" points="555.631,-183.921 545.056,-184.566 553.725,-190.657 555.631,-183.921"/>
<text text-anchor="middle" x="753" y="-256" font-family="Helvetica,sans-Serif" font-size="10.00"> myLineView</text>
</g>
<!-- Node13&#45;&gt;Node8 -->
<g id="edge12" class="edge"><title>Node13&#45;&gt;Node8</title>
<path fill="none" stroke="#9a32cd" stroke-dasharray="5,2" d="M558.773,-171.882C595.952,-169.403 648.312,-165.913 689.151,-163.19"/>
<polygon fill="#9a32cd" stroke="#9a32cd" points="558.457,-168.395 548.712,-172.553 558.923,-175.379 558.457,-168.395"/>
<text text-anchor="middle" x="616" y="-173" font-family="Helvetica,sans-Serif" font-size="10.00"> myLineView</text>
</g>
<!-- Node14 -->
<g id="node14" class="node"><title>Node14</title>
<g id="a_node14"><a xlink:href="../../d8/d8b/classgui_1_1_view.html" target="_top" xlink:title="gui.View">
<polygon fill="white" stroke="black" points="212,-318.5 212,-337.5 268,-337.5 268,-318.5 212,-318.5"/>
<text text-anchor="middle" x="240" y="-325.5" font-family="Helvetica,sans-Serif" font-size="10.00">gui.View</text>
</a>
</g>
</g>
<!-- Node14&#45;&gt;Node13 -->
<g id="edge13" class="edge"><title>Node14&#45;&gt;Node13</title>
<path fill="none" stroke="midnightblue" d="M265.617,-313.379C282.674,-303.725 306.158,-291.359 328,-283 374.311,-265.276 393.444,-280.452 436,-255 451.912,-245.483 486.836,-203.644 502.333,-184.555"/>
<polygon fill="midnightblue" stroke="midnightblue" points="263.776,-310.4 256.854,-318.421 267.267,-316.468 263.776,-310.4"/>
</g>
<!-- Node18 -->
<g id="node18" class="node"><title>Node18</title>
<g id="a_node18"><a xlink:href="../../df/dcc/classgui_1_1_turtle_view.html" target="_top" xlink:title="gui.TurtleView">
<polygon fill="white" stroke="black" points="470.5,-343.5 470.5,-362.5 551.5,-362.5 551.5,-343.5 470.5,-343.5"/>
<text text-anchor="middle" x="511" y="-350.5" font-family="Helvetica,sans-Serif" font-size="10.00">gui.TurtleView</text>
</a>
</g>
</g>
<!-- Node14&#45;&gt;Node18 -->
<g id="edge20" class="edge"><title>Node14&#45;&gt;Node18</title>
<path fill="none" stroke="midnightblue" d="M278.184,-333.108C293.581,-335.118 311.632,-337.337 328,-339 376.869,-343.966 433.28,-348.051 470.186,-350.501"/>
<polygon fill="midnightblue" stroke="midnightblue" points="278.374,-329.603 268.001,-331.76 277.455,-336.543 278.374,-329.603"/>
</g>
<!-- Node14&#45;&gt;Node21 -->
<g id="edge29" class="edge"><title>Node14&#45;&gt;Node21</title>
<path fill="none" stroke="midnightblue" d="M278.338,-331.386C318.578,-333.667 383.861,-333.353 436,-314 462.412,-304.196 487.484,-281.877 500.575,-268.884"/>
<polygon fill="midnightblue" stroke="midnightblue" points="278.384,-327.882 268.177,-330.724 277.928,-334.867 278.384,-327.882"/>
</g>
<!-- Node15 -->
<g id="node15" class="node"><title>Node15</title>
<polygon fill="white" stroke="#bfbfbf" points="1,-107.5 1,-126.5 53,-126.5 53,-107.5 1,-107.5"/>
<text text-anchor="middle" x="27" y="-114.5" font-family="Helvetica,sans-Serif" font-size="10.00">Canvas</text>
</g>
<!-- Node15&#45;&gt;Node14 -->
<g id="edge14" class="edge"><title>Node15&#45;&gt;Node14</title>
<path fill="none" stroke="midnightblue" d="M44.4499,-134.157C70.7228,-161.477 123.896,-216.435 170,-262 190.515,-282.275 215.019,-305.479 228.612,-318.264"/>
<polygon fill="midnightblue" stroke="midnightblue" points="46.649,-131.394 37.1975,-126.606 41.6007,-136.243 46.649,-131.394"/>
</g>
<!-- Node16 -->
<g id="node16" class="node"><title>Node16</title>
<polygon fill="white" stroke="#bfbfbf" points="0,-349.5 0,-368.5 54,-368.5 54,-349.5 0,-349.5"/>
<text text-anchor="middle" x="27" y="-356.5" font-family="Helvetica,sans-Serif" font-size="10.00">Point2D</text>
</g>
<!-- Node16&#45;&gt;Node13 -->
<g id="edge17" class="edge"><title>Node16&#45;&gt;Node13</title>
<path fill="none" stroke="#9a32cd" stroke-dasharray="5,2" d="M39.1589,-340.879C60.3984,-307.963 109.921,-238.399 170,-202 272.307,-140.018 316.904,-149.833 436,-161 448.237,-162.147 461.465,-164.34 473.305,-166.655"/>
<polygon fill="#9a32cd" stroke="#9a32cd" points="36.101,-339.166 33.713,-349.488 42.0168,-342.908 36.101,-339.166"/>
<text text-anchor="middle" x="240" y="-216" font-family="Helvetica,sans-Serif" font-size="10.00"> newStart</text>
<text text-anchor="middle" x="240" y="-205" font-family="Helvetica,sans-Serif" font-size="10.00">newDest</text>
</g>
<!-- Node16&#45;&gt;Node14 -->
<g id="edge15" class="edge"><title>Node16&#45;&gt;Node14</title>
<path fill="none" stroke="#9a32cd" stroke-dasharray="5,2" d="M58.5417,-345.926C62.9939,-344.395 67.5707,-343.019 72,-342 120.343,-330.876 178.369,-328.359 211.736,-327.919"/>
<polygon fill="#9a32cd" stroke="#9a32cd" points="57.2481,-342.673 49.0999,-349.445 59.6926,-349.232 57.2481,-342.673"/>
<text text-anchor="middle" x="112" y="-356" font-family="Helvetica,sans-Serif" font-size="10.00"> DEFAULT_POINT</text>
<text text-anchor="middle" x="112" y="-345" font-family="Helvetica,sans-Serif" font-size="10.00">newDest</text>
</g>
<!-- Node16&#45;&gt;Node18 -->
<g id="edge22" class="edge"><title>Node16&#45;&gt;Node18</title>
<path fill="none" stroke="#9a32cd" stroke-dasharray="5,2" d="M64.1692,-363.441C66.8163,-363.664 69.4478,-363.855 72,-364 107.499,-366.011 116.446,-364.376 152,-364 278.243,-362.667 309.873,-363.59 436,-358 447.192,-357.504 459.323,-356.768 470.463,-356.012"/>
<polygon fill="#9a32cd" stroke="#9a32cd" points="64.3094,-359.938 54.0166,-362.45 63.6293,-366.905 64.3094,-359.938"/>
<text text-anchor="middle" x="240" y="-366" font-family="Helvetica,sans-Serif" font-size="10.00"> newDest</text>
</g>
<!-- Node20 -->
<g id="node20" class="node"><title>Node20</title>
<g id="a_node20"><a xlink:href="../../d1/d31/classapplication_1_1_turtle.html" target="_top" xlink:title="application.Turtle">
<polygon fill="white" stroke="black" points="462.5,-435.5 462.5,-454.5 559.5,-454.5 559.5,-435.5 462.5,-435.5"/>
<text text-anchor="middle" x="511" y="-442.5" font-family="Helvetica,sans-Serif" font-size="10.00">application.Turtle</text>
</a>
</g>
</g>
<!-- Node16&#45;&gt;Node20 -->
<g id="edge25" class="edge"><title>Node16&#45;&gt;Node20</title>
<path fill="none" stroke="#9a32cd" stroke-dasharray="5,2" d="M48.5251,-374.656C74.9873,-393.873 123.187,-425.668 170,-440 270.336,-470.719 395.253,-461.19 462.244,-452.494"/>
<polygon fill="#9a32cd" stroke="#9a32cd" points="50.5402,-371.794 40.4178,-368.665 46.38,-377.423 50.5402,-371.794"/>
<text text-anchor="middle" x="240" y="-463" font-family="Helvetica,sans-Serif" font-size="10.00"> myLoc</text>
</g>
<!-- Node17 -->
<g id="node17" class="node"><title>Node17</title>
<polygon fill="white" stroke="#bfbfbf" points="192,-233.5 192,-252.5 288,-252.5 288,-233.5 192,-233.5"/>
<text text-anchor="middle" x="240" y="-240.5" font-family="Helvetica,sans-Serif" font-size="10.00">GraphicsContext</text>
</g>
<!-- Node17&#45;&gt;Node13 -->
<g id="edge16" class="edge"><title>Node17&#45;&gt;Node13</title>
<path fill="none" stroke="#9a32cd" stroke-dasharray="5,2" d="M256.404,-225.933C272.432,-209.558 299.18,-185.9 328,-176 376.113,-159.473 435.694,-163.338 473.289,-168.483"/>
<polygon fill="#9a32cd" stroke="#9a32cd" points="253.768,-223.627 249.435,-233.295 258.851,-228.439 253.768,-223.627"/>
<text text-anchor="middle" x="382" y="-179" font-family="Helvetica,sans-Serif" font-size="10.00"> linesGC</text>
</g>
<!-- Node17&#45;&gt;Node18 -->
<g id="edge21" class="edge"><title>Node17&#45;&gt;Node18</title>
<path fill="none" stroke="#9a32cd" stroke-dasharray="5,2" d="M273.688,-256.367C328.668,-278.85 438.351,-323.701 486.461,-343.374"/>
<polygon fill="#9a32cd" stroke="#9a32cd" points="274.982,-253.115 264.401,-252.569 272.333,-259.594 274.982,-253.115"/>
<text text-anchor="middle" x="382" y="-324" font-family="Helvetica,sans-Serif" font-size="10.00"> turtleGC</text>
</g>
<!-- Node17&#45;&gt;Node21 -->
<g id="edge30" class="edge"><title>Node17&#45;&gt;Node21</title>
<path fill="none" stroke="#9a32cd" stroke-dasharray="5,2" d="M298.266,-246.406C344.236,-249.14 408.415,-252.958 454.037,-255.671"/>
<polygon fill="#9a32cd" stroke="#9a32cd" points="298.354,-242.905 288.164,-245.805 297.939,-249.893 298.354,-242.905"/>
<text text-anchor="middle" x="382" y="-258" font-family="Helvetica,sans-Serif" font-size="10.00"> backgroundContext</text>
</g>
<!-- Node18&#45;&gt;Node7 -->
<g id="edge19" class="edge"><title>Node18&#45;&gt;Node7</title>
<path fill="none" stroke="#9a32cd" stroke-dasharray="5,2" d="M561.818,-346.929C655.914,-335.463 859.692,-310.631 964.248,-297.89"/>
<polygon fill="#9a32cd" stroke="#9a32cd" points="561.213,-343.477 551.71,-348.161 562.06,-350.426 561.213,-343.477"/>
<text text-anchor="middle" x="753" y="-337" font-family="Helvetica,sans-Serif" font-size="10.00"> myTurtleView</text>
</g>
<!-- Node19 -->
<g id="node19" class="node"><title>Node19</title>
<polygon fill="white" stroke="#bfbfbf" points="206,-411.5 206,-430.5 274,-430.5 274,-411.5 206,-411.5"/>
<text text-anchor="middle" x="240" y="-418.5" font-family="Helvetica,sans-Serif" font-size="10.00">ImageView</text>
</g>
<!-- Node19&#45;&gt;Node18 -->
<g id="edge23" class="edge"><title>Node19&#45;&gt;Node18</title>
<path fill="none" stroke="#9a32cd" stroke-dasharray="5,2" d="M284.082,-417.545C324.16,-413.49 385.169,-405.155 436,-389 456.832,-382.379 479.196,-370.813 493.819,-362.578"/>
<polygon fill="#9a32cd" stroke="#9a32cd" points="283.728,-414.063 274.111,-418.509 284.402,-421.03 283.728,-414.063"/>
<text text-anchor="middle" x="382" y="-414" font-family="Helvetica,sans-Serif" font-size="10.00"> myTurtle</text>
</g>
<!-- Node19&#45;&gt;Node20 -->
<g id="edge26" class="edge"><title>Node19&#45;&gt;Node20</title>
<path fill="none" stroke="#9a32cd" stroke-dasharray="5,2" d="M284.472,-424.879C333.195,-429.226 411.949,-436.252 462.325,-440.746"/>
<polygon fill="#9a32cd" stroke="#9a32cd" points="284.526,-421.37 274.254,-423.967 283.904,-428.342 284.526,-421.37"/>
<text text-anchor="middle" x="382" y="-440" font-family="Helvetica,sans-Serif" font-size="10.00"> myImage</text>
</g>
<!-- Node20&#45;&gt;Node7 -->
<g id="edge24" class="edge"><title>Node20&#45;&gt;Node7</title>
<path fill="none" stroke="#9a32cd" stroke-dasharray="5,2" d="M555.439,-432.701C618.633,-414.731 739.561,-380.056 842,-349 897.872,-332.061 962.809,-311.339 999.59,-299.504"/>
<polygon fill="#9a32cd" stroke="#9a32cd" points="554.466,-429.338 545.804,-435.438 556.379,-436.072 554.466,-429.338"/>
<text text-anchor="middle" x="753" y="-403" font-family="Helvetica,sans-Serif" font-size="10.00"> myTurtle</text>
</g>
<!-- Node21&#45;&gt;Node7 -->
<g id="edge28" class="edge"><title>Node21&#45;&gt;Node7</title>
<path fill="none" stroke="#9a32cd" stroke-dasharray="5,2" d="M578.058,-262.961C677.681,-268.934 865.216,-280.179 964.133,-286.111"/>
<polygon fill="#9a32cd" stroke="#9a32cd" points="578.011,-259.452 567.819,-262.347 577.592,-266.439 578.011,-259.452"/>
<text text-anchor="middle" x="753" y="-282" font-family="Helvetica,sans-Serif" font-size="10.00"> myBackgroundView</text>
</g>
</g>
</svg>
        <g id="navigator" transform="translate(0 0)" fill="#404254">
                <rect fill="#f2f5e9" fill-opacity="0.5" stroke="#606060" stroke-width=".5" x="0" y="0" width="60" height="60"/>
                <use id="zoomplus" xlink:href="#zoomPlus" x="17" y="9" onmousedown="handleZoom(evt,'in')"/>
                <use id="zoomminus" xlink:href="#zoomMin" x="42" y="9" onmousedown="handleZoom(evt,'out')"/>
                <use id="reset" xlink:href="#resetDef" x="30" y="36" onmousedown="handleReset()"/>
                <g id="arrowUp" xlink:href="#dirArrow" transform="translate(30 24)" onmousedown="handlePan(0,-1)">
                  <use xlink:href="#rim" fill="#404040">
                        <set attributeName="fill" to="#808080" begin="arrowUp.mouseover" end="arrowUp.mouseout"/>
                  </use>
                  <path fill="none" stroke="white" stroke-width="1.5" d="M0,-3.0v7 M-2.5,-0.5L0,-3.0L2.5,-0.5"/>
                </g>
                <g id="arrowRight" xlink:href="#dirArrow" transform="rotate(90) translate(36 -43)" onmousedown="handlePan(1,0)">
                  <use xlink:href="#rim" fill="#404040">
                        <set attributeName="fill" to="#808080" begin="arrowRight.mouseover" end="arrowRight.mouseout"/>
                  </use>
                  <path fill="none" stroke="white" stroke-width="1.5" d="M0,-3.0v7 M-2.5,-0.5L0,-3.0L2.5,-0.5"/>
                </g>
                <g id="arrowDown" xlink:href="#dirArrow" transform="rotate(180) translate(-30 -48)" onmousedown="handlePan(0,1)">
                  <use xlink:href="#rim" fill="#404040">
                        <set attributeName="fill" to="#808080" begin="arrowDown.mouseover" end="arrowDown.mouseout"/>
                  </use>
                  <path fill="none" stroke="white" stroke-width="1.5" d="M0,-3.0v7 M-2.5,-0.5L0,-3.0L2.5,-0.5"/>
                </g>
                <g id="arrowLeft" xlink:href="#dirArrow" transform="rotate(270) translate(-36 17)" onmousedown="handlePan(-1,0)">
                  <use xlink:href="#rim" fill="#404040">
                        <set attributeName="fill" to="#808080" begin="arrowLeft.mouseover" end="arrowLeft.mouseout"/>
                  </use>
                  <path fill="none" stroke="white" stroke-width="1.5" d="M0,-3.0v7 M-2.5,-0.5L0,-3.0L2.5,-0.5"/>
                </g>
        </g>
        <svg viewBox="0 0 15 15" width="100%" height="30px" preserveAspectRatio="xMaxYMin meet">
         <g id="arrow_out" transform="scale(0.3 0.3)">
          <a xlink:href="classcommands_1_1view_commands_1_1turtle_commands_1_1_right__coll__graph_org.svg" target="_base">
           <rect id="button" ry="5" rx="5" y="6" x="6" height="38" width="38"
                fill="#f2f5e9" fill-opacity="0.5" stroke="#606060" stroke-width="1.0"/>
           <path id="arrow"
             d="M 11.500037,31.436501 C 11.940474,20.09759 22.043105,11.32322 32.158766,21.979434 L 37.068811,17.246167 C 37.068811,17.246167 37.088388,32 37.088388,32 L 22.160133,31.978069 C 22.160133,31.978069 26.997745,27.140456 26.997745,27.140456 C 18.528582,18.264221 13.291696,25.230495 11.500037,31.436501 z"
             style="fill:#404040;"/>
          </a>
         </g>
        </svg>
</svg>
