<?xml version="1.0" encoding="UTF-8" standalone="no"?>
<!DOCTYPE svg PUBLIC "-//W3C//DTD SVG 1.1//EN"
 "http://www.w3.org/Graphics/SVG/1.1/DTD/svg11.dtd">
<!-- Generated by graphviz version 2.36.0 (20140111.2315)
 -->
<!-- Title: gui.TurtleImageChooser.chooseTurtleImage Pages: 1 -->
<svg width="1392pt" height="38pt"
 viewBox="0.00 0.00 1392.00 38.00" xmlns="http://www.w3.org/2000/svg" xmlns:xlink="http://www.w3.org/1999/xlink">
<g id="graph0" class="graph" transform="scale(1 1) rotate(0) translate(4 34)">
<title>gui.TurtleImageChooser.chooseTurtleImage</title>
<polygon fill="white" stroke="none" points="-4,4 -4,-34 1388,-34 1388,4 -4,4"/>
<!-- Node1 -->
<g id="node1" class="node"><title>Node1</title>
<polygon fill="#bfbfbf" stroke="black" points="0,-0 0,-30 166,-30 166,-0 0,-0"/>
<text text-anchor="start" x="8" y="-18" font-family="Helvetica,sans-Serif" font-size="10.00">gui.TurtleImageChooser.choose</text>
<text text-anchor="middle" x="83" y="-7" font-family="Helvetica,sans-Serif" font-size="10.00">TurtleImage</text>
</g>
<!-- Node2 -->
<g id="node2" class="node"><title>Node2</title>
<g id="a_node2"><a xlink:href="../../d9/dc5/classgui_1_1_turtle_image_chooser.html#a3b2d5af9d7bda41da0bce5a4350fc391" target="_top" xlink:title="gui.TurtleImageChooser.initialize">
<polygon fill="white" stroke="black" points="202,-5.5 202,-24.5 372,-24.5 372,-5.5 202,-5.5"/>
<text text-anchor="middle" x="287" y="-12.5" font-family="Helvetica,sans-Serif" font-size="10.00">gui.TurtleImageChooser.initialize</text>
</a>
</g>
</g>
<!-- Node1&#45;&gt;Node2 -->
<g id="edge1" class="edge"><title>Node1&#45;&gt;Node2</title>
<path fill="none" stroke="midnightblue" d="M176.184,-15C184.768,-15 193.438,-15 201.943,-15"/>
<polygon fill="midnightblue" stroke="midnightblue" points="176.161,-11.5001 166.161,-15 176.161,-18.5001 176.161,-11.5001"/>
</g>
<!-- Node3 -->
<g id="node3" class="node"><title>Node3</title>
<g id="a_node3"><a xlink:href="../../d9/dc5/classgui_1_1_turtle_image_chooser.html#ade890409215dd5d1706b4feec691438f" target="_top" xlink:title="gui.TurtleImageChooser.start">
<polygon fill="white" stroke="black" points="408,-5.5 408,-24.5 562,-24.5 562,-5.5 408,-5.5"/>
<text text-anchor="middle" x="485" y="-12.5" font-family="Helvetica,sans-Serif" font-size="10.00">gui.TurtleImageChooser.start</text>
</a>
</g>
</g>
<!-- Node2&#45;&gt;Node3 -->
<g id="edge2" class="edge"><title>Node2&#45;&gt;Node3</title>
<path fill="none" stroke="midnightblue" d="M382.288,-15C390.859,-15 399.469,-15 407.853,-15"/>
<polygon fill="midnightblue" stroke="midnightblue" points="382.259,-11.5001 372.259,-15 382.259,-18.5001 382.259,-11.5001"/>
</g>
<!-- Node4 -->
<g id="node4" class="node"><title>Node4</title>
<g id="a_node4"><a xlink:href="../../d6/d2f/classgui_1_1_g_u_i.html#acc6890f8e44269e697b72ff64580fb98" target="_top" xlink:title="gui.GUI.launchTurtleImage\lChooser">
<polygon fill="white" stroke="black" points="598.5,-0 598.5,-30 739.5,-30 739.5,-0 598.5,-0"/>
<text text-anchor="start" x="606.5" y="-18" font-family="Helvetica,sans-Serif" font-size="10.00">gui.GUI.launchTurtleImage</text>
<text text-anchor="middle" x="669" y="-7" font-family="Helvetica,sans-Serif" font-size="10.00">Chooser</text>
</a>
</g>
</g>
<!-- Node3&#45;&gt;Node4 -->
<g id="edge3" class="edge"><title>Node3&#45;&gt;Node4</title>
<path fill="none" stroke="midnightblue" d="M572.304,-15C581.009,-15 589.772,-15 598.272,-15"/>
<polygon fill="midnightblue" stroke="midnightblue" points="572.13,-11.5001 562.13,-15 572.13,-18.5001 572.13,-11.5001"/>
</g>
<!-- Node5 -->
<g id="node5" class="node"><title>Node5</title>
<g id="a_node5"><a xlink:href="../../d6/d2f/classgui_1_1_g_u_i.html#a93dd1959425cd3009366bcc585373af4" target="_top" xlink:title="gui.GUI.createNormalButtons">
<polygon fill="white" stroke="black" points="776,-5.5 776,-24.5 934,-24.5 934,-5.5 776,-5.5"/>
<text text-anchor="middle" x="855" y="-12.5" font-family="Helvetica,sans-Serif" font-size="10.00">gui.GUI.createNormalButtons</text>
</a>
</g>
</g>
<!-- Node4&#45;&gt;Node5 -->
<g id="edge4" class="edge"><title>Node4&#45;&gt;Node5</title>
<path fill="none" stroke="midnightblue" d="M749.629,-15C758.278,-15 767.076,-15 775.709,-15"/>
<polygon fill="midnightblue" stroke="midnightblue" points="749.563,-11.5001 739.563,-15 749.562,-18.5001 749.563,-11.5001"/>
</g>
<!-- Node6 -->
<g id="node6" class="node"><title>Node6</title>
<g id="a_node6"><a xlink:href="../../d6/d2f/classgui_1_1_g_u_i.html#a8946451ec351fce99254ed5efd88b33d" target="_top" xlink:title="gui.GUI.initializeButtons">
<polygon fill="white" stroke="black" points="970,-5.5 970,-24.5 1100,-24.5 1100,-5.5 970,-5.5"/>
<text text-anchor="middle" x="1035" y="-12.5" font-family="Helvetica,sans-Serif" font-size="10.00">gui.GUI.initializeButtons</text>
</a>
</g>
</g>
<!-- Node5&#45;&gt;Node6 -->
<g id="edge5" class="edge"><title>Node5&#45;&gt;Node6</title>
<path fill="none" stroke="midnightblue" d="M944.206,-15C952.857,-15 961.519,-15 969.864,-15"/>
<polygon fill="midnightblue" stroke="midnightblue" points="944.073,-11.5001 934.073,-15 944.073,-18.5001 944.073,-11.5001"/>
</g>
<!-- Node7 -->
<g id="node7" class="node"><title>Node7</title>
<g id="a_node7"><a xlink:href="../../d6/d2f/classgui_1_1_g_u_i.html#a8b2bdbd34755b5a59657b9ad391d2b22" target="_top" xlink:title="gui.GUI.initialize">
<polygon fill="white" stroke="black" points="1136,-5.5 1136,-24.5 1228,-24.5 1228,-5.5 1136,-5.5"/>
<text text-anchor="middle" x="1182" y="-12.5" font-family="Helvetica,sans-Serif" font-size="10.00">gui.GUI.initialize</text>
</a>
</g>
</g>
<!-- Node6&#45;&gt;Node7 -->
<g id="edge6" class="edge"><title>Node6&#45;&gt;Node7</title>
<path fill="none" stroke="midnightblue" d="M1110.18,-15C1118.85,-15 1127.48,-15 1135.59,-15"/>
<polygon fill="midnightblue" stroke="midnightblue" points="1110.02,-11.5001 1100.02,-15 1110.02,-18.5001 1110.02,-11.5001"/>
</g>
<!-- Node8 -->
<g id="node8" class="node"><title>Node8</title>
<g id="a_node8"><a xlink:href="../../d9/d96/classapplication_1_1_main.html#a998d14807e266e3f3b9e85468fc1ea98" target="_top" xlink:title="application.Main.start">
<polygon fill="white" stroke="black" points="1264.5,-5.5 1264.5,-24.5 1383.5,-24.5 1383.5,-5.5 1264.5,-5.5"/>
<text text-anchor="middle" x="1324" y="-12.5" font-family="Helvetica,sans-Serif" font-size="10.00">application.Main.start</text>
</a>
</g>
</g>
<!-- Node7&#45;&gt;Node8 -->
<g id="edge7" class="edge"><title>Node7&#45;&gt;Node8</title>
<path fill="none" stroke="midnightblue" d="M1238.34,-15C1246.93,-15 1255.81,-15 1264.46,-15"/>
<polygon fill="midnightblue" stroke="midnightblue" points="1238.07,-11.5001 1228.07,-15 1238.07,-18.5001 1238.07,-11.5001"/>
</g>
</g>
</svg>
