<?xml version="1.0" encoding="UTF-8" standalone="no"?>
<!DOCTYPE svg PUBLIC "-//W3C//DTD SVG 1.1//EN"
 "http://www.w3.org/Graphics/SVG/1.1/DTD/svg11.dtd">
<!-- Generated by graphviz version 2.36.0 (20140111.2315)
 -->
<!-- Title: gui.TurtleImageChooser.start Pages: 1 -->
<svg width="984pt" height="38pt"
 viewBox="0.00 0.00 984.00 38.00" xmlns="http://www.w3.org/2000/svg" xmlns:xlink="http://www.w3.org/1999/xlink">
<g id="graph0" class="graph" transform="scale(1 1) rotate(0) translate(4 34)">
<title>gui.TurtleImageChooser.start</title>
<polygon fill="white" stroke="none" points="-4,4 -4,-34 980,-34 980,4 -4,4"/>
<!-- Node1 -->
<g id="node1" class="node"><title>Node1</title>
<polygon fill="#bfbfbf" stroke="black" points="0,-5.5 0,-24.5 154,-24.5 154,-5.5 0,-5.5"/>
<text text-anchor="middle" x="77" y="-12.5" font-family="Helvetica,sans-Serif" font-size="10.00">gui.TurtleImageChooser.start</text>
</g>
<!-- Node2 -->
<g id="node2" class="node"><title>Node2</title>
<g id="a_node2"><a xlink:href="../../d6/d2f/classgui_1_1_g_u_i.html#acc6890f8e44269e697b72ff64580fb98" target="_top" xlink:title="gui.GUI.launchTurtleImage\lChooser">
<polygon fill="white" stroke="black" points="190.5,-0 190.5,-30 331.5,-30 331.5,-0 190.5,-0"/>
<text text-anchor="start" x="198.5" y="-18" font-family="Helvetica,sans-Serif" font-size="10.00">gui.GUI.launchTurtleImage</text>
<text text-anchor="middle" x="261" y="-7" font-family="Helvetica,sans-Serif" font-size="10.00">Chooser</text>
</a>
</g>
</g>
<!-- Node1&#45;&gt;Node2 -->
<g id="edge1" class="edge"><title>Node1&#45;&gt;Node2</title>
<path fill="none" stroke="midnightblue" d="M164.304,-15C173.009,-15 181.772,-15 190.272,-15"/>
<polygon fill="midnightblue" stroke="midnightblue" points="164.13,-11.5001 154.13,-15 164.13,-18.5001 164.13,-11.5001"/>
</g>
<!-- Node3 -->
<g id="node3" class="node"><title>Node3</title>
<g id="a_node3"><a xlink:href="../../d6/d2f/classgui_1_1_g_u_i.html#a93dd1959425cd3009366bcc585373af4" target="_top" xlink:title="gui.GUI.createNormalButtons">
<polygon fill="white" stroke="black" points="368,-5.5 368,-24.5 526,-24.5 526,-5.5 368,-5.5"/>
<text text-anchor="middle" x="447" y="-12.5" font-family="Helvetica,sans-Serif" font-size="10.00">gui.GUI.createNormalButtons</text>
</a>
</g>
</g>
<!-- Node2&#45;&gt;Node3 -->
<g id="edge2" class="edge"><title>Node2&#45;&gt;Node3</title>
<path fill="none" stroke="midnightblue" d="M341.629,-15C350.278,-15 359.076,-15 367.709,-15"/>
<polygon fill="midnightblue" stroke="midnightblue" points="341.563,-11.5001 331.563,-15 341.562,-18.5001 341.563,-11.5001"/>
</g>
<!-- Node4 -->
<g id="node4" class="node"><title>Node4</title>
<g id="a_node4"><a xlink:href="../../d6/d2f/classgui_1_1_g_u_i.html#a8946451ec351fce99254ed5efd88b33d" target="_top" xlink:title="gui.GUI.initializeButtons">
<polygon fill="white" stroke="black" points="562,-5.5 562,-24.5 692,-24.5 692,-5.5 562,-5.5"/>
<text text-anchor="middle" x="627" y="-12.5" font-family="Helvetica,sans-Serif" font-size="10.00">gui.GUI.initializeButtons</text>
</a>
</g>
</g>
<!-- Node3&#45;&gt;Node4 -->
<g id="edge3" class="edge"><title>Node3&#45;&gt;Node4</title>
<path fill="none" stroke="midnightblue" d="M536.206,-15C544.857,-15 553.519,-15 561.864,-15"/>
<polygon fill="midnightblue" stroke="midnightblue" points="536.073,-11.5001 526.073,-15 536.073,-18.5001 536.073,-11.5001"/>
</g>
<!-- Node5 -->
<g id="node5" class="node"><title>Node5</title>
<g id="a_node5"><a xlink:href="../../d6/d2f/classgui_1_1_g_u_i.html#a8b2bdbd34755b5a59657b9ad391d2b22" target="_top" xlink:title="gui.GUI.initialize">
<polygon fill="white" stroke="black" points="728,-5.5 728,-24.5 820,-24.5 820,-5.5 728,-5.5"/>
<text text-anchor="middle" x="774" y="-12.5" font-family="Helvetica,sans-Serif" font-size="10.00">gui.GUI.initialize</text>
</a>
</g>
</g>
<!-- Node4&#45;&gt;Node5 -->
<g id="edge4" class="edge"><title>Node4&#45;&gt;Node5</title>
<path fill="none" stroke="midnightblue" d="M702.18,-15C710.846,-15 719.481,-15 727.587,-15"/>
<polygon fill="midnightblue" stroke="midnightblue" points="702.021,-11.5001 692.021,-15 702.021,-18.5001 702.021,-11.5001"/>
</g>
<!-- Node6 -->
<g id="node6" class="node"><title>Node6</title>
<g id="a_node6"><a xlink:href="../../d9/d96/classapplication_1_1_main.html#a998d14807e266e3f3b9e85468fc1ea98" target="_top" xlink:title="application.Main.start">
<polygon fill="white" stroke="black" points="856.5,-5.5 856.5,-24.5 975.5,-24.5 975.5,-5.5 856.5,-5.5"/>
<text text-anchor="middle" x="916" y="-12.5" font-family="Helvetica,sans-Serif" font-size="10.00">application.Main.start</text>
</a>
</g>
</g>
<!-- Node5&#45;&gt;Node6 -->
<g id="edge5" class="edge"><title>Node5&#45;&gt;Node6</title>
<path fill="none" stroke="midnightblue" d="M830.345,-15C838.926,-15 847.814,-15 856.462,-15"/>
<polygon fill="midnightblue" stroke="midnightblue" points="830.068,-11.5001 820.068,-15 830.067,-18.5001 830.068,-11.5001"/>
</g>
</g>
</svg>
