<?xml version="1.0" encoding="UTF-8" standalone="no"?>
<!DOCTYPE svg PUBLIC "-//W3C//DTD SVG 1.1//EN"
 "http://www.w3.org/Graphics/SVG/1.1/DTD/svg11.dtd">
<!-- Generated by graphviz version 2.36.0 (20140111.2315)
 -->
<!-- Title: gui.TurtleImageChooser.initialize Pages: 1 -->
<svg width="560pt" height="61pt"
 viewBox="0.00 0.00 560.00 61.00" xmlns="http://www.w3.org/2000/svg" xmlns:xlink="http://www.w3.org/1999/xlink">
<g id="graph0" class="graph" transform="scale(1 1) rotate(0) translate(4 57)">
<title>gui.TurtleImageChooser.initialize</title>
<polygon fill="white" stroke="none" points="-4,4 -4,-57 556,-57 556,4 -4,4"/>
<!-- Node1 -->
<g id="node1" class="node"><title>Node1</title>
<polygon fill="#bfbfbf" stroke="black" points="0,-6.5 0,-25.5 170,-25.5 170,-6.5 0,-6.5"/>
<text text-anchor="middle" x="85" y="-13.5" font-family="Helvetica,sans-Serif" font-size="10.00">gui.TurtleImageChooser.initialize</text>
</g>
<!-- Node2 -->
<g id="node2" class="node"><title>Node2</title>
<g id="a_node2"><a xlink:href="../../d9/dc5/classgui_1_1_turtle_image_chooser.html#a832fda79e80b22c6d9602340d8516739" target="_top" xlink:title="gui.TurtleImageChooser.choose\lTurtleImage">
<polygon fill="white" stroke="black" points="206,-23 206,-53 372,-53 372,-23 206,-23"/>
<text text-anchor="start" x="214" y="-41" font-family="Helvetica,sans-Serif" font-size="10.00">gui.TurtleImageChooser.choose</text>
<text text-anchor="middle" x="289" y="-30" font-family="Helvetica,sans-Serif" font-size="10.00">TurtleImage</text>
</a>
</g>
</g>
<!-- Node1&#45;&gt;Node2 -->
<g id="edge1" class="edge"><title>Node1&#45;&gt;Node2</title>
<path fill="none" stroke="midnightblue" d="M170.203,-25.1707C178.685,-26.0944 187.328,-27.0357 195.886,-27.9678"/>
<polygon fill="midnightblue" stroke="midnightblue" points="195.558,-31.4527 205.878,-29.056 196.316,-24.4938 195.558,-31.4527"/>
</g>
<!-- Node3 -->
<g id="node3" class="node"><title>Node3</title>
<g id="a_node3"><a xlink:href="../../df/dcc/classgui_1_1_turtle_view.html#a24ab0ecbaccb90ec6cd935f4b608e3ee" target="_top" xlink:title="gui.TurtleView.updateTurtle\lImage">
<polygon fill="white" stroke="black" points="408.5,-1 408.5,-31 551.5,-31 551.5,-1 408.5,-1"/>
<text text-anchor="start" x="416.5" y="-19" font-family="Helvetica,sans-Serif" font-size="10.00">gui.TurtleView.updateTurtle</text>
<text text-anchor="middle" x="480" y="-8" font-family="Helvetica,sans-Serif" font-size="10.00">Image</text>
</a>
</g>
</g>
<!-- Node1&#45;&gt;Node3 -->
<g id="edge3" class="edge"><title>Node1&#45;&gt;Node3</title>
<path fill="none" stroke="midnightblue" d="M170.245,-14.4186C182.246,-14.2449 194.436,-14.0964 206,-14 279.775,-13.3852 298.225,-13.3106 372,-14 380.572,-14.0801 389.529,-14.1963 398.455,-14.333"/>
<polygon fill="midnightblue" stroke="midnightblue" points="398.441,-17.8331 408.496,-14.4951 398.554,-10.834 398.441,-17.8331"/>
</g>
<!-- Node2&#45;&gt;Node3 -->
<g id="edge2" class="edge"><title>Node2&#45;&gt;Node3</title>
<path fill="none" stroke="midnightblue" d="M372.074,-28.4465C380.737,-27.438 389.543,-26.413 398.192,-25.4062"/>
<polygon fill="midnightblue" stroke="midnightblue" points="398.728,-28.8675 408.256,-24.2347 397.919,-21.9145 398.728,-28.8675"/>
</g>
</g>
</svg>
