<?xml version="1.0" encoding="UTF-8" standalone="no"?>
<!DOCTYPE svg PUBLIC "-//W3C//DTD SVG 1.1//EN"
 "http://www.w3.org/Graphics/SVG/1.1/DTD/svg11.dtd">
<!-- Generated by graphviz version 2.36.0 (20140111.2315)
 -->
<!-- Title: commands.arithmeticCommands.Multiply Pages: 1 -->
<svg width="322pt" height="248pt"
 viewBox="0.00 0.00 322.00 248.00" xmlns="http://www.w3.org/2000/svg" xmlns:xlink="http://www.w3.org/1999/xlink">
<g id="graph0" class="graph" transform="scale(1 1) rotate(0) translate(4 244)">
<title>commands.arithmeticCommands.Multiply</title>
<polygon fill="white" stroke="none" points="-4,4 -4,-244 318,-244 318,4 -4,4"/>
<!-- Node1 -->
<g id="node1" class="node"><title>Node1</title>
<polygon fill="#bfbfbf" stroke="black" points="132.5,-1 132.5,-31 313.5,-31 313.5,-1 132.5,-1"/>
<text text-anchor="start" x="140.5" y="-19" font-family="Helvetica,sans-Serif" font-size="10.00">commands.arithmeticCommands.</text>
<text text-anchor="middle" x="223" y="-8" font-family="Helvetica,sans-Serif" font-size="10.00">Multiply</text>
</g>
<!-- Node2 -->
<g id="node2" class="node"><title>Node2</title>
<g id="a_node2"><a xlink:href="../../dc/d7b/classcommands_1_1arithmetic_commands_1_1_arithmetic.html" target="_top" xlink:title="commands.arithmeticCommands.\lArithmetic">
<polygon fill="white" stroke="black" points="132.5,-71 132.5,-101 313.5,-101 313.5,-71 132.5,-71"/>
<text text-anchor="start" x="140.5" y="-89" font-family="Helvetica,sans-Serif" font-size="10.00">commands.arithmeticCommands.</text>
<text text-anchor="middle" x="223" y="-78" font-family="Helvetica,sans-Serif" font-size="10.00">Arithmetic</text>
</a>
</g>
</g>
<!-- Node2&#45;&gt;Node1 -->
<g id="edge1" class="edge"><title>Node2&#45;&gt;Node1</title>
<path fill="none" stroke="midnightblue" d="M223,-60.7688C223,-50.8141 223,-39.6384 223,-31.0716"/>
<polygon fill="midnightblue" stroke="midnightblue" points="219.5,-60.9103 223,-70.9104 226.5,-60.9104 219.5,-60.9103"/>
</g>
<!-- Node3 -->
<g id="node3" class="node"><title>Node3</title>
<g id="a_node3"><a xlink:href="../../dc/d3e/classcommands_1_1_command_center.html" target="_top" xlink:title="commands.CommandCenter">
<polygon fill="white" stroke="black" points="60,-140.5 60,-159.5 216,-159.5 216,-140.5 60,-140.5"/>
<text text-anchor="middle" x="138" y="-147.5" font-family="Helvetica,sans-Serif" font-size="10.00">commands.CommandCenter</text>
</a>
</g>
</g>
<!-- Node3&#45;&gt;Node2 -->
<g id="edge2" class="edge"><title>Node3&#45;&gt;Node2</title>
<path fill="none" stroke="midnightblue" d="M158.165,-134.292C171.971,-124.221 190.17,-110.946 203.772,-101.025"/>
<polygon fill="midnightblue" stroke="midnightblue" points="155.835,-131.658 149.819,-140.379 159.961,-137.314 155.835,-131.658"/>
</g>
<!-- Node4 -->
<g id="node4" class="node"><title>Node4</title>
<g id="a_node4"><a xlink:href="../../d1/d4d/interfacecommands_1_1view_commands_1_1turtle_commands_1_1_executable.html" target="_top" xlink:title="commands.viewCommands.turtle\lCommands.Executable">
<polygon fill="white" stroke="black" points="0,-209 0,-239 178,-239 178,-209 0,-209"/>
<text text-anchor="start" x="8" y="-227" font-family="Helvetica,sans-Serif" font-size="10.00">commands.viewCommands.turtle</text>
<text text-anchor="middle" x="89" y="-216" font-family="Helvetica,sans-Serif" font-size="10.00">Commands.Executable</text>
</a>
</g>
</g>
<!-- Node4&#45;&gt;Node3 -->
<g id="edge3" class="edge"><title>Node4&#45;&gt;Node3</title>
<path fill="none" stroke="midnightblue" d="M104.467,-200.273C113.827,-186.52 125.232,-169.762 132.039,-159.759"/>
<polygon fill="midnightblue" stroke="midnightblue" points="101.414,-198.539 98.6808,-208.775 107.201,-202.477 101.414,-198.539"/>
</g>
<!-- Node5 -->
<g id="node5" class="node"><title>Node5</title>
<polygon fill="white" stroke="#bfbfbf" points="196,-214.5 196,-233.5 308,-233.5 308,-214.5 196,-214.5"/>
<text text-anchor="middle" x="252" y="-221.5" font-family="Helvetica,sans-Serif" font-size="10.00">ArrayList&lt; Object &gt;</text>
</g>
<!-- Node5&#45;&gt;Node2 -->
<g id="edge5" class="edge"><title>Node5&#45;&gt;Node2</title>
<path fill="none" stroke="#9a32cd" stroke-dasharray="5,2" d="M248.087,-204.649C242.248,-177.269 231.377,-126.283 226.071,-101.404"/>
<polygon fill="#9a32cd" stroke="#9a32cd" points="244.677,-205.442 250.186,-214.493 251.523,-203.983 244.677,-205.442"/>
<text text-anchor="middle" x="259" y="-147.5" font-family="Helvetica,sans-Serif" font-size="10.00"> params</text>
</g>
<!-- Node5&#45;&gt;Node3 -->
<g id="edge4" class="edge"><title>Node5&#45;&gt;Node3</title>
<path fill="none" stroke="#9a32cd" stroke-dasharray="5,2" d="M217.665,-210.661C204.698,-205.252 190.152,-198.244 178,-190 165.158,-181.288 152.744,-168.231 145.239,-159.664"/>
<polygon fill="#9a32cd" stroke="#9a32cd" points="216.623,-214.014 227.208,-214.48 219.224,-207.515 216.623,-214.014"/>
<text text-anchor="middle" x="208" y="-181.5" font-family="Helvetica,sans-Serif" font-size="10.00"> parameters</text>
</g>
</g>
</svg>
