<?xml version="1.0" encoding="UTF-8" standalone="no"?>
<!DOCTYPE svg PUBLIC "-//W3C//DTD SVG 1.1//EN"
 "http://www.w3.org/Graphics/SVG/1.1/DTD/svg11.dtd">
<!-- Generated by graphviz version 2.36.0 (20140111.2315)
 -->
<!-- Title: application.Turtle Pages: 1 -->
<svg width="148pt" height="96pt"
 viewBox="0.00 0.00 148.00 96.00" xmlns="http://www.w3.org/2000/svg" xmlns:xlink="http://www.w3.org/1999/xlink">
<g id="graph0" class="graph" transform="scale(1 1) rotate(0) translate(4 92)">
<title>application.Turtle</title>
<polygon fill="white" stroke="none" points="-4,4 -4,-92 144,-92 144,4 -4,4"/>
<!-- Node1 -->
<g id="node1" class="node"><title>Node1</title>
<polygon fill="#bfbfbf" stroke="black" points="17.5,-0.5 17.5,-19.5 114.5,-19.5 114.5,-0.5 17.5,-0.5"/>
<text text-anchor="middle" x="66" y="-7.5" font-family="Helvetica,sans-Serif" font-size="10.00">application.Turtle</text>
</g>
<!-- Node2 -->
<g id="node2" class="node"><title>Node2</title>
<polygon fill="white" stroke="#bfbfbf" points="0,-68.5 0,-87.5 54,-87.5 54,-68.5 0,-68.5"/>
<text text-anchor="middle" x="27" y="-75.5" font-family="Helvetica,sans-Serif" font-size="10.00">Point2D</text>
</g>
<!-- Node2&#45;&gt;Node1 -->
<g id="edge1" class="edge"><title>Node2&#45;&gt;Node1</title>
<path fill="none" stroke="#9a32cd" stroke-dasharray="5,2" d="M36.7356,-59.3202C40.4965,-52.6031 44.88,-44.9082 49,-38 52.6317,-31.9105 56.8817,-25.1605 60.2238,-19.9329"/>
<polygon fill="#9a32cd" stroke="#9a32cd" points="33.5683,-57.8147 31.7741,-68.2566 39.6883,-61.2127 33.5683,-57.8147"/>
<text text-anchor="middle" x="66.5" y="-41.5" font-family="Helvetica,sans-Serif" font-size="10.00"> myLoc</text>
</g>
<!-- Node3 -->
<g id="node3" class="node"><title>Node3</title>
<polygon fill="white" stroke="#bfbfbf" points="72,-68.5 72,-87.5 140,-87.5 140,-68.5 72,-68.5"/>
<text text-anchor="middle" x="106" y="-75.5" font-family="Helvetica,sans-Serif" font-size="10.00">ImageView</text>
</g>
<!-- Node3&#45;&gt;Node1 -->
<g id="edge2" class="edge"><title>Node3&#45;&gt;Node1</title>
<path fill="none" stroke="#9a32cd" stroke-dasharray="5,2" d="M96.36,-59.2624C92.6104,-52.5384 88.2097,-44.8539 84,-38 80.2259,-31.8554 75.7259,-25.1054 72.1694,-19.8915"/>
<polygon fill="#9a32cd" stroke="#9a32cd" points="93.4011,-61.1453 101.29,-68.2181 99.5335,-57.7697 93.4011,-61.1453"/>
<text text-anchor="middle" x="114.5" y="-41.5" font-family="Helvetica,sans-Serif" font-size="10.00"> myImage</text>
</g>
</g>
</svg>
