<?xml version="1.0" encoding="UTF-8" standalone="no"?>
<!DOCTYPE svg PUBLIC "-//W3C//DTD SVG 1.1//EN"
 "http://www.w3.org/Graphics/SVG/1.1/DTD/svg11.dtd">
<!-- Generated by graphviz version 2.36.0 (20140111.2315)
 -->
<!-- Title: commands.viewCommands.turtleCommands.Towards.execute Pages: 1 -->
<!--zoomable 366 -->
<svg id="main" version="1.1" xmlns="http://www.w3.org/2000/svg" xmlns:xlink="http://www.w3.org/1999/xlink" xml:space="preserve" onload="init(evt)">
<style type="text/css"><![CDATA[
.edge:hover path { stroke: red; }
.edge:hover polygon { stroke: red; fill: red; }
]]></style>
<script type="text/javascript"><![CDATA[
var edges = document.getElementsByTagName('g');
if (edges && edges.length) {
  for (var i=0;i<edges.length;i++) {
    if (edges[i].id.substr(0,4)=='edge') {
      edges[i].setAttribute('class','edge');
    }
  }
}
]]></script>
        <defs>
                <circle id="rim" cx="0" cy="0" r="7"/>
                <circle id="rim2" cx="0" cy="0" r="3.5"/>
                <g id="zoomPlus">
                        <use xlink:href="#rim" fill="#404040">
                                <set attributeName="fill" to="#808080" begin="zoomplus.mouseover" end="zoomplus.mouseout"/>
                        </use>
                        <path d="M-4,0h8M0,-4v8" fill="none" stroke="white" stroke-width="1.5" pointer-events="none"/>
                </g>
                <g id="zoomMin">
                        <use xlink:href="#rim" fill="#404040">
                                <set attributeName="fill" to="#808080" begin="zoomminus.mouseover" end="zoomminus.mouseout"/>
                        </use>
                        <path d="M-4,0h8" fill="none" stroke="white" stroke-width="1.5" pointer-events="none"/>
                </g>
                <g id="dirArrow">
                        <path fill="none" stroke="white" stroke-width="1.5" d="M0,-3.0v7 M-2.5,-0.5L0,-3.0L2.5,-0.5"/>
                </g>
               <g id="resetDef">
                       <use xlink:href="#rim2" fill="#404040">
                               <set attributeName="fill" to="#808080" begin="reset.mouseover" end="reset.mouseout"/>
                       </use>
               </g>
        </defs>

<script type="text/javascript">
var viewWidth = 1330;
var viewHeight = 366;
var sectionId = 'dynsection-2';
</script>
<script xlink:href="../../svgpan.js"/>
<svg id="graph" class="graph">
<g id="viewport">
<title>commands.viewCommands.turtleCommands.Towards.execute</title>
<polygon fill="white" stroke="none" points="-4,4 -4,-362 1326,-362 1326,4 -4,4"/>
<!-- Node1 -->
<g id="node1" class="node"><title>Node1</title>
<polygon fill="#bfbfbf" stroke="black" points="0,-140 0,-170 178,-170 178,-140 0,-140"/>
<text text-anchor="start" x="8" y="-158" font-family="Helvetica,sans-Serif" font-size="10.00">commands.viewCommands.turtle</text>
<text text-anchor="middle" x="89" y="-147" font-family="Helvetica,sans-Serif" font-size="10.00">Commands.Towards.execute</text>
</g>
<!-- Node2 -->
<g id="node2" class="node"><title>Node2</title>
<g id="a_node2"><a xlink:href="../../d8/d65/classapplication_1_1_view_handler.html#a8a3722771a70075225d9c37dc1ff5e8d" target="_top" xlink:title="application.ViewHandler.get\lTurtleLocation">
<polygon fill="white" stroke="black" points="788.5,-195 788.5,-225 937.5,-225 937.5,-195 788.5,-195"/>
<text text-anchor="start" x="796.5" y="-213" font-family="Helvetica,sans-Serif" font-size="10.00">application.ViewHandler.get</text>
<text text-anchor="middle" x="863" y="-202" font-family="Helvetica,sans-Serif" font-size="10.00">TurtleLocation</text>
</a>
</g>
</g>
<!-- Node1&#45;&gt;Node2 -->
<g id="edge1" class="edge"><title>Node1&#45;&gt;Node2</title>
<path fill="none" stroke="midnightblue" d="M142.849,-170.099C235.084,-195.579 431.857,-246.09 602,-264 667.416,-270.886 687.967,-285.878 750,-264 769.376,-257.167 767.949,-244.813 786,-235 789.951,-232.852 794.118,-230.848 798.383,-228.985"/>
<polygon fill="midnightblue" stroke="midnightblue" points="799.894,-232.149 807.832,-225.132 797.251,-225.667 799.894,-232.149"/>
</g>
<!-- Node4 -->
<g id="node4" class="node"><title>Node4</title>
<g id="a_node4"><a xlink:href="../../d8/d65/classapplication_1_1_view_handler.html#a8a00eb25a7f1d5e3ccc3059e8b717819" target="_top" xlink:title="application.ViewHandler.get\lTurtleOrientation">
<polygon fill="white" stroke="black" points="788.5,-9 788.5,-39 937.5,-39 937.5,-9 788.5,-9"/>
<text text-anchor="start" x="796.5" y="-27" font-family="Helvetica,sans-Serif" font-size="10.00">application.ViewHandler.get</text>
<text text-anchor="middle" x="863" y="-16" font-family="Helvetica,sans-Serif" font-size="10.00">TurtleOrientation</text>
</a>
</g>
</g>
<!-- Node1&#45;&gt;Node4 -->
<g id="edge3" class="edge"><title>Node1&#45;&gt;Node4</title>
<path fill="none" stroke="midnightblue" d="M143.66,-139.97C236.314,-114.691 432.656,-64.0719 602,-40 660.556,-31.6764 727.139,-27.6815 778.266,-25.7649"/>
<polygon fill="midnightblue" stroke="midnightblue" points="778.409,-29.2621 788.278,-25.4086 778.16,-22.2666 778.409,-29.2621"/>
</g>
<!-- Node6 -->
<g id="node6" class="node"><title>Node6</title>
<g id="a_node6"><a xlink:href="../../d8/d65/classapplication_1_1_view_handler.html#af07eafb381b0ea9a1ce68f6ffe8a7428" target="_top" xlink:title="application.ViewHandler.set\lTurtleOrientation">
<polygon fill="white" stroke="black" points="214,-140 214,-170 362,-170 362,-140 214,-140"/>
<text text-anchor="start" x="222" y="-158" font-family="Helvetica,sans-Serif" font-size="10.00">application.ViewHandler.set</text>
<text text-anchor="middle" x="288" y="-147" font-family="Helvetica,sans-Serif" font-size="10.00">TurtleOrientation</text>
</a>
</g>
</g>
<!-- Node1&#45;&gt;Node6 -->
<g id="edge5" class="edge"><title>Node1&#45;&gt;Node6</title>
<path fill="none" stroke="midnightblue" d="M178.128,-155C186.65,-155 195.276,-155 203.748,-155"/>
<polygon fill="midnightblue" stroke="midnightblue" points="203.988,-158.5 213.988,-155 203.988,-151.5 203.988,-158.5"/>
</g>
<!-- Node3 -->
<g id="node3" class="node"><title>Node3</title>
<g id="a_node3"><a xlink:href="../../d1/d31/classapplication_1_1_turtle.html#a802873f2487ab3b6832050e1bef998a5" target="_top" xlink:title="application.Turtle.getLoc">
<polygon fill="white" stroke="black" points="995,-200.5 995,-219.5 1127,-219.5 1127,-200.5 995,-200.5"/>
<text text-anchor="middle" x="1061" y="-207.5" font-family="Helvetica,sans-Serif" font-size="10.00">application.Turtle.getLoc</text>
</a>
</g>
</g>
<!-- Node2&#45;&gt;Node3 -->
<g id="edge2" class="edge"><title>Node2&#45;&gt;Node3</title>
<path fill="none" stroke="midnightblue" d="M937.541,-210C952.956,-210 969.234,-210 984.712,-210"/>
<polygon fill="midnightblue" stroke="midnightblue" points="984.751,-213.5 994.751,-210 984.751,-206.5 984.751,-213.5"/>
</g>
<!-- Node5 -->
<g id="node5" class="node"><title>Node5</title>
<g id="a_node5"><a xlink:href="../../d1/d31/classapplication_1_1_turtle.html#af22147e198fac9068726b95eea235739" target="_top" xlink:title="application.Turtle.getOrientation">
<polygon fill="white" stroke="black" points="976.5,-0.5 976.5,-19.5 1145.5,-19.5 1145.5,-0.5 976.5,-0.5"/>
<text text-anchor="middle" x="1061" y="-7.5" font-family="Helvetica,sans-Serif" font-size="10.00">application.Turtle.getOrientation</text>
</a>
</g>
</g>
<!-- Node4&#45;&gt;Node5 -->
<g id="edge4" class="edge"><title>Node4&#45;&gt;Node5</title>
<path fill="none" stroke="midnightblue" d="M937.541,-18.7471C946.973,-18.0733 956.729,-17.3765 966.426,-16.6838"/>
<polygon fill="midnightblue" stroke="midnightblue" points="966.77,-20.1683 976.495,-15.9646 966.271,-13.1861 966.77,-20.1683"/>
</g>
<!-- Node7 -->
<g id="node7" class="node"><title>Node7</title>
<g id="a_node7"><a xlink:href="../../d1/d31/classapplication_1_1_turtle.html#a624c7cadd7e1f53652383f23c3db603e" target="_top" xlink:title="application.Turtle.setOrientation">
<polygon fill="white" stroke="black" points="398,-123.5 398,-142.5 566,-142.5 566,-123.5 398,-123.5"/>
<text text-anchor="middle" x="482" y="-130.5" font-family="Helvetica,sans-Serif" font-size="10.00">application.Turtle.setOrientation</text>
</a>
</g>
</g>
<!-- Node6&#45;&gt;Node7 -->
<g id="edge6" class="edge"><title>Node6&#45;&gt;Node7</title>
<path fill="none" stroke="midnightblue" d="M362.135,-146.62C370.513,-145.66 379.139,-144.672 387.735,-143.687"/>
<polygon fill="midnightblue" stroke="midnightblue" points="388.259,-147.15 397.796,-142.534 387.462,-140.195 388.259,-147.15"/>
</g>
<!-- Node8 -->
<g id="node8" class="node"><title>Node8</title>
<g id="a_node8"><a xlink:href="../../d8/d65/classapplication_1_1_view_handler.html#ae489ceaa9b5ec67faf3ba22a11cec085" target="_top" xlink:title="application.ViewHandler.update\lTurtleOnView">
<polygon fill="white" stroke="black" points="398.5,-162 398.5,-192 565.5,-192 565.5,-162 398.5,-162"/>
<text text-anchor="start" x="406.5" y="-180" font-family="Helvetica,sans-Serif" font-size="10.00">application.ViewHandler.update</text>
<text text-anchor="middle" x="482" y="-169" font-family="Helvetica,sans-Serif" font-size="10.00">TurtleOnView</text>
</a>
</g>
</g>
<!-- Node6&#45;&gt;Node8 -->
<g id="edge7" class="edge"><title>Node6&#45;&gt;Node8</title>
<path fill="none" stroke="midnightblue" d="M362.135,-163.38C370.758,-164.368 379.643,-165.386 388.489,-166.4"/>
<polygon fill="midnightblue" stroke="midnightblue" points="388.11,-169.879 398.443,-167.54 388.906,-162.925 388.11,-169.879"/>
</g>
<!-- Node8&#45;&gt;Node2 -->
<g id="edge8" class="edge"><title>Node8&#45;&gt;Node2</title>
<path fill="none" stroke="midnightblue" d="M565.705,-184.201C628.632,-189.68 714.888,-197.191 778.107,-202.695"/>
<polygon fill="midnightblue" stroke="midnightblue" points="778.177,-206.215 788.443,-203.595 778.784,-199.241 778.177,-206.215"/>
</g>
<!-- Node8&#45;&gt;Node4 -->
<g id="edge9" class="edge"><title>Node8&#45;&gt;Node4</title>
<path fill="none" stroke="midnightblue" d="M550.078,-161.848C555.761,-159.094 561.172,-155.842 566,-152 591.235,-131.921 576.294,-108.473 602,-89 629.692,-68.0218 713.55,-49.4 778.623,-37.524"/>
<polygon fill="midnightblue" stroke="midnightblue" points="779.264,-40.9649 788.486,-35.7489 778.024,-34.0756 779.264,-40.9649"/>
</g>
<!-- Node9 -->
<g id="node9" class="node"><title>Node9</title>
<g id="a_node9"><a xlink:href="../../d8/d65/classapplication_1_1_view_handler.html#a6f94dbee91670d4c9ae7164f61b8cd03" target="_top" xlink:title="application.ViewHandler.is\lVisible">
<polygon fill="white" stroke="black" points="606,-225 606,-255 746,-255 746,-225 606,-225"/>
<text text-anchor="start" x="614" y="-243" font-family="Helvetica,sans-Serif" font-size="10.00">application.ViewHandler.is</text>
<text text-anchor="middle" x="676" y="-232" font-family="Helvetica,sans-Serif" font-size="10.00">Visible</text>
</a>
</g>
</g>
<!-- Node8&#45;&gt;Node9 -->
<g id="edge10" class="edge"><title>Node8&#45;&gt;Node9</title>
<path fill="none" stroke="midnightblue" d="M528.989,-192.09C556.081,-200.98 590.546,-212.289 619.188,-221.687"/>
<polygon fill="midnightblue" stroke="midnightblue" points="618.461,-225.132 629.054,-224.924 620.644,-218.481 618.461,-225.132"/>
</g>
<!-- Node11 -->
<g id="node11" class="node"><title>Node11</title>
<g id="a_node11"><a xlink:href="../../df/dcc/classgui_1_1_turtle_view.html#adcff447c1d488ddfd13d151067e6db7a" target="_top" xlink:title="gui.TurtleView.rotateAnd\lMoveTurtle">
<polygon fill="white" stroke="black" points="610.5,-313 610.5,-343 741.5,-343 741.5,-313 610.5,-313"/>
<text text-anchor="start" x="618.5" y="-331" font-family="Helvetica,sans-Serif" font-size="10.00">gui.TurtleView.rotateAnd</text>
<text text-anchor="middle" x="676" y="-320" font-family="Helvetica,sans-Serif" font-size="10.00">MoveTurtle</text>
</a>
</g>
</g>
<!-- Node8&#45;&gt;Node11 -->
<g id="edge12" class="edge"><title>Node8&#45;&gt;Node11</title>
<path fill="none" stroke="midnightblue" d="M502.112,-192.031C536.382,-218.982 608.378,-275.604 647.79,-306.601"/>
<polygon fill="midnightblue" stroke="midnightblue" points="645.657,-309.375 655.681,-312.806 649.984,-303.873 645.657,-309.375"/>
</g>
<!-- Node14 -->
<g id="node14" class="node"><title>Node14</title>
<g id="a_node14"><a xlink:href="../../d8/d65/classapplication_1_1_view_handler.html#a308dcaf9847965fa4a3d261347845f56" target="_top" xlink:title="application.ViewHandler.set\lInfoParamsOfTurtleAndLine">
<polygon fill="white" stroke="black" points="602,-99 602,-129 750,-129 750,-99 602,-99"/>
<text text-anchor="start" x="610" y="-117" font-family="Helvetica,sans-Serif" font-size="10.00">application.ViewHandler.set</text>
<text text-anchor="middle" x="676" y="-106" font-family="Helvetica,sans-Serif" font-size="10.00">InfoParamsOfTurtleAndLine</text>
</a>
</g>
</g>
<!-- Node8&#45;&gt;Node14 -->
<g id="edge15" class="edge"><title>Node8&#45;&gt;Node14</title>
<path fill="none" stroke="midnightblue" d="M534.496,-161.961C544.954,-158.774 555.856,-155.357 566,-152 582.15,-146.656 585.953,-144.645 602,-139 608.054,-136.87 614.399,-134.662 620.713,-132.48"/>
<polygon fill="midnightblue" stroke="midnightblue" points="622.25,-135.652 630.565,-129.086 619.97,-129.034 622.25,-135.652"/>
</g>
<!-- Node22 -->
<g id="node22" class="node"><title>Node22</title>
<g id="a_node22"><a xlink:href="../../df/dcc/classgui_1_1_turtle_view.html#afa73e516fcab92ab1c3a6941b6131cb5" target="_top" xlink:title="gui.TurtleView.showTurtle">
<polygon fill="white" stroke="black" points="609.5,-148.5 609.5,-167.5 742.5,-167.5 742.5,-148.5 609.5,-148.5"/>
<text text-anchor="middle" x="676" y="-155.5" font-family="Helvetica,sans-Serif" font-size="10.00">gui.TurtleView.showTurtle</text>
</a>
</g>
</g>
<!-- Node8&#45;&gt;Node22 -->
<g id="edge25" class="edge"><title>Node8&#45;&gt;Node22</title>
<path fill="none" stroke="midnightblue" d="M565.54,-168.832C576.745,-167.723 588.2,-166.59 599.278,-165.493"/>
<polygon fill="midnightblue" stroke="midnightblue" points="599.721,-168.967 609.327,-164.499 599.031,-162.001 599.721,-168.967"/>
</g>
<!-- Node10 -->
<g id="node10" class="node"><title>Node10</title>
<g id="a_node10"><a xlink:href="../../d1/d31/classapplication_1_1_turtle.html#a75e592fccb8420e254ba668429797898" target="_top" xlink:title="application.Turtle.getVisibility">
<polygon fill="white" stroke="black" points="786,-244.5 786,-263.5 940,-263.5 940,-244.5 786,-244.5"/>
<text text-anchor="middle" x="863" y="-251.5" font-family="Helvetica,sans-Serif" font-size="10.00">application.Turtle.getVisibility</text>
</a>
</g>
</g>
<!-- Node9&#45;&gt;Node10 -->
<g id="edge11" class="edge"><title>Node9&#45;&gt;Node10</title>
<path fill="none" stroke="midnightblue" d="M746.15,-245.233C755.748,-245.959 765.704,-246.713 775.568,-247.459"/>
<polygon fill="midnightblue" stroke="midnightblue" points="775.559,-250.968 785.795,-248.233 776.088,-243.988 775.559,-250.968"/>
</g>
<!-- Node12 -->
<g id="node12" class="node"><title>Node12</title>
<g id="a_node12"><a xlink:href="../../df/dcc/classgui_1_1_turtle_view.html#ab9b87d12b06bce95f2b32ee05a89e7d6" target="_top" xlink:title="gui.TurtleView.rotate">
<polygon fill="white" stroke="black" points="806.5,-338.5 806.5,-357.5 919.5,-357.5 919.5,-338.5 806.5,-338.5"/>
<text text-anchor="middle" x="863" y="-345.5" font-family="Helvetica,sans-Serif" font-size="10.00">gui.TurtleView.rotate</text>
</a>
</g>
</g>
<!-- Node11&#45;&gt;Node12 -->
<g id="edge13" class="edge"><title>Node11&#45;&gt;Node12</title>
<path fill="none" stroke="midnightblue" d="M741.704,-334.995C759.299,-336.897 778.372,-338.959 796.036,-340.869"/>
<polygon fill="midnightblue" stroke="midnightblue" points="795.933,-344.378 806.251,-341.973 796.685,-337.418 795.933,-344.378"/>
</g>
<!-- Node13 -->
<g id="node13" class="node"><title>Node13</title>
<g id="a_node13"><a xlink:href="../../d8/d8b/classgui_1_1_view.html#a9df94efe60af56c89531c45f0f3f9624" target="_top" xlink:title="gui.View.setNewPoint">
<polygon fill="white" stroke="black" points="804.5,-300.5 804.5,-319.5 921.5,-319.5 921.5,-300.5 804.5,-300.5"/>
<text text-anchor="middle" x="863" y="-307.5" font-family="Helvetica,sans-Serif" font-size="10.00">gui.View.setNewPoint</text>
</a>
</g>
</g>
<!-- Node11&#45;&gt;Node13 -->
<g id="edge14" class="edge"><title>Node11&#45;&gt;Node13</title>
<path fill="none" stroke="midnightblue" d="M741.704,-321.704C758.776,-320.043 777.241,-318.247 794.458,-316.572"/>
<polygon fill="midnightblue" stroke="midnightblue" points="794.817,-320.053 804.432,-315.601 794.14,-313.086 794.817,-320.053"/>
</g>
<!-- Node14&#45;&gt;Node2 -->
<g id="edge18" class="edge"><title>Node14&#45;&gt;Node2</title>
<path fill="none" stroke="midnightblue" d="M732.509,-129.139C738.676,-131.93 744.651,-135.195 750,-139 771.154,-154.049 764.755,-170.079 786,-185 788.728,-186.916 791.613,-188.692 794.6,-190.339"/>
<polygon fill="midnightblue" stroke="midnightblue" points="793.304,-193.602 803.819,-194.896 796.406,-187.327 793.304,-193.602"/>
</g>
<!-- Node14&#45;&gt;Node4 -->
<g id="edge19" class="edge"><title>Node14&#45;&gt;Node4</title>
<path fill="none" stroke="midnightblue" d="M713.295,-98.9C725.344,-93.2915 738.589,-86.4599 750,-79 767.673,-67.4465 767.556,-58.2781 786,-48 789.211,-46.2109 792.573,-44.5347 796.021,-42.9672"/>
<polygon fill="midnightblue" stroke="midnightblue" points="797.44,-46.1678 805.305,-39.0691 794.729,-39.7138 797.44,-46.1678"/>
</g>
<!-- Node15 -->
<g id="node15" class="node"><title>Node15</title>
<g id="a_node15"><a xlink:href="../../df/dcb/classapplication_1_1_pen_handler.html#a8477a9a258753bb5538ad83a015fb731" target="_top" xlink:title="application.PenHandler.get\lPenStatus">
<polygon fill="white" stroke="black" points="790.5,-107 790.5,-137 935.5,-137 935.5,-107 790.5,-107"/>
<text text-anchor="start" x="798.5" y="-125" font-family="Helvetica,sans-Serif" font-size="10.00">application.PenHandler.get</text>
<text text-anchor="middle" x="863" y="-114" font-family="Helvetica,sans-Serif" font-size="10.00">PenStatus</text>
</a>
</g>
</g>
<!-- Node14&#45;&gt;Node15 -->
<g id="edge16" class="edge"><title>Node14&#45;&gt;Node15</title>
<path fill="none" stroke="midnightblue" d="M750.117,-117.162C759.937,-117.586 770.061,-118.024 780.021,-118.455"/>
<polygon fill="midnightblue" stroke="midnightblue" points="780.179,-121.965 790.321,-118.9 780.482,-114.972 780.179,-121.965"/>
</g>
<!-- Node17 -->
<g id="node17" class="node"><title>Node17</title>
<g id="a_node17"><a xlink:href="../../df/dcb/classapplication_1_1_pen_handler.html#a518bb3076e4d9d105870b0778341a8c0" target="_top" xlink:title="application.PenHandler.set\lThicknessParameter">
<polygon fill="white" stroke="black" points="791,-58 791,-88 935,-88 935,-58 791,-58"/>
<text text-anchor="start" x="799" y="-76" font-family="Helvetica,sans-Serif" font-size="10.00">application.PenHandler.set</text>
<text text-anchor="middle" x="863" y="-65" font-family="Helvetica,sans-Serif" font-size="10.00">ThicknessParameter</text>
</a>
</g>
</g>
<!-- Node14&#45;&gt;Node17 -->
<g id="edge20" class="edge"><title>Node14&#45;&gt;Node17</title>
<path fill="none" stroke="midnightblue" d="M744.837,-98.9659C757.656,-96.1249 771.157,-93.1327 784.254,-90.2303"/>
<polygon fill="midnightblue" stroke="midnightblue" points="785.166,-93.6131 794.172,-88.0323 783.651,-86.779 785.166,-93.6131"/>
</g>
<!-- Node21 -->
<g id="node21" class="node"><title>Node21</title>
<g id="a_node21"><a xlink:href="../../df/dcc/classgui_1_1_turtle_view.html#a978020a0f6ccbc4714b77c71435b0799" target="_top" xlink:title="gui.TurtleView.setTurtleInfo">
<polygon fill="white" stroke="black" points="792.5,-156.5 792.5,-175.5 933.5,-175.5 933.5,-156.5 792.5,-156.5"/>
<text text-anchor="middle" x="863" y="-163.5" font-family="Helvetica,sans-Serif" font-size="10.00">gui.TurtleView.setTurtleInfo</text>
</a>
</g>
</g>
<!-- Node14&#45;&gt;Node21 -->
<g id="edge24" class="edge"><title>Node14&#45;&gt;Node21</title>
<path fill="none" stroke="midnightblue" d="M727.11,-129.033C745.587,-134.491 766.715,-140.633 786,-146 795.365,-148.606 805.404,-151.311 815.017,-153.858"/>
<polygon fill="midnightblue" stroke="midnightblue" points="814.272,-157.281 824.834,-156.444 816.055,-150.512 814.272,-157.281"/>
</g>
<!-- Node16 -->
<g id="node16" class="node"><title>Node16</title>
<g id="a_node16"><a xlink:href="../../de/d5a/classapplication_1_1_pen.html#ab21d78789fb66a90181393d7cc42796c" target="_top" xlink:title="application.Pen.getStatus">
<polygon fill="white" stroke="black" points="991,-126.5 991,-145.5 1131,-145.5 1131,-126.5 991,-126.5"/>
<text text-anchor="middle" x="1061" y="-133.5" font-family="Helvetica,sans-Serif" font-size="10.00">application.Pen.getStatus</text>
</a>
</g>
</g>
<!-- Node15&#45;&gt;Node16 -->
<g id="edge17" class="edge"><title>Node15&#45;&gt;Node16</title>
<path fill="none" stroke="midnightblue" d="M935.592,-127.114C950.253,-128.161 965.765,-129.269 980.679,-130.334"/>
<polygon fill="midnightblue" stroke="midnightblue" points="980.666,-133.842 990.89,-131.064 981.164,-126.86 980.666,-133.842"/>
</g>
<!-- Node18 -->
<g id="node18" class="node"><title>Node18</title>
<g id="a_node18"><a xlink:href="../../df/dcb/classapplication_1_1_pen_handler.html#a307ff6736f97a1aa1706da924d7e642b" target="_top" xlink:title="application.PenHandler.get\lPenWeight">
<polygon fill="white" stroke="black" points="988.5,-77 988.5,-107 1133.5,-107 1133.5,-77 988.5,-77"/>
<text text-anchor="start" x="996.5" y="-95" font-family="Helvetica,sans-Serif" font-size="10.00">application.PenHandler.get</text>
<text text-anchor="middle" x="1061" y="-84" font-family="Helvetica,sans-Serif" font-size="10.00">PenWeight</text>
</a>
</g>
</g>
<!-- Node17&#45;&gt;Node18 -->
<g id="edge21" class="edge"><title>Node17&#45;&gt;Node18</title>
<path fill="none" stroke="midnightblue" d="M935.038,-79.8863C948.966,-81.2365 963.683,-82.6632 977.938,-84.045"/>
<polygon fill="midnightblue" stroke="midnightblue" points="977.927,-87.5602 988.218,-85.0415 978.602,-80.5929 977.927,-87.5602"/>
</g>
<!-- Node20 -->
<g id="node20" class="node"><title>Node20</title>
<g id="a_node20"><a xlink:href="../../d8/ddb/classgui_1_1_line_view.html#ab32d4cf33024aea52dcb5d1092003d85" target="_top" xlink:title="gui.LineView.setThickness">
<polygon fill="white" stroke="black" points="991.5,-38.5 991.5,-57.5 1130.5,-57.5 1130.5,-38.5 991.5,-38.5"/>
<text text-anchor="middle" x="1061" y="-45.5" font-family="Helvetica,sans-Serif" font-size="10.00">gui.LineView.setThickness</text>
</a>
</g>
</g>
<!-- Node17&#45;&gt;Node20 -->
<g id="edge23" class="edge"><title>Node17&#45;&gt;Node20</title>
<path fill="none" stroke="midnightblue" d="M935.038,-63.9391C950.136,-62.0133 966.159,-59.9695 981.517,-58.0106"/>
<polygon fill="midnightblue" stroke="midnightblue" points="982.019,-61.475 991.496,-56.7378 981.134,-54.5312 982.019,-61.475"/>
</g>
<!-- Node19 -->
<g id="node19" class="node"><title>Node19</title>
<g id="a_node19"><a xlink:href="../../de/d5a/classapplication_1_1_pen.html#aaaae5f55fadb97afef2ae286a6119a58" target="_top" xlink:title="application.Pen.getWeight">
<polygon fill="white" stroke="black" points="1182,-82.5 1182,-101.5 1322,-101.5 1322,-82.5 1182,-82.5"/>
<text text-anchor="middle" x="1252" y="-89.5" font-family="Helvetica,sans-Serif" font-size="10.00">application.Pen.getWeight</text>
</a>
</g>
</g>
<!-- Node18&#45;&gt;Node19 -->
<g id="edge22" class="edge"><title>Node18&#45;&gt;Node19</title>
<path fill="none" stroke="midnightblue" d="M1133.72,-92C1146.16,-92 1159.17,-92 1171.8,-92"/>
<polygon fill="midnightblue" stroke="midnightblue" points="1171.82,-95.5001 1181.82,-92 1171.82,-88.5001 1171.82,-95.5001"/>
</g>
</g>
</svg>
        <g id="navigator" transform="translate(0 0)" fill="#404254">
                <rect fill="#f2f5e9" fill-opacity="0.5" stroke="#606060" stroke-width=".5" x="0" y="0" width="60" height="60"/>
                <use id="zoomplus" xlink:href="#zoomPlus" x="17" y="9" onmousedown="handleZoom(evt,'in')"/>
                <use id="zoomminus" xlink:href="#zoomMin" x="42" y="9" onmousedown="handleZoom(evt,'out')"/>
                <use id="reset" xlink:href="#resetDef" x="30" y="36" onmousedown="handleReset()"/>
                <g id="arrowUp" xlink:href="#dirArrow" transform="translate(30 24)" onmousedown="handlePan(0,-1)">
                  <use xlink:href="#rim" fill="#404040">
                        <set attributeName="fill" to="#808080" begin="arrowUp.mouseover" end="arrowUp.mouseout"/>
                  </use>
                  <path fill="none" stroke="white" stroke-width="1.5" d="M0,-3.0v7 M-2.5,-0.5L0,-3.0L2.5,-0.5"/>
                </g>
                <g id="arrowRight" xlink:href="#dirArrow" transform="rotate(90) translate(36 -43)" onmousedown="handlePan(1,0)">
                  <use xlink:href="#rim" fill="#404040">
                        <set attributeName="fill" to="#808080" begin="arrowRight.mouseover" end="arrowRight.mouseout"/>
                  </use>
                  <path fill="none" stroke="white" stroke-width="1.5" d="M0,-3.0v7 M-2.5,-0.5L0,-3.0L2.5,-0.5"/>
                </g>
                <g id="arrowDown" xlink:href="#dirArrow" transform="rotate(180) translate(-30 -48)" onmousedown="handlePan(0,1)">
                  <use xlink:href="#rim" fill="#404040">
                        <set attributeName="fill" to="#808080" begin="arrowDown.mouseover" end="arrowDown.mouseout"/>
                  </use>
                  <path fill="none" stroke="white" stroke-width="1.5" d="M0,-3.0v7 M-2.5,-0.5L0,-3.0L2.5,-0.5"/>
                </g>
                <g id="arrowLeft" xlink:href="#dirArrow" transform="rotate(270) translate(-36 17)" onmousedown="handlePan(-1,0)">
                  <use xlink:href="#rim" fill="#404040">
                        <set attributeName="fill" to="#808080" begin="arrowLeft.mouseover" end="arrowLeft.mouseout"/>
                  </use>
                  <path fill="none" stroke="white" stroke-width="1.5" d="M0,-3.0v7 M-2.5,-0.5L0,-3.0L2.5,-0.5"/>
                </g>
        </g>
        <svg viewBox="0 0 15 15" width="100%" height="30px" preserveAspectRatio="xMaxYMin meet">
         <g id="arrow_out" transform="scale(0.3 0.3)">
          <a xlink:href="classcommands_1_1view_commands_1_1turtle_commands_1_1_towards_abd6801c7d6d99e2cfa7f2a38b10a116a_cgraph_org.svg" target="_base">
           <rect id="button" ry="5" rx="5" y="6" x="6" height="38" width="38"
                fill="#f2f5e9" fill-opacity="0.5" stroke="#606060" stroke-width="1.0"/>
           <path id="arrow"
             d="M 11.500037,31.436501 C 11.940474,20.09759 22.043105,11.32322 32.158766,21.979434 L 37.068811,17.246167 C 37.068811,17.246167 37.088388,32 37.088388,32 L 22.160133,31.978069 C 22.160133,31.978069 26.997745,27.140456 26.997745,27.140456 C 18.528582,18.264221 13.291696,25.230495 11.500037,31.436501 z"
             style="fill:#404040;"/>
          </a>
         </g>
        </svg>
</svg>
