<?xml version="1.0" encoding="UTF-8" standalone="no"?>
<!DOCTYPE svg PUBLIC "-//W3C//DTD SVG 1.1//EN"
 "http://www.w3.org/Graphics/SVG/1.1/DTD/svg11.dtd">
<!-- Generated by graphviz version 2.36.0 (20140111.2315)
 -->
<!-- Title: Graphical Class Hierarchy Pages: 1 -->
<svg width="244pt" height="104pt"
 viewBox="0.00 0.00 244.00 104.00" xmlns="http://www.w3.org/2000/svg" xmlns:xlink="http://www.w3.org/1999/xlink">
<g id="graph0" class="graph" transform="scale(1 1) rotate(0) translate(4 100)">
<title>Graphical Class Hierarchy</title>
<polygon fill="white" stroke="none" points="-4,4 -4,-100 240,-100 240,4 -4,4"/>
<!-- Node1 -->
<g id="node1" class="node"><title>Node1</title>
<polygon fill="white" stroke="#bfbfbf" points="0.5,-38.5 0.5,-57.5 69.5,-57.5 69.5,-38.5 0.5,-38.5"/>
<text text-anchor="middle" x="35" y="-45.5" font-family="Helvetica,sans-Serif" font-size="10.00">Application</text>
</g>
<!-- Node2 -->
<g id="node2" class="node"><title>Node2</title>
<g id="a_node2"><a xlink:href="d9/d96/classapplication_1_1_main.html" target="_top" xlink:title="application.Main">
<polygon fill="white" stroke="black" points="124,-76.5 124,-95.5 218,-95.5 218,-76.5 124,-76.5"/>
<text text-anchor="middle" x="171" y="-83.5" font-family="Helvetica,sans-Serif" font-size="10.00">application.Main</text>
</a>
</g>
</g>
<!-- Node1&#45;&gt;Node2 -->
<g id="edge1" class="edge"><title>Node1&#45;&gt;Node2</title>
<path fill="none" stroke="midnightblue" d="M79.4383,-60.3183C97.8491,-65.5393 118.98,-71.5316 136.197,-76.4141"/>
<polygon fill="midnightblue" stroke="midnightblue" points="80.3894,-56.9501 69.8139,-57.589 78.4796,-63.6845 80.3894,-56.9501"/>
</g>
<!-- Node3 -->
<g id="node3" class="node"><title>Node3</title>
<g id="a_node3"><a xlink:href="d9/dc5/classgui_1_1_turtle_image_chooser.html" target="_top" xlink:title="gui.TurtleImageChooser">
<polygon fill="white" stroke="black" points="106.5,-38.5 106.5,-57.5 235.5,-57.5 235.5,-38.5 106.5,-38.5"/>
<text text-anchor="middle" x="171" y="-45.5" font-family="Helvetica,sans-Serif" font-size="10.00">gui.TurtleImageChooser</text>
</a>
</g>
</g>
<!-- Node1&#45;&gt;Node3 -->
<g id="edge2" class="edge"><title>Node1&#45;&gt;Node3</title>
<path fill="none" stroke="midnightblue" d="M79.8643,-48C88.3702,-48 97.4433,-48 106.434,-48"/>
<polygon fill="midnightblue" stroke="midnightblue" points="79.8139,-44.5001 69.8139,-48 79.8138,-51.5001 79.8139,-44.5001"/>
</g>
<!-- Node4 -->
<g id="node4" class="node"><title>Node4</title>
<g id="a_node4"><a xlink:href="dd/d85/classgui_1_1_web_pop_up.html" target="_top" xlink:title="gui.WebPopUp">
<polygon fill="white" stroke="black" points="128.5,-0.5 128.5,-19.5 213.5,-19.5 213.5,-0.5 128.5,-0.5"/>
<text text-anchor="middle" x="171" y="-7.5" font-family="Helvetica,sans-Serif" font-size="10.00">gui.WebPopUp</text>
</a>
</g>
</g>
<!-- Node1&#45;&gt;Node4 -->
<g id="edge3" class="edge"><title>Node1&#45;&gt;Node4</title>
<path fill="none" stroke="midnightblue" d="M79.4383,-35.6817C97.8491,-30.4607 118.98,-24.4684 136.197,-19.5859"/>
<polygon fill="midnightblue" stroke="midnightblue" points="78.4796,-32.3155 69.8139,-38.411 80.3894,-39.0499 78.4796,-32.3155"/>
</g>
</g>
</svg>
