<?xml version="1.0" encoding="UTF-8" standalone="no"?>
<!DOCTYPE svg PUBLIC "-//W3C//DTD SVG 1.1//EN"
 "http://www.w3.org/Graphics/SVG/1.1/DTD/svg11.dtd">
<!-- Generated by graphviz version 2.36.0 (20140111.2315)
 -->
<!-- Title: Graphical Class Hierarchy Pages: 1 -->
<svg width="204pt" height="104pt"
 viewBox="0.00 0.00 204.00 104.00" xmlns="http://www.w3.org/2000/svg" xmlns:xlink="http://www.w3.org/1999/xlink">
<g id="graph0" class="graph" transform="scale(1 1) rotate(0) translate(4 100)">
<title>Graphical Class Hierarchy</title>
<polygon fill="white" stroke="none" points="-4,4 -4,-100 200,-100 200,4 -4,4"/>
<!-- Node1 -->
<g id="node1" class="node"><title>Node1</title>
<g id="a_node1"><a xlink:href="d8/d4f/interface_tree_1_1_node.html" target="_top" xlink:title="Tree.Node">
<polygon fill="white" stroke="black" points="0.5,-38.5 0.5,-57.5 65.5,-57.5 65.5,-38.5 0.5,-38.5"/>
<text text-anchor="middle" x="33" y="-45.5" font-family="Helvetica,sans-Serif" font-size="10.00">Tree.Node</text>
</a>
</g>
</g>
<!-- Node2 -->
<g id="node2" class="node"><title>Node2</title>
<g id="a_node2"><a xlink:href="de/dc5/class_tree_1_1_bin_node.html" target="_top" xlink:title="Tree.BinNode">
<polygon fill="white" stroke="black" points="109,-76.5 109,-95.5 189,-95.5 189,-76.5 109,-76.5"/>
<text text-anchor="middle" x="149" y="-83.5" font-family="Helvetica,sans-Serif" font-size="10.00">Tree.BinNode</text>
</a>
</g>
</g>
<!-- Node1&#45;&gt;Node2 -->
<g id="edge1" class="edge"><title>Node1&#45;&gt;Node2</title>
<path fill="none" stroke="midnightblue" d="M72.4778,-60.8259C87.7742,-65.9247 105.067,-71.6891 119.242,-76.4141"/>
<polygon fill="midnightblue" stroke="midnightblue" points="73.3607,-57.431 62.767,-57.589 71.147,-64.0717 73.3607,-57.431"/>
</g>
<!-- Node3 -->
<g id="node3" class="node"><title>Node3</title>
<g id="a_node3"><a xlink:href="d0/d1d/class_tree_1_1_const_node.html" target="_top" xlink:title="Tree.ConstNode">
<polygon fill="white" stroke="black" points="103,-38.5 103,-57.5 195,-57.5 195,-38.5 103,-38.5"/>
<text text-anchor="middle" x="149" y="-45.5" font-family="Helvetica,sans-Serif" font-size="10.00">Tree.ConstNode</text>
</a>
</g>
</g>
<!-- Node1&#45;&gt;Node3 -->
<g id="edge2" class="edge"><title>Node1&#45;&gt;Node3</title>
<path fill="none" stroke="midnightblue" d="M75.7775,-48C84.5659,-48 93.8752,-48 102.783,-48"/>
<polygon fill="midnightblue" stroke="midnightblue" points="75.7554,-44.5001 65.7554,-48 75.7553,-51.5001 75.7554,-44.5001"/>
</g>
<!-- Node4 -->
<g id="node4" class="node"><title>Node4</title>
<g id="a_node4"><a xlink:href="d6/d0f/class_tree_1_1_single_node.html" target="_top" xlink:title="Tree.SingleNode">
<polygon fill="white" stroke="black" points="102,-0.5 102,-19.5 196,-19.5 196,-0.5 102,-0.5"/>
<text text-anchor="middle" x="149" y="-7.5" font-family="Helvetica,sans-Serif" font-size="10.00">Tree.SingleNode</text>
</a>
</g>
</g>
<!-- Node1&#45;&gt;Node4 -->
<g id="edge3" class="edge"><title>Node1&#45;&gt;Node4</title>
<path fill="none" stroke="midnightblue" d="M72.4778,-35.1741C87.7742,-30.0753 105.067,-24.3109 119.242,-19.5859"/>
<polygon fill="midnightblue" stroke="midnightblue" points="71.147,-31.9283 62.767,-38.411 73.3607,-38.569 71.147,-31.9283"/>
</g>
</g>
</svg>
