<?xml version="1.0" encoding="UTF-8" standalone="no"?>
<!DOCTYPE svg PUBLIC "-//W3C//DTD SVG 1.1//EN"
 "http://www.w3.org/Graphics/SVG/1.1/DTD/svg11.dtd">
<!-- Generated by graphviz version 2.36.0 (20140111.2315)
 -->
<!-- Title: Graphical Class Hierarchy Pages: 1 -->
<svg width="196pt" height="66pt"
 viewBox="0.00 0.00 196.00 66.00" xmlns="http://www.w3.org/2000/svg" xmlns:xlink="http://www.w3.org/1999/xlink">
<g id="graph0" class="graph" transform="scale(1 1) rotate(0) translate(4 62)">
<title>Graphical Class Hierarchy</title>
<polygon fill="white" stroke="none" points="-4,4 -4,-62 192,-62 192,4 -4,4"/>
<!-- Node1 -->
<g id="node1" class="node"><title>Node1</title>
<polygon fill="white" stroke="#bfbfbf" points="0.5,-19.5 0.5,-38.5 49.5,-38.5 49.5,-19.5 0.5,-19.5"/>
<text text-anchor="middle" x="25" y="-26.5" font-family="Helvetica,sans-Serif" font-size="10.00">Button</text>
</g>
<!-- Node2 -->
<g id="node2" class="node"><title>Node2</title>
<g id="a_node2"><a xlink:href="da/d34/classgui_1_1_image_button.html" target="_top" xlink:title="gui.ImageButton">
<polygon fill="white" stroke="black" points="89,-38.5 89,-57.5 185,-57.5 185,-38.5 89,-38.5"/>
<text text-anchor="middle" x="137" y="-45.5" font-family="Helvetica,sans-Serif" font-size="10.00">gui.ImageButton</text>
</a>
</g>
</g>
<!-- Node1&#45;&gt;Node2 -->
<g id="edge1" class="edge"><title>Node1&#45;&gt;Node2</title>
<path fill="none" stroke="midnightblue" d="M59.5697,-34.7984C68.8248,-36.397 79.0396,-38.1614 88.9076,-39.8659"/>
<polygon fill="midnightblue" stroke="midnightblue" points="60.0476,-31.3292 49.5978,-33.076 58.8561,-38.2271 60.0476,-31.3292"/>
</g>
<!-- Node3 -->
<g id="node3" class="node"><title>Node3</title>
<g id="a_node3"><a xlink:href="d3/d97/classgui_1_1_normal_button.html" target="_top" xlink:title="gui.NormalButton">
<polygon fill="white" stroke="black" points="86.5,-0.5 86.5,-19.5 187.5,-19.5 187.5,-0.5 86.5,-0.5"/>
<text text-anchor="middle" x="137" y="-7.5" font-family="Helvetica,sans-Serif" font-size="10.00">gui.NormalButton</text>
</a>
</g>
</g>
<!-- Node1&#45;&gt;Node3 -->
<g id="edge2" class="edge"><title>Node1&#45;&gt;Node3</title>
<path fill="none" stroke="midnightblue" d="M59.7174,-23.1761C68.0926,-21.7295 77.2463,-20.1484 86.2135,-18.5995"/>
<polygon fill="midnightblue" stroke="midnightblue" points="58.8561,-19.7729 49.5978,-24.924 60.0476,-26.6708 58.8561,-19.7729"/>
</g>
</g>
</svg>
