<?xml version="1.0" encoding="UTF-8" standalone="no"?>
<!DOCTYPE svg PUBLIC "-//W3C//DTD SVG 1.1//EN"
 "http://www.w3.org/Graphics/SVG/1.1/DTD/svg11.dtd">
<!-- Generated by graphviz version 2.36.0 (20140111.2315)
 -->
<!-- Title: commands.viewCommands.turtleCommands.GoTowardsLoc.execute Pages: 1 -->
<svg width="1336pt" height="345pt"
 viewBox="0.00 0.00 1336.00 345.00" xmlns="http://www.w3.org/2000/svg" xmlns:xlink="http://www.w3.org/1999/xlink">
<g id="graph0" class="graph" transform="scale(1 1) rotate(0) translate(4 341)">
<title>commands.viewCommands.turtleCommands.GoTowardsLoc.execute</title>
<polygon fill="white" stroke="none" points="-4,4 -4,-341 1332,-341 1332,4 -4,4"/>
<!-- Node1 -->
<g id="node1" class="node"><title>Node1</title>
<polygon fill="#bfbfbf" stroke="black" points="0,-306 0,-336 184,-336 184,-306 0,-306"/>
<text text-anchor="start" x="8" y="-324" font-family="Helvetica,sans-Serif" font-size="10.00">commands.viewCommands.turtle</text>
<text text-anchor="middle" x="92" y="-313" font-family="Helvetica,sans-Serif" font-size="10.00">Commands.GoTowardsLoc.execute</text>
</g>
<!-- Node2 -->
<g id="node2" class="node"><title>Node2</title>
<g id="a_node2"><a xlink:href="../../d8/d65/classapplication_1_1_view_handler.html#a8a3722771a70075225d9c37dc1ff5e8d" target="_top" xlink:title="application.ViewHandler.get\lTurtleLocation">
<polygon fill="white" stroke="black" points="794.5,-301 794.5,-331 943.5,-331 943.5,-301 794.5,-301"/>
<text text-anchor="start" x="802.5" y="-319" font-family="Helvetica,sans-Serif" font-size="10.00">application.ViewHandler.get</text>
<text text-anchor="middle" x="869" y="-308" font-family="Helvetica,sans-Serif" font-size="10.00">TurtleLocation</text>
</a>
</g>
</g>
<!-- Node1&#45;&gt;Node2 -->
<g id="edge1" class="edge"><title>Node1&#45;&gt;Node2</title>
<path fill="none" stroke="midnightblue" d="M184.181,-320.412C335.792,-319.434 637.514,-317.487 784.134,-316.541"/>
<polygon fill="midnightblue" stroke="midnightblue" points="784.441,-320.039 794.419,-316.475 784.396,-313.039 784.441,-320.039"/>
</g>
<!-- Node4 -->
<g id="node4" class="node"><title>Node4</title>
<g id="a_node4"><a xlink:href="../../d8/d65/classapplication_1_1_view_handler.html#af07eafb381b0ea9a1ce68f6ffe8a7428" target="_top" xlink:title="application.ViewHandler.set\lTurtleOrientation">
<polygon fill="white" stroke="black" points="220,-271 220,-301 368,-301 368,-271 220,-271"/>
<text text-anchor="start" x="228" y="-289" font-family="Helvetica,sans-Serif" font-size="10.00">application.ViewHandler.set</text>
<text text-anchor="middle" x="294" y="-278" font-family="Helvetica,sans-Serif" font-size="10.00">TurtleOrientation</text>
</a>
</g>
</g>
<!-- Node1&#45;&gt;Node4 -->
<g id="edge3" class="edge"><title>Node1&#45;&gt;Node4</title>
<path fill="none" stroke="midnightblue" d="M178.979,-305.954C189.222,-304.161 199.665,-302.334 209.868,-300.548"/>
<polygon fill="midnightblue" stroke="midnightblue" points="210.726,-303.951 219.973,-298.78 209.519,-297.056 210.726,-303.951"/>
</g>
<!-- Node3 -->
<g id="node3" class="node"><title>Node3</title>
<g id="a_node3"><a xlink:href="../../d1/d31/classapplication_1_1_turtle.html#a802873f2487ab3b6832050e1bef998a5" target="_top" xlink:title="application.Turtle.getLoc">
<polygon fill="white" stroke="black" points="1001,-306.5 1001,-325.5 1133,-325.5 1133,-306.5 1001,-306.5"/>
<text text-anchor="middle" x="1067" y="-313.5" font-family="Helvetica,sans-Serif" font-size="10.00">application.Turtle.getLoc</text>
</a>
</g>
</g>
<!-- Node2&#45;&gt;Node3 -->
<g id="edge2" class="edge"><title>Node2&#45;&gt;Node3</title>
<path fill="none" stroke="midnightblue" d="M943.541,-316C958.956,-316 975.234,-316 990.712,-316"/>
<polygon fill="midnightblue" stroke="midnightblue" points="990.751,-319.5 1000.75,-316 990.751,-312.5 990.751,-319.5"/>
</g>
<!-- Node5 -->
<g id="node5" class="node"><title>Node5</title>
<g id="a_node5"><a xlink:href="../../d1/d31/classapplication_1_1_turtle.html#a624c7cadd7e1f53652383f23c3db603e" target="_top" xlink:title="application.Turtle.setOrientation">
<polygon fill="white" stroke="black" points="404,-276.5 404,-295.5 572,-295.5 572,-276.5 404,-276.5"/>
<text text-anchor="middle" x="488" y="-283.5" font-family="Helvetica,sans-Serif" font-size="10.00">application.Turtle.setOrientation</text>
</a>
</g>
</g>
<!-- Node4&#45;&gt;Node5 -->
<g id="edge4" class="edge"><title>Node4&#45;&gt;Node5</title>
<path fill="none" stroke="midnightblue" d="M368.135,-286C376.513,-286 385.139,-286 393.735,-286"/>
<polygon fill="midnightblue" stroke="midnightblue" points="393.796,-289.5 403.796,-286 393.796,-282.5 393.796,-289.5"/>
</g>
<!-- Node6 -->
<g id="node6" class="node"><title>Node6</title>
<g id="a_node6"><a xlink:href="../../d8/d65/classapplication_1_1_view_handler.html#ae489ceaa9b5ec67faf3ba22a11cec085" target="_top" xlink:title="application.ViewHandler.update\lTurtleOnView">
<polygon fill="white" stroke="black" points="404.5,-214 404.5,-244 571.5,-244 571.5,-214 404.5,-214"/>
<text text-anchor="start" x="412.5" y="-232" font-family="Helvetica,sans-Serif" font-size="10.00">application.ViewHandler.update</text>
<text text-anchor="middle" x="488" y="-221" font-family="Helvetica,sans-Serif" font-size="10.00">TurtleOnView</text>
</a>
</g>
</g>
<!-- Node4&#45;&gt;Node6 -->
<g id="edge5" class="edge"><title>Node4&#45;&gt;Node6</title>
<path fill="none" stroke="midnightblue" d="M345.697,-270.949C370.523,-263.579 400.594,-254.652 426.602,-246.931"/>
<polygon fill="midnightblue" stroke="midnightblue" points="427.762,-250.237 436.352,-244.036 425.77,-243.527 427.762,-250.237"/>
</g>
<!-- Node6&#45;&gt;Node2 -->
<g id="edge6" class="edge"><title>Node6&#45;&gt;Node2</title>
<path fill="none" stroke="midnightblue" d="M523.125,-244.102C538.198,-250.907 556.075,-259.16 572,-267 588.231,-274.991 590.718,-280.649 608,-286 665.173,-303.701 732.344,-311.129 784.088,-314.169"/>
<polygon fill="midnightblue" stroke="midnightblue" points="784.049,-317.672 794.224,-314.721 784.429,-310.683 784.049,-317.672"/>
</g>
<!-- Node7 -->
<g id="node7" class="node"><title>Node7</title>
<g id="a_node7"><a xlink:href="../../d8/d65/classapplication_1_1_view_handler.html#a8a00eb25a7f1d5e3ccc3059e8b717819" target="_top" xlink:title="application.ViewHandler.get\lTurtleOrientation">
<polygon fill="white" stroke="black" points="794.5,-252 794.5,-282 943.5,-282 943.5,-252 794.5,-252"/>
<text text-anchor="start" x="802.5" y="-270" font-family="Helvetica,sans-Serif" font-size="10.00">application.ViewHandler.get</text>
<text text-anchor="middle" x="869" y="-259" font-family="Helvetica,sans-Serif" font-size="10.00">TurtleOrientation</text>
</a>
</g>
</g>
<!-- Node6&#45;&gt;Node7 -->
<g id="edge7" class="edge"><title>Node6&#45;&gt;Node7</title>
<path fill="none" stroke="midnightblue" d="M571.588,-232.806C624.441,-235.752 694.403,-240.601 756,-248 765.229,-249.108 774.855,-250.453 784.42,-251.908"/>
<polygon fill="midnightblue" stroke="midnightblue" points="783.926,-255.374 794.347,-253.461 785.008,-248.458 783.926,-255.374"/>
</g>
<!-- Node9 -->
<g id="node9" class="node"><title>Node9</title>
<g id="a_node9"><a xlink:href="../../d8/d65/classapplication_1_1_view_handler.html#a6f94dbee91670d4c9ae7164f61b8cd03" target="_top" xlink:title="application.ViewHandler.is\lVisible">
<polygon fill="white" stroke="black" points="612,-107 612,-137 752,-137 752,-107 612,-107"/>
<text text-anchor="start" x="620" y="-125" font-family="Helvetica,sans-Serif" font-size="10.00">application.ViewHandler.is</text>
<text text-anchor="middle" x="682" y="-114" font-family="Helvetica,sans-Serif" font-size="10.00">Visible</text>
</a>
</g>
</g>
<!-- Node6&#45;&gt;Node9 -->
<g id="edge9" class="edge"><title>Node6&#45;&gt;Node9</title>
<path fill="none" stroke="midnightblue" d="M514.344,-213.856C538.306,-199.645 575.354,-177.949 608,-160 619.053,-153.923 631.164,-147.518 642.289,-141.734"/>
<polygon fill="midnightblue" stroke="midnightblue" points="644.083,-144.747 651.357,-137.043 640.867,-138.529 644.083,-144.747"/>
</g>
<!-- Node11 -->
<g id="node11" class="node"><title>Node11</title>
<g id="a_node11"><a xlink:href="../../df/dcc/classgui_1_1_turtle_view.html#adcff447c1d488ddfd13d151067e6db7a" target="_top" xlink:title="gui.TurtleView.rotateAnd\lMoveTurtle">
<polygon fill="white" stroke="black" points="616.5,-33 616.5,-63 747.5,-63 747.5,-33 616.5,-33"/>
<text text-anchor="start" x="624.5" y="-51" font-family="Helvetica,sans-Serif" font-size="10.00">gui.TurtleView.rotateAnd</text>
<text text-anchor="middle" x="682" y="-40" font-family="Helvetica,sans-Serif" font-size="10.00">MoveTurtle</text>
</a>
</g>
</g>
<!-- Node6&#45;&gt;Node11 -->
<g id="edge11" class="edge"><title>Node6&#45;&gt;Node11</title>
<path fill="none" stroke="midnightblue" d="M500.773,-213.637C521.001,-187.805 564.401,-134.791 608,-97 619.902,-86.6838 634.069,-76.723 646.742,-68.5071"/>
<polygon fill="midnightblue" stroke="midnightblue" points="648.667,-71.4313 655.231,-63.1151 644.913,-65.5226 648.667,-71.4313"/>
</g>
<!-- Node14 -->
<g id="node14" class="node"><title>Node14</title>
<g id="a_node14"><a xlink:href="../../d8/d65/classapplication_1_1_view_handler.html#a308dcaf9847965fa4a3d261347845f56" target="_top" xlink:title="application.ViewHandler.set\lInfoParamsOfTurtleAndLine">
<polygon fill="white" stroke="black" points="608,-170 608,-200 756,-200 756,-170 608,-170"/>
<text text-anchor="start" x="616" y="-188" font-family="Helvetica,sans-Serif" font-size="10.00">application.ViewHandler.set</text>
<text text-anchor="middle" x="682" y="-177" font-family="Helvetica,sans-Serif" font-size="10.00">InfoParamsOfTurtleAndLine</text>
</a>
</g>
</g>
<!-- Node6&#45;&gt;Node14 -->
<g id="edge14" class="edge"><title>Node6&#45;&gt;Node14</title>
<path fill="none" stroke="midnightblue" d="M554.539,-213.981C570.975,-210.214 588.741,-206.143 605.616,-202.276"/>
<polygon fill="midnightblue" stroke="midnightblue" points="606.466,-205.672 615.431,-200.026 604.902,-198.848 606.466,-205.672"/>
</g>
<!-- Node22 -->
<g id="node22" class="node"><title>Node22</title>
<g id="a_node22"><a xlink:href="../../df/dcc/classgui_1_1_turtle_view.html#afa73e516fcab92ab1c3a6941b6131cb5" target="_top" xlink:title="gui.TurtleView.showTurtle">
<polygon fill="white" stroke="black" points="615.5,-257.5 615.5,-276.5 748.5,-276.5 748.5,-257.5 615.5,-257.5"/>
<text text-anchor="middle" x="682" y="-264.5" font-family="Helvetica,sans-Serif" font-size="10.00">gui.TurtleView.showTurtle</text>
</a>
</g>
</g>
<!-- Node6&#45;&gt;Node22 -->
<g id="edge24" class="edge"><title>Node6&#45;&gt;Node22</title>
<path fill="none" stroke="midnightblue" d="M564.883,-244.019C584.252,-247.852 604.764,-251.912 623.072,-255.535"/>
<polygon fill="midnightblue" stroke="midnightblue" points="622.506,-258.991 632.995,-257.499 623.865,-252.124 622.506,-258.991"/>
</g>
<!-- Node8 -->
<g id="node8" class="node"><title>Node8</title>
<g id="a_node8"><a xlink:href="../../d1/d31/classapplication_1_1_turtle.html#af22147e198fac9068726b95eea235739" target="_top" xlink:title="application.Turtle.getOrientation">
<polygon fill="white" stroke="black" points="982.5,-257.5 982.5,-276.5 1151.5,-276.5 1151.5,-257.5 982.5,-257.5"/>
<text text-anchor="middle" x="1067" y="-264.5" font-family="Helvetica,sans-Serif" font-size="10.00">application.Turtle.getOrientation</text>
</a>
</g>
</g>
<!-- Node7&#45;&gt;Node8 -->
<g id="edge8" class="edge"><title>Node7&#45;&gt;Node8</title>
<path fill="none" stroke="midnightblue" d="M943.541,-267C952.973,-267 962.729,-267 972.426,-267"/>
<polygon fill="midnightblue" stroke="midnightblue" points="972.495,-270.5 982.495,-267 972.495,-263.5 972.495,-270.5"/>
</g>
<!-- Node10 -->
<g id="node10" class="node"><title>Node10</title>
<g id="a_node10"><a xlink:href="../../d1/d31/classapplication_1_1_turtle.html#a75e592fccb8420e254ba668429797898" target="_top" xlink:title="application.Turtle.getVisibility">
<polygon fill="white" stroke="black" points="792,-76.5 792,-95.5 946,-95.5 946,-76.5 792,-76.5"/>
<text text-anchor="middle" x="869" y="-83.5" font-family="Helvetica,sans-Serif" font-size="10.00">application.Turtle.getVisibility</text>
</a>
</g>
</g>
<!-- Node9&#45;&gt;Node10 -->
<g id="edge10" class="edge"><title>Node9&#45;&gt;Node10</title>
<path fill="none" stroke="midnightblue" d="M752.15,-108.544C770.941,-104.887 791.108,-100.963 809.263,-97.4299"/>
<polygon fill="midnightblue" stroke="midnightblue" points="809.973,-100.857 819.121,-95.5116 808.636,-93.9863 809.973,-100.857"/>
</g>
<!-- Node12 -->
<g id="node12" class="node"><title>Node12</title>
<g id="a_node12"><a xlink:href="../../df/dcc/classgui_1_1_turtle_view.html#ab9b87d12b06bce95f2b32ee05a89e7d6" target="_top" xlink:title="gui.TurtleView.rotate">
<polygon fill="white" stroke="black" points="812.5,-38.5 812.5,-57.5 925.5,-57.5 925.5,-38.5 812.5,-38.5"/>
<text text-anchor="middle" x="869" y="-45.5" font-family="Helvetica,sans-Serif" font-size="10.00">gui.TurtleView.rotate</text>
</a>
</g>
</g>
<!-- Node11&#45;&gt;Node12 -->
<g id="edge12" class="edge"><title>Node11&#45;&gt;Node12</title>
<path fill="none" stroke="midnightblue" d="M747.704,-48C765.299,-48 784.372,-48 802.036,-48"/>
<polygon fill="midnightblue" stroke="midnightblue" points="802.251,-51.5001 812.251,-48 802.251,-44.5001 802.251,-51.5001"/>
</g>
<!-- Node13 -->
<g id="node13" class="node"><title>Node13</title>
<g id="a_node13"><a xlink:href="../../d8/d8b/classgui_1_1_view.html#a9df94efe60af56c89531c45f0f3f9624" target="_top" xlink:title="gui.View.setNewPoint">
<polygon fill="white" stroke="black" points="810.5,-0.5 810.5,-19.5 927.5,-19.5 927.5,-0.5 810.5,-0.5"/>
<text text-anchor="middle" x="869" y="-7.5" font-family="Helvetica,sans-Serif" font-size="10.00">gui.View.setNewPoint</text>
</a>
</g>
</g>
<!-- Node11&#45;&gt;Node13 -->
<g id="edge13" class="edge"><title>Node11&#45;&gt;Node13</title>
<path fill="none" stroke="midnightblue" d="M747.704,-34.7094C768.562,-30.4251 791.499,-25.7138 811.7,-21.5642"/>
<polygon fill="midnightblue" stroke="midnightblue" points="812.591,-24.9545 821.682,-19.5139 811.182,-18.0976 812.591,-24.9545"/>
</g>
<!-- Node14&#45;&gt;Node2 -->
<g id="edge17" class="edge"><title>Node14&#45;&gt;Node2</title>
<path fill="none" stroke="midnightblue" d="M702.04,-200.003C717.223,-212.299 738.73,-230.469 756,-248 773.492,-265.756 771.37,-277.013 792,-291 794.905,-292.969 797.976,-294.793 801.154,-296.482"/>
<polygon fill="midnightblue" stroke="midnightblue" points="799.807,-299.718 810.337,-300.889 802.836,-293.407 799.807,-299.718"/>
</g>
<!-- Node14&#45;&gt;Node7 -->
<g id="edge18" class="edge"><title>Node14&#45;&gt;Node7</title>
<path fill="none" stroke="midnightblue" d="M724.79,-200.045C735.231,-204.377 746.231,-209.449 756,-215 773.389,-224.88 774.266,-232.753 792,-242 796.241,-244.212 800.717,-246.281 805.287,-248.205"/>
<polygon fill="midnightblue" stroke="midnightblue" points="804.169,-251.527 814.755,-251.953 806.745,-245.018 804.169,-251.527"/>
</g>
<!-- Node15 -->
<g id="node15" class="node"><title>Node15</title>
<g id="a_node15"><a xlink:href="../../df/dcb/classapplication_1_1_pen_handler.html#a8477a9a258753bb5538ad83a015fb731" target="_top" xlink:title="application.PenHandler.get\lPenStatus">
<polygon fill="white" stroke="black" points="796.5,-115 796.5,-145 941.5,-145 941.5,-115 796.5,-115"/>
<text text-anchor="start" x="804.5" y="-133" font-family="Helvetica,sans-Serif" font-size="10.00">application.PenHandler.get</text>
<text text-anchor="middle" x="869" y="-122" font-family="Helvetica,sans-Serif" font-size="10.00">PenStatus</text>
</a>
</g>
</g>
<!-- Node14&#45;&gt;Node15 -->
<g id="edge15" class="edge"><title>Node14&#45;&gt;Node15</title>
<path fill="none" stroke="midnightblue" d="M733.552,-169.971C756.495,-163.15 783.806,-155.031 807.8,-147.897"/>
<polygon fill="midnightblue" stroke="midnightblue" points="808.921,-151.215 817.509,-145.011 806.926,-144.506 808.921,-151.215"/>
</g>
<!-- Node17 -->
<g id="node17" class="node"><title>Node17</title>
<g id="a_node17"><a xlink:href="../../df/dcb/classapplication_1_1_pen_handler.html#a518bb3076e4d9d105870b0778341a8c0" target="_top" xlink:title="application.PenHandler.set\lThicknessParameter">
<polygon fill="white" stroke="black" points="797,-203 797,-233 941,-233 941,-203 797,-203"/>
<text text-anchor="start" x="805" y="-221" font-family="Helvetica,sans-Serif" font-size="10.00">application.PenHandler.set</text>
<text text-anchor="middle" x="869" y="-210" font-family="Helvetica,sans-Serif" font-size="10.00">ThicknessParameter</text>
</a>
</g>
</g>
<!-- Node14&#45;&gt;Node17 -->
<g id="edge19" class="edge"><title>Node14&#45;&gt;Node17</title>
<path fill="none" stroke="midnightblue" d="M756.117,-198.042C766.191,-199.84 776.587,-201.694 786.796,-203.515"/>
<polygon fill="midnightblue" stroke="midnightblue" points="786.466,-207.011 796.925,-205.322 787.695,-200.12 786.466,-207.011"/>
</g>
<!-- Node21 -->
<g id="node21" class="node"><title>Node21</title>
<g id="a_node21"><a xlink:href="../../df/dcc/classgui_1_1_turtle_view.html#a978020a0f6ccbc4714b77c71435b0799" target="_top" xlink:title="gui.TurtleView.setTurtleInfo">
<polygon fill="white" stroke="black" points="798.5,-164.5 798.5,-183.5 939.5,-183.5 939.5,-164.5 798.5,-164.5"/>
<text text-anchor="middle" x="869" y="-171.5" font-family="Helvetica,sans-Serif" font-size="10.00">gui.TurtleView.setTurtleInfo</text>
</a>
</g>
</g>
<!-- Node14&#45;&gt;Node21 -->
<g id="edge23" class="edge"><title>Node14&#45;&gt;Node21</title>
<path fill="none" stroke="midnightblue" d="M756.117,-180.653C766.679,-180.024 777.594,-179.375 788.277,-178.74"/>
<polygon fill="midnightblue" stroke="midnightblue" points="788.655,-182.224 798.43,-178.137 788.24,-175.236 788.655,-182.224"/>
</g>
<!-- Node16 -->
<g id="node16" class="node"><title>Node16</title>
<g id="a_node16"><a xlink:href="../../de/d5a/classapplication_1_1_pen.html#ab21d78789fb66a90181393d7cc42796c" target="_top" xlink:title="application.Pen.getStatus">
<polygon fill="white" stroke="black" points="997,-120.5 997,-139.5 1137,-139.5 1137,-120.5 997,-120.5"/>
<text text-anchor="middle" x="1067" y="-127.5" font-family="Helvetica,sans-Serif" font-size="10.00">application.Pen.getStatus</text>
</a>
</g>
</g>
<!-- Node15&#45;&gt;Node16 -->
<g id="edge16" class="edge"><title>Node15&#45;&gt;Node16</title>
<path fill="none" stroke="midnightblue" d="M941.592,-130C956.253,-130 971.765,-130 986.679,-130"/>
<polygon fill="midnightblue" stroke="midnightblue" points="986.89,-133.5 996.89,-130 986.89,-126.5 986.89,-133.5"/>
</g>
<!-- Node18 -->
<g id="node18" class="node"><title>Node18</title>
<g id="a_node18"><a xlink:href="../../df/dcb/classapplication_1_1_pen_handler.html#a307ff6736f97a1aa1706da924d7e642b" target="_top" xlink:title="application.PenHandler.get\lPenWeight">
<polygon fill="white" stroke="black" points="994.5,-164 994.5,-194 1139.5,-194 1139.5,-164 994.5,-164"/>
<text text-anchor="start" x="1002.5" y="-182" font-family="Helvetica,sans-Serif" font-size="10.00">application.PenHandler.get</text>
<text text-anchor="middle" x="1067" y="-171" font-family="Helvetica,sans-Serif" font-size="10.00">PenWeight</text>
</a>
</g>
</g>
<!-- Node17&#45;&gt;Node18 -->
<g id="edge20" class="edge"><title>Node17&#45;&gt;Node18</title>
<path fill="none" stroke="midnightblue" d="M941.038,-203.865C955.102,-201.067 969.969,-198.108 984.353,-195.246"/>
<polygon fill="midnightblue" stroke="midnightblue" points="985.093,-198.668 994.218,-193.283 983.727,-191.802 985.093,-198.668"/>
</g>
<!-- Node20 -->
<g id="node20" class="node"><title>Node20</title>
<g id="a_node20"><a xlink:href="../../d8/ddb/classgui_1_1_line_view.html#ab32d4cf33024aea52dcb5d1092003d85" target="_top" xlink:title="gui.LineView.setThickness">
<polygon fill="white" stroke="black" points="997.5,-213.5 997.5,-232.5 1136.5,-232.5 1136.5,-213.5 997.5,-213.5"/>
<text text-anchor="middle" x="1067" y="-220.5" font-family="Helvetica,sans-Serif" font-size="10.00">gui.LineView.setThickness</text>
</a>
</g>
</g>
<!-- Node17&#45;&gt;Node20 -->
<g id="edge22" class="edge"><title>Node17&#45;&gt;Node20</title>
<path fill="none" stroke="midnightblue" d="M941.038,-219.812C955.992,-220.194 971.854,-220.598 987.078,-220.987"/>
<polygon fill="midnightblue" stroke="midnightblue" points="987.41,-224.496 997.496,-221.252 987.589,-217.498 987.41,-224.496"/>
</g>
<!-- Node19 -->
<g id="node19" class="node"><title>Node19</title>
<g id="a_node19"><a xlink:href="../../de/d5a/classapplication_1_1_pen.html#aaaae5f55fadb97afef2ae286a6119a58" target="_top" xlink:title="application.Pen.getWeight">
<polygon fill="white" stroke="black" points="1188,-169.5 1188,-188.5 1328,-188.5 1328,-169.5 1188,-169.5"/>
<text text-anchor="middle" x="1258" y="-176.5" font-family="Helvetica,sans-Serif" font-size="10.00">application.Pen.getWeight</text>
</a>
</g>
</g>
<!-- Node18&#45;&gt;Node19 -->
<g id="edge21" class="edge"><title>Node18&#45;&gt;Node19</title>
<path fill="none" stroke="midnightblue" d="M1139.72,-179C1152.16,-179 1165.17,-179 1177.8,-179"/>
<polygon fill="midnightblue" stroke="midnightblue" points="1177.82,-182.5 1187.82,-179 1177.82,-175.5 1177.82,-182.5"/>
</g>
</g>
</svg>
