<?xml version="1.0" encoding="UTF-8" standalone="no"?>
<!DOCTYPE svg PUBLIC "-//W3C//DTD SVG 1.1//EN"
 "http://www.w3.org/Graphics/SVG/1.1/DTD/svg11.dtd">
<!-- Generated by graphviz version 2.36.0 (20140111.2315)
 -->
<!-- Title: commands.To Pages: 1 -->
<svg width="315pt" height="166pt"
 viewBox="0.00 0.00 315.00 166.00" xmlns="http://www.w3.org/2000/svg" xmlns:xlink="http://www.w3.org/1999/xlink">
<g id="graph0" class="graph" transform="scale(1 1) rotate(0) translate(4 162)">
<title>commands.To</title>
<polygon fill="white" stroke="none" points="-4,4 -4,-162 311,-162 311,4 -4,4"/>
<!-- Node1 -->
<g id="node1" class="node"><title>Node1</title>
<polygon fill="#bfbfbf" stroke="black" points="128.5,-0.5 128.5,-19.5 211.5,-19.5 211.5,-0.5 128.5,-0.5"/>
<text text-anchor="middle" x="170" y="-7.5" font-family="Helvetica,sans-Serif" font-size="10.00">commands.To</text>
</g>
<!-- Node2 -->
<g id="node2" class="node"><title>Node2</title>
<g id="a_node2"><a xlink:href="../../dc/d3e/classcommands_1_1_command_center.html" target="_top" xlink:title="commands.CommandCenter">
<polygon fill="white" stroke="black" points="92,-58.5 92,-77.5 248,-77.5 248,-58.5 92,-58.5"/>
<text text-anchor="middle" x="170" y="-65.5" font-family="Helvetica,sans-Serif" font-size="10.00">commands.CommandCenter</text>
</a>
</g>
</g>
<!-- Node2&#45;&gt;Node1 -->
<g id="edge1" class="edge"><title>Node2&#45;&gt;Node1</title>
<path fill="none" stroke="midnightblue" d="M170,-47.953C170,-38.2875 170,-27.0312 170,-19.5052"/>
<polygon fill="midnightblue" stroke="midnightblue" points="166.5,-48.25 170,-58.25 173.5,-48.25 166.5,-48.25"/>
</g>
<!-- Node3 -->
<g id="node3" class="node"><title>Node3</title>
<g id="a_node3"><a xlink:href="../../d1/d4d/interfacecommands_1_1view_commands_1_1turtle_commands_1_1_executable.html" target="_top" xlink:title="commands.viewCommands.turtle\lCommands.Executable">
<polygon fill="white" stroke="black" points="0,-127 0,-157 178,-157 178,-127 0,-127"/>
<text text-anchor="start" x="8" y="-145" font-family="Helvetica,sans-Serif" font-size="10.00">commands.viewCommands.turtle</text>
<text text-anchor="middle" x="89" y="-134" font-family="Helvetica,sans-Serif" font-size="10.00">Commands.Executable</text>
</a>
</g>
</g>
<!-- Node3&#45;&gt;Node2 -->
<g id="edge2" class="edge"><title>Node3&#45;&gt;Node2</title>
<path fill="none" stroke="midnightblue" d="M112.815,-119.831C128.593,-105.806 148.465,-88.1426 160.146,-77.7589"/>
<polygon fill="midnightblue" stroke="midnightblue" points="110.152,-117.516 105.003,-126.775 114.802,-122.747 110.152,-117.516"/>
</g>
<!-- Node4 -->
<g id="node4" class="node"><title>Node4</title>
<polygon fill="white" stroke="#bfbfbf" points="196,-132.5 196,-151.5 308,-151.5 308,-132.5 196,-132.5"/>
<text text-anchor="middle" x="252" y="-139.5" font-family="Helvetica,sans-Serif" font-size="10.00">ArrayList&lt; Object &gt;</text>
</g>
<!-- Node4&#45;&gt;Node2 -->
<g id="edge3" class="edge"><title>Node4&#45;&gt;Node2</title>
<path fill="none" stroke="#9a32cd" stroke-dasharray="5,2" d="M234.337,-125.491C217.622,-110.815 193.148,-89.325 179.716,-77.531"/>
<polygon fill="#9a32cd" stroke="#9a32cd" points="232.448,-128.49 242.272,-132.458 237.066,-123.23 232.448,-128.49"/>
<text text-anchor="middle" x="244" y="-99.5" font-family="Helvetica,sans-Serif" font-size="10.00"> parameters</text>
</g>
</g>
</svg>
