<?xml version="1.0" encoding="UTF-8" standalone="no"?>
<!DOCTYPE svg PUBLIC "-//W3C//DTD SVG 1.1//EN"
 "http://www.w3.org/Graphics/SVG/1.1/DTD/svg11.dtd">
<!-- Generated by graphviz version 2.36.0 (20140111.2315)
 -->
<!-- Title: gui.TurtleView.initializeTurtle Pages: 1 -->
<svg width="508pt" height="38pt"
 viewBox="0.00 0.00 508.00 38.00" xmlns="http://www.w3.org/2000/svg" xmlns:xlink="http://www.w3.org/1999/xlink">
<g id="graph0" class="graph" transform="scale(1 1) rotate(0) translate(4 34)">
<title>gui.TurtleView.initializeTurtle</title>
<polygon fill="white" stroke="none" points="-4,4 -4,-34 504,-34 504,4 -4,4"/>
<!-- Node1 -->
<g id="node1" class="node"><title>Node1</title>
<polygon fill="#bfbfbf" stroke="black" points="0,-0 0,-30 122,-30 122,-0 0,-0"/>
<text text-anchor="start" x="8" y="-18" font-family="Helvetica,sans-Serif" font-size="10.00">gui.TurtleView.initialize</text>
<text text-anchor="middle" x="61" y="-7" font-family="Helvetica,sans-Serif" font-size="10.00">Turtle</text>
</g>
<!-- Node2 -->
<g id="node2" class="node"><title>Node2</title>
<g id="a_node2"><a xlink:href="../../d8/d65/classapplication_1_1_view_handler.html#ac37927f63d43d93f1b1e0f5a3b59cf26" target="_top" xlink:title="application.ViewHandler.initialize\lTurtle">
<polygon fill="white" stroke="black" points="158.5,-0 158.5,-30 329.5,-30 329.5,-0 158.5,-0"/>
<text text-anchor="start" x="166.5" y="-18" font-family="Helvetica,sans-Serif" font-size="10.00">application.ViewHandler.initialize</text>
<text text-anchor="middle" x="244" y="-7" font-family="Helvetica,sans-Serif" font-size="10.00">Turtle</text>
</a>
</g>
</g>
<!-- Node1&#45;&gt;Node2 -->
<g id="edge1" class="edge"><title>Node1&#45;&gt;Node2</title>
<path fill="none" stroke="midnightblue" d="M132.272,-15C140.797,-15 149.576,-15 158.282,-15"/>
<polygon fill="midnightblue" stroke="midnightblue" points="132.019,-11.5001 122.019,-15 132.019,-18.5001 132.019,-11.5001"/>
</g>
<!-- Node3 -->
<g id="node3" class="node"><title>Node3</title>
<g id="a_node3"><a xlink:href="../../d8/d65/classapplication_1_1_view_handler.html#aede07ea15df8a762813028bb80403e6b" target="_top" xlink:title="application.ViewHandler.\lViewHandler">
<polygon fill="white" stroke="black" points="366.5,-0 366.5,-30 499.5,-30 499.5,-0 366.5,-0"/>
<text text-anchor="start" x="374.5" y="-18" font-family="Helvetica,sans-Serif" font-size="10.00">application.ViewHandler.</text>
<text text-anchor="middle" x="433" y="-7" font-family="Helvetica,sans-Serif" font-size="10.00">ViewHandler</text>
</a>
</g>
</g>
<!-- Node2&#45;&gt;Node3 -->
<g id="edge2" class="edge"><title>Node2&#45;&gt;Node3</title>
<path fill="none" stroke="midnightblue" d="M339.841,-15C348.792,-15 357.727,-15 366.317,-15"/>
<polygon fill="midnightblue" stroke="midnightblue" points="339.746,-11.5001 329.746,-15 339.746,-18.5001 339.746,-11.5001"/>
</g>
</g>
</svg>
