<?xml version="1.0" encoding="UTF-8" standalone="no"?>
<!DOCTYPE svg PUBLIC "-//W3C//DTD SVG 1.1//EN"
 "http://www.w3.org/Graphics/SVG/1.1/DTD/svg11.dtd">
<!-- Generated by graphviz version 2.36.0 (20140111.2315)
 -->
<!-- Title: gui.TurtleView.initializeTurtle Pages: 1 -->
<svg width="520pt" height="87pt"
 viewBox="0.00 0.00 520.00 87.00" xmlns="http://www.w3.org/2000/svg" xmlns:xlink="http://www.w3.org/1999/xlink">
<g id="graph0" class="graph" transform="scale(1 1) rotate(0) translate(4 83)">
<title>gui.TurtleView.initializeTurtle</title>
<polygon fill="white" stroke="none" points="-4,4 -4,-83 516,-83 516,4 -4,4"/>
<!-- Node1 -->
<g id="node1" class="node"><title>Node1</title>
<polygon fill="#bfbfbf" stroke="black" points="0,-24 0,-54 122,-54 122,-24 0,-24"/>
<text text-anchor="start" x="8" y="-42" font-family="Helvetica,sans-Serif" font-size="10.00">gui.TurtleView.initialize</text>
<text text-anchor="middle" x="61" y="-31" font-family="Helvetica,sans-Serif" font-size="10.00">Turtle</text>
</g>
<!-- Node2 -->
<g id="node2" class="node"><title>Node2</title>
<g id="a_node2"><a xlink:href="../../d3/de0/classapplication_1_1_view_handler2.html#a3544f8be953d5b1e93f29786bc91e6c9" target="_top" xlink:title="application.ViewHandler2.initialize\lTurtle">
<polygon fill="white" stroke="black" points="158,-49 158,-79 336,-79 336,-49 158,-49"/>
<text text-anchor="start" x="166" y="-67" font-family="Helvetica,sans-Serif" font-size="10.00">application.ViewHandler2.initialize</text>
<text text-anchor="middle" x="247" y="-56" font-family="Helvetica,sans-Serif" font-size="10.00">Turtle</text>
</a>
</g>
</g>
<!-- Node1&#45;&gt;Node2 -->
<g id="edge1" class="edge"><title>Node1&#45;&gt;Node2</title>
<path fill="none" stroke="midnightblue" d="M132.322,-48.5546C140.7,-49.693 149.333,-50.8659 157.92,-52.0326"/>
<polygon fill="midnightblue" stroke="midnightblue" points="132.629,-45.0642 122.248,-47.1859 131.686,-52.0005 132.629,-45.0642"/>
</g>
<!-- Node4 -->
<g id="node4" class="node"><title>Node4</title>
<g id="a_node4"><a xlink:href="../../d8/d65/classapplication_1_1_view_handler.html#ac37927f63d43d93f1b1e0f5a3b59cf26" target="_top" xlink:title="application.ViewHandler.initialize\lTurtle">
<polygon fill="white" stroke="black" points="161.5,-0 161.5,-30 332.5,-30 332.5,-0 161.5,-0"/>
<text text-anchor="start" x="169.5" y="-18" font-family="Helvetica,sans-Serif" font-size="10.00">application.ViewHandler.initialize</text>
<text text-anchor="middle" x="247" y="-7" font-family="Helvetica,sans-Serif" font-size="10.00">Turtle</text>
</a>
</g>
</g>
<!-- Node1&#45;&gt;Node4 -->
<g id="edge3" class="edge"><title>Node1&#45;&gt;Node4</title>
<path fill="none" stroke="midnightblue" d="M132.355,-29.8233C141.804,-28.5908 151.576,-27.3161 161.241,-26.0555"/>
<polygon fill="midnightblue" stroke="midnightblue" points="131.712,-26.3774 122.248,-31.1415 132.617,-33.3186 131.712,-26.3774"/>
</g>
<!-- Node3 -->
<g id="node3" class="node"><title>Node3</title>
<g id="a_node3"><a xlink:href="../../d3/de0/classapplication_1_1_view_handler2.html#ab9f42981fade26d0f6d67bd9dec9181f" target="_top" xlink:title="application.ViewHandler2.\lViewHandler2">
<polygon fill="white" stroke="black" points="372,-49 372,-79 512,-79 512,-49 372,-49"/>
<text text-anchor="start" x="380" y="-67" font-family="Helvetica,sans-Serif" font-size="10.00">application.ViewHandler2.</text>
<text text-anchor="middle" x="442" y="-56" font-family="Helvetica,sans-Serif" font-size="10.00">ViewHandler2</text>
</a>
</g>
</g>
<!-- Node2&#45;&gt;Node3 -->
<g id="edge2" class="edge"><title>Node2&#45;&gt;Node3</title>
<path fill="none" stroke="midnightblue" d="M346.203,-64C354.878,-64 363.535,-64 371.892,-64"/>
<polygon fill="midnightblue" stroke="midnightblue" points="346.028,-60.5001 336.028,-64 346.028,-67.5001 346.028,-60.5001"/>
</g>
<!-- Node5 -->
<g id="node5" class="node"><title>Node5</title>
<g id="a_node5"><a xlink:href="../../d8/d65/classapplication_1_1_view_handler.html#aede07ea15df8a762813028bb80403e6b" target="_top" xlink:title="application.ViewHandler.\lViewHandler">
<polygon fill="white" stroke="black" points="375.5,-0 375.5,-30 508.5,-30 508.5,-0 375.5,-0"/>
<text text-anchor="start" x="383.5" y="-18" font-family="Helvetica,sans-Serif" font-size="10.00">application.ViewHandler.</text>
<text text-anchor="middle" x="442" y="-7" font-family="Helvetica,sans-Serif" font-size="10.00">ViewHandler</text>
</a>
</g>
</g>
<!-- Node4&#45;&gt;Node5 -->
<g id="edge4" class="edge"><title>Node4&#45;&gt;Node5</title>
<path fill="none" stroke="midnightblue" d="M342.735,-15C353.742,-15 364.778,-15 375.273,-15"/>
<polygon fill="midnightblue" stroke="midnightblue" points="342.653,-11.5001 332.653,-15 342.653,-18.5001 342.653,-11.5001"/>
</g>
</g>
</svg>
