<?xml version="1.0" encoding="UTF-8" standalone="no"?>
<!DOCTYPE svg PUBLIC "-//W3C//DTD SVG 1.1//EN"
 "http://www.w3.org/Graphics/SVG/1.1/DTD/svg11.dtd">
<!-- Generated by graphviz version 2.36.0 (20140111.2315)
 -->
<!-- Title: gui.TurtleView.showTurtle Pages: 1 -->
<svg width="1008pt" height="500pt"
 viewBox="0.00 0.00 1008.00 500.00" xmlns="http://www.w3.org/2000/svg" xmlns:xlink="http://www.w3.org/1999/xlink">
<g id="graph0" class="graph" transform="scale(1 1) rotate(0) translate(4 496)">
<title>gui.TurtleView.showTurtle</title>
<polygon fill="white" stroke="none" points="-4,4 -4,-496 1004,-496 1004,4 -4,4"/>
<!-- Node1 -->
<g id="node1" class="node"><title>Node1</title>
<polygon fill="#bfbfbf" stroke="black" points="0.5,-249.5 0.5,-268.5 133.5,-268.5 133.5,-249.5 0.5,-249.5"/>
<text text-anchor="middle" x="67" y="-256.5" font-family="Helvetica,sans-Serif" font-size="10.00">gui.TurtleView.showTurtle</text>
</g>
<!-- Node2 -->
<g id="node2" class="node"><title>Node2</title>
<g id="a_node2"><a xlink:href="../../d3/de0/classapplication_1_1_view_handler2.html#adef8a4ac6b5b11687e8ecb1c05253287" target="_top" xlink:title="application.ViewHandler2.update\lTurtleOnView">
<polygon fill="white" stroke="black" points="170.5,-347 170.5,-377 343.5,-377 343.5,-347 170.5,-347"/>
<text text-anchor="start" x="178.5" y="-365" font-family="Helvetica,sans-Serif" font-size="10.00">application.ViewHandler2.update</text>
<text text-anchor="middle" x="257" y="-354" font-family="Helvetica,sans-Serif" font-size="10.00">TurtleOnView</text>
</a>
</g>
</g>
<!-- Node1&#45;&gt;Node2 -->
<g id="edge1" class="edge"><title>Node1&#45;&gt;Node2</title>
<path fill="none" stroke="midnightblue" d="M94.1383,-273.32C129.52,-292.705 192.372,-327.14 228.462,-346.913"/>
<polygon fill="midnightblue" stroke="midnightblue" points="95.8014,-270.241 85.3496,-268.505 92.4379,-276.38 95.8014,-270.241"/>
</g>
<!-- Node10 -->
<g id="node10" class="node"><title>Node10</title>
<g id="a_node10"><a xlink:href="../../d8/d65/classapplication_1_1_view_handler.html#ae489ceaa9b5ec67faf3ba22a11cec085" target="_top" xlink:title="application.ViewHandler.update\lTurtleOnView">
<polygon fill="white" stroke="black" points="173.5,-142 173.5,-172 340.5,-172 340.5,-142 173.5,-142"/>
<text text-anchor="start" x="181.5" y="-160" font-family="Helvetica,sans-Serif" font-size="10.00">application.ViewHandler.update</text>
<text text-anchor="middle" x="257" y="-149" font-family="Helvetica,sans-Serif" font-size="10.00">TurtleOnView</text>
</a>
</g>
</g>
<!-- Node1&#45;&gt;Node10 -->
<g id="edge10" class="edge"><title>Node1&#45;&gt;Node10</title>
<path fill="none" stroke="midnightblue" d="M94.4854,-244.63C129.862,-225.436 192.249,-191.588 228.254,-172.053"/>
<polygon fill="midnightblue" stroke="midnightblue" points="92.8071,-241.559 85.6866,-249.404 96.1454,-247.712 92.8071,-241.559"/>
</g>
<!-- Node3 -->
<g id="node3" class="node"><title>Node3</title>
<g id="a_node3"><a xlink:href="../../d3/de0/classapplication_1_1_view_handler2.html#ab87b30f73cb5e726f4fcc6b6f60f8007" target="_top" xlink:title="application.ViewHandler2.move\lTurtleImageAndDraw">
<polygon fill="white" stroke="black" points="381.5,-460 381.5,-490 548.5,-490 548.5,-460 381.5,-460"/>
<text text-anchor="start" x="389.5" y="-478" font-family="Helvetica,sans-Serif" font-size="10.00">application.ViewHandler2.move</text>
<text text-anchor="middle" x="465" y="-467" font-family="Helvetica,sans-Serif" font-size="10.00">TurtleImageAndDraw</text>
</a>
</g>
</g>
<!-- Node2&#45;&gt;Node3 -->
<g id="edge2" class="edge"><title>Node2&#45;&gt;Node3</title>
<path fill="none" stroke="midnightblue" d="M285.139,-383.443C309.071,-401.608 345.423,-427.427 380,-445 391.044,-450.613 403.388,-455.647 415.142,-459.917"/>
<polygon fill="midnightblue" stroke="midnightblue" points="286.974,-380.439 276.91,-377.127 282.711,-385.992 286.974,-380.439"/>
</g>
<!-- Node4 -->
<g id="node4" class="node"><title>Node4</title>
<g id="a_node4"><a xlink:href="../../d3/de0/classapplication_1_1_view_handler2.html#abaa9dc9add64d8386b9f7fc37152d620" target="_top" xlink:title="application.ViewHandler2.set\lTurtleLocAndMove">
<polygon fill="white" stroke="black" points="607.5,-438 607.5,-468 762.5,-468 762.5,-438 607.5,-438"/>
<text text-anchor="start" x="615.5" y="-456" font-family="Helvetica,sans-Serif" font-size="10.00">application.ViewHandler2.set</text>
<text text-anchor="middle" x="685" y="-445" font-family="Helvetica,sans-Serif" font-size="10.00">TurtleLocAndMove</text>
</a>
</g>
</g>
<!-- Node2&#45;&gt;Node4 -->
<g id="edge7" class="edge"><title>Node2&#45;&gt;Node4</title>
<path fill="none" stroke="midnightblue" d="M298.615,-381.225C321.948,-391.525 352.08,-403.585 380,-411 455.953,-431.173 545.302,-442.043 607.396,-447.633"/>
<polygon fill="midnightblue" stroke="midnightblue" points="299.938,-377.983 289.381,-377.085 297.074,-384.37 299.938,-377.983"/>
</g>
<!-- Node7 -->
<g id="node7" class="node"><title>Node7</title>
<g id="a_node7"><a xlink:href="../../d3/de0/classapplication_1_1_view_handler2.html#a4dfbbb48e3c3c7bc5db71a2a308a1b7c" target="_top" xlink:title="application.ViewHandler2.rotate\lTurtle">
<polygon fill="white" stroke="black" points="380.5,-372 380.5,-402 549.5,-402 549.5,-372 380.5,-372"/>
<text text-anchor="start" x="388.5" y="-390" font-family="Helvetica,sans-Serif" font-size="10.00">application.ViewHandler2.rotate</text>
<text text-anchor="middle" x="465" y="-379" font-family="Helvetica,sans-Serif" font-size="10.00">Turtle</text>
</a>
</g>
</g>
<!-- Node2&#45;&gt;Node7 -->
<g id="edge6" class="edge"><title>Node2&#45;&gt;Node7</title>
<path fill="none" stroke="midnightblue" d="M353.608,-373.603C362.537,-374.687 371.541,-375.779 380.349,-376.848"/>
<polygon fill="midnightblue" stroke="midnightblue" points="353.922,-370.115 343.573,-372.385 353.078,-377.064 353.922,-370.115"/>
</g>
<!-- Node8 -->
<g id="node8" class="node"><title>Node8</title>
<g id="a_node8"><a xlink:href="../../d3/de0/classapplication_1_1_view_handler2.html#a0e3021726260bc0112ea6b6deef82aaa" target="_top" xlink:title="application.ViewHandler2.set\lTurtleOrientation">
<polygon fill="white" stroke="black" points="387.5,-323 387.5,-353 542.5,-353 542.5,-323 387.5,-323"/>
<text text-anchor="start" x="395.5" y="-341" font-family="Helvetica,sans-Serif" font-size="10.00">application.ViewHandler2.set</text>
<text text-anchor="middle" x="465" y="-330" font-family="Helvetica,sans-Serif" font-size="10.00">TurtleOrientation</text>
</a>
</g>
</g>
<!-- Node2&#45;&gt;Node8 -->
<g id="edge8" class="edge"><title>Node2&#45;&gt;Node8</title>
<path fill="none" stroke="midnightblue" d="M353.818,-350.837C365.025,-349.531 376.346,-348.212 387.246,-346.942"/>
<polygon fill="midnightblue" stroke="midnightblue" points="353.101,-347.397 343.573,-352.03 353.911,-354.35 353.101,-347.397"/>
</g>
<!-- Node9 -->
<g id="node9" class="node"><title>Node9</title>
<g id="a_node9"><a xlink:href="../../d3/de0/classapplication_1_1_view_handler2.html#a204e29a9937f99e85d42c948f58012c1" target="_top" xlink:title="application.ViewHandler2.show\lTurtle">
<polygon fill="white" stroke="black" points="383,-274 383,-304 547,-304 547,-274 383,-274"/>
<text text-anchor="start" x="391" y="-292" font-family="Helvetica,sans-Serif" font-size="10.00">application.ViewHandler2.show</text>
<text text-anchor="middle" x="465" y="-281" font-family="Helvetica,sans-Serif" font-size="10.00">Turtle</text>
</a>
</g>
</g>
<!-- Node2&#45;&gt;Node9 -->
<g id="edge9" class="edge"><title>Node2&#45;&gt;Node9</title>
<path fill="none" stroke="midnightblue" d="M303.423,-343.059C326.232,-333.822 354.394,-322.83 380,-314 389.925,-310.578 400.602,-307.184 410.905,-304.052"/>
<polygon fill="midnightblue" stroke="midnightblue" points="301.939,-339.884 293.999,-346.899 304.58,-346.367 301.939,-339.884"/>
</g>
<!-- Node3&#45;&gt;Node4 -->
<g id="edge3" class="edge"><title>Node3&#45;&gt;Node4</title>
<path fill="none" stroke="midnightblue" d="M558.754,-465.639C574.982,-464.002 591.701,-462.315 607.429,-460.727"/>
<polygon fill="midnightblue" stroke="midnightblue" points="558.325,-462.165 548.727,-466.651 559.028,-469.13 558.325,-462.165"/>
</g>
<!-- Node5 -->
<g id="node5" class="node"><title>Node5</title>
<g id="a_node5"><a xlink:href="../../d3/de0/classapplication_1_1_view_handler2.html#acd04df701dbbc0a759c79058966f8264" target="_top" xlink:title="application.ViewHandler2.change\lLocationOfTurtle">
<polygon fill="white" stroke="black" points="822.5,-462 822.5,-492 997.5,-492 997.5,-462 822.5,-462"/>
<text text-anchor="start" x="830.5" y="-480" font-family="Helvetica,sans-Serif" font-size="10.00">application.ViewHandler2.change</text>
<text text-anchor="middle" x="910" y="-469" font-family="Helvetica,sans-Serif" font-size="10.00">LocationOfTurtle</text>
</a>
</g>
</g>
<!-- Node4&#45;&gt;Node5 -->
<g id="edge4" class="edge"><title>Node4&#45;&gt;Node5</title>
<path fill="none" stroke="midnightblue" d="M772.74,-462.335C788.968,-464.082 805.933,-465.908 822.164,-467.654"/>
<polygon fill="midnightblue" stroke="midnightblue" points="773.061,-458.85 762.744,-461.259 772.312,-465.809 773.061,-458.85"/>
</g>
<!-- Node6 -->
<g id="node6" class="node"><title>Node6</title>
<g id="a_node6"><a xlink:href="../../d3/de0/classapplication_1_1_view_handler2.html#ac682f2c1ca441598b6d29fe899e7f468" target="_top" xlink:title="application.ViewHandler2.move\lTurtle">
<polygon fill="white" stroke="black" points="826.5,-413 826.5,-443 993.5,-443 993.5,-413 826.5,-413"/>
<text text-anchor="start" x="834.5" y="-431" font-family="Helvetica,sans-Serif" font-size="10.00">application.ViewHandler2.move</text>
<text text-anchor="middle" x="910" y="-420" font-family="Helvetica,sans-Serif" font-size="10.00">Turtle</text>
</a>
</g>
</g>
<!-- Node4&#45;&gt;Node6 -->
<g id="edge5" class="edge"><title>Node4&#45;&gt;Node6</title>
<path fill="none" stroke="midnightblue" d="M772.979,-443.249C790.553,-441.279 808.982,-439.213 826.401,-437.26"/>
<polygon fill="midnightblue" stroke="midnightblue" points="772.292,-439.804 762.744,-444.396 773.072,-446.76 772.292,-439.804"/>
</g>
<!-- Node11 -->
<g id="node11" class="node"><title>Node11</title>
<g id="a_node11"><a xlink:href="../../d8/d65/classapplication_1_1_view_handler.html#a1aff135a076a9717102bb59ea613131c" target="_top" xlink:title="application.ViewHandler.change\lLocationOfTurtle">
<polygon fill="white" stroke="black" points="601,-225 601,-255 769,-255 769,-225 601,-225"/>
<text text-anchor="start" x="609" y="-243" font-family="Helvetica,sans-Serif" font-size="10.00">application.ViewHandler.change</text>
<text text-anchor="middle" x="685" y="-232" font-family="Helvetica,sans-Serif" font-size="10.00">LocationOfTurtle</text>
</a>
</g>
</g>
<!-- Node10&#45;&gt;Node11 -->
<g id="edge11" class="edge"><title>Node10&#45;&gt;Node11</title>
<path fill="none" stroke="midnightblue" d="M286.786,-178.084C310.499,-194.167 345.687,-215.174 380,-225 452.517,-245.766 538.686,-248.037 600.733,-245.983"/>
<polygon fill="midnightblue" stroke="midnightblue" points="288.499,-175.013 278.286,-172.195 284.513,-180.767 288.499,-175.013"/>
</g>
<!-- Node14 -->
<g id="node14" class="node"><title>Node14</title>
<g id="a_node14"><a xlink:href="../../d8/d65/classapplication_1_1_view_handler.html#a1a94c855ceb0e8ffb1f72f138addb75b" target="_top" xlink:title="application.ViewHandler.move\lTurtle">
<polygon fill="white" stroke="black" points="605,-164 605,-194 765,-194 765,-164 605,-164"/>
<text text-anchor="start" x="613" y="-182" font-family="Helvetica,sans-Serif" font-size="10.00">application.ViewHandler.move</text>
<text text-anchor="middle" x="685" y="-171" font-family="Helvetica,sans-Serif" font-size="10.00">Turtle</text>
</a>
</g>
</g>
<!-- Node10&#45;&gt;Node14 -->
<g id="edge14" class="edge"><title>Node10&#45;&gt;Node14</title>
<path fill="none" stroke="midnightblue" d="M350.678,-161.786C426.591,-165.707 532.848,-171.194 604.829,-174.911"/>
<polygon fill="midnightblue" stroke="midnightblue" points="350.809,-158.288 340.642,-161.268 350.448,-165.279 350.809,-158.288"/>
</g>
<!-- Node16 -->
<g id="node16" class="node"><title>Node16</title>
<g id="a_node16"><a xlink:href="../../d8/d65/classapplication_1_1_view_handler.html#a98b4ba09b3f3e8b1a7667db5598dbfb0" target="_top" xlink:title="application.ViewHandler.move\lTurtleImageAndDraw">
<polygon fill="white" stroke="black" points="385,-186 385,-216 545,-216 545,-186 385,-186"/>
<text text-anchor="start" x="393" y="-204" font-family="Helvetica,sans-Serif" font-size="10.00">application.ViewHandler.move</text>
<text text-anchor="middle" x="465" y="-193" font-family="Helvetica,sans-Serif" font-size="10.00">TurtleImageAndDraw</text>
</a>
</g>
</g>
<!-- Node10&#45;&gt;Node16 -->
<g id="edge16" class="edge"><title>Node10&#45;&gt;Node16</title>
<path fill="none" stroke="midnightblue" d="M338.34,-174.16C356.595,-178.059 375.848,-182.171 393.65,-185.974"/>
<polygon fill="midnightblue" stroke="midnightblue" points="338.828,-170.685 328.317,-172.019 337.366,-177.531 338.828,-170.685"/>
</g>
<!-- Node17 -->
<g id="node17" class="node"><title>Node17</title>
<g id="a_node17"><a xlink:href="../../d8/d65/classapplication_1_1_view_handler.html#abe68f02cdf0227b13568e1aaabf57e5c" target="_top" xlink:title="application.ViewHandler.rotate\lTurtle">
<polygon fill="white" stroke="black" points="384,-98 384,-128 546,-128 546,-98 384,-98"/>
<text text-anchor="start" x="392" y="-116" font-family="Helvetica,sans-Serif" font-size="10.00">application.ViewHandler.rotate</text>
<text text-anchor="middle" x="465" y="-105" font-family="Helvetica,sans-Serif" font-size="10.00">Turtle</text>
</a>
</g>
</g>
<!-- Node10&#45;&gt;Node17 -->
<g id="edge19" class="edge"><title>Node10&#45;&gt;Node17</title>
<path fill="none" stroke="midnightblue" d="M338.34,-139.84C356.595,-135.941 375.848,-131.829 393.65,-128.026"/>
<polygon fill="midnightblue" stroke="midnightblue" points="337.366,-136.469 328.317,-141.981 338.828,-143.315 337.366,-136.469"/>
</g>
<!-- Node19 -->
<g id="node19" class="node"><title>Node19</title>
<g id="a_node19"><a xlink:href="../../d8/d65/classapplication_1_1_view_handler.html#af07eafb381b0ea9a1ce68f6ffe8a7428" target="_top" xlink:title="application.ViewHandler.set\lTurtleOrientation">
<polygon fill="white" stroke="black" points="391,-49 391,-79 539,-79 539,-49 391,-49"/>
<text text-anchor="start" x="399" y="-67" font-family="Helvetica,sans-Serif" font-size="10.00">application.ViewHandler.set</text>
<text text-anchor="middle" x="465" y="-56" font-family="Helvetica,sans-Serif" font-size="10.00">TurtleOrientation</text>
</a>
</g>
</g>
<!-- Node10&#45;&gt;Node19 -->
<g id="edge21" class="edge"><title>Node10&#45;&gt;Node19</title>
<path fill="none" stroke="midnightblue" d="M289.685,-136.317C313.711,-121.327 347.956,-101.416 380,-88 387.834,-84.7198 396.261,-81.7263 404.645,-79.0509"/>
<polygon fill="midnightblue" stroke="midnightblue" points="287.591,-133.499 281.003,-141.797 291.328,-139.419 287.591,-133.499"/>
</g>
<!-- Node22 -->
<g id="node22" class="node"><title>Node22</title>
<g id="a_node22"><a xlink:href="../../d8/d65/classapplication_1_1_view_handler.html#a55d042c40e05453e3f5f6bc6c1c6e060" target="_top" xlink:title="application.ViewHandler.show\lTurtle">
<polygon fill="white" stroke="black" points="386.5,-0 386.5,-30 543.5,-30 543.5,-0 386.5,-0"/>
<text text-anchor="start" x="394.5" y="-18" font-family="Helvetica,sans-Serif" font-size="10.00">application.ViewHandler.show</text>
<text text-anchor="middle" x="465" y="-7" font-family="Helvetica,sans-Serif" font-size="10.00">Turtle</text>
</a>
</g>
</g>
<!-- Node10&#45;&gt;Node22 -->
<g id="edge24" class="edge"><title>Node10&#45;&gt;Node22</title>
<path fill="none" stroke="midnightblue" d="M275.852,-133.88C297.639,-107.212 336.938,-63.8574 380,-39 385.911,-35.5879 392.339,-32.6338 398.921,-30.0822"/>
<polygon fill="midnightblue" stroke="midnightblue" points="272.939,-131.918 269.41,-141.908 278.399,-136.299 272.939,-131.918"/>
</g>
<!-- Node12 -->
<g id="node12" class="node"><title>Node12</title>
<g id="a_node12"><a xlink:href="../../d5/de0/classcommands_1_1view_commands_1_1turtle_commands_1_1_clear_screen.html#ae547e4c170a1b6d41cdfc6c8bfe5e972" target="_top" xlink:title="commands.viewCommands.turtle\lCommands.ClearScreen.execute">
<polygon fill="white" stroke="black" points="821,-266 821,-296 999,-296 999,-266 821,-266"/>
<text text-anchor="start" x="829" y="-284" font-family="Helvetica,sans-Serif" font-size="10.00">commands.viewCommands.turtle</text>
<text text-anchor="middle" x="910" y="-273" font-family="Helvetica,sans-Serif" font-size="10.00">Commands.ClearScreen.execute</text>
</a>
</g>
</g>
<!-- Node11&#45;&gt;Node12 -->
<g id="edge12" class="edge"><title>Node11&#45;&gt;Node12</title>
<path fill="none" stroke="midnightblue" d="M777.871,-256.891C794.235,-259.9 811.181,-263.015 827.239,-265.968"/>
<polygon fill="midnightblue" stroke="midnightblue" points="778.239,-253.4 767.771,-255.034 776.973,-260.285 778.239,-253.4"/>
</g>
<!-- Node13 -->
<g id="node13" class="node"><title>Node13</title>
<g id="a_node13"><a xlink:href="../../dd/da6/classcommands_1_1view_commands_1_1turtle_commands_1_1_move.html#af4d9a4d9ade56b5e3a1e582bd891b7b5" target="_top" xlink:title="commands.viewCommands.turtle\lCommands.Move.goToLocation">
<polygon fill="white" stroke="black" points="821,-217 821,-247 999,-247 999,-217 821,-217"/>
<text text-anchor="start" x="829" y="-235" font-family="Helvetica,sans-Serif" font-size="10.00">commands.viewCommands.turtle</text>
<text text-anchor="middle" x="910" y="-224" font-family="Helvetica,sans-Serif" font-size="10.00">Commands.Move.goToLocation</text>
</a>
</g>
</g>
<!-- Node11&#45;&gt;Node13 -->
<g id="edge13" class="edge"><title>Node11&#45;&gt;Node13</title>
<path fill="none" stroke="midnightblue" d="M779.4,-236.649C793.066,-236.159 807.104,-235.655 820.664,-235.169"/>
<polygon fill="midnightblue" stroke="midnightblue" points="778.905,-233.165 769.037,-237.021 779.156,-240.16 778.905,-233.165"/>
</g>
<!-- Node15 -->
<g id="node15" class="node"><title>Node15</title>
<g id="a_node15"><a xlink:href="../../dd/da6/classcommands_1_1view_commands_1_1turtle_commands_1_1_move.html#af95e8ccf5c290a4d06f79caf2deed407" target="_top" xlink:title="commands.viewCommands.turtle\lCommands.Move.changeLocation">
<polygon fill="white" stroke="black" points="820.5,-164 820.5,-194 999.5,-194 999.5,-164 820.5,-164"/>
<text text-anchor="start" x="828.5" y="-182" font-family="Helvetica,sans-Serif" font-size="10.00">commands.viewCommands.turtle</text>
<text text-anchor="middle" x="910" y="-171" font-family="Helvetica,sans-Serif" font-size="10.00">Commands.Move.changeLocation</text>
</a>
</g>
</g>
<!-- Node14&#45;&gt;Node15 -->
<g id="edge15" class="edge"><title>Node14&#45;&gt;Node15</title>
<path fill="none" stroke="midnightblue" d="M775.362,-179C790.112,-179 805.401,-179 820.139,-179"/>
<polygon fill="midnightblue" stroke="midnightblue" points="775.249,-175.5 765.249,-179 775.249,-182.5 775.249,-175.5"/>
</g>
<!-- Node16&#45;&gt;Node11 -->
<g id="edge17" class="edge"><title>Node16&#45;&gt;Node11</title>
<path fill="none" stroke="midnightblue" d="M554.902,-216.904C570.091,-219.622 585.819,-222.436 600.852,-225.125"/>
<polygon fill="midnightblue" stroke="midnightblue" points="555.471,-213.451 545.011,-215.135 554.239,-220.341 555.471,-213.451"/>
</g>
<!-- Node16&#45;&gt;Node14 -->
<g id="edge18" class="edge"><title>Node16&#45;&gt;Node14</title>
<path fill="none" stroke="midnightblue" d="M555.173,-192.001C571.646,-190.339 588.743,-188.613 604.892,-186.983"/>
<polygon fill="midnightblue" stroke="midnightblue" points="554.609,-188.54 545.011,-193.026 555.312,-195.505 554.609,-188.54"/>
</g>
<!-- Node18 -->
<g id="node18" class="node"><title>Node18</title>
<g id="a_node18"><a xlink:href="../../d3/dba/classcommands_1_1view_commands_1_1turtle_commands_1_1_rotate.html#a8ee301e936ff8d884357dccac52c2bfb" target="_top" xlink:title="commands.viewCommands.turtle\lCommands.Rotate.changeOrientation">
<polygon fill="white" stroke="black" points="586.5,-98 586.5,-128 783.5,-128 783.5,-98 586.5,-98"/>
<text text-anchor="start" x="594.5" y="-116" font-family="Helvetica,sans-Serif" font-size="10.00">commands.viewCommands.turtle</text>
<text text-anchor="middle" x="685" y="-105" font-family="Helvetica,sans-Serif" font-size="10.00">Commands.Rotate.changeOrientation</text>
</a>
</g>
</g>
<!-- Node17&#45;&gt;Node18 -->
<g id="edge20" class="edge"><title>Node17&#45;&gt;Node18</title>
<path fill="none" stroke="midnightblue" d="M556.397,-113C566.222,-113 576.256,-113 586.165,-113"/>
<polygon fill="midnightblue" stroke="midnightblue" points="556.246,-109.5 546.246,-113 556.246,-116.5 556.246,-109.5"/>
</g>
<!-- Node20 -->
<g id="node20" class="node"><title>Node20</title>
<g id="a_node20"><a xlink:href="../../df/d03/classcommands_1_1view_commands_1_1turtle_commands_1_1_go_towards_loc.html#a67f5f04ce72d0cd234d1e0a11e6d7c83" target="_top" xlink:title="commands.viewCommands.turtle\lCommands.GoTowardsLoc.execute">
<polygon fill="white" stroke="black" points="593,-49 593,-79 777,-79 777,-49 593,-49"/>
<text text-anchor="start" x="601" y="-67" font-family="Helvetica,sans-Serif" font-size="10.00">commands.viewCommands.turtle</text>
<text text-anchor="middle" x="685" y="-56" font-family="Helvetica,sans-Serif" font-size="10.00">Commands.GoTowardsLoc.execute</text>
</a>
</g>
</g>
<!-- Node19&#45;&gt;Node20 -->
<g id="edge22" class="edge"><title>Node19&#45;&gt;Node20</title>
<path fill="none" stroke="midnightblue" d="M549.41,-64C563.604,-64 578.412,-64 592.795,-64"/>
<polygon fill="midnightblue" stroke="midnightblue" points="549.197,-60.5001 539.197,-64 549.197,-67.5001 549.197,-60.5001"/>
</g>
<!-- Node21 -->
<g id="node21" class="node"><title>Node21</title>
<g id="a_node21"><a xlink:href="../../df/ded/classcommands_1_1view_commands_1_1turtle_commands_1_1_set_heading.html#a3efffc1774ad2f0b23742a20789f0ee8" target="_top" xlink:title="commands.viewCommands.turtle\lCommands.SetHeading.execute">
<polygon fill="white" stroke="black" points="596,-0 596,-30 774,-30 774,-0 596,-0"/>
<text text-anchor="start" x="604" y="-18" font-family="Helvetica,sans-Serif" font-size="10.00">commands.viewCommands.turtle</text>
<text text-anchor="middle" x="685" y="-7" font-family="Helvetica,sans-Serif" font-size="10.00">Commands.SetHeading.execute</text>
</a>
</g>
</g>
<!-- Node19&#45;&gt;Node21 -->
<g id="edge23" class="edge"><title>Node19&#45;&gt;Node21</title>
<path fill="none" stroke="midnightblue" d="M542.781,-46.7419C567.072,-41.282 593.708,-35.295 617.238,-30.0062"/>
<polygon fill="midnightblue" stroke="midnightblue" points="541.878,-43.3575 532.889,-48.9654 543.413,-50.1871 541.878,-43.3575"/>
</g>
</g>
</svg>
