<?xml version="1.0" encoding="UTF-8" standalone="no"?>
<!DOCTYPE svg PUBLIC "-//W3C//DTD SVG 1.1//EN"
 "http://www.w3.org/Graphics/SVG/1.1/DTD/svg11.dtd">
<!-- Generated by graphviz version 2.36.0 (20140111.2315)
 -->
<!-- Title: gui.TurtleView.showTurtle Pages: 1 -->
<svg width="1008pt" height="546pt"
 viewBox="0.00 0.00 1008.00 546.00" xmlns="http://www.w3.org/2000/svg" xmlns:xlink="http://www.w3.org/1999/xlink">
<g id="graph0" class="graph" transform="scale(1 1) rotate(0) translate(4 542)">
<title>gui.TurtleView.showTurtle</title>
<polygon fill="white" stroke="none" points="-4,4 -4,-542 1004,-542 1004,4 -4,4"/>
<!-- Node1 -->
<g id="node1" class="node"><title>Node1</title>
<polygon fill="#bfbfbf" stroke="black" points="0.5,-295.5 0.5,-314.5 133.5,-314.5 133.5,-295.5 0.5,-295.5"/>
<text text-anchor="middle" x="67" y="-302.5" font-family="Helvetica,sans-Serif" font-size="10.00">gui.TurtleView.showTurtle</text>
</g>
<!-- Node2 -->
<g id="node2" class="node"><title>Node2</title>
<g id="a_node2"><a xlink:href="../../d3/de0/classapplication_1_1_view_handler2.html#adef8a4ac6b5b11687e8ecb1c05253287" target="_top" xlink:title="application.ViewHandler2.update\lTurtleOnView">
<polygon fill="white" stroke="black" points="170.5,-393 170.5,-423 343.5,-423 343.5,-393 170.5,-393"/>
<text text-anchor="start" x="178.5" y="-411" font-family="Helvetica,sans-Serif" font-size="10.00">application.ViewHandler2.update</text>
<text text-anchor="middle" x="257" y="-400" font-family="Helvetica,sans-Serif" font-size="10.00">TurtleOnView</text>
</a>
</g>
</g>
<!-- Node1&#45;&gt;Node2 -->
<g id="edge1" class="edge"><title>Node1&#45;&gt;Node2</title>
<path fill="none" stroke="midnightblue" d="M94.1383,-319.32C129.52,-338.705 192.372,-373.14 228.462,-392.913"/>
<polygon fill="midnightblue" stroke="midnightblue" points="95.8014,-316.241 85.3496,-314.505 92.4379,-322.38 95.8014,-316.241"/>
</g>
<!-- Node10 -->
<g id="node10" class="node"><title>Node10</title>
<g id="a_node10"><a xlink:href="../../d8/d65/classapplication_1_1_view_handler.html#ae489ceaa9b5ec67faf3ba22a11cec085" target="_top" xlink:title="application.ViewHandler.update\lTurtleOnView">
<polygon fill="white" stroke="black" points="173.5,-188 173.5,-218 340.5,-218 340.5,-188 173.5,-188"/>
<text text-anchor="start" x="181.5" y="-206" font-family="Helvetica,sans-Serif" font-size="10.00">application.ViewHandler.update</text>
<text text-anchor="middle" x="257" y="-195" font-family="Helvetica,sans-Serif" font-size="10.00">TurtleOnView</text>
</a>
</g>
</g>
<!-- Node1&#45;&gt;Node10 -->
<g id="edge10" class="edge"><title>Node1&#45;&gt;Node10</title>
<path fill="none" stroke="midnightblue" d="M94.4854,-290.63C129.862,-271.436 192.249,-237.588 228.254,-218.053"/>
<polygon fill="midnightblue" stroke="midnightblue" points="92.8071,-287.559 85.6866,-295.404 96.1454,-293.712 92.8071,-287.559"/>
</g>
<!-- Node3 -->
<g id="node3" class="node"><title>Node3</title>
<g id="a_node3"><a xlink:href="../../d3/de0/classapplication_1_1_view_handler2.html#ab87b30f73cb5e726f4fcc6b6f60f8007" target="_top" xlink:title="application.ViewHandler2.move\lTurtleImageAndDraw">
<polygon fill="white" stroke="black" points="381.5,-506 381.5,-536 548.5,-536 548.5,-506 381.5,-506"/>
<text text-anchor="start" x="389.5" y="-524" font-family="Helvetica,sans-Serif" font-size="10.00">application.ViewHandler2.move</text>
<text text-anchor="middle" x="465" y="-513" font-family="Helvetica,sans-Serif" font-size="10.00">TurtleImageAndDraw</text>
</a>
</g>
</g>
<!-- Node2&#45;&gt;Node3 -->
<g id="edge2" class="edge"><title>Node2&#45;&gt;Node3</title>
<path fill="none" stroke="midnightblue" d="M285.139,-429.443C309.071,-447.608 345.423,-473.427 380,-491 391.044,-496.613 403.388,-501.647 415.142,-505.917"/>
<polygon fill="midnightblue" stroke="midnightblue" points="286.974,-426.439 276.91,-423.127 282.711,-431.992 286.974,-426.439"/>
</g>
<!-- Node4 -->
<g id="node4" class="node"><title>Node4</title>
<g id="a_node4"><a xlink:href="../../d3/de0/classapplication_1_1_view_handler2.html#abaa9dc9add64d8386b9f7fc37152d620" target="_top" xlink:title="application.ViewHandler2.set\lTurtleLocAndMove">
<polygon fill="white" stroke="black" points="607.5,-484 607.5,-514 762.5,-514 762.5,-484 607.5,-484"/>
<text text-anchor="start" x="615.5" y="-502" font-family="Helvetica,sans-Serif" font-size="10.00">application.ViewHandler2.set</text>
<text text-anchor="middle" x="685" y="-491" font-family="Helvetica,sans-Serif" font-size="10.00">TurtleLocAndMove</text>
</a>
</g>
</g>
<!-- Node2&#45;&gt;Node4 -->
<g id="edge7" class="edge"><title>Node2&#45;&gt;Node4</title>
<path fill="none" stroke="midnightblue" d="M298.615,-427.225C321.948,-437.525 352.08,-449.585 380,-457 455.953,-477.173 545.302,-488.043 607.396,-493.633"/>
<polygon fill="midnightblue" stroke="midnightblue" points="299.938,-423.983 289.381,-423.085 297.074,-430.37 299.938,-423.983"/>
</g>
<!-- Node7 -->
<g id="node7" class="node"><title>Node7</title>
<g id="a_node7"><a xlink:href="../../d3/de0/classapplication_1_1_view_handler2.html#a4dfbbb48e3c3c7bc5db71a2a308a1b7c" target="_top" xlink:title="application.ViewHandler2.rotate\lTurtle">
<polygon fill="white" stroke="black" points="380.5,-418 380.5,-448 549.5,-448 549.5,-418 380.5,-418"/>
<text text-anchor="start" x="388.5" y="-436" font-family="Helvetica,sans-Serif" font-size="10.00">application.ViewHandler2.rotate</text>
<text text-anchor="middle" x="465" y="-425" font-family="Helvetica,sans-Serif" font-size="10.00">Turtle</text>
</a>
</g>
</g>
<!-- Node2&#45;&gt;Node7 -->
<g id="edge6" class="edge"><title>Node2&#45;&gt;Node7</title>
<path fill="none" stroke="midnightblue" d="M353.608,-419.603C362.537,-420.687 371.541,-421.779 380.349,-422.848"/>
<polygon fill="midnightblue" stroke="midnightblue" points="353.922,-416.115 343.573,-418.385 353.078,-423.064 353.922,-416.115"/>
</g>
<!-- Node8 -->
<g id="node8" class="node"><title>Node8</title>
<g id="a_node8"><a xlink:href="../../d3/de0/classapplication_1_1_view_handler2.html#a0e3021726260bc0112ea6b6deef82aaa" target="_top" xlink:title="application.ViewHandler2.set\lTurtleOrientation">
<polygon fill="white" stroke="black" points="387.5,-369 387.5,-399 542.5,-399 542.5,-369 387.5,-369"/>
<text text-anchor="start" x="395.5" y="-387" font-family="Helvetica,sans-Serif" font-size="10.00">application.ViewHandler2.set</text>
<text text-anchor="middle" x="465" y="-376" font-family="Helvetica,sans-Serif" font-size="10.00">TurtleOrientation</text>
</a>
</g>
</g>
<!-- Node2&#45;&gt;Node8 -->
<g id="edge8" class="edge"><title>Node2&#45;&gt;Node8</title>
<path fill="none" stroke="midnightblue" d="M353.818,-396.837C365.025,-395.531 376.346,-394.212 387.246,-392.942"/>
<polygon fill="midnightblue" stroke="midnightblue" points="353.101,-393.397 343.573,-398.03 353.911,-400.35 353.101,-393.397"/>
</g>
<!-- Node9 -->
<g id="node9" class="node"><title>Node9</title>
<g id="a_node9"><a xlink:href="../../d3/de0/classapplication_1_1_view_handler2.html#a204e29a9937f99e85d42c948f58012c1" target="_top" xlink:title="application.ViewHandler2.show\lTurtle">
<polygon fill="white" stroke="black" points="383,-320 383,-350 547,-350 547,-320 383,-320"/>
<text text-anchor="start" x="391" y="-338" font-family="Helvetica,sans-Serif" font-size="10.00">application.ViewHandler2.show</text>
<text text-anchor="middle" x="465" y="-327" font-family="Helvetica,sans-Serif" font-size="10.00">Turtle</text>
</a>
</g>
</g>
<!-- Node2&#45;&gt;Node9 -->
<g id="edge9" class="edge"><title>Node2&#45;&gt;Node9</title>
<path fill="none" stroke="midnightblue" d="M303.423,-389.059C326.232,-379.822 354.394,-368.83 380,-360 389.925,-356.578 400.602,-353.184 410.905,-350.052"/>
<polygon fill="midnightblue" stroke="midnightblue" points="301.939,-385.884 293.999,-392.899 304.58,-392.367 301.939,-385.884"/>
</g>
<!-- Node3&#45;&gt;Node4 -->
<g id="edge3" class="edge"><title>Node3&#45;&gt;Node4</title>
<path fill="none" stroke="midnightblue" d="M558.754,-511.639C574.982,-510.002 591.701,-508.315 607.429,-506.727"/>
<polygon fill="midnightblue" stroke="midnightblue" points="558.325,-508.165 548.727,-512.651 559.028,-515.13 558.325,-508.165"/>
</g>
<!-- Node5 -->
<g id="node5" class="node"><title>Node5</title>
<g id="a_node5"><a xlink:href="../../d3/de0/classapplication_1_1_view_handler2.html#acd04df701dbbc0a759c79058966f8264" target="_top" xlink:title="application.ViewHandler2.change\lLocationOfTurtle">
<polygon fill="white" stroke="black" points="822.5,-508 822.5,-538 997.5,-538 997.5,-508 822.5,-508"/>
<text text-anchor="start" x="830.5" y="-526" font-family="Helvetica,sans-Serif" font-size="10.00">application.ViewHandler2.change</text>
<text text-anchor="middle" x="910" y="-515" font-family="Helvetica,sans-Serif" font-size="10.00">LocationOfTurtle</text>
</a>
</g>
</g>
<!-- Node4&#45;&gt;Node5 -->
<g id="edge4" class="edge"><title>Node4&#45;&gt;Node5</title>
<path fill="none" stroke="midnightblue" d="M772.74,-508.335C788.968,-510.082 805.933,-511.908 822.164,-513.654"/>
<polygon fill="midnightblue" stroke="midnightblue" points="773.061,-504.85 762.744,-507.259 772.312,-511.809 773.061,-504.85"/>
</g>
<!-- Node6 -->
<g id="node6" class="node"><title>Node6</title>
<g id="a_node6"><a xlink:href="../../d3/de0/classapplication_1_1_view_handler2.html#ac682f2c1ca441598b6d29fe899e7f468" target="_top" xlink:title="application.ViewHandler2.move\lTurtle">
<polygon fill="white" stroke="black" points="826.5,-459 826.5,-489 993.5,-489 993.5,-459 826.5,-459"/>
<text text-anchor="start" x="834.5" y="-477" font-family="Helvetica,sans-Serif" font-size="10.00">application.ViewHandler2.move</text>
<text text-anchor="middle" x="910" y="-466" font-family="Helvetica,sans-Serif" font-size="10.00">Turtle</text>
</a>
</g>
</g>
<!-- Node4&#45;&gt;Node6 -->
<g id="edge5" class="edge"><title>Node4&#45;&gt;Node6</title>
<path fill="none" stroke="midnightblue" d="M772.979,-489.249C790.553,-487.279 808.982,-485.213 826.401,-483.26"/>
<polygon fill="midnightblue" stroke="midnightblue" points="772.292,-485.804 762.744,-490.396 773.072,-492.76 772.292,-485.804"/>
</g>
<!-- Node11 -->
<g id="node11" class="node"><title>Node11</title>
<g id="a_node11"><a xlink:href="../../d8/d65/classapplication_1_1_view_handler.html#a1aff135a076a9717102bb59ea613131c" target="_top" xlink:title="application.ViewHandler.change\lLocationOfTurtle">
<polygon fill="white" stroke="black" points="601,-259 601,-289 769,-289 769,-259 601,-259"/>
<text text-anchor="start" x="609" y="-277" font-family="Helvetica,sans-Serif" font-size="10.00">application.ViewHandler.change</text>
<text text-anchor="middle" x="685" y="-266" font-family="Helvetica,sans-Serif" font-size="10.00">LocationOfTurtle</text>
</a>
</g>
</g>
<!-- Node10&#45;&gt;Node11 -->
<g id="edge11" class="edge"><title>Node10&#45;&gt;Node11</title>
<path fill="none" stroke="midnightblue" d="M286.258,-224.158C309.916,-240.488 345.292,-261.797 380,-271 452.828,-290.31 538.96,-289.017 600.915,-284.095"/>
<polygon fill="midnightblue" stroke="midnightblue" points="287.979,-221.088 277.791,-218.179 283.941,-226.806 287.979,-221.088"/>
</g>
<!-- Node14 -->
<g id="node14" class="node"><title>Node14</title>
<g id="a_node14"><a xlink:href="../../d8/d65/classapplication_1_1_view_handler.html#a1a94c855ceb0e8ffb1f72f138addb75b" target="_top" xlink:title="application.ViewHandler.move\lTurtle">
<polygon fill="white" stroke="black" points="605,-204 605,-234 765,-234 765,-204 605,-204"/>
<text text-anchor="start" x="613" y="-222" font-family="Helvetica,sans-Serif" font-size="10.00">application.ViewHandler.move</text>
<text text-anchor="middle" x="685" y="-211" font-family="Helvetica,sans-Serif" font-size="10.00">Turtle</text>
</a>
</g>
</g>
<!-- Node10&#45;&gt;Node14 -->
<g id="edge14" class="edge"><title>Node10&#45;&gt;Node14</title>
<path fill="none" stroke="midnightblue" d="M350.678,-206.481C426.591,-209.332 532.848,-213.323 604.829,-216.026"/>
<polygon fill="midnightblue" stroke="midnightblue" points="350.767,-202.982 340.642,-206.104 350.504,-209.977 350.767,-202.982"/>
</g>
<!-- Node16 -->
<g id="node16" class="node"><title>Node16</title>
<g id="a_node16"><a xlink:href="../../d8/d65/classapplication_1_1_view_handler.html#a98b4ba09b3f3e8b1a7667db5598dbfb0" target="_top" xlink:title="application.ViewHandler.move\lTurtleImageAndDraw">
<polygon fill="white" stroke="black" points="385,-232 385,-262 545,-262 545,-232 385,-232"/>
<text text-anchor="start" x="393" y="-250" font-family="Helvetica,sans-Serif" font-size="10.00">application.ViewHandler.move</text>
<text text-anchor="middle" x="465" y="-239" font-family="Helvetica,sans-Serif" font-size="10.00">TurtleImageAndDraw</text>
</a>
</g>
</g>
<!-- Node10&#45;&gt;Node16 -->
<g id="edge16" class="edge"><title>Node10&#45;&gt;Node16</title>
<path fill="none" stroke="midnightblue" d="M338.34,-220.16C356.595,-224.059 375.848,-228.171 393.65,-231.974"/>
<polygon fill="midnightblue" stroke="midnightblue" points="338.828,-216.685 328.317,-218.019 337.366,-223.531 338.828,-216.685"/>
</g>
<!-- Node17 -->
<g id="node17" class="node"><title>Node17</title>
<g id="a_node17"><a xlink:href="../../d8/d65/classapplication_1_1_view_handler.html#abe68f02cdf0227b13568e1aaabf57e5c" target="_top" xlink:title="application.ViewHandler.rotate\lTurtle">
<polygon fill="white" stroke="black" points="384,-144 384,-174 546,-174 546,-144 384,-144"/>
<text text-anchor="start" x="392" y="-162" font-family="Helvetica,sans-Serif" font-size="10.00">application.ViewHandler.rotate</text>
<text text-anchor="middle" x="465" y="-151" font-family="Helvetica,sans-Serif" font-size="10.00">Turtle</text>
</a>
</g>
</g>
<!-- Node10&#45;&gt;Node17 -->
<g id="edge19" class="edge"><title>Node10&#45;&gt;Node17</title>
<path fill="none" stroke="midnightblue" d="M338.34,-185.84C356.595,-181.941 375.848,-177.829 393.65,-174.026"/>
<polygon fill="midnightblue" stroke="midnightblue" points="337.366,-182.469 328.317,-187.981 338.828,-189.315 337.366,-182.469"/>
</g>
<!-- Node19 -->
<g id="node19" class="node"><title>Node19</title>
<g id="a_node19"><a xlink:href="../../d8/d65/classapplication_1_1_view_handler.html#af07eafb381b0ea9a1ce68f6ffe8a7428" target="_top" xlink:title="application.ViewHandler.set\lTurtleOrientation">
<polygon fill="white" stroke="black" points="391,-95 391,-125 539,-125 539,-95 391,-95"/>
<text text-anchor="start" x="399" y="-113" font-family="Helvetica,sans-Serif" font-size="10.00">application.ViewHandler.set</text>
<text text-anchor="middle" x="465" y="-102" font-family="Helvetica,sans-Serif" font-size="10.00">TurtleOrientation</text>
</a>
</g>
</g>
<!-- Node10&#45;&gt;Node19 -->
<g id="edge21" class="edge"><title>Node10&#45;&gt;Node19</title>
<path fill="none" stroke="midnightblue" d="M289.685,-182.317C313.711,-167.327 347.956,-147.416 380,-134 387.834,-130.72 396.261,-127.726 404.645,-125.051"/>
<polygon fill="midnightblue" stroke="midnightblue" points="287.591,-179.499 281.003,-187.797 291.328,-185.419 287.591,-179.499"/>
</g>
<!-- Node23 -->
<g id="node23" class="node"><title>Node23</title>
<g id="a_node23"><a xlink:href="../../d8/d65/classapplication_1_1_view_handler.html#a55d042c40e05453e3f5f6bc6c1c6e060" target="_top" xlink:title="application.ViewHandler.show\lTurtle">
<polygon fill="white" stroke="black" points="386.5,-46 386.5,-76 543.5,-76 543.5,-46 386.5,-46"/>
<text text-anchor="start" x="394.5" y="-64" font-family="Helvetica,sans-Serif" font-size="10.00">application.ViewHandler.show</text>
<text text-anchor="middle" x="465" y="-53" font-family="Helvetica,sans-Serif" font-size="10.00">Turtle</text>
</a>
</g>
</g>
<!-- Node10&#45;&gt;Node23 -->
<g id="edge25" class="edge"><title>Node10&#45;&gt;Node23</title>
<path fill="none" stroke="midnightblue" d="M275.852,-179.88C297.639,-153.212 336.938,-109.857 380,-85 385.911,-81.5879 392.339,-78.6338 398.921,-76.0822"/>
<polygon fill="midnightblue" stroke="midnightblue" points="272.939,-177.918 269.41,-187.908 278.399,-182.299 272.939,-177.918"/>
</g>
<!-- Node12 -->
<g id="node12" class="node"><title>Node12</title>
<g id="a_node12"><a xlink:href="../../d5/de0/classcommands_1_1view_commands_1_1turtle_commands_1_1_clear_screen.html#ae547e4c170a1b6d41cdfc6c8bfe5e972" target="_top" xlink:title="commands.viewCommands.turtle\lCommands.ClearScreen.execute">
<polygon fill="white" stroke="black" points="821,-304 821,-334 999,-334 999,-304 821,-304"/>
<text text-anchor="start" x="829" y="-322" font-family="Helvetica,sans-Serif" font-size="10.00">commands.viewCommands.turtle</text>
<text text-anchor="middle" x="910" y="-311" font-family="Helvetica,sans-Serif" font-size="10.00">Commands.ClearScreen.execute</text>
</a>
</g>
</g>
<!-- Node11&#45;&gt;Node12 -->
<g id="edge12" class="edge"><title>Node11&#45;&gt;Node12</title>
<path fill="none" stroke="midnightblue" d="M770.458,-291.043C791.524,-295.294 813.959,-299.821 834.504,-303.967"/>
<polygon fill="midnightblue" stroke="midnightblue" points="771.061,-287.594 760.566,-289.047 769.676,-294.456 771.061,-287.594"/>
</g>
<!-- Node13 -->
<g id="node13" class="node"><title>Node13</title>
<g id="a_node13"><a xlink:href="../../dd/da6/classcommands_1_1view_commands_1_1turtle_commands_1_1_move.html#af4d9a4d9ade56b5e3a1e582bd891b7b5" target="_top" xlink:title="commands.viewCommands.turtle\lCommands.Move.goToLocation">
<polygon fill="white" stroke="black" points="821,-255 821,-285 999,-285 999,-255 821,-255"/>
<text text-anchor="start" x="829" y="-273" font-family="Helvetica,sans-Serif" font-size="10.00">commands.viewCommands.turtle</text>
<text text-anchor="middle" x="910" y="-262" font-family="Helvetica,sans-Serif" font-size="10.00">Commands.Move.goToLocation</text>
</a>
</g>
</g>
<!-- Node11&#45;&gt;Node13 -->
<g id="edge13" class="edge"><title>Node11&#45;&gt;Node13</title>
<path fill="none" stroke="midnightblue" d="M779.4,-272.325C793.066,-272.08 807.104,-271.828 820.664,-271.584"/>
<polygon fill="midnightblue" stroke="midnightblue" points="778.973,-268.832 769.037,-272.511 779.098,-275.831 778.973,-268.832"/>
</g>
<!-- Node15 -->
<g id="node15" class="node"><title>Node15</title>
<g id="a_node15"><a xlink:href="../../dd/da6/classcommands_1_1view_commands_1_1turtle_commands_1_1_move.html#af95e8ccf5c290a4d06f79caf2deed407" target="_top" xlink:title="commands.viewCommands.turtle\lCommands.Move.changeLocation">
<polygon fill="white" stroke="black" points="820.5,-204 820.5,-234 999.5,-234 999.5,-204 820.5,-204"/>
<text text-anchor="start" x="828.5" y="-222" font-family="Helvetica,sans-Serif" font-size="10.00">commands.viewCommands.turtle</text>
<text text-anchor="middle" x="910" y="-211" font-family="Helvetica,sans-Serif" font-size="10.00">Commands.Move.changeLocation</text>
</a>
</g>
</g>
<!-- Node14&#45;&gt;Node15 -->
<g id="edge15" class="edge"><title>Node14&#45;&gt;Node15</title>
<path fill="none" stroke="midnightblue" d="M775.362,-219C790.112,-219 805.401,-219 820.139,-219"/>
<polygon fill="midnightblue" stroke="midnightblue" points="775.249,-215.5 765.249,-219 775.249,-222.5 775.249,-215.5"/>
</g>
<!-- Node16&#45;&gt;Node11 -->
<g id="edge17" class="edge"><title>Node16&#45;&gt;Node11</title>
<path fill="none" stroke="midnightblue" d="M555.336,-258.065C570.391,-259.929 585.963,-261.858 600.852,-263.702"/>
<polygon fill="midnightblue" stroke="midnightblue" points="555.366,-254.542 545.011,-256.786 554.505,-261.488 555.366,-254.542"/>
</g>
<!-- Node16&#45;&gt;Node14 -->
<g id="edge18" class="edge"><title>Node16&#45;&gt;Node14</title>
<path fill="none" stroke="midnightblue" d="M555.173,-235.547C571.646,-233.431 588.743,-231.235 604.892,-229.161"/>
<polygon fill="midnightblue" stroke="midnightblue" points="554.484,-232.106 545.011,-236.852 555.376,-239.049 554.484,-232.106"/>
</g>
<!-- Node18 -->
<g id="node18" class="node"><title>Node18</title>
<g id="a_node18"><a xlink:href="../../d3/dba/classcommands_1_1view_commands_1_1turtle_commands_1_1_rotate.html#a8ee301e936ff8d884357dccac52c2bfb" target="_top" xlink:title="commands.viewCommands.turtle\lCommands.Rotate.changeOrientation">
<polygon fill="white" stroke="black" points="586.5,-147 586.5,-177 783.5,-177 783.5,-147 586.5,-147"/>
<text text-anchor="start" x="594.5" y="-165" font-family="Helvetica,sans-Serif" font-size="10.00">commands.viewCommands.turtle</text>
<text text-anchor="middle" x="685" y="-154" font-family="Helvetica,sans-Serif" font-size="10.00">Commands.Rotate.changeOrientation</text>
</a>
</g>
</g>
<!-- Node17&#45;&gt;Node18 -->
<g id="edge20" class="edge"><title>Node17&#45;&gt;Node18</title>
<path fill="none" stroke="midnightblue" d="M556.397,-160.244C566.222,-160.379 576.256,-160.517 586.165,-160.654"/>
<polygon fill="midnightblue" stroke="midnightblue" points="556.294,-156.742 546.246,-160.104 556.197,-163.742 556.294,-156.742"/>
</g>
<!-- Node20 -->
<g id="node20" class="node"><title>Node20</title>
<g id="a_node20"><a xlink:href="../../df/d03/classcommands_1_1view_commands_1_1turtle_commands_1_1_go_towards_loc.html#a67f5f04ce72d0cd234d1e0a11e6d7c83" target="_top" xlink:title="commands.viewCommands.turtle\lCommands.GoTowardsLoc.execute">
<polygon fill="white" stroke="black" points="593,-98 593,-128 777,-128 777,-98 593,-98"/>
<text text-anchor="start" x="601" y="-116" font-family="Helvetica,sans-Serif" font-size="10.00">commands.viewCommands.turtle</text>
<text text-anchor="middle" x="685" y="-105" font-family="Helvetica,sans-Serif" font-size="10.00">Commands.GoTowardsLoc.execute</text>
</a>
</g>
</g>
<!-- Node19&#45;&gt;Node20 -->
<g id="edge22" class="edge"><title>Node19&#45;&gt;Node20</title>
<path fill="none" stroke="midnightblue" d="M549.41,-111.148C563.604,-111.343 578.412,-111.547 592.795,-111.745"/>
<polygon fill="midnightblue" stroke="midnightblue" points="549.245,-107.645 539.197,-111.007 549.148,-114.645 549.245,-107.645"/>
</g>
<!-- Node21 -->
<g id="node21" class="node"><title>Node21</title>
<g id="a_node21"><a xlink:href="../../df/ded/classcommands_1_1view_commands_1_1turtle_commands_1_1_set_heading.html#a3efffc1774ad2f0b23742a20789f0ee8" target="_top" xlink:title="commands.viewCommands.turtle\lCommands.SetHeading.execute">
<polygon fill="white" stroke="black" points="596,-49 596,-79 774,-79 774,-49 596,-49"/>
<text text-anchor="start" x="604" y="-67" font-family="Helvetica,sans-Serif" font-size="10.00">commands.viewCommands.turtle</text>
<text text-anchor="middle" x="685" y="-56" font-family="Helvetica,sans-Serif" font-size="10.00">Commands.SetHeading.execute</text>
</a>
</g>
</g>
<!-- Node19&#45;&gt;Node21 -->
<g id="edge23" class="edge"><title>Node19&#45;&gt;Node21</title>
<path fill="none" stroke="midnightblue" d="M547.457,-92.8119C568.936,-88.2796 591.941,-83.4252 612.831,-79.0174"/>
<polygon fill="midnightblue" stroke="midnightblue" points="546.443,-89.4486 537.381,-94.9379 547.889,-96.2978 546.443,-89.4486"/>
</g>
<!-- Node22 -->
<g id="node22" class="node"><title>Node22</title>
<g id="a_node22"><a xlink:href="../../d5/da3/classcommands_1_1view_commands_1_1turtle_commands_1_1_towards.html#abd6801c7d6d99e2cfa7f2a38b10a116a" target="_top" xlink:title="commands.viewCommands.turtle\lCommands.Towards.execute">
<polygon fill="white" stroke="black" points="596,-0 596,-30 774,-30 774,-0 596,-0"/>
<text text-anchor="start" x="604" y="-18" font-family="Helvetica,sans-Serif" font-size="10.00">commands.viewCommands.turtle</text>
<text text-anchor="middle" x="685" y="-7" font-family="Helvetica,sans-Serif" font-size="10.00">Commands.Towards.execute</text>
</a>
</g>
</g>
<!-- Node19&#45;&gt;Node22 -->
<g id="edge24" class="edge"><title>Node19&#45;&gt;Node22</title>
<path fill="none" stroke="midnightblue" d="M540.816,-90.5099C544.003,-88.8204 547.082,-86.9877 550,-85 571.456,-70.384 564.192,-53.085 586,-39 591.297,-35.5787 597.043,-32.6451 603.005,-30.1296"/>
<polygon fill="midnightblue" stroke="midnightblue" points="539.117,-87.4425 531.593,-94.9021 542.127,-93.7625 539.117,-87.4425"/>
</g>
</g>
</svg>
