<?xml version="1.0" encoding="UTF-8" standalone="no"?>
<!DOCTYPE svg PUBLIC "-//W3C//DTD SVG 1.1//EN"
 "http://www.w3.org/Graphics/SVG/1.1/DTD/svg11.dtd">
<!-- Generated by graphviz version 2.36.0 (20140111.2315)
 -->
<!-- Title: gui.TurtleView.updateTurtleImage Pages: 1 -->
<svg width="1572pt" height="61pt"
 viewBox="0.00 0.00 1572.00 61.00" xmlns="http://www.w3.org/2000/svg" xmlns:xlink="http://www.w3.org/1999/xlink">
<g id="graph0" class="graph" transform="scale(1 1) rotate(0) translate(4 57)">
<title>gui.TurtleView.updateTurtleImage</title>
<polygon fill="white" stroke="none" points="-4,4 -4,-57 1568,-57 1568,4 -4,4"/>
<!-- Node1 -->
<g id="node1" class="node"><title>Node1</title>
<polygon fill="#bfbfbf" stroke="black" points="0.5,-1 0.5,-31 143.5,-31 143.5,-1 0.5,-1"/>
<text text-anchor="start" x="8.5" y="-19" font-family="Helvetica,sans-Serif" font-size="10.00">gui.TurtleView.updateTurtle</text>
<text text-anchor="middle" x="72" y="-8" font-family="Helvetica,sans-Serif" font-size="10.00">Image</text>
</g>
<!-- Node2 -->
<g id="node2" class="node"><title>Node2</title>
<g id="a_node2"><a xlink:href="../../d9/dc5/classgui_1_1_turtle_image_chooser.html#a832fda79e80b22c6d9602340d8516739" target="_top" xlink:title="gui.TurtleImageChooser.choose\lTurtleImage">
<polygon fill="white" stroke="black" points="180,-23 180,-53 346,-53 346,-23 180,-23"/>
<text text-anchor="start" x="188" y="-41" font-family="Helvetica,sans-Serif" font-size="10.00">gui.TurtleImageChooser.choose</text>
<text text-anchor="middle" x="263" y="-30" font-family="Helvetica,sans-Serif" font-size="10.00">TurtleImage</text>
</a>
</g>
</g>
<!-- Node1&#45;&gt;Node2 -->
<g id="edge1" class="edge"><title>Node1&#45;&gt;Node2</title>
<path fill="none" stroke="midnightblue" d="M153.751,-25.3996C162.437,-26.4106 171.281,-27.4401 179.982,-28.4529"/>
<polygon fill="midnightblue" stroke="midnightblue" points="153.983,-21.903 143.645,-24.2233 153.174,-28.8561 153.983,-21.903"/>
</g>
<!-- Node3 -->
<g id="node3" class="node"><title>Node3</title>
<g id="a_node3"><a xlink:href="../../d9/dc5/classgui_1_1_turtle_image_chooser.html#a3b2d5af9d7bda41da0bce5a4350fc391" target="_top" xlink:title="gui.TurtleImageChooser.initialize">
<polygon fill="white" stroke="black" points="382,-6.5 382,-25.5 552,-25.5 552,-6.5 382,-6.5"/>
<text text-anchor="middle" x="467" y="-13.5" font-family="Helvetica,sans-Serif" font-size="10.00">gui.TurtleImageChooser.initialize</text>
</a>
</g>
</g>
<!-- Node1&#45;&gt;Node3 -->
<g id="edge9" class="edge"><title>Node1&#45;&gt;Node3</title>
<path fill="none" stroke="midnightblue" d="M153.545,-14.333C162.471,-14.1963 171.428,-14.0801 180,-14 253.775,-13.3106 272.225,-13.3852 346,-14 357.564,-14.0964 369.754,-14.2449 381.755,-14.4186"/>
<polygon fill="midnightblue" stroke="midnightblue" points="153.446,-10.834 143.504,-14.4951 153.559,-17.8331 153.446,-10.834"/>
</g>
<!-- Node2&#45;&gt;Node3 -->
<g id="edge2" class="edge"><title>Node2&#45;&gt;Node3</title>
<path fill="none" stroke="midnightblue" d="M356.184,-27.9602C364.768,-27.0253 373.438,-26.081 381.943,-25.1548"/>
<polygon fill="midnightblue" stroke="midnightblue" points="355.723,-24.4895 346.161,-29.0518 356.481,-31.4484 355.723,-24.4895"/>
</g>
<!-- Node4 -->
<g id="node4" class="node"><title>Node4</title>
<g id="a_node4"><a xlink:href="../../d9/dc5/classgui_1_1_turtle_image_chooser.html#ade890409215dd5d1706b4feec691438f" target="_top" xlink:title="gui.TurtleImageChooser.start">
<polygon fill="white" stroke="black" points="588,-6.5 588,-25.5 742,-25.5 742,-6.5 588,-6.5"/>
<text text-anchor="middle" x="665" y="-13.5" font-family="Helvetica,sans-Serif" font-size="10.00">gui.TurtleImageChooser.start</text>
</a>
</g>
</g>
<!-- Node3&#45;&gt;Node4 -->
<g id="edge3" class="edge"><title>Node3&#45;&gt;Node4</title>
<path fill="none" stroke="midnightblue" d="M562.288,-16C570.859,-16 579.469,-16 587.853,-16"/>
<polygon fill="midnightblue" stroke="midnightblue" points="562.259,-12.5001 552.259,-16 562.259,-19.5001 562.259,-12.5001"/>
</g>
<!-- Node5 -->
<g id="node5" class="node"><title>Node5</title>
<g id="a_node5"><a xlink:href="../../d6/d2f/classgui_1_1_g_u_i.html#acc6890f8e44269e697b72ff64580fb98" target="_top" xlink:title="gui.GUI.launchTurtleImage\lChooser">
<polygon fill="white" stroke="black" points="778.5,-1 778.5,-31 919.5,-31 919.5,-1 778.5,-1"/>
<text text-anchor="start" x="786.5" y="-19" font-family="Helvetica,sans-Serif" font-size="10.00">gui.GUI.launchTurtleImage</text>
<text text-anchor="middle" x="849" y="-8" font-family="Helvetica,sans-Serif" font-size="10.00">Chooser</text>
</a>
</g>
</g>
<!-- Node4&#45;&gt;Node5 -->
<g id="edge4" class="edge"><title>Node4&#45;&gt;Node5</title>
<path fill="none" stroke="midnightblue" d="M752.304,-16C761.009,-16 769.772,-16 778.272,-16"/>
<polygon fill="midnightblue" stroke="midnightblue" points="752.13,-12.5001 742.13,-16 752.13,-19.5001 752.13,-12.5001"/>
</g>
<!-- Node6 -->
<g id="node6" class="node"><title>Node6</title>
<g id="a_node6"><a xlink:href="../../d6/d2f/classgui_1_1_g_u_i.html#a93dd1959425cd3009366bcc585373af4" target="_top" xlink:title="gui.GUI.createNormalButtons">
<polygon fill="white" stroke="black" points="956,-6.5 956,-25.5 1114,-25.5 1114,-6.5 956,-6.5"/>
<text text-anchor="middle" x="1035" y="-13.5" font-family="Helvetica,sans-Serif" font-size="10.00">gui.GUI.createNormalButtons</text>
</a>
</g>
</g>
<!-- Node5&#45;&gt;Node6 -->
<g id="edge5" class="edge"><title>Node5&#45;&gt;Node6</title>
<path fill="none" stroke="midnightblue" d="M929.629,-16C938.278,-16 947.076,-16 955.709,-16"/>
<polygon fill="midnightblue" stroke="midnightblue" points="929.563,-12.5001 919.563,-16 929.562,-19.5001 929.563,-12.5001"/>
</g>
<!-- Node7 -->
<g id="node7" class="node"><title>Node7</title>
<g id="a_node7"><a xlink:href="../../d6/d2f/classgui_1_1_g_u_i.html#a8946451ec351fce99254ed5efd88b33d" target="_top" xlink:title="gui.GUI.initializeButtons">
<polygon fill="white" stroke="black" points="1150,-6.5 1150,-25.5 1280,-25.5 1280,-6.5 1150,-6.5"/>
<text text-anchor="middle" x="1215" y="-13.5" font-family="Helvetica,sans-Serif" font-size="10.00">gui.GUI.initializeButtons</text>
</a>
</g>
</g>
<!-- Node6&#45;&gt;Node7 -->
<g id="edge6" class="edge"><title>Node6&#45;&gt;Node7</title>
<path fill="none" stroke="midnightblue" d="M1124.21,-16C1132.86,-16 1141.52,-16 1149.86,-16"/>
<polygon fill="midnightblue" stroke="midnightblue" points="1124.07,-12.5001 1114.07,-16 1124.07,-19.5001 1124.07,-12.5001"/>
</g>
<!-- Node8 -->
<g id="node8" class="node"><title>Node8</title>
<g id="a_node8"><a xlink:href="../../d6/d2f/classgui_1_1_g_u_i.html#a8b2bdbd34755b5a59657b9ad391d2b22" target="_top" xlink:title="gui.GUI.initialize">
<polygon fill="white" stroke="black" points="1316,-6.5 1316,-25.5 1408,-25.5 1408,-6.5 1316,-6.5"/>
<text text-anchor="middle" x="1362" y="-13.5" font-family="Helvetica,sans-Serif" font-size="10.00">gui.GUI.initialize</text>
</a>
</g>
</g>
<!-- Node7&#45;&gt;Node8 -->
<g id="edge7" class="edge"><title>Node7&#45;&gt;Node8</title>
<path fill="none" stroke="midnightblue" d="M1290.18,-16C1298.85,-16 1307.48,-16 1315.59,-16"/>
<polygon fill="midnightblue" stroke="midnightblue" points="1290.02,-12.5001 1280.02,-16 1290.02,-19.5001 1290.02,-12.5001"/>
</g>
<!-- Node9 -->
<g id="node9" class="node"><title>Node9</title>
<g id="a_node9"><a xlink:href="../../d9/d96/classapplication_1_1_main.html#a998d14807e266e3f3b9e85468fc1ea98" target="_top" xlink:title="application.Main.start">
<polygon fill="white" stroke="black" points="1444.5,-6.5 1444.5,-25.5 1563.5,-25.5 1563.5,-6.5 1444.5,-6.5"/>
<text text-anchor="middle" x="1504" y="-13.5" font-family="Helvetica,sans-Serif" font-size="10.00">application.Main.start</text>
</a>
</g>
</g>
<!-- Node8&#45;&gt;Node9 -->
<g id="edge8" class="edge"><title>Node8&#45;&gt;Node9</title>
<path fill="none" stroke="midnightblue" d="M1418.34,-16C1426.93,-16 1435.81,-16 1444.46,-16"/>
<polygon fill="midnightblue" stroke="midnightblue" points="1418.07,-12.5001 1408.07,-16 1418.07,-19.5001 1418.07,-12.5001"/>
</g>
</g>
</svg>
