<?xml version="1.0" encoding="UTF-8" standalone="no"?>
<!DOCTYPE svg PUBLIC "-//W3C//DTD SVG 1.1//EN"
 "http://www.w3.org/Graphics/SVG/1.1/DTD/svg11.dtd">
<!-- Generated by graphviz version 2.36.0 (20140111.2315)
 -->
<!-- Title: gui.TurtleView.rotate Pages: 1 -->
<svg width="1154pt" height="305pt"
 viewBox="0.00 0.00 1154.00 305.00" xmlns="http://www.w3.org/2000/svg" xmlns:xlink="http://www.w3.org/1999/xlink">
<g id="graph0" class="graph" transform="scale(1 1) rotate(0) translate(4 301)">
<title>gui.TurtleView.rotate</title>
<polygon fill="white" stroke="none" points="-4,4 -4,-301 1150,-301 1150,4 -4,4"/>
<!-- Node1 -->
<g id="node1" class="node"><title>Node1</title>
<polygon fill="#bfbfbf" stroke="black" points="0.5,-101.5 0.5,-120.5 113.5,-120.5 113.5,-101.5 0.5,-101.5"/>
<text text-anchor="middle" x="57" y="-108.5" font-family="Helvetica,sans-Serif" font-size="10.00">gui.TurtleView.rotate</text>
</g>
<!-- Node2 -->
<g id="node2" class="node"><title>Node2</title>
<g id="a_node2"><a xlink:href="../../df/dcc/classgui_1_1_turtle_view.html#adcff447c1d488ddfd13d151067e6db7a" target="_top" xlink:title="gui.TurtleView.rotateAnd\lMoveTurtle">
<polygon fill="white" stroke="black" points="156.5,-121 156.5,-151 287.5,-151 287.5,-121 156.5,-121"/>
<text text-anchor="start" x="164.5" y="-139" font-family="Helvetica,sans-Serif" font-size="10.00">gui.TurtleView.rotateAnd</text>
<text text-anchor="middle" x="222" y="-128" font-family="Helvetica,sans-Serif" font-size="10.00">MoveTurtle</text>
</a>
</g>
</g>
<!-- Node1&#45;&gt;Node2 -->
<g id="edge1" class="edge"><title>Node1&#45;&gt;Node2</title>
<path fill="none" stroke="midnightblue" d="M123.791,-121.091C134.526,-122.737 145.639,-124.442 156.347,-126.084"/>
<polygon fill="midnightblue" stroke="midnightblue" points="124.055,-117.59 113.639,-119.534 122.993,-124.509 124.055,-117.59"/>
</g>
<!-- Node16 -->
<g id="node16" class="node"><title>Node16</title>
<g id="a_node16"><a xlink:href="../../df/dcc/classgui_1_1_turtle_view.html#a25b0bd4cbdfcba8f148008b207a57eb0" target="_top" xlink:title="gui.TurtleView.updateTurtle\lImage">
<polygon fill="white" stroke="black" points="150.5,-72 150.5,-102 293.5,-102 293.5,-72 150.5,-72"/>
<text text-anchor="start" x="158.5" y="-90" font-family="Helvetica,sans-Serif" font-size="10.00">gui.TurtleView.updateTurtle</text>
<text text-anchor="middle" x="222" y="-79" font-family="Helvetica,sans-Serif" font-size="10.00">Image</text>
</a>
</g>
</g>
<!-- Node1&#45;&gt;Node16 -->
<g id="edge17" class="edge"><title>Node1&#45;&gt;Node16</title>
<path fill="none" stroke="midnightblue" d="M123.766,-101.317C132.513,-100.029 141.51,-98.704 150.335,-97.4046"/>
<polygon fill="midnightblue" stroke="midnightblue" points="123.023,-97.8882 113.639,-102.808 124.043,-104.814 123.023,-97.8882"/>
</g>
<!-- Node3 -->
<g id="node3" class="node"><title>Node3</title>
<g id="a_node3"><a xlink:href="../../d8/d65/classapplication_1_1_view_handler.html#ae489ceaa9b5ec67faf3ba22a11cec085" target="_top" xlink:title="application.ViewHandler.update\lTurtleOnView">
<polygon fill="white" stroke="black" points="330.5,-121 330.5,-151 497.5,-151 497.5,-121 330.5,-121"/>
<text text-anchor="start" x="338.5" y="-139" font-family="Helvetica,sans-Serif" font-size="10.00">application.ViewHandler.update</text>
<text text-anchor="middle" x="414" y="-128" font-family="Helvetica,sans-Serif" font-size="10.00">TurtleOnView</text>
</a>
</g>
</g>
<!-- Node2&#45;&gt;Node3 -->
<g id="edge2" class="edge"><title>Node2&#45;&gt;Node3</title>
<path fill="none" stroke="midnightblue" d="M297.744,-136C308.47,-136 319.557,-136 330.423,-136"/>
<polygon fill="midnightblue" stroke="midnightblue" points="297.59,-132.5 287.59,-136 297.59,-139.5 297.59,-132.5"/>
</g>
<!-- Node4 -->
<g id="node4" class="node"><title>Node4</title>
<g id="a_node4"><a xlink:href="../../d8/d65/classapplication_1_1_view_handler.html#a1aff135a076a9717102bb59ea613131c" target="_top" xlink:title="application.ViewHandler.change\lLocationOfTurtle">
<polygon fill="white" stroke="black" points="747,-226 747,-256 915,-256 915,-226 747,-226"/>
<text text-anchor="start" x="755" y="-244" font-family="Helvetica,sans-Serif" font-size="10.00">application.ViewHandler.change</text>
<text text-anchor="middle" x="831" y="-233" font-family="Helvetica,sans-Serif" font-size="10.00">LocationOfTurtle</text>
</a>
</g>
</g>
<!-- Node3&#45;&gt;Node4 -->
<g id="edge3" class="edge"><title>Node3&#45;&gt;Node4</title>
<path fill="none" stroke="midnightblue" d="M436.172,-158.447C458.251,-180.164 495.025,-211.814 534,-226 602.538,-250.947 685.928,-252.866 746.709,-249.61"/>
<polygon fill="midnightblue" stroke="midnightblue" points="438.527,-155.851 428.996,-151.224 433.561,-160.785 438.527,-155.851"/>
</g>
<!-- Node7 -->
<g id="node7" class="node"><title>Node7</title>
<g id="a_node7"><a xlink:href="../../d8/d65/classapplication_1_1_view_handler.html#a1a94c855ceb0e8ffb1f72f138addb75b" target="_top" xlink:title="application.ViewHandler.move\lTurtle">
<polygon fill="white" stroke="black" points="751,-165 751,-195 911,-195 911,-165 751,-165"/>
<text text-anchor="start" x="759" y="-183" font-family="Helvetica,sans-Serif" font-size="10.00">application.ViewHandler.move</text>
<text text-anchor="middle" x="831" y="-172" font-family="Helvetica,sans-Serif" font-size="10.00">Turtle</text>
</a>
</g>
</g>
<!-- Node3&#45;&gt;Node7 -->
<g id="edge6" class="edge"><title>Node3&#45;&gt;Node7</title>
<path fill="none" stroke="midnightblue" d="M508.092,-145.87C581.064,-153.607 681.498,-164.255 750.68,-171.59"/>
<polygon fill="midnightblue" stroke="midnightblue" points="508.297,-142.372 497.984,-144.798 507.559,-149.333 508.297,-142.372"/>
</g>
<!-- Node9 -->
<g id="node9" class="node"><title>Node9</title>
<g id="a_node9"><a xlink:href="../../d8/d65/classapplication_1_1_view_handler.html#a98b4ba09b3f3e8b1a7667db5598dbfb0" target="_top" xlink:title="application.ViewHandler.move\lTurtleImageAndDraw">
<polygon fill="white" stroke="black" points="535,-187 535,-217 695,-217 695,-187 535,-187"/>
<text text-anchor="start" x="543" y="-205" font-family="Helvetica,sans-Serif" font-size="10.00">application.ViewHandler.move</text>
<text text-anchor="middle" x="615" y="-194" font-family="Helvetica,sans-Serif" font-size="10.00">TurtleImageAndDraw</text>
</a>
</g>
</g>
<!-- Node3&#45;&gt;Node9 -->
<g id="edge8" class="edge"><title>Node3&#45;&gt;Node9</title>
<path fill="none" stroke="midnightblue" d="M470.426,-154.382C501.354,-164.64 539.402,-177.259 568.558,-186.929"/>
<polygon fill="midnightblue" stroke="midnightblue" points="471.248,-150.968 460.655,-151.142 469.044,-157.612 471.248,-150.968"/>
</g>
<!-- Node10 -->
<g id="node10" class="node"><title>Node10</title>
<g id="a_node10"><a xlink:href="../../d8/d65/classapplication_1_1_view_handler.html#abe68f02cdf0227b13568e1aaabf57e5c" target="_top" xlink:title="application.ViewHandler.rotate\lTurtle">
<polygon fill="white" stroke="black" points="534,-99 534,-129 696,-129 696,-99 534,-99"/>
<text text-anchor="start" x="542" y="-117" font-family="Helvetica,sans-Serif" font-size="10.00">application.ViewHandler.rotate</text>
<text text-anchor="middle" x="615" y="-106" font-family="Helvetica,sans-Serif" font-size="10.00">Turtle</text>
</a>
</g>
</g>
<!-- Node3&#45;&gt;Node10 -->
<g id="edge11" class="edge"><title>Node3&#45;&gt;Node10</title>
<path fill="none" stroke="midnightblue" d="M507.82,-125.739C516.51,-124.778 525.269,-123.809 533.83,-122.863"/>
<polygon fill="midnightblue" stroke="midnightblue" points="507.22,-122.283 497.665,-126.861 507.989,-129.241 507.22,-122.283"/>
</g>
<!-- Node12 -->
<g id="node12" class="node"><title>Node12</title>
<g id="a_node12"><a xlink:href="../../d8/d65/classapplication_1_1_view_handler.html#af07eafb381b0ea9a1ce68f6ffe8a7428" target="_top" xlink:title="application.ViewHandler.set\lTurtleOrientation">
<polygon fill="white" stroke="black" points="541,-50 541,-80 689,-80 689,-50 541,-50"/>
<text text-anchor="start" x="549" y="-68" font-family="Helvetica,sans-Serif" font-size="10.00">application.ViewHandler.set</text>
<text text-anchor="middle" x="615" y="-57" font-family="Helvetica,sans-Serif" font-size="10.00">TurtleOrientation</text>
</a>
</g>
</g>
<!-- Node3&#45;&gt;Node12 -->
<g id="edge13" class="edge"><title>Node3&#45;&gt;Node12</title>
<path fill="none" stroke="midnightblue" d="M461.408,-117.243C483.302,-108.605 509.864,-98.4261 534,-90 543.617,-86.6428 553.956,-83.2524 563.903,-80.0979"/>
<polygon fill="midnightblue" stroke="midnightblue" points="460.024,-114.027 452.018,-120.966 462.604,-120.534 460.024,-114.027"/>
</g>
<!-- Node15 -->
<g id="node15" class="node"><title>Node15</title>
<g id="a_node15"><a xlink:href="../../d8/d65/classapplication_1_1_view_handler.html#a55d042c40e05453e3f5f6bc6c1c6e060" target="_top" xlink:title="application.ViewHandler.show\lTurtle">
<polygon fill="white" stroke="black" points="536.5,-1 536.5,-31 693.5,-31 693.5,-1 536.5,-1"/>
<text text-anchor="start" x="544.5" y="-19" font-family="Helvetica,sans-Serif" font-size="10.00">application.ViewHandler.show</text>
<text text-anchor="middle" x="615" y="-8" font-family="Helvetica,sans-Serif" font-size="10.00">Turtle</text>
</a>
</g>
</g>
<!-- Node3&#45;&gt;Node15 -->
<g id="edge16" class="edge"><title>Node3&#45;&gt;Node15</title>
<path fill="none" stroke="midnightblue" d="M437.605,-113.642C460.275,-92.3224 497.036,-60.6358 534,-41 541.068,-37.2455 548.791,-33.9503 556.563,-31.0904"/>
<polygon fill="midnightblue" stroke="midnightblue" points="435.014,-111.277 430.197,-120.714 439.847,-116.341 435.014,-111.277"/>
</g>
<!-- Node5 -->
<g id="node5" class="node"><title>Node5</title>
<g id="a_node5"><a xlink:href="../../d5/de0/classcommands_1_1view_commands_1_1turtle_commands_1_1_clear_screen.html#ae547e4c170a1b6d41cdfc6c8bfe5e972" target="_top" xlink:title="commands.viewCommands.turtle\lCommands.ClearScreen.execute">
<polygon fill="white" stroke="black" points="967,-267 967,-297 1145,-297 1145,-267 967,-267"/>
<text text-anchor="start" x="975" y="-285" font-family="Helvetica,sans-Serif" font-size="10.00">commands.viewCommands.turtle</text>
<text text-anchor="middle" x="1056" y="-274" font-family="Helvetica,sans-Serif" font-size="10.00">Commands.ClearScreen.execute</text>
</a>
</g>
</g>
<!-- Node4&#45;&gt;Node5 -->
<g id="edge4" class="edge"><title>Node4&#45;&gt;Node5</title>
<path fill="none" stroke="midnightblue" d="M923.871,-257.891C940.235,-260.9 957.181,-264.015 973.239,-266.968"/>
<polygon fill="midnightblue" stroke="midnightblue" points="924.239,-254.4 913.771,-256.034 922.973,-261.285 924.239,-254.4"/>
</g>
<!-- Node6 -->
<g id="node6" class="node"><title>Node6</title>
<g id="a_node6"><a xlink:href="../../dd/da6/classcommands_1_1view_commands_1_1turtle_commands_1_1_move.html#af4d9a4d9ade56b5e3a1e582bd891b7b5" target="_top" xlink:title="commands.viewCommands.turtle\lCommands.Move.goToLocation">
<polygon fill="white" stroke="black" points="967,-218 967,-248 1145,-248 1145,-218 967,-218"/>
<text text-anchor="start" x="975" y="-236" font-family="Helvetica,sans-Serif" font-size="10.00">commands.viewCommands.turtle</text>
<text text-anchor="middle" x="1056" y="-225" font-family="Helvetica,sans-Serif" font-size="10.00">Commands.Move.goToLocation</text>
</a>
</g>
</g>
<!-- Node4&#45;&gt;Node6 -->
<g id="edge5" class="edge"><title>Node4&#45;&gt;Node6</title>
<path fill="none" stroke="midnightblue" d="M925.4,-237.649C939.066,-237.159 953.104,-236.655 966.664,-236.169"/>
<polygon fill="midnightblue" stroke="midnightblue" points="924.905,-234.165 915.037,-238.021 925.156,-241.16 924.905,-234.165"/>
</g>
<!-- Node8 -->
<g id="node8" class="node"><title>Node8</title>
<g id="a_node8"><a xlink:href="../../dd/da6/classcommands_1_1view_commands_1_1turtle_commands_1_1_move.html#af95e8ccf5c290a4d06f79caf2deed407" target="_top" xlink:title="commands.viewCommands.turtle\lCommands.Move.changeLocation">
<polygon fill="white" stroke="black" points="966.5,-165 966.5,-195 1145.5,-195 1145.5,-165 966.5,-165"/>
<text text-anchor="start" x="974.5" y="-183" font-family="Helvetica,sans-Serif" font-size="10.00">commands.viewCommands.turtle</text>
<text text-anchor="middle" x="1056" y="-172" font-family="Helvetica,sans-Serif" font-size="10.00">Commands.Move.changeLocation</text>
</a>
</g>
</g>
<!-- Node7&#45;&gt;Node8 -->
<g id="edge7" class="edge"><title>Node7&#45;&gt;Node8</title>
<path fill="none" stroke="midnightblue" d="M921.362,-180C936.112,-180 951.401,-180 966.139,-180"/>
<polygon fill="midnightblue" stroke="midnightblue" points="921.249,-176.5 911.249,-180 921.249,-183.5 921.249,-176.5"/>
</g>
<!-- Node9&#45;&gt;Node4 -->
<g id="edge9" class="edge"><title>Node9&#45;&gt;Node4</title>
<path fill="none" stroke="midnightblue" d="M705.227,-218.261C719.287,-220.823 733.769,-223.463 747.664,-225.995"/>
<polygon fill="midnightblue" stroke="midnightblue" points="705.543,-214.761 695.078,-216.411 704.288,-221.648 705.543,-214.761"/>
</g>
<!-- Node9&#45;&gt;Node7 -->
<g id="edge10" class="edge"><title>Node9&#45;&gt;Node7</title>
<path fill="none" stroke="midnightblue" d="M705.432,-192.806C720.52,-191.255 736.088,-189.654 750.89,-188.133"/>
<polygon fill="midnightblue" stroke="midnightblue" points="704.667,-189.366 695.078,-193.871 705.383,-196.329 704.667,-189.366"/>
</g>
<!-- Node11 -->
<g id="node11" class="node"><title>Node11</title>
<g id="a_node11"><a xlink:href="../../d3/dba/classcommands_1_1view_commands_1_1turtle_commands_1_1_rotate.html#a8ee301e936ff8d884357dccac52c2bfb" target="_top" xlink:title="commands.viewCommands.turtle\lCommands.Rotate.changeOrientation">
<polygon fill="white" stroke="black" points="732.5,-99 732.5,-129 929.5,-129 929.5,-99 732.5,-99"/>
<text text-anchor="start" x="740.5" y="-117" font-family="Helvetica,sans-Serif" font-size="10.00">commands.viewCommands.turtle</text>
<text text-anchor="middle" x="831" y="-106" font-family="Helvetica,sans-Serif" font-size="10.00">Commands.Rotate.changeOrientation</text>
</a>
</g>
</g>
<!-- Node10&#45;&gt;Node11 -->
<g id="edge12" class="edge"><title>Node10&#45;&gt;Node11</title>
<path fill="none" stroke="midnightblue" d="M706.296,-114C714.886,-114 723.623,-114 732.278,-114"/>
<polygon fill="midnightblue" stroke="midnightblue" points="706.295,-110.5 696.295,-114 706.295,-117.5 706.295,-110.5"/>
</g>
<!-- Node13 -->
<g id="node13" class="node"><title>Node13</title>
<g id="a_node13"><a xlink:href="../../df/d03/classcommands_1_1view_commands_1_1turtle_commands_1_1_go_towards_loc.html#a67f5f04ce72d0cd234d1e0a11e6d7c83" target="_top" xlink:title="commands.viewCommands.turtle\lCommands.GoTowardsLoc.execute">
<polygon fill="white" stroke="black" points="739,-50 739,-80 923,-80 923,-50 739,-50"/>
<text text-anchor="start" x="747" y="-68" font-family="Helvetica,sans-Serif" font-size="10.00">commands.viewCommands.turtle</text>
<text text-anchor="middle" x="831" y="-57" font-family="Helvetica,sans-Serif" font-size="10.00">Commands.GoTowardsLoc.execute</text>
</a>
</g>
</g>
<!-- Node12&#45;&gt;Node13 -->
<g id="edge14" class="edge"><title>Node12&#45;&gt;Node13</title>
<path fill="none" stroke="midnightblue" d="M699.297,-65C712.226,-65 725.642,-65 738.736,-65"/>
<polygon fill="midnightblue" stroke="midnightblue" points="699.048,-61.5001 689.048,-65 699.048,-68.5001 699.048,-61.5001"/>
</g>
<!-- Node14 -->
<g id="node14" class="node"><title>Node14</title>
<g id="a_node14"><a xlink:href="../../df/ded/classcommands_1_1view_commands_1_1turtle_commands_1_1_set_heading.html#a3efffc1774ad2f0b23742a20789f0ee8" target="_top" xlink:title="commands.viewCommands.turtle\lCommands.SetHeading.execute">
<polygon fill="white" stroke="black" points="742,-1 742,-31 920,-31 920,-1 742,-1"/>
<text text-anchor="start" x="750" y="-19" font-family="Helvetica,sans-Serif" font-size="10.00">commands.viewCommands.turtle</text>
<text text-anchor="middle" x="831" y="-8" font-family="Helvetica,sans-Serif" font-size="10.00">Commands.SetHeading.execute</text>
</a>
</g>
</g>
<!-- Node12&#45;&gt;Node14 -->
<g id="edge15" class="edge"><title>Node12&#45;&gt;Node14</title>
<path fill="none" stroke="midnightblue" d="M691.69,-47.6691C715.45,-42.2288 741.467,-36.2715 764.463,-31.0062"/>
<polygon fill="midnightblue" stroke="midnightblue" points="690.628,-44.3216 681.661,-49.9654 692.19,-51.1451 690.628,-44.3216"/>
</g>
</g>
</svg>
