<?xml version="1.0" encoding="UTF-8" standalone="no"?>
<!DOCTYPE svg PUBLIC "-//W3C//DTD SVG 1.1//EN"
 "http://www.w3.org/Graphics/SVG/1.1/DTD/svg11.dtd">
<!-- Generated by graphviz version 2.36.0 (20140111.2315)
 -->
<!-- Title: gui.TurtleView.TurtleView Pages: 1 -->
<svg width="294pt" height="104pt"
 viewBox="0.00 0.00 294.00 104.00" xmlns="http://www.w3.org/2000/svg" xmlns:xlink="http://www.w3.org/1999/xlink">
<g id="graph0" class="graph" transform="scale(1 1) rotate(0) translate(4 100)">
<title>gui.TurtleView.TurtleView</title>
<polygon fill="white" stroke="none" points="-4,4 -4,-100 290,-100 290,4 -4,4"/>
<!-- Node1 -->
<g id="node1" class="node"><title>Node1</title>
<polygon fill="#bfbfbf" stroke="black" points="0.5,-38.5 0.5,-57.5 131.5,-57.5 131.5,-38.5 0.5,-38.5"/>
<text text-anchor="middle" x="66" y="-45.5" font-family="Helvetica,sans-Serif" font-size="10.00">gui.TurtleView.TurtleView</text>
</g>
<!-- Node2 -->
<g id="node2" class="node"><title>Node2</title>
<g id="a_node2"><a xlink:href="../../d8/d8b/classgui_1_1_view.html#a805679dcb8753b21508755667f09fac9" target="_top" xlink:title="gui.View.getNewPoint">
<polygon fill="white" stroke="black" points="168,-76.5 168,-95.5 286,-95.5 286,-76.5 168,-76.5"/>
<text text-anchor="middle" x="227" y="-83.5" font-family="Helvetica,sans-Serif" font-size="10.00">gui.View.getNewPoint</text>
</a>
</g>
</g>
<!-- Node1&#45;&gt;Node2 -->
<g id="edge1" class="edge"><title>Node1&#45;&gt;Node2</title>
<path fill="none" stroke="midnightblue" d="M107.122,-57.589C128.104,-62.6035 153.982,-68.7881 176.23,-74.1053"/>
<polygon fill="midnightblue" stroke="midnightblue" points="175.626,-77.5595 186.166,-76.4799 177.254,-70.7513 175.626,-77.5595"/>
</g>
<!-- Node3 -->
<g id="node3" class="node"><title>Node3</title>
<g id="a_node3"><a xlink:href="../../d8/d8b/classgui_1_1_view.html#a2afd8ec8646a5060ea972b5b4839e2a7" target="_top" xlink:title="gui.View.getXOffset">
<polygon fill="white" stroke="black" points="173.5,-38.5 173.5,-57.5 280.5,-57.5 280.5,-38.5 173.5,-38.5"/>
<text text-anchor="middle" x="227" y="-45.5" font-family="Helvetica,sans-Serif" font-size="10.00">gui.View.getXOffset</text>
</a>
</g>
</g>
<!-- Node1&#45;&gt;Node3 -->
<g id="edge2" class="edge"><title>Node1&#45;&gt;Node3</title>
<path fill="none" stroke="midnightblue" d="M131.671,-48C141.989,-48 152.651,-48 162.931,-48"/>
<polygon fill="midnightblue" stroke="midnightblue" points="163.055,-51.5001 173.055,-48 163.055,-44.5001 163.055,-51.5001"/>
</g>
<!-- Node4 -->
<g id="node4" class="node"><title>Node4</title>
<g id="a_node4"><a xlink:href="../../d8/d8b/classgui_1_1_view.html#af40e5061e35eec000ddb061ff998b4c2" target="_top" xlink:title="gui.View.getYOffset">
<polygon fill="white" stroke="black" points="173.5,-0.5 173.5,-19.5 280.5,-19.5 280.5,-0.5 173.5,-0.5"/>
<text text-anchor="middle" x="227" y="-7.5" font-family="Helvetica,sans-Serif" font-size="10.00">gui.View.getYOffset</text>
</a>
</g>
</g>
<!-- Node1&#45;&gt;Node4 -->
<g id="edge3" class="edge"><title>Node1&#45;&gt;Node4</title>
<path fill="none" stroke="midnightblue" d="M107.122,-38.411C128.104,-33.3965 153.982,-27.2119 176.23,-21.8947"/>
<polygon fill="midnightblue" stroke="midnightblue" points="177.254,-25.2487 186.166,-19.5201 175.626,-18.4405 177.254,-25.2487"/>
</g>
</g>
</svg>
