<?xml version="1.0" encoding="UTF-8" standalone="no"?>
<!DOCTYPE svg PUBLIC "-//W3C//DTD SVG 1.1//EN"
 "http://www.w3.org/Graphics/SVG/1.1/DTD/svg11.dtd">
<!-- Generated by graphviz version 2.36.0 (20140111.2315)
 -->
<!-- Title: gui.LineView Pages: 1 -->
<svg width="424pt" height="176pt"
 viewBox="0.00 0.00 424.00 176.00" xmlns="http://www.w3.org/2000/svg" xmlns:xlink="http://www.w3.org/1999/xlink">
<g id="graph0" class="graph" transform="scale(1 1) rotate(0) translate(4 172)">
<title>gui.LineView</title>
<polygon fill="white" stroke="none" points="-4,4 -4,-172 420,-172 420,4 -4,4"/>
<!-- Node1 -->
<g id="node1" class="node"><title>Node1</title>
<polygon fill="#bfbfbf" stroke="black" points="171.5,-0.5 171.5,-19.5 246.5,-19.5 246.5,-0.5 171.5,-0.5"/>
<text text-anchor="middle" x="209" y="-7.5" font-family="Helvetica,sans-Serif" font-size="10.00">gui.LineView</text>
</g>
<!-- Node2 -->
<g id="node2" class="node"><title>Node2</title>
<g id="a_node2"><a xlink:href="../../d8/d8b/classgui_1_1_view.html" target="_top" xlink:title="gui.View">
<polygon fill="white" stroke="black" points="31,-69.5 31,-88.5 87,-88.5 87,-69.5 31,-69.5"/>
<text text-anchor="middle" x="59" y="-76.5" font-family="Helvetica,sans-Serif" font-size="10.00">gui.View</text>
</a>
</g>
</g>
<!-- Node2&#45;&gt;Node1 -->
<g id="edge1" class="edge"><title>Node2&#45;&gt;Node1</title>
<path fill="none" stroke="midnightblue" d="M84.045,-64.7053C99.6692,-56.6054 120.297,-46.2604 139,-38 154.132,-31.3168 171.478,-24.6197 185.117,-19.5672"/>
<polygon fill="midnightblue" stroke="midnightblue" points="82.2663,-61.6857 75.0252,-69.4198 85.5089,-67.8894 82.2663,-61.6857"/>
</g>
<!-- Node3 -->
<g id="node3" class="node"><title>Node3</title>
<polygon fill="white" stroke="#bfbfbf" points="0,-148.5 0,-167.5 52,-167.5 52,-148.5 0,-148.5"/>
<text text-anchor="middle" x="26" y="-155.5" font-family="Helvetica,sans-Serif" font-size="10.00">Canvas</text>
</g>
<!-- Node3&#45;&gt;Node2 -->
<g id="edge2" class="edge"><title>Node3&#45;&gt;Node2</title>
<path fill="none" stroke="midnightblue" d="M29.806,-138.525C32.1052,-129.128 35.4762,-117.678 40,-108 43.1841,-101.188 47.9341,-94.1879 51.8881,-88.8909"/>
<polygon fill="midnightblue" stroke="midnightblue" points="26.3682,-137.86 27.5944,-148.384 33.1985,-139.392 26.3682,-137.86"/>
</g>
<!-- Node4 -->
<g id="node4" class="node"><title>Node4</title>
<polygon fill="white" stroke="#bfbfbf" points="98,-148.5 98,-167.5 152,-167.5 152,-148.5 98,-148.5"/>
<text text-anchor="middle" x="125" y="-155.5" font-family="Helvetica,sans-Serif" font-size="10.00">Point2D</text>
</g>
<!-- Node4&#45;&gt;Node1 -->
<g id="edge5" class="edge"><title>Node4&#45;&gt;Node1</title>
<path fill="none" stroke="#9a32cd" stroke-dasharray="5,2" d="M134.651,-139.141C136.17,-136.121 137.675,-132.993 139,-130 150.898,-103.126 147.336,-93.4708 162,-68 172.879,-49.1037 190.036,-30.1682 200.335,-19.5785"/>
<polygon fill="#9a32cd" stroke="#9a32cd" points="131.48,-137.652 129.948,-148.135 137.683,-140.895 131.48,-137.652"/>
<text text-anchor="middle" x="185" y="-82" font-family="Helvetica,sans-Serif" font-size="10.00"> newStart</text>
<text text-anchor="middle" x="185" y="-71" font-family="Helvetica,sans-Serif" font-size="10.00">newDest</text>
</g>
<!-- Node4&#45;&gt;Node2 -->
<g id="edge3" class="edge"><title>Node4&#45;&gt;Node2</title>
<path fill="none" stroke="#9a32cd" stroke-dasharray="5,2" d="M87.9499,-149.767C77.1643,-145.773 66.5365,-139.584 60,-130 51.5858,-117.663 54.0268,-99.3328 56.5346,-88.6321"/>
<polygon fill="#9a32cd" stroke="#9a32cd" points="87.1974,-153.199 97.7866,-152.852 89.2923,-146.52 87.1974,-153.199"/>
<text text-anchor="middle" x="99.5" y="-122" font-family="Helvetica,sans-Serif" font-size="10.00"> DEFAULT_POINT</text>
<text text-anchor="middle" x="99.5" y="-111" font-family="Helvetica,sans-Serif" font-size="10.00">newDest</text>
</g>
<!-- Node5 -->
<g id="node5" class="node"><title>Node5</title>
<polygon fill="white" stroke="#bfbfbf" points="217,-69.5 217,-88.5 313,-88.5 313,-69.5 217,-69.5"/>
<text text-anchor="middle" x="265" y="-76.5" font-family="Helvetica,sans-Serif" font-size="10.00">GraphicsContext</text>
</g>
<!-- Node5&#45;&gt;Node1 -->
<g id="edge4" class="edge"><title>Node5&#45;&gt;Node1</title>
<path fill="none" stroke="#9a32cd" stroke-dasharray="5,2" d="M251.073,-61.337C239.984,-48.0697 224.915,-30.0414 216.146,-19.5494"/>
<polygon fill="#9a32cd" stroke="#9a32cd" points="248.58,-63.8127 257.679,-69.2409 253.951,-59.3235 248.58,-63.8127"/>
<text text-anchor="middle" x="261" y="-41.5" font-family="Helvetica,sans-Serif" font-size="10.00"> linesGC</text>
</g>
<!-- Node6 -->
<g id="node6" class="node"><title>Node6</title>
<polygon fill="white" stroke="#bfbfbf" points="331.5,-69.5 331.5,-88.5 372.5,-88.5 372.5,-69.5 331.5,-69.5"/>
<text text-anchor="middle" x="352" y="-76.5" font-family="Helvetica,sans-Serif" font-size="10.00">Color</text>
</g>
<!-- Node6&#45;&gt;Node1 -->
<g id="edge6" class="edge"><title>Node6&#45;&gt;Node1</title>
<path fill="none" stroke="#9a32cd" stroke-dasharray="5,2" d="M330.493,-63.6801C317.637,-55.4999 300.782,-45.4259 285,-38 269.669,-30.7866 251.852,-24.3602 237.324,-19.5884"/>
<polygon fill="#9a32cd" stroke="#9a32cd" points="328.779,-66.7398 339.075,-69.237 332.583,-60.8639 328.779,-66.7398"/>
<text text-anchor="middle" x="362" y="-41.5" font-family="Helvetica,sans-Serif" font-size="10.00"> DEFAULT_PEN_COLOR</text>
</g>
</g>
</svg>
