<?xml version="1.0" encoding="UTF-8" standalone="no"?>
<!DOCTYPE svg PUBLIC "-//W3C//DTD SVG 1.1//EN"
 "http://www.w3.org/Graphics/SVG/1.1/DTD/svg11.dtd">
<!-- Generated by graphviz version 2.36.0 (20140111.2315)
 -->
<!-- Title: gui.UserInputBox.UserInputBox Pages: 1 -->
<svg width="984pt" height="187pt"
 viewBox="0.00 0.00 984.00 187.00" xmlns="http://www.w3.org/2000/svg" xmlns:xlink="http://www.w3.org/1999/xlink">
<g id="graph0" class="graph" transform="scale(1 1) rotate(0) translate(4 183)">
<title>gui.UserInputBox.UserInputBox</title>
<polygon fill="white" stroke="none" points="-4,4 -4,-183 980,-183 980,4 -4,4"/>
<!-- Node1 -->
<g id="node1" class="node"><title>Node1</title>
<polygon fill="#bfbfbf" stroke="black" points="0,-44.5 0,-63.5 166,-63.5 166,-44.5 0,-44.5"/>
<text text-anchor="middle" x="83" y="-51.5" font-family="Helvetica,sans-Serif" font-size="10.00">gui.UserInputBox.UserInputBox</text>
</g>
<!-- Node2 -->
<g id="node2" class="node"><title>Node2</title>
<g id="a_node2"><a xlink:href="../../d3/d71/classgui_1_1_user_input_box.html#a25ddaeacb322372cf5f5648cbf46eff2" target="_top" xlink:title="gui.UserInputBox.doInput">
<polygon fill="white" stroke="black" points="202.5,-44.5 202.5,-63.5 339.5,-63.5 339.5,-44.5 202.5,-44.5"/>
<text text-anchor="middle" x="271" y="-51.5" font-family="Helvetica,sans-Serif" font-size="10.00">gui.UserInputBox.doInput</text>
</a>
</g>
</g>
<!-- Node1&#45;&gt;Node2 -->
<g id="edge1" class="edge"><title>Node1&#45;&gt;Node2</title>
<path fill="none" stroke="midnightblue" d="M166.124,-54C174.797,-54 183.599,-54 192.221,-54"/>
<polygon fill="midnightblue" stroke="midnightblue" points="192.241,-57.5001 202.241,-54 192.241,-50.5001 192.241,-57.5001"/>
</g>
<!-- Node3 -->
<g id="node3" class="node"><title>Node3</title>
<g id="a_node3"><a xlink:href="../../d0/da7/classconfiguration_1_1_basic_parser.html#ab316d3a3f9ec49ba6922087948e76901" target="_top" xlink:title="configuration.BasicParser.parse">
<polygon fill="white" stroke="black" points="397.5,-88.5 397.5,-107.5 564.5,-107.5 564.5,-88.5 397.5,-88.5"/>
<text text-anchor="middle" x="481" y="-95.5" font-family="Helvetica,sans-Serif" font-size="10.00">configuration.BasicParser.parse</text>
</a>
</g>
</g>
<!-- Node2&#45;&gt;Node3 -->
<g id="edge2" class="edge"><title>Node2&#45;&gt;Node3</title>
<path fill="none" stroke="midnightblue" d="M311.927,-63.576C331.243,-68.1161 354.789,-73.5146 376,-78 389.679,-80.8926 404.408,-83.8315 418.356,-86.5338"/>
<polygon fill="midnightblue" stroke="midnightblue" points="417.867,-90.0039 428.348,-88.4558 419.189,-83.1299 417.867,-90.0039"/>
</g>
<!-- Node9 -->
<g id="node9" class="node"><title>Node9</title>
<g id="a_node9"><a xlink:href="../../d0/d3b/classcommands_1_1_user_made_utilities.html#a1f6e3a69c0981590f6e1e2c5d240b12d" target="_top" xlink:title="commands.UserMadeUtilities.check\lUDCommands">
<polygon fill="white" stroke="black" points="387,-39 387,-69 575,-69 575,-39 387,-39"/>
<text text-anchor="start" x="395" y="-57" font-family="Helvetica,sans-Serif" font-size="10.00">commands.UserMadeUtilities.check</text>
<text text-anchor="middle" x="481" y="-46" font-family="Helvetica,sans-Serif" font-size="10.00">UDCommands</text>
</a>
</g>
</g>
<!-- Node2&#45;&gt;Node9 -->
<g id="edge8" class="edge"><title>Node2&#45;&gt;Node9</title>
<path fill="none" stroke="midnightblue" d="M339.532,-54C351.419,-54 364.034,-54 376.637,-54"/>
<polygon fill="midnightblue" stroke="midnightblue" points="376.727,-57.5001 386.727,-54 376.727,-50.5001 376.727,-57.5001"/>
</g>
<!-- Node10 -->
<g id="node10" class="node"><title>Node10</title>
<g id="a_node10"><a xlink:href="../../d0/d3b/classcommands_1_1_user_made_utilities.html#ab404a41aca56228775075422606fabb2" target="_top" xlink:title="commands.UserMadeUtilities.checkVars">
<polygon fill="white" stroke="black" points="376.5,-0.5 376.5,-19.5 585.5,-19.5 585.5,-0.5 376.5,-0.5"/>
<text text-anchor="middle" x="481" y="-7.5" font-family="Helvetica,sans-Serif" font-size="10.00">commands.UserMadeUtilities.checkVars</text>
</a>
</g>
</g>
<!-- Node2&#45;&gt;Node10 -->
<g id="edge9" class="edge"><title>Node2&#45;&gt;Node10</title>
<path fill="none" stroke="midnightblue" d="M309.434,-44.4727C329.176,-39.5825 353.834,-33.6851 376,-29 388.398,-26.3793 401.674,-23.7902 414.452,-21.4063"/>
<polygon fill="midnightblue" stroke="midnightblue" points="415.366,-24.7967 424.566,-19.5417 414.097,-17.9127 415.366,-24.7967"/>
</g>
<!-- Node4 -->
<g id="node4" class="node"><title>Node4</title>
<g id="a_node4"><a xlink:href="../../d1/d4d/interfacecommands_1_1view_commands_1_1turtle_commands_1_1_executable.html#a8e431a20f44eb26b441038ba913a2ce4" target="_top" xlink:title="commands.viewCommands.turtle\lCommands.Executable.execute">
<polygon fill="white" stroke="black" points="626,-149 626,-179 804,-179 804,-149 626,-149"/>
<text text-anchor="start" x="634" y="-167" font-family="Helvetica,sans-Serif" font-size="10.00">commands.viewCommands.turtle</text>
<text text-anchor="middle" x="715" y="-156" font-family="Helvetica,sans-Serif" font-size="10.00">Commands.Executable.execute</text>
</a>
</g>
</g>
<!-- Node3&#45;&gt;Node4 -->
<g id="edge3" class="edge"><title>Node3&#45;&gt;Node4</title>
<path fill="none" stroke="midnightblue" d="M513.921,-107.541C542.264,-115.967 584.83,-128.508 622,-139 630.449,-141.385 639.345,-143.855 648.142,-146.272"/>
<polygon fill="midnightblue" stroke="midnightblue" points="647.433,-149.706 658.002,-148.971 649.281,-142.955 647.433,-149.706"/>
</g>
<!-- Node5 -->
<g id="node5" class="node"><title>Node5</title>
<g id="a_node5"><a xlink:href="../../da/dde/classconfiguration_1_1_util.html#a55c271426926996186d1cde227ae7e23" target="_top" xlink:title="configuration.Util.findCommandKey">
<polygon fill="white" stroke="black" points="622.5,-110.5 622.5,-129.5 807.5,-129.5 807.5,-110.5 622.5,-110.5"/>
<text text-anchor="middle" x="715" y="-117.5" font-family="Helvetica,sans-Serif" font-size="10.00">configuration.Util.findCommandKey</text>
</a>
</g>
</g>
<!-- Node3&#45;&gt;Node5 -->
<g id="edge4" class="edge"><title>Node3&#45;&gt;Node5</title>
<path fill="none" stroke="midnightblue" d="M564.775,-105.849C580.04,-107.297 596.143,-108.824 611.899,-110.318"/>
<polygon fill="midnightblue" stroke="midnightblue" points="611.905,-113.834 622.191,-111.294 612.566,-106.865 611.905,-113.834"/>
</g>
<!-- Node7 -->
<g id="node7" class="node"><title>Node7</title>
<g id="a_node7"><a xlink:href="../../dc/d20/classapplication_1_1_command_factory.html#a42b3fb802e5122a2ace019bd081bd945" target="_top" xlink:title="application.CommandFactory.make\lNoParmsCommands">
<polygon fill="white" stroke="black" points="622.5,-61 622.5,-91 807.5,-91 807.5,-61 622.5,-61"/>
<text text-anchor="start" x="630.5" y="-79" font-family="Helvetica,sans-Serif" font-size="10.00">application.CommandFactory.make</text>
<text text-anchor="middle" x="715" y="-68" font-family="Helvetica,sans-Serif" font-size="10.00">NoParmsCommands</text>
</a>
</g>
</g>
<!-- Node3&#45;&gt;Node7 -->
<g id="edge6" class="edge"><title>Node3&#45;&gt;Node7</title>
<path fill="none" stroke="midnightblue" d="M564.775,-90.1507C580.04,-88.7031 596.143,-87.1761 611.899,-85.682"/>
<polygon fill="midnightblue" stroke="midnightblue" points="612.566,-89.1345 622.191,-84.706 611.905,-82.1658 612.566,-89.1345"/>
</g>
<!-- Node8 -->
<g id="node8" class="node"><title>Node8</title>
<g id="a_node8"><a xlink:href="../../da/dde/classconfiguration_1_1_util.html#a535858cb955beeaeaa5e7eccfb71d4c1" target="_top" xlink:title="configuration.Util.toCommand\lQueue">
<polygon fill="white" stroke="black" points="634.5,-12 634.5,-42 795.5,-42 795.5,-12 634.5,-12"/>
<text text-anchor="start" x="642.5" y="-30" font-family="Helvetica,sans-Serif" font-size="10.00">configuration.Util.toCommand</text>
<text text-anchor="middle" x="715" y="-19" font-family="Helvetica,sans-Serif" font-size="10.00">Queue</text>
</a>
</g>
</g>
<!-- Node3&#45;&gt;Node8 -->
<g id="edge7" class="edge"><title>Node3&#45;&gt;Node8</title>
<path fill="none" stroke="midnightblue" d="M554.352,-88.4982C565.209,-85.8205 576.08,-82.3911 586,-78 604.288,-69.9043 603.985,-59.6875 622,-51 626.04,-49.0518 630.259,-47.2467 634.573,-45.5764"/>
<polygon fill="midnightblue" stroke="midnightblue" points="635.915,-48.8132 644.137,-42.1318 633.543,-42.2273 635.915,-48.8132"/>
</g>
<!-- Node6 -->
<g id="node6" class="node"><title>Node6</title>
<g id="a_node6"><a xlink:href="../../da/dde/classconfiguration_1_1_util.html#a163b0098613bf2f7becf27b131af3934" target="_top" xlink:title="configuration.Util.match">
<polygon fill="white" stroke="black" points="844.5,-110.5 844.5,-129.5 975.5,-129.5 975.5,-110.5 844.5,-110.5"/>
<text text-anchor="middle" x="910" y="-117.5" font-family="Helvetica,sans-Serif" font-size="10.00">configuration.Util.match</text>
</a>
</g>
</g>
<!-- Node5&#45;&gt;Node6 -->
<g id="edge5" class="edge"><title>Node5&#45;&gt;Node6</title>
<path fill="none" stroke="midnightblue" d="M807.696,-120C816.574,-120 825.506,-120 834.191,-120"/>
<polygon fill="midnightblue" stroke="midnightblue" points="834.255,-123.5 844.255,-120 834.255,-116.5 834.255,-123.5"/>
</g>
</g>
</svg>
