<?xml version="1.0" encoding="UTF-8" standalone="no"?>
<!DOCTYPE svg PUBLIC "-//W3C//DTD SVG 1.1//EN"
 "http://www.w3.org/Graphics/SVG/1.1/DTD/svg11.dtd">
<!-- Generated by graphviz version 2.36.0 (20140111.2315)
 -->
<!-- Title: gui.UserInputBox.doInput Pages: 1 -->
<svg width="782pt" height="191pt"
 viewBox="0.00 0.00 782.00 191.00" xmlns="http://www.w3.org/2000/svg" xmlns:xlink="http://www.w3.org/1999/xlink">
<g id="graph0" class="graph" transform="scale(1 1) rotate(0) translate(4 187)">
<title>gui.UserInputBox.doInput</title>
<polygon fill="white" stroke="none" points="-4,4 -4,-187 778,-187 778,4 -4,4"/>
<!-- Node1 -->
<g id="node1" class="node"><title>Node1</title>
<polygon fill="#bfbfbf" stroke="black" points="0.5,-114.5 0.5,-133.5 137.5,-133.5 137.5,-114.5 0.5,-114.5"/>
<text text-anchor="middle" x="69" y="-121.5" font-family="Helvetica,sans-Serif" font-size="10.00">gui.UserInputBox.doInput</text>
</g>
<!-- Node2 -->
<g id="node2" class="node"><title>Node2</title>
<g id="a_node2"><a xlink:href="../../d0/d3b/classcommands_1_1_user_made_utilities.html#a1f6e3a69c0981590f6e1e2c5d240b12d" target="_top" xlink:title="commands.UserMadeUtilities.check\lUDCommands">
<polygon fill="white" stroke="black" points="185,-153 185,-183 373,-183 373,-153 185,-153"/>
<text text-anchor="start" x="193" y="-171" font-family="Helvetica,sans-Serif" font-size="10.00">commands.UserMadeUtilities.check</text>
<text text-anchor="middle" x="279" y="-160" font-family="Helvetica,sans-Serif" font-size="10.00">UDCommands</text>
</a>
</g>
</g>
<!-- Node1&#45;&gt;Node2 -->
<g id="edge1" class="edge"><title>Node1&#45;&gt;Node2</title>
<path fill="none" stroke="midnightblue" d="M115.133,-133.547C138.969,-138.59 168.958,-144.933 196.685,-150.799"/>
<polygon fill="midnightblue" stroke="midnightblue" points="196.274,-154.289 206.782,-152.935 197.723,-147.441 196.274,-154.289"/>
</g>
<!-- Node3 -->
<g id="node3" class="node"><title>Node3</title>
<g id="a_node3"><a xlink:href="../../d0/d3b/classcommands_1_1_user_made_utilities.html#ab404a41aca56228775075422606fabb2" target="_top" xlink:title="commands.UserMadeUtilities.checkVars">
<polygon fill="white" stroke="black" points="174.5,-114.5 174.5,-133.5 383.5,-133.5 383.5,-114.5 174.5,-114.5"/>
<text text-anchor="middle" x="279" y="-121.5" font-family="Helvetica,sans-Serif" font-size="10.00">commands.UserMadeUtilities.checkVars</text>
</a>
</g>
</g>
<!-- Node1&#45;&gt;Node3 -->
<g id="edge2" class="edge"><title>Node1&#45;&gt;Node3</title>
<path fill="none" stroke="midnightblue" d="M137.532,-124C146.064,-124 154.972,-124 163.98,-124"/>
<polygon fill="midnightblue" stroke="midnightblue" points="164.18,-127.5 174.18,-124 164.18,-120.5 164.18,-127.5"/>
</g>
<!-- Node4 -->
<g id="node4" class="node"><title>Node4</title>
<g id="a_node4"><a xlink:href="../../d0/da7/classconfiguration_1_1_basic_parser.html#ab316d3a3f9ec49ba6922087948e76901" target="_top" xlink:title="configuration.BasicParser.parse">
<polygon fill="white" stroke="black" points="195.5,-76.5 195.5,-95.5 362.5,-95.5 362.5,-76.5 195.5,-76.5"/>
<text text-anchor="middle" x="279" y="-83.5" font-family="Helvetica,sans-Serif" font-size="10.00">configuration.BasicParser.parse</text>
</a>
</g>
</g>
<!-- Node1&#45;&gt;Node4 -->
<g id="edge3" class="edge"><title>Node1&#45;&gt;Node4</title>
<path fill="none" stroke="midnightblue" d="M122.219,-114.46C150.654,-109.265 186.022,-102.804 215.868,-97.3511"/>
<polygon fill="midnightblue" stroke="midnightblue" points="216.552,-100.784 225.76,-95.5439 215.294,-93.8981 216.552,-100.784"/>
</g>
<!-- Node5 -->
<g id="node5" class="node"><title>Node5</title>
<g id="a_node5"><a xlink:href="../../d1/d4d/interfacecommands_1_1view_commands_1_1turtle_commands_1_1_executable.html#a8e431a20f44eb26b441038ba913a2ce4" target="_top" xlink:title="commands.viewCommands.turtle\lCommands.Executable.execute">
<polygon fill="white" stroke="black" points="424,-137 424,-167 602,-167 602,-137 424,-137"/>
<text text-anchor="start" x="432" y="-155" font-family="Helvetica,sans-Serif" font-size="10.00">commands.viewCommands.turtle</text>
<text text-anchor="middle" x="513" y="-144" font-family="Helvetica,sans-Serif" font-size="10.00">Commands.Executable.execute</text>
</a>
</g>
</g>
<!-- Node4&#45;&gt;Node5 -->
<g id="edge4" class="edge"><title>Node4&#45;&gt;Node5</title>
<path fill="none" stroke="midnightblue" d="M351.723,-95.5146C362.719,-97.9952 373.797,-101.106 384,-105 401.518,-111.687 402.78,-119.578 420,-127 425.686,-129.451 431.674,-131.719 437.755,-133.805"/>
<polygon fill="midnightblue" stroke="midnightblue" points="436.765,-137.164 447.358,-136.935 438.935,-130.509 436.765,-137.164"/>
</g>
<!-- Node6 -->
<g id="node6" class="node"><title>Node6</title>
<g id="a_node6"><a xlink:href="../../da/dde/classconfiguration_1_1_util.html#a55c271426926996186d1cde227ae7e23" target="_top" xlink:title="configuration.Util.findCommandKey">
<polygon fill="white" stroke="black" points="420.5,-98.5 420.5,-117.5 605.5,-117.5 605.5,-98.5 420.5,-98.5"/>
<text text-anchor="middle" x="513" y="-105.5" font-family="Helvetica,sans-Serif" font-size="10.00">configuration.Util.findCommandKey</text>
</a>
</g>
</g>
<!-- Node4&#45;&gt;Node6 -->
<g id="edge5" class="edge"><title>Node4&#45;&gt;Node6</title>
<path fill="none" stroke="midnightblue" d="M362.775,-93.8493C378.04,-95.2969 394.143,-96.8239 409.899,-98.318"/>
<polygon fill="midnightblue" stroke="midnightblue" points="409.905,-101.834 420.191,-99.294 410.566,-94.8655 409.905,-101.834"/>
</g>
<!-- Node8 -->
<g id="node8" class="node"><title>Node8</title>
<g id="a_node8"><a xlink:href="../../dc/d20/classapplication_1_1_command_factory.html#a42b3fb802e5122a2ace019bd081bd945" target="_top" xlink:title="application.CommandFactory.make\lNoParmsCommands">
<polygon fill="white" stroke="black" points="420.5,-49 420.5,-79 605.5,-79 605.5,-49 420.5,-49"/>
<text text-anchor="start" x="428.5" y="-67" font-family="Helvetica,sans-Serif" font-size="10.00">application.CommandFactory.make</text>
<text text-anchor="middle" x="513" y="-56" font-family="Helvetica,sans-Serif" font-size="10.00">NoParmsCommands</text>
</a>
</g>
</g>
<!-- Node4&#45;&gt;Node8 -->
<g id="edge7" class="edge"><title>Node4&#45;&gt;Node8</title>
<path fill="none" stroke="midnightblue" d="M362.775,-78.1507C378.04,-76.7031 394.143,-75.1761 409.899,-73.682"/>
<polygon fill="midnightblue" stroke="midnightblue" points="410.566,-77.1345 420.191,-72.706 409.905,-70.1658 410.566,-77.1345"/>
</g>
<!-- Node9 -->
<g id="node9" class="node"><title>Node9</title>
<g id="a_node9"><a xlink:href="../../da/dde/classconfiguration_1_1_util.html#a535858cb955beeaeaa5e7eccfb71d4c1" target="_top" xlink:title="configuration.Util.toCommand\lQueue">
<polygon fill="white" stroke="black" points="432.5,-0 432.5,-30 593.5,-30 593.5,-0 432.5,-0"/>
<text text-anchor="start" x="440.5" y="-18" font-family="Helvetica,sans-Serif" font-size="10.00">configuration.Util.toCommand</text>
<text text-anchor="middle" x="513" y="-7" font-family="Helvetica,sans-Serif" font-size="10.00">Queue</text>
</a>
</g>
</g>
<!-- Node4&#45;&gt;Node9 -->
<g id="edge8" class="edge"><title>Node4&#45;&gt;Node9</title>
<path fill="none" stroke="midnightblue" d="M307.492,-76.4966C335.625,-66.8827 380.669,-51.7967 420,-40 428.09,-37.5734 436.611,-35.1209 445.069,-32.7491"/>
<polygon fill="midnightblue" stroke="midnightblue" points="446.24,-36.0563 454.939,-30.0084 444.368,-29.3115 446.24,-36.0563"/>
</g>
<!-- Node7 -->
<g id="node7" class="node"><title>Node7</title>
<g id="a_node7"><a xlink:href="../../da/dde/classconfiguration_1_1_util.html#a163b0098613bf2f7becf27b131af3934" target="_top" xlink:title="configuration.Util.match">
<polygon fill="white" stroke="black" points="642.5,-98.5 642.5,-117.5 773.5,-117.5 773.5,-98.5 642.5,-98.5"/>
<text text-anchor="middle" x="708" y="-105.5" font-family="Helvetica,sans-Serif" font-size="10.00">configuration.Util.match</text>
</a>
</g>
</g>
<!-- Node6&#45;&gt;Node7 -->
<g id="edge6" class="edge"><title>Node6&#45;&gt;Node7</title>
<path fill="none" stroke="midnightblue" d="M605.696,-108C614.574,-108 623.506,-108 632.191,-108"/>
<polygon fill="midnightblue" stroke="midnightblue" points="632.255,-111.5 642.255,-108 632.255,-104.5 632.255,-111.5"/>
</g>
</g>
</svg>
