<?xml version="1.0" encoding="UTF-8" standalone="no"?>
<!DOCTYPE svg PUBLIC "-//W3C//DTD SVG 1.1//EN"
 "http://www.w3.org/Graphics/SVG/1.1/DTD/svg11.dtd">
<!-- Generated by graphviz version 2.36.0 (20140111.2315)
 -->
<!-- Title: application.Pen.getWeight Pages: 1 -->
<svg width="1572pt" height="596pt"
 viewBox="0.00 0.00 1572.00 596.00" xmlns="http://www.w3.org/2000/svg" xmlns:xlink="http://www.w3.org/1999/xlink">
<g id="graph0" class="graph" transform="scale(1 1) rotate(0) translate(4 592)">
<title>application.Pen.getWeight</title>
<polygon fill="white" stroke="none" points="-4,4 -4,-592 1568,-592 1568,4 -4,4"/>
<!-- Node1 -->
<g id="node1" class="node"><title>Node1</title>
<polygon fill="#bfbfbf" stroke="black" points="0,-324.5 0,-343.5 140,-343.5 140,-324.5 0,-324.5"/>
<text text-anchor="middle" x="70" y="-331.5" font-family="Helvetica,sans-Serif" font-size="10.00">application.Pen.getWeight</text>
</g>
<!-- Node2 -->
<g id="node2" class="node"><title>Node2</title>
<g id="a_node2"><a xlink:href="../../df/dcb/classapplication_1_1_pen_handler.html#a307ff6736f97a1aa1706da924d7e642b" target="_top" xlink:title="application.PenHandler.get\lPenWeight">
<polygon fill="white" stroke="black" points="176.5,-319 176.5,-349 321.5,-349 321.5,-319 176.5,-319"/>
<text text-anchor="start" x="184.5" y="-337" font-family="Helvetica,sans-Serif" font-size="10.00">application.PenHandler.get</text>
<text text-anchor="middle" x="249" y="-326" font-family="Helvetica,sans-Serif" font-size="10.00">PenWeight</text>
</a>
</g>
</g>
<!-- Node1&#45;&gt;Node2 -->
<g id="edge1" class="edge"><title>Node1&#45;&gt;Node2</title>
<path fill="none" stroke="midnightblue" d="M150.269,-334C158.915,-334 167.68,-334 176.23,-334"/>
<polygon fill="midnightblue" stroke="midnightblue" points="150.193,-330.5 140.193,-334 150.193,-337.5 150.193,-330.5"/>
</g>
<!-- Node3 -->
<g id="node3" class="node"><title>Node3</title>
<g id="a_node3"><a xlink:href="../../df/dcb/classapplication_1_1_pen_handler.html#a518bb3076e4d9d105870b0778341a8c0" target="_top" xlink:title="application.PenHandler.set\lThicknessParameter">
<polygon fill="white" stroke="black" points="358,-319 358,-349 502,-349 502,-319 358,-319"/>
<text text-anchor="start" x="366" y="-337" font-family="Helvetica,sans-Serif" font-size="10.00">application.PenHandler.set</text>
<text text-anchor="middle" x="430" y="-326" font-family="Helvetica,sans-Serif" font-size="10.00">ThicknessParameter</text>
</a>
</g>
</g>
<!-- Node2&#45;&gt;Node3 -->
<g id="edge2" class="edge"><title>Node2&#45;&gt;Node3</title>
<path fill="none" stroke="midnightblue" d="M331.71,-334C340.448,-334 349.287,-334 357.888,-334"/>
<polygon fill="midnightblue" stroke="midnightblue" points="331.517,-330.5 321.517,-334 331.517,-337.5 331.517,-330.5"/>
</g>
<!-- Node4 -->
<g id="node4" class="node"><title>Node4</title>
<g id="a_node4"><a xlink:href="../../d8/d65/classapplication_1_1_view_handler.html#a308dcaf9847965fa4a3d261347845f56" target="_top" xlink:title="application.ViewHandler.set\lInfoParamsOfTurtleAndLine">
<polygon fill="white" stroke="black" points="542,-404 542,-434 690,-434 690,-404 542,-404"/>
<text text-anchor="start" x="550" y="-422" font-family="Helvetica,sans-Serif" font-size="10.00">application.ViewHandler.set</text>
<text text-anchor="middle" x="616" y="-411" font-family="Helvetica,sans-Serif" font-size="10.00">InfoParamsOfTurtleAndLine</text>
</a>
</g>
</g>
<!-- Node3&#45;&gt;Node4 -->
<g id="edge3" class="edge"><title>Node3&#45;&gt;Node4</title>
<path fill="none" stroke="midnightblue" d="M472.9,-353.356C506.059,-368.674 551.712,-389.764 582.234,-403.863"/>
<polygon fill="midnightblue" stroke="midnightblue" points="474.018,-350.017 463.472,-349.001 471.082,-356.372 474.018,-350.017"/>
</g>
<!-- Node20 -->
<g id="node20" class="node"><title>Node20</title>
<g id="a_node20"><a xlink:href="../../d3/de0/classapplication_1_1_view_handler2.html#a86919837e2dcf639d2f537d41eb5bd1a" target="_top" xlink:title="application.ViewHandler2.set\lInfoParamsOfTurtleAndLine">
<polygon fill="white" stroke="black" points="538.5,-235 538.5,-265 693.5,-265 693.5,-235 538.5,-235"/>
<text text-anchor="start" x="546.5" y="-253" font-family="Helvetica,sans-Serif" font-size="10.00">application.ViewHandler2.set</text>
<text text-anchor="middle" x="616" y="-242" font-family="Helvetica,sans-Serif" font-size="10.00">InfoParamsOfTurtleAndLine</text>
</a>
</g>
</g>
<!-- Node3&#45;&gt;Node20 -->
<g id="edge21" class="edge"><title>Node3&#45;&gt;Node20</title>
<path fill="none" stroke="midnightblue" d="M473.305,-314.687C506.374,-299.59 551.683,-278.906 582.08,-265.029"/>
<polygon fill="midnightblue" stroke="midnightblue" points="471.539,-311.646 463.896,-318.982 474.446,-318.013 471.539,-311.646"/>
</g>
<!-- Node5 -->
<g id="node5" class="node"><title>Node5</title>
<g id="a_node5"><a xlink:href="../../d8/d65/classapplication_1_1_view_handler.html#ac37927f63d43d93f1b1e0f5a3b59cf26" target="_top" xlink:title="application.ViewHandler.initialize\lTurtle">
<polygon fill="white" stroke="black" points="733.5,-516 733.5,-546 904.5,-546 904.5,-516 733.5,-516"/>
<text text-anchor="start" x="741.5" y="-534" font-family="Helvetica,sans-Serif" font-size="10.00">application.ViewHandler.initialize</text>
<text text-anchor="middle" x="819" y="-523" font-family="Helvetica,sans-Serif" font-size="10.00">Turtle</text>
</a>
</g>
</g>
<!-- Node4&#45;&gt;Node5 -->
<g id="edge4" class="edge"><title>Node4&#45;&gt;Node5</title>
<path fill="none" stroke="midnightblue" d="M652.918,-439.014C692.531,-461.087 755.368,-496.1 791.001,-515.956"/>
<polygon fill="midnightblue" stroke="midnightblue" points="654.547,-435.915 644.108,-434.105 651.14,-442.03 654.547,-435.915"/>
</g>
<!-- Node7 -->
<g id="node7" class="node"><title>Node7</title>
<g id="a_node7"><a xlink:href="../../d8/d65/classapplication_1_1_view_handler.html#ae489ceaa9b5ec67faf3ba22a11cec085" target="_top" xlink:title="application.ViewHandler.update\lTurtleOnView">
<polygon fill="white" stroke="black" points="735.5,-404 735.5,-434 902.5,-434 902.5,-404 735.5,-404"/>
<text text-anchor="start" x="743.5" y="-422" font-family="Helvetica,sans-Serif" font-size="10.00">application.ViewHandler.update</text>
<text text-anchor="middle" x="819" y="-411" font-family="Helvetica,sans-Serif" font-size="10.00">TurtleOnView</text>
</a>
</g>
</g>
<!-- Node4&#45;&gt;Node7 -->
<g id="edge6" class="edge"><title>Node4&#45;&gt;Node7</title>
<path fill="none" stroke="midnightblue" d="M700.243,-419C711.857,-419 723.788,-419 735.39,-419"/>
<polygon fill="midnightblue" stroke="midnightblue" points="700.134,-415.5 690.134,-419 700.134,-422.5 700.134,-415.5"/>
</g>
<!-- Node6 -->
<g id="node6" class="node"><title>Node6</title>
<g id="a_node6"><a xlink:href="../../d8/d65/classapplication_1_1_view_handler.html#aede07ea15df8a762813028bb80403e6b" target="_top" xlink:title="application.ViewHandler.\lViewHandler">
<polygon fill="white" stroke="black" points="962.5,-558 962.5,-588 1095.5,-588 1095.5,-558 962.5,-558"/>
<text text-anchor="start" x="970.5" y="-576" font-family="Helvetica,sans-Serif" font-size="10.00">application.ViewHandler.</text>
<text text-anchor="middle" x="1029" y="-565" font-family="Helvetica,sans-Serif" font-size="10.00">ViewHandler</text>
</a>
</g>
</g>
<!-- Node5&#45;&gt;Node6 -->
<g id="edge5" class="edge"><title>Node5&#45;&gt;Node6</title>
<path fill="none" stroke="midnightblue" d="M904.482,-548.059C923.75,-551.95 943.945,-556.027 962.292,-559.732"/>
<polygon fill="midnightblue" stroke="midnightblue" points="905,-544.593 894.505,-546.044 903.615,-551.454 905,-544.593"/>
</g>
<!-- Node8 -->
<g id="node8" class="node"><title>Node8</title>
<g id="a_node8"><a xlink:href="../../d8/d65/classapplication_1_1_view_handler.html#a1a94c855ceb0e8ffb1f72f138addb75b" target="_top" xlink:title="application.ViewHandler.move\lTurtle">
<polygon fill="white" stroke="black" points="1169,-509 1169,-539 1329,-539 1329,-509 1169,-509"/>
<text text-anchor="start" x="1177" y="-527" font-family="Helvetica,sans-Serif" font-size="10.00">application.ViewHandler.move</text>
<text text-anchor="middle" x="1249" y="-516" font-family="Helvetica,sans-Serif" font-size="10.00">Turtle</text>
</a>
</g>
</g>
<!-- Node7&#45;&gt;Node8 -->
<g id="edge7" class="edge"><title>Node7&#45;&gt;Node8</title>
<path fill="none" stroke="midnightblue" d="M841.943,-441.179C865.06,-462.917 903.65,-494.791 944,-509 1017.02,-534.712 1106.02,-535.908 1168.8,-532.227"/>
<polygon fill="midnightblue" stroke="midnightblue" points="844.353,-438.641 834.717,-434.236 839.503,-443.689 844.353,-438.641"/>
</g>
<!-- Node10 -->
<g id="node10" class="node"><title>Node10</title>
<g id="a_node10"><a xlink:href="../../d8/d65/classapplication_1_1_view_handler.html#a1aff135a076a9717102bb59ea613131c" target="_top" xlink:title="application.ViewHandler.change\lLocationOfTurtle">
<polygon fill="white" stroke="black" points="1165,-448 1165,-478 1333,-478 1333,-448 1165,-448"/>
<text text-anchor="start" x="1173" y="-466" font-family="Helvetica,sans-Serif" font-size="10.00">application.ViewHandler.change</text>
<text text-anchor="middle" x="1249" y="-455" font-family="Helvetica,sans-Serif" font-size="10.00">LocationOfTurtle</text>
</a>
</g>
</g>
<!-- Node7&#45;&gt;Node10 -->
<g id="edge9" class="edge"><title>Node7&#45;&gt;Node10</title>
<path fill="none" stroke="midnightblue" d="M912.896,-428.55C987.849,-436.255 1092.35,-446.998 1164.64,-454.43"/>
<polygon fill="midnightblue" stroke="midnightblue" points="912.828,-425.025 902.523,-427.484 912.112,-431.988 912.828,-425.025"/>
</g>
<!-- Node13 -->
<g id="node13" class="node"><title>Node13</title>
<g id="a_node13"><a xlink:href="../../d8/d65/classapplication_1_1_view_handler.html#a98b4ba09b3f3e8b1a7667db5598dbfb0" target="_top" xlink:title="application.ViewHandler.move\lTurtleImageAndDraw">
<polygon fill="white" stroke="black" points="949,-470 949,-500 1109,-500 1109,-470 949,-470"/>
<text text-anchor="start" x="957" y="-488" font-family="Helvetica,sans-Serif" font-size="10.00">application.ViewHandler.move</text>
<text text-anchor="middle" x="1029" y="-477" font-family="Helvetica,sans-Serif" font-size="10.00">TurtleImageAndDraw</text>
</a>
</g>
</g>
<!-- Node7&#45;&gt;Node13 -->
<g id="edge12" class="edge"><title>Node7&#45;&gt;Node13</title>
<path fill="none" stroke="midnightblue" d="M877.252,-437.166C909.658,-447.449 949.712,-460.158 980.386,-469.892"/>
<polygon fill="midnightblue" stroke="midnightblue" points="878.049,-433.747 867.459,-434.059 875.932,-440.42 878.049,-433.747"/>
</g>
<!-- Node14 -->
<g id="node14" class="node"><title>Node14</title>
<g id="a_node14"><a xlink:href="../../d8/d65/classapplication_1_1_view_handler.html#abe68f02cdf0227b13568e1aaabf57e5c" target="_top" xlink:title="application.ViewHandler.rotate\lTurtle">
<polygon fill="white" stroke="black" points="948,-382 948,-412 1110,-412 1110,-382 948,-382"/>
<text text-anchor="start" x="956" y="-400" font-family="Helvetica,sans-Serif" font-size="10.00">application.ViewHandler.rotate</text>
<text text-anchor="middle" x="1029" y="-389" font-family="Helvetica,sans-Serif" font-size="10.00">Turtle</text>
</a>
</g>
</g>
<!-- Node7&#45;&gt;Node14 -->
<g id="edge15" class="edge"><title>Node7&#45;&gt;Node14</title>
<path fill="none" stroke="midnightblue" d="M912.762,-409.189C924.508,-407.946 936.446,-406.684 947.97,-405.465"/>
<polygon fill="midnightblue" stroke="midnightblue" points="912.082,-405.741 902.506,-410.273 912.819,-412.702 912.082,-405.741"/>
</g>
<!-- Node16 -->
<g id="node16" class="node"><title>Node16</title>
<g id="a_node16"><a xlink:href="../../d8/d65/classapplication_1_1_view_handler.html#af07eafb381b0ea9a1ce68f6ffe8a7428" target="_top" xlink:title="application.ViewHandler.set\lTurtleOrientation">
<polygon fill="white" stroke="black" points="955,-333 955,-363 1103,-363 1103,-333 955,-333"/>
<text text-anchor="start" x="963" y="-351" font-family="Helvetica,sans-Serif" font-size="10.00">application.ViewHandler.set</text>
<text text-anchor="middle" x="1029" y="-340" font-family="Helvetica,sans-Serif" font-size="10.00">TurtleOrientation</text>
</a>
</g>
</g>
<!-- Node7&#45;&gt;Node16 -->
<g id="edge17" class="edge"><title>Node7&#45;&gt;Node16</title>
<path fill="none" stroke="midnightblue" d="M868.063,-400.329C890.937,-391.66 918.75,-381.431 944,-373 954.103,-369.627 964.961,-366.229 975.406,-363.073"/>
<polygon fill="midnightblue" stroke="midnightblue" points="866.683,-397.11 858.584,-403.94 869.174,-403.651 866.683,-397.11"/>
</g>
<!-- Node19 -->
<g id="node19" class="node"><title>Node19</title>
<g id="a_node19"><a xlink:href="../../d8/d65/classapplication_1_1_view_handler.html#a55d042c40e05453e3f5f6bc6c1c6e060" target="_top" xlink:title="application.ViewHandler.show\lTurtle">
<polygon fill="white" stroke="black" points="950.5,-284 950.5,-314 1107.5,-314 1107.5,-284 950.5,-284"/>
<text text-anchor="start" x="958.5" y="-302" font-family="Helvetica,sans-Serif" font-size="10.00">application.ViewHandler.show</text>
<text text-anchor="middle" x="1029" y="-291" font-family="Helvetica,sans-Serif" font-size="10.00">Turtle</text>
</a>
</g>
</g>
<!-- Node7&#45;&gt;Node19 -->
<g id="edge20" class="edge"><title>Node7&#45;&gt;Node19</title>
<path fill="none" stroke="midnightblue" d="M843.361,-396.864C867.043,-375.499 905.579,-343.589 944,-324 951.455,-320.199 959.585,-316.877 967.754,-314.004"/>
<polygon fill="midnightblue" stroke="midnightblue" points="840.935,-394.339 835.92,-403.672 845.661,-399.504 840.935,-394.339"/>
</g>
<!-- Node9 -->
<g id="node9" class="node"><title>Node9</title>
<g id="a_node9"><a xlink:href="../../dd/da6/classcommands_1_1view_commands_1_1turtle_commands_1_1_move.html#af95e8ccf5c290a4d06f79caf2deed407" target="_top" xlink:title="commands.viewCommands.turtle\lCommands.Move.changeLocation">
<polygon fill="white" stroke="black" points="1384.5,-509 1384.5,-539 1563.5,-539 1563.5,-509 1384.5,-509"/>
<text text-anchor="start" x="1392.5" y="-527" font-family="Helvetica,sans-Serif" font-size="10.00">commands.viewCommands.turtle</text>
<text text-anchor="middle" x="1474" y="-516" font-family="Helvetica,sans-Serif" font-size="10.00">Commands.Move.changeLocation</text>
</a>
</g>
</g>
<!-- Node8&#45;&gt;Node9 -->
<g id="edge8" class="edge"><title>Node8&#45;&gt;Node9</title>
<path fill="none" stroke="midnightblue" d="M1339.36,-524C1354.11,-524 1369.4,-524 1384.14,-524"/>
<polygon fill="midnightblue" stroke="midnightblue" points="1339.25,-520.5 1329.25,-524 1339.25,-527.5 1339.25,-520.5"/>
</g>
<!-- Node11 -->
<g id="node11" class="node"><title>Node11</title>
<g id="a_node11"><a xlink:href="../../d5/de0/classcommands_1_1view_commands_1_1turtle_commands_1_1_clear_screen.html#ae547e4c170a1b6d41cdfc6c8bfe5e972" target="_top" xlink:title="commands.viewCommands.turtle\lCommands.ClearScreen.execute">
<polygon fill="white" stroke="black" points="1385,-452 1385,-482 1563,-482 1563,-452 1385,-452"/>
<text text-anchor="start" x="1393" y="-470" font-family="Helvetica,sans-Serif" font-size="10.00">commands.viewCommands.turtle</text>
<text text-anchor="middle" x="1474" y="-459" font-family="Helvetica,sans-Serif" font-size="10.00">Commands.ClearScreen.execute</text>
</a>
</g>
</g>
<!-- Node10&#45;&gt;Node11 -->
<g id="edge10" class="edge"><title>Node10&#45;&gt;Node11</title>
<path fill="none" stroke="midnightblue" d="M1343.4,-464.675C1357.07,-464.92 1371.1,-465.172 1384.66,-465.416"/>
<polygon fill="midnightblue" stroke="midnightblue" points="1343.1,-461.169 1333.04,-464.489 1342.97,-468.168 1343.1,-461.169"/>
</g>
<!-- Node12 -->
<g id="node12" class="node"><title>Node12</title>
<g id="a_node12"><a xlink:href="../../dd/da6/classcommands_1_1view_commands_1_1turtle_commands_1_1_move.html#af4d9a4d9ade56b5e3a1e582bd891b7b5" target="_top" xlink:title="commands.viewCommands.turtle\lCommands.Move.goToLocation">
<polygon fill="white" stroke="black" points="1385,-403 1385,-433 1563,-433 1563,-403 1385,-403"/>
<text text-anchor="start" x="1393" y="-421" font-family="Helvetica,sans-Serif" font-size="10.00">commands.viewCommands.turtle</text>
<text text-anchor="middle" x="1474" y="-410" font-family="Helvetica,sans-Serif" font-size="10.00">Commands.Move.goToLocation</text>
</a>
</g>
</g>
<!-- Node10&#45;&gt;Node12 -->
<g id="edge11" class="edge"><title>Node10&#45;&gt;Node12</title>
<path fill="none" stroke="midnightblue" d="M1334.46,-445.957C1355.52,-441.706 1377.96,-437.179 1398.5,-433.033"/>
<polygon fill="midnightblue" stroke="midnightblue" points="1333.68,-442.544 1324.57,-447.953 1335.06,-449.406 1333.68,-442.544"/>
</g>
<!-- Node13&#45;&gt;Node8 -->
<g id="edge13" class="edge"><title>Node13&#45;&gt;Node8</title>
<path fill="none" stroke="midnightblue" d="M1119.17,-500.953C1135.65,-503.9 1152.74,-506.959 1168.89,-509.848"/>
<polygon fill="midnightblue" stroke="midnightblue" points="1119.47,-497.451 1109.01,-499.135 1118.24,-504.341 1119.47,-497.451"/>
</g>
<!-- Node13&#45;&gt;Node10 -->
<g id="edge14" class="edge"><title>Node13&#45;&gt;Node10</title>
<path fill="none" stroke="midnightblue" d="M1119.34,-475.984C1134.39,-474.465 1149.96,-472.894 1164.85,-471.391"/>
<polygon fill="midnightblue" stroke="midnightblue" points="1118.61,-472.54 1109.01,-477.026 1119.31,-479.505 1118.61,-472.54"/>
</g>
<!-- Node15 -->
<g id="node15" class="node"><title>Node15</title>
<g id="a_node15"><a xlink:href="../../d3/dba/classcommands_1_1view_commands_1_1turtle_commands_1_1_rotate.html#a8ee301e936ff8d884357dccac52c2bfb" target="_top" xlink:title="commands.viewCommands.turtle\lCommands.Rotate.changeOrientation">
<polygon fill="white" stroke="black" points="1150.5,-382 1150.5,-412 1347.5,-412 1347.5,-382 1150.5,-382"/>
<text text-anchor="start" x="1158.5" y="-400" font-family="Helvetica,sans-Serif" font-size="10.00">commands.viewCommands.turtle</text>
<text text-anchor="middle" x="1249" y="-389" font-family="Helvetica,sans-Serif" font-size="10.00">Commands.Rotate.changeOrientation</text>
</a>
</g>
</g>
<!-- Node14&#45;&gt;Node15 -->
<g id="edge16" class="edge"><title>Node14&#45;&gt;Node15</title>
<path fill="none" stroke="midnightblue" d="M1120.4,-397C1130.22,-397 1140.26,-397 1150.16,-397"/>
<polygon fill="midnightblue" stroke="midnightblue" points="1120.25,-393.5 1110.25,-397 1120.25,-400.5 1120.25,-393.5"/>
</g>
<!-- Node17 -->
<g id="node17" class="node"><title>Node17</title>
<g id="a_node17"><a xlink:href="../../df/d03/classcommands_1_1view_commands_1_1turtle_commands_1_1_go_towards_loc.html#a67f5f04ce72d0cd234d1e0a11e6d7c83" target="_top" xlink:title="commands.viewCommands.turtle\lCommands.GoTowardsLoc.execute">
<polygon fill="white" stroke="black" points="1157,-333 1157,-363 1341,-363 1341,-333 1157,-333"/>
<text text-anchor="start" x="1165" y="-351" font-family="Helvetica,sans-Serif" font-size="10.00">commands.viewCommands.turtle</text>
<text text-anchor="middle" x="1249" y="-340" font-family="Helvetica,sans-Serif" font-size="10.00">Commands.GoTowardsLoc.execute</text>
</a>
</g>
</g>
<!-- Node16&#45;&gt;Node17 -->
<g id="edge18" class="edge"><title>Node16&#45;&gt;Node17</title>
<path fill="none" stroke="midnightblue" d="M1113.41,-348C1127.6,-348 1142.41,-348 1156.8,-348"/>
<polygon fill="midnightblue" stroke="midnightblue" points="1113.2,-344.5 1103.2,-348 1113.2,-351.5 1113.2,-344.5"/>
</g>
<!-- Node18 -->
<g id="node18" class="node"><title>Node18</title>
<g id="a_node18"><a xlink:href="../../df/ded/classcommands_1_1view_commands_1_1turtle_commands_1_1_set_heading.html#a3efffc1774ad2f0b23742a20789f0ee8" target="_top" xlink:title="commands.viewCommands.turtle\lCommands.SetHeading.execute">
<polygon fill="white" stroke="black" points="1160,-284 1160,-314 1338,-314 1338,-284 1160,-284"/>
<text text-anchor="start" x="1168" y="-302" font-family="Helvetica,sans-Serif" font-size="10.00">commands.viewCommands.turtle</text>
<text text-anchor="middle" x="1249" y="-291" font-family="Helvetica,sans-Serif" font-size="10.00">Commands.SetHeading.execute</text>
</a>
</g>
</g>
<!-- Node16&#45;&gt;Node18 -->
<g id="edge19" class="edge"><title>Node16&#45;&gt;Node18</title>
<path fill="none" stroke="midnightblue" d="M1106.78,-330.742C1131.07,-325.282 1157.71,-319.295 1181.24,-314.006"/>
<polygon fill="midnightblue" stroke="midnightblue" points="1105.88,-327.358 1096.89,-332.965 1107.41,-334.187 1105.88,-327.358"/>
</g>
<!-- Node21 -->
<g id="node21" class="node"><title>Node21</title>
<g id="a_node21"><a xlink:href="../../d3/de0/classapplication_1_1_view_handler2.html#a3544f8be953d5b1e93f29786bc91e6c9" target="_top" xlink:title="application.ViewHandler2.initialize\lTurtle">
<polygon fill="white" stroke="black" points="730,-235 730,-265 908,-265 908,-235 730,-235"/>
<text text-anchor="start" x="738" y="-253" font-family="Helvetica,sans-Serif" font-size="10.00">application.ViewHandler2.initialize</text>
<text text-anchor="middle" x="819" y="-242" font-family="Helvetica,sans-Serif" font-size="10.00">Turtle</text>
</a>
</g>
</g>
<!-- Node20&#45;&gt;Node21 -->
<g id="edge22" class="edge"><title>Node20&#45;&gt;Node21</title>
<path fill="none" stroke="midnightblue" d="M703.675,-250C712.358,-250 721.181,-250 729.878,-250"/>
<polygon fill="midnightblue" stroke="midnightblue" points="703.563,-246.5 693.563,-250 703.563,-253.5 703.563,-246.5"/>
</g>
<!-- Node23 -->
<g id="node23" class="node"><title>Node23</title>
<g id="a_node23"><a xlink:href="../../d3/de0/classapplication_1_1_view_handler2.html#adef8a4ac6b5b11687e8ecb1c05253287" target="_top" xlink:title="application.ViewHandler2.update\lTurtleOnView">
<polygon fill="white" stroke="black" points="732.5,-123 732.5,-153 905.5,-153 905.5,-123 732.5,-123"/>
<text text-anchor="start" x="740.5" y="-141" font-family="Helvetica,sans-Serif" font-size="10.00">application.ViewHandler2.update</text>
<text text-anchor="middle" x="819" y="-130" font-family="Helvetica,sans-Serif" font-size="10.00">TurtleOnView</text>
</a>
</g>
</g>
<!-- Node20&#45;&gt;Node23 -->
<g id="edge24" class="edge"><title>Node20&#45;&gt;Node23</title>
<path fill="none" stroke="midnightblue" d="M652.918,-229.986C692.531,-207.913 755.368,-172.9 791.001,-153.044"/>
<polygon fill="midnightblue" stroke="midnightblue" points="651.14,-226.97 644.108,-234.895 654.547,-233.085 651.14,-226.97"/>
</g>
<!-- Node22 -->
<g id="node22" class="node"><title>Node22</title>
<g id="a_node22"><a xlink:href="../../d3/de0/classapplication_1_1_view_handler2.html#ab9f42981fade26d0f6d67bd9dec9181f" target="_top" xlink:title="application.ViewHandler2.\lViewHandler2">
<polygon fill="white" stroke="black" points="959,-235 959,-265 1099,-265 1099,-235 959,-235"/>
<text text-anchor="start" x="967" y="-253" font-family="Helvetica,sans-Serif" font-size="10.00">application.ViewHandler2.</text>
<text text-anchor="middle" x="1029" y="-242" font-family="Helvetica,sans-Serif" font-size="10.00">ViewHandler2</text>
</a>
</g>
</g>
<!-- Node21&#45;&gt;Node22 -->
<g id="edge23" class="edge"><title>Node21&#45;&gt;Node22</title>
<path fill="none" stroke="midnightblue" d="M918.589,-250C932.213,-250 945.961,-250 958.895,-250"/>
<polygon fill="midnightblue" stroke="midnightblue" points="918.211,-246.5 908.211,-250 918.211,-253.5 918.211,-246.5"/>
</g>
<!-- Node24 -->
<g id="node24" class="node"><title>Node24</title>
<g id="a_node24"><a xlink:href="../../d3/de0/classapplication_1_1_view_handler2.html#abaa9dc9add64d8386b9f7fc37152d620" target="_top" xlink:title="application.ViewHandler2.set\lTurtleLocAndMove">
<polygon fill="white" stroke="black" points="1171.5,-169 1171.5,-199 1326.5,-199 1326.5,-169 1171.5,-169"/>
<text text-anchor="start" x="1179.5" y="-187" font-family="Helvetica,sans-Serif" font-size="10.00">application.ViewHandler2.set</text>
<text text-anchor="middle" x="1249" y="-176" font-family="Helvetica,sans-Serif" font-size="10.00">TurtleLocAndMove</text>
</a>
</g>
</g>
<!-- Node23&#45;&gt;Node24 -->
<g id="edge25" class="edge"><title>Node23&#45;&gt;Node24</title>
<path fill="none" stroke="midnightblue" d="M858.747,-157.27C882.667,-168.074 914.352,-180.462 944,-186 1020.4,-200.27 1109.48,-197.462 1171.39,-192.502"/>
<polygon fill="midnightblue" stroke="midnightblue" points="860.201,-154.086 849.655,-153.071 857.267,-160.441 860.201,-154.086"/>
</g>
<!-- Node27 -->
<g id="node27" class="node"><title>Node27</title>
<g id="a_node27"><a xlink:href="../../d3/de0/classapplication_1_1_view_handler2.html#ab87b30f73cb5e726f4fcc6b6f60f8007" target="_top" xlink:title="application.ViewHandler2.move\lTurtleImageAndDraw">
<polygon fill="white" stroke="black" points="945.5,-147 945.5,-177 1112.5,-177 1112.5,-147 945.5,-147"/>
<text text-anchor="start" x="953.5" y="-165" font-family="Helvetica,sans-Serif" font-size="10.00">application.ViewHandler2.move</text>
<text text-anchor="middle" x="1029" y="-154" font-family="Helvetica,sans-Serif" font-size="10.00">TurtleImageAndDraw</text>
</a>
</g>
</g>
<!-- Node23&#45;&gt;Node27 -->
<g id="edge28" class="edge"><title>Node23&#45;&gt;Node27</title>
<path fill="none" stroke="midnightblue" d="M915.707,-149.043C925.55,-150.179 935.491,-151.326 945.177,-152.444"/>
<polygon fill="midnightblue" stroke="midnightblue" points="915.837,-145.535 905.502,-147.866 915.035,-152.489 915.837,-145.535"/>
</g>
<!-- Node28 -->
<g id="node28" class="node"><title>Node28</title>
<g id="a_node28"><a xlink:href="../../d3/de0/classapplication_1_1_view_handler2.html#a4dfbbb48e3c3c7bc5db71a2a308a1b7c" target="_top" xlink:title="application.ViewHandler2.rotate\lTurtle">
<polygon fill="white" stroke="black" points="944.5,-98 944.5,-128 1113.5,-128 1113.5,-98 944.5,-98"/>
<text text-anchor="start" x="952.5" y="-116" font-family="Helvetica,sans-Serif" font-size="10.00">application.ViewHandler2.rotate</text>
<text text-anchor="middle" x="1029" y="-105" font-family="Helvetica,sans-Serif" font-size="10.00">Turtle</text>
</a>
</g>
</g>
<!-- Node23&#45;&gt;Node28 -->
<g id="edge30" class="edge"><title>Node23&#45;&gt;Node28</title>
<path fill="none" stroke="midnightblue" d="M915.445,-126.528C925.032,-125.376 934.718,-124.212 944.172,-123.075"/>
<polygon fill="midnightblue" stroke="midnightblue" points="915.013,-123.055 905.502,-127.723 915.848,-130.005 915.013,-123.055"/>
</g>
<!-- Node29 -->
<g id="node29" class="node"><title>Node29</title>
<g id="a_node29"><a xlink:href="../../d3/de0/classapplication_1_1_view_handler2.html#a0e3021726260bc0112ea6b6deef82aaa" target="_top" xlink:title="application.ViewHandler2.set\lTurtleOrientation">
<polygon fill="white" stroke="black" points="951.5,-49 951.5,-79 1106.5,-79 1106.5,-49 951.5,-49"/>
<text text-anchor="start" x="959.5" y="-67" font-family="Helvetica,sans-Serif" font-size="10.00">application.ViewHandler2.set</text>
<text text-anchor="middle" x="1029" y="-56" font-family="Helvetica,sans-Serif" font-size="10.00">TurtleOrientation</text>
</a>
</g>
</g>
<!-- Node23&#45;&gt;Node29 -->
<g id="edge31" class="edge"><title>Node23&#45;&gt;Node29</title>
<path fill="none" stroke="midnightblue" d="M863.991,-118.95C887.506,-109.102 917.083,-97.2435 944,-88 953.037,-84.8966 962.713,-81.8671 972.167,-79.0632"/>
<polygon fill="midnightblue" stroke="midnightblue" points="862.494,-115.783 854.64,-122.894 865.214,-122.233 862.494,-115.783"/>
</g>
<!-- Node30 -->
<g id="node30" class="node"><title>Node30</title>
<g id="a_node30"><a xlink:href="../../d3/de0/classapplication_1_1_view_handler2.html#a204e29a9937f99e85d42c948f58012c1" target="_top" xlink:title="application.ViewHandler2.show\lTurtle">
<polygon fill="white" stroke="black" points="947,-0 947,-30 1111,-30 1111,-0 947,-0"/>
<text text-anchor="start" x="955" y="-18" font-family="Helvetica,sans-Serif" font-size="10.00">application.ViewHandler2.show</text>
<text text-anchor="middle" x="1029" y="-7" font-family="Helvetica,sans-Serif" font-size="10.00">Turtle</text>
</a>
</g>
</g>
<!-- Node23&#45;&gt;Node30 -->
<g id="edge32" class="edge"><title>Node23&#45;&gt;Node30</title>
<path fill="none" stroke="midnightblue" d="M842.347,-115.54C865.785,-93.1654 904.624,-59.3014 944,-39 950.606,-35.5944 957.76,-32.6132 965.011,-30.0187"/>
<polygon fill="midnightblue" stroke="midnightblue" points="839.755,-113.178 835.011,-122.651 844.627,-118.204 839.755,-113.178"/>
</g>
<!-- Node25 -->
<g id="node25" class="node"><title>Node25</title>
<g id="a_node25"><a xlink:href="../../d3/de0/classapplication_1_1_view_handler2.html#ac682f2c1ca441598b6d29fe899e7f468" target="_top" xlink:title="application.ViewHandler2.move\lTurtle">
<polygon fill="white" stroke="black" points="1390.5,-194 1390.5,-224 1557.5,-224 1557.5,-194 1390.5,-194"/>
<text text-anchor="start" x="1398.5" y="-212" font-family="Helvetica,sans-Serif" font-size="10.00">application.ViewHandler2.move</text>
<text text-anchor="middle" x="1474" y="-201" font-family="Helvetica,sans-Serif" font-size="10.00">Turtle</text>
</a>
</g>
</g>
<!-- Node24&#45;&gt;Node25 -->
<g id="edge26" class="edge"><title>Node24&#45;&gt;Node25</title>
<path fill="none" stroke="midnightblue" d="M1336.98,-193.751C1354.55,-195.721 1372.98,-197.787 1390.4,-199.74"/>
<polygon fill="midnightblue" stroke="midnightblue" points="1337.07,-190.24 1326.74,-192.604 1336.29,-197.196 1337.07,-190.24"/>
</g>
<!-- Node26 -->
<g id="node26" class="node"><title>Node26</title>
<g id="a_node26"><a xlink:href="../../d3/de0/classapplication_1_1_view_handler2.html#acd04df701dbbc0a759c79058966f8264" target="_top" xlink:title="application.ViewHandler2.change\lLocationOfTurtle">
<polygon fill="white" stroke="black" points="1386.5,-145 1386.5,-175 1561.5,-175 1561.5,-145 1386.5,-145"/>
<text text-anchor="start" x="1394.5" y="-163" font-family="Helvetica,sans-Serif" font-size="10.00">application.ViewHandler2.change</text>
<text text-anchor="middle" x="1474" y="-152" font-family="Helvetica,sans-Serif" font-size="10.00">LocationOfTurtle</text>
</a>
</g>
</g>
<!-- Node24&#45;&gt;Node26 -->
<g id="edge27" class="edge"><title>Node24&#45;&gt;Node26</title>
<path fill="none" stroke="midnightblue" d="M1336.74,-174.665C1352.97,-172.918 1369.93,-171.092 1386.16,-169.346"/>
<polygon fill="midnightblue" stroke="midnightblue" points="1336.31,-171.191 1326.74,-175.741 1337.06,-178.15 1336.31,-171.191"/>
</g>
<!-- Node27&#45;&gt;Node24 -->
<g id="edge29" class="edge"><title>Node27&#45;&gt;Node24</title>
<path fill="none" stroke="midnightblue" d="M1122.75,-171.361C1138.98,-172.998 1155.7,-174.685 1171.43,-176.273"/>
<polygon fill="midnightblue" stroke="midnightblue" points="1123.03,-167.87 1112.73,-170.349 1122.33,-174.835 1123.03,-167.87"/>
</g>
</g>
</svg>
