<?xml version="1.0" encoding="UTF-8" standalone="no"?>
<!DOCTYPE svg PUBLIC "-//W3C//DTD SVG 1.1//EN"
 "http://www.w3.org/Graphics/SVG/1.1/DTD/svg11.dtd">
<!-- Generated by graphviz version 2.36.0 (20140111.2315)
 -->
<!-- Title: application.Pen.getColorFromPalette Pages: 1 -->
<svg width="322pt" height="77pt"
 viewBox="0.00 0.00 322.00 77.00" xmlns="http://www.w3.org/2000/svg" xmlns:xlink="http://www.w3.org/1999/xlink">
<g id="graph0" class="graph" transform="scale(1 1) rotate(0) translate(4 73)">
<title>application.Pen.getColorFromPalette</title>
<polygon fill="white" stroke="none" points="-4,4 -4,-73 318,-73 318,4 -4,4"/>
<!-- Node1 -->
<g id="node1" class="node"><title>Node1</title>
<polygon fill="#bfbfbf" stroke="black" points="0.5,-22 0.5,-52 133.5,-52 133.5,-22 0.5,-22"/>
<text text-anchor="start" x="8.5" y="-40" font-family="Helvetica,sans-Serif" font-size="10.00">application.Pen.getColor</text>
<text text-anchor="middle" x="67" y="-29" font-family="Helvetica,sans-Serif" font-size="10.00">FromPalette</text>
</g>
<!-- Node2 -->
<g id="node2" class="node"><title>Node2</title>
<g id="a_node2"><a xlink:href="../../de/d5a/classapplication_1_1_pen.html#ae953aaf751babbcff298ec29ccd676f8" target="_top" xlink:title="application.Pen.setColor">
<polygon fill="white" stroke="black" points="176,-49.5 176,-68.5 308,-68.5 308,-49.5 176,-49.5"/>
<text text-anchor="middle" x="242" y="-56.5" font-family="Helvetica,sans-Serif" font-size="10.00">application.Pen.setColor</text>
</a>
</g>
</g>
<!-- Node1&#45;&gt;Node2 -->
<g id="edge1" class="edge"><title>Node1&#45;&gt;Node2</title>
<path fill="none" stroke="midnightblue" d="M143.996,-46.6643C154.62,-48.0153 165.459,-49.3936 175.858,-50.7161"/>
<polygon fill="midnightblue" stroke="midnightblue" points="144.259,-43.1696 133.897,-45.38 143.376,-50.1137 144.259,-43.1696"/>
</g>
<!-- Node3 -->
<g id="node3" class="node"><title>Node3</title>
<g id="a_node3"><a xlink:href="../../df/dcb/classapplication_1_1_pen_handler.html#ae9b2d43419cb04f53226c79c5fca6d4d" target="_top" xlink:title="application.PenHandler.set\lPenColor">
<polygon fill="white" stroke="black" points="170,-0 170,-30 314,-30 314,-0 170,-0"/>
<text text-anchor="start" x="178" y="-18" font-family="Helvetica,sans-Serif" font-size="10.00">application.PenHandler.set</text>
<text text-anchor="middle" x="242" y="-7" font-family="Helvetica,sans-Serif" font-size="10.00">PenColor</text>
</a>
</g>
</g>
<!-- Node1&#45;&gt;Node3 -->
<g id="edge2" class="edge"><title>Node1&#45;&gt;Node3</title>
<path fill="none" stroke="midnightblue" d="M143.914,-27.3462C152.52,-26.2518 161.268,-25.1393 169.81,-24.053"/>
<polygon fill="midnightblue" stroke="midnightblue" points="143.376,-23.8863 133.897,-28.62 144.259,-30.8304 143.376,-23.8863"/>
</g>
</g>
</svg>
