<?xml version="1.0" encoding="UTF-8" standalone="no"?>
<!DOCTYPE svg PUBLIC "-//W3C//DTD SVG 1.1//EN"
 "http://www.w3.org/Graphics/SVG/1.1/DTD/svg11.dtd">
<!-- Generated by graphviz version 2.36.0 (20140111.2315)
 -->
<!-- Title: application.Pen.getStatus Pages: 1 -->
<!--zoomable 595 -->
<svg id="main" version="1.1" xmlns="http://www.w3.org/2000/svg" xmlns:xlink="http://www.w3.org/1999/xlink" xml:space="preserve" onload="init(evt)">
<style type="text/css"><![CDATA[
.edge:hover path { stroke: red; }
.edge:hover polygon { stroke: red; fill: red; }
]]></style>
<script type="text/javascript"><![CDATA[
var edges = document.getElementsByTagName('g');
if (edges && edges.length) {
  for (var i=0;i<edges.length;i++) {
    if (edges[i].id.substr(0,4)=='edge') {
      edges[i].setAttribute('class','edge');
    }
  }
}
]]></script>
        <defs>
                <circle id="rim" cx="0" cy="0" r="7"/>
                <circle id="rim2" cx="0" cy="0" r="3.5"/>
                <g id="zoomPlus">
                        <use xlink:href="#rim" fill="#404040">
                                <set attributeName="fill" to="#808080" begin="zoomplus.mouseover" end="zoomplus.mouseout"/>
                        </use>
                        <path d="M-4,0h8M0,-4v8" fill="none" stroke="white" stroke-width="1.5" pointer-events="none"/>
                </g>
                <g id="zoomMin">
                        <use xlink:href="#rim" fill="#404040">
                                <set attributeName="fill" to="#808080" begin="zoomminus.mouseover" end="zoomminus.mouseout"/>
                        </use>
                        <path d="M-4,0h8" fill="none" stroke="white" stroke-width="1.5" pointer-events="none"/>
                </g>
                <g id="dirArrow">
                        <path fill="none" stroke="white" stroke-width="1.5" d="M0,-3.0v7 M-2.5,-0.5L0,-3.0L2.5,-0.5"/>
                </g>
               <g id="resetDef">
                       <use xlink:href="#rim2" fill="#404040">
                               <set attributeName="fill" to="#808080" begin="reset.mouseover" end="reset.mouseout"/>
                       </use>
               </g>
        </defs>

<script type="text/javascript">
var viewWidth = 1392;
var viewHeight = 595;
var sectionId = 'dynsection-4';
</script>
<script xlink:href="../../svgpan.js"/>
<svg id="graph" class="graph">
<g id="viewport">
<title>application.Pen.getStatus</title>
<polygon fill="white" stroke="none" points="-4,4 -4,-591 1388,-591 1388,4 -4,4"/>
<!-- Node1 -->
<g id="node1" class="node"><title>Node1</title>
<polygon fill="#bfbfbf" stroke="black" points="0,-265.5 0,-284.5 140,-284.5 140,-265.5 0,-265.5"/>
<text text-anchor="middle" x="70" y="-272.5" font-family="Helvetica,sans-Serif" font-size="10.00">application.Pen.getStatus</text>
</g>
<!-- Node2 -->
<g id="node2" class="node"><title>Node2</title>
<g id="a_node2"><a xlink:href="../../df/dcb/classapplication_1_1_pen_handler.html#a8477a9a258753bb5538ad83a015fb731" target="_top" xlink:title="application.PenHandler.get\lPenStatus">
<polygon fill="white" stroke="black" points="176.5,-260 176.5,-290 321.5,-290 321.5,-260 176.5,-260"/>
<text text-anchor="start" x="184.5" y="-278" font-family="Helvetica,sans-Serif" font-size="10.00">application.PenHandler.get</text>
<text text-anchor="middle" x="249" y="-267" font-family="Helvetica,sans-Serif" font-size="10.00">PenStatus</text>
</a>
</g>
</g>
<!-- Node1&#45;&gt;Node2 -->
<g id="edge1" class="edge"><title>Node1&#45;&gt;Node2</title>
<path fill="none" stroke="midnightblue" d="M150.269,-275C158.915,-275 167.68,-275 176.23,-275"/>
<polygon fill="midnightblue" stroke="midnightblue" points="150.193,-271.5 140.193,-275 150.193,-278.5 150.193,-271.5"/>
</g>
<!-- Node3 -->
<g id="node3" class="node"><title>Node3</title>
<g id="a_node3"><a xlink:href="../../d8/d65/classapplication_1_1_view_handler.html#a98b4ba09b3f3e8b1a7667db5598dbfb0" target="_top" xlink:title="application.ViewHandler.move\lTurtleImageAndDraw">
<polygon fill="white" stroke="black" points="769,-557 769,-587 929,-587 929,-557 769,-557"/>
<text text-anchor="start" x="777" y="-575" font-family="Helvetica,sans-Serif" font-size="10.00">application.ViewHandler.move</text>
<text text-anchor="middle" x="849" y="-564" font-family="Helvetica,sans-Serif" font-size="10.00">TurtleImageAndDraw</text>
</a>
</g>
</g>
<!-- Node2&#45;&gt;Node3 -->
<g id="edge2" class="edge"><title>Node2&#45;&gt;Node3</title>
<path fill="none" stroke="midnightblue" d="M277.606,-296.314C328.888,-335.119 443.35,-418.077 550,-470 630.263,-509.077 729.342,-539.794 790.601,-556.923"/>
<polygon fill="midnightblue" stroke="midnightblue" points="279.432,-293.306 269.354,-290.037 275.194,-298.877 279.432,-293.306"/>
</g>
<!-- Node9 -->
<g id="node9" class="node"><title>Node9</title>
<g id="a_node9"><a xlink:href="../../d8/d65/classapplication_1_1_view_handler.html#a308dcaf9847965fa4a3d261347845f56" target="_top" xlink:title="application.ViewHandler.set\lInfoParamsOfTurtleAndLine">
<polygon fill="white" stroke="black" points="362,-284 362,-314 510,-314 510,-284 362,-284"/>
<text text-anchor="start" x="370" y="-302" font-family="Helvetica,sans-Serif" font-size="10.00">application.ViewHandler.set</text>
<text text-anchor="middle" x="436" y="-291" font-family="Helvetica,sans-Serif" font-size="10.00">InfoParamsOfTurtleAndLine</text>
</a>
</g>
</g>
<!-- Node2&#45;&gt;Node9 -->
<g id="edge8" class="edge"><title>Node2&#45;&gt;Node9</title>
<path fill="none" stroke="midnightblue" d="M331.534,-285.577C341.62,-286.886 351.882,-288.217 361.831,-289.508"/>
<polygon fill="midnightblue" stroke="midnightblue" points="331.893,-282.095 321.526,-284.279 330.992,-289.037 331.893,-282.095"/>
</g>
<!-- Node19 -->
<g id="node19" class="node"><title>Node19</title>
<g id="a_node19"><a xlink:href="../../d3/de0/classapplication_1_1_view_handler2.html#ab87b30f73cb5e726f4fcc6b6f60f8007" target="_top" xlink:title="application.ViewHandler2.move\lTurtleImageAndDraw">
<polygon fill="white" stroke="black" points="765.5,-235 765.5,-265 932.5,-265 932.5,-235 765.5,-235"/>
<text text-anchor="start" x="773.5" y="-253" font-family="Helvetica,sans-Serif" font-size="10.00">application.ViewHandler2.move</text>
<text text-anchor="middle" x="849" y="-242" font-family="Helvetica,sans-Serif" font-size="10.00">TurtleImageAndDraw</text>
</a>
</g>
</g>
<!-- Node2&#45;&gt;Node19 -->
<g id="edge21" class="edge"><title>Node2&#45;&gt;Node19</title>
<path fill="none" stroke="midnightblue" d="M331.595,-271.589C445.475,-266.828 650.936,-258.238 765.369,-253.454"/>
<polygon fill="midnightblue" stroke="midnightblue" points="331.384,-268.095 321.539,-272.009 331.676,-275.088 331.384,-268.095"/>
</g>
<!-- Node23 -->
<g id="node23" class="node"><title>Node23</title>
<g id="a_node23"><a xlink:href="../../d3/de0/classapplication_1_1_view_handler2.html#a86919837e2dcf639d2f537d41eb5bd1a" target="_top" xlink:title="application.ViewHandler2.set\lInfoParamsOfTurtleAndLine">
<polygon fill="white" stroke="black" points="358.5,-147 358.5,-177 513.5,-177 513.5,-147 358.5,-147"/>
<text text-anchor="start" x="366.5" y="-165" font-family="Helvetica,sans-Serif" font-size="10.00">application.ViewHandler2.set</text>
<text text-anchor="middle" x="436" y="-154" font-family="Helvetica,sans-Serif" font-size="10.00">InfoParamsOfTurtleAndLine</text>
</a>
</g>
</g>
<!-- Node2&#45;&gt;Node23 -->
<g id="edge25" class="edge"><title>Node2&#45;&gt;Node23</title>
<path fill="none" stroke="midnightblue" d="M283.373,-254.616C319.917,-232.294 377.66,-197.024 410.332,-177.068"/>
<polygon fill="midnightblue" stroke="midnightblue" points="281.276,-251.795 274.567,-259.994 284.925,-257.769 281.276,-251.795"/>
</g>
<!-- Node4 -->
<g id="node4" class="node"><title>Node4</title>
<g id="a_node4"><a xlink:href="../../d8/d65/classapplication_1_1_view_handler.html#a1a94c855ceb0e8ffb1f72f138addb75b" target="_top" xlink:title="application.ViewHandler.move\lTurtle">
<polygon fill="white" stroke="black" points="989,-553 989,-583 1149,-583 1149,-553 989,-553"/>
<text text-anchor="start" x="997" y="-571" font-family="Helvetica,sans-Serif" font-size="10.00">application.ViewHandler.move</text>
<text text-anchor="middle" x="1069" y="-560" font-family="Helvetica,sans-Serif" font-size="10.00">Turtle</text>
</a>
</g>
</g>
<!-- Node3&#45;&gt;Node4 -->
<g id="edge3" class="edge"><title>Node3&#45;&gt;Node4</title>
<path fill="none" stroke="midnightblue" d="M939.173,-570.364C955.646,-570.062 972.743,-569.748 988.892,-569.452"/>
<polygon fill="midnightblue" stroke="midnightblue" points="938.945,-566.867 929.011,-570.55 939.074,-573.866 938.945,-566.867"/>
</g>
<!-- Node6 -->
<g id="node6" class="node"><title>Node6</title>
<g id="a_node6"><a xlink:href="../../d8/d65/classapplication_1_1_view_handler.html#a1aff135a076a9717102bb59ea613131c" target="_top" xlink:title="application.ViewHandler.change\lLocationOfTurtle">
<polygon fill="white" stroke="black" points="985,-494 985,-524 1153,-524 1153,-494 985,-494"/>
<text text-anchor="start" x="993" y="-512" font-family="Helvetica,sans-Serif" font-size="10.00">application.ViewHandler.change</text>
<text text-anchor="middle" x="1069" y="-501" font-family="Helvetica,sans-Serif" font-size="10.00">LocationOfTurtle</text>
</a>
</g>
</g>
<!-- Node3&#45;&gt;Node6 -->
<g id="edge5" class="edge"><title>Node3&#45;&gt;Node6</title>
<path fill="none" stroke="midnightblue" d="M911.907,-554.109C944.815,-544.599 984.813,-533.04 1016.08,-524.004"/>
<polygon fill="midnightblue" stroke="midnightblue" points="910.575,-550.851 901.939,-556.99 912.518,-557.576 910.575,-550.851"/>
</g>
<!-- Node5 -->
<g id="node5" class="node"><title>Node5</title>
<g id="a_node5"><a xlink:href="../../dd/da6/classcommands_1_1view_commands_1_1turtle_commands_1_1_move.html#af95e8ccf5c290a4d06f79caf2deed407" target="_top" xlink:title="commands.viewCommands.turtle\lCommands.Move.changeLocation">
<polygon fill="white" stroke="black" points="1204.5,-553 1204.5,-583 1383.5,-583 1383.5,-553 1204.5,-553"/>
<text text-anchor="start" x="1212.5" y="-571" font-family="Helvetica,sans-Serif" font-size="10.00">commands.viewCommands.turtle</text>
<text text-anchor="middle" x="1294" y="-560" font-family="Helvetica,sans-Serif" font-size="10.00">Commands.Move.changeLocation</text>
</a>
</g>
</g>
<!-- Node4&#45;&gt;Node5 -->
<g id="edge4" class="edge"><title>Node4&#45;&gt;Node5</title>
<path fill="none" stroke="midnightblue" d="M1159.36,-568C1174.11,-568 1189.4,-568 1204.14,-568"/>
<polygon fill="midnightblue" stroke="midnightblue" points="1159.25,-564.5 1149.25,-568 1159.25,-571.5 1159.25,-564.5"/>
</g>
<!-- Node7 -->
<g id="node7" class="node"><title>Node7</title>
<g id="a_node7"><a xlink:href="../../d5/de0/classcommands_1_1view_commands_1_1turtle_commands_1_1_clear_screen.html#ae547e4c170a1b6d41cdfc6c8bfe5e972" target="_top" xlink:title="commands.viewCommands.turtle\lCommands.ClearScreen.execute">
<polygon fill="white" stroke="black" points="1205,-497 1205,-527 1383,-527 1383,-497 1205,-497"/>
<text text-anchor="start" x="1213" y="-515" font-family="Helvetica,sans-Serif" font-size="10.00">commands.viewCommands.turtle</text>
<text text-anchor="middle" x="1294" y="-504" font-family="Helvetica,sans-Serif" font-size="10.00">Commands.ClearScreen.execute</text>
</a>
</g>
</g>
<!-- Node6&#45;&gt;Node7 -->
<g id="edge6" class="edge"><title>Node6&#45;&gt;Node7</title>
<path fill="none" stroke="midnightblue" d="M1163.4,-510.257C1177.07,-510.44 1191.1,-510.629 1204.66,-510.812"/>
<polygon fill="midnightblue" stroke="midnightblue" points="1163.08,-506.752 1153.04,-510.117 1162.99,-513.751 1163.08,-506.752"/>
</g>
<!-- Node8 -->
<g id="node8" class="node"><title>Node8</title>
<g id="a_node8"><a xlink:href="../../dd/da6/classcommands_1_1view_commands_1_1turtle_commands_1_1_move.html#af4d9a4d9ade56b5e3a1e582bd891b7b5" target="_top" xlink:title="commands.viewCommands.turtle\lCommands.Move.goToLocation">
<polygon fill="white" stroke="black" points="1205,-448 1205,-478 1383,-478 1383,-448 1205,-448"/>
<text text-anchor="start" x="1213" y="-466" font-family="Helvetica,sans-Serif" font-size="10.00">commands.viewCommands.turtle</text>
<text text-anchor="middle" x="1294" y="-455" font-family="Helvetica,sans-Serif" font-size="10.00">Commands.Move.goToLocation</text>
</a>
</g>
</g>
<!-- Node6&#45;&gt;Node8 -->
<g id="edge7" class="edge"><title>Node6&#45;&gt;Node8</title>
<path fill="none" stroke="midnightblue" d="M1153.03,-491.873C1175.08,-487.324 1198.73,-482.445 1220.2,-478.017"/>
<polygon fill="midnightblue" stroke="midnightblue" points="1152.11,-488.49 1143.02,-493.938 1153.52,-495.345 1152.11,-488.49"/>
</g>
<!-- Node10 -->
<g id="node10" class="node"><title>Node10</title>
<g id="a_node10"><a xlink:href="../../d8/d65/classapplication_1_1_view_handler.html#ac37927f63d43d93f1b1e0f5a3b59cf26" target="_top" xlink:title="application.ViewHandler.initialize\lTurtle">
<polygon fill="white" stroke="black" points="553.5,-284 553.5,-314 724.5,-314 724.5,-284 553.5,-284"/>
<text text-anchor="start" x="561.5" y="-302" font-family="Helvetica,sans-Serif" font-size="10.00">application.ViewHandler.initialize</text>
<text text-anchor="middle" x="639" y="-291" font-family="Helvetica,sans-Serif" font-size="10.00">Turtle</text>
</a>
</g>
</g>
<!-- Node9&#45;&gt;Node10 -->
<g id="edge9" class="edge"><title>Node9&#45;&gt;Node10</title>
<path fill="none" stroke="midnightblue" d="M520.447,-299C531.309,-299 542.444,-299 553.326,-299"/>
<polygon fill="midnightblue" stroke="midnightblue" points="520.134,-295.5 510.134,-299 520.134,-302.5 520.134,-295.5"/>
</g>
<!-- Node12 -->
<g id="node12" class="node"><title>Node12</title>
<g id="a_node12"><a xlink:href="../../d8/d65/classapplication_1_1_view_handler.html#ae489ceaa9b5ec67faf3ba22a11cec085" target="_top" xlink:title="application.ViewHandler.update\lTurtleOnView">
<polygon fill="white" stroke="black" points="555.5,-431 555.5,-461 722.5,-461 722.5,-431 555.5,-431"/>
<text text-anchor="start" x="563.5" y="-449" font-family="Helvetica,sans-Serif" font-size="10.00">application.ViewHandler.update</text>
<text text-anchor="middle" x="639" y="-438" font-family="Helvetica,sans-Serif" font-size="10.00">TurtleOnView</text>
</a>
</g>
</g>
<!-- Node9&#45;&gt;Node12 -->
<g id="edge11" class="edge"><title>Node9&#45;&gt;Node12</title>
<path fill="none" stroke="midnightblue" d="M466.001,-320.21C507.128,-350.288 581.387,-404.597 617.359,-430.905"/>
<polygon fill="midnightblue" stroke="midnightblue" points="467.891,-317.256 457.753,-314.178 463.759,-322.906 467.891,-317.256"/>
</g>
<!-- Node11 -->
<g id="node11" class="node"><title>Node11</title>
<g id="a_node11"><a xlink:href="../../d8/d65/classapplication_1_1_view_handler.html#aede07ea15df8a762813028bb80403e6b" target="_top" xlink:title="application.ViewHandler.\lViewHandler">
<polygon fill="white" stroke="black" points="782.5,-284 782.5,-314 915.5,-314 915.5,-284 782.5,-284"/>
<text text-anchor="start" x="790.5" y="-302" font-family="Helvetica,sans-Serif" font-size="10.00">application.ViewHandler.</text>
<text text-anchor="middle" x="849" y="-291" font-family="Helvetica,sans-Serif" font-size="10.00">ViewHandler</text>
</a>
</g>
</g>
<!-- Node10&#45;&gt;Node11 -->
<g id="edge10" class="edge"><title>Node10&#45;&gt;Node11</title>
<path fill="none" stroke="midnightblue" d="M735.042,-299C751.017,-299 767.275,-299 782.295,-299"/>
<polygon fill="midnightblue" stroke="midnightblue" points="734.602,-295.5 724.602,-299 734.602,-302.5 734.602,-295.5"/>
</g>
<!-- Node12&#45;&gt;Node3 -->
<g id="edge14" class="edge"><title>Node12&#45;&gt;Node3</title>
<path fill="none" stroke="midnightblue" d="M666.685,-467.381C699.916,-493.893 753.598,-536.305 764,-542 774.459,-547.726 786.226,-552.722 797.567,-556.908"/>
<polygon fill="midnightblue" stroke="midnightblue" points="668.714,-464.522 658.716,-461.016 664.345,-469.992 668.714,-464.522"/>
</g>
<!-- Node12&#45;&gt;Node4 -->
<g id="edge12" class="edge"><title>Node12&#45;&gt;Node4</title>
<path fill="none" stroke="midnightblue" d="M683.621,-464.979C707.142,-474.767 736.841,-486.42 764,-495 840.729,-519.24 930.54,-539.887 992.548,-552.972"/>
<polygon fill="midnightblue" stroke="midnightblue" points="684.848,-461.698 674.273,-461.051 682.136,-468.151 684.848,-461.698"/>
</g>
<!-- Node12&#45;&gt;Node6 -->
<g id="edge13" class="edge"><title>Node12&#45;&gt;Node6</title>
<path fill="none" stroke="midnightblue" d="M723.806,-462.97C737.223,-465.471 750.975,-467.906 764,-470 838.47,-481.971 923.675,-492.642 984.895,-499.783"/>
<polygon fill="midnightblue" stroke="midnightblue" points="724.104,-459.465 713.628,-461.05 722.806,-466.344 724.104,-459.465"/>
</g>
<!-- Node13 -->
<g id="node13" class="node"><title>Node13</title>
<g id="a_node13"><a xlink:href="../../d8/d65/classapplication_1_1_view_handler.html#abe68f02cdf0227b13568e1aaabf57e5c" target="_top" xlink:title="application.ViewHandler.rotate\lTurtle">
<polygon fill="white" stroke="black" points="768,-431 768,-461 930,-461 930,-431 768,-431"/>
<text text-anchor="start" x="776" y="-449" font-family="Helvetica,sans-Serif" font-size="10.00">application.ViewHandler.rotate</text>
<text text-anchor="middle" x="849" y="-438" font-family="Helvetica,sans-Serif" font-size="10.00">Turtle</text>
</a>
</g>
</g>
<!-- Node12&#45;&gt;Node13 -->
<g id="edge15" class="edge"><title>Node12&#45;&gt;Node13</title>
<path fill="none" stroke="midnightblue" d="M732.762,-446C744.508,-446 756.446,-446 767.97,-446"/>
<polygon fill="midnightblue" stroke="midnightblue" points="732.506,-442.5 722.506,-446 732.506,-449.5 732.506,-442.5"/>
</g>
<!-- Node15 -->
<g id="node15" class="node"><title>Node15</title>
<g id="a_node15"><a xlink:href="../../d8/d65/classapplication_1_1_view_handler.html#af07eafb381b0ea9a1ce68f6ffe8a7428" target="_top" xlink:title="application.ViewHandler.set\lTurtleOrientation">
<polygon fill="white" stroke="black" points="775,-382 775,-412 923,-412 923,-382 775,-382"/>
<text text-anchor="start" x="783" y="-400" font-family="Helvetica,sans-Serif" font-size="10.00">application.ViewHandler.set</text>
<text text-anchor="middle" x="849" y="-389" font-family="Helvetica,sans-Serif" font-size="10.00">TurtleOrientation</text>
</a>
</g>
</g>
<!-- Node12&#45;&gt;Node15 -->
<g id="edge17" class="edge"><title>Node12&#45;&gt;Node15</title>
<path fill="none" stroke="midnightblue" d="M713.568,-428.669C736.661,-423.229 761.95,-417.271 784.3,-412.006"/>
<polygon fill="midnightblue" stroke="midnightblue" points="712.751,-425.266 703.82,-430.965 714.357,-432.079 712.751,-425.266"/>
</g>
<!-- Node18 -->
<g id="node18" class="node"><title>Node18</title>
<g id="a_node18"><a xlink:href="../../d8/d65/classapplication_1_1_view_handler.html#a55d042c40e05453e3f5f6bc6c1c6e060" target="_top" xlink:title="application.ViewHandler.show\lTurtle">
<polygon fill="white" stroke="black" points="770.5,-333 770.5,-363 927.5,-363 927.5,-333 770.5,-333"/>
<text text-anchor="start" x="778.5" y="-351" font-family="Helvetica,sans-Serif" font-size="10.00">application.ViewHandler.show</text>
<text text-anchor="middle" x="849" y="-340" font-family="Helvetica,sans-Serif" font-size="10.00">Turtle</text>
</a>
</g>
</g>
<!-- Node12&#45;&gt;Node18 -->
<g id="edge20" class="edge"><title>Node12&#45;&gt;Node18</title>
<path fill="none" stroke="midnightblue" d="M669.924,-425.118C694.332,-408.842 730.186,-386.623 764,-372 771.656,-368.689 779.9,-365.693 788.126,-363.029"/>
<polygon fill="midnightblue" stroke="midnightblue" points="667.805,-422.325 661.474,-430.82 671.721,-428.128 667.805,-422.325"/>
</g>
<!-- Node14 -->
<g id="node14" class="node"><title>Node14</title>
<g id="a_node14"><a xlink:href="../../d3/dba/classcommands_1_1view_commands_1_1turtle_commands_1_1_rotate.html#a8ee301e936ff8d884357dccac52c2bfb" target="_top" xlink:title="commands.viewCommands.turtle\lCommands.Rotate.changeOrientation">
<polygon fill="white" stroke="black" points="970.5,-431 970.5,-461 1167.5,-461 1167.5,-431 970.5,-431"/>
<text text-anchor="start" x="978.5" y="-449" font-family="Helvetica,sans-Serif" font-size="10.00">commands.viewCommands.turtle</text>
<text text-anchor="middle" x="1069" y="-438" font-family="Helvetica,sans-Serif" font-size="10.00">Commands.Rotate.changeOrientation</text>
</a>
</g>
</g>
<!-- Node13&#45;&gt;Node14 -->
<g id="edge16" class="edge"><title>Node13&#45;&gt;Node14</title>
<path fill="none" stroke="midnightblue" d="M940.397,-446C950.222,-446 960.256,-446 970.165,-446"/>
<polygon fill="midnightblue" stroke="midnightblue" points="940.246,-442.5 930.246,-446 940.246,-449.5 940.246,-442.5"/>
</g>
<!-- Node16 -->
<g id="node16" class="node"><title>Node16</title>
<g id="a_node16"><a xlink:href="../../df/d03/classcommands_1_1view_commands_1_1turtle_commands_1_1_go_towards_loc.html#a67f5f04ce72d0cd234d1e0a11e6d7c83" target="_top" xlink:title="commands.viewCommands.turtle\lCommands.GoTowardsLoc.execute">
<polygon fill="white" stroke="black" points="977,-382 977,-412 1161,-412 1161,-382 977,-382"/>
<text text-anchor="start" x="985" y="-400" font-family="Helvetica,sans-Serif" font-size="10.00">commands.viewCommands.turtle</text>
<text text-anchor="middle" x="1069" y="-389" font-family="Helvetica,sans-Serif" font-size="10.00">Commands.GoTowardsLoc.execute</text>
</a>
</g>
</g>
<!-- Node15&#45;&gt;Node16 -->
<g id="edge18" class="edge"><title>Node15&#45;&gt;Node16</title>
<path fill="none" stroke="midnightblue" d="M933.41,-397C947.604,-397 962.412,-397 976.795,-397"/>
<polygon fill="midnightblue" stroke="midnightblue" points="933.197,-393.5 923.197,-397 933.197,-400.5 933.197,-393.5"/>
</g>
<!-- Node17 -->
<g id="node17" class="node"><title>Node17</title>
<g id="a_node17"><a xlink:href="../../df/ded/classcommands_1_1view_commands_1_1turtle_commands_1_1_set_heading.html#a3efffc1774ad2f0b23742a20789f0ee8" target="_top" xlink:title="commands.viewCommands.turtle\lCommands.SetHeading.execute">
<polygon fill="white" stroke="black" points="980,-333 980,-363 1158,-363 1158,-333 980,-333"/>
<text text-anchor="start" x="988" y="-351" font-family="Helvetica,sans-Serif" font-size="10.00">commands.viewCommands.turtle</text>
<text text-anchor="middle" x="1069" y="-340" font-family="Helvetica,sans-Serif" font-size="10.00">Commands.SetHeading.execute</text>
</a>
</g>
</g>
<!-- Node15&#45;&gt;Node17 -->
<g id="edge19" class="edge"><title>Node15&#45;&gt;Node17</title>
<path fill="none" stroke="midnightblue" d="M926.781,-379.742C951.072,-374.282 977.708,-368.295 1001.24,-363.006"/>
<polygon fill="midnightblue" stroke="midnightblue" points="925.878,-376.358 916.889,-381.965 927.413,-383.187 925.878,-376.358"/>
</g>
<!-- Node20 -->
<g id="node20" class="node"><title>Node20</title>
<g id="a_node20"><a xlink:href="../../d3/de0/classapplication_1_1_view_handler2.html#abaa9dc9add64d8386b9f7fc37152d620" target="_top" xlink:title="application.ViewHandler2.set\lTurtleLocAndMove">
<polygon fill="white" stroke="black" points="991.5,-213 991.5,-243 1146.5,-243 1146.5,-213 991.5,-213"/>
<text text-anchor="start" x="999.5" y="-231" font-family="Helvetica,sans-Serif" font-size="10.00">application.ViewHandler2.set</text>
<text text-anchor="middle" x="1069" y="-220" font-family="Helvetica,sans-Serif" font-size="10.00">TurtleLocAndMove</text>
</a>
</g>
</g>
<!-- Node19&#45;&gt;Node20 -->
<g id="edge22" class="edge"><title>Node19&#45;&gt;Node20</title>
<path fill="none" stroke="midnightblue" d="M942.754,-240.639C958.982,-239.002 975.701,-237.315 991.429,-235.727"/>
<polygon fill="midnightblue" stroke="midnightblue" points="942.325,-237.165 932.727,-241.651 943.028,-244.13 942.325,-237.165"/>
</g>
<!-- Node21 -->
<g id="node21" class="node"><title>Node21</title>
<g id="a_node21"><a xlink:href="../../d3/de0/classapplication_1_1_view_handler2.html#ac682f2c1ca441598b6d29fe899e7f468" target="_top" xlink:title="application.ViewHandler2.move\lTurtle">
<polygon fill="white" stroke="black" points="1210.5,-238 1210.5,-268 1377.5,-268 1377.5,-238 1210.5,-238"/>
<text text-anchor="start" x="1218.5" y="-256" font-family="Helvetica,sans-Serif" font-size="10.00">application.ViewHandler2.move</text>
<text text-anchor="middle" x="1294" y="-245" font-family="Helvetica,sans-Serif" font-size="10.00">Turtle</text>
</a>
</g>
</g>
<!-- Node20&#45;&gt;Node21 -->
<g id="edge23" class="edge"><title>Node20&#45;&gt;Node21</title>
<path fill="none" stroke="midnightblue" d="M1156.98,-237.751C1174.55,-239.721 1192.98,-241.787 1210.4,-243.74"/>
<polygon fill="midnightblue" stroke="midnightblue" points="1157.07,-234.24 1146.74,-236.604 1156.29,-241.196 1157.07,-234.24"/>
</g>
<!-- Node22 -->
<g id="node22" class="node"><title>Node22</title>
<g id="a_node22"><a xlink:href="../../d3/de0/classapplication_1_1_view_handler2.html#acd04df701dbbc0a759c79058966f8264" target="_top" xlink:title="application.ViewHandler2.change\lLocationOfTurtle">
<polygon fill="white" stroke="black" points="1206.5,-189 1206.5,-219 1381.5,-219 1381.5,-189 1206.5,-189"/>
<text text-anchor="start" x="1214.5" y="-207" font-family="Helvetica,sans-Serif" font-size="10.00">application.ViewHandler2.change</text>
<text text-anchor="middle" x="1294" y="-196" font-family="Helvetica,sans-Serif" font-size="10.00">LocationOfTurtle</text>
</a>
</g>
</g>
<!-- Node20&#45;&gt;Node22 -->
<g id="edge24" class="edge"><title>Node20&#45;&gt;Node22</title>
<path fill="none" stroke="midnightblue" d="M1156.74,-218.665C1172.97,-216.918 1189.93,-215.092 1206.16,-213.346"/>
<polygon fill="midnightblue" stroke="midnightblue" points="1156.31,-215.191 1146.74,-219.741 1157.06,-222.15 1156.31,-215.191"/>
</g>
<!-- Node24 -->
<g id="node24" class="node"><title>Node24</title>
<g id="a_node24"><a xlink:href="../../d3/de0/classapplication_1_1_view_handler2.html#a3544f8be953d5b1e93f29786bc91e6c9" target="_top" xlink:title="application.ViewHandler2.initialize\lTurtle">
<polygon fill="white" stroke="black" points="550,-49 550,-79 728,-79 728,-49 550,-49"/>
<text text-anchor="start" x="558" y="-67" font-family="Helvetica,sans-Serif" font-size="10.00">application.ViewHandler2.initialize</text>
<text text-anchor="middle" x="639" y="-56" font-family="Helvetica,sans-Serif" font-size="10.00">Turtle</text>
</a>
</g>
</g>
<!-- Node23&#45;&gt;Node24 -->
<g id="edge26" class="edge"><title>Node23&#45;&gt;Node24</title>
<path fill="none" stroke="midnightblue" d="M477.265,-142.369C515.498,-123.727 572.164,-96.0993 606.999,-79.1149"/>
<polygon fill="midnightblue" stroke="midnightblue" points="475.42,-139.374 467.966,-146.902 478.488,-145.666 475.42,-139.374"/>
</g>
<!-- Node26 -->
<g id="node26" class="node"><title>Node26</title>
<g id="a_node26"><a xlink:href="../../d3/de0/classapplication_1_1_view_handler2.html#adef8a4ac6b5b11687e8ecb1c05253287" target="_top" xlink:title="application.ViewHandler2.update\lTurtleOnView">
<polygon fill="white" stroke="black" points="552.5,-147 552.5,-177 725.5,-177 725.5,-147 552.5,-147"/>
<text text-anchor="start" x="560.5" y="-165" font-family="Helvetica,sans-Serif" font-size="10.00">application.ViewHandler2.update</text>
<text text-anchor="middle" x="639" y="-154" font-family="Helvetica,sans-Serif" font-size="10.00">TurtleOnView</text>
</a>
</g>
</g>
<!-- Node23&#45;&gt;Node26 -->
<g id="edge28" class="edge"><title>Node23&#45;&gt;Node26</title>
<path fill="none" stroke="midnightblue" d="M523.739,-162C533.191,-162 542.809,-162 552.25,-162"/>
<polygon fill="midnightblue" stroke="midnightblue" points="523.563,-158.5 513.563,-162 523.563,-165.5 523.563,-158.5"/>
</g>
<!-- Node25 -->
<g id="node25" class="node"><title>Node25</title>
<g id="a_node25"><a xlink:href="../../d3/de0/classapplication_1_1_view_handler2.html#ab9f42981fade26d0f6d67bd9dec9181f" target="_top" xlink:title="application.ViewHandler2.\lViewHandler2">
<polygon fill="white" stroke="black" points="779,-0 779,-30 919,-30 919,-0 779,-0"/>
<text text-anchor="start" x="787" y="-18" font-family="Helvetica,sans-Serif" font-size="10.00">application.ViewHandler2.</text>
<text text-anchor="middle" x="849" y="-7" font-family="Helvetica,sans-Serif" font-size="10.00">ViewHandler2</text>
</a>
</g>
</g>
<!-- Node24&#45;&gt;Node25 -->
<g id="edge27" class="edge"><title>Node24&#45;&gt;Node25</title>
<path fill="none" stroke="midnightblue" d="M713.568,-46.6691C736.661,-41.2288 761.95,-35.2715 784.3,-30.0062"/>
<polygon fill="midnightblue" stroke="midnightblue" points="712.751,-43.2656 703.82,-48.9654 714.357,-50.0791 712.751,-43.2656"/>
</g>
<!-- Node26&#45;&gt;Node19 -->
<g id="edge30" class="edge"><title>Node26&#45;&gt;Node19</title>
<path fill="none" stroke="midnightblue" d="M679.417,-181.601C703.579,-193.324 735.283,-208.187 764,-220 776.603,-225.184 790.467,-230.349 803.236,-234.896"/>
<polygon fill="midnightblue" stroke="midnightblue" points="680.741,-178.353 670.218,-177.114 677.671,-184.644 680.741,-178.353"/>
</g>
<!-- Node26&#45;&gt;Node20 -->
<g id="edge29" class="edge"><title>Node26&#45;&gt;Node20</title>
<path fill="none" stroke="midnightblue" d="M724.357,-178.959C737.603,-181.44 751.158,-183.872 764,-186 841.135,-198.784 929.732,-210.712 991.304,-218.566"/>
<polygon fill="midnightblue" stroke="midnightblue" points="724.781,-175.478 714.305,-177.058 723.48,-182.356 724.781,-175.478"/>
</g>
<!-- Node27 -->
<g id="node27" class="node"><title>Node27</title>
<g id="a_node27"><a xlink:href="../../d3/de0/classapplication_1_1_view_handler2.html#a4dfbbb48e3c3c7bc5db71a2a308a1b7c" target="_top" xlink:title="application.ViewHandler2.rotate\lTurtle">
<polygon fill="white" stroke="black" points="764.5,-147 764.5,-177 933.5,-177 933.5,-147 764.5,-147"/>
<text text-anchor="start" x="772.5" y="-165" font-family="Helvetica,sans-Serif" font-size="10.00">application.ViewHandler2.rotate</text>
<text text-anchor="middle" x="849" y="-154" font-family="Helvetica,sans-Serif" font-size="10.00">Turtle</text>
</a>
</g>
</g>
<!-- Node26&#45;&gt;Node27 -->
<g id="edge31" class="edge"><title>Node26&#45;&gt;Node27</title>
<path fill="none" stroke="midnightblue" d="M735.747,-162C745.236,-162 754.818,-162 764.172,-162"/>
<polygon fill="midnightblue" stroke="midnightblue" points="735.502,-158.5 725.502,-162 735.502,-165.5 735.502,-158.5"/>
</g>
<!-- Node28 -->
<g id="node28" class="node"><title>Node28</title>
<g id="a_node28"><a xlink:href="../../d3/de0/classapplication_1_1_view_handler2.html#a0e3021726260bc0112ea6b6deef82aaa" target="_top" xlink:title="application.ViewHandler2.set\lTurtleOrientation">
<polygon fill="white" stroke="black" points="771.5,-98 771.5,-128 926.5,-128 926.5,-98 771.5,-98"/>
<text text-anchor="start" x="779.5" y="-116" font-family="Helvetica,sans-Serif" font-size="10.00">application.ViewHandler2.set</text>
<text text-anchor="middle" x="849" y="-105" font-family="Helvetica,sans-Serif" font-size="10.00">TurtleOrientation</text>
</a>
</g>
</g>
<!-- Node26&#45;&gt;Node28 -->
<g id="edge32" class="edge"><title>Node26&#45;&gt;Node28</title>
<path fill="none" stroke="midnightblue" d="M713.568,-144.669C736.661,-139.229 761.95,-133.271 784.3,-128.006"/>
<polygon fill="midnightblue" stroke="midnightblue" points="712.751,-141.266 703.82,-146.965 714.357,-148.079 712.751,-141.266"/>
</g>
<!-- Node29 -->
<g id="node29" class="node"><title>Node29</title>
<g id="a_node29"><a xlink:href="../../d3/de0/classapplication_1_1_view_handler2.html#a204e29a9937f99e85d42c948f58012c1" target="_top" xlink:title="application.ViewHandler2.show\lTurtle">
<polygon fill="white" stroke="black" points="767,-49 767,-79 931,-79 931,-49 767,-49"/>
<text text-anchor="start" x="775" y="-67" font-family="Helvetica,sans-Serif" font-size="10.00">application.ViewHandler2.show</text>
<text text-anchor="middle" x="849" y="-56" font-family="Helvetica,sans-Serif" font-size="10.00">Turtle</text>
</a>
</g>
</g>
<!-- Node26&#45;&gt;Node29 -->
<g id="edge33" class="edge"><title>Node26&#45;&gt;Node29</title>
<path fill="none" stroke="midnightblue" d="M669.924,-141.118C694.332,-124.842 730.186,-102.623 764,-88 771.656,-84.6889 779.9,-81.6927 788.126,-79.029"/>
<polygon fill="midnightblue" stroke="midnightblue" points="667.805,-138.325 661.474,-146.82 671.721,-144.128 667.805,-138.325"/>
</g>
</g>
</svg>
        <g id="navigator" transform="translate(0 0)" fill="#404254">
                <rect fill="#f2f5e9" fill-opacity="0.5" stroke="#606060" stroke-width=".5" x="0" y="0" width="60" height="60"/>
                <use id="zoomplus" xlink:href="#zoomPlus" x="17" y="9" onmousedown="handleZoom(evt,'in')"/>
                <use id="zoomminus" xlink:href="#zoomMin" x="42" y="9" onmousedown="handleZoom(evt,'out')"/>
                <use id="reset" xlink:href="#resetDef" x="30" y="36" onmousedown="handleReset()"/>
                <g id="arrowUp" xlink:href="#dirArrow" transform="translate(30 24)" onmousedown="handlePan(0,-1)">
                  <use xlink:href="#rim" fill="#404040">
                        <set attributeName="fill" to="#808080" begin="arrowUp.mouseover" end="arrowUp.mouseout"/>
                  </use>
                  <path fill="none" stroke="white" stroke-width="1.5" d="M0,-3.0v7 M-2.5,-0.5L0,-3.0L2.5,-0.5"/>
                </g>
                <g id="arrowRight" xlink:href="#dirArrow" transform="rotate(90) translate(36 -43)" onmousedown="handlePan(1,0)">
                  <use xlink:href="#rim" fill="#404040">
                        <set attributeName="fill" to="#808080" begin="arrowRight.mouseover" end="arrowRight.mouseout"/>
                  </use>
                  <path fill="none" stroke="white" stroke-width="1.5" d="M0,-3.0v7 M-2.5,-0.5L0,-3.0L2.5,-0.5"/>
                </g>
                <g id="arrowDown" xlink:href="#dirArrow" transform="rotate(180) translate(-30 -48)" onmousedown="handlePan(0,1)">
                  <use xlink:href="#rim" fill="#404040">
                        <set attributeName="fill" to="#808080" begin="arrowDown.mouseover" end="arrowDown.mouseout"/>
                  </use>
                  <path fill="none" stroke="white" stroke-width="1.5" d="M0,-3.0v7 M-2.5,-0.5L0,-3.0L2.5,-0.5"/>
                </g>
                <g id="arrowLeft" xlink:href="#dirArrow" transform="rotate(270) translate(-36 17)" onmousedown="handlePan(-1,0)">
                  <use xlink:href="#rim" fill="#404040">
                        <set attributeName="fill" to="#808080" begin="arrowLeft.mouseover" end="arrowLeft.mouseout"/>
                  </use>
                  <path fill="none" stroke="white" stroke-width="1.5" d="M0,-3.0v7 M-2.5,-0.5L0,-3.0L2.5,-0.5"/>
                </g>
        </g>
        <svg viewBox="0 0 15 15" width="100%" height="30px" preserveAspectRatio="xMaxYMin meet">
         <g id="arrow_out" transform="scale(0.3 0.3)">
          <a xlink:href="classapplication_1_1_pen_ab21d78789fb66a90181393d7cc42796c_icgraph_org.svg" target="_base">
           <rect id="button" ry="5" rx="5" y="6" x="6" height="38" width="38"
                fill="#f2f5e9" fill-opacity="0.5" stroke="#606060" stroke-width="1.0"/>
           <path id="arrow"
             d="M 11.500037,31.436501 C 11.940474,20.09759 22.043105,11.32322 32.158766,21.979434 L 37.068811,17.246167 C 37.068811,17.246167 37.088388,32 37.088388,32 L 22.160133,31.978069 C 22.160133,31.978069 26.997745,27.140456 26.997745,27.140456 C 18.528582,18.264221 13.291696,25.230495 11.500037,31.436501 z"
             style="fill:#404040;"/>
          </a>
         </g>
        </svg>
</svg>
