<?xml version="1.0" encoding="UTF-8" standalone="no"?>
<!DOCTYPE svg PUBLIC "-//W3C//DTD SVG 1.1//EN"
 "http://www.w3.org/Graphics/SVG/1.1/DTD/svg11.dtd">
<!-- Generated by graphviz version 2.36.0 (20140111.2315)
 -->
<!-- Title: Tree.Node Pages: 1 -->
<svg width="310pt" height="84pt"
 viewBox="0.00 0.00 310.00 84.00" xmlns="http://www.w3.org/2000/svg" xmlns:xlink="http://www.w3.org/1999/xlink">
<g id="graph0" class="graph" transform="scale(1 1) rotate(0) translate(4 80)">
<title>Tree.Node</title>
<polygon fill="white" stroke="none" points="-4,4 -4,-80 306,-80 306,4 -4,4"/>
<!-- Node1 -->
<g id="node1" class="node"><title>Node1</title>
<polygon fill="#bfbfbf" stroke="black" points="111.5,-56.5 111.5,-75.5 176.5,-75.5 176.5,-56.5 111.5,-56.5"/>
<text text-anchor="middle" x="144" y="-63.5" font-family="Helvetica,sans-Serif" font-size="10.00">Tree.Node</text>
</g>
<!-- Node2 -->
<g id="node2" class="node"><title>Node2</title>
<g id="a_node2"><a xlink:href="../../de/dc5/class_tree_1_1_bin_node.html" target="_top" xlink:title="Tree.BinNode">
<polygon fill="white" stroke="black" points="0,-0.5 0,-19.5 80,-19.5 80,-0.5 0,-0.5"/>
<text text-anchor="middle" x="40" y="-7.5" font-family="Helvetica,sans-Serif" font-size="10.00">Tree.BinNode</text>
</a>
</g>
</g>
<!-- Node1&#45;&gt;Node2 -->
<g id="edge1" class="edge"><title>Node1&#45;&gt;Node2</title>
<path fill="none" stroke="midnightblue" d="M118.172,-51.5895C98.9433,-41.6052 73.2553,-28.2672 56.6679,-19.6545"/>
<polygon fill="midnightblue" stroke="midnightblue" points="116.803,-54.822 127.291,-56.324 120.029,-48.6095 116.803,-54.822"/>
</g>
<!-- Node3 -->
<g id="node3" class="node"><title>Node3</title>
<g id="a_node3"><a xlink:href="../../d0/d1d/class_tree_1_1_const_node.html" target="_top" xlink:title="Tree.ConstNode">
<polygon fill="white" stroke="black" points="98,-0.5 98,-19.5 190,-19.5 190,-0.5 98,-0.5"/>
<text text-anchor="middle" x="144" y="-7.5" font-family="Helvetica,sans-Serif" font-size="10.00">Tree.ConstNode</text>
</a>
</g>
</g>
<!-- Node1&#45;&gt;Node3 -->
<g id="edge2" class="edge"><title>Node1&#45;&gt;Node3</title>
<path fill="none" stroke="midnightblue" d="M144,-45.8045C144,-36.9102 144,-26.7798 144,-19.7511"/>
<polygon fill="midnightblue" stroke="midnightblue" points="140.5,-46.083 144,-56.083 147.5,-46.083 140.5,-46.083"/>
</g>
<!-- Node4 -->
<g id="node4" class="node"><title>Node4</title>
<g id="a_node4"><a xlink:href="../../d6/d0f/class_tree_1_1_single_node.html" target="_top" xlink:title="Tree.SingleNode">
<polygon fill="white" stroke="black" points="208,-0.5 208,-19.5 302,-19.5 302,-0.5 208,-0.5"/>
<text text-anchor="middle" x="255" y="-7.5" font-family="Helvetica,sans-Serif" font-size="10.00">Tree.SingleNode</text>
</a>
</g>
</g>
<!-- Node1&#45;&gt;Node4 -->
<g id="edge3" class="edge"><title>Node1&#45;&gt;Node4</title>
<path fill="none" stroke="midnightblue" d="M171.005,-51.8622C191.588,-41.8492 219.345,-28.3458 237.21,-19.6545"/>
<polygon fill="midnightblue" stroke="midnightblue" points="169.295,-48.8019 161.834,-56.324 172.358,-55.0966 169.295,-48.8019"/>
</g>
</g>
</svg>
