<?xml version="1.0" encoding="UTF-8" standalone="no"?>
<!DOCTYPE svg PUBLIC "-//W3C//DTD SVG 1.1//EN"
 "http://www.w3.org/Graphics/SVG/1.1/DTD/svg11.dtd">
<!-- Generated by graphviz version 2.36.0 (20140111.2315)
 -->
<!-- Title: gui.View Pages: 1 -->
<svg width="170pt" height="106pt"
 viewBox="0.00 0.00 170.00 106.00" xmlns="http://www.w3.org/2000/svg" xmlns:xlink="http://www.w3.org/1999/xlink">
<g id="graph0" class="graph" transform="scale(1 1) rotate(0) translate(4 102)">
<title>gui.View</title>
<polygon fill="white" stroke="none" points="-4,4 -4,-102 166,-102 166,4 -4,4"/>
<!-- Node1 -->
<g id="node1" class="node"><title>Node1</title>
<polygon fill="#bfbfbf" stroke="black" points="33,-0.5 33,-19.5 89,-19.5 89,-0.5 33,-0.5"/>
<text text-anchor="middle" x="61" y="-7.5" font-family="Helvetica,sans-Serif" font-size="10.00">gui.View</text>
</g>
<!-- Node2 -->
<g id="node2" class="node"><title>Node2</title>
<polygon fill="white" stroke="#bfbfbf" points="0,-78.5 0,-97.5 52,-97.5 52,-78.5 0,-78.5"/>
<text text-anchor="middle" x="26" y="-85.5" font-family="Helvetica,sans-Serif" font-size="10.00">Canvas</text>
</g>
<!-- Node2&#45;&gt;Node1 -->
<g id="edge1" class="edge"><title>Node2&#45;&gt;Node1</title>
<path fill="none" stroke="midnightblue" d="M34.2335,-69.1216C41.4139,-53.5297 51.5195,-31.5862 57.0319,-19.6165"/>
<polygon fill="midnightblue" stroke="midnightblue" points="31.0189,-67.7347 30.0149,-78.2818 37.3771,-70.6628 31.0189,-67.7347"/>
</g>
<!-- Node3 -->
<g id="node3" class="node"><title>Node3</title>
<polygon fill="white" stroke="#bfbfbf" points="70,-78.5 70,-97.5 124,-97.5 124,-78.5 70,-78.5"/>
<text text-anchor="middle" x="97" y="-85.5" font-family="Helvetica,sans-Serif" font-size="10.00">Point2D</text>
</g>
<!-- Node3&#45;&gt;Node1 -->
<g id="edge2" class="edge"><title>Node3&#45;&gt;Node1</title>
<path fill="none" stroke="#9a32cd" stroke-dasharray="5,2" d="M88.5313,-69.1216C81.1457,-53.5297 70.7513,-31.5862 65.0815,-19.6165"/>
<polygon fill="#9a32cd" stroke="#9a32cd" points="85.4263,-70.7428 92.8703,-78.2818 91.7525,-67.7461 85.4263,-70.7428"/>
<text text-anchor="middle" x="122.5" y="-52" font-family="Helvetica,sans-Serif" font-size="10.00"> DEFAULT_POINT</text>
<text text-anchor="middle" x="122.5" y="-41" font-family="Helvetica,sans-Serif" font-size="10.00">newDest</text>
</g>
</g>
</svg>
