<?xml version="1.0" encoding="UTF-8" standalone="no"?>
<!DOCTYPE svg PUBLIC "-//W3C//DTD SVG 1.1//EN"
 "http://www.w3.org/Graphics/SVG/1.1/DTD/svg11.dtd">
<!-- Generated by graphviz version 2.36.0 (20140111.2315)
 -->
<!-- Title: configuration.ForParser.fetchNumericExpr Pages: 1 -->
<svg width="780pt" height="229pt"
 viewBox="0.00 0.00 780.00 229.00" xmlns="http://www.w3.org/2000/svg" xmlns:xlink="http://www.w3.org/1999/xlink">
<g id="graph0" class="graph" transform="scale(1 1) rotate(0) translate(4 225)">
<title>configuration.ForParser.fetchNumericExpr</title>
<polygon fill="white" stroke="none" points="-4,4 -4,-225 776,-225 776,4 -4,4"/>
<!-- Node1 -->
<g id="node1" class="node"><title>Node1</title>
<polygon fill="#bfbfbf" stroke="black" points="0.5,-63 0.5,-93 153.5,-93 153.5,-63 0.5,-63"/>
<text text-anchor="start" x="8.5" y="-81" font-family="Helvetica,sans-Serif" font-size="10.00">configuration.ForParser.fetch</text>
<text text-anchor="middle" x="77" y="-70" font-family="Helvetica,sans-Serif" font-size="10.00">NumericExpr</text>
</g>
<!-- Node2 -->
<g id="node2" class="node"><title>Node2</title>
<g id="a_node2"><a xlink:href="../../d9/d11/classconfiguration_1_1_parser.html#ae0480f44c9defa614fb470ab154fa60b" target="_top" xlink:title="configuration.Parser.buildTree">
<polygon fill="white" stroke="black" points="190,-106.5 190,-125.5 346,-125.5 346,-106.5 190,-106.5"/>
<text text-anchor="middle" x="268" y="-113.5" font-family="Helvetica,sans-Serif" font-size="10.00">configuration.Parser.buildTree</text>
</a>
</g>
</g>
<!-- Node1&#45;&gt;Node2 -->
<g id="edge1" class="edge"><title>Node1&#45;&gt;Node2</title>
<path fill="none" stroke="midnightblue" d="M152.698,-93.0186C171.675,-96.8342 191.769,-100.874 209.727,-104.485"/>
<polygon fill="midnightblue" stroke="midnightblue" points="209.252,-107.959 219.745,-106.499 210.632,-101.097 209.252,-107.959"/>
</g>
<!-- Node10 -->
<g id="node10" class="node"><title>Node10</title>
<g id="a_node10"><a xlink:href="../../d8/d4f/interface_tree_1_1_node.html#a83d55b41499cfcfd3607420eed42507c" target="_top" xlink:title="Tree.Node.getValue">
<polygon fill="white" stroke="black" points="213,-68.5 213,-87.5 323,-87.5 323,-68.5 213,-68.5"/>
<text text-anchor="middle" x="268" y="-75.5" font-family="Helvetica,sans-Serif" font-size="10.00">Tree.Node.getValue</text>
</a>
</g>
</g>
<!-- Node1&#45;&gt;Node10 -->
<g id="edge9" class="edge"><title>Node1&#45;&gt;Node10</title>
<path fill="none" stroke="midnightblue" d="M153.513,-78C169.791,-78 186.854,-78 202.659,-78"/>
<polygon fill="midnightblue" stroke="midnightblue" points="202.843,-81.5001 212.843,-78 202.843,-74.5001 202.843,-81.5001"/>
</g>
<!-- Node11 -->
<g id="node11" class="node"><title>Node11</title>
<g id="a_node11"><a xlink:href="../../d8/d4f/interface_tree_1_1_node.html#af71a5a5ffc67e8e90b1e8235efbd6a83" target="_top" xlink:title="Tree.Node.hasChild">
<polygon fill="white" stroke="black" points="214,-30.5 214,-49.5 322,-49.5 322,-30.5 214,-30.5"/>
<text text-anchor="middle" x="268" y="-37.5" font-family="Helvetica,sans-Serif" font-size="10.00">Tree.Node.hasChild</text>
</a>
</g>
</g>
<!-- Node1&#45;&gt;Node11 -->
<g id="edge10" class="edge"><title>Node1&#45;&gt;Node11</title>
<path fill="none" stroke="midnightblue" d="M152.698,-62.9814C171.675,-59.1658 191.769,-55.1259 209.727,-51.5152"/>
<polygon fill="midnightblue" stroke="midnightblue" points="210.632,-54.9035 219.745,-49.5009 209.252,-48.0408 210.632,-54.9035"/>
</g>
<!-- Node3 -->
<g id="node3" class="node"><title>Node3</title>
<g id="a_node3"><a xlink:href="../../d9/d11/classconfiguration_1_1_parser.html#a6a8ca49b46db578a3d9e84b0c4ce2f75" target="_top" xlink:title="configuration.Parser.isCommand">
<polygon fill="white" stroke="black" points="407,-201.5 407,-220.5 579,-220.5 579,-201.5 407,-201.5"/>
<text text-anchor="middle" x="493" y="-208.5" font-family="Helvetica,sans-Serif" font-size="10.00">configuration.Parser.isCommand</text>
</a>
</g>
</g>
<!-- Node2&#45;&gt;Node3 -->
<g id="edge2" class="edge"><title>Node2&#45;&gt;Node3</title>
<path fill="none" stroke="midnightblue" d="M279.951,-125.735C299.144,-142.22 340.749,-175.449 382,-192 388.677,-194.679 395.731,-196.981 402.913,-198.958"/>
<polygon fill="midnightblue" stroke="midnightblue" points="402.206,-202.39 412.76,-201.458 403.929,-195.605 402.206,-202.39"/>
</g>
<!-- Node4 -->
<g id="node4" class="node"><title>Node4</title>
<g id="a_node4"><a xlink:href="../../da/dde/classconfiguration_1_1_util.html#a55c271426926996186d1cde227ae7e23" target="_top" xlink:title="configuration.Util.findCommandKey">
<polygon fill="white" stroke="black" points="400.5,-163.5 400.5,-182.5 585.5,-182.5 585.5,-163.5 400.5,-163.5"/>
<text text-anchor="middle" x="493" y="-170.5" font-family="Helvetica,sans-Serif" font-size="10.00">configuration.Util.findCommandKey</text>
</a>
</g>
</g>
<!-- Node2&#45;&gt;Node4 -->
<g id="edge3" class="edge"><title>Node2&#45;&gt;Node4</title>
<path fill="none" stroke="midnightblue" d="M293.805,-125.568C316.483,-134.021 351.099,-146.185 382,-154 393.302,-156.859 405.367,-159.423 417.211,-161.673"/>
<polygon fill="midnightblue" stroke="midnightblue" points="416.619,-165.123 427.088,-163.489 417.885,-158.238 416.619,-165.123"/>
</g>
<!-- Node6 -->
<g id="node6" class="node"><title>Node6</title>
<g id="a_node6"><a xlink:href="../../d9/d11/classconfiguration_1_1_parser.html#af0032734232f2e6043d7c8c94d86dd1f" target="_top" xlink:title="configuration.Parser.isConstant">
<polygon fill="white" stroke="black" points="410.5,-125.5 410.5,-144.5 575.5,-144.5 575.5,-125.5 410.5,-125.5"/>
<text text-anchor="middle" x="493" y="-132.5" font-family="Helvetica,sans-Serif" font-size="10.00">configuration.Parser.isConstant</text>
</a>
</g>
</g>
<!-- Node2&#45;&gt;Node6 -->
<g id="edge5" class="edge"><title>Node2&#45;&gt;Node6</title>
<path fill="none" stroke="midnightblue" d="M346.056,-122.565C363.502,-124.052 382.195,-125.644 400.182,-127.177"/>
<polygon fill="midnightblue" stroke="midnightblue" points="400.121,-130.684 410.382,-128.046 400.715,-123.71 400.121,-130.684"/>
</g>
<!-- Node7 -->
<g id="node7" class="node"><title>Node7</title>
<g id="a_node7"><a xlink:href="../../d9/d11/classconfiguration_1_1_parser.html#a061c6e2e973a9e7f531931f61f45448b" target="_top" xlink:title="configuration.Parser.isVariable">
<polygon fill="white" stroke="black" points="413,-87.5 413,-106.5 573,-106.5 573,-87.5 413,-87.5"/>
<text text-anchor="middle" x="493" y="-94.5" font-family="Helvetica,sans-Serif" font-size="10.00">configuration.Parser.isVariable</text>
</a>
</g>
</g>
<!-- Node2&#45;&gt;Node7 -->
<g id="edge6" class="edge"><title>Node2&#45;&gt;Node7</title>
<path fill="none" stroke="midnightblue" d="M346.056,-109.435C364.304,-107.88 383.917,-106.209 402.66,-104.612"/>
<polygon fill="midnightblue" stroke="midnightblue" points="403.001,-108.096 412.668,-103.759 402.407,-101.121 403.001,-108.096"/>
</g>
<!-- Node8 -->
<g id="node8" class="node"><title>Node8</title>
<g id="a_node8"><a xlink:href="../../d0/d3b/classcommands_1_1_user_made_utilities.html#ad6e90d3cccee9da7cf3df2c13fc70381" target="_top" xlink:title="commands.UserMadeUtilities.containsVars">
<polygon fill="white" stroke="black" points="382,-49.5 382,-68.5 604,-68.5 604,-49.5 382,-49.5"/>
<text text-anchor="middle" x="493" y="-56.5" font-family="Helvetica,sans-Serif" font-size="10.00">commands.UserMadeUtilities.containsVars</text>
</a>
</g>
</g>
<!-- Node2&#45;&gt;Node8 -->
<g id="edge7" class="edge"><title>Node2&#45;&gt;Node8</title>
<path fill="none" stroke="midnightblue" d="M315.572,-106.447C325.744,-103.826 336.349,-100.674 346,-97 362.908,-90.563 364.875,-83.8339 382,-78 390.264,-75.1849 399.025,-72.7722 407.853,-70.7074"/>
<polygon fill="midnightblue" stroke="midnightblue" points="408.807,-74.0814 417.826,-68.5212 407.308,-67.2438 408.807,-74.0814"/>
</g>
<!-- Node9 -->
<g id="node9" class="node"><title>Node9</title>
<g id="a_node9"><a xlink:href="../../d0/d3b/classcommands_1_1_user_made_utilities.html#afc570f31a89922ff7a42f13839888c8f" target="_top" xlink:title="commands.UserMadeUtilities.get\lFromVars">
<polygon fill="white" stroke="black" points="405,-0 405,-30 581,-30 581,-0 405,-0"/>
<text text-anchor="start" x="413" y="-18" font-family="Helvetica,sans-Serif" font-size="10.00">commands.UserMadeUtilities.get</text>
<text text-anchor="middle" x="493" y="-7" font-family="Helvetica,sans-Serif" font-size="10.00">FromVars</text>
</a>
</g>
</g>
<!-- Node2&#45;&gt;Node9 -->
<g id="edge8" class="edge"><title>Node2&#45;&gt;Node9</title>
<path fill="none" stroke="midnightblue" d="M328.277,-106.409C334.581,-103.949 340.639,-100.865 346,-97 370.304,-79.476 357.535,-57.2991 382,-40 386.239,-37.0028 390.779,-34.3582 395.513,-32.0254"/>
<polygon fill="midnightblue" stroke="midnightblue" points="397.093,-35.1538 404.827,-27.9128 394.266,-28.7503 397.093,-35.1538"/>
</g>
<!-- Node5 -->
<g id="node5" class="node"><title>Node5</title>
<g id="a_node5"><a xlink:href="../../da/dde/classconfiguration_1_1_util.html#a163b0098613bf2f7becf27b131af3934" target="_top" xlink:title="configuration.Util.match">
<polygon fill="white" stroke="black" points="640.5,-163.5 640.5,-182.5 771.5,-182.5 771.5,-163.5 640.5,-163.5"/>
<text text-anchor="middle" x="706" y="-170.5" font-family="Helvetica,sans-Serif" font-size="10.00">configuration.Util.match</text>
</a>
</g>
</g>
<!-- Node4&#45;&gt;Node5 -->
<g id="edge4" class="edge"><title>Node4&#45;&gt;Node5</title>
<path fill="none" stroke="midnightblue" d="M585.627,-173C600.483,-173 615.713,-173 630.11,-173"/>
<polygon fill="midnightblue" stroke="midnightblue" points="630.429,-176.5 640.429,-173 630.429,-169.5 630.429,-176.5"/>
</g>
</g>
</svg>
