<?xml version="1.0" encoding="UTF-8" standalone="no"?>
<!DOCTYPE svg PUBLIC "-//W3C//DTD SVG 1.1//EN"
 "http://www.w3.org/Graphics/SVG/1.1/DTD/svg11.dtd">
<!-- Generated by graphviz version 2.36.0 (20140111.2315)
 -->
<!-- Title: configuration.ForParser.parseFor Pages: 1 -->
<svg width="798pt" height="275pt"
 viewBox="0.00 0.00 798.00 275.00" xmlns="http://www.w3.org/2000/svg" xmlns:xlink="http://www.w3.org/1999/xlink">
<g id="graph0" class="graph" transform="scale(1 1) rotate(0) translate(4 271)">
<title>configuration.ForParser.parseFor</title>
<polygon fill="white" stroke="none" points="-4,4 -4,-271 794,-271 794,4 -4,4"/>
<!-- Node1 -->
<g id="node1" class="node"><title>Node1</title>
<polygon fill="#bfbfbf" stroke="black" points="0.5,-76.5 0.5,-95.5 171.5,-95.5 171.5,-76.5 0.5,-76.5"/>
<text text-anchor="middle" x="86" y="-83.5" font-family="Helvetica,sans-Serif" font-size="10.00">configuration.ForParser.parseFor</text>
</g>
<!-- Node2 -->
<g id="node2" class="node"><title>Node2</title>
<g id="a_node2"><a xlink:href="../../d9/d11/classconfiguration_1_1_parser.html#ae0480f44c9defa614fb470ab154fa60b" target="_top" xlink:title="configuration.Parser.buildTree">
<polygon fill="white" stroke="black" points="208,-152.5 208,-171.5 364,-171.5 364,-152.5 208,-152.5"/>
<text text-anchor="middle" x="286" y="-159.5" font-family="Helvetica,sans-Serif" font-size="10.00">configuration.Parser.buildTree</text>
</a>
</g>
</g>
<!-- Node1&#45;&gt;Node2 -->
<g id="edge1" class="edge"><title>Node1&#45;&gt;Node2</title>
<path fill="none" stroke="midnightblue" d="M104.571,-95.638C127.708,-108.009 169.923,-129.484 208,-143 215.037,-145.498 222.549,-147.79 230.018,-149.852"/>
<polygon fill="midnightblue" stroke="midnightblue" points="229.206,-153.257 239.768,-152.427 230.994,-146.49 229.206,-153.257"/>
</g>
<!-- Node10 -->
<g id="node10" class="node"><title>Node10</title>
<g id="a_node10"><a xlink:href="../../d8/d4f/interface_tree_1_1_node.html#a83d55b41499cfcfd3607420eed42507c" target="_top" xlink:title="Tree.Node.getValue">
<polygon fill="white" stroke="black" points="231,-114.5 231,-133.5 341,-133.5 341,-114.5 231,-114.5"/>
<text text-anchor="middle" x="286" y="-121.5" font-family="Helvetica,sans-Serif" font-size="10.00">Tree.Node.getValue</text>
</a>
</g>
</g>
<!-- Node1&#45;&gt;Node10 -->
<g id="edge9" class="edge"><title>Node1&#45;&gt;Node10</title>
<path fill="none" stroke="midnightblue" d="M136.708,-95.54C163.541,-100.69 196.859,-107.084 225.113,-112.506"/>
<polygon fill="midnightblue" stroke="midnightblue" points="224.791,-116.009 235.271,-114.456 226.11,-109.134 224.791,-116.009"/>
</g>
<!-- Node11 -->
<g id="node11" class="node"><title>Node11</title>
<g id="a_node11"><a xlink:href="../../d9/d11/classconfiguration_1_1_parser.html#a07345acba63db50ec60293f2b38e54a6" target="_top" xlink:title="configuration.Parser.isEnd">
<polygon fill="white" stroke="black" points="216,-76.5 216,-95.5 356,-95.5 356,-76.5 216,-76.5"/>
<text text-anchor="middle" x="286" y="-83.5" font-family="Helvetica,sans-Serif" font-size="10.00">configuration.Parser.isEnd</text>
</a>
</g>
</g>
<!-- Node1&#45;&gt;Node11 -->
<g id="edge10" class="edge"><title>Node1&#45;&gt;Node11</title>
<path fill="none" stroke="midnightblue" d="M171.544,-86C182.891,-86 194.497,-86 205.748,-86"/>
<polygon fill="midnightblue" stroke="midnightblue" points="205.963,-89.5001 215.963,-86 205.963,-82.5001 205.963,-89.5001"/>
</g>
<!-- Node12 -->
<g id="node12" class="node"><title>Node12</title>
<g id="a_node12"><a xlink:href="../../d9/d11/classconfiguration_1_1_parser.html#a2d882145164d4ce98e9ac91b6000c2ab" target="_top" xlink:title="configuration.Parser.isListEnd">
<polygon fill="white" stroke="black" points="208,-38.5 208,-57.5 364,-57.5 364,-38.5 208,-38.5"/>
<text text-anchor="middle" x="286" y="-45.5" font-family="Helvetica,sans-Serif" font-size="10.00">configuration.Parser.isListEnd</text>
</a>
</g>
</g>
<!-- Node1&#45;&gt;Node12 -->
<g id="edge11" class="edge"><title>Node1&#45;&gt;Node12</title>
<path fill="none" stroke="midnightblue" d="M136.708,-76.46C163.541,-71.3104 196.859,-64.916 225.113,-59.4935"/>
<polygon fill="midnightblue" stroke="midnightblue" points="226.11,-62.866 235.271,-57.5439 224.791,-55.9915 226.11,-62.866"/>
</g>
<!-- Node13 -->
<g id="node13" class="node"><title>Node13</title>
<g id="a_node13"><a xlink:href="../../d9/d11/classconfiguration_1_1_parser.html#a0d2aa50e7ee2ec257e7030f716ab880e" target="_top" xlink:title="configuration.Parser.skip">
<polygon fill="white" stroke="black" points="219.5,-0.5 219.5,-19.5 352.5,-19.5 352.5,-0.5 219.5,-0.5"/>
<text text-anchor="middle" x="286" y="-7.5" font-family="Helvetica,sans-Serif" font-size="10.00">configuration.Parser.skip</text>
</a>
</g>
</g>
<!-- Node1&#45;&gt;Node13 -->
<g id="edge12" class="edge"><title>Node1&#45;&gt;Node13</title>
<path fill="none" stroke="midnightblue" d="M104.571,-76.362C127.708,-63.991 169.923,-42.5156 208,-29 215.037,-26.5021 222.549,-24.2098 230.018,-22.1481"/>
<polygon fill="midnightblue" stroke="midnightblue" points="230.994,-25.5104 239.768,-19.5728 229.206,-18.7425 230.994,-25.5104"/>
</g>
<!-- Node3 -->
<g id="node3" class="node"><title>Node3</title>
<g id="a_node3"><a xlink:href="../../d9/d11/classconfiguration_1_1_parser.html#a6a8ca49b46db578a3d9e84b0c4ce2f75" target="_top" xlink:title="configuration.Parser.isCommand">
<polygon fill="white" stroke="black" points="425,-247.5 425,-266.5 597,-266.5 597,-247.5 425,-247.5"/>
<text text-anchor="middle" x="511" y="-254.5" font-family="Helvetica,sans-Serif" font-size="10.00">configuration.Parser.isCommand</text>
</a>
</g>
</g>
<!-- Node2&#45;&gt;Node3 -->
<g id="edge2" class="edge"><title>Node2&#45;&gt;Node3</title>
<path fill="none" stroke="midnightblue" d="M297.951,-171.735C317.144,-188.22 358.749,-221.449 400,-238 406.677,-240.679 413.731,-242.981 420.913,-244.958"/>
<polygon fill="midnightblue" stroke="midnightblue" points="420.206,-248.39 430.76,-247.458 421.929,-241.605 420.206,-248.39"/>
</g>
<!-- Node4 -->
<g id="node4" class="node"><title>Node4</title>
<g id="a_node4"><a xlink:href="../../da/dde/classconfiguration_1_1_util.html#a55c271426926996186d1cde227ae7e23" target="_top" xlink:title="configuration.Util.findCommandKey">
<polygon fill="white" stroke="black" points="418.5,-209.5 418.5,-228.5 603.5,-228.5 603.5,-209.5 418.5,-209.5"/>
<text text-anchor="middle" x="511" y="-216.5" font-family="Helvetica,sans-Serif" font-size="10.00">configuration.Util.findCommandKey</text>
</a>
</g>
</g>
<!-- Node2&#45;&gt;Node4 -->
<g id="edge3" class="edge"><title>Node2&#45;&gt;Node4</title>
<path fill="none" stroke="midnightblue" d="M311.805,-171.568C334.483,-180.021 369.099,-192.185 400,-200 411.302,-202.859 423.367,-205.423 435.211,-207.673"/>
<polygon fill="midnightblue" stroke="midnightblue" points="434.619,-211.123 445.088,-209.489 435.885,-204.238 434.619,-211.123"/>
</g>
<!-- Node6 -->
<g id="node6" class="node"><title>Node6</title>
<g id="a_node6"><a xlink:href="../../d9/d11/classconfiguration_1_1_parser.html#af0032734232f2e6043d7c8c94d86dd1f" target="_top" xlink:title="configuration.Parser.isConstant">
<polygon fill="white" stroke="black" points="428.5,-171.5 428.5,-190.5 593.5,-190.5 593.5,-171.5 428.5,-171.5"/>
<text text-anchor="middle" x="511" y="-178.5" font-family="Helvetica,sans-Serif" font-size="10.00">configuration.Parser.isConstant</text>
</a>
</g>
</g>
<!-- Node2&#45;&gt;Node6 -->
<g id="edge5" class="edge"><title>Node2&#45;&gt;Node6</title>
<path fill="none" stroke="midnightblue" d="M364.056,-168.565C381.502,-170.052 400.195,-171.644 418.182,-173.177"/>
<polygon fill="midnightblue" stroke="midnightblue" points="418.121,-176.684 428.382,-174.046 418.715,-169.71 418.121,-176.684"/>
</g>
<!-- Node7 -->
<g id="node7" class="node"><title>Node7</title>
<g id="a_node7"><a xlink:href="../../d9/d11/classconfiguration_1_1_parser.html#a061c6e2e973a9e7f531931f61f45448b" target="_top" xlink:title="configuration.Parser.isVariable">
<polygon fill="white" stroke="black" points="431,-133.5 431,-152.5 591,-152.5 591,-133.5 431,-133.5"/>
<text text-anchor="middle" x="511" y="-140.5" font-family="Helvetica,sans-Serif" font-size="10.00">configuration.Parser.isVariable</text>
</a>
</g>
</g>
<!-- Node2&#45;&gt;Node7 -->
<g id="edge6" class="edge"><title>Node2&#45;&gt;Node7</title>
<path fill="none" stroke="midnightblue" d="M364.056,-155.435C382.304,-153.88 401.917,-152.209 420.66,-150.612"/>
<polygon fill="midnightblue" stroke="midnightblue" points="421.001,-154.096 430.668,-149.759 420.407,-147.121 421.001,-154.096"/>
</g>
<!-- Node8 -->
<g id="node8" class="node"><title>Node8</title>
<g id="a_node8"><a xlink:href="../../d0/d3b/classcommands_1_1_user_made_utilities.html#ad6e90d3cccee9da7cf3df2c13fc70381" target="_top" xlink:title="commands.UserMadeUtilities.containsVars">
<polygon fill="white" stroke="black" points="400,-95.5 400,-114.5 622,-114.5 622,-95.5 400,-95.5"/>
<text text-anchor="middle" x="511" y="-102.5" font-family="Helvetica,sans-Serif" font-size="10.00">commands.UserMadeUtilities.containsVars</text>
</a>
</g>
</g>
<!-- Node2&#45;&gt;Node8 -->
<g id="edge7" class="edge"><title>Node2&#45;&gt;Node8</title>
<path fill="none" stroke="midnightblue" d="M333.572,-152.447C343.744,-149.826 354.349,-146.674 364,-143 380.908,-136.563 382.875,-129.834 400,-124 408.264,-121.185 417.025,-118.772 425.853,-116.707"/>
<polygon fill="midnightblue" stroke="midnightblue" points="426.807,-120.081 435.826,-114.521 425.308,-113.244 426.807,-120.081"/>
</g>
<!-- Node9 -->
<g id="node9" class="node"><title>Node9</title>
<g id="a_node9"><a xlink:href="../../d0/d3b/classcommands_1_1_user_made_utilities.html#afc570f31a89922ff7a42f13839888c8f" target="_top" xlink:title="commands.UserMadeUtilities.get\lFromVars">
<polygon fill="white" stroke="black" points="423,-46 423,-76 599,-76 599,-46 423,-46"/>
<text text-anchor="start" x="431" y="-64" font-family="Helvetica,sans-Serif" font-size="10.00">commands.UserMadeUtilities.get</text>
<text text-anchor="middle" x="511" y="-53" font-family="Helvetica,sans-Serif" font-size="10.00">FromVars</text>
</a>
</g>
</g>
<!-- Node2&#45;&gt;Node9 -->
<g id="edge8" class="edge"><title>Node2&#45;&gt;Node9</title>
<path fill="none" stroke="midnightblue" d="M346.277,-152.409C352.581,-149.949 358.639,-146.865 364,-143 388.304,-125.476 375.535,-103.299 400,-86 404.239,-83.0028 408.779,-80.3582 413.513,-78.0254"/>
<polygon fill="midnightblue" stroke="midnightblue" points="415.093,-81.1538 422.827,-73.9128 412.266,-74.7503 415.093,-81.1538"/>
</g>
<!-- Node5 -->
<g id="node5" class="node"><title>Node5</title>
<g id="a_node5"><a xlink:href="../../da/dde/classconfiguration_1_1_util.html#a163b0098613bf2f7becf27b131af3934" target="_top" xlink:title="configuration.Util.match">
<polygon fill="white" stroke="black" points="658.5,-209.5 658.5,-228.5 789.5,-228.5 789.5,-209.5 658.5,-209.5"/>
<text text-anchor="middle" x="724" y="-216.5" font-family="Helvetica,sans-Serif" font-size="10.00">configuration.Util.match</text>
</a>
</g>
</g>
<!-- Node4&#45;&gt;Node5 -->
<g id="edge4" class="edge"><title>Node4&#45;&gt;Node5</title>
<path fill="none" stroke="midnightblue" d="M603.627,-219C618.483,-219 633.713,-219 648.11,-219"/>
<polygon fill="midnightblue" stroke="midnightblue" points="648.429,-222.5 658.429,-219 648.429,-215.5 648.429,-222.5"/>
</g>
</g>
</svg>
