<?xml version="1.0" encoding="UTF-8" standalone="no"?>
<!DOCTYPE svg PUBLIC "-//W3C//DTD SVG 1.1//EN"
 "http://www.w3.org/Graphics/SVG/1.1/DTD/svg11.dtd">
<!-- Generated by graphviz version 2.36.0 (20140111.2315)
 -->
<!-- Title: configuration.ForParser.main Pages: 1 -->
<svg width="552pt" height="99pt"
 viewBox="0.00 0.00 552.00 99.00" xmlns="http://www.w3.org/2000/svg" xmlns:xlink="http://www.w3.org/1999/xlink">
<g id="graph0" class="graph" transform="scale(1 1) rotate(0) translate(4 95)">
<title>configuration.ForParser.main</title>
<polygon fill="white" stroke="none" points="-4,4 -4,-95 548,-95 548,4 -4,4"/>
<!-- Node1 -->
<g id="node1" class="node"><title>Node1</title>
<polygon fill="#bfbfbf" stroke="black" points="0.5,-44.5 0.5,-63.5 153.5,-63.5 153.5,-44.5 0.5,-44.5"/>
<text text-anchor="middle" x="77" y="-51.5" font-family="Helvetica,sans-Serif" font-size="10.00">configuration.ForParser.main</text>
</g>
<!-- Node2 -->
<g id="node2" class="node"><title>Node2</title>
<g id="a_node2"><a xlink:href="../../dc/d64/classconfiguration_1_1_for_parser.html#a652da0541cb99f0a50d44d08e1757850" target="_top" xlink:title="configuration.ForParser.\lForParser">
<polygon fill="white" stroke="black" points="203.5,-61 203.5,-91 332.5,-91 332.5,-61 203.5,-61"/>
<text text-anchor="start" x="211.5" y="-79" font-family="Helvetica,sans-Serif" font-size="10.00">configuration.ForParser.</text>
<text text-anchor="middle" x="268" y="-68" font-family="Helvetica,sans-Serif" font-size="10.00">ForParser</text>
</a>
</g>
</g>
<!-- Node1&#45;&gt;Node2 -->
<g id="edge1" class="edge"><title>Node1&#45;&gt;Node2</title>
<path fill="none" stroke="midnightblue" d="M153.513,-62.7898C166.575,-64.3103 180.142,-65.8895 193.159,-67.4047"/>
<polygon fill="midnightblue" stroke="midnightblue" points="193.123,-70.9241 203.46,-68.6038 193.932,-63.971 193.123,-70.9241"/>
</g>
<!-- Node3 -->
<g id="node3" class="node"><title>Node3</title>
<g id="a_node3"><a xlink:href="../../dc/d64/classconfiguration_1_1_for_parser.html#a57f9ebf60e25c370f7ca73c0862f387a" target="_top" xlink:title="configuration.ForParser.parse">
<polygon fill="white" stroke="black" points="190,-22.5 190,-41.5 346,-41.5 346,-22.5 190,-22.5"/>
<text text-anchor="middle" x="268" y="-29.5" font-family="Helvetica,sans-Serif" font-size="10.00">configuration.ForParser.parse</text>
</a>
</g>
</g>
<!-- Node1&#45;&gt;Node3 -->
<g id="edge2" class="edge"><title>Node1&#45;&gt;Node3</title>
<path fill="none" stroke="midnightblue" d="M153.513,-45.2102C162.085,-44.2123 170.875,-43.1891 179.585,-42.1753"/>
<polygon fill="midnightblue" stroke="midnightblue" points="180.226,-45.6245 189.754,-40.9916 179.416,-38.6714 180.226,-45.6245"/>
</g>
<!-- Node4 -->
<g id="node4" class="node"><title>Node4</title>
<g id="a_node4"><a xlink:href="../../da/dde/classconfiguration_1_1_util.html#a535858cb955beeaeaa5e7eccfb71d4c1" target="_top" xlink:title="configuration.Util.toCommand\lQueue">
<polygon fill="white" stroke="black" points="382.5,-39 382.5,-69 543.5,-69 543.5,-39 382.5,-39"/>
<text text-anchor="start" x="390.5" y="-57" font-family="Helvetica,sans-Serif" font-size="10.00">configuration.Util.toCommand</text>
<text text-anchor="middle" x="463" y="-46" font-family="Helvetica,sans-Serif" font-size="10.00">Queue</text>
</a>
</g>
</g>
<!-- Node3&#45;&gt;Node4 -->
<g id="edge3" class="edge"><title>Node3&#45;&gt;Node4</title>
<path fill="none" stroke="midnightblue" d="M346.111,-40.7898C354.714,-41.7705 363.531,-42.7756 372.275,-43.7722"/>
<polygon fill="midnightblue" stroke="midnightblue" points="372.154,-47.2811 382.487,-44.9363 372.947,-40.3262 372.154,-47.2811"/>
</g>
<!-- Node5 -->
<g id="node5" class="node"><title>Node5</title>
<g id="a_node5"><a xlink:href="../../d9/d11/classconfiguration_1_1_parser.html#a0d2aa50e7ee2ec257e7030f716ab880e" target="_top" xlink:title="configuration.Parser.skip">
<polygon fill="white" stroke="black" points="396.5,-0.5 396.5,-19.5 529.5,-19.5 529.5,-0.5 396.5,-0.5"/>
<text text-anchor="middle" x="463" y="-7.5" font-family="Helvetica,sans-Serif" font-size="10.00">configuration.Parser.skip</text>
</a>
</g>
</g>
<!-- Node3&#45;&gt;Node5 -->
<g id="edge4" class="edge"><title>Node3&#45;&gt;Node5</title>
<path fill="none" stroke="midnightblue" d="M346.111,-23.2102C359.33,-21.7033 373.056,-20.1386 386.24,-18.6358"/>
<polygon fill="midnightblue" stroke="midnightblue" points="386.66,-22.1107 396.199,-17.5006 385.867,-15.1558 386.66,-22.1107"/>
</g>
</g>
</svg>
