<?xml version="1.0" encoding="UTF-8" standalone="no"?>
<!DOCTYPE svg PUBLIC "-//W3C//DTD SVG 1.1//EN"
 "http://www.w3.org/Graphics/SVG/1.1/DTD/svg11.dtd">
<!-- Generated by graphviz version 2.36.0 (20140111.2315)
 -->
<!-- Title: configuration.ForParser.parse Pages: 1 -->
<!--zoomable 394 -->
<svg id="main" version="1.1" xmlns="http://www.w3.org/2000/svg" xmlns:xlink="http://www.w3.org/1999/xlink" xml:space="preserve" onload="init(evt)">
<style type="text/css"><![CDATA[
.edge:hover path { stroke: red; }
.edge:hover polygon { stroke: red; fill: red; }
]]></style>
<script type="text/javascript"><![CDATA[
var edges = document.getElementsByTagName('g');
if (edges && edges.length) {
  for (var i=0;i<edges.length;i++) {
    if (edges[i].id.substr(0,4)=='edge') {
      edges[i].setAttribute('class','edge');
    }
  }
}
]]></script>
        <defs>
                <circle id="rim" cx="0" cy="0" r="7"/>
                <circle id="rim2" cx="0" cy="0" r="3.5"/>
                <g id="zoomPlus">
                        <use xlink:href="#rim" fill="#404040">
                                <set attributeName="fill" to="#808080" begin="zoomplus.mouseover" end="zoomplus.mouseout"/>
                        </use>
                        <path d="M-4,0h8M0,-4v8" fill="none" stroke="white" stroke-width="1.5" pointer-events="none"/>
                </g>
                <g id="zoomMin">
                        <use xlink:href="#rim" fill="#404040">
                                <set attributeName="fill" to="#808080" begin="zoomminus.mouseover" end="zoomminus.mouseout"/>
                        </use>
                        <path d="M-4,0h8" fill="none" stroke="white" stroke-width="1.5" pointer-events="none"/>
                </g>
                <g id="dirArrow">
                        <path fill="none" stroke="white" stroke-width="1.5" d="M0,-3.0v7 M-2.5,-0.5L0,-3.0L2.5,-0.5"/>
                </g>
               <g id="resetDef">
                       <use xlink:href="#rim2" fill="#404040">
                               <set attributeName="fill" to="#808080" begin="reset.mouseover" end="reset.mouseout"/>
                       </use>
               </g>
        </defs>

<script type="text/javascript">
var viewWidth = 974;
var viewHeight = 394;
var sectionId = 'dynsection-5';
</script>
<script xlink:href="../../svgpan.js"/>
<svg id="graph" class="graph">
<g id="viewport">
<title>configuration.ForParser.parse</title>
<polygon fill="white" stroke="none" points="-4,4 -4,-390 970,-390 970,4 -4,4"/>
<!-- Node1 -->
<g id="node1" class="node"><title>Node1</title>
<polygon fill="#bfbfbf" stroke="black" points="0,-107.5 0,-126.5 156,-126.5 156,-107.5 0,-107.5"/>
<text text-anchor="middle" x="78" y="-114.5" font-family="Helvetica,sans-Serif" font-size="10.00">configuration.ForParser.parse</text>
</g>
<!-- Node2 -->
<g id="node2" class="node"><title>Node2</title>
<g id="a_node2"><a xlink:href="../../dc/d64/classconfiguration_1_1_for_parser.html#a95aeb8afdb254389dcef062be1cf2727" target="_top" xlink:title="configuration.ForParser.fetch\lNumericExpr">
<polygon fill="white" stroke="black" points="193.5,-219 193.5,-249 346.5,-249 346.5,-219 193.5,-219"/>
<text text-anchor="start" x="201.5" y="-237" font-family="Helvetica,sans-Serif" font-size="10.00">configuration.ForParser.fetch</text>
<text text-anchor="middle" x="270" y="-226" font-family="Helvetica,sans-Serif" font-size="10.00">NumericExpr</text>
</a>
</g>
</g>
<!-- Node1&#45;&gt;Node2 -->
<g id="edge1" class="edge"><title>Node1&#45;&gt;Node2</title>
<path fill="none" stroke="midnightblue" d="M93.9218,-126.525C115.481,-140.253 156.638,-166.332 192,-188 205.809,-196.461 221.106,-205.64 234.403,-213.556"/>
<polygon fill="midnightblue" stroke="midnightblue" points="232.862,-216.711 243.246,-218.81 236.437,-210.693 232.862,-216.711"/>
</g>
<!-- Node8 -->
<g id="node8" class="node"><title>Node8</title>
<g id="a_node8"><a xlink:href="../../d9/d11/classconfiguration_1_1_parser.html#a061c6e2e973a9e7f531931f61f45448b" target="_top" xlink:title="configuration.Parser.isVariable">
<polygon fill="white" stroke="black" points="607,-164.5 607,-183.5 767,-183.5 767,-164.5 607,-164.5"/>
<text text-anchor="middle" x="687" y="-171.5" font-family="Helvetica,sans-Serif" font-size="10.00">configuration.Parser.isVariable</text>
</a>
</g>
</g>
<!-- Node1&#45;&gt;Node8 -->
<g id="edge15" class="edge"><title>Node1&#45;&gt;Node8</title>
<path fill="none" stroke="midnightblue" d="M101.012,-126.503C123.43,-135.675 159.427,-149.025 192,-155 331.767,-180.639 497.373,-181.062 596.936,-178.161"/>
<polygon fill="midnightblue" stroke="midnightblue" points="597.07,-181.658 606.957,-177.851 596.853,-174.662 597.07,-181.658"/>
</g>
<!-- Node13 -->
<g id="node13" class="node"><title>Node13</title>
<g id="a_node13"><a xlink:href="../../d9/d11/classconfiguration_1_1_parser.html#a07345acba63db50ec60293f2b38e54a6" target="_top" xlink:title="configuration.Parser.isEnd">
<polygon fill="white" stroke="black" points="200,-126.5 200,-145.5 340,-145.5 340,-126.5 200,-126.5"/>
<text text-anchor="middle" x="270" y="-133.5" font-family="Helvetica,sans-Serif" font-size="10.00">configuration.Parser.isEnd</text>
</a>
</g>
</g>
<!-- Node1&#45;&gt;Node13 -->
<g id="edge12" class="edge"><title>Node1&#45;&gt;Node13</title>
<path fill="none" stroke="midnightblue" d="M156.006,-124.701C167.111,-125.811 178.556,-126.956 189.705,-128.07"/>
<polygon fill="midnightblue" stroke="midnightblue" points="189.543,-131.572 199.841,-129.084 190.239,-124.606 189.543,-131.572"/>
</g>
<!-- Node14 -->
<g id="node14" class="node"><title>Node14</title>
<g id="a_node14"><a xlink:href="../../d9/d11/classconfiguration_1_1_parser.html#a2d882145164d4ce98e9ac91b6000c2ab" target="_top" xlink:title="configuration.Parser.isListEnd">
<polygon fill="white" stroke="black" points="192,-88.5 192,-107.5 348,-107.5 348,-88.5 192,-88.5"/>
<text text-anchor="middle" x="270" y="-95.5" font-family="Helvetica,sans-Serif" font-size="10.00">configuration.Parser.isListEnd</text>
</a>
</g>
</g>
<!-- Node1&#45;&gt;Node14 -->
<g id="edge13" class="edge"><title>Node1&#45;&gt;Node14</title>
<path fill="none" stroke="midnightblue" d="M156.006,-109.299C164.509,-108.449 173.211,-107.579 181.827,-106.717"/>
<polygon fill="midnightblue" stroke="midnightblue" points="182.282,-110.189 191.884,-105.712 181.585,-103.224 182.282,-110.189"/>
</g>
<!-- Node15 -->
<g id="node15" class="node"><title>Node15</title>
<g id="a_node15"><a xlink:href="../../d9/d11/classconfiguration_1_1_parser.html#a21cf49f5bc55db161bc1ac86153035a1" target="_top" xlink:title="configuration.Parser.isList\lStart">
<polygon fill="white" stroke="black" points="201,-39 201,-69 339,-69 339,-39 201,-39"/>
<text text-anchor="start" x="209" y="-57" font-family="Helvetica,sans-Serif" font-size="10.00">configuration.Parser.isList</text>
<text text-anchor="middle" x="270" y="-46" font-family="Helvetica,sans-Serif" font-size="10.00">Start</text>
</a>
</g>
</g>
<!-- Node1&#45;&gt;Node15 -->
<g id="edge14" class="edge"><title>Node1&#45;&gt;Node15</title>
<path fill="none" stroke="midnightblue" d="M107.301,-107.392C130.14,-99.6594 163.111,-88.5469 192,-79 198.545,-76.837 205.409,-74.5851 212.229,-72.3578"/>
<polygon fill="midnightblue" stroke="midnightblue" points="213.724,-75.5518 222.147,-69.1254 211.555,-68.8964 213.724,-75.5518"/>
</g>
<!-- Node16 -->
<g id="node16" class="node"><title>Node16</title>
<g id="a_node16"><a xlink:href="../../d9/d11/classconfiguration_1_1_parser.html#a0d2aa50e7ee2ec257e7030f716ab880e" target="_top" xlink:title="configuration.Parser.skip">
<polygon fill="white" stroke="black" points="203.5,-0.5 203.5,-19.5 336.5,-19.5 336.5,-0.5 203.5,-0.5"/>
<text text-anchor="middle" x="270" y="-7.5" font-family="Helvetica,sans-Serif" font-size="10.00">configuration.Parser.skip</text>
</a>
</g>
</g>
<!-- Node1&#45;&gt;Node16 -->
<g id="edge16" class="edge"><title>Node1&#45;&gt;Node16</title>
<path fill="none" stroke="midnightblue" d="M88.318,-107.441C106.524,-89.3289 148.825,-49.9512 192,-29 196.955,-26.5955 202.241,-24.4786 207.635,-22.618"/>
<polygon fill="midnightblue" stroke="midnightblue" points="208.923,-25.8818 217.41,-19.5391 206.82,-19.2051 208.923,-25.8818"/>
</g>
<!-- Node3 -->
<g id="node3" class="node"><title>Node3</title>
<g id="a_node3"><a xlink:href="../../d9/d11/classconfiguration_1_1_parser.html#ae0480f44c9defa614fb470ab154fa60b" target="_top" xlink:title="configuration.Parser.buildTree">
<polygon fill="white" stroke="black" points="384,-278.5 384,-297.5 540,-297.5 540,-278.5 384,-278.5"/>
<text text-anchor="middle" x="462" y="-285.5" font-family="Helvetica,sans-Serif" font-size="10.00">configuration.Parser.buildTree</text>
</a>
</g>
</g>
<!-- Node2&#45;&gt;Node3 -->
<g id="edge2" class="edge"><title>Node2&#45;&gt;Node3</title>
<path fill="none" stroke="midnightblue" d="M317.276,-249.003C337.657,-255.437 361.937,-262.867 384,-269 392.578,-271.385 401.736,-273.777 410.633,-276.021"/>
<polygon fill="midnightblue" stroke="midnightblue" points="409.973,-279.463 420.522,-278.483 411.664,-272.67 409.973,-279.463"/>
</g>
<!-- Node11 -->
<g id="node11" class="node"><title>Node11</title>
<g id="a_node11"><a xlink:href="../../d8/d4f/interface_tree_1_1_node.html#a83d55b41499cfcfd3607420eed42507c" target="_top" xlink:title="Tree.Node.getValue">
<polygon fill="white" stroke="black" points="407,-240.5 407,-259.5 517,-259.5 517,-240.5 407,-240.5"/>
<text text-anchor="middle" x="462" y="-247.5" font-family="Helvetica,sans-Serif" font-size="10.00">Tree.Node.getValue</text>
</a>
</g>
</g>
<!-- Node2&#45;&gt;Node11 -->
<g id="edge10" class="edge"><title>Node2&#45;&gt;Node11</title>
<path fill="none" stroke="midnightblue" d="M346.639,-240.37C363.193,-241.764 380.565,-243.227 396.63,-244.579"/>
<polygon fill="midnightblue" stroke="midnightblue" points="396.717,-248.099 406.976,-245.451 397.305,-241.124 396.717,-248.099"/>
</g>
<!-- Node12 -->
<g id="node12" class="node"><title>Node12</title>
<g id="a_node12"><a xlink:href="../../d8/d4f/interface_tree_1_1_node.html#af71a5a5ffc67e8e90b1e8235efbd6a83" target="_top" xlink:title="Tree.Node.hasChild">
<polygon fill="white" stroke="black" points="408,-202.5 408,-221.5 516,-221.5 516,-202.5 408,-202.5"/>
<text text-anchor="middle" x="462" y="-209.5" font-family="Helvetica,sans-Serif" font-size="10.00">Tree.Node.hasChild</text>
</a>
</g>
</g>
<!-- Node2&#45;&gt;Node12 -->
<g id="edge11" class="edge"><title>Node2&#45;&gt;Node12</title>
<path fill="none" stroke="midnightblue" d="M346.639,-225.242C363.607,-223.277 381.437,-221.213 397.835,-219.314"/>
<polygon fill="midnightblue" stroke="midnightblue" points="398.309,-222.782 407.84,-218.155 397.503,-215.829 398.309,-222.782"/>
</g>
<!-- Node4 -->
<g id="node4" class="node"><title>Node4</title>
<g id="a_node4"><a xlink:href="../../d9/d11/classconfiguration_1_1_parser.html#a6a8ca49b46db578a3d9e84b0c4ce2f75" target="_top" xlink:title="configuration.Parser.isCommand">
<polygon fill="white" stroke="black" points="601,-366.5 601,-385.5 773,-385.5 773,-366.5 601,-366.5"/>
<text text-anchor="middle" x="687" y="-373.5" font-family="Helvetica,sans-Serif" font-size="10.00">configuration.Parser.isCommand</text>
</a>
</g>
</g>
<!-- Node3&#45;&gt;Node4 -->
<g id="edge3" class="edge"><title>Node3&#45;&gt;Node4</title>
<path fill="none" stroke="midnightblue" d="M475.069,-297.525C494.909,-312.665 536.196,-342.035 576,-357 583.27,-359.733 590.96,-362.077 598.76,-364.085"/>
<polygon fill="midnightblue" stroke="midnightblue" points="598.136,-367.534 608.676,-366.454 599.763,-360.726 598.136,-367.534"/>
</g>
<!-- Node5 -->
<g id="node5" class="node"><title>Node5</title>
<g id="a_node5"><a xlink:href="../../da/dde/classconfiguration_1_1_util.html#a55c271426926996186d1cde227ae7e23" target="_top" xlink:title="configuration.Util.findCommandKey">
<polygon fill="white" stroke="black" points="594.5,-328.5 594.5,-347.5 779.5,-347.5 779.5,-328.5 594.5,-328.5"/>
<text text-anchor="middle" x="687" y="-335.5" font-family="Helvetica,sans-Serif" font-size="10.00">configuration.Util.findCommandKey</text>
</a>
</g>
</g>
<!-- Node3&#45;&gt;Node5 -->
<g id="edge4" class="edge"><title>Node3&#45;&gt;Node5</title>
<path fill="none" stroke="midnightblue" d="M494.456,-297.509C517.013,-304.111 548.203,-312.802 576,-319 588.388,-321.762 601.637,-324.355 614.496,-326.684"/>
<polygon fill="midnightblue" stroke="midnightblue" points="614.243,-330.193 624.7,-328.493 615.465,-323.301 614.243,-330.193"/>
</g>
<!-- Node7 -->
<g id="node7" class="node"><title>Node7</title>
<g id="a_node7"><a xlink:href="../../d9/d11/classconfiguration_1_1_parser.html#af0032734232f2e6043d7c8c94d86dd1f" target="_top" xlink:title="configuration.Parser.isConstant">
<polygon fill="white" stroke="black" points="604.5,-290.5 604.5,-309.5 769.5,-309.5 769.5,-290.5 604.5,-290.5"/>
<text text-anchor="middle" x="687" y="-297.5" font-family="Helvetica,sans-Serif" font-size="10.00">configuration.Parser.isConstant</text>
</a>
</g>
</g>
<!-- Node3&#45;&gt;Node7 -->
<g id="edge6" class="edge"><title>Node3&#45;&gt;Node7</title>
<path fill="none" stroke="midnightblue" d="M540.056,-292.147C557.502,-293.085 576.195,-294.091 594.182,-295.059"/>
<polygon fill="midnightblue" stroke="midnightblue" points="594.208,-298.565 604.382,-295.608 594.584,-291.576 594.208,-298.565"/>
</g>
<!-- Node3&#45;&gt;Node8 -->
<g id="edge7" class="edge"><title>Node3&#45;&gt;Node8</title>
<path fill="none" stroke="midnightblue" d="M524.286,-278.354C529.939,-275.891 535.299,-272.822 540,-269 568.69,-245.676 546.6,-216.422 576,-194 582.348,-189.158 589.497,-185.356 597.024,-182.384"/>
<polygon fill="midnightblue" stroke="midnightblue" points="598.409,-185.609 606.729,-179.049 596.134,-178.989 598.409,-185.609"/>
</g>
<!-- Node9 -->
<g id="node9" class="node"><title>Node9</title>
<g id="a_node9"><a xlink:href="../../d0/d3b/classcommands_1_1_user_made_utilities.html#ad6e90d3cccee9da7cf3df2c13fc70381" target="_top" xlink:title="commands.UserMadeUtilities.containsVars">
<polygon fill="white" stroke="black" points="576,-252.5 576,-271.5 798,-271.5 798,-252.5 576,-252.5"/>
<text text-anchor="middle" x="687" y="-259.5" font-family="Helvetica,sans-Serif" font-size="10.00">commands.UserMadeUtilities.containsVars</text>
</a>
</g>
</g>
<!-- Node3&#45;&gt;Node9 -->
<g id="edge8" class="edge"><title>Node3&#45;&gt;Node9</title>
<path fill="none" stroke="midnightblue" d="M540.056,-279.016C557.583,-276.972 576.369,-274.782 594.433,-272.676"/>
<polygon fill="midnightblue" stroke="midnightblue" points="594.854,-276.151 604.382,-271.516 594.044,-269.198 594.854,-276.151"/>
</g>
<!-- Node10 -->
<g id="node10" class="node"><title>Node10</title>
<g id="a_node10"><a xlink:href="../../d0/d3b/classcommands_1_1_user_made_utilities.html#afc570f31a89922ff7a42f13839888c8f" target="_top" xlink:title="commands.UserMadeUtilities.get\lFromVars">
<polygon fill="white" stroke="black" points="599,-203 599,-233 775,-233 775,-203 599,-203"/>
<text text-anchor="start" x="607" y="-221" font-family="Helvetica,sans-Serif" font-size="10.00">commands.UserMadeUtilities.get</text>
<text text-anchor="middle" x="687" y="-210" font-family="Helvetica,sans-Serif" font-size="10.00">FromVars</text>
</a>
</g>
</g>
<!-- Node3&#45;&gt;Node10 -->
<g id="edge9" class="edge"><title>Node3&#45;&gt;Node10</title>
<path fill="none" stroke="midnightblue" d="M513.658,-278.448C522.642,-275.932 531.754,-272.819 540,-269 557.909,-260.706 558.015,-251.128 576,-243 581.622,-240.459 587.525,-238.165 593.556,-236.096"/>
<polygon fill="midnightblue" stroke="midnightblue" points="594.666,-239.416 603.116,-233.025 592.525,-232.751 594.666,-239.416"/>
</g>
<!-- Node6 -->
<g id="node6" class="node"><title>Node6</title>
<g id="a_node6"><a xlink:href="../../da/dde/classconfiguration_1_1_util.html#a163b0098613bf2f7becf27b131af3934" target="_top" xlink:title="configuration.Util.match">
<polygon fill="white" stroke="black" points="834.5,-328.5 834.5,-347.5 965.5,-347.5 965.5,-328.5 834.5,-328.5"/>
<text text-anchor="middle" x="900" y="-335.5" font-family="Helvetica,sans-Serif" font-size="10.00">configuration.Util.match</text>
</a>
</g>
</g>
<!-- Node5&#45;&gt;Node6 -->
<g id="edge5" class="edge"><title>Node5&#45;&gt;Node6</title>
<path fill="none" stroke="midnightblue" d="M779.627,-338C794.483,-338 809.713,-338 824.11,-338"/>
<polygon fill="midnightblue" stroke="midnightblue" points="824.429,-341.5 834.429,-338 824.429,-334.5 824.429,-341.5"/>
</g>
</g>
</svg>
        <g id="navigator" transform="translate(0 0)" fill="#404254">
                <rect fill="#f2f5e9" fill-opacity="0.5" stroke="#606060" stroke-width=".5" x="0" y="0" width="60" height="60"/>
                <use id="zoomplus" xlink:href="#zoomPlus" x="17" y="9" onmousedown="handleZoom(evt,'in')"/>
                <use id="zoomminus" xlink:href="#zoomMin" x="42" y="9" onmousedown="handleZoom(evt,'out')"/>
                <use id="reset" xlink:href="#resetDef" x="30" y="36" onmousedown="handleReset()"/>
                <g id="arrowUp" xlink:href="#dirArrow" transform="translate(30 24)" onmousedown="handlePan(0,-1)">
                  <use xlink:href="#rim" fill="#404040">
                        <set attributeName="fill" to="#808080" begin="arrowUp.mouseover" end="arrowUp.mouseout"/>
                  </use>
                  <path fill="none" stroke="white" stroke-width="1.5" d="M0,-3.0v7 M-2.5,-0.5L0,-3.0L2.5,-0.5"/>
                </g>
                <g id="arrowRight" xlink:href="#dirArrow" transform="rotate(90) translate(36 -43)" onmousedown="handlePan(1,0)">
                  <use xlink:href="#rim" fill="#404040">
                        <set attributeName="fill" to="#808080" begin="arrowRight.mouseover" end="arrowRight.mouseout"/>
                  </use>
                  <path fill="none" stroke="white" stroke-width="1.5" d="M0,-3.0v7 M-2.5,-0.5L0,-3.0L2.5,-0.5"/>
                </g>
                <g id="arrowDown" xlink:href="#dirArrow" transform="rotate(180) translate(-30 -48)" onmousedown="handlePan(0,1)">
                  <use xlink:href="#rim" fill="#404040">
                        <set attributeName="fill" to="#808080" begin="arrowDown.mouseover" end="arrowDown.mouseout"/>
                  </use>
                  <path fill="none" stroke="white" stroke-width="1.5" d="M0,-3.0v7 M-2.5,-0.5L0,-3.0L2.5,-0.5"/>
                </g>
                <g id="arrowLeft" xlink:href="#dirArrow" transform="rotate(270) translate(-36 17)" onmousedown="handlePan(-1,0)">
                  <use xlink:href="#rim" fill="#404040">
                        <set attributeName="fill" to="#808080" begin="arrowLeft.mouseover" end="arrowLeft.mouseout"/>
                  </use>
                  <path fill="none" stroke="white" stroke-width="1.5" d="M0,-3.0v7 M-2.5,-0.5L0,-3.0L2.5,-0.5"/>
                </g>
        </g>
        <svg viewBox="0 0 15 15" width="100%" height="30px" preserveAspectRatio="xMaxYMin meet">
         <g id="arrow_out" transform="scale(0.3 0.3)">
          <a xlink:href="classconfiguration_1_1_for_parser_a2737b422e279cfca7c64fd8eff57d3ff_cgraph_org.svg" target="_base">
           <rect id="button" ry="5" rx="5" y="6" x="6" height="38" width="38"
                fill="#f2f5e9" fill-opacity="0.5" stroke="#606060" stroke-width="1.0"/>
           <path id="arrow"
             d="M 11.500037,31.436501 C 11.940474,20.09759 22.043105,11.32322 32.158766,21.979434 L 37.068811,17.246167 C 37.068811,17.246167 37.088388,32 37.088388,32 L 22.160133,31.978069 C 22.160133,31.978069 26.997745,27.140456 26.997745,27.140456 C 18.528582,18.264221 13.291696,25.230495 11.500037,31.436501 z"
             style="fill:#404040;"/>
          </a>
         </g>
        </svg>
</svg>
