<?xml version="1.0" encoding="UTF-8" standalone="no"?>
<!DOCTYPE svg PUBLIC "-//W3C//DTD SVG 1.1//EN"
 "http://www.w3.org/Graphics/SVG/1.1/DTD/svg11.dtd">
<!-- Generated by graphviz version 2.36.0 (20140111.2315)
 -->
<!-- Title: configuration.ForParser.parse Pages: 1 -->
<!--zoomable 406 -->
<svg id="main" version="1.1" xmlns="http://www.w3.org/2000/svg" xmlns:xlink="http://www.w3.org/1999/xlink" xml:space="preserve" onload="init(evt)">
<style type="text/css"><![CDATA[
.edge:hover path { stroke: red; }
.edge:hover polygon { stroke: red; fill: red; }
]]></style>
<script type="text/javascript"><![CDATA[
var edges = document.getElementsByTagName('g');
if (edges && edges.length) {
  for (var i=0;i<edges.length;i++) {
    if (edges[i].id.substr(0,4)=='edge') {
      edges[i].setAttribute('class','edge');
    }
  }
}
]]></script>
        <defs>
                <circle id="rim" cx="0" cy="0" r="7"/>
                <circle id="rim2" cx="0" cy="0" r="3.5"/>
                <g id="zoomPlus">
                        <use xlink:href="#rim" fill="#404040">
                                <set attributeName="fill" to="#808080" begin="zoomplus.mouseover" end="zoomplus.mouseout"/>
                        </use>
                        <path d="M-4,0h8M0,-4v8" fill="none" stroke="white" stroke-width="1.5" pointer-events="none"/>
                </g>
                <g id="zoomMin">
                        <use xlink:href="#rim" fill="#404040">
                                <set attributeName="fill" to="#808080" begin="zoomminus.mouseover" end="zoomminus.mouseout"/>
                        </use>
                        <path d="M-4,0h8" fill="none" stroke="white" stroke-width="1.5" pointer-events="none"/>
                </g>
                <g id="dirArrow">
                        <path fill="none" stroke="white" stroke-width="1.5" d="M0,-3.0v7 M-2.5,-0.5L0,-3.0L2.5,-0.5"/>
                </g>
               <g id="resetDef">
                       <use xlink:href="#rim2" fill="#404040">
                               <set attributeName="fill" to="#808080" begin="reset.mouseover" end="reset.mouseout"/>
                       </use>
               </g>
        </defs>

<script type="text/javascript">
var viewWidth = 1182;
var viewHeight = 406;
var sectionId = 'dynsection-5';
</script>
<script xlink:href="../../svgpan.js"/>
<svg id="graph" class="graph">
<g id="viewport">
<title>configuration.ForParser.parse</title>
<polygon fill="white" stroke="none" points="-4,4 -4,-402.414 1178,-402.414 1178,4 -4,4"/>
<!-- Node1 -->
<g id="node1" class="node"><title>Node1</title>
<polygon fill="#bfbfbf" stroke="black" points="0,-135.808 0,-154.808 156,-154.808 156,-135.808 0,-135.808"/>
<text text-anchor="middle" x="78" y="-142.808" font-family="Helvetica,sans-Serif" font-size="10.00">configuration.ForParser.parse</text>
</g>
<!-- Node2 -->
<g id="node2" class="node"><title>Node2</title>
<g id="a_node2"><a xlink:href="../../dc/d64/classconfiguration_1_1_for_parser.html#a95aeb8afdb254389dcef062be1cf2727" target="_top" xlink:title="configuration.ForParser.fetch\lNumericExpr">
<polygon fill="white" stroke="black" points="393.5,-288.308 393.5,-318.308 546.5,-318.308 546.5,-288.308 393.5,-288.308"/>
<text text-anchor="start" x="401.5" y="-306.308" font-family="Helvetica,sans-Serif" font-size="10.00">configuration.ForParser.fetch</text>
<text text-anchor="middle" x="470" y="-295.308" font-family="Helvetica,sans-Serif" font-size="10.00">NumericExpr</text>
</a>
</g>
</g>
<!-- Node1&#45;&gt;Node2 -->
<g id="edge1" class="edge"><title>Node1&#45;&gt;Node2</title>
<path fill="none" stroke="midnightblue" d="M84.0421,-154.837C97.6473,-179.459 137.772,-245.234 192,-273.308 250.86,-303.781 326.068,-310.228 383.261,-309.638"/>
<polygon fill="midnightblue" stroke="midnightblue" points="383.424,-313.136 393.36,-309.459 383.3,-306.137 383.424,-313.136"/>
</g>
<!-- Node8 -->
<g id="node8" class="node"><title>Node8</title>
<g id="a_node8"><a xlink:href="../../d9/d11/classconfiguration_1_1_parser.html#a061c6e2e973a9e7f531931f61f45448b" target="_top" xlink:title="configuration.Parser.isVariable">
<polygon fill="white" stroke="black" points="815,-361.808 815,-380.808 975,-380.808 975,-361.808 815,-361.808"/>
<text text-anchor="middle" x="895" y="-368.808" font-family="Helvetica,sans-Serif" font-size="10.00">configuration.Parser.isVariable</text>
</a>
</g>
</g>
<!-- Node1&#45;&gt;Node8 -->
<g id="edge14" class="edge"><title>Node1&#45;&gt;Node8</title>
<path fill="none" stroke="midnightblue" d="M82.5527,-154.937C93.6378,-183.463 130.568,-267.811 192,-304.308 397.727,-426.533 698.529,-401.177 829.3,-382.347"/>
<polygon fill="midnightblue" stroke="midnightblue" points="830.164,-385.758 839.545,-380.835 829.142,-378.833 830.164,-385.758"/>
</g>
<!-- Node12 -->
<g id="node12" class="node"><title>Node12</title>
<g id="a_node12"><a xlink:href="../../d9/d11/classconfiguration_1_1_parser.html#a07345acba63db50ec60293f2b38e54a6" target="_top" xlink:title="configuration.Parser.isEnd">
<polygon fill="white" stroke="black" points="600,-203.808 600,-222.808 740,-222.808 740,-203.808 600,-203.808"/>
<text text-anchor="middle" x="670" y="-210.808" font-family="Helvetica,sans-Serif" font-size="10.00">configuration.Parser.isEnd</text>
</a>
</g>
</g>
<!-- Node1&#45;&gt;Node12 -->
<g id="edge11" class="edge"><title>Node1&#45;&gt;Node12</title>
<path fill="none" stroke="midnightblue" d="M101.401,-154.871C151.111,-175.511 274.889,-223.709 384,-240.308 459.575,-251.806 480.081,-249.253 556,-240.308 559.405,-239.907 591.07,-232.316 620.015,-225.285"/>
<polygon fill="midnightblue" stroke="midnightblue" points="621.2,-228.599 630.089,-222.834 619.545,-221.797 621.2,-228.599"/>
</g>
<!-- Node13 -->
<g id="node13" class="node"><title>Node13</title>
<g id="a_node13"><a xlink:href="../../d9/d11/classconfiguration_1_1_parser.html#a2d882145164d4ce98e9ac91b6000c2ab" target="_top" xlink:title="configuration.Parser.isListEnd">
<polygon fill="white" stroke="black" points="592,-135.808 592,-154.808 748,-154.808 748,-135.808 592,-135.808"/>
<text text-anchor="middle" x="670" y="-142.808" font-family="Helvetica,sans-Serif" font-size="10.00">configuration.Parser.isListEnd</text>
</a>
</g>
</g>
<!-- Node1&#45;&gt;Node13 -->
<g id="edge12" class="edge"><title>Node1&#45;&gt;Node13</title>
<path fill="none" stroke="midnightblue" d="M94.1457,-135.693C115.307,-122.632 155.262,-99.3088 192,-85.3084 274.094,-54.0237 296.779,-48.8286 384,-38.3084 459.894,-29.1544 492.532,4.30093 556,-38.3084 591.084,-61.8622 560.014,-98.6933 592,-126.308 593.961,-128.001 596.049,-129.548 598.236,-130.96"/>
<polygon fill="midnightblue" stroke="midnightblue" points="596.637,-134.075 607.095,-135.772 599.978,-127.924 596.637,-134.075"/>
</g>
<!-- Node14 -->
<g id="node14" class="node"><title>Node14</title>
<g id="a_node14"><a xlink:href="../../d9/d11/classconfiguration_1_1_parser.html#a21cf49f5bc55db161bc1ac86153035a1" target="_top" xlink:title="configuration.Parser.isList\lStart">
<polygon fill="white" stroke="black" points="401,-48.3084 401,-78.3084 539,-78.3084 539,-48.3084 401,-48.3084"/>
<text text-anchor="start" x="409" y="-66.3084" font-family="Helvetica,sans-Serif" font-size="10.00">configuration.Parser.isList</text>
<text text-anchor="middle" x="470" y="-55.3084" font-family="Helvetica,sans-Serif" font-size="10.00">Start</text>
</a>
</g>
</g>
<!-- Node1&#45;&gt;Node14 -->
<g id="edge13" class="edge"><title>Node1&#45;&gt;Node14</title>
<path fill="none" stroke="midnightblue" d="M121.359,-135.781C142.556,-131.054 168.617,-125.301 192,-120.308 259.013,-106.002 335.286,-90.3531 390.806,-79.0779"/>
<polygon fill="midnightblue" stroke="midnightblue" points="391.82,-82.4436 400.924,-77.0248 390.428,-75.5834 391.82,-82.4436"/>
</g>
<!-- Node15 -->
<g id="node15" class="node"><title>Node15</title>
<g id="a_node15"><a xlink:href="../../dc/d64/classconfiguration_1_1_for_parser.html#ad3cb5184cf449bd3414f3ba73a8b3104" target="_top" xlink:title="configuration.ForParser.parse\lCommands">
<polygon fill="white" stroke="black" points="192,-130.308 192,-160.308 348,-160.308 348,-130.308 192,-130.308"/>
<text text-anchor="start" x="200" y="-148.308" font-family="Helvetica,sans-Serif" font-size="10.00">configuration.ForParser.parse</text>
<text text-anchor="middle" x="270" y="-137.308" font-family="Helvetica,sans-Serif" font-size="10.00">Commands</text>
</a>
</g>
</g>
<!-- Node1&#45;&gt;Node15 -->
<g id="edge15" class="edge"><title>Node1&#45;&gt;Node15</title>
<path fill="none" stroke="midnightblue" d="M156.006,-145.308C164.509,-145.308 173.211,-145.308 181.827,-145.308"/>
<polygon fill="midnightblue" stroke="midnightblue" points="181.884,-148.809 191.884,-145.308 181.884,-141.809 181.884,-148.809"/>
</g>
<!-- Node16 -->
<g id="node16" class="node"><title>Node16</title>
<g id="a_node16"><a xlink:href="../../d9/d11/classconfiguration_1_1_parser.html#a0d2aa50e7ee2ec257e7030f716ab880e" target="_top" xlink:title="configuration.Parser.skip">
<polygon fill="white" stroke="black" points="603.5,-97.8084 603.5,-116.808 736.5,-116.808 736.5,-97.8084 603.5,-97.8084"/>
<text text-anchor="middle" x="670" y="-104.808" font-family="Helvetica,sans-Serif" font-size="10.00">configuration.Parser.skip</text>
</a>
</g>
</g>
<!-- Node1&#45;&gt;Node16 -->
<g id="edge26" class="edge"><title>Node1&#45;&gt;Node16</title>
<path fill="none" stroke="midnightblue" d="M85.8821,-135.628C101.776,-114.116 143.42,-62.4183 192,-39.3084 269.762,-2.31682 298.083,-19.0993 384,-13.3084 460.271,-8.16769 484.11,12.6839 556,-13.3084 598.133,-28.5421 635.625,-67.0936 655.023,-89.8141"/>
<polygon fill="midnightblue" stroke="midnightblue" points="652.463,-92.2087 661.544,-97.6651 657.847,-87.7362 652.463,-92.2087"/>
</g>
<!-- Node3 -->
<g id="node3" class="node"><title>Node3</title>
<g id="a_node3"><a xlink:href="../../d9/d11/classconfiguration_1_1_parser.html#ae0480f44c9defa614fb470ab154fa60b" target="_top" xlink:title="configuration.Parser.buildTree">
<polygon fill="white" stroke="black" points="592,-279.808 592,-298.808 748,-298.808 748,-279.808 592,-279.808"/>
<text text-anchor="middle" x="670" y="-286.808" font-family="Helvetica,sans-Serif" font-size="10.00">configuration.Parser.buildTree</text>
</a>
</g>
</g>
<!-- Node2&#45;&gt;Node3 -->
<g id="edge2" class="edge"><title>Node2&#45;&gt;Node3</title>
<path fill="none" stroke="midnightblue" d="M546.703,-297.956C558.102,-297.15 569.938,-296.313 581.559,-295.491"/>
<polygon fill="midnightblue" stroke="midnightblue" points="581.971,-298.971 591.699,-294.774 581.477,-291.988 581.971,-298.971"/>
</g>
<!-- Node11 -->
<g id="node11" class="node"><title>Node11</title>
<g id="a_node11"><a xlink:href="../../d8/d4f/interface_tree_1_1_node.html#a83d55b41499cfcfd3607420eed42507c" target="_top" xlink:title="Tree.Node.getValue">
<polygon fill="white" stroke="black" points="615,-241.808 615,-260.808 725,-260.808 725,-241.808 615,-241.808"/>
<text text-anchor="middle" x="670" y="-248.808" font-family="Helvetica,sans-Serif" font-size="10.00">Tree.Node.getValue</text>
</a>
</g>
</g>
<!-- Node2&#45;&gt;Node11 -->
<g id="edge10" class="edge"><title>Node2&#45;&gt;Node11</title>
<path fill="none" stroke="midnightblue" d="M525.135,-288.242C546.003,-282.514 570.082,-276.001 592,-270.308 600.906,-267.996 610.41,-265.595 619.592,-263.311"/>
<polygon fill="midnightblue" stroke="midnightblue" points="620.519,-266.687 629.386,-260.888 618.838,-259.892 620.519,-266.687"/>
</g>
<!-- Node4 -->
<g id="node4" class="node"><title>Node4</title>
<g id="a_node4"><a xlink:href="../../d9/d11/classconfiguration_1_1_parser.html#a6a8ca49b46db578a3d9e84b0c4ce2f75" target="_top" xlink:title="configuration.Parser.isCommand">
<polygon fill="white" stroke="black" points="809,-235.808 809,-254.808 981,-254.808 981,-235.808 809,-235.808"/>
<text text-anchor="middle" x="895" y="-242.808" font-family="Helvetica,sans-Serif" font-size="10.00">configuration.Parser.isCommand</text>
</a>
</g>
</g>
<!-- Node3&#45;&gt;Node4 -->
<g id="edge3" class="edge"><title>Node3&#45;&gt;Node4</title>
<path fill="none" stroke="midnightblue" d="M714.403,-279.778C735.396,-275.248 760.978,-269.845 784,-265.308 798.777,-262.396 814.702,-259.412 829.721,-256.667"/>
<polygon fill="midnightblue" stroke="midnightblue" points="830.736,-260.04 839.949,-254.809 829.485,-253.153 830.736,-260.04"/>
</g>
<!-- Node5 -->
<g id="node5" class="node"><title>Node5</title>
<g id="a_node5"><a xlink:href="../../da/dde/classconfiguration_1_1_util.html#a55c271426926996186d1cde227ae7e23" target="_top" xlink:title="configuration.Util.findCommandKey">
<polygon fill="white" stroke="black" points="802.5,-197.808 802.5,-216.808 987.5,-216.808 987.5,-197.808 802.5,-197.808"/>
<text text-anchor="middle" x="895" y="-204.808" font-family="Helvetica,sans-Serif" font-size="10.00">configuration.Util.findCommandKey</text>
</a>
</g>
</g>
<!-- Node3&#45;&gt;Node5 -->
<g id="edge4" class="edge"><title>Node3&#45;&gt;Node5</title>
<path fill="none" stroke="midnightblue" d="M727.828,-279.767C734.915,-277.305 741.831,-274.206 748,-270.308 769.361,-256.812 762.175,-239.039 784,-226.308 787.719,-224.139 791.622,-222.203 795.648,-220.476"/>
<polygon fill="midnightblue" stroke="midnightblue" points="797.142,-223.652 805.236,-216.815 794.645,-217.112 797.142,-223.652"/>
</g>
<!-- Node7 -->
<g id="node7" class="node"><title>Node7</title>
<g id="a_node7"><a xlink:href="../../d9/d11/classconfiguration_1_1_parser.html#af0032734232f2e6043d7c8c94d86dd1f" target="_top" xlink:title="configuration.Parser.isConstant">
<polygon fill="white" stroke="black" points="812.5,-159.808 812.5,-178.808 977.5,-178.808 977.5,-159.808 812.5,-159.808"/>
<text text-anchor="middle" x="895" y="-166.808" font-family="Helvetica,sans-Serif" font-size="10.00">configuration.Parser.isConstant</text>
</a>
</g>
</g>
<!-- Node3&#45;&gt;Node7 -->
<g id="edge6" class="edge"><title>Node3&#45;&gt;Node7</title>
<path fill="none" stroke="midnightblue" d="M732.804,-279.653C738.289,-277.188 743.47,-274.12 748,-270.308 778.455,-244.682 752.656,-212.84 784,-188.308 789.718,-183.833 796.119,-180.261 802.88,-177.423"/>
<polygon fill="midnightblue" stroke="midnightblue" points="804.096,-180.705 812.293,-173.993 801.699,-174.128 804.096,-180.705"/>
</g>
<!-- Node3&#45;&gt;Node8 -->
<g id="edge7" class="edge"><title>Node3&#45;&gt;Node8</title>
<path fill="none" stroke="midnightblue" d="M684.544,-298.873C705.053,-312.875 745.67,-338.758 784,-352.308 791.88,-355.094 800.226,-357.481 808.659,-359.523"/>
<polygon fill="midnightblue" stroke="midnightblue" points="808.048,-362.973 818.574,-361.766 809.593,-356.146 808.048,-362.973"/>
</g>
<!-- Node9 -->
<g id="node9" class="node"><title>Node9</title>
<g id="a_node9"><a xlink:href="../../d0/d3b/classcommands_1_1_user_made_utilities.html#ad6e90d3cccee9da7cf3df2c13fc70381" target="_top" xlink:title="commands.UserMadeUtilities.containsVars">
<polygon fill="white" stroke="black" points="784,-323.808 784,-342.808 1006,-342.808 1006,-323.808 784,-323.808"/>
<text text-anchor="middle" x="895" y="-330.808" font-family="Helvetica,sans-Serif" font-size="10.00">commands.UserMadeUtilities.containsVars</text>
</a>
</g>
</g>
<!-- Node3&#45;&gt;Node9 -->
<g id="edge8" class="edge"><title>Node3&#45;&gt;Node9</title>
<path fill="none" stroke="midnightblue" d="M714.403,-298.839C735.396,-303.369 760.978,-308.772 784,-313.308 798.777,-316.22 814.702,-319.205 829.721,-321.95"/>
<polygon fill="midnightblue" stroke="midnightblue" points="829.485,-325.464 839.949,-323.808 830.736,-318.577 829.485,-325.464"/>
</g>
<!-- Node10 -->
<g id="node10" class="node"><title>Node10</title>
<g id="a_node10"><a xlink:href="../../d0/d3b/classcommands_1_1_user_made_utilities.html#afc570f31a89922ff7a42f13839888c8f" target="_top" xlink:title="commands.UserMadeUtilities.get\lFromVars">
<polygon fill="white" stroke="black" points="807,-274.308 807,-304.308 983,-304.308 983,-274.308 807,-274.308"/>
<text text-anchor="start" x="815" y="-292.308" font-family="Helvetica,sans-Serif" font-size="10.00">commands.UserMadeUtilities.get</text>
<text text-anchor="middle" x="895" y="-281.308" font-family="Helvetica,sans-Serif" font-size="10.00">FromVars</text>
</a>
</g>
</g>
<!-- Node3&#45;&gt;Node10 -->
<g id="edge9" class="edge"><title>Node3&#45;&gt;Node10</title>
<path fill="none" stroke="midnightblue" d="M748.056,-289.308C763.694,-289.308 780.335,-289.308 796.571,-289.308"/>
<polygon fill="midnightblue" stroke="midnightblue" points="796.616,-292.809 806.616,-289.308 796.616,-285.809 796.616,-292.809"/>
</g>
<!-- Node6 -->
<g id="node6" class="node"><title>Node6</title>
<g id="a_node6"><a xlink:href="../../da/dde/classconfiguration_1_1_util.html#a163b0098613bf2f7becf27b131af3934" target="_top" xlink:title="configuration.Util.match">
<polygon fill="white" stroke="black" points="1042.5,-197.808 1042.5,-216.808 1173.5,-216.808 1173.5,-197.808 1042.5,-197.808"/>
<text text-anchor="middle" x="1108" y="-204.808" font-family="Helvetica,sans-Serif" font-size="10.00">configuration.Util.match</text>
</a>
</g>
</g>
<!-- Node5&#45;&gt;Node6 -->
<g id="edge5" class="edge"><title>Node5&#45;&gt;Node6</title>
<path fill="none" stroke="midnightblue" d="M987.627,-207.308C1002.48,-207.308 1017.71,-207.308 1032.11,-207.308"/>
<polygon fill="midnightblue" stroke="midnightblue" points="1032.43,-210.809 1042.43,-207.308 1032.43,-203.809 1032.43,-210.809"/>
</g>
<!-- Node15&#45;&gt;Node12 -->
<g id="edge24" class="edge"><title>Node15&#45;&gt;Node12</title>
<path fill="none" stroke="midnightblue" d="M348.21,-158.5C422.328,-171.164 533.071,-190.084 603.136,-202.055"/>
<polygon fill="midnightblue" stroke="midnightblue" points="602.722,-205.535 613.169,-203.769 603.901,-198.635 602.722,-205.535"/>
</g>
<!-- Node15&#45;&gt;Node13 -->
<g id="edge25" class="edge"><title>Node15&#45;&gt;Node13</title>
<path fill="none" stroke="midnightblue" d="M348.21,-145.308C415.11,-145.308 511.849,-145.308 581.58,-145.308"/>
<polygon fill="midnightblue" stroke="midnightblue" points="581.666,-148.809 591.666,-145.308 581.666,-141.809 581.666,-148.809"/>
</g>
<!-- Node15&#45;&gt;Node14 -->
<g id="edge16" class="edge"><title>Node15&#45;&gt;Node14</title>
<path fill="none" stroke="midnightblue" d="M301.84,-130.184C324.369,-119.365 355.783,-104.752 384,-93.3084 393.671,-89.3863 404.071,-85.4718 414.165,-81.8271"/>
<polygon fill="midnightblue" stroke="midnightblue" points="415.47,-85.0778 423.715,-78.424 413.12,-78.484 415.47,-85.0778"/>
</g>
<!-- Node15&#45;&gt;Node16 -->
<g id="edge17" class="edge"><title>Node15&#45;&gt;Node16</title>
<path fill="none" stroke="midnightblue" d="M348.21,-137.937C418.881,-131.189 522.848,-121.263 593.103,-114.555"/>
<polygon fill="midnightblue" stroke="midnightblue" points="593.594,-118.024 603.216,-113.589 592.928,-111.056 593.594,-118.024"/>
</g>
<!-- Node17 -->
<g id="node17" class="node"><title>Node17</title>
<g id="a_node17"><a xlink:href="../../dc/d64/classconfiguration_1_1_for_parser.html#a6bc38f731ac658c5860fe092ba7689ac" target="_top" xlink:title="configuration.ForParser.parseFor">
<polygon fill="white" stroke="black" points="384.5,-211.808 384.5,-230.808 555.5,-230.808 555.5,-211.808 384.5,-211.808"/>
<text text-anchor="middle" x="470" y="-218.808" font-family="Helvetica,sans-Serif" font-size="10.00">configuration.ForParser.parseFor</text>
</a>
</g>
</g>
<!-- Node15&#45;&gt;Node17 -->
<g id="edge18" class="edge"><title>Node15&#45;&gt;Node17</title>
<path fill="none" stroke="midnightblue" d="M300.677,-160.515C323.161,-171.652 355.025,-186.625 384,-197.308 395.69,-201.618 408.521,-205.61 420.592,-209.051"/>
<polygon fill="midnightblue" stroke="midnightblue" points="419.94,-212.503 430.512,-211.808 421.814,-205.758 419.94,-212.503"/>
</g>
<!-- Node17&#45;&gt;Node3 -->
<g id="edge21" class="edge"><title>Node17&#45;&gt;Node3</title>
<path fill="none" stroke="midnightblue" d="M492.079,-230.919C515.958,-241.551 556.21,-258.712 592,-270.308 599.636,-272.783 607.787,-275.115 615.823,-277.243"/>
<polygon fill="midnightblue" stroke="midnightblue" points="614.969,-280.637 625.526,-279.731 616.709,-273.856 614.969,-280.637"/>
</g>
<!-- Node17&#45;&gt;Node11 -->
<g id="edge22" class="edge"><title>Node17&#45;&gt;Node11</title>
<path fill="none" stroke="midnightblue" d="M533.92,-230.842C556.608,-234.279 582.223,-238.16 605.002,-241.612"/>
<polygon fill="midnightblue" stroke="midnightblue" points="604.497,-245.075 614.909,-243.113 605.546,-238.154 604.497,-245.075"/>
</g>
<!-- Node17&#45;&gt;Node12 -->
<g id="edge19" class="edge"><title>Node17&#45;&gt;Node12</title>
<path fill="none" stroke="midnightblue" d="M555.544,-217.893C566.891,-217.434 578.497,-216.965 589.748,-216.511"/>
<polygon fill="midnightblue" stroke="midnightblue" points="590.113,-219.999 599.963,-216.098 589.83,-213.004 590.113,-219.999"/>
</g>
<!-- Node17&#45;&gt;Node13 -->
<g id="edge20" class="edge"><title>Node17&#45;&gt;Node13</title>
<path fill="none" stroke="midnightblue" d="M496.077,-211.683C531.188,-198.206 595.119,-173.667 634.638,-158.498"/>
<polygon fill="midnightblue" stroke="midnightblue" points="636.045,-161.707 644.127,-154.856 633.537,-155.172 636.045,-161.707"/>
</g>
<!-- Node17&#45;&gt;Node16 -->
<g id="edge23" class="edge"><title>Node17&#45;&gt;Node16</title>
<path fill="none" stroke="midnightblue" d="M480.363,-211.586C499.486,-192.309 545.19,-149.138 592,-126.308 596.95,-123.894 602.233,-121.771 607.625,-119.906"/>
<polygon fill="midnightblue" stroke="midnightblue" points="608.914,-123.169 617.397,-116.821 606.807,-116.493 608.914,-123.169"/>
</g>
</g>
</svg>
        <g id="navigator" transform="translate(0 0)" fill="#404254">
                <rect fill="#f2f5e9" fill-opacity="0.5" stroke="#606060" stroke-width=".5" x="0" y="0" width="60" height="60"/>
                <use id="zoomplus" xlink:href="#zoomPlus" x="17" y="9" onmousedown="handleZoom(evt,'in')"/>
                <use id="zoomminus" xlink:href="#zoomMin" x="42" y="9" onmousedown="handleZoom(evt,'out')"/>
                <use id="reset" xlink:href="#resetDef" x="30" y="36" onmousedown="handleReset()"/>
                <g id="arrowUp" xlink:href="#dirArrow" transform="translate(30 24)" onmousedown="handlePan(0,-1)">
                  <use xlink:href="#rim" fill="#404040">
                        <set attributeName="fill" to="#808080" begin="arrowUp.mouseover" end="arrowUp.mouseout"/>
                  </use>
                  <path fill="none" stroke="white" stroke-width="1.5" d="M0,-3.0v7 M-2.5,-0.5L0,-3.0L2.5,-0.5"/>
                </g>
                <g id="arrowRight" xlink:href="#dirArrow" transform="rotate(90) translate(36 -43)" onmousedown="handlePan(1,0)">
                  <use xlink:href="#rim" fill="#404040">
                        <set attributeName="fill" to="#808080" begin="arrowRight.mouseover" end="arrowRight.mouseout"/>
                  </use>
                  <path fill="none" stroke="white" stroke-width="1.5" d="M0,-3.0v7 M-2.5,-0.5L0,-3.0L2.5,-0.5"/>
                </g>
                <g id="arrowDown" xlink:href="#dirArrow" transform="rotate(180) translate(-30 -48)" onmousedown="handlePan(0,1)">
                  <use xlink:href="#rim" fill="#404040">
                        <set attributeName="fill" to="#808080" begin="arrowDown.mouseover" end="arrowDown.mouseout"/>
                  </use>
                  <path fill="none" stroke="white" stroke-width="1.5" d="M0,-3.0v7 M-2.5,-0.5L0,-3.0L2.5,-0.5"/>
                </g>
                <g id="arrowLeft" xlink:href="#dirArrow" transform="rotate(270) translate(-36 17)" onmousedown="handlePan(-1,0)">
                  <use xlink:href="#rim" fill="#404040">
                        <set attributeName="fill" to="#808080" begin="arrowLeft.mouseover" end="arrowLeft.mouseout"/>
                  </use>
                  <path fill="none" stroke="white" stroke-width="1.5" d="M0,-3.0v7 M-2.5,-0.5L0,-3.0L2.5,-0.5"/>
                </g>
        </g>
        <svg viewBox="0 0 15 15" width="100%" height="30px" preserveAspectRatio="xMaxYMin meet">
         <g id="arrow_out" transform="scale(0.3 0.3)">
          <a xlink:href="classconfiguration_1_1_for_parser_a2737b422e279cfca7c64fd8eff57d3ff_cgraph_org.svg" target="_base">
           <rect id="button" ry="5" rx="5" y="6" x="6" height="38" width="38"
                fill="#f2f5e9" fill-opacity="0.5" stroke="#606060" stroke-width="1.0"/>
           <path id="arrow"
             d="M 11.500037,31.436501 C 11.940474,20.09759 22.043105,11.32322 32.158766,21.979434 L 37.068811,17.246167 C 37.068811,17.246167 37.088388,32 37.088388,32 L 22.160133,31.978069 C 22.160133,31.978069 26.997745,27.140456 26.997745,27.140456 C 18.528582,18.264221 13.291696,25.230495 11.500037,31.436501 z"
             style="fill:#404040;"/>
          </a>
         </g>
        </svg>
</svg>
