<?xml version="1.0" encoding="UTF-8" standalone="no"?>
<!DOCTYPE svg PUBLIC "-//W3C//DTD SVG 1.1//EN"
 "http://www.w3.org/Graphics/SVG/1.1/DTD/svg11.dtd">
<!-- Generated by graphviz version 2.36.0 (20140111.2315)
 -->
<!-- Title: application.Main.start Pages: 1 -->
<!--zoomable 371 -->
<svg id="main" version="1.1" xmlns="http://www.w3.org/2000/svg" xmlns:xlink="http://www.w3.org/1999/xlink" xml:space="preserve" onload="init(evt)">
<style type="text/css"><![CDATA[
.edge:hover path { stroke: red; }
.edge:hover polygon { stroke: red; fill: red; }
]]></style>
<script type="text/javascript"><![CDATA[
var edges = document.getElementsByTagName('g');
if (edges && edges.length) {
  for (var i=0;i<edges.length;i++) {
    if (edges[i].id.substr(0,4)=='edge') {
      edges[i].setAttribute('class','edge');
    }
  }
}
]]></script>
        <defs>
                <circle id="rim" cx="0" cy="0" r="7"/>
                <circle id="rim2" cx="0" cy="0" r="3.5"/>
                <g id="zoomPlus">
                        <use xlink:href="#rim" fill="#404040">
                                <set attributeName="fill" to="#808080" begin="zoomplus.mouseover" end="zoomplus.mouseout"/>
                        </use>
                        <path d="M-4,0h8M0,-4v8" fill="none" stroke="white" stroke-width="1.5" pointer-events="none"/>
                </g>
                <g id="zoomMin">
                        <use xlink:href="#rim" fill="#404040">
                                <set attributeName="fill" to="#808080" begin="zoomminus.mouseover" end="zoomminus.mouseout"/>
                        </use>
                        <path d="M-4,0h8" fill="none" stroke="white" stroke-width="1.5" pointer-events="none"/>
                </g>
                <g id="dirArrow">
                        <path fill="none" stroke="white" stroke-width="1.5" d="M0,-3.0v7 M-2.5,-0.5L0,-3.0L2.5,-0.5"/>
                </g>
               <g id="resetDef">
                       <use xlink:href="#rim2" fill="#404040">
                               <set attributeName="fill" to="#808080" begin="reset.mouseover" end="reset.mouseout"/>
                       </use>
               </g>
        </defs>

<script type="text/javascript">
var viewWidth = 1792;
var viewHeight = 371;
var sectionId = 'dynsection-2';
</script>
<script xlink:href="../../svgpan.js"/>
<svg id="graph" class="graph">
<g id="viewport">
<title>application.Main.start</title>
<polygon fill="white" stroke="none" points="-4,4 -4,-367 1788,-367 1788,4 -4,4"/>
<!-- Node1 -->
<g id="node1" class="node"><title>Node1</title>
<polygon fill="#bfbfbf" stroke="black" points="0.5,-177.5 0.5,-196.5 119.5,-196.5 119.5,-177.5 0.5,-177.5"/>
<text text-anchor="middle" x="60" y="-184.5" font-family="Helvetica,sans-Serif" font-size="10.00">application.Main.start</text>
</g>
<!-- Node2 -->
<g id="node2" class="node"><title>Node2</title>
<g id="a_node2"><a xlink:href="../../d6/d2f/classgui_1_1_g_u_i.html#a68b2ae2535d2956779b9f44791fd5e16" target="_top" xlink:title="gui.GUI.getBackgroundView">
<polygon fill="white" stroke="black" points="179.5,-310.5 179.5,-329.5 328.5,-329.5 328.5,-310.5 179.5,-310.5"/>
<text text-anchor="middle" x="254" y="-317.5" font-family="Helvetica,sans-Serif" font-size="10.00">gui.GUI.getBackgroundView</text>
</a>
</g>
</g>
<!-- Node1&#45;&gt;Node2 -->
<g id="edge1" class="edge"><title>Node1&#45;&gt;Node2</title>
<path fill="none" stroke="midnightblue" d="M65.9208,-196.537C77.9612,-218.833 111.224,-274.479 156,-301 160.409,-303.611 165.109,-305.872 169.972,-307.828"/>
<polygon fill="midnightblue" stroke="midnightblue" points="168.897,-311.161 179.491,-311.227 171.251,-304.568 168.897,-311.161"/>
</g>
<!-- Node3 -->
<g id="node3" class="node"><title>Node3</title>
<g id="a_node3"><a xlink:href="../../d6/d2f/classgui_1_1_g_u_i.html#a3076e4503368bcbc6890d97492b6f273" target="_top" xlink:title="gui.GUI.getLineView">
<polygon fill="white" stroke="black" points="198.5,-272.5 198.5,-291.5 309.5,-291.5 309.5,-272.5 198.5,-272.5"/>
<text text-anchor="middle" x="254" y="-279.5" font-family="Helvetica,sans-Serif" font-size="10.00">gui.GUI.getLineView</text>
</a>
</g>
</g>
<!-- Node1&#45;&gt;Node3 -->
<g id="edge2" class="edge"><title>Node1&#45;&gt;Node3</title>
<path fill="none" stroke="midnightblue" d="M69.9222,-196.703C85.6273,-213.141 119.974,-246.3 156,-263 166.175,-267.717 177.477,-271.264 188.667,-273.93"/>
<polygon fill="midnightblue" stroke="midnightblue" points="187.925,-277.351 198.441,-276.055 189.412,-270.511 187.925,-277.351"/>
</g>
<!-- Node4 -->
<g id="node4" class="node"><title>Node4</title>
<g id="a_node4"><a xlink:href="../../d6/d2f/classgui_1_1_g_u_i.html#ae24e6b645d6f6986ec4e9818190c11a0" target="_top" xlink:title="gui.GUI.getTurtleView">
<polygon fill="white" stroke="black" points="195.5,-234.5 195.5,-253.5 312.5,-253.5 312.5,-234.5 195.5,-234.5"/>
<text text-anchor="middle" x="254" y="-241.5" font-family="Helvetica,sans-Serif" font-size="10.00">gui.GUI.getTurtleView</text>
</a>
</g>
</g>
<!-- Node1&#45;&gt;Node4 -->
<g id="edge3" class="edge"><title>Node1&#45;&gt;Node4</title>
<path fill="none" stroke="midnightblue" d="M81.7307,-196.603C100.714,-205.079 129.763,-217.257 156,-225 165.443,-227.787 175.526,-230.279 185.487,-232.468"/>
<polygon fill="midnightblue" stroke="midnightblue" points="184.872,-235.915 195.379,-234.556 186.318,-229.066 184.872,-235.915"/>
</g>
<!-- Node5 -->
<g id="node5" class="node"><title>Node5</title>
<g id="a_node5"><a xlink:href="../../d6/d2f/classgui_1_1_g_u_i.html#a8b2bdbd34755b5a59657b9ad391d2b22" target="_top" xlink:title="gui.GUI.initialize">
<polygon fill="white" stroke="black" points="208,-196.5 208,-215.5 300,-215.5 300,-196.5 208,-196.5"/>
<text text-anchor="middle" x="254" y="-203.5" font-family="Helvetica,sans-Serif" font-size="10.00">gui.GUI.initialize</text>
</a>
</g>
</g>
<!-- Node1&#45;&gt;Node5 -->
<g id="edge4" class="edge"><title>Node1&#45;&gt;Node5</title>
<path fill="none" stroke="midnightblue" d="M119.65,-192.804C144.449,-195.258 173.188,-198.102 197.622,-200.52"/>
<polygon fill="midnightblue" stroke="midnightblue" points="197.51,-204.026 207.806,-201.528 198.2,-197.06 197.51,-204.026"/>
</g>
<!-- Node27 -->
<g id="node27" class="node"><title>Node27</title>
<g id="a_node27"><a xlink:href="../../d6/d2f/classgui_1_1_g_u_i.html#ab6f3d17cbb6c64eaaf56aa70f0661e02" target="_top" xlink:title="gui.GUI.setParser">
<polygon fill="white" stroke="black" points="204.5,-158.5 204.5,-177.5 303.5,-177.5 303.5,-158.5 204.5,-158.5"/>
<text text-anchor="middle" x="254" y="-165.5" font-family="Helvetica,sans-Serif" font-size="10.00">gui.GUI.setParser</text>
</a>
</g>
</g>
<!-- Node1&#45;&gt;Node27 -->
<g id="edge27" class="edge"><title>Node1&#45;&gt;Node27</title>
<path fill="none" stroke="midnightblue" d="M119.65,-181.196C143.282,-178.858 170.491,-176.165 194.144,-173.824"/>
<polygon fill="midnightblue" stroke="midnightblue" points="194.781,-177.278 204.387,-172.811 194.091,-170.312 194.781,-177.278"/>
</g>
<!-- Node29 -->
<g id="node29" class="node"><title>Node29</title>
<g id="a_node29"><a xlink:href="../../dc/d20/classapplication_1_1_command_factory.html#a8c14e3796cf0546bbe7d7fafdc9f4dc7" target="_top" xlink:title="application.CommandFactory.set\lPenHandler">
<polygon fill="white" stroke="black" points="167.5,-109 167.5,-139 340.5,-139 340.5,-109 167.5,-109"/>
<text text-anchor="start" x="175.5" y="-127" font-family="Helvetica,sans-Serif" font-size="10.00">application.CommandFactory.set</text>
<text text-anchor="middle" x="254" y="-116" font-family="Helvetica,sans-Serif" font-size="10.00">PenHandler</text>
</a>
</g>
</g>
<!-- Node1&#45;&gt;Node29 -->
<g id="edge29" class="edge"><title>Node1&#45;&gt;Node29</title>
<path fill="none" stroke="midnightblue" d="M82.5922,-177.44C101.66,-169.222 130.339,-157.401 156,-149 163.696,-146.48 171.802,-144.05 179.914,-141.76"/>
<polygon fill="midnightblue" stroke="midnightblue" points="181.074,-145.071 189.784,-139.04 179.214,-138.323 181.074,-145.071"/>
</g>
<!-- Node30 -->
<g id="node30" class="node"><title>Node30</title>
<g id="a_node30"><a xlink:href="../../dc/d20/classapplication_1_1_command_factory.html#aead0c662678cf6d3ae0afc0d77226ae2" target="_top" xlink:title="application.CommandFactory.set\lViewHandler">
<polygon fill="white" stroke="black" points="167.5,-60 167.5,-90 340.5,-90 340.5,-60 167.5,-60"/>
<text text-anchor="start" x="175.5" y="-78" font-family="Helvetica,sans-Serif" font-size="10.00">application.CommandFactory.set</text>
<text text-anchor="middle" x="254" y="-67" font-family="Helvetica,sans-Serif" font-size="10.00">ViewHandler</text>
</a>
</g>
</g>
<!-- Node1&#45;&gt;Node30 -->
<g id="edge30" class="edge"><title>Node1&#45;&gt;Node30</title>
<path fill="none" stroke="midnightblue" d="M68.7661,-177.244C83.6889,-159.171 118.253,-120.468 156,-100 160.221,-97.7113 164.66,-95.6255 169.22,-93.7255"/>
<polygon fill="midnightblue" stroke="midnightblue" points="170.638,-96.9302 178.721,-90.0807 168.131,-90.3946 170.638,-96.9302"/>
</g>
<!-- Node31 -->
<g id="node31" class="node"><title>Node31</title>
<g id="a_node31"><a xlink:href="../../d8/def/classcommands_1_1view_commands_1_1turtle_commands_1_1_turtle_commands.html#a675fe85014e64c3fa53004ad63fd192c" target="_top" xlink:title="commands.viewCommands.turtle\lCommands.TurtleCommands.setView\lHandler">
<polygon fill="white" stroke="black" points="156,-0.5 156,-41.5 352,-41.5 352,-0.5 156,-0.5"/>
<text text-anchor="start" x="164" y="-29.5" font-family="Helvetica,sans-Serif" font-size="10.00">commands.viewCommands.turtle</text>
<text text-anchor="start" x="164" y="-18.5" font-family="Helvetica,sans-Serif" font-size="10.00">Commands.TurtleCommands.setView</text>
<text text-anchor="middle" x="254" y="-7.5" font-family="Helvetica,sans-Serif" font-size="10.00">Handler</text>
</a>
</g>
</g>
<!-- Node1&#45;&gt;Node31 -->
<g id="edge31" class="edge"><title>Node1&#45;&gt;Node31</title>
<path fill="none" stroke="midnightblue" d="M64.9719,-177.466C75.7655,-152.726 108.077,-85.9782 156,-51 158.118,-49.4542 160.317,-47.9867 162.581,-46.5937"/>
<polygon fill="midnightblue" stroke="midnightblue" points="164.559,-49.4987 171.6,-41.5817 161.159,-43.38 164.559,-49.4987"/>
</g>
<!-- Node6 -->
<g id="node6" class="node"><title>Node6</title>
<g id="a_node6"><a xlink:href="../../d6/d2f/classgui_1_1_g_u_i.html#a784ba3db8493af6be1fb200653774010" target="_top" xlink:title="gui.GUI.initializeView">
<polygon fill="white" stroke="black" points="405,-262.5 405,-281.5 519,-281.5 519,-262.5 405,-262.5"/>
<text text-anchor="middle" x="462" y="-269.5" font-family="Helvetica,sans-Serif" font-size="10.00">gui.GUI.initializeView</text>
</a>
</g>
</g>
<!-- Node5&#45;&gt;Node6 -->
<g id="edge5" class="edge"><title>Node5&#45;&gt;Node6</title>
<path fill="none" stroke="midnightblue" d="M300.222,-210.551C316.993,-213.339 335.85,-217.818 352,-225 370.274,-233.127 370.039,-243.203 388,-252 393.653,-254.769 399.747,-257.202 405.919,-259.328"/>
<polygon fill="midnightblue" stroke="midnightblue" points="405.038,-262.721 415.629,-262.42 407.162,-256.051 405.038,-262.721"/>
</g>
<!-- Node7 -->
<g id="node7" class="node"><title>Node7</title>
<g id="a_node7"><a xlink:href="../../d6/d2f/classgui_1_1_g_u_i.html#a969657070e7503ad76669ed3ef5001ed" target="_top" xlink:title="gui.GUI.initializeCommands\lHistory">
<polygon fill="white" stroke="black" points="388,-213 388,-243 536,-243 536,-213 388,-213"/>
<text text-anchor="start" x="396" y="-231" font-family="Helvetica,sans-Serif" font-size="10.00">gui.GUI.initializeCommands</text>
<text text-anchor="middle" x="462" y="-220" font-family="Helvetica,sans-Serif" font-size="10.00">History</text>
</a>
</g>
</g>
<!-- Node5&#45;&gt;Node7 -->
<g id="edge6" class="edge"><title>Node5&#45;&gt;Node7</title>
<path fill="none" stroke="midnightblue" d="M300.208,-210.828C322.997,-213.262 351.367,-216.292 377.904,-219.126"/>
<polygon fill="midnightblue" stroke="midnightblue" points="377.655,-222.619 387.97,-220.201 378.398,-215.658 377.655,-222.619"/>
</g>
<!-- Node12 -->
<g id="node12" class="node"><title>Node12</title>
<g id="a_node12"><a xlink:href="../../d6/d2f/classgui_1_1_g_u_i.html#a8946451ec351fce99254ed5efd88b33d" target="_top" xlink:title="gui.GUI.initializeButtons">
<polygon fill="white" stroke="black" points="397,-152.5 397,-171.5 527,-171.5 527,-152.5 397,-152.5"/>
<text text-anchor="middle" x="462" y="-159.5" font-family="Helvetica,sans-Serif" font-size="10.00">gui.GUI.initializeButtons</text>
</a>
</g>
</g>
<!-- Node5&#45;&gt;Node12 -->
<g id="edge11" class="edge"><title>Node5&#45;&gt;Node12</title>
<path fill="none" stroke="midnightblue" d="M300.461,-197.407C316.742,-194.248 335.215,-190.568 352,-187 371.308,-182.896 392.473,-178.108 410.973,-173.828"/>
<polygon fill="midnightblue" stroke="midnightblue" points="412,-177.182 420.948,-171.509 410.416,-170.364 412,-177.182"/>
</g>
<!-- Node8 -->
<g id="node8" class="node"><title>Node8</title>
<g id="a_node8"><a xlink:href="../../d0/d3b/classcommands_1_1_user_made_utilities.html#a66be7c8192627c2ddfa68bd16c16e5ce" target="_top" xlink:title="commands.UserMadeUtilities.get\lAllVars">
<polygon fill="white" stroke="black" points="589,-333 589,-363 765,-363 765,-333 589,-333"/>
<text text-anchor="start" x="597" y="-351" font-family="Helvetica,sans-Serif" font-size="10.00">commands.UserMadeUtilities.get</text>
<text text-anchor="middle" x="677" y="-340" font-family="Helvetica,sans-Serif" font-size="10.00">AllVars</text>
</a>
</g>
</g>
<!-- Node7&#45;&gt;Node8 -->
<g id="edge7" class="edge"><title>Node7&#45;&gt;Node8</title>
<path fill="none" stroke="midnightblue" d="M521.098,-243.107C526.458,-245.877 531.541,-249.145 536,-253 562.465,-275.88 544.489,-301.389 572,-323 574.592,-325.036 577.325,-326.91 580.166,-328.635"/>
<polygon fill="midnightblue" stroke="midnightblue" points="578.518,-331.722 588.983,-333.372 581.831,-325.556 578.518,-331.722"/>
</g>
<!-- Node9 -->
<g id="node9" class="node"><title>Node9</title>
<g id="a_node9"><a xlink:href="../../d0/d3b/classcommands_1_1_user_made_utilities.html#a0b6d189f8f0fe1685ea48c9ac55357f0" target="_top" xlink:title="commands.UserMadeUtilities.get\lUDCommands">
<polygon fill="white" stroke="black" points="589,-284 589,-314 765,-314 765,-284 589,-284"/>
<text text-anchor="start" x="597" y="-302" font-family="Helvetica,sans-Serif" font-size="10.00">commands.UserMadeUtilities.get</text>
<text text-anchor="middle" x="677" y="-291" font-family="Helvetica,sans-Serif" font-size="10.00">UDCommands</text>
</a>
</g>
</g>
<!-- Node7&#45;&gt;Node9 -->
<g id="edge8" class="edge"><title>Node7&#45;&gt;Node9</title>
<path fill="none" stroke="midnightblue" d="M511.437,-243.076C519.743,-246.088 528.203,-249.434 536,-253 552.845,-260.705 554.812,-267.095 572,-274 578.31,-276.535 584.942,-278.856 591.676,-280.973"/>
<polygon fill="midnightblue" stroke="midnightblue" points="591.005,-284.425 601.588,-283.929 593.006,-277.717 591.005,-284.425"/>
</g>
<!-- Node10 -->
<g id="node10" class="node"><title>Node10</title>
<g id="a_node10"><a xlink:href="../../d0/d3b/classcommands_1_1_user_made_utilities.html#a1f6e3a69c0981590f6e1e2c5d240b12d" target="_top" xlink:title="commands.UserMadeUtilities.check\lUDCommands">
<polygon fill="white" stroke="black" points="583,-235 583,-265 771,-265 771,-235 583,-235"/>
<text text-anchor="start" x="591" y="-253" font-family="Helvetica,sans-Serif" font-size="10.00">commands.UserMadeUtilities.check</text>
<text text-anchor="middle" x="677" y="-242" font-family="Helvetica,sans-Serif" font-size="10.00">UDCommands</text>
</a>
</g>
</g>
<!-- Node7&#45;&gt;Node10 -->
<g id="edge9" class="edge"><title>Node7&#45;&gt;Node10</title>
<path fill="none" stroke="midnightblue" d="M536.005,-235.54C547.883,-236.767 560.38,-238.058 572.816,-239.343"/>
<polygon fill="midnightblue" stroke="midnightblue" points="572.458,-242.824 582.765,-240.37 573.177,-235.861 572.458,-242.824"/>
</g>
<!-- Node11 -->
<g id="node11" class="node"><title>Node11</title>
<g id="a_node11"><a xlink:href="../../d0/d3b/classcommands_1_1_user_made_utilities.html#ab404a41aca56228775075422606fabb2" target="_top" xlink:title="commands.UserMadeUtilities.checkVars">
<polygon fill="white" stroke="black" points="572.5,-196.5 572.5,-215.5 781.5,-215.5 781.5,-196.5 572.5,-196.5"/>
<text text-anchor="middle" x="677" y="-203.5" font-family="Helvetica,sans-Serif" font-size="10.00">commands.UserMadeUtilities.checkVars</text>
</a>
</g>
</g>
<!-- Node7&#45;&gt;Node11 -->
<g id="edge10" class="edge"><title>Node7&#45;&gt;Node11</title>
<path fill="none" stroke="midnightblue" d="M536.005,-220.46C548.168,-219.203 560.98,-217.88 573.712,-216.565"/>
<polygon fill="midnightblue" stroke="midnightblue" points="574.304,-220.023 583.891,-215.514 573.585,-213.06 574.304,-220.023"/>
</g>
<!-- Node13 -->
<g id="node13" class="node"><title>Node13</title>
<g id="a_node13"><a xlink:href="../../d6/d2f/classgui_1_1_g_u_i.html#abaeb42ce4c957a819bbb3d8adea84496" target="_top" xlink:title="gui.GUI.createColorPicker\lButtons">
<polygon fill="white" stroke="black" points="608,-147 608,-177 746,-177 746,-147 608,-147"/>
<text text-anchor="start" x="616" y="-165" font-family="Helvetica,sans-Serif" font-size="10.00">gui.GUI.createColorPicker</text>
<text text-anchor="middle" x="677" y="-154" font-family="Helvetica,sans-Serif" font-size="10.00">Buttons</text>
</a>
</g>
</g>
<!-- Node12&#45;&gt;Node13 -->
<g id="edge12" class="edge"><title>Node12&#45;&gt;Node13</title>
<path fill="none" stroke="midnightblue" d="M527.196,-162C549.39,-162 574.511,-162 597.708,-162"/>
<polygon fill="midnightblue" stroke="midnightblue" points="597.864,-165.5 607.864,-162 597.864,-158.5 597.864,-165.5"/>
</g>
<!-- Node16 -->
<g id="node16" class="node"><title>Node16</title>
<g id="a_node16"><a xlink:href="../../d6/d2f/classgui_1_1_g_u_i.html#a93dd1959425cd3009366bcc585373af4" target="_top" xlink:title="gui.GUI.createNormalButtons">
<polygon fill="white" stroke="black" points="598,-108.5 598,-127.5 756,-127.5 756,-108.5 598,-108.5"/>
<text text-anchor="middle" x="677" y="-115.5" font-family="Helvetica,sans-Serif" font-size="10.00">gui.GUI.createNormalButtons</text>
</a>
</g>
</g>
<!-- Node12&#45;&gt;Node16 -->
<g id="edge15" class="edge"><title>Node12&#45;&gt;Node16</title>
<path fill="none" stroke="midnightblue" d="M505.13,-152.448C525.331,-147.939 549.891,-142.559 572,-138 585.838,-135.146 600.74,-132.204 614.82,-129.483"/>
<polygon fill="midnightblue" stroke="midnightblue" points="615.741,-132.87 624.9,-127.545 614.419,-125.996 615.741,-132.87"/>
</g>
<!-- Node26 -->
<g id="node26" class="node"><title>Node26</title>
<g id="a_node26"><a xlink:href="../../d6/d2f/classgui_1_1_g_u_i.html#a031ed3459bcf6b4869840427a4f8ba9f" target="_top" xlink:title="gui.GUI.createLanguageButtons">
<polygon fill="white" stroke="black" points="592,-70.5 592,-89.5 762,-89.5 762,-70.5 592,-70.5"/>
<text text-anchor="middle" x="677" y="-77.5" font-family="Helvetica,sans-Serif" font-size="10.00">gui.GUI.createLanguageButtons</text>
</a>
</g>
</g>
<!-- Node12&#45;&gt;Node26 -->
<g id="edge26" class="edge"><title>Node12&#45;&gt;Node26</title>
<path fill="none" stroke="midnightblue" d="M516.123,-152.441C523.107,-149.979 529.935,-146.886 536,-143 557.274,-129.368 550.236,-111.836 572,-99 575.691,-96.8233 579.573,-94.8857 583.581,-93.1615"/>
<polygon fill="midnightblue" stroke="midnightblue" points="585.039,-96.3515 593.132,-89.5138 582.541,-89.8122 585.039,-96.3515"/>
</g>
<!-- Node14 -->
<g id="node14" class="node"><title>Node14</title>
<g id="a_node14"><a xlink:href="../../d8/ddb/classgui_1_1_line_view.html#ab2461bce69ebcb3d6bc9889a2ffd4e3c" target="_top" xlink:title="gui.LineView.setColor">
<polygon fill="white" stroke="black" points="853.5,-196.5 853.5,-215.5 970.5,-215.5 970.5,-196.5 853.5,-196.5"/>
<text text-anchor="middle" x="912" y="-203.5" font-family="Helvetica,sans-Serif" font-size="10.00">gui.LineView.setColor</text>
</a>
</g>
</g>
<!-- Node13&#45;&gt;Node14 -->
<g id="edge13" class="edge"><title>Node13&#45;&gt;Node14</title>
<path fill="none" stroke="midnightblue" d="M746.02,-174.845C779.109,-181.093 818.548,-188.541 850.568,-194.588"/>
<polygon fill="midnightblue" stroke="midnightblue" points="850.21,-198.082 860.686,-196.499 851.509,-191.204 850.21,-198.082"/>
</g>
<!-- Node15 -->
<g id="node15" class="node"><title>Node15</title>
<g id="a_node15"><a xlink:href="../../d7/d9b/classgui_1_1_background_view.html#a603dfa5d6d9d8e7d7fa00b9e4798f00b" target="_top" xlink:title="gui.BackgroundView.setBackground\lColor">
<polygon fill="white" stroke="black" points="818.5,-147 818.5,-177 1005.5,-177 1005.5,-147 818.5,-147"/>
<text text-anchor="start" x="826.5" y="-165" font-family="Helvetica,sans-Serif" font-size="10.00">gui.BackgroundView.setBackground</text>
<text text-anchor="middle" x="912" y="-154" font-family="Helvetica,sans-Serif" font-size="10.00">Color</text>
</a>
</g>
</g>
<!-- Node13&#45;&gt;Node15 -->
<g id="edge14" class="edge"><title>Node13&#45;&gt;Node15</title>
<path fill="none" stroke="midnightblue" d="M746.02,-162C765.412,-162 786.987,-162 807.97,-162"/>
<polygon fill="midnightblue" stroke="midnightblue" points="808.211,-165.5 818.211,-162 808.211,-158.5 808.211,-165.5"/>
</g>
<!-- Node17 -->
<g id="node17" class="node"><title>Node17</title>
<g id="a_node17"><a xlink:href="../../d6/d2f/classgui_1_1_g_u_i.html#a01ea8b1de58d2eaf0a3008af1970cafd" target="_top" xlink:title="gui.GUI.launchHelpPage">
<polygon fill="white" stroke="black" points="846.5,-108.5 846.5,-127.5 977.5,-127.5 977.5,-108.5 846.5,-108.5"/>
<text text-anchor="middle" x="912" y="-115.5" font-family="Helvetica,sans-Serif" font-size="10.00">gui.GUI.launchHelpPage</text>
</a>
</g>
</g>
<!-- Node16&#45;&gt;Node17 -->
<g id="edge16" class="edge"><title>Node16&#45;&gt;Node17</title>
<path fill="none" stroke="midnightblue" d="M756.234,-118C781.913,-118 810.383,-118 835.83,-118"/>
<polygon fill="midnightblue" stroke="midnightblue" points="836.161,-121.5 846.161,-118 836.161,-114.5 836.161,-121.5"/>
</g>
<!-- Node19 -->
<g id="node19" class="node"><title>Node19</title>
<g id="a_node19"><a xlink:href="../../d6/d2f/classgui_1_1_g_u_i.html#acc6890f8e44269e697b72ff64580fb98" target="_top" xlink:title="gui.GUI.launchTurtleImage\lChooser">
<polygon fill="white" stroke="black" points="841.5,-59 841.5,-89 982.5,-89 982.5,-59 841.5,-59"/>
<text text-anchor="start" x="849.5" y="-77" font-family="Helvetica,sans-Serif" font-size="10.00">gui.GUI.launchTurtleImage</text>
<text text-anchor="middle" x="912" y="-66" font-family="Helvetica,sans-Serif" font-size="10.00">Chooser</text>
</a>
</g>
</g>
<!-- Node16&#45;&gt;Node19 -->
<g id="edge18" class="edge"><title>Node16&#45;&gt;Node19</title>
<path fill="none" stroke="midnightblue" d="M730.661,-108.493C747.11,-105.492 765.315,-102.141 782,-99 797.966,-95.9945 815.033,-92.7264 831.352,-89.5744"/>
<polygon fill="midnightblue" stroke="midnightblue" points="832.247,-92.9663 841.4,-87.6302 830.917,-86.0937 832.247,-92.9663"/>
</g>
<!-- Node24 -->
<g id="node24" class="node"><title>Node24</title>
<g id="a_node24"><a xlink:href="../../d6/d2f/classgui_1_1_g_u_i.html#addad84768cec770c2d321a6abd4088f5" target="_top" xlink:title="gui.GUI.launchTurtleInfo">
<polygon fill="white" stroke="black" points="848,-20.5 848,-39.5 976,-39.5 976,-20.5 848,-20.5"/>
<text text-anchor="middle" x="912" y="-27.5" font-family="Helvetica,sans-Serif" font-size="10.00">gui.GUI.launchTurtleInfo</text>
</a>
</g>
</g>
<!-- Node16&#45;&gt;Node24 -->
<g id="edge24" class="edge"><title>Node16&#45;&gt;Node24</title>
<path fill="none" stroke="midnightblue" d="M756.264,-110.428C765.336,-107.63 774.142,-103.915 782,-99 804.911,-84.6699 795.315,-64.6849 818,-50 824.195,-45.9896 831.062,-42.7698 838.176,-40.1869"/>
<polygon fill="midnightblue" stroke="midnightblue" points="839.534,-43.4272 847.991,-37.0451 837.4,-36.7604 839.534,-43.4272"/>
</g>
<!-- Node18 -->
<g id="node18" class="node"><title>Node18</title>
<g id="a_node18"><a xlink:href="../../dd/d85/classgui_1_1_web_pop_up.html#a53d5e94a83616b341356728a4281f8cd" target="_top" xlink:title="gui.WebPopUp.start">
<polygon fill="white" stroke="black" points="1064,-108.5 1064,-127.5 1174,-127.5 1174,-108.5 1064,-108.5"/>
<text text-anchor="middle" x="1119" y="-115.5" font-family="Helvetica,sans-Serif" font-size="10.00">gui.WebPopUp.start</text>
</a>
</g>
</g>
<!-- Node17&#45;&gt;Node18 -->
<g id="edge17" class="edge"><title>Node17&#45;&gt;Node18</title>
<path fill="none" stroke="midnightblue" d="M977.582,-118C1001.82,-118 1029.34,-118 1053.57,-118"/>
<polygon fill="midnightblue" stroke="midnightblue" points="1053.73,-121.5 1063.73,-118 1053.73,-114.5 1053.73,-121.5"/>
</g>
<!-- Node20 -->
<g id="node20" class="node"><title>Node20</title>
<g id="a_node20"><a xlink:href="../../d9/dc5/classgui_1_1_turtle_image_chooser.html#ade890409215dd5d1706b4feec691438f" target="_top" xlink:title="gui.TurtleImageChooser.start">
<polygon fill="white" stroke="black" points="1042,-64.5 1042,-83.5 1196,-83.5 1196,-64.5 1042,-64.5"/>
<text text-anchor="middle" x="1119" y="-71.5" font-family="Helvetica,sans-Serif" font-size="10.00">gui.TurtleImageChooser.start</text>
</a>
</g>
</g>
<!-- Node19&#45;&gt;Node20 -->
<g id="edge19" class="edge"><title>Node19&#45;&gt;Node20</title>
<path fill="none" stroke="midnightblue" d="M982.69,-74C998.454,-74 1015.38,-74 1031.73,-74"/>
<polygon fill="midnightblue" stroke="midnightblue" points="1031.83,-77.5001 1041.83,-74 1031.83,-70.5001 1031.83,-77.5001"/>
</g>
<!-- Node21 -->
<g id="node21" class="node"><title>Node21</title>
<g id="a_node21"><a xlink:href="../../d9/dc5/classgui_1_1_turtle_image_chooser.html#a3b2d5af9d7bda41da0bce5a4350fc391" target="_top" xlink:title="gui.TurtleImageChooser.initialize">
<polygon fill="white" stroke="black" points="1232,-64.5 1232,-83.5 1402,-83.5 1402,-64.5 1232,-64.5"/>
<text text-anchor="middle" x="1317" y="-71.5" font-family="Helvetica,sans-Serif" font-size="10.00">gui.TurtleImageChooser.initialize</text>
</a>
</g>
</g>
<!-- Node20&#45;&gt;Node21 -->
<g id="edge20" class="edge"><title>Node20&#45;&gt;Node21</title>
<path fill="none" stroke="midnightblue" d="M1196.06,-74C1204.49,-74 1213.15,-74 1221.77,-74"/>
<polygon fill="midnightblue" stroke="midnightblue" points="1221.85,-77.5001 1231.85,-74 1221.85,-70.5001 1221.85,-77.5001"/>
</g>
<!-- Node22 -->
<g id="node22" class="node"><title>Node22</title>
<g id="a_node22"><a xlink:href="../../df/dcc/classgui_1_1_turtle_view.html#a24ab0ecbaccb90ec6cd935f4b608e3ee" target="_top" xlink:title="gui.TurtleView.updateTurtle\lImage">
<polygon fill="white" stroke="black" points="1640.5,-59 1640.5,-89 1783.5,-89 1783.5,-59 1640.5,-59"/>
<text text-anchor="start" x="1648.5" y="-77" font-family="Helvetica,sans-Serif" font-size="10.00">gui.TurtleView.updateTurtle</text>
<text text-anchor="middle" x="1712" y="-66" font-family="Helvetica,sans-Serif" font-size="10.00">Image</text>
</a>
</g>
</g>
<!-- Node21&#45;&gt;Node22 -->
<g id="edge21" class="edge"><title>Node21&#45;&gt;Node22</title>
<path fill="none" stroke="midnightblue" d="M1402.25,-75.5814C1414.25,-75.7551 1426.44,-75.9036 1438,-76 1511.78,-76.6148 1530.23,-76.6894 1604,-76 1612.57,-75.9199 1621.53,-75.8037 1630.45,-75.667"/>
<polygon fill="midnightblue" stroke="midnightblue" points="1630.55,-79.166 1640.5,-75.5049 1630.44,-72.1669 1630.55,-79.166"/>
</g>
<!-- Node23 -->
<g id="node23" class="node"><title>Node23</title>
<g id="a_node23"><a xlink:href="../../d9/dc5/classgui_1_1_turtle_image_chooser.html#a832fda79e80b22c6d9602340d8516739" target="_top" xlink:title="gui.TurtleImageChooser.choose\lTurtleImage">
<polygon fill="white" stroke="black" points="1438,-37 1438,-67 1604,-67 1604,-37 1438,-37"/>
<text text-anchor="start" x="1446" y="-55" font-family="Helvetica,sans-Serif" font-size="10.00">gui.TurtleImageChooser.choose</text>
<text text-anchor="middle" x="1521" y="-44" font-family="Helvetica,sans-Serif" font-size="10.00">TurtleImage</text>
</a>
</g>
</g>
<!-- Node21&#45;&gt;Node23 -->
<g id="edge22" class="edge"><title>Node21&#45;&gt;Node23</title>
<path fill="none" stroke="midnightblue" d="M1402.2,-64.8293C1410.68,-63.9056 1419.33,-62.9643 1427.89,-62.0322"/>
<polygon fill="midnightblue" stroke="midnightblue" points="1428.32,-65.5062 1437.88,-60.944 1427.56,-58.5473 1428.32,-65.5062"/>
</g>
<!-- Node23&#45;&gt;Node22 -->
<g id="edge23" class="edge"><title>Node23&#45;&gt;Node22</title>
<path fill="none" stroke="midnightblue" d="M1604.07,-61.5535C1612.74,-62.562 1621.54,-63.587 1630.19,-64.5938"/>
<polygon fill="midnightblue" stroke="midnightblue" points="1629.92,-68.0855 1640.26,-65.7653 1630.73,-61.1325 1629.92,-68.0855"/>
</g>
<!-- Node25 -->
<g id="node25" class="node"><title>Node25</title>
<g id="a_node25"><a xlink:href="../../df/dcc/classgui_1_1_turtle_view.html#a5a23d75671d39510283b6e38cbde3384" target="_top" xlink:title="gui.TurtleView.getTurtleInfo">
<polygon fill="white" stroke="black" points="1048,-20.5 1048,-39.5 1190,-39.5 1190,-20.5 1048,-20.5"/>
<text text-anchor="middle" x="1119" y="-27.5" font-family="Helvetica,sans-Serif" font-size="10.00">gui.TurtleView.getTurtleInfo</text>
</a>
</g>
</g>
<!-- Node24&#45;&gt;Node25 -->
<g id="edge25" class="edge"><title>Node24&#45;&gt;Node25</title>
<path fill="none" stroke="midnightblue" d="M976.179,-30C995.603,-30 1017.25,-30 1037.66,-30"/>
<polygon fill="midnightblue" stroke="midnightblue" points="1037.88,-33.5001 1047.88,-30 1037.88,-26.5001 1037.88,-33.5001"/>
</g>
<!-- Node28 -->
<g id="node28" class="node"><title>Node28</title>
<g id="a_node28"><a xlink:href="../../d6/d2f/classgui_1_1_g_u_i.html#aa7c8117389f5932512d005ca752d0b6d" target="_top" xlink:title="gui.GUI.initializeTextField">
<polygon fill="white" stroke="black" points="396,-114.5 396,-133.5 528,-133.5 528,-114.5 396,-114.5"/>
<text text-anchor="middle" x="462" y="-121.5" font-family="Helvetica,sans-Serif" font-size="10.00">gui.GUI.initializeTextField</text>
</a>
</g>
</g>
<!-- Node27&#45;&gt;Node28 -->
<g id="edge28" class="edge"><title>Node27&#45;&gt;Node28</title>
<path fill="none" stroke="midnightblue" d="M301.897,-158.462C317.811,-155.191 335.688,-151.477 352,-148 370.383,-144.081 390.485,-139.686 408.363,-135.739"/>
<polygon fill="midnightblue" stroke="midnightblue" points="409.313,-139.113 418.321,-133.536 407.801,-132.279 409.313,-139.113"/>
</g>
</g>
</svg>
        <g id="navigator" transform="translate(0 0)" fill="#404254">
                <rect fill="#f2f5e9" fill-opacity="0.5" stroke="#606060" stroke-width=".5" x="0" y="0" width="60" height="60"/>
                <use id="zoomplus" xlink:href="#zoomPlus" x="17" y="9" onmousedown="handleZoom(evt,'in')"/>
                <use id="zoomminus" xlink:href="#zoomMin" x="42" y="9" onmousedown="handleZoom(evt,'out')"/>
                <use id="reset" xlink:href="#resetDef" x="30" y="36" onmousedown="handleReset()"/>
                <g id="arrowUp" xlink:href="#dirArrow" transform="translate(30 24)" onmousedown="handlePan(0,-1)">
                  <use xlink:href="#rim" fill="#404040">
                        <set attributeName="fill" to="#808080" begin="arrowUp.mouseover" end="arrowUp.mouseout"/>
                  </use>
                  <path fill="none" stroke="white" stroke-width="1.5" d="M0,-3.0v7 M-2.5,-0.5L0,-3.0L2.5,-0.5"/>
                </g>
                <g id="arrowRight" xlink:href="#dirArrow" transform="rotate(90) translate(36 -43)" onmousedown="handlePan(1,0)">
                  <use xlink:href="#rim" fill="#404040">
                        <set attributeName="fill" to="#808080" begin="arrowRight.mouseover" end="arrowRight.mouseout"/>
                  </use>
                  <path fill="none" stroke="white" stroke-width="1.5" d="M0,-3.0v7 M-2.5,-0.5L0,-3.0L2.5,-0.5"/>
                </g>
                <g id="arrowDown" xlink:href="#dirArrow" transform="rotate(180) translate(-30 -48)" onmousedown="handlePan(0,1)">
                  <use xlink:href="#rim" fill="#404040">
                        <set attributeName="fill" to="#808080" begin="arrowDown.mouseover" end="arrowDown.mouseout"/>
                  </use>
                  <path fill="none" stroke="white" stroke-width="1.5" d="M0,-3.0v7 M-2.5,-0.5L0,-3.0L2.5,-0.5"/>
                </g>
                <g id="arrowLeft" xlink:href="#dirArrow" transform="rotate(270) translate(-36 17)" onmousedown="handlePan(-1,0)">
                  <use xlink:href="#rim" fill="#404040">
                        <set attributeName="fill" to="#808080" begin="arrowLeft.mouseover" end="arrowLeft.mouseout"/>
                  </use>
                  <path fill="none" stroke="white" stroke-width="1.5" d="M0,-3.0v7 M-2.5,-0.5L0,-3.0L2.5,-0.5"/>
                </g>
        </g>
        <svg viewBox="0 0 15 15" width="100%" height="30px" preserveAspectRatio="xMaxYMin meet">
         <g id="arrow_out" transform="scale(0.3 0.3)">
          <a xlink:href="classapplication_1_1_main_a998d14807e266e3f3b9e85468fc1ea98_cgraph_org.svg" target="_base">
           <rect id="button" ry="5" rx="5" y="6" x="6" height="38" width="38"
                fill="#f2f5e9" fill-opacity="0.5" stroke="#606060" stroke-width="1.0"/>
           <path id="arrow"
             d="M 11.500037,31.436501 C 11.940474,20.09759 22.043105,11.32322 32.158766,21.979434 L 37.068811,17.246167 C 37.068811,17.246167 37.088388,32 37.088388,32 L 22.160133,31.978069 C 22.160133,31.978069 26.997745,27.140456 26.997745,27.140456 C 18.528582,18.264221 13.291696,25.230495 11.500037,31.436501 z"
             style="fill:#404040;"/>
          </a>
         </g>
        </svg>
</svg>
