<?xml version="1.0" encoding="UTF-8" standalone="no"?>
<!DOCTYPE svg PUBLIC "-//W3C//DTD SVG 1.1//EN"
 "http://www.w3.org/Graphics/SVG/1.1/DTD/svg11.dtd">
<!-- Generated by graphviz version 2.36.0 (20140111.2315)
 -->
<!-- Title: commands.arithmeticCommands.Or Pages: 1 -->
<svg width="200pt" height="220pt"
 viewBox="0.00 0.00 200.00 220.00" xmlns="http://www.w3.org/2000/svg" xmlns:xlink="http://www.w3.org/1999/xlink">
<g id="graph0" class="graph" transform="scale(1 1) rotate(0) translate(4 216)">
<title>commands.arithmeticCommands.Or</title>
<polygon fill="white" stroke="none" points="-4,4 -4,-216 196,-216 196,4 -4,4"/>
<!-- Node1 -->
<g id="node1" class="node"><title>Node1</title>
<polygon fill="#bfbfbf" stroke="black" points="0,-0.5 0,-19.5 192,-19.5 192,-0.5 0,-0.5"/>
<text text-anchor="middle" x="96" y="-7.5" font-family="Helvetica,sans-Serif" font-size="10.00">commands.arithmeticCommands.Or</text>
</g>
<!-- Node2 -->
<g id="node2" class="node"><title>Node2</title>
<g id="a_node2"><a xlink:href="../../d4/d06/classcommands_1_1arithmetic_commands_1_1_compare.html" target="_top" xlink:title="commands.arithmeticCommands.\lCompare">
<polygon fill="white" stroke="black" points="5.5,-57 5.5,-87 186.5,-87 186.5,-57 5.5,-57"/>
<text text-anchor="start" x="13.5" y="-75" font-family="Helvetica,sans-Serif" font-size="10.00">commands.arithmeticCommands.</text>
<text text-anchor="middle" x="96" y="-64" font-family="Helvetica,sans-Serif" font-size="10.00">Compare</text>
</a>
</g>
</g>
<!-- Node2&#45;&gt;Node1 -->
<g id="edge1" class="edge"><title>Node2&#45;&gt;Node1</title>
<path fill="none" stroke="midnightblue" d="M96,-46.5858C96,-37.0743 96,-26.7864 96,-19.7305"/>
<polygon fill="midnightblue" stroke="midnightblue" points="92.5001,-46.7808 96,-56.7808 99.5001,-46.7809 92.5001,-46.7808"/>
</g>
<!-- Node3 -->
<g id="node3" class="node"><title>Node3</title>
<g id="a_node3"><a xlink:href="../../dc/d3e/classcommands_1_1_command_center.html" target="_top" xlink:title="commands.CommandCenter">
<polygon fill="white" stroke="black" points="18,-124.5 18,-143.5 174,-143.5 174,-124.5 18,-124.5"/>
<text text-anchor="middle" x="96" y="-131.5" font-family="Helvetica,sans-Serif" font-size="10.00">commands.CommandCenter</text>
</a>
</g>
</g>
<!-- Node3&#45;&gt;Node2 -->
<g id="edge2" class="edge"><title>Node3&#45;&gt;Node2</title>
<path fill="none" stroke="midnightblue" d="M96,-114.371C96,-105.585 96,-95.2721 96,-87.1408"/>
<polygon fill="midnightblue" stroke="midnightblue" points="92.5001,-114.403 96,-124.403 99.5001,-114.403 92.5001,-114.403"/>
</g>
<!-- Node4 -->
<g id="node4" class="node"><title>Node4</title>
<g id="a_node4"><a xlink:href="../../d1/d4d/interfacecommands_1_1view_commands_1_1turtle_commands_1_1_executable.html" target="_top" xlink:title="commands.viewCommands.turtle\lCommands.Executable">
<polygon fill="white" stroke="black" points="7,-181 7,-211 185,-211 185,-181 7,-181"/>
<text text-anchor="start" x="15" y="-199" font-family="Helvetica,sans-Serif" font-size="10.00">commands.viewCommands.turtle</text>
<text text-anchor="middle" x="96" y="-188" font-family="Helvetica,sans-Serif" font-size="10.00">Commands.Executable</text>
</a>
</g>
</g>
<!-- Node4&#45;&gt;Node3 -->
<g id="edge3" class="edge"><title>Node4&#45;&gt;Node3</title>
<path fill="none" stroke="midnightblue" d="M96,-170.586C96,-161.074 96,-150.786 96,-143.731"/>
<polygon fill="midnightblue" stroke="midnightblue" points="92.5001,-170.781 96,-180.781 99.5001,-170.781 92.5001,-170.781"/>
</g>
</g>
</svg>
