<?xml version="1.0" encoding="UTF-8" standalone="no"?>
<!DOCTYPE svg PUBLIC "-//W3C//DTD SVG 1.1//EN"
 "http://www.w3.org/Graphics/SVG/1.1/DTD/svg11.dtd">
<!-- Generated by graphviz version 2.36.0 (20140111.2315)
 -->
<!-- Title: commands.viewCommands.PenDown Pages: 1 -->
<!--zoomable 394 -->
<svg id="main" version="1.1" xmlns="http://www.w3.org/2000/svg" xmlns:xlink="http://www.w3.org/1999/xlink" xml:space="preserve" onload="init(evt)">
<style type="text/css"><![CDATA[
.edge:hover path { stroke: red; }
.edge:hover polygon { stroke: red; fill: red; }
]]></style>
<script type="text/javascript"><![CDATA[
var edges = document.getElementsByTagName('g');
if (edges && edges.length) {
  for (var i=0;i<edges.length;i++) {
    if (edges[i].id.substr(0,4)=='edge') {
      edges[i].setAttribute('class','edge');
    }
  }
}
]]></script>
        <defs>
                <circle id="rim" cx="0" cy="0" r="7"/>
                <circle id="rim2" cx="0" cy="0" r="3.5"/>
                <g id="zoomPlus">
                        <use xlink:href="#rim" fill="#404040">
                                <set attributeName="fill" to="#808080" begin="zoomplus.mouseover" end="zoomplus.mouseout"/>
                        </use>
                        <path d="M-4,0h8M0,-4v8" fill="none" stroke="white" stroke-width="1.5" pointer-events="none"/>
                </g>
                <g id="zoomMin">
                        <use xlink:href="#rim" fill="#404040">
                                <set attributeName="fill" to="#808080" begin="zoomminus.mouseover" end="zoomminus.mouseout"/>
                        </use>
                        <path d="M-4,0h8" fill="none" stroke="white" stroke-width="1.5" pointer-events="none"/>
                </g>
                <g id="dirArrow">
                        <path fill="none" stroke="white" stroke-width="1.5" d="M0,-3.0v7 M-2.5,-0.5L0,-3.0L2.5,-0.5"/>
                </g>
               <g id="resetDef">
                       <use xlink:href="#rim2" fill="#404040">
                               <set attributeName="fill" to="#808080" begin="reset.mouseover" end="reset.mouseout"/>
                       </use>
               </g>
        </defs>

<script type="text/javascript">
var viewWidth = 787;
var viewHeight = 394;
var sectionId = 'dynsection-1';
</script>
<script xlink:href="../../svgpan.js"/>
<svg id="graph" class="graph">
<g id="viewport">
<title>commands.viewCommands.PenDown</title>
<polygon fill="white" stroke="none" points="-4,4 -4,-390 783,-390 783,4 -4,4"/>
<!-- Node1 -->
<g id="node1" class="node"><title>Node1</title>
<polygon fill="#bfbfbf" stroke="black" points="153.5,-0.5 153.5,-19.5 350.5,-19.5 350.5,-0.5 153.5,-0.5"/>
<text text-anchor="middle" x="252" y="-7.5" font-family="Helvetica,sans-Serif" font-size="10.00">commands.viewCommands.PenDown</text>
</g>
<!-- Node2 -->
<g id="node2" class="node"><title>Node2</title>
<g id="a_node2"><a xlink:href="../../df/d8d/classcommands_1_1view_commands_1_1_view_commands.html" target="_top" xlink:title="commands.viewCommands.View\lCommands">
<polygon fill="white" stroke="black" points="165,-59 165,-89 339,-89 339,-59 165,-59"/>
<text text-anchor="start" x="173" y="-77" font-family="Helvetica,sans-Serif" font-size="10.00">commands.viewCommands.View</text>
<text text-anchor="middle" x="252" y="-66" font-family="Helvetica,sans-Serif" font-size="10.00">Commands</text>
</a>
</g>
</g>
<!-- Node2&#45;&gt;Node1 -->
<g id="edge1" class="edge"><title>Node2&#45;&gt;Node1</title>
<path fill="none" stroke="midnightblue" d="M252,-48.8706C252,-38.6625 252,-27.4077 252,-19.8419"/>
<polygon fill="midnightblue" stroke="midnightblue" points="248.5,-48.9312 252,-58.9312 255.5,-48.9313 248.5,-48.9312"/>
</g>
<!-- Node3 -->
<g id="node3" class="node"><title>Node3</title>
<g id="a_node3"><a xlink:href="../../dc/d3e/classcommands_1_1_command_center.html" target="_top" xlink:title="commands.CommandCenter">
<polygon fill="white" stroke="black" points="60,-138.5 60,-157.5 216,-157.5 216,-138.5 60,-138.5"/>
<text text-anchor="middle" x="138" y="-145.5" font-family="Helvetica,sans-Serif" font-size="10.00">commands.CommandCenter</text>
</a>
</g>
</g>
<!-- Node3&#45;&gt;Node2 -->
<g id="edge2" class="edge"><title>Node3&#45;&gt;Node2</title>
<path fill="none" stroke="midnightblue" d="M160.25,-132.948C180.224,-120.332 209.406,-101.902 229.467,-89.2316"/>
<polygon fill="midnightblue" stroke="midnightblue" points="158.111,-130.159 151.525,-138.458 161.849,-136.077 158.111,-130.159"/>
</g>
<!-- Node4 -->
<g id="node4" class="node"><title>Node4</title>
<g id="a_node4"><a xlink:href="../../d1/d4d/interfacecommands_1_1view_commands_1_1turtle_commands_1_1_executable.html" target="_top" xlink:title="commands.viewCommands.turtle\lCommands.Executable">
<polygon fill="white" stroke="black" points="0,-207 0,-237 178,-237 178,-207 0,-207"/>
<text text-anchor="start" x="8" y="-225" font-family="Helvetica,sans-Serif" font-size="10.00">commands.viewCommands.turtle</text>
<text text-anchor="middle" x="89" y="-214" font-family="Helvetica,sans-Serif" font-size="10.00">Commands.Executable</text>
</a>
</g>
</g>
<!-- Node4&#45;&gt;Node3 -->
<g id="edge3" class="edge"><title>Node4&#45;&gt;Node3</title>
<path fill="none" stroke="midnightblue" d="M104.467,-198.273C113.827,-184.52 125.232,-167.762 132.039,-157.759"/>
<polygon fill="midnightblue" stroke="midnightblue" points="101.414,-196.539 98.6808,-206.775 107.201,-200.477 101.414,-196.539"/>
</g>
<!-- Node5 -->
<g id="node5" class="node"><title>Node5</title>
<polygon fill="white" stroke="#bfbfbf" points="196,-212.5 196,-231.5 308,-231.5 308,-212.5 196,-212.5"/>
<text text-anchor="middle" x="252" y="-219.5" font-family="Helvetica,sans-Serif" font-size="10.00">ArrayList&lt; Object &gt;</text>
</g>
<!-- Node5&#45;&gt;Node2 -->
<g id="edge17" class="edge"><title>Node5&#45;&gt;Node2</title>
<path fill="none" stroke="#9a32cd" stroke-dasharray="5,2" d="M252,-202.057C252,-172.394 252,-115.643 252,-89.2066"/>
<polygon fill="#9a32cd" stroke="#9a32cd" points="248.5,-202.304 252,-212.304 255.5,-202.304 248.5,-202.304"/>
<text text-anchor="middle" x="272" y="-145.5" font-family="Helvetica,sans-Serif" font-size="10.00"> params</text>
</g>
<!-- Node5&#45;&gt;Node3 -->
<g id="edge4" class="edge"><title>Node5&#45;&gt;Node3</title>
<path fill="none" stroke="#9a32cd" stroke-dasharray="5,2" d="M217.665,-208.661C204.698,-203.252 190.152,-196.244 178,-188 165.158,-179.288 152.744,-166.231 145.239,-157.664"/>
<polygon fill="#9a32cd" stroke="#9a32cd" points="216.623,-212.014 227.208,-212.48 219.224,-205.515 216.623,-212.014"/>
<text text-anchor="middle" x="208" y="-179.5" font-family="Helvetica,sans-Serif" font-size="10.00"> parameters</text>
</g>
<!-- Node6 -->
<g id="node6" class="node"><title>Node6</title>
<g id="a_node6"><a xlink:href="../../df/dcb/classapplication_1_1_pen_handler.html" target="_top" xlink:title="application.PenHandler">
<polygon fill="white" stroke="black" points="310.5,-138.5 310.5,-157.5 437.5,-157.5 437.5,-138.5 310.5,-138.5"/>
<text text-anchor="middle" x="374" y="-145.5" font-family="Helvetica,sans-Serif" font-size="10.00">application.PenHandler</text>
</a>
</g>
</g>
<!-- Node6&#45;&gt;Node2 -->
<g id="edge5" class="edge"><title>Node6&#45;&gt;Node2</title>
<path fill="none" stroke="#9a32cd" stroke-dasharray="5,2" d="M350.767,-133.289C329.379,-120.666 297.778,-102.016 276.115,-89.2316"/>
<polygon fill="#9a32cd" stroke="#9a32cd" points="349.135,-136.39 359.526,-138.458 352.693,-130.361 349.135,-136.39"/>
<text text-anchor="middle" x="344" y="-111.5" font-family="Helvetica,sans-Serif" font-size="10.00"> myPH</text>
</g>
<!-- Node7 -->
<g id="node7" class="node"><title>Node7</title>
<g id="a_node7"><a xlink:href="../../de/d5a/classapplication_1_1_pen.html" target="_top" xlink:title="application.Pen">
<polygon fill="white" stroke="black" points="327.5,-212.5 327.5,-231.5 416.5,-231.5 416.5,-212.5 327.5,-212.5"/>
<text text-anchor="middle" x="372" y="-219.5" font-family="Helvetica,sans-Serif" font-size="10.00">application.Pen</text>
</a>
</g>
</g>
<!-- Node7&#45;&gt;Node6 -->
<g id="edge6" class="edge"><title>Node7&#45;&gt;Node6</title>
<path fill="none" stroke="#9a32cd" stroke-dasharray="5,2" d="M372.523,-202.156C372.925,-187.712 373.459,-168.459 373.763,-157.531"/>
<polygon fill="#9a32cd" stroke="#9a32cd" points="369.016,-202.365 372.237,-212.458 376.014,-202.559 369.016,-202.365"/>
<text text-anchor="middle" x="392.5" y="-179.5" font-family="Helvetica,sans-Serif" font-size="10.00"> myPen</text>
</g>
<!-- Node8 -->
<g id="node8" class="node"><title>Node8</title>
<polygon fill="white" stroke="#bfbfbf" points="127,-287.5 127,-306.5 251,-306.5 251,-287.5 127,-287.5"/>
<text text-anchor="middle" x="189" y="-294.5" font-family="Helvetica,sans-Serif" font-size="10.00">Map&lt; Integer, Color &gt;</text>
</g>
<!-- Node8&#45;&gt;Node7 -->
<g id="edge7" class="edge"><title>Node8&#45;&gt;Node7</title>
<path fill="none" stroke="#9a32cd" stroke-dasharray="5,2" d="M206.607,-281.133C217.383,-272.696 231.792,-262.547 246,-256 275.175,-242.556 284.929,-246.156 316,-238 323.885,-235.93 332.387,-233.668 340.326,-231.543"/>
<polygon fill="#9a32cd" stroke="#9a32cd" points="204.393,-278.421 198.817,-287.43 208.794,-283.865 204.393,-278.421"/>
<text text-anchor="middle" x="290" y="-259.5" font-family="Helvetica,sans-Serif" font-size="10.00"> myPaletteOptions</text>
</g>
<!-- Node9 -->
<g id="node9" class="node"><title>Node9</title>
<g id="a_node9"><a xlink:href="../../d0/d9b/enumapplication_1_1_pen_1_1_p_e_n_s_t_y_l_e.html" target="_top" xlink:title="application.Pen.PENSTYLE">
<polygon fill="white" stroke="black" points="269,-287.5 269,-306.5 409,-306.5 409,-287.5 269,-287.5"/>
<text text-anchor="middle" x="339" y="-294.5" font-family="Helvetica,sans-Serif" font-size="10.00">application.Pen.PENSTYLE</text>
</a>
</g>
</g>
<!-- Node9&#45;&gt;Node7 -->
<g id="edge8" class="edge"><title>Node9&#45;&gt;Node7</title>
<path fill="none" stroke="#9a32cd" stroke-dasharray="5,2" d="M336.67,-276.925C336.552,-270.093 337.278,-262.483 340,-256 344.14,-246.14 352.713,-237.561 359.945,-231.623"/>
<polygon fill="#9a32cd" stroke="#9a32cd" points="333.214,-277.645 337.459,-287.352 340.194,-277.116 333.214,-277.645"/>
<text text-anchor="middle" x="361.5" y="-259.5" font-family="Helvetica,sans-Serif" font-size="10.00"> myStyle</text>
</g>
<!-- Node10 -->
<g id="node10" class="node"><title>Node10</title>
<polygon fill="white" stroke="#bfbfbf" points="432.5,-287.5 432.5,-306.5 473.5,-306.5 473.5,-287.5 432.5,-287.5"/>
<text text-anchor="middle" x="453" y="-294.5" font-family="Helvetica,sans-Serif" font-size="10.00">Color</text>
</g>
<!-- Node10&#45;&gt;Node7 -->
<g id="edge9" class="edge"><title>Node10&#45;&gt;Node7</title>
<path fill="none" stroke="#9a32cd" stroke-dasharray="5,2" d="M425.877,-282.257C419.024,-278.154 411.934,-273.316 406,-268 393.893,-257.154 383.191,-241.453 377.163,-231.753"/>
<polygon fill="#9a32cd" stroke="#9a32cd" points="424.514,-285.506 434.943,-287.372 427.953,-279.409 424.514,-285.506"/>
<text text-anchor="middle" x="427.5" y="-259.5" font-family="Helvetica,sans-Serif" font-size="10.00"> myColor</text>
</g>
<!-- Node11 -->
<g id="node11" class="node"><title>Node11</title>
<g id="a_node11"><a xlink:href="../../d8/ddb/classgui_1_1_line_view.html" target="_top" xlink:title="gui.LineView">
<polygon fill="white" stroke="black" points="556.5,-212.5 556.5,-231.5 631.5,-231.5 631.5,-212.5 556.5,-212.5"/>
<text text-anchor="middle" x="594" y="-219.5" font-family="Helvetica,sans-Serif" font-size="10.00">gui.LineView</text>
</a>
</g>
</g>
<!-- Node10&#45;&gt;Node11 -->
<g id="edge16" class="edge"><title>Node10&#45;&gt;Node11</title>
<path fill="none" stroke="#9a32cd" stroke-dasharray="5,2" d="M456.076,-277.443C458.225,-269.837 461.862,-261.538 468,-256 492.092,-234.262 528.765,-226.525 556.345,-223.923"/>
<polygon fill="#9a32cd" stroke="#9a32cd" points="452.621,-276.857 453.92,-287.372 459.462,-278.342 452.621,-276.857"/>
<text text-anchor="middle" x="522" y="-259.5" font-family="Helvetica,sans-Serif" font-size="10.00"> DEFAULT_PEN_COLOR</text>
</g>
<!-- Node11&#45;&gt;Node6 -->
<g id="edge10" class="edge"><title>Node11&#45;&gt;Node6</title>
<path fill="none" stroke="#9a32cd" stroke-dasharray="5,2" d="M558.391,-209.346C514.064,-194.839 439.41,-170.407 400.067,-157.531"/>
<polygon fill="#9a32cd" stroke="#9a32cd" points="557.307,-212.674 567.899,-212.458 559.484,-206.021 557.307,-212.674"/>
<text text-anchor="middle" x="521" y="-179.5" font-family="Helvetica,sans-Serif" font-size="10.00"> myLineView</text>
</g>
<!-- Node12 -->
<g id="node12" class="node"><title>Node12</title>
<g id="a_node12"><a xlink:href="../../d8/d8b/classgui_1_1_view.html" target="_top" xlink:title="gui.View">
<polygon fill="white" stroke="black" points="497,-287.5 497,-306.5 553,-306.5 553,-287.5 497,-287.5"/>
<text text-anchor="middle" x="525" y="-294.5" font-family="Helvetica,sans-Serif" font-size="10.00">gui.View</text>
</a>
</g>
</g>
<!-- Node12&#45;&gt;Node11 -->
<g id="edge11" class="edge"><title>Node12&#45;&gt;Node11</title>
<path fill="none" stroke="midnightblue" d="M560.766,-283.05C567.909,-279.12 574.802,-274.162 580,-268 588.863,-257.494 592.123,-241.397 593.316,-231.572"/>
<polygon fill="midnightblue" stroke="midnightblue" points="559.137,-279.951 551.694,-287.491 562.214,-286.238 559.137,-279.951"/>
</g>
<!-- Node13 -->
<g id="node13" class="node"><title>Node13</title>
<polygon fill="white" stroke="#bfbfbf" points="466,-366.5 466,-385.5 518,-385.5 518,-366.5 466,-366.5"/>
<text text-anchor="middle" x="492" y="-373.5" font-family="Helvetica,sans-Serif" font-size="10.00">Canvas</text>
</g>
<!-- Node13&#45;&gt;Node12 -->
<g id="edge12" class="edge"><title>Node13&#45;&gt;Node12</title>
<path fill="none" stroke="midnightblue" d="M495.806,-356.525C498.105,-347.128 501.476,-335.678 506,-326 509.184,-319.188 513.934,-312.188 517.888,-306.891"/>
<polygon fill="midnightblue" stroke="midnightblue" points="492.368,-355.86 493.594,-366.384 499.198,-357.392 492.368,-355.86"/>
</g>
<!-- Node14 -->
<g id="node14" class="node"><title>Node14</title>
<polygon fill="white" stroke="#bfbfbf" points="564,-366.5 564,-385.5 618,-385.5 618,-366.5 564,-366.5"/>
<text text-anchor="middle" x="591" y="-373.5" font-family="Helvetica,sans-Serif" font-size="10.00">Point2D</text>
</g>
<!-- Node14&#45;&gt;Node11 -->
<g id="edge15" class="edge"><title>Node14&#45;&gt;Node11</title>
<path fill="none" stroke="#9a32cd" stroke-dasharray="5,2" d="M601.598,-357.463C603.003,-354.404 604.224,-351.181 605,-348 615.425,-305.246 602.549,-252.136 596.653,-231.632"/>
<polygon fill="#9a32cd" stroke="#9a32cd" points="598.435,-355.957 596.799,-366.425 604.606,-359.262 598.435,-355.957"/>
<text text-anchor="middle" x="631" y="-300" font-family="Helvetica,sans-Serif" font-size="10.00"> newStart</text>
<text text-anchor="middle" x="631" y="-289" font-family="Helvetica,sans-Serif" font-size="10.00">newDest</text>
</g>
<!-- Node14&#45;&gt;Node12 -->
<g id="edge13" class="edge"><title>Node14&#45;&gt;Node12</title>
<path fill="none" stroke="#9a32cd" stroke-dasharray="5,2" d="M553.95,-367.767C543.164,-363.773 532.536,-357.584 526,-348 517.586,-335.663 520.027,-317.333 522.535,-306.632"/>
<polygon fill="#9a32cd" stroke="#9a32cd" points="553.197,-371.199 563.787,-370.852 555.292,-364.52 553.197,-371.199"/>
<text text-anchor="middle" x="565.5" y="-340" font-family="Helvetica,sans-Serif" font-size="10.00"> DEFAULT_POINT</text>
<text text-anchor="middle" x="565.5" y="-329" font-family="Helvetica,sans-Serif" font-size="10.00">newDest</text>
</g>
<!-- Node15 -->
<g id="node15" class="node"><title>Node15</title>
<polygon fill="white" stroke="#bfbfbf" points="683,-287.5 683,-306.5 779,-306.5 779,-287.5 683,-287.5"/>
<text text-anchor="middle" x="731" y="-294.5" font-family="Helvetica,sans-Serif" font-size="10.00">GraphicsContext</text>
</g>
<!-- Node15&#45;&gt;Node11 -->
<g id="edge14" class="edge"><title>Node15&#45;&gt;Node11</title>
<path fill="none" stroke="#9a32cd" stroke-dasharray="5,2" d="M705.91,-282.631C678.077,-267.8 633.982,-244.304 610.307,-231.689"/>
<polygon fill="#9a32cd" stroke="#9a32cd" points="704.545,-285.869 715.016,-287.483 707.837,-279.692 704.545,-285.869"/>
<text text-anchor="middle" x="694" y="-259.5" font-family="Helvetica,sans-Serif" font-size="10.00"> linesGC</text>
</g>
</g>
</svg>
        <g id="navigator" transform="translate(0 0)" fill="#404254">
                <rect fill="#f2f5e9" fill-opacity="0.5" stroke="#606060" stroke-width=".5" x="0" y="0" width="60" height="60"/>
                <use id="zoomplus" xlink:href="#zoomPlus" x="17" y="9" onmousedown="handleZoom(evt,'in')"/>
                <use id="zoomminus" xlink:href="#zoomMin" x="42" y="9" onmousedown="handleZoom(evt,'out')"/>
                <use id="reset" xlink:href="#resetDef" x="30" y="36" onmousedown="handleReset()"/>
                <g id="arrowUp" xlink:href="#dirArrow" transform="translate(30 24)" onmousedown="handlePan(0,-1)">
                  <use xlink:href="#rim" fill="#404040">
                        <set attributeName="fill" to="#808080" begin="arrowUp.mouseover" end="arrowUp.mouseout"/>
                  </use>
                  <path fill="none" stroke="white" stroke-width="1.5" d="M0,-3.0v7 M-2.5,-0.5L0,-3.0L2.5,-0.5"/>
                </g>
                <g id="arrowRight" xlink:href="#dirArrow" transform="rotate(90) translate(36 -43)" onmousedown="handlePan(1,0)">
                  <use xlink:href="#rim" fill="#404040">
                        <set attributeName="fill" to="#808080" begin="arrowRight.mouseover" end="arrowRight.mouseout"/>
                  </use>
                  <path fill="none" stroke="white" stroke-width="1.5" d="M0,-3.0v7 M-2.5,-0.5L0,-3.0L2.5,-0.5"/>
                </g>
                <g id="arrowDown" xlink:href="#dirArrow" transform="rotate(180) translate(-30 -48)" onmousedown="handlePan(0,1)">
                  <use xlink:href="#rim" fill="#404040">
                        <set attributeName="fill" to="#808080" begin="arrowDown.mouseover" end="arrowDown.mouseout"/>
                  </use>
                  <path fill="none" stroke="white" stroke-width="1.5" d="M0,-3.0v7 M-2.5,-0.5L0,-3.0L2.5,-0.5"/>
                </g>
                <g id="arrowLeft" xlink:href="#dirArrow" transform="rotate(270) translate(-36 17)" onmousedown="handlePan(-1,0)">
                  <use xlink:href="#rim" fill="#404040">
                        <set attributeName="fill" to="#808080" begin="arrowLeft.mouseover" end="arrowLeft.mouseout"/>
                  </use>
                  <path fill="none" stroke="white" stroke-width="1.5" d="M0,-3.0v7 M-2.5,-0.5L0,-3.0L2.5,-0.5"/>
                </g>
        </g>
        <svg viewBox="0 0 15 15" width="100%" height="30px" preserveAspectRatio="xMaxYMin meet">
         <g id="arrow_out" transform="scale(0.3 0.3)">
          <a xlink:href="classcommands_1_1view_commands_1_1_pen_down__coll__graph_org.svg" target="_base">
           <rect id="button" ry="5" rx="5" y="6" x="6" height="38" width="38"
                fill="#f2f5e9" fill-opacity="0.5" stroke="#606060" stroke-width="1.0"/>
           <path id="arrow"
             d="M 11.500037,31.436501 C 11.940474,20.09759 22.043105,11.32322 32.158766,21.979434 L 37.068811,17.246167 C 37.068811,17.246167 37.088388,32 37.088388,32 L 22.160133,31.978069 C 22.160133,31.978069 26.997745,27.140456 26.997745,27.140456 C 18.528582,18.264221 13.291696,25.230495 11.500037,31.436501 z"
             style="fill:#404040;"/>
          </a>
         </g>
        </svg>
</svg>
