<?xml version="1.0" encoding="UTF-8" standalone="no"?>
<!DOCTYPE svg PUBLIC "-//W3C//DTD SVG 1.1//EN"
 "http://www.w3.org/Graphics/SVG/1.1/DTD/svg11.dtd">
<!-- Generated by graphviz version 2.36.0 (20140111.2315)
 -->
<!-- Title: commands.viewCommands.turtleCommands.Rotate Pages: 1 -->
<svg width="1020pt" height="234pt"
 viewBox="0.00 0.00 1020.00 234.00" xmlns="http://www.w3.org/2000/svg" xmlns:xlink="http://www.w3.org/1999/xlink">
<g id="graph0" class="graph" transform="scale(1 1) rotate(0) translate(4 230)">
<title>commands.viewCommands.turtleCommands.Rotate</title>
<polygon fill="white" stroke="none" points="-4,4 -4,-230 1016,-230 1016,4 -4,4"/>
<!-- Node1 -->
<g id="node1" class="node"><title>Node1</title>
<polygon fill="#bfbfbf" stroke="black" points="620,-98 620,-128 798,-128 798,-98 620,-98"/>
<text text-anchor="start" x="628" y="-116" font-family="Helvetica,sans-Serif" font-size="10.00">commands.viewCommands.turtle</text>
<text text-anchor="middle" x="709" y="-105" font-family="Helvetica,sans-Serif" font-size="10.00">Commands.Rotate</text>
</g>
<!-- Node5 -->
<g id="node5" class="node"><title>Node5</title>
<g id="a_node5"><a xlink:href="../../df/d03/classcommands_1_1view_commands_1_1turtle_commands_1_1_go_towards_loc.html" target="_top" xlink:title="commands.viewCommands.turtle\lCommands.GoTowardsLoc">
<polygon fill="white" stroke="black" points="834,-196 834,-226 1012,-226 1012,-196 834,-196"/>
<text text-anchor="start" x="842" y="-214" font-family="Helvetica,sans-Serif" font-size="10.00">commands.viewCommands.turtle</text>
<text text-anchor="middle" x="923" y="-203" font-family="Helvetica,sans-Serif" font-size="10.00">Commands.GoTowardsLoc</text>
</a>
</g>
</g>
<!-- Node1&#45;&gt;Node5 -->
<g id="edge4" class="edge"><title>Node1&#45;&gt;Node5</title>
<path fill="none" stroke="midnightblue" d="M740.405,-133.881C764.823,-149.904 800.455,-171.642 834,-186 842.615,-189.687 851.933,-193.003 861.172,-195.922"/>
<polygon fill="midnightblue" stroke="midnightblue" points="742.207,-130.877 731.94,-128.261 738.335,-136.709 742.207,-130.877"/>
</g>
<!-- Node6 -->
<g id="node6" class="node"><title>Node6</title>
<g id="a_node6"><a xlink:href="../../da/d51/classcommands_1_1view_commands_1_1turtle_commands_1_1_left.html" target="_top" xlink:title="commands.viewCommands.turtle\lCommands.Left">
<polygon fill="white" stroke="black" points="834,-147 834,-177 1012,-177 1012,-147 834,-147"/>
<text text-anchor="start" x="842" y="-165" font-family="Helvetica,sans-Serif" font-size="10.00">commands.viewCommands.turtle</text>
<text text-anchor="middle" x="923" y="-154" font-family="Helvetica,sans-Serif" font-size="10.00">Commands.Left</text>
</a>
</g>
</g>
<!-- Node1&#45;&gt;Node6 -->
<g id="edge5" class="edge"><title>Node1&#45;&gt;Node6</title>
<path fill="none" stroke="midnightblue" d="M784.983,-130.331C808.52,-135.771 834.295,-141.729 857.075,-146.994"/>
<polygon fill="midnightblue" stroke="midnightblue" points="785.579,-126.877 775.048,-128.035 784.003,-133.697 785.579,-126.877"/>
</g>
<!-- Node7 -->
<g id="node7" class="node"><title>Node7</title>
<g id="a_node7"><a xlink:href="../../dc/d1a/classcommands_1_1view_commands_1_1turtle_commands_1_1_right.html" target="_top" xlink:title="commands.viewCommands.turtle\lCommands.Right">
<polygon fill="white" stroke="black" points="834,-98 834,-128 1012,-128 1012,-98 834,-98"/>
<text text-anchor="start" x="842" y="-116" font-family="Helvetica,sans-Serif" font-size="10.00">commands.viewCommands.turtle</text>
<text text-anchor="middle" x="923" y="-105" font-family="Helvetica,sans-Serif" font-size="10.00">Commands.Right</text>
</a>
</g>
</g>
<!-- Node1&#45;&gt;Node7 -->
<g id="edge6" class="edge"><title>Node1&#45;&gt;Node7</title>
<path fill="none" stroke="midnightblue" d="M808.107,-113C816.7,-113 825.363,-113 833.868,-113"/>
<polygon fill="midnightblue" stroke="midnightblue" points="808.065,-109.5 798.065,-113 808.065,-116.5 808.065,-109.5"/>
</g>
<!-- Node8 -->
<g id="node8" class="node"><title>Node8</title>
<g id="a_node8"><a xlink:href="../../df/ded/classcommands_1_1view_commands_1_1turtle_commands_1_1_set_heading.html" target="_top" xlink:title="commands.viewCommands.turtle\lCommands.SetHeading">
<polygon fill="white" stroke="black" points="834,-49 834,-79 1012,-79 1012,-49 834,-49"/>
<text text-anchor="start" x="842" y="-67" font-family="Helvetica,sans-Serif" font-size="10.00">commands.viewCommands.turtle</text>
<text text-anchor="middle" x="923" y="-56" font-family="Helvetica,sans-Serif" font-size="10.00">Commands.SetHeading</text>
</a>
</g>
</g>
<!-- Node1&#45;&gt;Node8 -->
<g id="edge7" class="edge"><title>Node1&#45;&gt;Node8</title>
<path fill="none" stroke="midnightblue" d="M784.983,-95.6691C808.52,-90.2288 834.295,-84.2715 857.075,-79.0062"/>
<polygon fill="midnightblue" stroke="midnightblue" points="784.003,-92.3033 775.048,-97.9654 785.579,-99.1235 784.003,-92.3033"/>
</g>
<!-- Node9 -->
<g id="node9" class="node"><title>Node9</title>
<g id="a_node9"><a xlink:href="../../d5/da3/classcommands_1_1view_commands_1_1turtle_commands_1_1_towards.html" target="_top" xlink:title="commands.viewCommands.turtle\lCommands.Towards">
<polygon fill="white" stroke="black" points="834,-0 834,-30 1012,-30 1012,-0 834,-0"/>
<text text-anchor="start" x="842" y="-18" font-family="Helvetica,sans-Serif" font-size="10.00">commands.viewCommands.turtle</text>
<text text-anchor="middle" x="923" y="-7" font-family="Helvetica,sans-Serif" font-size="10.00">Commands.Towards</text>
</a>
</g>
</g>
<!-- Node1&#45;&gt;Node9 -->
<g id="edge8" class="edge"><title>Node1&#45;&gt;Node9</title>
<path fill="none" stroke="midnightblue" d="M739.876,-92.0069C764.258,-75.6685 800.098,-53.4194 834,-39 841.723,-35.715 850.021,-32.7616 858.323,-30.1431"/>
<polygon fill="midnightblue" stroke="midnightblue" points="737.746,-89.2224 731.436,-97.7334 741.677,-95.0148 737.746,-89.2224"/>
</g>
<!-- Node2 -->
<g id="node2" class="node"><title>Node2</title>
<g id="a_node2"><a xlink:href="../../d8/def/classcommands_1_1view_commands_1_1turtle_commands_1_1_turtle_commands.html" target="_top" xlink:title="commands.viewCommands.turtle\lCommands.TurtleCommands">
<polygon fill="white" stroke="black" points="406,-98 406,-128 584,-128 584,-98 406,-98"/>
<text text-anchor="start" x="414" y="-116" font-family="Helvetica,sans-Serif" font-size="10.00">commands.viewCommands.turtle</text>
<text text-anchor="middle" x="495" y="-105" font-family="Helvetica,sans-Serif" font-size="10.00">Commands.TurtleCommands</text>
</a>
</g>
</g>
<!-- Node2&#45;&gt;Node1 -->
<g id="edge1" class="edge"><title>Node2&#45;&gt;Node1</title>
<path fill="none" stroke="midnightblue" d="M594.107,-113C602.7,-113 611.363,-113 619.868,-113"/>
<polygon fill="midnightblue" stroke="midnightblue" points="594.065,-109.5 584.065,-113 594.065,-116.5 594.065,-109.5"/>
</g>
<!-- Node3 -->
<g id="node3" class="node"><title>Node3</title>
<g id="a_node3"><a xlink:href="../../dc/d3e/classcommands_1_1_command_center.html" target="_top" xlink:title="commands.CommandCenter">
<polygon fill="white" stroke="black" points="214,-103.5 214,-122.5 370,-122.5 370,-103.5 214,-103.5"/>
<text text-anchor="middle" x="292" y="-110.5" font-family="Helvetica,sans-Serif" font-size="10.00">commands.CommandCenter</text>
</a>
</g>
</g>
<!-- Node3&#45;&gt;Node2 -->
<g id="edge2" class="edge"><title>Node3&#45;&gt;Node2</title>
<path fill="none" stroke="midnightblue" d="M380.312,-113C388.718,-113 397.249,-113 405.665,-113"/>
<polygon fill="midnightblue" stroke="midnightblue" points="380.137,-109.5 370.137,-113 380.137,-116.5 380.137,-109.5"/>
</g>
<!-- Node4 -->
<g id="node4" class="node"><title>Node4</title>
<g id="a_node4"><a xlink:href="../../d1/d4d/interfacecommands_1_1view_commands_1_1turtle_commands_1_1_executable.html" target="_top" xlink:title="commands.viewCommands.turtle\lCommands.Executable">
<polygon fill="white" stroke="black" points="0,-98 0,-128 178,-128 178,-98 0,-98"/>
<text text-anchor="start" x="8" y="-116" font-family="Helvetica,sans-Serif" font-size="10.00">commands.viewCommands.turtle</text>
<text text-anchor="middle" x="89" y="-105" font-family="Helvetica,sans-Serif" font-size="10.00">Commands.Executable</text>
</a>
</g>
</g>
<!-- Node4&#45;&gt;Node3 -->
<g id="edge3" class="edge"><title>Node4&#45;&gt;Node3</title>
<path fill="none" stroke="midnightblue" d="M188.259,-113C196.882,-113 205.527,-113 213.94,-113"/>
<polygon fill="midnightblue" stroke="midnightblue" points="188.162,-109.5 178.162,-113 188.161,-116.5 188.162,-109.5"/>
</g>
</g>
</svg>
