<?xml version="1.0" encoding="UTF-8" standalone="no"?>
<!DOCTYPE svg PUBLIC "-//W3C//DTD SVG 1.1//EN"
 "http://www.w3.org/Graphics/SVG/1.1/DTD/svg11.dtd">
<!-- Generated by graphviz version 2.36.0 (20140111.2315)
 -->
<!-- Title: commands.arithmeticCommands.Arithmetic Pages: 1 -->
<svg width="832pt" height="224pt"
 viewBox="0.00 0.00 832.00 224.00" xmlns="http://www.w3.org/2000/svg" xmlns:xlink="http://www.w3.org/1999/xlink">
<g id="graph0" class="graph" transform="scale(1 1) rotate(0) translate(4 220)">
<title>commands.arithmeticCommands.Arithmetic</title>
<polygon fill="white" stroke="none" points="-4,4 -4,-220 828,-220 828,4 -4,4"/>
<!-- Node1 -->
<g id="node1" class="node"><title>Node1</title>
<polygon fill="#bfbfbf" stroke="black" points="406.5,-98 406.5,-128 587.5,-128 587.5,-98 406.5,-98"/>
<text text-anchor="start" x="414.5" y="-116" font-family="Helvetica,sans-Serif" font-size="10.00">commands.arithmeticCommands.</text>
<text text-anchor="middle" x="497" y="-105" font-family="Helvetica,sans-Serif" font-size="10.00">Arithmetic</text>
</g>
<!-- Node4 -->
<g id="node4" class="node"><title>Node4</title>
<g id="a_node4"><a xlink:href="../../d4/da1/classcommands_1_1arithmetic_commands_1_1_add.html" target="_top" xlink:title="commands.arithmeticCommands.Add">
<polygon fill="white" stroke="black" points="624,-196.5 624,-215.5 824,-215.5 824,-196.5 624,-196.5"/>
<text text-anchor="middle" x="724" y="-203.5" font-family="Helvetica,sans-Serif" font-size="10.00">commands.arithmeticCommands.Add</text>
</a>
</g>
</g>
<!-- Node1&#45;&gt;Node4 -->
<g id="edge3" class="edge"><title>Node1&#45;&gt;Node4</title>
<path fill="none" stroke="midnightblue" d="M527.751,-133.988C552.443,-150.462 589.049,-172.755 624,-186 635.396,-190.318 647.901,-193.766 660.073,-196.498"/>
<polygon fill="midnightblue" stroke="midnightblue" points="529.461,-130.919 519.218,-128.21 525.536,-136.715 529.461,-130.919"/>
</g>
<!-- Node5 -->
<g id="node5" class="node"><title>Node5</title>
<g id="a_node5"><a xlink:href="../../d6/d83/classcommands_1_1arithmetic_commands_1_1_divide.html" target="_top" xlink:title="commands.arithmeticCommands.\lDivide">
<polygon fill="white" stroke="black" points="633.5,-147 633.5,-177 814.5,-177 814.5,-147 633.5,-147"/>
<text text-anchor="start" x="641.5" y="-165" font-family="Helvetica,sans-Serif" font-size="10.00">commands.arithmeticCommands.</text>
<text text-anchor="middle" x="724" y="-154" font-family="Helvetica,sans-Serif" font-size="10.00">Divide</text>
</a>
</g>
</g>
<!-- Node1&#45;&gt;Node5 -->
<g id="edge4" class="edge"><title>Node1&#45;&gt;Node5</title>
<path fill="none" stroke="midnightblue" d="M576.912,-130.185C602.073,-135.665 629.701,-141.682 654.094,-146.994"/>
<polygon fill="midnightblue" stroke="midnightblue" points="577.552,-126.743 567.037,-128.035 576.063,-133.582 577.552,-126.743"/>
</g>
<!-- Node6 -->
<g id="node6" class="node"><title>Node6</title>
<g id="a_node6"><a xlink:href="../../dd/d58/classcommands_1_1arithmetic_commands_1_1_multiply.html" target="_top" xlink:title="commands.arithmeticCommands.\lMultiply">
<polygon fill="white" stroke="black" points="633.5,-98 633.5,-128 814.5,-128 814.5,-98 633.5,-98"/>
<text text-anchor="start" x="641.5" y="-116" font-family="Helvetica,sans-Serif" font-size="10.00">commands.arithmeticCommands.</text>
<text text-anchor="middle" x="724" y="-105" font-family="Helvetica,sans-Serif" font-size="10.00">Multiply</text>
</a>
</g>
</g>
<!-- Node1&#45;&gt;Node6 -->
<g id="edge5" class="edge"><title>Node1&#45;&gt;Node6</title>
<path fill="none" stroke="midnightblue" d="M597.893,-113C609.707,-113 621.709,-113 633.368,-113"/>
<polygon fill="midnightblue" stroke="midnightblue" points="597.572,-109.5 587.572,-113 597.572,-116.5 597.572,-109.5"/>
</g>
<!-- Node7 -->
<g id="node7" class="node"><title>Node7</title>
<g id="a_node7"><a xlink:href="../../dc/d90/classcommands_1_1arithmetic_commands_1_1_remainder.html" target="_top" xlink:title="commands.arithmeticCommands.\lRemainder">
<polygon fill="white" stroke="black" points="633.5,-49 633.5,-79 814.5,-79 814.5,-49 633.5,-49"/>
<text text-anchor="start" x="641.5" y="-67" font-family="Helvetica,sans-Serif" font-size="10.00">commands.arithmeticCommands.</text>
<text text-anchor="middle" x="724" y="-56" font-family="Helvetica,sans-Serif" font-size="10.00">Remainder</text>
</a>
</g>
</g>
<!-- Node1&#45;&gt;Node7 -->
<g id="edge6" class="edge"><title>Node1&#45;&gt;Node7</title>
<path fill="none" stroke="midnightblue" d="M576.912,-95.8146C602.073,-90.3353 629.701,-84.3185 654.094,-79.0062"/>
<polygon fill="midnightblue" stroke="midnightblue" points="576.063,-92.4176 567.037,-97.9654 577.552,-99.2572 576.063,-92.4176"/>
</g>
<!-- Node8 -->
<g id="node8" class="node"><title>Node8</title>
<g id="a_node8"><a xlink:href="../../dc/db7/classcommands_1_1arithmetic_commands_1_1_subtract.html" target="_top" xlink:title="commands.arithmeticCommands.\lSubtract">
<polygon fill="white" stroke="black" points="633.5,-0 633.5,-30 814.5,-30 814.5,-0 633.5,-0"/>
<text text-anchor="start" x="641.5" y="-18" font-family="Helvetica,sans-Serif" font-size="10.00">commands.arithmeticCommands.</text>
<text text-anchor="middle" x="724" y="-7" font-family="Helvetica,sans-Serif" font-size="10.00">Subtract</text>
</a>
</g>
</g>
<!-- Node1&#45;&gt;Node8 -->
<g id="edge7" class="edge"><title>Node1&#45;&gt;Node8</title>
<path fill="none" stroke="midnightblue" d="M527.849,-92.0673C552.598,-75.5661 589.232,-53.066 624,-39 632.361,-35.6174 641.32,-32.63 650.307,-30.0146"/>
<polygon fill="midnightblue" stroke="midnightblue" points="525.62,-89.3493 519.295,-97.8485 529.54,-95.1491 525.62,-89.3493"/>
</g>
<!-- Node2 -->
<g id="node2" class="node"><title>Node2</title>
<g id="a_node2"><a xlink:href="../../dc/d3e/classcommands_1_1_command_center.html" target="_top" xlink:title="commands.CommandCenter">
<polygon fill="white" stroke="black" points="214,-103.5 214,-122.5 370,-122.5 370,-103.5 214,-103.5"/>
<text text-anchor="middle" x="292" y="-110.5" font-family="Helvetica,sans-Serif" font-size="10.00">commands.CommandCenter</text>
</a>
</g>
</g>
<!-- Node2&#45;&gt;Node1 -->
<g id="edge1" class="edge"><title>Node2&#45;&gt;Node1</title>
<path fill="none" stroke="midnightblue" d="M380.164,-113C388.862,-113 397.703,-113 406.425,-113"/>
<polygon fill="midnightblue" stroke="midnightblue" points="380.035,-109.5 370.035,-113 380.035,-116.5 380.035,-109.5"/>
</g>
<!-- Node3 -->
<g id="node3" class="node"><title>Node3</title>
<g id="a_node3"><a xlink:href="../../d1/d4d/interfacecommands_1_1view_commands_1_1turtle_commands_1_1_executable.html" target="_top" xlink:title="commands.viewCommands.turtle\lCommands.Executable">
<polygon fill="white" stroke="black" points="0,-98 0,-128 178,-128 178,-98 0,-98"/>
<text text-anchor="start" x="8" y="-116" font-family="Helvetica,sans-Serif" font-size="10.00">commands.viewCommands.turtle</text>
<text text-anchor="middle" x="89" y="-105" font-family="Helvetica,sans-Serif" font-size="10.00">Commands.Executable</text>
</a>
</g>
</g>
<!-- Node3&#45;&gt;Node2 -->
<g id="edge2" class="edge"><title>Node3&#45;&gt;Node2</title>
<path fill="none" stroke="midnightblue" d="M188.259,-113C196.882,-113 205.527,-113 213.94,-113"/>
<polygon fill="midnightblue" stroke="midnightblue" points="188.162,-109.5 178.162,-113 188.161,-116.5 188.162,-109.5"/>
</g>
</g>
</svg>
