<?xml version="1.0" encoding="UTF-8" standalone="no"?>
<!DOCTYPE svg PUBLIC "-//W3C//DTD SVG 1.1//EN"
 "http://www.w3.org/Graphics/SVG/1.1/DTD/svg11.dtd">
<!-- Generated by graphviz version 2.36.0 (20140111.2315)
 -->
<!-- Title: commands.viewCommands.turtleCommands.Move.changeLocation Pages: 1 -->
<!--zoomable 597 -->
<svg id="main" version="1.1" xmlns="http://www.w3.org/2000/svg" xmlns:xlink="http://www.w3.org/1999/xlink" xml:space="preserve" onload="init(evt)">
<style type="text/css"><![CDATA[
.edge:hover path { stroke: red; }
.edge:hover polygon { stroke: red; fill: red; }
]]></style>
<script type="text/javascript"><![CDATA[
var edges = document.getElementsByTagName('g');
if (edges && edges.length) {
  for (var i=0;i<edges.length;i++) {
    if (edges[i].id.substr(0,4)=='edge') {
      edges[i].setAttribute('class','edge');
    }
  }
}
]]></script>
        <defs>
                <circle id="rim" cx="0" cy="0" r="7"/>
                <circle id="rim2" cx="0" cy="0" r="3.5"/>
                <g id="zoomPlus">
                        <use xlink:href="#rim" fill="#404040">
                                <set attributeName="fill" to="#808080" begin="zoomplus.mouseover" end="zoomplus.mouseout"/>
                        </use>
                        <path d="M-4,0h8M0,-4v8" fill="none" stroke="white" stroke-width="1.5" pointer-events="none"/>
                </g>
                <g id="zoomMin">
                        <use xlink:href="#rim" fill="#404040">
                                <set attributeName="fill" to="#808080" begin="zoomminus.mouseover" end="zoomminus.mouseout"/>
                        </use>
                        <path d="M-4,0h8" fill="none" stroke="white" stroke-width="1.5" pointer-events="none"/>
                </g>
                <g id="dirArrow">
                        <path fill="none" stroke="white" stroke-width="1.5" d="M0,-3.0v7 M-2.5,-0.5L0,-3.0L2.5,-0.5"/>
                </g>
               <g id="resetDef">
                       <use xlink:href="#rim2" fill="#404040">
                               <set attributeName="fill" to="#808080" begin="reset.mouseover" end="reset.mouseout"/>
                       </use>
               </g>
        </defs>

<script type="text/javascript">
var viewWidth = 1540;
var viewHeight = 597;
var sectionId = 'dynsection-2';
</script>
<script xlink:href="../../svgpan.js"/>
<svg id="graph" class="graph">
<g id="viewport">
<title>commands.viewCommands.turtleCommands.Move.changeLocation</title>
<polygon fill="white" stroke="none" points="-4,4 -4,-593 1536,-593 1536,4 -4,4"/>
<!-- Node1 -->
<g id="node1" class="node"><title>Node1</title>
<polygon fill="#bfbfbf" stroke="black" points="0.5,-289 0.5,-319 179.5,-319 179.5,-289 0.5,-289"/>
<text text-anchor="start" x="8.5" y="-307" font-family="Helvetica,sans-Serif" font-size="10.00">commands.viewCommands.turtle</text>
<text text-anchor="middle" x="90" y="-296" font-family="Helvetica,sans-Serif" font-size="10.00">Commands.Move.changeLocation</text>
</g>
<!-- Node2 -->
<g id="node2" class="node"><title>Node2</title>
<g id="a_node2"><a xlink:href="../../d8/d65/classapplication_1_1_view_handler.html#a1a94c855ceb0e8ffb1f72f138addb75b" target="_top" xlink:title="application.ViewHandler.move\lTurtle">
<polygon fill="white" stroke="black" points="216,-289 216,-319 376,-319 376,-289 216,-289"/>
<text text-anchor="start" x="224" y="-307" font-family="Helvetica,sans-Serif" font-size="10.00">application.ViewHandler.move</text>
<text text-anchor="middle" x="296" y="-296" font-family="Helvetica,sans-Serif" font-size="10.00">Turtle</text>
</a>
</g>
</g>
<!-- Node1&#45;&gt;Node2 -->
<g id="edge1" class="edge"><title>Node1&#45;&gt;Node2</title>
<path fill="none" stroke="midnightblue" d="M179.587,-304C188.243,-304 197.03,-304 205.693,-304"/>
<polygon fill="midnightblue" stroke="midnightblue" points="205.791,-307.5 215.791,-304 205.791,-300.5 205.791,-307.5"/>
</g>
<!-- Node3 -->
<g id="node3" class="node"><title>Node3</title>
<g id="a_node3"><a xlink:href="../../d1/d31/classapplication_1_1_turtle.html#a802873f2487ab3b6832050e1bef998a5" target="_top" xlink:title="application.Turtle.getLoc">
<polygon fill="white" stroke="black" points="1205,-541.5 1205,-560.5 1337,-560.5 1337,-541.5 1205,-541.5"/>
<text text-anchor="middle" x="1271" y="-548.5" font-family="Helvetica,sans-Serif" font-size="10.00">application.Turtle.getLoc</text>
</a>
</g>
</g>
<!-- Node2&#45;&gt;Node3 -->
<g id="edge2" class="edge"><title>Node2&#45;&gt;Node3</title>
<path fill="none" stroke="midnightblue" d="M307.165,-319.323C347.785,-378.52 505.271,-589 691,-589 691,-589 691,-589 887,-589 997.151,-589 1124.26,-573.243 1200.8,-562.022"/>
<polygon fill="midnightblue" stroke="midnightblue" points="1201.42,-565.468 1210.8,-560.54 1200.4,-558.544 1201.42,-565.468"/>
</g>
<!-- Node4 -->
<g id="node4" class="node"><title>Node4</title>
<g id="a_node4"><a xlink:href="../../d1/d31/classapplication_1_1_turtle.html#a31b38dbf77d9c28df932d048f26d9534" target="_top" xlink:title="application.Turtle.move">
<polygon fill="white" stroke="black" points="428.5,-201.5 428.5,-220.5 555.5,-220.5 555.5,-201.5 428.5,-201.5"/>
<text text-anchor="middle" x="492" y="-208.5" font-family="Helvetica,sans-Serif" font-size="10.00">application.Turtle.move</text>
</a>
</g>
</g>
<!-- Node2&#45;&gt;Node4 -->
<g id="edge3" class="edge"><title>Node2&#45;&gt;Node4</title>
<path fill="none" stroke="midnightblue" d="M316.209,-288.736C338.165,-272.005 375.76,-245.489 412,-230 417.788,-227.526 423.959,-225.337 430.204,-223.409"/>
<polygon fill="midnightblue" stroke="midnightblue" points="431.384,-226.712 440.032,-220.591 429.454,-219.983 431.384,-226.712"/>
</g>
<!-- Node5 -->
<g id="node5" class="node"><title>Node5</title>
<g id="a_node5"><a xlink:href="../../d8/d65/classapplication_1_1_view_handler.html#a98b4ba09b3f3e8b1a7667db5598dbfb0" target="_top" xlink:title="application.ViewHandler.move\lTurtleImageAndDraw">
<polygon fill="white" stroke="black" points="412,-289 412,-319 572,-319 572,-289 412,-289"/>
<text text-anchor="start" x="420" y="-307" font-family="Helvetica,sans-Serif" font-size="10.00">application.ViewHandler.move</text>
<text text-anchor="middle" x="492" y="-296" font-family="Helvetica,sans-Serif" font-size="10.00">TurtleImageAndDraw</text>
</a>
</g>
</g>
<!-- Node2&#45;&gt;Node5 -->
<g id="edge4" class="edge"><title>Node2&#45;&gt;Node5</title>
<path fill="none" stroke="midnightblue" d="M376.187,-304C384.529,-304 393.054,-304 401.502,-304"/>
<polygon fill="midnightblue" stroke="midnightblue" points="401.752,-307.5 411.752,-304 401.752,-300.5 401.752,-307.5"/>
</g>
<!-- Node14 -->
<g id="node14" class="node"><title>Node14</title>
<g id="a_node14"><a xlink:href="../../d8/d65/classapplication_1_1_view_handler.html#ae489ceaa9b5ec67faf3ba22a11cec085" target="_top" xlink:title="application.ViewHandler.update\lTurtleOnView">
<polygon fill="white" stroke="black" points="608.5,-350 608.5,-380 775.5,-380 775.5,-350 608.5,-350"/>
<text text-anchor="start" x="616.5" y="-368" font-family="Helvetica,sans-Serif" font-size="10.00">application.ViewHandler.update</text>
<text text-anchor="middle" x="692" y="-357" font-family="Helvetica,sans-Serif" font-size="10.00">TurtleOnView</text>
</a>
</g>
</g>
<!-- Node2&#45;&gt;Node14 -->
<g id="edge42" class="edge"><title>Node2&#45;&gt;Node14</title>
<path fill="none" stroke="midnightblue" d="M364.949,-319.048C380.377,-322.223 396.72,-325.396 412,-328 473.896,-338.548 543.951,-347.829 598.379,-354.458"/>
<polygon fill="midnightblue" stroke="midnightblue" points="598.007,-357.938 608.355,-355.664 598.847,-350.989 598.007,-357.938"/>
</g>
<!-- Node29 -->
<g id="node29" class="node"><title>Node29</title>
<g id="a_node29"><a xlink:href="../../d8/d65/classapplication_1_1_view_handler.html#a0dd92f1869c84b869aa893f428ba149b" target="_top" xlink:title="application.ViewHandler.set\lTurtleLocToViewTurtleLoc">
<polygon fill="white" stroke="black" points="418,-240 418,-270 566,-270 566,-240 418,-240"/>
<text text-anchor="start" x="426" y="-258" font-family="Helvetica,sans-Serif" font-size="10.00">application.ViewHandler.set</text>
<text text-anchor="middle" x="492" y="-247" font-family="Helvetica,sans-Serif" font-size="10.00">TurtleLocToViewTurtleLoc</text>
</a>
</g>
</g>
<!-- Node2&#45;&gt;Node29 -->
<g id="edge37" class="edge"><title>Node2&#45;&gt;Node29</title>
<path fill="none" stroke="midnightblue" d="M356.525,-288.965C377.102,-283.768 400.337,-277.899 421.634,-272.52"/>
<polygon fill="midnightblue" stroke="midnightblue" points="422.749,-275.849 431.588,-270.006 421.035,-269.062 422.749,-275.849"/>
</g>
<!-- Node6 -->
<g id="node6" class="node"><title>Node6</title>
<g id="a_node6"><a xlink:href="../../d8/ddb/classgui_1_1_line_view.html#abe4c6727ecf95f07a0a7a68e4e7dcb40" target="_top" xlink:title="gui.LineView.drawLine">
<polygon fill="white" stroke="black" points="632.5,-174.5 632.5,-193.5 751.5,-193.5 751.5,-174.5 632.5,-174.5"/>
<text text-anchor="middle" x="692" y="-181.5" font-family="Helvetica,sans-Serif" font-size="10.00">gui.LineView.drawLine</text>
</a>
</g>
</g>
<!-- Node5&#45;&gt;Node6 -->
<g id="edge5" class="edge"><title>Node5&#45;&gt;Node6</title>
<path fill="none" stroke="midnightblue" d="M549.717,-288.854C557.392,-286.002 565.019,-282.724 572,-279 612.299,-257.5 652.408,-221.747 674.226,-200.774"/>
<polygon fill="midnightblue" stroke="midnightblue" points="676.691,-203.259 681.403,-193.77 671.802,-198.249 676.691,-203.259"/>
</g>
<!-- Node12 -->
<g id="node12" class="node"><title>Node12</title>
<g id="a_node12"><a xlink:href="../../df/dcb/classapplication_1_1_pen_handler.html#a8477a9a258753bb5538ad83a015fb731" target="_top" xlink:title="application.PenHandler.get\lPenStatus">
<polygon fill="white" stroke="black" points="1000.5,-267 1000.5,-297 1145.5,-297 1145.5,-267 1000.5,-267"/>
<text text-anchor="start" x="1008.5" y="-285" font-family="Helvetica,sans-Serif" font-size="10.00">application.PenHandler.get</text>
<text text-anchor="middle" x="1073" y="-274" font-family="Helvetica,sans-Serif" font-size="10.00">PenStatus</text>
</a>
</g>
</g>
<!-- Node5&#45;&gt;Node12 -->
<g id="edge15" class="edge"><title>Node5&#45;&gt;Node12</title>
<path fill="none" stroke="midnightblue" d="M572.293,-300.987C682.067,-296.816 879.326,-289.321 990.341,-285.103"/>
<polygon fill="midnightblue" stroke="midnightblue" points="990.621,-288.595 1000.48,-284.717 990.355,-281.6 990.621,-288.595"/>
</g>
<!-- Node5&#45;&gt;Node14 -->
<g id="edge17" class="edge"><title>Node5&#45;&gt;Node14</title>
<path fill="none" stroke="midnightblue" d="M541.69,-319C569.157,-327.463 603.662,-338.093 632.58,-347.002"/>
<polygon fill="midnightblue" stroke="midnightblue" points="631.568,-350.352 642.155,-349.952 633.629,-343.663 631.568,-350.352"/>
</g>
<!-- Node7 -->
<g id="node7" class="node"><title>Node7</title>
<g id="a_node7"><a xlink:href="../../d8/ddb/classgui_1_1_line_view.html#aac6f01646ce73691c335b27ecd385dea" target="_top" xlink:title="gui.LineView.findBoundary\lPoint">
<polygon fill="white" stroke="black" points="816,-128 816,-158 956,-158 956,-128 816,-128"/>
<text text-anchor="start" x="824" y="-146" font-family="Helvetica,sans-Serif" font-size="10.00">gui.LineView.findBoundary</text>
<text text-anchor="middle" x="886" y="-135" font-family="Helvetica,sans-Serif" font-size="10.00">Point</text>
</a>
</g>
</g>
<!-- Node6&#45;&gt;Node7 -->
<g id="edge6" class="edge"><title>Node6&#45;&gt;Node7</title>
<path fill="none" stroke="midnightblue" d="M737.531,-174.491C757.887,-170.144 782.626,-164.861 805.98,-159.874"/>
<polygon fill="midnightblue" stroke="midnightblue" points="806.838,-163.27 815.887,-157.758 805.377,-156.424 806.838,-163.27"/>
</g>
<!-- Node10 -->
<g id="node10" class="node"><title>Node10</title>
<g id="a_node10"><a xlink:href="../../d8/d8b/classgui_1_1_view.html#a9df94efe60af56c89531c45f0f3f9624" target="_top" xlink:title="gui.View.setNewPoint">
<polygon fill="white" stroke="black" points="1403.5,-114.5 1403.5,-133.5 1520.5,-133.5 1520.5,-114.5 1403.5,-114.5"/>
<text text-anchor="middle" x="1462" y="-121.5" font-family="Helvetica,sans-Serif" font-size="10.00">gui.View.setNewPoint</text>
</a>
</g>
</g>
<!-- Node6&#45;&gt;Node10 -->
<g id="edge14" class="edge"><title>Node6&#45;&gt;Node10</title>
<path fill="none" stroke="midnightblue" d="M751.74,-175.102C760.272,-172.343 768.645,-168.731 776,-164 797.834,-149.956 789.517,-130.98 812,-118 1021.75,3.09027 1117.45,-44.1608 1356,-86 1382.54,-90.6547 1411.21,-101.456 1431.88,-110.358"/>
<polygon fill="midnightblue" stroke="midnightblue" points="1430.49,-113.572 1441.05,-114.412 1433.32,-107.169 1430.49,-113.572"/>
</g>
<!-- Node8 -->
<g id="node8" class="node"><title>Node8</title>
<g id="a_node8"><a xlink:href="../../d8/ddb/classgui_1_1_line_view.html#a29757337f55037a9e48da9098eca8a09" target="_top" xlink:title="gui.LineView.findCorner">
<polygon fill="white" stroke="black" points="1009.5,-114.5 1009.5,-133.5 1136.5,-133.5 1136.5,-114.5 1009.5,-114.5"/>
<text text-anchor="middle" x="1073" y="-121.5" font-family="Helvetica,sans-Serif" font-size="10.00">gui.LineView.findCorner</text>
</a>
</g>
</g>
<!-- Node7&#45;&gt;Node8 -->
<g id="edge7" class="edge"><title>Node7&#45;&gt;Node8</title>
<path fill="none" stroke="midnightblue" d="M956.15,-135.898C970.19,-134.456 984.997,-132.935 999.16,-131.481"/>
<polygon fill="midnightblue" stroke="midnightblue" points="999.748,-134.939 1009.34,-130.436 999.033,-127.976 999.748,-134.939"/>
</g>
<!-- Node9 -->
<g id="node9" class="node"><title>Node9</title>
<g id="a_node9"><a xlink:href="../../d8/ddb/classgui_1_1_line_view.html#a6cc826f05b0ac955fab89afbfca7c1a8" target="_top" xlink:title="gui.LineView.findYEdge">
<polygon fill="white" stroke="black" points="1209,-133.5 1209,-152.5 1333,-152.5 1333,-133.5 1209,-133.5"/>
<text text-anchor="middle" x="1271" y="-140.5" font-family="Helvetica,sans-Serif" font-size="10.00">gui.LineView.findYEdge</text>
</a>
</g>
</g>
<!-- Node7&#45;&gt;Node9 -->
<g id="edge13" class="edge"><title>Node7&#45;&gt;Node9</title>
<path fill="none" stroke="midnightblue" d="M956.358,-143C1024.84,-143 1129.09,-143 1198.36,-143"/>
<polygon fill="midnightblue" stroke="midnightblue" points="1198.74,-146.5 1208.74,-143 1198.74,-139.5 1198.74,-146.5"/>
</g>
<!-- Node11 -->
<g id="node11" class="node"><title>Node11</title>
<g id="a_node11"><a xlink:href="../../d8/ddb/classgui_1_1_line_view.html#a4a4d4a5dc42ec1fc8896b453703b6991" target="_top" xlink:title="gui.LineView.findXEdge">
<polygon fill="white" stroke="black" points="1208.5,-95.5 1208.5,-114.5 1333.5,-114.5 1333.5,-95.5 1208.5,-95.5"/>
<text text-anchor="middle" x="1271" y="-102.5" font-family="Helvetica,sans-Serif" font-size="10.00">gui.LineView.findXEdge</text>
</a>
</g>
</g>
<!-- Node7&#45;&gt;Node11 -->
<g id="edge12" class="edge"><title>Node7&#45;&gt;Node11</title>
<path fill="none" stroke="midnightblue" d="M920.588,-127.999C941.753,-119.381 969.918,-109.416 996,-105 1063.89,-93.5058 1142.6,-95.0092 1198.19,-98.4869"/>
<polygon fill="midnightblue" stroke="midnightblue" points="1198.09,-101.987 1208.3,-99.1566 1198.55,-95.0028 1198.09,-101.987"/>
</g>
<!-- Node8&#45;&gt;Node9 -->
<g id="edge8" class="edge"><title>Node8&#45;&gt;Node9</title>
<path fill="none" stroke="midnightblue" d="M1136.55,-130.064C1156.3,-131.978 1178.26,-134.107 1198.57,-136.076"/>
<polygon fill="midnightblue" stroke="midnightblue" points="1198.42,-139.577 1208.71,-137.059 1199.09,-132.61 1198.42,-139.577"/>
</g>
<!-- Node8&#45;&gt;Node11 -->
<g id="edge10" class="edge"><title>Node8&#45;&gt;Node11</title>
<path fill="none" stroke="midnightblue" d="M1136.55,-117.936C1156.2,-116.031 1178.05,-113.914 1198.28,-111.953"/>
<polygon fill="midnightblue" stroke="midnightblue" points="1198.76,-115.423 1208.37,-110.974 1198.08,-108.455 1198.76,-115.423"/>
</g>
<!-- Node9&#45;&gt;Node10 -->
<g id="edge9" class="edge"><title>Node9&#45;&gt;Node10</title>
<path fill="none" stroke="midnightblue" d="M1333.1,-136.857C1352.3,-134.928 1373.6,-132.786 1393.23,-130.813"/>
<polygon fill="midnightblue" stroke="midnightblue" points="1393.72,-134.281 1403.32,-129.798 1393.02,-127.316 1393.72,-134.281"/>
</g>
<!-- Node11&#45;&gt;Node10 -->
<g id="edge11" class="edge"><title>Node11&#45;&gt;Node10</title>
<path fill="none" stroke="midnightblue" d="M1333.62,-111.195C1352.7,-113.113 1373.83,-115.237 1393.3,-117.194"/>
<polygon fill="midnightblue" stroke="midnightblue" points="1393.01,-120.682 1403.31,-118.2 1393.71,-113.717 1393.01,-120.682"/>
</g>
<!-- Node13 -->
<g id="node13" class="node"><title>Node13</title>
<g id="a_node13"><a xlink:href="../../de/d5a/classapplication_1_1_pen.html#ab21d78789fb66a90181393d7cc42796c" target="_top" xlink:title="application.Pen.getStatus">
<polygon fill="white" stroke="black" points="1201,-272.5 1201,-291.5 1341,-291.5 1341,-272.5 1201,-272.5"/>
<text text-anchor="middle" x="1271" y="-279.5" font-family="Helvetica,sans-Serif" font-size="10.00">application.Pen.getStatus</text>
</a>
</g>
</g>
<!-- Node12&#45;&gt;Node13 -->
<g id="edge16" class="edge"><title>Node12&#45;&gt;Node13</title>
<path fill="none" stroke="midnightblue" d="M1145.59,-282C1160.25,-282 1175.77,-282 1190.68,-282"/>
<polygon fill="midnightblue" stroke="midnightblue" points="1190.89,-285.5 1200.89,-282 1190.89,-278.5 1190.89,-285.5"/>
</g>
<!-- Node15 -->
<g id="node15" class="node"><title>Node15</title>
<g id="a_node15"><a xlink:href="../../d8/d65/classapplication_1_1_view_handler.html#a8a3722771a70075225d9c37dc1ff5e8d" target="_top" xlink:title="application.ViewHandler.get\lTurtleLocation">
<polygon fill="white" stroke="black" points="998.5,-492 998.5,-522 1147.5,-522 1147.5,-492 998.5,-492"/>
<text text-anchor="start" x="1006.5" y="-510" font-family="Helvetica,sans-Serif" font-size="10.00">application.ViewHandler.get</text>
<text text-anchor="middle" x="1073" y="-499" font-family="Helvetica,sans-Serif" font-size="10.00">TurtleLocation</text>
</a>
</g>
</g>
<!-- Node14&#45;&gt;Node15 -->
<g id="edge18" class="edge"><title>Node14&#45;&gt;Node15</title>
<path fill="none" stroke="midnightblue" d="M703.789,-380.151C722.568,-405.187 763.887,-454.643 812,-477 867.068,-502.589 935.494,-509.637 988.325,-510.529"/>
<polygon fill="midnightblue" stroke="midnightblue" points="988.304,-514.028 998.338,-510.628 988.373,-507.029 988.304,-514.028"/>
</g>
<!-- Node16 -->
<g id="node16" class="node"><title>Node16</title>
<g id="a_node16"><a xlink:href="../../d8/d65/classapplication_1_1_view_handler.html#a8a00eb25a7f1d5e3ccc3059e8b717819" target="_top" xlink:title="application.ViewHandler.get\lTurtleOrientation">
<polygon fill="white" stroke="black" points="998.5,-355 998.5,-385 1147.5,-385 1147.5,-355 998.5,-355"/>
<text text-anchor="start" x="1006.5" y="-373" font-family="Helvetica,sans-Serif" font-size="10.00">application.ViewHandler.get</text>
<text text-anchor="middle" x="1073" y="-362" font-family="Helvetica,sans-Serif" font-size="10.00">TurtleOrientation</text>
</a>
</g>
</g>
<!-- Node14&#45;&gt;Node16 -->
<g id="edge20" class="edge"><title>Node14&#45;&gt;Node16</title>
<path fill="none" stroke="midnightblue" d="M775.705,-366.091C838.632,-366.921 924.888,-368.059 988.107,-368.893"/>
<polygon fill="midnightblue" stroke="midnightblue" points="988.398,-372.397 998.443,-369.03 988.49,-365.398 988.398,-372.397"/>
</g>
<!-- Node18 -->
<g id="node18" class="node"><title>Node18</title>
<g id="a_node18"><a xlink:href="../../d8/d65/classapplication_1_1_view_handler.html#a6f94dbee91670d4c9ae7164f61b8cd03" target="_top" xlink:title="application.ViewHandler.is\lVisible">
<polygon fill="white" stroke="black" points="816,-311 816,-341 956,-341 956,-311 816,-311"/>
<text text-anchor="start" x="824" y="-329" font-family="Helvetica,sans-Serif" font-size="10.00">application.ViewHandler.is</text>
<text text-anchor="middle" x="886" y="-318" font-family="Helvetica,sans-Serif" font-size="10.00">Visible</text>
</a>
</g>
</g>
<!-- Node14&#45;&gt;Node18 -->
<g id="edge22" class="edge"><title>Node14&#45;&gt;Node18</title>
<path fill="none" stroke="midnightblue" d="M766.958,-349.977C779.628,-347.404 792.839,-344.72 805.643,-342.119"/>
<polygon fill="midnightblue" stroke="midnightblue" points="806.703,-345.476 815.807,-340.055 805.31,-338.616 806.703,-345.476"/>
</g>
<!-- Node20 -->
<g id="node20" class="node"><title>Node20</title>
<g id="a_node20"><a xlink:href="../../df/dcc/classgui_1_1_turtle_view.html#adcff447c1d488ddfd13d151067e6db7a" target="_top" xlink:title="gui.TurtleView.rotateAnd\lMoveTurtle">
<polygon fill="white" stroke="black" points="820.5,-223 820.5,-253 951.5,-253 951.5,-223 820.5,-223"/>
<text text-anchor="start" x="828.5" y="-241" font-family="Helvetica,sans-Serif" font-size="10.00">gui.TurtleView.rotateAnd</text>
<text text-anchor="middle" x="886" y="-230" font-family="Helvetica,sans-Serif" font-size="10.00">MoveTurtle</text>
</a>
</g>
</g>
<!-- Node14&#45;&gt;Node20 -->
<g id="edge24" class="edge"><title>Node14&#45;&gt;Node20</title>
<path fill="none" stroke="midnightblue" d="M715.779,-349.933C749.988,-327.305 814.739,-284.474 853.467,-258.858"/>
<polygon fill="midnightblue" stroke="midnightblue" points="855.841,-261.484 862.251,-253.048 851.979,-255.645 855.841,-261.484"/>
</g>
<!-- Node22 -->
<g id="node22" class="node"><title>Node22</title>
<g id="a_node22"><a xlink:href="../../d8/d65/classapplication_1_1_view_handler.html#a308dcaf9847965fa4a3d261347845f56" target="_top" xlink:title="application.ViewHandler.set\lInfoParamsOfTurtleAndLine">
<polygon fill="white" stroke="black" points="812,-399 812,-429 960,-429 960,-399 812,-399"/>
<text text-anchor="start" x="820" y="-417" font-family="Helvetica,sans-Serif" font-size="10.00">application.ViewHandler.set</text>
<text text-anchor="middle" x="886" y="-406" font-family="Helvetica,sans-Serif" font-size="10.00">InfoParamsOfTurtleAndLine</text>
</a>
</g>
</g>
<!-- Node14&#45;&gt;Node22 -->
<g id="edge27" class="edge"><title>Node14&#45;&gt;Node22</title>
<path fill="none" stroke="midnightblue" d="M751.911,-380.035C772.276,-385.232 795.272,-391.101 816.349,-396.48"/>
<polygon fill="midnightblue" stroke="midnightblue" points="815.645,-399.912 826.2,-398.994 817.376,-393.13 815.645,-399.912"/>
</g>
<!-- Node28 -->
<g id="node28" class="node"><title>Node28</title>
<g id="a_node28"><a xlink:href="../../df/dcc/classgui_1_1_turtle_view.html#afa73e516fcab92ab1c3a6941b6131cb5" target="_top" xlink:title="gui.TurtleView.showTurtle">
<polygon fill="white" stroke="black" points="819.5,-448.5 819.5,-467.5 952.5,-467.5 952.5,-448.5 819.5,-448.5"/>
<text text-anchor="middle" x="886" y="-455.5" font-family="Helvetica,sans-Serif" font-size="10.00">gui.TurtleView.showTurtle</text>
</a>
</g>
</g>
<!-- Node14&#45;&gt;Node28 -->
<g id="edge36" class="edge"><title>Node14&#45;&gt;Node28</title>
<path fill="none" stroke="midnightblue" d="M713.509,-380.088C736.477,-396.372 775.304,-422.102 812,-438 818.4,-440.773 825.284,-443.255 832.177,-445.449"/>
<polygon fill="midnightblue" stroke="midnightblue" points="831.642,-448.943 842.226,-448.457 833.649,-442.236 831.642,-448.943"/>
</g>
<!-- Node15&#45;&gt;Node3 -->
<g id="edge19" class="edge"><title>Node15&#45;&gt;Node3</title>
<path fill="none" stroke="midnightblue" d="M1140.9,-522.019C1166.04,-527.661 1194.21,-533.986 1217.81,-539.285"/>
<polygon fill="midnightblue" stroke="midnightblue" points="1217.1,-542.712 1227.63,-541.488 1218.64,-535.882 1217.1,-542.712"/>
</g>
<!-- Node17 -->
<g id="node17" class="node"><title>Node17</title>
<g id="a_node17"><a xlink:href="../../d1/d31/classapplication_1_1_turtle.html#af22147e198fac9068726b95eea235739" target="_top" xlink:title="application.Turtle.getOrientation">
<polygon fill="white" stroke="black" points="1186.5,-360.5 1186.5,-379.5 1355.5,-379.5 1355.5,-360.5 1186.5,-360.5"/>
<text text-anchor="middle" x="1271" y="-367.5" font-family="Helvetica,sans-Serif" font-size="10.00">application.Turtle.getOrientation</text>
</a>
</g>
</g>
<!-- Node16&#45;&gt;Node17 -->
<g id="edge21" class="edge"><title>Node16&#45;&gt;Node17</title>
<path fill="none" stroke="midnightblue" d="M1147.54,-370C1156.97,-370 1166.73,-370 1176.43,-370"/>
<polygon fill="midnightblue" stroke="midnightblue" points="1176.5,-373.5 1186.5,-370 1176.5,-366.5 1176.5,-373.5"/>
</g>
<!-- Node19 -->
<g id="node19" class="node"><title>Node19</title>
<g id="a_node19"><a xlink:href="../../d1/d31/classapplication_1_1_turtle.html#a75e592fccb8420e254ba668429797898" target="_top" xlink:title="application.Turtle.getVisibility">
<polygon fill="white" stroke="black" points="996,-316.5 996,-335.5 1150,-335.5 1150,-316.5 996,-316.5"/>
<text text-anchor="middle" x="1073" y="-323.5" font-family="Helvetica,sans-Serif" font-size="10.00">application.Turtle.getVisibility</text>
</a>
</g>
</g>
<!-- Node18&#45;&gt;Node19 -->
<g id="edge23" class="edge"><title>Node18&#45;&gt;Node19</title>
<path fill="none" stroke="midnightblue" d="M956.15,-326C965.748,-326 975.704,-326 985.568,-326"/>
<polygon fill="midnightblue" stroke="midnightblue" points="985.795,-329.5 995.795,-326 985.795,-322.5 985.795,-329.5"/>
</g>
<!-- Node20&#45;&gt;Node10 -->
<g id="edge26" class="edge"><title>Node20&#45;&gt;Node10</title>
<path fill="none" stroke="midnightblue" d="M951.525,-226.582C966.142,-224.043 981.599,-221.395 996,-219 1155.8,-192.424 1199.13,-202.413 1356,-162 1381.01,-155.558 1408.42,-145.532 1428.96,-137.395"/>
<polygon fill="midnightblue" stroke="midnightblue" points="1430.48,-140.556 1438.45,-133.577 1427.87,-134.062 1430.48,-140.556"/>
</g>
<!-- Node21 -->
<g id="node21" class="node"><title>Node21</title>
<g id="a_node21"><a xlink:href="../../df/dcc/classgui_1_1_turtle_view.html#ab9b87d12b06bce95f2b32ee05a89e7d6" target="_top" xlink:title="gui.TurtleView.rotate">
<polygon fill="white" stroke="black" points="1016.5,-228.5 1016.5,-247.5 1129.5,-247.5 1129.5,-228.5 1016.5,-228.5"/>
<text text-anchor="middle" x="1073" y="-235.5" font-family="Helvetica,sans-Serif" font-size="10.00">gui.TurtleView.rotate</text>
</a>
</g>
</g>
<!-- Node20&#45;&gt;Node21 -->
<g id="edge25" class="edge"><title>Node20&#45;&gt;Node21</title>
<path fill="none" stroke="midnightblue" d="M951.704,-238C969.299,-238 988.372,-238 1006.04,-238"/>
<polygon fill="midnightblue" stroke="midnightblue" points="1006.25,-241.5 1016.25,-238 1006.25,-234.5 1006.25,-241.5"/>
</g>
<!-- Node22&#45;&gt;Node12 -->
<g id="edge28" class="edge"><title>Node22&#45;&gt;Node12</title>
<path fill="none" stroke="midnightblue" d="M905.705,-398.964C920.889,-386.442 942.563,-367.838 960,-350 977.422,-332.176 975.37,-320.987 996,-307 998.905,-305.031 1001.98,-303.207 1005.15,-301.518"/>
<polygon fill="midnightblue" stroke="midnightblue" points="1006.84,-304.593 1014.34,-297.111 1003.81,-298.282 1006.84,-304.593"/>
</g>
<!-- Node22&#45;&gt;Node15 -->
<g id="edge29" class="edge"><title>Node22&#45;&gt;Node15</title>
<path fill="none" stroke="midnightblue" d="M942.008,-429.145C948.33,-431.943 954.479,-435.208 960,-439 980.545,-453.112 975.37,-468.013 996,-482 998.905,-483.969 1001.98,-485.793 1005.15,-487.482"/>
<polygon fill="midnightblue" stroke="midnightblue" points="1003.81,-490.718 1014.34,-491.889 1006.84,-484.407 1003.81,-490.718"/>
</g>
<!-- Node22&#45;&gt;Node16 -->
<g id="edge30" class="edge"><title>Node22&#45;&gt;Node16</title>
<path fill="none" stroke="midnightblue" d="M950.149,-398.981C965.839,-395.249 982.785,-391.219 998.908,-387.384"/>
<polygon fill="midnightblue" stroke="midnightblue" points="999.903,-390.745 1008.82,-385.026 998.283,-383.935 999.903,-390.745"/>
</g>
<!-- Node23 -->
<g id="node23" class="node"><title>Node23</title>
<g id="a_node23"><a xlink:href="../../df/dcb/classapplication_1_1_pen_handler.html#a518bb3076e4d9d105870b0778341a8c0" target="_top" xlink:title="application.PenHandler.set\lThicknessParameter">
<polygon fill="white" stroke="black" points="1001,-404 1001,-434 1145,-434 1145,-404 1001,-404"/>
<text text-anchor="start" x="1009" y="-422" font-family="Helvetica,sans-Serif" font-size="10.00">application.PenHandler.set</text>
<text text-anchor="middle" x="1073" y="-411" font-family="Helvetica,sans-Serif" font-size="10.00">ThicknessParameter</text>
</a>
</g>
</g>
<!-- Node22&#45;&gt;Node23 -->
<g id="edge31" class="edge"><title>Node22&#45;&gt;Node23</title>
<path fill="none" stroke="midnightblue" d="M960.117,-415.976C970.191,-416.248 980.587,-416.529 990.796,-416.805"/>
<polygon fill="midnightblue" stroke="midnightblue" points="990.834,-420.308 1000.92,-417.079 991.023,-413.31 990.834,-420.308"/>
</g>
<!-- Node27 -->
<g id="node27" class="node"><title>Node27</title>
<g id="a_node27"><a xlink:href="../../df/dcc/classgui_1_1_turtle_view.html#a978020a0f6ccbc4714b77c71435b0799" target="_top" xlink:title="gui.TurtleView.setTurtleInfo">
<polygon fill="white" stroke="black" points="1002.5,-453.5 1002.5,-472.5 1143.5,-472.5 1143.5,-453.5 1002.5,-453.5"/>
<text text-anchor="middle" x="1073" y="-460.5" font-family="Helvetica,sans-Serif" font-size="10.00">gui.TurtleView.setTurtleInfo</text>
</a>
</g>
</g>
<!-- Node22&#45;&gt;Node27 -->
<g id="edge35" class="edge"><title>Node22&#45;&gt;Node27</title>
<path fill="none" stroke="midnightblue" d="M943.284,-429.006C960.227,-433.514 978.868,-438.467 996,-443 1005.69,-445.565 1016.09,-448.306 1025.98,-450.91"/>
<polygon fill="midnightblue" stroke="midnightblue" points="1025.1,-454.297 1035.66,-453.457 1026.88,-447.528 1025.1,-454.297"/>
</g>
<!-- Node24 -->
<g id="node24" class="node"><title>Node24</title>
<g id="a_node24"><a xlink:href="../../df/dcb/classapplication_1_1_pen_handler.html#a307ff6736f97a1aa1706da924d7e642b" target="_top" xlink:title="application.PenHandler.get\lPenWeight">
<polygon fill="white" stroke="black" points="1198.5,-442 1198.5,-472 1343.5,-472 1343.5,-442 1198.5,-442"/>
<text text-anchor="start" x="1206.5" y="-460" font-family="Helvetica,sans-Serif" font-size="10.00">application.PenHandler.get</text>
<text text-anchor="middle" x="1271" y="-449" font-family="Helvetica,sans-Serif" font-size="10.00">PenWeight</text>
</a>
</g>
</g>
<!-- Node23&#45;&gt;Node24 -->
<g id="edge32" class="edge"><title>Node23&#45;&gt;Node24</title>
<path fill="none" stroke="midnightblue" d="M1145.04,-432.773C1159.1,-435.499 1173.97,-438.382 1188.35,-441.17"/>
<polygon fill="midnightblue" stroke="midnightblue" points="1187.73,-444.616 1198.22,-443.083 1189.07,-437.744 1187.73,-444.616"/>
</g>
<!-- Node26 -->
<g id="node26" class="node"><title>Node26</title>
<g id="a_node26"><a xlink:href="../../d8/ddb/classgui_1_1_line_view.html#ab32d4cf33024aea52dcb5d1092003d85" target="_top" xlink:title="gui.LineView.setThickness">
<polygon fill="white" stroke="black" points="1201.5,-403.5 1201.5,-422.5 1340.5,-422.5 1340.5,-403.5 1201.5,-403.5"/>
<text text-anchor="middle" x="1271" y="-410.5" font-family="Helvetica,sans-Serif" font-size="10.00">gui.LineView.setThickness</text>
</a>
</g>
</g>
<!-- Node23&#45;&gt;Node26 -->
<g id="edge34" class="edge"><title>Node23&#45;&gt;Node26</title>
<path fill="none" stroke="midnightblue" d="M1145.04,-416.825C1159.99,-416.368 1175.85,-415.882 1191.08,-415.416"/>
<polygon fill="midnightblue" stroke="midnightblue" points="1191.61,-418.901 1201.5,-415.097 1191.39,-411.905 1191.61,-418.901"/>
</g>
<!-- Node25 -->
<g id="node25" class="node"><title>Node25</title>
<g id="a_node25"><a xlink:href="../../de/d5a/classapplication_1_1_pen.html#aaaae5f55fadb97afef2ae286a6119a58" target="_top" xlink:title="application.Pen.getWeight">
<polygon fill="white" stroke="black" points="1392,-447.5 1392,-466.5 1532,-466.5 1532,-447.5 1392,-447.5"/>
<text text-anchor="middle" x="1462" y="-454.5" font-family="Helvetica,sans-Serif" font-size="10.00">application.Pen.getWeight</text>
</a>
</g>
</g>
<!-- Node24&#45;&gt;Node25 -->
<g id="edge33" class="edge"><title>Node24&#45;&gt;Node25</title>
<path fill="none" stroke="midnightblue" d="M1343.72,-457C1356.16,-457 1369.17,-457 1381.8,-457"/>
<polygon fill="midnightblue" stroke="midnightblue" points="1381.82,-460.5 1391.82,-457 1381.82,-453.5 1381.82,-460.5"/>
</g>
<!-- Node29&#45;&gt;Node3 -->
<g id="edge38" class="edge"><title>Node29&#45;&gt;Node3</title>
<path fill="none" stroke="midnightblue" d="M560.332,-270.151C564.566,-272.664 568.517,-275.591 572,-279 608.76,-314.984 575.601,-349.045 608,-389 673.97,-470.356 712.81,-473.351 812,-507 941.237,-550.842 1101.96,-555.763 1194.58,-554.186"/>
<polygon fill="midnightblue" stroke="midnightblue" points="1194.78,-557.683 1204.71,-553.983 1194.64,-550.685 1194.78,-557.683"/>
</g>
<!-- Node30 -->
<g id="node30" class="node"><title>Node30</title>
<g id="a_node30"><a xlink:href="../../d8/d65/classapplication_1_1_view_handler.html#aba2ed11a44abfaf2d5684ab5a7bbb33f" target="_top" xlink:title="application.ViewHandler.get\lViewTurtleLocation">
<polygon fill="white" stroke="black" points="617.5,-125 617.5,-155 766.5,-155 766.5,-125 617.5,-125"/>
<text text-anchor="start" x="625.5" y="-143" font-family="Helvetica,sans-Serif" font-size="10.00">application.ViewHandler.get</text>
<text text-anchor="middle" x="692" y="-132" font-family="Helvetica,sans-Serif" font-size="10.00">ViewTurtleLocation</text>
</a>
</g>
</g>
<!-- Node29&#45;&gt;Node30 -->
<g id="edge39" class="edge"><title>Node29&#45;&gt;Node30</title>
<path fill="none" stroke="midnightblue" d="M556.516,-239.819C562.056,-237.07 567.324,-233.826 572,-230 597.559,-209.088 582.296,-185.734 608,-165 610.251,-163.184 612.632,-161.5 615.111,-159.938"/>
<polygon fill="midnightblue" stroke="midnightblue" points="616.818,-162.994 623.867,-155.084 613.424,-156.871 616.818,-162.994"/>
</g>
<!-- Node32 -->
<g id="node32" class="node"><title>Node32</title>
<g id="a_node32"><a xlink:href="../../d1/d31/classapplication_1_1_turtle.html#a1055014d20f219b829679d8d4f3e0d97" target="_top" xlink:title="application.Turtle.setLocation">
<polygon fill="white" stroke="black" points="614.5,-86.5 614.5,-105.5 769.5,-105.5 769.5,-86.5 614.5,-86.5"/>
<text text-anchor="middle" x="692" y="-93.5" font-family="Helvetica,sans-Serif" font-size="10.00">application.Turtle.setLocation</text>
</a>
</g>
</g>
<!-- Node29&#45;&gt;Node32 -->
<g id="edge41" class="edge"><title>Node29&#45;&gt;Node32</title>
<path fill="none" stroke="midnightblue" d="M558.899,-239.911C563.686,-237.144 568.141,-233.871 572,-230 609.812,-192.071 568.676,-151.358 608,-115 609.676,-113.451 611.451,-112.019 613.308,-110.697"/>
<polygon fill="midnightblue" stroke="midnightblue" points="615.114,-113.695 621.916,-105.572 611.533,-107.68 615.114,-113.695"/>
</g>
<!-- Node31 -->
<g id="node31" class="node"><title>Node31</title>
<g id="a_node31"><a xlink:href="../../d8/d8b/classgui_1_1_view.html#a805679dcb8753b21508755667f09fac9" target="_top" xlink:title="gui.View.getNewPoint">
<polygon fill="white" stroke="black" points="827,-0.5 827,-19.5 945,-19.5 945,-0.5 827,-0.5"/>
<text text-anchor="middle" x="886" y="-7.5" font-family="Helvetica,sans-Serif" font-size="10.00">gui.View.getNewPoint</text>
</a>
</g>
</g>
<!-- Node30&#45;&gt;Node31 -->
<g id="edge40" class="edge"><title>Node30&#45;&gt;Node31</title>
<path fill="none" stroke="midnightblue" d="M761.318,-124.93C766.61,-122.16 771.597,-118.881 776,-115 805.551,-88.9473 782.778,-60.4211 812,-34 816.501,-29.9304 821.707,-26.5492 827.226,-23.7404"/>
<polygon fill="midnightblue" stroke="midnightblue" points="829.009,-26.779 836.738,-19.5332 826.177,-20.3771 829.009,-26.779"/>
</g>
</g>
</svg>
        <g id="navigator" transform="translate(0 0)" fill="#404254">
                <rect fill="#f2f5e9" fill-opacity="0.5" stroke="#606060" stroke-width=".5" x="0" y="0" width="60" height="60"/>
                <use id="zoomplus" xlink:href="#zoomPlus" x="17" y="9" onmousedown="handleZoom(evt,'in')"/>
                <use id="zoomminus" xlink:href="#zoomMin" x="42" y="9" onmousedown="handleZoom(evt,'out')"/>
                <use id="reset" xlink:href="#resetDef" x="30" y="36" onmousedown="handleReset()"/>
                <g id="arrowUp" xlink:href="#dirArrow" transform="translate(30 24)" onmousedown="handlePan(0,-1)">
                  <use xlink:href="#rim" fill="#404040">
                        <set attributeName="fill" to="#808080" begin="arrowUp.mouseover" end="arrowUp.mouseout"/>
                  </use>
                  <path fill="none" stroke="white" stroke-width="1.5" d="M0,-3.0v7 M-2.5,-0.5L0,-3.0L2.5,-0.5"/>
                </g>
                <g id="arrowRight" xlink:href="#dirArrow" transform="rotate(90) translate(36 -43)" onmousedown="handlePan(1,0)">
                  <use xlink:href="#rim" fill="#404040">
                        <set attributeName="fill" to="#808080" begin="arrowRight.mouseover" end="arrowRight.mouseout"/>
                  </use>
                  <path fill="none" stroke="white" stroke-width="1.5" d="M0,-3.0v7 M-2.5,-0.5L0,-3.0L2.5,-0.5"/>
                </g>
                <g id="arrowDown" xlink:href="#dirArrow" transform="rotate(180) translate(-30 -48)" onmousedown="handlePan(0,1)">
                  <use xlink:href="#rim" fill="#404040">
                        <set attributeName="fill" to="#808080" begin="arrowDown.mouseover" end="arrowDown.mouseout"/>
                  </use>
                  <path fill="none" stroke="white" stroke-width="1.5" d="M0,-3.0v7 M-2.5,-0.5L0,-3.0L2.5,-0.5"/>
                </g>
                <g id="arrowLeft" xlink:href="#dirArrow" transform="rotate(270) translate(-36 17)" onmousedown="handlePan(-1,0)">
                  <use xlink:href="#rim" fill="#404040">
                        <set attributeName="fill" to="#808080" begin="arrowLeft.mouseover" end="arrowLeft.mouseout"/>
                  </use>
                  <path fill="none" stroke="white" stroke-width="1.5" d="M0,-3.0v7 M-2.5,-0.5L0,-3.0L2.5,-0.5"/>
                </g>
        </g>
        <svg viewBox="0 0 15 15" width="100%" height="30px" preserveAspectRatio="xMaxYMin meet">
         <g id="arrow_out" transform="scale(0.3 0.3)">
          <a xlink:href="classcommands_1_1view_commands_1_1turtle_commands_1_1_move_af95e8ccf5c290a4d06f79caf2deed407_cgraph_org.svg" target="_base">
           <rect id="button" ry="5" rx="5" y="6" x="6" height="38" width="38"
                fill="#f2f5e9" fill-opacity="0.5" stroke="#606060" stroke-width="1.0"/>
           <path id="arrow"
             d="M 11.500037,31.436501 C 11.940474,20.09759 22.043105,11.32322 32.158766,21.979434 L 37.068811,17.246167 C 37.068811,17.246167 37.088388,32 37.088388,32 L 22.160133,31.978069 C 22.160133,31.978069 26.997745,27.140456 26.997745,27.140456 C 18.528582,18.264221 13.291696,25.230495 11.500037,31.436501 z"
             style="fill:#404040;"/>
          </a>
         </g>
        </svg>
</svg>
