<?xml version="1.0" encoding="UTF-8" standalone="no"?>
<!DOCTYPE svg PUBLIC "-//W3C//DTD SVG 1.1//EN"
 "http://www.w3.org/Graphics/SVG/1.1/DTD/svg11.dtd">
<!-- Generated by graphviz version 2.36.0 (20140111.2315)
 -->
<!-- Title: commands.viewCommands.turtleCommands.Move.goToLocation Pages: 1 -->
<svg width="1546pt" height="553pt"
 viewBox="0.00 0.00 1546.00 552.59" xmlns="http://www.w3.org/2000/svg" xmlns:xlink="http://www.w3.org/1999/xlink">
<g id="graph0" class="graph" transform="scale(1 1) rotate(0) translate(4 548.594)">
<title>commands.viewCommands.turtleCommands.Move.goToLocation</title>
<polygon fill="white" stroke="none" points="-4,4 -4,-548.594 1542,-548.594 1542,4 -4,4"/>
<!-- Node1 -->
<g id="node1" class="node"><title>Node1</title>
<polygon fill="#bfbfbf" stroke="black" points="0,-37 0,-67 178,-67 178,-37 0,-37"/>
<text text-anchor="start" x="8" y="-55" font-family="Helvetica,sans-Serif" font-size="10.00">commands.viewCommands.turtle</text>
<text text-anchor="middle" x="89" y="-44" font-family="Helvetica,sans-Serif" font-size="10.00">Commands.Move.goToLocation</text>
</g>
<!-- Node2 -->
<g id="node2" class="node"><title>Node2</title>
<g id="a_node2"><a xlink:href="../../d8/d65/classapplication_1_1_view_handler.html#a1aff135a076a9717102bb59ea613131c" target="_top" xlink:title="application.ViewHandler.change\lLocationOfTurtle">
<polygon fill="white" stroke="black" points="214,-89 214,-119 382,-119 382,-89 214,-89"/>
<text text-anchor="start" x="222" y="-107" font-family="Helvetica,sans-Serif" font-size="10.00">application.ViewHandler.change</text>
<text text-anchor="middle" x="298" y="-96" font-family="Helvetica,sans-Serif" font-size="10.00">LocationOfTurtle</text>
</a>
</g>
</g>
<!-- Node1&#45;&gt;Node2 -->
<g id="edge1" class="edge"><title>Node1&#45;&gt;Node2</title>
<path fill="none" stroke="midnightblue" d="M149.873,-67.0406C174.118,-73.131 202.272,-80.2035 227.421,-86.5213"/>
<polygon fill="midnightblue" stroke="midnightblue" points="226.71,-89.9513 237.262,-88.9932 228.416,-83.1623 226.71,-89.9513"/>
</g>
<!-- Node14 -->
<g id="node14" class="node"><title>Node14</title>
<g id="a_node14"><a xlink:href="../../d8/d65/classapplication_1_1_view_handler.html#a8a3722771a70075225d9c37dc1ff5e8d" target="_top" xlink:title="application.ViewHandler.get\lTurtleLocation">
<polygon fill="white" stroke="black" points="1004.5,-78 1004.5,-108 1153.5,-108 1153.5,-78 1004.5,-78"/>
<text text-anchor="start" x="1012.5" y="-96" font-family="Helvetica,sans-Serif" font-size="10.00">application.ViewHandler.get</text>
<text text-anchor="middle" x="1079" y="-85" font-family="Helvetica,sans-Serif" font-size="10.00">TurtleLocation</text>
</a>
</g>
</g>
<!-- Node1&#45;&gt;Node14 -->
<g id="edge43" class="edge"><title>Node1&#45;&gt;Node14</title>
<path fill="none" stroke="midnightblue" d="M163.166,-36.9594C244.363,-21.6019 379.464,-0 497,-0 497,-0 497,-0 699,-0 822.429,-0 962.123,-47.0988 1032.42,-74.2611"/>
<polygon fill="midnightblue" stroke="midnightblue" points="1031.29,-77.5742 1041.87,-77.9546 1033.83,-71.0545 1031.29,-77.5742"/>
</g>
<!-- Node3 -->
<g id="node3" class="node"><title>Node3</title>
<g id="a_node3"><a xlink:href="../../d1/d31/classapplication_1_1_turtle.html#a802873f2487ab3b6832050e1bef998a5" target="_top" xlink:title="application.Turtle.getLoc">
<polygon fill="white" stroke="black" points="1211,-28.5 1211,-47.5 1343,-47.5 1343,-28.5 1211,-28.5"/>
<text text-anchor="middle" x="1277" y="-35.5" font-family="Helvetica,sans-Serif" font-size="10.00">application.Turtle.getLoc</text>
</a>
</g>
</g>
<!-- Node2&#45;&gt;Node3 -->
<g id="edge2" class="edge"><title>Node2&#45;&gt;Node3</title>
<path fill="none" stroke="midnightblue" d="M330.028,-88.9146C353.59,-78.1637 387.1,-64.361 418,-57 670.74,3.209 742.188,-31.706 1002,-31 1070.44,-30.814 1087.58,-29.0062 1156,-31 1170.49,-31.4223 1185.95,-32.1309 1200.79,-32.9392"/>
<polygon fill="midnightblue" stroke="midnightblue" points="1200.77,-36.4432 1210.95,-33.5125 1201.16,-29.4544 1200.77,-36.4432"/>
</g>
<!-- Node4 -->
<g id="node4" class="node"><title>Node4</title>
<g id="a_node4"><a xlink:href="../../d8/d65/classapplication_1_1_view_handler.html#a98b4ba09b3f3e8b1a7667db5598dbfb0" target="_top" xlink:title="application.ViewHandler.move\lTurtleImageAndDraw">
<polygon fill="white" stroke="black" points="418,-261 418,-291 578,-291 578,-261 418,-261"/>
<text text-anchor="start" x="426" y="-279" font-family="Helvetica,sans-Serif" font-size="10.00">application.ViewHandler.move</text>
<text text-anchor="middle" x="498" y="-268" font-family="Helvetica,sans-Serif" font-size="10.00">TurtleImageAndDraw</text>
</a>
</g>
</g>
<!-- Node2&#45;&gt;Node4 -->
<g id="edge3" class="edge"><title>Node2&#45;&gt;Node4</title>
<path fill="none" stroke="midnightblue" d="M316.571,-119.264C351.797,-149.864 431.153,-218.799 471.865,-254.166"/>
<polygon fill="midnightblue" stroke="midnightblue" points="469.624,-256.855 479.468,-260.77 474.214,-251.57 469.624,-256.855"/>
</g>
<!-- Node13 -->
<g id="node13" class="node"><title>Node13</title>
<g id="a_node13"><a xlink:href="../../d8/d65/classapplication_1_1_view_handler.html#ae489ceaa9b5ec67faf3ba22a11cec085" target="_top" xlink:title="application.ViewHandler.update\lTurtleOnView">
<polygon fill="white" stroke="black" points="614.5,-184 614.5,-214 781.5,-214 781.5,-184 614.5,-184"/>
<text text-anchor="start" x="622.5" y="-202" font-family="Helvetica,sans-Serif" font-size="10.00">application.ViewHandler.update</text>
<text text-anchor="middle" x="698" y="-191" font-family="Helvetica,sans-Serif" font-size="10.00">TurtleOnView</text>
</a>
</g>
</g>
<!-- Node2&#45;&gt;Node13 -->
<g id="edge42" class="edge"><title>Node2&#45;&gt;Node13</title>
<path fill="none" stroke="midnightblue" d="M362.064,-119.053C433.282,-136.052 548.993,-163.672 624.047,-181.586"/>
<polygon fill="midnightblue" stroke="midnightblue" points="623.363,-185.022 633.902,-183.939 624.988,-178.213 623.363,-185.022"/>
</g>
<!-- Node28 -->
<g id="node28" class="node"><title>Node28</title>
<g id="a_node28"><a xlink:href="../../d1/d31/classapplication_1_1_turtle.html#a1055014d20f219b829679d8d4f3e0d97" target="_top" xlink:title="application.Turtle.setLocation">
<polygon fill="white" stroke="black" points="620.5,-116.5 620.5,-135.5 775.5,-135.5 775.5,-116.5 620.5,-116.5"/>
<text text-anchor="middle" x="698" y="-123.5" font-family="Helvetica,sans-Serif" font-size="10.00">application.Turtle.setLocation</text>
</a>
</g>
</g>
<!-- Node2&#45;&gt;Node28 -->
<g id="edge36" class="edge"><title>Node2&#45;&gt;Node28</title>
<path fill="none" stroke="midnightblue" d="M382.434,-108.612C449.212,-112.303 542.56,-117.463 610.208,-121.202"/>
<polygon fill="midnightblue" stroke="midnightblue" points="610.238,-124.709 620.416,-121.767 610.625,-117.72 610.238,-124.709"/>
</g>
<!-- Node29 -->
<g id="node29" class="node"><title>Node29</title>
<g id="a_node29"><a xlink:href="../../d8/d65/classapplication_1_1_view_handler.html#a0dd92f1869c84b869aa893f428ba149b" target="_top" xlink:title="application.ViewHandler.set\lTurtleLocToViewTurtleLoc">
<polygon fill="white" stroke="black" points="424,-67 424,-97 572,-97 572,-67 424,-67"/>
<text text-anchor="start" x="432" y="-85" font-family="Helvetica,sans-Serif" font-size="10.00">application.ViewHandler.set</text>
<text text-anchor="middle" x="498" y="-74" font-family="Helvetica,sans-Serif" font-size="10.00">TurtleLocToViewTurtleLoc</text>
</a>
</g>
</g>
<!-- Node2&#45;&gt;Node29 -->
<g id="edge37" class="edge"><title>Node2&#45;&gt;Node29</title>
<path fill="none" stroke="midnightblue" d="M382.109,-94.7656C392.615,-93.5983 403.367,-92.4037 413.873,-91.2363"/>
<polygon fill="midnightblue" stroke="midnightblue" points="414.303,-94.7102 423.855,-90.1272 413.53,-87.753 414.303,-94.7102"/>
</g>
<!-- Node5 -->
<g id="node5" class="node"><title>Node5</title>
<g id="a_node5"><a xlink:href="../../d8/ddb/classgui_1_1_line_view.html#abe4c6727ecf95f07a0a7a68e4e7dcb40" target="_top" xlink:title="gui.LineView.drawLine">
<polygon fill="white" stroke="black" points="638.5,-434.5 638.5,-453.5 757.5,-453.5 757.5,-434.5 638.5,-434.5"/>
<text text-anchor="middle" x="698" y="-441.5" font-family="Helvetica,sans-Serif" font-size="10.00">gui.LineView.drawLine</text>
</a>
</g>
</g>
<!-- Node4&#45;&gt;Node5 -->
<g id="edge4" class="edge"><title>Node4&#45;&gt;Node5</title>
<path fill="none" stroke="midnightblue" d="M516.92,-291.205C554.091,-322.744 639.303,-395.045 677.661,-427.591"/>
<polygon fill="midnightblue" stroke="midnightblue" points="675.63,-430.458 685.519,-434.259 680.159,-425.12 675.63,-430.458"/>
</g>
<!-- Node11 -->
<g id="node11" class="node"><title>Node11</title>
<g id="a_node11"><a xlink:href="../../df/dcb/classapplication_1_1_pen_handler.html#a8477a9a258753bb5538ad83a015fb731" target="_top" xlink:title="application.PenHandler.get\lPenStatus">
<polygon fill="white" stroke="black" points="1006.5,-271 1006.5,-301 1151.5,-301 1151.5,-271 1006.5,-271"/>
<text text-anchor="start" x="1014.5" y="-289" font-family="Helvetica,sans-Serif" font-size="10.00">application.PenHandler.get</text>
<text text-anchor="middle" x="1079" y="-278" font-family="Helvetica,sans-Serif" font-size="10.00">PenStatus</text>
</a>
</g>
</g>
<!-- Node4&#45;&gt;Node11 -->
<g id="edge14" class="edge"><title>Node4&#45;&gt;Node11</title>
<path fill="none" stroke="midnightblue" d="M578.012,-288.889C670.961,-302.283 829.875,-319.651 966,-307 976.708,-306.005 987.918,-304.485 998.935,-302.709"/>
<polygon fill="midnightblue" stroke="midnightblue" points="999.7,-306.13 1008.98,-301.014 998.535,-299.227 999.7,-306.13"/>
</g>
<!-- Node4&#45;&gt;Node13 -->
<g id="edge16" class="edge"><title>Node4&#45;&gt;Node13</title>
<path fill="none" stroke="midnightblue" d="M537.646,-260.971C569.298,-248.662 614.258,-231.177 648.356,-217.917"/>
<polygon fill="midnightblue" stroke="midnightblue" points="650.062,-221.009 658.113,-214.123 647.525,-214.485 650.062,-221.009"/>
</g>
<!-- Node6 -->
<g id="node6" class="node"><title>Node6</title>
<g id="a_node6"><a xlink:href="../../d8/ddb/classgui_1_1_line_view.html#aac6f01646ce73691c335b27ecd385dea" target="_top" xlink:title="gui.LineView.findBoundary\lPoint">
<polygon fill="white" stroke="black" points="822,-489 822,-519 962,-519 962,-489 822,-489"/>
<text text-anchor="start" x="830" y="-507" font-family="Helvetica,sans-Serif" font-size="10.00">gui.LineView.findBoundary</text>
<text text-anchor="middle" x="892" y="-496" font-family="Helvetica,sans-Serif" font-size="10.00">Point</text>
</a>
</g>
</g>
<!-- Node5&#45;&gt;Node6 -->
<g id="edge5" class="edge"><title>Node5&#45;&gt;Node6</title>
<path fill="none" stroke="midnightblue" d="M729.423,-453.507C757.14,-462.169 798.827,-475.196 832.915,-485.849"/>
<polygon fill="midnightblue" stroke="midnightblue" points="832.178,-489.285 842.767,-488.927 834.266,-482.604 832.178,-489.285"/>
</g>
<!-- Node9 -->
<g id="node9" class="node"><title>Node9</title>
<g id="a_node9"><a xlink:href="../../d8/d8b/classgui_1_1_view.html#a9df94efe60af56c89531c45f0f3f9624" target="_top" xlink:title="gui.View.setNewPoint">
<polygon fill="white" stroke="black" points="1409.5,-453.5 1409.5,-472.5 1526.5,-472.5 1526.5,-453.5 1409.5,-453.5"/>
<text text-anchor="middle" x="1468" y="-460.5" font-family="Helvetica,sans-Serif" font-size="10.00">gui.View.setNewPoint</text>
</a>
</g>
</g>
<!-- Node5&#45;&gt;Node9 -->
<g id="edge13" class="edge"><title>Node5&#45;&gt;Node9</title>
<path fill="none" stroke="midnightblue" d="M757.671,-445.452C897.553,-448.912 1250.07,-457.633 1398.96,-461.317"/>
<polygon fill="midnightblue" stroke="midnightblue" points="1399.24,-464.825 1409.32,-461.573 1399.41,-457.827 1399.24,-464.825"/>
</g>
<!-- Node7 -->
<g id="node7" class="node"><title>Node7</title>
<g id="a_node7"><a xlink:href="../../d8/ddb/classgui_1_1_line_view.html#a29757337f55037a9e48da9098eca8a09" target="_top" xlink:title="gui.LineView.findCorner">
<polygon fill="white" stroke="black" points="1015.5,-510.5 1015.5,-529.5 1142.5,-529.5 1142.5,-510.5 1015.5,-510.5"/>
<text text-anchor="middle" x="1079" y="-517.5" font-family="Helvetica,sans-Serif" font-size="10.00">gui.LineView.findCorner</text>
</a>
</g>
</g>
<!-- Node6&#45;&gt;Node7 -->
<g id="edge6" class="edge"><title>Node6&#45;&gt;Node7</title>
<path fill="none" stroke="midnightblue" d="M962.15,-509.981C976.19,-511.195 990.997,-512.475 1005.16,-513.7"/>
<polygon fill="midnightblue" stroke="midnightblue" points="1005.07,-517.206 1015.34,-514.581 1005.68,-510.232 1005.07,-517.206"/>
</g>
<!-- Node8 -->
<g id="node8" class="node"><title>Node8</title>
<g id="a_node8"><a xlink:href="../../d8/ddb/classgui_1_1_line_view.html#a6cc826f05b0ac955fab89afbfca7c1a8" target="_top" xlink:title="gui.LineView.findYEdge">
<polygon fill="white" stroke="black" points="1215,-472.5 1215,-491.5 1339,-491.5 1339,-472.5 1215,-472.5"/>
<text text-anchor="middle" x="1277" y="-479.5" font-family="Helvetica,sans-Serif" font-size="10.00">gui.LineView.findYEdge</text>
</a>
</g>
</g>
<!-- Node6&#45;&gt;Node8 -->
<g id="edge12" class="edge"><title>Node6&#45;&gt;Node8</title>
<path fill="none" stroke="midnightblue" d="M962.358,-500.016C1030.84,-496.082 1135.09,-490.094 1204.36,-486.115"/>
<polygon fill="midnightblue" stroke="midnightblue" points="1204.96,-489.587 1214.74,-485.519 1204.56,-482.598 1204.96,-489.587"/>
</g>
<!-- Node10 -->
<g id="node10" class="node"><title>Node10</title>
<g id="a_node10"><a xlink:href="../../d8/ddb/classgui_1_1_line_view.html#a4a4d4a5dc42ec1fc8896b453703b6991" target="_top" xlink:title="gui.LineView.findXEdge">
<polygon fill="white" stroke="black" points="1214.5,-510.5 1214.5,-529.5 1339.5,-529.5 1339.5,-510.5 1214.5,-510.5"/>
<text text-anchor="middle" x="1277" y="-517.5" font-family="Helvetica,sans-Serif" font-size="10.00">gui.LineView.findXEdge</text>
</a>
</g>
</g>
<!-- Node6&#45;&gt;Node10 -->
<g id="edge11" class="edge"><title>Node6&#45;&gt;Node10</title>
<path fill="none" stroke="midnightblue" d="M930.134,-519.095C950.892,-526.721 977.455,-535.156 1002,-539 1076.51,-550.669 1163.53,-540.668 1219.17,-531.318"/>
<polygon fill="midnightblue" stroke="midnightblue" points="1219.93,-534.74 1229.18,-529.586 1218.73,-527.842 1219.93,-534.74"/>
</g>
<!-- Node7&#45;&gt;Node8 -->
<g id="edge7" class="edge"><title>Node7&#45;&gt;Node8</title>
<path fill="none" stroke="midnightblue" d="M1129.21,-510.46C1155.77,-505.31 1188.75,-498.916 1216.72,-493.494"/>
<polygon fill="midnightblue" stroke="midnightblue" points="1217.62,-496.883 1226.77,-491.544 1216.29,-490.011 1217.62,-496.883"/>
</g>
<!-- Node7&#45;&gt;Node10 -->
<g id="edge9" class="edge"><title>Node7&#45;&gt;Node10</title>
<path fill="none" stroke="midnightblue" d="M1142.55,-520C1162.2,-520 1184.05,-520 1204.28,-520"/>
<polygon fill="midnightblue" stroke="midnightblue" points="1204.37,-523.5 1214.37,-520 1204.37,-516.5 1204.37,-523.5"/>
</g>
<!-- Node8&#45;&gt;Node9 -->
<g id="edge8" class="edge"><title>Node8&#45;&gt;Node9</title>
<path fill="none" stroke="midnightblue" d="M1339.1,-475.857C1358.3,-473.928 1379.6,-471.786 1399.23,-469.813"/>
<polygon fill="midnightblue" stroke="midnightblue" points="1399.72,-473.281 1409.32,-468.798 1399.02,-466.316 1399.72,-473.281"/>
</g>
<!-- Node10&#45;&gt;Node9 -->
<g id="edge10" class="edge"><title>Node10&#45;&gt;Node9</title>
<path fill="none" stroke="midnightblue" d="M1324.92,-510.474C1337.07,-507.711 1350.09,-504.487 1362,-501 1386.3,-493.884 1413.14,-484.136 1433.6,-476.295"/>
<polygon fill="midnightblue" stroke="midnightblue" points="1435.03,-479.494 1443.09,-472.619 1432.51,-472.967 1435.03,-479.494"/>
</g>
<!-- Node12 -->
<g id="node12" class="node"><title>Node12</title>
<g id="a_node12"><a xlink:href="../../de/d5a/classapplication_1_1_pen.html#ab21d78789fb66a90181393d7cc42796c" target="_top" xlink:title="application.Pen.getStatus">
<polygon fill="white" stroke="black" points="1207,-276.5 1207,-295.5 1347,-295.5 1347,-276.5 1207,-276.5"/>
<text text-anchor="middle" x="1277" y="-283.5" font-family="Helvetica,sans-Serif" font-size="10.00">application.Pen.getStatus</text>
</a>
</g>
</g>
<!-- Node11&#45;&gt;Node12 -->
<g id="edge15" class="edge"><title>Node11&#45;&gt;Node12</title>
<path fill="none" stroke="midnightblue" d="M1151.59,-286C1166.25,-286 1181.77,-286 1196.68,-286"/>
<polygon fill="midnightblue" stroke="midnightblue" points="1196.89,-289.5 1206.89,-286 1196.89,-282.5 1196.89,-289.5"/>
</g>
<!-- Node13&#45;&gt;Node14 -->
<g id="edge17" class="edge"><title>Node13&#45;&gt;Node14</title>
<path fill="none" stroke="midnightblue" d="M720.703,-183.848C743.753,-168.524 781.787,-145.384 818,-133 875.021,-113.5 942.337,-103.475 994.185,-98.338"/>
<polygon fill="midnightblue" stroke="midnightblue" points="994.716,-101.803 1004.34,-97.3745 994.055,-94.8347 994.716,-101.803"/>
</g>
<!-- Node15 -->
<g id="node15" class="node"><title>Node15</title>
<g id="a_node15"><a xlink:href="../../d8/d65/classapplication_1_1_view_handler.html#a8a00eb25a7f1d5e3ccc3059e8b717819" target="_top" xlink:title="application.ViewHandler.get\lTurtleOrientation">
<polygon fill="white" stroke="black" points="1004.5,-134 1004.5,-164 1153.5,-164 1153.5,-134 1004.5,-134"/>
<text text-anchor="start" x="1012.5" y="-152" font-family="Helvetica,sans-Serif" font-size="10.00">application.ViewHandler.get</text>
<text text-anchor="middle" x="1079" y="-141" font-family="Helvetica,sans-Serif" font-size="10.00">TurtleOrientation</text>
</a>
</g>
</g>
<!-- Node13&#45;&gt;Node15 -->
<g id="edge19" class="edge"><title>Node13&#45;&gt;Node15</title>
<path fill="none" stroke="midnightblue" d="M781.633,-192.256C834.504,-187.468 904.469,-180.251 966,-171 975.847,-169.52 986.143,-167.773 996.334,-165.921"/>
<polygon fill="midnightblue" stroke="midnightblue" points="997.274,-169.306 1006.47,-164.04 995.997,-162.424 997.274,-169.306"/>
</g>
<!-- Node17 -->
<g id="node17" class="node"><title>Node17</title>
<g id="a_node17"><a xlink:href="../../d8/d65/classapplication_1_1_view_handler.html#a6f94dbee91670d4c9ae7164f61b8cd03" target="_top" xlink:title="application.ViewHandler.is\lVisible">
<polygon fill="white" stroke="black" points="822,-268 822,-298 962,-298 962,-268 822,-268"/>
<text text-anchor="start" x="830" y="-286" font-family="Helvetica,sans-Serif" font-size="10.00">application.ViewHandler.is</text>
<text text-anchor="middle" x="892" y="-275" font-family="Helvetica,sans-Serif" font-size="10.00">Visible</text>
</a>
</g>
</g>
<!-- Node13&#45;&gt;Node17 -->
<g id="edge21" class="edge"><title>Node13&#45;&gt;Node17</title>
<path fill="none" stroke="midnightblue" d="M726.891,-214.122C750.707,-226.718 786.076,-244.686 818,-258 823.307,-260.213 828.886,-262.387 834.498,-264.473"/>
<polygon fill="midnightblue" stroke="midnightblue" points="833.335,-267.774 843.929,-267.89 835.72,-261.193 833.335,-267.774"/>
</g>
<!-- Node19 -->
<g id="node19" class="node"><title>Node19</title>
<g id="a_node19"><a xlink:href="../../df/dcc/classgui_1_1_turtle_view.html#adcff447c1d488ddfd13d151067e6db7a" target="_top" xlink:title="gui.TurtleView.rotateAnd\lMoveTurtle">
<polygon fill="white" stroke="black" points="826.5,-356 826.5,-386 957.5,-386 957.5,-356 826.5,-356"/>
<text text-anchor="start" x="834.5" y="-374" font-family="Helvetica,sans-Serif" font-size="10.00">gui.TurtleView.rotateAnd</text>
<text text-anchor="middle" x="892" y="-363" font-family="Helvetica,sans-Serif" font-size="10.00">MoveTurtle</text>
</a>
</g>
</g>
<!-- Node13&#45;&gt;Node19 -->
<g id="edge23" class="edge"><title>Node13&#45;&gt;Node19</title>
<path fill="none" stroke="midnightblue" d="M715.475,-214.116C738.369,-235.083 781.149,-274.128 818,-307 833.771,-321.068 851.606,-336.709 865.7,-349.007"/>
<polygon fill="midnightblue" stroke="midnightblue" points="863.683,-351.893 873.521,-355.825 868.283,-346.616 863.683,-351.893"/>
</g>
<!-- Node21 -->
<g id="node21" class="node"><title>Node21</title>
<g id="a_node21"><a xlink:href="../../d8/d65/classapplication_1_1_view_handler.html#a308dcaf9847965fa4a3d261347845f56" target="_top" xlink:title="application.ViewHandler.set\lInfoParamsOfTurtleAndLine">
<polygon fill="white" stroke="black" points="818,-219 818,-249 966,-249 966,-219 818,-219"/>
<text text-anchor="start" x="826" y="-237" font-family="Helvetica,sans-Serif" font-size="10.00">application.ViewHandler.set</text>
<text text-anchor="middle" x="892" y="-226" font-family="Helvetica,sans-Serif" font-size="10.00">InfoParamsOfTurtleAndLine</text>
</a>
</g>
</g>
<!-- Node13&#45;&gt;Node21 -->
<g id="edge26" class="edge"><title>Node13&#45;&gt;Node21</title>
<path fill="none" stroke="midnightblue" d="M781.54,-214.046C790.327,-215.648 799.268,-217.278 808.061,-218.881"/>
<polygon fill="midnightblue" stroke="midnightblue" points="807.443,-222.326 817.908,-220.676 808.698,-215.439 807.443,-222.326"/>
</g>
<!-- Node27 -->
<g id="node27" class="node"><title>Node27</title>
<g id="a_node27"><a xlink:href="../../df/dcc/classgui_1_1_turtle_view.html#afa73e516fcab92ab1c3a6941b6131cb5" target="_top" xlink:title="gui.TurtleView.showTurtle">
<polygon fill="white" stroke="black" points="825.5,-142.5 825.5,-161.5 958.5,-161.5 958.5,-142.5 825.5,-142.5"/>
<text text-anchor="middle" x="892" y="-149.5" font-family="Helvetica,sans-Serif" font-size="10.00">gui.TurtleView.showTurtle</text>
</a>
</g>
</g>
<!-- Node13&#45;&gt;Node27 -->
<g id="edge35" class="edge"><title>Node13&#45;&gt;Node27</title>
<path fill="none" stroke="midnightblue" d="M760.278,-184C786.707,-177.53 817.194,-170.067 842.075,-163.977"/>
<polygon fill="midnightblue" stroke="midnightblue" points="843.133,-167.321 852.014,-161.543 841.469,-160.522 843.133,-167.321"/>
</g>
<!-- Node14&#45;&gt;Node3 -->
<g id="edge18" class="edge"><title>Node14&#45;&gt;Node3</title>
<path fill="none" stroke="midnightblue" d="M1133.56,-77.971C1164.48,-69.2934 1202.9,-58.514 1232.04,-50.3368"/>
<polygon fill="midnightblue" stroke="midnightblue" points="1233.25,-53.6323 1241.93,-47.5606 1231.36,-46.8926 1233.25,-53.6323"/>
</g>
<!-- Node16 -->
<g id="node16" class="node"><title>Node16</title>
<g id="a_node16"><a xlink:href="../../d1/d31/classapplication_1_1_turtle.html#af22147e198fac9068726b95eea235739" target="_top" xlink:title="application.Turtle.getOrientation">
<polygon fill="white" stroke="black" points="1192.5,-139.5 1192.5,-158.5 1361.5,-158.5 1361.5,-139.5 1192.5,-139.5"/>
<text text-anchor="middle" x="1277" y="-146.5" font-family="Helvetica,sans-Serif" font-size="10.00">application.Turtle.getOrientation</text>
</a>
</g>
</g>
<!-- Node15&#45;&gt;Node16 -->
<g id="edge20" class="edge"><title>Node15&#45;&gt;Node16</title>
<path fill="none" stroke="midnightblue" d="M1153.54,-149C1162.97,-149 1172.73,-149 1182.43,-149"/>
<polygon fill="midnightblue" stroke="midnightblue" points="1182.5,-152.5 1192.5,-149 1182.5,-145.5 1182.5,-152.5"/>
</g>
<!-- Node18 -->
<g id="node18" class="node"><title>Node18</title>
<g id="a_node18"><a xlink:href="../../d1/d31/classapplication_1_1_turtle.html#a75e592fccb8420e254ba668429797898" target="_top" xlink:title="application.Turtle.getVisibility">
<polygon fill="white" stroke="black" points="1002,-320.5 1002,-339.5 1156,-339.5 1156,-320.5 1002,-320.5"/>
<text text-anchor="middle" x="1079" y="-327.5" font-family="Helvetica,sans-Serif" font-size="10.00">application.Turtle.getVisibility</text>
</a>
</g>
</g>
<!-- Node17&#45;&gt;Node18 -->
<g id="edge22" class="edge"><title>Node17&#45;&gt;Node18</title>
<path fill="none" stroke="midnightblue" d="M952.044,-298C977.396,-304.441 1006.62,-311.867 1030.54,-317.942"/>
<polygon fill="midnightblue" stroke="midnightblue" points="1029.88,-321.386 1040.44,-320.457 1031.61,-314.602 1029.88,-321.386"/>
</g>
<!-- Node19&#45;&gt;Node9 -->
<g id="edge25" class="edge"><title>Node19&#45;&gt;Node9</title>
<path fill="none" stroke="midnightblue" d="M957.513,-380.763C972.131,-382.893 987.591,-385.082 1002,-387 1161.73,-408.259 1204.46,-396.142 1362,-430 1385.49,-435.049 1411.24,-443.101 1431.36,-449.987"/>
<polygon fill="midnightblue" stroke="midnightblue" points="1430.44,-453.373 1441.04,-453.357 1432.75,-446.763 1430.44,-453.373"/>
</g>
<!-- Node20 -->
<g id="node20" class="node"><title>Node20</title>
<g id="a_node20"><a xlink:href="../../df/dcc/classgui_1_1_turtle_view.html#ab9b87d12b06bce95f2b32ee05a89e7d6" target="_top" xlink:title="gui.TurtleView.rotate">
<polygon fill="white" stroke="black" points="1022.5,-358.5 1022.5,-377.5 1135.5,-377.5 1135.5,-358.5 1022.5,-358.5"/>
<text text-anchor="middle" x="1079" y="-365.5" font-family="Helvetica,sans-Serif" font-size="10.00">gui.TurtleView.rotate</text>
</a>
</g>
</g>
<!-- Node19&#45;&gt;Node20 -->
<g id="edge24" class="edge"><title>Node19&#45;&gt;Node20</title>
<path fill="none" stroke="midnightblue" d="M957.704,-369.951C975.299,-369.665 994.372,-369.356 1012.04,-369.07"/>
<polygon fill="midnightblue" stroke="midnightblue" points="1012.31,-372.566 1022.25,-368.904 1012.2,-365.567 1012.31,-372.566"/>
</g>
<!-- Node21&#45;&gt;Node11 -->
<g id="edge27" class="edge"><title>Node21&#45;&gt;Node11</title>
<path fill="none" stroke="midnightblue" d="M946.51,-249.041C967.89,-255.05 992.672,-262.016 1014.92,-268.269"/>
<polygon fill="midnightblue" stroke="midnightblue" points="1014.04,-271.657 1024.61,-270.993 1015.93,-264.918 1014.04,-271.657"/>
</g>
<!-- Node21&#45;&gt;Node14 -->
<g id="edge28" class="edge"><title>Node21&#45;&gt;Node14</title>
<path fill="none" stroke="midnightblue" d="M912.562,-218.949C927.844,-206.77 949.229,-188.78 966,-171 984.055,-151.859 981.089,-139.971 1002,-124 1007.76,-119.6 1014.23,-115.724 1020.91,-112.338"/>
<polygon fill="midnightblue" stroke="midnightblue" points="1022.53,-115.445 1030.09,-108.022 1019.55,-109.111 1022.53,-115.445"/>
</g>
<!-- Node21&#45;&gt;Node15 -->
<g id="edge29" class="edge"><title>Node21&#45;&gt;Node15</title>
<path fill="none" stroke="midnightblue" d="M935.756,-218.98C945.962,-214.709 956.611,-209.658 966,-204 983.839,-193.25 983.785,-184.1 1002,-174 1005.93,-171.819 1010.09,-169.79 1014.34,-167.91"/>
<polygon fill="midnightblue" stroke="midnightblue" points="1015.86,-171.07 1023.78,-164.028 1013.2,-164.597 1015.86,-171.07"/>
</g>
<!-- Node22 -->
<g id="node22" class="node"><title>Node22</title>
<g id="a_node22"><a xlink:href="../../df/dcb/classapplication_1_1_pen_handler.html#a518bb3076e4d9d105870b0778341a8c0" target="_top" xlink:title="application.PenHandler.set\lThicknessParameter">
<polygon fill="white" stroke="black" points="1007,-222 1007,-252 1151,-252 1151,-222 1007,-222"/>
<text text-anchor="start" x="1015" y="-240" font-family="Helvetica,sans-Serif" font-size="10.00">application.PenHandler.set</text>
<text text-anchor="middle" x="1079" y="-229" font-family="Helvetica,sans-Serif" font-size="10.00">ThicknessParameter</text>
</a>
</g>
</g>
<!-- Node21&#45;&gt;Node22 -->
<g id="edge30" class="edge"><title>Node21&#45;&gt;Node22</title>
<path fill="none" stroke="midnightblue" d="M966.117,-235.186C976.191,-235.349 986.587,-235.518 996.796,-235.683"/>
<polygon fill="midnightblue" stroke="midnightblue" points="996.869,-239.185 1006.92,-235.847 996.983,-232.186 996.869,-239.185"/>
</g>
<!-- Node26 -->
<g id="node26" class="node"><title>Node26</title>
<g id="a_node26"><a xlink:href="../../df/dcc/classgui_1_1_turtle_view.html#a978020a0f6ccbc4714b77c71435b0799" target="_top" xlink:title="gui.TurtleView.setTurtleInfo">
<polygon fill="white" stroke="black" points="1008.5,-183.5 1008.5,-202.5 1149.5,-202.5 1149.5,-183.5 1008.5,-183.5"/>
<text text-anchor="middle" x="1079" y="-190.5" font-family="Helvetica,sans-Serif" font-size="10.00">gui.TurtleView.setTurtleInfo</text>
</a>
</g>
</g>
<!-- Node21&#45;&gt;Node26 -->
<g id="edge34" class="edge"><title>Node21&#45;&gt;Node26</title>
<path fill="none" stroke="midnightblue" d="M960.837,-218.966C982.009,-214.274 1005.04,-209.169 1025.04,-204.738"/>
<polygon fill="midnightblue" stroke="midnightblue" points="1025.88,-208.135 1034.89,-202.554 1024.37,-201.301 1025.88,-208.135"/>
</g>
<!-- Node23 -->
<g id="node23" class="node"><title>Node23</title>
<g id="a_node23"><a xlink:href="../../df/dcb/classapplication_1_1_pen_handler.html#a307ff6736f97a1aa1706da924d7e642b" target="_top" xlink:title="application.PenHandler.get\lPenWeight">
<polygon fill="white" stroke="black" points="1204.5,-225 1204.5,-255 1349.5,-255 1349.5,-225 1204.5,-225"/>
<text text-anchor="start" x="1212.5" y="-243" font-family="Helvetica,sans-Serif" font-size="10.00">application.PenHandler.get</text>
<text text-anchor="middle" x="1277" y="-232" font-family="Helvetica,sans-Serif" font-size="10.00">PenWeight</text>
</a>
</g>
</g>
<!-- Node22&#45;&gt;Node23 -->
<g id="edge31" class="edge"><title>Node22&#45;&gt;Node23</title>
<path fill="none" stroke="midnightblue" d="M1151.04,-238.087C1164.97,-238.301 1179.68,-238.526 1193.94,-238.744"/>
<polygon fill="midnightblue" stroke="midnightblue" points="1194.17,-242.248 1204.22,-238.901 1194.27,-235.249 1194.17,-242.248"/>
</g>
<!-- Node25 -->
<g id="node25" class="node"><title>Node25</title>
<g id="a_node25"><a xlink:href="../../d8/ddb/classgui_1_1_line_view.html#ab32d4cf33024aea52dcb5d1092003d85" target="_top" xlink:title="gui.LineView.setThickness">
<polygon fill="white" stroke="black" points="1207.5,-186.5 1207.5,-205.5 1346.5,-205.5 1346.5,-186.5 1207.5,-186.5"/>
<text text-anchor="middle" x="1277" y="-193.5" font-family="Helvetica,sans-Serif" font-size="10.00">gui.LineView.setThickness</text>
</a>
</g>
</g>
<!-- Node22&#45;&gt;Node25 -->
<g id="edge33" class="edge"><title>Node22&#45;&gt;Node25</title>
<path fill="none" stroke="midnightblue" d="M1151.04,-222.14C1173.93,-217.352 1198.94,-212.12 1220.54,-207.602"/>
<polygon fill="midnightblue" stroke="midnightblue" points="1221.45,-210.988 1230.52,-205.514 1220.01,-204.136 1221.45,-210.988"/>
</g>
<!-- Node24 -->
<g id="node24" class="node"><title>Node24</title>
<g id="a_node24"><a xlink:href="../../de/d5a/classapplication_1_1_pen.html#aaaae5f55fadb97afef2ae286a6119a58" target="_top" xlink:title="application.Pen.getWeight">
<polygon fill="white" stroke="black" points="1398,-230.5 1398,-249.5 1538,-249.5 1538,-230.5 1398,-230.5"/>
<text text-anchor="middle" x="1468" y="-237.5" font-family="Helvetica,sans-Serif" font-size="10.00">application.Pen.getWeight</text>
</a>
</g>
</g>
<!-- Node23&#45;&gt;Node24 -->
<g id="edge32" class="edge"><title>Node23&#45;&gt;Node24</title>
<path fill="none" stroke="midnightblue" d="M1349.72,-240C1362.16,-240 1375.17,-240 1387.8,-240"/>
<polygon fill="midnightblue" stroke="midnightblue" points="1387.82,-243.5 1397.82,-240 1387.82,-236.5 1387.82,-243.5"/>
</g>
<!-- Node29&#45;&gt;Node3 -->
<g id="edge38" class="edge"><title>Node29&#45;&gt;Node3</title>
<path fill="none" stroke="midnightblue" d="M558.032,-66.9711C575.896,-63.0191 595.645,-59.2388 614,-57 825.476,-31.2049 1077.63,-32.7968 1200.79,-35.6441"/>
<polygon fill="midnightblue" stroke="midnightblue" points="1200.78,-39.1449 1210.86,-35.8866 1200.95,-32.1469 1200.78,-39.1449"/>
</g>
<!-- Node29&#45;&gt;Node28 -->
<g id="edge41" class="edge"><title>Node29&#45;&gt;Node28</title>
<path fill="none" stroke="midnightblue" d="M566.587,-97.0192C591.975,-102.661 620.439,-108.986 644.281,-114.285"/>
<polygon fill="midnightblue" stroke="midnightblue" points="643.673,-117.735 654.194,-116.488 645.192,-110.902 643.673,-117.735"/>
</g>
<!-- Node30 -->
<g id="node30" class="node"><title>Node30</title>
<g id="a_node30"><a xlink:href="../../d8/d65/classapplication_1_1_view_handler.html#aba2ed11a44abfaf2d5684ab5a7bbb33f" target="_top" xlink:title="application.ViewHandler.get\lViewTurtleLocation">
<polygon fill="white" stroke="black" points="623.5,-67 623.5,-97 772.5,-97 772.5,-67 623.5,-67"/>
<text text-anchor="start" x="631.5" y="-85" font-family="Helvetica,sans-Serif" font-size="10.00">application.ViewHandler.get</text>
<text text-anchor="middle" x="698" y="-74" font-family="Helvetica,sans-Serif" font-size="10.00">ViewTurtleLocation</text>
</a>
</g>
</g>
<!-- Node29&#45;&gt;Node30 -->
<g id="edge39" class="edge"><title>Node29&#45;&gt;Node30</title>
<path fill="none" stroke="midnightblue" d="M572.165,-82C585.509,-82 599.525,-82 613.15,-82"/>
<polygon fill="midnightblue" stroke="midnightblue" points="613.474,-85.5001 623.474,-82 613.474,-78.5001 613.474,-85.5001"/>
</g>
<!-- Node31 -->
<g id="node31" class="node"><title>Node31</title>
<g id="a_node31"><a xlink:href="../../d8/d8b/classgui_1_1_view.html#a805679dcb8753b21508755667f09fac9" target="_top" xlink:title="gui.View.getNewPoint">
<polygon fill="white" stroke="black" points="833,-66.5 833,-85.5 951,-85.5 951,-66.5 833,-66.5"/>
<text text-anchor="middle" x="892" y="-73.5" font-family="Helvetica,sans-Serif" font-size="10.00">gui.View.getNewPoint</text>
</a>
</g>
</g>
<!-- Node30&#45;&gt;Node31 -->
<g id="edge40" class="edge"><title>Node30&#45;&gt;Node31</title>
<path fill="none" stroke="midnightblue" d="M772.683,-79.6974C788.992,-79.1877 806.211,-78.6497 822.311,-78.1465"/>
<polygon fill="midnightblue" stroke="midnightblue" points="822.824,-81.6323 832.71,-77.8216 822.605,-74.6357 822.824,-81.6323"/>
</g>
</g>
</svg>
