<?xml version="1.0" encoding="UTF-8" standalone="no"?>
<!DOCTYPE svg PUBLIC "-//W3C//DTD SVG 1.1//EN"
 "http://www.w3.org/Graphics/SVG/1.1/DTD/svg11.dtd">
<!-- Generated by graphviz version 2.36.0 (20140111.2315)
 -->
<!-- Title: commands.viewCommands.SetPenColor Pages: 1 -->
<!--zoomable 406 -->
<svg id="main" version="1.1" xmlns="http://www.w3.org/2000/svg" xmlns:xlink="http://www.w3.org/1999/xlink" xml:space="preserve" onload="init(evt)">
<style type="text/css"><![CDATA[
.edge:hover path { stroke: red; }
.edge:hover polygon { stroke: red; fill: red; }
]]></style>
<script type="text/javascript"><![CDATA[
var edges = document.getElementsByTagName('g');
if (edges && edges.length) {
  for (var i=0;i<edges.length;i++) {
    if (edges[i].id.substr(0,4)=='edge') {
      edges[i].setAttribute('class','edge');
    }
  }
}
]]></script>
        <defs>
                <circle id="rim" cx="0" cy="0" r="7"/>
                <circle id="rim2" cx="0" cy="0" r="3.5"/>
                <g id="zoomPlus">
                        <use xlink:href="#rim" fill="#404040">
                                <set attributeName="fill" to="#808080" begin="zoomplus.mouseover" end="zoomplus.mouseout"/>
                        </use>
                        <path d="M-4,0h8M0,-4v8" fill="none" stroke="white" stroke-width="1.5" pointer-events="none"/>
                </g>
                <g id="zoomMin">
                        <use xlink:href="#rim" fill="#404040">
                                <set attributeName="fill" to="#808080" begin="zoomminus.mouseover" end="zoomminus.mouseout"/>
                        </use>
                        <path d="M-4,0h8" fill="none" stroke="white" stroke-width="1.5" pointer-events="none"/>
                </g>
                <g id="dirArrow">
                        <path fill="none" stroke="white" stroke-width="1.5" d="M0,-3.0v7 M-2.5,-0.5L0,-3.0L2.5,-0.5"/>
                </g>
               <g id="resetDef">
                       <use xlink:href="#rim2" fill="#404040">
                               <set attributeName="fill" to="#808080" begin="reset.mouseover" end="reset.mouseout"/>
                       </use>
               </g>
        </defs>

<script type="text/javascript">
var viewWidth = 787;
var viewHeight = 406;
var sectionId = 'dynsection-1';
</script>
<script xlink:href="../../svgpan.js"/>
<svg id="graph" class="graph">
<g id="viewport">
<title>commands.viewCommands.SetPenColor</title>
<polygon fill="white" stroke="none" points="-4,4 -4,-402 783,-402 783,4 -4,4"/>
<!-- Node1 -->
<g id="node1" class="node"><title>Node1</title>
<polygon fill="#bfbfbf" stroke="black" points="167.5,-1 167.5,-31 336.5,-31 336.5,-1 167.5,-1"/>
<text text-anchor="start" x="175.5" y="-19" font-family="Helvetica,sans-Serif" font-size="10.00">commands.viewCommands.Set</text>
<text text-anchor="middle" x="252" y="-8" font-family="Helvetica,sans-Serif" font-size="10.00">PenColor</text>
</g>
<!-- Node2 -->
<g id="node2" class="node"><title>Node2</title>
<g id="a_node2"><a xlink:href="../../df/d8d/classcommands_1_1view_commands_1_1_view_commands.html" target="_top" xlink:title="commands.viewCommands.View\lCommands">
<polygon fill="white" stroke="black" points="165,-71 165,-101 339,-101 339,-71 165,-71"/>
<text text-anchor="start" x="173" y="-89" font-family="Helvetica,sans-Serif" font-size="10.00">commands.viewCommands.View</text>
<text text-anchor="middle" x="252" y="-78" font-family="Helvetica,sans-Serif" font-size="10.00">Commands</text>
</a>
</g>
</g>
<!-- Node2&#45;&gt;Node1 -->
<g id="edge1" class="edge"><title>Node2&#45;&gt;Node1</title>
<path fill="none" stroke="midnightblue" d="M252,-60.7688C252,-50.8141 252,-39.6384 252,-31.0716"/>
<polygon fill="midnightblue" stroke="midnightblue" points="248.5,-60.9103 252,-70.9104 255.5,-60.9104 248.5,-60.9103"/>
</g>
<!-- Node3 -->
<g id="node3" class="node"><title>Node3</title>
<g id="a_node3"><a xlink:href="../../dc/d3e/classcommands_1_1_command_center.html" target="_top" xlink:title="commands.CommandCenter">
<polygon fill="white" stroke="black" points="60,-150.5 60,-169.5 216,-169.5 216,-150.5 60,-150.5"/>
<text text-anchor="middle" x="138" y="-157.5" font-family="Helvetica,sans-Serif" font-size="10.00">commands.CommandCenter</text>
</a>
</g>
</g>
<!-- Node3&#45;&gt;Node2 -->
<g id="edge2" class="edge"><title>Node3&#45;&gt;Node2</title>
<path fill="none" stroke="midnightblue" d="M160.25,-144.948C180.224,-132.332 209.406,-113.902 229.467,-101.232"/>
<polygon fill="midnightblue" stroke="midnightblue" points="158.111,-142.159 151.525,-150.458 161.849,-148.077 158.111,-142.159"/>
</g>
<!-- Node4 -->
<g id="node4" class="node"><title>Node4</title>
<g id="a_node4"><a xlink:href="../../d1/d4d/interfacecommands_1_1view_commands_1_1turtle_commands_1_1_executable.html" target="_top" xlink:title="commands.viewCommands.turtle\lCommands.Executable">
<polygon fill="white" stroke="black" points="0,-219 0,-249 178,-249 178,-219 0,-219"/>
<text text-anchor="start" x="8" y="-237" font-family="Helvetica,sans-Serif" font-size="10.00">commands.viewCommands.turtle</text>
<text text-anchor="middle" x="89" y="-226" font-family="Helvetica,sans-Serif" font-size="10.00">Commands.Executable</text>
</a>
</g>
</g>
<!-- Node4&#45;&gt;Node3 -->
<g id="edge3" class="edge"><title>Node4&#45;&gt;Node3</title>
<path fill="none" stroke="midnightblue" d="M104.467,-210.273C113.827,-196.52 125.232,-179.762 132.039,-169.759"/>
<polygon fill="midnightblue" stroke="midnightblue" points="101.414,-208.539 98.6808,-218.775 107.201,-212.477 101.414,-208.539"/>
</g>
<!-- Node5 -->
<g id="node5" class="node"><title>Node5</title>
<polygon fill="white" stroke="#bfbfbf" points="196,-224.5 196,-243.5 308,-243.5 308,-224.5 196,-224.5"/>
<text text-anchor="middle" x="252" y="-231.5" font-family="Helvetica,sans-Serif" font-size="10.00">ArrayList&lt; Object &gt;</text>
</g>
<!-- Node5&#45;&gt;Node2 -->
<g id="edge17" class="edge"><title>Node5&#45;&gt;Node2</title>
<path fill="none" stroke="#9a32cd" stroke-dasharray="5,2" d="M252,-214.057C252,-184.394 252,-127.643 252,-101.207"/>
<polygon fill="#9a32cd" stroke="#9a32cd" points="248.5,-214.304 252,-224.304 255.5,-214.304 248.5,-214.304"/>
<text text-anchor="middle" x="272" y="-157.5" font-family="Helvetica,sans-Serif" font-size="10.00"> params</text>
</g>
<!-- Node5&#45;&gt;Node3 -->
<g id="edge4" class="edge"><title>Node5&#45;&gt;Node3</title>
<path fill="none" stroke="#9a32cd" stroke-dasharray="5,2" d="M217.665,-220.661C204.698,-215.252 190.152,-208.244 178,-200 165.158,-191.288 152.744,-178.231 145.239,-169.664"/>
<polygon fill="#9a32cd" stroke="#9a32cd" points="216.623,-224.014 227.208,-224.48 219.224,-217.515 216.623,-224.014"/>
<text text-anchor="middle" x="208" y="-191.5" font-family="Helvetica,sans-Serif" font-size="10.00"> parameters</text>
</g>
<!-- Node6 -->
<g id="node6" class="node"><title>Node6</title>
<g id="a_node6"><a xlink:href="../../df/dcb/classapplication_1_1_pen_handler.html" target="_top" xlink:title="application.PenHandler">
<polygon fill="white" stroke="black" points="310.5,-150.5 310.5,-169.5 437.5,-169.5 437.5,-150.5 310.5,-150.5"/>
<text text-anchor="middle" x="374" y="-157.5" font-family="Helvetica,sans-Serif" font-size="10.00">application.PenHandler</text>
</a>
</g>
</g>
<!-- Node6&#45;&gt;Node2 -->
<g id="edge5" class="edge"><title>Node6&#45;&gt;Node2</title>
<path fill="none" stroke="#9a32cd" stroke-dasharray="5,2" d="M350.767,-145.289C329.379,-132.666 297.778,-114.016 276.115,-101.232"/>
<polygon fill="#9a32cd" stroke="#9a32cd" points="349.135,-148.39 359.526,-150.458 352.693,-142.361 349.135,-148.39"/>
<text text-anchor="middle" x="344" y="-123.5" font-family="Helvetica,sans-Serif" font-size="10.00"> myPH</text>
</g>
<!-- Node7 -->
<g id="node7" class="node"><title>Node7</title>
<g id="a_node7"><a xlink:href="../../de/d5a/classapplication_1_1_pen.html" target="_top" xlink:title="application.Pen">
<polygon fill="white" stroke="black" points="327.5,-224.5 327.5,-243.5 416.5,-243.5 416.5,-224.5 327.5,-224.5"/>
<text text-anchor="middle" x="372" y="-231.5" font-family="Helvetica,sans-Serif" font-size="10.00">application.Pen</text>
</a>
</g>
</g>
<!-- Node7&#45;&gt;Node6 -->
<g id="edge6" class="edge"><title>Node7&#45;&gt;Node6</title>
<path fill="none" stroke="#9a32cd" stroke-dasharray="5,2" d="M372.523,-214.156C372.925,-199.712 373.459,-180.459 373.763,-169.531"/>
<polygon fill="#9a32cd" stroke="#9a32cd" points="369.016,-214.365 372.237,-224.458 376.014,-214.559 369.016,-214.365"/>
<text text-anchor="middle" x="392.5" y="-191.5" font-family="Helvetica,sans-Serif" font-size="10.00"> myPen</text>
</g>
<!-- Node8 -->
<g id="node8" class="node"><title>Node8</title>
<polygon fill="white" stroke="#bfbfbf" points="127,-299.5 127,-318.5 251,-318.5 251,-299.5 127,-299.5"/>
<text text-anchor="middle" x="189" y="-306.5" font-family="Helvetica,sans-Serif" font-size="10.00">Map&lt; Integer, Color &gt;</text>
</g>
<!-- Node8&#45;&gt;Node7 -->
<g id="edge7" class="edge"><title>Node8&#45;&gt;Node7</title>
<path fill="none" stroke="#9a32cd" stroke-dasharray="5,2" d="M206.607,-293.133C217.383,-284.696 231.792,-274.547 246,-268 275.175,-254.556 284.929,-258.156 316,-250 323.885,-247.93 332.387,-245.668 340.326,-243.543"/>
<polygon fill="#9a32cd" stroke="#9a32cd" points="204.393,-290.421 198.817,-299.43 208.794,-295.865 204.393,-290.421"/>
<text text-anchor="middle" x="290" y="-271.5" font-family="Helvetica,sans-Serif" font-size="10.00"> myPaletteOptions</text>
</g>
<!-- Node9 -->
<g id="node9" class="node"><title>Node9</title>
<g id="a_node9"><a xlink:href="../../d0/d9b/enumapplication_1_1_pen_1_1_p_e_n_s_t_y_l_e.html" target="_top" xlink:title="application.Pen.PENSTYLE">
<polygon fill="white" stroke="black" points="269,-299.5 269,-318.5 409,-318.5 409,-299.5 269,-299.5"/>
<text text-anchor="middle" x="339" y="-306.5" font-family="Helvetica,sans-Serif" font-size="10.00">application.Pen.PENSTYLE</text>
</a>
</g>
</g>
<!-- Node9&#45;&gt;Node7 -->
<g id="edge8" class="edge"><title>Node9&#45;&gt;Node7</title>
<path fill="none" stroke="#9a32cd" stroke-dasharray="5,2" d="M336.67,-288.925C336.552,-282.093 337.278,-274.483 340,-268 344.14,-258.14 352.713,-249.561 359.945,-243.623"/>
<polygon fill="#9a32cd" stroke="#9a32cd" points="333.214,-289.645 337.459,-299.352 340.194,-289.116 333.214,-289.645"/>
<text text-anchor="middle" x="361.5" y="-271.5" font-family="Helvetica,sans-Serif" font-size="10.00"> myStyle</text>
</g>
<!-- Node10 -->
<g id="node10" class="node"><title>Node10</title>
<polygon fill="white" stroke="#bfbfbf" points="432.5,-299.5 432.5,-318.5 473.5,-318.5 473.5,-299.5 432.5,-299.5"/>
<text text-anchor="middle" x="453" y="-306.5" font-family="Helvetica,sans-Serif" font-size="10.00">Color</text>
</g>
<!-- Node10&#45;&gt;Node7 -->
<g id="edge9" class="edge"><title>Node10&#45;&gt;Node7</title>
<path fill="none" stroke="#9a32cd" stroke-dasharray="5,2" d="M425.877,-294.257C419.024,-290.154 411.934,-285.316 406,-280 393.893,-269.154 383.191,-253.453 377.163,-243.753"/>
<polygon fill="#9a32cd" stroke="#9a32cd" points="424.514,-297.506 434.943,-299.372 427.953,-291.409 424.514,-297.506"/>
<text text-anchor="middle" x="427.5" y="-271.5" font-family="Helvetica,sans-Serif" font-size="10.00"> myColor</text>
</g>
<!-- Node11 -->
<g id="node11" class="node"><title>Node11</title>
<g id="a_node11"><a xlink:href="../../d8/ddb/classgui_1_1_line_view.html" target="_top" xlink:title="gui.LineView">
<polygon fill="white" stroke="black" points="556.5,-224.5 556.5,-243.5 631.5,-243.5 631.5,-224.5 556.5,-224.5"/>
<text text-anchor="middle" x="594" y="-231.5" font-family="Helvetica,sans-Serif" font-size="10.00">gui.LineView</text>
</a>
</g>
</g>
<!-- Node10&#45;&gt;Node11 -->
<g id="edge16" class="edge"><title>Node10&#45;&gt;Node11</title>
<path fill="none" stroke="#9a32cd" stroke-dasharray="5,2" d="M456.076,-289.443C458.225,-281.837 461.862,-273.538 468,-268 492.092,-246.262 528.765,-238.525 556.345,-235.923"/>
<polygon fill="#9a32cd" stroke="#9a32cd" points="452.621,-288.857 453.92,-299.372 459.462,-290.342 452.621,-288.857"/>
<text text-anchor="middle" x="522" y="-271.5" font-family="Helvetica,sans-Serif" font-size="10.00"> DEFAULT_PEN_COLOR</text>
</g>
<!-- Node11&#45;&gt;Node6 -->
<g id="edge10" class="edge"><title>Node11&#45;&gt;Node6</title>
<path fill="none" stroke="#9a32cd" stroke-dasharray="5,2" d="M558.391,-221.346C514.064,-206.839 439.41,-182.407 400.067,-169.531"/>
<polygon fill="#9a32cd" stroke="#9a32cd" points="557.307,-224.674 567.899,-224.458 559.484,-218.021 557.307,-224.674"/>
<text text-anchor="middle" x="521" y="-191.5" font-family="Helvetica,sans-Serif" font-size="10.00"> myLineView</text>
</g>
<!-- Node12 -->
<g id="node12" class="node"><title>Node12</title>
<g id="a_node12"><a xlink:href="../../d8/d8b/classgui_1_1_view.html" target="_top" xlink:title="gui.View">
<polygon fill="white" stroke="black" points="497,-299.5 497,-318.5 553,-318.5 553,-299.5 497,-299.5"/>
<text text-anchor="middle" x="525" y="-306.5" font-family="Helvetica,sans-Serif" font-size="10.00">gui.View</text>
</a>
</g>
</g>
<!-- Node12&#45;&gt;Node11 -->
<g id="edge11" class="edge"><title>Node12&#45;&gt;Node11</title>
<path fill="none" stroke="midnightblue" d="M560.766,-295.05C567.909,-291.12 574.802,-286.162 580,-280 588.863,-269.494 592.123,-253.397 593.316,-243.572"/>
<polygon fill="midnightblue" stroke="midnightblue" points="559.137,-291.951 551.694,-299.491 562.214,-298.238 559.137,-291.951"/>
</g>
<!-- Node13 -->
<g id="node13" class="node"><title>Node13</title>
<polygon fill="white" stroke="#bfbfbf" points="466,-378.5 466,-397.5 518,-397.5 518,-378.5 466,-378.5"/>
<text text-anchor="middle" x="492" y="-385.5" font-family="Helvetica,sans-Serif" font-size="10.00">Canvas</text>
</g>
<!-- Node13&#45;&gt;Node12 -->
<g id="edge12" class="edge"><title>Node13&#45;&gt;Node12</title>
<path fill="none" stroke="midnightblue" d="M495.806,-368.525C498.105,-359.128 501.476,-347.678 506,-338 509.184,-331.188 513.934,-324.188 517.888,-318.891"/>
<polygon fill="midnightblue" stroke="midnightblue" points="492.368,-367.86 493.594,-378.384 499.198,-369.392 492.368,-367.86"/>
</g>
<!-- Node14 -->
<g id="node14" class="node"><title>Node14</title>
<polygon fill="white" stroke="#bfbfbf" points="564,-378.5 564,-397.5 618,-397.5 618,-378.5 564,-378.5"/>
<text text-anchor="middle" x="591" y="-385.5" font-family="Helvetica,sans-Serif" font-size="10.00">Point2D</text>
</g>
<!-- Node14&#45;&gt;Node11 -->
<g id="edge15" class="edge"><title>Node14&#45;&gt;Node11</title>
<path fill="none" stroke="#9a32cd" stroke-dasharray="5,2" d="M601.598,-369.463C603.003,-366.404 604.224,-363.181 605,-360 615.425,-317.246 602.549,-264.136 596.653,-243.632"/>
<polygon fill="#9a32cd" stroke="#9a32cd" points="598.435,-367.957 596.799,-378.425 604.606,-371.262 598.435,-367.957"/>
<text text-anchor="middle" x="631" y="-312" font-family="Helvetica,sans-Serif" font-size="10.00"> newStart</text>
<text text-anchor="middle" x="631" y="-301" font-family="Helvetica,sans-Serif" font-size="10.00">newDest</text>
</g>
<!-- Node14&#45;&gt;Node12 -->
<g id="edge13" class="edge"><title>Node14&#45;&gt;Node12</title>
<path fill="none" stroke="#9a32cd" stroke-dasharray="5,2" d="M553.95,-379.767C543.164,-375.773 532.536,-369.584 526,-360 517.586,-347.663 520.027,-329.333 522.535,-318.632"/>
<polygon fill="#9a32cd" stroke="#9a32cd" points="553.197,-383.199 563.787,-382.852 555.292,-376.52 553.197,-383.199"/>
<text text-anchor="middle" x="565.5" y="-352" font-family="Helvetica,sans-Serif" font-size="10.00"> DEFAULT_POINT</text>
<text text-anchor="middle" x="565.5" y="-341" font-family="Helvetica,sans-Serif" font-size="10.00">newDest</text>
</g>
<!-- Node15 -->
<g id="node15" class="node"><title>Node15</title>
<polygon fill="white" stroke="#bfbfbf" points="683,-299.5 683,-318.5 779,-318.5 779,-299.5 683,-299.5"/>
<text text-anchor="middle" x="731" y="-306.5" font-family="Helvetica,sans-Serif" font-size="10.00">GraphicsContext</text>
</g>
<!-- Node15&#45;&gt;Node11 -->
<g id="edge14" class="edge"><title>Node15&#45;&gt;Node11</title>
<path fill="none" stroke="#9a32cd" stroke-dasharray="5,2" d="M705.91,-294.631C678.077,-279.8 633.982,-256.304 610.307,-243.689"/>
<polygon fill="#9a32cd" stroke="#9a32cd" points="704.545,-297.869 715.016,-299.483 707.837,-291.692 704.545,-297.869"/>
<text text-anchor="middle" x="694" y="-271.5" font-family="Helvetica,sans-Serif" font-size="10.00"> linesGC</text>
</g>
</g>
</svg>
        <g id="navigator" transform="translate(0 0)" fill="#404254">
                <rect fill="#f2f5e9" fill-opacity="0.5" stroke="#606060" stroke-width=".5" x="0" y="0" width="60" height="60"/>
                <use id="zoomplus" xlink:href="#zoomPlus" x="17" y="9" onmousedown="handleZoom(evt,'in')"/>
                <use id="zoomminus" xlink:href="#zoomMin" x="42" y="9" onmousedown="handleZoom(evt,'out')"/>
                <use id="reset" xlink:href="#resetDef" x="30" y="36" onmousedown="handleReset()"/>
                <g id="arrowUp" xlink:href="#dirArrow" transform="translate(30 24)" onmousedown="handlePan(0,-1)">
                  <use xlink:href="#rim" fill="#404040">
                        <set attributeName="fill" to="#808080" begin="arrowUp.mouseover" end="arrowUp.mouseout"/>
                  </use>
                  <path fill="none" stroke="white" stroke-width="1.5" d="M0,-3.0v7 M-2.5,-0.5L0,-3.0L2.5,-0.5"/>
                </g>
                <g id="arrowRight" xlink:href="#dirArrow" transform="rotate(90) translate(36 -43)" onmousedown="handlePan(1,0)">
                  <use xlink:href="#rim" fill="#404040">
                        <set attributeName="fill" to="#808080" begin="arrowRight.mouseover" end="arrowRight.mouseout"/>
                  </use>
                  <path fill="none" stroke="white" stroke-width="1.5" d="M0,-3.0v7 M-2.5,-0.5L0,-3.0L2.5,-0.5"/>
                </g>
                <g id="arrowDown" xlink:href="#dirArrow" transform="rotate(180) translate(-30 -48)" onmousedown="handlePan(0,1)">
                  <use xlink:href="#rim" fill="#404040">
                        <set attributeName="fill" to="#808080" begin="arrowDown.mouseover" end="arrowDown.mouseout"/>
                  </use>
                  <path fill="none" stroke="white" stroke-width="1.5" d="M0,-3.0v7 M-2.5,-0.5L0,-3.0L2.5,-0.5"/>
                </g>
                <g id="arrowLeft" xlink:href="#dirArrow" transform="rotate(270) translate(-36 17)" onmousedown="handlePan(-1,0)">
                  <use xlink:href="#rim" fill="#404040">
                        <set attributeName="fill" to="#808080" begin="arrowLeft.mouseover" end="arrowLeft.mouseout"/>
                  </use>
                  <path fill="none" stroke="white" stroke-width="1.5" d="M0,-3.0v7 M-2.5,-0.5L0,-3.0L2.5,-0.5"/>
                </g>
        </g>
        <svg viewBox="0 0 15 15" width="100%" height="30px" preserveAspectRatio="xMaxYMin meet">
         <g id="arrow_out" transform="scale(0.3 0.3)">
          <a xlink:href="classcommands_1_1view_commands_1_1_set_pen_color__coll__graph_org.svg" target="_base">
           <rect id="button" ry="5" rx="5" y="6" x="6" height="38" width="38"
                fill="#f2f5e9" fill-opacity="0.5" stroke="#606060" stroke-width="1.0"/>
           <path id="arrow"
             d="M 11.500037,31.436501 C 11.940474,20.09759 22.043105,11.32322 32.158766,21.979434 L 37.068811,17.246167 C 37.068811,17.246167 37.088388,32 37.088388,32 L 22.160133,31.978069 C 22.160133,31.978069 26.997745,27.140456 26.997745,27.140456 C 18.528582,18.264221 13.291696,25.230495 11.500037,31.436501 z"
             style="fill:#404040;"/>
          </a>
         </g>
        </svg>
</svg>
