<?xml version="1.0" encoding="UTF-8" standalone="no"?>
<!DOCTYPE svg PUBLIC "-//W3C//DTD SVG 1.1//EN"
 "http://www.w3.org/Graphics/SVG/1.1/DTD/svg11.dtd">
<!-- Generated by graphviz version 2.36.0 (20140111.2315)
 -->
<!-- Title: Tree.Node.getValue Pages: 1 -->
<svg width="788pt" height="446pt"
 viewBox="0.00 0.00 788.00 446.00" xmlns="http://www.w3.org/2000/svg" xmlns:xlink="http://www.w3.org/1999/xlink">
<g id="graph0" class="graph" transform="scale(1 1) rotate(0) translate(4 442)">
<title>Tree.Node.getValue</title>
<polygon fill="white" stroke="none" points="-4,4 -4,-442 784,-442 784,4 -4,4"/>
<!-- Node1 -->
<g id="node1" class="node"><title>Node1</title>
<polygon fill="#bfbfbf" stroke="black" points="0,-176.5 0,-195.5 110,-195.5 110,-176.5 0,-176.5"/>
<text text-anchor="middle" x="55" y="-183.5" font-family="Helvetica,sans-Serif" font-size="10.00">Tree.Node.getValue</text>
</g>
<!-- Node2 -->
<g id="node2" class="node"><title>Node2</title>
<g id="a_node2"><a xlink:href="../../d7/d56/classconfiguration_1_1_ifelse_parser.html#aef13959a758ccbf8dab0a3f5f94a7be0" target="_top" xlink:title="configuration.IfelseParser.evaluate\lBoolExpr">
<polygon fill="white" stroke="black" points="155,-381 155,-411 335,-411 335,-381 155,-381"/>
<text text-anchor="start" x="163" y="-399" font-family="Helvetica,sans-Serif" font-size="10.00">configuration.IfelseParser.evaluate</text>
<text text-anchor="middle" x="245" y="-388" font-family="Helvetica,sans-Serif" font-size="10.00">BoolExpr</text>
</a>
</g>
</g>
<!-- Node1&#45;&gt;Node2 -->
<g id="edge1" class="edge"><title>Node1&#45;&gt;Node2</title>
<path fill="none" stroke="midnightblue" d="M59.8469,-205.674C68.3335,-243.671 92.3291,-327.251 146,-371 150.764,-374.883 156.056,-378.171 161.645,-380.955"/>
<polygon fill="midnightblue" stroke="midnightblue" points="63.2607,-204.9 57.7735,-195.837 56.4112,-206.344 63.2607,-204.9"/>
</g>
<!-- Node5 -->
<g id="node5" class="node"><title>Node5</title>
<g id="a_node5"><a xlink:href="../../d3/d0d/classconfiguration_1_1_repeat_parser.html#ab218ee8c24e4dab18c02cd4a536d15d3" target="_top" xlink:title="configuration.RepeatParser.fetch\lNumericExpr">
<polygon fill="white" stroke="black" points="159.5,-332 159.5,-362 330.5,-362 330.5,-332 159.5,-332"/>
<text text-anchor="start" x="167.5" y="-350" font-family="Helvetica,sans-Serif" font-size="10.00">configuration.RepeatParser.fetch</text>
<text text-anchor="middle" x="245" y="-339" font-family="Helvetica,sans-Serif" font-size="10.00">NumericExpr</text>
</a>
</g>
</g>
<!-- Node1&#45;&gt;Node5 -->
<g id="edge4" class="edge"><title>Node1&#45;&gt;Node5</title>
<path fill="none" stroke="midnightblue" d="M63.3841,-205.317C75.7831,-235.093 103.662,-291.903 146,-322 151.438,-325.866 157.421,-329.135 163.668,-331.899"/>
<polygon fill="midnightblue" stroke="midnightblue" points="66.4869,-203.651 59.5183,-195.67 59.9891,-206.254 66.4869,-203.651"/>
</g>
<!-- Node7 -->
<g id="node7" class="node"><title>Node7</title>
<g id="a_node7"><a xlink:href="../../dc/d64/classconfiguration_1_1_for_parser.html#a95aeb8afdb254389dcef062be1cf2727" target="_top" xlink:title="configuration.ForParser.fetch\lNumericExpr">
<polygon fill="white" stroke="black" points="168.5,-283 168.5,-313 321.5,-313 321.5,-283 168.5,-283"/>
<text text-anchor="start" x="176.5" y="-301" font-family="Helvetica,sans-Serif" font-size="10.00">configuration.ForParser.fetch</text>
<text text-anchor="middle" x="245" y="-290" font-family="Helvetica,sans-Serif" font-size="10.00">NumericExpr</text>
</a>
</g>
</g>
<!-- Node1&#45;&gt;Node7 -->
<g id="edge6" class="edge"><title>Node1&#45;&gt;Node7</title>
<path fill="none" stroke="midnightblue" d="M69.5074,-203.731C85.5803,-223.583 114.263,-255.285 146,-273 152.976,-276.894 160.568,-280.194 168.337,-282.987"/>
<polygon fill="midnightblue" stroke="midnightblue" points="72.1744,-201.461 63.2312,-195.781 66.68,-205.798 72.1744,-201.461"/>
</g>
<!-- Node9 -->
<g id="node9" class="node"><title>Node9</title>
<g id="a_node9"><a xlink:href="../../d9/dfc/classconfiguration_1_1_dotimes_parser.html#a26cc7f8e0a21d93091bfe8884a924450" target="_top" xlink:title="configuration.DotimesParser.fetch\lNumericExpr">
<polygon fill="white" stroke="black" points="155.5,-234 155.5,-264 334.5,-264 334.5,-234 155.5,-234"/>
<text text-anchor="start" x="163.5" y="-252" font-family="Helvetica,sans-Serif" font-size="10.00">configuration.DotimesParser.fetch</text>
<text text-anchor="middle" x="245" y="-241" font-family="Helvetica,sans-Serif" font-size="10.00">NumericExpr</text>
</a>
</g>
</g>
<!-- Node1&#45;&gt;Node9 -->
<g id="edge8" class="edge"><title>Node1&#45;&gt;Node9</title>
<path fill="none" stroke="midnightblue" d="M85.9505,-199.977C103.254,-207.714 125.575,-217.126 146,-224 156.651,-227.584 168.101,-230.939 179.285,-233.955"/>
<polygon fill="midnightblue" stroke="midnightblue" points="86.9477,-196.587 76.3946,-195.647 84.0586,-202.963 86.9477,-196.587"/>
</g>
<!-- Node12 -->
<g id="node12" class="node"><title>Node12</title>
<g id="a_node12"><a xlink:href="../../d6/d0f/class_tree_1_1_single_node.html#ac8b9756e1e55be947a5d992e48e637fb" target="_top" xlink:title="Tree.SingleNode.getValue">
<polygon fill="white" stroke="black" points="175.5,-195.5 175.5,-214.5 314.5,-214.5 314.5,-195.5 175.5,-195.5"/>
<text text-anchor="middle" x="245" y="-202.5" font-family="Helvetica,sans-Serif" font-size="10.00">Tree.SingleNode.getValue</text>
</a>
</g>
</g>
<!-- Node1&#45;&gt;Node12 -->
<g id="edge11" class="edge"><title>Node1&#45;&gt;Node12</title>
<path fill="none" stroke="midnightblue" d="M120.333,-192.502C138.013,-194.289 157.253,-196.233 175.175,-198.044"/>
<polygon fill="midnightblue" stroke="midnightblue" points="120.426,-188.993 110.125,-191.47 119.723,-195.958 120.426,-188.993"/>
</g>
<!-- Node13 -->
<g id="node13" class="node"><title>Node13</title>
<g id="a_node13"><a xlink:href="../../de/dc5/class_tree_1_1_bin_node.html#a574037477f0b246532967a1dcea6f5dd" target="_top" xlink:title="Tree.BinNode.getValue">
<polygon fill="white" stroke="black" points="182.5,-157.5 182.5,-176.5 307.5,-176.5 307.5,-157.5 182.5,-157.5"/>
<text text-anchor="middle" x="245" y="-164.5" font-family="Helvetica,sans-Serif" font-size="10.00">Tree.BinNode.getValue</text>
</a>
</g>
</g>
<!-- Node1&#45;&gt;Node13 -->
<g id="edge12" class="edge"><title>Node1&#45;&gt;Node13</title>
<path fill="none" stroke="midnightblue" d="M120.124,-179.519C140.234,-177.487 162.381,-175.249 182.32,-173.234"/>
<polygon fill="midnightblue" stroke="midnightblue" points="119.723,-176.042 110.125,-180.53 120.426,-183.007 119.723,-176.042"/>
</g>
<!-- Node14 -->
<g id="node14" class="node"><title>Node14</title>
<g id="a_node14"><a xlink:href="../../db/d22/classconfiguration_1_1_set_parser.html#a4f20258805caaf18872872d5283a0e74" target="_top" xlink:title="configuration.SetParser.parse">
<polygon fill="white" stroke="black" points="166,-119.5 166,-138.5 324,-138.5 324,-119.5 166,-119.5"/>
<text text-anchor="middle" x="245" y="-126.5" font-family="Helvetica,sans-Serif" font-size="10.00">configuration.SetParser.parse</text>
</a>
</g>
</g>
<!-- Node1&#45;&gt;Node14 -->
<g id="edge13" class="edge"><title>Node1&#45;&gt;Node14</title>
<path fill="none" stroke="midnightblue" d="M84.3027,-172.256C101.753,-164.237 124.78,-154.46 146,-148 158.186,-144.29 171.453,-141.145 184.175,-138.545"/>
<polygon fill="midnightblue" stroke="midnightblue" points="82.8057,-169.092 75.229,-176.498 85.7702,-175.433 82.8057,-169.092"/>
</g>
<!-- Node15 -->
<g id="node15" class="node"><title>Node15</title>
<g id="a_node15"><a xlink:href="../../d0/da7/classconfiguration_1_1_basic_parser.html#a22bf37b374167e497f639182e7459517" target="_top" xlink:title="configuration.BasicParser.parse">
<polygon fill="white" stroke="black" points="161.5,-81.5 161.5,-100.5 328.5,-100.5 328.5,-81.5 161.5,-81.5"/>
<text text-anchor="middle" x="245" y="-88.5" font-family="Helvetica,sans-Serif" font-size="10.00">configuration.BasicParser.parse</text>
</a>
</g>
</g>
<!-- Node1&#45;&gt;Node15 -->
<g id="edge14" class="edge"><title>Node1&#45;&gt;Node15</title>
<path fill="none" stroke="midnightblue" d="M71.5393,-168.427C88.1651,-150.794 116.197,-124.264 146,-110 154.129,-106.11 162.999,-103.016 171.974,-100.555"/>
<polygon fill="midnightblue" stroke="midnightblue" points="68.5192,-166.541 64.3361,-176.275 73.6764,-171.274 68.5192,-166.541"/>
</g>
<!-- Node16 -->
<g id="node16" class="node"><title>Node16</title>
<g id="a_node16"><a xlink:href="../../dc/d64/classconfiguration_1_1_for_parser.html#a6bc38f731ac658c5860fe092ba7689ac" target="_top" xlink:title="configuration.ForParser.parseFor">
<polygon fill="white" stroke="black" points="159.5,-43.5 159.5,-62.5 330.5,-62.5 330.5,-43.5 159.5,-43.5"/>
<text text-anchor="middle" x="245" y="-50.5" font-family="Helvetica,sans-Serif" font-size="10.00">configuration.ForParser.parseFor</text>
</a>
</g>
</g>
<!-- Node1&#45;&gt;Node16 -->
<g id="edge15" class="edge"><title>Node1&#45;&gt;Node16</title>
<path fill="none" stroke="midnightblue" d="M65.2211,-167.344C79.0229,-141.51 107.594,-95.3889 146,-72 152.365,-68.1239 159.356,-65.0138 166.585,-62.5219"/>
<polygon fill="midnightblue" stroke="midnightblue" points="61.993,-165.968 60.517,-176.459 68.2134,-169.178 61.993,-165.968"/>
</g>
<!-- Node18 -->
<g id="node18" class="node"><title>Node18</title>
<g id="a_node18"><a xlink:href="../../d9/dfc/classconfiguration_1_1_dotimes_parser.html#aff41ee5ce2eeff82f7586bd1cf6a91c8" target="_top" xlink:title="configuration.DotimesParser.parseFor">
<polygon fill="white" stroke="black" points="146.5,-5.5 146.5,-24.5 343.5,-24.5 343.5,-5.5 146.5,-5.5"/>
<text text-anchor="middle" x="245" y="-12.5" font-family="Helvetica,sans-Serif" font-size="10.00">configuration.DotimesParser.parseFor</text>
</a>
</g>
</g>
<!-- Node1&#45;&gt;Node18 -->
<g id="edge17" class="edge"><title>Node1&#45;&gt;Node18</title>
<path fill="none" stroke="midnightblue" d="M61.7397,-166.434C72.4886,-133.458 98.9272,-67.1707 146,-34 151.383,-30.2065 157.328,-27.1206 163.548,-24.6157"/>
<polygon fill="midnightblue" stroke="midnightblue" points="58.3164,-165.656 58.6888,-176.244 65.0006,-167.735 58.3164,-165.656"/>
</g>
<!-- Node3 -->
<g id="node3" class="node"><title>Node3</title>
<g id="a_node3"><a xlink:href="../../d7/d56/classconfiguration_1_1_ifelse_parser.html#a4b806589536dd338338d515a0fdb67ed" target="_top" xlink:title="configuration.IfelseParser.parse">
<polygon fill="white" stroke="black" points="388,-418.5 388,-437.5 554,-437.5 554,-418.5 388,-418.5"/>
<text text-anchor="middle" x="471" y="-425.5" font-family="Helvetica,sans-Serif" font-size="10.00">configuration.IfelseParser.parse</text>
</a>
</g>
</g>
<!-- Node2&#45;&gt;Node3 -->
<g id="edge2" class="edge"><title>Node2&#45;&gt;Node3</title>
<path fill="none" stroke="midnightblue" d="M345.084,-410.155C364.749,-412.964 384.953,-415.85 403.226,-418.461"/>
<polygon fill="midnightblue" stroke="midnightblue" points="345.569,-406.689 335.174,-408.739 344.579,-413.618 345.569,-406.689"/>
</g>
<!-- Node4 -->
<g id="node4" class="node"><title>Node4</title>
<g id="a_node4"><a xlink:href="../../dc/dd1/classconfiguration_1_1_if_parser.html#ab4ed2d3b7778d2b1206e5d26ebac7976" target="_top" xlink:title="configuration.IfParser.parse">
<polygon fill="white" stroke="black" points="398,-380.5 398,-399.5 544,-399.5 544,-380.5 398,-380.5"/>
<text text-anchor="middle" x="471" y="-387.5" font-family="Helvetica,sans-Serif" font-size="10.00">configuration.IfParser.parse</text>
</a>
</g>
</g>
<!-- Node2&#45;&gt;Node4 -->
<g id="edge3" class="edge"><title>Node2&#45;&gt;Node4</title>
<path fill="none" stroke="midnightblue" d="M345.457,-393.336C363.027,-392.865 381.013,-392.384 397.658,-391.938"/>
<polygon fill="midnightblue" stroke="midnightblue" points="345.077,-389.845 335.174,-393.611 345.265,-396.842 345.077,-389.845"/>
</g>
<!-- Node6 -->
<g id="node6" class="node"><title>Node6</title>
<g id="a_node6"><a xlink:href="../../d3/d0d/classconfiguration_1_1_repeat_parser.html#abf20b0ae25909c1cdff93f509830b502" target="_top" xlink:title="configuration.RepeatParser.parse">
<polygon fill="white" stroke="black" points="384,-337.5 384,-356.5 558,-356.5 558,-337.5 384,-337.5"/>
<text text-anchor="middle" x="471" y="-344.5" font-family="Helvetica,sans-Serif" font-size="10.00">configuration.RepeatParser.parse</text>
</a>
</g>
</g>
<!-- Node5&#45;&gt;Node6 -->
<g id="edge5" class="edge"><title>Node5&#45;&gt;Node6</title>
<path fill="none" stroke="midnightblue" d="M340.941,-347C355.135,-347 369.704,-347 383.706,-347"/>
<polygon fill="midnightblue" stroke="midnightblue" points="340.685,-343.5 330.685,-347 340.685,-350.5 340.685,-343.5"/>
</g>
<!-- Node8 -->
<g id="node8" class="node"><title>Node8</title>
<g id="a_node8"><a xlink:href="../../dc/d64/classconfiguration_1_1_for_parser.html#a2737b422e279cfca7c64fd8eff57d3ff" target="_top" xlink:title="configuration.ForParser.parse">
<polygon fill="white" stroke="black" points="393,-288.5 393,-307.5 549,-307.5 549,-288.5 393,-288.5"/>
<text text-anchor="middle" x="471" y="-295.5" font-family="Helvetica,sans-Serif" font-size="10.00">configuration.ForParser.parse</text>
</a>
</g>
</g>
<!-- Node7&#45;&gt;Node8 -->
<g id="edge7" class="edge"><title>Node7&#45;&gt;Node8</title>
<path fill="none" stroke="midnightblue" d="M331.622,-298C351.778,-298 373.141,-298 392.895,-298"/>
<polygon fill="midnightblue" stroke="midnightblue" points="331.524,-294.5 321.524,-298 331.524,-301.5 331.524,-294.5"/>
</g>
<!-- Node10 -->
<g id="node10" class="node"><title>Node10</title>
<g id="a_node10"><a xlink:href="../../d9/dfc/classconfiguration_1_1_dotimes_parser.html#a63d34c400b9b5715b4a2f9a5d0107e62" target="_top" xlink:title="configuration.DotimesParser.parse\lDotimesIterator">
<polygon fill="white" stroke="black" points="380,-166 380,-196 562,-196 562,-166 380,-166"/>
<text text-anchor="start" x="388" y="-184" font-family="Helvetica,sans-Serif" font-size="10.00">configuration.DotimesParser.parse</text>
<text text-anchor="middle" x="471" y="-173" font-family="Helvetica,sans-Serif" font-size="10.00">DotimesIterator</text>
</a>
</g>
</g>
<!-- Node9&#45;&gt;Node10 -->
<g id="edge9" class="edge"><title>Node9&#45;&gt;Node10</title>
<path fill="none" stroke="midnightblue" d="M318.021,-231.321C326.801,-228.962 335.624,-226.493 344,-224 372.467,-215.526 404.102,-204.725 428.553,-196.068"/>
<polygon fill="midnightblue" stroke="midnightblue" points="316.924,-227.991 308.153,-233.934 318.716,-234.758 316.924,-227.991"/>
</g>
<!-- Node11 -->
<g id="node11" class="node"><title>Node11</title>
<g id="a_node11"><a xlink:href="../../d9/dfc/classconfiguration_1_1_dotimes_parser.html#abf0eb9bddfa4a09adc745008e17b293b" target="_top" xlink:title="configuration.DotimesParser.parse">
<polygon fill="white" stroke="black" points="598,-88.5 598,-107.5 780,-107.5 780,-88.5 598,-88.5"/>
<text text-anchor="middle" x="689" y="-95.5" font-family="Helvetica,sans-Serif" font-size="10.00">configuration.DotimesParser.parse</text>
</a>
</g>
</g>
<!-- Node10&#45;&gt;Node11 -->
<g id="edge10" class="edge"><title>Node10&#45;&gt;Node11</title>
<path fill="none" stroke="midnightblue" d="M520.516,-162.357C564.726,-145.369 628.262,-120.955 662.99,-107.61"/>
<polygon fill="midnightblue" stroke="midnightblue" points="519.195,-159.115 511.116,-165.969 521.706,-165.649 519.195,-159.115"/>
</g>
<!-- Node17 -->
<g id="node17" class="node"><title>Node17</title>
<g id="a_node17"><a xlink:href="../../dc/d64/classconfiguration_1_1_for_parser.html#ad3cb5184cf449bd3414f3ba73a8b3104" target="_top" xlink:title="configuration.ForParser.parse\lCommands">
<polygon fill="white" stroke="black" points="393,-49 393,-79 549,-79 549,-49 393,-49"/>
<text text-anchor="start" x="401" y="-67" font-family="Helvetica,sans-Serif" font-size="10.00">configuration.ForParser.parse</text>
<text text-anchor="middle" x="471" y="-56" font-family="Helvetica,sans-Serif" font-size="10.00">Commands</text>
</a>
</g>
</g>
<!-- Node16&#45;&gt;Node17 -->
<g id="edge16" class="edge"><title>Node16&#45;&gt;Node17</title>
<path fill="none" stroke="midnightblue" d="M340.838,-57.6572C358.214,-58.5105 376.155,-59.3916 392.934,-60.2155"/>
<polygon fill="midnightblue" stroke="midnightblue" points="340.844,-54.1534 330.685,-57.1586 340.501,-61.145 340.844,-54.1534"/>
</g>
<!-- Node19 -->
<g id="node19" class="node"><title>Node19</title>
<g id="a_node19"><a xlink:href="../../d9/dfc/classconfiguration_1_1_dotimes_parser.html#a6086c4c4651b29dd968bf4728bd71d0c" target="_top" xlink:title="configuration.DotimesParser.parse\lCommands">
<polygon fill="white" stroke="black" points="380,-0 380,-30 562,-30 562,-0 380,-0"/>
<text text-anchor="start" x="388" y="-18" font-family="Helvetica,sans-Serif" font-size="10.00">configuration.DotimesParser.parse</text>
<text text-anchor="middle" x="471" y="-7" font-family="Helvetica,sans-Serif" font-size="10.00">Commands</text>
</a>
</g>
</g>
<!-- Node18&#45;&gt;Node19 -->
<g id="edge18" class="edge"><title>Node18&#45;&gt;Node19</title>
<path fill="none" stroke="midnightblue" d="M353.785,-15C362.488,-15 371.224,-15 379.783,-15"/>
<polygon fill="midnightblue" stroke="midnightblue" points="353.598,-11.5001 343.598,-15 353.598,-18.5001 353.598,-11.5001"/>
</g>
<!-- Node19&#45;&gt;Node11 -->
<g id="edge19" class="edge"><title>Node19&#45;&gt;Node11</title>
<path fill="none" stroke="midnightblue" d="M544.048,-32.9865C550.163,-34.8831 556.217,-36.8937 562,-39 601.718,-53.4652 646.014,-75.7245 670.069,-88.3623"/>
<polygon fill="midnightblue" stroke="midnightblue" points="545.002,-29.6186 534.418,-30.1024 542.994,-36.3243 545.002,-29.6186"/>
</g>
</g>
</svg>
