<?xml version="1.0" encoding="UTF-8" standalone="no"?>
<!DOCTYPE svg PUBLIC "-//W3C//DTD SVG 1.1//EN"
 "http://www.w3.org/Graphics/SVG/1.1/DTD/svg11.dtd">
<!-- Generated by graphviz version 2.36.0 (20140111.2315)
 -->
<!-- Title: Tree.Node.getValue Pages: 1 -->
<!--zoomable 444 -->
<svg id="main" version="1.1" xmlns="http://www.w3.org/2000/svg" xmlns:xlink="http://www.w3.org/1999/xlink" xml:space="preserve" onload="init(evt)">
<style type="text/css"><![CDATA[
.edge:hover path { stroke: red; }
.edge:hover polygon { stroke: red; fill: red; }
]]></style>
<script type="text/javascript"><![CDATA[
var edges = document.getElementsByTagName('g');
if (edges && edges.length) {
  for (var i=0;i<edges.length;i++) {
    if (edges[i].id.substr(0,4)=='edge') {
      edges[i].setAttribute('class','edge');
    }
  }
}
]]></script>
        <defs>
                <circle id="rim" cx="0" cy="0" r="7"/>
                <circle id="rim2" cx="0" cy="0" r="3.5"/>
                <g id="zoomPlus">
                        <use xlink:href="#rim" fill="#404040">
                                <set attributeName="fill" to="#808080" begin="zoomplus.mouseover" end="zoomplus.mouseout"/>
                        </use>
                        <path d="M-4,0h8M0,-4v8" fill="none" stroke="white" stroke-width="1.5" pointer-events="none"/>
                </g>
                <g id="zoomMin">
                        <use xlink:href="#rim" fill="#404040">
                                <set attributeName="fill" to="#808080" begin="zoomminus.mouseover" end="zoomminus.mouseout"/>
                        </use>
                        <path d="M-4,0h8" fill="none" stroke="white" stroke-width="1.5" pointer-events="none"/>
                </g>
                <g id="dirArrow">
                        <path fill="none" stroke="white" stroke-width="1.5" d="M0,-3.0v7 M-2.5,-0.5L0,-3.0L2.5,-0.5"/>
                </g>
               <g id="resetDef">
                       <use xlink:href="#rim2" fill="#404040">
                               <set attributeName="fill" to="#808080" begin="reset.mouseover" end="reset.mouseout"/>
                       </use>
               </g>
        </defs>

<script type="text/javascript">
var viewWidth = 788;
var viewHeight = 444;
var sectionId = 'dynsection-1';
</script>
<script xlink:href="../../svgpan.js"/>
<svg id="graph" class="graph">
<g id="viewport">
<title>Tree.Node.getValue</title>
<polygon fill="white" stroke="none" points="-4,4 -4,-440 784,-440 784,4 -4,4"/>
<!-- Node1 -->
<g id="node1" class="node"><title>Node1</title>
<polygon fill="#bfbfbf" stroke="black" points="0,-184.5 0,-203.5 110,-203.5 110,-184.5 0,-184.5"/>
<text text-anchor="middle" x="55" y="-191.5" font-family="Helvetica,sans-Serif" font-size="10.00">Tree.Node.getValue</text>
</g>
<!-- Node2 -->
<g id="node2" class="node"><title>Node2</title>
<g id="a_node2"><a xlink:href="../../d7/d56/classconfiguration_1_1_ifelse_parser.html#aef13959a758ccbf8dab0a3f5f94a7be0" target="_top" xlink:title="configuration.IfelseParser.evaluate\lBoolExpr">
<polygon fill="white" stroke="black" points="155,-379 155,-409 335,-409 335,-379 155,-379"/>
<text text-anchor="start" x="163" y="-397" font-family="Helvetica,sans-Serif" font-size="10.00">configuration.IfelseParser.evaluate</text>
<text text-anchor="middle" x="245" y="-386" font-family="Helvetica,sans-Serif" font-size="10.00">BoolExpr</text>
</a>
</g>
</g>
<!-- Node1&#45;&gt;Node2 -->
<g id="edge1" class="edge"><title>Node1&#45;&gt;Node2</title>
<path fill="none" stroke="midnightblue" d="M60.4253,-213.608C69.6916,-250.023 94.6648,-328.097 146,-369 150.806,-372.83 156.13,-376.079 161.741,-378.836"/>
<polygon fill="midnightblue" stroke="midnightblue" points="63.7903,-212.632 58.042,-203.732 56.9856,-214.274 63.7903,-212.632"/>
</g>
<!-- Node5 -->
<g id="node5" class="node"><title>Node5</title>
<g id="a_node5"><a xlink:href="../../d3/d0d/classconfiguration_1_1_repeat_parser.html#ab218ee8c24e4dab18c02cd4a536d15d3" target="_top" xlink:title="configuration.RepeatParser.fetch\lNumericExpr">
<polygon fill="white" stroke="black" points="159.5,-330 159.5,-360 330.5,-360 330.5,-330 159.5,-330"/>
<text text-anchor="start" x="167.5" y="-348" font-family="Helvetica,sans-Serif" font-size="10.00">configuration.RepeatParser.fetch</text>
<text text-anchor="middle" x="245" y="-337" font-family="Helvetica,sans-Serif" font-size="10.00">NumericExpr</text>
</a>
</g>
</g>
<!-- Node1&#45;&gt;Node5 -->
<g id="edge4" class="edge"><title>Node1&#45;&gt;Node5</title>
<path fill="none" stroke="midnightblue" d="M64.3327,-213.082C77.5162,-240.974 105.87,-292.536 146,-320 151.651,-323.868 157.855,-327.137 164.312,-329.901"/>
<polygon fill="midnightblue" stroke="midnightblue" points="67.3648,-211.296 60.0298,-203.65 60.9963,-214.201 67.3648,-211.296"/>
</g>
<!-- Node7 -->
<g id="node7" class="node"><title>Node7</title>
<g id="a_node7"><a xlink:href="../../d9/dfc/classconfiguration_1_1_dotimes_parser.html#a26cc7f8e0a21d93091bfe8884a924450" target="_top" xlink:title="configuration.DotimesParser.fetch\lNumericExpr">
<polygon fill="white" stroke="black" points="155.5,-242 155.5,-272 334.5,-272 334.5,-242 155.5,-242"/>
<text text-anchor="start" x="163.5" y="-260" font-family="Helvetica,sans-Serif" font-size="10.00">configuration.DotimesParser.fetch</text>
<text text-anchor="middle" x="245" y="-249" font-family="Helvetica,sans-Serif" font-size="10.00">NumericExpr</text>
</a>
</g>
</g>
<!-- Node1&#45;&gt;Node7 -->
<g id="edge6" class="edge"><title>Node1&#45;&gt;Node7</title>
<path fill="none" stroke="midnightblue" d="M85.9505,-207.977C103.254,-215.714 125.575,-225.126 146,-232 156.651,-235.584 168.101,-238.939 179.285,-241.955"/>
<polygon fill="midnightblue" stroke="midnightblue" points="86.9477,-204.587 76.3946,-203.647 84.0586,-210.963 86.9477,-204.587"/>
</g>
<!-- Node10 -->
<g id="node10" class="node"><title>Node10</title>
<g id="a_node10"><a xlink:href="../../dc/d64/classconfiguration_1_1_for_parser.html#a95aeb8afdb254389dcef062be1cf2727" target="_top" xlink:title="configuration.ForParser.fetch\lNumericExpr">
<polygon fill="white" stroke="black" points="394.5,-49 394.5,-79 547.5,-79 547.5,-49 394.5,-49"/>
<text text-anchor="start" x="402.5" y="-67" font-family="Helvetica,sans-Serif" font-size="10.00">configuration.ForParser.fetch</text>
<text text-anchor="middle" x="471" y="-56" font-family="Helvetica,sans-Serif" font-size="10.00">NumericExpr</text>
</a>
</g>
</g>
<!-- Node1&#45;&gt;Node10 -->
<g id="edge9" class="edge"><title>Node1&#45;&gt;Node10</title>
<path fill="none" stroke="midnightblue" d="M64.4185,-175.324C77.5494,-148.709 105.654,-100.796 146,-80 223.468,-40.0699 325.671,-42.5681 394.398,-50.7904"/>
<polygon fill="midnightblue" stroke="midnightblue" points="61.2462,-173.845 60.1248,-184.38 67.5714,-176.844 61.2462,-173.845"/>
</g>
<!-- Node12 -->
<g id="node12" class="node"><title>Node12</title>
<g id="a_node12"><a xlink:href="../../d6/d0f/class_tree_1_1_single_node.html#ac8b9756e1e55be947a5d992e48e637fb" target="_top" xlink:title="Tree.SingleNode.getValue">
<polygon fill="white" stroke="black" points="175.5,-203.5 175.5,-222.5 314.5,-222.5 314.5,-203.5 175.5,-203.5"/>
<text text-anchor="middle" x="245" y="-210.5" font-family="Helvetica,sans-Serif" font-size="10.00">Tree.SingleNode.getValue</text>
</a>
</g>
</g>
<!-- Node1&#45;&gt;Node12 -->
<g id="edge11" class="edge"><title>Node1&#45;&gt;Node12</title>
<path fill="none" stroke="midnightblue" d="M120.333,-200.502C138.013,-202.289 157.253,-204.233 175.175,-206.044"/>
<polygon fill="midnightblue" stroke="midnightblue" points="120.426,-196.993 110.125,-199.47 119.723,-203.958 120.426,-196.993"/>
</g>
<!-- Node13 -->
<g id="node13" class="node"><title>Node13</title>
<g id="a_node13"><a xlink:href="../../de/dc5/class_tree_1_1_bin_node.html#a574037477f0b246532967a1dcea6f5dd" target="_top" xlink:title="Tree.BinNode.getValue">
<polygon fill="white" stroke="black" points="182.5,-165.5 182.5,-184.5 307.5,-184.5 307.5,-165.5 182.5,-165.5"/>
<text text-anchor="middle" x="245" y="-172.5" font-family="Helvetica,sans-Serif" font-size="10.00">Tree.BinNode.getValue</text>
</a>
</g>
</g>
<!-- Node1&#45;&gt;Node13 -->
<g id="edge12" class="edge"><title>Node1&#45;&gt;Node13</title>
<path fill="none" stroke="midnightblue" d="M120.124,-187.519C140.234,-185.487 162.381,-183.249 182.32,-181.234"/>
<polygon fill="midnightblue" stroke="midnightblue" points="119.723,-184.042 110.125,-188.53 120.426,-191.007 119.723,-184.042"/>
</g>
<!-- Node14 -->
<g id="node14" class="node"><title>Node14</title>
<g id="a_node14"><a xlink:href="../../db/d22/classconfiguration_1_1_set_parser.html#a4f20258805caaf18872872d5283a0e74" target="_top" xlink:title="configuration.SetParser.parse">
<polygon fill="white" stroke="black" points="166,-127.5 166,-146.5 324,-146.5 324,-127.5 166,-127.5"/>
<text text-anchor="middle" x="245" y="-134.5" font-family="Helvetica,sans-Serif" font-size="10.00">configuration.SetParser.parse</text>
</a>
</g>
</g>
<!-- Node1&#45;&gt;Node14 -->
<g id="edge13" class="edge"><title>Node1&#45;&gt;Node14</title>
<path fill="none" stroke="midnightblue" d="M84.3027,-180.256C101.753,-172.237 124.78,-162.46 146,-156 158.186,-152.29 171.453,-149.145 184.175,-146.545"/>
<polygon fill="midnightblue" stroke="midnightblue" points="82.8057,-177.092 75.229,-184.498 85.7702,-183.433 82.8057,-177.092"/>
</g>
<!-- Node15 -->
<g id="node15" class="node"><title>Node15</title>
<g id="a_node15"><a xlink:href="../../d0/da7/classconfiguration_1_1_basic_parser.html#a22bf37b374167e497f639182e7459517" target="_top" xlink:title="configuration.BasicParser.parse">
<polygon fill="white" stroke="black" points="161.5,-89.5 161.5,-108.5 328.5,-108.5 328.5,-89.5 161.5,-89.5"/>
<text text-anchor="middle" x="245" y="-96.5" font-family="Helvetica,sans-Serif" font-size="10.00">configuration.BasicParser.parse</text>
</a>
</g>
</g>
<!-- Node1&#45;&gt;Node15 -->
<g id="edge14" class="edge"><title>Node1&#45;&gt;Node15</title>
<path fill="none" stroke="midnightblue" d="M71.5393,-176.427C88.1651,-158.794 116.197,-132.264 146,-118 154.129,-114.11 162.999,-111.016 171.974,-108.555"/>
<polygon fill="midnightblue" stroke="midnightblue" points="68.5192,-174.541 64.3361,-184.275 73.6764,-179.274 68.5192,-174.541"/>
</g>
<!-- Node16 -->
<g id="node16" class="node"><title>Node16</title>
<g id="a_node16"><a xlink:href="../../dc/d64/classconfiguration_1_1_for_parser.html#a6bc38f731ac658c5860fe092ba7689ac" target="_top" xlink:title="configuration.ForParser.parseFor">
<polygon fill="white" stroke="black" points="159.5,-10.5 159.5,-29.5 330.5,-29.5 330.5,-10.5 159.5,-10.5"/>
<text text-anchor="middle" x="245" y="-17.5" font-family="Helvetica,sans-Serif" font-size="10.00">configuration.ForParser.parseFor</text>
</a>
</g>
</g>
<!-- Node1&#45;&gt;Node16 -->
<g id="edge15" class="edge"><title>Node1&#45;&gt;Node16</title>
<path fill="none" stroke="midnightblue" d="M62.5203,-174.577C74.1503,-142.945 101.512,-80.4791 146,-47 156.505,-39.0943 169.196,-33.5033 181.91,-29.5494"/>
<polygon fill="midnightblue" stroke="midnightblue" points="59.0876,-173.787 59.0604,-184.381 65.6887,-176.116 59.0876,-173.787"/>
</g>
<!-- Node18 -->
<g id="node18" class="node"><title>Node18</title>
<g id="a_node18"><a xlink:href="../../d9/dfc/classconfiguration_1_1_dotimes_parser.html#aff41ee5ce2eeff82f7586bd1cf6a91c8" target="_top" xlink:title="configuration.DotimesParser.parseFor">
<polygon fill="white" stroke="black" points="146.5,-291.5 146.5,-310.5 343.5,-310.5 343.5,-291.5 146.5,-291.5"/>
<text text-anchor="middle" x="245" y="-298.5" font-family="Helvetica,sans-Serif" font-size="10.00">configuration.DotimesParser.parseFor</text>
</a>
</g>
</g>
<!-- Node1&#45;&gt;Node18 -->
<g id="edge18" class="edge"><title>Node1&#45;&gt;Node18</title>
<path fill="none" stroke="midnightblue" d="M69.1081,-211.697C84.9919,-231.786 113.676,-263.97 146,-281 154.296,-285.371 163.453,-288.787 172.738,-291.458"/>
<polygon fill="midnightblue" stroke="midnightblue" points="71.7983,-209.454 62.9271,-203.662 66.2498,-213.722 71.7983,-209.454"/>
</g>
<!-- Node3 -->
<g id="node3" class="node"><title>Node3</title>
<g id="a_node3"><a xlink:href="../../d7/d56/classconfiguration_1_1_ifelse_parser.html#a4b806589536dd338338d515a0fdb67ed" target="_top" xlink:title="configuration.IfelseParser.parse">
<polygon fill="white" stroke="black" points="388,-378.5 388,-397.5 554,-397.5 554,-378.5 388,-378.5"/>
<text text-anchor="middle" x="471" y="-385.5" font-family="Helvetica,sans-Serif" font-size="10.00">configuration.IfelseParser.parse</text>
</a>
</g>
</g>
<!-- Node2&#45;&gt;Node3 -->
<g id="edge2" class="edge"><title>Node2&#45;&gt;Node3</title>
<path fill="none" stroke="midnightblue" d="M345.4,-391.338C359.526,-390.959 373.923,-390.573 387.677,-390.205"/>
<polygon fill="midnightblue" stroke="midnightblue" points="345.077,-387.845 335.174,-391.611 345.265,-394.842 345.077,-387.845"/>
</g>
<!-- Node4 -->
<g id="node4" class="node"><title>Node4</title>
<g id="a_node4"><a xlink:href="../../dc/dd1/classconfiguration_1_1_if_parser.html#ab4ed2d3b7778d2b1206e5d26ebac7976" target="_top" xlink:title="configuration.IfParser.parse">
<polygon fill="white" stroke="black" points="398,-416.5 398,-435.5 544,-435.5 544,-416.5 398,-416.5"/>
<text text-anchor="middle" x="471" y="-423.5" font-family="Helvetica,sans-Serif" font-size="10.00">configuration.IfParser.parse</text>
</a>
</g>
</g>
<!-- Node2&#45;&gt;Node4 -->
<g id="edge3" class="edge"><title>Node2&#45;&gt;Node4</title>
<path fill="none" stroke="midnightblue" d="M345.084,-408.155C364.749,-410.964 384.953,-413.85 403.226,-416.461"/>
<polygon fill="midnightblue" stroke="midnightblue" points="345.569,-404.689 335.174,-406.739 344.579,-411.618 345.569,-404.689"/>
</g>
<!-- Node6 -->
<g id="node6" class="node"><title>Node6</title>
<g id="a_node6"><a xlink:href="../../d3/d0d/classconfiguration_1_1_repeat_parser.html#abf20b0ae25909c1cdff93f509830b502" target="_top" xlink:title="configuration.RepeatParser.parse">
<polygon fill="white" stroke="black" points="384,-335.5 384,-354.5 558,-354.5 558,-335.5 384,-335.5"/>
<text text-anchor="middle" x="471" y="-342.5" font-family="Helvetica,sans-Serif" font-size="10.00">configuration.RepeatParser.parse</text>
</a>
</g>
</g>
<!-- Node5&#45;&gt;Node6 -->
<g id="edge5" class="edge"><title>Node5&#45;&gt;Node6</title>
<path fill="none" stroke="midnightblue" d="M340.941,-345C355.135,-345 369.704,-345 383.706,-345"/>
<polygon fill="midnightblue" stroke="midnightblue" points="340.685,-341.5 330.685,-345 340.685,-348.5 340.685,-341.5"/>
</g>
<!-- Node8 -->
<g id="node8" class="node"><title>Node8</title>
<g id="a_node8"><a xlink:href="../../d9/dfc/classconfiguration_1_1_dotimes_parser.html#a63d34c400b9b5715b4a2f9a5d0107e62" target="_top" xlink:title="configuration.DotimesParser.parse\lDotimesIterator">
<polygon fill="white" stroke="black" points="380,-237 380,-267 562,-267 562,-237 380,-237"/>
<text text-anchor="start" x="388" y="-255" font-family="Helvetica,sans-Serif" font-size="10.00">configuration.DotimesParser.parse</text>
<text text-anchor="middle" x="471" y="-244" font-family="Helvetica,sans-Serif" font-size="10.00">DotimesIterator</text>
</a>
</g>
</g>
<!-- Node7&#45;&gt;Node8 -->
<g id="edge7" class="edge"><title>Node7&#45;&gt;Node8</title>
<path fill="none" stroke="midnightblue" d="M344.748,-254.796C356.446,-254.535 368.34,-254.269 379.909,-254.011"/>
<polygon fill="midnightblue" stroke="midnightblue" points="344.45,-251.301 334.531,-255.024 344.606,-258.3 344.45,-251.301"/>
</g>
<!-- Node9 -->
<g id="node9" class="node"><title>Node9</title>
<g id="a_node9"><a xlink:href="../../d9/dfc/classconfiguration_1_1_dotimes_parser.html#abf0eb9bddfa4a09adc745008e17b293b" target="_top" xlink:title="configuration.DotimesParser.parse">
<polygon fill="white" stroke="black" points="598,-266.5 598,-285.5 780,-285.5 780,-266.5 598,-266.5"/>
<text text-anchor="middle" x="689" y="-273.5" font-family="Helvetica,sans-Serif" font-size="10.00">configuration.DotimesParser.parse</text>
</a>
</g>
</g>
<!-- Node8&#45;&gt;Node9 -->
<g id="edge8" class="edge"><title>Node8&#45;&gt;Node9</title>
<path fill="none" stroke="midnightblue" d="M572.081,-263.12C582.166,-264.241 592.344,-265.372 602.26,-266.473"/>
<polygon fill="midnightblue" stroke="midnightblue" points="572.365,-259.63 562.039,-262.004 571.592,-266.587 572.365,-259.63"/>
</g>
<!-- Node11 -->
<g id="node11" class="node"><title>Node11</title>
<g id="a_node11"><a xlink:href="../../dc/d64/classconfiguration_1_1_for_parser.html#a2737b422e279cfca7c64fd8eff57d3ff" target="_top" xlink:title="configuration.ForParser.parse">
<polygon fill="white" stroke="black" points="611,-30.5 611,-49.5 767,-49.5 767,-30.5 611,-30.5"/>
<text text-anchor="middle" x="689" y="-37.5" font-family="Helvetica,sans-Serif" font-size="10.00">configuration.ForParser.parse</text>
</a>
</g>
</g>
<!-- Node10&#45;&gt;Node11 -->
<g id="edge10" class="edge"><title>Node10&#45;&gt;Node11</title>
<path fill="none" stroke="midnightblue" d="M557.729,-54.4745C575.208,-52.5324 593.501,-50.4998 610.667,-48.5925"/>
<polygon fill="midnightblue" stroke="midnightblue" points="557.099,-51.023 547.546,-55.606 557.872,-57.9802 557.099,-51.023"/>
</g>
<!-- Node17 -->
<g id="node17" class="node"><title>Node17</title>
<g id="a_node17"><a xlink:href="../../dc/d64/classconfiguration_1_1_for_parser.html#ad3cb5184cf449bd3414f3ba73a8b3104" target="_top" xlink:title="configuration.ForParser.parse\lCommands">
<polygon fill="white" stroke="black" points="393,-0 393,-30 549,-30 549,-0 393,-0"/>
<text text-anchor="start" x="401" y="-18" font-family="Helvetica,sans-Serif" font-size="10.00">configuration.ForParser.parse</text>
<text text-anchor="middle" x="471" y="-7" font-family="Helvetica,sans-Serif" font-size="10.00">Commands</text>
</a>
</g>
</g>
<!-- Node16&#45;&gt;Node17 -->
<g id="edge16" class="edge"><title>Node16&#45;&gt;Node17</title>
<path fill="none" stroke="midnightblue" d="M340.838,-17.8831C358.214,-17.4952 376.155,-17.0947 392.934,-16.7202"/>
<polygon fill="midnightblue" stroke="midnightblue" points="340.604,-14.3873 330.685,-18.1097 340.76,-21.3856 340.604,-14.3873"/>
</g>
<!-- Node17&#45;&gt;Node11 -->
<g id="edge17" class="edge"><title>Node17&#45;&gt;Node11</title>
<path fill="none" stroke="midnightblue" d="M559.077,-25.0784C576.248,-27.0658 594.153,-29.138 610.964,-31.0837"/>
<polygon fill="midnightblue" stroke="midnightblue" points="559.402,-21.5927 549.066,-23.9197 558.597,-28.5463 559.402,-21.5927"/>
</g>
<!-- Node19 -->
<g id="node19" class="node"><title>Node19</title>
<g id="a_node19"><a xlink:href="../../d9/dfc/classconfiguration_1_1_dotimes_parser.html#a6086c4c4651b29dd968bf4728bd71d0c" target="_top" xlink:title="configuration.DotimesParser.parse\lCommands">
<polygon fill="white" stroke="black" points="380,-286 380,-316 562,-316 562,-286 380,-286"/>
<text text-anchor="start" x="388" y="-304" font-family="Helvetica,sans-Serif" font-size="10.00">configuration.DotimesParser.parse</text>
<text text-anchor="middle" x="471" y="-293" font-family="Helvetica,sans-Serif" font-size="10.00">Commands</text>
</a>
</g>
</g>
<!-- Node18&#45;&gt;Node19 -->
<g id="edge19" class="edge"><title>Node18&#45;&gt;Node19</title>
<path fill="none" stroke="midnightblue" d="M353.785,-301C362.488,-301 371.224,-301 379.783,-301"/>
<polygon fill="midnightblue" stroke="midnightblue" points="353.598,-297.5 343.598,-301 353.598,-304.5 353.598,-297.5"/>
</g>
<!-- Node19&#45;&gt;Node9 -->
<g id="edge20" class="edge"><title>Node19&#45;&gt;Node9</title>
<path fill="none" stroke="midnightblue" d="M572.272,-289.394C583.464,-288.099 594.767,-286.791 605.698,-285.526"/>
<polygon fill="midnightblue" stroke="midnightblue" points="571.571,-285.952 562.039,-290.579 572.375,-292.906 571.571,-285.952"/>
</g>
</g>
</svg>
        <g id="navigator" transform="translate(0 0)" fill="#404254">
                <rect fill="#f2f5e9" fill-opacity="0.5" stroke="#606060" stroke-width=".5" x="0" y="0" width="60" height="60"/>
                <use id="zoomplus" xlink:href="#zoomPlus" x="17" y="9" onmousedown="handleZoom(evt,'in')"/>
                <use id="zoomminus" xlink:href="#zoomMin" x="42" y="9" onmousedown="handleZoom(evt,'out')"/>
                <use id="reset" xlink:href="#resetDef" x="30" y="36" onmousedown="handleReset()"/>
                <g id="arrowUp" xlink:href="#dirArrow" transform="translate(30 24)" onmousedown="handlePan(0,-1)">
                  <use xlink:href="#rim" fill="#404040">
                        <set attributeName="fill" to="#808080" begin="arrowUp.mouseover" end="arrowUp.mouseout"/>
                  </use>
                  <path fill="none" stroke="white" stroke-width="1.5" d="M0,-3.0v7 M-2.5,-0.5L0,-3.0L2.5,-0.5"/>
                </g>
                <g id="arrowRight" xlink:href="#dirArrow" transform="rotate(90) translate(36 -43)" onmousedown="handlePan(1,0)">
                  <use xlink:href="#rim" fill="#404040">
                        <set attributeName="fill" to="#808080" begin="arrowRight.mouseover" end="arrowRight.mouseout"/>
                  </use>
                  <path fill="none" stroke="white" stroke-width="1.5" d="M0,-3.0v7 M-2.5,-0.5L0,-3.0L2.5,-0.5"/>
                </g>
                <g id="arrowDown" xlink:href="#dirArrow" transform="rotate(180) translate(-30 -48)" onmousedown="handlePan(0,1)">
                  <use xlink:href="#rim" fill="#404040">
                        <set attributeName="fill" to="#808080" begin="arrowDown.mouseover" end="arrowDown.mouseout"/>
                  </use>
                  <path fill="none" stroke="white" stroke-width="1.5" d="M0,-3.0v7 M-2.5,-0.5L0,-3.0L2.5,-0.5"/>
                </g>
                <g id="arrowLeft" xlink:href="#dirArrow" transform="rotate(270) translate(-36 17)" onmousedown="handlePan(-1,0)">
                  <use xlink:href="#rim" fill="#404040">
                        <set attributeName="fill" to="#808080" begin="arrowLeft.mouseover" end="arrowLeft.mouseout"/>
                  </use>
                  <path fill="none" stroke="white" stroke-width="1.5" d="M0,-3.0v7 M-2.5,-0.5L0,-3.0L2.5,-0.5"/>
                </g>
        </g>
        <svg viewBox="0 0 15 15" width="100%" height="30px" preserveAspectRatio="xMaxYMin meet">
         <g id="arrow_out" transform="scale(0.3 0.3)">
          <a xlink:href="interface_tree_1_1_node_a83d55b41499cfcfd3607420eed42507c_icgraph_org.svg" target="_base">
           <rect id="button" ry="5" rx="5" y="6" x="6" height="38" width="38"
                fill="#f2f5e9" fill-opacity="0.5" stroke="#606060" stroke-width="1.0"/>
           <path id="arrow"
             d="M 11.500037,31.436501 C 11.940474,20.09759 22.043105,11.32322 32.158766,21.979434 L 37.068811,17.246167 C 37.068811,17.246167 37.088388,32 37.088388,32 L 22.160133,31.978069 C 22.160133,31.978069 26.997745,27.140456 26.997745,27.140456 C 18.528582,18.264221 13.291696,25.230495 11.500037,31.436501 z"
             style="fill:#404040;"/>
          </a>
         </g>
        </svg>
</svg>
