<?xml version="1.0" encoding="UTF-8" standalone="no"?>
<!DOCTYPE svg PUBLIC "-//W3C//DTD SVG 1.1//EN"
 "http://www.w3.org/Graphics/SVG/1.1/DTD/svg11.dtd">
<!-- Generated by graphviz version 2.36.0 (20140111.2315)
 -->
<!-- Title: Tree.Node.getValue Pages: 1 -->
<!--zoomable 439 -->
<svg id="main" version="1.1" xmlns="http://www.w3.org/2000/svg" xmlns:xlink="http://www.w3.org/1999/xlink" xml:space="preserve" onload="init(evt)">
<style type="text/css"><![CDATA[
.edge:hover path { stroke: red; }
.edge:hover polygon { stroke: red; fill: red; }
]]></style>
<script type="text/javascript"><![CDATA[
var edges = document.getElementsByTagName('g');
if (edges && edges.length) {
  for (var i=0;i<edges.length;i++) {
    if (edges[i].id.substr(0,4)=='edge') {
      edges[i].setAttribute('class','edge');
    }
  }
}
]]></script>
        <defs>
                <circle id="rim" cx="0" cy="0" r="7"/>
                <circle id="rim2" cx="0" cy="0" r="3.5"/>
                <g id="zoomPlus">
                        <use xlink:href="#rim" fill="#404040">
                                <set attributeName="fill" to="#808080" begin="zoomplus.mouseover" end="zoomplus.mouseout"/>
                        </use>
                        <path d="M-4,0h8M0,-4v8" fill="none" stroke="white" stroke-width="1.5" pointer-events="none"/>
                </g>
                <g id="zoomMin">
                        <use xlink:href="#rim" fill="#404040">
                                <set attributeName="fill" to="#808080" begin="zoomminus.mouseover" end="zoomminus.mouseout"/>
                        </use>
                        <path d="M-4,0h8" fill="none" stroke="white" stroke-width="1.5" pointer-events="none"/>
                </g>
                <g id="dirArrow">
                        <path fill="none" stroke="white" stroke-width="1.5" d="M0,-3.0v7 M-2.5,-0.5L0,-3.0L2.5,-0.5"/>
                </g>
               <g id="resetDef">
                       <use xlink:href="#rim2" fill="#404040">
                               <set attributeName="fill" to="#808080" begin="reset.mouseover" end="reset.mouseout"/>
                       </use>
               </g>
        </defs>

<script type="text/javascript">
var viewWidth = 788;
var viewHeight = 439;
var sectionId = 'dynsection-1';
</script>
<script xlink:href="../../svgpan.js"/>
<svg id="graph" class="graph">
<g id="viewport">
<title>Tree.Node.getValue</title>
<polygon fill="white" stroke="none" points="-4,4 -4,-435 784,-435 784,4 -4,4"/>
<!-- Node1 -->
<g id="node1" class="node"><title>Node1</title>
<polygon fill="#bfbfbf" stroke="black" points="0,-191.5 0,-210.5 110,-210.5 110,-191.5 0,-191.5"/>
<text text-anchor="middle" x="55" y="-198.5" font-family="Helvetica,sans-Serif" font-size="10.00">Tree.Node.getValue</text>
</g>
<!-- Node2 -->
<g id="node2" class="node"><title>Node2</title>
<g id="a_node2"><a xlink:href="../../d7/d56/classconfiguration_1_1_ifelse_parser.html#aef13959a758ccbf8dab0a3f5f94a7be0" target="_top" xlink:title="configuration.IfelseParser.evaluate\lBoolExpr">
<polygon fill="white" stroke="black" points="155,-374 155,-404 335,-404 335,-374 155,-374"/>
<text text-anchor="start" x="163" y="-392" font-family="Helvetica,sans-Serif" font-size="10.00">configuration.IfelseParser.evaluate</text>
<text text-anchor="middle" x="245" y="-381" font-family="Helvetica,sans-Serif" font-size="10.00">BoolExpr</text>
</a>
</g>
</g>
<!-- Node1&#45;&gt;Node2 -->
<g id="edge1" class="edge"><title>Node1&#45;&gt;Node2</title>
<path fill="none" stroke="midnightblue" d="M61.254,-220.703C71.5072,-255.227 97.5358,-326.539 146,-364 151.001,-367.866 156.534,-371.139 162.35,-373.909"/>
<polygon fill="midnightblue" stroke="midnightblue" points="64.5634,-219.544 58.4709,-210.876 57.8283,-221.451 64.5634,-219.544"/>
</g>
<!-- Node5 -->
<g id="node5" class="node"><title>Node5</title>
<g id="a_node5"><a xlink:href="../../d3/d0d/classconfiguration_1_1_repeat_parser.html#ab218ee8c24e4dab18c02cd4a536d15d3" target="_top" xlink:title="configuration.RepeatParser.fetch\lNumericExpr">
<polygon fill="white" stroke="black" points="159.5,-325 159.5,-355 330.5,-355 330.5,-325 159.5,-325"/>
<text text-anchor="start" x="167.5" y="-343" font-family="Helvetica,sans-Serif" font-size="10.00">configuration.RepeatParser.fetch</text>
<text text-anchor="middle" x="245" y="-332" font-family="Helvetica,sans-Serif" font-size="10.00">NumericExpr</text>
</a>
</g>
</g>
<!-- Node1&#45;&gt;Node5 -->
<g id="edge4" class="edge"><title>Node1&#45;&gt;Node5</title>
<path fill="none" stroke="midnightblue" d="M65.6232,-219.729C79.732,-245.268 108.478,-290.623 146,-315 151.963,-318.874 158.493,-322.148 165.259,-324.915"/>
<polygon fill="midnightblue" stroke="midnightblue" points="68.5964,-217.867 60.7921,-210.701 62.4246,-221.17 68.5964,-217.867"/>
</g>
<!-- Node7 -->
<g id="node7" class="node"><title>Node7</title>
<g id="a_node7"><a xlink:href="../../dc/d64/classconfiguration_1_1_for_parser.html#a95aeb8afdb254389dcef062be1cf2727" target="_top" xlink:title="configuration.ForParser.fetch\lNumericExpr">
<polygon fill="white" stroke="black" points="394.5,-232 394.5,-262 547.5,-262 547.5,-232 394.5,-232"/>
<text text-anchor="start" x="402.5" y="-250" font-family="Helvetica,sans-Serif" font-size="10.00">configuration.ForParser.fetch</text>
<text text-anchor="middle" x="471" y="-239" font-family="Helvetica,sans-Serif" font-size="10.00">NumericExpr</text>
</a>
</g>
</g>
<!-- Node1&#45;&gt;Node7 -->
<g id="edge6" class="edge"><title>Node1&#45;&gt;Node7</title>
<path fill="none" stroke="midnightblue" d="M82.3104,-215.212C99.8121,-223.876 123.616,-234.18 146,-239 229.609,-257.004 328.155,-256.449 394.425,-253.026"/>
<polygon fill="midnightblue" stroke="midnightblue" points="83.7837,-212.035 73.2847,-210.613 80.6056,-218.272 83.7837,-212.035"/>
</g>
<!-- Node9 -->
<g id="node9" class="node"><title>Node9</title>
<g id="a_node9"><a xlink:href="../../d9/dfc/classconfiguration_1_1_dotimes_parser.html#a26cc7f8e0a21d93091bfe8884a924450" target="_top" xlink:title="configuration.DotimesParser.fetch\lNumericExpr">
<polygon fill="white" stroke="black" points="155.5,-47 155.5,-77 334.5,-77 334.5,-47 155.5,-47"/>
<text text-anchor="start" x="163.5" y="-65" font-family="Helvetica,sans-Serif" font-size="10.00">configuration.DotimesParser.fetch</text>
<text text-anchor="middle" x="245" y="-54" font-family="Helvetica,sans-Serif" font-size="10.00">NumericExpr</text>
</a>
</g>
</g>
<!-- Node1&#45;&gt;Node9 -->
<g id="edge8" class="edge"><title>Node1&#45;&gt;Node9</title>
<path fill="none" stroke="midnightblue" d="M65.6232,-182.271C79.732,-156.732 108.478,-111.377 146,-87 151.963,-83.1258 158.493,-79.8518 165.259,-77.0849"/>
<polygon fill="midnightblue" stroke="midnightblue" points="62.4246,-180.83 60.7921,-191.299 68.5964,-184.133 62.4246,-180.83"/>
</g>
<!-- Node12 -->
<g id="node12" class="node"><title>Node12</title>
<g id="a_node12"><a xlink:href="../../d6/d0f/class_tree_1_1_single_node.html#ac8b9756e1e55be947a5d992e48e637fb" target="_top" xlink:title="Tree.SingleNode.getValue">
<polygon fill="white" stroke="black" points="175.5,-210.5 175.5,-229.5 314.5,-229.5 314.5,-210.5 175.5,-210.5"/>
<text text-anchor="middle" x="245" y="-217.5" font-family="Helvetica,sans-Serif" font-size="10.00">Tree.SingleNode.getValue</text>
</a>
</g>
</g>
<!-- Node1&#45;&gt;Node12 -->
<g id="edge11" class="edge"><title>Node1&#45;&gt;Node12</title>
<path fill="none" stroke="midnightblue" d="M120.333,-207.502C138.013,-209.289 157.253,-211.233 175.175,-213.044"/>
<polygon fill="midnightblue" stroke="midnightblue" points="120.426,-203.993 110.125,-206.47 119.723,-210.958 120.426,-203.993"/>
</g>
<!-- Node13 -->
<g id="node13" class="node"><title>Node13</title>
<g id="a_node13"><a xlink:href="../../de/dc5/class_tree_1_1_bin_node.html#a574037477f0b246532967a1dcea6f5dd" target="_top" xlink:title="Tree.BinNode.getValue">
<polygon fill="white" stroke="black" points="182.5,-172.5 182.5,-191.5 307.5,-191.5 307.5,-172.5 182.5,-172.5"/>
<text text-anchor="middle" x="245" y="-179.5" font-family="Helvetica,sans-Serif" font-size="10.00">Tree.BinNode.getValue</text>
</a>
</g>
</g>
<!-- Node1&#45;&gt;Node13 -->
<g id="edge12" class="edge"><title>Node1&#45;&gt;Node13</title>
<path fill="none" stroke="midnightblue" d="M120.124,-194.519C140.234,-192.487 162.381,-190.249 182.32,-188.234"/>
<polygon fill="midnightblue" stroke="midnightblue" points="119.723,-191.042 110.125,-195.53 120.426,-198.007 119.723,-191.042"/>
</g>
<!-- Node14 -->
<g id="node14" class="node"><title>Node14</title>
<g id="a_node14"><a xlink:href="../../db/d22/classconfiguration_1_1_set_parser.html#a4f20258805caaf18872872d5283a0e74" target="_top" xlink:title="configuration.SetParser.parse">
<polygon fill="white" stroke="black" points="166,-134.5 166,-153.5 324,-153.5 324,-134.5 166,-134.5"/>
<text text-anchor="middle" x="245" y="-141.5" font-family="Helvetica,sans-Serif" font-size="10.00">configuration.SetParser.parse</text>
</a>
</g>
</g>
<!-- Node1&#45;&gt;Node14 -->
<g id="edge13" class="edge"><title>Node1&#45;&gt;Node14</title>
<path fill="none" stroke="midnightblue" d="M84.3027,-187.256C101.753,-179.237 124.78,-169.46 146,-163 158.186,-159.29 171.453,-156.145 184.175,-153.545"/>
<polygon fill="midnightblue" stroke="midnightblue" points="82.8057,-184.092 75.229,-191.498 85.7702,-190.433 82.8057,-184.092"/>
</g>
<!-- Node15 -->
<g id="node15" class="node"><title>Node15</title>
<g id="a_node15"><a xlink:href="../../d0/da7/classconfiguration_1_1_basic_parser.html#a22bf37b374167e497f639182e7459517" target="_top" xlink:title="configuration.BasicParser.parse">
<polygon fill="white" stroke="black" points="161.5,-96.5 161.5,-115.5 328.5,-115.5 328.5,-96.5 161.5,-96.5"/>
<text text-anchor="middle" x="245" y="-103.5" font-family="Helvetica,sans-Serif" font-size="10.00">configuration.BasicParser.parse</text>
</a>
</g>
</g>
<!-- Node1&#45;&gt;Node15 -->
<g id="edge14" class="edge"><title>Node1&#45;&gt;Node15</title>
<path fill="none" stroke="midnightblue" d="M71.5393,-183.427C88.1651,-165.794 116.197,-139.264 146,-125 154.129,-121.11 162.999,-118.016 171.974,-115.555"/>
<polygon fill="midnightblue" stroke="midnightblue" points="68.5192,-181.541 64.3361,-191.275 73.6764,-186.274 68.5192,-181.541"/>
</g>
<!-- Node16 -->
<g id="node16" class="node"><title>Node16</title>
<g id="a_node16"><a xlink:href="../../dc/d64/classconfiguration_1_1_for_parser.html#a6bc38f731ac658c5860fe092ba7689ac" target="_top" xlink:title="configuration.ForParser.parseFor">
<polygon fill="white" stroke="black" points="159.5,-286.5 159.5,-305.5 330.5,-305.5 330.5,-286.5 159.5,-286.5"/>
<text text-anchor="middle" x="245" y="-293.5" font-family="Helvetica,sans-Serif" font-size="10.00">configuration.ForParser.parseFor</text>
</a>
</g>
</g>
<!-- Node1&#45;&gt;Node16 -->
<g id="edge15" class="edge"><title>Node1&#45;&gt;Node16</title>
<path fill="none" stroke="midnightblue" d="M73.0054,-218.146C90.0378,-234.357 117.719,-258.197 146,-272 158.83,-278.262 173.423,-282.969 187.357,-286.477"/>
<polygon fill="midnightblue" stroke="midnightblue" points="75.1491,-215.348 65.5435,-210.878 70.2649,-220.363 75.1491,-215.348"/>
</g>
<!-- Node18 -->
<g id="node18" class="node"><title>Node18</title>
<g id="a_node18"><a xlink:href="../../d9/dfc/classconfiguration_1_1_dotimes_parser.html#aff41ee5ce2eeff82f7586bd1cf6a91c8" target="_top" xlink:title="configuration.DotimesParser.parseFor">
<polygon fill="white" stroke="black" points="146.5,-7.5 146.5,-26.5 343.5,-26.5 343.5,-7.5 146.5,-7.5"/>
<text text-anchor="middle" x="245" y="-14.5" font-family="Helvetica,sans-Serif" font-size="10.00">configuration.DotimesParser.parseFor</text>
</a>
</g>
</g>
<!-- Node1&#45;&gt;Node18 -->
<g id="edge18" class="edge"><title>Node1&#45;&gt;Node18</title>
<path fill="none" stroke="midnightblue" d="M60.8951,-181.436C70.7044,-146.516 96.2214,-73.6849 146,-37 151.731,-32.7763 158.14,-29.3925 164.863,-26.6879"/>
<polygon fill="midnightblue" stroke="midnightblue" points="57.4469,-180.784 58.2514,-191.348 64.2104,-182.588 57.4469,-180.784"/>
</g>
<!-- Node3 -->
<g id="node3" class="node"><title>Node3</title>
<g id="a_node3"><a xlink:href="../../d7/d56/classconfiguration_1_1_ifelse_parser.html#a4b806589536dd338338d515a0fdb67ed" target="_top" xlink:title="configuration.IfelseParser.parse">
<polygon fill="white" stroke="black" points="388,-373.5 388,-392.5 554,-392.5 554,-373.5 388,-373.5"/>
<text text-anchor="middle" x="471" y="-380.5" font-family="Helvetica,sans-Serif" font-size="10.00">configuration.IfelseParser.parse</text>
</a>
</g>
</g>
<!-- Node2&#45;&gt;Node3 -->
<g id="edge2" class="edge"><title>Node2&#45;&gt;Node3</title>
<path fill="none" stroke="midnightblue" d="M345.4,-386.338C359.526,-385.959 373.923,-385.573 387.677,-385.205"/>
<polygon fill="midnightblue" stroke="midnightblue" points="345.077,-382.845 335.174,-386.611 345.265,-389.842 345.077,-382.845"/>
</g>
<!-- Node4 -->
<g id="node4" class="node"><title>Node4</title>
<g id="a_node4"><a xlink:href="../../dc/dd1/classconfiguration_1_1_if_parser.html#ab4ed2d3b7778d2b1206e5d26ebac7976" target="_top" xlink:title="configuration.IfParser.parse">
<polygon fill="white" stroke="black" points="398,-411.5 398,-430.5 544,-430.5 544,-411.5 398,-411.5"/>
<text text-anchor="middle" x="471" y="-418.5" font-family="Helvetica,sans-Serif" font-size="10.00">configuration.IfParser.parse</text>
</a>
</g>
</g>
<!-- Node2&#45;&gt;Node4 -->
<g id="edge3" class="edge"><title>Node2&#45;&gt;Node4</title>
<path fill="none" stroke="midnightblue" d="M345.084,-403.155C364.749,-405.964 384.953,-408.85 403.226,-411.461"/>
<polygon fill="midnightblue" stroke="midnightblue" points="345.569,-399.689 335.174,-401.739 344.579,-406.618 345.569,-399.689"/>
</g>
<!-- Node6 -->
<g id="node6" class="node"><title>Node6</title>
<g id="a_node6"><a xlink:href="../../d3/d0d/classconfiguration_1_1_repeat_parser.html#abf20b0ae25909c1cdff93f509830b502" target="_top" xlink:title="configuration.RepeatParser.parse">
<polygon fill="white" stroke="black" points="384,-330.5 384,-349.5 558,-349.5 558,-330.5 384,-330.5"/>
<text text-anchor="middle" x="471" y="-337.5" font-family="Helvetica,sans-Serif" font-size="10.00">configuration.RepeatParser.parse</text>
</a>
</g>
</g>
<!-- Node5&#45;&gt;Node6 -->
<g id="edge5" class="edge"><title>Node5&#45;&gt;Node6</title>
<path fill="none" stroke="midnightblue" d="M340.941,-340C355.135,-340 369.704,-340 383.706,-340"/>
<polygon fill="midnightblue" stroke="midnightblue" points="340.685,-336.5 330.685,-340 340.685,-343.5 340.685,-336.5"/>
</g>
<!-- Node8 -->
<g id="node8" class="node"><title>Node8</title>
<g id="a_node8"><a xlink:href="../../dc/d64/classconfiguration_1_1_for_parser.html#a2737b422e279cfca7c64fd8eff57d3ff" target="_top" xlink:title="configuration.ForParser.parse">
<polygon fill="white" stroke="black" points="611,-261.5 611,-280.5 767,-280.5 767,-261.5 611,-261.5"/>
<text text-anchor="middle" x="689" y="-268.5" font-family="Helvetica,sans-Serif" font-size="10.00">configuration.ForParser.parse</text>
</a>
</g>
</g>
<!-- Node7&#45;&gt;Node8 -->
<g id="edge7" class="edge"><title>Node7&#45;&gt;Node8</title>
<path fill="none" stroke="midnightblue" d="M557.729,-256.525C575.208,-258.468 593.501,-260.5 610.667,-262.407"/>
<polygon fill="midnightblue" stroke="midnightblue" points="557.872,-253.02 547.546,-255.394 557.099,-259.977 557.872,-253.02"/>
</g>
<!-- Node10 -->
<g id="node10" class="node"><title>Node10</title>
<g id="a_node10"><a xlink:href="../../d9/dfc/classconfiguration_1_1_dotimes_parser.html#a63d34c400b9b5715b4a2f9a5d0107e62" target="_top" xlink:title="configuration.DotimesParser.parse\lDotimesIterator">
<polygon fill="white" stroke="black" points="380,-49 380,-79 562,-79 562,-49 380,-49"/>
<text text-anchor="start" x="388" y="-67" font-family="Helvetica,sans-Serif" font-size="10.00">configuration.DotimesParser.parse</text>
<text text-anchor="middle" x="471" y="-56" font-family="Helvetica,sans-Serif" font-size="10.00">DotimesIterator</text>
</a>
</g>
</g>
<!-- Node9&#45;&gt;Node10 -->
<g id="edge9" class="edge"><title>Node9&#45;&gt;Node10</title>
<path fill="none" stroke="midnightblue" d="M344.748,-62.8817C356.446,-62.9861 368.34,-63.0923 379.909,-63.1956"/>
<polygon fill="midnightblue" stroke="midnightblue" points="344.562,-59.38 334.531,-62.7905 344.499,-66.3797 344.562,-59.38"/>
</g>
<!-- Node11 -->
<g id="node11" class="node"><title>Node11</title>
<g id="a_node11"><a xlink:href="../../d9/dfc/classconfiguration_1_1_dotimes_parser.html#abf0eb9bddfa4a09adc745008e17b293b" target="_top" xlink:title="configuration.DotimesParser.parse">
<polygon fill="white" stroke="black" points="598,-30.5 598,-49.5 780,-49.5 780,-30.5 598,-30.5"/>
<text text-anchor="middle" x="689" y="-37.5" font-family="Helvetica,sans-Serif" font-size="10.00">configuration.DotimesParser.parse</text>
</a>
</g>
</g>
<!-- Node10&#45;&gt;Node11 -->
<g id="edge10" class="edge"><title>Node10&#45;&gt;Node11</title>
<path fill="none" stroke="midnightblue" d="M572.081,-52.8799C582.166,-51.7594 592.344,-50.6285 602.26,-49.5267"/>
<polygon fill="midnightblue" stroke="midnightblue" points="571.592,-49.4126 562.039,-53.9956 572.365,-56.3698 571.592,-49.4126"/>
</g>
<!-- Node17 -->
<g id="node17" class="node"><title>Node17</title>
<g id="a_node17"><a xlink:href="../../dc/d64/classconfiguration_1_1_for_parser.html#ad3cb5184cf449bd3414f3ba73a8b3104" target="_top" xlink:title="configuration.ForParser.parse\lCommands">
<polygon fill="white" stroke="black" points="393,-281 393,-311 549,-311 549,-281 393,-281"/>
<text text-anchor="start" x="401" y="-299" font-family="Helvetica,sans-Serif" font-size="10.00">configuration.ForParser.parse</text>
<text text-anchor="middle" x="471" y="-288" font-family="Helvetica,sans-Serif" font-size="10.00">Commands</text>
</a>
</g>
</g>
<!-- Node16&#45;&gt;Node17 -->
<g id="edge16" class="edge"><title>Node16&#45;&gt;Node17</title>
<path fill="none" stroke="midnightblue" d="M340.838,-296C358.214,-296 376.155,-296 392.934,-296"/>
<polygon fill="midnightblue" stroke="midnightblue" points="340.685,-292.5 330.685,-296 340.685,-299.5 340.685,-292.5"/>
</g>
<!-- Node17&#45;&gt;Node8 -->
<g id="edge17" class="edge"><title>Node17&#45;&gt;Node8</title>
<path fill="none" stroke="midnightblue" d="M559.077,-285.922C576.248,-283.934 594.153,-281.862 610.964,-279.916"/>
<polygon fill="midnightblue" stroke="midnightblue" points="558.597,-282.454 549.066,-287.08 559.402,-289.407 558.597,-282.454"/>
</g>
<!-- Node19 -->
<g id="node19" class="node"><title>Node19</title>
<g id="a_node19"><a xlink:href="../../d9/dfc/classconfiguration_1_1_dotimes_parser.html#a6086c4c4651b29dd968bf4728bd71d0c" target="_top" xlink:title="configuration.DotimesParser.parse\lCommands">
<polygon fill="white" stroke="black" points="380,-0 380,-30 562,-30 562,-0 380,-0"/>
<text text-anchor="start" x="388" y="-18" font-family="Helvetica,sans-Serif" font-size="10.00">configuration.DotimesParser.parse</text>
<text text-anchor="middle" x="471" y="-7" font-family="Helvetica,sans-Serif" font-size="10.00">Commands</text>
</a>
</g>
</g>
<!-- Node18&#45;&gt;Node19 -->
<g id="edge19" class="edge"><title>Node18&#45;&gt;Node19</title>
<path fill="none" stroke="midnightblue" d="M353.785,-16.0376C362.488,-15.9599 371.224,-15.8819 379.783,-15.8055"/>
<polygon fill="midnightblue" stroke="midnightblue" points="353.566,-12.5393 343.598,-16.1286 353.629,-19.5391 353.566,-12.5393"/>
</g>
<!-- Node19&#45;&gt;Node11 -->
<g id="edge20" class="edge"><title>Node19&#45;&gt;Node11</title>
<path fill="none" stroke="midnightblue" d="M572.272,-26.6056C583.464,-27.901 594.767,-29.2092 605.698,-30.4743"/>
<polygon fill="midnightblue" stroke="midnightblue" points="572.375,-23.0942 562.039,-25.4212 571.571,-30.0478 572.375,-23.0942"/>
</g>
</g>
</svg>
        <g id="navigator" transform="translate(0 0)" fill="#404254">
                <rect fill="#f2f5e9" fill-opacity="0.5" stroke="#606060" stroke-width=".5" x="0" y="0" width="60" height="60"/>
                <use id="zoomplus" xlink:href="#zoomPlus" x="17" y="9" onmousedown="handleZoom(evt,'in')"/>
                <use id="zoomminus" xlink:href="#zoomMin" x="42" y="9" onmousedown="handleZoom(evt,'out')"/>
                <use id="reset" xlink:href="#resetDef" x="30" y="36" onmousedown="handleReset()"/>
                <g id="arrowUp" xlink:href="#dirArrow" transform="translate(30 24)" onmousedown="handlePan(0,-1)">
                  <use xlink:href="#rim" fill="#404040">
                        <set attributeName="fill" to="#808080" begin="arrowUp.mouseover" end="arrowUp.mouseout"/>
                  </use>
                  <path fill="none" stroke="white" stroke-width="1.5" d="M0,-3.0v7 M-2.5,-0.5L0,-3.0L2.5,-0.5"/>
                </g>
                <g id="arrowRight" xlink:href="#dirArrow" transform="rotate(90) translate(36 -43)" onmousedown="handlePan(1,0)">
                  <use xlink:href="#rim" fill="#404040">
                        <set attributeName="fill" to="#808080" begin="arrowRight.mouseover" end="arrowRight.mouseout"/>
                  </use>
                  <path fill="none" stroke="white" stroke-width="1.5" d="M0,-3.0v7 M-2.5,-0.5L0,-3.0L2.5,-0.5"/>
                </g>
                <g id="arrowDown" xlink:href="#dirArrow" transform="rotate(180) translate(-30 -48)" onmousedown="handlePan(0,1)">
                  <use xlink:href="#rim" fill="#404040">
                        <set attributeName="fill" to="#808080" begin="arrowDown.mouseover" end="arrowDown.mouseout"/>
                  </use>
                  <path fill="none" stroke="white" stroke-width="1.5" d="M0,-3.0v7 M-2.5,-0.5L0,-3.0L2.5,-0.5"/>
                </g>
                <g id="arrowLeft" xlink:href="#dirArrow" transform="rotate(270) translate(-36 17)" onmousedown="handlePan(-1,0)">
                  <use xlink:href="#rim" fill="#404040">
                        <set attributeName="fill" to="#808080" begin="arrowLeft.mouseover" end="arrowLeft.mouseout"/>
                  </use>
                  <path fill="none" stroke="white" stroke-width="1.5" d="M0,-3.0v7 M-2.5,-0.5L0,-3.0L2.5,-0.5"/>
                </g>
        </g>
        <svg viewBox="0 0 15 15" width="100%" height="30px" preserveAspectRatio="xMaxYMin meet">
         <g id="arrow_out" transform="scale(0.3 0.3)">
          <a xlink:href="interface_tree_1_1_node_a83d55b41499cfcfd3607420eed42507c_icgraph_org.svg" target="_base">
           <rect id="button" ry="5" rx="5" y="6" x="6" height="38" width="38"
                fill="#f2f5e9" fill-opacity="0.5" stroke="#606060" stroke-width="1.0"/>
           <path id="arrow"
             d="M 11.500037,31.436501 C 11.940474,20.09759 22.043105,11.32322 32.158766,21.979434 L 37.068811,17.246167 C 37.068811,17.246167 37.088388,32 37.088388,32 L 22.160133,31.978069 C 22.160133,31.978069 26.997745,27.140456 26.997745,27.140456 C 18.528582,18.264221 13.291696,25.230495 11.500037,31.436501 z"
             style="fill:#404040;"/>
          </a>
         </g>
        </svg>
</svg>
