<?xml version="1.0" encoding="UTF-8" standalone="no"?>
<!DOCTYPE svg PUBLIC "-//W3C//DTD SVG 1.1//EN"
 "http://www.w3.org/Graphics/SVG/1.1/DTD/svg11.dtd">
<!-- Generated by graphviz version 2.36.0 (20140111.2315)
 -->
<!-- Title: configuration.DotimesParser.parse Pages: 1 -->
<svg width="1260pt" height="368pt"
 viewBox="0.00 0.00 1260.00 367.74" xmlns="http://www.w3.org/2000/svg" xmlns:xlink="http://www.w3.org/1999/xlink">
<g id="graph0" class="graph" transform="scale(1 1) rotate(0) translate(4 363.742)">
<title>configuration.DotimesParser.parse</title>
<polygon fill="white" stroke="none" points="-4,4 -4,-363.742 1256,-363.742 1256,4 -4,4"/>
<!-- Node1 -->
<g id="node1" class="node"><title>Node1</title>
<polygon fill="#bfbfbf" stroke="black" points="0,-264.242 0,-283.242 182,-283.242 182,-264.242 0,-264.242"/>
<text text-anchor="middle" x="91" y="-271.242" font-family="Helvetica,sans-Serif" font-size="10.00">configuration.DotimesParser.parse</text>
</g>
<!-- Node2 -->
<g id="node2" class="node"><title>Node2</title>
<g id="a_node2"><a xlink:href="../../d9/d11/classconfiguration_1_1_parser.html#a07345acba63db50ec60293f2b38e54a6" target="_top" xlink:title="configuration.Parser.isEnd">
<polygon fill="white" stroke="black" points="678,-340.242 678,-359.242 818,-359.242 818,-340.242 678,-340.242"/>
<text text-anchor="middle" x="748" y="-347.242" font-family="Helvetica,sans-Serif" font-size="10.00">configuration.Parser.isEnd</text>
</a>
</g>
</g>
<!-- Node1&#45;&gt;Node2 -->
<g id="edge1" class="edge"><title>Node1&#45;&gt;Node2</title>
<path fill="none" stroke="midnightblue" d="M140.723,-283.259C164.08,-287.761 192.468,-293.144 218,-297.742 314.719,-315.16 338.3,-324.134 436,-334.742 514.523,-343.268 604.724,-346.948 667.693,-348.537"/>
<polygon fill="midnightblue" stroke="midnightblue" points="667.868,-352.042 677.949,-348.783 668.036,-345.044 667.868,-352.042"/>
</g>
<!-- Node3 -->
<g id="node3" class="node"><title>Node3</title>
<g id="a_node3"><a xlink:href="../../d9/dfc/classconfiguration_1_1_dotimes_parser.html#a6086c4c4651b29dd968bf4728bd71d0c" target="_top" xlink:title="configuration.DotimesParser.parse\lCommands">
<polygon fill="white" stroke="black" points="218,-258.742 218,-288.742 400,-288.742 400,-258.742 218,-258.742"/>
<text text-anchor="start" x="226" y="-276.742" font-family="Helvetica,sans-Serif" font-size="10.00">configuration.DotimesParser.parse</text>
<text text-anchor="middle" x="309" y="-265.742" font-family="Helvetica,sans-Serif" font-size="10.00">Commands</text>
</a>
</g>
</g>
<!-- Node1&#45;&gt;Node3 -->
<g id="edge2" class="edge"><title>Node1&#45;&gt;Node3</title>
<path fill="none" stroke="midnightblue" d="M182.039,-273.742C190.526,-273.742 199.165,-273.742 207.738,-273.742"/>
<polygon fill="midnightblue" stroke="midnightblue" points="207.759,-277.242 217.759,-273.742 207.759,-270.242 207.759,-277.242"/>
</g>
<!-- Node17 -->
<g id="node17" class="node"><title>Node17</title>
<g id="a_node17"><a xlink:href="../../d9/dfc/classconfiguration_1_1_dotimes_parser.html#a63d34c400b9b5715b4a2f9a5d0107e62" target="_top" xlink:title="configuration.DotimesParser.parse\lDotimesIterator">
<polygon fill="white" stroke="black" points="218,-116.742 218,-146.742 400,-146.742 400,-116.742 218,-116.742"/>
<text text-anchor="start" x="226" y="-134.742" font-family="Helvetica,sans-Serif" font-size="10.00">configuration.DotimesParser.parse</text>
<text text-anchor="middle" x="309" y="-123.742" font-family="Helvetica,sans-Serif" font-size="10.00">DotimesIterator</text>
</a>
</g>
</g>
<!-- Node1&#45;&gt;Node17 -->
<g id="edge20" class="edge"><title>Node1&#45;&gt;Node17</title>
<path fill="none" stroke="midnightblue" d="M106.508,-264.205C141.075,-241.48 228.949,-183.711 276.422,-152.502"/>
<polygon fill="midnightblue" stroke="midnightblue" points="278.639,-155.233 285.072,-146.815 274.793,-149.384 278.639,-155.233"/>
</g>
<!-- Node3&#45;&gt;Node2 -->
<g id="edge18" class="edge"><title>Node3&#45;&gt;Node2</title>
<path fill="none" stroke="midnightblue" d="M361.786,-288.787C384.426,-294.979 411.384,-301.835 436,-306.742 514.106,-322.313 604.367,-334.117 667.463,-341.382"/>
<polygon fill="midnightblue" stroke="midnightblue" points="667.409,-344.899 677.741,-342.553 668.202,-337.944 667.409,-344.899"/>
</g>
<!-- Node4 -->
<g id="node4" class="node"><title>Node4</title>
<g id="a_node4"><a xlink:href="../../d9/d11/classconfiguration_1_1_parser.html#a21cf49f5bc55db161bc1ac86153035a1" target="_top" xlink:title="configuration.Parser.isList\lStart">
<polygon fill="white" stroke="black" points="466,-138.742 466,-168.742 604,-168.742 604,-138.742 466,-138.742"/>
<text text-anchor="start" x="474" y="-156.742" font-family="Helvetica,sans-Serif" font-size="10.00">configuration.Parser.isList</text>
<text text-anchor="middle" x="535" y="-145.742" font-family="Helvetica,sans-Serif" font-size="10.00">Start</text>
</a>
</g>
</g>
<!-- Node3&#45;&gt;Node4 -->
<g id="edge3" class="edge"><title>Node3&#45;&gt;Node4</title>
<path fill="none" stroke="midnightblue" d="M325.722,-258.54C348.299,-237.54 392.046,-199.861 436,-178.742 442.42,-175.658 449.265,-172.923 456.241,-170.505"/>
<polygon fill="midnightblue" stroke="midnightblue" points="457.375,-173.817 465.806,-167.4 455.213,-167.159 457.375,-173.817"/>
</g>
<!-- Node5 -->
<g id="node5" class="node"><title>Node5</title>
<g id="a_node5"><a xlink:href="../../d9/d11/classconfiguration_1_1_parser.html#a0d2aa50e7ee2ec257e7030f716ab880e" target="_top" xlink:title="configuration.Parser.skip">
<polygon fill="white" stroke="black" points="681.5,-188.242 681.5,-207.242 814.5,-207.242 814.5,-188.242 681.5,-188.242"/>
<text text-anchor="middle" x="748" y="-195.242" font-family="Helvetica,sans-Serif" font-size="10.00">configuration.Parser.skip</text>
</a>
</g>
</g>
<!-- Node3&#45;&gt;Node5 -->
<g id="edge4" class="edge"><title>Node3&#45;&gt;Node5</title>
<path fill="none" stroke="midnightblue" d="M396.337,-258.727C480.489,-244.092 606.534,-222.171 682.368,-208.983"/>
<polygon fill="midnightblue" stroke="midnightblue" points="683.018,-212.422 692.27,-207.261 681.818,-205.526 683.018,-212.422"/>
</g>
<!-- Node6 -->
<g id="node6" class="node"><title>Node6</title>
<g id="a_node6"><a xlink:href="../../d9/dfc/classconfiguration_1_1_dotimes_parser.html#aff41ee5ce2eeff82f7586bd1cf6a91c8" target="_top" xlink:title="configuration.DotimesParser.parseFor">
<polygon fill="white" stroke="black" points="436.5,-188.242 436.5,-207.242 633.5,-207.242 633.5,-188.242 436.5,-188.242"/>
<text text-anchor="middle" x="535" y="-195.242" font-family="Helvetica,sans-Serif" font-size="10.00">configuration.DotimesParser.parseFor</text>
</a>
</g>
</g>
<!-- Node3&#45;&gt;Node6 -->
<g id="edge5" class="edge"><title>Node3&#45;&gt;Node6</title>
<path fill="none" stroke="midnightblue" d="M354.255,-258.727C395.659,-244.679 456.847,-223.919 496.069,-210.612"/>
<polygon fill="midnightblue" stroke="midnightblue" points="497.439,-213.843 505.784,-207.315 495.19,-207.214 497.439,-213.843"/>
</g>
<!-- Node7 -->
<g id="node7" class="node"><title>Node7</title>
<g id="a_node7"><a xlink:href="../../d9/d11/classconfiguration_1_1_parser.html#a2d882145164d4ce98e9ac91b6000c2ab" target="_top" xlink:title="configuration.Parser.isListEnd">
<polygon fill="white" stroke="black" points="670,-226.242 670,-245.242 826,-245.242 826,-226.242 670,-226.242"/>
<text text-anchor="middle" x="748" y="-233.242" font-family="Helvetica,sans-Serif" font-size="10.00">configuration.Parser.isListEnd</text>
</a>
</g>
</g>
<!-- Node3&#45;&gt;Node7 -->
<g id="edge19" class="edge"><title>Node3&#45;&gt;Node7</title>
<path fill="none" stroke="midnightblue" d="M391.887,-288.779C457.999,-298.182 553.015,-305.482 634,-287.742 666.487,-280.626 700.78,-263.254 722.95,-250.54"/>
<polygon fill="midnightblue" stroke="midnightblue" points="724.818,-253.502 731.669,-245.42 721.273,-247.466 724.818,-253.502"/>
</g>
<!-- Node6&#45;&gt;Node2 -->
<g id="edge6" class="edge"><title>Node6&#45;&gt;Node2</title>
<path fill="none" stroke="midnightblue" d="M549.199,-207.251C584.649,-232.788 682.186,-303.051 725.634,-334.351"/>
<polygon fill="midnightblue" stroke="midnightblue" points="723.646,-337.232 733.806,-340.238 727.738,-331.553 723.646,-337.232"/>
</g>
<!-- Node6&#45;&gt;Node5 -->
<g id="edge17" class="edge"><title>Node6&#45;&gt;Node5</title>
<path fill="none" stroke="midnightblue" d="M633.779,-197.742C646.412,-197.742 659.193,-197.742 671.393,-197.742"/>
<polygon fill="midnightblue" stroke="midnightblue" points="671.488,-201.242 681.488,-197.742 671.488,-194.242 671.488,-201.242"/>
</g>
<!-- Node6&#45;&gt;Node7 -->
<g id="edge7" class="edge"><title>Node6&#45;&gt;Node7</title>
<path fill="none" stroke="midnightblue" d="M588.972,-207.282C617.817,-212.477 653.695,-218.939 683.972,-224.391"/>
<polygon fill="midnightblue" stroke="midnightblue" points="683.544,-227.871 694.006,-226.198 684.785,-220.981 683.544,-227.871"/>
</g>
<!-- Node8 -->
<g id="node8" class="node"><title>Node8</title>
<g id="a_node8"><a xlink:href="../../d9/d11/classconfiguration_1_1_parser.html#ae0480f44c9defa614fb470ab154fa60b" target="_top" xlink:title="configuration.Parser.buildTree">
<polygon fill="white" stroke="black" points="670,-123.242 670,-142.242 826,-142.242 826,-123.242 670,-123.242"/>
<text text-anchor="middle" x="748" y="-130.242" font-family="Helvetica,sans-Serif" font-size="10.00">configuration.Parser.buildTree</text>
</a>
</g>
</g>
<!-- Node6&#45;&gt;Node8 -->
<g id="edge8" class="edge"><title>Node6&#45;&gt;Node8</title>
<path fill="none" stroke="midnightblue" d="M591.368,-188.23C605.398,-185.332 620.356,-181.816 634,-177.742 662.73,-169.164 694.352,-156.259 716.82,-146.465"/>
<polygon fill="midnightblue" stroke="midnightblue" points="718.419,-149.585 726.154,-142.345 715.592,-143.181 718.419,-149.585"/>
</g>
<!-- Node16 -->
<g id="node16" class="node"><title>Node16</title>
<g id="a_node16"><a xlink:href="../../d8/d4f/interface_tree_1_1_node.html#a83d55b41499cfcfd3607420eed42507c" target="_top" xlink:title="Tree.Node.getValue">
<polygon fill="white" stroke="black" points="693,-66.2423 693,-85.2423 803,-85.2423 803,-66.2423 693,-66.2423"/>
<text text-anchor="middle" x="748" y="-73.2423" font-family="Helvetica,sans-Serif" font-size="10.00">Tree.Node.getValue</text>
</a>
</g>
</g>
<!-- Node6&#45;&gt;Node16 -->
<g id="edge16" class="edge"><title>Node6&#45;&gt;Node16</title>
<path fill="none" stroke="midnightblue" d="M614.597,-188.186C621.509,-185.463 628.106,-182.038 634,-177.742 660.373,-158.519 646.309,-136.188 670,-113.742 680.885,-103.429 695.104,-95.3541 708.356,-89.3502"/>
<polygon fill="midnightblue" stroke="midnightblue" points="709.942,-92.4788 717.773,-85.3422 707.201,-86.0379 709.942,-92.4788"/>
</g>
<!-- Node9 -->
<g id="node9" class="node"><title>Node9</title>
<g id="a_node9"><a xlink:href="../../d9/d11/classconfiguration_1_1_parser.html#a6a8ca49b46db578a3d9e84b0c4ce2f75" target="_top" xlink:title="configuration.Parser.isCommand">
<polygon fill="white" stroke="black" points="887,-88.2423 887,-107.242 1059,-107.242 1059,-88.2423 887,-88.2423"/>
<text text-anchor="middle" x="973" y="-95.2423" font-family="Helvetica,sans-Serif" font-size="10.00">configuration.Parser.isCommand</text>
</a>
</g>
</g>
<!-- Node8&#45;&gt;Node9 -->
<g id="edge9" class="edge"><title>Node8&#45;&gt;Node9</title>
<path fill="none" stroke="midnightblue" d="M809.641,-123.225C837.907,-118.788 871.723,-113.481 901.158,-108.861"/>
<polygon fill="midnightblue" stroke="midnightblue" points="902.035,-112.266 911.371,-107.258 900.949,-105.351 902.035,-112.266"/>
</g>
<!-- Node10 -->
<g id="node10" class="node"><title>Node10</title>
<g id="a_node10"><a xlink:href="../../da/dde/classconfiguration_1_1_util.html#a55c271426926996186d1cde227ae7e23" target="_top" xlink:title="configuration.Util.findCommandKey">
<polygon fill="white" stroke="black" points="880.5,-50.2423 880.5,-69.2423 1065.5,-69.2423 1065.5,-50.2423 880.5,-50.2423"/>
<text text-anchor="middle" x="973" y="-57.2423" font-family="Helvetica,sans-Serif" font-size="10.00">configuration.Util.findCommandKey</text>
</a>
</g>
</g>
<!-- Node8&#45;&gt;Node10 -->
<g id="edge10" class="edge"><title>Node8&#45;&gt;Node10</title>
<path fill="none" stroke="midnightblue" d="M768.526,-123.051C798.263,-108.347 852.47,-81.7784 862,-78.7423 870.977,-75.8825 880.511,-73.4237 890.067,-71.3167"/>
<polygon fill="midnightblue" stroke="midnightblue" points="890.934,-74.7112 900.011,-69.2462 889.507,-67.8582 890.934,-74.7112"/>
</g>
<!-- Node12 -->
<g id="node12" class="node"><title>Node12</title>
<g id="a_node12"><a xlink:href="../../d9/d11/classconfiguration_1_1_parser.html#af0032734232f2e6043d7c8c94d86dd1f" target="_top" xlink:title="configuration.Parser.isConstant">
<polygon fill="white" stroke="black" points="890.5,-214.242 890.5,-233.242 1055.5,-233.242 1055.5,-214.242 890.5,-214.242"/>
<text text-anchor="middle" x="973" y="-221.242" font-family="Helvetica,sans-Serif" font-size="10.00">configuration.Parser.isConstant</text>
</a>
</g>
</g>
<!-- Node8&#45;&gt;Node12 -->
<g id="edge12" class="edge"><title>Node8&#45;&gt;Node12</title>
<path fill="none" stroke="midnightblue" d="M766.084,-142.377C781.863,-151.41 805.837,-165.475 826,-178.742 842.487,-189.591 843.808,-197.088 862,-204.742 868.241,-207.368 874.827,-209.631 881.548,-211.582"/>
<polygon fill="midnightblue" stroke="midnightblue" points="880.904,-215.032 891.468,-214.221 882.704,-208.267 880.904,-215.032"/>
</g>
<!-- Node13 -->
<g id="node13" class="node"><title>Node13</title>
<g id="a_node13"><a xlink:href="../../d9/d11/classconfiguration_1_1_parser.html#a061c6e2e973a9e7f531931f61f45448b" target="_top" xlink:title="configuration.Parser.isVariable">
<polygon fill="white" stroke="black" points="893,-12.2423 893,-31.2423 1053,-31.2423 1053,-12.2423 893,-12.2423"/>
<text text-anchor="middle" x="973" y="-19.2423" font-family="Helvetica,sans-Serif" font-size="10.00">configuration.Parser.isVariable</text>
</a>
</g>
</g>
<!-- Node8&#45;&gt;Node13 -->
<g id="edge13" class="edge"><title>Node8&#45;&gt;Node13</title>
<path fill="none" stroke="midnightblue" d="M776.747,-123.185C792.412,-116.833 811.662,-107.333 826,-94.7423 847.674,-75.7094 837.824,-56.4753 862,-40.7423 868.51,-36.5058 875.678,-33.1301 883.138,-30.4495"/>
<polygon fill="midnightblue" stroke="midnightblue" points="884.241,-33.7715 892.716,-27.4134 882.125,-27.0988 884.241,-33.7715"/>
</g>
<!-- Node14 -->
<g id="node14" class="node"><title>Node14</title>
<g id="a_node14"><a xlink:href="../../d0/d3b/classcommands_1_1_user_made_utilities.html#ad6e90d3cccee9da7cf3df2c13fc70381" target="_top" xlink:title="commands.UserMadeUtilities.containsVars">
<polygon fill="white" stroke="black" points="862,-176.242 862,-195.242 1084,-195.242 1084,-176.242 862,-176.242"/>
<text text-anchor="middle" x="973" y="-183.242" font-family="Helvetica,sans-Serif" font-size="10.00">commands.UserMadeUtilities.containsVars</text>
</a>
</g>
</g>
<!-- Node8&#45;&gt;Node14 -->
<g id="edge14" class="edge"><title>Node8&#45;&gt;Node14</title>
<path fill="none" stroke="midnightblue" d="M778.515,-142.279C801.185,-149.38 833.358,-158.976 862,-165.742 875.301,-168.885 889.606,-171.811 903.357,-174.403"/>
<polygon fill="midnightblue" stroke="midnightblue" points="902.781,-177.856 913.25,-176.23 904.052,-170.972 902.781,-177.856"/>
</g>
<!-- Node15 -->
<g id="node15" class="node"><title>Node15</title>
<g id="a_node15"><a xlink:href="../../d0/d3b/classcommands_1_1_user_made_utilities.html#afc570f31a89922ff7a42f13839888c8f" target="_top" xlink:title="commands.UserMadeUtilities.get\lFromVars">
<polygon fill="white" stroke="black" points="885,-126.742 885,-156.742 1061,-156.742 1061,-126.742 885,-126.742"/>
<text text-anchor="start" x="893" y="-144.742" font-family="Helvetica,sans-Serif" font-size="10.00">commands.UserMadeUtilities.get</text>
<text text-anchor="middle" x="973" y="-133.742" font-family="Helvetica,sans-Serif" font-size="10.00">FromVars</text>
</a>
</g>
</g>
<!-- Node8&#45;&gt;Node15 -->
<g id="edge15" class="edge"><title>Node8&#45;&gt;Node15</title>
<path fill="none" stroke="midnightblue" d="M826.056,-135.852C841.694,-136.483 858.335,-137.155 874.571,-137.81"/>
<polygon fill="midnightblue" stroke="midnightblue" points="874.483,-141.309 884.616,-138.216 874.765,-134.315 874.483,-141.309"/>
</g>
<!-- Node11 -->
<g id="node11" class="node"><title>Node11</title>
<g id="a_node11"><a xlink:href="../../da/dde/classconfiguration_1_1_util.html#a163b0098613bf2f7becf27b131af3934" target="_top" xlink:title="configuration.Util.match">
<polygon fill="white" stroke="black" points="1120.5,-50.2423 1120.5,-69.2423 1251.5,-69.2423 1251.5,-50.2423 1120.5,-50.2423"/>
<text text-anchor="middle" x="1186" y="-57.2423" font-family="Helvetica,sans-Serif" font-size="10.00">configuration.Util.match</text>
</a>
</g>
</g>
<!-- Node10&#45;&gt;Node11 -->
<g id="edge11" class="edge"><title>Node10&#45;&gt;Node11</title>
<path fill="none" stroke="midnightblue" d="M1065.63,-59.7423C1080.48,-59.7423 1095.71,-59.7423 1110.11,-59.7423"/>
<polygon fill="midnightblue" stroke="midnightblue" points="1110.43,-63.2424 1120.43,-59.7423 1110.43,-56.2424 1110.43,-63.2424"/>
</g>
<!-- Node17&#45;&gt;Node4 -->
<g id="edge21" class="edge"><title>Node17&#45;&gt;Node4</title>
<path fill="none" stroke="midnightblue" d="M400.141,-140.595C418.519,-142.4 437.714,-144.286 455.641,-146.046"/>
<polygon fill="midnightblue" stroke="midnightblue" points="455.45,-149.544 465.745,-147.039 456.135,-142.578 455.45,-149.544"/>
</g>
<!-- Node17&#45;&gt;Node5 -->
<g id="edge22" class="edge"><title>Node17&#45;&gt;Node5</title>
<path fill="none" stroke="midnightblue" d="M400.264,-117.121C466.347,-109.702 557.462,-106.38 634,-128.742 652.225,-134.067 653.848,-141.761 670,-151.742 687.223,-162.385 706.813,-174.083 721.923,-183.018"/>
<polygon fill="midnightblue" stroke="midnightblue" points="720.3,-186.124 730.691,-188.191 723.856,-180.095 720.3,-186.124"/>
</g>
<!-- Node17&#45;&gt;Node7 -->
<g id="edge27" class="edge"><title>Node17&#45;&gt;Node7</title>
<path fill="none" stroke="midnightblue" d="M326.34,-147.083C348.96,-167.237 392.023,-201.814 436,-216.742 508.568,-241.376 596.062,-244.564 659.738,-242.498"/>
<polygon fill="midnightblue" stroke="midnightblue" points="659.885,-245.995 669.748,-242.124 659.624,-239 659.885,-245.995"/>
</g>
<!-- Node17&#45;&gt;Node13 -->
<g id="edge23" class="edge"><title>Node17&#45;&gt;Node13</title>
<path fill="none" stroke="midnightblue" d="M324.574,-116.611C346.429,-95.0888 390.058,-56.5023 436,-40.7423 592.995,13.113 791.225,1.18214 897.153,-11.0326"/>
<polygon fill="midnightblue" stroke="midnightblue" points="896.769,-14.5115 907.111,-12.2133 897.593,-7.56015 896.769,-14.5115"/>
</g>
<!-- Node18 -->
<g id="node18" class="node"><title>Node18</title>
<g id="a_node18"><a xlink:href="../../d9/dfc/classconfiguration_1_1_dotimes_parser.html#a26cc7f8e0a21d93091bfe8884a924450" target="_top" xlink:title="configuration.DotimesParser.fetch\lNumericExpr">
<polygon fill="white" stroke="black" points="445.5,-50.7423 445.5,-80.7423 624.5,-80.7423 624.5,-50.7423 445.5,-50.7423"/>
<text text-anchor="start" x="453.5" y="-68.7423" font-family="Helvetica,sans-Serif" font-size="10.00">configuration.DotimesParser.fetch</text>
<text text-anchor="middle" x="535" y="-57.7423" font-family="Helvetica,sans-Serif" font-size="10.00">NumericExpr</text>
</a>
</g>
</g>
<!-- Node17&#45;&gt;Node18 -->
<g id="edge24" class="edge"><title>Node17&#45;&gt;Node18</title>
<path fill="none" stroke="midnightblue" d="M361.109,-116.683C394.393,-106.877 437.984,-94.0326 473.069,-83.6953"/>
<polygon fill="midnightblue" stroke="midnightblue" points="474.12,-87.0344 482.723,-80.8508 472.141,-80.3198 474.12,-87.0344"/>
</g>
<!-- Node18&#45;&gt;Node8 -->
<g id="edge25" class="edge"><title>Node18&#45;&gt;Node8</title>
<path fill="none" stroke="midnightblue" d="M585.913,-80.8177C601.349,-85.5346 618.394,-90.7993 634,-95.7423 658.916,-103.634 686.826,-112.77 708.674,-119.989"/>
<polygon fill="midnightblue" stroke="midnightblue" points="707.66,-123.34 718.254,-123.16 709.86,-116.695 707.66,-123.34"/>
</g>
<!-- Node18&#45;&gt;Node16 -->
<g id="edge26" class="edge"><title>Node18&#45;&gt;Node16</title>
<path fill="none" stroke="midnightblue" d="M624.566,-69.9398C644.168,-70.8688 664.571,-71.8357 682.972,-72.7078"/>
<polygon fill="midnightblue" stroke="midnightblue" points="682.817,-76.2043 692.972,-73.1817 683.148,-69.2122 682.817,-76.2043"/>
</g>
</g>
</svg>
