<?xml version="1.0" encoding="UTF-8" standalone="no"?>
<!DOCTYPE svg PUBLIC "-//W3C//DTD SVG 1.1//EN"
 "http://www.w3.org/Graphics/SVG/1.1/DTD/svg11.dtd">
<!-- Generated by graphviz version 2.36.0 (20140111.2315)
 -->
<!-- Title: configuration.DotimesParser.main Pages: 1 -->
<svg width="604pt" height="99pt"
 viewBox="0.00 0.00 604.00 99.00" xmlns="http://www.w3.org/2000/svg" xmlns:xlink="http://www.w3.org/1999/xlink">
<g id="graph0" class="graph" transform="scale(1 1) rotate(0) translate(4 95)">
<title>configuration.DotimesParser.main</title>
<polygon fill="white" stroke="none" points="-4,4 -4,-95 600,-95 600,4 -4,4"/>
<!-- Node1 -->
<g id="node1" class="node"><title>Node1</title>
<polygon fill="#bfbfbf" stroke="black" points="0.5,-44.5 0.5,-63.5 179.5,-63.5 179.5,-44.5 0.5,-44.5"/>
<text text-anchor="middle" x="90" y="-51.5" font-family="Helvetica,sans-Serif" font-size="10.00">configuration.DotimesParser.main</text>
</g>
<!-- Node2 -->
<g id="node2" class="node"><title>Node2</title>
<g id="a_node2"><a xlink:href="../../d9/dfc/classconfiguration_1_1_dotimes_parser.html#a9b027980fb9768d644fcd38383b1c20f" target="_top" xlink:title="configuration.DotimesParser.\lDotimesParser">
<polygon fill="white" stroke="black" points="229.5,-61 229.5,-91 384.5,-91 384.5,-61 229.5,-61"/>
<text text-anchor="start" x="237.5" y="-79" font-family="Helvetica,sans-Serif" font-size="10.00">configuration.DotimesParser.</text>
<text text-anchor="middle" x="307" y="-68" font-family="Helvetica,sans-Serif" font-size="10.00">DotimesParser</text>
</a>
</g>
</g>
<!-- Node1&#45;&gt;Node2 -->
<g id="edge1" class="edge"><title>Node1&#45;&gt;Node2</title>
<path fill="none" stroke="midnightblue" d="M179.69,-63.0753C192.651,-64.4015 205.988,-65.7662 218.916,-67.0891"/>
<polygon fill="midnightblue" stroke="midnightblue" points="218.877,-70.6033 229.182,-68.1395 219.59,-63.6397 218.877,-70.6033"/>
</g>
<!-- Node3 -->
<g id="node3" class="node"><title>Node3</title>
<g id="a_node3"><a xlink:href="../../d9/dfc/classconfiguration_1_1_dotimes_parser.html#ad7321bee5b452f826f1ec05a89d100b6" target="_top" xlink:title="configuration.DotimesParser.parse">
<polygon fill="white" stroke="black" points="216,-22.5 216,-41.5 398,-41.5 398,-22.5 216,-22.5"/>
<text text-anchor="middle" x="307" y="-29.5" font-family="Helvetica,sans-Serif" font-size="10.00">configuration.DotimesParser.parse</text>
</a>
</g>
</g>
<!-- Node1&#45;&gt;Node3 -->
<g id="edge2" class="edge"><title>Node1&#45;&gt;Node3</title>
<path fill="none" stroke="midnightblue" d="M179.69,-44.9247C188.253,-44.0485 196.981,-43.1554 205.647,-42.2687"/>
<polygon fill="midnightblue" stroke="midnightblue" points="206.185,-45.732 215.777,-41.2321 205.473,-38.7683 206.185,-45.732"/>
</g>
<!-- Node4 -->
<g id="node4" class="node"><title>Node4</title>
<g id="a_node4"><a xlink:href="../../da/dde/classconfiguration_1_1_util.html#a535858cb955beeaeaa5e7eccfb71d4c1" target="_top" xlink:title="configuration.Util.toCommand\lQueue">
<polygon fill="white" stroke="black" points="434.5,-39 434.5,-69 595.5,-69 595.5,-39 434.5,-39"/>
<text text-anchor="start" x="442.5" y="-57" font-family="Helvetica,sans-Serif" font-size="10.00">configuration.Util.toCommand</text>
<text text-anchor="middle" x="515" y="-46" font-family="Helvetica,sans-Serif" font-size="10.00">Queue</text>
</a>
</g>
</g>
<!-- Node3&#45;&gt;Node4 -->
<g id="edge3" class="edge"><title>Node3&#45;&gt;Node4</title>
<path fill="none" stroke="midnightblue" d="M397.156,-41.5216C406.163,-42.4834 415.313,-43.4607 424.325,-44.4231"/>
<polygon fill="midnightblue" stroke="midnightblue" points="424.111,-47.92 434.426,-45.5018 424.855,-40.9596 424.111,-47.92"/>
</g>
<!-- Node5 -->
<g id="node5" class="node"><title>Node5</title>
<g id="a_node5"><a xlink:href="../../d9/d11/classconfiguration_1_1_parser.html#a0d2aa50e7ee2ec257e7030f716ab880e" target="_top" xlink:title="configuration.Parser.skip">
<polygon fill="white" stroke="black" points="448.5,-0.5 448.5,-19.5 581.5,-19.5 581.5,-0.5 448.5,-0.5"/>
<text text-anchor="middle" x="515" y="-7.5" font-family="Helvetica,sans-Serif" font-size="10.00">configuration.Parser.skip</text>
</a>
</g>
</g>
<!-- Node3&#45;&gt;Node5 -->
<g id="edge4" class="edge"><title>Node3&#45;&gt;Node5</title>
<path fill="none" stroke="midnightblue" d="M397.156,-22.4784C410.847,-21.0163 424.87,-19.5187 438.235,-18.0915"/>
<polygon fill="midnightblue" stroke="midnightblue" points="438.738,-21.5577 448.309,-17.0155 437.994,-14.5973 438.738,-21.5577"/>
</g>
</g>
</svg>
