<?xml version="1.0" encoding="UTF-8" standalone="no"?>
<!DOCTYPE svg PUBLIC "-//W3C//DTD SVG 1.1//EN"
 "http://www.w3.org/Graphics/SVG/1.1/DTD/svg11.dtd">
<!-- Generated by graphviz version 2.36.0 (20140111.2315)
 -->
<!-- Title: configuration.DotimesParser.parseDotimesIterator Pages: 1 -->
<!--zoomable 355 -->
<svg id="main" version="1.1" xmlns="http://www.w3.org/2000/svg" xmlns:xlink="http://www.w3.org/1999/xlink" xml:space="preserve" onload="init(evt)">
<style type="text/css"><![CDATA[
.edge:hover path { stroke: red; }
.edge:hover polygon { stroke: red; fill: red; }
]]></style>
<script type="text/javascript"><![CDATA[
var edges = document.getElementsByTagName('g');
if (edges && edges.length) {
  for (var i=0;i<edges.length;i++) {
    if (edges[i].id.substr(0,4)=='edge') {
      edges[i].setAttribute('class','edge');
    }
  }
}
]]></script>
        <defs>
                <circle id="rim" cx="0" cy="0" r="7"/>
                <circle id="rim2" cx="0" cy="0" r="3.5"/>
                <g id="zoomPlus">
                        <use xlink:href="#rim" fill="#404040">
                                <set attributeName="fill" to="#808080" begin="zoomplus.mouseover" end="zoomplus.mouseout"/>
                        </use>
                        <path d="M-4,0h8M0,-4v8" fill="none" stroke="white" stroke-width="1.5" pointer-events="none"/>
                </g>
                <g id="zoomMin">
                        <use xlink:href="#rim" fill="#404040">
                                <set attributeName="fill" to="#808080" begin="zoomminus.mouseover" end="zoomminus.mouseout"/>
                        </use>
                        <path d="M-4,0h8" fill="none" stroke="white" stroke-width="1.5" pointer-events="none"/>
                </g>
                <g id="dirArrow">
                        <path fill="none" stroke="white" stroke-width="1.5" d="M0,-3.0v7 M-2.5,-0.5L0,-3.0L2.5,-0.5"/>
                </g>
               <g id="resetDef">
                       <use xlink:href="#rim2" fill="#404040">
                               <set attributeName="fill" to="#808080" begin="reset.mouseover" end="reset.mouseout"/>
                       </use>
               </g>
        </defs>

<script type="text/javascript">
var viewWidth = 1024;
var viewHeight = 355;
var sectionId = 'dynsection-11';
</script>
<script xlink:href="../../svgpan.js"/>
<svg id="graph" class="graph">
<g id="viewport">
<title>configuration.DotimesParser.parseDotimesIterator</title>
<polygon fill="white" stroke="none" points="-4,4 -4,-351 1020,-351 1020,4 -4,4"/>
<!-- Node1 -->
<g id="node1" class="node"><title>Node1</title>
<polygon fill="#bfbfbf" stroke="black" points="0,-83 0,-113 182,-113 182,-83 0,-83"/>
<text text-anchor="start" x="8" y="-101" font-family="Helvetica,sans-Serif" font-size="10.00">configuration.DotimesParser.parse</text>
<text text-anchor="middle" x="91" y="-90" font-family="Helvetica,sans-Serif" font-size="10.00">DotimesIterator</text>
</g>
<!-- Node2 -->
<g id="node2" class="node"><title>Node2</title>
<g id="a_node2"><a xlink:href="../../d9/dfc/classconfiguration_1_1_dotimes_parser.html#a26cc7f8e0a21d93091bfe8884a924450" target="_top" xlink:title="configuration.DotimesParser.fetch\lNumericExpr">
<polygon fill="white" stroke="black" points="218.5,-168 218.5,-198 397.5,-198 397.5,-168 218.5,-168"/>
<text text-anchor="start" x="226.5" y="-186" font-family="Helvetica,sans-Serif" font-size="10.00">configuration.DotimesParser.fetch</text>
<text text-anchor="middle" x="308" y="-175" font-family="Helvetica,sans-Serif" font-size="10.00">NumericExpr</text>
</a>
</g>
</g>
<!-- Node1&#45;&gt;Node2 -->
<g id="edge1" class="edge"><title>Node1&#45;&gt;Node2</title>
<path fill="none" stroke="midnightblue" d="M127.435,-113.027C152.608,-123.603 187.261,-137.963 218,-150 230.108,-154.741 243.207,-159.695 255.537,-164.28"/>
<polygon fill="midnightblue" stroke="midnightblue" points="254.632,-167.677 265.226,-167.866 257.063,-161.112 254.632,-167.677"/>
</g>
<!-- Node8 -->
<g id="node8" class="node"><title>Node8</title>
<g id="a_node8"><a xlink:href="../../d9/d11/classconfiguration_1_1_parser.html#a061c6e2e973a9e7f531931f61f45448b" target="_top" xlink:title="configuration.Parser.isVariable">
<polygon fill="white" stroke="black" points="657,-125.5 657,-144.5 817,-144.5 817,-125.5 657,-125.5"/>
<text text-anchor="middle" x="737" y="-132.5" font-family="Helvetica,sans-Serif" font-size="10.00">configuration.Parser.isVariable</text>
</a>
</g>
</g>
<!-- Node1&#45;&gt;Node8 -->
<g id="edge13" class="edge"><title>Node1&#45;&gt;Node8</title>
<path fill="none" stroke="midnightblue" d="M182.011,-112.858C194.084,-114.474 206.325,-115.92 218,-117 368.017,-130.871 543.37,-134.298 646.754,-135.008"/>
<polygon fill="midnightblue" stroke="midnightblue" points="646.817,-138.509 656.839,-135.07 646.861,-131.509 646.817,-138.509"/>
</g>
<!-- Node12 -->
<g id="node12" class="node"><title>Node12</title>
<g id="a_node12"><a xlink:href="../../d9/d11/classconfiguration_1_1_parser.html#a2d882145164d4ce98e9ac91b6000c2ab" target="_top" xlink:title="configuration.Parser.isListEnd">
<polygon fill="white" stroke="black" points="230,-88.5 230,-107.5 386,-107.5 386,-88.5 230,-88.5"/>
<text text-anchor="middle" x="308" y="-95.5" font-family="Helvetica,sans-Serif" font-size="10.00">configuration.Parser.isListEnd</text>
</a>
</g>
</g>
<!-- Node1&#45;&gt;Node12 -->
<g id="edge11" class="edge"><title>Node1&#45;&gt;Node12</title>
<path fill="none" stroke="midnightblue" d="M182.245,-98C194.634,-98 207.338,-98 219.673,-98"/>
<polygon fill="midnightblue" stroke="midnightblue" points="219.934,-101.5 229.934,-98 219.934,-94.5001 219.934,-101.5"/>
</g>
<!-- Node13 -->
<g id="node13" class="node"><title>Node13</title>
<g id="a_node13"><a xlink:href="../../d9/d11/classconfiguration_1_1_parser.html#a21cf49f5bc55db161bc1ac86153035a1" target="_top" xlink:title="configuration.Parser.isList\lStart">
<polygon fill="white" stroke="black" points="239,-39 239,-69 377,-69 377,-39 239,-39"/>
<text text-anchor="start" x="247" y="-57" font-family="Helvetica,sans-Serif" font-size="10.00">configuration.Parser.isList</text>
<text text-anchor="middle" x="308" y="-46" font-family="Helvetica,sans-Serif" font-size="10.00">Start</text>
</a>
</g>
</g>
<!-- Node1&#45;&gt;Node13 -->
<g id="edge12" class="edge"><title>Node1&#45;&gt;Node13</title>
<path fill="none" stroke="midnightblue" d="M165.389,-82.9808C185.775,-78.8088 207.986,-74.2633 228.644,-70.0356"/>
<polygon fill="midnightblue" stroke="midnightblue" points="229.551,-73.4227 238.646,-67.9887 228.147,-66.5648 229.551,-73.4227"/>
</g>
<!-- Node14 -->
<g id="node14" class="node"><title>Node14</title>
<g id="a_node14"><a xlink:href="../../d9/d11/classconfiguration_1_1_parser.html#a0d2aa50e7ee2ec257e7030f716ab880e" target="_top" xlink:title="configuration.Parser.skip">
<polygon fill="white" stroke="black" points="241.5,-0.5 241.5,-19.5 374.5,-19.5 374.5,-0.5 241.5,-0.5"/>
<text text-anchor="middle" x="308" y="-7.5" font-family="Helvetica,sans-Serif" font-size="10.00">configuration.Parser.skip</text>
</a>
</g>
</g>
<!-- Node1&#45;&gt;Node14 -->
<g id="edge14" class="edge"><title>Node1&#45;&gt;Node14</title>
<path fill="none" stroke="midnightblue" d="M115.233,-82.9351C139.845,-67.592 180.284,-44.109 218,-30 226.191,-26.9361 234.988,-24.2634 243.751,-21.9557"/>
<polygon fill="midnightblue" stroke="midnightblue" points="244.737,-25.3172 253.594,-19.504 243.045,-18.5247 244.737,-25.3172"/>
</g>
<!-- Node3 -->
<g id="node3" class="node"><title>Node3</title>
<g id="a_node3"><a xlink:href="../../d9/d11/classconfiguration_1_1_parser.html#ae0480f44c9defa614fb470ab154fa60b" target="_top" xlink:title="configuration.Parser.buildTree">
<polygon fill="white" stroke="black" points="434,-213.5 434,-232.5 590,-232.5 590,-213.5 434,-213.5"/>
<text text-anchor="middle" x="512" y="-220.5" font-family="Helvetica,sans-Serif" font-size="10.00">configuration.Parser.buildTree</text>
</a>
</g>
</g>
<!-- Node2&#45;&gt;Node3 -->
<g id="edge2" class="edge"><title>Node2&#45;&gt;Node3</title>
<path fill="none" stroke="midnightblue" d="M384.792,-198.008C407.407,-202.486 431.823,-207.321 453.098,-211.534"/>
<polygon fill="midnightblue" stroke="midnightblue" points="452.461,-214.976 462.951,-213.485 453.821,-208.109 452.461,-214.976"/>
</g>
<!-- Node11 -->
<g id="node11" class="node"><title>Node11</title>
<g id="a_node11"><a xlink:href="../../d8/d4f/interface_tree_1_1_node.html#a83d55b41499cfcfd3607420eed42507c" target="_top" xlink:title="Tree.Node.getValue">
<polygon fill="white" stroke="black" points="457,-173.5 457,-192.5 567,-192.5 567,-173.5 457,-173.5"/>
<text text-anchor="middle" x="512" y="-180.5" font-family="Helvetica,sans-Serif" font-size="10.00">Tree.Node.getValue</text>
</a>
</g>
</g>
<!-- Node2&#45;&gt;Node11 -->
<g id="edge10" class="edge"><title>Node2&#45;&gt;Node11</title>
<path fill="none" stroke="midnightblue" d="M397.6,-183C414.122,-183 431.094,-183 446.71,-183"/>
<polygon fill="midnightblue" stroke="midnightblue" points="446.758,-186.5 456.758,-183 446.758,-179.5 446.758,-186.5"/>
</g>
<!-- Node4 -->
<g id="node4" class="node"><title>Node4</title>
<g id="a_node4"><a xlink:href="../../d9/d11/classconfiguration_1_1_parser.html#a6a8ca49b46db578a3d9e84b0c4ce2f75" target="_top" xlink:title="configuration.Parser.isCommand">
<polygon fill="white" stroke="black" points="651,-327.5 651,-346.5 823,-346.5 823,-327.5 651,-327.5"/>
<text text-anchor="middle" x="737" y="-334.5" font-family="Helvetica,sans-Serif" font-size="10.00">configuration.Parser.isCommand</text>
</a>
</g>
</g>
<!-- Node3&#45;&gt;Node4 -->
<g id="edge3" class="edge"><title>Node3&#45;&gt;Node4</title>
<path fill="none" stroke="midnightblue" d="M521.205,-232.72C538.408,-252.388 580.445,-296.828 626,-318 631.348,-320.485 636.979,-322.649 642.749,-324.531"/>
<polygon fill="midnightblue" stroke="midnightblue" points="641.986,-327.955 652.568,-327.44 643.975,-321.243 641.986,-327.955"/>
</g>
<!-- Node5 -->
<g id="node5" class="node"><title>Node5</title>
<g id="a_node5"><a xlink:href="../../da/dde/classconfiguration_1_1_util.html#a55c271426926996186d1cde227ae7e23" target="_top" xlink:title="configuration.Util.findCommandKey">
<polygon fill="white" stroke="black" points="644.5,-289.5 644.5,-308.5 829.5,-308.5 829.5,-289.5 644.5,-289.5"/>
<text text-anchor="middle" x="737" y="-296.5" font-family="Helvetica,sans-Serif" font-size="10.00">configuration.Util.findCommandKey</text>
</a>
</g>
</g>
<!-- Node3&#45;&gt;Node5 -->
<g id="edge4" class="edge"><title>Node3&#45;&gt;Node5</title>
<path fill="none" stroke="midnightblue" d="M528.451,-232.666C549.64,-245.476 589.281,-267.868 626,-280 634.581,-282.835 643.686,-285.268 652.839,-287.351"/>
<polygon fill="midnightblue" stroke="midnightblue" points="652.257,-290.805 662.768,-289.476 653.722,-283.96 652.257,-290.805"/>
</g>
<!-- Node7 -->
<g id="node7" class="node"><title>Node7</title>
<g id="a_node7"><a xlink:href="../../d9/d11/classconfiguration_1_1_parser.html#af0032734232f2e6043d7c8c94d86dd1f" target="_top" xlink:title="configuration.Parser.isConstant">
<polygon fill="white" stroke="black" points="654.5,-251.5 654.5,-270.5 819.5,-270.5 819.5,-251.5 654.5,-251.5"/>
<text text-anchor="middle" x="737" y="-258.5" font-family="Helvetica,sans-Serif" font-size="10.00">configuration.Parser.isConstant</text>
</a>
</g>
</g>
<!-- Node3&#45;&gt;Node7 -->
<g id="edge6" class="edge"><title>Node3&#45;&gt;Node7</title>
<path fill="none" stroke="midnightblue" d="M568.984,-232.54C599.602,-237.757 637.719,-244.253 669.804,-249.72"/>
<polygon fill="midnightblue" stroke="midnightblue" points="669.547,-253.226 679.992,-251.456 670.723,-246.326 669.547,-253.226"/>
</g>
<!-- Node3&#45;&gt;Node8 -->
<g id="edge7" class="edge"><title>Node3&#45;&gt;Node8</title>
<path fill="none" stroke="midnightblue" d="M565.951,-213.492C574.412,-210.614 582.755,-206.869 590,-202 611.839,-187.323 603.547,-168.72 626,-155 632.58,-150.979 639.767,-147.725 647.213,-145.096"/>
<polygon fill="midnightblue" stroke="midnightblue" points="648.272,-148.432 656.759,-142.089 646.169,-141.755 648.272,-148.432"/>
</g>
<!-- Node9 -->
<g id="node9" class="node"><title>Node9</title>
<g id="a_node9"><a xlink:href="../../d0/d3b/classcommands_1_1_user_made_utilities.html#ad6e90d3cccee9da7cf3df2c13fc70381" target="_top" xlink:title="commands.UserMadeUtilities.containsVars">
<polygon fill="white" stroke="black" points="626,-213.5 626,-232.5 848,-232.5 848,-213.5 626,-213.5"/>
<text text-anchor="middle" x="737" y="-220.5" font-family="Helvetica,sans-Serif" font-size="10.00">commands.UserMadeUtilities.containsVars</text>
</a>
</g>
</g>
<!-- Node3&#45;&gt;Node9 -->
<g id="edge8" class="edge"><title>Node3&#45;&gt;Node9</title>
<path fill="none" stroke="midnightblue" d="M590.056,-223C598.381,-223 606.99,-223 615.67,-223"/>
<polygon fill="midnightblue" stroke="midnightblue" points="615.881,-226.5 625.881,-223 615.881,-219.5 615.881,-226.5"/>
</g>
<!-- Node10 -->
<g id="node10" class="node"><title>Node10</title>
<g id="a_node10"><a xlink:href="../../d0/d3b/classcommands_1_1_user_made_utilities.html#afc570f31a89922ff7a42f13839888c8f" target="_top" xlink:title="commands.UserMadeUtilities.get\lFromVars">
<polygon fill="white" stroke="black" points="649,-164 649,-194 825,-194 825,-164 649,-164"/>
<text text-anchor="start" x="657" y="-182" font-family="Helvetica,sans-Serif" font-size="10.00">commands.UserMadeUtilities.get</text>
<text text-anchor="middle" x="737" y="-171" font-family="Helvetica,sans-Serif" font-size="10.00">FromVars</text>
</a>
</g>
</g>
<!-- Node3&#45;&gt;Node10 -->
<g id="edge9" class="edge"><title>Node3&#45;&gt;Node10</title>
<path fill="none" stroke="midnightblue" d="M561.388,-213.453C587.167,-208.366 619.659,-201.955 649.602,-196.047"/>
<polygon fill="midnightblue" stroke="midnightblue" points="650.513,-199.435 659.646,-194.065 649.158,-192.567 650.513,-199.435"/>
</g>
<!-- Node6 -->
<g id="node6" class="node"><title>Node6</title>
<g id="a_node6"><a xlink:href="../../da/dde/classconfiguration_1_1_util.html#a163b0098613bf2f7becf27b131af3934" target="_top" xlink:title="configuration.Util.match">
<polygon fill="white" stroke="black" points="884.5,-289.5 884.5,-308.5 1015.5,-308.5 1015.5,-289.5 884.5,-289.5"/>
<text text-anchor="middle" x="950" y="-296.5" font-family="Helvetica,sans-Serif" font-size="10.00">configuration.Util.match</text>
</a>
</g>
</g>
<!-- Node5&#45;&gt;Node6 -->
<g id="edge5" class="edge"><title>Node5&#45;&gt;Node6</title>
<path fill="none" stroke="midnightblue" d="M829.627,-299C844.483,-299 859.713,-299 874.11,-299"/>
<polygon fill="midnightblue" stroke="midnightblue" points="874.429,-302.5 884.429,-299 874.429,-295.5 874.429,-302.5"/>
</g>
</g>
</svg>
        <g id="navigator" transform="translate(0 0)" fill="#404254">
                <rect fill="#f2f5e9" fill-opacity="0.5" stroke="#606060" stroke-width=".5" x="0" y="0" width="60" height="60"/>
                <use id="zoomplus" xlink:href="#zoomPlus" x="17" y="9" onmousedown="handleZoom(evt,'in')"/>
                <use id="zoomminus" xlink:href="#zoomMin" x="42" y="9" onmousedown="handleZoom(evt,'out')"/>
                <use id="reset" xlink:href="#resetDef" x="30" y="36" onmousedown="handleReset()"/>
                <g id="arrowUp" xlink:href="#dirArrow" transform="translate(30 24)" onmousedown="handlePan(0,-1)">
                  <use xlink:href="#rim" fill="#404040">
                        <set attributeName="fill" to="#808080" begin="arrowUp.mouseover" end="arrowUp.mouseout"/>
                  </use>
                  <path fill="none" stroke="white" stroke-width="1.5" d="M0,-3.0v7 M-2.5,-0.5L0,-3.0L2.5,-0.5"/>
                </g>
                <g id="arrowRight" xlink:href="#dirArrow" transform="rotate(90) translate(36 -43)" onmousedown="handlePan(1,0)">
                  <use xlink:href="#rim" fill="#404040">
                        <set attributeName="fill" to="#808080" begin="arrowRight.mouseover" end="arrowRight.mouseout"/>
                  </use>
                  <path fill="none" stroke="white" stroke-width="1.5" d="M0,-3.0v7 M-2.5,-0.5L0,-3.0L2.5,-0.5"/>
                </g>
                <g id="arrowDown" xlink:href="#dirArrow" transform="rotate(180) translate(-30 -48)" onmousedown="handlePan(0,1)">
                  <use xlink:href="#rim" fill="#404040">
                        <set attributeName="fill" to="#808080" begin="arrowDown.mouseover" end="arrowDown.mouseout"/>
                  </use>
                  <path fill="none" stroke="white" stroke-width="1.5" d="M0,-3.0v7 M-2.5,-0.5L0,-3.0L2.5,-0.5"/>
                </g>
                <g id="arrowLeft" xlink:href="#dirArrow" transform="rotate(270) translate(-36 17)" onmousedown="handlePan(-1,0)">
                  <use xlink:href="#rim" fill="#404040">
                        <set attributeName="fill" to="#808080" begin="arrowLeft.mouseover" end="arrowLeft.mouseout"/>
                  </use>
                  <path fill="none" stroke="white" stroke-width="1.5" d="M0,-3.0v7 M-2.5,-0.5L0,-3.0L2.5,-0.5"/>
                </g>
        </g>
        <svg viewBox="0 0 15 15" width="100%" height="30px" preserveAspectRatio="xMaxYMin meet">
         <g id="arrow_out" transform="scale(0.3 0.3)">
          <a xlink:href="classconfiguration_1_1_dotimes_parser_a63d34c400b9b5715b4a2f9a5d0107e62_cgraph_org.svg" target="_base">
           <rect id="button" ry="5" rx="5" y="6" x="6" height="38" width="38"
                fill="#f2f5e9" fill-opacity="0.5" stroke="#606060" stroke-width="1.0"/>
           <path id="arrow"
             d="M 11.500037,31.436501 C 11.940474,20.09759 22.043105,11.32322 32.158766,21.979434 L 37.068811,17.246167 C 37.068811,17.246167 37.088388,32 37.088388,32 L 22.160133,31.978069 C 22.160133,31.978069 26.997745,27.140456 26.997745,27.140456 C 18.528582,18.264221 13.291696,25.230495 11.500037,31.436501 z"
             style="fill:#404040;"/>
          </a>
         </g>
        </svg>
</svg>
