<?xml version="1.0" encoding="UTF-8" standalone="no"?>
<!DOCTYPE svg PUBLIC "-//W3C//DTD SVG 1.1//EN"
 "http://www.w3.org/Graphics/SVG/1.1/DTD/svg11.dtd">
<!-- Generated by graphviz version 2.36.0 (20140111.2315)
 -->
<!-- Title: configuration.DotimesParser.parseCommands Pages: 1 -->
<svg width="1042pt" height="248pt"
 viewBox="0.00 0.00 1042.00 248.00" xmlns="http://www.w3.org/2000/svg" xmlns:xlink="http://www.w3.org/1999/xlink">
<g id="graph0" class="graph" transform="scale(1 1) rotate(0) translate(4 244)">
<title>configuration.DotimesParser.parseCommands</title>
<polygon fill="white" stroke="none" points="-4,4 -4,-244 1038,-244 1038,4 -4,4"/>
<!-- Node1 -->
<g id="node1" class="node"><title>Node1</title>
<polygon fill="#bfbfbf" stroke="black" points="0,-139 0,-169 182,-169 182,-139 0,-139"/>
<text text-anchor="start" x="8" y="-157" font-family="Helvetica,sans-Serif" font-size="10.00">configuration.DotimesParser.parse</text>
<text text-anchor="middle" x="91" y="-146" font-family="Helvetica,sans-Serif" font-size="10.00">Commands</text>
</g>
<!-- Node2 -->
<g id="node2" class="node"><title>Node2</title>
<g id="a_node2"><a xlink:href="../../d9/d11/classconfiguration_1_1_parser.html#a07345acba63db50ec60293f2b38e54a6" target="_top" xlink:title="configuration.Parser.isEnd">
<polygon fill="white" stroke="black" points="460,-220.5 460,-239.5 600,-239.5 600,-220.5 460,-220.5"/>
<text text-anchor="middle" x="530" y="-227.5" font-family="Helvetica,sans-Serif" font-size="10.00">configuration.Parser.isEnd</text>
</a>
</g>
</g>
<!-- Node1&#45;&gt;Node2 -->
<g id="edge1" class="edge"><title>Node1&#45;&gt;Node2</title>
<path fill="none" stroke="midnightblue" d="M132.605,-169.082C157.038,-177.603 188.94,-187.766 218,-194 295.778,-210.685 386.27,-220.059 449.519,-225.027"/>
<polygon fill="midnightblue" stroke="midnightblue" points="449.584,-228.543 459.822,-225.817 450.119,-221.563 449.584,-228.543"/>
</g>
<!-- Node3 -->
<g id="node3" class="node"><title>Node3</title>
<g id="a_node3"><a xlink:href="../../d9/d11/classconfiguration_1_1_parser.html#a2d882145164d4ce98e9ac91b6000c2ab" target="_top" xlink:title="configuration.Parser.isListEnd">
<polygon fill="white" stroke="black" points="452,-182.5 452,-201.5 608,-201.5 608,-182.5 452,-182.5"/>
<text text-anchor="middle" x="530" y="-189.5" font-family="Helvetica,sans-Serif" font-size="10.00">configuration.Parser.isListEnd</text>
</a>
</g>
</g>
<!-- Node1&#45;&gt;Node3 -->
<g id="edge2" class="edge"><title>Node1&#45;&gt;Node3</title>
<path fill="none" stroke="midnightblue" d="M182.039,-168.568C194.108,-170.23 206.34,-171.767 218,-173 293.289,-180.961 379.211,-185.896 441.637,-188.734"/>
<polygon fill="midnightblue" stroke="midnightblue" points="441.692,-192.24 451.838,-189.189 442.004,-185.247 441.692,-192.24"/>
</g>
<!-- Node4 -->
<g id="node4" class="node"><title>Node4</title>
<g id="a_node4"><a xlink:href="../../d9/d11/classconfiguration_1_1_parser.html#a21cf49f5bc55db161bc1ac86153035a1" target="_top" xlink:title="configuration.Parser.isList\lStart">
<polygon fill="white" stroke="black" points="248,-57 248,-87 386,-87 386,-57 248,-57"/>
<text text-anchor="start" x="256" y="-75" font-family="Helvetica,sans-Serif" font-size="10.00">configuration.Parser.isList</text>
<text text-anchor="middle" x="317" y="-64" font-family="Helvetica,sans-Serif" font-size="10.00">Start</text>
</a>
</g>
</g>
<!-- Node1&#45;&gt;Node4 -->
<g id="edge3" class="edge"><title>Node1&#45;&gt;Node4</title>
<path fill="none" stroke="midnightblue" d="M125.887,-138.995C151.06,-128.099 186.368,-113.34 218,-102 229.45,-97.8952 241.773,-93.8434 253.686,-90.1091"/>
<polygon fill="midnightblue" stroke="midnightblue" points="255.049,-93.3512 263.568,-87.0527 252.98,-86.6637 255.049,-93.3512"/>
</g>
<!-- Node5 -->
<g id="node5" class="node"><title>Node5</title>
<g id="a_node5"><a xlink:href="../../d9/dfc/classconfiguration_1_1_dotimes_parser.html#aff41ee5ce2eeff82f7586bd1cf6a91c8" target="_top" xlink:title="configuration.DotimesParser.parseFor">
<polygon fill="white" stroke="black" points="218.5,-144.5 218.5,-163.5 415.5,-163.5 415.5,-144.5 218.5,-144.5"/>
<text text-anchor="middle" x="317" y="-151.5" font-family="Helvetica,sans-Serif" font-size="10.00">configuration.DotimesParser.parseFor</text>
</a>
</g>
</g>
<!-- Node1&#45;&gt;Node5 -->
<g id="edge4" class="edge"><title>Node1&#45;&gt;Node5</title>
<path fill="none" stroke="midnightblue" d="M182.141,-154C190.704,-154 199.445,-154 208.152,-154"/>
<polygon fill="midnightblue" stroke="midnightblue" points="208.345,-157.5 218.345,-154 208.345,-150.5 208.345,-157.5"/>
</g>
<!-- Node15 -->
<g id="node15" class="node"><title>Node15</title>
<g id="a_node15"><a xlink:href="../../d9/d11/classconfiguration_1_1_parser.html#a0d2aa50e7ee2ec257e7030f716ab880e" target="_top" xlink:title="configuration.Parser.skip">
<polygon fill="white" stroke="black" points="463.5,-68.5 463.5,-87.5 596.5,-87.5 596.5,-68.5 463.5,-68.5"/>
<text text-anchor="middle" x="530" y="-75.5" font-family="Helvetica,sans-Serif" font-size="10.00">configuration.Parser.skip</text>
</a>
</g>
</g>
<!-- Node1&#45;&gt;Node15 -->
<g id="edge17" class="edge"><title>Node1&#45;&gt;Node15</title>
<path fill="none" stroke="midnightblue" d="M178.337,-138.985C262.489,-124.35 388.534,-102.429 464.368,-89.2404"/>
<polygon fill="midnightblue" stroke="midnightblue" points="465.018,-92.6799 474.27,-87.5182 463.818,-85.7835 465.018,-92.6799"/>
</g>
<!-- Node5&#45;&gt;Node2 -->
<g id="edge5" class="edge"><title>Node5&#45;&gt;Node2</title>
<path fill="none" stroke="midnightblue" d="M337.594,-163.513C363.364,-175.748 410.272,-197.077 452,-211 459.439,-213.482 467.379,-215.8 475.229,-217.904"/>
<polygon fill="midnightblue" stroke="midnightblue" points="474.522,-221.337 485.079,-220.452 476.274,-214.559 474.522,-221.337"/>
</g>
<!-- Node5&#45;&gt;Node3 -->
<g id="edge6" class="edge"><title>Node5&#45;&gt;Node3</title>
<path fill="none" stroke="midnightblue" d="M370.972,-163.54C399.817,-168.735 435.695,-175.196 465.972,-180.649"/>
<polygon fill="midnightblue" stroke="midnightblue" points="465.544,-184.128 476.006,-182.456 466.785,-177.239 465.544,-184.128"/>
</g>
<!-- Node6 -->
<g id="node6" class="node"><title>Node6</title>
<g id="a_node6"><a xlink:href="../../d9/d11/classconfiguration_1_1_parser.html#ae0480f44c9defa614fb470ab154fa60b" target="_top" xlink:title="configuration.Parser.buildTree">
<polygon fill="white" stroke="black" points="452,-106.5 452,-125.5 608,-125.5 608,-106.5 452,-106.5"/>
<text text-anchor="middle" x="530" y="-113.5" font-family="Helvetica,sans-Serif" font-size="10.00">configuration.Parser.buildTree</text>
</a>
</g>
</g>
<!-- Node5&#45;&gt;Node6 -->
<g id="edge7" class="edge"><title>Node5&#45;&gt;Node6</title>
<path fill="none" stroke="midnightblue" d="M370.972,-144.46C399.817,-139.265 435.695,-132.804 465.972,-127.351"/>
<polygon fill="midnightblue" stroke="midnightblue" points="466.785,-130.761 476.006,-125.544 465.544,-123.872 466.785,-130.761"/>
</g>
<!-- Node14 -->
<g id="node14" class="node"><title>Node14</title>
<g id="a_node14"><a xlink:href="../../d8/d4f/interface_tree_1_1_node.html#a83d55b41499cfcfd3607420eed42507c" target="_top" xlink:title="Tree.Node.getValue">
<polygon fill="white" stroke="black" points="475,-144.5 475,-163.5 585,-163.5 585,-144.5 475,-144.5"/>
<text text-anchor="middle" x="530" y="-151.5" font-family="Helvetica,sans-Serif" font-size="10.00">Tree.Node.getValue</text>
</a>
</g>
</g>
<!-- Node5&#45;&gt;Node14 -->
<g id="edge15" class="edge"><title>Node5&#45;&gt;Node14</title>
<path fill="none" stroke="midnightblue" d="M415.779,-154C432.333,-154 449.142,-154 464.564,-154"/>
<polygon fill="midnightblue" stroke="midnightblue" points="464.999,-157.5 474.999,-154 464.999,-150.5 464.999,-157.5"/>
</g>
<!-- Node5&#45;&gt;Node15 -->
<g id="edge16" class="edge"><title>Node5&#45;&gt;Node15</title>
<path fill="none" stroke="midnightblue" d="M377.548,-144.469C390.678,-141.005 404.183,-136.319 416,-130 435.14,-119.765 432.869,-107.252 452,-97 456.251,-94.7217 460.781,-92.7112 465.434,-90.9378"/>
<polygon fill="midnightblue" stroke="midnightblue" points="466.782,-94.1757 475.105,-87.6209 464.511,-87.5543 466.782,-94.1757"/>
</g>
<!-- Node7 -->
<g id="node7" class="node"><title>Node7</title>
<g id="a_node7"><a xlink:href="../../d9/d11/classconfiguration_1_1_parser.html#a6a8ca49b46db578a3d9e84b0c4ce2f75" target="_top" xlink:title="configuration.Parser.isCommand">
<polygon fill="white" stroke="black" points="669,-201.5 669,-220.5 841,-220.5 841,-201.5 669,-201.5"/>
<text text-anchor="middle" x="755" y="-208.5" font-family="Helvetica,sans-Serif" font-size="10.00">configuration.Parser.isCommand</text>
</a>
</g>
</g>
<!-- Node6&#45;&gt;Node7 -->
<g id="edge8" class="edge"><title>Node6&#45;&gt;Node7</title>
<path fill="none" stroke="midnightblue" d="M590.277,-125.591C596.581,-128.051 602.639,-131.135 608,-135 632.304,-152.524 619.09,-175.348 644,-192 648.851,-195.243 654.083,-197.986 659.538,-200.301"/>
<polygon fill="midnightblue" stroke="midnightblue" points="658.311,-203.579 668.903,-203.808 660.766,-197.024 658.311,-203.579"/>
</g>
<!-- Node8 -->
<g id="node8" class="node"><title>Node8</title>
<g id="a_node8"><a xlink:href="../../da/dde/classconfiguration_1_1_util.html#a55c271426926996186d1cde227ae7e23" target="_top" xlink:title="configuration.Util.findCommandKey">
<polygon fill="white" stroke="black" points="662.5,-163.5 662.5,-182.5 847.5,-182.5 847.5,-163.5 662.5,-163.5"/>
<text text-anchor="middle" x="755" y="-170.5" font-family="Helvetica,sans-Serif" font-size="10.00">configuration.Util.findCommandKey</text>
</a>
</g>
</g>
<!-- Node6&#45;&gt;Node8 -->
<g id="edge9" class="edge"><title>Node6&#45;&gt;Node8</title>
<path fill="none" stroke="midnightblue" d="M577.572,-125.553C587.744,-128.174 598.349,-131.326 608,-135 624.908,-141.437 626.875,-148.166 644,-154 652.264,-156.815 661.025,-159.228 669.853,-161.293"/>
<polygon fill="midnightblue" stroke="midnightblue" points="669.308,-164.756 679.826,-163.479 670.807,-157.919 669.308,-164.756"/>
</g>
<!-- Node10 -->
<g id="node10" class="node"><title>Node10</title>
<g id="a_node10"><a xlink:href="../../d9/d11/classconfiguration_1_1_parser.html#af0032734232f2e6043d7c8c94d86dd1f" target="_top" xlink:title="configuration.Parser.isConstant">
<polygon fill="white" stroke="black" points="672.5,-125.5 672.5,-144.5 837.5,-144.5 837.5,-125.5 672.5,-125.5"/>
<text text-anchor="middle" x="755" y="-132.5" font-family="Helvetica,sans-Serif" font-size="10.00">configuration.Parser.isConstant</text>
</a>
</g>
</g>
<!-- Node6&#45;&gt;Node10 -->
<g id="edge11" class="edge"><title>Node6&#45;&gt;Node10</title>
<path fill="none" stroke="midnightblue" d="M608.056,-122.565C625.502,-124.052 644.195,-125.644 662.182,-127.177"/>
<polygon fill="midnightblue" stroke="midnightblue" points="662.121,-130.684 672.382,-128.046 662.715,-123.71 662.121,-130.684"/>
</g>
<!-- Node11 -->
<g id="node11" class="node"><title>Node11</title>
<g id="a_node11"><a xlink:href="../../d9/d11/classconfiguration_1_1_parser.html#a061c6e2e973a9e7f531931f61f45448b" target="_top" xlink:title="configuration.Parser.isVariable">
<polygon fill="white" stroke="black" points="675,-87.5 675,-106.5 835,-106.5 835,-87.5 675,-87.5"/>
<text text-anchor="middle" x="755" y="-94.5" font-family="Helvetica,sans-Serif" font-size="10.00">configuration.Parser.isVariable</text>
</a>
</g>
</g>
<!-- Node6&#45;&gt;Node11 -->
<g id="edge12" class="edge"><title>Node6&#45;&gt;Node11</title>
<path fill="none" stroke="midnightblue" d="M608.056,-109.435C626.304,-107.88 645.917,-106.209 664.66,-104.612"/>
<polygon fill="midnightblue" stroke="midnightblue" points="665.001,-108.096 674.668,-103.759 664.407,-101.121 665.001,-108.096"/>
</g>
<!-- Node12 -->
<g id="node12" class="node"><title>Node12</title>
<g id="a_node12"><a xlink:href="../../d0/d3b/classcommands_1_1_user_made_utilities.html#ad6e90d3cccee9da7cf3df2c13fc70381" target="_top" xlink:title="commands.UserMadeUtilities.containsVars">
<polygon fill="white" stroke="black" points="644,-49.5 644,-68.5 866,-68.5 866,-49.5 644,-49.5"/>
<text text-anchor="middle" x="755" y="-56.5" font-family="Helvetica,sans-Serif" font-size="10.00">commands.UserMadeUtilities.containsVars</text>
</a>
</g>
</g>
<!-- Node6&#45;&gt;Node12 -->
<g id="edge13" class="edge"><title>Node6&#45;&gt;Node12</title>
<path fill="none" stroke="midnightblue" d="M577.572,-106.447C587.744,-103.826 598.349,-100.674 608,-97 624.908,-90.563 626.875,-83.8339 644,-78 652.264,-75.1849 661.025,-72.7722 669.853,-70.7074"/>
<polygon fill="midnightblue" stroke="midnightblue" points="670.807,-74.0814 679.826,-68.5212 669.308,-67.2438 670.807,-74.0814"/>
</g>
<!-- Node13 -->
<g id="node13" class="node"><title>Node13</title>
<g id="a_node13"><a xlink:href="../../d0/d3b/classcommands_1_1_user_made_utilities.html#afc570f31a89922ff7a42f13839888c8f" target="_top" xlink:title="commands.UserMadeUtilities.get\lFromVars">
<polygon fill="white" stroke="black" points="667,-0 667,-30 843,-30 843,-0 667,-0"/>
<text text-anchor="start" x="675" y="-18" font-family="Helvetica,sans-Serif" font-size="10.00">commands.UserMadeUtilities.get</text>
<text text-anchor="middle" x="755" y="-7" font-family="Helvetica,sans-Serif" font-size="10.00">FromVars</text>
</a>
</g>
</g>
<!-- Node6&#45;&gt;Node13 -->
<g id="edge14" class="edge"><title>Node6&#45;&gt;Node13</title>
<path fill="none" stroke="midnightblue" d="M590.277,-106.409C596.581,-103.949 602.639,-100.865 608,-97 632.304,-79.476 619.535,-57.2991 644,-40 648.239,-37.0028 652.779,-34.3582 657.513,-32.0254"/>
<polygon fill="midnightblue" stroke="midnightblue" points="659.093,-35.1538 666.827,-27.9128 656.266,-28.7503 659.093,-35.1538"/>
</g>
<!-- Node9 -->
<g id="node9" class="node"><title>Node9</title>
<g id="a_node9"><a xlink:href="../../da/dde/classconfiguration_1_1_util.html#a163b0098613bf2f7becf27b131af3934" target="_top" xlink:title="configuration.Util.match">
<polygon fill="white" stroke="black" points="902.5,-163.5 902.5,-182.5 1033.5,-182.5 1033.5,-163.5 902.5,-163.5"/>
<text text-anchor="middle" x="968" y="-170.5" font-family="Helvetica,sans-Serif" font-size="10.00">configuration.Util.match</text>
</a>
</g>
</g>
<!-- Node8&#45;&gt;Node9 -->
<g id="edge10" class="edge"><title>Node8&#45;&gt;Node9</title>
<path fill="none" stroke="midnightblue" d="M847.627,-173C862.483,-173 877.713,-173 892.11,-173"/>
<polygon fill="midnightblue" stroke="midnightblue" points="892.429,-176.5 902.429,-173 892.429,-169.5 892.429,-176.5"/>
</g>
</g>
</svg>
