<?xml version="1.0" encoding="UTF-8" standalone="no"?>
<!DOCTYPE svg PUBLIC "-//W3C//DTD SVG 1.1//EN"
 "http://www.w3.org/Graphics/SVG/1.1/DTD/svg11.dtd">
<!-- Generated by graphviz version 2.36.0 (20140111.2315)
 -->
<!-- Title: configuration.Util.toCommandQueue Pages: 1 -->
<svg width="764pt" height="256pt"
 viewBox="0.00 0.00 764.00 256.00" xmlns="http://www.w3.org/2000/svg" xmlns:xlink="http://www.w3.org/1999/xlink">
<g id="graph0" class="graph" transform="scale(1 1) rotate(0) translate(4 252)">
<title>configuration.Util.toCommandQueue</title>
<polygon fill="white" stroke="none" points="-4,4 -4,-252 760,-252 760,4 -4,4"/>
<!-- Node1 -->
<g id="node1" class="node"><title>Node1</title>
<polygon fill="#bfbfbf" stroke="black" points="0.5,-109 0.5,-139 161.5,-139 161.5,-109 0.5,-109"/>
<text text-anchor="start" x="8.5" y="-127" font-family="Helvetica,sans-Serif" font-size="10.00">configuration.Util.toCommand</text>
<text text-anchor="middle" x="81" y="-116" font-family="Helvetica,sans-Serif" font-size="10.00">Queue</text>
</g>
<!-- Node2 -->
<g id="node2" class="node"><title>Node2</title>
<g id="a_node2"><a xlink:href="../../d7/d56/classconfiguration_1_1_ifelse_parser.html#a608612d46f8239cbf096bbcffd0d4119" target="_top" xlink:title="configuration.IfelseParser.parse">
<polygon fill="white" stroke="black" points="206,-228.5 206,-247.5 372,-247.5 372,-228.5 206,-228.5"/>
<text text-anchor="middle" x="289" y="-235.5" font-family="Helvetica,sans-Serif" font-size="10.00">configuration.IfelseParser.parse</text>
</a>
</g>
</g>
<!-- Node1&#45;&gt;Node2 -->
<g id="edge1" class="edge"><title>Node1&#45;&gt;Node2</title>
<path fill="none" stroke="midnightblue" d="M102.811,-146.412C124.467,-168.335 160.417,-200.978 198,-219 206.064,-222.867 214.906,-225.951 223.801,-228.41"/>
<polygon fill="midnightblue" stroke="midnightblue" points="105.241,-143.89 95.7673,-139.146 100.214,-148.762 105.241,-143.89"/>
</g>
<!-- Node3 -->
<g id="node3" class="node"><title>Node3</title>
<g id="a_node3"><a xlink:href="../../dc/dd1/classconfiguration_1_1_if_parser.html#a87fb238c550985341209cfebebe0a779" target="_top" xlink:title="configuration.IfParser.parse">
<polygon fill="white" stroke="black" points="216,-190.5 216,-209.5 362,-209.5 362,-190.5 216,-190.5"/>
<text text-anchor="middle" x="289" y="-197.5" font-family="Helvetica,sans-Serif" font-size="10.00">configuration.IfParser.parse</text>
</a>
</g>
</g>
<!-- Node1&#45;&gt;Node3 -->
<g id="edge2" class="edge"><title>Node1&#45;&gt;Node3</title>
<path fill="none" stroke="midnightblue" d="M116.765,-143.924C139.312,-156.123 169.664,-171.218 198,-181 208.869,-184.752 220.743,-187.896 232.197,-190.478"/>
<polygon fill="midnightblue" stroke="midnightblue" points="118.367,-140.81 107.916,-139.068 114.999,-146.947 118.367,-140.81"/>
</g>
<!-- Node4 -->
<g id="node4" class="node"><title>Node4</title>
<g id="a_node4"><a xlink:href="../../d3/d0d/classconfiguration_1_1_repeat_parser.html#a7785a2e509d96ff2ad5504e7a781d1d2" target="_top" xlink:title="configuration.RepeatParser.parse">
<polygon fill="white" stroke="black" points="202,-152.5 202,-171.5 376,-171.5 376,-152.5 202,-152.5"/>
<text text-anchor="middle" x="289" y="-159.5" font-family="Helvetica,sans-Serif" font-size="10.00">configuration.RepeatParser.parse</text>
</a>
</g>
</g>
<!-- Node1&#45;&gt;Node4 -->
<g id="edge3" class="edge"><title>Node1&#45;&gt;Node4</title>
<path fill="none" stroke="midnightblue" d="M171.702,-140.547C193.751,-144.614 216.626,-148.834 236.195,-152.444"/>
<polygon fill="midnightblue" stroke="midnightblue" points="172.114,-137.064 161.645,-138.692 170.844,-143.948 172.114,-137.064"/>
</g>
<!-- Node5 -->
<g id="node5" class="node"><title>Node5</title>
<g id="a_node5"><a xlink:href="../../d9/dfc/classconfiguration_1_1_dotimes_parser.html#ad7321bee5b452f826f1ec05a89d100b6" target="_top" xlink:title="configuration.DotimesParser.parse">
<polygon fill="white" stroke="black" points="198,-114.5 198,-133.5 380,-133.5 380,-114.5 198,-114.5"/>
<text text-anchor="middle" x="289" y="-121.5" font-family="Helvetica,sans-Serif" font-size="10.00">configuration.DotimesParser.parse</text>
</a>
</g>
</g>
<!-- Node1&#45;&gt;Node5 -->
<g id="edge4" class="edge"><title>Node1&#45;&gt;Node5</title>
<path fill="none" stroke="midnightblue" d="M171.764,-124C180.447,-124 189.258,-124 197.944,-124"/>
<polygon fill="midnightblue" stroke="midnightblue" points="171.645,-120.5 161.645,-124 171.645,-127.5 171.645,-120.5"/>
</g>
<!-- Node6 -->
<g id="node6" class="node"><title>Node6</title>
<g id="a_node6"><a xlink:href="../../db/d22/classconfiguration_1_1_set_parser.html#aef4ad6dce7a472c79efa57ffd1647b95" target="_top" xlink:title="configuration.SetParser.parse">
<polygon fill="white" stroke="black" points="210,-76.5 210,-95.5 368,-95.5 368,-76.5 210,-76.5"/>
<text text-anchor="middle" x="289" y="-83.5" font-family="Helvetica,sans-Serif" font-size="10.00">configuration.SetParser.parse</text>
</a>
</g>
</g>
<!-- Node1&#45;&gt;Node6 -->
<g id="edge5" class="edge"><title>Node1&#45;&gt;Node6</title>
<path fill="none" stroke="midnightblue" d="M171.702,-107.453C193.751,-103.386 216.626,-99.1661 236.195,-95.5562"/>
<polygon fill="midnightblue" stroke="midnightblue" points="170.844,-104.052 161.645,-109.308 172.114,-110.936 170.844,-104.052"/>
</g>
<!-- Node7 -->
<g id="node7" class="node"><title>Node7</title>
<g id="a_node7"><a xlink:href="../../dc/d64/classconfiguration_1_1_for_parser.html#a57f9ebf60e25c370f7ca73c0862f387a" target="_top" xlink:title="configuration.ForParser.parse">
<polygon fill="white" stroke="black" points="211,-38.5 211,-57.5 367,-57.5 367,-38.5 211,-38.5"/>
<text text-anchor="middle" x="289" y="-45.5" font-family="Helvetica,sans-Serif" font-size="10.00">configuration.ForParser.parse</text>
</a>
</g>
</g>
<!-- Node1&#45;&gt;Node7 -->
<g id="edge6" class="edge"><title>Node1&#45;&gt;Node7</title>
<path fill="none" stroke="midnightblue" d="M116.765,-104.076C139.312,-91.8768 169.664,-76.7816 198,-67 208.869,-63.2482 220.743,-60.1038 232.197,-57.522"/>
<polygon fill="midnightblue" stroke="midnightblue" points="114.999,-101.053 107.916,-108.932 118.367,-107.19 114.999,-101.053"/>
</g>
<!-- Node8 -->
<g id="node8" class="node"><title>Node8</title>
<g id="a_node8"><a xlink:href="../../d0/da7/classconfiguration_1_1_basic_parser.html#ab316d3a3f9ec49ba6922087948e76901" target="_top" xlink:title="configuration.BasicParser.parse">
<polygon fill="white" stroke="black" points="205.5,-0.5 205.5,-19.5 372.5,-19.5 372.5,-0.5 205.5,-0.5"/>
<text text-anchor="middle" x="289" y="-7.5" font-family="Helvetica,sans-Serif" font-size="10.00">configuration.BasicParser.parse</text>
</a>
</g>
</g>
<!-- Node1&#45;&gt;Node8 -->
<g id="edge7" class="edge"><title>Node1&#45;&gt;Node8</title>
<path fill="none" stroke="midnightblue" d="M102.811,-101.588C124.467,-79.6648 160.417,-47.0217 198,-29 206.064,-25.1333 214.906,-22.0491 223.801,-19.5901"/>
<polygon fill="midnightblue" stroke="midnightblue" points="100.214,-99.238 95.7673,-108.854 105.241,-104.11 100.214,-99.238"/>
</g>
<!-- Node9 -->
<g id="node9" class="node"><title>Node9</title>
<g id="a_node9"><a xlink:href="../../d3/d71/classgui_1_1_user_input_box.html#a97af345e01f003fb2eab983e845422f2" target="_top" xlink:title="gui.UserInputBox.doInput">
<polygon fill="white" stroke="black" points="416.5,-0.5 416.5,-19.5 553.5,-19.5 553.5,-0.5 416.5,-0.5"/>
<text text-anchor="middle" x="485" y="-7.5" font-family="Helvetica,sans-Serif" font-size="10.00">gui.UserInputBox.doInput</text>
</a>
</g>
</g>
<!-- Node8&#45;&gt;Node9 -->
<g id="edge8" class="edge"><title>Node8&#45;&gt;Node9</title>
<path fill="none" stroke="midnightblue" d="M382.561,-10C393.991,-10 405.502,-10 416.46,-10"/>
<polygon fill="midnightblue" stroke="midnightblue" points="382.555,-6.5001 372.555,-10 382.555,-13.5001 382.555,-6.5001"/>
</g>
<!-- Node10 -->
<g id="node10" class="node"><title>Node10</title>
<g id="a_node10"><a xlink:href="../../d3/d71/classgui_1_1_user_input_box.html#a2fc8903ae3868c350deb7b6caef9527d" target="_top" xlink:title="gui.UserInputBox.UserInputBox">
<polygon fill="white" stroke="black" points="590,-0.5 590,-19.5 756,-19.5 756,-0.5 590,-0.5"/>
<text text-anchor="middle" x="673" y="-7.5" font-family="Helvetica,sans-Serif" font-size="10.00">gui.UserInputBox.UserInputBox</text>
</a>
</g>
</g>
<!-- Node9&#45;&gt;Node10 -->
<g id="edge9" class="edge"><title>Node9&#45;&gt;Node10</title>
<path fill="none" stroke="midnightblue" d="M563.7,-10C572.324,-10 581.13,-10 589.808,-10"/>
<polygon fill="midnightblue" stroke="midnightblue" points="563.676,-6.5001 553.676,-10 563.676,-13.5001 563.676,-6.5001"/>
</g>
</g>
</svg>
