<?xml version="1.0" encoding="UTF-8" standalone="no"?>
<!DOCTYPE svg PUBLIC "-//W3C//DTD SVG 1.1//EN"
 "http://www.w3.org/Graphics/SVG/1.1/DTD/svg11.dtd">
<!-- Generated by graphviz version 2.36.0 (20140111.2315)
 -->
<!-- Title: configuration.Util.findCommandKey Pages: 1 -->
<!--zoomable 503 -->
<svg id="main" version="1.1" xmlns="http://www.w3.org/2000/svg" xmlns:xlink="http://www.w3.org/1999/xlink" xml:space="preserve" onload="init(evt)">
<style type="text/css"><![CDATA[
.edge:hover path { stroke: red; }
.edge:hover polygon { stroke: red; fill: red; }
]]></style>
<script type="text/javascript"><![CDATA[
var edges = document.getElementsByTagName('g');
if (edges && edges.length) {
  for (var i=0;i<edges.length;i++) {
    if (edges[i].id.substr(0,4)=='edge') {
      edges[i].setAttribute('class','edge');
    }
  }
}
]]></script>
        <defs>
                <circle id="rim" cx="0" cy="0" r="7"/>
                <circle id="rim2" cx="0" cy="0" r="3.5"/>
                <g id="zoomPlus">
                        <use xlink:href="#rim" fill="#404040">
                                <set attributeName="fill" to="#808080" begin="zoomplus.mouseover" end="zoomplus.mouseout"/>
                        </use>
                        <path d="M-4,0h8M0,-4v8" fill="none" stroke="white" stroke-width="1.5" pointer-events="none"/>
                </g>
                <g id="zoomMin">
                        <use xlink:href="#rim" fill="#404040">
                                <set attributeName="fill" to="#808080" begin="zoomminus.mouseover" end="zoomminus.mouseout"/>
                        </use>
                        <path d="M-4,0h8" fill="none" stroke="white" stroke-width="1.5" pointer-events="none"/>
                </g>
                <g id="dirArrow">
                        <path fill="none" stroke="white" stroke-width="1.5" d="M0,-3.0v7 M-2.5,-0.5L0,-3.0L2.5,-0.5"/>
                </g>
               <g id="resetDef">
                       <use xlink:href="#rim2" fill="#404040">
                               <set attributeName="fill" to="#808080" begin="reset.mouseover" end="reset.mouseout"/>
                       </use>
               </g>
        </defs>

<script type="text/javascript">
var viewWidth = 1086;
var viewHeight = 503;
var sectionId = 'dynsection-2';
</script>
<script xlink:href="../../svgpan.js"/>
<svg id="graph" class="graph">
<g id="viewport">
<title>configuration.Util.findCommandKey</title>
<polygon fill="white" stroke="none" points="-4,4 -4,-499 1082,-499 1082,4 -4,4"/>
<!-- Node1 -->
<g id="node1" class="node"><title>Node1</title>
<polygon fill="#bfbfbf" stroke="black" points="0.5,-262.5 0.5,-281.5 185.5,-281.5 185.5,-262.5 0.5,-262.5"/>
<text text-anchor="middle" x="93" y="-269.5" font-family="Helvetica,sans-Serif" font-size="10.00">configuration.Util.findCommandKey</text>
</g>
<!-- Node2 -->
<g id="node2" class="node"><title>Node2</title>
<g id="a_node2"><a xlink:href="../../d9/d11/classconfiguration_1_1_parser.html#ae0480f44c9defa614fb470ab154fa60b" target="_top" xlink:title="configuration.Parser.buildTree">
<polygon fill="white" stroke="black" points="237,-262.5 237,-281.5 393,-281.5 393,-262.5 237,-262.5"/>
<text text-anchor="middle" x="315" y="-269.5" font-family="Helvetica,sans-Serif" font-size="10.00">configuration.Parser.buildTree</text>
</a>
</g>
</g>
<!-- Node1&#45;&gt;Node2 -->
<g id="edge1" class="edge"><title>Node1&#45;&gt;Node2</title>
<path fill="none" stroke="midnightblue" d="M195.711,-272C209.509,-272 223.482,-272 236.755,-272"/>
<polygon fill="midnightblue" stroke="midnightblue" points="195.707,-268.5 185.707,-272 195.707,-275.5 195.707,-268.5"/>
</g>
<!-- Node23 -->
<g id="node23" class="node"><title>Node23</title>
<g id="a_node23"><a xlink:href="../../d7/d56/classconfiguration_1_1_ifelse_parser.html#a6098b84b1c6e73b18db5e016da7fece1" target="_top" xlink:title="configuration.IfelseParser.isboolean">
<polygon fill="white" stroke="black" points="222.5,-385.5 222.5,-404.5 407.5,-404.5 407.5,-385.5 222.5,-385.5"/>
<text text-anchor="middle" x="315" y="-392.5" font-family="Helvetica,sans-Serif" font-size="10.00">configuration.IfelseParser.isboolean</text>
</a>
</g>
</g>
<!-- Node1&#45;&gt;Node23 -->
<g id="edge27" class="edge"><title>Node1&#45;&gt;Node23</title>
<path fill="none" stroke="midnightblue" d="M120.243,-286.672C165.844,-312.168 258.498,-363.969 296.817,-385.393"/>
<polygon fill="midnightblue" stroke="midnightblue" points="121.699,-283.477 111.263,-281.652 118.283,-289.587 121.699,-283.477"/>
</g>
<!-- Node24 -->
<g id="node24" class="node"><title>Node24</title>
<g id="a_node24"><a xlink:href="../../d0/da7/classconfiguration_1_1_basic_parser.html#ab316d3a3f9ec49ba6922087948e76901" target="_top" xlink:title="configuration.BasicParser.parse">
<polygon fill="white" stroke="black" points="231.5,-114.5 231.5,-133.5 398.5,-133.5 398.5,-114.5 231.5,-114.5"/>
<text text-anchor="middle" x="315" y="-121.5" font-family="Helvetica,sans-Serif" font-size="10.00">configuration.BasicParser.parse</text>
</a>
</g>
</g>
<!-- Node1&#45;&gt;Node24 -->
<g id="edge29" class="edge"><title>Node1&#45;&gt;Node24</title>
<path fill="none" stroke="midnightblue" d="M116.733,-256.707C162.078,-226.202 262.6,-158.578 299.798,-133.554"/>
<polygon fill="midnightblue" stroke="midnightblue" points="114.778,-253.803 108.435,-262.289 118.686,-259.612 114.778,-253.803"/>
</g>
<!-- Node3 -->
<g id="node3" class="node"><title>Node3</title>
<g id="a_node3"><a xlink:href="../../d9/d11/classconfiguration_1_1_parser.html#a041ccb70bd9dee77d512d8469c15c14f" target="_top" xlink:title="configuration.Parser.buildTree">
<polygon fill="white" stroke="black" points="465,-350.5 465,-369.5 621,-369.5 621,-350.5 465,-350.5"/>
<text text-anchor="middle" x="543" y="-357.5" font-family="Helvetica,sans-Serif" font-size="10.00">configuration.Parser.buildTree</text>
</a>
</g>
</g>
<!-- Node2&#45;&gt;Node3 -->
<g id="edge2" class="edge"><title>Node2&#45;&gt;Node3</title>
<path fill="none" stroke="midnightblue" d="M339.457,-287.121C364.431,-302.571 405.571,-326.197 444,-340 455.848,-344.256 468.846,-347.705 481.391,-350.463"/>
<polygon fill="midnightblue" stroke="midnightblue" points="341.048,-283.987 330.717,-281.637 337.327,-289.917 341.048,-283.987"/>
</g>
<!-- Node4 -->
<g id="node4" class="node"><title>Node4</title>
<g id="a_node4"><a xlink:href="../../d7/d56/classconfiguration_1_1_ifelse_parser.html#aef13959a758ccbf8dab0a3f5f94a7be0" target="_top" xlink:title="configuration.IfelseParser.evaluate\lBoolExpr">
<polygon fill="white" stroke="black" points="453,-465 453,-495 633,-495 633,-465 453,-465"/>
<text text-anchor="start" x="461" y="-483" font-family="Helvetica,sans-Serif" font-size="10.00">configuration.IfelseParser.evaluate</text>
<text text-anchor="middle" x="543" y="-472" font-family="Helvetica,sans-Serif" font-size="10.00">BoolExpr</text>
</a>
</g>
</g>
<!-- Node2&#45;&gt;Node4 -->
<g id="edge3" class="edge"><title>Node2&#45;&gt;Node4</title>
<path fill="none" stroke="midnightblue" d="M333.415,-288.47C353.319,-307.967 385.979,-342.088 408,-376 429.013,-408.361 414.402,-430.247 444,-455 448.58,-458.83 453.671,-462.084 459.058,-464.846"/>
<polygon fill="midnightblue" stroke="midnightblue" points="335.841,-285.947 326.218,-281.514 330.976,-290.98 335.841,-285.947"/>
</g>
<!-- Node7 -->
<g id="node7" class="node"><title>Node7</title>
<g id="a_node7"><a xlink:href="../../d3/d0d/classconfiguration_1_1_repeat_parser.html#ab218ee8c24e4dab18c02cd4a536d15d3" target="_top" xlink:title="configuration.RepeatParser.fetch\lNumericExpr">
<polygon fill="white" stroke="black" points="683.5,-235 683.5,-265 854.5,-265 854.5,-235 683.5,-235"/>
<text text-anchor="start" x="691.5" y="-253" font-family="Helvetica,sans-Serif" font-size="10.00">configuration.RepeatParser.fetch</text>
<text text-anchor="middle" x="769" y="-242" font-family="Helvetica,sans-Serif" font-size="10.00">NumericExpr</text>
</a>
</g>
</g>
<!-- Node2&#45;&gt;Node7 -->
<g id="edge6" class="edge"><title>Node2&#45;&gt;Node7</title>
<path fill="none" stroke="midnightblue" d="M378.7,-260.928C399.42,-257.742 422.635,-254.676 444,-253 525.036,-246.641 617.818,-246.505 683.268,-247.593"/>
<polygon fill="midnightblue" stroke="midnightblue" points="378.081,-257.482 368.748,-262.496 379.171,-264.397 378.081,-257.482"/>
</g>
<!-- Node9 -->
<g id="node9" class="node"><title>Node9</title>
<g id="a_node9"><a xlink:href="../../d9/dfc/classconfiguration_1_1_dotimes_parser.html#a26cc7f8e0a21d93091bfe8884a924450" target="_top" xlink:title="configuration.DotimesParser.fetch\lNumericExpr">
<polygon fill="white" stroke="black" points="453.5,-137 453.5,-167 632.5,-167 632.5,-137 453.5,-137"/>
<text text-anchor="start" x="461.5" y="-155" font-family="Helvetica,sans-Serif" font-size="10.00">configuration.DotimesParser.fetch</text>
<text text-anchor="middle" x="543" y="-144" font-family="Helvetica,sans-Serif" font-size="10.00">NumericExpr</text>
</a>
</g>
</g>
<!-- Node2&#45;&gt;Node9 -->
<g id="edge8" class="edge"><title>Node2&#45;&gt;Node9</title>
<path fill="none" stroke="midnightblue" d="M333.427,-255.53C356.795,-234.324 400.41,-197.741 444,-177 452.086,-173.152 460.84,-169.845 469.674,-167.017"/>
<polygon fill="midnightblue" stroke="midnightblue" points="331.021,-252.988 326.039,-262.338 335.765,-258.135 331.021,-252.988"/>
</g>
<!-- Node12 -->
<g id="node12" class="node"><title>Node12</title>
<g id="a_node12"><a xlink:href="../../dc/d64/classconfiguration_1_1_for_parser.html#a95aeb8afdb254389dcef062be1cf2727" target="_top" xlink:title="configuration.ForParser.fetch\lNumericExpr">
<polygon fill="white" stroke="black" points="692.5,-39 692.5,-69 845.5,-69 845.5,-39 692.5,-39"/>
<text text-anchor="start" x="700.5" y="-57" font-family="Helvetica,sans-Serif" font-size="10.00">configuration.ForParser.fetch</text>
<text text-anchor="middle" x="769" y="-46" font-family="Helvetica,sans-Serif" font-size="10.00">NumericExpr</text>
</a>
</g>
</g>
<!-- Node2&#45;&gt;Node12 -->
<g id="edge11" class="edge"><title>Node2&#45;&gt;Node12</title>
<path fill="none" stroke="midnightblue" d="M329.049,-254.373C347.177,-229.736 380.818,-183.473 408,-143 424.705,-118.126 418.502,-101.737 444,-86 518.916,-39.7627 622.603,-37.9421 692.322,-43.6067"/>
<polygon fill="midnightblue" stroke="midnightblue" points="326.232,-252.296 323.113,-262.421 331.866,-256.451 326.232,-252.296"/>
</g>
<!-- Node14 -->
<g id="node14" class="node"><title>Node14</title>
<g id="a_node14"><a xlink:href="../../db/d22/classconfiguration_1_1_set_parser.html#a4f20258805caaf18872872d5283a0e74" target="_top" xlink:title="configuration.SetParser.parse">
<polygon fill="white" stroke="black" points="464,-426.5 464,-445.5 622,-445.5 622,-426.5 464,-426.5"/>
<text text-anchor="middle" x="543" y="-433.5" font-family="Helvetica,sans-Serif" font-size="10.00">configuration.SetParser.parse</text>
</a>
</g>
</g>
<!-- Node2&#45;&gt;Node14 -->
<g id="edge13" class="edge"><title>Node2&#45;&gt;Node14</title>
<path fill="none" stroke="midnightblue" d="M331.402,-289.372C349.69,-310.007 381.103,-345.481 408,-376 424.034,-394.193 422.966,-404.932 444,-417 450.765,-420.881 458.179,-423.985 465.806,-426.464"/>
<polygon fill="midnightblue" stroke="midnightblue" points="333.889,-286.901 324.637,-281.739 328.651,-291.544 333.889,-286.901"/>
</g>
<!-- Node15 -->
<g id="node15" class="node"><title>Node15</title>
<g id="a_node15"><a xlink:href="../../d0/da7/classconfiguration_1_1_basic_parser.html#a22bf37b374167e497f639182e7459517" target="_top" xlink:title="configuration.BasicParser.parse">
<polygon fill="white" stroke="black" points="459.5,-388.5 459.5,-407.5 626.5,-407.5 626.5,-388.5 459.5,-388.5"/>
<text text-anchor="middle" x="543" y="-395.5" font-family="Helvetica,sans-Serif" font-size="10.00">configuration.BasicParser.parse</text>
</a>
</g>
</g>
<!-- Node2&#45;&gt;Node15 -->
<g id="edge14" class="edge"><title>Node2&#45;&gt;Node15</title>
<path fill="none" stroke="midnightblue" d="M331.101,-289.212C353.3,-313.339 397.203,-356.746 444,-379 452.217,-382.907 461.185,-386.011 470.251,-388.477"/>
<polygon fill="midnightblue" stroke="midnightblue" points="333.484,-286.628 324.185,-281.549 328.287,-291.318 333.484,-286.628"/>
</g>
<!-- Node16 -->
<g id="node16" class="node"><title>Node16</title>
<g id="a_node16"><a xlink:href="../../d3/d0d/classconfiguration_1_1_repeat_parser.html#a27c7e86622dda996677d34987f702cb6" target="_top" xlink:title="configuration.RepeatParser.parseFor">
<polygon fill="white" stroke="black" points="448.5,-262.5 448.5,-281.5 637.5,-281.5 637.5,-262.5 448.5,-262.5"/>
<text text-anchor="middle" x="543" y="-269.5" font-family="Helvetica,sans-Serif" font-size="10.00">configuration.RepeatParser.parseFor</text>
</a>
</g>
</g>
<!-- Node2&#45;&gt;Node16 -->
<g id="edge15" class="edge"><title>Node2&#45;&gt;Node16</title>
<path fill="none" stroke="midnightblue" d="M403.268,-272C418.054,-272 433.461,-272 448.401,-272"/>
<polygon fill="midnightblue" stroke="midnightblue" points="403.144,-268.5 393.144,-272 403.144,-275.5 403.144,-268.5"/>
</g>
<!-- Node18 -->
<g id="node18" class="node"><title>Node18</title>
<g id="a_node18"><a xlink:href="../../dc/d64/classconfiguration_1_1_for_parser.html#a6bc38f731ac658c5860fe092ba7689ac" target="_top" xlink:title="configuration.ForParser.parseFor">
<polygon fill="white" stroke="black" points="457.5,-95.5 457.5,-114.5 628.5,-114.5 628.5,-95.5 457.5,-95.5"/>
<text text-anchor="middle" x="543" y="-102.5" font-family="Helvetica,sans-Serif" font-size="10.00">configuration.ForParser.parseFor</text>
</a>
</g>
</g>
<!-- Node2&#45;&gt;Node18 -->
<g id="edge18" class="edge"><title>Node2&#45;&gt;Node18</title>
<path fill="none" stroke="midnightblue" d="M326.642,-253.795C345.873,-222.611 389.523,-159.228 444,-127 453.005,-121.673 463.172,-117.634 473.462,-114.573"/>
<polygon fill="midnightblue" stroke="midnightblue" points="323.638,-251.998 321.472,-262.369 329.633,-255.612 323.638,-251.998"/>
</g>
<!-- Node20 -->
<g id="node20" class="node"><title>Node20</title>
<g id="a_node20"><a xlink:href="../../d9/dfc/classconfiguration_1_1_dotimes_parser.html#aff41ee5ce2eeff82f7586bd1cf6a91c8" target="_top" xlink:title="configuration.DotimesParser.parseFor">
<polygon fill="white" stroke="black" points="444.5,-186.5 444.5,-205.5 641.5,-205.5 641.5,-186.5 444.5,-186.5"/>
<text text-anchor="middle" x="543" y="-193.5" font-family="Helvetica,sans-Serif" font-size="10.00">configuration.DotimesParser.parseFor</text>
</a>
</g>
</g>
<!-- Node2&#45;&gt;Node20 -->
<g id="edge21" class="edge"><title>Node2&#45;&gt;Node20</title>
<path fill="none" stroke="midnightblue" d="M346.13,-258.303C371.781,-246.997 409.802,-231.069 444,-220 461.165,-214.444 480.382,-209.474 497.221,-205.517"/>
<polygon fill="midnightblue" stroke="midnightblue" points="344.654,-255.129 336.939,-262.39 347.499,-261.525 344.654,-255.129"/>
</g>
<!-- Node22 -->
<g id="node22" class="node"><title>Node22</title>
<g id="a_node22"><a xlink:href="../../d7/d56/classconfiguration_1_1_ifelse_parser.html#aeb471eacbe15e095075bdd09619fe15d" target="_top" xlink:title="configuration.IfelseParser.parse\lListCommands">
<polygon fill="white" stroke="black" points="460,-301 460,-331 626,-331 626,-301 460,-301"/>
<text text-anchor="start" x="468" y="-319" font-family="Helvetica,sans-Serif" font-size="10.00">configuration.IfelseParser.parse</text>
<text text-anchor="middle" x="543" y="-308" font-family="Helvetica,sans-Serif" font-size="10.00">ListCommands</text>
</a>
</g>
</g>
<!-- Node2&#45;&gt;Node22 -->
<g id="edge24" class="edge"><title>Node2&#45;&gt;Node22</title>
<path fill="none" stroke="midnightblue" d="M374.866,-283.461C402.269,-288.796 435.234,-295.214 464.619,-300.935"/>
<polygon fill="midnightblue" stroke="midnightblue" points="375.523,-280.023 365.039,-281.547 374.185,-286.894 375.523,-280.023"/>
</g>
<!-- Node5 -->
<g id="node5" class="node"><title>Node5</title>
<g id="a_node5"><a xlink:href="../../d7/d56/classconfiguration_1_1_ifelse_parser.html#a4b806589536dd338338d515a0fdb67ed" target="_top" xlink:title="configuration.IfelseParser.parse">
<polygon fill="white" stroke="black" points="686,-382.5 686,-401.5 852,-401.5 852,-382.5 686,-382.5"/>
<text text-anchor="middle" x="769" y="-389.5" font-family="Helvetica,sans-Serif" font-size="10.00">configuration.IfelseParser.parse</text>
</a>
</g>
</g>
<!-- Node4&#45;&gt;Node5 -->
<g id="edge4" class="edge"><title>Node4&#45;&gt;Node5</title>
<path fill="none" stroke="midnightblue" d="M621.278,-462.124C628.353,-459.937 635.354,-457.56 642,-455 658.882,-448.497 661.871,-444.196 678,-436 701.878,-423.866 729.597,-410.408 747.894,-401.61"/>
<polygon fill="midnightblue" stroke="midnightblue" points="620.203,-458.791 611.609,-464.987 622.191,-465.503 620.203,-458.791"/>
</g>
<!-- Node6 -->
<g id="node6" class="node"><title>Node6</title>
<g id="a_node6"><a xlink:href="../../dc/dd1/classconfiguration_1_1_if_parser.html#ab4ed2d3b7778d2b1206e5d26ebac7976" target="_top" xlink:title="configuration.IfParser.parse">
<polygon fill="white" stroke="black" points="696,-445.5 696,-464.5 842,-464.5 842,-445.5 696,-445.5"/>
<text text-anchor="middle" x="769" y="-452.5" font-family="Helvetica,sans-Serif" font-size="10.00">configuration.IfParser.parse</text>
</a>
</g>
</g>
<!-- Node4&#45;&gt;Node6 -->
<g id="edge5" class="edge"><title>Node4&#45;&gt;Node6</title>
<path fill="none" stroke="midnightblue" d="M643.457,-468.9C661.027,-466.939 679.013,-464.932 695.658,-463.074"/>
<polygon fill="midnightblue" stroke="midnightblue" points="642.724,-465.46 633.174,-470.048 643.501,-472.417 642.724,-465.46"/>
</g>
<!-- Node8 -->
<g id="node8" class="node"><title>Node8</title>
<g id="a_node8"><a xlink:href="../../d3/d0d/classconfiguration_1_1_repeat_parser.html#abf20b0ae25909c1cdff93f509830b502" target="_top" xlink:title="configuration.RepeatParser.parse">
<polygon fill="white" stroke="black" points="900,-264.5 900,-283.5 1074,-283.5 1074,-264.5 900,-264.5"/>
<text text-anchor="middle" x="987" y="-271.5" font-family="Helvetica,sans-Serif" font-size="10.00">configuration.RepeatParser.parse</text>
</a>
</g>
</g>
<!-- Node7&#45;&gt;Node8 -->
<g id="edge7" class="edge"><title>Node7&#45;&gt;Node8</title>
<path fill="none" stroke="midnightblue" d="M865.034,-260.559C876.815,-261.868 888.804,-263.2 900.431,-264.492"/>
<polygon fill="midnightblue" stroke="midnightblue" points="865.074,-257.042 854.749,-259.417 864.301,-264 865.074,-257.042"/>
</g>
<!-- Node10 -->
<g id="node10" class="node"><title>Node10</title>
<g id="a_node10"><a xlink:href="../../d9/dfc/classconfiguration_1_1_dotimes_parser.html#a63d34c400b9b5715b4a2f9a5d0107e62" target="_top" xlink:title="configuration.DotimesParser.parse\lDotimesIterator">
<polygon fill="white" stroke="black" points="678,-137 678,-167 860,-167 860,-137 678,-137"/>
<text text-anchor="start" x="686" y="-155" font-family="Helvetica,sans-Serif" font-size="10.00">configuration.DotimesParser.parse</text>
<text text-anchor="middle" x="769" y="-144" font-family="Helvetica,sans-Serif" font-size="10.00">DotimesIterator</text>
</a>
</g>
</g>
<!-- Node9&#45;&gt;Node10 -->
<g id="edge9" class="edge"><title>Node9&#45;&gt;Node10</title>
<path fill="none" stroke="midnightblue" d="M642.748,-152C654.446,-152 666.34,-152 677.909,-152"/>
<polygon fill="midnightblue" stroke="midnightblue" points="642.531,-148.5 632.531,-152 642.531,-155.5 642.531,-148.5"/>
</g>
<!-- Node11 -->
<g id="node11" class="node"><title>Node11</title>
<g id="a_node11"><a xlink:href="../../d9/dfc/classconfiguration_1_1_dotimes_parser.html#abf0eb9bddfa4a09adc745008e17b293b" target="_top" xlink:title="configuration.DotimesParser.parse">
<polygon fill="white" stroke="black" points="896,-166.5 896,-185.5 1078,-185.5 1078,-166.5 896,-166.5"/>
<text text-anchor="middle" x="987" y="-173.5" font-family="Helvetica,sans-Serif" font-size="10.00">configuration.DotimesParser.parse</text>
</a>
</g>
</g>
<!-- Node10&#45;&gt;Node11 -->
<g id="edge10" class="edge"><title>Node10&#45;&gt;Node11</title>
<path fill="none" stroke="midnightblue" d="M870.081,-163.12C880.166,-164.241 890.344,-165.372 900.26,-166.473"/>
<polygon fill="midnightblue" stroke="midnightblue" points="870.365,-159.63 860.039,-162.004 869.592,-166.587 870.365,-159.63"/>
</g>
<!-- Node13 -->
<g id="node13" class="node"><title>Node13</title>
<g id="a_node13"><a xlink:href="../../dc/d64/classconfiguration_1_1_for_parser.html#a2737b422e279cfca7c64fd8eff57d3ff" target="_top" xlink:title="configuration.ForParser.parse">
<polygon fill="white" stroke="black" points="909,-69.5 909,-88.5 1065,-88.5 1065,-69.5 909,-69.5"/>
<text text-anchor="middle" x="987" y="-76.5" font-family="Helvetica,sans-Serif" font-size="10.00">configuration.ForParser.parse</text>
</a>
</g>
</g>
<!-- Node12&#45;&gt;Node13 -->
<g id="edge12" class="edge"><title>Node12&#45;&gt;Node13</title>
<path fill="none" stroke="midnightblue" d="M855.729,-63.9224C873.208,-65.9454 891.501,-68.0627 908.667,-70.0494"/>
<polygon fill="midnightblue" stroke="midnightblue" points="855.882,-60.4168 845.546,-62.7438 855.078,-67.3704 855.882,-60.4168"/>
</g>
<!-- Node17 -->
<g id="node17" class="node"><title>Node17</title>
<g id="a_node17"><a xlink:href="../../d3/d0d/classconfiguration_1_1_repeat_parser.html#aed07d335bcd1174cb4247a7add0d3315" target="_top" xlink:title="configuration.RepeatParser.parse\lCommands">
<polygon fill="white" stroke="black" points="682,-284 682,-314 856,-314 856,-284 682,-284"/>
<text text-anchor="start" x="690" y="-302" font-family="Helvetica,sans-Serif" font-size="10.00">configuration.RepeatParser.parse</text>
<text text-anchor="middle" x="769" y="-291" font-family="Helvetica,sans-Serif" font-size="10.00">Commands</text>
</a>
</g>
</g>
<!-- Node16&#45;&gt;Node17 -->
<g id="edge16" class="edge"><title>Node16&#45;&gt;Node17</title>
<path fill="none" stroke="midnightblue" d="M633.348,-282.77C649.296,-284.692 665.883,-286.691 681.742,-288.603"/>
<polygon fill="midnightblue" stroke="midnightblue" points="633.321,-279.241 622.974,-281.519 632.483,-286.191 633.321,-279.241"/>
</g>
<!-- Node17&#45;&gt;Node8 -->
<g id="edge17" class="edge"><title>Node17&#45;&gt;Node8</title>
<path fill="none" stroke="midnightblue" d="M866.262,-287.859C878.755,-286.413 891.461,-284.942 903.7,-283.525"/>
<polygon fill="midnightblue" stroke="midnightblue" points="865.831,-284.385 856.3,-289.012 866.636,-291.339 865.831,-284.385"/>
</g>
<!-- Node19 -->
<g id="node19" class="node"><title>Node19</title>
<g id="a_node19"><a xlink:href="../../dc/d64/classconfiguration_1_1_for_parser.html#ad3cb5184cf449bd3414f3ba73a8b3104" target="_top" xlink:title="configuration.ForParser.parse\lCommands">
<polygon fill="white" stroke="black" points="691,-88 691,-118 847,-118 847,-88 691,-88"/>
<text text-anchor="start" x="699" y="-106" font-family="Helvetica,sans-Serif" font-size="10.00">configuration.ForParser.parse</text>
<text text-anchor="middle" x="769" y="-95" font-family="Helvetica,sans-Serif" font-size="10.00">Commands</text>
</a>
</g>
</g>
<!-- Node18&#45;&gt;Node19 -->
<g id="edge19" class="edge"><title>Node18&#45;&gt;Node19</title>
<path fill="none" stroke="midnightblue" d="M638.838,-104.153C656.214,-103.998 674.155,-103.838 690.934,-103.688"/>
<polygon fill="midnightblue" stroke="midnightblue" points="638.653,-100.655 628.685,-104.244 638.716,-107.654 638.653,-100.655"/>
</g>
<!-- Node19&#45;&gt;Node13 -->
<g id="edge20" class="edge"><title>Node19&#45;&gt;Node13</title>
<path fill="none" stroke="midnightblue" d="M857.077,-93.3247C874.248,-91.4169 892.153,-89.4275 908.964,-87.5596"/>
<polygon fill="midnightblue" stroke="midnightblue" points="856.618,-89.8541 847.066,-94.4371 857.392,-96.8113 856.618,-89.8541"/>
</g>
<!-- Node21 -->
<g id="node21" class="node"><title>Node21</title>
<g id="a_node21"><a xlink:href="../../d9/dfc/classconfiguration_1_1_dotimes_parser.html#a6086c4c4651b29dd968bf4728bd71d0c" target="_top" xlink:title="configuration.DotimesParser.parse\lCommands">
<polygon fill="white" stroke="black" points="678,-186 678,-216 860,-216 860,-186 678,-186"/>
<text text-anchor="start" x="686" y="-204" font-family="Helvetica,sans-Serif" font-size="10.00">configuration.DotimesParser.parse</text>
<text text-anchor="middle" x="769" y="-193" font-family="Helvetica,sans-Serif" font-size="10.00">Commands</text>
</a>
</g>
</g>
<!-- Node20&#45;&gt;Node21 -->
<g id="edge22" class="edge"><title>Node20&#45;&gt;Node21</title>
<path fill="none" stroke="midnightblue" d="M651.785,-198.406C660.488,-198.6 669.224,-198.795 677.783,-198.986"/>
<polygon fill="midnightblue" stroke="midnightblue" points="651.674,-194.903 641.598,-198.179 651.517,-201.901 651.674,-194.903"/>
</g>
<!-- Node21&#45;&gt;Node11 -->
<g id="edge23" class="edge"><title>Node21&#45;&gt;Node11</title>
<path fill="none" stroke="midnightblue" d="M870.272,-189.394C881.464,-188.099 892.767,-186.791 903.698,-185.526"/>
<polygon fill="midnightblue" stroke="midnightblue" points="869.571,-185.952 860.039,-190.579 870.375,-192.906 869.571,-185.952"/>
</g>
<!-- Node22&#45;&gt;Node5 -->
<g id="edge25" class="edge"><title>Node22&#45;&gt;Node5</title>
<path fill="none" stroke="midnightblue" d="M618.041,-333.752C626.171,-336.038 634.291,-338.469 642,-341 679.669,-353.366 722.161,-371.465 746.923,-382.448"/>
<polygon fill="midnightblue" stroke="midnightblue" points="618.715,-330.307 608.146,-331.039 616.864,-337.058 618.715,-330.307"/>
</g>
<!-- Node22&#45;&gt;Node6 -->
<g id="edge26" class="edge"><title>Node22&#45;&gt;Node6</title>
<path fill="none" stroke="midnightblue" d="M635.414,-336.299C637.695,-337.76 639.897,-339.325 642,-341 669.361,-362.801 653.013,-386.515 678,-411 694.398,-427.068 717.813,-438.264 736.65,-445.341"/>
<polygon fill="midnightblue" stroke="midnightblue" points="636.693,-333.004 626.259,-331.164 633.268,-339.109 636.693,-333.004"/>
</g>
<!-- Node23&#45;&gt;Node4 -->
<g id="edge28" class="edge"><title>Node23&#45;&gt;Node4</title>
<path fill="none" stroke="midnightblue" d="M342.805,-409.386C368.279,-422.615 407.943,-442.081 444,-455 454.166,-458.642 465.103,-461.978 475.854,-464.943"/>
<polygon fill="midnightblue" stroke="midnightblue" points="344.256,-406.194 333.774,-404.647 341.004,-412.393 344.256,-406.194"/>
</g>
<!-- Node25 -->
<g id="node25" class="node"><title>Node25</title>
<g id="a_node25"><a xlink:href="../../d3/d71/classgui_1_1_user_input_box.html#a97af345e01f003fb2eab983e845422f2" target="_top" xlink:title="gui.UserInputBox.doInput">
<polygon fill="white" stroke="black" points="474.5,-9.5 474.5,-28.5 611.5,-28.5 611.5,-9.5 474.5,-9.5"/>
<text text-anchor="middle" x="543" y="-16.5" font-family="Helvetica,sans-Serif" font-size="10.00">gui.UserInputBox.doInput</text>
</a>
</g>
</g>
<!-- Node24&#45;&gt;Node25 -->
<g id="edge30" class="edge"><title>Node24&#45;&gt;Node25</title>
<path fill="none" stroke="midnightblue" d="M337.392,-108.384C362.023,-91.0327 404.218,-63.199 444,-46 460.847,-38.7167 480.179,-32.895 497.198,-28.5494"/>
<polygon fill="midnightblue" stroke="midnightblue" points="335.258,-105.607 329.149,-114.264 339.323,-111.306 335.258,-105.607"/>
</g>
<!-- Node26 -->
<g id="node26" class="node"><title>Node26</title>
<g id="a_node26"><a xlink:href="../../d3/d71/classgui_1_1_user_input_box.html#a2fc8903ae3868c350deb7b6caef9527d" target="_top" xlink:title="gui.UserInputBox.UserInputBox">
<polygon fill="white" stroke="black" points="686,-0.5 686,-19.5 852,-19.5 852,-0.5 686,-0.5"/>
<text text-anchor="middle" x="769" y="-7.5" font-family="Helvetica,sans-Serif" font-size="10.00">gui.UserInputBox.UserInputBox</text>
</a>
</g>
</g>
<!-- Node25&#45;&gt;Node26 -->
<g id="edge31" class="edge"><title>Node25&#45;&gt;Node26</title>
<path fill="none" stroke="midnightblue" d="M621.572,-15.8833C642.383,-15.0471 664.95,-14.1404 685.993,-13.2949"/>
<polygon fill="midnightblue" stroke="midnightblue" points="621.363,-12.3888 611.511,-16.2875 621.644,-19.3831 621.363,-12.3888"/>
</g>
</g>
</svg>
        <g id="navigator" transform="translate(0 0)" fill="#404254">
                <rect fill="#f2f5e9" fill-opacity="0.5" stroke="#606060" stroke-width=".5" x="0" y="0" width="60" height="60"/>
                <use id="zoomplus" xlink:href="#zoomPlus" x="17" y="9" onmousedown="handleZoom(evt,'in')"/>
                <use id="zoomminus" xlink:href="#zoomMin" x="42" y="9" onmousedown="handleZoom(evt,'out')"/>
                <use id="reset" xlink:href="#resetDef" x="30" y="36" onmousedown="handleReset()"/>
                <g id="arrowUp" xlink:href="#dirArrow" transform="translate(30 24)" onmousedown="handlePan(0,-1)">
                  <use xlink:href="#rim" fill="#404040">
                        <set attributeName="fill" to="#808080" begin="arrowUp.mouseover" end="arrowUp.mouseout"/>
                  </use>
                  <path fill="none" stroke="white" stroke-width="1.5" d="M0,-3.0v7 M-2.5,-0.5L0,-3.0L2.5,-0.5"/>
                </g>
                <g id="arrowRight" xlink:href="#dirArrow" transform="rotate(90) translate(36 -43)" onmousedown="handlePan(1,0)">
                  <use xlink:href="#rim" fill="#404040">
                        <set attributeName="fill" to="#808080" begin="arrowRight.mouseover" end="arrowRight.mouseout"/>
                  </use>
                  <path fill="none" stroke="white" stroke-width="1.5" d="M0,-3.0v7 M-2.5,-0.5L0,-3.0L2.5,-0.5"/>
                </g>
                <g id="arrowDown" xlink:href="#dirArrow" transform="rotate(180) translate(-30 -48)" onmousedown="handlePan(0,1)">
                  <use xlink:href="#rim" fill="#404040">
                        <set attributeName="fill" to="#808080" begin="arrowDown.mouseover" end="arrowDown.mouseout"/>
                  </use>
                  <path fill="none" stroke="white" stroke-width="1.5" d="M0,-3.0v7 M-2.5,-0.5L0,-3.0L2.5,-0.5"/>
                </g>
                <g id="arrowLeft" xlink:href="#dirArrow" transform="rotate(270) translate(-36 17)" onmousedown="handlePan(-1,0)">
                  <use xlink:href="#rim" fill="#404040">
                        <set attributeName="fill" to="#808080" begin="arrowLeft.mouseover" end="arrowLeft.mouseout"/>
                  </use>
                  <path fill="none" stroke="white" stroke-width="1.5" d="M0,-3.0v7 M-2.5,-0.5L0,-3.0L2.5,-0.5"/>
                </g>
        </g>
        <svg viewBox="0 0 15 15" width="100%" height="30px" preserveAspectRatio="xMaxYMin meet">
         <g id="arrow_out" transform="scale(0.3 0.3)">
          <a xlink:href="classconfiguration_1_1_util_a55c271426926996186d1cde227ae7e23_icgraph_org.svg" target="_base">
           <rect id="button" ry="5" rx="5" y="6" x="6" height="38" width="38"
                fill="#f2f5e9" fill-opacity="0.5" stroke="#606060" stroke-width="1.0"/>
           <path id="arrow"
             d="M 11.500037,31.436501 C 11.940474,20.09759 22.043105,11.32322 32.158766,21.979434 L 37.068811,17.246167 C 37.068811,17.246167 37.088388,32 37.088388,32 L 22.160133,31.978069 C 22.160133,31.978069 26.997745,27.140456 26.997745,27.140456 C 18.528582,18.264221 13.291696,25.230495 11.500037,31.436501 z"
             style="fill:#404040;"/>
          </a>
         </g>
        </svg>
</svg>
