<?xml version="1.0" encoding="UTF-8" standalone="no"?>
<!DOCTYPE svg PUBLIC "-//W3C//DTD SVG 1.1//EN"
 "http://www.w3.org/Graphics/SVG/1.1/DTD/svg11.dtd">
<!-- Generated by graphviz version 2.36.0 (20140111.2315)
 -->
<!-- Title: configuration.Util.findCommandKey Pages: 1 -->
<!--zoomable 534 -->
<svg id="main" version="1.1" xmlns="http://www.w3.org/2000/svg" xmlns:xlink="http://www.w3.org/1999/xlink" xml:space="preserve" onload="init(evt)">
<style type="text/css"><![CDATA[
.edge:hover path { stroke: red; }
.edge:hover polygon { stroke: red; fill: red; }
]]></style>
<script type="text/javascript"><![CDATA[
var edges = document.getElementsByTagName('g');
if (edges && edges.length) {
  for (var i=0;i<edges.length;i++) {
    if (edges[i].id.substr(0,4)=='edge') {
      edges[i].setAttribute('class','edge');
    }
  }
}
]]></script>
        <defs>
                <circle id="rim" cx="0" cy="0" r="7"/>
                <circle id="rim2" cx="0" cy="0" r="3.5"/>
                <g id="zoomPlus">
                        <use xlink:href="#rim" fill="#404040">
                                <set attributeName="fill" to="#808080" begin="zoomplus.mouseover" end="zoomplus.mouseout"/>
                        </use>
                        <path d="M-4,0h8M0,-4v8" fill="none" stroke="white" stroke-width="1.5" pointer-events="none"/>
                </g>
                <g id="zoomMin">
                        <use xlink:href="#rim" fill="#404040">
                                <set attributeName="fill" to="#808080" begin="zoomminus.mouseover" end="zoomminus.mouseout"/>
                        </use>
                        <path d="M-4,0h8" fill="none" stroke="white" stroke-width="1.5" pointer-events="none"/>
                </g>
                <g id="dirArrow">
                        <path fill="none" stroke="white" stroke-width="1.5" d="M0,-3.0v7 M-2.5,-0.5L0,-3.0L2.5,-0.5"/>
                </g>
               <g id="resetDef">
                       <use xlink:href="#rim2" fill="#404040">
                               <set attributeName="fill" to="#808080" begin="reset.mouseover" end="reset.mouseout"/>
                       </use>
               </g>
        </defs>

<script type="text/javascript">
var viewWidth = 1086;
var viewHeight = 534;
var sectionId = 'dynsection-2';
</script>
<script xlink:href="../../svgpan.js"/>
<svg id="graph" class="graph">
<g id="viewport">
<title>configuration.Util.findCommandKey</title>
<polygon fill="white" stroke="none" points="-4,4 -4,-530 1082,-530 1082,4 -4,4"/>
<!-- Node1 -->
<g id="node1" class="node"><title>Node1</title>
<polygon fill="#bfbfbf" stroke="black" points="0.5,-271.5 0.5,-290.5 185.5,-290.5 185.5,-271.5 0.5,-271.5"/>
<text text-anchor="middle" x="93" y="-278.5" font-family="Helvetica,sans-Serif" font-size="10.00">configuration.Util.findCommandKey</text>
</g>
<!-- Node2 -->
<g id="node2" class="node"><title>Node2</title>
<g id="a_node2"><a xlink:href="../../d9/d11/classconfiguration_1_1_parser.html#ae0480f44c9defa614fb470ab154fa60b" target="_top" xlink:title="configuration.Parser.buildTree">
<polygon fill="white" stroke="black" points="237,-271.5 237,-290.5 393,-290.5 393,-271.5 237,-271.5"/>
<text text-anchor="middle" x="315" y="-278.5" font-family="Helvetica,sans-Serif" font-size="10.00">configuration.Parser.buildTree</text>
</a>
</g>
</g>
<!-- Node1&#45;&gt;Node2 -->
<g id="edge1" class="edge"><title>Node1&#45;&gt;Node2</title>
<path fill="none" stroke="midnightblue" d="M195.711,-281C209.509,-281 223.482,-281 236.755,-281"/>
<polygon fill="midnightblue" stroke="midnightblue" points="195.707,-277.5 185.707,-281 195.707,-284.5 195.707,-277.5"/>
</g>
<!-- Node24 -->
<g id="node24" class="node"><title>Node24</title>
<g id="a_node24"><a xlink:href="../../d7/d56/classconfiguration_1_1_ifelse_parser.html#a6098b84b1c6e73b18db5e016da7fece1" target="_top" xlink:title="configuration.IfelseParser.isboolean">
<polygon fill="white" stroke="black" points="222.5,-416.5 222.5,-435.5 407.5,-435.5 407.5,-416.5 222.5,-416.5"/>
<text text-anchor="middle" x="315" y="-423.5" font-family="Helvetica,sans-Serif" font-size="10.00">configuration.IfelseParser.isboolean</text>
</a>
</g>
</g>
<!-- Node1&#45;&gt;Node24 -->
<g id="edge28" class="edge"><title>Node1&#45;&gt;Node24</title>
<path fill="none" stroke="midnightblue" d="M116.995,-296.156C162.347,-326.047 262.159,-391.832 299.512,-416.451"/>
<polygon fill="midnightblue" stroke="midnightblue" points="118.711,-293.095 108.435,-290.514 114.858,-298.939 118.711,-293.095"/>
</g>
<!-- Node25 -->
<g id="node25" class="node"><title>Node25</title>
<g id="a_node25"><a xlink:href="../../d0/da7/classconfiguration_1_1_basic_parser.html#ab316d3a3f9ec49ba6922087948e76901" target="_top" xlink:title="configuration.BasicParser.parse">
<polygon fill="white" stroke="black" points="231.5,-129.5 231.5,-148.5 398.5,-148.5 398.5,-129.5 231.5,-129.5"/>
<text text-anchor="middle" x="315" y="-136.5" font-family="Helvetica,sans-Serif" font-size="10.00">configuration.BasicParser.parse</text>
</a>
</g>
</g>
<!-- Node1&#45;&gt;Node25 -->
<g id="edge30" class="edge"><title>Node1&#45;&gt;Node25</title>
<path fill="none" stroke="midnightblue" d="M117.342,-265.934C162.648,-236.691 261.349,-172.984 298.998,-148.683"/>
<polygon fill="midnightblue" stroke="midnightblue" points="115.28,-263.099 108.776,-271.462 119.076,-268.98 115.28,-263.099"/>
</g>
<!-- Node3 -->
<g id="node3" class="node"><title>Node3</title>
<g id="a_node3"><a xlink:href="../../d9/d11/classconfiguration_1_1_parser.html#a041ccb70bd9dee77d512d8469c15c14f" target="_top" xlink:title="configuration.Parser.buildTree">
<polygon fill="white" stroke="black" points="465,-457.5 465,-476.5 621,-476.5 621,-457.5 465,-457.5"/>
<text text-anchor="middle" x="543" y="-464.5" font-family="Helvetica,sans-Serif" font-size="10.00">configuration.Parser.buildTree</text>
</a>
</g>
</g>
<!-- Node2&#45;&gt;Node3 -->
<g id="edge2" class="edge"><title>Node2&#45;&gt;Node3</title>
<path fill="none" stroke="midnightblue" d="M328.713,-298.901C357.906,-339.792 428.426,-437.287 444,-447 450.999,-451.365 458.774,-454.798 466.797,-457.496"/>
<polygon fill="midnightblue" stroke="midnightblue" points="331.493,-296.771 322.841,-290.657 325.792,-300.832 331.493,-296.771"/>
</g>
<!-- Node4 -->
<g id="node4" class="node"><title>Node4</title>
<g id="a_node4"><a xlink:href="../../d7/d56/classconfiguration_1_1_ifelse_parser.html#aef13959a758ccbf8dab0a3f5f94a7be0" target="_top" xlink:title="configuration.IfelseParser.evaluate\lBoolExpr">
<polygon fill="white" stroke="black" points="453,-496 453,-526 633,-526 633,-496 453,-496"/>
<text text-anchor="start" x="461" y="-514" font-family="Helvetica,sans-Serif" font-size="10.00">configuration.IfelseParser.evaluate</text>
<text text-anchor="middle" x="543" y="-503" font-family="Helvetica,sans-Serif" font-size="10.00">BoolExpr</text>
</a>
</g>
</g>
<!-- Node2&#45;&gt;Node4 -->
<g id="edge3" class="edge"><title>Node2&#45;&gt;Node4</title>
<path fill="none" stroke="midnightblue" d="M330.467,-298.388C349.69,-322 384.011,-365.976 408,-407 427.477,-440.308 414.402,-461.247 444,-486 448.58,-489.83 453.671,-493.084 459.058,-495.846"/>
<polygon fill="midnightblue" stroke="midnightblue" points="333.167,-296.16 324.116,-290.653 327.757,-300.602 333.167,-296.16"/>
</g>
<!-- Node7 -->
<g id="node7" class="node"><title>Node7</title>
<g id="a_node7"><a xlink:href="../../d3/d0d/classconfiguration_1_1_repeat_parser.html#ab218ee8c24e4dab18c02cd4a536d15d3" target="_top" xlink:title="configuration.RepeatParser.fetch\lNumericExpr">
<polygon fill="white" stroke="black" points="683.5,-386 683.5,-416 854.5,-416 854.5,-386 683.5,-386"/>
<text text-anchor="start" x="691.5" y="-404" font-family="Helvetica,sans-Serif" font-size="10.00">configuration.RepeatParser.fetch</text>
<text text-anchor="middle" x="769" y="-393" font-family="Helvetica,sans-Serif" font-size="10.00">NumericExpr</text>
</a>
</g>
</g>
<!-- Node2&#45;&gt;Node7 -->
<g id="edge6" class="edge"><title>Node2&#45;&gt;Node7</title>
<path fill="none" stroke="midnightblue" d="M335.79,-297.008C359.822,-315.507 402.331,-345.288 444,-360 522.057,-387.561 616.463,-397.02 683.182,-400.061"/>
<polygon fill="midnightblue" stroke="midnightblue" points="337.837,-294.166 327.807,-290.751 333.519,-299.675 337.837,-294.166"/>
</g>
<!-- Node9 -->
<g id="node9" class="node"><title>Node9</title>
<g id="a_node9"><a xlink:href="../../dc/d64/classconfiguration_1_1_for_parser.html#a95aeb8afdb254389dcef062be1cf2727" target="_top" xlink:title="configuration.ForParser.fetch\lNumericExpr">
<polygon fill="white" stroke="black" points="466.5,-244 466.5,-274 619.5,-274 619.5,-244 466.5,-244"/>
<text text-anchor="start" x="474.5" y="-262" font-family="Helvetica,sans-Serif" font-size="10.00">configuration.ForParser.fetch</text>
<text text-anchor="middle" x="543" y="-251" font-family="Helvetica,sans-Serif" font-size="10.00">NumericExpr</text>
</a>
</g>
</g>
<!-- Node2&#45;&gt;Node9 -->
<g id="edge8" class="edge"><title>Node2&#45;&gt;Node9</title>
<path fill="none" stroke="midnightblue" d="M403.25,-272.507C424.064,-270.481 446.108,-268.335 466.351,-266.364"/>
<polygon fill="midnightblue" stroke="midnightblue" points="402.758,-269.038 393.144,-273.49 403.436,-276.005 402.758,-269.038"/>
</g>
<!-- Node11 -->
<g id="node11" class="node"><title>Node11</title>
<g id="a_node11"><a xlink:href="../../d9/dfc/classconfiguration_1_1_dotimes_parser.html#a26cc7f8e0a21d93091bfe8884a924450" target="_top" xlink:title="configuration.DotimesParser.fetch\lNumericExpr">
<polygon fill="white" stroke="black" points="453.5,-195 453.5,-225 632.5,-225 632.5,-195 453.5,-195"/>
<text text-anchor="start" x="461.5" y="-213" font-family="Helvetica,sans-Serif" font-size="10.00">configuration.DotimesParser.fetch</text>
<text text-anchor="middle" x="543" y="-202" font-family="Helvetica,sans-Serif" font-size="10.00">NumericExpr</text>
</a>
</g>
</g>
<!-- Node2&#45;&gt;Node11 -->
<g id="edge10" class="edge"><title>Node2&#45;&gt;Node11</title>
<path fill="none" stroke="midnightblue" d="M349.394,-267.573C375.021,-257.554 411.417,-243.938 444,-234 454.388,-230.832 465.492,-227.79 476.357,-225"/>
<polygon fill="midnightblue" stroke="midnightblue" points="347.813,-264.434 339.791,-271.355 350.378,-270.946 347.813,-264.434"/>
</g>
<!-- Node14 -->
<g id="node14" class="node"><title>Node14</title>
<g id="a_node14"><a xlink:href="../../db/d22/classconfiguration_1_1_set_parser.html#a4f20258805caaf18872872d5283a0e74" target="_top" xlink:title="configuration.SetParser.parse">
<polygon fill="white" stroke="black" points="464,-118.5 464,-137.5 622,-137.5 622,-118.5 464,-118.5"/>
<text text-anchor="middle" x="543" y="-125.5" font-family="Helvetica,sans-Serif" font-size="10.00">configuration.SetParser.parse</text>
</a>
</g>
</g>
<!-- Node2&#45;&gt;Node14 -->
<g id="edge13" class="edge"><title>Node2&#45;&gt;Node14</title>
<path fill="none" stroke="midnightblue" d="M327.735,-262.8C347.764,-233.351 391.516,-175.665 444,-147 451.149,-143.096 458.976,-139.984 466.991,-137.507"/>
<polygon fill="midnightblue" stroke="midnightblue" points="324.708,-261.032 322.085,-271.297 330.537,-264.908 324.708,-261.032"/>
</g>
<!-- Node15 -->
<g id="node15" class="node"><title>Node15</title>
<g id="a_node15"><a xlink:href="../../d0/da7/classconfiguration_1_1_basic_parser.html#a22bf37b374167e497f639182e7459517" target="_top" xlink:title="configuration.BasicParser.parse">
<polygon fill="white" stroke="black" points="459.5,-80.5 459.5,-99.5 626.5,-99.5 626.5,-80.5 459.5,-80.5"/>
<text text-anchor="middle" x="543" y="-87.5" font-family="Helvetica,sans-Serif" font-size="10.00">configuration.BasicParser.parse</text>
</a>
</g>
</g>
<!-- Node2&#45;&gt;Node15 -->
<g id="edge14" class="edge"><title>Node2&#45;&gt;Node15</title>
<path fill="none" stroke="midnightblue" d="M329.281,-263.343C347.208,-239.487 380.118,-195.611 408,-158 424.093,-136.291 421.167,-123.454 444,-109 450.077,-105.153 456.759,-102.054 463.691,-99.5619"/>
<polygon fill="midnightblue" stroke="midnightblue" points="326.397,-261.355 323.185,-271.452 331.992,-265.562 326.397,-261.355"/>
</g>
<!-- Node16 -->
<g id="node16" class="node"><title>Node16</title>
<g id="a_node16"><a xlink:href="../../dc/d64/classconfiguration_1_1_for_parser.html#a6bc38f731ac658c5860fe092ba7689ac" target="_top" xlink:title="configuration.ForParser.parseFor">
<polygon fill="white" stroke="black" points="457.5,-42.5 457.5,-61.5 628.5,-61.5 628.5,-42.5 457.5,-42.5"/>
<text text-anchor="middle" x="543" y="-49.5" font-family="Helvetica,sans-Serif" font-size="10.00">configuration.ForParser.parseFor</text>
</a>
</g>
</g>
<!-- Node2&#45;&gt;Node16 -->
<g id="edge15" class="edge"><title>Node2&#45;&gt;Node16</title>
<path fill="none" stroke="midnightblue" d="M331.277,-263.558C350.879,-240.56 385.082,-198.283 408,-158 428.693,-121.628 411.593,-97.4743 444,-71 448.563,-67.2721 453.643,-64.1993 459.022,-61.6733"/>
<polygon fill="midnightblue" stroke="midnightblue" points="328.41,-261.524 324.533,-271.384 333.712,-266.093 328.41,-261.524"/>
</g>
<!-- Node18 -->
<g id="node18" class="node"><title>Node18</title>
<g id="a_node18"><a xlink:href="../../d3/d0d/classconfiguration_1_1_repeat_parser.html#a27c7e86622dda996677d34987f702cb6" target="_top" xlink:title="configuration.RepeatParser.parseFor">
<polygon fill="white" stroke="black" points="448.5,-331.5 448.5,-350.5 637.5,-350.5 637.5,-331.5 448.5,-331.5"/>
<text text-anchor="middle" x="543" y="-338.5" font-family="Helvetica,sans-Serif" font-size="10.00">configuration.RepeatParser.parseFor</text>
</a>
</g>
</g>
<!-- Node2&#45;&gt;Node18 -->
<g id="edge17" class="edge"><title>Node2&#45;&gt;Node18</title>
<path fill="none" stroke="midnightblue" d="M358.637,-293.383C383.483,-300.501 415.45,-309.492 444,-317 462.973,-321.99 484.103,-327.207 501.87,-331.498"/>
<polygon fill="midnightblue" stroke="midnightblue" points="359.378,-289.955 348.801,-290.557 357.445,-296.682 359.378,-289.955"/>
</g>
<!-- Node20 -->
<g id="node20" class="node"><title>Node20</title>
<g id="a_node20"><a xlink:href="../../d3/d0d/classconfiguration_1_1_repeat_parser.html#ad35abe70f202dc3dd93bbdb50acd490d" target="_top" xlink:title="configuration.RepeatParser.parse\lListCommands">
<polygon fill="white" stroke="black" points="682,-288 682,-318 856,-318 856,-288 682,-288"/>
<text text-anchor="start" x="690" y="-306" font-family="Helvetica,sans-Serif" font-size="10.00">configuration.RepeatParser.parse</text>
<text text-anchor="middle" x="769" y="-295" font-family="Helvetica,sans-Serif" font-size="10.00">ListCommands</text>
</a>
</g>
</g>
<!-- Node2&#45;&gt;Node20 -->
<g id="edge24" class="edge"><title>Node2&#45;&gt;Node20</title>
<path fill="none" stroke="midnightblue" d="M403.275,-285.248C483.566,-289.156 601.955,-294.918 681.879,-298.808"/>
<polygon fill="midnightblue" stroke="midnightblue" points="403.346,-281.747 393.188,-284.757 403.006,-288.739 403.346,-281.747"/>
</g>
<!-- Node21 -->
<g id="node21" class="node"><title>Node21</title>
<g id="a_node21"><a xlink:href="../../d9/dfc/classconfiguration_1_1_dotimes_parser.html#aff41ee5ce2eeff82f7586bd1cf6a91c8" target="_top" xlink:title="configuration.DotimesParser.parseFor">
<polygon fill="white" stroke="black" points="444.5,-156.5 444.5,-175.5 641.5,-175.5 641.5,-156.5 444.5,-156.5"/>
<text text-anchor="middle" x="543" y="-163.5" font-family="Helvetica,sans-Serif" font-size="10.00">configuration.DotimesParser.parseFor</text>
</a>
</g>
</g>
<!-- Node2&#45;&gt;Node21 -->
<g id="edge21" class="edge"><title>Node2&#45;&gt;Node21</title>
<path fill="none" stroke="midnightblue" d="M332.859,-264.292C355.903,-242.475 399.481,-204.748 444,-185 452.792,-181.1 462.378,-177.998 472.001,-175.531"/>
<polygon fill="midnightblue" stroke="midnightblue" points="330.369,-261.831 325.596,-271.29 335.226,-266.871 330.369,-261.831"/>
</g>
<!-- Node23 -->
<g id="node23" class="node"><title>Node23</title>
<g id="a_node23"><a xlink:href="../../d7/d56/classconfiguration_1_1_ifelse_parser.html#aeb471eacbe15e095075bdd09619fe15d" target="_top" xlink:title="configuration.IfelseParser.parse\lListCommands">
<polygon fill="white" stroke="black" points="460,-408 460,-438 626,-438 626,-408 460,-408"/>
<text text-anchor="start" x="468" y="-426" font-family="Helvetica,sans-Serif" font-size="10.00">configuration.IfelseParser.parse</text>
<text text-anchor="middle" x="543" y="-415" font-family="Helvetica,sans-Serif" font-size="10.00">ListCommands</text>
</a>
</g>
</g>
<!-- Node2&#45;&gt;Node23 -->
<g id="edge25" class="edge"><title>Node2&#45;&gt;Node23</title>
<path fill="none" stroke="midnightblue" d="M330.983,-298.044C353.299,-322.435 397.64,-367.193 444,-393 454.727,-398.972 466.791,-403.903 478.692,-407.922"/>
<polygon fill="midnightblue" stroke="midnightblue" points="333.581,-295.699 324.288,-290.61 328.379,-300.383 333.581,-295.699"/>
</g>
<!-- Node5 -->
<g id="node5" class="node"><title>Node5</title>
<g id="a_node5"><a xlink:href="../../d7/d56/classconfiguration_1_1_ifelse_parser.html#a4b806589536dd338338d515a0fdb67ed" target="_top" xlink:title="configuration.IfelseParser.parse">
<polygon fill="white" stroke="black" points="686,-494.5 686,-513.5 852,-513.5 852,-494.5 686,-494.5"/>
<text text-anchor="middle" x="769" y="-501.5" font-family="Helvetica,sans-Serif" font-size="10.00">configuration.IfelseParser.parse</text>
</a>
</g>
</g>
<!-- Node4&#45;&gt;Node5 -->
<g id="edge4" class="edge"><title>Node4&#45;&gt;Node5</title>
<path fill="none" stroke="midnightblue" d="M643.4,-507.894C657.526,-507.452 671.923,-507.002 685.677,-506.573"/>
<polygon fill="midnightblue" stroke="midnightblue" points="643.06,-504.403 633.174,-508.213 643.279,-511.399 643.06,-504.403"/>
</g>
<!-- Node6 -->
<g id="node6" class="node"><title>Node6</title>
<g id="a_node6"><a xlink:href="../../dc/dd1/classconfiguration_1_1_if_parser.html#ab4ed2d3b7778d2b1206e5d26ebac7976" target="_top" xlink:title="configuration.IfParser.parse">
<polygon fill="white" stroke="black" points="696,-449.5 696,-468.5 842,-468.5 842,-449.5 696,-449.5"/>
<text text-anchor="middle" x="769" y="-456.5" font-family="Helvetica,sans-Serif" font-size="10.00">configuration.IfParser.parse</text>
</a>
</g>
</g>
<!-- Node4&#45;&gt;Node6 -->
<g id="edge5" class="edge"><title>Node4&#45;&gt;Node6</title>
<path fill="none" stroke="midnightblue" d="M618.8,-493.636C654.89,-485.258 696.793,-475.53 726.986,-468.521"/>
<polygon fill="midnightblue" stroke="midnightblue" points="617.74,-490.289 608.79,-495.959 619.323,-497.107 617.74,-490.289"/>
</g>
<!-- Node8 -->
<g id="node8" class="node"><title>Node8</title>
<g id="a_node8"><a xlink:href="../../d3/d0d/classconfiguration_1_1_repeat_parser.html#abf20b0ae25909c1cdff93f509830b502" target="_top" xlink:title="configuration.RepeatParser.parse">
<polygon fill="white" stroke="black" points="900,-366.5 900,-385.5 1074,-385.5 1074,-366.5 900,-366.5"/>
<text text-anchor="middle" x="987" y="-373.5" font-family="Helvetica,sans-Serif" font-size="10.00">configuration.RepeatParser.parse</text>
</a>
</g>
</g>
<!-- Node7&#45;&gt;Node8 -->
<g id="edge7" class="edge"><title>Node7&#45;&gt;Node8</title>
<path fill="none" stroke="midnightblue" d="M865.003,-390.004C877.873,-388.515 890.993,-386.996 903.617,-385.535"/>
<polygon fill="midnightblue" stroke="midnightblue" points="864.28,-386.564 854.749,-391.191 865.085,-393.518 864.28,-386.564"/>
</g>
<!-- Node10 -->
<g id="node10" class="node"><title>Node10</title>
<g id="a_node10"><a xlink:href="../../dc/d64/classconfiguration_1_1_for_parser.html#a2737b422e279cfca7c64fd8eff57d3ff" target="_top" xlink:title="configuration.ForParser.parse">
<polygon fill="white" stroke="black" points="691,-249.5 691,-268.5 847,-268.5 847,-249.5 691,-249.5"/>
<text text-anchor="middle" x="769" y="-256.5" font-family="Helvetica,sans-Serif" font-size="10.00">configuration.ForParser.parse</text>
</a>
</g>
</g>
<!-- Node9&#45;&gt;Node10 -->
<g id="edge9" class="edge"><title>Node9&#45;&gt;Node10</title>
<path fill="none" stroke="midnightblue" d="M629.622,-259C649.778,-259 671.141,-259 690.895,-259"/>
<polygon fill="midnightblue" stroke="midnightblue" points="629.524,-255.5 619.524,-259 629.524,-262.5 629.524,-255.5"/>
</g>
<!-- Node12 -->
<g id="node12" class="node"><title>Node12</title>
<g id="a_node12"><a xlink:href="../../d9/dfc/classconfiguration_1_1_dotimes_parser.html#a63d34c400b9b5715b4a2f9a5d0107e62" target="_top" xlink:title="configuration.DotimesParser.parse\lDotimesIterator">
<polygon fill="white" stroke="black" points="678,-197 678,-227 860,-227 860,-197 678,-197"/>
<text text-anchor="start" x="686" y="-215" font-family="Helvetica,sans-Serif" font-size="10.00">configuration.DotimesParser.parse</text>
<text text-anchor="middle" x="769" y="-204" font-family="Helvetica,sans-Serif" font-size="10.00">DotimesIterator</text>
</a>
</g>
</g>
<!-- Node11&#45;&gt;Node12 -->
<g id="edge11" class="edge"><title>Node11&#45;&gt;Node12</title>
<path fill="none" stroke="midnightblue" d="M642.748,-210.882C654.446,-210.986 666.34,-211.092 677.909,-211.196"/>
<polygon fill="midnightblue" stroke="midnightblue" points="642.562,-207.38 632.531,-210.79 642.499,-214.38 642.562,-207.38"/>
</g>
<!-- Node13 -->
<g id="node13" class="node"><title>Node13</title>
<g id="a_node13"><a xlink:href="../../d9/dfc/classconfiguration_1_1_dotimes_parser.html#abf0eb9bddfa4a09adc745008e17b293b" target="_top" xlink:title="configuration.DotimesParser.parse">
<polygon fill="white" stroke="black" points="896,-178.5 896,-197.5 1078,-197.5 1078,-178.5 896,-178.5"/>
<text text-anchor="middle" x="987" y="-185.5" font-family="Helvetica,sans-Serif" font-size="10.00">configuration.DotimesParser.parse</text>
</a>
</g>
</g>
<!-- Node12&#45;&gt;Node13 -->
<g id="edge12" class="edge"><title>Node12&#45;&gt;Node13</title>
<path fill="none" stroke="midnightblue" d="M870.081,-200.88C880.166,-199.759 890.344,-198.628 900.26,-197.527"/>
<polygon fill="midnightblue" stroke="midnightblue" points="869.592,-197.413 860.039,-201.996 870.365,-204.37 869.592,-197.413"/>
</g>
<!-- Node17 -->
<g id="node17" class="node"><title>Node17</title>
<g id="a_node17"><a xlink:href="../../dc/d64/classconfiguration_1_1_for_parser.html#ad3cb5184cf449bd3414f3ba73a8b3104" target="_top" xlink:title="configuration.ForParser.parse\lCommands">
<polygon fill="white" stroke="black" points="691,-39 691,-69 847,-69 847,-39 691,-39"/>
<text text-anchor="start" x="699" y="-57" font-family="Helvetica,sans-Serif" font-size="10.00">configuration.ForParser.parse</text>
<text text-anchor="middle" x="769" y="-46" font-family="Helvetica,sans-Serif" font-size="10.00">Commands</text>
</a>
</g>
</g>
<!-- Node16&#45;&gt;Node17 -->
<g id="edge16" class="edge"><title>Node16&#45;&gt;Node17</title>
<path fill="none" stroke="midnightblue" d="M638.838,-52.8468C656.214,-53.0019 674.155,-53.1621 690.934,-53.3119"/>
<polygon fill="midnightblue" stroke="midnightblue" points="638.716,-49.3456 628.685,-52.7561 638.653,-56.3454 638.716,-49.3456"/>
</g>
<!-- Node19 -->
<g id="node19" class="node"><title>Node19</title>
<g id="a_node19"><a xlink:href="../../d3/d0d/classconfiguration_1_1_repeat_parser.html#aed07d335bcd1174cb4247a7add0d3315" target="_top" xlink:title="configuration.RepeatParser.parse\lCommands">
<polygon fill="white" stroke="black" points="682,-337 682,-367 856,-367 856,-337 682,-337"/>
<text text-anchor="start" x="690" y="-355" font-family="Helvetica,sans-Serif" font-size="10.00">configuration.RepeatParser.parse</text>
<text text-anchor="middle" x="769" y="-344" font-family="Helvetica,sans-Serif" font-size="10.00">Commands</text>
</a>
</g>
</g>
<!-- Node18&#45;&gt;Node19 -->
<g id="edge18" class="edge"><title>Node18&#45;&gt;Node19</title>
<path fill="none" stroke="midnightblue" d="M647.693,-346.092C659.115,-346.653 670.652,-347.22 681.826,-347.768"/>
<polygon fill="midnightblue" stroke="midnightblue" points="647.858,-342.596 637.698,-345.601 647.515,-349.588 647.858,-342.596"/>
</g>
<!-- Node18&#45;&gt;Node20 -->
<g id="edge20" class="edge"><title>Node18&#45;&gt;Node20</title>
<path fill="none" stroke="midnightblue" d="M610.285,-329.755C632.644,-325.962 657.936,-321.672 681.615,-317.655"/>
<polygon fill="midnightblue" stroke="midnightblue" points="609.509,-326.337 600.236,-331.46 610.68,-333.238 609.509,-326.337"/>
</g>
<!-- Node19&#45;&gt;Node8 -->
<g id="edge19" class="edge"><title>Node19&#45;&gt;Node8</title>
<path fill="none" stroke="midnightblue" d="M866.538,-362.726C877.752,-363.972 889.133,-365.237 900.189,-366.465"/>
<polygon fill="midnightblue" stroke="midnightblue" points="866.626,-359.215 856.3,-361.589 865.852,-366.172 866.626,-359.215"/>
</g>
<!-- Node22 -->
<g id="node22" class="node"><title>Node22</title>
<g id="a_node22"><a xlink:href="../../d9/dfc/classconfiguration_1_1_dotimes_parser.html#a6086c4c4651b29dd968bf4728bd71d0c" target="_top" xlink:title="configuration.DotimesParser.parse\lCommands">
<polygon fill="white" stroke="black" points="678,-148 678,-178 860,-178 860,-148 678,-148"/>
<text text-anchor="start" x="686" y="-166" font-family="Helvetica,sans-Serif" font-size="10.00">configuration.DotimesParser.parse</text>
<text text-anchor="middle" x="769" y="-155" font-family="Helvetica,sans-Serif" font-size="10.00">Commands</text>
</a>
</g>
</g>
<!-- Node21&#45;&gt;Node22 -->
<g id="edge22" class="edge"><title>Node21&#45;&gt;Node22</title>
<path fill="none" stroke="midnightblue" d="M651.785,-164.556C660.488,-164.44 669.224,-164.323 677.783,-164.208"/>
<polygon fill="midnightblue" stroke="midnightblue" points="651.55,-161.059 641.598,-164.693 651.644,-168.059 651.55,-161.059"/>
</g>
<!-- Node22&#45;&gt;Node13 -->
<g id="edge23" class="edge"><title>Node22&#45;&gt;Node13</title>
<path fill="none" stroke="midnightblue" d="M870.272,-174.606C881.464,-175.901 892.767,-177.209 903.698,-178.474"/>
<polygon fill="midnightblue" stroke="midnightblue" points="870.375,-171.094 860.039,-173.421 869.571,-178.048 870.375,-171.094"/>
</g>
<!-- Node23&#45;&gt;Node5 -->
<g id="edge26" class="edge"><title>Node23&#45;&gt;Node5</title>
<path fill="none" stroke="midnightblue" d="M627.535,-441.536C632.518,-443.491 637.379,-445.639 642,-448 660.548,-457.474 659.604,-468.235 678,-478 691.36,-485.092 706.891,-490.462 721.252,-494.426"/>
<polygon fill="midnightblue" stroke="midnightblue" points="628.427,-438.136 617.833,-438.013 626.038,-444.716 628.427,-438.136"/>
</g>
<!-- Node23&#45;&gt;Node6 -->
<g id="edge27" class="edge"><title>Node23&#45;&gt;Node6</title>
<path fill="none" stroke="midnightblue" d="M636.171,-437.813C660.657,-441.749 686.45,-445.894 708.663,-449.464"/>
<polygon fill="midnightblue" stroke="midnightblue" points="636.566,-434.332 626.137,-436.201 635.455,-441.243 636.566,-434.332"/>
</g>
<!-- Node24&#45;&gt;Node4 -->
<g id="edge29" class="edge"><title>Node24&#45;&gt;Node4</title>
<path fill="none" stroke="midnightblue" d="M342.805,-440.386C368.279,-453.615 407.943,-473.081 444,-486 454.166,-489.642 465.103,-492.978 475.854,-495.943"/>
<polygon fill="midnightblue" stroke="midnightblue" points="344.256,-437.194 333.774,-435.647 341.004,-443.393 344.256,-437.194"/>
</g>
<!-- Node26 -->
<g id="node26" class="node"><title>Node26</title>
<g id="a_node26"><a xlink:href="../../d3/d71/classgui_1_1_user_input_box.html#a97af345e01f003fb2eab983e845422f2" target="_top" xlink:title="gui.UserInputBox.doInput">
<polygon fill="white" stroke="black" points="474.5,-3.5 474.5,-22.5 611.5,-22.5 611.5,-3.5 474.5,-3.5"/>
<text text-anchor="middle" x="543" y="-10.5" font-family="Helvetica,sans-Serif" font-size="10.00">gui.UserInputBox.doInput</text>
</a>
</g>
</g>
<!-- Node25&#45;&gt;Node26 -->
<g id="edge31" class="edge"><title>Node25&#45;&gt;Node26</title>
<path fill="none" stroke="midnightblue" d="M331.502,-121.656C353.883,-97.7661 397.673,-55.1779 444,-33 453.476,-28.4637 463.946,-24.9545 474.412,-22.2403"/>
<polygon fill="midnightblue" stroke="midnightblue" points="328.7,-119.532 324.509,-129.262 333.853,-124.269 328.7,-119.532"/>
</g>
<!-- Node27 -->
<g id="node27" class="node"><title>Node27</title>
<g id="a_node27"><a xlink:href="../../d3/d71/classgui_1_1_user_input_box.html#a2fc8903ae3868c350deb7b6caef9527d" target="_top" xlink:title="gui.UserInputBox.UserInputBox">
<polygon fill="white" stroke="black" points="686,-0.5 686,-19.5 852,-19.5 852,-0.5 686,-0.5"/>
<text text-anchor="middle" x="769" y="-7.5" font-family="Helvetica,sans-Serif" font-size="10.00">gui.UserInputBox.UserInputBox</text>
</a>
</g>
</g>
<!-- Node26&#45;&gt;Node27 -->
<g id="edge32" class="edge"><title>Node26&#45;&gt;Node27</title>
<path fill="none" stroke="midnightblue" d="M621.572,-11.9611C642.383,-11.6824 664.95,-11.3801 685.993,-11.0983"/>
<polygon fill="midnightblue" stroke="midnightblue" points="621.463,-8.46213 611.511,-12.0958 621.557,-15.4615 621.463,-8.46213"/>
</g>
</g>
</svg>
        <g id="navigator" transform="translate(0 0)" fill="#404254">
                <rect fill="#f2f5e9" fill-opacity="0.5" stroke="#606060" stroke-width=".5" x="0" y="0" width="60" height="60"/>
                <use id="zoomplus" xlink:href="#zoomPlus" x="17" y="9" onmousedown="handleZoom(evt,'in')"/>
                <use id="zoomminus" xlink:href="#zoomMin" x="42" y="9" onmousedown="handleZoom(evt,'out')"/>
                <use id="reset" xlink:href="#resetDef" x="30" y="36" onmousedown="handleReset()"/>
                <g id="arrowUp" xlink:href="#dirArrow" transform="translate(30 24)" onmousedown="handlePan(0,-1)">
                  <use xlink:href="#rim" fill="#404040">
                        <set attributeName="fill" to="#808080" begin="arrowUp.mouseover" end="arrowUp.mouseout"/>
                  </use>
                  <path fill="none" stroke="white" stroke-width="1.5" d="M0,-3.0v7 M-2.5,-0.5L0,-3.0L2.5,-0.5"/>
                </g>
                <g id="arrowRight" xlink:href="#dirArrow" transform="rotate(90) translate(36 -43)" onmousedown="handlePan(1,0)">
                  <use xlink:href="#rim" fill="#404040">
                        <set attributeName="fill" to="#808080" begin="arrowRight.mouseover" end="arrowRight.mouseout"/>
                  </use>
                  <path fill="none" stroke="white" stroke-width="1.5" d="M0,-3.0v7 M-2.5,-0.5L0,-3.0L2.5,-0.5"/>
                </g>
                <g id="arrowDown" xlink:href="#dirArrow" transform="rotate(180) translate(-30 -48)" onmousedown="handlePan(0,1)">
                  <use xlink:href="#rim" fill="#404040">
                        <set attributeName="fill" to="#808080" begin="arrowDown.mouseover" end="arrowDown.mouseout"/>
                  </use>
                  <path fill="none" stroke="white" stroke-width="1.5" d="M0,-3.0v7 M-2.5,-0.5L0,-3.0L2.5,-0.5"/>
                </g>
                <g id="arrowLeft" xlink:href="#dirArrow" transform="rotate(270) translate(-36 17)" onmousedown="handlePan(-1,0)">
                  <use xlink:href="#rim" fill="#404040">
                        <set attributeName="fill" to="#808080" begin="arrowLeft.mouseover" end="arrowLeft.mouseout"/>
                  </use>
                  <path fill="none" stroke="white" stroke-width="1.5" d="M0,-3.0v7 M-2.5,-0.5L0,-3.0L2.5,-0.5"/>
                </g>
        </g>
        <svg viewBox="0 0 15 15" width="100%" height="30px" preserveAspectRatio="xMaxYMin meet">
         <g id="arrow_out" transform="scale(0.3 0.3)">
          <a xlink:href="classconfiguration_1_1_util_a55c271426926996186d1cde227ae7e23_icgraph_org.svg" target="_base">
           <rect id="button" ry="5" rx="5" y="6" x="6" height="38" width="38"
                fill="#f2f5e9" fill-opacity="0.5" stroke="#606060" stroke-width="1.0"/>
           <path id="arrow"
             d="M 11.500037,31.436501 C 11.940474,20.09759 22.043105,11.32322 32.158766,21.979434 L 37.068811,17.246167 C 37.068811,17.246167 37.088388,32 37.088388,32 L 22.160133,31.978069 C 22.160133,31.978069 26.997745,27.140456 26.997745,27.140456 C 18.528582,18.264221 13.291696,25.230495 11.500037,31.436501 z"
             style="fill:#404040;"/>
          </a>
         </g>
        </svg>
</svg>
