<?xml version="1.0" encoding="UTF-8" standalone="no"?>
<!DOCTYPE svg PUBLIC "-//W3C//DTD SVG 1.1//EN"
 "http://www.w3.org/Graphics/SVG/1.1/DTD/svg11.dtd">
<!-- Generated by graphviz version 2.36.0 (20140111.2315)
 -->
<!-- Title: configuration.Util.match Pages: 1 -->
<svg width="1254pt" height="503pt"
 viewBox="0.00 0.00 1254.00 503.00" xmlns="http://www.w3.org/2000/svg" xmlns:xlink="http://www.w3.org/1999/xlink">
<g id="graph0" class="graph" transform="scale(1 1) rotate(0) translate(4 499)">
<title>configuration.Util.match</title>
<polygon fill="white" stroke="none" points="-4,4 -4,-499 1250,-499 1250,4 -4,4"/>
<!-- Node1 -->
<g id="node1" class="node"><title>Node1</title>
<polygon fill="#bfbfbf" stroke="black" points="0.5,-262.5 0.5,-281.5 131.5,-281.5 131.5,-262.5 0.5,-262.5"/>
<text text-anchor="middle" x="66" y="-269.5" font-family="Helvetica,sans-Serif" font-size="10.00">configuration.Util.match</text>
</g>
<!-- Node2 -->
<g id="node2" class="node"><title>Node2</title>
<g id="a_node2"><a xlink:href="../../da/dde/classconfiguration_1_1_util.html#a55c271426926996186d1cde227ae7e23" target="_top" xlink:title="configuration.Util.findCommandKey">
<polygon fill="white" stroke="black" points="168.5,-262.5 168.5,-281.5 353.5,-281.5 353.5,-262.5 168.5,-262.5"/>
<text text-anchor="middle" x="261" y="-269.5" font-family="Helvetica,sans-Serif" font-size="10.00">configuration.Util.findCommandKey</text>
</a>
</g>
</g>
<!-- Node1&#45;&gt;Node2 -->
<g id="edge1" class="edge"><title>Node1&#45;&gt;Node2</title>
<path fill="none" stroke="midnightblue" d="M141.673,-272C150.425,-272 159.429,-272 168.377,-272"/>
<polygon fill="midnightblue" stroke="midnightblue" points="141.535,-268.5 131.535,-272 141.534,-275.5 141.535,-268.5"/>
</g>
<!-- Node3 -->
<g id="node3" class="node"><title>Node3</title>
<g id="a_node3"><a xlink:href="../../d9/d11/classconfiguration_1_1_parser.html#ae0480f44c9defa614fb470ab154fa60b" target="_top" xlink:title="configuration.Parser.buildTree">
<polygon fill="white" stroke="black" points="405,-262.5 405,-281.5 561,-281.5 561,-262.5 405,-262.5"/>
<text text-anchor="middle" x="483" y="-269.5" font-family="Helvetica,sans-Serif" font-size="10.00">configuration.Parser.buildTree</text>
</a>
</g>
</g>
<!-- Node2&#45;&gt;Node3 -->
<g id="edge2" class="edge"><title>Node2&#45;&gt;Node3</title>
<path fill="none" stroke="midnightblue" d="M363.711,-272C377.509,-272 391.482,-272 404.755,-272"/>
<polygon fill="midnightblue" stroke="midnightblue" points="363.707,-268.5 353.707,-272 363.707,-275.5 363.707,-268.5"/>
</g>
<!-- Node24 -->
<g id="node24" class="node"><title>Node24</title>
<g id="a_node24"><a xlink:href="../../d7/d56/classconfiguration_1_1_ifelse_parser.html#a6098b84b1c6e73b18db5e016da7fece1" target="_top" xlink:title="configuration.IfelseParser.isboolean">
<polygon fill="white" stroke="black" points="390.5,-385.5 390.5,-404.5 575.5,-404.5 575.5,-385.5 390.5,-385.5"/>
<text text-anchor="middle" x="483" y="-392.5" font-family="Helvetica,sans-Serif" font-size="10.00">configuration.IfelseParser.isboolean</text>
</a>
</g>
</g>
<!-- Node2&#45;&gt;Node24 -->
<g id="edge28" class="edge"><title>Node2&#45;&gt;Node24</title>
<path fill="none" stroke="midnightblue" d="M288.243,-286.672C333.844,-312.168 426.498,-363.969 464.817,-385.393"/>
<polygon fill="midnightblue" stroke="midnightblue" points="289.699,-283.477 279.263,-281.652 286.283,-289.587 289.699,-283.477"/>
</g>
<!-- Node25 -->
<g id="node25" class="node"><title>Node25</title>
<g id="a_node25"><a xlink:href="../../d0/da7/classconfiguration_1_1_basic_parser.html#ab316d3a3f9ec49ba6922087948e76901" target="_top" xlink:title="configuration.BasicParser.parse">
<polygon fill="white" stroke="black" points="399.5,-114.5 399.5,-133.5 566.5,-133.5 566.5,-114.5 399.5,-114.5"/>
<text text-anchor="middle" x="483" y="-121.5" font-family="Helvetica,sans-Serif" font-size="10.00">configuration.BasicParser.parse</text>
</a>
</g>
</g>
<!-- Node2&#45;&gt;Node25 -->
<g id="edge30" class="edge"><title>Node2&#45;&gt;Node25</title>
<path fill="none" stroke="midnightblue" d="M284.733,-256.707C330.078,-226.202 430.6,-158.578 467.798,-133.554"/>
<polygon fill="midnightblue" stroke="midnightblue" points="282.778,-253.803 276.435,-262.289 286.686,-259.612 282.778,-253.803"/>
</g>
<!-- Node4 -->
<g id="node4" class="node"><title>Node4</title>
<g id="a_node4"><a xlink:href="../../d9/d11/classconfiguration_1_1_parser.html#a041ccb70bd9dee77d512d8469c15c14f" target="_top" xlink:title="configuration.Parser.buildTree">
<polygon fill="white" stroke="black" points="633,-350.5 633,-369.5 789,-369.5 789,-350.5 633,-350.5"/>
<text text-anchor="middle" x="711" y="-357.5" font-family="Helvetica,sans-Serif" font-size="10.00">configuration.Parser.buildTree</text>
</a>
</g>
</g>
<!-- Node3&#45;&gt;Node4 -->
<g id="edge3" class="edge"><title>Node3&#45;&gt;Node4</title>
<path fill="none" stroke="midnightblue" d="M507.457,-287.121C532.431,-302.571 573.571,-326.197 612,-340 623.848,-344.256 636.846,-347.705 649.391,-350.463"/>
<polygon fill="midnightblue" stroke="midnightblue" points="509.048,-283.987 498.717,-281.637 505.327,-289.917 509.048,-283.987"/>
</g>
<!-- Node5 -->
<g id="node5" class="node"><title>Node5</title>
<g id="a_node5"><a xlink:href="../../d7/d56/classconfiguration_1_1_ifelse_parser.html#aef13959a758ccbf8dab0a3f5f94a7be0" target="_top" xlink:title="configuration.IfelseParser.evaluate\lBoolExpr">
<polygon fill="white" stroke="black" points="621,-465 621,-495 801,-495 801,-465 621,-465"/>
<text text-anchor="start" x="629" y="-483" font-family="Helvetica,sans-Serif" font-size="10.00">configuration.IfelseParser.evaluate</text>
<text text-anchor="middle" x="711" y="-472" font-family="Helvetica,sans-Serif" font-size="10.00">BoolExpr</text>
</a>
</g>
</g>
<!-- Node3&#45;&gt;Node5 -->
<g id="edge4" class="edge"><title>Node3&#45;&gt;Node5</title>
<path fill="none" stroke="midnightblue" d="M501.415,-288.47C521.319,-307.967 553.979,-342.088 576,-376 597.013,-408.361 582.402,-430.247 612,-455 616.58,-458.83 621.671,-462.084 627.058,-464.846"/>
<polygon fill="midnightblue" stroke="midnightblue" points="503.841,-285.947 494.218,-281.514 498.976,-290.98 503.841,-285.947"/>
</g>
<!-- Node8 -->
<g id="node8" class="node"><title>Node8</title>
<g id="a_node8"><a xlink:href="../../d3/d0d/classconfiguration_1_1_repeat_parser.html#ab218ee8c24e4dab18c02cd4a536d15d3" target="_top" xlink:title="configuration.RepeatParser.fetch\lNumericExpr">
<polygon fill="white" stroke="black" points="851.5,-235 851.5,-265 1022.5,-265 1022.5,-235 851.5,-235"/>
<text text-anchor="start" x="859.5" y="-253" font-family="Helvetica,sans-Serif" font-size="10.00">configuration.RepeatParser.fetch</text>
<text text-anchor="middle" x="937" y="-242" font-family="Helvetica,sans-Serif" font-size="10.00">NumericExpr</text>
</a>
</g>
</g>
<!-- Node3&#45;&gt;Node8 -->
<g id="edge7" class="edge"><title>Node3&#45;&gt;Node8</title>
<path fill="none" stroke="midnightblue" d="M546.7,-260.928C567.42,-257.742 590.635,-254.676 612,-253 693.036,-246.641 785.818,-246.505 851.268,-247.593"/>
<polygon fill="midnightblue" stroke="midnightblue" points="546.081,-257.482 536.748,-262.496 547.171,-264.397 546.081,-257.482"/>
</g>
<!-- Node10 -->
<g id="node10" class="node"><title>Node10</title>
<g id="a_node10"><a xlink:href="../../d9/dfc/classconfiguration_1_1_dotimes_parser.html#a26cc7f8e0a21d93091bfe8884a924450" target="_top" xlink:title="configuration.DotimesParser.fetch\lNumericExpr">
<polygon fill="white" stroke="black" points="621.5,-137 621.5,-167 800.5,-167 800.5,-137 621.5,-137"/>
<text text-anchor="start" x="629.5" y="-155" font-family="Helvetica,sans-Serif" font-size="10.00">configuration.DotimesParser.fetch</text>
<text text-anchor="middle" x="711" y="-144" font-family="Helvetica,sans-Serif" font-size="10.00">NumericExpr</text>
</a>
</g>
</g>
<!-- Node3&#45;&gt;Node10 -->
<g id="edge9" class="edge"><title>Node3&#45;&gt;Node10</title>
<path fill="none" stroke="midnightblue" d="M501.427,-255.53C524.795,-234.324 568.41,-197.741 612,-177 620.086,-173.152 628.84,-169.845 637.674,-167.017"/>
<polygon fill="midnightblue" stroke="midnightblue" points="499.021,-252.988 494.039,-262.338 503.765,-258.135 499.021,-252.988"/>
</g>
<!-- Node13 -->
<g id="node13" class="node"><title>Node13</title>
<g id="a_node13"><a xlink:href="../../dc/d64/classconfiguration_1_1_for_parser.html#a95aeb8afdb254389dcef062be1cf2727" target="_top" xlink:title="configuration.ForParser.fetch\lNumericExpr">
<polygon fill="white" stroke="black" points="860.5,-39 860.5,-69 1013.5,-69 1013.5,-39 860.5,-39"/>
<text text-anchor="start" x="868.5" y="-57" font-family="Helvetica,sans-Serif" font-size="10.00">configuration.ForParser.fetch</text>
<text text-anchor="middle" x="937" y="-46" font-family="Helvetica,sans-Serif" font-size="10.00">NumericExpr</text>
</a>
</g>
</g>
<!-- Node3&#45;&gt;Node13 -->
<g id="edge12" class="edge"><title>Node3&#45;&gt;Node13</title>
<path fill="none" stroke="midnightblue" d="M497.049,-254.373C515.177,-229.736 548.818,-183.473 576,-143 592.705,-118.126 586.502,-101.737 612,-86 686.916,-39.7627 790.603,-37.9421 860.322,-43.6067"/>
<polygon fill="midnightblue" stroke="midnightblue" points="494.232,-252.296 491.113,-262.421 499.866,-256.451 494.232,-252.296"/>
</g>
<!-- Node15 -->
<g id="node15" class="node"><title>Node15</title>
<g id="a_node15"><a xlink:href="../../db/d22/classconfiguration_1_1_set_parser.html#a4f20258805caaf18872872d5283a0e74" target="_top" xlink:title="configuration.SetParser.parse">
<polygon fill="white" stroke="black" points="632,-426.5 632,-445.5 790,-445.5 790,-426.5 632,-426.5"/>
<text text-anchor="middle" x="711" y="-433.5" font-family="Helvetica,sans-Serif" font-size="10.00">configuration.SetParser.parse</text>
</a>
</g>
</g>
<!-- Node3&#45;&gt;Node15 -->
<g id="edge14" class="edge"><title>Node3&#45;&gt;Node15</title>
<path fill="none" stroke="midnightblue" d="M499.402,-289.372C517.69,-310.007 549.103,-345.481 576,-376 592.034,-394.193 590.966,-404.932 612,-417 618.765,-420.881 626.179,-423.985 633.806,-426.464"/>
<polygon fill="midnightblue" stroke="midnightblue" points="501.889,-286.901 492.637,-281.739 496.651,-291.544 501.889,-286.901"/>
</g>
<!-- Node16 -->
<g id="node16" class="node"><title>Node16</title>
<g id="a_node16"><a xlink:href="../../d0/da7/classconfiguration_1_1_basic_parser.html#a22bf37b374167e497f639182e7459517" target="_top" xlink:title="configuration.BasicParser.parse">
<polygon fill="white" stroke="black" points="627.5,-388.5 627.5,-407.5 794.5,-407.5 794.5,-388.5 627.5,-388.5"/>
<text text-anchor="middle" x="711" y="-395.5" font-family="Helvetica,sans-Serif" font-size="10.00">configuration.BasicParser.parse</text>
</a>
</g>
</g>
<!-- Node3&#45;&gt;Node16 -->
<g id="edge15" class="edge"><title>Node3&#45;&gt;Node16</title>
<path fill="none" stroke="midnightblue" d="M499.101,-289.212C521.3,-313.339 565.203,-356.746 612,-379 620.217,-382.907 629.185,-386.011 638.251,-388.477"/>
<polygon fill="midnightblue" stroke="midnightblue" points="501.484,-286.628 492.185,-281.549 496.287,-291.318 501.484,-286.628"/>
</g>
<!-- Node17 -->
<g id="node17" class="node"><title>Node17</title>
<g id="a_node17"><a xlink:href="../../d3/d0d/classconfiguration_1_1_repeat_parser.html#a27c7e86622dda996677d34987f702cb6" target="_top" xlink:title="configuration.RepeatParser.parseFor">
<polygon fill="white" stroke="black" points="616.5,-262.5 616.5,-281.5 805.5,-281.5 805.5,-262.5 616.5,-262.5"/>
<text text-anchor="middle" x="711" y="-269.5" font-family="Helvetica,sans-Serif" font-size="10.00">configuration.RepeatParser.parseFor</text>
</a>
</g>
</g>
<!-- Node3&#45;&gt;Node17 -->
<g id="edge16" class="edge"><title>Node3&#45;&gt;Node17</title>
<path fill="none" stroke="midnightblue" d="M571.268,-272C586.054,-272 601.461,-272 616.401,-272"/>
<polygon fill="midnightblue" stroke="midnightblue" points="571.144,-268.5 561.144,-272 571.144,-275.5 571.144,-268.5"/>
</g>
<!-- Node19 -->
<g id="node19" class="node"><title>Node19</title>
<g id="a_node19"><a xlink:href="../../dc/d64/classconfiguration_1_1_for_parser.html#a6bc38f731ac658c5860fe092ba7689ac" target="_top" xlink:title="configuration.ForParser.parseFor">
<polygon fill="white" stroke="black" points="625.5,-95.5 625.5,-114.5 796.5,-114.5 796.5,-95.5 625.5,-95.5"/>
<text text-anchor="middle" x="711" y="-102.5" font-family="Helvetica,sans-Serif" font-size="10.00">configuration.ForParser.parseFor</text>
</a>
</g>
</g>
<!-- Node3&#45;&gt;Node19 -->
<g id="edge19" class="edge"><title>Node3&#45;&gt;Node19</title>
<path fill="none" stroke="midnightblue" d="M494.642,-253.795C513.873,-222.611 557.523,-159.228 612,-127 621.005,-121.673 631.172,-117.634 641.462,-114.573"/>
<polygon fill="midnightblue" stroke="midnightblue" points="491.638,-251.998 489.472,-262.369 497.633,-255.612 491.638,-251.998"/>
</g>
<!-- Node21 -->
<g id="node21" class="node"><title>Node21</title>
<g id="a_node21"><a xlink:href="../../d9/dfc/classconfiguration_1_1_dotimes_parser.html#aff41ee5ce2eeff82f7586bd1cf6a91c8" target="_top" xlink:title="configuration.DotimesParser.parseFor">
<polygon fill="white" stroke="black" points="612.5,-186.5 612.5,-205.5 809.5,-205.5 809.5,-186.5 612.5,-186.5"/>
<text text-anchor="middle" x="711" y="-193.5" font-family="Helvetica,sans-Serif" font-size="10.00">configuration.DotimesParser.parseFor</text>
</a>
</g>
</g>
<!-- Node3&#45;&gt;Node21 -->
<g id="edge22" class="edge"><title>Node3&#45;&gt;Node21</title>
<path fill="none" stroke="midnightblue" d="M514.13,-258.303C539.781,-246.997 577.802,-231.069 612,-220 629.165,-214.444 648.382,-209.474 665.221,-205.517"/>
<polygon fill="midnightblue" stroke="midnightblue" points="512.654,-255.129 504.939,-262.39 515.499,-261.525 512.654,-255.129"/>
</g>
<!-- Node23 -->
<g id="node23" class="node"><title>Node23</title>
<g id="a_node23"><a xlink:href="../../d7/d56/classconfiguration_1_1_ifelse_parser.html#aeb471eacbe15e095075bdd09619fe15d" target="_top" xlink:title="configuration.IfelseParser.parse\lListCommands">
<polygon fill="white" stroke="black" points="628,-301 628,-331 794,-331 794,-301 628,-301"/>
<text text-anchor="start" x="636" y="-319" font-family="Helvetica,sans-Serif" font-size="10.00">configuration.IfelseParser.parse</text>
<text text-anchor="middle" x="711" y="-308" font-family="Helvetica,sans-Serif" font-size="10.00">ListCommands</text>
</a>
</g>
</g>
<!-- Node3&#45;&gt;Node23 -->
<g id="edge25" class="edge"><title>Node3&#45;&gt;Node23</title>
<path fill="none" stroke="midnightblue" d="M542.866,-283.461C570.269,-288.796 603.234,-295.214 632.619,-300.935"/>
<polygon fill="midnightblue" stroke="midnightblue" points="543.523,-280.023 533.039,-281.547 542.185,-286.894 543.523,-280.023"/>
</g>
<!-- Node6 -->
<g id="node6" class="node"><title>Node6</title>
<g id="a_node6"><a xlink:href="../../d7/d56/classconfiguration_1_1_ifelse_parser.html#a4b806589536dd338338d515a0fdb67ed" target="_top" xlink:title="configuration.IfelseParser.parse">
<polygon fill="white" stroke="black" points="854,-382.5 854,-401.5 1020,-401.5 1020,-382.5 854,-382.5"/>
<text text-anchor="middle" x="937" y="-389.5" font-family="Helvetica,sans-Serif" font-size="10.00">configuration.IfelseParser.parse</text>
</a>
</g>
</g>
<!-- Node5&#45;&gt;Node6 -->
<g id="edge5" class="edge"><title>Node5&#45;&gt;Node6</title>
<path fill="none" stroke="midnightblue" d="M789.278,-462.124C796.353,-459.937 803.354,-457.56 810,-455 826.882,-448.497 829.871,-444.196 846,-436 869.878,-423.866 897.597,-410.408 915.894,-401.61"/>
<polygon fill="midnightblue" stroke="midnightblue" points="788.203,-458.791 779.609,-464.987 790.191,-465.503 788.203,-458.791"/>
</g>
<!-- Node7 -->
<g id="node7" class="node"><title>Node7</title>
<g id="a_node7"><a xlink:href="../../dc/dd1/classconfiguration_1_1_if_parser.html#ab4ed2d3b7778d2b1206e5d26ebac7976" target="_top" xlink:title="configuration.IfParser.parse">
<polygon fill="white" stroke="black" points="864,-445.5 864,-464.5 1010,-464.5 1010,-445.5 864,-445.5"/>
<text text-anchor="middle" x="937" y="-452.5" font-family="Helvetica,sans-Serif" font-size="10.00">configuration.IfParser.parse</text>
</a>
</g>
</g>
<!-- Node5&#45;&gt;Node7 -->
<g id="edge6" class="edge"><title>Node5&#45;&gt;Node7</title>
<path fill="none" stroke="midnightblue" d="M811.457,-468.9C829.027,-466.939 847.013,-464.932 863.658,-463.074"/>
<polygon fill="midnightblue" stroke="midnightblue" points="810.724,-465.46 801.174,-470.048 811.501,-472.417 810.724,-465.46"/>
</g>
<!-- Node9 -->
<g id="node9" class="node"><title>Node9</title>
<g id="a_node9"><a xlink:href="../../d3/d0d/classconfiguration_1_1_repeat_parser.html#abf20b0ae25909c1cdff93f509830b502" target="_top" xlink:title="configuration.RepeatParser.parse">
<polygon fill="white" stroke="black" points="1068,-264.5 1068,-283.5 1242,-283.5 1242,-264.5 1068,-264.5"/>
<text text-anchor="middle" x="1155" y="-271.5" font-family="Helvetica,sans-Serif" font-size="10.00">configuration.RepeatParser.parse</text>
</a>
</g>
</g>
<!-- Node8&#45;&gt;Node9 -->
<g id="edge8" class="edge"><title>Node8&#45;&gt;Node9</title>
<path fill="none" stroke="midnightblue" d="M1033.03,-260.559C1044.81,-261.868 1056.8,-263.2 1068.43,-264.492"/>
<polygon fill="midnightblue" stroke="midnightblue" points="1033.07,-257.042 1022.75,-259.417 1032.3,-264 1033.07,-257.042"/>
</g>
<!-- Node11 -->
<g id="node11" class="node"><title>Node11</title>
<g id="a_node11"><a xlink:href="../../d9/dfc/classconfiguration_1_1_dotimes_parser.html#a63d34c400b9b5715b4a2f9a5d0107e62" target="_top" xlink:title="configuration.DotimesParser.parse\lDotimesIterator">
<polygon fill="white" stroke="black" points="846,-137 846,-167 1028,-167 1028,-137 846,-137"/>
<text text-anchor="start" x="854" y="-155" font-family="Helvetica,sans-Serif" font-size="10.00">configuration.DotimesParser.parse</text>
<text text-anchor="middle" x="937" y="-144" font-family="Helvetica,sans-Serif" font-size="10.00">DotimesIterator</text>
</a>
</g>
</g>
<!-- Node10&#45;&gt;Node11 -->
<g id="edge10" class="edge"><title>Node10&#45;&gt;Node11</title>
<path fill="none" stroke="midnightblue" d="M810.748,-152C822.446,-152 834.34,-152 845.909,-152"/>
<polygon fill="midnightblue" stroke="midnightblue" points="810.531,-148.5 800.531,-152 810.531,-155.5 810.531,-148.5"/>
</g>
<!-- Node12 -->
<g id="node12" class="node"><title>Node12</title>
<g id="a_node12"><a xlink:href="../../d9/dfc/classconfiguration_1_1_dotimes_parser.html#abf0eb9bddfa4a09adc745008e17b293b" target="_top" xlink:title="configuration.DotimesParser.parse">
<polygon fill="white" stroke="black" points="1064,-166.5 1064,-185.5 1246,-185.5 1246,-166.5 1064,-166.5"/>
<text text-anchor="middle" x="1155" y="-173.5" font-family="Helvetica,sans-Serif" font-size="10.00">configuration.DotimesParser.parse</text>
</a>
</g>
</g>
<!-- Node11&#45;&gt;Node12 -->
<g id="edge11" class="edge"><title>Node11&#45;&gt;Node12</title>
<path fill="none" stroke="midnightblue" d="M1038.08,-163.12C1048.17,-164.241 1058.34,-165.372 1068.26,-166.473"/>
<polygon fill="midnightblue" stroke="midnightblue" points="1038.36,-159.63 1028.04,-162.004 1037.59,-166.587 1038.36,-159.63"/>
</g>
<!-- Node14 -->
<g id="node14" class="node"><title>Node14</title>
<g id="a_node14"><a xlink:href="../../dc/d64/classconfiguration_1_1_for_parser.html#a2737b422e279cfca7c64fd8eff57d3ff" target="_top" xlink:title="configuration.ForParser.parse">
<polygon fill="white" stroke="black" points="1077,-69.5 1077,-88.5 1233,-88.5 1233,-69.5 1077,-69.5"/>
<text text-anchor="middle" x="1155" y="-76.5" font-family="Helvetica,sans-Serif" font-size="10.00">configuration.ForParser.parse</text>
</a>
</g>
</g>
<!-- Node13&#45;&gt;Node14 -->
<g id="edge13" class="edge"><title>Node13&#45;&gt;Node14</title>
<path fill="none" stroke="midnightblue" d="M1023.73,-63.9224C1041.21,-65.9454 1059.5,-68.0627 1076.67,-70.0494"/>
<polygon fill="midnightblue" stroke="midnightblue" points="1023.88,-60.4168 1013.55,-62.7438 1023.08,-67.3704 1023.88,-60.4168"/>
</g>
<!-- Node18 -->
<g id="node18" class="node"><title>Node18</title>
<g id="a_node18"><a xlink:href="../../d3/d0d/classconfiguration_1_1_repeat_parser.html#aed07d335bcd1174cb4247a7add0d3315" target="_top" xlink:title="configuration.RepeatParser.parse\lCommands">
<polygon fill="white" stroke="black" points="850,-284 850,-314 1024,-314 1024,-284 850,-284"/>
<text text-anchor="start" x="858" y="-302" font-family="Helvetica,sans-Serif" font-size="10.00">configuration.RepeatParser.parse</text>
<text text-anchor="middle" x="937" y="-291" font-family="Helvetica,sans-Serif" font-size="10.00">Commands</text>
</a>
</g>
</g>
<!-- Node17&#45;&gt;Node18 -->
<g id="edge17" class="edge"><title>Node17&#45;&gt;Node18</title>
<path fill="none" stroke="midnightblue" d="M801.348,-282.77C817.296,-284.692 833.883,-286.691 849.742,-288.603"/>
<polygon fill="midnightblue" stroke="midnightblue" points="801.321,-279.241 790.974,-281.519 800.483,-286.191 801.321,-279.241"/>
</g>
<!-- Node18&#45;&gt;Node9 -->
<g id="edge18" class="edge"><title>Node18&#45;&gt;Node9</title>
<path fill="none" stroke="midnightblue" d="M1034.26,-287.859C1046.76,-286.413 1059.46,-284.942 1071.7,-283.525"/>
<polygon fill="midnightblue" stroke="midnightblue" points="1033.83,-284.385 1024.3,-289.012 1034.64,-291.339 1033.83,-284.385"/>
</g>
<!-- Node20 -->
<g id="node20" class="node"><title>Node20</title>
<g id="a_node20"><a xlink:href="../../dc/d64/classconfiguration_1_1_for_parser.html#ad3cb5184cf449bd3414f3ba73a8b3104" target="_top" xlink:title="configuration.ForParser.parse\lCommands">
<polygon fill="white" stroke="black" points="859,-88 859,-118 1015,-118 1015,-88 859,-88"/>
<text text-anchor="start" x="867" y="-106" font-family="Helvetica,sans-Serif" font-size="10.00">configuration.ForParser.parse</text>
<text text-anchor="middle" x="937" y="-95" font-family="Helvetica,sans-Serif" font-size="10.00">Commands</text>
</a>
</g>
</g>
<!-- Node19&#45;&gt;Node20 -->
<g id="edge20" class="edge"><title>Node19&#45;&gt;Node20</title>
<path fill="none" stroke="midnightblue" d="M806.838,-104.153C824.214,-103.998 842.155,-103.838 858.934,-103.688"/>
<polygon fill="midnightblue" stroke="midnightblue" points="806.653,-100.655 796.685,-104.244 806.716,-107.654 806.653,-100.655"/>
</g>
<!-- Node20&#45;&gt;Node14 -->
<g id="edge21" class="edge"><title>Node20&#45;&gt;Node14</title>
<path fill="none" stroke="midnightblue" d="M1025.08,-93.3247C1042.25,-91.4169 1060.15,-89.4275 1076.96,-87.5596"/>
<polygon fill="midnightblue" stroke="midnightblue" points="1024.62,-89.8541 1015.07,-94.4371 1025.39,-96.8113 1024.62,-89.8541"/>
</g>
<!-- Node22 -->
<g id="node22" class="node"><title>Node22</title>
<g id="a_node22"><a xlink:href="../../d9/dfc/classconfiguration_1_1_dotimes_parser.html#a6086c4c4651b29dd968bf4728bd71d0c" target="_top" xlink:title="configuration.DotimesParser.parse\lCommands">
<polygon fill="white" stroke="black" points="846,-186 846,-216 1028,-216 1028,-186 846,-186"/>
<text text-anchor="start" x="854" y="-204" font-family="Helvetica,sans-Serif" font-size="10.00">configuration.DotimesParser.parse</text>
<text text-anchor="middle" x="937" y="-193" font-family="Helvetica,sans-Serif" font-size="10.00">Commands</text>
</a>
</g>
</g>
<!-- Node21&#45;&gt;Node22 -->
<g id="edge23" class="edge"><title>Node21&#45;&gt;Node22</title>
<path fill="none" stroke="midnightblue" d="M819.785,-198.406C828.488,-198.6 837.224,-198.795 845.783,-198.986"/>
<polygon fill="midnightblue" stroke="midnightblue" points="819.674,-194.903 809.598,-198.179 819.517,-201.901 819.674,-194.903"/>
</g>
<!-- Node22&#45;&gt;Node12 -->
<g id="edge24" class="edge"><title>Node22&#45;&gt;Node12</title>
<path fill="none" stroke="midnightblue" d="M1038.27,-189.394C1049.46,-188.099 1060.77,-186.791 1071.7,-185.526"/>
<polygon fill="midnightblue" stroke="midnightblue" points="1037.57,-185.952 1028.04,-190.579 1038.38,-192.906 1037.57,-185.952"/>
</g>
<!-- Node23&#45;&gt;Node6 -->
<g id="edge26" class="edge"><title>Node23&#45;&gt;Node6</title>
<path fill="none" stroke="midnightblue" d="M786.041,-333.752C794.171,-336.038 802.291,-338.469 810,-341 847.669,-353.366 890.161,-371.465 914.923,-382.448"/>
<polygon fill="midnightblue" stroke="midnightblue" points="786.715,-330.307 776.146,-331.039 784.864,-337.058 786.715,-330.307"/>
</g>
<!-- Node23&#45;&gt;Node7 -->
<g id="edge27" class="edge"><title>Node23&#45;&gt;Node7</title>
<path fill="none" stroke="midnightblue" d="M803.414,-336.299C805.695,-337.76 807.897,-339.325 810,-341 837.361,-362.801 821.013,-386.515 846,-411 862.398,-427.068 885.813,-438.264 904.65,-445.341"/>
<polygon fill="midnightblue" stroke="midnightblue" points="804.693,-333.004 794.259,-331.164 801.268,-339.109 804.693,-333.004"/>
</g>
<!-- Node24&#45;&gt;Node5 -->
<g id="edge29" class="edge"><title>Node24&#45;&gt;Node5</title>
<path fill="none" stroke="midnightblue" d="M510.805,-409.386C536.279,-422.615 575.943,-442.081 612,-455 622.166,-458.642 633.103,-461.978 643.854,-464.943"/>
<polygon fill="midnightblue" stroke="midnightblue" points="512.256,-406.194 501.774,-404.647 509.004,-412.393 512.256,-406.194"/>
</g>
<!-- Node26 -->
<g id="node26" class="node"><title>Node26</title>
<g id="a_node26"><a xlink:href="../../d3/d71/classgui_1_1_user_input_box.html#a97af345e01f003fb2eab983e845422f2" target="_top" xlink:title="gui.UserInputBox.doInput">
<polygon fill="white" stroke="black" points="642.5,-9.5 642.5,-28.5 779.5,-28.5 779.5,-9.5 642.5,-9.5"/>
<text text-anchor="middle" x="711" y="-16.5" font-family="Helvetica,sans-Serif" font-size="10.00">gui.UserInputBox.doInput</text>
</a>
</g>
</g>
<!-- Node25&#45;&gt;Node26 -->
<g id="edge31" class="edge"><title>Node25&#45;&gt;Node26</title>
<path fill="none" stroke="midnightblue" d="M505.392,-108.384C530.023,-91.0327 572.218,-63.199 612,-46 628.847,-38.7167 648.179,-32.895 665.198,-28.5494"/>
<polygon fill="midnightblue" stroke="midnightblue" points="503.258,-105.607 497.149,-114.264 507.323,-111.306 503.258,-105.607"/>
</g>
<!-- Node27 -->
<g id="node27" class="node"><title>Node27</title>
<g id="a_node27"><a xlink:href="../../d3/d71/classgui_1_1_user_input_box.html#a2fc8903ae3868c350deb7b6caef9527d" target="_top" xlink:title="gui.UserInputBox.UserInputBox">
<polygon fill="white" stroke="black" points="854,-0.5 854,-19.5 1020,-19.5 1020,-0.5 854,-0.5"/>
<text text-anchor="middle" x="937" y="-7.5" font-family="Helvetica,sans-Serif" font-size="10.00">gui.UserInputBox.UserInputBox</text>
</a>
</g>
</g>
<!-- Node26&#45;&gt;Node27 -->
<g id="edge32" class="edge"><title>Node26&#45;&gt;Node27</title>
<path fill="none" stroke="midnightblue" d="M789.572,-15.8833C810.383,-15.0471 832.95,-14.1404 853.993,-13.2949"/>
<polygon fill="midnightblue" stroke="midnightblue" points="789.363,-12.3888 779.511,-16.2875 789.644,-19.3831 789.363,-12.3888"/>
</g>
</g>
</svg>
