<?xml version="1.0" encoding="UTF-8" standalone="no"?>
<!DOCTYPE svg PUBLIC "-//W3C//DTD SVG 1.1//EN"
 "http://www.w3.org/Graphics/SVG/1.1/DTD/svg11.dtd">
<!-- Generated by graphviz version 2.36.0 (20140111.2315)
 -->
<!-- Title: configuration.Util.makePatterns Pages: 1 -->
<svg width="544pt" height="77pt"
 viewBox="0.00 0.00 544.00 77.00" xmlns="http://www.w3.org/2000/svg" xmlns:xlink="http://www.w3.org/1999/xlink">
<g id="graph0" class="graph" transform="scale(1 1) rotate(0) translate(4 73)">
<title>configuration.Util.makePatterns</title>
<polygon fill="white" stroke="none" points="-4,4 -4,-73 540,-73 540,4 -4,4"/>
<!-- Node1 -->
<g id="node1" class="node"><title>Node1</title>
<polygon fill="#bfbfbf" stroke="black" points="0.5,-27.5 0.5,-46.5 167.5,-46.5 167.5,-27.5 0.5,-27.5"/>
<text text-anchor="middle" x="84" y="-34.5" font-family="Helvetica,sans-Serif" font-size="10.00">configuration.Util.makePatterns</text>
</g>
<!-- Node2 -->
<g id="node2" class="node"><title>Node2</title>
<g id="a_node2"><a xlink:href="../../d9/d11/classconfiguration_1_1_parser.html#a7dc7b5e5d519030e3b00c4e040f25ca8" target="_top" xlink:title="configuration.Parser.initialize">
<polygon fill="white" stroke="black" points="204,-49.5 204,-68.5 356,-68.5 356,-49.5 204,-49.5"/>
<text text-anchor="middle" x="280" y="-56.5" font-family="Helvetica,sans-Serif" font-size="10.00">configuration.Parser.initialize</text>
</a>
</g>
</g>
<!-- Node1&#45;&gt;Node2 -->
<g id="edge1" class="edge"><title>Node1&#45;&gt;Node2</title>
<path fill="none" stroke="midnightblue" d="M177.505,-47.4903C186.352,-48.4935 195.248,-49.5023 203.899,-50.4833"/>
<polygon fill="midnightblue" stroke="midnightblue" points="177.885,-44.0111 167.555,-46.3619 177.097,-50.9665 177.885,-44.0111"/>
</g>
<!-- Node4 -->
<g id="node4" class="node"><title>Node4</title>
<g id="a_node4"><a xlink:href="../../d9/d11/classconfiguration_1_1_parser.html#a0f449c9cdd83d6ac8b6948a357fc2e0d" target="_top" xlink:title="configuration.Parser.set\lLanguage">
<polygon fill="white" stroke="black" points="215.5,-0 215.5,-30 344.5,-30 344.5,-0 215.5,-0"/>
<text text-anchor="start" x="223.5" y="-18" font-family="Helvetica,sans-Serif" font-size="10.00">configuration.Parser.set</text>
<text text-anchor="middle" x="280" y="-7" font-family="Helvetica,sans-Serif" font-size="10.00">Language</text>
</a>
</g>
</g>
<!-- Node1&#45;&gt;Node4 -->
<g id="edge3" class="edge"><title>Node1&#45;&gt;Node4</title>
<path fill="none" stroke="midnightblue" d="M177.725,-26.4848C190.453,-25.0414 203.28,-23.5868 215.327,-22.2207"/>
<polygon fill="midnightblue" stroke="midnightblue" points="177.097,-23.0335 167.555,-27.6381 177.885,-29.9889 177.097,-23.0335"/>
</g>
<!-- Node3 -->
<g id="node3" class="node"><title>Node3</title>
<g id="a_node3"><a xlink:href="../../d9/d11/classconfiguration_1_1_parser.html#ae8e2d2603bed9523a72f4f5c64924f31" target="_top" xlink:title="configuration.Parser.Parser">
<polygon fill="white" stroke="black" points="392,-49.5 392,-68.5 536,-68.5 536,-49.5 392,-49.5"/>
<text text-anchor="middle" x="464" y="-56.5" font-family="Helvetica,sans-Serif" font-size="10.00">configuration.Parser.Parser</text>
</a>
</g>
</g>
<!-- Node2&#45;&gt;Node3 -->
<g id="edge2" class="edge"><title>Node2&#45;&gt;Node3</title>
<path fill="none" stroke="midnightblue" d="M366.144,-59C374.762,-59 383.451,-59 391.899,-59"/>
<polygon fill="midnightblue" stroke="midnightblue" points="366.077,-55.5001 356.077,-59 366.077,-62.5001 366.077,-55.5001"/>
</g>
</g>
</svg>
