<?xml version="1.0" encoding="UTF-8" standalone="no"?>
<!DOCTYPE svg PUBLIC "-//W3C//DTD SVG 1.1//EN"
 "http://www.w3.org/Graphics/SVG/1.1/DTD/svg11.dtd">
<!-- Generated by graphviz version 2.36.0 (20140111.2315)
 -->
<!-- Title: configuration.Util.findCommandKey Pages: 1 -->
<svg width="1086pt" height="498pt"
 viewBox="0.00 0.00 1086.00 498.00" xmlns="http://www.w3.org/2000/svg" xmlns:xlink="http://www.w3.org/1999/xlink">
<g id="graph0" class="graph" transform="scale(1 1) rotate(0) translate(4 494)">
<title>configuration.Util.findCommandKey</title>
<polygon fill="white" stroke="none" points="-4,4 -4,-494 1082,-494 1082,4 -4,4"/>
<!-- Node1 -->
<g id="node1" class="node"><title>Node1</title>
<polygon fill="#bfbfbf" stroke="black" points="0.5,-246.5 0.5,-265.5 185.5,-265.5 185.5,-246.5 0.5,-246.5"/>
<text text-anchor="middle" x="93" y="-253.5" font-family="Helvetica,sans-Serif" font-size="10.00">configuration.Util.findCommandKey</text>
</g>
<!-- Node2 -->
<g id="node2" class="node"><title>Node2</title>
<g id="a_node2"><a xlink:href="../../d9/d11/classconfiguration_1_1_parser.html#ae0480f44c9defa614fb470ab154fa60b" target="_top" xlink:title="configuration.Parser.buildTree">
<polygon fill="white" stroke="black" points="237,-246.5 237,-265.5 393,-265.5 393,-246.5 237,-246.5"/>
<text text-anchor="middle" x="315" y="-253.5" font-family="Helvetica,sans-Serif" font-size="10.00">configuration.Parser.buildTree</text>
</a>
</g>
</g>
<!-- Node1&#45;&gt;Node2 -->
<g id="edge1" class="edge"><title>Node1&#45;&gt;Node2</title>
<path fill="none" stroke="midnightblue" d="M195.711,-256C209.509,-256 223.482,-256 236.755,-256"/>
<polygon fill="midnightblue" stroke="midnightblue" points="195.707,-252.5 185.707,-256 195.707,-259.5 195.707,-252.5"/>
</g>
<!-- Node24 -->
<g id="node24" class="node"><title>Node24</title>
<g id="a_node24"><a xlink:href="../../d7/d56/classconfiguration_1_1_ifelse_parser.html#a6098b84b1c6e73b18db5e016da7fece1" target="_top" xlink:title="configuration.IfelseParser.isboolean">
<polygon fill="white" stroke="black" points="222.5,-374.5 222.5,-393.5 407.5,-393.5 407.5,-374.5 222.5,-374.5"/>
<text text-anchor="middle" x="315" y="-381.5" font-family="Helvetica,sans-Serif" font-size="10.00">configuration.IfelseParser.isboolean</text>
</a>
</g>
</g>
<!-- Node1&#45;&gt;Node24 -->
<g id="edge27" class="edge"><title>Node1&#45;&gt;Node24</title>
<path fill="none" stroke="midnightblue" d="M119.208,-270.667C164.726,-297.15 259.443,-352.258 297.572,-374.442"/>
<polygon fill="midnightblue" stroke="midnightblue" points="120.939,-267.625 110.536,-265.621 117.419,-273.675 120.939,-267.625"/>
</g>
<!-- Node25 -->
<g id="node25" class="node"><title>Node25</title>
<g id="a_node25"><a xlink:href="../../d0/da7/classconfiguration_1_1_basic_parser.html#ab316d3a3f9ec49ba6922087948e76901" target="_top" xlink:title="configuration.BasicParser.parse">
<polygon fill="white" stroke="black" points="231.5,-106.5 231.5,-125.5 398.5,-125.5 398.5,-106.5 231.5,-106.5"/>
<text text-anchor="middle" x="315" y="-113.5" font-family="Helvetica,sans-Serif" font-size="10.00">configuration.BasicParser.parse</text>
</a>
</g>
</g>
<!-- Node1&#45;&gt;Node25 -->
<g id="edge29" class="edge"><title>Node1&#45;&gt;Node25</title>
<path fill="none" stroke="midnightblue" d="M117.738,-240.894C163.246,-211.934 261.572,-149.363 299.064,-125.505"/>
<polygon fill="midnightblue" stroke="midnightblue" points="115.679,-238.056 109.121,-246.377 119.437,-243.961 115.679,-238.056"/>
</g>
<!-- Node3 -->
<g id="node3" class="node"><title>Node3</title>
<g id="a_node3"><a xlink:href="../../d9/d11/classconfiguration_1_1_parser.html#a041ccb70bd9dee77d512d8469c15c14f" target="_top" xlink:title="configuration.Parser.buildTree">
<polygon fill="white" stroke="black" points="465,-246.5 465,-265.5 621,-265.5 621,-246.5 465,-246.5"/>
<text text-anchor="middle" x="543" y="-253.5" font-family="Helvetica,sans-Serif" font-size="10.00">configuration.Parser.buildTree</text>
</a>
</g>
</g>
<!-- Node2&#45;&gt;Node3 -->
<g id="edge2" class="edge"><title>Node2&#45;&gt;Node3</title>
<path fill="none" stroke="midnightblue" d="M403.307,-256C423.58,-256 445.018,-256 464.82,-256"/>
<polygon fill="midnightblue" stroke="midnightblue" points="403.144,-252.5 393.144,-256 403.144,-259.5 403.144,-252.5"/>
</g>
<!-- Node4 -->
<g id="node4" class="node"><title>Node4</title>
<g id="a_node4"><a xlink:href="../../d7/d56/classconfiguration_1_1_ifelse_parser.html#aef13959a758ccbf8dab0a3f5f94a7be0" target="_top" xlink:title="configuration.IfelseParser.evaluate\lBoolExpr">
<polygon fill="white" stroke="black" points="453,-460 453,-490 633,-490 633,-460 453,-460"/>
<text text-anchor="start" x="461" y="-478" font-family="Helvetica,sans-Serif" font-size="10.00">configuration.IfelseParser.evaluate</text>
<text text-anchor="middle" x="543" y="-467" font-family="Helvetica,sans-Serif" font-size="10.00">BoolExpr</text>
</a>
</g>
</g>
<!-- Node2&#45;&gt;Node4 -->
<g id="edge3" class="edge"><title>Node2&#45;&gt;Node4</title>
<path fill="none" stroke="midnightblue" d="M333.201,-272.993C353.168,-293.423 386.146,-329.421 408,-365 429.473,-399.958 412.886,-423.258 444,-450 448.528,-453.891 453.581,-457.19 458.941,-459.985"/>
<polygon fill="midnightblue" stroke="midnightblue" points="335.518,-270.359 325.994,-265.718 330.545,-275.286 335.518,-270.359"/>
</g>
<!-- Node8 -->
<g id="node8" class="node"><title>Node8</title>
<g id="a_node8"><a xlink:href="../../d3/d0d/classconfiguration_1_1_repeat_parser.html#ab218ee8c24e4dab18c02cd4a536d15d3" target="_top" xlink:title="configuration.RepeatParser.fetch\lNumericExpr">
<polygon fill="white" stroke="black" points="683.5,-39 683.5,-69 854.5,-69 854.5,-39 683.5,-39"/>
<text text-anchor="start" x="691.5" y="-57" font-family="Helvetica,sans-Serif" font-size="10.00">configuration.RepeatParser.fetch</text>
<text text-anchor="middle" x="769" y="-46" font-family="Helvetica,sans-Serif" font-size="10.00">NumericExpr</text>
</a>
</g>
</g>
<!-- Node2&#45;&gt;Node8 -->
<g id="edge7" class="edge"><title>Node2&#45;&gt;Node8</title>
<path fill="none" stroke="midnightblue" d="M330.496,-238.388C349.257,-215.275 382.557,-173.159 408,-135 425.677,-108.489 416.863,-89.6997 444,-73 517.902,-27.5223 620.139,-29.8843 689.877,-38.9862"/>
<polygon fill="midnightblue" stroke="midnightblue" points="327.676,-236.307 324.064,-246.267 333.099,-240.734 327.676,-236.307"/>
</g>
<!-- Node10 -->
<g id="node10" class="node"><title>Node10</title>
<g id="a_node10"><a xlink:href="../../dc/d64/classconfiguration_1_1_for_parser.html#a95aeb8afdb254389dcef062be1cf2727" target="_top" xlink:title="configuration.ForParser.fetch\lNumericExpr">
<polygon fill="white" stroke="black" points="466.5,-83 466.5,-113 619.5,-113 619.5,-83 466.5,-83"/>
<text text-anchor="start" x="474.5" y="-101" font-family="Helvetica,sans-Serif" font-size="10.00">configuration.ForParser.fetch</text>
<text text-anchor="middle" x="543" y="-90" font-family="Helvetica,sans-Serif" font-size="10.00">NumericExpr</text>
</a>
</g>
</g>
<!-- Node2&#45;&gt;Node10 -->
<g id="edge9" class="edge"><title>Node2&#45;&gt;Node10</title>
<path fill="none" stroke="midnightblue" d="M328.259,-237.857C348.743,-208.989 392.768,-152.823 444,-123 450.98,-118.937 458.617,-115.526 466.447,-112.666"/>
<polygon fill="midnightblue" stroke="midnightblue" points="325.291,-235.994 322.456,-246.203 331.039,-239.99 325.291,-235.994"/>
</g>
<!-- Node12 -->
<g id="node12" class="node"><title>Node12</title>
<g id="a_node12"><a xlink:href="../../d9/dfc/classconfiguration_1_1_dotimes_parser.html#a26cc7f8e0a21d93091bfe8884a924450" target="_top" xlink:title="configuration.DotimesParser.fetch\lNumericExpr">
<polygon fill="white" stroke="black" points="453.5,-285 453.5,-315 632.5,-315 632.5,-285 453.5,-285"/>
<text text-anchor="start" x="461.5" y="-303" font-family="Helvetica,sans-Serif" font-size="10.00">configuration.DotimesParser.fetch</text>
<text text-anchor="middle" x="543" y="-292" font-family="Helvetica,sans-Serif" font-size="10.00">NumericExpr</text>
</a>
</g>
</g>
<!-- Node2&#45;&gt;Node12 -->
<g id="edge11" class="edge"><title>Node2&#45;&gt;Node12</title>
<path fill="none" stroke="midnightblue" d="M374.866,-267.461C402.269,-272.796 435.234,-279.214 464.619,-284.935"/>
<polygon fill="midnightblue" stroke="midnightblue" points="375.523,-264.023 365.039,-265.547 374.185,-270.894 375.523,-264.023"/>
</g>
<!-- Node15 -->
<g id="node15" class="node"><title>Node15</title>
<g id="a_node15"><a xlink:href="../../db/d22/classconfiguration_1_1_set_parser.html#a4f20258805caaf18872872d5283a0e74" target="_top" xlink:title="configuration.SetParser.parse">
<polygon fill="white" stroke="black" points="464,-372.5 464,-391.5 622,-391.5 622,-372.5 464,-372.5"/>
<text text-anchor="middle" x="543" y="-379.5" font-family="Helvetica,sans-Serif" font-size="10.00">configuration.SetParser.parse</text>
</a>
</g>
</g>
<!-- Node2&#45;&gt;Node15 -->
<g id="edge14" class="edge"><title>Node2&#45;&gt;Node15</title>
<path fill="none" stroke="midnightblue" d="M331.101,-273.212C353.3,-297.339 397.203,-340.746 444,-363 452.217,-366.907 461.185,-370.011 470.251,-372.477"/>
<polygon fill="midnightblue" stroke="midnightblue" points="333.484,-270.628 324.185,-265.549 328.287,-275.318 333.484,-270.628"/>
</g>
<!-- Node16 -->
<g id="node16" class="node"><title>Node16</title>
<g id="a_node16"><a xlink:href="../../d0/da7/classconfiguration_1_1_basic_parser.html#a22bf37b374167e497f639182e7459517" target="_top" xlink:title="configuration.BasicParser.parse">
<polygon fill="white" stroke="black" points="459.5,-334.5 459.5,-353.5 626.5,-353.5 626.5,-334.5 459.5,-334.5"/>
<text text-anchor="middle" x="543" y="-341.5" font-family="Helvetica,sans-Serif" font-size="10.00">configuration.BasicParser.parse</text>
</a>
</g>
</g>
<!-- Node2&#45;&gt;Node16 -->
<g id="edge15" class="edge"><title>Node2&#45;&gt;Node16</title>
<path fill="none" stroke="midnightblue" d="M339.457,-271.121C364.431,-286.571 405.571,-310.197 444,-324 455.848,-328.256 468.846,-331.705 481.391,-334.463"/>
<polygon fill="midnightblue" stroke="midnightblue" points="341.048,-267.987 330.717,-265.637 337.327,-273.917 341.048,-267.987"/>
</g>
<!-- Node17 -->
<g id="node17" class="node"><title>Node17</title>
<g id="a_node17"><a xlink:href="../../d3/d0d/classconfiguration_1_1_repeat_parser.html#a27c7e86622dda996677d34987f702cb6" target="_top" xlink:title="configuration.RepeatParser.parseFor">
<polygon fill="white" stroke="black" points="448.5,-132.5 448.5,-151.5 637.5,-151.5 637.5,-132.5 448.5,-132.5"/>
<text text-anchor="middle" x="543" y="-139.5" font-family="Helvetica,sans-Serif" font-size="10.00">configuration.RepeatParser.parseFor</text>
</a>
</g>
</g>
<!-- Node2&#45;&gt;Node17 -->
<g id="edge16" class="edge"><title>Node2&#45;&gt;Node17</title>
<path fill="none" stroke="midnightblue" d="M332.894,-239.472C355.977,-217.889 399.598,-180.563 444,-161 452.881,-157.087 462.567,-153.977 472.279,-151.505"/>
<polygon fill="midnightblue" stroke="midnightblue" points="330.45,-236.966 325.618,-246.395 335.275,-242.037 330.45,-236.966"/>
</g>
<!-- Node19 -->
<g id="node19" class="node"><title>Node19</title>
<g id="a_node19"><a xlink:href="../../dc/d64/classconfiguration_1_1_for_parser.html#a6bc38f731ac658c5860fe092ba7689ac" target="_top" xlink:title="configuration.ForParser.parseFor">
<polygon fill="white" stroke="black" points="457.5,-208.5 457.5,-227.5 628.5,-227.5 628.5,-208.5 457.5,-208.5"/>
<text text-anchor="middle" x="543" y="-215.5" font-family="Helvetica,sans-Serif" font-size="10.00">configuration.ForParser.parseFor</text>
</a>
</g>
</g>
<!-- Node2&#45;&gt;Node19 -->
<g id="edge19" class="edge"><title>Node2&#45;&gt;Node19</title>
<path fill="none" stroke="midnightblue" d="M382.64,-244.795C415.241,-239.313 454.071,-232.785 485.239,-227.544"/>
<polygon fill="midnightblue" stroke="midnightblue" points="382.019,-241.35 372.738,-246.46 383.18,-248.253 382.019,-241.35"/>
</g>
<!-- Node21 -->
<g id="node21" class="node"><title>Node21</title>
<g id="a_node21"><a xlink:href="../../d9/dfc/classconfiguration_1_1_dotimes_parser.html#aff41ee5ce2eeff82f7586bd1cf6a91c8" target="_top" xlink:title="configuration.DotimesParser.parseFor">
<polygon fill="white" stroke="black" points="444.5,-170.5 444.5,-189.5 641.5,-189.5 641.5,-170.5 444.5,-170.5"/>
<text text-anchor="middle" x="543" y="-177.5" font-family="Helvetica,sans-Serif" font-size="10.00">configuration.DotimesParser.parseFor</text>
</a>
</g>
</g>
<!-- Node2&#45;&gt;Node21 -->
<g id="edge21" class="edge"><title>Node2&#45;&gt;Node21</title>
<path fill="none" stroke="midnightblue" d="M343.171,-241.719C368.61,-228.878 407.997,-210.344 444,-199 455.901,-195.25 468.86,-192.107 481.34,-189.525"/>
<polygon fill="midnightblue" stroke="midnightblue" points="341.451,-238.667 334.14,-246.334 344.637,-244.9 341.451,-238.667"/>
</g>
<!-- Node23 -->
<g id="node23" class="node"><title>Node23</title>
<g id="a_node23"><a xlink:href="../../d7/d56/classconfiguration_1_1_ifelse_parser.html#aeb471eacbe15e095075bdd09619fe15d" target="_top" xlink:title="configuration.IfelseParser.parse\lListCommands">
<polygon fill="white" stroke="black" points="460,-411 460,-441 626,-441 626,-411 460,-411"/>
<text text-anchor="start" x="468" y="-429" font-family="Helvetica,sans-Serif" font-size="10.00">configuration.IfelseParser.parse</text>
<text text-anchor="middle" x="543" y="-418" font-family="Helvetica,sans-Serif" font-size="10.00">ListCommands</text>
</a>
</g>
</g>
<!-- Node2&#45;&gt;Node23 -->
<g id="edge24" class="edge"><title>Node2&#45;&gt;Node23</title>
<path fill="none" stroke="midnightblue" d="M330.496,-273.556C360.922,-310.235 429.81,-392.326 444,-401 450.367,-404.892 457.321,-408.181 464.492,-410.96"/>
<polygon fill="midnightblue" stroke="midnightblue" points="333.041,-271.142 323.968,-265.671 327.649,-275.606 333.041,-271.142"/>
</g>
<!-- Node5 -->
<g id="node5" class="node"><title>Node5</title>
<g id="a_node5"><a xlink:href="../../d7/d56/classconfiguration_1_1_ifelse_parser.html#a4b806589536dd338338d515a0fdb67ed" target="_top" xlink:title="configuration.IfelseParser.parse">
<polygon fill="white" stroke="black" points="686,-419.5 686,-438.5 852,-438.5 852,-419.5 686,-419.5"/>
<text text-anchor="middle" x="769" y="-426.5" font-family="Helvetica,sans-Serif" font-size="10.00">configuration.IfelseParser.parse</text>
</a>
</g>
</g>
<!-- Node4&#45;&gt;Node5 -->
<g id="edge4" class="edge"><title>Node4&#45;&gt;Node5</title>
<path fill="none" stroke="midnightblue" d="M627.545,-457.843C659.357,-451.311 694.45,-444.104 721.6,-438.529"/>
<polygon fill="midnightblue" stroke="midnightblue" points="626.437,-454.498 617.346,-459.938 627.846,-461.355 626.437,-454.498"/>
</g>
<!-- Node6 -->
<g id="node6" class="node"><title>Node6</title>
<g id="a_node6"><a xlink:href="../../dc/dd1/classconfiguration_1_1_if_parser.html#ab4ed2d3b7778d2b1206e5d26ebac7976" target="_top" xlink:title="configuration.IfParser.parse">
<polygon fill="white" stroke="black" points="696,-462.5 696,-481.5 842,-481.5 842,-462.5 696,-462.5"/>
<text text-anchor="middle" x="769" y="-469.5" font-family="Helvetica,sans-Serif" font-size="10.00">configuration.IfParser.parse</text>
</a>
</g>
</g>
<!-- Node4&#45;&gt;Node6 -->
<g id="edge5" class="edge"><title>Node4&#45;&gt;Node6</title>
<path fill="none" stroke="midnightblue" d="M643.457,-473.668C661.027,-473.433 679.013,-473.192 695.658,-472.969"/>
<polygon fill="midnightblue" stroke="midnightblue" points="643.127,-470.172 633.174,-473.806 643.22,-477.171 643.127,-470.172"/>
</g>
<!-- Node7 -->
<g id="node7" class="node"><title>Node7</title>
<g id="a_node7"><a xlink:href="../../dc/dd1/classconfiguration_1_1_if_parser.html#a702326bd885126c4c3ad202676ddeff8" target="_top" xlink:title="configuration.IfParser.main">
<polygon fill="white" stroke="black" points="915.5,-462.5 915.5,-481.5 1058.5,-481.5 1058.5,-462.5 915.5,-462.5"/>
<text text-anchor="middle" x="987" y="-469.5" font-family="Helvetica,sans-Serif" font-size="10.00">configuration.IfParser.main</text>
</a>
</g>
</g>
<!-- Node6&#45;&gt;Node7 -->
<g id="edge6" class="edge"><title>Node6&#45;&gt;Node7</title>
<path fill="none" stroke="midnightblue" d="M852.296,-472C873.062,-472 895.173,-472 915.311,-472"/>
<polygon fill="midnightblue" stroke="midnightblue" points="852.225,-468.5 842.225,-472 852.225,-475.5 852.225,-468.5"/>
</g>
<!-- Node9 -->
<g id="node9" class="node"><title>Node9</title>
<g id="a_node9"><a xlink:href="../../d3/d0d/classconfiguration_1_1_repeat_parser.html#abf20b0ae25909c1cdff93f509830b502" target="_top" xlink:title="configuration.RepeatParser.parse">
<polygon fill="white" stroke="black" points="900,-88.5 900,-107.5 1074,-107.5 1074,-88.5 900,-88.5"/>
<text text-anchor="middle" x="987" y="-95.5" font-family="Helvetica,sans-Serif" font-size="10.00">configuration.RepeatParser.parse</text>
</a>
</g>
</g>
<!-- Node8&#45;&gt;Node9 -->
<g id="edge8" class="edge"><title>Node8&#45;&gt;Node9</title>
<path fill="none" stroke="midnightblue" d="M853.878,-71.0862C882.895,-76.9971 914.36,-83.4067 939.303,-88.4876"/>
<polygon fill="midnightblue" stroke="midnightblue" points="854.228,-67.5858 843.731,-69.0192 852.831,-74.4449 854.228,-67.5858"/>
</g>
<!-- Node11 -->
<g id="node11" class="node"><title>Node11</title>
<g id="a_node11"><a xlink:href="../../dc/d64/classconfiguration_1_1_for_parser.html#a2737b422e279cfca7c64fd8eff57d3ff" target="_top" xlink:title="configuration.ForParser.parse">
<polygon fill="white" stroke="black" points="691,-88.5 691,-107.5 847,-107.5 847,-88.5 691,-88.5"/>
<text text-anchor="middle" x="769" y="-95.5" font-family="Helvetica,sans-Serif" font-size="10.00">configuration.ForParser.parse</text>
</a>
</g>
</g>
<!-- Node10&#45;&gt;Node11 -->
<g id="edge10" class="edge"><title>Node10&#45;&gt;Node11</title>
<path fill="none" stroke="midnightblue" d="M629.622,-98C649.778,-98 671.141,-98 690.895,-98"/>
<polygon fill="midnightblue" stroke="midnightblue" points="629.524,-94.5001 619.524,-98 629.524,-101.5 629.524,-94.5001"/>
</g>
<!-- Node13 -->
<g id="node13" class="node"><title>Node13</title>
<g id="a_node13"><a xlink:href="../../d9/dfc/classconfiguration_1_1_dotimes_parser.html#a63d34c400b9b5715b4a2f9a5d0107e62" target="_top" xlink:title="configuration.DotimesParser.parse\lDotimesIterator">
<polygon fill="white" stroke="black" points="678,-280 678,-310 860,-310 860,-280 678,-280"/>
<text text-anchor="start" x="686" y="-298" font-family="Helvetica,sans-Serif" font-size="10.00">configuration.DotimesParser.parse</text>
<text text-anchor="middle" x="769" y="-287" font-family="Helvetica,sans-Serif" font-size="10.00">DotimesIterator</text>
</a>
</g>
</g>
<!-- Node12&#45;&gt;Node13 -->
<g id="edge12" class="edge"><title>Node12&#45;&gt;Node13</title>
<path fill="none" stroke="midnightblue" d="M642.748,-297.796C654.446,-297.535 666.34,-297.269 677.909,-297.011"/>
<polygon fill="midnightblue" stroke="midnightblue" points="642.45,-294.301 632.531,-298.024 642.606,-301.3 642.45,-294.301"/>
</g>
<!-- Node14 -->
<g id="node14" class="node"><title>Node14</title>
<g id="a_node14"><a xlink:href="../../d9/dfc/classconfiguration_1_1_dotimes_parser.html#abf0eb9bddfa4a09adc745008e17b293b" target="_top" xlink:title="configuration.DotimesParser.parse">
<polygon fill="white" stroke="black" points="896,-233.5 896,-252.5 1078,-252.5 1078,-233.5 896,-233.5"/>
<text text-anchor="middle" x="987" y="-240.5" font-family="Helvetica,sans-Serif" font-size="10.00">configuration.DotimesParser.parse</text>
</a>
</g>
</g>
<!-- Node13&#45;&gt;Node14 -->
<g id="edge13" class="edge"><title>Node13&#45;&gt;Node14</title>
<path fill="none" stroke="midnightblue" d="M842.575,-277.528C877.275,-269.175 917.46,-259.5 946.451,-252.521"/>
<polygon fill="midnightblue" stroke="midnightblue" points="841.379,-274.216 832.476,-279.959 843.018,-281.022 841.379,-274.216"/>
</g>
<!-- Node18 -->
<g id="node18" class="node"><title>Node18</title>
<g id="a_node18"><a xlink:href="../../d3/d0d/classconfiguration_1_1_repeat_parser.html#aed07d335bcd1174cb4247a7add0d3315" target="_top" xlink:title="configuration.RepeatParser.parse\lCommands">
<polygon fill="white" stroke="black" points="682,-127 682,-157 856,-157 856,-127 682,-127"/>
<text text-anchor="start" x="690" y="-145" font-family="Helvetica,sans-Serif" font-size="10.00">configuration.RepeatParser.parse</text>
<text text-anchor="middle" x="769" y="-134" font-family="Helvetica,sans-Serif" font-size="10.00">Commands</text>
</a>
</g>
</g>
<!-- Node17&#45;&gt;Node18 -->
<g id="edge17" class="edge"><title>Node17&#45;&gt;Node18</title>
<path fill="none" stroke="midnightblue" d="M648.039,-142C659.348,-142 670.765,-142 681.826,-142"/>
<polygon fill="midnightblue" stroke="midnightblue" points="647.698,-138.5 637.698,-142 647.698,-145.5 647.698,-138.5"/>
</g>
<!-- Node18&#45;&gt;Node9 -->
<g id="edge18" class="edge"><title>Node18&#45;&gt;Node9</title>
<path fill="none" stroke="midnightblue" d="M853.878,-124.914C882.895,-119.003 914.36,-112.593 939.303,-107.512"/>
<polygon fill="midnightblue" stroke="midnightblue" points="852.831,-121.555 843.731,-126.981 854.228,-128.414 852.831,-121.555"/>
</g>
<!-- Node20 -->
<g id="node20" class="node"><title>Node20</title>
<g id="a_node20"><a xlink:href="../../dc/d64/classconfiguration_1_1_for_parser.html#ad3cb5184cf449bd3414f3ba73a8b3104" target="_top" xlink:title="configuration.ForParser.parse\lCommands">
<polygon fill="white" stroke="black" points="691,-225 691,-255 847,-255 847,-225 691,-225"/>
<text text-anchor="start" x="699" y="-243" font-family="Helvetica,sans-Serif" font-size="10.00">configuration.ForParser.parse</text>
<text text-anchor="middle" x="769" y="-232" font-family="Helvetica,sans-Serif" font-size="10.00">Commands</text>
</a>
</g>
</g>
<!-- Node19&#45;&gt;Node20 -->
<g id="edge20" class="edge"><title>Node19&#45;&gt;Node20</title>
<path fill="none" stroke="midnightblue" d="M638.838,-227.314C656.214,-229.021 674.155,-230.783 690.934,-232.431"/>
<polygon fill="midnightblue" stroke="midnightblue" points="638.979,-223.812 628.685,-226.317 638.295,-230.778 638.979,-223.812"/>
</g>
<!-- Node22 -->
<g id="node22" class="node"><title>Node22</title>
<g id="a_node22"><a xlink:href="../../d9/dfc/classconfiguration_1_1_dotimes_parser.html#a6086c4c4651b29dd968bf4728bd71d0c" target="_top" xlink:title="configuration.DotimesParser.parse\lCommands">
<polygon fill="white" stroke="black" points="678,-176 678,-206 860,-206 860,-176 678,-176"/>
<text text-anchor="start" x="686" y="-194" font-family="Helvetica,sans-Serif" font-size="10.00">configuration.DotimesParser.parse</text>
<text text-anchor="middle" x="769" y="-183" font-family="Helvetica,sans-Serif" font-size="10.00">Commands</text>
</a>
</g>
</g>
<!-- Node21&#45;&gt;Node22 -->
<g id="edge22" class="edge"><title>Node21&#45;&gt;Node22</title>
<path fill="none" stroke="midnightblue" d="M651.785,-185.293C660.488,-185.72 669.224,-186.149 677.783,-186.57"/>
<polygon fill="midnightblue" stroke="midnightblue" points="651.758,-181.788 641.598,-184.793 651.414,-188.779 651.758,-181.788"/>
</g>
<!-- Node22&#45;&gt;Node14 -->
<g id="edge23" class="edge"><title>Node22&#45;&gt;Node14</title>
<path fill="none" stroke="midnightblue" d="M842.575,-208.472C877.275,-216.825 917.46,-226.5 946.451,-233.479"/>
<polygon fill="midnightblue" stroke="midnightblue" points="843.018,-204.978 832.476,-206.041 841.379,-211.784 843.018,-204.978"/>
</g>
<!-- Node23&#45;&gt;Node5 -->
<g id="edge25" class="edge"><title>Node23&#45;&gt;Node5</title>
<path fill="none" stroke="midnightblue" d="M636.283,-427.236C652.72,-427.456 669.742,-427.684 685.873,-427.9"/>
<polygon fill="midnightblue" stroke="midnightblue" points="636.183,-423.734 626.137,-427.1 636.09,-430.734 636.183,-423.734"/>
</g>
<!-- Node23&#45;&gt;Node6 -->
<g id="edge26" class="edge"><title>Node23&#45;&gt;Node6</title>
<path fill="none" stroke="midnightblue" d="M627.545,-443.157C659.357,-449.689 694.45,-456.896 721.6,-462.471"/>
<polygon fill="midnightblue" stroke="midnightblue" points="627.846,-439.645 617.346,-441.062 626.437,-446.502 627.846,-439.645"/>
</g>
<!-- Node24&#45;&gt;Node4 -->
<g id="edge28" class="edge"><title>Node24&#45;&gt;Node4</title>
<path fill="none" stroke="midnightblue" d="M340.488,-398.755C365.699,-413.43 406.486,-435.754 444,-450 453.767,-453.709 464.288,-457.044 474.684,-459.979"/>
<polygon fill="midnightblue" stroke="midnightblue" points="342.021,-395.596 331.628,-393.538 338.47,-401.628 342.021,-395.596"/>
</g>
<!-- Node26 -->
<g id="node26" class="node"><title>Node26</title>
<g id="a_node26"><a xlink:href="../../d3/d71/classgui_1_1_user_input_box.html#a97af345e01f003fb2eab983e845422f2" target="_top" xlink:title="gui.UserInputBox.doInput">
<polygon fill="white" stroke="black" points="474.5,-3.5 474.5,-22.5 611.5,-22.5 611.5,-3.5 474.5,-3.5"/>
<text text-anchor="middle" x="543" y="-10.5" font-family="Helvetica,sans-Serif" font-size="10.00">gui.UserInputBox.doInput</text>
</a>
</g>
</g>
<!-- Node25&#45;&gt;Node26 -->
<g id="edge30" class="edge"><title>Node25&#45;&gt;Node26</title>
<path fill="none" stroke="midnightblue" d="M337.854,-100.548C362.598,-83.6555 404.606,-56.7636 444,-40 461.051,-32.7443 480.601,-26.8984 497.732,-22.5264"/>
<polygon fill="midnightblue" stroke="midnightblue" points="335.793,-97.7181 329.556,-106.282 339.772,-103.477 335.793,-97.7181"/>
</g>
<!-- Node27 -->
<g id="node27" class="node"><title>Node27</title>
<g id="a_node27"><a xlink:href="../../d3/d71/classgui_1_1_user_input_box.html#a2fc8903ae3868c350deb7b6caef9527d" target="_top" xlink:title="gui.UserInputBox.UserInputBox">
<polygon fill="white" stroke="black" points="686,-0.5 686,-19.5 852,-19.5 852,-0.5 686,-0.5"/>
<text text-anchor="middle" x="769" y="-7.5" font-family="Helvetica,sans-Serif" font-size="10.00">gui.UserInputBox.UserInputBox</text>
</a>
</g>
</g>
<!-- Node26&#45;&gt;Node27 -->
<g id="edge31" class="edge"><title>Node26&#45;&gt;Node27</title>
<path fill="none" stroke="midnightblue" d="M621.572,-11.9611C642.383,-11.6824 664.95,-11.3801 685.993,-11.0983"/>
<polygon fill="midnightblue" stroke="midnightblue" points="621.463,-8.46213 611.511,-12.0958 621.557,-15.4615 621.463,-8.46213"/>
</g>
</g>
</svg>
