<?xml version="1.0" encoding="UTF-8" standalone="no"?>
<!DOCTYPE svg PUBLIC "-//W3C//DTD SVG 1.1//EN"
 "http://www.w3.org/Graphics/SVG/1.1/DTD/svg11.dtd">
<!-- Generated by graphviz version 2.36.0 (20140111.2315)
 -->
<!-- Title: configuration.Util.executeAll Pages: 1 -->
<!--zoomable 109 -->
<svg id="main" version="1.1" xmlns="http://www.w3.org/2000/svg" xmlns:xlink="http://www.w3.org/1999/xlink" xml:space="preserve" onload="init(evt)">
<style type="text/css"><![CDATA[
.edge:hover path { stroke: red; }
.edge:hover polygon { stroke: red; fill: red; }
]]></style>
<script type="text/javascript"><![CDATA[
var edges = document.getElementsByTagName('g');
if (edges && edges.length) {
  for (var i=0;i<edges.length;i++) {
    if (edges[i].id.substr(0,4)=='edge') {
      edges[i].setAttribute('class','edge');
    }
  }
}
]]></script>
        <defs>
                <circle id="rim" cx="0" cy="0" r="7"/>
                <circle id="rim2" cx="0" cy="0" r="3.5"/>
                <g id="zoomPlus">
                        <use xlink:href="#rim" fill="#404040">
                                <set attributeName="fill" to="#808080" begin="zoomplus.mouseover" end="zoomplus.mouseout"/>
                        </use>
                        <path d="M-4,0h8M0,-4v8" fill="none" stroke="white" stroke-width="1.5" pointer-events="none"/>
                </g>
                <g id="zoomMin">
                        <use xlink:href="#rim" fill="#404040">
                                <set attributeName="fill" to="#808080" begin="zoomminus.mouseover" end="zoomminus.mouseout"/>
                        </use>
                        <path d="M-4,0h8" fill="none" stroke="white" stroke-width="1.5" pointer-events="none"/>
                </g>
                <g id="dirArrow">
                        <path fill="none" stroke="white" stroke-width="1.5" d="M0,-3.0v7 M-2.5,-0.5L0,-3.0L2.5,-0.5"/>
                </g>
               <g id="resetDef">
                       <use xlink:href="#rim2" fill="#404040">
                               <set attributeName="fill" to="#808080" begin="reset.mouseover" end="reset.mouseout"/>
                       </use>
               </g>
        </defs>

<script type="text/javascript">
var viewWidth = 804;
var viewHeight = 109;
var sectionId = 'dynsection-0';
</script>
<script xlink:href="../../svgpan.js"/>
<svg id="graph" class="graph">
<g id="viewport">
<title>configuration.Util.executeAll</title>
<polygon fill="white" stroke="none" points="-4,4 -4,-105 800,-105 800,4 -4,4"/>
<!-- Node1 -->
<g id="node1" class="node"><title>Node1</title>
<polygon fill="#bfbfbf" stroke="black" points="0,-43.5 0,-62.5 150,-62.5 150,-43.5 0,-43.5"/>
<text text-anchor="middle" x="75" y="-50.5" font-family="Helvetica,sans-Serif" font-size="10.00">configuration.Util.executeAll</text>
</g>
<!-- Node2 -->
<g id="node2" class="node"><title>Node2</title>
<g id="a_node2"><a xlink:href="../../d7/d56/classconfiguration_1_1_ifelse_parser.html#a4b806589536dd338338d515a0fdb67ed" target="_top" xlink:title="configuration.IfelseParser.parse">
<polygon fill="white" stroke="black" points="198,-81.5 198,-100.5 364,-100.5 364,-81.5 198,-81.5"/>
<text text-anchor="middle" x="281" y="-88.5" font-family="Helvetica,sans-Serif" font-size="10.00">configuration.IfelseParser.parse</text>
</a>
</g>
</g>
<!-- Node1&#45;&gt;Node2 -->
<g id="edge1" class="edge"><title>Node1&#45;&gt;Node2</title>
<path fill="none" stroke="midnightblue" d="M137.297,-64.4181C166.486,-69.8552 200.994,-76.2832 228.764,-81.4561"/>
<polygon fill="midnightblue" stroke="midnightblue" points="137.686,-60.9305 127.214,-62.54 136.404,-67.8121 137.686,-60.9305"/>
</g>
<!-- Node3 -->
<g id="node3" class="node"><title>Node3</title>
<g id="a_node3"><a xlink:href="../../dc/dd1/classconfiguration_1_1_if_parser.html#ab4ed2d3b7778d2b1206e5d26ebac7976" target="_top" xlink:title="configuration.IfParser.parse">
<polygon fill="white" stroke="black" points="208,-43.5 208,-62.5 354,-62.5 354,-43.5 208,-43.5"/>
<text text-anchor="middle" x="281" y="-50.5" font-family="Helvetica,sans-Serif" font-size="10.00">configuration.IfParser.parse</text>
</a>
</g>
</g>
<!-- Node1&#45;&gt;Node3 -->
<g id="edge2" class="edge"><title>Node1&#45;&gt;Node3</title>
<path fill="none" stroke="midnightblue" d="M160.474,-53C176.221,-53 192.541,-53 207.874,-53"/>
<polygon fill="midnightblue" stroke="midnightblue" points="160.226,-49.5001 150.226,-53 160.226,-56.5001 160.226,-49.5001"/>
</g>
<!-- Node4 -->
<g id="node4" class="node"><title>Node4</title>
<g id="a_node4"><a xlink:href="../../d3/d0d/classconfiguration_1_1_repeat_parser.html#a27c7e86622dda996677d34987f702cb6" target="_top" xlink:title="configuration.RepeatParser.parseFor">
<polygon fill="white" stroke="black" points="186.5,-5.5 186.5,-24.5 375.5,-24.5 375.5,-5.5 186.5,-5.5"/>
<text text-anchor="middle" x="281" y="-12.5" font-family="Helvetica,sans-Serif" font-size="10.00">configuration.RepeatParser.parseFor</text>
</a>
</g>
</g>
<!-- Node1&#45;&gt;Node4 -->
<g id="edge3" class="edge"><title>Node1&#45;&gt;Node4</title>
<path fill="none" stroke="midnightblue" d="M137.297,-41.5819C166.486,-36.1448 200.994,-29.7168 228.764,-24.5439"/>
<polygon fill="midnightblue" stroke="midnightblue" points="136.404,-38.1879 127.214,-43.46 137.686,-45.0695 136.404,-38.1879"/>
</g>
<!-- Node5 -->
<g id="node5" class="node"><title>Node5</title>
<g id="a_node5"><a xlink:href="../../d3/d0d/classconfiguration_1_1_repeat_parser.html#aed07d335bcd1174cb4247a7add0d3315" target="_top" xlink:title="configuration.RepeatParser.parse\lCommands">
<polygon fill="white" stroke="black" points="412,-0 412,-30 586,-30 586,-0 412,-0"/>
<text text-anchor="start" x="420" y="-18" font-family="Helvetica,sans-Serif" font-size="10.00">configuration.RepeatParser.parse</text>
<text text-anchor="middle" x="499" y="-7" font-family="Helvetica,sans-Serif" font-size="10.00">Commands</text>
</a>
</g>
</g>
<!-- Node4&#45;&gt;Node5 -->
<g id="edge4" class="edge"><title>Node4&#45;&gt;Node5</title>
<path fill="none" stroke="midnightblue" d="M385.928,-15C394.581,-15 403.27,-15 411.771,-15"/>
<polygon fill="midnightblue" stroke="midnightblue" points="385.798,-11.5001 375.798,-15 385.798,-18.5001 385.798,-11.5001"/>
</g>
<!-- Node6 -->
<g id="node6" class="node"><title>Node6</title>
<g id="a_node6"><a xlink:href="../../d3/d0d/classconfiguration_1_1_repeat_parser.html#abf20b0ae25909c1cdff93f509830b502" target="_top" xlink:title="configuration.RepeatParser.parse">
<polygon fill="white" stroke="black" points="622,-5.5 622,-24.5 796,-24.5 796,-5.5 622,-5.5"/>
<text text-anchor="middle" x="709" y="-12.5" font-family="Helvetica,sans-Serif" font-size="10.00">configuration.RepeatParser.parse</text>
</a>
</g>
</g>
<!-- Node5&#45;&gt;Node6 -->
<g id="edge5" class="edge"><title>Node5&#45;&gt;Node6</title>
<path fill="none" stroke="midnightblue" d="M596.16,-15C604.768,-15 613.448,-15 621.962,-15"/>
<polygon fill="midnightblue" stroke="midnightblue" points="596.103,-11.5001 586.103,-15 596.103,-18.5001 596.103,-11.5001"/>
</g>
</g>
</svg>
        <g id="navigator" transform="translate(0 0)" fill="#404254">
                <rect fill="#f2f5e9" fill-opacity="0.5" stroke="#606060" stroke-width=".5" x="0" y="0" width="60" height="60"/>
                <use id="zoomplus" xlink:href="#zoomPlus" x="17" y="9" onmousedown="handleZoom(evt,'in')"/>
                <use id="zoomminus" xlink:href="#zoomMin" x="42" y="9" onmousedown="handleZoom(evt,'out')"/>
                <use id="reset" xlink:href="#resetDef" x="30" y="36" onmousedown="handleReset()"/>
                <g id="arrowUp" xlink:href="#dirArrow" transform="translate(30 24)" onmousedown="handlePan(0,-1)">
                  <use xlink:href="#rim" fill="#404040">
                        <set attributeName="fill" to="#808080" begin="arrowUp.mouseover" end="arrowUp.mouseout"/>
                  </use>
                  <path fill="none" stroke="white" stroke-width="1.5" d="M0,-3.0v7 M-2.5,-0.5L0,-3.0L2.5,-0.5"/>
                </g>
                <g id="arrowRight" xlink:href="#dirArrow" transform="rotate(90) translate(36 -43)" onmousedown="handlePan(1,0)">
                  <use xlink:href="#rim" fill="#404040">
                        <set attributeName="fill" to="#808080" begin="arrowRight.mouseover" end="arrowRight.mouseout"/>
                  </use>
                  <path fill="none" stroke="white" stroke-width="1.5" d="M0,-3.0v7 M-2.5,-0.5L0,-3.0L2.5,-0.5"/>
                </g>
                <g id="arrowDown" xlink:href="#dirArrow" transform="rotate(180) translate(-30 -48)" onmousedown="handlePan(0,1)">
                  <use xlink:href="#rim" fill="#404040">
                        <set attributeName="fill" to="#808080" begin="arrowDown.mouseover" end="arrowDown.mouseout"/>
                  </use>
                  <path fill="none" stroke="white" stroke-width="1.5" d="M0,-3.0v7 M-2.5,-0.5L0,-3.0L2.5,-0.5"/>
                </g>
                <g id="arrowLeft" xlink:href="#dirArrow" transform="rotate(270) translate(-36 17)" onmousedown="handlePan(-1,0)">
                  <use xlink:href="#rim" fill="#404040">
                        <set attributeName="fill" to="#808080" begin="arrowLeft.mouseover" end="arrowLeft.mouseout"/>
                  </use>
                  <path fill="none" stroke="white" stroke-width="1.5" d="M0,-3.0v7 M-2.5,-0.5L0,-3.0L2.5,-0.5"/>
                </g>
        </g>
        <svg viewBox="0 0 15 15" width="100%" height="30px" preserveAspectRatio="xMaxYMin meet">
         <g id="arrow_out" transform="scale(0.3 0.3)">
          <a xlink:href="classconfiguration_1_1_util_af37a7249e56aff3c4b501035bd9e403a_icgraph_org.svg" target="_base">
           <rect id="button" ry="5" rx="5" y="6" x="6" height="38" width="38"
                fill="#f2f5e9" fill-opacity="0.5" stroke="#606060" stroke-width="1.0"/>
           <path id="arrow"
             d="M 11.500037,31.436501 C 11.940474,20.09759 22.043105,11.32322 32.158766,21.979434 L 37.068811,17.246167 C 37.068811,17.246167 37.088388,32 37.088388,32 L 22.160133,31.978069 C 22.160133,31.978069 26.997745,27.140456 26.997745,27.140456 C 18.528582,18.264221 13.291696,25.230495 11.500037,31.436501 z"
             style="fill:#404040;"/>
          </a>
         </g>
        </svg>
</svg>
