<?xml version="1.0" encoding="UTF-8" standalone="no"?>
<!DOCTYPE svg PUBLIC "-//W3C//DTD SVG 1.1//EN"
 "http://www.w3.org/Graphics/SVG/1.1/DTD/svg11.dtd">
<!-- Generated by graphviz version 2.36.0 (20140111.2315)
 -->
<!-- Title: configuration.Util.match Pages: 1 -->
<svg width="1254pt" height="534pt"
 viewBox="0.00 0.00 1254.00 534.00" xmlns="http://www.w3.org/2000/svg" xmlns:xlink="http://www.w3.org/1999/xlink">
<g id="graph0" class="graph" transform="scale(1 1) rotate(0) translate(4 530)">
<title>configuration.Util.match</title>
<polygon fill="white" stroke="none" points="-4,4 -4,-530 1250,-530 1250,4 -4,4"/>
<!-- Node1 -->
<g id="node1" class="node"><title>Node1</title>
<polygon fill="#bfbfbf" stroke="black" points="0.5,-271.5 0.5,-290.5 131.5,-290.5 131.5,-271.5 0.5,-271.5"/>
<text text-anchor="middle" x="66" y="-278.5" font-family="Helvetica,sans-Serif" font-size="10.00">configuration.Util.match</text>
</g>
<!-- Node2 -->
<g id="node2" class="node"><title>Node2</title>
<g id="a_node2"><a xlink:href="../../da/dde/classconfiguration_1_1_util.html#a55c271426926996186d1cde227ae7e23" target="_top" xlink:title="configuration.Util.findCommandKey">
<polygon fill="white" stroke="black" points="168.5,-271.5 168.5,-290.5 353.5,-290.5 353.5,-271.5 168.5,-271.5"/>
<text text-anchor="middle" x="261" y="-278.5" font-family="Helvetica,sans-Serif" font-size="10.00">configuration.Util.findCommandKey</text>
</a>
</g>
</g>
<!-- Node1&#45;&gt;Node2 -->
<g id="edge1" class="edge"><title>Node1&#45;&gt;Node2</title>
<path fill="none" stroke="midnightblue" d="M141.673,-281C150.425,-281 159.429,-281 168.377,-281"/>
<polygon fill="midnightblue" stroke="midnightblue" points="141.535,-277.5 131.535,-281 141.534,-284.5 141.535,-277.5"/>
</g>
<!-- Node3 -->
<g id="node3" class="node"><title>Node3</title>
<g id="a_node3"><a xlink:href="../../d9/d11/classconfiguration_1_1_parser.html#ae0480f44c9defa614fb470ab154fa60b" target="_top" xlink:title="configuration.Parser.buildTree">
<polygon fill="white" stroke="black" points="405,-271.5 405,-290.5 561,-290.5 561,-271.5 405,-271.5"/>
<text text-anchor="middle" x="483" y="-278.5" font-family="Helvetica,sans-Serif" font-size="10.00">configuration.Parser.buildTree</text>
</a>
</g>
</g>
<!-- Node2&#45;&gt;Node3 -->
<g id="edge2" class="edge"><title>Node2&#45;&gt;Node3</title>
<path fill="none" stroke="midnightblue" d="M363.711,-281C377.509,-281 391.482,-281 404.755,-281"/>
<polygon fill="midnightblue" stroke="midnightblue" points="363.707,-277.5 353.707,-281 363.707,-284.5 363.707,-277.5"/>
</g>
<!-- Node25 -->
<g id="node25" class="node"><title>Node25</title>
<g id="a_node25"><a xlink:href="../../d7/d56/classconfiguration_1_1_ifelse_parser.html#a6098b84b1c6e73b18db5e016da7fece1" target="_top" xlink:title="configuration.IfelseParser.isboolean">
<polygon fill="white" stroke="black" points="390.5,-416.5 390.5,-435.5 575.5,-435.5 575.5,-416.5 390.5,-416.5"/>
<text text-anchor="middle" x="483" y="-423.5" font-family="Helvetica,sans-Serif" font-size="10.00">configuration.IfelseParser.isboolean</text>
</a>
</g>
</g>
<!-- Node2&#45;&gt;Node25 -->
<g id="edge29" class="edge"><title>Node2&#45;&gt;Node25</title>
<path fill="none" stroke="midnightblue" d="M284.995,-296.156C330.347,-326.047 430.159,-391.832 467.512,-416.451"/>
<polygon fill="midnightblue" stroke="midnightblue" points="286.711,-293.095 276.435,-290.514 282.858,-298.939 286.711,-293.095"/>
</g>
<!-- Node26 -->
<g id="node26" class="node"><title>Node26</title>
<g id="a_node26"><a xlink:href="../../d0/da7/classconfiguration_1_1_basic_parser.html#ab316d3a3f9ec49ba6922087948e76901" target="_top" xlink:title="configuration.BasicParser.parse">
<polygon fill="white" stroke="black" points="399.5,-129.5 399.5,-148.5 566.5,-148.5 566.5,-129.5 399.5,-129.5"/>
<text text-anchor="middle" x="483" y="-136.5" font-family="Helvetica,sans-Serif" font-size="10.00">configuration.BasicParser.parse</text>
</a>
</g>
</g>
<!-- Node2&#45;&gt;Node26 -->
<g id="edge31" class="edge"><title>Node2&#45;&gt;Node26</title>
<path fill="none" stroke="midnightblue" d="M285.342,-265.934C330.648,-236.691 429.349,-172.984 466.998,-148.683"/>
<polygon fill="midnightblue" stroke="midnightblue" points="283.28,-263.099 276.776,-271.462 287.076,-268.98 283.28,-263.099"/>
</g>
<!-- Node4 -->
<g id="node4" class="node"><title>Node4</title>
<g id="a_node4"><a xlink:href="../../d9/d11/classconfiguration_1_1_parser.html#a041ccb70bd9dee77d512d8469c15c14f" target="_top" xlink:title="configuration.Parser.buildTree">
<polygon fill="white" stroke="black" points="633,-457.5 633,-476.5 789,-476.5 789,-457.5 633,-457.5"/>
<text text-anchor="middle" x="711" y="-464.5" font-family="Helvetica,sans-Serif" font-size="10.00">configuration.Parser.buildTree</text>
</a>
</g>
</g>
<!-- Node3&#45;&gt;Node4 -->
<g id="edge3" class="edge"><title>Node3&#45;&gt;Node4</title>
<path fill="none" stroke="midnightblue" d="M496.713,-298.901C525.906,-339.792 596.426,-437.287 612,-447 618.999,-451.365 626.774,-454.798 634.797,-457.496"/>
<polygon fill="midnightblue" stroke="midnightblue" points="499.493,-296.771 490.841,-290.657 493.792,-300.832 499.493,-296.771"/>
</g>
<!-- Node5 -->
<g id="node5" class="node"><title>Node5</title>
<g id="a_node5"><a xlink:href="../../d7/d56/classconfiguration_1_1_ifelse_parser.html#aef13959a758ccbf8dab0a3f5f94a7be0" target="_top" xlink:title="configuration.IfelseParser.evaluate\lBoolExpr">
<polygon fill="white" stroke="black" points="621,-496 621,-526 801,-526 801,-496 621,-496"/>
<text text-anchor="start" x="629" y="-514" font-family="Helvetica,sans-Serif" font-size="10.00">configuration.IfelseParser.evaluate</text>
<text text-anchor="middle" x="711" y="-503" font-family="Helvetica,sans-Serif" font-size="10.00">BoolExpr</text>
</a>
</g>
</g>
<!-- Node3&#45;&gt;Node5 -->
<g id="edge4" class="edge"><title>Node3&#45;&gt;Node5</title>
<path fill="none" stroke="midnightblue" d="M498.467,-298.388C517.69,-322 552.011,-365.976 576,-407 595.477,-440.308 582.402,-461.247 612,-486 616.58,-489.83 621.671,-493.084 627.058,-495.846"/>
<polygon fill="midnightblue" stroke="midnightblue" points="501.167,-296.16 492.116,-290.653 495.757,-300.602 501.167,-296.16"/>
</g>
<!-- Node8 -->
<g id="node8" class="node"><title>Node8</title>
<g id="a_node8"><a xlink:href="../../d3/d0d/classconfiguration_1_1_repeat_parser.html#ab218ee8c24e4dab18c02cd4a536d15d3" target="_top" xlink:title="configuration.RepeatParser.fetch\lNumericExpr">
<polygon fill="white" stroke="black" points="851.5,-386 851.5,-416 1022.5,-416 1022.5,-386 851.5,-386"/>
<text text-anchor="start" x="859.5" y="-404" font-family="Helvetica,sans-Serif" font-size="10.00">configuration.RepeatParser.fetch</text>
<text text-anchor="middle" x="937" y="-393" font-family="Helvetica,sans-Serif" font-size="10.00">NumericExpr</text>
</a>
</g>
</g>
<!-- Node3&#45;&gt;Node8 -->
<g id="edge7" class="edge"><title>Node3&#45;&gt;Node8</title>
<path fill="none" stroke="midnightblue" d="M503.79,-297.008C527.822,-315.507 570.331,-345.288 612,-360 690.057,-387.561 784.463,-397.02 851.182,-400.061"/>
<polygon fill="midnightblue" stroke="midnightblue" points="505.837,-294.166 495.807,-290.751 501.519,-299.675 505.837,-294.166"/>
</g>
<!-- Node10 -->
<g id="node10" class="node"><title>Node10</title>
<g id="a_node10"><a xlink:href="../../dc/d64/classconfiguration_1_1_for_parser.html#a95aeb8afdb254389dcef062be1cf2727" target="_top" xlink:title="configuration.ForParser.fetch\lNumericExpr">
<polygon fill="white" stroke="black" points="634.5,-244 634.5,-274 787.5,-274 787.5,-244 634.5,-244"/>
<text text-anchor="start" x="642.5" y="-262" font-family="Helvetica,sans-Serif" font-size="10.00">configuration.ForParser.fetch</text>
<text text-anchor="middle" x="711" y="-251" font-family="Helvetica,sans-Serif" font-size="10.00">NumericExpr</text>
</a>
</g>
</g>
<!-- Node3&#45;&gt;Node10 -->
<g id="edge9" class="edge"><title>Node3&#45;&gt;Node10</title>
<path fill="none" stroke="midnightblue" d="M571.25,-272.507C592.064,-270.481 614.108,-268.335 634.351,-266.364"/>
<polygon fill="midnightblue" stroke="midnightblue" points="570.758,-269.038 561.144,-273.49 571.436,-276.005 570.758,-269.038"/>
</g>
<!-- Node12 -->
<g id="node12" class="node"><title>Node12</title>
<g id="a_node12"><a xlink:href="../../d9/dfc/classconfiguration_1_1_dotimes_parser.html#a26cc7f8e0a21d93091bfe8884a924450" target="_top" xlink:title="configuration.DotimesParser.fetch\lNumericExpr">
<polygon fill="white" stroke="black" points="621.5,-195 621.5,-225 800.5,-225 800.5,-195 621.5,-195"/>
<text text-anchor="start" x="629.5" y="-213" font-family="Helvetica,sans-Serif" font-size="10.00">configuration.DotimesParser.fetch</text>
<text text-anchor="middle" x="711" y="-202" font-family="Helvetica,sans-Serif" font-size="10.00">NumericExpr</text>
</a>
</g>
</g>
<!-- Node3&#45;&gt;Node12 -->
<g id="edge11" class="edge"><title>Node3&#45;&gt;Node12</title>
<path fill="none" stroke="midnightblue" d="M517.394,-267.573C543.021,-257.554 579.417,-243.938 612,-234 622.388,-230.832 633.492,-227.79 644.357,-225"/>
<polygon fill="midnightblue" stroke="midnightblue" points="515.813,-264.434 507.791,-271.355 518.378,-270.946 515.813,-264.434"/>
</g>
<!-- Node15 -->
<g id="node15" class="node"><title>Node15</title>
<g id="a_node15"><a xlink:href="../../db/d22/classconfiguration_1_1_set_parser.html#a4f20258805caaf18872872d5283a0e74" target="_top" xlink:title="configuration.SetParser.parse">
<polygon fill="white" stroke="black" points="632,-118.5 632,-137.5 790,-137.5 790,-118.5 632,-118.5"/>
<text text-anchor="middle" x="711" y="-125.5" font-family="Helvetica,sans-Serif" font-size="10.00">configuration.SetParser.parse</text>
</a>
</g>
</g>
<!-- Node3&#45;&gt;Node15 -->
<g id="edge14" class="edge"><title>Node3&#45;&gt;Node15</title>
<path fill="none" stroke="midnightblue" d="M495.735,-262.8C515.764,-233.351 559.516,-175.665 612,-147 619.149,-143.096 626.976,-139.984 634.991,-137.507"/>
<polygon fill="midnightblue" stroke="midnightblue" points="492.708,-261.032 490.085,-271.297 498.537,-264.908 492.708,-261.032"/>
</g>
<!-- Node16 -->
<g id="node16" class="node"><title>Node16</title>
<g id="a_node16"><a xlink:href="../../d0/da7/classconfiguration_1_1_basic_parser.html#a22bf37b374167e497f639182e7459517" target="_top" xlink:title="configuration.BasicParser.parse">
<polygon fill="white" stroke="black" points="627.5,-80.5 627.5,-99.5 794.5,-99.5 794.5,-80.5 627.5,-80.5"/>
<text text-anchor="middle" x="711" y="-87.5" font-family="Helvetica,sans-Serif" font-size="10.00">configuration.BasicParser.parse</text>
</a>
</g>
</g>
<!-- Node3&#45;&gt;Node16 -->
<g id="edge15" class="edge"><title>Node3&#45;&gt;Node16</title>
<path fill="none" stroke="midnightblue" d="M497.281,-263.343C515.208,-239.487 548.118,-195.611 576,-158 592.093,-136.291 589.167,-123.454 612,-109 618.077,-105.153 624.759,-102.054 631.691,-99.5619"/>
<polygon fill="midnightblue" stroke="midnightblue" points="494.397,-261.355 491.185,-271.452 499.992,-265.562 494.397,-261.355"/>
</g>
<!-- Node17 -->
<g id="node17" class="node"><title>Node17</title>
<g id="a_node17"><a xlink:href="../../dc/d64/classconfiguration_1_1_for_parser.html#a6bc38f731ac658c5860fe092ba7689ac" target="_top" xlink:title="configuration.ForParser.parseFor">
<polygon fill="white" stroke="black" points="625.5,-42.5 625.5,-61.5 796.5,-61.5 796.5,-42.5 625.5,-42.5"/>
<text text-anchor="middle" x="711" y="-49.5" font-family="Helvetica,sans-Serif" font-size="10.00">configuration.ForParser.parseFor</text>
</a>
</g>
</g>
<!-- Node3&#45;&gt;Node17 -->
<g id="edge16" class="edge"><title>Node3&#45;&gt;Node17</title>
<path fill="none" stroke="midnightblue" d="M499.277,-263.558C518.879,-240.56 553.082,-198.283 576,-158 596.693,-121.628 579.593,-97.4743 612,-71 616.563,-67.2721 621.643,-64.1993 627.022,-61.6733"/>
<polygon fill="midnightblue" stroke="midnightblue" points="496.41,-261.524 492.533,-271.384 501.712,-266.093 496.41,-261.524"/>
</g>
<!-- Node19 -->
<g id="node19" class="node"><title>Node19</title>
<g id="a_node19"><a xlink:href="../../d3/d0d/classconfiguration_1_1_repeat_parser.html#a27c7e86622dda996677d34987f702cb6" target="_top" xlink:title="configuration.RepeatParser.parseFor">
<polygon fill="white" stroke="black" points="616.5,-331.5 616.5,-350.5 805.5,-350.5 805.5,-331.5 616.5,-331.5"/>
<text text-anchor="middle" x="711" y="-338.5" font-family="Helvetica,sans-Serif" font-size="10.00">configuration.RepeatParser.parseFor</text>
</a>
</g>
</g>
<!-- Node3&#45;&gt;Node19 -->
<g id="edge18" class="edge"><title>Node3&#45;&gt;Node19</title>
<path fill="none" stroke="midnightblue" d="M526.637,-293.383C551.483,-300.501 583.45,-309.492 612,-317 630.973,-321.99 652.103,-327.207 669.87,-331.498"/>
<polygon fill="midnightblue" stroke="midnightblue" points="527.378,-289.955 516.801,-290.557 525.445,-296.682 527.378,-289.955"/>
</g>
<!-- Node21 -->
<g id="node21" class="node"><title>Node21</title>
<g id="a_node21"><a xlink:href="../../d3/d0d/classconfiguration_1_1_repeat_parser.html#ad35abe70f202dc3dd93bbdb50acd490d" target="_top" xlink:title="configuration.RepeatParser.parse\lListCommands">
<polygon fill="white" stroke="black" points="850,-288 850,-318 1024,-318 1024,-288 850,-288"/>
<text text-anchor="start" x="858" y="-306" font-family="Helvetica,sans-Serif" font-size="10.00">configuration.RepeatParser.parse</text>
<text text-anchor="middle" x="937" y="-295" font-family="Helvetica,sans-Serif" font-size="10.00">ListCommands</text>
</a>
</g>
</g>
<!-- Node3&#45;&gt;Node21 -->
<g id="edge25" class="edge"><title>Node3&#45;&gt;Node21</title>
<path fill="none" stroke="midnightblue" d="M571.275,-285.248C651.566,-289.156 769.955,-294.918 849.879,-298.808"/>
<polygon fill="midnightblue" stroke="midnightblue" points="571.346,-281.747 561.188,-284.757 571.006,-288.739 571.346,-281.747"/>
</g>
<!-- Node22 -->
<g id="node22" class="node"><title>Node22</title>
<g id="a_node22"><a xlink:href="../../d9/dfc/classconfiguration_1_1_dotimes_parser.html#aff41ee5ce2eeff82f7586bd1cf6a91c8" target="_top" xlink:title="configuration.DotimesParser.parseFor">
<polygon fill="white" stroke="black" points="612.5,-156.5 612.5,-175.5 809.5,-175.5 809.5,-156.5 612.5,-156.5"/>
<text text-anchor="middle" x="711" y="-163.5" font-family="Helvetica,sans-Serif" font-size="10.00">configuration.DotimesParser.parseFor</text>
</a>
</g>
</g>
<!-- Node3&#45;&gt;Node22 -->
<g id="edge22" class="edge"><title>Node3&#45;&gt;Node22</title>
<path fill="none" stroke="midnightblue" d="M500.859,-264.292C523.903,-242.475 567.481,-204.748 612,-185 620.792,-181.1 630.378,-177.998 640.001,-175.531"/>
<polygon fill="midnightblue" stroke="midnightblue" points="498.369,-261.831 493.596,-271.29 503.226,-266.871 498.369,-261.831"/>
</g>
<!-- Node24 -->
<g id="node24" class="node"><title>Node24</title>
<g id="a_node24"><a xlink:href="../../d7/d56/classconfiguration_1_1_ifelse_parser.html#aeb471eacbe15e095075bdd09619fe15d" target="_top" xlink:title="configuration.IfelseParser.parse\lListCommands">
<polygon fill="white" stroke="black" points="628,-408 628,-438 794,-438 794,-408 628,-408"/>
<text text-anchor="start" x="636" y="-426" font-family="Helvetica,sans-Serif" font-size="10.00">configuration.IfelseParser.parse</text>
<text text-anchor="middle" x="711" y="-415" font-family="Helvetica,sans-Serif" font-size="10.00">ListCommands</text>
</a>
</g>
</g>
<!-- Node3&#45;&gt;Node24 -->
<g id="edge26" class="edge"><title>Node3&#45;&gt;Node24</title>
<path fill="none" stroke="midnightblue" d="M498.983,-298.044C521.299,-322.435 565.64,-367.193 612,-393 622.727,-398.972 634.791,-403.903 646.692,-407.922"/>
<polygon fill="midnightblue" stroke="midnightblue" points="501.581,-295.699 492.288,-290.61 496.379,-300.383 501.581,-295.699"/>
</g>
<!-- Node6 -->
<g id="node6" class="node"><title>Node6</title>
<g id="a_node6"><a xlink:href="../../d7/d56/classconfiguration_1_1_ifelse_parser.html#a4b806589536dd338338d515a0fdb67ed" target="_top" xlink:title="configuration.IfelseParser.parse">
<polygon fill="white" stroke="black" points="854,-494.5 854,-513.5 1020,-513.5 1020,-494.5 854,-494.5"/>
<text text-anchor="middle" x="937" y="-501.5" font-family="Helvetica,sans-Serif" font-size="10.00">configuration.IfelseParser.parse</text>
</a>
</g>
</g>
<!-- Node5&#45;&gt;Node6 -->
<g id="edge5" class="edge"><title>Node5&#45;&gt;Node6</title>
<path fill="none" stroke="midnightblue" d="M811.4,-507.894C825.526,-507.452 839.923,-507.002 853.677,-506.573"/>
<polygon fill="midnightblue" stroke="midnightblue" points="811.06,-504.403 801.174,-508.213 811.279,-511.399 811.06,-504.403"/>
</g>
<!-- Node7 -->
<g id="node7" class="node"><title>Node7</title>
<g id="a_node7"><a xlink:href="../../dc/dd1/classconfiguration_1_1_if_parser.html#ab4ed2d3b7778d2b1206e5d26ebac7976" target="_top" xlink:title="configuration.IfParser.parse">
<polygon fill="white" stroke="black" points="864,-449.5 864,-468.5 1010,-468.5 1010,-449.5 864,-449.5"/>
<text text-anchor="middle" x="937" y="-456.5" font-family="Helvetica,sans-Serif" font-size="10.00">configuration.IfParser.parse</text>
</a>
</g>
</g>
<!-- Node5&#45;&gt;Node7 -->
<g id="edge6" class="edge"><title>Node5&#45;&gt;Node7</title>
<path fill="none" stroke="midnightblue" d="M786.8,-493.636C822.89,-485.258 864.793,-475.53 894.986,-468.521"/>
<polygon fill="midnightblue" stroke="midnightblue" points="785.74,-490.289 776.79,-495.959 787.323,-497.107 785.74,-490.289"/>
</g>
<!-- Node9 -->
<g id="node9" class="node"><title>Node9</title>
<g id="a_node9"><a xlink:href="../../d3/d0d/classconfiguration_1_1_repeat_parser.html#abf20b0ae25909c1cdff93f509830b502" target="_top" xlink:title="configuration.RepeatParser.parse">
<polygon fill="white" stroke="black" points="1068,-366.5 1068,-385.5 1242,-385.5 1242,-366.5 1068,-366.5"/>
<text text-anchor="middle" x="1155" y="-373.5" font-family="Helvetica,sans-Serif" font-size="10.00">configuration.RepeatParser.parse</text>
</a>
</g>
</g>
<!-- Node8&#45;&gt;Node9 -->
<g id="edge8" class="edge"><title>Node8&#45;&gt;Node9</title>
<path fill="none" stroke="midnightblue" d="M1033,-390.004C1045.87,-388.515 1058.99,-386.996 1071.62,-385.535"/>
<polygon fill="midnightblue" stroke="midnightblue" points="1032.28,-386.564 1022.75,-391.191 1033.09,-393.518 1032.28,-386.564"/>
</g>
<!-- Node11 -->
<g id="node11" class="node"><title>Node11</title>
<g id="a_node11"><a xlink:href="../../dc/d64/classconfiguration_1_1_for_parser.html#a2737b422e279cfca7c64fd8eff57d3ff" target="_top" xlink:title="configuration.ForParser.parse">
<polygon fill="white" stroke="black" points="859,-249.5 859,-268.5 1015,-268.5 1015,-249.5 859,-249.5"/>
<text text-anchor="middle" x="937" y="-256.5" font-family="Helvetica,sans-Serif" font-size="10.00">configuration.ForParser.parse</text>
</a>
</g>
</g>
<!-- Node10&#45;&gt;Node11 -->
<g id="edge10" class="edge"><title>Node10&#45;&gt;Node11</title>
<path fill="none" stroke="midnightblue" d="M797.622,-259C817.778,-259 839.141,-259 858.895,-259"/>
<polygon fill="midnightblue" stroke="midnightblue" points="797.524,-255.5 787.524,-259 797.524,-262.5 797.524,-255.5"/>
</g>
<!-- Node13 -->
<g id="node13" class="node"><title>Node13</title>
<g id="a_node13"><a xlink:href="../../d9/dfc/classconfiguration_1_1_dotimes_parser.html#a63d34c400b9b5715b4a2f9a5d0107e62" target="_top" xlink:title="configuration.DotimesParser.parse\lDotimesIterator">
<polygon fill="white" stroke="black" points="846,-197 846,-227 1028,-227 1028,-197 846,-197"/>
<text text-anchor="start" x="854" y="-215" font-family="Helvetica,sans-Serif" font-size="10.00">configuration.DotimesParser.parse</text>
<text text-anchor="middle" x="937" y="-204" font-family="Helvetica,sans-Serif" font-size="10.00">DotimesIterator</text>
</a>
</g>
</g>
<!-- Node12&#45;&gt;Node13 -->
<g id="edge12" class="edge"><title>Node12&#45;&gt;Node13</title>
<path fill="none" stroke="midnightblue" d="M810.748,-210.882C822.446,-210.986 834.34,-211.092 845.909,-211.196"/>
<polygon fill="midnightblue" stroke="midnightblue" points="810.562,-207.38 800.531,-210.79 810.499,-214.38 810.562,-207.38"/>
</g>
<!-- Node14 -->
<g id="node14" class="node"><title>Node14</title>
<g id="a_node14"><a xlink:href="../../d9/dfc/classconfiguration_1_1_dotimes_parser.html#abf0eb9bddfa4a09adc745008e17b293b" target="_top" xlink:title="configuration.DotimesParser.parse">
<polygon fill="white" stroke="black" points="1064,-178.5 1064,-197.5 1246,-197.5 1246,-178.5 1064,-178.5"/>
<text text-anchor="middle" x="1155" y="-185.5" font-family="Helvetica,sans-Serif" font-size="10.00">configuration.DotimesParser.parse</text>
</a>
</g>
</g>
<!-- Node13&#45;&gt;Node14 -->
<g id="edge13" class="edge"><title>Node13&#45;&gt;Node14</title>
<path fill="none" stroke="midnightblue" d="M1038.08,-200.88C1048.17,-199.759 1058.34,-198.628 1068.26,-197.527"/>
<polygon fill="midnightblue" stroke="midnightblue" points="1037.59,-197.413 1028.04,-201.996 1038.36,-204.37 1037.59,-197.413"/>
</g>
<!-- Node18 -->
<g id="node18" class="node"><title>Node18</title>
<g id="a_node18"><a xlink:href="../../dc/d64/classconfiguration_1_1_for_parser.html#ad3cb5184cf449bd3414f3ba73a8b3104" target="_top" xlink:title="configuration.ForParser.parse\lCommands">
<polygon fill="white" stroke="black" points="859,-39 859,-69 1015,-69 1015,-39 859,-39"/>
<text text-anchor="start" x="867" y="-57" font-family="Helvetica,sans-Serif" font-size="10.00">configuration.ForParser.parse</text>
<text text-anchor="middle" x="937" y="-46" font-family="Helvetica,sans-Serif" font-size="10.00">Commands</text>
</a>
</g>
</g>
<!-- Node17&#45;&gt;Node18 -->
<g id="edge17" class="edge"><title>Node17&#45;&gt;Node18</title>
<path fill="none" stroke="midnightblue" d="M806.838,-52.8468C824.214,-53.0019 842.155,-53.1621 858.934,-53.3119"/>
<polygon fill="midnightblue" stroke="midnightblue" points="806.716,-49.3456 796.685,-52.7561 806.653,-56.3454 806.716,-49.3456"/>
</g>
<!-- Node20 -->
<g id="node20" class="node"><title>Node20</title>
<g id="a_node20"><a xlink:href="../../d3/d0d/classconfiguration_1_1_repeat_parser.html#aed07d335bcd1174cb4247a7add0d3315" target="_top" xlink:title="configuration.RepeatParser.parse\lCommands">
<polygon fill="white" stroke="black" points="850,-337 850,-367 1024,-367 1024,-337 850,-337"/>
<text text-anchor="start" x="858" y="-355" font-family="Helvetica,sans-Serif" font-size="10.00">configuration.RepeatParser.parse</text>
<text text-anchor="middle" x="937" y="-344" font-family="Helvetica,sans-Serif" font-size="10.00">Commands</text>
</a>
</g>
</g>
<!-- Node19&#45;&gt;Node20 -->
<g id="edge19" class="edge"><title>Node19&#45;&gt;Node20</title>
<path fill="none" stroke="midnightblue" d="M815.693,-346.092C827.115,-346.653 838.652,-347.22 849.826,-347.768"/>
<polygon fill="midnightblue" stroke="midnightblue" points="815.858,-342.596 805.698,-345.601 815.515,-349.588 815.858,-342.596"/>
</g>
<!-- Node19&#45;&gt;Node21 -->
<g id="edge21" class="edge"><title>Node19&#45;&gt;Node21</title>
<path fill="none" stroke="midnightblue" d="M778.285,-329.755C800.644,-325.962 825.936,-321.672 849.615,-317.655"/>
<polygon fill="midnightblue" stroke="midnightblue" points="777.509,-326.337 768.236,-331.46 778.68,-333.238 777.509,-326.337"/>
</g>
<!-- Node20&#45;&gt;Node9 -->
<g id="edge20" class="edge"><title>Node20&#45;&gt;Node9</title>
<path fill="none" stroke="midnightblue" d="M1034.54,-362.726C1045.75,-363.972 1057.13,-365.237 1068.19,-366.465"/>
<polygon fill="midnightblue" stroke="midnightblue" points="1034.63,-359.215 1024.3,-361.589 1033.85,-366.172 1034.63,-359.215"/>
</g>
<!-- Node23 -->
<g id="node23" class="node"><title>Node23</title>
<g id="a_node23"><a xlink:href="../../d9/dfc/classconfiguration_1_1_dotimes_parser.html#a6086c4c4651b29dd968bf4728bd71d0c" target="_top" xlink:title="configuration.DotimesParser.parse\lCommands">
<polygon fill="white" stroke="black" points="846,-148 846,-178 1028,-178 1028,-148 846,-148"/>
<text text-anchor="start" x="854" y="-166" font-family="Helvetica,sans-Serif" font-size="10.00">configuration.DotimesParser.parse</text>
<text text-anchor="middle" x="937" y="-155" font-family="Helvetica,sans-Serif" font-size="10.00">Commands</text>
</a>
</g>
</g>
<!-- Node22&#45;&gt;Node23 -->
<g id="edge23" class="edge"><title>Node22&#45;&gt;Node23</title>
<path fill="none" stroke="midnightblue" d="M819.785,-164.556C828.488,-164.44 837.224,-164.323 845.783,-164.208"/>
<polygon fill="midnightblue" stroke="midnightblue" points="819.55,-161.059 809.598,-164.693 819.644,-168.059 819.55,-161.059"/>
</g>
<!-- Node23&#45;&gt;Node14 -->
<g id="edge24" class="edge"><title>Node23&#45;&gt;Node14</title>
<path fill="none" stroke="midnightblue" d="M1038.27,-174.606C1049.46,-175.901 1060.77,-177.209 1071.7,-178.474"/>
<polygon fill="midnightblue" stroke="midnightblue" points="1038.38,-171.094 1028.04,-173.421 1037.57,-178.048 1038.38,-171.094"/>
</g>
<!-- Node24&#45;&gt;Node6 -->
<g id="edge27" class="edge"><title>Node24&#45;&gt;Node6</title>
<path fill="none" stroke="midnightblue" d="M795.535,-441.536C800.518,-443.491 805.379,-445.639 810,-448 828.548,-457.474 827.604,-468.235 846,-478 859.36,-485.092 874.891,-490.462 889.252,-494.426"/>
<polygon fill="midnightblue" stroke="midnightblue" points="796.427,-438.136 785.833,-438.013 794.038,-444.716 796.427,-438.136"/>
</g>
<!-- Node24&#45;&gt;Node7 -->
<g id="edge28" class="edge"><title>Node24&#45;&gt;Node7</title>
<path fill="none" stroke="midnightblue" d="M804.171,-437.813C828.657,-441.749 854.45,-445.894 876.663,-449.464"/>
<polygon fill="midnightblue" stroke="midnightblue" points="804.566,-434.332 794.137,-436.201 803.455,-441.243 804.566,-434.332"/>
</g>
<!-- Node25&#45;&gt;Node5 -->
<g id="edge30" class="edge"><title>Node25&#45;&gt;Node5</title>
<path fill="none" stroke="midnightblue" d="M510.805,-440.386C536.279,-453.615 575.943,-473.081 612,-486 622.166,-489.642 633.103,-492.978 643.854,-495.943"/>
<polygon fill="midnightblue" stroke="midnightblue" points="512.256,-437.194 501.774,-435.647 509.004,-443.393 512.256,-437.194"/>
</g>
<!-- Node27 -->
<g id="node27" class="node"><title>Node27</title>
<g id="a_node27"><a xlink:href="../../d3/d71/classgui_1_1_user_input_box.html#a97af345e01f003fb2eab983e845422f2" target="_top" xlink:title="gui.UserInputBox.doInput">
<polygon fill="white" stroke="black" points="642.5,-3.5 642.5,-22.5 779.5,-22.5 779.5,-3.5 642.5,-3.5"/>
<text text-anchor="middle" x="711" y="-10.5" font-family="Helvetica,sans-Serif" font-size="10.00">gui.UserInputBox.doInput</text>
</a>
</g>
</g>
<!-- Node26&#45;&gt;Node27 -->
<g id="edge32" class="edge"><title>Node26&#45;&gt;Node27</title>
<path fill="none" stroke="midnightblue" d="M499.502,-121.656C521.883,-97.7661 565.673,-55.1779 612,-33 621.476,-28.4637 631.946,-24.9545 642.412,-22.2403"/>
<polygon fill="midnightblue" stroke="midnightblue" points="496.7,-119.532 492.509,-129.262 501.853,-124.269 496.7,-119.532"/>
</g>
<!-- Node28 -->
<g id="node28" class="node"><title>Node28</title>
<g id="a_node28"><a xlink:href="../../d3/d71/classgui_1_1_user_input_box.html#a2fc8903ae3868c350deb7b6caef9527d" target="_top" xlink:title="gui.UserInputBox.UserInputBox">
<polygon fill="white" stroke="black" points="854,-0.5 854,-19.5 1020,-19.5 1020,-0.5 854,-0.5"/>
<text text-anchor="middle" x="937" y="-7.5" font-family="Helvetica,sans-Serif" font-size="10.00">gui.UserInputBox.UserInputBox</text>
</a>
</g>
</g>
<!-- Node27&#45;&gt;Node28 -->
<g id="edge33" class="edge"><title>Node27&#45;&gt;Node28</title>
<path fill="none" stroke="midnightblue" d="M789.572,-11.9611C810.383,-11.6824 832.95,-11.3801 853.993,-11.0983"/>
<polygon fill="midnightblue" stroke="midnightblue" points="789.463,-8.46213 779.511,-12.0958 789.557,-15.4615 789.463,-8.46213"/>
</g>
</g>
</svg>
