<?xml version="1.0" encoding="UTF-8" standalone="no"?>
<!DOCTYPE svg PUBLIC "-//W3C//DTD SVG 1.1//EN"
 "http://www.w3.org/Graphics/SVG/1.1/DTD/svg11.dtd">
<!-- Generated by graphviz version 2.36.0 (20140111.2315)
 -->
<!-- Title: configuration.Util.match Pages: 1 -->
<svg width="1254pt" height="498pt"
 viewBox="0.00 0.00 1254.00 498.00" xmlns="http://www.w3.org/2000/svg" xmlns:xlink="http://www.w3.org/1999/xlink">
<g id="graph0" class="graph" transform="scale(1 1) rotate(0) translate(4 494)">
<title>configuration.Util.match</title>
<polygon fill="white" stroke="none" points="-4,4 -4,-494 1250,-494 1250,4 -4,4"/>
<!-- Node1 -->
<g id="node1" class="node"><title>Node1</title>
<polygon fill="#bfbfbf" stroke="black" points="0.5,-246.5 0.5,-265.5 131.5,-265.5 131.5,-246.5 0.5,-246.5"/>
<text text-anchor="middle" x="66" y="-253.5" font-family="Helvetica,sans-Serif" font-size="10.00">configuration.Util.match</text>
</g>
<!-- Node2 -->
<g id="node2" class="node"><title>Node2</title>
<g id="a_node2"><a xlink:href="../../da/dde/classconfiguration_1_1_util.html#a55c271426926996186d1cde227ae7e23" target="_top" xlink:title="configuration.Util.findCommandKey">
<polygon fill="white" stroke="black" points="168.5,-246.5 168.5,-265.5 353.5,-265.5 353.5,-246.5 168.5,-246.5"/>
<text text-anchor="middle" x="261" y="-253.5" font-family="Helvetica,sans-Serif" font-size="10.00">configuration.Util.findCommandKey</text>
</a>
</g>
</g>
<!-- Node1&#45;&gt;Node2 -->
<g id="edge1" class="edge"><title>Node1&#45;&gt;Node2</title>
<path fill="none" stroke="midnightblue" d="M141.673,-256C150.425,-256 159.429,-256 168.377,-256"/>
<polygon fill="midnightblue" stroke="midnightblue" points="141.535,-252.5 131.535,-256 141.534,-259.5 141.535,-252.5"/>
</g>
<!-- Node3 -->
<g id="node3" class="node"><title>Node3</title>
<g id="a_node3"><a xlink:href="../../d9/d11/classconfiguration_1_1_parser.html#ae0480f44c9defa614fb470ab154fa60b" target="_top" xlink:title="configuration.Parser.buildTree">
<polygon fill="white" stroke="black" points="405,-246.5 405,-265.5 561,-265.5 561,-246.5 405,-246.5"/>
<text text-anchor="middle" x="483" y="-253.5" font-family="Helvetica,sans-Serif" font-size="10.00">configuration.Parser.buildTree</text>
</a>
</g>
</g>
<!-- Node2&#45;&gt;Node3 -->
<g id="edge2" class="edge"><title>Node2&#45;&gt;Node3</title>
<path fill="none" stroke="midnightblue" d="M363.711,-256C377.509,-256 391.482,-256 404.755,-256"/>
<polygon fill="midnightblue" stroke="midnightblue" points="363.707,-252.5 353.707,-256 363.707,-259.5 363.707,-252.5"/>
</g>
<!-- Node25 -->
<g id="node25" class="node"><title>Node25</title>
<g id="a_node25"><a xlink:href="../../d7/d56/classconfiguration_1_1_ifelse_parser.html#a6098b84b1c6e73b18db5e016da7fece1" target="_top" xlink:title="configuration.IfelseParser.isboolean">
<polygon fill="white" stroke="black" points="390.5,-374.5 390.5,-393.5 575.5,-393.5 575.5,-374.5 390.5,-374.5"/>
<text text-anchor="middle" x="483" y="-381.5" font-family="Helvetica,sans-Serif" font-size="10.00">configuration.IfelseParser.isboolean</text>
</a>
</g>
</g>
<!-- Node2&#45;&gt;Node25 -->
<g id="edge28" class="edge"><title>Node2&#45;&gt;Node25</title>
<path fill="none" stroke="midnightblue" d="M287.208,-270.667C332.726,-297.15 427.443,-352.258 465.572,-374.442"/>
<polygon fill="midnightblue" stroke="midnightblue" points="288.939,-267.625 278.536,-265.621 285.419,-273.675 288.939,-267.625"/>
</g>
<!-- Node26 -->
<g id="node26" class="node"><title>Node26</title>
<g id="a_node26"><a xlink:href="../../d0/da7/classconfiguration_1_1_basic_parser.html#ab316d3a3f9ec49ba6922087948e76901" target="_top" xlink:title="configuration.BasicParser.parse">
<polygon fill="white" stroke="black" points="399.5,-106.5 399.5,-125.5 566.5,-125.5 566.5,-106.5 399.5,-106.5"/>
<text text-anchor="middle" x="483" y="-113.5" font-family="Helvetica,sans-Serif" font-size="10.00">configuration.BasicParser.parse</text>
</a>
</g>
</g>
<!-- Node2&#45;&gt;Node26 -->
<g id="edge30" class="edge"><title>Node2&#45;&gt;Node26</title>
<path fill="none" stroke="midnightblue" d="M285.738,-240.894C331.246,-211.934 429.572,-149.363 467.064,-125.505"/>
<polygon fill="midnightblue" stroke="midnightblue" points="283.679,-238.056 277.121,-246.377 287.437,-243.961 283.679,-238.056"/>
</g>
<!-- Node4 -->
<g id="node4" class="node"><title>Node4</title>
<g id="a_node4"><a xlink:href="../../d9/d11/classconfiguration_1_1_parser.html#a041ccb70bd9dee77d512d8469c15c14f" target="_top" xlink:title="configuration.Parser.buildTree">
<polygon fill="white" stroke="black" points="633,-246.5 633,-265.5 789,-265.5 789,-246.5 633,-246.5"/>
<text text-anchor="middle" x="711" y="-253.5" font-family="Helvetica,sans-Serif" font-size="10.00">configuration.Parser.buildTree</text>
</a>
</g>
</g>
<!-- Node3&#45;&gt;Node4 -->
<g id="edge3" class="edge"><title>Node3&#45;&gt;Node4</title>
<path fill="none" stroke="midnightblue" d="M571.307,-256C591.58,-256 613.018,-256 632.82,-256"/>
<polygon fill="midnightblue" stroke="midnightblue" points="571.144,-252.5 561.144,-256 571.144,-259.5 571.144,-252.5"/>
</g>
<!-- Node5 -->
<g id="node5" class="node"><title>Node5</title>
<g id="a_node5"><a xlink:href="../../d7/d56/classconfiguration_1_1_ifelse_parser.html#aef13959a758ccbf8dab0a3f5f94a7be0" target="_top" xlink:title="configuration.IfelseParser.evaluate\lBoolExpr">
<polygon fill="white" stroke="black" points="621,-460 621,-490 801,-490 801,-460 621,-460"/>
<text text-anchor="start" x="629" y="-478" font-family="Helvetica,sans-Serif" font-size="10.00">configuration.IfelseParser.evaluate</text>
<text text-anchor="middle" x="711" y="-467" font-family="Helvetica,sans-Serif" font-size="10.00">BoolExpr</text>
</a>
</g>
</g>
<!-- Node3&#45;&gt;Node5 -->
<g id="edge4" class="edge"><title>Node3&#45;&gt;Node5</title>
<path fill="none" stroke="midnightblue" d="M501.201,-272.993C521.168,-293.423 554.146,-329.421 576,-365 597.473,-399.958 580.886,-423.258 612,-450 616.528,-453.891 621.581,-457.19 626.941,-459.985"/>
<polygon fill="midnightblue" stroke="midnightblue" points="503.518,-270.359 493.994,-265.718 498.545,-275.286 503.518,-270.359"/>
</g>
<!-- Node9 -->
<g id="node9" class="node"><title>Node9</title>
<g id="a_node9"><a xlink:href="../../d3/d0d/classconfiguration_1_1_repeat_parser.html#ab218ee8c24e4dab18c02cd4a536d15d3" target="_top" xlink:title="configuration.RepeatParser.fetch\lNumericExpr">
<polygon fill="white" stroke="black" points="851.5,-39 851.5,-69 1022.5,-69 1022.5,-39 851.5,-39"/>
<text text-anchor="start" x="859.5" y="-57" font-family="Helvetica,sans-Serif" font-size="10.00">configuration.RepeatParser.fetch</text>
<text text-anchor="middle" x="937" y="-46" font-family="Helvetica,sans-Serif" font-size="10.00">NumericExpr</text>
</a>
</g>
</g>
<!-- Node3&#45;&gt;Node9 -->
<g id="edge8" class="edge"><title>Node3&#45;&gt;Node9</title>
<path fill="none" stroke="midnightblue" d="M498.496,-238.388C517.257,-215.275 550.557,-173.159 576,-135 593.677,-108.489 584.863,-89.6997 612,-73 685.902,-27.5223 788.139,-29.8843 857.877,-38.9862"/>
<polygon fill="midnightblue" stroke="midnightblue" points="495.676,-236.307 492.064,-246.267 501.099,-240.734 495.676,-236.307"/>
</g>
<!-- Node11 -->
<g id="node11" class="node"><title>Node11</title>
<g id="a_node11"><a xlink:href="../../dc/d64/classconfiguration_1_1_for_parser.html#a95aeb8afdb254389dcef062be1cf2727" target="_top" xlink:title="configuration.ForParser.fetch\lNumericExpr">
<polygon fill="white" stroke="black" points="634.5,-83 634.5,-113 787.5,-113 787.5,-83 634.5,-83"/>
<text text-anchor="start" x="642.5" y="-101" font-family="Helvetica,sans-Serif" font-size="10.00">configuration.ForParser.fetch</text>
<text text-anchor="middle" x="711" y="-90" font-family="Helvetica,sans-Serif" font-size="10.00">NumericExpr</text>
</a>
</g>
</g>
<!-- Node3&#45;&gt;Node11 -->
<g id="edge10" class="edge"><title>Node3&#45;&gt;Node11</title>
<path fill="none" stroke="midnightblue" d="M496.259,-237.857C516.743,-208.989 560.768,-152.823 612,-123 618.98,-118.937 626.617,-115.526 634.447,-112.666"/>
<polygon fill="midnightblue" stroke="midnightblue" points="493.291,-235.994 490.456,-246.203 499.039,-239.99 493.291,-235.994"/>
</g>
<!-- Node13 -->
<g id="node13" class="node"><title>Node13</title>
<g id="a_node13"><a xlink:href="../../d9/dfc/classconfiguration_1_1_dotimes_parser.html#a26cc7f8e0a21d93091bfe8884a924450" target="_top" xlink:title="configuration.DotimesParser.fetch\lNumericExpr">
<polygon fill="white" stroke="black" points="621.5,-285 621.5,-315 800.5,-315 800.5,-285 621.5,-285"/>
<text text-anchor="start" x="629.5" y="-303" font-family="Helvetica,sans-Serif" font-size="10.00">configuration.DotimesParser.fetch</text>
<text text-anchor="middle" x="711" y="-292" font-family="Helvetica,sans-Serif" font-size="10.00">NumericExpr</text>
</a>
</g>
</g>
<!-- Node3&#45;&gt;Node13 -->
<g id="edge12" class="edge"><title>Node3&#45;&gt;Node13</title>
<path fill="none" stroke="midnightblue" d="M542.866,-267.461C570.269,-272.796 603.234,-279.214 632.619,-284.935"/>
<polygon fill="midnightblue" stroke="midnightblue" points="543.523,-264.023 533.039,-265.547 542.185,-270.894 543.523,-264.023"/>
</g>
<!-- Node16 -->
<g id="node16" class="node"><title>Node16</title>
<g id="a_node16"><a xlink:href="../../db/d22/classconfiguration_1_1_set_parser.html#a4f20258805caaf18872872d5283a0e74" target="_top" xlink:title="configuration.SetParser.parse">
<polygon fill="white" stroke="black" points="632,-372.5 632,-391.5 790,-391.5 790,-372.5 632,-372.5"/>
<text text-anchor="middle" x="711" y="-379.5" font-family="Helvetica,sans-Serif" font-size="10.00">configuration.SetParser.parse</text>
</a>
</g>
</g>
<!-- Node3&#45;&gt;Node16 -->
<g id="edge15" class="edge"><title>Node3&#45;&gt;Node16</title>
<path fill="none" stroke="midnightblue" d="M499.101,-273.212C521.3,-297.339 565.203,-340.746 612,-363 620.217,-366.907 629.185,-370.011 638.251,-372.477"/>
<polygon fill="midnightblue" stroke="midnightblue" points="501.484,-270.628 492.185,-265.549 496.287,-275.318 501.484,-270.628"/>
</g>
<!-- Node17 -->
<g id="node17" class="node"><title>Node17</title>
<g id="a_node17"><a xlink:href="../../d0/da7/classconfiguration_1_1_basic_parser.html#a22bf37b374167e497f639182e7459517" target="_top" xlink:title="configuration.BasicParser.parse">
<polygon fill="white" stroke="black" points="627.5,-334.5 627.5,-353.5 794.5,-353.5 794.5,-334.5 627.5,-334.5"/>
<text text-anchor="middle" x="711" y="-341.5" font-family="Helvetica,sans-Serif" font-size="10.00">configuration.BasicParser.parse</text>
</a>
</g>
</g>
<!-- Node3&#45;&gt;Node17 -->
<g id="edge16" class="edge"><title>Node3&#45;&gt;Node17</title>
<path fill="none" stroke="midnightblue" d="M507.457,-271.121C532.431,-286.571 573.571,-310.197 612,-324 623.848,-328.256 636.846,-331.705 649.391,-334.463"/>
<polygon fill="midnightblue" stroke="midnightblue" points="509.048,-267.987 498.717,-265.637 505.327,-273.917 509.048,-267.987"/>
</g>
<!-- Node18 -->
<g id="node18" class="node"><title>Node18</title>
<g id="a_node18"><a xlink:href="../../d3/d0d/classconfiguration_1_1_repeat_parser.html#a27c7e86622dda996677d34987f702cb6" target="_top" xlink:title="configuration.RepeatParser.parseFor">
<polygon fill="white" stroke="black" points="616.5,-132.5 616.5,-151.5 805.5,-151.5 805.5,-132.5 616.5,-132.5"/>
<text text-anchor="middle" x="711" y="-139.5" font-family="Helvetica,sans-Serif" font-size="10.00">configuration.RepeatParser.parseFor</text>
</a>
</g>
</g>
<!-- Node3&#45;&gt;Node18 -->
<g id="edge17" class="edge"><title>Node3&#45;&gt;Node18</title>
<path fill="none" stroke="midnightblue" d="M500.894,-239.472C523.977,-217.889 567.598,-180.563 612,-161 620.881,-157.087 630.567,-153.977 640.279,-151.505"/>
<polygon fill="midnightblue" stroke="midnightblue" points="498.45,-236.966 493.618,-246.395 503.275,-242.037 498.45,-236.966"/>
</g>
<!-- Node20 -->
<g id="node20" class="node"><title>Node20</title>
<g id="a_node20"><a xlink:href="../../dc/d64/classconfiguration_1_1_for_parser.html#a6bc38f731ac658c5860fe092ba7689ac" target="_top" xlink:title="configuration.ForParser.parseFor">
<polygon fill="white" stroke="black" points="625.5,-208.5 625.5,-227.5 796.5,-227.5 796.5,-208.5 625.5,-208.5"/>
<text text-anchor="middle" x="711" y="-215.5" font-family="Helvetica,sans-Serif" font-size="10.00">configuration.ForParser.parseFor</text>
</a>
</g>
</g>
<!-- Node3&#45;&gt;Node20 -->
<g id="edge20" class="edge"><title>Node3&#45;&gt;Node20</title>
<path fill="none" stroke="midnightblue" d="M550.64,-244.795C583.241,-239.313 622.071,-232.785 653.239,-227.544"/>
<polygon fill="midnightblue" stroke="midnightblue" points="550.019,-241.35 540.738,-246.46 551.18,-248.253 550.019,-241.35"/>
</g>
<!-- Node22 -->
<g id="node22" class="node"><title>Node22</title>
<g id="a_node22"><a xlink:href="../../d9/dfc/classconfiguration_1_1_dotimes_parser.html#aff41ee5ce2eeff82f7586bd1cf6a91c8" target="_top" xlink:title="configuration.DotimesParser.parseFor">
<polygon fill="white" stroke="black" points="612.5,-170.5 612.5,-189.5 809.5,-189.5 809.5,-170.5 612.5,-170.5"/>
<text text-anchor="middle" x="711" y="-177.5" font-family="Helvetica,sans-Serif" font-size="10.00">configuration.DotimesParser.parseFor</text>
</a>
</g>
</g>
<!-- Node3&#45;&gt;Node22 -->
<g id="edge22" class="edge"><title>Node3&#45;&gt;Node22</title>
<path fill="none" stroke="midnightblue" d="M511.171,-241.719C536.61,-228.878 575.997,-210.344 612,-199 623.901,-195.25 636.86,-192.107 649.34,-189.525"/>
<polygon fill="midnightblue" stroke="midnightblue" points="509.451,-238.667 502.14,-246.334 512.637,-244.9 509.451,-238.667"/>
</g>
<!-- Node24 -->
<g id="node24" class="node"><title>Node24</title>
<g id="a_node24"><a xlink:href="../../d7/d56/classconfiguration_1_1_ifelse_parser.html#aeb471eacbe15e095075bdd09619fe15d" target="_top" xlink:title="configuration.IfelseParser.parse\lListCommands">
<polygon fill="white" stroke="black" points="628,-411 628,-441 794,-441 794,-411 628,-411"/>
<text text-anchor="start" x="636" y="-429" font-family="Helvetica,sans-Serif" font-size="10.00">configuration.IfelseParser.parse</text>
<text text-anchor="middle" x="711" y="-418" font-family="Helvetica,sans-Serif" font-size="10.00">ListCommands</text>
</a>
</g>
</g>
<!-- Node3&#45;&gt;Node24 -->
<g id="edge25" class="edge"><title>Node3&#45;&gt;Node24</title>
<path fill="none" stroke="midnightblue" d="M498.496,-273.556C528.922,-310.235 597.81,-392.326 612,-401 618.367,-404.892 625.321,-408.181 632.492,-410.96"/>
<polygon fill="midnightblue" stroke="midnightblue" points="501.041,-271.142 491.968,-265.671 495.649,-275.606 501.041,-271.142"/>
</g>
<!-- Node6 -->
<g id="node6" class="node"><title>Node6</title>
<g id="a_node6"><a xlink:href="../../d7/d56/classconfiguration_1_1_ifelse_parser.html#a4b806589536dd338338d515a0fdb67ed" target="_top" xlink:title="configuration.IfelseParser.parse">
<polygon fill="white" stroke="black" points="854,-419.5 854,-438.5 1020,-438.5 1020,-419.5 854,-419.5"/>
<text text-anchor="middle" x="937" y="-426.5" font-family="Helvetica,sans-Serif" font-size="10.00">configuration.IfelseParser.parse</text>
</a>
</g>
</g>
<!-- Node5&#45;&gt;Node6 -->
<g id="edge5" class="edge"><title>Node5&#45;&gt;Node6</title>
<path fill="none" stroke="midnightblue" d="M795.545,-457.843C827.357,-451.311 862.45,-444.104 889.6,-438.529"/>
<polygon fill="midnightblue" stroke="midnightblue" points="794.437,-454.498 785.346,-459.938 795.846,-461.355 794.437,-454.498"/>
</g>
<!-- Node7 -->
<g id="node7" class="node"><title>Node7</title>
<g id="a_node7"><a xlink:href="../../dc/dd1/classconfiguration_1_1_if_parser.html#ab4ed2d3b7778d2b1206e5d26ebac7976" target="_top" xlink:title="configuration.IfParser.parse">
<polygon fill="white" stroke="black" points="864,-462.5 864,-481.5 1010,-481.5 1010,-462.5 864,-462.5"/>
<text text-anchor="middle" x="937" y="-469.5" font-family="Helvetica,sans-Serif" font-size="10.00">configuration.IfParser.parse</text>
</a>
</g>
</g>
<!-- Node5&#45;&gt;Node7 -->
<g id="edge6" class="edge"><title>Node5&#45;&gt;Node7</title>
<path fill="none" stroke="midnightblue" d="M811.457,-473.668C829.027,-473.433 847.013,-473.192 863.658,-472.969"/>
<polygon fill="midnightblue" stroke="midnightblue" points="811.127,-470.172 801.174,-473.806 811.22,-477.171 811.127,-470.172"/>
</g>
<!-- Node8 -->
<g id="node8" class="node"><title>Node8</title>
<g id="a_node8"><a xlink:href="../../dc/dd1/classconfiguration_1_1_if_parser.html#a702326bd885126c4c3ad202676ddeff8" target="_top" xlink:title="configuration.IfParser.main">
<polygon fill="white" stroke="black" points="1083.5,-462.5 1083.5,-481.5 1226.5,-481.5 1226.5,-462.5 1083.5,-462.5"/>
<text text-anchor="middle" x="1155" y="-469.5" font-family="Helvetica,sans-Serif" font-size="10.00">configuration.IfParser.main</text>
</a>
</g>
</g>
<!-- Node7&#45;&gt;Node8 -->
<g id="edge7" class="edge"><title>Node7&#45;&gt;Node8</title>
<path fill="none" stroke="midnightblue" d="M1020.3,-472C1041.06,-472 1063.17,-472 1083.31,-472"/>
<polygon fill="midnightblue" stroke="midnightblue" points="1020.23,-468.5 1010.23,-472 1020.23,-475.5 1020.23,-468.5"/>
</g>
<!-- Node10 -->
<g id="node10" class="node"><title>Node10</title>
<g id="a_node10"><a xlink:href="../../d3/d0d/classconfiguration_1_1_repeat_parser.html#abf20b0ae25909c1cdff93f509830b502" target="_top" xlink:title="configuration.RepeatParser.parse">
<polygon fill="white" stroke="black" points="1068,-88.5 1068,-107.5 1242,-107.5 1242,-88.5 1068,-88.5"/>
<text text-anchor="middle" x="1155" y="-95.5" font-family="Helvetica,sans-Serif" font-size="10.00">configuration.RepeatParser.parse</text>
</a>
</g>
</g>
<!-- Node9&#45;&gt;Node10 -->
<g id="edge9" class="edge"><title>Node9&#45;&gt;Node10</title>
<path fill="none" stroke="midnightblue" d="M1021.88,-71.0862C1050.89,-76.9971 1082.36,-83.4067 1107.3,-88.4876"/>
<polygon fill="midnightblue" stroke="midnightblue" points="1022.23,-67.5858 1011.73,-69.0192 1020.83,-74.4449 1022.23,-67.5858"/>
</g>
<!-- Node12 -->
<g id="node12" class="node"><title>Node12</title>
<g id="a_node12"><a xlink:href="../../dc/d64/classconfiguration_1_1_for_parser.html#a2737b422e279cfca7c64fd8eff57d3ff" target="_top" xlink:title="configuration.ForParser.parse">
<polygon fill="white" stroke="black" points="859,-88.5 859,-107.5 1015,-107.5 1015,-88.5 859,-88.5"/>
<text text-anchor="middle" x="937" y="-95.5" font-family="Helvetica,sans-Serif" font-size="10.00">configuration.ForParser.parse</text>
</a>
</g>
</g>
<!-- Node11&#45;&gt;Node12 -->
<g id="edge11" class="edge"><title>Node11&#45;&gt;Node12</title>
<path fill="none" stroke="midnightblue" d="M797.622,-98C817.778,-98 839.141,-98 858.895,-98"/>
<polygon fill="midnightblue" stroke="midnightblue" points="797.524,-94.5001 787.524,-98 797.524,-101.5 797.524,-94.5001"/>
</g>
<!-- Node14 -->
<g id="node14" class="node"><title>Node14</title>
<g id="a_node14"><a xlink:href="../../d9/dfc/classconfiguration_1_1_dotimes_parser.html#a63d34c400b9b5715b4a2f9a5d0107e62" target="_top" xlink:title="configuration.DotimesParser.parse\lDotimesIterator">
<polygon fill="white" stroke="black" points="846,-280 846,-310 1028,-310 1028,-280 846,-280"/>
<text text-anchor="start" x="854" y="-298" font-family="Helvetica,sans-Serif" font-size="10.00">configuration.DotimesParser.parse</text>
<text text-anchor="middle" x="937" y="-287" font-family="Helvetica,sans-Serif" font-size="10.00">DotimesIterator</text>
</a>
</g>
</g>
<!-- Node13&#45;&gt;Node14 -->
<g id="edge13" class="edge"><title>Node13&#45;&gt;Node14</title>
<path fill="none" stroke="midnightblue" d="M810.748,-297.796C822.446,-297.535 834.34,-297.269 845.909,-297.011"/>
<polygon fill="midnightblue" stroke="midnightblue" points="810.45,-294.301 800.531,-298.024 810.606,-301.3 810.45,-294.301"/>
</g>
<!-- Node15 -->
<g id="node15" class="node"><title>Node15</title>
<g id="a_node15"><a xlink:href="../../d9/dfc/classconfiguration_1_1_dotimes_parser.html#abf0eb9bddfa4a09adc745008e17b293b" target="_top" xlink:title="configuration.DotimesParser.parse">
<polygon fill="white" stroke="black" points="1064,-233.5 1064,-252.5 1246,-252.5 1246,-233.5 1064,-233.5"/>
<text text-anchor="middle" x="1155" y="-240.5" font-family="Helvetica,sans-Serif" font-size="10.00">configuration.DotimesParser.parse</text>
</a>
</g>
</g>
<!-- Node14&#45;&gt;Node15 -->
<g id="edge14" class="edge"><title>Node14&#45;&gt;Node15</title>
<path fill="none" stroke="midnightblue" d="M1010.58,-277.528C1045.27,-269.175 1085.46,-259.5 1114.45,-252.521"/>
<polygon fill="midnightblue" stroke="midnightblue" points="1009.38,-274.216 1000.48,-279.959 1011.02,-281.022 1009.38,-274.216"/>
</g>
<!-- Node19 -->
<g id="node19" class="node"><title>Node19</title>
<g id="a_node19"><a xlink:href="../../d3/d0d/classconfiguration_1_1_repeat_parser.html#aed07d335bcd1174cb4247a7add0d3315" target="_top" xlink:title="configuration.RepeatParser.parse\lCommands">
<polygon fill="white" stroke="black" points="850,-127 850,-157 1024,-157 1024,-127 850,-127"/>
<text text-anchor="start" x="858" y="-145" font-family="Helvetica,sans-Serif" font-size="10.00">configuration.RepeatParser.parse</text>
<text text-anchor="middle" x="937" y="-134" font-family="Helvetica,sans-Serif" font-size="10.00">Commands</text>
</a>
</g>
</g>
<!-- Node18&#45;&gt;Node19 -->
<g id="edge18" class="edge"><title>Node18&#45;&gt;Node19</title>
<path fill="none" stroke="midnightblue" d="M816.039,-142C827.348,-142 838.765,-142 849.826,-142"/>
<polygon fill="midnightblue" stroke="midnightblue" points="815.698,-138.5 805.698,-142 815.698,-145.5 815.698,-138.5"/>
</g>
<!-- Node19&#45;&gt;Node10 -->
<g id="edge19" class="edge"><title>Node19&#45;&gt;Node10</title>
<path fill="none" stroke="midnightblue" d="M1021.88,-124.914C1050.89,-119.003 1082.36,-112.593 1107.3,-107.512"/>
<polygon fill="midnightblue" stroke="midnightblue" points="1020.83,-121.555 1011.73,-126.981 1022.23,-128.414 1020.83,-121.555"/>
</g>
<!-- Node21 -->
<g id="node21" class="node"><title>Node21</title>
<g id="a_node21"><a xlink:href="../../dc/d64/classconfiguration_1_1_for_parser.html#ad3cb5184cf449bd3414f3ba73a8b3104" target="_top" xlink:title="configuration.ForParser.parse\lCommands">
<polygon fill="white" stroke="black" points="859,-225 859,-255 1015,-255 1015,-225 859,-225"/>
<text text-anchor="start" x="867" y="-243" font-family="Helvetica,sans-Serif" font-size="10.00">configuration.ForParser.parse</text>
<text text-anchor="middle" x="937" y="-232" font-family="Helvetica,sans-Serif" font-size="10.00">Commands</text>
</a>
</g>
</g>
<!-- Node20&#45;&gt;Node21 -->
<g id="edge21" class="edge"><title>Node20&#45;&gt;Node21</title>
<path fill="none" stroke="midnightblue" d="M806.838,-227.314C824.214,-229.021 842.155,-230.783 858.934,-232.431"/>
<polygon fill="midnightblue" stroke="midnightblue" points="806.979,-223.812 796.685,-226.317 806.295,-230.778 806.979,-223.812"/>
</g>
<!-- Node23 -->
<g id="node23" class="node"><title>Node23</title>
<g id="a_node23"><a xlink:href="../../d9/dfc/classconfiguration_1_1_dotimes_parser.html#a6086c4c4651b29dd968bf4728bd71d0c" target="_top" xlink:title="configuration.DotimesParser.parse\lCommands">
<polygon fill="white" stroke="black" points="846,-176 846,-206 1028,-206 1028,-176 846,-176"/>
<text text-anchor="start" x="854" y="-194" font-family="Helvetica,sans-Serif" font-size="10.00">configuration.DotimesParser.parse</text>
<text text-anchor="middle" x="937" y="-183" font-family="Helvetica,sans-Serif" font-size="10.00">Commands</text>
</a>
</g>
</g>
<!-- Node22&#45;&gt;Node23 -->
<g id="edge23" class="edge"><title>Node22&#45;&gt;Node23</title>
<path fill="none" stroke="midnightblue" d="M819.785,-185.293C828.488,-185.72 837.224,-186.149 845.783,-186.57"/>
<polygon fill="midnightblue" stroke="midnightblue" points="819.758,-181.788 809.598,-184.793 819.414,-188.779 819.758,-181.788"/>
</g>
<!-- Node23&#45;&gt;Node15 -->
<g id="edge24" class="edge"><title>Node23&#45;&gt;Node15</title>
<path fill="none" stroke="midnightblue" d="M1010.58,-208.472C1045.27,-216.825 1085.46,-226.5 1114.45,-233.479"/>
<polygon fill="midnightblue" stroke="midnightblue" points="1011.02,-204.978 1000.48,-206.041 1009.38,-211.784 1011.02,-204.978"/>
</g>
<!-- Node24&#45;&gt;Node6 -->
<g id="edge26" class="edge"><title>Node24&#45;&gt;Node6</title>
<path fill="none" stroke="midnightblue" d="M804.283,-427.236C820.72,-427.456 837.742,-427.684 853.873,-427.9"/>
<polygon fill="midnightblue" stroke="midnightblue" points="804.183,-423.734 794.137,-427.1 804.09,-430.734 804.183,-423.734"/>
</g>
<!-- Node24&#45;&gt;Node7 -->
<g id="edge27" class="edge"><title>Node24&#45;&gt;Node7</title>
<path fill="none" stroke="midnightblue" d="M795.545,-443.157C827.357,-449.689 862.45,-456.896 889.6,-462.471"/>
<polygon fill="midnightblue" stroke="midnightblue" points="795.846,-439.645 785.346,-441.062 794.437,-446.502 795.846,-439.645"/>
</g>
<!-- Node25&#45;&gt;Node5 -->
<g id="edge29" class="edge"><title>Node25&#45;&gt;Node5</title>
<path fill="none" stroke="midnightblue" d="M508.488,-398.755C533.699,-413.43 574.486,-435.754 612,-450 621.767,-453.709 632.288,-457.044 642.684,-459.979"/>
<polygon fill="midnightblue" stroke="midnightblue" points="510.021,-395.596 499.628,-393.538 506.47,-401.628 510.021,-395.596"/>
</g>
<!-- Node27 -->
<g id="node27" class="node"><title>Node27</title>
<g id="a_node27"><a xlink:href="../../d3/d71/classgui_1_1_user_input_box.html#a97af345e01f003fb2eab983e845422f2" target="_top" xlink:title="gui.UserInputBox.doInput">
<polygon fill="white" stroke="black" points="642.5,-3.5 642.5,-22.5 779.5,-22.5 779.5,-3.5 642.5,-3.5"/>
<text text-anchor="middle" x="711" y="-10.5" font-family="Helvetica,sans-Serif" font-size="10.00">gui.UserInputBox.doInput</text>
</a>
</g>
</g>
<!-- Node26&#45;&gt;Node27 -->
<g id="edge31" class="edge"><title>Node26&#45;&gt;Node27</title>
<path fill="none" stroke="midnightblue" d="M505.854,-100.548C530.598,-83.6555 572.606,-56.7636 612,-40 629.051,-32.7443 648.601,-26.8984 665.732,-22.5264"/>
<polygon fill="midnightblue" stroke="midnightblue" points="503.793,-97.7181 497.556,-106.282 507.772,-103.477 503.793,-97.7181"/>
</g>
<!-- Node28 -->
<g id="node28" class="node"><title>Node28</title>
<g id="a_node28"><a xlink:href="../../d3/d71/classgui_1_1_user_input_box.html#a2fc8903ae3868c350deb7b6caef9527d" target="_top" xlink:title="gui.UserInputBox.UserInputBox">
<polygon fill="white" stroke="black" points="854,-0.5 854,-19.5 1020,-19.5 1020,-0.5 854,-0.5"/>
<text text-anchor="middle" x="937" y="-7.5" font-family="Helvetica,sans-Serif" font-size="10.00">gui.UserInputBox.UserInputBox</text>
</a>
</g>
</g>
<!-- Node27&#45;&gt;Node28 -->
<g id="edge32" class="edge"><title>Node27&#45;&gt;Node28</title>
<path fill="none" stroke="midnightblue" d="M789.572,-11.9611C810.383,-11.6824 832.95,-11.3801 853.993,-11.0983"/>
<polygon fill="midnightblue" stroke="midnightblue" points="789.463,-8.46213 779.511,-12.0958 789.557,-15.4615 789.463,-8.46213"/>
</g>
</g>
</svg>
