<?xml version="1.0" encoding="UTF-8" standalone="no"?>
<!DOCTYPE svg PUBLIC "-//W3C//DTD SVG 1.1//EN"
 "http://www.w3.org/Graphics/SVG/1.1/DTD/svg11.dtd">
<!-- Generated by graphviz version 2.36.0 (20140111.2315)
 -->
<!-- Title: configuration.Util.findCommandKey Pages: 1 -->
<svg width="1086pt" height="493pt"
 viewBox="0.00 0.00 1086.00 493.00" xmlns="http://www.w3.org/2000/svg" xmlns:xlink="http://www.w3.org/1999/xlink">
<g id="graph0" class="graph" transform="scale(1 1) rotate(0) translate(4 489)">
<title>configuration.Util.findCommandKey</title>
<polygon fill="white" stroke="none" points="-4,4 -4,-489 1082,-489 1082,4 -4,4"/>
<!-- Node1 -->
<g id="node1" class="node"><title>Node1</title>
<polygon fill="#bfbfbf" stroke="black" points="0.5,-252.5 0.5,-271.5 185.5,-271.5 185.5,-252.5 0.5,-252.5"/>
<text text-anchor="middle" x="93" y="-259.5" font-family="Helvetica,sans-Serif" font-size="10.00">configuration.Util.findCommandKey</text>
</g>
<!-- Node2 -->
<g id="node2" class="node"><title>Node2</title>
<g id="a_node2"><a xlink:href="../../d9/d11/classconfiguration_1_1_parser.html#ae0480f44c9defa614fb470ab154fa60b" target="_top" xlink:title="configuration.Parser.buildTree">
<polygon fill="white" stroke="black" points="237,-252.5 237,-271.5 393,-271.5 393,-252.5 237,-252.5"/>
<text text-anchor="middle" x="315" y="-259.5" font-family="Helvetica,sans-Serif" font-size="10.00">configuration.Parser.buildTree</text>
</a>
</g>
</g>
<!-- Node1&#45;&gt;Node2 -->
<g id="edge1" class="edge"><title>Node1&#45;&gt;Node2</title>
<path fill="none" stroke="midnightblue" d="M195.711,-262C209.509,-262 223.482,-262 236.755,-262"/>
<polygon fill="midnightblue" stroke="midnightblue" points="195.707,-258.5 185.707,-262 195.707,-265.5 195.707,-258.5"/>
</g>
<!-- Node23 -->
<g id="node23" class="node"><title>Node23</title>
<g id="a_node23"><a xlink:href="../../d7/d56/classconfiguration_1_1_ifelse_parser.html#a6098b84b1c6e73b18db5e016da7fece1" target="_top" xlink:title="configuration.IfelseParser.isboolean">
<polygon fill="white" stroke="black" points="222.5,-375.5 222.5,-394.5 407.5,-394.5 407.5,-375.5 222.5,-375.5"/>
<text text-anchor="middle" x="315" y="-382.5" font-family="Helvetica,sans-Serif" font-size="10.00">configuration.IfelseParser.isboolean</text>
</a>
</g>
</g>
<!-- Node1&#45;&gt;Node23 -->
<g id="edge26" class="edge"><title>Node1&#45;&gt;Node23</title>
<path fill="none" stroke="midnightblue" d="M120.243,-276.672C165.844,-302.168 258.498,-353.969 296.817,-375.393"/>
<polygon fill="midnightblue" stroke="midnightblue" points="121.699,-273.477 111.263,-271.652 118.283,-279.587 121.699,-273.477"/>
</g>
<!-- Node24 -->
<g id="node24" class="node"><title>Node24</title>
<g id="a_node24"><a xlink:href="../../d0/da7/classconfiguration_1_1_basic_parser.html#ab316d3a3f9ec49ba6922087948e76901" target="_top" xlink:title="configuration.BasicParser.parse">
<polygon fill="white" stroke="black" points="231.5,-107.5 231.5,-126.5 398.5,-126.5 398.5,-107.5 231.5,-107.5"/>
<text text-anchor="middle" x="315" y="-114.5" font-family="Helvetica,sans-Serif" font-size="10.00">configuration.BasicParser.parse</text>
</a>
</g>
</g>
<!-- Node1&#45;&gt;Node24 -->
<g id="edge28" class="edge"><title>Node1&#45;&gt;Node24</title>
<path fill="none" stroke="midnightblue" d="M116.995,-246.844C162.347,-216.953 262.159,-151.168 299.512,-126.549"/>
<polygon fill="midnightblue" stroke="midnightblue" points="114.858,-244.061 108.435,-252.486 118.711,-249.905 114.858,-244.061"/>
</g>
<!-- Node3 -->
<g id="node3" class="node"><title>Node3</title>
<g id="a_node3"><a xlink:href="../../d9/d11/classconfiguration_1_1_parser.html#a041ccb70bd9dee77d512d8469c15c14f" target="_top" xlink:title="configuration.Parser.buildTree">
<polygon fill="white" stroke="black" points="465,-328.5 465,-347.5 621,-347.5 621,-328.5 465,-328.5"/>
<text text-anchor="middle" x="543" y="-335.5" font-family="Helvetica,sans-Serif" font-size="10.00">configuration.Parser.buildTree</text>
</a>
</g>
</g>
<!-- Node2&#45;&gt;Node3 -->
<g id="edge2" class="edge"><title>Node2&#45;&gt;Node3</title>
<path fill="none" stroke="midnightblue" d="M343.171,-276.281C368.61,-289.122 407.997,-307.656 444,-319 455.901,-322.75 468.86,-325.893 481.34,-328.475"/>
<polygon fill="midnightblue" stroke="midnightblue" points="344.637,-273.1 334.14,-271.666 341.451,-279.333 344.637,-273.1"/>
</g>
<!-- Node4 -->
<g id="node4" class="node"><title>Node4</title>
<g id="a_node4"><a xlink:href="../../d7/d56/classconfiguration_1_1_ifelse_parser.html#aef13959a758ccbf8dab0a3f5f94a7be0" target="_top" xlink:title="configuration.IfelseParser.evaluate\lBoolExpr">
<polygon fill="white" stroke="black" points="453,-455 453,-485 633,-485 633,-455 453,-455"/>
<text text-anchor="start" x="461" y="-473" font-family="Helvetica,sans-Serif" font-size="10.00">configuration.IfelseParser.evaluate</text>
<text text-anchor="middle" x="543" y="-462" font-family="Helvetica,sans-Serif" font-size="10.00">BoolExpr</text>
</a>
</g>
</g>
<!-- Node2&#45;&gt;Node4 -->
<g id="edge3" class="edge"><title>Node2&#45;&gt;Node4</title>
<path fill="none" stroke="midnightblue" d="M333.415,-278.47C353.319,-297.967 385.979,-332.088 408,-366 429.013,-398.361 414.402,-420.247 444,-445 448.58,-448.83 453.671,-452.084 459.058,-454.846"/>
<polygon fill="midnightblue" stroke="midnightblue" points="335.841,-275.947 326.218,-271.514 330.976,-280.98 335.841,-275.947"/>
</g>
<!-- Node7 -->
<g id="node7" class="node"><title>Node7</title>
<g id="a_node7"><a xlink:href="../../d3/d0d/classconfiguration_1_1_repeat_parser.html#ab218ee8c24e4dab18c02cd4a536d15d3" target="_top" xlink:title="configuration.RepeatParser.fetch\lNumericExpr">
<polygon fill="white" stroke="black" points="683.5,-209 683.5,-239 854.5,-239 854.5,-209 683.5,-209"/>
<text text-anchor="start" x="691.5" y="-227" font-family="Helvetica,sans-Serif" font-size="10.00">configuration.RepeatParser.fetch</text>
<text text-anchor="middle" x="769" y="-216" font-family="Helvetica,sans-Serif" font-size="10.00">NumericExpr</text>
</a>
</g>
</g>
<!-- Node2&#45;&gt;Node7 -->
<g id="edge6" class="edge"><title>Node2&#45;&gt;Node7</title>
<path fill="none" stroke="midnightblue" d="M382.68,-250.957C402.381,-248.005 424.019,-245.065 444,-243 524.99,-234.631 617.778,-229.656 683.242,-226.91"/>
<polygon fill="midnightblue" stroke="midnightblue" points="381.932,-247.531 372.574,-252.498 382.987,-254.451 381.932,-247.531"/>
</g>
<!-- Node9 -->
<g id="node9" class="node"><title>Node9</title>
<g id="a_node9"><a xlink:href="../../dc/d64/classconfiguration_1_1_for_parser.html#a95aeb8afdb254389dcef062be1cf2727" target="_top" xlink:title="configuration.ForParser.fetch\lNumericExpr">
<polygon fill="white" stroke="black" points="466.5,-165 466.5,-195 619.5,-195 619.5,-165 466.5,-165"/>
<text text-anchor="start" x="474.5" y="-183" font-family="Helvetica,sans-Serif" font-size="10.00">configuration.ForParser.fetch</text>
<text text-anchor="middle" x="543" y="-172" font-family="Helvetica,sans-Serif" font-size="10.00">NumericExpr</text>
</a>
</g>
</g>
<!-- Node2&#45;&gt;Node9 -->
<g id="edge8" class="edge"><title>Node2&#45;&gt;Node9</title>
<path fill="none" stroke="midnightblue" d="M347.219,-248.41C372.954,-237.427 410.532,-221.894 444,-210 458.754,-204.756 474.945,-199.573 489.841,-195.028"/>
<polygon fill="midnightblue" stroke="midnightblue" points="345.779,-245.219 337.969,-252.379 348.539,-251.652 345.779,-245.219"/>
</g>
<!-- Node11 -->
<g id="node11" class="node"><title>Node11</title>
<g id="a_node11"><a xlink:href="../../d9/dfc/classconfiguration_1_1_dotimes_parser.html#a26cc7f8e0a21d93091bfe8884a924450" target="_top" xlink:title="configuration.DotimesParser.fetch\lNumericExpr">
<polygon fill="white" stroke="black" points="453.5,-77 453.5,-107 632.5,-107 632.5,-77 453.5,-77"/>
<text text-anchor="start" x="461.5" y="-95" font-family="Helvetica,sans-Serif" font-size="10.00">configuration.DotimesParser.fetch</text>
<text text-anchor="middle" x="543" y="-84" font-family="Helvetica,sans-Serif" font-size="10.00">NumericExpr</text>
</a>
</g>
</g>
<!-- Node2&#45;&gt;Node11 -->
<g id="edge10" class="edge"><title>Node2&#45;&gt;Node11</title>
<path fill="none" stroke="midnightblue" d="M326.992,-243.557C346.5,-212.482 390.228,-149.871 444,-117 450.367,-113.108 457.321,-109.819 464.492,-107.04"/>
<polygon fill="midnightblue" stroke="midnightblue" points="323.776,-242.107 321.527,-252.461 329.742,-245.769 323.776,-242.107"/>
</g>
<!-- Node14 -->
<g id="node14" class="node"><title>Node14</title>
<g id="a_node14"><a xlink:href="../../db/d22/classconfiguration_1_1_set_parser.html#a4f20258805caaf18872872d5283a0e74" target="_top" xlink:title="configuration.SetParser.parse">
<polygon fill="white" stroke="black" points="464,-38.5 464,-57.5 622,-57.5 622,-38.5 464,-38.5"/>
<text text-anchor="middle" x="543" y="-45.5" font-family="Helvetica,sans-Serif" font-size="10.00">configuration.SetParser.parse</text>
</a>
</g>
</g>
<!-- Node2&#45;&gt;Node14 -->
<g id="edge13" class="edge"><title>Node2&#45;&gt;Node14</title>
<path fill="none" stroke="midnightblue" d="M330.394,-244.103C349.305,-220.201 383.037,-176.193 408,-136 426.25,-106.617 416.27,-87.6764 444,-67 449.974,-62.5454 456.706,-59.0512 463.773,-56.3204"/>
<polygon fill="midnightblue" stroke="midnightblue" points="327.414,-242.227 323.921,-252.23 332.889,-246.588 327.414,-242.227"/>
</g>
<!-- Node15 -->
<g id="node15" class="node"><title>Node15</title>
<g id="a_node15"><a xlink:href="../../d0/da7/classconfiguration_1_1_basic_parser.html#a22bf37b374167e497f639182e7459517" target="_top" xlink:title="configuration.BasicParser.parse">
<polygon fill="white" stroke="black" points="459.5,-416.5 459.5,-435.5 626.5,-435.5 626.5,-416.5 459.5,-416.5"/>
<text text-anchor="middle" x="543" y="-423.5" font-family="Helvetica,sans-Serif" font-size="10.00">configuration.BasicParser.parse</text>
</a>
</g>
</g>
<!-- Node2&#45;&gt;Node15 -->
<g id="edge14" class="edge"><title>Node2&#45;&gt;Node15</title>
<path fill="none" stroke="midnightblue" d="M331.625,-279.65C365.57,-317.984 443.095,-405.478 444,-406 451.598,-410.378 460.012,-413.807 468.624,-416.491"/>
<polygon fill="midnightblue" stroke="midnightblue" points="333.973,-277.021 324.723,-271.855 328.732,-281.662 333.973,-277.021"/>
</g>
<!-- Node16 -->
<g id="node16" class="node"><title>Node16</title>
<g id="a_node16"><a xlink:href="../../d3/d0d/classconfiguration_1_1_repeat_parser.html#a27c7e86622dda996677d34987f702cb6" target="_top" xlink:title="configuration.RepeatParser.parseFor">
<polygon fill="white" stroke="black" points="448.5,-252.5 448.5,-271.5 637.5,-271.5 637.5,-252.5 448.5,-252.5"/>
<text text-anchor="middle" x="543" y="-259.5" font-family="Helvetica,sans-Serif" font-size="10.00">configuration.RepeatParser.parseFor</text>
</a>
</g>
</g>
<!-- Node2&#45;&gt;Node16 -->
<g id="edge15" class="edge"><title>Node2&#45;&gt;Node16</title>
<path fill="none" stroke="midnightblue" d="M403.268,-262C418.054,-262 433.461,-262 448.401,-262"/>
<polygon fill="midnightblue" stroke="midnightblue" points="403.144,-258.5 393.144,-262 403.144,-265.5 403.144,-258.5"/>
</g>
<!-- Node18 -->
<g id="node18" class="node"><title>Node18</title>
<g id="a_node18"><a xlink:href="../../dc/d64/classconfiguration_1_1_for_parser.html#a6bc38f731ac658c5860fe092ba7689ac" target="_top" xlink:title="configuration.ForParser.parseFor">
<polygon fill="white" stroke="black" points="457.5,-290.5 457.5,-309.5 628.5,-309.5 628.5,-290.5 457.5,-290.5"/>
<text text-anchor="middle" x="543" y="-297.5" font-family="Helvetica,sans-Serif" font-size="10.00">configuration.ForParser.parseFor</text>
</a>
</g>
</g>
<!-- Node2&#45;&gt;Node18 -->
<g id="edge18" class="edge"><title>Node2&#45;&gt;Node18</title>
<path fill="none" stroke="midnightblue" d="M382.64,-273.205C415.241,-278.687 454.071,-285.215 485.239,-290.456"/>
<polygon fill="midnightblue" stroke="midnightblue" points="383.18,-269.747 372.738,-271.54 382.019,-276.65 383.18,-269.747"/>
</g>
<!-- Node20 -->
<g id="node20" class="node"><title>Node20</title>
<g id="a_node20"><a xlink:href="../../d9/dfc/classconfiguration_1_1_dotimes_parser.html#aff41ee5ce2eeff82f7586bd1cf6a91c8" target="_top" xlink:title="configuration.DotimesParser.parseFor">
<polygon fill="white" stroke="black" points="444.5,-126.5 444.5,-145.5 641.5,-145.5 641.5,-126.5 444.5,-126.5"/>
<text text-anchor="middle" x="543" y="-133.5" font-family="Helvetica,sans-Serif" font-size="10.00">configuration.DotimesParser.parseFor</text>
</a>
</g>
</g>
<!-- Node2&#45;&gt;Node20 -->
<g id="edge20" class="edge"><title>Node2&#45;&gt;Node20</title>
<path fill="none" stroke="midnightblue" d="M331.101,-244.788C353.3,-220.661 397.203,-177.254 444,-155 452.217,-151.093 461.185,-147.989 470.251,-145.523"/>
<polygon fill="midnightblue" stroke="midnightblue" points="328.287,-242.682 324.185,-252.451 333.484,-247.372 328.287,-242.682"/>
</g>
<!-- Node22 -->
<g id="node22" class="node"><title>Node22</title>
<g id="a_node22"><a xlink:href="../../d7/d56/classconfiguration_1_1_ifelse_parser.html#aeb471eacbe15e095075bdd09619fe15d" target="_top" xlink:title="configuration.IfelseParser.parse\lListCommands">
<polygon fill="white" stroke="black" points="460,-367 460,-397 626,-397 626,-367 460,-367"/>
<text text-anchor="start" x="468" y="-385" font-family="Helvetica,sans-Serif" font-size="10.00">configuration.IfelseParser.parse</text>
<text text-anchor="middle" x="543" y="-374" font-family="Helvetica,sans-Serif" font-size="10.00">ListCommands</text>
</a>
</g>
</g>
<!-- Node2&#45;&gt;Node22 -->
<g id="edge23" class="edge"><title>Node2&#45;&gt;Node22</title>
<path fill="none" stroke="midnightblue" d="M333.427,-278.47C356.795,-299.676 400.41,-336.259 444,-357 452.086,-360.848 460.84,-364.155 469.674,-366.983"/>
<polygon fill="midnightblue" stroke="midnightblue" points="335.765,-275.865 326.039,-271.662 331.021,-281.012 335.765,-275.865"/>
</g>
<!-- Node5 -->
<g id="node5" class="node"><title>Node5</title>
<g id="a_node5"><a xlink:href="../../d7/d56/classconfiguration_1_1_ifelse_parser.html#a4b806589536dd338338d515a0fdb67ed" target="_top" xlink:title="configuration.IfelseParser.parse">
<polygon fill="white" stroke="black" points="686,-447.5 686,-466.5 852,-466.5 852,-447.5 686,-447.5"/>
<text text-anchor="middle" x="769" y="-454.5" font-family="Helvetica,sans-Serif" font-size="10.00">configuration.IfelseParser.parse</text>
</a>
</g>
</g>
<!-- Node4&#45;&gt;Node5 -->
<g id="edge4" class="edge"><title>Node4&#45;&gt;Node5</title>
<path fill="none" stroke="midnightblue" d="M643.4,-464.231C657.526,-463.411 671.923,-462.576 685.677,-461.778"/>
<polygon fill="midnightblue" stroke="midnightblue" points="642.955,-460.751 633.174,-464.825 643.36,-467.739 642.955,-460.751"/>
</g>
<!-- Node6 -->
<g id="node6" class="node"><title>Node6</title>
<g id="a_node6"><a xlink:href="../../dc/dd1/classconfiguration_1_1_if_parser.html#ab4ed2d3b7778d2b1206e5d26ebac7976" target="_top" xlink:title="configuration.IfParser.parse">
<polygon fill="white" stroke="black" points="696,-384.5 696,-403.5 842,-403.5 842,-384.5 696,-384.5"/>
<text text-anchor="middle" x="769" y="-391.5" font-family="Helvetica,sans-Serif" font-size="10.00">configuration.IfParser.parse</text>
</a>
</g>
</g>
<!-- Node4&#45;&gt;Node6 -->
<g id="edge5" class="edge"><title>Node4&#45;&gt;Node6</title>
<path fill="none" stroke="midnightblue" d="M618.041,-452.248C626.171,-449.962 634.291,-447.531 642,-445 679.669,-432.634 722.161,-414.535 746.923,-403.552"/>
<polygon fill="midnightblue" stroke="midnightblue" points="616.864,-448.942 608.146,-454.961 618.715,-455.693 616.864,-448.942"/>
</g>
<!-- Node8 -->
<g id="node8" class="node"><title>Node8</title>
<g id="a_node8"><a xlink:href="../../d3/d0d/classconfiguration_1_1_repeat_parser.html#abf20b0ae25909c1cdff93f509830b502" target="_top" xlink:title="configuration.RepeatParser.parse">
<polygon fill="white" stroke="black" points="900,-238.5 900,-257.5 1074,-257.5 1074,-238.5 900,-238.5"/>
<text text-anchor="middle" x="987" y="-245.5" font-family="Helvetica,sans-Serif" font-size="10.00">configuration.RepeatParser.parse</text>
</a>
</g>
</g>
<!-- Node7&#45;&gt;Node8 -->
<g id="edge7" class="edge"><title>Node7&#45;&gt;Node8</title>
<path fill="none" stroke="midnightblue" d="M865.034,-234.559C876.815,-235.868 888.804,-237.2 900.431,-238.492"/>
<polygon fill="midnightblue" stroke="midnightblue" points="865.074,-231.042 854.749,-233.417 864.301,-238 865.074,-231.042"/>
</g>
<!-- Node10 -->
<g id="node10" class="node"><title>Node10</title>
<g id="a_node10"><a xlink:href="../../dc/d64/classconfiguration_1_1_for_parser.html#a2737b422e279cfca7c64fd8eff57d3ff" target="_top" xlink:title="configuration.ForParser.parse">
<polygon fill="white" stroke="black" points="691,-170.5 691,-189.5 847,-189.5 847,-170.5 691,-170.5"/>
<text text-anchor="middle" x="769" y="-177.5" font-family="Helvetica,sans-Serif" font-size="10.00">configuration.ForParser.parse</text>
</a>
</g>
</g>
<!-- Node9&#45;&gt;Node10 -->
<g id="edge9" class="edge"><title>Node9&#45;&gt;Node10</title>
<path fill="none" stroke="midnightblue" d="M629.622,-180C649.778,-180 671.141,-180 690.895,-180"/>
<polygon fill="midnightblue" stroke="midnightblue" points="629.524,-176.5 619.524,-180 629.524,-183.5 629.524,-176.5"/>
</g>
<!-- Node12 -->
<g id="node12" class="node"><title>Node12</title>
<g id="a_node12"><a xlink:href="../../d9/dfc/classconfiguration_1_1_dotimes_parser.html#a63d34c400b9b5715b4a2f9a5d0107e62" target="_top" xlink:title="configuration.DotimesParser.parse\lDotimesIterator">
<polygon fill="white" stroke="black" points="678,-72 678,-102 860,-102 860,-72 678,-72"/>
<text text-anchor="start" x="686" y="-90" font-family="Helvetica,sans-Serif" font-size="10.00">configuration.DotimesParser.parse</text>
<text text-anchor="middle" x="769" y="-79" font-family="Helvetica,sans-Serif" font-size="10.00">DotimesIterator</text>
</a>
</g>
</g>
<!-- Node11&#45;&gt;Node12 -->
<g id="edge11" class="edge"><title>Node11&#45;&gt;Node12</title>
<path fill="none" stroke="midnightblue" d="M642.748,-89.7958C654.446,-89.5347 666.34,-89.2692 677.909,-89.011"/>
<polygon fill="midnightblue" stroke="midnightblue" points="642.45,-86.3015 632.531,-90.0239 642.606,-93.2997 642.45,-86.3015"/>
</g>
<!-- Node13 -->
<g id="node13" class="node"><title>Node13</title>
<g id="a_node13"><a xlink:href="../../d9/dfc/classconfiguration_1_1_dotimes_parser.html#abf0eb9bddfa4a09adc745008e17b293b" target="_top" xlink:title="configuration.DotimesParser.parse">
<polygon fill="white" stroke="black" points="896,-102.5 896,-121.5 1078,-121.5 1078,-102.5 896,-102.5"/>
<text text-anchor="middle" x="987" y="-109.5" font-family="Helvetica,sans-Serif" font-size="10.00">configuration.DotimesParser.parse</text>
</a>
</g>
</g>
<!-- Node12&#45;&gt;Node13 -->
<g id="edge12" class="edge"><title>Node12&#45;&gt;Node13</title>
<path fill="none" stroke="midnightblue" d="M870.272,-98.6056C881.464,-99.901 892.767,-101.209 903.698,-102.474"/>
<polygon fill="midnightblue" stroke="midnightblue" points="870.375,-95.0942 860.039,-97.4212 869.571,-102.048 870.375,-95.0942"/>
</g>
<!-- Node17 -->
<g id="node17" class="node"><title>Node17</title>
<g id="a_node17"><a xlink:href="../../d3/d0d/classconfiguration_1_1_repeat_parser.html#aed07d335bcd1174cb4247a7add0d3315" target="_top" xlink:title="configuration.RepeatParser.parse\lCommands">
<polygon fill="white" stroke="black" points="682,-258 682,-288 856,-288 856,-258 682,-258"/>
<text text-anchor="start" x="690" y="-276" font-family="Helvetica,sans-Serif" font-size="10.00">configuration.RepeatParser.parse</text>
<text text-anchor="middle" x="769" y="-265" font-family="Helvetica,sans-Serif" font-size="10.00">Commands</text>
</a>
</g>
</g>
<!-- Node16&#45;&gt;Node17 -->
<g id="edge16" class="edge"><title>Node16&#45;&gt;Node17</title>
<path fill="none" stroke="midnightblue" d="M647.693,-267.092C659.115,-267.653 670.652,-268.22 681.826,-268.768"/>
<polygon fill="midnightblue" stroke="midnightblue" points="647.858,-263.596 637.698,-266.601 647.515,-270.588 647.858,-263.596"/>
</g>
<!-- Node17&#45;&gt;Node8 -->
<g id="edge17" class="edge"><title>Node17&#45;&gt;Node8</title>
<path fill="none" stroke="midnightblue" d="M866.262,-261.859C878.755,-260.413 891.461,-258.942 903.7,-257.525"/>
<polygon fill="midnightblue" stroke="midnightblue" points="865.831,-258.385 856.3,-263.012 866.636,-265.339 865.831,-258.385"/>
</g>
<!-- Node19 -->
<g id="node19" class="node"><title>Node19</title>
<g id="a_node19"><a xlink:href="../../dc/d64/classconfiguration_1_1_for_parser.html#ad3cb5184cf449bd3414f3ba73a8b3104" target="_top" xlink:title="configuration.ForParser.parse\lCommands">
<polygon fill="white" stroke="black" points="691,-307 691,-337 847,-337 847,-307 691,-307"/>
<text text-anchor="start" x="699" y="-325" font-family="Helvetica,sans-Serif" font-size="10.00">configuration.ForParser.parse</text>
<text text-anchor="middle" x="769" y="-314" font-family="Helvetica,sans-Serif" font-size="10.00">Commands</text>
</a>
</g>
</g>
<!-- Node18&#45;&gt;Node19 -->
<g id="edge19" class="edge"><title>Node18&#45;&gt;Node19</title>
<path fill="none" stroke="midnightblue" d="M638.838,-309.314C656.214,-311.021 674.155,-312.783 690.934,-314.431"/>
<polygon fill="midnightblue" stroke="midnightblue" points="638.979,-305.812 628.685,-308.317 638.295,-312.778 638.979,-305.812"/>
</g>
<!-- Node21 -->
<g id="node21" class="node"><title>Node21</title>
<g id="a_node21"><a xlink:href="../../d9/dfc/classconfiguration_1_1_dotimes_parser.html#a6086c4c4651b29dd968bf4728bd71d0c" target="_top" xlink:title="configuration.DotimesParser.parse\lCommands">
<polygon fill="white" stroke="black" points="678,-121 678,-151 860,-151 860,-121 678,-121"/>
<text text-anchor="start" x="686" y="-139" font-family="Helvetica,sans-Serif" font-size="10.00">configuration.DotimesParser.parse</text>
<text text-anchor="middle" x="769" y="-128" font-family="Helvetica,sans-Serif" font-size="10.00">Commands</text>
</a>
</g>
</g>
<!-- Node20&#45;&gt;Node21 -->
<g id="edge21" class="edge"><title>Node20&#45;&gt;Node21</title>
<path fill="none" stroke="midnightblue" d="M651.785,-136C660.488,-136 669.224,-136 677.783,-136"/>
<polygon fill="midnightblue" stroke="midnightblue" points="651.598,-132.5 641.598,-136 651.598,-139.5 651.598,-132.5"/>
</g>
<!-- Node21&#45;&gt;Node13 -->
<g id="edge22" class="edge"><title>Node21&#45;&gt;Node13</title>
<path fill="none" stroke="midnightblue" d="M870.081,-124.88C880.166,-123.759 890.344,-122.628 900.26,-121.527"/>
<polygon fill="midnightblue" stroke="midnightblue" points="869.592,-121.413 860.039,-125.996 870.365,-128.37 869.592,-121.413"/>
</g>
<!-- Node22&#45;&gt;Node5 -->
<g id="edge24" class="edge"><title>Node22&#45;&gt;Node5</title>
<path fill="none" stroke="midnightblue" d="M617.566,-399.677C625.852,-401.99 634.137,-404.449 642,-407 679.384,-419.131 721.613,-436.712 746.457,-447.471"/>
<polygon fill="midnightblue" stroke="midnightblue" points="618.432,-396.285 607.863,-397.031 616.59,-403.039 618.432,-396.285"/>
</g>
<!-- Node22&#45;&gt;Node6 -->
<g id="edge25" class="edge"><title>Node22&#45;&gt;Node6</title>
<path fill="none" stroke="midnightblue" d="M636.144,-386.936C656.059,-388.003 676.839,-389.116 695.856,-390.135"/>
<polygon fill="midnightblue" stroke="midnightblue" points="636.31,-383.44 626.137,-386.4 635.936,-390.43 636.31,-383.44"/>
</g>
<!-- Node23&#45;&gt;Node4 -->
<g id="edge27" class="edge"><title>Node23&#45;&gt;Node4</title>
<path fill="none" stroke="midnightblue" d="M342.805,-399.386C368.279,-412.615 407.943,-432.081 444,-445 454.166,-448.642 465.103,-451.978 475.854,-454.943"/>
<polygon fill="midnightblue" stroke="midnightblue" points="344.256,-396.194 333.774,-394.647 341.004,-402.393 344.256,-396.194"/>
</g>
<!-- Node25 -->
<g id="node25" class="node"><title>Node25</title>
<g id="a_node25"><a xlink:href="../../d3/d71/classgui_1_1_user_input_box.html#a97af345e01f003fb2eab983e845422f2" target="_top" xlink:title="gui.UserInputBox.doInput">
<polygon fill="white" stroke="black" points="474.5,-0.5 474.5,-19.5 611.5,-19.5 611.5,-0.5 474.5,-0.5"/>
<text text-anchor="middle" x="543" y="-7.5" font-family="Helvetica,sans-Serif" font-size="10.00">gui.UserInputBox.doInput</text>
</a>
</g>
</g>
<!-- Node24&#45;&gt;Node25 -->
<g id="edge29" class="edge"><title>Node24&#45;&gt;Node25</title>
<path fill="none" stroke="midnightblue" d="M334.528,-100.547C358.2,-80.4485 401.249,-46.9186 444,-29 453.59,-24.9804 464.068,-21.8013 474.491,-19.2895"/>
<polygon fill="midnightblue" stroke="midnightblue" points="332,-98.1051 326.719,-107.29 336.575,-103.403 332,-98.1051"/>
</g>
<!-- Node26 -->
<g id="node26" class="node"><title>Node26</title>
<g id="a_node26"><a xlink:href="../../d3/d71/classgui_1_1_user_input_box.html#a2fc8903ae3868c350deb7b6caef9527d" target="_top" xlink:title="gui.UserInputBox.UserInputBox">
<polygon fill="white" stroke="black" points="686,-0.5 686,-19.5 852,-19.5 852,-0.5 686,-0.5"/>
<text text-anchor="middle" x="769" y="-7.5" font-family="Helvetica,sans-Serif" font-size="10.00">gui.UserInputBox.UserInputBox</text>
</a>
</g>
</g>
<!-- Node25&#45;&gt;Node26 -->
<g id="edge30" class="edge"><title>Node25&#45;&gt;Node26</title>
<path fill="none" stroke="midnightblue" d="M621.572,-10C642.383,-10 664.95,-10 685.993,-10"/>
<polygon fill="midnightblue" stroke="midnightblue" points="621.511,-6.5001 611.511,-10 621.511,-13.5001 621.511,-6.5001"/>
</g>
</g>
</svg>
