<?xml version="1.0" encoding="UTF-8" standalone="no"?>
<!DOCTYPE svg PUBLIC "-//W3C//DTD SVG 1.1//EN"
 "http://www.w3.org/Graphics/SVG/1.1/DTD/svg11.dtd">
<!-- Generated by graphviz version 2.36.0 (20140111.2315)
 -->
<!-- Title: configuration.Util.match Pages: 1 -->
<!--zoomable 590 -->
<svg id="main" version="1.1" xmlns="http://www.w3.org/2000/svg" xmlns:xlink="http://www.w3.org/1999/xlink" xml:space="preserve" onload="init(evt)">
<style type="text/css"><![CDATA[
.edge:hover path { stroke: red; }
.edge:hover polygon { stroke: red; fill: red; }
]]></style>
<script type="text/javascript"><![CDATA[
var edges = document.getElementsByTagName('g');
if (edges && edges.length) {
  for (var i=0;i<edges.length;i++) {
    if (edges[i].id.substr(0,4)=='edge') {
      edges[i].setAttribute('class','edge');
    }
  }
}
]]></script>
        <defs>
                <circle id="rim" cx="0" cy="0" r="7"/>
                <circle id="rim2" cx="0" cy="0" r="3.5"/>
                <g id="zoomPlus">
                        <use xlink:href="#rim" fill="#404040">
                                <set attributeName="fill" to="#808080" begin="zoomplus.mouseover" end="zoomplus.mouseout"/>
                        </use>
                        <path d="M-4,0h8M0,-4v8" fill="none" stroke="white" stroke-width="1.5" pointer-events="none"/>
                </g>
                <g id="zoomMin">
                        <use xlink:href="#rim" fill="#404040">
                                <set attributeName="fill" to="#808080" begin="zoomminus.mouseover" end="zoomminus.mouseout"/>
                        </use>
                        <path d="M-4,0h8" fill="none" stroke="white" stroke-width="1.5" pointer-events="none"/>
                </g>
                <g id="dirArrow">
                        <path fill="none" stroke="white" stroke-width="1.5" d="M0,-3.0v7 M-2.5,-0.5L0,-3.0L2.5,-0.5"/>
                </g>
               <g id="resetDef">
                       <use xlink:href="#rim2" fill="#404040">
                               <set attributeName="fill" to="#808080" begin="reset.mouseover" end="reset.mouseout"/>
                       </use>
               </g>
        </defs>

<script type="text/javascript">
var viewWidth = 1254;
var viewHeight = 590;
var sectionId = 'dynsection-5';
</script>
<script xlink:href="../../svgpan.js"/>
<svg id="graph" class="graph">
<g id="viewport">
<title>configuration.Util.match</title>
<polygon fill="white" stroke="none" points="-4,4 -4,-586 1250,-586 1250,4 -4,4"/>
<!-- Node1 -->
<g id="node1" class="node"><title>Node1</title>
<polygon fill="#bfbfbf" stroke="black" points="0.5,-373.5 0.5,-392.5 131.5,-392.5 131.5,-373.5 0.5,-373.5"/>
<text text-anchor="middle" x="66" y="-380.5" font-family="Helvetica,sans-Serif" font-size="10.00">configuration.Util.match</text>
</g>
<!-- Node2 -->
<g id="node2" class="node"><title>Node2</title>
<g id="a_node2"><a xlink:href="../../da/dde/classconfiguration_1_1_util.html#a55c271426926996186d1cde227ae7e23" target="_top" xlink:title="configuration.Util.findCommandKey">
<polygon fill="white" stroke="black" points="168.5,-373.5 168.5,-392.5 353.5,-392.5 353.5,-373.5 168.5,-373.5"/>
<text text-anchor="middle" x="261" y="-380.5" font-family="Helvetica,sans-Serif" font-size="10.00">configuration.Util.findCommandKey</text>
</a>
</g>
</g>
<!-- Node1&#45;&gt;Node2 -->
<g id="edge1" class="edge"><title>Node1&#45;&gt;Node2</title>
<path fill="none" stroke="midnightblue" d="M141.673,-383C150.425,-383 159.429,-383 168.377,-383"/>
<polygon fill="midnightblue" stroke="midnightblue" points="141.535,-379.5 131.535,-383 141.534,-386.5 141.535,-379.5"/>
</g>
<!-- Node3 -->
<g id="node3" class="node"><title>Node3</title>
<g id="a_node3"><a xlink:href="../../d9/d11/classconfiguration_1_1_parser.html#ae0480f44c9defa614fb470ab154fa60b" target="_top" xlink:title="configuration.Parser.buildTree">
<polygon fill="white" stroke="black" points="405,-309.5 405,-328.5 561,-328.5 561,-309.5 405,-309.5"/>
<text text-anchor="middle" x="483" y="-316.5" font-family="Helvetica,sans-Serif" font-size="10.00">configuration.Parser.buildTree</text>
</a>
</g>
</g>
<!-- Node2&#45;&gt;Node3 -->
<g id="edge2" class="edge"><title>Node2&#45;&gt;Node3</title>
<path fill="none" stroke="midnightblue" d="M304.661,-370.589C346.927,-358.294 410.75,-339.727 449.198,-328.542"/>
<polygon fill="midnightblue" stroke="midnightblue" points="303.561,-367.265 294.936,-373.419 305.516,-373.986 303.561,-367.265"/>
</g>
<!-- Node26 -->
<g id="node26" class="node"><title>Node26</title>
<g id="a_node26"><a xlink:href="../../dc/dd1/classconfiguration_1_1_if_parser.html#a5f9d7e06240658e0f1c3010c7dd24f30" target="_top" xlink:title="configuration.IfParser.isboolean">
<polygon fill="white" stroke="black" points="400.5,-437.5 400.5,-456.5 565.5,-456.5 565.5,-437.5 400.5,-437.5"/>
<text text-anchor="middle" x="483" y="-444.5" font-family="Helvetica,sans-Serif" font-size="10.00">configuration.IfParser.isboolean</text>
</a>
</g>
</g>
<!-- Node2&#45;&gt;Node26 -->
<g id="edge29" class="edge"><title>Node2&#45;&gt;Node26</title>
<path fill="none" stroke="midnightblue" d="M304.661,-395.411C346.927,-407.706 410.75,-426.273 449.198,-437.458"/>
<polygon fill="midnightblue" stroke="midnightblue" points="305.516,-392.014 294.936,-392.581 303.561,-398.735 305.516,-392.014"/>
</g>
<!-- Node27 -->
<g id="node27" class="node"><title>Node27</title>
<g id="a_node27"><a xlink:href="../../d7/d56/classconfiguration_1_1_ifelse_parser.html#a6098b84b1c6e73b18db5e016da7fece1" target="_top" xlink:title="configuration.IfelseParser.isboolean">
<polygon fill="white" stroke="black" points="390.5,-525.5 390.5,-544.5 575.5,-544.5 575.5,-525.5 390.5,-525.5"/>
<text text-anchor="middle" x="483" y="-532.5" font-family="Helvetica,sans-Serif" font-size="10.00">configuration.IfelseParser.isboolean</text>
</a>
</g>
</g>
<!-- Node2&#45;&gt;Node27 -->
<g id="edge31" class="edge"><title>Node2&#45;&gt;Node27</title>
<path fill="none" stroke="midnightblue" d="M284.001,-398.2C329.166,-429.405 431.21,-499.908 468.243,-525.495"/>
<polygon fill="midnightblue" stroke="midnightblue" points="285.979,-395.313 275.762,-392.508 282,-401.072 285.979,-395.313"/>
</g>
<!-- Node28 -->
<g id="node28" class="node"><title>Node28</title>
<g id="a_node28"><a xlink:href="../../d0/da7/classconfiguration_1_1_basic_parser.html#ab316d3a3f9ec49ba6922087948e76901" target="_top" xlink:title="configuration.BasicParser.parse">
<polygon fill="white" stroke="black" points="399.5,-145.5 399.5,-164.5 566.5,-164.5 566.5,-145.5 399.5,-145.5"/>
<text text-anchor="middle" x="483" y="-152.5" font-family="Helvetica,sans-Serif" font-size="10.00">configuration.BasicParser.parse</text>
</a>
</g>
</g>
<!-- Node2&#45;&gt;Node28 -->
<g id="edge33" class="edge"><title>Node2&#45;&gt;Node28</title>
<path fill="none" stroke="midnightblue" d="M278.126,-366.288C321.377,-321.464 438.968,-199.597 472.788,-164.547"/>
<polygon fill="midnightblue" stroke="midnightblue" points="275.598,-363.867 271.173,-373.493 280.635,-368.727 275.598,-363.867"/>
</g>
<!-- Node4 -->
<g id="node4" class="node"><title>Node4</title>
<g id="a_node4"><a xlink:href="../../d9/d11/classconfiguration_1_1_parser.html#a041ccb70bd9dee77d512d8469c15c14f" target="_top" xlink:title="configuration.Parser.buildTree">
<polygon fill="white" stroke="black" points="633,-88.5 633,-107.5 789,-107.5 789,-88.5 633,-88.5"/>
<text text-anchor="middle" x="711" y="-95.5" font-family="Helvetica,sans-Serif" font-size="10.00">configuration.Parser.buildTree</text>
</a>
</g>
</g>
<!-- Node3&#45;&gt;Node4 -->
<g id="edge3" class="edge"><title>Node3&#45;&gt;Node4</title>
<path fill="none" stroke="midnightblue" d="M495.719,-300.557C513.213,-273.019 547.186,-219.517 576,-174 592.026,-148.683 587.262,-133.906 612,-117 618.367,-112.649 625.482,-109.236 632.892,-106.567"/>
<polygon fill="midnightblue" stroke="midnightblue" points="492.662,-298.841 490.254,-309.159 498.571,-302.595 492.662,-298.841"/>
</g>
<!-- Node5 -->
<g id="node5" class="node"><title>Node5</title>
<g id="a_node5"><a xlink:href="../../d7/d56/classconfiguration_1_1_ifelse_parser.html#aef13959a758ccbf8dab0a3f5f94a7be0" target="_top" xlink:title="configuration.IfelseParser.evaluate\lBoolExpr">
<polygon fill="white" stroke="black" points="621,-552 621,-582 801,-582 801,-552 621,-552"/>
<text text-anchor="start" x="629" y="-570" font-family="Helvetica,sans-Serif" font-size="10.00">configuration.IfelseParser.evaluate</text>
<text text-anchor="middle" x="711" y="-559" font-family="Helvetica,sans-Serif" font-size="10.00">BoolExpr</text>
</a>
</g>
</g>
<!-- Node3&#45;&gt;Node5 -->
<g id="edge4" class="edge"><title>Node3&#45;&gt;Node5</title>
<path fill="none" stroke="midnightblue" d="M501.798,-335.646C522.335,-355.744 555.855,-391.426 576,-428 601.634,-474.54 573.39,-505.498 612,-542 616.083,-545.86 620.676,-549.146 625.589,-551.94"/>
<polygon fill="midnightblue" stroke="midnightblue" points="504.002,-332.909 494.368,-328.5 499.15,-337.955 504.002,-332.909"/>
</g>
<!-- Node7 -->
<g id="node7" class="node"><title>Node7</title>
<g id="a_node7"><a xlink:href="../../dc/dd1/classconfiguration_1_1_if_parser.html#a4a4ff4b725b19d88a1b364de84147f5d" target="_top" xlink:title="configuration.IfParser.evaluate\lBoolExpr">
<polygon fill="white" stroke="black" points="630.5,-503 630.5,-533 791.5,-533 791.5,-503 630.5,-503"/>
<text text-anchor="start" x="638.5" y="-521" font-family="Helvetica,sans-Serif" font-size="10.00">configuration.IfParser.evaluate</text>
<text text-anchor="middle" x="711" y="-510" font-family="Helvetica,sans-Serif" font-size="10.00">BoolExpr</text>
</a>
</g>
</g>
<!-- Node3&#45;&gt;Node7 -->
<g id="edge6" class="edge"><title>Node3&#45;&gt;Node7</title>
<path fill="none" stroke="midnightblue" d="M500.255,-336.086C519.573,-356.86 552.182,-393.439 576,-428 594.739,-455.192 585.859,-472.821 612,-493 617.56,-497.292 623.775,-500.853 630.304,-503.806"/>
<polygon fill="midnightblue" stroke="midnightblue" points="502.711,-333.589 493.316,-328.691 497.606,-338.378 502.711,-333.589"/>
</g>
<!-- Node9 -->
<g id="node9" class="node"><title>Node9</title>
<g id="a_node9"><a xlink:href="../../d3/d0d/classconfiguration_1_1_repeat_parser.html#ab218ee8c24e4dab18c02cd4a536d15d3" target="_top" xlink:title="configuration.RepeatParser.fetch\lNumericExpr">
<polygon fill="white" stroke="black" points="851.5,-279 851.5,-309 1022.5,-309 1022.5,-279 851.5,-279"/>
<text text-anchor="start" x="859.5" y="-297" font-family="Helvetica,sans-Serif" font-size="10.00">configuration.RepeatParser.fetch</text>
<text text-anchor="middle" x="937" y="-286" font-family="Helvetica,sans-Serif" font-size="10.00">NumericExpr</text>
</a>
</g>
</g>
<!-- Node3&#45;&gt;Node9 -->
<g id="edge8" class="edge"><title>Node3&#45;&gt;Node9</title>
<path fill="none" stroke="midnightblue" d="M571.34,-314.169C652.157,-309.699 771.531,-303.097 851.446,-298.677"/>
<polygon fill="midnightblue" stroke="midnightblue" points="570.979,-310.684 561.188,-314.731 571.366,-317.673 570.979,-310.684"/>
</g>
<!-- Node11 -->
<g id="node11" class="node"><title>Node11</title>
<g id="a_node11"><a xlink:href="../../dc/d64/classconfiguration_1_1_for_parser.html#a95aeb8afdb254389dcef062be1cf2727" target="_top" xlink:title="configuration.ForParser.fetch\lNumericExpr">
<polygon fill="white" stroke="black" points="634.5,-241 634.5,-271 787.5,-271 787.5,-241 634.5,-241"/>
<text text-anchor="start" x="642.5" y="-259" font-family="Helvetica,sans-Serif" font-size="10.00">configuration.ForParser.fetch</text>
<text text-anchor="middle" x="711" y="-248" font-family="Helvetica,sans-Serif" font-size="10.00">NumericExpr</text>
</a>
</g>
</g>
<!-- Node3&#45;&gt;Node11 -->
<g id="edge10" class="edge"><title>Node3&#45;&gt;Node11</title>
<path fill="none" stroke="midnightblue" d="M528.207,-306.677C564.789,-296.479 616.9,-281.953 655.957,-271.065"/>
<polygon fill="midnightblue" stroke="midnightblue" points="527.017,-303.375 518.325,-309.432 528.897,-310.118 527.017,-303.375"/>
</g>
<!-- Node13 -->
<g id="node13" class="node"><title>Node13</title>
<g id="a_node13"><a xlink:href="../../d9/dfc/classconfiguration_1_1_dotimes_parser.html#a26cc7f8e0a21d93091bfe8884a924450" target="_top" xlink:title="configuration.DotimesParser.fetch\lNumericExpr">
<polygon fill="white" stroke="black" points="621.5,-39 621.5,-69 800.5,-69 800.5,-39 621.5,-39"/>
<text text-anchor="start" x="629.5" y="-57" font-family="Helvetica,sans-Serif" font-size="10.00">configuration.DotimesParser.fetch</text>
<text text-anchor="middle" x="711" y="-46" font-family="Helvetica,sans-Serif" font-size="10.00">NumericExpr</text>
</a>
</g>
</g>
<!-- Node3&#45;&gt;Node13 -->
<g id="edge12" class="edge"><title>Node3&#45;&gt;Node13</title>
<path fill="none" stroke="midnightblue" d="M497.227,-300.85C516.342,-274.067 552.02,-221.941 576,-174 596.199,-133.618 578.329,-109.083 612,-79 616.321,-75.1395 621.156,-71.8588 626.302,-69.0727"/>
<polygon fill="midnightblue" stroke="midnightblue" points="494.205,-299.058 491.203,-309.218 499.886,-303.147 494.205,-299.058"/>
</g>
<!-- Node16 -->
<g id="node16" class="node"><title>Node16</title>
<g id="a_node16"><a xlink:href="../../db/d22/classconfiguration_1_1_set_parser.html#a4f20258805caaf18872872d5283a0e74" target="_top" xlink:title="configuration.SetParser.parse">
<polygon fill="white" stroke="black" points="632,-164.5 632,-183.5 790,-183.5 790,-164.5 632,-164.5"/>
<text text-anchor="middle" x="711" y="-171.5" font-family="Helvetica,sans-Serif" font-size="10.00">configuration.SetParser.parse</text>
</a>
</g>
</g>
<!-- Node3&#45;&gt;Node16 -->
<g id="edge15" class="edge"><title>Node3&#45;&gt;Node16</title>
<path fill="none" stroke="midnightblue" d="M496.605,-301.083C517.279,-273.17 561.207,-219.736 612,-193 619.361,-189.125 627.407,-186.036 635.623,-183.573"/>
<polygon fill="midnightblue" stroke="midnightblue" points="493.768,-299.033 490.731,-309.183 499.435,-303.143 493.768,-299.033"/>
</g>
<!-- Node17 -->
<g id="node17" class="node"><title>Node17</title>
<g id="a_node17"><a xlink:href="../../d0/da7/classconfiguration_1_1_basic_parser.html#a22bf37b374167e497f639182e7459517" target="_top" xlink:title="configuration.BasicParser.parse">
<polygon fill="white" stroke="black" points="627.5,-126.5 627.5,-145.5 794.5,-145.5 794.5,-126.5 627.5,-126.5"/>
<text text-anchor="middle" x="711" y="-133.5" font-family="Helvetica,sans-Serif" font-size="10.00">configuration.BasicParser.parse</text>
</a>
</g>
</g>
<!-- Node3&#45;&gt;Node17 -->
<g id="edge16" class="edge"><title>Node3&#45;&gt;Node17</title>
<path fill="none" stroke="midnightblue" d="M492.902,-300.192C510.417,-265.4 552.86,-191.242 612,-155 618.28,-151.151 625.176,-148.057 632.31,-145.573"/>
<polygon fill="midnightblue" stroke="midnightblue" points="489.711,-298.751 488.451,-309.27 495.996,-301.832 489.711,-298.751"/>
</g>
<!-- Node18 -->
<g id="node18" class="node"><title>Node18</title>
<g id="a_node18"><a xlink:href="../../d3/d0d/classconfiguration_1_1_repeat_parser.html#a27c7e86622dda996677d34987f702cb6" target="_top" xlink:title="configuration.RepeatParser.parseFor">
<polygon fill="white" stroke="black" points="616.5,-328.5 616.5,-347.5 805.5,-347.5 805.5,-328.5 616.5,-328.5"/>
<text text-anchor="middle" x="711" y="-335.5" font-family="Helvetica,sans-Serif" font-size="10.00">configuration.RepeatParser.parseFor</text>
</a>
</g>
</g>
<!-- Node3&#45;&gt;Node18 -->
<g id="edge17" class="edge"><title>Node3&#45;&gt;Node18</title>
<path fill="none" stroke="midnightblue" d="M571.268,-326.337C586.054,-327.58 601.461,-328.875 616.401,-330.131"/>
<polygon fill="midnightblue" stroke="midnightblue" points="571.402,-322.836 561.144,-325.486 570.816,-329.811 571.402,-322.836"/>
</g>
<!-- Node20 -->
<g id="node20" class="node"><title>Node20</title>
<g id="a_node20"><a xlink:href="../../dc/d64/classconfiguration_1_1_for_parser.html#a6bc38f731ac658c5860fe092ba7689ac" target="_top" xlink:title="configuration.ForParser.parseFor">
<polygon fill="white" stroke="black" points="625.5,-366.5 625.5,-385.5 796.5,-385.5 796.5,-366.5 625.5,-366.5"/>
<text text-anchor="middle" x="711" y="-373.5" font-family="Helvetica,sans-Serif" font-size="10.00">configuration.ForParser.parseFor</text>
</a>
</g>
</g>
<!-- Node3&#45;&gt;Node20 -->
<g id="edge20" class="edge"><title>Node3&#45;&gt;Node20</title>
<path fill="none" stroke="midnightblue" d="M522.84,-331.6C548.078,-339.522 581.786,-349.605 612,-357 626.14,-360.461 641.552,-363.696 655.879,-366.482"/>
<polygon fill="midnightblue" stroke="midnightblue" points="523.856,-328.25 513.266,-328.571 521.744,-334.925 523.856,-328.25"/>
</g>
<!-- Node22 -->
<g id="node22" class="node"><title>Node22</title>
<g id="a_node22"><a xlink:href="../../d9/dfc/classconfiguration_1_1_dotimes_parser.html#aff41ee5ce2eeff82f7586bd1cf6a91c8" target="_top" xlink:title="configuration.DotimesParser.parseFor">
<polygon fill="white" stroke="black" points="612.5,-202.5 612.5,-221.5 809.5,-221.5 809.5,-202.5 612.5,-202.5"/>
<text text-anchor="middle" x="711" y="-209.5" font-family="Helvetica,sans-Serif" font-size="10.00">configuration.DotimesParser.parseFor</text>
</a>
</g>
</g>
<!-- Node3&#45;&gt;Node22 -->
<g id="edge22" class="edge"><title>Node3&#45;&gt;Node22</title>
<path fill="none" stroke="midnightblue" d="M502.528,-302.547C526.2,-282.448 569.249,-248.919 612,-231 621.27,-227.114 631.371,-224.014 641.449,-221.543"/>
<polygon fill="midnightblue" stroke="midnightblue" points="500,-300.105 494.719,-309.29 504.575,-305.403 500,-300.105"/>
</g>
<!-- Node24 -->
<g id="node24" class="node"><title>Node24</title>
<g id="a_node24"><a xlink:href="../../d7/d56/classconfiguration_1_1_ifelse_parser.html#aeb471eacbe15e095075bdd09619fe15d" target="_top" xlink:title="configuration.IfelseParser.parse\lListCommands">
<polygon fill="white" stroke="black" points="628,-454 628,-484 794,-484 794,-454 628,-454"/>
<text text-anchor="start" x="636" y="-472" font-family="Helvetica,sans-Serif" font-size="10.00">configuration.IfelseParser.parse</text>
<text text-anchor="middle" x="711" y="-461" font-family="Helvetica,sans-Serif" font-size="10.00">ListCommands</text>
</a>
</g>
</g>
<!-- Node3&#45;&gt;Node24 -->
<g id="edge25" class="edge"><title>Node3&#45;&gt;Node24</title>
<path fill="none" stroke="midnightblue" d="M497.101,-336.781C518.19,-364.093 562.362,-416.126 612,-444 618.89,-447.869 626.385,-451.15 634.061,-453.93"/>
<polygon fill="midnightblue" stroke="midnightblue" points="499.686,-334.397 490.86,-328.537 494.105,-338.622 499.686,-334.397"/>
</g>
<!-- Node25 -->
<g id="node25" class="node"><title>Node25</title>
<g id="a_node25"><a xlink:href="../../dc/dd1/classconfiguration_1_1_if_parser.html#a3e1532b1163cc498d3f7636ed8ff2a16" target="_top" xlink:title="configuration.IfParser.parse\lListCommands">
<polygon fill="white" stroke="black" points="638,-405 638,-435 784,-435 784,-405 638,-405"/>
<text text-anchor="start" x="646" y="-423" font-family="Helvetica,sans-Serif" font-size="10.00">configuration.IfParser.parse</text>
<text text-anchor="middle" x="711" y="-412" font-family="Helvetica,sans-Serif" font-size="10.00">ListCommands</text>
</a>
</g>
</g>
<!-- Node3&#45;&gt;Node25 -->
<g id="edge27" class="edge"><title>Node3&#45;&gt;Node25</title>
<path fill="none" stroke="midnightblue" d="M505.398,-334.319C530.035,-351.319 572.235,-378.525 612,-395 621.084,-398.764 630.883,-402.077 640.65,-404.957"/>
<polygon fill="midnightblue" stroke="midnightblue" points="507.355,-331.416 497.153,-328.556 503.344,-337.153 507.355,-331.416"/>
</g>
<!-- Node6 -->
<g id="node6" class="node"><title>Node6</title>
<g id="a_node6"><a xlink:href="../../d7/d56/classconfiguration_1_1_ifelse_parser.html#a4b806589536dd338338d515a0fdb67ed" target="_top" xlink:title="configuration.IfelseParser.parse">
<polygon fill="white" stroke="black" points="854,-534.5 854,-553.5 1020,-553.5 1020,-534.5 854,-534.5"/>
<text text-anchor="middle" x="937" y="-541.5" font-family="Helvetica,sans-Serif" font-size="10.00">configuration.IfelseParser.parse</text>
</a>
</g>
</g>
<!-- Node5&#45;&gt;Node6 -->
<g id="edge5" class="edge"><title>Node5&#45;&gt;Node6</title>
<path fill="none" stroke="midnightblue" d="M811.4,-556.794C825.526,-555.343 839.923,-553.865 853.677,-552.453"/>
<polygon fill="midnightblue" stroke="midnightblue" points="810.765,-553.341 801.174,-557.844 811.48,-560.304 810.765,-553.341"/>
</g>
<!-- Node8 -->
<g id="node8" class="node"><title>Node8</title>
<g id="a_node8"><a xlink:href="../../dc/dd1/classconfiguration_1_1_if_parser.html#ab4ed2d3b7778d2b1206e5d26ebac7976" target="_top" xlink:title="configuration.IfParser.parse">
<polygon fill="white" stroke="black" points="864,-469.5 864,-488.5 1010,-488.5 1010,-469.5 864,-469.5"/>
<text text-anchor="middle" x="937" y="-476.5" font-family="Helvetica,sans-Serif" font-size="10.00">configuration.IfParser.parse</text>
</a>
</g>
</g>
<!-- Node7&#45;&gt;Node8 -->
<g id="edge7" class="edge"><title>Node7&#45;&gt;Node8</title>
<path fill="none" stroke="midnightblue" d="M801.804,-502.364C828.68,-497.685 857.332,-492.697 881.23,-488.536"/>
<polygon fill="midnightblue" stroke="midnightblue" points="800.856,-498.977 791.605,-504.14 802.057,-505.873 800.856,-498.977"/>
</g>
<!-- Node10 -->
<g id="node10" class="node"><title>Node10</title>
<g id="a_node10"><a xlink:href="../../d3/d0d/classconfiguration_1_1_repeat_parser.html#abf20b0ae25909c1cdff93f509830b502" target="_top" xlink:title="configuration.RepeatParser.parse">
<polygon fill="white" stroke="black" points="1068,-308.5 1068,-327.5 1242,-327.5 1242,-308.5 1068,-308.5"/>
<text text-anchor="middle" x="1155" y="-315.5" font-family="Helvetica,sans-Serif" font-size="10.00">configuration.RepeatParser.parse</text>
</a>
</g>
</g>
<!-- Node9&#45;&gt;Node10 -->
<g id="edge9" class="edge"><title>Node9&#45;&gt;Node10</title>
<path fill="none" stroke="midnightblue" d="M1033.03,-304.559C1044.81,-305.868 1056.8,-307.2 1068.43,-308.492"/>
<polygon fill="midnightblue" stroke="midnightblue" points="1033.07,-301.042 1022.75,-303.417 1032.3,-308 1033.07,-301.042"/>
</g>
<!-- Node12 -->
<g id="node12" class="node"><title>Node12</title>
<g id="a_node12"><a xlink:href="../../dc/d64/classconfiguration_1_1_for_parser.html#a2737b422e279cfca7c64fd8eff57d3ff" target="_top" xlink:title="configuration.ForParser.parse">
<polygon fill="white" stroke="black" points="859,-240.5 859,-259.5 1015,-259.5 1015,-240.5 859,-240.5"/>
<text text-anchor="middle" x="937" y="-247.5" font-family="Helvetica,sans-Serif" font-size="10.00">configuration.ForParser.parse</text>
</a>
</g>
</g>
<!-- Node11&#45;&gt;Node12 -->
<g id="edge11" class="edge"><title>Node11&#45;&gt;Node12</title>
<path fill="none" stroke="midnightblue" d="M797.622,-253.707C817.778,-253.167 839.141,-252.594 858.895,-252.065"/>
<polygon fill="midnightblue" stroke="midnightblue" points="797.427,-250.21 787.524,-253.977 797.614,-257.208 797.427,-250.21"/>
</g>
<!-- Node14 -->
<g id="node14" class="node"><title>Node14</title>
<g id="a_node14"><a xlink:href="../../d9/dfc/classconfiguration_1_1_dotimes_parser.html#a63d34c400b9b5715b4a2f9a5d0107e62" target="_top" xlink:title="configuration.DotimesParser.parse\lDotimesIterator">
<polygon fill="white" stroke="black" points="846,-66 846,-96 1028,-96 1028,-66 846,-66"/>
<text text-anchor="start" x="854" y="-84" font-family="Helvetica,sans-Serif" font-size="10.00">configuration.DotimesParser.parse</text>
<text text-anchor="middle" x="937" y="-73" font-family="Helvetica,sans-Serif" font-size="10.00">DotimesIterator</text>
</a>
</g>
</g>
<!-- Node13&#45;&gt;Node14 -->
<g id="edge13" class="edge"><title>Node13&#45;&gt;Node14</title>
<path fill="none" stroke="midnightblue" d="M810.748,-65.9026C822.446,-67.3127 834.34,-68.7463 845.909,-70.1409"/>
<polygon fill="midnightblue" stroke="midnightblue" points="810.878,-62.393 800.531,-64.6711 810.04,-69.3427 810.878,-62.393"/>
</g>
<!-- Node15 -->
<g id="node15" class="node"><title>Node15</title>
<g id="a_node15"><a xlink:href="../../d9/dfc/classconfiguration_1_1_dotimes_parser.html#abf0eb9bddfa4a09adc745008e17b293b" target="_top" xlink:title="configuration.DotimesParser.parse">
<polygon fill="white" stroke="black" points="1064,-109.5 1064,-128.5 1246,-128.5 1246,-109.5 1064,-109.5"/>
<text text-anchor="middle" x="1155" y="-116.5" font-family="Helvetica,sans-Serif" font-size="10.00">configuration.DotimesParser.parse</text>
</a>
</g>
</g>
<!-- Node14&#45;&gt;Node15 -->
<g id="edge14" class="edge"><title>Node14&#45;&gt;Node15</title>
<path fill="none" stroke="midnightblue" d="M1033.43,-97.7891C1056.24,-101.802 1079.81,-105.949 1099.99,-109.499"/>
<polygon fill="midnightblue" stroke="midnightblue" points="1033.82,-94.3043 1023.37,-96.0186 1032.61,-101.198 1033.82,-94.3043"/>
</g>
<!-- Node19 -->
<g id="node19" class="node"><title>Node19</title>
<g id="a_node19"><a xlink:href="../../d3/d0d/classconfiguration_1_1_repeat_parser.html#aed07d335bcd1174cb4247a7add0d3315" target="_top" xlink:title="configuration.RepeatParser.parse\lCommands">
<polygon fill="white" stroke="black" points="850,-328 850,-358 1024,-358 1024,-328 850,-328"/>
<text text-anchor="start" x="858" y="-346" font-family="Helvetica,sans-Serif" font-size="10.00">configuration.RepeatParser.parse</text>
<text text-anchor="middle" x="937" y="-335" font-family="Helvetica,sans-Serif" font-size="10.00">Commands</text>
</a>
</g>
</g>
<!-- Node18&#45;&gt;Node19 -->
<g id="edge18" class="edge"><title>Node18&#45;&gt;Node19</title>
<path fill="none" stroke="midnightblue" d="M816.039,-340.322C827.348,-340.575 838.765,-340.83 849.826,-341.076"/>
<polygon fill="midnightblue" stroke="midnightblue" points="815.774,-336.816 805.698,-340.091 815.618,-343.814 815.774,-336.816"/>
</g>
<!-- Node19&#45;&gt;Node10 -->
<g id="edge19" class="edge"><title>Node19&#45;&gt;Node10</title>
<path fill="none" stroke="midnightblue" d="M1034.26,-331.859C1046.76,-330.413 1059.46,-328.942 1071.7,-327.525"/>
<polygon fill="midnightblue" stroke="midnightblue" points="1033.83,-328.385 1024.3,-333.012 1034.64,-335.339 1033.83,-328.385"/>
</g>
<!-- Node21 -->
<g id="node21" class="node"><title>Node21</title>
<g id="a_node21"><a xlink:href="../../dc/d64/classconfiguration_1_1_for_parser.html#ad3cb5184cf449bd3414f3ba73a8b3104" target="_top" xlink:title="configuration.ForParser.parse\lCommands">
<polygon fill="white" stroke="black" points="859,-377 859,-407 1015,-407 1015,-377 859,-377"/>
<text text-anchor="start" x="867" y="-395" font-family="Helvetica,sans-Serif" font-size="10.00">configuration.ForParser.parse</text>
<text text-anchor="middle" x="937" y="-384" font-family="Helvetica,sans-Serif" font-size="10.00">Commands</text>
</a>
</g>
</g>
<!-- Node20&#45;&gt;Node21 -->
<g id="edge21" class="edge"><title>Node20&#45;&gt;Node21</title>
<path fill="none" stroke="midnightblue" d="M806.838,-382.774C824.214,-384.015 842.155,-385.297 858.934,-386.495"/>
<polygon fill="midnightblue" stroke="midnightblue" points="806.909,-379.27 796.685,-382.049 806.41,-386.253 806.909,-379.27"/>
</g>
<!-- Node23 -->
<g id="node23" class="node"><title>Node23</title>
<g id="a_node23"><a xlink:href="../../d9/dfc/classconfiguration_1_1_dotimes_parser.html#a6086c4c4651b29dd968bf4728bd71d0c" target="_top" xlink:title="configuration.DotimesParser.parse\lCommands">
<polygon fill="white" stroke="black" points="846,-142 846,-172 1028,-172 1028,-142 846,-142"/>
<text text-anchor="start" x="854" y="-160" font-family="Helvetica,sans-Serif" font-size="10.00">configuration.DotimesParser.parse</text>
<text text-anchor="middle" x="937" y="-149" font-family="Helvetica,sans-Serif" font-size="10.00">Commands</text>
</a>
</g>
</g>
<!-- Node22&#45;&gt;Node23 -->
<g id="edge23" class="edge"><title>Node22&#45;&gt;Node23</title>
<path fill="none" stroke="midnightblue" d="M775.57,-200.51C787.067,-198.195 798.919,-195.652 810,-193 835.666,-186.858 863.942,-178.89 887.194,-172.013"/>
<polygon fill="midnightblue" stroke="midnightblue" points="774.718,-197.11 765.586,-202.482 776.075,-203.977 774.718,-197.11"/>
</g>
<!-- Node23&#45;&gt;Node15 -->
<g id="edge24" class="edge"><title>Node23&#45;&gt;Node15</title>
<path fill="none" stroke="midnightblue" d="M1033.43,-140.211C1056.24,-136.198 1079.81,-132.051 1099.99,-128.501"/>
<polygon fill="midnightblue" stroke="midnightblue" points="1032.61,-136.802 1023.37,-141.981 1033.82,-143.696 1032.61,-136.802"/>
</g>
<!-- Node24&#45;&gt;Node6 -->
<g id="edge26" class="edge"><title>Node24&#45;&gt;Node6</title>
<path fill="none" stroke="midnightblue" d="M785.566,-486.677C793.852,-488.99 802.137,-491.449 810,-494 847.384,-506.131 889.613,-523.712 914.457,-534.471"/>
<polygon fill="midnightblue" stroke="midnightblue" points="786.432,-483.285 775.863,-484.031 784.59,-490.039 786.432,-483.285"/>
</g>
<!-- Node25&#45;&gt;Node8 -->
<g id="edge28" class="edge"><title>Node25&#45;&gt;Node8</title>
<path fill="none" stroke="midnightblue" d="M781.336,-437.561C790.969,-440.038 800.735,-442.568 810,-445 840.9,-453.11 875.985,-462.601 901.272,-469.491"/>
<polygon fill="midnightblue" stroke="midnightblue" points="781.928,-434.1 771.372,-435.006 780.189,-440.88 781.928,-434.1"/>
</g>
<!-- Node26&#45;&gt;Node7 -->
<g id="edge30" class="edge"><title>Node26&#45;&gt;Node7</title>
<path fill="none" stroke="midnightblue" d="M517.922,-460.189C543.551,-469.909 579.711,-483.104 612,-493 623.332,-496.473 635.501,-499.853 647.279,-502.947"/>
<polygon fill="midnightblue" stroke="midnightblue" points="518.897,-456.815 508.306,-456.517 516.4,-463.354 518.897,-456.815"/>
</g>
<!-- Node27&#45;&gt;Node5 -->
<g id="edge32" class="edge"><title>Node27&#45;&gt;Node5</title>
<path fill="none" stroke="midnightblue" d="M561.098,-545.917C580.33,-548.64 601.111,-551.582 620.871,-554.38"/>
<polygon fill="midnightblue" stroke="midnightblue" points="561.588,-542.451 551.196,-544.514 560.606,-549.382 561.588,-542.451"/>
</g>
<!-- Node29 -->
<g id="node29" class="node"><title>Node29</title>
<g id="a_node29"><a xlink:href="../../d3/d71/classgui_1_1_user_input_box.html#a25ddaeacb322372cf5f5648cbf46eff2" target="_top" xlink:title="gui.UserInputBox.doInput">
<polygon fill="white" stroke="black" points="642.5,-0.5 642.5,-19.5 779.5,-19.5 779.5,-0.5 642.5,-0.5"/>
<text text-anchor="middle" x="711" y="-7.5" font-family="Helvetica,sans-Serif" font-size="10.00">gui.UserInputBox.doInput</text>
</a>
</g>
</g>
<!-- Node28&#45;&gt;Node29 -->
<g id="edge34" class="edge"><title>Node28&#45;&gt;Node29</title>
<path fill="none" stroke="midnightblue" d="M496.605,-137.083C517.279,-109.17 561.207,-55.7356 612,-29 621.355,-24.0759 631.816,-20.4197 642.325,-17.7067"/>
<polygon fill="midnightblue" stroke="midnightblue" points="493.768,-135.033 490.731,-145.183 499.435,-139.143 493.768,-135.033"/>
</g>
<!-- Node30 -->
<g id="node30" class="node"><title>Node30</title>
<g id="a_node30"><a xlink:href="../../d3/d71/classgui_1_1_user_input_box.html#a2fc8903ae3868c350deb7b6caef9527d" target="_top" xlink:title="gui.UserInputBox.UserInputBox">
<polygon fill="white" stroke="black" points="854,-0.5 854,-19.5 1020,-19.5 1020,-0.5 854,-0.5"/>
<text text-anchor="middle" x="937" y="-7.5" font-family="Helvetica,sans-Serif" font-size="10.00">gui.UserInputBox.UserInputBox</text>
</a>
</g>
</g>
<!-- Node29&#45;&gt;Node30 -->
<g id="edge35" class="edge"><title>Node29&#45;&gt;Node30</title>
<path fill="none" stroke="midnightblue" d="M789.572,-10C810.383,-10 832.95,-10 853.993,-10"/>
<polygon fill="midnightblue" stroke="midnightblue" points="789.511,-6.5001 779.511,-10 789.511,-13.5001 789.511,-6.5001"/>
</g>
</g>
</svg>
        <g id="navigator" transform="translate(0 0)" fill="#404254">
                <rect fill="#f2f5e9" fill-opacity="0.5" stroke="#606060" stroke-width=".5" x="0" y="0" width="60" height="60"/>
                <use id="zoomplus" xlink:href="#zoomPlus" x="17" y="9" onmousedown="handleZoom(evt,'in')"/>
                <use id="zoomminus" xlink:href="#zoomMin" x="42" y="9" onmousedown="handleZoom(evt,'out')"/>
                <use id="reset" xlink:href="#resetDef" x="30" y="36" onmousedown="handleReset()"/>
                <g id="arrowUp" xlink:href="#dirArrow" transform="translate(30 24)" onmousedown="handlePan(0,-1)">
                  <use xlink:href="#rim" fill="#404040">
                        <set attributeName="fill" to="#808080" begin="arrowUp.mouseover" end="arrowUp.mouseout"/>
                  </use>
                  <path fill="none" stroke="white" stroke-width="1.5" d="M0,-3.0v7 M-2.5,-0.5L0,-3.0L2.5,-0.5"/>
                </g>
                <g id="arrowRight" xlink:href="#dirArrow" transform="rotate(90) translate(36 -43)" onmousedown="handlePan(1,0)">
                  <use xlink:href="#rim" fill="#404040">
                        <set attributeName="fill" to="#808080" begin="arrowRight.mouseover" end="arrowRight.mouseout"/>
                  </use>
                  <path fill="none" stroke="white" stroke-width="1.5" d="M0,-3.0v7 M-2.5,-0.5L0,-3.0L2.5,-0.5"/>
                </g>
                <g id="arrowDown" xlink:href="#dirArrow" transform="rotate(180) translate(-30 -48)" onmousedown="handlePan(0,1)">
                  <use xlink:href="#rim" fill="#404040">
                        <set attributeName="fill" to="#808080" begin="arrowDown.mouseover" end="arrowDown.mouseout"/>
                  </use>
                  <path fill="none" stroke="white" stroke-width="1.5" d="M0,-3.0v7 M-2.5,-0.5L0,-3.0L2.5,-0.5"/>
                </g>
                <g id="arrowLeft" xlink:href="#dirArrow" transform="rotate(270) translate(-36 17)" onmousedown="handlePan(-1,0)">
                  <use xlink:href="#rim" fill="#404040">
                        <set attributeName="fill" to="#808080" begin="arrowLeft.mouseover" end="arrowLeft.mouseout"/>
                  </use>
                  <path fill="none" stroke="white" stroke-width="1.5" d="M0,-3.0v7 M-2.5,-0.5L0,-3.0L2.5,-0.5"/>
                </g>
        </g>
        <svg viewBox="0 0 15 15" width="100%" height="30px" preserveAspectRatio="xMaxYMin meet">
         <g id="arrow_out" transform="scale(0.3 0.3)">
          <a xlink:href="classconfiguration_1_1_util_a163b0098613bf2f7becf27b131af3934_icgraph_org.svg" target="_base">
           <rect id="button" ry="5" rx="5" y="6" x="6" height="38" width="38"
                fill="#f2f5e9" fill-opacity="0.5" stroke="#606060" stroke-width="1.0"/>
           <path id="arrow"
             d="M 11.500037,31.436501 C 11.940474,20.09759 22.043105,11.32322 32.158766,21.979434 L 37.068811,17.246167 C 37.068811,17.246167 37.088388,32 37.088388,32 L 22.160133,31.978069 C 22.160133,31.978069 26.997745,27.140456 26.997745,27.140456 C 18.528582,18.264221 13.291696,25.230495 11.500037,31.436501 z"
             style="fill:#404040;"/>
          </a>
         </g>
        </svg>
</svg>
