<?xml version="1.0" encoding="UTF-8" standalone="no"?>
<!DOCTYPE svg PUBLIC "-//W3C//DTD SVG 1.1//EN"
 "http://www.w3.org/Graphics/SVG/1.1/DTD/svg11.dtd">
<!-- Generated by graphviz version 2.36.0 (20140111.2315)
 -->
<!-- Title: configuration.ForParser Pages: 1 -->
<svg width="247pt" height="176pt"
 viewBox="0.00 0.00 247.00 176.00" xmlns="http://www.w3.org/2000/svg" xmlns:xlink="http://www.w3.org/1999/xlink">
<g id="graph0" class="graph" transform="scale(1 1) rotate(0) translate(4 172)">
<title>configuration.ForParser</title>
<polygon fill="white" stroke="none" points="-4,4 -4,-172 243,-172 243,4 -4,4"/>
<!-- Node1 -->
<g id="node1" class="node"><title>Node1</title>
<polygon fill="#bfbfbf" stroke="black" points="56.5,-0.5 56.5,-19.5 183.5,-19.5 183.5,-0.5 56.5,-0.5"/>
<text text-anchor="middle" x="120" y="-7.5" font-family="Helvetica,sans-Serif" font-size="10.00">configuration.ForParser</text>
</g>
<!-- Node2 -->
<g id="node2" class="node"><title>Node2</title>
<g id="a_node2"><a xlink:href="../../d9/d11/classconfiguration_1_1_parser.html" target="_top" xlink:title="configuration.Parser">
<polygon fill="white" stroke="black" points="64,-58.5 64,-77.5 176,-77.5 176,-58.5 64,-58.5"/>
<text text-anchor="middle" x="120" y="-65.5" font-family="Helvetica,sans-Serif" font-size="10.00">configuration.Parser</text>
</a>
</g>
</g>
<!-- Node2&#45;&gt;Node1 -->
<g id="edge1" class="edge"><title>Node2&#45;&gt;Node1</title>
<path fill="none" stroke="midnightblue" d="M120,-47.953C120,-38.2875 120,-27.0312 120,-19.5052"/>
<polygon fill="midnightblue" stroke="midnightblue" points="116.5,-48.25 120,-58.25 123.5,-48.25 116.5,-48.25"/>
</g>
<!-- Node3 -->
<g id="node3" class="node"><title>Node3</title>
<polygon fill="white" stroke="#bfbfbf" points="0,-137 0,-167 112,-167 112,-137 0,-137"/>
<text text-anchor="start" x="8" y="-155" font-family="Helvetica,sans-Serif" font-size="10.00">List&lt; Entry&lt; String,</text>
<text text-anchor="middle" x="56" y="-144" font-family="Helvetica,sans-Serif" font-size="10.00"> Pattern &gt; &gt;</text>
</g>
<!-- Node3&#45;&gt;Node2 -->
<g id="edge2" class="edge"><title>Node3&#45;&gt;Node2</title>
<path fill="none" stroke="#9a32cd" stroke-dasharray="5,2" d="M73.5816,-128.474C86.721,-111.639 103.961,-89.5501 113.294,-77.5915"/>
<polygon fill="#9a32cd" stroke="#9a32cd" points="70.5416,-126.68 67.1479,-136.717 76.0598,-130.987 70.5416,-126.68"/>
<text text-anchor="middle" x="120" y="-104.5" font-family="Helvetica,sans-Serif" font-size="10.00"> patterns</text>
</g>
<!-- Node4 -->
<g id="node4" class="node"><title>Node4</title>
<polygon fill="white" stroke="#bfbfbf" points="130.5,-142.5 130.5,-161.5 239.5,-161.5 239.5,-142.5 130.5,-142.5"/>
<text text-anchor="middle" x="185" y="-149.5" font-family="Helvetica,sans-Serif" font-size="10.00">HashSet&lt; String &gt;</text>
</g>
<!-- Node4&#45;&gt;Node2 -->
<g id="edge3" class="edge"><title>Node4&#45;&gt;Node2</title>
<path fill="none" stroke="#9a32cd" stroke-dasharray="5,2" d="M173.749,-133.756C166.278,-122.665 156.033,-108.114 146,-96 140.687,-89.5847 134.187,-82.8347 129.015,-77.6885"/>
<polygon fill="#9a32cd" stroke="#9a32cd" points="170.861,-135.733 179.306,-142.13 176.693,-131.862 170.861,-135.733"/>
<text text-anchor="middle" x="194" y="-110" font-family="Helvetica,sans-Serif" font-size="10.00"> oneParComs</text>
<text text-anchor="middle" x="194" y="-99" font-family="Helvetica,sans-Serif" font-size="10.00">twoParComs</text>
</g>
</g>
</svg>
