<?xml version="1.0" encoding="UTF-8" standalone="no"?>
<!DOCTYPE svg PUBLIC "-//W3C//DTD SVG 1.1//EN"
 "http://www.w3.org/Graphics/SVG/1.1/DTD/svg11.dtd">
<!-- Generated by graphviz version 2.36.0 (20140111.2315)
 -->
<!-- Title: gui.LineView.findXEdge Pages: 1 -->
<svg width="1246pt" height="136pt"
 viewBox="0.00 0.00 1246.00 136.00" xmlns="http://www.w3.org/2000/svg" xmlns:xlink="http://www.w3.org/1999/xlink">
<g id="graph0" class="graph" transform="scale(1 1) rotate(0) translate(4 132)">
<title>gui.LineView.findXEdge</title>
<polygon fill="white" stroke="none" points="-4,4 -4,-132 1242,-132 1242,4 -4,4"/>
<!-- Node1 -->
<g id="node1" class="node"><title>Node1</title>
<polygon fill="#bfbfbf" stroke="black" points="0.5,-29.5 0.5,-48.5 125.5,-48.5 125.5,-29.5 0.5,-29.5"/>
<text text-anchor="middle" x="63" y="-36.5" font-family="Helvetica,sans-Serif" font-size="10.00">gui.LineView.findXEdge</text>
</g>
<!-- Node2 -->
<g id="node2" class="node"><title>Node2</title>
<g id="a_node2"><a xlink:href="../../d8/ddb/classgui_1_1_line_view.html#aac6f01646ce73691c335b27ecd385dea" target="_top" xlink:title="gui.LineView.findBoundary\lPoint">
<polygon fill="white" stroke="black" points="326,-24 326,-54 466,-54 466,-24 326,-24"/>
<text text-anchor="start" x="334" y="-42" font-family="Helvetica,sans-Serif" font-size="10.00">gui.LineView.findBoundary</text>
<text text-anchor="middle" x="396" y="-31" font-family="Helvetica,sans-Serif" font-size="10.00">Point</text>
</a>
</g>
</g>
<!-- Node1&#45;&gt;Node2 -->
<g id="edge1" class="edge"><title>Node1&#45;&gt;Node2</title>
<path fill="none" stroke="midnightblue" d="M136.123,-39C192.421,-39 270.148,-39 325.71,-39"/>
<polygon fill="midnightblue" stroke="midnightblue" points="135.87,-35.5001 125.87,-39 135.87,-42.5001 135.87,-35.5001"/>
</g>
<!-- Node10 -->
<g id="node10" class="node"><title>Node10</title>
<g id="a_node10"><a xlink:href="../../d8/ddb/classgui_1_1_line_view.html#a29757337f55037a9e48da9098eca8a09" target="_top" xlink:title="gui.LineView.findCorner">
<polygon fill="white" stroke="black" points="162.5,-10.5 162.5,-29.5 289.5,-29.5 289.5,-10.5 162.5,-10.5"/>
<text text-anchor="middle" x="226" y="-17.5" font-family="Helvetica,sans-Serif" font-size="10.00">gui.LineView.findCorner</text>
</a>
</g>
</g>
<!-- Node1&#45;&gt;Node10 -->
<g id="edge9" class="edge"><title>Node1&#45;&gt;Node10</title>
<path fill="none" stroke="midnightblue" d="M136.001,-30.503C144.777,-29.4674 153.689,-28.4156 162.314,-27.3977"/>
<polygon fill="midnightblue" stroke="midnightblue" points="135.307,-27.0605 125.786,-31.7084 136.128,-34.0122 135.307,-27.0605"/>
</g>
<!-- Node3 -->
<g id="node3" class="node"><title>Node3</title>
<g id="a_node3"><a xlink:href="../../d8/ddb/classgui_1_1_line_view.html#abe4c6727ecf95f07a0a7a68e4e7dcb40" target="_top" xlink:title="gui.LineView.drawLine">
<polygon fill="white" stroke="black" points="502.5,-29.5 502.5,-48.5 621.5,-48.5 621.5,-29.5 502.5,-29.5"/>
<text text-anchor="middle" x="562" y="-36.5" font-family="Helvetica,sans-Serif" font-size="10.00">gui.LineView.drawLine</text>
</a>
</g>
</g>
<!-- Node2&#45;&gt;Node3 -->
<g id="edge2" class="edge"><title>Node2&#45;&gt;Node3</title>
<path fill="none" stroke="midnightblue" d="M476.335,-39C485.112,-39 493.929,-39 502.384,-39"/>
<polygon fill="midnightblue" stroke="midnightblue" points="476.075,-35.5001 466.075,-39 476.075,-42.5001 476.075,-35.5001"/>
</g>
<!-- Node4 -->
<g id="node4" class="node"><title>Node4</title>
<g id="a_node4"><a xlink:href="../../d8/d65/classapplication_1_1_view_handler.html#a98b4ba09b3f3e8b1a7667db5598dbfb0" target="_top" xlink:title="application.ViewHandler.move\lTurtleImageAndDraw">
<polygon fill="white" stroke="black" points="658,-24 658,-54 818,-54 818,-24 658,-24"/>
<text text-anchor="start" x="666" y="-42" font-family="Helvetica,sans-Serif" font-size="10.00">application.ViewHandler.move</text>
<text text-anchor="middle" x="738" y="-31" font-family="Helvetica,sans-Serif" font-size="10.00">TurtleImageAndDraw</text>
</a>
</g>
</g>
<!-- Node3&#45;&gt;Node4 -->
<g id="edge3" class="edge"><title>Node3&#45;&gt;Node4</title>
<path fill="none" stroke="midnightblue" d="M632.074,-39C640.522,-39 649.206,-39 657.789,-39"/>
<polygon fill="midnightblue" stroke="midnightblue" points="631.908,-35.5001 621.908,-39 631.908,-42.5001 631.908,-35.5001"/>
</g>
<!-- Node5 -->
<g id="node5" class="node"><title>Node5</title>
<g id="a_node5"><a xlink:href="../../d8/d65/classapplication_1_1_view_handler.html#a1aff135a076a9717102bb59ea613131c" target="_top" xlink:title="application.ViewHandler.change\lLocationOfTurtle">
<polygon fill="white" stroke="black" points="854,-49 854,-79 1022,-79 1022,-49 854,-49"/>
<text text-anchor="start" x="862" y="-67" font-family="Helvetica,sans-Serif" font-size="10.00">application.ViewHandler.change</text>
<text text-anchor="middle" x="938" y="-56" font-family="Helvetica,sans-Serif" font-size="10.00">LocationOfTurtle</text>
</a>
</g>
</g>
<!-- Node4&#45;&gt;Node5 -->
<g id="edge4" class="edge"><title>Node4&#45;&gt;Node5</title>
<path fill="none" stroke="midnightblue" d="M828.092,-50.249C836.648,-51.3294 845.305,-52.4223 853.802,-53.4952"/>
<polygon fill="midnightblue" stroke="midnightblue" points="828.468,-46.7688 818.108,-48.9884 827.591,-53.7136 828.468,-46.7688"/>
</g>
<!-- Node8 -->
<g id="node8" class="node"><title>Node8</title>
<g id="a_node8"><a xlink:href="../../d8/d65/classapplication_1_1_view_handler.html#a1a94c855ceb0e8ffb1f72f138addb75b" target="_top" xlink:title="application.ViewHandler.move\lTurtle">
<polygon fill="white" stroke="black" points="858,-0 858,-30 1018,-30 1018,-0 858,-0"/>
<text text-anchor="start" x="866" y="-18" font-family="Helvetica,sans-Serif" font-size="10.00">application.ViewHandler.move</text>
<text text-anchor="middle" x="938" y="-7" font-family="Helvetica,sans-Serif" font-size="10.00">Turtle</text>
</a>
</g>
</g>
<!-- Node4&#45;&gt;Node8 -->
<g id="edge7" class="edge"><title>Node4&#45;&gt;Node8</title>
<path fill="none" stroke="midnightblue" d="M828.268,-28.1796C838.078,-26.9905 848.017,-25.7858 857.694,-24.6128"/>
<polygon fill="midnightblue" stroke="midnightblue" points="827.615,-24.7331 818.108,-29.4111 828.457,-31.6823 827.615,-24.7331"/>
</g>
<!-- Node6 -->
<g id="node6" class="node"><title>Node6</title>
<g id="a_node6"><a xlink:href="../../d5/de0/classcommands_1_1view_commands_1_1turtle_commands_1_1_clear_screen.html#ae547e4c170a1b6d41cdfc6c8bfe5e972" target="_top" xlink:title="commands.viewCommands.turtle\lCommands.ClearScreen.execute">
<polygon fill="white" stroke="black" points="1059,-98 1059,-128 1237,-128 1237,-98 1059,-98"/>
<text text-anchor="start" x="1067" y="-116" font-family="Helvetica,sans-Serif" font-size="10.00">commands.viewCommands.turtle</text>
<text text-anchor="middle" x="1148" y="-105" font-family="Helvetica,sans-Serif" font-size="10.00">Commands.ClearScreen.execute</text>
</a>
</g>
</g>
<!-- Node5&#45;&gt;Node6 -->
<g id="edge5" class="edge"><title>Node5&#45;&gt;Node6</title>
<path fill="none" stroke="midnightblue" d="M1012.57,-81.3309C1035.66,-86.7712 1060.95,-92.7285 1083.3,-97.9938"/>
<polygon fill="midnightblue" stroke="midnightblue" points="1013.36,-77.9209 1002.82,-79.0346 1011.75,-84.7344 1013.36,-77.9209"/>
</g>
<!-- Node7 -->
<g id="node7" class="node"><title>Node7</title>
<g id="a_node7"><a xlink:href="../../dd/da6/classcommands_1_1view_commands_1_1turtle_commands_1_1_move.html#af4d9a4d9ade56b5e3a1e582bd891b7b5" target="_top" xlink:title="commands.viewCommands.turtle\lCommands.Move.goToLocation">
<polygon fill="white" stroke="black" points="1059,-49 1059,-79 1237,-79 1237,-49 1059,-49"/>
<text text-anchor="start" x="1067" y="-67" font-family="Helvetica,sans-Serif" font-size="10.00">commands.viewCommands.turtle</text>
<text text-anchor="middle" x="1148" y="-56" font-family="Helvetica,sans-Serif" font-size="10.00">Commands.Move.goToLocation</text>
</a>
</g>
</g>
<!-- Node5&#45;&gt;Node7 -->
<g id="edge6" class="edge"><title>Node5&#45;&gt;Node7</title>
<path fill="none" stroke="midnightblue" d="M1032.11,-64C1041.03,-64 1050.05,-64 1058.92,-64"/>
<polygon fill="midnightblue" stroke="midnightblue" points="1032.1,-60.5001 1022.1,-64 1032.1,-67.5001 1032.1,-60.5001"/>
</g>
<!-- Node9 -->
<g id="node9" class="node"><title>Node9</title>
<g id="a_node9"><a xlink:href="../../dd/da6/classcommands_1_1view_commands_1_1turtle_commands_1_1_move.html#af95e8ccf5c290a4d06f79caf2deed407" target="_top" xlink:title="commands.viewCommands.turtle\lCommands.Move.changeLocation">
<polygon fill="white" stroke="black" points="1058.5,-0 1058.5,-30 1237.5,-30 1237.5,-0 1058.5,-0"/>
<text text-anchor="start" x="1066.5" y="-18" font-family="Helvetica,sans-Serif" font-size="10.00">commands.viewCommands.turtle</text>
<text text-anchor="middle" x="1148" y="-7" font-family="Helvetica,sans-Serif" font-size="10.00">Commands.Move.changeLocation</text>
</a>
</g>
</g>
<!-- Node8&#45;&gt;Node9 -->
<g id="edge8" class="edge"><title>Node8&#45;&gt;Node9</title>
<path fill="none" stroke="midnightblue" d="M1028.45,-15C1038.33,-15 1048.39,-15 1058.26,-15"/>
<polygon fill="midnightblue" stroke="midnightblue" points="1028.23,-11.5001 1018.23,-15 1028.23,-18.5001 1028.23,-11.5001"/>
</g>
<!-- Node10&#45;&gt;Node2 -->
<g id="edge10" class="edge"><title>Node10&#45;&gt;Node2</title>
<path fill="none" stroke="midnightblue" d="M299.675,-28.2192C308.379,-29.2036 317.248,-30.2066 325.899,-31.185"/>
<polygon fill="midnightblue" stroke="midnightblue" points="299.887,-24.7209 289.557,-27.0749 299.1,-31.6766 299.887,-24.7209"/>
</g>
</g>
</svg>
