<?xml version="1.0" encoding="UTF-8" standalone="no"?>
<!DOCTYPE svg PUBLIC "-//W3C//DTD SVG 1.1//EN"
 "http://www.w3.org/Graphics/SVG/1.1/DTD/svg11.dtd">
<!-- Generated by graphviz version 2.36.0 (20140111.2315)
 -->
<!-- Title: gui.LineView.setThickness Pages: 1 -->
<svg width="1368pt" height="312pt"
 viewBox="0.00 0.00 1368.00 312.00" xmlns="http://www.w3.org/2000/svg" xmlns:xlink="http://www.w3.org/1999/xlink">
<g id="graph0" class="graph" transform="scale(1 1) rotate(0) translate(4 308)">
<title>gui.LineView.setThickness</title>
<polygon fill="white" stroke="none" points="-4,4 -4,-308 1364,-308 1364,4 -4,4"/>
<!-- Node1 -->
<g id="node1" class="node"><title>Node1</title>
<polygon fill="#bfbfbf" stroke="black" points="0.5,-192.5 0.5,-211.5 139.5,-211.5 139.5,-192.5 0.5,-192.5"/>
<text text-anchor="middle" x="70" y="-199.5" font-family="Helvetica,sans-Serif" font-size="10.00">gui.LineView.setThickness</text>
</g>
<!-- Node2 -->
<g id="node2" class="node"><title>Node2</title>
<g id="a_node2"><a xlink:href="../../df/dcb/classapplication_1_1_pen_handler.html#a518bb3076e4d9d105870b0778341a8c0" target="_top" xlink:title="application.PenHandler.set\lThicknessParameter">
<polygon fill="white" stroke="black" points="176,-187 176,-217 320,-217 320,-187 176,-187"/>
<text text-anchor="start" x="184" y="-205" font-family="Helvetica,sans-Serif" font-size="10.00">application.PenHandler.set</text>
<text text-anchor="middle" x="248" y="-194" font-family="Helvetica,sans-Serif" font-size="10.00">ThicknessParameter</text>
</a>
</g>
</g>
<!-- Node1&#45;&gt;Node2 -->
<g id="edge1" class="edge"><title>Node1&#45;&gt;Node2</title>
<path fill="none" stroke="midnightblue" d="M149.664,-202C158.346,-202 167.15,-202 175.733,-202"/>
<polygon fill="midnightblue" stroke="midnightblue" points="149.55,-198.5 139.55,-202 149.55,-205.5 149.55,-198.5"/>
</g>
<!-- Node3 -->
<g id="node3" class="node"><title>Node3</title>
<g id="a_node3"><a xlink:href="../../d8/d65/classapplication_1_1_view_handler.html#a308dcaf9847965fa4a3d261347845f56" target="_top" xlink:title="application.ViewHandler.set\lInfoParamsOfTurtleAndLine">
<polygon fill="white" stroke="black" points="356,-187 356,-217 504,-217 504,-187 356,-187"/>
<text text-anchor="start" x="364" y="-205" font-family="Helvetica,sans-Serif" font-size="10.00">application.ViewHandler.set</text>
<text text-anchor="middle" x="430" y="-194" font-family="Helvetica,sans-Serif" font-size="10.00">InfoParamsOfTurtleAndLine</text>
</a>
</g>
</g>
<!-- Node2&#45;&gt;Node3 -->
<g id="edge2" class="edge"><title>Node2&#45;&gt;Node3</title>
<path fill="none" stroke="midnightblue" d="M330.373,-202C338.819,-202 347.368,-202 355.718,-202"/>
<polygon fill="midnightblue" stroke="midnightblue" points="330.141,-198.5 320.141,-202 330.141,-205.5 330.141,-198.5"/>
</g>
<!-- Node4 -->
<g id="node4" class="node"><title>Node4</title>
<g id="a_node4"><a xlink:href="../../d8/d65/classapplication_1_1_view_handler.html#ac37927f63d43d93f1b1e0f5a3b59cf26" target="_top" xlink:title="application.ViewHandler.initialize\lTurtle">
<polygon fill="white" stroke="black" points="540.5,-232 540.5,-262 711.5,-262 711.5,-232 540.5,-232"/>
<text text-anchor="start" x="548.5" y="-250" font-family="Helvetica,sans-Serif" font-size="10.00">application.ViewHandler.initialize</text>
<text text-anchor="middle" x="626" y="-239" font-family="Helvetica,sans-Serif" font-size="10.00">Turtle</text>
</a>
</g>
</g>
<!-- Node3&#45;&gt;Node4 -->
<g id="edge3" class="edge"><title>Node3&#45;&gt;Node4</title>
<path fill="none" stroke="midnightblue" d="M505.72,-219.332C523.683,-223.499 542.723,-227.915 560.192,-231.967"/>
<polygon fill="midnightblue" stroke="midnightblue" points="506.401,-215.897 495.869,-217.047 504.819,-222.716 506.401,-215.897"/>
</g>
<!-- Node6 -->
<g id="node6" class="node"><title>Node6</title>
<g id="a_node6"><a xlink:href="../../d8/d65/classapplication_1_1_view_handler.html#ae489ceaa9b5ec67faf3ba22a11cec085" target="_top" xlink:title="application.ViewHandler.update\lTurtleOnView">
<polygon fill="white" stroke="black" points="542.5,-142 542.5,-172 709.5,-172 709.5,-142 542.5,-142"/>
<text text-anchor="start" x="550.5" y="-160" font-family="Helvetica,sans-Serif" font-size="10.00">application.ViewHandler.update</text>
<text text-anchor="middle" x="626" y="-149" font-family="Helvetica,sans-Serif" font-size="10.00">TurtleOnView</text>
</a>
</g>
</g>
<!-- Node3&#45;&gt;Node6 -->
<g id="edge5" class="edge"><title>Node3&#45;&gt;Node6</title>
<path fill="none" stroke="midnightblue" d="M505.72,-184.668C523.683,-180.501 542.723,-176.085 560.192,-172.033"/>
<polygon fill="midnightblue" stroke="midnightblue" points="504.819,-181.284 495.869,-186.953 506.401,-188.103 504.819,-181.284"/>
</g>
<!-- Node5 -->
<g id="node5" class="node"><title>Node5</title>
<g id="a_node5"><a xlink:href="../../d8/d65/classapplication_1_1_view_handler.html#aede07ea15df8a762813028bb80403e6b" target="_top" xlink:title="application.ViewHandler.\lViewHandler">
<polygon fill="white" stroke="black" points="762.5,-274 762.5,-304 895.5,-304 895.5,-274 762.5,-274"/>
<text text-anchor="start" x="770.5" y="-292" font-family="Helvetica,sans-Serif" font-size="10.00">application.ViewHandler.</text>
<text text-anchor="middle" x="829" y="-281" font-family="Helvetica,sans-Serif" font-size="10.00">ViewHandler</text>
</a>
</g>
</g>
<!-- Node4&#45;&gt;Node5 -->
<g id="edge4" class="edge"><title>Node4&#45;&gt;Node5</title>
<path fill="none" stroke="midnightblue" d="M709.268,-264.19C726.891,-267.873 745.288,-271.717 762.193,-275.249"/>
<polygon fill="midnightblue" stroke="midnightblue" points="709.502,-260.664 698.998,-262.044 708.071,-267.516 709.502,-260.664"/>
</g>
<!-- Node7 -->
<g id="node7" class="node"><title>Node7</title>
<g id="a_node7"><a xlink:href="../../d8/d65/classapplication_1_1_view_handler.html#a1aff135a076a9717102bb59ea613131c" target="_top" xlink:title="application.ViewHandler.change\lLocationOfTurtle">
<polygon fill="white" stroke="black" points="961,-225 961,-255 1129,-255 1129,-225 961,-225"/>
<text text-anchor="start" x="969" y="-243" font-family="Helvetica,sans-Serif" font-size="10.00">application.ViewHandler.change</text>
<text text-anchor="middle" x="1045" y="-232" font-family="Helvetica,sans-Serif" font-size="10.00">LocationOfTurtle</text>
</a>
</g>
</g>
<!-- Node6&#45;&gt;Node7 -->
<g id="edge6" class="edge"><title>Node6&#45;&gt;Node7</title>
<path fill="none" stroke="midnightblue" d="M655.527,-178.073C679.032,-194.149 713.925,-215.153 748,-225 817.823,-245.177 900.708,-247.655 960.985,-245.823"/>
<polygon fill="midnightblue" stroke="midnightblue" points="657.303,-175.045 647.101,-172.187 653.294,-180.783 657.303,-175.045"/>
</g>
<!-- Node10 -->
<g id="node10" class="node"><title>Node10</title>
<g id="a_node10"><a xlink:href="../../d8/d65/classapplication_1_1_view_handler.html#a1a94c855ceb0e8ffb1f72f138addb75b" target="_top" xlink:title="application.ViewHandler.move\lTurtle">
<polygon fill="white" stroke="black" points="965,-164 965,-194 1125,-194 1125,-164 965,-164"/>
<text text-anchor="start" x="973" y="-182" font-family="Helvetica,sans-Serif" font-size="10.00">application.ViewHandler.move</text>
<text text-anchor="middle" x="1045" y="-171" font-family="Helvetica,sans-Serif" font-size="10.00">Turtle</text>
</a>
</g>
</g>
<!-- Node6&#45;&gt;Node10 -->
<g id="edge9" class="edge"><title>Node6&#45;&gt;Node10</title>
<path fill="none" stroke="midnightblue" d="M720.069,-161.91C793.61,-165.79 895.127,-171.146 964.807,-174.822"/>
<polygon fill="midnightblue" stroke="midnightblue" points="720.055,-158.405 709.884,-161.373 719.686,-165.395 720.055,-158.405"/>
</g>
<!-- Node12 -->
<g id="node12" class="node"><title>Node12</title>
<g id="a_node12"><a xlink:href="../../d8/d65/classapplication_1_1_view_handler.html#a98b4ba09b3f3e8b1a7667db5598dbfb0" target="_top" xlink:title="application.ViewHandler.move\lTurtleImageAndDraw">
<polygon fill="white" stroke="black" points="749,-186 749,-216 909,-216 909,-186 749,-186"/>
<text text-anchor="start" x="757" y="-204" font-family="Helvetica,sans-Serif" font-size="10.00">application.ViewHandler.move</text>
<text text-anchor="middle" x="829" y="-193" font-family="Helvetica,sans-Serif" font-size="10.00">TurtleImageAndDraw</text>
</a>
</g>
</g>
<!-- Node6&#45;&gt;Node12 -->
<g id="edge11" class="edge"><title>Node6&#45;&gt;Node12</title>
<path fill="none" stroke="midnightblue" d="M705.39,-174.16C723.202,-178.059 741.988,-182.171 759.358,-185.974"/>
<polygon fill="midnightblue" stroke="midnightblue" points="706.128,-170.739 695.611,-172.019 704.631,-177.577 706.128,-170.739"/>
</g>
<!-- Node13 -->
<g id="node13" class="node"><title>Node13</title>
<g id="a_node13"><a xlink:href="../../d8/d65/classapplication_1_1_view_handler.html#abe68f02cdf0227b13568e1aaabf57e5c" target="_top" xlink:title="application.ViewHandler.rotate\lTurtle">
<polygon fill="white" stroke="black" points="748,-98 748,-128 910,-128 910,-98 748,-98"/>
<text text-anchor="start" x="756" y="-116" font-family="Helvetica,sans-Serif" font-size="10.00">application.ViewHandler.rotate</text>
<text text-anchor="middle" x="829" y="-105" font-family="Helvetica,sans-Serif" font-size="10.00">Turtle</text>
</a>
</g>
</g>
<!-- Node6&#45;&gt;Node13 -->
<g id="edge14" class="edge"><title>Node6&#45;&gt;Node13</title>
<path fill="none" stroke="midnightblue" d="M705.39,-139.84C723.202,-135.941 741.988,-131.829 759.358,-128.026"/>
<polygon fill="midnightblue" stroke="midnightblue" points="704.631,-136.423 695.611,-141.981 706.128,-143.261 704.631,-136.423"/>
</g>
<!-- Node15 -->
<g id="node15" class="node"><title>Node15</title>
<g id="a_node15"><a xlink:href="../../d8/d65/classapplication_1_1_view_handler.html#af07eafb381b0ea9a1ce68f6ffe8a7428" target="_top" xlink:title="application.ViewHandler.set\lTurtleOrientation">
<polygon fill="white" stroke="black" points="755,-49 755,-79 903,-79 903,-49 755,-49"/>
<text text-anchor="start" x="763" y="-67" font-family="Helvetica,sans-Serif" font-size="10.00">application.ViewHandler.set</text>
<text text-anchor="middle" x="829" y="-56" font-family="Helvetica,sans-Serif" font-size="10.00">TurtleOrientation</text>
</a>
</g>
</g>
<!-- Node6&#45;&gt;Node15 -->
<g id="edge16" class="edge"><title>Node6&#45;&gt;Node15</title>
<path fill="none" stroke="midnightblue" d="M658.454,-136.424C682.298,-121.488 716.268,-101.598 748,-88 755.597,-84.7444 763.777,-81.7488 771.904,-79.0587"/>
<polygon fill="midnightblue" stroke="midnightblue" points="656.412,-133.574 649.837,-141.882 660.158,-139.487 656.412,-133.574"/>
</g>
<!-- Node18 -->
<g id="node18" class="node"><title>Node18</title>
<g id="a_node18"><a xlink:href="../../d8/d65/classapplication_1_1_view_handler.html#a55d042c40e05453e3f5f6bc6c1c6e060" target="_top" xlink:title="application.ViewHandler.show\lTurtle">
<polygon fill="white" stroke="black" points="750.5,-0 750.5,-30 907.5,-30 907.5,-0 750.5,-0"/>
<text text-anchor="start" x="758.5" y="-18" font-family="Helvetica,sans-Serif" font-size="10.00">application.ViewHandler.show</text>
<text text-anchor="middle" x="829" y="-7" font-family="Helvetica,sans-Serif" font-size="10.00">Turtle</text>
</a>
</g>
</g>
<!-- Node6&#45;&gt;Node18 -->
<g id="edge19" class="edge"><title>Node6&#45;&gt;Node18</title>
<path fill="none" stroke="midnightblue" d="M644.721,-133.972C666.344,-107.392 705.335,-64.1217 748,-39 753.748,-35.6156 760.013,-32.6726 766.424,-30.1216"/>
<polygon fill="midnightblue" stroke="midnightblue" points="641.837,-131.975 638.328,-141.972 647.305,-136.345 641.837,-131.975"/>
</g>
<!-- Node8 -->
<g id="node8" class="node"><title>Node8</title>
<g id="a_node8"><a xlink:href="../../d5/de0/classcommands_1_1view_commands_1_1turtle_commands_1_1_clear_screen.html#ae547e4c170a1b6d41cdfc6c8bfe5e972" target="_top" xlink:title="commands.viewCommands.turtle\lCommands.ClearScreen.execute">
<polygon fill="white" stroke="black" points="1181,-266 1181,-296 1359,-296 1359,-266 1181,-266"/>
<text text-anchor="start" x="1189" y="-284" font-family="Helvetica,sans-Serif" font-size="10.00">commands.viewCommands.turtle</text>
<text text-anchor="middle" x="1270" y="-273" font-family="Helvetica,sans-Serif" font-size="10.00">Commands.ClearScreen.execute</text>
</a>
</g>
</g>
<!-- Node7&#45;&gt;Node8 -->
<g id="edge7" class="edge"><title>Node7&#45;&gt;Node8</title>
<path fill="none" stroke="midnightblue" d="M1137.87,-256.891C1154.23,-259.9 1171.18,-263.015 1187.24,-265.968"/>
<polygon fill="midnightblue" stroke="midnightblue" points="1138.24,-253.4 1127.77,-255.034 1136.97,-260.285 1138.24,-253.4"/>
</g>
<!-- Node9 -->
<g id="node9" class="node"><title>Node9</title>
<g id="a_node9"><a xlink:href="../../dd/da6/classcommands_1_1view_commands_1_1turtle_commands_1_1_move.html#af4d9a4d9ade56b5e3a1e582bd891b7b5" target="_top" xlink:title="commands.viewCommands.turtle\lCommands.Move.goToLocation">
<polygon fill="white" stroke="black" points="1181,-217 1181,-247 1359,-247 1359,-217 1181,-217"/>
<text text-anchor="start" x="1189" y="-235" font-family="Helvetica,sans-Serif" font-size="10.00">commands.viewCommands.turtle</text>
<text text-anchor="middle" x="1270" y="-224" font-family="Helvetica,sans-Serif" font-size="10.00">Commands.Move.goToLocation</text>
</a>
</g>
</g>
<!-- Node7&#45;&gt;Node9 -->
<g id="edge8" class="edge"><title>Node7&#45;&gt;Node9</title>
<path fill="none" stroke="midnightblue" d="M1139.4,-236.649C1153.07,-236.159 1167.1,-235.655 1180.66,-235.169"/>
<polygon fill="midnightblue" stroke="midnightblue" points="1138.91,-233.165 1129.04,-237.021 1139.16,-240.16 1138.91,-233.165"/>
</g>
<!-- Node11 -->
<g id="node11" class="node"><title>Node11</title>
<g id="a_node11"><a xlink:href="../../dd/da6/classcommands_1_1view_commands_1_1turtle_commands_1_1_move.html#af95e8ccf5c290a4d06f79caf2deed407" target="_top" xlink:title="commands.viewCommands.turtle\lCommands.Move.changeLocation">
<polygon fill="white" stroke="black" points="1180.5,-164 1180.5,-194 1359.5,-194 1359.5,-164 1180.5,-164"/>
<text text-anchor="start" x="1188.5" y="-182" font-family="Helvetica,sans-Serif" font-size="10.00">commands.viewCommands.turtle</text>
<text text-anchor="middle" x="1270" y="-171" font-family="Helvetica,sans-Serif" font-size="10.00">Commands.Move.changeLocation</text>
</a>
</g>
</g>
<!-- Node10&#45;&gt;Node11 -->
<g id="edge10" class="edge"><title>Node10&#45;&gt;Node11</title>
<path fill="none" stroke="midnightblue" d="M1135.36,-179C1150.11,-179 1165.4,-179 1180.14,-179"/>
<polygon fill="midnightblue" stroke="midnightblue" points="1135.25,-175.5 1125.25,-179 1135.25,-182.5 1135.25,-175.5"/>
</g>
<!-- Node12&#45;&gt;Node7 -->
<g id="edge12" class="edge"><title>Node12&#45;&gt;Node7</title>
<path fill="none" stroke="midnightblue" d="M919.227,-217.261C933.287,-219.823 947.769,-222.463 961.664,-224.995"/>
<polygon fill="midnightblue" stroke="midnightblue" points="919.543,-213.761 909.078,-215.411 918.288,-220.648 919.543,-213.761"/>
</g>
<!-- Node12&#45;&gt;Node10 -->
<g id="edge13" class="edge"><title>Node12&#45;&gt;Node10</title>
<path fill="none" stroke="midnightblue" d="M919.432,-191.806C934.52,-190.255 950.088,-188.654 964.89,-187.133"/>
<polygon fill="midnightblue" stroke="midnightblue" points="918.667,-188.366 909.078,-192.871 919.383,-195.329 918.667,-188.366"/>
</g>
<!-- Node14 -->
<g id="node14" class="node"><title>Node14</title>
<g id="a_node14"><a xlink:href="../../d3/dba/classcommands_1_1view_commands_1_1turtle_commands_1_1_rotate.html#a8ee301e936ff8d884357dccac52c2bfb" target="_top" xlink:title="commands.viewCommands.turtle\lCommands.Rotate.changeOrientation">
<polygon fill="white" stroke="black" points="946.5,-98 946.5,-128 1143.5,-128 1143.5,-98 946.5,-98"/>
<text text-anchor="start" x="954.5" y="-116" font-family="Helvetica,sans-Serif" font-size="10.00">commands.viewCommands.turtle</text>
<text text-anchor="middle" x="1045" y="-105" font-family="Helvetica,sans-Serif" font-size="10.00">Commands.Rotate.changeOrientation</text>
</a>
</g>
</g>
<!-- Node13&#45;&gt;Node14 -->
<g id="edge15" class="edge"><title>Node13&#45;&gt;Node14</title>
<path fill="none" stroke="midnightblue" d="M920.296,-113C928.886,-113 937.623,-113 946.278,-113"/>
<polygon fill="midnightblue" stroke="midnightblue" points="920.295,-109.5 910.295,-113 920.295,-116.5 920.295,-109.5"/>
</g>
<!-- Node16 -->
<g id="node16" class="node"><title>Node16</title>
<g id="a_node16"><a xlink:href="../../df/d03/classcommands_1_1view_commands_1_1turtle_commands_1_1_go_towards_loc.html#a67f5f04ce72d0cd234d1e0a11e6d7c83" target="_top" xlink:title="commands.viewCommands.turtle\lCommands.GoTowardsLoc.execute">
<polygon fill="white" stroke="black" points="953,-49 953,-79 1137,-79 1137,-49 953,-49"/>
<text text-anchor="start" x="961" y="-67" font-family="Helvetica,sans-Serif" font-size="10.00">commands.viewCommands.turtle</text>
<text text-anchor="middle" x="1045" y="-56" font-family="Helvetica,sans-Serif" font-size="10.00">Commands.GoTowardsLoc.execute</text>
</a>
</g>
</g>
<!-- Node15&#45;&gt;Node16 -->
<g id="edge17" class="edge"><title>Node15&#45;&gt;Node16</title>
<path fill="none" stroke="midnightblue" d="M913.297,-64C926.226,-64 939.642,-64 952.736,-64"/>
<polygon fill="midnightblue" stroke="midnightblue" points="913.048,-60.5001 903.048,-64 913.048,-67.5001 913.048,-60.5001"/>
</g>
<!-- Node17 -->
<g id="node17" class="node"><title>Node17</title>
<g id="a_node17"><a xlink:href="../../df/ded/classcommands_1_1view_commands_1_1turtle_commands_1_1_set_heading.html#a3efffc1774ad2f0b23742a20789f0ee8" target="_top" xlink:title="commands.viewCommands.turtle\lCommands.SetHeading.execute">
<polygon fill="white" stroke="black" points="956,-0 956,-30 1134,-30 1134,-0 956,-0"/>
<text text-anchor="start" x="964" y="-18" font-family="Helvetica,sans-Serif" font-size="10.00">commands.viewCommands.turtle</text>
<text text-anchor="middle" x="1045" y="-7" font-family="Helvetica,sans-Serif" font-size="10.00">Commands.SetHeading.execute</text>
</a>
</g>
</g>
<!-- Node15&#45;&gt;Node17 -->
<g id="edge18" class="edge"><title>Node15&#45;&gt;Node17</title>
<path fill="none" stroke="midnightblue" d="M905.69,-46.6691C929.45,-41.2288 955.467,-35.2715 978.463,-30.0062"/>
<polygon fill="midnightblue" stroke="midnightblue" points="904.628,-43.3216 895.661,-48.9654 906.19,-50.1451 904.628,-43.3216"/>
</g>
</g>
</svg>
