<?xml version="1.0" encoding="UTF-8" standalone="no"?>
<!DOCTYPE svg PUBLIC "-//W3C//DTD SVG 1.1//EN"
 "http://www.w3.org/Graphics/SVG/1.1/DTD/svg11.dtd">
<!-- Generated by graphviz version 2.36.0 (20140111.2315)
 -->
<!-- Title: gui.LineView.drawLine Pages: 1 -->
<svg width="784pt" height="99pt"
 viewBox="0.00 0.00 784.00 98.89" xmlns="http://www.w3.org/2000/svg" xmlns:xlink="http://www.w3.org/1999/xlink">
<g id="graph0" class="graph" transform="scale(1 1) rotate(0) translate(4 94.8925)">
<title>gui.LineView.drawLine</title>
<polygon fill="white" stroke="none" points="-4,4 -4,-94.8925 780,-94.8925 780,4 -4,4"/>
<!-- Node1 -->
<g id="node1" class="node"><title>Node1</title>
<polygon fill="#bfbfbf" stroke="black" points="0.5,-10.7061 0.5,-29.7061 119.5,-29.7061 119.5,-10.7061 0.5,-10.7061"/>
<text text-anchor="middle" x="60" y="-17.7061" font-family="Helvetica,sans-Serif" font-size="10.00">gui.LineView.drawLine</text>
</g>
<!-- Node2 -->
<g id="node2" class="node"><title>Node2</title>
<g id="a_node2"><a xlink:href="../../d8/ddb/classgui_1_1_line_view.html#aac6f01646ce73691c335b27ecd385dea" target="_top" xlink:title="gui.LineView.findBoundary\lPoint">
<polygon fill="white" stroke="black" points="156,-35.2061 156,-65.2061 296,-65.2061 296,-35.2061 156,-35.2061"/>
<text text-anchor="start" x="164" y="-53.2061" font-family="Helvetica,sans-Serif" font-size="10.00">gui.LineView.findBoundary</text>
<text text-anchor="middle" x="226" y="-42.2061" font-family="Helvetica,sans-Serif" font-size="10.00">Point</text>
</a>
</g>
</g>
<!-- Node1&#45;&gt;Node2 -->
<g id="edge1" class="edge"><title>Node1&#45;&gt;Node2</title>
<path fill="none" stroke="midnightblue" d="M113.342,-29.7808C123.677,-31.6713 134.738,-33.6948 145.734,-35.7062"/>
<polygon fill="midnightblue" stroke="midnightblue" points="145.324,-39.1893 155.791,-37.5459 146.584,-32.3035 145.324,-39.1893"/>
</g>
<!-- Node5 -->
<g id="node5" class="node"><title>Node5</title>
<g id="a_node5"><a xlink:href="../../d8/d8b/classgui_1_1_view.html#a9df94efe60af56c89531c45f0f3f9624" target="_top" xlink:title="gui.View.setNewPoint">
<polygon fill="white" stroke="black" points="658.5,-18.7061 658.5,-37.7061 775.5,-37.7061 775.5,-18.7061 658.5,-18.7061"/>
<text text-anchor="middle" x="717" y="-25.7061" font-family="Helvetica,sans-Serif" font-size="10.00">gui.View.setNewPoint</text>
</a>
</g>
</g>
<!-- Node1&#45;&gt;Node5 -->
<g id="edge9" class="edge"><title>Node1&#45;&gt;Node5</title>
<path fill="none" stroke="midnightblue" d="M119.738,-14.4666C222.062,-5.49105 439.528,9.05059 622,-9.20611 637.076,-10.7145 653.311,-13.5513 667.977,-16.5815"/>
<polygon fill="midnightblue" stroke="midnightblue" points="667.335,-20.0232 677.846,-18.6963 668.801,-13.1786 667.335,-20.0232"/>
</g>
<!-- Node3 -->
<g id="node3" class="node"><title>Node3</title>
<g id="a_node3"><a xlink:href="../../d8/ddb/classgui_1_1_line_view.html#a29757337f55037a9e48da9098eca8a09" target="_top" xlink:title="gui.LineView.findCorner">
<polygon fill="white" stroke="black" points="332.5,-56.7061 332.5,-75.7061 459.5,-75.7061 459.5,-56.7061 332.5,-56.7061"/>
<text text-anchor="middle" x="396" y="-63.7061" font-family="Helvetica,sans-Serif" font-size="10.00">gui.LineView.findCorner</text>
</a>
</g>
</g>
<!-- Node2&#45;&gt;Node3 -->
<g id="edge2" class="edge"><title>Node2&#45;&gt;Node3</title>
<path fill="none" stroke="midnightblue" d="M296.302,-56.8063C304.877,-57.623 313.664,-58.4598 322.288,-59.2812"/>
<polygon fill="midnightblue" stroke="midnightblue" points="322.029,-62.7723 332.316,-60.2362 322.693,-55.8038 322.029,-62.7723"/>
</g>
<!-- Node4 -->
<g id="node4" class="node"><title>Node4</title>
<g id="a_node4"><a xlink:href="../../d8/ddb/classgui_1_1_line_view.html#a6cc826f05b0ac955fab89afbfca7c1a8" target="_top" xlink:title="gui.LineView.findYEdge">
<polygon fill="white" stroke="black" points="497,-56.7061 497,-75.7061 621,-75.7061 621,-56.7061 497,-56.7061"/>
<text text-anchor="middle" x="559" y="-63.7061" font-family="Helvetica,sans-Serif" font-size="10.00">gui.LineView.findYEdge</text>
</a>
</g>
</g>
<!-- Node2&#45;&gt;Node4 -->
<g id="edge8" class="edge"><title>Node2&#45;&gt;Node4</title>
<path fill="none" stroke="midnightblue" d="M262.72,-65.2988C282.701,-72.9239 308.291,-81.3587 332,-85.2061 388.154,-94.3187 403.372,-90.6449 460,-85.2061 475.85,-83.6838 492.945,-80.807 508.351,-77.744"/>
<polygon fill="midnightblue" stroke="midnightblue" points="509.112,-81.1609 518.201,-75.7166 507.7,-74.3046 509.112,-81.1609"/>
</g>
<!-- Node6 -->
<g id="node6" class="node"><title>Node6</title>
<g id="a_node6"><a xlink:href="../../d8/ddb/classgui_1_1_line_view.html#a4a4d4a5dc42ec1fc8896b453703b6991" target="_top" xlink:title="gui.LineView.findXEdge">
<polygon fill="white" stroke="black" points="496.5,-18.7061 496.5,-37.7061 621.5,-37.7061 621.5,-18.7061 496.5,-18.7061"/>
<text text-anchor="middle" x="559" y="-25.7061" font-family="Helvetica,sans-Serif" font-size="10.00">gui.LineView.findXEdge</text>
</a>
</g>
</g>
<!-- Node2&#45;&gt;Node6 -->
<g id="edge7" class="edge"><title>Node2&#45;&gt;Node6</title>
<path fill="none" stroke="midnightblue" d="M296.388,-45.5942C351.979,-41.8993 429.711,-36.7329 485.984,-32.9926"/>
<polygon fill="midnightblue" stroke="midnightblue" points="486.486,-36.4671 496.232,-32.3115 486.022,-29.4825 486.486,-36.4671"/>
</g>
<!-- Node3&#45;&gt;Node4 -->
<g id="edge3" class="edge"><title>Node3&#45;&gt;Node4</title>
<path fill="none" stroke="midnightblue" d="M459.708,-66.2061C468.561,-66.2061 477.716,-66.2061 486.715,-66.2061"/>
<polygon fill="midnightblue" stroke="midnightblue" points="486.785,-69.7062 496.785,-66.2061 486.785,-62.7062 486.785,-69.7062"/>
</g>
<!-- Node3&#45;&gt;Node6 -->
<g id="edge5" class="edge"><title>Node3&#45;&gt;Node6</title>
<path fill="none" stroke="midnightblue" d="M437.627,-56.6171C458.968,-51.58 485.312,-45.3623 507.908,-40.029"/>
<polygon fill="midnightblue" stroke="midnightblue" points="508.736,-43.4298 517.665,-37.7262 507.128,-36.617 508.736,-43.4298"/>
</g>
<!-- Node4&#45;&gt;Node5 -->
<g id="edge4" class="edge"><title>Node4&#45;&gt;Node5</title>
<path fill="none" stroke="midnightblue" d="M599.365,-56.6171C619.951,-51.6026 645.34,-45.418 667.169,-40.1008"/>
<polygon fill="midnightblue" stroke="midnightblue" points="668.03,-43.4935 676.918,-37.7262 666.373,-36.6924 668.03,-43.4935"/>
</g>
<!-- Node6&#45;&gt;Node5 -->
<g id="edge6" class="edge"><title>Node6&#45;&gt;Node5</title>
<path fill="none" stroke="midnightblue" d="M621.655,-28.2061C630.348,-28.2061 639.323,-28.2061 648.124,-28.2061"/>
<polygon fill="midnightblue" stroke="midnightblue" points="648.348,-31.7062 658.348,-28.2061 648.348,-24.7062 648.348,-31.7062"/>
</g>
</g>
</svg>
