<?xml version="1.0" encoding="UTF-8" standalone="no"?>
<!DOCTYPE svg PUBLIC "-//W3C//DTD SVG 1.1//EN"
 "http://www.w3.org/Graphics/SVG/1.1/DTD/svg11.dtd">
<!-- Generated by graphviz version 2.36.0 (20140111.2315)
 -->
<!-- Title: gui.LineView.clearScreen Pages: 1 -->
<svg width="556pt" height="87pt"
 viewBox="0.00 0.00 556.00 87.00" xmlns="http://www.w3.org/2000/svg" xmlns:xlink="http://www.w3.org/1999/xlink">
<g id="graph0" class="graph" transform="scale(1 1) rotate(0) translate(4 83)">
<title>gui.LineView.clearScreen</title>
<polygon fill="white" stroke="none" points="-4,4 -4,-83 552,-83 552,4 -4,4"/>
<!-- Node1 -->
<g id="node1" class="node"><title>Node1</title>
<polygon fill="#bfbfbf" stroke="black" points="0,-29.5 0,-48.5 134,-48.5 134,-29.5 0,-29.5"/>
<text text-anchor="middle" x="67" y="-36.5" font-family="Helvetica,sans-Serif" font-size="10.00">gui.LineView.clearScreen</text>
</g>
<!-- Node2 -->
<g id="node2" class="node"><title>Node2</title>
<g id="a_node2"><a xlink:href="../../d3/de0/classapplication_1_1_view_handler2.html#ab517e11a777d1ad00217284cee699f64" target="_top" xlink:title="application.ViewHandler2.clear\lScreen">
<polygon fill="white" stroke="black" points="170.5,-49 170.5,-79 333.5,-79 333.5,-49 170.5,-49"/>
<text text-anchor="start" x="178.5" y="-67" font-family="Helvetica,sans-Serif" font-size="10.00">application.ViewHandler2.clear</text>
<text text-anchor="middle" x="252" y="-56" font-family="Helvetica,sans-Serif" font-size="10.00">Screen</text>
</a>
</g>
</g>
<!-- Node1&#45;&gt;Node2 -->
<g id="edge1" class="edge"><title>Node1&#45;&gt;Node2</title>
<path fill="none" stroke="midnightblue" d="M144.127,-49.3998C152.786,-50.5828 161.635,-51.7917 170.351,-52.9823"/>
<polygon fill="midnightblue" stroke="midnightblue" points="144.449,-45.9114 134.067,-48.0256 143.501,-52.847 144.449,-45.9114"/>
</g>
<!-- Node3 -->
<g id="node3" class="node"><title>Node3</title>
<g id="a_node3"><a xlink:href="../../d8/d65/classapplication_1_1_view_handler.html#a53f77a87b6e532c698ba6ddddde5d43b" target="_top" xlink:title="application.ViewHandler.clear\lScreen">
<polygon fill="white" stroke="black" points="174,-0 174,-30 330,-30 330,-0 174,-0"/>
<text text-anchor="start" x="182" y="-18" font-family="Helvetica,sans-Serif" font-size="10.00">application.ViewHandler.clear</text>
<text text-anchor="middle" x="252" y="-7" font-family="Helvetica,sans-Serif" font-size="10.00">Screen</text>
</a>
</g>
</g>
<!-- Node1&#45;&gt;Node3 -->
<g id="edge2" class="edge"><title>Node1&#45;&gt;Node3</title>
<path fill="none" stroke="midnightblue" d="M144.171,-29.0104C153.969,-27.7254 164.008,-26.4087 173.822,-25.1216"/>
<polygon fill="midnightblue" stroke="midnightblue" points="143.527,-25.5647 134.067,-30.3354 144.437,-32.5053 143.527,-25.5647"/>
</g>
<!-- Node4 -->
<g id="node4" class="node"><title>Node4</title>
<g id="a_node4"><a xlink:href="../../d5/de0/classcommands_1_1view_commands_1_1turtle_commands_1_1_clear_screen.html#ae547e4c170a1b6d41cdfc6c8bfe5e972" target="_top" xlink:title="commands.viewCommands.turtle\lCommands.ClearScreen.execute">
<polygon fill="white" stroke="black" points="370,-0 370,-30 548,-30 548,-0 370,-0"/>
<text text-anchor="start" x="378" y="-18" font-family="Helvetica,sans-Serif" font-size="10.00">commands.viewCommands.turtle</text>
<text text-anchor="middle" x="459" y="-7" font-family="Helvetica,sans-Serif" font-size="10.00">Commands.ClearScreen.execute</text>
</a>
</g>
</g>
<!-- Node3&#45;&gt;Node4 -->
<g id="edge3" class="edge"><title>Node3&#45;&gt;Node4</title>
<path fill="none" stroke="midnightblue" d="M340.316,-15C350.094,-15 360.061,-15 369.85,-15"/>
<polygon fill="midnightblue" stroke="midnightblue" points="340.21,-11.5001 330.21,-15 340.21,-18.5001 340.21,-11.5001"/>
</g>
</g>
</svg>
